# Generated by Wraith - Game extraction tools
# Please credit DTZxPorter for using it!

v -8.790112 -1.317371 -2.845255
v -8.790112 4.103022 -2.845255
v -9.006093 -1.533352 -2.628862
v -8.790112 4.103022 -2.845255
v -9.006093 4.319001 -2.628862
v -9.006093 -1.533352 -2.628862
v -9.006093 -1.533352 0.346408
v -9.006093 -1.533352 -2.628862
v -9.006093 4.319001 -2.628862
v -9.006093 4.319001 0.346408
v -9.006093 -1.533352 0.346408
v -9.006093 4.319001 -2.628862
v -9.006093 -1.533352 0.346408
v -9.006093 4.319001 0.346408
v -8.790112 -1.317371 0.562798
v -9.006093 4.319001 0.346408
v -8.790112 4.103022 0.562798
v -8.790112 -1.317371 0.562798
v -0.023545 -1.533352 -2.628862
v -0.239525 -1.317371 -2.845255
v -8.790112 -1.317371 -2.845255
v -9.006093 -1.533352 -2.628862
v -0.023545 -1.533352 -2.628862
v -8.790112 -1.317371 -2.845255
v -0.023545 -1.533352 0.346408
v -0.023545 -1.533352 -2.628862
v -9.006093 -1.533352 -2.628862
v -9.006093 -1.533352 0.346408
v -0.023545 -1.533352 0.346408
v -9.006093 -1.533352 -2.628862
v -0.239525 -1.317371 0.562798
v -0.023545 -1.533352 0.346408
v -9.006093 -1.533352 0.346408
v -8.790112 -1.317371 0.562798
v -0.239525 -1.317371 0.562798
v -9.006093 -1.533352 0.346408
v -0.023545 4.319001 -2.628862
v -0.239525 4.103022 -2.845255
v -0.239525 -1.317371 -2.845255
v -0.023545 -1.533352 -2.628862
v -0.023545 4.319001 -2.628862
v -0.239525 -1.317371 -2.845255
v -0.023545 4.319001 0.346408
v -0.023545 4.319001 -2.628862
v -0.023545 -1.533352 -2.628862
v -0.023545 -1.533352 0.346408
v -0.023545 4.319001 0.346408
v -0.023545 -1.533352 -2.628862
v -0.239525 4.103022 0.562798
v -0.023545 4.319001 0.346408
v -0.023545 -1.533352 0.346408
v -0.239525 -1.317371 0.562798
v -0.239525 4.103022 0.562798
v -0.023545 -1.533352 0.346408
v -0.023545 4.319001 0.346408
v -0.239525 4.103022 0.562798
v -8.790112 4.103022 0.562798
v -9.006093 4.319001 0.346408
v -0.023545 4.319001 0.346408
v -8.790112 4.103022 0.562798
v -0.023545 4.319001 -2.628862
v -0.023545 4.319001 0.346408
v -9.006093 4.319001 0.346408
v -9.006093 4.319001 -2.628862
v -0.023545 4.319001 -2.628862
v -9.006093 4.319001 0.346408
v -0.239525 4.103022 -2.845255
v -0.023545 4.319001 -2.628862
v -9.006093 4.319001 -2.628862
v -8.790112 4.103022 -2.845255
v -0.239525 4.103022 -2.845255
v -9.006093 4.319001 -2.628862
v -8.790112 4.103022 -2.845255
v -8.790112 -1.317371 -2.845255
v -0.239525 4.103022 -2.845255
v -8.790112 -1.317371 -2.845255
v -0.239525 -1.317371 -2.845255
v -0.239525 4.103022 -2.845255
v -0.239525 -1.317371 0.562798
v -8.790112 -1.317371 0.562798
v -0.239525 4.103022 0.562798
v -8.790112 -1.317371 0.562798
v -8.790112 4.103022 0.562798
v -0.239525 4.103022 0.562798
v -0.233193 -1.337419 6.783565
v -0.233193 1.337419 6.783565
v -0.233193 -1.337419 -6.954190
v -0.233193 1.337419 6.783565
v -0.233193 1.337419 -6.954190
v -0.233193 -1.337419 -6.954190
v -8.781823 1.337419 6.783565
v -8.781823 -1.295933 6.783565
v -8.781823 1.337419 -8.200042
v -8.781823 -1.295933 6.783565
v -8.781823 -1.295933 -8.200042
v -8.781823 1.337419 -8.200042
v -0.233193 1.337419 6.783565
v -8.781823 1.337419 6.783565
v -0.233193 1.337419 -6.954190
v -8.781823 1.337419 6.783565
v -8.781823 1.337419 -8.200042
v -0.233193 1.337419 -6.954190
v -8.781823 -1.295933 -8.200042
v -8.781823 -1.295933 6.783565
v -0.233193 -1.337419 -6.954190
v -8.781823 -1.295933 6.783565
v -0.233193 -1.337419 6.783565
v -0.233193 -1.337419 -6.954190
v -0.233193 -1.337419 6.783565
v -8.781823 -1.295933 6.783565
v -0.233193 1.337419 6.783565
v -8.781823 -1.295933 6.783565
v -8.781823 1.337419 6.783565
v -0.233193 1.337419 6.783565
v -8.781823 1.337419 -8.200042
v -8.781823 -1.295933 -8.200042
v -0.233193 1.337419 -6.954190
v -8.781823 -1.295933 -8.200042
v -0.233193 -1.337419 -6.954190
v -0.233193 1.337419 -6.954190
v -0.234487 4.085219 -10.026553
v -0.234487 1.410381 -10.026553
v -0.231904 4.085219 3.746776
v -0.234487 1.410381 -10.026553
v -0.231904 1.410381 3.746776
v -0.231904 4.085219 3.746776
v -8.781823 1.410381 -10.026553
v -8.781823 4.085222 -10.026553
v -8.781823 1.410381 4.957054
v -8.781823 4.085222 -10.026553
v -8.781823 4.085222 4.957054
v -8.781823 1.410381 4.957054
v -0.234487 1.410381 -10.026553
v -8.781823 1.410381 -10.026553
v -0.231904 1.410381 3.746776
v -8.781823 1.410381 -10.026553
v -8.781823 1.410381 4.957054
v -0.231904 1.410381 3.746776
v -8.781823 4.085222 4.957054
v -8.781823 4.085222 -10.026553
v -0.231904 4.085219 3.746776
v -8.781823 4.085222 -10.026553
v -0.234487 4.085219 -10.026553
v -0.231904 4.085219 3.746776
v -8.781823 4.085222 -10.026553
v -8.781823 1.410381 -10.026553
v -0.234487 4.085219 -10.026553
v -8.781823 1.410381 -10.026553
v -0.234487 1.410381 -10.026553
v -0.234487 4.085219 -10.026553
v -8.781823 1.410381 4.957054
v -8.781823 4.085222 4.957054
v -0.231904 1.410381 3.746776
v -8.781823 4.085222 4.957054
v -0.231904 4.085219 3.746776
v -0.231904 1.410381 3.746776
vt 0.876465 0.616455
vt 0.904785 0.616455
vt 0.876465 0.617188
vt 0.904785 0.616455
vt 0.904785 0.617188
vt 0.876465 0.617188
vt 0.876465 0.626953
vt 0.876465 0.617188
vt 0.904785 0.617188
vt 0.904785 0.626953
vt 0.876465 0.626953
vt 0.904785 0.617188
vt 0.876465 0.626953
vt 0.904785 0.626953
vt 0.876465 0.627686
vt 0.904785 0.626953
vt 0.904785 0.627686
vt 0.876465 0.627686
vt 0.951172 0.617188
vt 0.951172 0.616455
vt 0.876465 0.616455
vt 0.876465 0.617188
vt 0.951172 0.617188
vt 0.876465 0.616455
vt 0.951172 0.626953
vt 0.951172 0.617188
vt 0.876465 0.617188
vt 0.876465 0.626953
vt 0.951172 0.626953
vt 0.876465 0.617188
vt 0.951172 0.627686
vt 0.951172 0.626953
vt 0.876465 0.626953
vt 0.876465 0.627686
vt 0.951172 0.627686
vt 0.876465 0.626953
vt 0.978027 0.617188
vt 0.978027 0.616455
vt 0.951172 0.616455
vt 0.951172 0.617188
vt 0.978027 0.617188
vt 0.951172 0.616455
vt 0.978027 0.626953
vt 0.978027 0.617188
vt 0.951172 0.617188
vt 0.951172 0.626953
vt 0.978027 0.626953
vt 0.951172 0.617188
vt 0.978027 0.627686
vt 0.978027 0.626953
vt 0.951172 0.626953
vt 0.951172 0.627686
vt 0.978027 0.627686
vt 0.951172 0.626953
vt 0.978027 0.626953
vt 0.978027 0.627686
vt 0.904785 0.627686
vt 0.904785 0.626953
vt 0.978027 0.626953
vt 0.904785 0.627686
vt 0.978027 0.617188
vt 0.978027 0.626953
vt 0.904785 0.626953
vt 0.904785 0.617188
vt 0.978027 0.617188
vt 0.904785 0.626953
vt 0.978027 0.616455
vt 0.978027 0.617188
vt 0.904785 0.617188
vt 0.904785 0.616455
vt 0.978027 0.616455
vt 0.904785 0.617188
vt 0.904785 0.616455
vt 0.876465 0.616455
vt 0.978027 0.616455
vt 0.876465 0.616455
vt 0.951172 0.616455
vt 0.978027 0.616455
vt 0.951172 0.627686
vt 0.876465 0.627686
vt 0.978027 0.627686
vt 0.876465 0.627686
vt 0.904785 0.627686
vt 0.978027 0.627686
vt 1.181641 0.263672
vt 1.181641 0.270020
vt 1.323242 0.263672
vt 1.181641 0.270020
vt 1.323242 0.270020
vt 1.323242 0.263672
vt 0.178223 0.253906
vt 0.178223 0.271973
vt 0.331543 0.253906
vt 0.178223 0.271973
vt 0.331543 0.271973
vt 0.331543 0.253906
vt 0.178223 0.169922
vt 0.178223 0.253906
vt 0.319336 0.169922
vt 0.178223 0.253906
vt 0.331543 0.253906
vt 0.319336 0.169922
vt 1.331055 0.252441
vt 1.177734 0.252441
vt 1.319336 0.169922
vt 1.177734 0.252441
vt 1.177734 0.169922
vt 1.319336 0.169922
vt 0.359619 0.231934
vt 0.426758 0.231934
vt 0.359619 0.211426
vt 0.426758 0.231934
vt 0.426758 0.211426
vt 0.359619 0.211426
vt 0.539063 0.181152
vt 0.539063 0.150879
vt 0.457031 0.181152
vt 0.539063 0.150879
vt 0.457031 0.150879
vt 0.457031 0.181152
vt 1.181641 0.263672
vt 1.181641 0.270020
vt 1.323242 0.263672
vt 1.181641 0.270020
vt 1.323242 0.270020
vt 1.323242 0.263672
vt 0.178223 0.253906
vt 0.178223 0.271973
vt 0.331543 0.253906
vt 0.178223 0.271973
vt 0.331543 0.271973
vt 0.331543 0.253906
vt 0.178223 0.169922
vt 0.178223 0.253906
vt 0.319336 0.169922
vt 0.178223 0.253906
vt 0.331543 0.253906
vt 0.319336 0.169922
vt 1.331055 0.252441
vt 1.177734 0.252441
vt 1.319336 0.169922
vt 1.177734 0.252441
vt 1.177734 0.169922
vt 1.319336 0.169922
vt 0.426758 0.231934
vt 0.426758 0.211426
vt 0.359619 0.231934
vt 0.426758 0.211426
vt 0.359619 0.211426
vt 0.359619 0.231934
vt 0.539063 0.181152
vt 0.539063 0.150879
vt 0.457031 0.181152
vt 0.539063 0.150879
vt 0.457031 0.150879
vt 0.457031 0.181152
vn 0.000000 0.000000 -1.000000
vn 0.000000 0.000000 -1.000000
vn -1.000000 0.000000 0.000000
vn 0.000000 0.000000 -1.000000
vn -1.000000 0.000000 0.000000
vn -1.000000 0.000000 0.000000
vn -1.000000 0.000000 0.000000
vn -1.000000 0.000000 0.000000
vn -1.000000 0.000000 0.000000
vn -1.000000 0.000000 0.000000
vn -1.000000 0.000000 0.000000
vn -1.000000 0.000000 0.000000
vn -1.000000 0.000000 0.000000
vn -1.000000 0.000000 0.000000
vn 0.000000 0.000000 1.000000
vn -1.000000 0.000000 0.000000
vn 0.000000 0.000000 1.000000
vn 0.000000 0.000000 1.000000
vn 0.000000 -1.000000 0.000000
vn 0.000000 0.000000 -1.000000
vn 0.000000 0.000000 -1.000000
vn 0.000000 -1.000000 0.000000
vn 0.000000 -1.000000 0.000000
vn 0.000000 0.000000 -1.000000
vn 0.000000 -1.000000 0.000000
vn 0.000000 -1.000000 0.000000
vn 0.000000 -1.000000 0.000000
vn 0.000000 -1.000000 0.000000
vn 0.000000 -1.000000 0.000000
vn 0.000000 -1.000000 0.000000
vn 0.000000 0.000000 1.000000
vn 0.000000 -1.000000 0.000000
vn 0.000000 -1.000000 0.000000
vn 0.000000 0.000000 1.000000
vn 0.000000 0.000000 1.000000
vn 0.000000 -1.000000 0.000000
vn 1.000000 0.000000 0.000000
vn 0.000000 0.000000 -1.000000
vn 0.000000 0.000000 -1.000000
vn 1.000000 0.000000 0.000000
vn 1.000000 0.000000 0.000000
vn 0.000000 0.000000 -1.000000
vn 1.000000 0.000000 0.000000
vn 1.000000 0.000000 0.000000
vn 1.000000 0.000000 0.000000
vn 1.000000 0.000000 0.000000
vn 1.000000 0.000000 0.000000
vn 1.000000 0.000000 0.000000
vn 0.000000 0.000000 1.000000
vn 1.000000 0.000000 0.000000
vn 1.000000 0.000000 0.000000
vn 0.000000 0.000000 1.000000
vn 0.000000 0.000000 1.000000
vn 1.000000 0.000000 0.000000
vn 0.000000 1.000000 0.000000
vn 0.000000 0.000000 1.000000
vn 0.000000 0.000000 1.000000
vn 0.000000 1.000000 0.000000
vn 0.000000 1.000000 0.000000
vn 0.000000 0.000000 1.000000
vn 0.000000 1.000000 0.000000
vn 0.000000 1.000000 0.000000
vn 0.000000 1.000000 0.000000
vn 0.000000 1.000000 0.000000
vn 0.000000 1.000000 0.000000
vn 0.000000 1.000000 0.000000
vn 0.000000 0.000000 -1.000000
vn 0.000000 1.000000 0.000000
vn 0.000000 1.000000 0.000000
vn 0.000000 0.000000 -1.000000
vn 0.000000 0.000000 -1.000000
vn 0.000000 1.000000 0.000000
vn 0.000000 0.000000 -1.000000
vn 0.000000 0.000000 -1.000000
vn 0.000000 0.000000 -1.000000
vn 0.000000 0.000000 -1.000000
vn 0.000000 0.000000 -1.000000
vn 0.000000 0.000000 -1.000000
vn 0.000000 0.000000 1.000000
vn 0.000000 0.000000 1.000000
vn 0.000000 0.000000 1.000000
vn 0.000000 0.000000 1.000000
vn 0.000000 0.000000 1.000000
vn 0.000000 0.000000 1.000000
vn 1.000000 0.000000 0.000000
vn 1.000000 0.000000 0.000000
vn 1.000000 0.000000 0.000000
vn 1.000000 0.000000 0.000000
vn 1.000000 0.000000 0.000000
vn 1.000000 0.000000 0.000000
vn -1.000000 0.000000 0.000000
vn -1.000000 0.000000 0.000000
vn -1.000000 0.000000 0.000000
vn -1.000000 0.000000 0.000000
vn -1.000000 0.000000 0.000000
vn -1.000000 0.000000 0.000000
vn 0.000000 1.000000 0.000000
vn 0.000000 1.000000 0.000000
vn 0.000000 1.000000 0.000000
vn 0.000000 1.000000 0.000000
vn 0.000000 1.000000 0.000000
vn 0.000000 1.000000 0.000000
vn -0.003914 -1.000000 0.000000
vn -0.003914 -1.000000 0.000000
vn -0.003914 -1.000000 0.000000
vn -0.003914 -1.000000 0.000000
vn -0.003914 -1.000000 0.000000
vn -0.003914 -1.000000 0.000000
vn 0.000000 0.000000 1.000000
vn 0.000000 0.000000 1.000000
vn 0.000000 0.000000 1.000000
vn 0.000000 0.000000 1.000000
vn 0.000000 0.000000 1.000000
vn 0.000000 0.000000 1.000000
vn 0.144814 0.000000 -0.990215
vn 0.144814 0.000000 -0.990215
vn 0.144814 0.000000 -0.990215
vn 0.144814 0.000000 -0.990215
vn 0.144814 0.000000 -0.990215
vn 0.144814 0.000000 -0.990215
vn 1.000000 0.000000 0.000000
vn 1.000000 0.000000 0.000000
vn 1.000000 0.000000 0.000000
vn 1.000000 0.000000 0.000000
vn 1.000000 0.000000 0.000000
vn 1.000000 0.000000 0.000000
vn -1.000000 0.000000 0.000000
vn -1.000000 0.000000 0.000000
vn -1.000000 0.000000 0.000000
vn -1.000000 0.000000 0.000000
vn -1.000000 0.000000 0.000000
vn -1.000000 0.000000 0.000000
vn 0.000000 -1.000000 0.000000
vn 0.000000 -1.000000 0.000000
vn 0.000000 -1.000000 0.000000
vn 0.000000 -1.000000 0.000000
vn 0.000000 -1.000000 0.000000
vn 0.000000 -1.000000 0.000000
vn 0.000000 1.000000 0.000000
vn 0.000000 1.000000 0.000000
vn 0.000000 1.000000 0.000000
vn 0.000000 1.000000 0.000000
vn 0.000000 1.000000 0.000000
vn 0.000000 1.000000 0.000000
vn 0.000000 0.000000 -1.000000
vn 0.000000 0.000000 -1.000000
vn 0.000000 0.000000 -1.000000
vn 0.000000 0.000000 -1.000000
vn 0.000000 0.000000 -1.000000
vn 0.000000 0.000000 -1.000000
vn 0.140900 0.000000 0.990215
vn 0.140900 0.000000 0.990215
vn 0.140900 0.000000 0.990215
vn 0.140900 0.000000 0.990215
vn 0.140900 0.000000 0.990215
vn 0.140900 0.000000 0.990215
mtllib mtl_t6_wpn_ar_saritch.mtl
g mtl_t6_wpn_ar_saritch
usemtl mtl_t6_wpn_ar_saritch
f 3/3/3 2/2/2 1/1/1
f 6/6/6 5/5/5 4/4/4
f 9/9/9 8/8/8 7/7/7
f 12/12/12 11/11/11 10/10/10
f 15/15/15 14/14/14 13/13/13
f 18/18/18 17/17/17 16/16/16
f 21/21/21 20/20/20 19/19/19
f 24/24/24 23/23/23 22/22/22
f 27/27/27 26/26/26 25/25/25
f 30/30/30 29/29/29 28/28/28
f 33/33/33 32/32/32 31/31/31
f 36/36/36 35/35/35 34/34/34
f 39/39/39 38/38/38 37/37/37
f 42/42/42 41/41/41 40/40/40
f 45/45/45 44/44/44 43/43/43
f 48/48/48 47/47/47 46/46/46
f 51/51/51 50/50/50 49/49/49
f 54/54/54 53/53/53 52/52/52
f 57/57/57 56/56/56 55/55/55
f 60/60/60 59/59/59 58/58/58
f 63/63/63 62/62/62 61/61/61
f 66/66/66 65/65/65 64/64/64
f 69/69/69 68/68/68 67/67/67
f 72/72/72 71/71/71 70/70/70
f 75/75/75 74/74/74 73/73/73
f 78/78/78 77/77/77 76/76/76
f 81/81/81 80/80/80 79/79/79
f 84/84/84 83/83/83 82/82/82
f 87/87/87 86/86/86 85/85/85
f 90/90/90 89/89/89 88/88/88
f 93/93/93 92/92/92 91/91/91
f 96/96/96 95/95/95 94/94/94
f 99/99/99 98/98/98 97/97/97
f 102/102/102 101/101/101 100/100/100
f 105/105/105 104/104/104 103/103/103
f 108/108/108 107/107/107 106/106/106
f 111/111/111 110/110/110 109/109/109
f 114/114/114 113/113/113 112/112/112
f 117/117/117 116/116/116 115/115/115
f 120/120/120 119/119/119 118/118/118
f 123/123/123 122/122/122 121/121/121
f 126/126/126 125/125/125 124/124/124
f 129/129/129 128/128/128 127/127/127
f 132/132/132 131/131/131 130/130/130
f 135/135/135 134/134/134 133/133/133
f 138/138/138 137/137/137 136/136/136
f 141/141/141 140/140/140 139/139/139
f 144/144/144 143/143/143 142/142/142
f 147/147/147 146/146/146 145/145/145
f 150/150/150 149/149/149 148/148/148
f 153/153/153 152/152/152 151/151/151
f 156/156/156 155/155/155 154/154/154
