# Generated by Wraith - Game extraction tools
# Please credit DTZxPorter for using it!

v 3.365754 -4.420451 2.835366
v 4.395417 -4.379445 -4.507375
v -4.043916 -4.395666 1.927019
v 4.395417 -4.379445 -4.507375
v -2.656148 -4.342041 -6.083679
v -4.043916 -4.395666 1.927019
v 4.395417 -4.379445 -4.507375
v 6.705009 -4.351012 -13.642116
v -2.656148 -4.342041 -6.083679
v 6.705009 -4.351012 -13.642116
v -0.054292 -4.301406 -15.840370
v -2.656148 -4.342041 -6.083679
v 6.705009 -4.351012 -13.642116
v 8.917653 -4.346892 -19.201813
v -0.054292 -4.301406 -15.840370
v 8.917653 -4.346892 -19.201813
v 2.521463 -4.296580 -22.335749
v -0.054292 -4.301406 -15.840370
v -4.043916 -4.395666 1.927019
v -4.043916 -1.536603 1.927019
v 3.365754 -4.420451 2.835366
v -4.043916 -1.536603 1.927019
v 3.365754 -1.511816 2.835366
v 3.365754 -4.420451 2.835366
v -4.043916 -1.536603 1.927019
v -4.043916 -4.395666 1.927019
v -2.656148 -4.342041 -6.083679
v -2.656148 -1.590228 -6.083679
v -4.043916 -1.536603 1.927019
v -2.656148 -4.342041 -6.083679
v -2.656148 -1.590228 -6.083679
v -2.656148 -4.342041 -6.083679
v -0.054292 -4.301406 -15.840370
v -0.054292 -1.630863 -15.840370
v -2.656148 -1.590228 -6.083679
v -0.054292 -4.301406 -15.840370
v -0.054292 -1.630863 -15.840370
v -0.054292 -4.301406 -15.840370
v 2.521463 -4.296580 -22.335749
v 2.521463 -1.635689 -22.335749
v -0.054292 -1.630863 -15.840370
v 2.521463 -4.296580 -22.335749
v 8.917653 -1.585377 -19.201813
v 2.521463 -1.635689 -22.335749
v 8.917653 -4.346892 -19.201813
v 2.521463 -1.635689 -22.335749
v 2.521463 -4.296580 -22.335749
v 8.917653 -4.346892 -19.201813
v 3.365754 -1.511816 2.835366
v -4.043916 -1.536603 1.927019
v 4.395417 -1.552824 -4.507375
v -4.043916 -1.536603 1.927019
v -2.656148 -1.590228 -6.083679
v 4.395417 -1.552824 -4.507375
v 4.395417 -1.552824 -4.507375
v -2.656148 -1.590228 -6.083679
v 6.705009 -1.581257 -13.642116
v -2.656148 -1.590228 -6.083679
v -0.054292 -1.630863 -15.840370
v 6.705009 -1.581257 -13.642116
v 8.917653 -1.585377 -19.201813
v 6.705009 -1.581257 -13.642116
v -0.054292 -1.630863 -15.840370
v 2.521463 -1.635689 -22.335749
v 8.917653 -1.585377 -19.201813
v -0.054292 -1.630863 -15.840370
v 3.365754 -1.511816 2.835366
v 4.395417 -1.552824 -4.507375
v 3.365754 -4.420451 2.835366
v 4.395417 -1.552824 -4.507375
v 4.395417 -4.379445 -4.507375
v 3.365754 -4.420451 2.835366
v 4.395417 -1.552824 -4.507375
v 6.705009 -1.581257 -13.642116
v 4.395417 -4.379445 -4.507375
v 6.705009 -1.581257 -13.642116
v 6.705009 -4.351012 -13.642116
v 4.395417 -4.379445 -4.507375
v 6.705009 -1.581257 -13.642116
v 8.917653 -1.585377 -19.201813
v 6.705009 -4.351012 -13.642116
v 8.917653 -1.585377 -19.201813
v 8.917653 -4.346892 -19.201813
v 6.705009 -4.351012 -13.642116
v 7.966240 1.454318 -16.412922
v 5.609120 1.413309 -9.382983
v 0.930580 1.429532 -18.908478
v 5.609120 1.413309 -9.382983
v -1.404349 1.375908 -11.120968
v 0.930580 1.429532 -18.908478
v 5.609120 1.413309 -9.382983
v 3.597161 1.384876 -0.178110
v -1.404349 1.375908 -11.120968
v 3.597161 1.384876 -0.178110
v -3.432487 1.335270 -1.229083
v -1.404349 1.375908 -11.120968
v 3.597161 1.384876 -0.178110
v 3.094671 1.380759 5.784571
v -3.432487 1.335270 -1.229083
v 3.094671 1.380759 5.784571
v -4.027838 1.330447 5.732958
v -3.432487 1.335270 -1.229083
v 0.930580 1.429532 -18.908478
v 0.930580 -1.429532 -18.908478
v 7.966240 1.454318 -16.412922
v 0.930580 -1.429532 -18.908478
v 7.966240 -1.454318 -16.412922
v 7.966240 1.454318 -16.412922
v 0.930580 -1.429532 -18.908478
v 0.930580 1.429532 -18.908478
v -1.404349 1.375908 -11.120968
v -1.404349 -1.375908 -11.120968
v 0.930580 -1.429532 -18.908478
v -1.404349 1.375908 -11.120968
v -1.404349 -1.375908 -11.120968
v -1.404349 1.375908 -11.120968
v -3.432487 1.335270 -1.229083
v -3.432487 -1.335270 -1.229083
v -1.404349 -1.375908 -11.120968
v -3.432487 1.335270 -1.229083
v -3.432487 -1.335270 -1.229083
v -3.432487 1.335270 -1.229083
v -4.027838 1.330447 5.732958
v -4.027838 -1.330447 5.732958
v -3.432487 -1.335270 -1.229083
v -4.027838 1.330447 5.732958
v 3.094671 -1.380759 5.784571
v -4.027838 -1.330447 5.732958
v 3.094671 1.380759 5.784571
v -4.027838 -1.330447 5.732958
v -4.027838 1.330447 5.732958
v 3.094671 1.380759 5.784571
v 7.966240 -1.454318 -16.412922
v 0.930580 -1.429532 -18.908478
v 5.609120 -1.413309 -9.382983
v 0.930580 -1.429532 -18.908478
v -1.404349 -1.375908 -11.120968
v 5.609120 -1.413309 -9.382983
v 5.609120 -1.413309 -9.382983
v -1.404349 -1.375908 -11.120968
v 3.597161 -1.384876 -0.178110
v -1.404349 -1.375908 -11.120968
v -3.432487 -1.335270 -1.229083
v 3.597161 -1.384876 -0.178110
v 3.094671 -1.380759 5.784571
v 3.597161 -1.384876 -0.178110
v -3.432487 -1.335270 -1.229083
v -4.027838 -1.330447 5.732958
v 3.094671 -1.380759 5.784571
v -3.432487 -1.335270 -1.229083
v 7.966240 -1.454318 -16.412922
v 5.609120 -1.413309 -9.382983
v 7.966240 1.454318 -16.412922
v 5.609120 -1.413309 -9.382983
v 5.609120 1.413309 -9.382983
v 7.966240 1.454318 -16.412922
v 5.609120 -1.413309 -9.382983
v 3.597161 -1.384876 -0.178110
v 5.609120 1.413309 -9.382983
v 3.597161 -1.384876 -0.178110
v 3.597161 1.384876 -0.178110
v 5.609120 1.413309 -9.382983
v 3.597161 -1.384876 -0.178110
v 3.094671 -1.380759 5.784571
v 3.597161 1.384876 -0.178110
v 3.094671 -1.380759 5.784571
v 3.094671 1.380759 5.784571
v 3.597161 1.384876 -0.178110
vt 0.104553 0.171875
vt 0.114624 0.268555
vt 0.202148 0.149902
vt 0.114624 0.268555
vt 0.210449 0.259766
vt 0.202148 0.149902
vt 0.114624 0.268555
vt 0.113037 0.395996
vt 0.210449 0.259766
vt 0.113037 0.395996
vt 0.208740 0.399414
vt 0.210449 0.259766
vt 0.113037 0.395996
vt 0.103027 0.473633
vt 0.208740 0.399414
vt 0.103027 0.473633
vt 0.195801 0.492676
vt 0.208740 0.399414
vt 0.034485 0.268555
vt 0.044647 0.268555
vt 0.034485 0.333496
vt 0.044647 0.268555
vt 0.044647 0.333496
vt 0.034485 0.333496
vt 0.027054 0.614990
vt 0.006805 0.614990
vt 0.006805 0.519531
vt 0.027054 0.519531
vt 0.027054 0.614990
vt 0.006805 0.519531
vt 0.027054 0.519531
vt 0.006805 0.519531
vt 0.006805 0.332520
vt 0.027054 0.332520
vt 0.027054 0.519531
vt 0.006805 0.332520
vt 0.027054 0.332520
vt 0.006805 0.332520
vt 0.006805 0.275879
vt 0.027054 0.275879
vt 0.027054 0.332520
vt 0.006805 0.275879
vt 0.080383 0.457031
vt 0.081238 0.408203
vt 0.060913 0.457031
vt 0.081238 0.408203
vt 0.060486 0.407715
vt 0.060913 0.457031
vt 1.104492 0.172363
vt 1.202148 0.149902
vt 1.114258 0.269043
vt 1.202148 0.149902
vt 1.209961 0.259766
vt 1.114258 0.269043
vt 1.114258 0.269043
vt 1.209961 0.259766
vt 1.112305 0.395996
vt 1.209961 0.259766
vt 1.208984 0.399414
vt 1.112305 0.395996
vt 1.101563 0.472168
vt 1.112305 0.395996
vt 1.208984 0.399414
vt 1.193359 0.494141
vt 1.101563 0.472168
vt 1.208984 0.399414
vt 0.044647 0.333496
vt 0.044647 0.404785
vt 0.034485 0.333496
vt 0.044647 0.404785
vt 0.034485 0.404785
vt 0.034485 0.333496
vt 0.044647 0.404785
vt 0.044647 0.532715
vt 0.034485 0.404785
vt 0.044647 0.532715
vt 0.034485 0.532715
vt 0.034485 0.404785
vt 0.044647 0.532715
vt 0.044647 0.571045
vt 0.034485 0.532715
vt 0.044647 0.571045
vt 0.034485 0.571045
vt 0.034485 0.532715
vt 0.104553 0.171875
vt 0.114624 0.268555
vt 0.202148 0.149902
vt 0.114624 0.268555
vt 0.210449 0.259766
vt 0.202148 0.149902
vt 0.114624 0.268555
vt 0.113037 0.395996
vt 0.210449 0.259766
vt 0.113037 0.395996
vt 0.208740 0.399414
vt 0.210449 0.259766
vt 0.113037 0.395996
vt 0.103027 0.473633
vt 0.208740 0.399414
vt 0.103027 0.473633
vt 0.195801 0.492676
vt 0.208740 0.399414
vt 0.034485 0.268555
vt 0.044647 0.268555
vt 0.034485 0.333496
vt 0.044647 0.268555
vt 0.044647 0.333496
vt 0.034485 0.333496
vt 0.027054 0.614990
vt 0.006805 0.614990
vt 0.006805 0.519531
vt 0.027054 0.519531
vt 0.027054 0.614990
vt 0.006805 0.519531
vt 0.027054 0.519531
vt 0.006805 0.519531
vt 0.006805 0.332520
vt 0.027054 0.332520
vt 0.027054 0.519531
vt 0.006805 0.332520
vt 0.027054 0.332520
vt 0.006805 0.332520
vt 0.006805 0.275879
vt 0.027054 0.275879
vt 0.027054 0.332520
vt 0.006805 0.275879
vt 0.080383 0.457031
vt 0.081238 0.408203
vt 0.060913 0.457031
vt 0.081238 0.408203
vt 0.060486 0.407715
vt 0.060913 0.457031
vt 1.104492 0.172363
vt 1.202148 0.149902
vt 1.114258 0.269043
vt 1.202148 0.149902
vt 1.209961 0.259766
vt 1.114258 0.269043
vt 1.114258 0.269043
vt 1.209961 0.259766
vt 1.112305 0.395996
vt 1.209961 0.259766
vt 1.208984 0.399414
vt 1.112305 0.395996
vt 1.101563 0.472168
vt 1.112305 0.395996
vt 1.208984 0.399414
vt 1.193359 0.494141
vt 1.101563 0.472168
vt 1.208984 0.399414
vt 0.044647 0.333496
vt 0.044647 0.404785
vt 0.034485 0.333496
vt 0.044647 0.404785
vt 0.034485 0.404785
vt 0.034485 0.333496
vt 0.044647 0.404785
vt 0.044647 0.532715
vt 0.034485 0.404785
vt 0.044647 0.532715
vt 0.034485 0.532715
vt 0.034485 0.404785
vt 0.044647 0.532715
vt 0.044647 0.571045
vt 0.034485 0.532715
vt 0.044647 0.571045
vt 0.034485 0.571045
vt 0.034485 0.532715
vn 0.499022 -0.575342 0.647749
vn 0.692759 -0.710372 0.131115
vn -0.651663 -0.587084 0.479452
vn 0.692759 -0.710372 0.131115
vn -0.690802 -0.706458 -0.154599
vn -0.651663 -0.587084 0.479452
vn 0.692759 -0.710372 0.131115
vn 0.669276 -0.710372 0.215264
vn -0.690802 -0.706458 -0.154599
vn 0.669276 -0.710372 0.215264
vn -0.673190 -0.704501 -0.223092
vn -0.690802 -0.706458 -0.154599
vn 0.669276 -0.710372 0.215264
vn 0.769080 -0.563601 -0.299413
vn -0.673190 -0.704501 -0.223092
vn 0.769080 -0.563601 -0.299413
vn -0.293542 -0.590998 -0.751468
vn -0.673190 -0.704501 -0.223092
vn -0.651663 -0.587084 0.479452
vn -0.121331 0.000000 0.992172
vn 0.499022 -0.575342 0.647749
vn -0.121331 0.000000 0.992172
vn -0.121331 0.000000 0.992172
vn 0.499022 -0.575342 0.647749
vn -0.986301 0.000000 -0.170254
vn -0.651663 -0.587084 0.479452
vn -0.690802 -0.706458 -0.154599
vn -0.976517 0.000000 -0.215264
vn -0.986301 0.000000 -0.170254
vn -0.690802 -0.706458 -0.154599
vn -0.976517 0.000000 -0.215264
vn -0.690802 -0.706458 -0.154599
vn -0.673190 -0.704501 -0.223092
vn -0.949119 0.000000 -0.313112
vn -0.976517 0.000000 -0.215264
vn -0.673190 -0.704501 -0.223092
vn -0.949119 0.000000 -0.313112
vn -0.673190 -0.704501 -0.223092
vn -0.293542 -0.590998 -0.751468
vn -0.929550 0.000000 -0.367906
vn -0.949119 0.000000 -0.313112
vn -0.293542 -0.590998 -0.751468
vn 0.933464 0.000000 -0.360078
vn 0.440313 0.000000 -0.898239
vn 0.769080 -0.563601 -0.299413
vn 0.440313 0.000000 -0.898239
vn -0.293542 -0.590998 -0.751468
vn 0.769080 -0.563601 -0.299413
vn -0.003914 1.000000 -0.005871
vn -0.003914 1.000000 -0.005871
vn -0.003914 1.000000 -0.005871
vn -0.003914 1.000000 -0.005871
vn -0.003914 1.000000 -0.005871
vn -0.003914 1.000000 -0.005871
vn -0.003914 1.000000 -0.005871
vn -0.003914 1.000000 -0.005871
vn -0.005871 1.000000 -0.003914
vn -0.003914 1.000000 -0.005871
vn -0.005871 1.000000 -0.003914
vn -0.005871 1.000000 -0.003914
vn -0.005871 1.000000 -0.003914
vn -0.005871 1.000000 -0.003914
vn -0.005871 1.000000 -0.003914
vn -0.005871 1.000000 -0.003914
vn -0.005871 1.000000 -0.003914
vn -0.005871 1.000000 -0.003914
vn 0.990215 0.000000 0.138943
vn 0.980431 0.000000 0.191781
vn 0.499022 -0.575342 0.647749
vn 0.980431 0.000000 0.191781
vn 0.692759 -0.710372 0.131115
vn 0.499022 -0.575342 0.647749
vn 0.980431 0.000000 0.191781
vn 0.951076 0.000000 0.307241
vn 0.692759 -0.710372 0.131115
vn 0.951076 0.000000 0.307241
vn 0.669276 -0.710372 0.215264
vn 0.692759 -0.710372 0.131115
vn 0.951076 0.000000 0.307241
vn 0.933464 0.000000 -0.360078
vn 0.669276 -0.710372 0.215264
vn 0.933464 0.000000 -0.360078
vn 0.769080 -0.563601 -0.299413
vn 0.669276 -0.710372 0.215264
vn 0.735812 0.575342 -0.356164
vn 0.679061 0.710372 0.191781
vn -0.369863 0.587084 -0.720157
vn 0.679061 0.710372 0.191781
vn -0.688845 0.706458 -0.170254
vn -0.369863 0.587084 -0.720157
vn 0.679061 0.710372 0.191781
vn 0.696673 0.710372 0.105675
vn -0.688845 0.706458 -0.170254
vn 0.696673 0.710372 0.105675
vn -0.702544 0.704501 -0.099804
vn -0.688845 0.706458 -0.170254
vn 0.696673 0.710372 0.105675
vn 0.553816 0.563601 0.612524
vn -0.702544 0.704501 -0.099804
vn 0.553816 0.563601 0.612524
vn -0.596869 0.590998 0.542074
vn -0.702544 0.704501 -0.099804
vn -0.369863 0.587084 -0.720157
vn 0.334638 0.000000 -0.943249
vn 0.735812 0.575342 -0.356164
vn 0.334638 0.000000 -0.943249
vn 0.334638 0.000000 -0.943249
vn 0.735812 0.575342 -0.356164
vn -0.956947 0.000000 -0.287671
vn -0.369863 0.587084 -0.720157
vn -0.688845 0.706458 -0.170254
vn -0.970646 0.000000 -0.244618
vn -0.956947 0.000000 -0.287671
vn -0.688845 0.706458 -0.170254
vn -0.970646 0.000000 -0.244618
vn -0.688845 0.706458 -0.170254
vn -0.702544 0.704501 -0.099804
vn -0.990215 0.000000 -0.142857
vn -0.970646 0.000000 -0.244618
vn -0.702544 0.704501 -0.099804
vn -0.990215 0.000000 -0.142857
vn -0.702544 0.704501 -0.099804
vn -0.596869 0.590998 0.542074
vn -0.996086 0.000000 -0.086106
vn -0.990215 0.000000 -0.142857
vn -0.596869 0.590998 0.542074
vn 0.673190 0.000000 0.737769
vn -0.007828 0.000000 1.000000
vn 0.553816 0.563601 0.612524
vn -0.007828 0.000000 1.000000
vn -0.596869 0.590998 0.542074
vn 0.553816 0.563601 0.612524
vn -0.005871 -1.000000 0.003914
vn -0.005871 -1.000000 0.003914
vn -0.005871 -1.000000 0.003914
vn -0.005871 -1.000000 0.003914
vn -0.005871 -1.000000 0.003914
vn -0.005871 -1.000000 0.003914
vn -0.005871 -1.000000 0.003914
vn -0.005871 -1.000000 0.003914
vn -0.007828 -1.000000 0.001957
vn -0.005871 -1.000000 0.003914
vn -0.007828 -1.000000 0.001957
vn -0.007828 -1.000000 0.001957
vn -0.007828 -1.000000 0.000000
vn -0.007828 -1.000000 0.001957
vn -0.007828 -1.000000 0.001957
vn -0.007828 -1.000000 0.000000
vn -0.007828 -1.000000 0.000000
vn -0.007828 -1.000000 0.001957
vn 0.947162 0.000000 0.317025
vn 0.964775 0.000000 0.266145
vn 0.735812 0.575342 -0.356164
vn 0.964775 0.000000 0.266145
vn 0.679061 0.710372 0.191781
vn 0.735812 0.575342 -0.356164
vn 0.964775 0.000000 0.266145
vn 0.988258 0.000000 0.148728
vn 0.679061 0.710372 0.191781
vn 0.988258 0.000000 0.148728
vn 0.696673 0.710372 0.105675
vn 0.679061 0.710372 0.191781
vn 0.988258 0.000000 0.148728
vn 0.673190 0.000000 0.737769
vn 0.696673 0.710372 0.105675
vn 0.673190 0.000000 0.737769
vn 0.553816 0.563601 0.612524
vn 0.696673 0.710372 0.105675
mtllib mtl_t6_wpn_shotty_saiga.mtl
g mtl_t6_wpn_shotty_saiga
usemtl mtl_t6_wpn_shotty_saiga
f 3/3/3 2/2/2 1/1/1
f 6/6/6 5/5/5 4/4/4
f 9/9/9 8/8/8 7/7/7
f 12/12/12 11/11/11 10/10/10
f 15/15/15 14/14/14 13/13/13
f 18/18/18 17/17/17 16/16/16
f 21/21/21 20/20/20 19/19/19
f 24/24/24 23/23/23 22/22/22
f 27/27/27 26/26/26 25/25/25
f 30/30/30 29/29/29 28/28/28
f 33/33/33 32/32/32 31/31/31
f 36/36/36 35/35/35 34/34/34
f 39/39/39 38/38/38 37/37/37
f 42/42/42 41/41/41 40/40/40
f 45/45/45 44/44/44 43/43/43
f 48/48/48 47/47/47 46/46/46
f 51/51/51 50/50/50 49/49/49
f 54/54/54 53/53/53 52/52/52
f 57/57/57 56/56/56 55/55/55
f 60/60/60 59/59/59 58/58/58
f 63/63/63 62/62/62 61/61/61
f 66/66/66 65/65/65 64/64/64
f 69/69/69 68/68/68 67/67/67
f 72/72/72 71/71/71 70/70/70
f 75/75/75 74/74/74 73/73/73
f 78/78/78 77/77/77 76/76/76
f 81/81/81 80/80/80 79/79/79
f 84/84/84 83/83/83 82/82/82
f 87/87/87 86/86/86 85/85/85
f 90/90/90 89/89/89 88/88/88
f 93/93/93 92/92/92 91/91/91
f 96/96/96 95/95/95 94/94/94
f 99/99/99 98/98/98 97/97/97
f 102/102/102 101/101/101 100/100/100
f 105/105/105 104/104/104 103/103/103
f 108/108/108 107/107/107 106/106/106
f 111/111/111 110/110/110 109/109/109
f 114/114/114 113/113/113 112/112/112
f 117/117/117 116/116/116 115/115/115
f 120/120/120 119/119/119 118/118/118
f 123/123/123 122/122/122 121/121/121
f 126/126/126 125/125/125 124/124/124
f 129/129/129 128/128/128 127/127/127
f 132/132/132 131/131/131 130/130/130
f 135/135/135 134/134/134 133/133/133
f 138/138/138 137/137/137 136/136/136
f 141/141/141 140/140/140 139/139/139
f 144/144/144 143/143/143 142/142/142
f 147/147/147 146/146/146 145/145/145
f 150/150/150 149/149/149 148/148/148
f 153/153/153 152/152/152 151/151/151
f 156/156/156 155/155/155 154/154/154
f 159/159/159 158/158/158 157/157/157
f 162/162/162 161/161/161 160/160/160
f 165/165/165 164/164/164 163/163/163
f 168/168/168 167/167/167 166/166/166
