# Generated by Wraith - Game extraction tools
# Please credit DTZxPorter for using it!

v -17.292578 0.576461 -1.492654
v -17.292084 0.576461 2.052782
v -24.372988 0.576461 0.240894
v 1.028946 0.576461 2.049059
v -17.292084 0.576461 2.052782
v -17.292578 0.576461 -1.492654
v 1.028446 0.576461 -1.496380
v 1.028946 0.576461 2.049059
v -17.292578 0.576461 -1.492654
v 1.028946 0.576461 2.049059
v 1.028446 0.576461 -1.496380
v 8.102591 0.576461 0.274932
v -24.372988 0.576461 0.240894
v -24.372988 -0.407421 0.240894
v -17.292578 -0.407421 -1.492654
v -17.292578 0.576461 -1.492654
v -24.372988 0.576461 0.240894
v -17.292578 -0.407421 -1.492654
v -17.292578 0.576461 -1.492654
v -17.292578 -0.407421 -1.492654
v 1.028446 0.576461 -1.496380
v -17.292578 -0.407421 -1.492654
v 1.028446 -0.407421 -1.496380
v 1.028446 0.576461 -1.496380
v 1.028446 0.576461 -1.496380
v 1.028446 -0.407421 -1.496380
v 8.102591 -0.407421 0.274932
v 8.102591 0.576461 0.274932
v 1.028446 0.576461 -1.496380
v 8.102591 -0.407421 0.274932
v -24.372988 0.576461 0.240894
v -17.292084 0.576461 2.052782
v -24.372988 -0.407421 0.240894
v -17.292084 0.576461 2.052782
v -17.292084 -0.407421 2.052782
v -24.372988 -0.407421 0.240894
v 1.028946 -0.407421 2.049059
v -17.292084 -0.407421 2.052782
v -17.292084 0.576461 2.052782
v 1.028946 0.576461 2.049059
v 1.028946 -0.407421 2.049059
v -17.292084 0.576461 2.052782
v 1.028946 0.576461 2.049059
v 8.102591 0.576461 0.274932
v 1.028946 -0.407421 2.049059
v 8.102591 0.576461 0.274932
v 8.102591 -0.407421 0.274932
v 1.028946 -0.407421 2.049059
v -24.372988 -0.407421 0.240894
v -17.292084 -0.407421 2.052782
v -17.292578 -0.407421 -1.492654
v -17.292578 -0.407421 -1.492654
v -17.292084 -0.407421 2.052782
v 1.028946 -0.407421 2.049059
v 1.028446 -0.407421 -1.496380
v -17.292578 -0.407421 -1.492654
v 1.028946 -0.407421 2.049059
v 8.102591 -0.407421 0.274932
v 1.028446 -0.407421 -1.496380
v 1.028946 -0.407421 2.049059
vt 0.186523 0.943054
vt 0.186523 0.755737
vt 0.018066 0.849243
vt 0.814453 0.755737
vt 0.186523 0.755737
vt 0.186523 0.943054
vt 0.814453 0.943054
vt 0.814453 0.755737
vt 0.186523 0.943054
vt 0.814453 0.755737
vt 0.814453 0.943054
vt 0.982910 0.849365
vt 0.975586 0.988571
vt 0.975586 0.964691
vt 0.770508 0.964691
vt 0.770508 0.988571
vt 0.975586 0.988571
vt 0.770508 0.964691
vt 0.770508 0.988571
vt 0.770508 0.964691
vt 0.240479 0.988571
vt 0.770508 0.964691
vt 0.240479 0.964691
vt 0.240479 0.988571
vt 0.240479 0.988571
vt 0.240479 0.964691
vt 0.035736 0.964691
vt 0.035736 0.988571
vt 0.240479 0.988571
vt 0.035736 0.964691
vt 0.975586 0.964172
vt 0.770508 0.964172
vt 0.975586 0.988075
vt 0.770508 0.964172
vt 0.770508 0.988075
vt 0.975586 0.988075
vt 0.240479 0.988075
vt 0.770508 0.988075
vt 0.770508 0.964172
vt 0.240479 0.964172
vt 0.240479 0.988075
vt 0.770508 0.964172
vt 0.240479 0.964172
vt 0.035736 0.964172
vt 0.240479 0.988075
vt 0.035736 0.964172
vt 0.035736 0.988075
vt 0.240479 0.988075
vt 0.982910 0.849365
vt 0.814453 0.755737
vt 0.814453 0.943054
vt 0.814453 0.943054
vt 0.814453 0.755737
vt 0.186523 0.755737
vt 0.186523 0.943054
vt 0.814453 0.943054
vt 0.186523 0.755737
vt 0.018066 0.849243
vt 0.186523 0.943054
vt 0.186523 0.755737
vn 0.000000 1.000000 0.000000
vn 0.000000 1.000000 0.000000
vn 0.000000 1.000000 0.000000
vn 0.000000 1.000000 0.000000
vn 0.000000 1.000000 0.000000
vn 0.000000 1.000000 0.000000
vn 0.000000 1.000000 0.000000
vn 0.000000 1.000000 0.000000
vn 0.000000 1.000000 0.000000
vn 0.000000 1.000000 0.000000
vn 0.000000 1.000000 0.000000
vn 0.000000 1.000000 0.000000
vn -0.238748 0.000000 -0.970646
vn -0.238748 0.000000 -0.970646
vn -0.119374 0.000000 -0.992172
vn -0.119374 0.000000 -0.992172
vn -0.238748 0.000000 -0.970646
vn -0.119374 0.000000 -0.992172
vn -0.119374 0.000000 -0.992172
vn -0.119374 0.000000 -0.992172
vn 0.121331 0.000000 -0.992172
vn -0.119374 0.000000 -0.992172
vn 0.121331 0.000000 -0.992172
vn 0.121331 0.000000 -0.992172
vn 0.121331 0.000000 -0.992172
vn 0.121331 0.000000 -0.992172
vn 0.242661 0.000000 -0.970646
vn 0.242661 0.000000 -0.970646
vn 0.121331 0.000000 -0.992172
vn 0.242661 0.000000 -0.970646
vn -0.248532 0.000000 0.968689
vn -0.125245 0.000000 0.992172
vn -0.248532 0.000000 0.968689
vn -0.125245 0.000000 0.992172
vn -0.125245 0.000000 0.992172
vn -0.248532 0.000000 0.968689
vn 0.123288 0.000000 0.992172
vn -0.125245 0.000000 0.992172
vn -0.125245 0.000000 0.992172
vn 0.123288 0.000000 0.992172
vn 0.123288 0.000000 0.992172
vn -0.125245 0.000000 0.992172
vn 0.123288 0.000000 0.992172
vn 0.242661 0.000000 0.970646
vn 0.123288 0.000000 0.992172
vn 0.242661 0.000000 0.970646
vn 0.242661 0.000000 0.970646
vn 0.123288 0.000000 0.992172
vn 0.000000 -1.000000 0.000000
vn 0.000000 -1.000000 0.000000
vn 0.000000 -1.000000 0.000000
vn 0.000000 -1.000000 0.000000
vn 0.000000 -1.000000 0.000000
vn 0.000000 -1.000000 0.000000
vn 0.000000 -1.000000 0.000000
vn 0.000000 -1.000000 0.000000
vn 0.000000 -1.000000 0.000000
vn 0.000000 -1.000000 0.000000
vn 0.000000 -1.000000 0.000000
vn 0.000000 -1.000000 0.000000
mtllib mtl_t6_wpn_ballistic_knife_retrieve.mtl
g mtl_t6_wpn_ballistic_knife_retrieve
usemtl mtl_t6_wpn_ballistic_knife_retrieve
f 3/3/3 2/2/2 1/1/1
f 6/6/6 5/5/5 4/4/4
f 9/9/9 8/8/8 7/7/7
f 12/12/12 11/11/11 10/10/10
f 15/15/15 14/14/14 13/13/13
f 18/18/18 17/17/17 16/16/16
f 21/21/21 20/20/20 19/19/19
f 24/24/24 23/23/23 22/22/22
f 27/27/27 26/26/26 25/25/25
f 30/30/30 29/29/29 28/28/28
f 33/33/33 32/32/32 31/31/31
f 36/36/36 35/35/35 34/34/34
f 39/39/39 38/38/38 37/37/37
f 42/42/42 41/41/41 40/40/40
f 45/45/45 44/44/44 43/43/43
f 48/48/48 47/47/47 46/46/46
f 51/51/51 50/50/50 49/49/49
f 54/54/54 53/53/53 52/52/52
f 57/57/57 56/56/56 55/55/55
f 60/60/60 59/59/59 58/58/58
