# Generated by Wraith - Game extraction tools
# Please credit DTZxPorter for using it!

v -2.421684 14.207522 23.670954
v -2.366302 14.210456 -4.691807
v 3.982821 14.207522 23.670954
v -2.366302 14.210456 -4.691807
v 3.999768 14.210456 -4.691807
v 3.982821 14.207522 23.670954
v -2.366302 14.210456 -4.691807
v -2.399876 -14.126826 -4.691807
v 3.999768 14.210456 -4.691807
v -2.399876 -14.126826 -4.691807
v 3.888867 -14.278341 -4.691807
v 3.999768 14.210456 -4.691807
v 3.888867 -14.278341 -4.691807
v 3.912011 -14.134711 23.670954
v 3.999768 14.210456 -4.691807
v 3.912011 -14.134711 23.670954
v 3.982821 14.207522 23.670954
v 3.999768 14.210456 -4.691807
v -2.421684 14.207522 23.670954
v 3.982821 14.207522 23.670954
v -2.408784 -14.134711 23.670954
v 3.982821 14.207522 23.670954
v 3.912011 -14.134711 23.670954
v -2.408784 -14.134711 23.670954
v -2.408784 -14.134711 23.670954
v 3.912011 -14.134711 23.670954
v -2.399876 -14.126826 -4.691807
v 3.912011 -14.134711 23.670954
v 3.888867 -14.278341 -4.691807
v -2.399876 -14.126826 -4.691807
v -2.366302 14.210456 -4.691807
v -2.421684 14.207522 23.670954
v -2.399876 -14.126826 -4.691807
v -2.421684 14.207522 23.670954
v -2.408784 -14.134711 23.670954
v -2.399876 -14.126826 -4.691807
vt 0.994141 0.581055
vt 0.994141 0.943085
vt 0.888672 0.581055
vt 0.994141 0.943085
vt 0.888672 0.943085
vt 0.888672 0.581055
vt -0.125732 0.722168
vt 0.870117 0.720459
vt -0.125732 0.788330
vt 0.870117 0.720459
vt 0.870117 0.785400
vt -0.125732 0.788330
vt -0.985352 0.663330
vt -0.985352 0.933960
vt -0.462891 0.662842
vt -0.985352 0.933960
vt -0.462891 0.933960
vt -0.462891 0.662842
vt 0.852051 0.597168
vt 0.852539 0.705322
vt -0.150635 0.598633
vt 0.852539 0.705322
vt -0.150635 0.705322
vt -0.150635 0.598633
vt -0.007355 0.581055
vt -0.110962 0.581055
vt -0.007355 0.943085
vt -0.110962 0.581055
vt -0.110962 0.943176
vt -0.007355 0.943085
vt -0.977539 0.032715
vt -0.977539 0.520508
vt -0.018570 0.034668
vt -0.977539 0.520508
vt -0.018570 0.520508
vt -0.018570 0.034668
vn 0.000000 0.706458 0.706458
vn 0.000000 0.706458 -0.706458
vn 0.000000 0.706458 0.706458
vn 0.000000 0.706458 -0.706458
vn 0.000000 0.706458 -0.706458
vn 0.000000 0.706458 0.706458
vn 0.000000 0.706458 -0.706458
vn -0.007828 -0.708415 -0.706458
vn 0.000000 0.706458 -0.706458
vn -0.007828 -0.708415 -0.706458
vn -0.007828 -0.708415 -0.706458
vn 0.000000 0.706458 -0.706458
vn 1.000000 -0.003914 0.000000
vn 1.000000 -0.003914 0.000000
vn 1.000000 -0.003914 0.000000
vn 1.000000 -0.003914 0.000000
vn 1.000000 -0.003914 0.000000
vn 1.000000 -0.003914 0.000000
vn 0.000000 0.706458 0.706458
vn 0.000000 0.706458 0.706458
vn -0.007828 -0.706458 0.708415
vn 0.000000 0.706458 0.706458
vn -0.007828 -0.706458 0.708415
vn -0.007828 -0.706458 0.708415
vn -0.007828 -0.706458 0.708415
vn -0.007828 -0.706458 0.708415
vn -0.007828 -0.708415 -0.706458
vn -0.007828 -0.706458 0.708415
vn -0.007828 -0.708415 -0.706458
vn -0.007828 -0.708415 -0.706458
vn -1.000000 0.000000 -0.001957
vn -1.000000 0.000000 -0.001957
vn -1.000000 0.000000 -0.001957
vn -1.000000 0.000000 -0.001957
vn -1.000000 0.000000 -0.001957
vn -1.000000 0.000000 -0.001957
mtllib mtl_t6_wpn_claymore_detect.mtl
g mtl_t6_wpn_claymore_detect
usemtl mtl_t6_wpn_claymore_detect
f 3/3/3 2/2/2 1/1/1
f 6/6/6 5/5/5 4/4/4
f 9/9/9 8/8/8 7/7/7
f 12/12/12 11/11/11 10/10/10
f 15/15/15 14/14/14 13/13/13
f 18/18/18 17/17/17 16/16/16
f 21/21/21 20/20/20 19/19/19
f 24/24/24 23/23/23 22/22/22
f 27/27/27 26/26/26 25/25/25
f 30/30/30 29/29/29 28/28/28
f 33/33/33 32/32/32 31/31/31
f 36/36/36 35/35/35 34/34/34
