# Generated by Wraith - Game extraction tools
# Please credit DTZxPorter for using it!

v 0.804807 0.000000 70.147942
v -7.587686 13.142257 2.944792
v 15.175369 0.000000 2.944792
v 0.804807 0.000000 70.147942
v -7.587686 -13.142257 2.944792
v -7.587686 13.142257 2.944792
v 0.804807 0.000000 70.147942
v 15.175369 0.000000 2.944792
v -7.587686 -13.142257 2.944792
v -19.201981 -19.201981 0.000000
v 19.201981 -19.201981 0.000000
v -19.201981 19.201981 0.000000
v 19.201981 -19.201981 0.000000
v 19.201981 19.201981 0.000000
v -19.201981 19.201981 0.000000
v 19.201981 19.201981 3.000002
v 19.201981 -19.201981 3.000002
v -19.201981 19.201981 3.000002
v 19.201981 -19.201981 3.000002
v -19.201981 -19.201981 3.000002
v -19.201981 19.201981 3.000002
v -19.201981 19.201981 3.000002
v -19.201981 -19.201981 3.000002
v -19.201981 -19.201981 0.000000
v -19.201981 19.201981 0.000000
v -19.201981 19.201981 3.000002
v -19.201981 -19.201981 0.000000
v 19.201981 19.201981 3.000002
v -19.201981 19.201981 3.000002
v -19.201981 19.201981 0.000000
v 19.201981 19.201981 0.000000
v 19.201981 19.201981 3.000002
v -19.201981 19.201981 0.000000
v 19.201981 -19.201981 3.000002
v 19.201981 19.201981 3.000002
v 19.201981 19.201981 0.000000
v 19.201981 -19.201981 0.000000
v 19.201981 -19.201981 3.000002
v 19.201981 19.201981 0.000000
v 19.201981 -19.201981 0.000000
v -19.201981 -19.201981 0.000000
v 19.201981 -19.201981 3.000002
v -19.201981 -19.201981 0.000000
v -19.201981 -19.201981 3.000002
v 19.201981 -19.201981 3.000002
vt 0.838379 0.985367
vt 0.979004 0.310059
vt 0.658203 0.310059
vt 0.177734 0.985367
vt 0.337891 0.310059
vt 0.017517 0.310059
vt 0.478271 0.985367
vt 0.658203 0.310059
vt 0.337891 0.310059
vt 0.018036 0.289551
vt 0.289307 0.289551
vt 0.018036 0.018066
vt 0.289307 0.289551
vt 0.289307 0.018066
vt 0.018036 0.018066
vt 0.592773 0.289551
vt 0.592773 0.018555
vt 0.321289 0.289551
vt 0.592773 0.018555
vt 0.321289 0.018555
vt 0.321289 0.289551
vt 0.618164 0.273438
vt 0.618164 0.273438
vt 0.639648 0.273438
vt 0.639648 0.273438
vt 0.618164 0.273438
vt 0.639648 0.273438
vt 0.618164 0.273438
vt 0.618164 0.273438
vt 0.639648 0.273438
vt 0.639648 0.273438
vt 0.618164 0.273438
vt 0.639648 0.273438
vt 0.618164 0.273438
vt 0.618164 0.273438
vt 0.639648 0.273438
vt 0.639648 0.273438
vt 0.618164 0.273438
vt 0.639648 0.273438
vt 0.639648 0.273438
vt 0.639648 0.273438
vt 0.618164 0.273438
vt 0.639648 0.273438
vt 0.618164 0.273438
vt 0.618164 0.273438
vn 0.980431 0.088063 0.174168
vn -0.414873 0.892368 0.174168
vn 0.980431 -0.088063 0.174168
vn -0.565558 0.806262 0.174168
vn -0.565558 -0.806262 0.174168
vn -0.414873 0.892368 0.174168
vn -0.414873 -0.892368 0.174168
vn 0.980431 -0.088063 0.174168
vn -0.565558 -0.806262 0.174168
vn 0.000000 0.000000 -1.000000
vn 0.000000 0.000000 -1.000000
vn 0.000000 0.000000 -1.000000
vn 0.000000 0.000000 -1.000000
vn 0.000000 0.000000 -1.000000
vn 0.000000 0.000000 -1.000000
vn 0.000000 0.000000 1.000000
vn 0.000000 0.000000 1.000000
vn 0.000000 0.000000 1.000000
vn 0.000000 0.000000 1.000000
vn 0.000000 0.000000 1.000000
vn 0.000000 0.000000 1.000000
vn -0.706458 0.706458 0.000000
vn -0.706458 -0.706458 0.000000
vn -0.706458 -0.706458 0.000000
vn -0.706458 0.706458 0.000000
vn -0.706458 0.706458 0.000000
vn -0.706458 -0.706458 0.000000
vn 0.706458 0.706458 0.000000
vn -0.706458 0.706458 0.000000
vn -0.706458 0.706458 0.000000
vn 0.706458 0.706458 0.000000
vn 0.706458 0.706458 0.000000
vn -0.706458 0.706458 0.000000
vn 0.706458 -0.706458 0.000000
vn 0.706458 0.706458 0.000000
vn 0.706458 0.706458 0.000000
vn 0.706458 -0.706458 0.000000
vn 0.706458 -0.706458 0.000000
vn 0.706458 0.706458 0.000000
vn 0.706458 -0.706458 0.000000
vn -0.706458 -0.706458 0.000000
vn 0.706458 -0.706458 0.000000
vn -0.706458 -0.706458 0.000000
vn -0.706458 -0.706458 0.000000
vn 0.706458 -0.706458 0.000000
mtllib mtl_p_us_parkingcone.mtl
g mtl_p_us_parkingcone
usemtl mtl_p_us_parkingcone
f 3/3/3 2/2/2 1/1/1
f 6/6/6 5/5/5 4/4/4
f 9/9/9 8/8/8 7/7/7
f 12/12/12 11/11/11 10/10/10
f 15/15/15 14/14/14 13/13/13
f 18/18/18 17/17/17 16/16/16
f 21/21/21 20/20/20 19/19/19
f 24/24/24 23/23/23 22/22/22
f 27/27/27 26/26/26 25/25/25
f 30/30/30 29/29/29 28/28/28
f 33/33/33 32/32/32 31/31/31
f 36/36/36 35/35/35 34/34/34
f 39/39/39 38/38/38 37/37/37
f 42/42/42 41/41/41 40/40/40
f 45/45/45 44/44/44 43/43/43
