# Generated by Wraith - Game extraction tools
# Please credit DTZxPorter for using it!

v 10.422675 -1.408374 -14.826283
v 4.236522 -1.408374 -20.091356
v -1.638747 -1.408374 -11.200176
v 5.375529 -1.408374 -7.424212
v 10.422675 -1.408374 -14.826283
v -1.638747 -1.408374 -11.200176
v 5.375529 -1.408374 -7.424212
v -1.638747 -1.408374 -11.200176
v 2.964238 -1.408374 0.436829
v -1.638747 -1.408374 -11.200176
v -5.159123 -1.408374 0.467431
v 2.964238 -1.408374 0.436829
v 4.236522 -1.408374 -20.091356
v 4.236522 1.421165 -20.091356
v -1.638747 -1.408374 -11.200176
v 4.236522 1.421165 -20.091356
v -1.638747 1.421165 -11.200176
v -1.638747 -1.408374 -11.200176
v -5.159123 -1.408374 0.467431
v -1.638747 -1.408374 -11.200176
v -1.638747 1.421165 -11.200176
v -5.159123 1.421165 0.467431
v -5.159123 -1.408374 0.467431
v -1.638747 1.421165 -11.200176
v 4.236522 1.421165 -20.091356
v 10.422675 1.421165 -14.826283
v -1.638747 1.421165 -11.200176
v 10.422675 1.421165 -14.826283
v 5.375529 1.421165 -7.424212
v -1.638747 1.421165 -11.200176
v -1.638747 1.421165 -11.200176
v 5.375529 1.421165 -7.424212
v 2.964238 1.421165 0.436829
v -5.159123 1.421165 0.467431
v -1.638747 1.421165 -11.200176
v 2.964238 1.421165 0.436829
v 10.422675 1.421165 -14.826283
v 10.422675 -1.408374 -14.826283
v 5.375529 1.421165 -7.424212
v 10.422675 -1.408374 -14.826283
v 5.375529 -1.408374 -7.424212
v 5.375529 1.421165 -7.424212
v 2.964238 1.421165 0.436829
v 5.375529 1.421165 -7.424212
v 5.375529 -1.408374 -7.424212
v 2.964238 -1.408374 0.436829
v 2.964238 1.421165 0.436829
v 5.375529 -1.408374 -7.424212
v 4.236522 -1.408374 -20.091356
v 10.422675 -1.408374 -14.826283
v 4.236522 1.421165 -20.091356
v 10.422675 -1.408374 -14.826283
v 10.422675 1.421165 -14.826283
v 4.236522 1.421165 -20.091356
v -5.159123 1.421165 0.467431
v 2.964238 1.421165 0.436829
v -5.159123 -1.408374 0.467431
v 2.964238 1.421165 0.436829
v 2.964238 -1.408374 0.436829
v -5.159123 -1.408374 0.467431
v 3.933488 4.294149 -4.723425
v -3.458893 4.294149 -8.091244
v 2.099504 4.294149 -17.183884
v 8.494813 4.294149 -12.434367
v 3.933488 4.294149 -4.723425
v 2.099504 4.294149 -17.183884
v 8.494813 4.294149 -12.434367
v 2.099504 4.294149 -17.183884
v 14.590119 4.294149 -17.953209
v 2.099504 4.294149 -17.183884
v 11.171184 4.294149 -25.322111
v 14.590119 4.294149 -17.953209
v -3.458893 4.294149 -8.091244
v -3.458893 1.464610 -8.091244
v 2.099504 4.294149 -17.183884
v -3.458893 1.464610 -8.091244
v 2.099504 1.464610 -17.183884
v 2.099504 4.294149 -17.183884
v 11.171184 4.294149 -25.322111
v 2.099504 4.294149 -17.183884
v 2.099504 1.464610 -17.183884
v 11.171184 1.464610 -25.322111
v 11.171184 4.294149 -25.322111
v 2.099504 1.464610 -17.183884
v -3.458893 1.464610 -8.091244
v 3.933488 1.464610 -4.723425
v 2.099504 1.464610 -17.183884
v 3.933488 1.464610 -4.723425
v 8.494813 1.464610 -12.434367
v 2.099504 1.464610 -17.183884
v 2.099504 1.464610 -17.183884
v 8.494813 1.464610 -12.434367
v 14.590119 1.464610 -17.953209
v 11.171184 1.464610 -25.322111
v 2.099504 1.464610 -17.183884
v 14.590119 1.464610 -17.953209
v 3.933488 1.464610 -4.723425
v 3.933488 4.294149 -4.723425
v 8.494813 1.464610 -12.434367
v 3.933488 4.294149 -4.723425
v 8.494813 4.294149 -12.434367
v 8.494813 1.464610 -12.434367
v 14.590119 1.464610 -17.953209
v 8.494813 1.464610 -12.434367
v 8.494813 4.294149 -12.434367
v 14.590119 4.294149 -17.953209
v 14.590119 1.464610 -17.953209
v 8.494813 4.294149 -12.434367
v -3.458893 4.294149 -8.091244
v 3.933488 4.294149 -4.723425
v -3.458893 1.464610 -8.091244
v 3.933488 4.294149 -4.723425
v 3.933488 1.464610 -4.723425
v -3.458893 1.464610 -8.091244
v 11.171184 1.464610 -25.322111
v 14.590119 1.464610 -17.953209
v 11.171184 4.294149 -25.322111
v 14.590119 1.464610 -17.953209
v 14.590119 4.294149 -17.953209
v 11.171184 4.294149 -25.322111
vt 0.028534 0.333008
vt 0.007179 0.242676
vt 0.130981 0.231445
vt 0.133057 0.320313
vt 0.028534 0.333008
vt 0.130981 0.231445
vt 0.133057 0.320313
vt 0.130981 0.231445
vt 0.228271 0.336914
vt 0.130981 0.231445
vt 0.270996 0.254395
vt 0.228271 0.336914
vt -0.996582 0.220215
vt -0.992676 0.242188
vt -0.867676 0.209473
vt -0.992676 0.242188
vt -0.868652 0.229492
vt -0.867676 0.209473
vt -0.721680 0.232910
vt -0.867676 0.209473
vt -0.868652 0.229492
vt -0.728027 0.254395
vt -0.721680 0.232910
vt -0.868652 0.229492
vt -0.992676 0.242188
vt -0.971191 0.333008
vt -0.868652 0.229492
vt -0.971191 0.333008
vt -0.866699 0.320801
vt -0.868652 0.229492
vt -0.868652 0.229492
vt -0.866699 0.320801
vt -0.771484 0.337402
vt -0.728027 0.254395
vt -0.868652 0.229492
vt -0.771484 0.337402
vt -0.971191 0.333008
vt -0.966797 0.349609
vt -0.866699 0.320801
vt -0.966797 0.349609
vt -0.869141 0.339844
vt -0.866699 0.320801
vt -0.771484 0.337402
vt -0.866699 0.320801
vt -0.869141 0.339844
vt -0.777832 0.353027
vt -0.771484 0.337402
vt -0.869141 0.339844
vt -0.675781 0.087402
vt -0.675781 0.005859
vt -0.712402 0.087402
vt -0.675781 0.005859
vt -0.712402 0.005859
vt -0.712402 0.087402
vt -0.675293 0.177246
vt -0.675293 0.097656
vt -0.711426 0.177246
vt -0.675293 0.097656
vt -0.711426 0.097656
vt -0.711426 0.177246
vt 0.028534 0.333008
vt 0.007179 0.242676
vt 0.130981 0.231445
vt 0.133057 0.320313
vt 0.028534 0.333008
vt 0.130981 0.231445
vt 0.133057 0.320313
vt 0.130981 0.231445
vt 0.228271 0.336914
vt 0.130981 0.231445
vt 0.270996 0.254395
vt 0.228271 0.336914
vt -0.996582 0.220215
vt -0.992676 0.242188
vt -0.867676 0.209473
vt -0.992676 0.242188
vt -0.868652 0.229492
vt -0.867676 0.209473
vt -0.721680 0.232910
vt -0.867676 0.209473
vt -0.868652 0.229492
vt -0.728027 0.254395
vt -0.721680 0.232910
vt -0.868652 0.229492
vt -0.992676 0.242188
vt -0.971191 0.333008
vt -0.868652 0.229492
vt -0.971191 0.333008
vt -0.866699 0.320801
vt -0.868652 0.229492
vt -0.868652 0.229492
vt -0.866699 0.320801
vt -0.771484 0.337402
vt -0.728027 0.254395
vt -0.868652 0.229492
vt -0.771484 0.337402
vt -0.971191 0.333008
vt -0.966797 0.349609
vt -0.866699 0.320801
vt -0.966797 0.349609
vt -0.869141 0.339844
vt -0.866699 0.320801
vt -0.771484 0.337402
vt -0.866699 0.320801
vt -0.869141 0.339844
vt -0.777832 0.353027
vt -0.771484 0.337402
vt -0.869141 0.339844
vt -0.675781 0.087402
vt -0.675781 0.005859
vt -0.712402 0.087402
vt -0.675781 0.005859
vt -0.712402 0.005859
vt -0.712402 0.087402
vt -0.675293 0.177246
vt -0.675293 0.097656
vt -0.711426 0.177246
vt -0.675293 0.097656
vt -0.711426 0.097656
vt -0.711426 0.177246
vn 0.000000 -1.000000 0.000000
vn 0.000000 -1.000000 0.000000
vn 0.000000 -1.000000 0.000000
vn 0.000000 -1.000000 0.000000
vn 0.000000 -1.000000 0.000000
vn 0.000000 -1.000000 0.000000
vn 0.000000 -1.000000 0.000000
vn 0.000000 -1.000000 0.000000
vn 0.000000 -1.000000 0.000000
vn 0.000000 -1.000000 0.000000
vn 0.000000 -1.000000 0.000000
vn 0.000000 -1.000000 0.000000
vn -0.833659 0.000000 -0.551859
vn -0.833659 0.000000 -0.551859
vn -0.906067 0.000000 -0.424658
vn -0.833659 0.000000 -0.551859
vn -0.906067 0.000000 -0.424658
vn -0.906067 0.000000 -0.424658
vn -0.956947 0.000000 -0.289628
vn -0.906067 0.000000 -0.424658
vn -0.906067 0.000000 -0.424658
vn -0.956947 0.000000 -0.289628
vn -0.956947 0.000000 -0.289628
vn -0.906067 0.000000 -0.424658
vn 0.000000 1.000000 0.000000
vn 0.000000 1.000000 0.000000
vn 0.000000 1.000000 0.000000
vn 0.000000 1.000000 0.000000
vn 0.000000 1.000000 0.000000
vn 0.000000 1.000000 0.000000
vn 0.000000 1.000000 0.000000
vn 0.000000 1.000000 0.000000
vn 0.000000 1.000000 0.000000
vn 0.000000 1.000000 0.000000
vn 0.000000 1.000000 0.000000
vn 0.000000 1.000000 0.000000
vn 0.825832 0.000000 0.563601
vn 0.825832 0.000000 0.563601
vn 0.902153 0.000000 0.432485
vn 0.825832 0.000000 0.563601
vn 0.902153 0.000000 0.432485
vn 0.902153 0.000000 0.432485
vn 0.956947 0.000000 0.293542
vn 0.902153 0.000000 0.432485
vn 0.902153 0.000000 0.432485
vn 0.956947 0.000000 0.293542
vn 0.956947 0.000000 0.293542
vn 0.902153 0.000000 0.432485
vn 0.647749 0.000000 -0.761252
vn 0.647749 0.000000 -0.761252
vn 0.647749 0.000000 -0.761252
vn 0.647749 0.000000 -0.761252
vn 0.647749 0.000000 -0.761252
vn 0.647749 0.000000 -0.761252
vn 0.003914 0.000000 1.000000
vn 0.003914 0.000000 1.000000
vn 0.003914 0.000000 1.000000
vn 0.003914 0.000000 1.000000
vn 0.003914 0.000000 1.000000
vn 0.003914 0.000000 1.000000
vn 0.000000 1.000000 0.000000
vn 0.000000 1.000000 0.000000
vn 0.000000 1.000000 0.000000
vn 0.000000 1.000000 0.000000
vn 0.000000 1.000000 0.000000
vn 0.000000 1.000000 0.000000
vn 0.000000 1.000000 0.000000
vn 0.000000 1.000000 0.000000
vn 0.000000 1.000000 0.000000
vn 0.000000 1.000000 0.000000
vn 0.000000 1.000000 0.000000
vn 0.000000 1.000000 0.000000
vn -0.853229 0.000000 -0.522505
vn -0.853229 0.000000 -0.522505
vn -0.769080 0.000000 -0.639922
vn -0.853229 0.000000 -0.522505
vn -0.769080 0.000000 -0.639922
vn -0.769080 0.000000 -0.639922
vn -0.667319 0.000000 -0.743640
vn -0.769080 0.000000 -0.639922
vn -0.769080 0.000000 -0.639922
vn -0.667319 0.000000 -0.743640
vn -0.667319 0.000000 -0.743640
vn -0.769080 0.000000 -0.639922
vn 0.000000 -1.000000 0.000000
vn 0.000000 -1.000000 0.000000
vn 0.000000 -1.000000 0.000000
vn 0.000000 -1.000000 0.000000
vn 0.000000 -1.000000 0.000000
vn 0.000000 -1.000000 0.000000
vn 0.000000 -1.000000 0.000000
vn 0.000000 -1.000000 0.000000
vn 0.000000 -1.000000 0.000000
vn 0.000000 -1.000000 0.000000
vn 0.000000 -1.000000 0.000000
vn 0.000000 -1.000000 0.000000
vn 0.861057 0.000000 0.508806
vn 0.861057 0.000000 0.508806
vn 0.774951 0.000000 0.632094
vn 0.861057 0.000000 0.508806
vn 0.774951 0.000000 0.632094
vn 0.774951 0.000000 0.632094
vn 0.671233 0.000000 0.741683
vn 0.774951 0.000000 0.632094
vn 0.774951 0.000000 0.632094
vn 0.671233 0.000000 0.741683
vn 0.671233 0.000000 0.741683
vn 0.774951 0.000000 0.632094
vn -0.414873 0.000000 0.909980
vn -0.414873 0.000000 0.909980
vn -0.414873 0.000000 0.909980
vn -0.414873 0.000000 0.909980
vn -0.414873 0.000000 0.909980
vn -0.414873 0.000000 0.909980
vn 0.908023 0.000000 -0.420744
vn 0.908023 0.000000 -0.420744
vn 0.908023 0.000000 -0.420744
vn 0.908023 0.000000 -0.420744
vn 0.908023 0.000000 -0.420744
vn 0.908023 0.000000 -0.420744
mtllib mtl_t6_wpn_ar_type95.mtl
g mtl_t6_wpn_ar_type95
usemtl mtl_t6_wpn_ar_type95
f 3/3/3 2/2/2 1/1/1
f 6/6/6 5/5/5 4/4/4
f 9/9/9 8/8/8 7/7/7
f 12/12/12 11/11/11 10/10/10
f 15/15/15 14/14/14 13/13/13
f 18/18/18 17/17/17 16/16/16
f 21/21/21 20/20/20 19/19/19
f 24/24/24 23/23/23 22/22/22
f 27/27/27 26/26/26 25/25/25
f 30/30/30 29/29/29 28/28/28
f 33/33/33 32/32/32 31/31/31
f 36/36/36 35/35/35 34/34/34
f 39/39/39 38/38/38 37/37/37
f 42/42/42 41/41/41 40/40/40
f 45/45/45 44/44/44 43/43/43
f 48/48/48 47/47/47 46/46/46
f 51/51/51 50/50/50 49/49/49
f 54/54/54 53/53/53 52/52/52
f 57/57/57 56/56/56 55/55/55
f 60/60/60 59/59/59 58/58/58
f 63/63/63 62/62/62 61/61/61
f 66/66/66 65/65/65 64/64/64
f 69/69/69 68/68/68 67/67/67
f 72/72/72 71/71/71 70/70/70
f 75/75/75 74/74/74 73/73/73
f 78/78/78 77/77/77 76/76/76
f 81/81/81 80/80/80 79/79/79
f 84/84/84 83/83/83 82/82/82
f 87/87/87 86/86/86 85/85/85
f 90/90/90 89/89/89 88/88/88
f 93/93/93 92/92/92 91/91/91
f 96/96/96 95/95/95 94/94/94
f 99/99/99 98/98/98 97/97/97
f 102/102/102 101/101/101 100/100/100
f 105/105/105 104/104/104 103/103/103
f 108/108/108 107/107/107 106/106/106
f 111/111/111 110/110/110 109/109/109
f 114/114/114 113/113/113 112/112/112
f 117/117/117 116/116/116 115/115/115
f 120/120/120 119/119/119 118/118/118
