# Generated by Wraith - Game extraction tools
# Please credit DTZxPorter for using it!

v 0.622628 -3.914127 14.813769
v -3.028173 -2.630863 0.001125
v -3.028173 -2.630863 14.813767
v -3.742238 1.172456 0.001125
v -3.028173 -2.630863 14.813767
v -3.028173 -2.630863 0.001125
v -3.028173 -2.630863 14.813767
v -3.742238 1.172456 0.001125
v -3.742238 1.172456 14.813769
v -0.805495 3.692512 0.001125
v -3.742238 1.172456 14.813769
v -3.742238 1.172456 0.001125
v -3.742238 1.172456 14.813769
v -0.805495 3.692512 0.001125
v -0.805495 3.692512 14.813769
v 2.845305 2.409248 0.001125
v -0.805495 3.692512 14.813769
v -0.805495 3.692512 0.001125
v -0.805495 3.692512 14.813769
v 2.845305 2.409248 0.001125
v 2.845305 2.409248 14.813769
v 3.559371 -1.394071 0.001125
v 2.845305 2.409248 14.813769
v 2.845305 2.409248 0.001125
v 2.845305 2.409248 14.813769
v 3.559371 -1.394071 0.001125
v 3.559371 -1.394071 14.813769
v 0.622628 -3.914127 0.001125
v 3.559371 -1.394071 14.813769
v 3.559371 -1.394071 0.001125
v 3.559371 -1.394071 14.813769
v 0.622628 -3.914127 0.001125
v 0.622628 -3.914127 14.813769
v -3.028173 -2.630863 0.001125
v 0.622628 -3.914127 14.813769
v 0.622628 -3.914127 0.001125
v 3.559371 -1.394071 14.813769
v -0.805495 3.692512 14.813769
v 2.845305 2.409248 14.813769
v -3.028173 -2.630863 14.813767
v -0.805495 3.692512 14.813769
v 3.559371 -1.394071 14.813769
v -3.742238 1.172456 14.813769
v -0.805495 3.692512 14.813769
v -3.028173 -2.630863 14.813767
v -3.028173 -2.630863 14.813767
v 3.559371 -1.394071 14.813769
v 0.622628 -3.914127 14.813769
v -3.742238 1.172456 0.001125
v -3.028173 -2.630863 0.001125
v -0.805495 3.692512 0.001125
v -0.805495 3.692512 0.001125
v -3.028173 -2.630863 0.001125
v 2.845305 2.409248 0.001125
v 2.845305 2.409248 0.001125
v -3.028173 -2.630863 0.001125
v 3.559371 -1.394071 0.001125
v 3.559371 -1.394071 0.001125
v -3.028173 -2.630863 0.001125
v 0.622628 -3.914127 0.001125
vt 0.518555 0.655518
vt 0.451904 0.357422
vt 0.451904 0.655518
vt 0.875488 0.357422
vt 0.964844 0.655518
vt 0.964844 0.357422
vt 0.964844 0.655518
vt 0.875488 0.357422
vt 0.875488 0.655518
vt 0.786133 0.357422
vt 0.875488 0.655518
vt 0.875488 0.357422
vt 0.875488 0.655518
vt 0.786133 0.357422
vt 0.786133 0.655518
vt 0.697266 0.357422
vt 0.786133 0.655518
vt 0.786133 0.357422
vt 0.786133 0.655518
vt 0.697266 0.357422
vt 0.697266 0.655518
vt 0.607910 0.357422
vt 0.697266 0.655518
vt 0.697266 0.357422
vt 0.697266 0.655518
vt 0.607910 0.357422
vt 0.607910 0.655518
vt 0.518555 0.357422
vt 0.607910 0.655518
vt 0.607910 0.357422
vt 0.607910 0.655518
vt 0.518555 0.357422
vt 0.518555 0.655518
vt 0.451904 0.357422
vt 0.518555 0.655518
vt 0.518555 0.357422
vt 0.949707 0.743164
vt 0.884766 0.985107
vt 0.987305 0.882813
vt 0.707520 0.807861
vt 0.884766 0.985107
vt 0.949707 0.743164
vt 0.745117 0.947662
vt 0.884766 0.985107
vt 0.707520 0.807861
vt 0.707520 0.807861
vt 0.949707 0.743164
vt 0.810059 0.705566
vt 0.707031 0.884399
vt 0.733887 0.740479
vt 0.817871 0.979782
vt 0.817871 0.979782
vt 0.733887 0.740479
vt 0.956055 0.931213
vt 0.956055 0.931213
vt 0.733887 0.740479
vt 0.983398 0.787354
vt 0.983398 0.787354
vt 0.733887 0.740479
vt 0.872070 0.691895
vn -0.330724 -0.943249 0.000000
vn -0.330724 -0.943249 0.000000
vn -0.330724 -0.943249 0.000000
vn -0.988258 0.146771 0.000000
vn -0.982387 -0.183953 0.000000
vn -0.982387 -0.183953 0.000000
vn -0.982387 -0.183953 0.000000
vn -0.988258 0.146771 0.000000
vn -0.863014 0.504892 0.000000
vn -0.367906 0.929550 0.000000
vn -0.863014 0.504892 0.000000
vn -0.988258 0.146771 0.000000
vn -0.863014 0.504892 0.000000
vn -0.367906 0.929550 0.000000
vn 0.003914 1.000000 0.000000
vn 0.622309 0.782779 0.000000
vn 0.003914 1.000000 0.000000
vn -0.367906 0.929550 0.000000
vn 0.003914 1.000000 0.000000
vn 0.622309 0.782779 0.000000
vn 0.868885 0.495108 0.000000
vn 0.988258 -0.146771 0.000000
vn 0.868885 0.495108 0.000000
vn 0.622309 0.782779 0.000000
vn 0.868885 0.495108 0.000000
vn 0.988258 -0.146771 0.000000
vn 0.863014 -0.504892 0.000000
vn 0.367906 -0.929550 0.000000
vn 0.863014 -0.504892 0.000000
vn 0.988258 -0.146771 0.000000
vn 0.863014 -0.504892 0.000000
vn 0.367906 -0.929550 0.000000
vn 0.183953 -0.982387 0.000000
vn -0.330724 -0.943249 0.000000
vn 0.183953 -0.982387 0.000000
vn 0.367906 -0.929550 0.000000
vn 0.000000 0.000000 1.000000
vn 0.000000 0.000000 1.000000
vn 0.000000 0.000000 1.000000
vn 0.000000 0.000000 1.000000
vn 0.000000 0.000000 1.000000
vn 0.000000 0.000000 1.000000
vn 0.000000 0.000000 1.000000
vn 0.000000 0.000000 1.000000
vn 0.000000 0.000000 1.000000
vn 0.000000 0.000000 1.000000
vn 0.000000 0.000000 1.000000
vn 0.000000 0.000000 1.000000
vn 0.000000 0.000000 -1.000000
vn 0.000000 0.000000 -1.000000
vn 0.000000 0.000000 -1.000000
vn 0.000000 0.000000 -1.000000
vn 0.000000 0.000000 -1.000000
vn 0.000000 0.000000 -1.000000
vn 0.000000 0.000000 -1.000000
vn 0.000000 0.000000 -1.000000
vn 0.000000 0.000000 -1.000000
vn 0.000000 0.000000 -1.000000
vn 0.000000 0.000000 -1.000000
vn 0.000000 0.000000 -1.000000
mtllib mtl_nt_2020_cans_clean.mtl
g mtl_nt_2020_cans_clean
usemtl mtl_nt_2020_cans_clean
f 3/3/3 2/2/2 1/1/1
f 6/6/6 5/5/5 4/4/4
f 9/9/9 8/8/8 7/7/7
f 12/12/12 11/11/11 10/10/10
f 15/15/15 14/14/14 13/13/13
f 18/18/18 17/17/17 16/16/16
f 21/21/21 20/20/20 19/19/19
f 24/24/24 23/23/23 22/22/22
f 27/27/27 26/26/26 25/25/25
f 30/30/30 29/29/29 28/28/28
f 33/33/33 32/32/32 31/31/31
f 36/36/36 35/35/35 34/34/34
f 39/39/39 38/38/38 37/37/37
f 42/42/42 41/41/41 40/40/40
f 45/45/45 44/44/44 43/43/43
f 48/48/48 47/47/47 46/46/46
f 51/51/51 50/50/50 49/49/49
f 54/54/54 53/53/53 52/52/52
f 57/57/57 56/56/56 55/55/55
f 60/60/60 59/59/59 58/58/58
