# Generated by Wraith - Game extraction tools
# Please credit DTZxPorter for using it!

v -2.273866 2.432484 0.001125
v -3.028173 -2.630863 14.813769
v -3.028173 -2.630863 0.001125
v 2.090999 -2.654099 14.813769
v -2.273866 2.432484 14.813769
v 2.845305 2.409248 14.813769
v -2.273866 2.432484 14.813769
v 2.090999 -2.654099 14.813769
v -3.028173 -2.630863 14.813769
v 2.090999 -2.654099 0.001125
v 2.845305 2.409248 14.813769
v 2.845305 2.409248 0.001125
v 2.845305 2.409248 14.813769
v 2.090999 -2.654099 0.001125
v 2.090999 -2.654099 14.813769
v -3.028173 -2.630863 0.001125
v 2.090999 -2.654099 14.813769
v 2.090999 -2.654099 0.001125
v 2.090999 -2.654099 14.813769
v -3.028173 -2.630863 0.001125
v -3.028173 -2.630863 14.813769
v -2.273866 2.432484 14.813769
v 2.845305 2.409248 0.001125
v 2.845305 2.409248 14.813769
v 2.845305 2.409248 0.001125
v -2.273866 2.432484 14.813769
v -2.273866 2.432484 0.001125
v -3.028173 -2.630863 14.813769
v -2.273866 2.432484 0.001125
v -2.273866 2.432484 14.813769
v -3.028173 -2.630863 0.001125
v 2.090999 -2.654099 0.001125
v -2.273866 2.432484 0.001125
v 2.090999 -2.654099 0.001125
v 2.845305 2.409248 0.001125
v -2.273866 2.432484 0.001125
vt 0.831055 0.357422
vt 0.964844 0.655518
vt 0.964844 0.357422
vt 0.879883 0.724365
vt 0.814941 0.966400
vt 0.987305 0.882813
vt 0.814941 0.966400
vt 0.879883 0.724365
vt 0.707520 0.807861
vt 0.563477 0.357422
vt 0.697266 0.655518
vt 0.697266 0.357422
vt 0.697266 0.655518
vt 0.563477 0.357422
vt 0.563477 0.655518
vt 0.451904 0.357422
vt 0.563477 0.655518
vt 0.563477 0.357422
vt 0.563477 0.655518
vt 0.451904 0.357422
vt 0.451904 0.655518
vt 0.831055 0.655518
vt 0.697266 0.357422
vt 0.697266 0.655518
vt 0.697266 0.357422
vt 0.831055 0.655518
vt 0.831055 0.357422
vt 0.964844 0.655518
vt 0.831055 0.357422
vt 0.831055 0.655518
vt 0.733887 0.740479
vt 0.927734 0.739746
vt 0.762695 0.932129
vt 0.927734 0.739746
vt 0.956055 0.931213
vt 0.762695 0.932129
vn -0.988258 0.146771 0.000000
vn -0.988258 0.146771 0.000000
vn -0.988258 0.146771 0.000000
vn 0.000000 0.000000 1.000000
vn 0.000000 0.000000 1.000000
vn 0.000000 0.000000 1.000000
vn 0.000000 0.000000 1.000000
vn 0.000000 0.000000 1.000000
vn 0.000000 0.000000 1.000000
vn 0.835616 -0.547945 0.000000
vn 0.941292 0.334638 0.000000
vn 0.473581 0.880626 0.000000
vn 0.941292 0.334638 0.000000
vn 0.835616 -0.547945 0.000000
vn 0.414873 -0.909980 0.000000
vn -0.003914 -1.000000 0.000000
vn 0.414873 -0.909980 0.000000
vn 0.835616 -0.547945 0.000000
vn 0.414873 -0.909980 0.000000
vn -0.003914 -1.000000 0.000000
vn -0.003914 -1.000000 0.000000
vn -0.414873 0.909980 0.000000
vn 0.473581 0.880626 0.000000
vn 0.941292 0.334638 0.000000
vn 0.473581 0.880626 0.000000
vn -0.414873 0.909980 0.000000
vn -0.651663 0.759295 0.000000
vn -0.988258 0.146771 0.000000
vn -0.651663 0.759295 0.000000
vn -0.414873 0.909980 0.000000
vn 0.000000 0.000000 -1.000000
vn 0.000000 0.000000 -1.000000
vn 0.000000 0.000000 -1.000000
vn 0.000000 0.000000 -1.000000
vn 0.000000 0.000000 -1.000000
vn 0.000000 0.000000 -1.000000
mtllib mtl_nt_2020_cans_clean.mtl
g mtl_nt_2020_cans_clean
usemtl mtl_nt_2020_cans_clean
f 3/3/3 2/2/2 1/1/1
f 6/6/6 5/5/5 4/4/4
f 9/9/9 8/8/8 7/7/7
f 12/12/12 11/11/11 10/10/10
f 15/15/15 14/14/14 13/13/13
f 18/18/18 17/17/17 16/16/16
f 21/21/21 20/20/20 19/19/19
f 24/24/24 23/23/23 22/22/22
f 27/27/27 26/26/26 25/25/25
f 30/30/30 29/29/29 28/28/28
f 33/33/33 32/32/32 31/31/31
f 36/36/36 35/35/35 34/34/34
