# Generated by Wraith - Game extraction tools
# Please credit DTZxPorter for using it!

v -2.513867 -1.257981 -0.633110
v -2.513867 1.141346 -0.633110
v 5.383410 -1.257981 -0.534723
v -2.513867 1.141346 -0.633110
v 5.383410 1.214549 -0.534723
v 5.383410 -1.257981 -0.534723
v 5.383410 -1.257981 -0.534723
v 5.399156 -1.257981 -11.511930
v -2.513867 -1.257981 -0.633110
v 5.399156 -1.257981 -11.511930
v -2.513867 -1.257981 -13.014221
v -2.513867 -1.257981 -0.633110
v 5.399156 -1.257981 -11.511930
v 5.214183 -1.257981 -11.736509
v -2.513867 -1.257981 -13.014221
v 5.214183 -1.257981 -11.736509
v -2.334059 -1.257981 -13.175061
v -2.513867 -1.257981 -13.014221
v -2.334059 -1.257981 -13.175061
v 5.214183 -1.257981 -11.736509
v 5.214183 -1.257981 -13.175061
v -2.334059 -1.257981 -13.175061
v 5.214183 -1.257981 -13.175061
v -2.334059 -1.345021 -13.779101
v 5.214183 -1.257981 -13.175061
v 5.460281 -1.345021 -13.779101
v -2.334059 -1.345021 -13.779101
v 5.383410 -1.257981 -0.534723
v 5.383410 1.214549 -0.534723
v 5.399156 -1.257981 -11.511930
v 5.383410 1.214549 -0.534723
v 5.399156 1.214549 -11.511930
v 5.399156 -1.257981 -11.511930
v 5.399156 -1.257981 -11.511930
v 5.399156 1.214549 -11.511930
v 5.214183 1.079386 -11.736509
v 5.214183 -1.257981 -11.736509
v 5.399156 -1.257981 -11.511930
v 5.214183 1.079386 -11.736509
v 5.214183 -1.257981 -11.736509
v 5.214183 1.079386 -11.736509
v 5.214183 1.077333 -13.175061
v 5.214183 -1.257981 -13.175061
v 5.214183 -1.257981 -11.736509
v 5.214183 1.077333 -13.175061
v 5.214183 -1.257981 -13.175061
v 5.214183 1.077333 -13.175061
v 5.460281 -1.345021 -13.779101
v 5.214183 1.077333 -13.175061
v 5.460281 1.193439 -13.779101
v 5.460281 -1.345021 -13.779101
v -2.334059 1.258527 -13.779101
v -2.334059 1.127839 -13.175061
v -2.334059 -1.345021 -13.779101
v -2.334059 1.127839 -13.175061
v -2.334059 -1.257981 -13.175061
v -2.334059 -1.345021 -13.779101
v -2.513867 -1.257981 -13.014221
v -2.334059 -1.257981 -13.175061
v -2.334059 1.127839 -13.175061
v -2.513867 1.147839 -13.014221
v -2.513867 -1.257981 -13.014221
v -2.334059 1.127839 -13.175061
v -2.513867 1.147839 -13.014221
v -2.513867 1.141346 -0.633110
v -2.513867 -1.257981 -13.014221
v -2.513867 1.141346 -0.633110
v -2.513867 -1.257981 -0.633110
v -2.513867 -1.257981 -13.014221
v 5.399156 1.214549 -11.511930
v 5.383410 1.214549 -0.534723
v -2.513867 1.141346 -0.633110
v -2.513867 1.147839 -13.014221
v 5.399156 1.214549 -11.511930
v -2.513867 1.141346 -0.633110
v 5.214183 1.079386 -11.736509
v 5.399156 1.214549 -11.511930
v -2.513867 1.147839 -13.014221
v -2.334059 1.127839 -13.175061
v 5.214183 1.079386 -11.736509
v -2.513867 1.147839 -13.014221
v 5.214183 1.077333 -13.175061
v 5.214183 1.079386 -11.736509
v -2.334059 1.127839 -13.175061
v -2.334059 1.127839 -13.175061
v -2.334059 1.258527 -13.779101
v 5.214183 1.077333 -13.175061
v -2.334059 1.258527 -13.779101
v 5.460281 1.193439 -13.779101
v 5.214183 1.077333 -13.175061
v 5.460281 -1.345021 -13.779101
v 5.460281 1.193439 -13.779101
v -2.334059 -1.345021 -13.779101
v 5.460281 1.193439 -13.779101
v -2.334059 1.258527 -13.779101
v -2.334059 -1.345021 -13.779101
vt 0.004963 0.041504
vt 0.004963 0.078125
vt 0.119995 0.041504
vt 0.004963 0.078125
vt 0.119995 0.078125
vt 0.119995 0.041504
vt -0.995117 0.328125
vt -0.995117 0.112793
vt -0.880371 0.328125
vt -0.995117 0.112793
vt -0.876465 0.090332
vt -0.880371 0.328125
vt -0.995117 0.112793
vt -0.990234 0.108398
vt -0.876465 0.090332
vt -0.990234 0.108398
vt -0.875488 0.086426
vt -0.876465 0.090332
vt -0.875488 0.086426
vt -0.990234 0.108398
vt -0.990234 0.086426
vt -0.875488 0.086426
vt -0.990234 0.086426
vt -0.875488 0.076660
vt -0.990234 0.086426
vt -0.993164 0.076660
vt -0.875488 0.076660
vt 0.080933 0.591309
vt 0.119629 0.592285
vt 0.080261 0.372070
vt 0.119629 0.592285
vt 0.119812 0.372070
vt 0.080261 0.372070
vt 0.080261 0.372070
vt 0.119812 0.372070
vt 0.117554 0.368164
vt 0.082458 0.368164
vt 0.080261 0.372070
vt 0.117554 0.368164
vt 0.082458 0.368164
vt 0.117554 0.368164
vt 0.117554 0.344727
vt 0.082458 0.344727
vt 0.082458 0.368164
vt 0.117554 0.344727
vt 0.082458 0.344727
vt 0.117554 0.344727
vt 0.080444 0.334961
vt 0.117554 0.344727
vt 0.119629 0.334961
vt 0.080444 0.334961
vt 0.123535 0.338379
vt 0.125610 0.348145
vt 0.163940 0.338379
vt 0.125610 0.348145
vt 0.161865 0.348145
vt 0.163940 0.338379
vt 0.161499 0.351074
vt 0.161865 0.348145
vt 0.125610 0.348145
vt 0.124390 0.351074
vt 0.161499 0.351074
vt 0.125610 0.348145
vt 0.124390 0.351074
vt 0.124634 0.586426
vt 0.161499 0.351074
vt 0.124634 0.586426
vt 0.161377 0.586426
vt 0.161499 0.351074
vt 0.004398 0.112793
vt 0.004654 0.327637
vt 0.119446 0.327637
vt 0.123352 0.090332
vt 0.004398 0.112793
vt 0.119446 0.327637
vt 0.009399 0.108398
vt 0.004398 0.112793
vt 0.123352 0.090332
vt 0.124146 0.086426
vt 0.009399 0.108398
vt 0.123352 0.090332
vt 0.009636 0.086426
vt 0.009399 0.108398
vt 0.124146 0.086426
vt 0.124146 0.086426
vt 0.124146 0.076660
vt 0.009636 0.086426
vt 0.124146 0.076660
vt 0.006618 0.076660
vt 0.009636 0.086426
vt 0.124939 0.328125
vt 0.151611 0.328125
vt 0.123413 0.238281
vt 0.151611 0.328125
vt 0.151978 0.238281
vt 0.123413 0.238281
vn -0.581213 -0.575342 0.575342
vn -0.585127 0.573386 0.573386
vn 0.571429 -0.579256 0.581213
vn -0.585127 0.573386 0.573386
vn 0.569472 0.581213 0.581213
vn 0.571429 -0.579256 0.581213
vn 0.571429 -0.579256 0.581213
vn 0.645793 -0.727984 -0.230920
vn -0.581213 -0.575342 0.575342
vn 0.645793 -0.727984 -0.230920
vn -0.616438 -0.737769 -0.275930
vn -0.581213 -0.575342 0.575342
vn 0.645793 -0.727984 -0.230920
vn 0.645793 -0.727984 -0.230920
vn -0.616438 -0.737769 -0.275930
vn 0.645793 -0.727984 -0.230920
vn -0.479452 -0.861057 -0.174168
vn -0.616438 -0.737769 -0.275930
vn -0.479452 -0.861057 -0.174168
vn 0.645793 -0.727984 -0.230920
vn 0.682975 -0.706458 0.183953
vn -0.479452 -0.861057 -0.174168
vn 0.682975 -0.706458 0.183953
vn -0.606654 -0.600783 -0.520548
vn 0.682975 -0.706458 0.183953
vn 0.643836 -0.688845 -0.334638
vn -0.606654 -0.600783 -0.520548
vn 0.571429 -0.579256 0.581213
vn 0.569472 0.581213 0.581213
vn 0.645793 -0.727984 -0.230920
vn 0.569472 0.581213 0.581213
vn 0.645793 0.677104 -0.354207
vn 0.645793 -0.727984 -0.230920
vn 0.645793 -0.727984 -0.230920
vn 0.645793 0.677104 -0.354207
vn 0.647749 0.675147 -0.354207
vn 0.645793 -0.727984 -0.230920
vn 0.645793 -0.727984 -0.230920
vn 0.647749 0.675147 -0.354207
vn 0.645793 -0.727984 -0.230920
vn 0.647749 0.675147 -0.354207
vn 0.684932 0.698630 0.203523
vn 0.682975 -0.706458 0.183953
vn 0.645793 -0.727984 -0.230920
vn 0.684932 0.698630 0.203523
vn 0.682975 -0.706458 0.183953
vn 0.684932 0.698630 0.203523
vn 0.643836 -0.688845 -0.334638
vn 0.684932 0.698630 0.203523
vn 0.659491 0.690802 -0.297456
vn 0.643836 -0.688845 -0.334638
vn -0.618395 0.608611 -0.497065
vn -0.461840 0.845401 -0.268102
vn -0.606654 -0.600783 -0.520548
vn -0.461840 0.845401 -0.268102
vn -0.479452 -0.861057 -0.174168
vn -0.606654 -0.600783 -0.520548
vn -0.616438 -0.737769 -0.275930
vn -0.479452 -0.861057 -0.174168
vn -0.461840 0.845401 -0.268102
vn -0.585127 0.700587 -0.407045
vn -0.616438 -0.737769 -0.275930
vn -0.461840 0.845401 -0.268102
vn -0.585127 0.700587 -0.407045
vn -0.585127 0.573386 0.573386
vn -0.616438 -0.737769 -0.275930
vn -0.585127 0.573386 0.573386
vn -0.581213 -0.575342 0.575342
vn -0.616438 -0.737769 -0.275930
vn 0.645793 0.677104 -0.354207
vn 0.569472 0.581213 0.581213
vn -0.585127 0.573386 0.573386
vn -0.585127 0.700587 -0.407045
vn 0.645793 0.677104 -0.354207
vn -0.585127 0.573386 0.573386
vn 0.647749 0.675147 -0.354207
vn 0.645793 0.677104 -0.354207
vn -0.585127 0.700587 -0.407045
vn -0.461840 0.845401 -0.268102
vn 0.647749 0.675147 -0.354207
vn -0.585127 0.700587 -0.407045
vn 0.684932 0.698630 0.203523
vn 0.647749 0.675147 -0.354207
vn -0.461840 0.845401 -0.268102
vn -0.461840 0.845401 -0.268102
vn -0.618395 0.608611 -0.497065
vn 0.684932 0.698630 0.203523
vn -0.618395 0.608611 -0.497065
vn 0.659491 0.690802 -0.297456
vn 0.684932 0.698630 0.203523
vn 0.643836 -0.688845 -0.334638
vn 0.659491 0.690802 -0.297456
vn -0.606654 -0.600783 -0.520548
vn 0.659491 0.690802 -0.297456
vn -0.618395 0.608611 -0.497065
vn -0.606654 -0.600783 -0.520548
mtllib mtl_t6_wpn_ar_scarh_camo1.mtl
g mtl_t6_wpn_ar_scarh_camo1
usemtl mtl_t6_wpn_ar_scarh_camo1
f 3/3/3 2/2/2 1/1/1
f 6/6/6 5/5/5 4/4/4
f 9/9/9 8/8/8 7/7/7
f 12/12/12 11/11/11 10/10/10
f 15/15/15 14/14/14 13/13/13
f 18/18/18 17/17/17 16/16/16
f 21/21/21 20/20/20 19/19/19
f 24/24/24 23/23/23 22/22/22
f 27/27/27 26/26/26 25/25/25
f 30/30/30 29/29/29 28/28/28
f 33/33/33 32/32/32 31/31/31
f 36/36/36 35/35/35 34/34/34
f 39/39/39 38/38/38 37/37/37
f 42/42/42 41/41/41 40/40/40
f 45/45/45 44/44/44 43/43/43
f 48/48/48 47/47/47 46/46/46
f 51/51/51 50/50/50 49/49/49
f 54/54/54 53/53/53 52/52/52
f 57/57/57 56/56/56 55/55/55
f 60/60/60 59/59/59 58/58/58
f 63/63/63 62/62/62 61/61/61
f 66/66/66 65/65/65 64/64/64
f 69/69/69 68/68/68 67/67/67
f 72/72/72 71/71/71 70/70/70
f 75/75/75 74/74/74 73/73/73
f 78/78/78 77/77/77 76/76/76
f 81/81/81 80/80/80 79/79/79
f 84/84/84 83/83/83 82/82/82
f 87/87/87 86/86/86 85/85/85
f 90/90/90 89/89/89 88/88/88
f 93/93/93 92/92/92 91/91/91
f 96/96/96 95/95/95 94/94/94
