# Generated by Wraith - Game extraction tools
# Please credit DTZxPorter for using it!

v 18.356773 0.000000 2.362716
v 0.003668 0.000000 2.362716
v 18.356773 2.270991 -0.004646
v 0.003668 0.000000 2.362716
v 0.003668 2.270991 -0.004646
v 18.356773 2.270991 -0.004646
v 18.356773 2.270991 -0.004646
v 0.003668 2.270991 -0.004646
v 18.356773 0.000000 -2.357151
v 0.003668 2.270991 -0.004646
v 0.003668 0.000000 -2.357151
v 18.356773 0.000000 -2.357151
v 18.356773 0.000000 -2.357151
v 0.003668 0.000000 -2.357151
v 18.356773 -2.270991 -0.004646
v 0.003668 0.000000 -2.357151
v 0.003668 -2.270991 -0.004646
v 18.356773 -2.270991 -0.004646
v 18.356773 -2.270991 -0.004646
v 0.003668 -2.270991 -0.004646
v 18.356773 0.000000 2.362716
v 0.003668 -2.270991 -0.004646
v 0.003668 0.000000 2.362716
v 18.356773 0.000000 2.362716
v 18.356773 0.000000 2.362716
v 18.356773 2.270991 -0.004646
v 18.356773 -2.270991 -0.004646
v 18.356773 2.270991 -0.004646
v 18.356773 0.000000 -2.357151
v 18.356773 -2.270991 -0.004646
v 0.003668 0.000000 2.362716
v 0.003668 -2.270991 -0.004646
v 0.003668 2.270991 -0.004646
v 0.003668 -2.270991 -0.004646
v 0.003668 0.000000 -2.357151
v 0.003668 2.270991 -0.004646
vt 0.034973 0.858521
vt 0.402100 0.859375
vt 0.034943 0.780151
vt 0.402100 0.859375
vt 0.402100 0.780029
vt 0.034943 0.780151
vt 0.034943 0.780151
vt 0.402100 0.780029
vt 0.034943 0.727783
vt 0.402100 0.780029
vt 0.402100 0.726563
vt 0.034943 0.727783
vt 0.034973 0.987274
vt 0.402100 0.988365
vt 0.034973 0.938538
vt 0.402100 0.988365
vt 0.402100 0.938568
vt 0.034973 0.938538
vt 0.034973 0.938538
vt 0.402100 0.938568
vt 0.034973 0.858521
vt 0.402100 0.938568
vt 0.402100 0.859375
vt 0.034973 0.858521
vt 0.896973 0.862305
vt 0.945801 0.812744
vt 0.848633 0.812744
vt 0.945801 0.812744
vt 0.896973 0.757324
vt 0.848633 0.812744
vt 0.899414 0.891663
vt 0.979004 0.809204
vt 0.819824 0.809204
vt 0.979004 0.809204
vt 0.899414 0.719727
vt 0.819824 0.809204
vn 0.000000 0.000000 1.000000
vn 0.000000 0.000000 1.000000
vn 0.000000 1.000000 -0.001957
vn 0.000000 0.000000 1.000000
vn 0.000000 1.000000 -0.001957
vn 0.000000 1.000000 -0.001957
vn 0.000000 1.000000 -0.001957
vn 0.000000 1.000000 -0.001957
vn 0.000000 0.000000 -1.000000
vn 0.000000 1.000000 -0.001957
vn 0.000000 0.000000 -1.000000
vn 0.000000 0.000000 -1.000000
vn 0.000000 0.000000 -1.000000
vn 0.000000 0.000000 -1.000000
vn 0.000000 -1.000000 -0.001957
vn 0.000000 0.000000 -1.000000
vn 0.000000 -1.000000 -0.001957
vn 0.000000 -1.000000 -0.001957
vn 0.000000 -1.000000 -0.001957
vn 0.000000 -1.000000 -0.001957
vn 0.000000 0.000000 1.000000
vn 0.000000 -1.000000 -0.001957
vn 0.000000 0.000000 1.000000
vn 0.000000 0.000000 1.000000
vn 1.000000 0.000000 0.000000
vn 1.000000 0.000000 0.000000
vn 1.000000 0.000000 0.000000
vn 1.000000 0.000000 0.000000
vn 1.000000 0.000000 0.000000
vn 1.000000 0.000000 0.000000
vn -1.000000 0.000000 0.000000
vn -1.000000 0.000000 0.000000
vn -1.000000 0.000000 0.000000
vn -1.000000 0.000000 0.000000
vn -1.000000 0.000000 0.000000
vn -1.000000 0.000000 0.000000
mtllib mtl_t6_attach_ar_silencer1.mtl
g mtl_t6_attach_ar_silencer1
usemtl mtl_t6_attach_ar_silencer1
f 3/3/3 2/2/2 1/1/1
f 6/6/6 5/5/5 4/4/4
f 9/9/9 8/8/8 7/7/7
f 12/12/12 11/11/11 10/10/10
f 15/15/15 14/14/14 13/13/13
f 18/18/18 17/17/17 16/16/16
f 21/21/21 20/20/20 19/19/19
f 24/24/24 23/23/23 22/22/22
f 27/27/27 26/26/26 25/25/25
f 30/30/30 29/29/29 28/28/28
f 33/33/33 32/32/32 31/31/31
f 36/36/36 35/35/35 34/34/34
