# Generated by Wraith - Game extraction tools
# Please credit DTZxPorter for using it!

v -1.118570 25.223291 12.514194
v 9.949924 18.664591 -9.293972
v 1.859763 15.037981 18.003466
v 9.949924 18.664591 -9.293972
v 12.358143 3.134837 -11.170742
v 1.859763 15.037981 18.003466
v 12.358143 3.134837 -11.170742
v 3.519000 -12.745755 -5.628026
v 1.859763 15.037981 18.003466
v -3.314522 -22.691816 -4.858562
v 1.859763 15.037981 18.003466
v 3.519000 -12.745755 -5.628026
v -3.314522 -22.691816 -4.858562
v 3.519000 -12.745755 -5.628026
v 1.052076 -18.870361 -12.798092
v 12.358143 3.134837 -11.170742
v 1.052076 -18.870361 -12.798092
v 3.519000 -12.745755 -5.628026
v 12.358143 3.134837 -11.170742
v 10.733245 11.070379 -17.496540
v 1.052076 -18.870361 -12.798092
v 9.949924 18.664591 -9.293972
v 10.733245 11.070379 -17.496540
v 12.358143 3.134837 -11.170742
v -1.118570 25.223291 12.514194
v -4.371500 19.636473 16.861988
v -3.370491 23.800407 0.881520
v -12.914723 -16.703497 -8.138531
v -3.370491 23.800407 0.881520
v -4.371500 19.636473 16.861988
v 1.998993 18.976858 -11.550503
v -3.370491 23.800407 0.881520
v -12.914723 -16.703497 -8.138531
v 1.998993 18.976858 -11.550503
v -12.914723 -16.703497 -8.138531
v 5.845708 12.950659 -17.936810
v -9.749043 -24.305399 -10.710629
v 5.845708 12.950659 -17.936810
v -12.914723 -16.703497 -8.138531
v -9.749043 -24.305399 -10.710629
v -12.914723 -16.703497 -8.138531
v -12.505842 -24.517691 -4.641865
v -12.914723 -16.703497 -8.138531
v -4.371500 19.636473 16.861988
v -12.505842 -24.517691 -4.641865
v -1.118570 25.223291 12.514194
v -3.370491 23.800407 0.881520
v 9.949924 18.664591 -9.293972
v 1.998993 18.976858 -11.550503
v 9.949924 18.664591 -9.293972
v -3.370491 23.800407 0.881520
v 1.998993 18.976858 -11.550503
v 5.845708 12.950659 -17.936810
v 9.949924 18.664591 -9.293972
v 9.949924 18.664591 -9.293972
v 5.845708 12.950659 -17.936810
v 10.733245 11.070379 -17.496540
v -3.314522 -22.691816 -4.858562
v -12.505842 -24.517691 -4.641865
v 1.859763 15.037981 18.003466
v -9.749043 -24.305399 -10.710629
v -12.505842 -24.517691 -4.641865
v -3.314522 -22.691816 -4.858562
v -9.749043 -24.305399 -10.710629
v -3.314522 -22.691816 -4.858562
v 1.052076 -18.870361 -12.798092
v 1.859763 15.037981 18.003466
v -12.505842 -24.517691 -4.641865
v -4.371500 19.636473 16.861988
v -1.118570 25.223291 12.514194
v 1.859763 15.037981 18.003466
v -4.371500 19.636473 16.861988
v -9.749043 -24.305399 -10.710629
v 1.052076 -18.870361 -12.798092
v 5.845708 12.950659 -17.936810
v 5.845708 12.950659 -17.936810
v 1.052076 -18.870361 -12.798092
v 10.733245 11.070379 -17.496540
vt 0.606934 0.520264
vt 0.842773 0.449707
vt 0.547852 0.410156
vt 0.842773 0.449707
vt 0.863281 0.281250
vt 0.547852 0.410156
vt 0.863281 0.281250
vt 0.803223 0.109863
vt 0.547852 0.410156
vt 0.794922 0.001953
vt 0.547852 0.410156
vt 0.803223 0.109863
vt 0.794922 0.001953
vt 0.803223 0.109863
vt 0.880859 0.043457
vt 0.863281 0.281250
vt 0.880859 0.043457
vt 0.803223 0.109863
vt 0.863281 0.281250
vt 0.931641 0.367188
vt 0.880859 0.043457
vt 0.842773 0.449707
vt 0.931641 0.367188
vt 0.863281 0.281250
vt 0.331299 0.540039
vt 0.378418 0.479980
vt 0.205444 0.524658
vt 0.107971 0.086426
vt 0.205444 0.524658
vt 0.378418 0.479980
vt 0.071045 0.472656
vt 0.205444 0.524658
vt 0.107971 0.086426
vt 0.071045 0.472656
vt 0.107971 0.086426
vt 0.001991 0.407227
vt 0.080139 0.004395
vt 0.001991 0.407227
vt 0.107971 0.086426
vt 0.080139 0.004395
vt 0.107971 0.086426
vt 0.145752 0.001953
vt 0.107971 0.086426
vt 0.378418 0.479980
vt 0.145752 0.001953
vt 0.480469 0.543945
vt 0.456055 0.669922
vt 0.600098 0.779907
vt 0.514160 0.804321
vt 0.600098 0.779907
vt 0.456055 0.669922
vt 0.514160 0.804321
vt 0.555664 0.873413
vt 0.600098 0.779907
vt 0.600098 0.779907
vt 0.555664 0.873413
vt 0.608398 0.868652
vt 0.713867 0.610107
vt 0.614746 0.612549
vt 0.770020 0.857422
vt 0.644531 0.546875
vt 0.614746 0.612549
vt 0.713867 0.610107
vt 0.644531 0.546875
vt 0.713867 0.610107
vt 0.761230 0.524414
vt 0.541504 0.430176
vt 0.385986 0.001953
vt 0.474121 0.479980
vt 0.509277 0.540039
vt 0.541504 0.430176
vt 0.474121 0.479980
vt 0.776367 0.927246
vt 0.893066 0.868408
vt 0.944824 0.524414
vt 0.944824 0.524414
vt 0.893066 0.868408
vt 0.997559 0.544678
vn 0.183953 0.900196 0.393346
vn 0.657534 0.724070 -0.205479
vn 0.620352 -0.109589 0.776908
vn 0.657534 0.724070 -0.205479
vn 0.982387 -0.187867 0.037182
vn 0.620352 -0.109589 0.776908
vn 0.982387 -0.187867 0.037182
vn 0.829746 -0.452055 0.326810
vn 0.620352 -0.109589 0.776908
vn 0.520548 -0.784736 0.334638
vn 0.620352 -0.109589 0.776908
vn 0.829746 -0.452055 0.326810
vn 0.520548 -0.784736 0.334638
vn 0.829746 -0.452055 0.326810
vn 0.610568 -0.563601 -0.555773
vn 0.982387 -0.187867 0.037182
vn 0.610568 -0.563601 -0.555773
vn 0.829746 -0.452055 0.326810
vn 0.982387 -0.187867 0.037182
vn 0.669276 0.121331 -0.731898
vn 0.610568 -0.563601 -0.555773
vn 0.657534 0.724070 -0.205479
vn 0.669276 0.121331 -0.731898
vn 0.982387 -0.187867 0.037182
vn 0.183953 0.900196 0.393346
vn -0.794521 0.273973 0.542074
vn -0.589041 0.776908 -0.223092
vn -0.909980 0.121331 -0.397260
vn -0.589041 0.776908 -0.223092
vn -0.794521 0.273973 0.542074
vn -0.371820 0.686888 -0.624266
vn -0.589041 0.776908 -0.223092
vn -0.909980 0.121331 -0.397260
vn -0.371820 0.686888 -0.624266
vn -0.909980 0.121331 -0.397260
vn -0.164384 0.295499 -0.941292
vn -0.277887 -0.647749 -0.708415
vn -0.164384 0.295499 -0.941292
vn -0.909980 0.121331 -0.397260
vn -0.277887 -0.647749 -0.708415
vn -0.909980 0.121331 -0.397260
vn -0.602740 -0.628180 0.493151
vn -0.909980 0.121331 -0.397260
vn -0.794521 0.273973 0.542074
vn -0.602740 -0.628180 0.493151
vn 0.183953 0.900196 0.393346
vn -0.589041 0.776908 -0.223092
vn 0.657534 0.724070 -0.205479
vn -0.371820 0.686888 -0.624266
vn 0.657534 0.724070 -0.205479
vn -0.589041 0.776908 -0.223092
vn -0.371820 0.686888 -0.624266
vn -0.164384 0.295499 -0.941292
vn 0.657534 0.724070 -0.205479
vn 0.657534 0.724070 -0.205479
vn -0.164384 0.295499 -0.941292
vn 0.669276 0.121331 -0.731898
vn 0.520548 -0.784736 0.334638
vn -0.602740 -0.628180 0.493151
vn 0.620352 -0.109589 0.776908
vn -0.277887 -0.647749 -0.708415
vn -0.602740 -0.628180 0.493151
vn 0.520548 -0.784736 0.334638
vn -0.277887 -0.647749 -0.708415
vn 0.520548 -0.784736 0.334638
vn 0.610568 -0.563601 -0.555773
vn 0.620352 -0.109589 0.776908
vn -0.602740 -0.628180 0.493151
vn -0.794521 0.273973 0.542074
vn 0.183953 0.900196 0.393346
vn 0.620352 -0.109589 0.776908
vn -0.794521 0.273973 0.542074
vn -0.277887 -0.647749 -0.708415
vn 0.610568 -0.563601 -0.555773
vn -0.164384 0.295499 -0.941292
vn -0.164384 0.295499 -0.941292
vn 0.610568 -0.563601 -0.555773
vn 0.669276 0.121331 -0.731898
mtllib mtl_nt_2020_manne_male01_pants1.mtl
g mtl_nt_2020_manne_male01_pants1
usemtl mtl_nt_2020_manne_male01_pants1
f 3/3/3 2/2/2 1/1/1
f 6/6/6 5/5/5 4/4/4
f 9/9/9 8/8/8 7/7/7
f 12/12/12 11/11/11 10/10/10
f 15/15/15 14/14/14 13/13/13
f 18/18/18 17/17/17 16/16/16
f 21/21/21 20/20/20 19/19/19
f 24/24/24 23/23/23 22/22/22
f 27/27/27 26/26/26 25/25/25
f 30/30/30 29/29/29 28/28/28
f 33/33/33 32/32/32 31/31/31
f 36/36/36 35/35/35 34/34/34
f 39/39/39 38/38/38 37/37/37
f 42/42/42 41/41/41 40/40/40
f 45/45/45 44/44/44 43/43/43
f 48/48/48 47/47/47 46/46/46
f 51/51/51 50/50/50 49/49/49
f 54/54/54 53/53/53 52/52/52
f 57/57/57 56/56/56 55/55/55
f 60/60/60 59/59/59 58/58/58
f 63/63/63 62/62/62 61/61/61
f 66/66/66 65/65/65 64/64/64
f 69/69/69 68/68/68 67/67/67
f 72/72/72 71/71/71 70/70/70
f 75/75/75 74/74/74 73/73/73
f 78/78/78 77/77/77 76/76/76
