# Generated by Wraith - Game extraction tools
# Please credit DTZxPorter for using it!

v -0.240843 -1.337419 8.257829
v -0.240843 1.337419 8.257829
v -0.240843 0.000000 -5.479926
v -8.789468 1.337419 8.257829
v -8.789468 -1.337419 8.257829
v -8.789468 0.000000 -6.725778
v -0.240843 1.337419 8.257829
v -8.789468 1.337419 8.257829
v -0.240843 0.000000 -5.479926
v -8.789468 1.337419 8.257829
v -8.789468 0.000000 -6.725778
v -0.240843 0.000000 -5.479926
v -8.789468 0.000000 -6.725778
v -8.789468 -1.337419 8.257829
v -0.240843 0.000000 -5.479926
v -8.789468 -1.337419 8.257829
v -0.240843 -1.337419 8.257829
v -0.240843 0.000000 -5.479926
v -8.789468 -1.337419 8.257829
v -8.789468 1.337419 8.257829
v -0.240843 -1.337419 8.257829
v -8.789468 1.337419 8.257829
v -0.240843 1.337419 8.257829
v -0.240843 -1.337419 8.257829
vt 0.182373 0.263672
vt 0.182373 0.270020
vt 0.323242 0.266602
vt -0.821289 0.271973
vt -0.821289 0.271973
vt -0.667969 0.271973
vt -0.821289 0.169922
vt -0.821289 0.271973
vt -0.680176 0.169922
vt -0.821289 0.271973
vt -0.667969 0.271973
vt -0.680176 0.169922
vt 0.331299 0.252441
vt 0.178223 0.252441
vt 0.319336 0.169922
vt 0.178223 0.252441
vt 0.178223 0.169922
vt 0.319336 0.169922
vt -0.572754 0.231934
vt -0.572754 0.211426
vt -0.640137 0.231934
vt -0.572754 0.211426
vt -0.640137 0.211426
vt -0.640137 0.231934
vn 1.000000 0.000000 0.000000
vn 1.000000 0.000000 0.000000
vn 1.000000 0.000000 0.000000
vn -1.000000 0.000000 0.000000
vn -1.000000 0.000000 0.000000
vn -1.000000 0.000000 0.000000
vn 0.005871 0.996086 -0.091977
vn 0.005871 0.996086 -0.091977
vn 0.005871 0.996086 -0.091977
vn 0.005871 0.996086 -0.091977
vn 0.005871 0.996086 -0.091977
vn 0.005871 0.996086 -0.091977
vn 0.005871 -0.996086 -0.091977
vn 0.005871 -0.996086 -0.091977
vn 0.005871 -0.996086 -0.091977
vn 0.005871 -0.996086 -0.091977
vn 0.005871 -0.996086 -0.091977
vn 0.005871 -0.996086 -0.091977
vn 0.000000 0.000000 1.000000
vn 0.000000 0.000000 1.000000
vn 0.000000 0.000000 1.000000
vn 0.000000 0.000000 1.000000
vn 0.000000 0.000000 1.000000
vn 0.000000 0.000000 1.000000
mtllib mtl_t6_wpn_ar_saritch_camo1.mtl
g mtl_t6_wpn_ar_saritch_camo1
usemtl mtl_t6_wpn_ar_saritch_camo1
f 3/3/3 2/2/2 1/1/1
f 6/6/6 5/5/5 4/4/4
f 9/9/9 8/8/8 7/7/7
f 12/12/12 11/11/11 10/10/10
f 15/15/15 14/14/14 13/13/13
f 18/18/18 17/17/17 16/16/16
f 21/21/21 20/20/20 19/19/19
f 24/24/24 23/23/23 22/22/22
