# Generated by Wraith - Game extraction tools
# Please credit DTZxPorter for using it!

v -0.443328 0.958309 -15.850546
v -0.443328 -0.958309 -15.850546
v 4.407148 0.000000 -15.215895
v 2.098033 0.000000 5.501668
v -1.914156 -0.718365 5.501668
v -1.914156 0.718365 5.501668
v -2.604725 0.958309 -6.092386
v -0.443328 0.958309 -15.850546
v 2.224578 0.000000 -6.092386
v -0.443328 0.958309 -15.850546
v 4.407148 0.000000 -15.215895
v 2.224578 0.000000 -6.092386
v -2.604725 -0.958309 -6.092386
v 2.224578 0.000000 -6.092386
v -0.443328 -0.958309 -15.850546
v 2.224578 0.000000 -6.092386
v 4.407148 0.000000 -15.215895
v -0.443328 -0.958309 -15.850546
v -0.443328 -0.958309 -15.850546
v -0.443328 0.958309 -15.850546
v -2.604725 -0.958309 -6.092386
v -0.443328 0.958309 -15.850546
v -2.604725 0.958309 -6.092386
v -2.604725 -0.958309 -6.092386
v -2.604725 0.958309 -6.092386
v 2.224578 0.000000 -6.092386
v -1.914156 0.718365 5.501668
v 2.224578 0.000000 -6.092386
v 2.098033 0.000000 5.501668
v -1.914156 0.718365 5.501668
v -2.604725 0.958309 -6.092386
v -1.914156 0.718365 5.501668
v -2.604725 -0.958309 -6.092386
v -1.914156 0.718365 5.501668
v -1.914156 -0.718365 5.501668
v -2.604725 -0.958309 -6.092386
v -2.604725 -0.958309 -6.092386
v -1.914156 -0.718365 5.501668
v 2.224578 0.000000 -6.092386
v -1.914156 -0.718365 5.501668
v 2.098033 0.000000 5.501668
v 2.224578 0.000000 -6.092386
vt 0.980469 0.470703
vt 0.955566 0.470215
vt 0.966797 0.533691
vt 0.812500 0.422363
vt 0.873047 0.427734
vt 0.873047 0.416504
vt 0.948730 0.668701
vt 0.935059 0.477539
vt 0.864746 0.657227
vt 0.935059 0.477539
vt 0.848633 0.477539
vt 0.864746 0.657227
vt 0.948730 0.668945
vt 0.864746 0.657959
vt 0.933594 0.478027
vt 0.864746 0.657959
vt 0.847656 0.478027
vt 0.933594 0.478027
vt 0.992188 0.477051
vt 0.943848 0.477051
vt 0.987793 0.671143
vt 0.943848 0.477051
vt 0.948730 0.671143
vt 0.987793 0.671143
vt 0.846191 0.480957
vt 0.772461 0.480957
vt 0.845703 0.622314
vt 0.772461 0.480957
vt 0.772461 0.622314
vt 0.845703 0.622314
vt 0.784668 0.480957
vt 0.787109 0.622314
vt 0.802734 0.480957
vt 0.787109 0.622314
vt 0.800293 0.622314
vt 0.802734 0.480957
vt 0.845703 0.480957
vt 0.845215 0.622314
vt 0.772461 0.480957
vt 0.845215 0.622314
vt 0.772461 0.622314
vt 0.772461 0.480957
vn 0.129159 0.000000 -0.992172
vn 0.129159 0.000000 -0.992172
vn 0.129159 0.000000 -0.992172
vn 0.000000 0.000000 1.000000
vn 0.000000 0.000000 1.000000
vn 0.000000 0.000000 1.000000
vn 0.191781 0.980431 0.043053
vn 0.191781 0.980431 0.043053
vn 0.191781 0.980431 0.043053
vn 0.191781 0.980431 0.043053
vn 0.191781 0.980431 0.043053
vn 0.191781 0.980431 0.043053
vn 0.191781 -0.980431 0.043053
vn 0.191781 -0.980431 0.043053
vn 0.191781 -0.980431 0.043053
vn 0.191781 -0.980431 0.043053
vn 0.191781 -0.980431 0.043053
vn 0.191781 -0.980431 0.043053
vn -0.976517 0.000000 -0.217221
vn -0.976517 0.000000 -0.217221
vn -0.976517 0.000000 -0.217221
vn -0.976517 0.000000 -0.217221
vn -0.976517 0.000000 -0.217221
vn -0.976517 0.000000 -0.217221
vn 0.185910 0.982387 0.005871
vn 0.185910 0.982387 0.005871
vn 0.185910 0.982387 0.005871
vn 0.185910 0.982387 0.005871
vn 0.185910 0.982387 0.005871
vn 0.185910 0.982387 0.005871
vn -0.998043 0.000000 0.058708
vn -0.998043 0.000000 0.058708
vn -0.998043 0.000000 0.058708
vn -0.998043 0.000000 0.058708
vn -0.998043 0.000000 0.058708
vn -0.998043 0.000000 0.058708
vn 0.185910 -0.982387 0.005871
vn 0.185910 -0.982387 0.005871
vn 0.185910 -0.982387 0.005871
vn 0.185910 -0.982387 0.005871
vn 0.185910 -0.982387 0.005871
vn 0.185910 -0.982387 0.005871
mtllib mtl_t6_wpn_smg_mp7_camo1.mtl
g mtl_t6_wpn_smg_mp7_camo1
usemtl mtl_t6_wpn_smg_mp7_camo1
f 3/3/3 2/2/2 1/1/1
f 6/6/6 5/5/5 4/4/4
f 9/9/9 8/8/8 7/7/7
f 12/12/12 11/11/11 10/10/10
f 15/15/15 14/14/14 13/13/13
f 18/18/18 17/17/17 16/16/16
f 21/21/21 20/20/20 19/19/19
f 24/24/24 23/23/23 22/22/22
f 27/27/27 26/26/26 25/25/25
f 30/30/30 29/29/29 28/28/28
f 33/33/33 32/32/32 31/31/31
f 36/36/36 35/35/35 34/34/34
f 39/39/39 38/38/38 37/37/37
f 42/42/42 41/41/41 40/40/40
