# Generated by Wraith - Game extraction tools
# Please credit DTZxPorter for using it!

v 2.224578 0.718731 -6.092386
v -2.604725 0.958309 -6.092386
v -1.740465 0.958309 -10.811595
v 2.938500 0.718731 -10.264926
v 2.224578 0.718731 -6.092386
v -1.740465 0.958309 -10.811595
v -1.740465 0.958309 -10.811595
v -0.443328 0.958309 -15.850546
v 2.938500 0.718731 -10.264926
v -0.443328 0.958309 -15.850546
v 4.407148 0.718731 -15.215895
v 2.938500 0.718731 -10.264926
v -1.740465 0.958309 -10.811595
v -2.604725 0.958309 -6.092386
v -2.604725 -0.958309 -6.092386
v -1.740465 -0.958309 -10.811595
v -1.740465 0.958309 -10.811595
v -2.604725 -0.958309 -6.092386
v -1.740465 0.958309 -10.811595
v -1.740465 -0.958309 -10.811595
v -0.443328 -0.958309 -15.850546
v -0.443328 0.958309 -15.850546
v -1.740465 0.958309 -10.811595
v -0.443328 -0.958309 -15.850546
v -2.604725 -0.958309 -6.092386
v 2.224578 -0.718731 -6.092386
v -1.740465 -0.958309 -10.811595
v 2.224578 -0.718731 -6.092386
v 2.938500 -0.718731 -10.264926
v -1.740465 -0.958309 -10.811595
v -1.740465 -0.958309 -10.811595
v 2.938500 -0.718731 -10.264926
v -0.443328 -0.958309 -15.850546
v 2.938500 -0.718731 -10.264926
v 4.407148 -0.718731 -15.215895
v -0.443328 -0.958309 -15.850546
v 2.224578 -0.718731 -6.092386
v 2.224578 0.718731 -6.092386
v 2.938500 0.718731 -10.264926
v 2.938500 -0.718731 -10.264926
v 2.224578 -0.718731 -6.092386
v 2.938500 0.718731 -10.264926
v 2.938500 -0.718731 -10.264926
v 2.938500 0.718731 -10.264926
v 4.407148 0.718731 -15.215895
v 4.407148 -0.718731 -15.215895
v 2.938500 -0.718731 -10.264926
v 4.407148 0.718731 -15.215895
v 5.611702 1.270000 -15.362381
v -0.941604 1.270000 -16.312943
v 5.611702 -1.270000 -15.362381
v -0.941604 1.270000 -16.312943
v -0.941604 -1.270000 -16.312946
v 5.611702 -1.270000 -15.362381
v 5.611702 1.270000 -14.875325
v 5.611704 -1.270000 -14.875322
v -0.941604 1.270000 -15.825882
v 5.611704 -1.270000 -14.875322
v -0.941604 -1.270000 -15.825882
v -0.941604 1.270000 -15.825882
v -0.941604 1.270000 -16.312943
v -0.941604 1.270000 -15.825882
v -0.941604 -1.270000 -16.312946
v -0.941604 1.270000 -15.825882
v -0.941604 -1.270000 -15.825882
v -0.941604 -1.270000 -16.312946
v 5.611702 -1.270000 -15.362381
v -0.941604 -1.270000 -16.312946
v -0.941604 -1.270000 -15.825882
v 5.611704 -1.270000 -14.875322
v 5.611702 -1.270000 -15.362381
v -0.941604 -1.270000 -15.825882
v 5.611702 -1.270000 -15.362381
v 5.611704 -1.270000 -14.875322
v 5.611702 1.270000 -14.875325
v 5.611702 1.270000 -15.362381
v 5.611702 -1.270000 -15.362381
v 5.611702 1.270000 -14.875325
v 5.611702 1.270000 -14.875325
v -0.941604 1.270000 -15.825882
v 5.611702 1.270000 -15.362381
v -0.941604 1.270000 -15.825882
v -0.941604 1.270000 -16.312943
v 5.611702 1.270000 -15.362381
v 2.224578 0.718731 -6.092386
v 2.224578 -0.718731 -6.092386
v -2.604725 0.958309 -6.092386
v 2.224578 -0.718731 -6.092386
v -2.604725 -0.958309 -6.092386
v -2.604725 0.958309 -6.092386
v -1.954466 0.718365 -6.092382
v 2.057723 0.359181 -6.092382
v -1.914156 0.718365 5.501668
v 2.057723 0.359181 -6.092382
v 2.098033 0.359181 5.501668
v -1.914156 0.718365 5.501668
v -1.954466 0.718365 -6.092382
v -1.914156 0.718365 5.501668
v -1.954466 -0.718365 -6.092382
v -1.914156 0.718365 5.501668
v -1.914156 -0.718365 5.501668
v -1.954466 -0.718365 -6.092382
v 2.057723 -0.359181 -6.092382
v 2.098033 -0.359181 5.501668
v 2.057723 0.359181 -6.092382
v 2.098033 -0.359181 5.501668
v 2.098033 0.359181 5.501668
v 2.057723 0.359181 -6.092382
v -1.954466 -0.718365 -6.092382
v -1.914156 -0.718365 5.501668
v 2.057723 -0.359181 -6.092382
v -1.914156 -0.718365 5.501668
v 2.098033 -0.359181 5.501668
v 2.057723 -0.359181 -6.092382
v 2.098033 -0.359181 5.501668
v -1.914156 -0.718365 5.501668
v 2.098033 0.359181 5.501668
v -1.914156 -0.718365 5.501668
v -1.914156 0.718365 5.501668
v 2.098033 0.359181 5.501668
vt 0.864746 0.657227
vt 0.948730 0.668701
vt 0.945313 0.576660
vt 0.863281 0.575195
vt 0.864746 0.657227
vt 0.945313 0.576660
vt 0.945313 0.576660
vt 0.935059 0.477539
vt 0.863281 0.575195
vt 0.935059 0.477539
vt 0.848633 0.477539
vt 0.863281 0.575195
vt 0.945801 0.576904
vt 0.948730 0.671143
vt 0.987793 0.671143
vt 0.990723 0.576904
vt 0.945801 0.576904
vt 0.987793 0.671143
vt 0.945801 0.576904
vt 0.990723 0.576904
vt 0.992188 0.477051
vt 0.943848 0.477051
vt 0.945801 0.576904
vt 0.992188 0.477051
vt 0.948730 0.668945
vt 0.864746 0.657959
vt 0.944824 0.576904
vt 0.864746 0.657959
vt 0.862305 0.575928
vt 0.944824 0.576904
vt 0.944824 0.576904
vt 0.862305 0.575928
vt 0.933594 0.478027
vt 0.862305 0.575928
vt 0.847656 0.478027
vt 0.933594 0.478027
vt 0.949707 0.669678
vt 0.984375 0.669678
vt 0.984375 0.580322
vt 0.949219 0.580566
vt 0.949707 0.669678
vt 0.984375 0.580322
vt 0.949219 0.580566
vt 0.984375 0.580322
vt 0.983887 0.471680
vt 0.949707 0.471680
vt 0.949219 0.580566
vt 0.983887 0.471680
vt 0.876465 0.381348
vt 0.996582 0.381348
vt 0.876465 0.431152
vt 0.996582 0.381348
vt 0.996582 0.431152
vt 0.876465 0.431152
vt 0.876465 0.381348
vt 0.876465 0.431152
vt 0.996582 0.381348
vt 0.876465 0.431152
vt 0.996582 0.431152
vt 0.996582 0.381348
vt 0.988281 0.435059
vt 0.987793 0.442383
vt 0.988281 0.435059
vt 0.987793 0.442383
vt 0.987793 0.442383
vt 0.988281 0.435059
vt 0.886230 0.437012
vt 0.988281 0.435059
vt 0.987793 0.442383
vt 0.885254 0.444336
vt 0.886230 0.437012
vt 0.987793 0.442383
vt 0.886230 0.437012
vt 0.885254 0.444336
vt 0.885254 0.444336
vt 0.886230 0.437012
vt 0.886230 0.437012
vt 0.885254 0.444336
vt 0.885254 0.444336
vt 0.987793 0.442383
vt 0.886230 0.437012
vt 0.987793 0.442383
vt 0.988281 0.435059
vt 0.886230 0.437012
vt 0.774414 0.451660
vt 0.774414 0.472168
vt 0.835938 0.448242
vt 0.774414 0.472168
vt 0.835938 0.475586
vt 0.835938 0.448242
vt 0.846191 0.480957
vt 0.776855 0.480957
vt 0.845703 0.622314
vt 0.776855 0.480957
vt 0.776855 0.622314
vt 0.845703 0.622314
vt 0.784668 0.480957
vt 0.787109 0.622314
vt 0.802734 0.480957
vt 0.787109 0.622314
vt 0.800293 0.622314
vt 0.802734 0.480957
vt 0.768066 0.480957
vt 0.768066 0.622314
vt 0.776855 0.480957
vt 0.768066 0.622314
vt 0.776855 0.622314
vt 0.776855 0.480957
vt 0.846191 0.480957
vt 0.845703 0.622314
vt 0.768066 0.480957
vt 0.845703 0.622314
vt 0.768066 0.622314
vt 0.768066 0.480957
vt 0.812500 0.427734
vt 0.873047 0.427734
vt 0.812500 0.416504
vt 0.873047 0.427734
vt 0.873047 0.416504
vt 0.812500 0.416504
vn 0.048924 0.998043 0.009785
vn 0.048924 0.998043 0.009785
vn 0.048924 0.998043 0.011742
vn 0.048924 0.998043 0.011742
vn 0.048924 0.998043 0.009785
vn 0.048924 0.998043 0.011742
vn 0.048924 0.998043 0.011742
vn 0.048924 0.998043 0.013699
vn 0.048924 0.998043 0.011742
vn 0.048924 0.998043 0.013699
vn 0.048924 0.998043 0.013699
vn 0.048924 0.998043 0.011742
vn -0.976517 0.000000 -0.215264
vn -0.984344 0.000000 -0.180039
vn -0.984344 0.000000 -0.180039
vn -0.976517 0.000000 -0.215264
vn -0.976517 0.000000 -0.215264
vn -0.984344 0.000000 -0.180039
vn -0.976517 0.000000 -0.215264
vn -0.976517 0.000000 -0.215264
vn -0.968689 0.000000 -0.248532
vn -0.968689 0.000000 -0.248532
vn -0.976517 0.000000 -0.215264
vn -0.968689 0.000000 -0.248532
vn 0.048924 -0.998043 0.009785
vn 0.048924 -0.998043 0.009785
vn 0.048924 -0.998043 0.011742
vn 0.048924 -0.998043 0.009785
vn 0.048924 -0.998043 0.011742
vn 0.048924 -0.998043 0.011742
vn 0.048924 -0.998043 0.011742
vn 0.048924 -0.998043 0.011742
vn 0.048924 -0.998043 0.013699
vn 0.048924 -0.998043 0.011742
vn 0.048924 -0.998043 0.013699
vn 0.048924 -0.998043 0.013699
vn 0.986301 0.000000 0.168297
vn 0.986301 0.000000 0.168297
vn 0.974560 0.000000 0.227006
vn 0.974560 0.000000 0.227006
vn 0.986301 0.000000 0.168297
vn 0.974560 0.000000 0.227006
vn 0.974560 0.000000 0.227006
vn 0.974560 0.000000 0.227006
vn 0.958904 0.000000 0.283757
vn 0.958904 0.000000 0.283757
vn 0.974560 0.000000 0.227006
vn 0.958904 0.000000 0.283757
vn 0.142857 0.000000 -0.990215
vn 0.142857 0.000000 -0.990215
vn 0.142857 0.000000 -0.990215
vn 0.142857 0.000000 -0.990215
vn 0.142857 0.000000 -0.990215
vn 0.142857 0.000000 -0.990215
vn -0.142857 0.000000 0.990215
vn -0.142857 0.000000 0.990215
vn -0.142857 0.000000 0.990215
vn -0.142857 0.000000 0.990215
vn -0.142857 0.000000 0.990215
vn -0.142857 0.000000 0.990215
vn -1.000000 0.000000 0.000000
vn -1.000000 0.000000 0.000000
vn -1.000000 0.000000 0.000000
vn -1.000000 0.000000 0.000000
vn -1.000000 0.000000 0.000000
vn -1.000000 0.000000 0.000000
vn 0.706458 -0.706458 0.000000
vn 0.000000 -1.000000 0.000000
vn 0.000000 -1.000000 0.000000
vn 0.706458 -0.706458 0.000000
vn 0.706458 -0.706458 0.000000
vn 0.000000 -1.000000 0.000000
vn 0.706458 -0.706458 0.000000
vn 0.706458 -0.706458 0.000000
vn 0.706458 0.706458 0.000000
vn 0.706458 0.706458 0.000000
vn 0.706458 -0.706458 0.000000
vn 0.706458 0.706458 0.000000
vn 0.706458 0.706458 0.000000
vn 0.000000 1.000000 0.000000
vn 0.706458 0.706458 0.000000
vn 0.000000 1.000000 0.000000
vn 0.000000 1.000000 0.000000
vn 0.706458 0.706458 0.000000
vn 0.000000 0.000000 1.000000
vn 0.000000 0.000000 1.000000
vn 0.000000 0.000000 1.000000
vn 0.000000 0.000000 1.000000
vn 0.000000 0.000000 1.000000
vn 0.000000 0.000000 1.000000
vn 0.090020 0.996086 0.000000
vn 0.090020 0.996086 0.000000
vn 0.090020 0.996086 0.000000
vn 0.090020 0.996086 0.000000
vn 0.090020 0.996086 0.000000
vn 0.090020 0.996086 0.000000
vn -1.000000 0.000000 0.003914
vn -1.000000 0.000000 0.003914
vn -1.000000 0.000000 0.003914
vn -1.000000 0.000000 0.003914
vn -1.000000 0.000000 0.003914
vn -1.000000 0.000000 0.003914
vn 1.000000 0.000000 -0.003914
vn 1.000000 0.000000 -0.003914
vn 1.000000 0.000000 -0.003914
vn 1.000000 0.000000 -0.003914
vn 1.000000 0.000000 -0.003914
vn 1.000000 0.000000 -0.003914
vn 0.090020 -0.996086 0.000000
vn 0.090020 -0.996086 0.000000
vn 0.090020 -0.996086 0.000000
vn 0.090020 -0.996086 0.000000
vn 0.090020 -0.996086 0.000000
vn 0.090020 -0.996086 0.000000
vn 0.000000 0.000000 1.000000
vn 0.000000 0.000000 1.000000
vn 0.000000 0.000000 1.000000
vn 0.000000 0.000000 1.000000
vn 0.000000 0.000000 1.000000
vn 0.000000 0.000000 1.000000
mtllib mtl_t6_wpn_smg_mp7_camo1.mtl
g mtl_t6_wpn_smg_mp7_camo1
usemtl mtl_t6_wpn_smg_mp7_camo1
f 3/3/3 2/2/2 1/1/1
f 6/6/6 5/5/5 4/4/4
f 9/9/9 8/8/8 7/7/7
f 12/12/12 11/11/11 10/10/10
f 15/15/15 14/14/14 13/13/13
f 18/18/18 17/17/17 16/16/16
f 21/21/21 20/20/20 19/19/19
f 24/24/24 23/23/23 22/22/22
f 27/27/27 26/26/26 25/25/25
f 30/30/30 29/29/29 28/28/28
f 33/33/33 32/32/32 31/31/31
f 36/36/36 35/35/35 34/34/34
f 39/39/39 38/38/38 37/37/37
f 42/42/42 41/41/41 40/40/40
f 45/45/45 44/44/44 43/43/43
f 48/48/48 47/47/47 46/46/46
f 51/51/51 50/50/50 49/49/49
f 54/54/54 53/53/53 52/52/52
f 57/57/57 56/56/56 55/55/55
f 60/60/60 59/59/59 58/58/58
f 63/63/63 62/62/62 61/61/61
f 66/66/66 65/65/65 64/64/64
f 69/69/69 68/68/68 67/67/67
f 72/72/72 71/71/71 70/70/70
f 75/75/75 74/74/74 73/73/73
f 78/78/78 77/77/77 76/76/76
f 81/81/81 80/80/80 79/79/79
f 84/84/84 83/83/83 82/82/82
f 87/87/87 86/86/86 85/85/85
f 90/90/90 89/89/89 88/88/88
f 93/93/93 92/92/92 91/91/91
f 96/96/96 95/95/95 94/94/94
f 99/99/99 98/98/98 97/97/97
f 102/102/102 101/101/101 100/100/100
f 105/105/105 104/104/104 103/103/103
f 108/108/108 107/107/107 106/106/106
f 111/111/111 110/110/110 109/109/109
f 114/114/114 113/113/113 112/112/112
f 117/117/117 116/116/116 115/115/115
f 120/120/120 119/119/119 118/118/118
