# Generated by Wraith - Game extraction tools
# Please credit DTZxPorter for using it!

v 19.210794 0.000000 0.011808
v -0.011781 0.000000 4.200187
v -0.011781 4.188379 0.011808
v -0.011781 0.000000 4.200187
v 19.210794 0.000000 0.011808
v -0.011781 -4.188379 0.011808
v -41.581387 0.000000 0.011808
v -0.011781 4.188379 0.011808
v -0.011781 0.000000 4.200187
v -0.011781 4.188379 0.011808
v -41.581387 0.000000 0.011808
v -0.011781 0.000000 -4.176570
v -0.011781 4.188379 0.011808
v -0.011781 0.000000 -4.176570
v 19.210794 0.000000 0.011808
v -0.011781 0.000000 -4.176570
v -0.011781 -4.188379 0.011808
v 19.210794 0.000000 0.011808
v -0.011781 0.000000 -4.176570
v -41.581387 0.000000 0.011808
v -0.011781 -4.188379 0.011808
v -0.011781 0.000000 4.200187
v -0.011781 -4.188379 0.011808
v -41.581387 0.000000 0.011808
vt 0.084961 0.415039
vt 0.001884 0.166016
vt 0.167969 0.165527
vt 0.001884 0.166016
vt 0.084961 0.415039
vt 0.167969 0.165527
vt 0.078186 0.006348
vt 0.167969 0.165527
vt 0.001884 0.166016
vt 0.167969 0.165527
vt 0.078186 0.006348
vt 0.001884 0.165527
vt 0.167969 0.165527
vt 0.001884 0.165527
vt 0.084961 0.415039
vt 0.001884 0.165527
vt 0.167969 0.165527
vt 0.084961 0.415039
vt 0.001884 0.165527
vt 0.078186 0.006348
vt 0.167969 0.165527
vt 0.001884 0.166016
vt 0.167969 0.165527
vt 0.078186 0.006348
vn 1.000000 0.000000 0.000000
vn 0.058708 0.000000 0.998043
vn 0.058708 0.998043 0.000000
vn 0.058708 0.000000 0.998043
vn 1.000000 0.000000 0.000000
vn 0.058708 -0.998043 0.000000
vn -1.000000 0.000000 0.000000
vn 0.058708 0.998043 0.000000
vn 0.058708 0.000000 0.998043
vn 0.058708 0.998043 0.000000
vn -1.000000 0.000000 0.000000
vn 0.058708 0.000000 -0.998043
vn 0.058708 0.998043 0.000000
vn 0.058708 0.000000 -0.998043
vn 1.000000 0.000000 0.000000
vn 0.058708 0.000000 -0.998043
vn 0.058708 -0.998043 0.000000
vn 1.000000 0.000000 0.000000
vn 0.058708 0.000000 -0.998043
vn -1.000000 0.000000 0.000000
vn 0.058708 -0.998043 0.000000
vn 0.058708 0.000000 0.998043
vn 0.058708 -0.998043 0.000000
vn -1.000000 0.000000 0.000000
mtllib mtl_t6_wpn_launch_rpg7.mtl
g mtl_t6_wpn_launch_rpg7
usemtl mtl_t6_wpn_launch_rpg7
f 3/3/3 2/2/2 1/1/1
f 6/6/6 5/5/5 4/4/4
f 9/9/9 8/8/8 7/7/7
f 12/12/12 11/11/11 10/10/10
f 15/15/15 14/14/14 13/13/13
f 18/18/18 17/17/17 16/16/16
f 21/21/21 20/20/20 19/19/19
f 24/24/24 23/23/23 22/22/22
