# Generated by Wraith - Game extraction tools
# Please credit DTZxPorter for using it!

v -87.042969 -4.993216 4.993216
v -134.593842 -17.775103 17.775103
v -134.593842 -4.993216 4.993216
v 105.949280 -4.993216 4.993216
v 64.733948 -14.672366 14.672366
v 68.131363 -4.993216 4.993216
v -87.042969 -4.993216 -4.993216
v -134.593842 -17.775103 -17.775103
v -134.593842 -4.993216 -4.993216
v 105.949280 -4.993216 -4.993216
v 64.733948 -14.672366 -14.672366
v 68.131363 -4.993216 -4.993216
v -87.042969 4.993216 -4.993216
v -134.593842 4.993216 -4.993216
v -134.593842 17.775103 -17.775103
v 105.949280 4.993216 -4.993216
v 68.131363 4.993216 -4.993216
v 64.733948 14.672366 -14.672366
v -87.042969 4.993216 4.993216
v -134.593842 4.993216 4.993216
v -134.593842 17.775103 17.775103
v 105.949280 4.993216 4.993216
v 68.131363 4.993216 4.993216
v 64.733948 14.672366 14.672366
v 150.300339 3.857523 -3.857523
v 150.300339 -7.382739 -0.332308
v 150.300339 0.332308 7.382739
v 150.300339 0.332308 7.382739
v 150.300339 -7.382739 -0.332308
v -134.593842 -8.518431 -1.468001
v -134.593842 1.468001 8.518431
v 150.300339 0.332308 7.382739
v -134.593842 -8.518431 -1.468001
v 150.300339 3.857523 -3.857523
v 150.300339 0.332308 7.382739
v -134.593842 1.468001 8.518431
v -134.593842 4.993216 -4.993216
v 150.300339 3.857523 -3.857523
v -134.593842 1.468001 8.518431
v 150.300339 -7.382739 -0.332308
v 150.300339 3.857523 -3.857523
v -134.593842 4.993216 -4.993216
v -134.593842 -8.518431 -1.468001
v 150.300339 -7.382739 -0.332308
v -134.593842 4.993216 -4.993216
v -134.593842 -8.518431 -1.468001
v -134.593842 4.993216 -4.993216
v -134.593842 0.000000 0.000000
v -134.593842 4.993216 -4.993216
v -134.593842 1.468001 8.518431
v -134.593842 0.000000 0.000000
v -134.593842 -8.518431 -1.468001
v -134.593842 0.000000 0.000000
v -134.593842 1.468001 8.518431
vt 0.974121 0.000000
vt 1.000000 1.000000
vt 1.000000 0.000000
vt 0.974121 0.000000
vt 1.000000 1.000000
vt 1.000000 0.000000
vt 0.974121 0.000000
vt 1.000000 1.000000
vt 1.000000 0.000000
vt 0.974121 0.000000
vt 1.000000 1.000000
vt 1.000000 0.000000
vt 0.974121 0.000000
vt 1.000000 0.000000
vt 1.000000 1.000000
vt 0.974121 0.000000
vt 1.000000 0.000000
vt 1.000000 1.000000
vt 0.974121 0.000000
vt 1.000000 0.000000
vt 1.000000 1.000000
vt 0.974121 0.000000
vt 1.000000 0.000000
vt 1.000000 1.000000
vt 0.055420 0.875488
vt 0.055420 0.625488
vt 0.055420 0.125488
vt 0.055420 0.125488
vt 0.055420 0.625488
vt 0.995117 0.625488
vt 0.995117 0.125488
vt 0.055420 0.125488
vt 0.995117 0.625488
vt 0.055420 0.875488
vt 0.055420 0.125488
vt 0.995117 0.125488
vt 0.995117 0.875488
vt 0.055420 0.875488
vt 0.995117 0.125488
vt 0.055420 0.625488
vt 0.055420 0.875488
vt 0.995117 0.875488
vt 0.995117 0.625488
vt 0.055420 0.625488
vt 0.995117 0.875488
vt 0.986816 0.200195
vt 0.998047 0.173828
vt 0.986816 0.173828
vt 0.998047 0.173828
vt 0.986816 0.147461
vt 0.986816 0.173828
vt 0.986816 0.200195
vt 0.986816 0.173828
vt 0.986816 0.147461
vn 0.000000 0.706458 0.706458
vn 0.000000 0.706458 0.706458
vn 0.000000 0.706458 0.706458
vn 0.000000 0.706458 0.706458
vn 0.000000 0.706458 0.706458
vn 0.000000 0.706458 0.706458
vn 0.000000 -0.706458 0.706458
vn 0.000000 -0.706458 0.706458
vn 0.000000 -0.706458 0.706458
vn 0.000000 -0.706458 0.706458
vn 0.000000 -0.706458 0.706458
vn 0.000000 -0.706458 0.706458
vn 0.000000 0.706458 0.706458
vn 0.000000 0.706458 0.706458
vn 0.000000 0.706458 0.706458
vn 0.000000 0.706458 0.706458
vn 0.000000 0.706458 0.706458
vn 0.000000 0.706458 0.706458
vn 0.000000 -0.706458 0.706458
vn 0.000000 -0.706458 0.706458
vn 0.000000 -0.706458 0.706458
vn 0.000000 -0.706458 0.706458
vn 0.000000 -0.706458 0.706458
vn 0.000000 -0.706458 0.706458
vn 0.720157 0.491194 -0.491194
vn 0.704501 -0.686888 -0.178082
vn 0.704501 0.178082 0.686888
vn 0.704501 0.178082 0.686888
vn 0.704501 -0.686888 -0.178082
vn 0.003914 -0.968689 -0.250489
vn 0.003914 0.250489 0.968689
vn 0.704501 0.178082 0.686888
vn 0.003914 -0.968689 -0.250489
vn 0.720157 0.491194 -0.491194
vn 0.704501 0.178082 0.686888
vn 0.003914 0.250489 0.968689
vn 0.007828 0.706458 -0.706458
vn 0.720157 0.491194 -0.491194
vn 0.003914 0.250489 0.968689
vn 0.704501 -0.686888 -0.178082
vn 0.720157 0.491194 -0.491194
vn 0.007828 0.706458 -0.706458
vn 0.003914 -0.968689 -0.250489
vn 0.704501 -0.686888 -0.178082
vn 0.007828 0.706458 -0.706458
vn -1.000000 0.000000 0.000000
vn -1.000000 0.000000 0.000000
vn -1.000000 0.000000 0.000000
vn -1.000000 0.000000 0.000000
vn -1.000000 0.000000 0.000000
vn -1.000000 0.000000 0.000000
vn -1.000000 0.000000 0.000000
vn -1.000000 0.000000 0.000000
vn -1.000000 0.000000 0.000000
mtllib mtl_sidewinder_missile.mtl
g mtl_sidewinder_missile
usemtl mtl_sidewinder_missile
f 3/3/3 2/2/2 1/1/1
f 6/6/6 5/5/5 4/4/4
f 9/9/9 8/8/8 7/7/7
f 12/12/12 11/11/11 10/10/10
f 15/15/15 14/14/14 13/13/13
f 18/18/18 17/17/17 16/16/16
f 21/21/21 20/20/20 19/19/19
f 24/24/24 23/23/23 22/22/22
f 27/27/27 26/26/26 25/25/25
f 30/30/30 29/29/29 28/28/28
f 33/33/33 32/32/32 31/31/31
f 36/36/36 35/35/35 34/34/34
f 39/39/39 38/38/38 37/37/37
f 42/42/42 41/41/41 40/40/40
f 45/45/45 44/44/44 43/43/43
f 48/48/48 47/47/47 46/46/46
f 51/51/51 50/50/50 49/49/49
f 54/54/54 53/53/53 52/52/52
