# Generated by Wraith - Game extraction tools
# Please credit DTZxPorter for using it!

v 1.803344 2.366010 0.095865
v -1.912343 -2.401448 0.105644
v 1.078408 -2.676675 0.114140
v -0.226068 -0.897329 12.674534
v -0.203797 -1.323790 12.236043
v 0.226489 0.450931 9.619511
v -0.203797 -1.323790 12.236043
v 0.230800 0.060127 9.538665
v 0.226489 0.450931 9.619511
v -0.205555 -0.899952 12.678110
v 0.270939 0.450931 9.619511
v -0.184051 -1.326317 12.239483
v 0.270939 0.450931 9.619511
v 0.266629 0.060127 9.538665
v -0.184051 -1.326317 12.239483
v 1.367539 2.430564 10.572953
v -2.183021 1.636057 10.538250
v 0.021504 4.638881 9.194046
v 3.480570 3.284342 9.239371
v 1.367539 2.430564 10.572953
v 0.021504 4.638881 9.194046
v 3.480570 3.284342 9.239371
v 0.021504 4.638881 9.194046
v 3.909134 3.762403 5.866621
v 0.021504 4.638881 9.194046
v 0.048613 5.265928 5.861281
v 3.909134 3.762403 5.866621
v 1.803344 2.366010 0.095865
v 3.909134 3.762403 5.866621
v 0.048613 5.265928 5.861281
v 1.803344 2.366010 0.095865
v 0.048613 5.265928 5.861281
v -1.123798 2.754696 0.113962
v -3.884026 3.727879 5.868896
v -1.123798 2.754696 0.113962
v 0.048613 5.265928 5.861281
v -3.884026 3.727879 5.868896
v -2.860535 0.346560 0.114168
v -1.123798 2.754696 0.113962
v 1.803344 2.366010 0.095865
v -1.123798 2.754696 0.113962
v -2.860535 0.346560 0.114168
v -1.912343 -2.401448 0.105644
v 1.803344 2.366010 0.095865
v -2.860535 0.346560 0.114168
v -3.884026 3.727879 5.868896
v 0.048613 5.265928 5.861281
v 0.021504 4.638881 9.194046
v -3.431083 3.331723 9.250883
v -3.884026 3.727879 5.868896
v 0.021504 4.638881 9.194046
v -3.431083 3.331723 9.250883
v -4.621357 0.185946 9.229908
v -3.884026 3.727879 5.868896
v -4.621357 0.185946 9.229908
v -5.326822 0.182730 5.868896
v -3.884026 3.727879 5.868896
v -5.326822 0.182730 5.868896
v -2.860535 0.346560 0.114168
v -3.884026 3.727879 5.868896
v -4.265404 -3.037362 5.865836
v -2.860535 0.346560 0.114168
v -5.326822 0.182730 5.868896
v -1.912343 -2.401448 0.105644
v -2.860535 0.346560 0.114168
v -4.265404 -3.037362 5.865836
v -1.912343 -2.401448 0.105644
v -4.265404 -3.037362 5.865836
v 0.120848 -5.008121 5.860354
v -1.912343 -2.401448 0.105644
v 0.120848 -5.008121 5.860354
v 1.078408 -2.676675 0.114140
v -2.183021 1.636057 10.538250
v -3.431083 3.331723 9.250883
v 0.021504 4.638881 9.194046
v -2.183021 1.636057 10.538250
v -4.621357 0.185946 9.229908
v -3.431083 3.331723 9.250883
v -2.183021 1.636057 10.538250
v -1.046254 -2.197346 10.626834
v -4.621357 0.185946 9.229908
v -1.046254 -2.197346 10.626834
v -3.786129 -2.492682 9.257444
v -4.621357 0.185946 9.229908
v -4.621357 0.185946 9.229908
v -3.786129 -2.492682 9.257444
v -5.326822 0.182730 5.868896
v -3.786129 -2.492682 9.257444
v -4.265404 -3.037362 5.865836
v -5.326822 0.182730 5.868896
v -3.786129 -2.492682 9.257444
v 0.053045 -4.356869 9.242006
v -4.265404 -3.037362 5.865836
v 0.053045 -4.356869 9.242006
v 0.120848 -5.008121 5.860354
v -4.265404 -3.037362 5.865836
v 4.279321 -3.071868 5.866612
v 0.120848 -5.008121 5.860354
v 0.053045 -4.356869 9.242006
v 1.078408 -2.676675 0.114140
v 0.120848 -5.008121 5.860354
v 4.279321 -3.071868 5.866612
v 1.078408 -2.676675 0.114140
v 4.279321 -3.071868 5.866612
v 2.868325 -0.314142 0.102639
v 2.868325 -0.314142 0.102639
v 1.803344 2.366010 0.095865
v 1.078408 -2.676675 0.114140
v -2.183021 1.636057 10.538250
v 0.224732 0.204681 9.627730
v -1.046254 -2.197346 10.626834
v 1.367539 2.430564 10.572953
v 0.224732 0.204681 9.627730
v -2.183021 1.636057 10.538250
v -3.786129 -2.492682 9.257444
v -1.046254 -2.197346 10.626834
v 0.053045 -4.356869 9.242006
v -1.046254 -2.197346 10.626834
v 2.292805 -0.986688 10.599158
v 0.053045 -4.356869 9.242006
v 2.292805 -0.986688 10.599158
v 3.880170 -2.646957 9.241152
v 0.053045 -4.356869 9.242006
v 3.880170 -2.646957 9.241152
v 4.279321 -3.071868 5.866612
v 0.053045 -4.356869 9.242006
v 5.353002 0.182733 5.868896
v 4.279321 -3.071868 5.866612
v 3.880170 -2.646957 9.241152
v 2.868325 -0.314142 0.102639
v 4.279321 -3.071868 5.866612
v 5.353002 0.182733 5.868896
v 2.868325 -0.314142 0.102639
v 5.353002 0.182733 5.868896
v 3.909134 3.762403 5.866621
v 2.868325 -0.314142 0.102639
v 3.909134 3.762403 5.866621
v 1.803344 2.366010 0.095865
v 2.292805 -0.986688 10.599158
v 4.665038 0.195026 9.249718
v 3.880170 -2.646957 9.241152
v 4.665038 0.195026 9.249718
v 5.353002 0.182733 5.868896
v 3.880170 -2.646957 9.241152
v 4.665038 0.195026 9.249718
v 3.480570 3.284342 9.239371
v 5.353002 0.182733 5.868896
v 3.480570 3.284342 9.239371
v 3.909134 3.762403 5.866621
v 5.353002 0.182733 5.868896
v 2.292805 -0.986688 10.599158
v 1.367539 2.430564 10.572953
v 4.665038 0.195026 9.249718
v 1.367539 2.430564 10.572953
v 3.480570 3.284342 9.239371
v 4.665038 0.195026 9.249718
v 1.367539 2.430564 10.572953
v 2.292805 -0.986688 10.599158
v 0.224732 0.204681 9.627730
v -1.046254 -2.197346 10.626834
v 0.224732 0.204681 9.627730
v 2.292805 -0.986688 10.599158
vt 0.795898 0.240723
vt 0.598633 0.245605
vt 0.624512 0.309082
vt 0.780762 0.943298
vt 0.809082 0.943298
vt 0.790527 0.787720
vt 0.809082 0.943298
vt 0.810059 0.787720
vt 0.790527 0.787720
vt 0.866211 0.943298
vt 0.849121 0.787720
vt 0.837402 0.943298
vt 0.849121 0.787720
vt 0.829590 0.787720
vt 0.837402 0.943298
vt 0.179321 0.721191
vt 0.332031 0.702148
vt 0.156494 0.585449
vt 0.033295 0.585449
vt 0.179321 0.721191
vt 0.156494 0.585449
vt 0.033295 0.585449
vt 0.156494 0.585449
vt 0.025024 0.519775
vt 0.156494 0.585449
vt 0.151001 0.519775
vt 0.025024 0.519775
vt 0.057800 0.288086
vt 0.025024 0.519775
vt 0.151001 0.519775
vt 0.057800 0.288086
vt 0.151001 0.519775
vt 0.169312 0.304688
vt 0.289795 0.519775
vt 0.169312 0.304688
vt 0.151001 0.519775
vt 0.289795 0.519775
vt 0.352539 0.309082
vt 0.169312 0.304688
vt 0.211426 0.228516
vt 0.169312 0.304688
vt 0.352539 0.309082
vt 0.377441 0.232422
vt 0.211426 0.228516
vt 0.352539 0.309082
vt 0.289795 0.519775
vt 0.151001 0.519775
vt 0.156494 0.585449
vt 0.295410 0.585449
vt 0.289795 0.519775
vt 0.156494 0.585449
vt 0.295410 0.585449
vt 0.395508 0.585449
vt 0.289795 0.519775
vt 0.395508 0.585449
vt 0.388672 0.519775
vt 0.289795 0.519775
vt 0.388672 0.519775
vt 0.352539 0.309082
vt 0.289795 0.519775
vt 0.489990 0.519775
vt 0.352539 0.309082
vt 0.388672 0.519775
vt 0.489990 0.309082
vt 0.352539 0.309082
vt 0.489990 0.519775
vt 0.489990 0.309082
vt 0.489990 0.519775
vt 0.638184 0.519775
vt 0.489990 0.309082
vt 0.638184 0.519775
vt 0.624512 0.309082
vt 0.332031 0.702148
vt 0.295410 0.585449
vt 0.156494 0.585449
vt 0.332031 0.702148
vt 0.395508 0.585449
vt 0.295410 0.585449
vt 0.332031 0.702148
vt 0.488770 0.693848
vt 0.395508 0.585449
vt 0.488770 0.693848
vt 0.489990 0.585449
vt 0.395508 0.585449
vt 0.395508 0.585449
vt 0.489990 0.585449
vt 0.388672 0.519775
vt 0.489990 0.585449
vt 0.489990 0.519775
vt 0.388672 0.519775
vt 0.489990 0.585449
vt 0.634766 0.585449
vt 0.489990 0.519775
vt 0.634766 0.585449
vt 0.638184 0.519775
vt 0.489990 0.519775
vt 0.792480 0.519775
vt 0.638184 0.519775
vt 0.634766 0.585449
vt 0.624512 0.309082
vt 0.638184 0.519775
vt 0.792480 0.519775
vt 0.624512 0.309082
vt 0.792480 0.519775
vt 0.816406 0.296875
vt 0.816406 0.296875
vt 0.795898 0.240723
vt 0.624512 0.309082
vt 0.332031 0.702148
vt 0.326416 0.782349
vt 0.488770 0.693848
vt 0.179321 0.721191
vt 0.326416 0.782349
vt 0.332031 0.702148
vt 0.489990 0.585449
vt 0.488770 0.693848
vt 0.634766 0.585449
vt 0.488770 0.693848
vt 0.740723 0.705566
vt 0.634766 0.585449
vt 0.740723 0.705566
vt 0.787109 0.585449
vt 0.634766 0.585449
vt 0.787109 0.585449
vt 0.792480 0.519775
vt 0.634766 0.585449
vt 0.887207 0.519775
vt 0.792480 0.519775
vt 0.787109 0.585449
vt 0.816406 0.296875
vt 0.792480 0.519775
vt 0.887207 0.519775
vt 0.816406 0.296875
vt 0.887207 0.519775
vt 0.974609 0.519775
vt 0.816406 0.296875
vt 0.974609 0.519775
vt 0.936523 0.288086
vt 0.740723 0.705566
vt 0.880859 0.585449
vt 0.787109 0.585449
vt 0.880859 0.585449
vt 0.887207 0.519775
vt 0.787109 0.585449
vt 0.880859 0.585449
vt 0.962402 0.585449
vt 0.887207 0.519775
vt 0.962402 0.585449
vt 0.974609 0.519775
vt 0.887207 0.519775
vt 0.740723 0.705566
vt 0.855469 0.738770
vt 0.880859 0.585449
vt 0.855469 0.738770
vt 0.962402 0.585449
vt 0.880859 0.585449
vt 0.855469 0.738770
vt 0.740723 0.705566
vt 0.658203 0.774780
vt 0.488770 0.693848
vt 0.658203 0.774780
vt 0.740723 0.705566
vn 0.326810 0.526419 -0.784736
vn -0.344423 -0.534247 -0.771037
vn 0.313112 -0.704501 -0.636008
vn -0.990215 0.048924 -0.129159
vn -0.990215 0.048924 -0.129159
vn -0.990215 0.048924 -0.129159
vn -0.990215 0.048924 -0.129159
vn -0.990215 0.048924 -0.129159
vn -0.990215 0.048924 -0.129159
vn 0.990215 -0.062622 0.129159
vn 0.990215 -0.062622 0.129159
vn 0.990215 -0.062622 0.129159
vn 0.990215 -0.062622 0.129159
vn 0.990215 -0.062622 0.129159
vn 0.990215 -0.062622 0.129159
vn 0.035225 0.162427 0.986301
vn -0.138943 0.068493 0.988258
vn 0.025440 0.833659 0.553816
vn 0.565558 0.590998 0.573386
vn 0.035225 0.162427 0.986301
vn 0.025440 0.833659 0.553816
vn 0.565558 0.590998 0.573386
vn 0.025440 0.833659 0.553816
vn 0.749511 0.639922 -0.174168
vn 0.025440 0.833659 0.553816
vn 0.025440 0.986301 -0.160470
vn 0.749511 0.639922 -0.174168
vn 0.326810 0.526419 -0.784736
vn 0.749511 0.639922 -0.174168
vn 0.025440 0.986301 -0.160470
vn 0.326810 0.526419 -0.784736
vn 0.025440 0.986301 -0.160470
vn -0.289628 0.696673 -0.655577
vn -0.714286 0.677104 -0.172211
vn -0.289628 0.696673 -0.655577
vn 0.025440 0.986301 -0.160470
vn -0.714286 0.677104 -0.172211
vn -0.790607 0.068493 -0.608611
vn -0.289628 0.696673 -0.655577
vn 0.326810 0.526419 -0.784736
vn -0.289628 0.696673 -0.655577
vn -0.790607 0.068493 -0.608611
vn -0.344423 -0.534247 -0.771037
vn 0.326810 0.526419 -0.784736
vn -0.790607 0.068493 -0.608611
vn -0.714286 0.677104 -0.172211
vn 0.025440 0.986301 -0.160470
vn 0.025440 0.833659 0.553816
vn -0.573386 0.575342 0.583170
vn -0.714286 0.677104 -0.172211
vn 0.025440 0.833659 0.553816
vn -0.573386 0.575342 0.583170
vn -0.806262 0.043053 0.589041
vn -0.714286 0.677104 -0.172211
vn -0.806262 0.043053 0.589041
vn -0.994129 0.033268 -0.103718
vn -0.714286 0.677104 -0.172211
vn -0.994129 0.033268 -0.103718
vn -0.790607 0.068493 -0.608611
vn -0.714286 0.677104 -0.172211
vn -0.786693 -0.598826 -0.148728
vn -0.790607 0.068493 -0.608611
vn -0.994129 0.033268 -0.103718
vn -0.344423 -0.534247 -0.771037
vn -0.790607 0.068493 -0.608611
vn -0.786693 -0.598826 -0.148728
vn -0.344423 -0.534247 -0.771037
vn -0.786693 -0.598826 -0.148728
vn -0.017613 -0.992172 -0.129159
vn -0.344423 -0.534247 -0.771037
vn -0.017613 -0.992172 -0.129159
vn 0.313112 -0.704501 -0.636008
vn -0.138943 0.068493 0.988258
vn -0.573386 0.575342 0.583170
vn 0.025440 0.833659 0.553816
vn -0.138943 0.068493 0.988258
vn -0.806262 0.043053 0.589041
vn -0.573386 0.575342 0.583170
vn -0.138943 0.068493 0.988258
vn -0.058708 -0.142857 0.988258
vn -0.806262 0.043053 0.589041
vn -0.058708 -0.142857 0.988258
vn -0.598826 -0.555773 0.577299
vn -0.806262 0.043053 0.589041
vn -0.806262 0.043053 0.589041
vn -0.598826 -0.555773 0.577299
vn -0.994129 0.033268 -0.103718
vn -0.598826 -0.555773 0.577299
vn -0.786693 -0.598826 -0.148728
vn -0.994129 0.033268 -0.103718
vn -0.598826 -0.555773 0.577299
vn -0.031311 -0.829746 0.557730
vn -0.786693 -0.598826 -0.148728
vn -0.031311 -0.829746 0.557730
vn -0.017613 -0.992172 -0.129159
vn -0.786693 -0.598826 -0.148728
vn 0.747554 -0.643836 -0.164384
vn -0.017613 -0.992172 -0.129159
vn -0.031311 -0.829746 0.557730
vn 0.313112 -0.704501 -0.636008
vn -0.017613 -0.992172 -0.129159
vn 0.747554 -0.643836 -0.164384
vn 0.313112 -0.704501 -0.636008
vn 0.747554 -0.643836 -0.164384
vn 0.788650 -0.037182 -0.614481
vn 0.788650 -0.037182 -0.614481
vn 0.326810 0.526419 -0.784736
vn 0.313112 -0.704501 -0.636008
vn -0.138943 0.068493 0.988258
vn -0.035225 0.013699 1.000000
vn -0.058708 -0.142857 0.988258
vn 0.035225 0.162427 0.986301
vn -0.035225 0.013699 1.000000
vn -0.138943 0.068493 0.988258
vn -0.598826 -0.555773 0.577299
vn -0.058708 -0.142857 0.988258
vn -0.031311 -0.829746 0.557730
vn -0.058708 -0.142857 0.988258
vn 0.129159 -0.035225 0.990215
vn -0.031311 -0.829746 0.557730
vn 0.129159 -0.035225 0.990215
vn 0.610568 -0.528376 0.589041
vn -0.031311 -0.829746 0.557730
vn 0.610568 -0.528376 0.589041
vn 0.747554 -0.643836 -0.164384
vn -0.031311 -0.829746 0.557730
vn 0.992172 0.035225 -0.111546
vn 0.747554 -0.643836 -0.164384
vn 0.610568 -0.528376 0.589041
vn 0.788650 -0.037182 -0.614481
vn 0.747554 -0.643836 -0.164384
vn 0.992172 0.035225 -0.111546
vn 0.788650 -0.037182 -0.614481
vn 0.992172 0.035225 -0.111546
vn 0.749511 0.639922 -0.174168
vn 0.788650 -0.037182 -0.614481
vn 0.749511 0.639922 -0.174168
vn 0.326810 0.526419 -0.784736
vn 0.129159 -0.035225 0.990215
vn 0.812133 0.021526 0.583170
vn 0.610568 -0.528376 0.589041
vn 0.812133 0.021526 0.583170
vn 0.992172 0.035225 -0.111546
vn 0.610568 -0.528376 0.589041
vn 0.812133 0.021526 0.583170
vn 0.565558 0.590998 0.573386
vn 0.992172 0.035225 -0.111546
vn 0.565558 0.590998 0.573386
vn 0.749511 0.639922 -0.174168
vn 0.992172 0.035225 -0.111546
vn 0.129159 -0.035225 0.990215
vn 0.035225 0.162427 0.986301
vn 0.812133 0.021526 0.583170
vn 0.035225 0.162427 0.986301
vn 0.565558 0.590998 0.573386
vn 0.812133 0.021526 0.583170
vn 0.035225 0.162427 0.986301
vn 0.129159 -0.035225 0.990215
vn -0.035225 0.013699 1.000000
vn -0.058708 -0.142857 0.988258
vn -0.035225 0.013699 1.000000
vn 0.129159 -0.035225 0.990215
mtllib mtl_p_jun_fruit_apple.mtl
g mtl_p_jun_fruit_apple
usemtl mtl_p_jun_fruit_apple
f 3/3/3 2/2/2 1/1/1
f 6/6/6 5/5/5 4/4/4
f 9/9/9 8/8/8 7/7/7
f 12/12/12 11/11/11 10/10/10
f 15/15/15 14/14/14 13/13/13
f 18/18/18 17/17/17 16/16/16
f 21/21/21 20/20/20 19/19/19
f 24/24/24 23/23/23 22/22/22
f 27/27/27 26/26/26 25/25/25
f 30/30/30 29/29/29 28/28/28
f 33/33/33 32/32/32 31/31/31
f 36/36/36 35/35/35 34/34/34
f 39/39/39 38/38/38 37/37/37
f 42/42/42 41/41/41 40/40/40
f 45/45/45 44/44/44 43/43/43
f 48/48/48 47/47/47 46/46/46
f 51/51/51 50/50/50 49/49/49
f 54/54/54 53/53/53 52/52/52
f 57/57/57 56/56/56 55/55/55
f 60/60/60 59/59/59 58/58/58
f 63/63/63 62/62/62 61/61/61
f 66/66/66 65/65/65 64/64/64
f 69/69/69 68/68/68 67/67/67
f 72/72/72 71/71/71 70/70/70
f 75/75/75 74/74/74 73/73/73
f 78/78/78 77/77/77 76/76/76
f 81/81/81 80/80/80 79/79/79
f 84/84/84 83/83/83 82/82/82
f 87/87/87 86/86/86 85/85/85
f 90/90/90 89/89/89 88/88/88
f 93/93/93 92/92/92 91/91/91
f 96/96/96 95/95/95 94/94/94
f 99/99/99 98/98/98 97/97/97
f 102/102/102 101/101/101 100/100/100
f 105/105/105 104/104/104 103/103/103
f 108/108/108 107/107/107 106/106/106
f 111/111/111 110/110/110 109/109/109
f 114/114/114 113/113/113 112/112/112
f 117/117/117 116/116/116 115/115/115
f 120/120/120 119/119/119 118/118/118
f 123/123/123 122/122/122 121/121/121
f 126/126/126 125/125/125 124/124/124
f 129/129/129 128/128/128 127/127/127
f 132/132/132 131/131/131 130/130/130
f 135/135/135 134/134/134 133/133/133
f 138/138/138 137/137/137 136/136/136
f 141/141/141 140/140/140 139/139/139
f 144/144/144 143/143/143 142/142/142
f 147/147/147 146/146/146 145/145/145
f 150/150/150 149/149/149 148/148/148
f 153/153/153 152/152/152 151/151/151
f 156/156/156 155/155/155 154/154/154
f 159/159/159 158/158/158 157/157/157
f 162/162/162 161/161/161 160/160/160
