# Generated by Wraith - Game extraction tools
# Please credit DTZxPorter for using it!

v 5.265779 -12.942715 3.194936
v 0.632653 -11.373512 3.194936
v 5.289423 -9.462053 3.452160
v 0.632653 -11.373512 3.194936
v 0.674256 -8.371113 1.686852
v 5.289423 -9.462053 3.452160
v 5.311998 -6.139259 1.934296
v 5.289423 -9.462053 3.452160
v 0.674256 -8.371113 1.686852
v 0.713974 -5.504884 2.865130
v 5.311998 -6.139259 1.934296
v 0.674256 -8.371113 1.686852
v 5.311998 -6.139259 1.934296
v 0.713974 -5.504884 2.865130
v 5.345090 -1.268352 1.275090
v 0.713974 -5.504884 2.865130
v 0.772198 -1.303264 1.608973
v 5.345090 -1.268352 1.275090
v 0.772198 -1.303264 1.608973
v 0.829302 2.817586 3.154794
v 5.345090 -1.268352 1.275090
v 0.829302 2.817586 3.154794
v 5.377543 3.508919 1.063706
v 5.345090 -1.268352 1.275090
v 0.632653 -11.373512 3.194936
v -4.370862 -11.373512 3.194936
v 0.674256 -8.371113 1.686852
v -4.370862 -11.373512 3.194936
v -4.309865 -8.416943 1.190165
v 0.674256 -8.371113 1.686852
v -4.309865 -8.416943 1.190165
v -4.251632 -5.594467 3.533582
v 0.674256 -8.371113 1.686852
v -4.251632 -5.594467 3.533582
v 0.713974 -5.504884 2.865130
v 0.674256 -8.371113 1.686852
v 0.713974 -5.504884 2.865130
v -4.251632 -5.594467 3.533582
v -4.166268 -1.456982 1.876372
v 0.772198 -1.303264 1.608973
v 0.713974 -5.504884 2.865130
v -4.166268 -1.456982 1.876372
v -4.166268 -1.456982 1.876372
v -4.082544 2.600965 1.189342
v 0.772198 -1.303264 1.608973
v -4.082544 2.600965 1.189342
v 0.829302 2.817586 3.154794
v 0.772198 -1.303264 1.608973
v 0.829302 2.817586 3.154794
v -4.082544 2.600965 1.189342
v -4.000365 6.584058 1.767954
v 0.885353 6.862424 1.041621
v 0.829302 2.817586 3.154794
v -4.000365 6.584058 1.767954
v 5.377543 3.508919 1.063706
v 0.829302 2.817586 3.154794
v 0.885353 6.862424 1.041621
v 5.409400 8.198069 3.579437
v 5.377543 3.508919 1.063706
v 0.885353 6.862424 1.041621
v -4.309865 -8.416943 1.190165
v -4.370862 -11.373512 3.194936
v -8.042583 -8.451268 2.581239
v -8.042583 -8.451268 2.581239
v -7.970484 -5.661559 1.688836
v -4.309865 -8.416943 1.190165
v -7.970484 -5.661559 1.688836
v -4.251632 -5.594467 3.533582
v -4.309865 -8.416943 1.190165
v -4.251632 -5.594467 3.533582
v -7.970484 -5.661559 1.688836
v -7.864792 -1.572105 3.110829
v -4.166268 -1.456982 1.876372
v -4.251632 -5.594467 3.533582
v -7.864792 -1.572105 3.110829
v -7.864792 -1.572105 3.110829
v -7.761135 2.438730 3.530409
v -4.166268 -1.456982 1.876372
v -7.761135 2.438730 3.530409
v -4.082544 2.600965 1.189342
v -4.166268 -1.456982 1.876372
v -4.082544 2.600965 1.189342
v -7.761135 2.438730 3.530409
v -7.659388 6.375583 1.041771
v -4.000365 6.584058 1.767954
v -4.082544 2.600965 1.189342
v -7.659388 6.375583 1.041771
v -4.370862 -11.373512 3.194936
v -8.118107 -11.373512 3.194936
v -8.042583 -8.451268 2.581239
v -8.042583 -8.451268 2.581239
v -8.118107 -11.373512 3.194936
v -11.278098 -9.636204 3.333816
v -11.278098 -9.636204 3.333816
v -11.193977 -6.479660 2.149482
v -8.042583 -8.451268 2.581239
v -11.193977 -6.479660 2.149482
v -7.970484 -5.661559 1.688836
v -8.042583 -8.451268 2.581239
v -7.970484 -5.661559 1.688836
v -11.193977 -6.479660 2.149482
v -11.070668 -1.852460 1.363632
v -7.864792 -1.572105 3.110829
v -7.970484 -5.661559 1.688836
v -11.070668 -1.852460 1.363632
v -11.070668 -1.852460 1.363632
v -10.949731 2.685786 1.184811
v -7.864792 -1.572105 3.110829
v -10.949731 2.685786 1.184811
v -7.761135 2.438730 3.530409
v -7.864792 -1.572105 3.110829
v -7.761135 2.438730 3.530409
v -10.949731 2.685786 1.184811
v -7.659388 6.375583 1.041771
v -10.949731 2.685786 1.184811
v -10.831025 7.140318 2.742379
v -7.659388 6.375583 1.041771
v -7.659388 6.375583 1.041771
v -10.831025 7.140318 2.742379
v -7.566558 9.967389 3.327253
v -7.659388 6.375583 1.041771
v -7.566558 9.967389 3.327253
v -4.000365 6.584058 1.767954
v -8.118107 -11.373512 3.194936
v -11.366210 -12.942715 3.194936
v -11.278098 -9.636204 3.333816
v -10.831025 7.140318 2.742379
v -10.722718 11.204430 3.194936
v -7.566558 9.967389 3.327253
v -7.566558 9.967389 3.327253
v -3.925390 10.218049 3.579431
v -4.000365 6.584058 1.767954
v -4.000365 6.584058 1.767954
v -3.925390 10.218049 3.579431
v 0.885353 6.862424 1.041621
v -3.925390 10.218049 3.579431
v 0.936488 10.552747 3.194936
v 0.885353 6.862424 1.041621
v 0.885353 6.862424 1.041621
v 0.936488 10.552747 3.194936
v 5.409400 8.198069 3.579437
v 0.936488 10.552747 3.194936
v 5.438465 12.476231 3.194936
v 5.409400 8.198069 3.579437
vt 0.723633 0.008301
vt 0.521973 0.008301
vt 0.723633 0.143066
vt 0.521973 0.008301
vt 0.521973 0.143066
vt 0.723633 0.143066
vt 0.723633 0.271973
vt 0.723633 0.143066
vt 0.521973 0.143066
vt 0.521973 0.271973
vt 0.723633 0.271973
vt 0.521973 0.143066
vt 0.723633 0.271973
vt 0.521973 0.271973
vt 0.723633 0.459961
vt 0.521973 0.271973
vt 0.521973 0.459961
vt 0.723633 0.459961
vt 0.521973 0.459961
vt 0.521973 0.645020
vt 0.723633 0.459961
vt 0.521973 0.645020
vt 0.723633 0.645020
vt 0.723633 0.459961
vt 0.521973 0.008301
vt 0.304443 0.008301
vt 0.521973 0.143066
vt 0.304443 0.008301
vt 0.304443 0.143066
vt 0.521973 0.143066
vt 0.304443 0.143066
vt 0.304443 0.271973
vt 0.521973 0.143066
vt 0.304443 0.271973
vt 0.521973 0.271973
vt 0.521973 0.143066
vt 0.521973 0.271973
vt 0.304443 0.271973
vt 0.304443 0.459961
vt 0.521973 0.459961
vt 0.521973 0.271973
vt 0.304443 0.459961
vt 0.304443 0.459961
vt 0.304443 0.645020
vt 0.521973 0.459961
vt 0.304443 0.645020
vt 0.521973 0.645020
vt 0.521973 0.459961
vt 0.521973 0.645020
vt 0.304443 0.645020
vt 0.304443 0.826294
vt 0.521973 0.826294
vt 0.521973 0.645020
vt 0.304443 0.826294
vt 0.723633 0.645020
vt 0.521973 0.645020
vt 0.521973 0.826294
vt 0.723633 0.826294
vt 0.723633 0.645020
vt 0.521973 0.826294
vt 0.304443 0.143066
vt 0.304443 0.008301
vt 0.141357 0.143066
vt 0.141357 0.143066
vt 0.141357 0.271973
vt 0.304443 0.143066
vt 0.141357 0.271973
vt 0.304443 0.271973
vt 0.304443 0.143066
vt 0.304443 0.271973
vt 0.141357 0.271973
vt 0.141357 0.459961
vt 0.304443 0.459961
vt 0.304443 0.271973
vt 0.141357 0.459961
vt 0.141357 0.459961
vt 0.141357 0.645020
vt 0.304443 0.459961
vt 0.141357 0.645020
vt 0.304443 0.645020
vt 0.304443 0.459961
vt 0.304443 0.645020
vt 0.141357 0.645020
vt 0.141357 0.826294
vt 0.304443 0.826294
vt 0.304443 0.645020
vt 0.141357 0.826294
vt 0.304443 0.008301
vt 0.141357 0.008301
vt 0.141357 0.143066
vt 0.141357 0.143066
vt 0.141357 0.008301
vt 0.000000 0.143066
vt 0.000000 0.143066
vt 0.000000 0.271973
vt 0.141357 0.143066
vt 0.000000 0.271973
vt 0.141357 0.271973
vt 0.141357 0.143066
vt 0.141357 0.271973
vt 0.000000 0.271973
vt 0.000000 0.459961
vt 0.141357 0.459961
vt 0.141357 0.271973
vt 0.000000 0.459961
vt 0.000000 0.459961
vt 0.000000 0.645020
vt 0.141357 0.459961
vt 0.000000 0.645020
vt 0.141357 0.645020
vt 0.141357 0.459961
vt 0.141357 0.645020
vt 0.000000 0.645020
vt 0.141357 0.826294
vt 0.000000 0.645020
vt 0.000000 0.826294
vt 0.141357 0.826294
vt 0.141357 0.826294
vt 0.000000 0.826294
vt 0.141357 0.991753
vt 0.141357 0.826294
vt 0.141357 0.991753
vt 0.304443 0.826294
vt 0.141357 0.008301
vt 0.000000 0.008301
vt 0.000000 0.143066
vt 0.000000 0.826294
vt 0.000000 0.991753
vt 0.141357 0.991753
vt 0.141357 0.991753
vt 0.304443 0.991753
vt 0.304443 0.826294
vt 0.304443 0.826294
vt 0.304443 0.991753
vt 0.521973 0.826294
vt 0.304443 0.991753
vt 0.521973 0.991753
vt 0.521973 0.826294
vt 0.521973 0.826294
vt 0.521973 0.991753
vt 0.723633 0.826294
vt 0.521973 0.991753
vt 0.723633 0.991753
vt 0.723633 0.826294
vn -0.131115 0.189824 0.972603
vn -0.090020 0.354207 0.931507
vn -0.105675 0.123288 0.986301
vn -0.090020 0.354207 0.931507
vn -0.062622 0.060665 0.996086
vn -0.105675 0.123288 0.986301
vn 0.033268 0.131115 0.990215
vn -0.105675 0.123288 0.986301
vn -0.062622 0.060665 0.996086
vn 0.045010 0.015656 0.998043
vn 0.033268 0.131115 0.990215
vn -0.062622 0.060665 0.996086
vn 0.033268 0.131115 0.990215
vn 0.045010 0.015656 0.998043
vn 0.209393 0.029354 0.976517
vn 0.045010 0.015656 0.998043
vn 0.084149 0.074364 0.994129
vn 0.209393 0.029354 0.976517
vn 0.084149 0.074364 0.994129
vn -0.017613 -0.025440 1.000000
vn 0.209393 0.029354 0.976517
vn -0.017613 -0.025440 1.000000
vn 0.115460 -0.097847 0.988258
vn 0.209393 0.029354 0.976517
vn -0.090020 0.354207 0.931507
vn 0.060665 0.455969 0.888454
vn -0.062622 0.060665 0.996086
vn 0.060665 0.455969 0.888454
vn 0.023483 0.037182 1.000000
vn -0.062622 0.060665 0.996086
vn 0.023483 0.037182 1.000000
vn -0.009785 -0.109589 0.994129
vn -0.062622 0.060665 0.996086
vn -0.009785 -0.109589 0.994129
vn 0.045010 0.015656 0.998043
vn -0.062622 0.060665 0.996086
vn 0.045010 0.015656 0.998043
vn -0.009785 -0.109589 0.994129
vn 0.070450 0.072407 0.994129
vn 0.084149 0.074364 0.994129
vn 0.045010 0.015656 0.998043
vn 0.070450 0.072407 0.994129
vn 0.070450 0.072407 0.994129
vn 0.088063 0.086106 0.992172
vn 0.084149 0.074364 0.994129
vn 0.088063 0.086106 0.992172
vn -0.017613 -0.025440 1.000000
vn 0.084149 0.074364 0.994129
vn -0.017613 -0.025440 1.000000
vn 0.088063 0.086106 0.992172
vn 0.029354 -0.148728 0.988258
vn -0.060665 -0.140900 0.988258
vn -0.017613 -0.025440 1.000000
vn 0.029354 -0.148728 0.988258
vn 0.115460 -0.097847 0.988258
vn -0.017613 -0.025440 1.000000
vn -0.060665 -0.140900 0.988258
vn -0.117417 -0.129159 0.984344
vn 0.115460 -0.097847 0.988258
vn -0.060665 -0.140900 0.988258
vn 0.023483 0.037182 1.000000
vn 0.060665 0.455969 0.888454
vn 0.070450 0.142857 0.988258
vn 0.070450 0.142857 0.988258
vn -0.062622 0.011742 0.998043
vn 0.023483 0.037182 1.000000
vn -0.062622 0.011742 0.998043
vn -0.009785 -0.109589 0.994129
vn 0.023483 0.037182 1.000000
vn -0.009785 -0.109589 0.994129
vn -0.062622 0.011742 0.998043
vn -0.099804 -0.007828 0.994129
vn 0.070450 0.072407 0.994129
vn -0.009785 -0.109589 0.994129
vn -0.099804 -0.007828 0.994129
vn -0.099804 -0.007828 0.994129
vn 0.003914 0.093933 0.996086
vn 0.070450 0.072407 0.994129
vn 0.003914 0.093933 0.996086
vn 0.088063 0.086106 0.992172
vn 0.070450 0.072407 0.994129
vn 0.088063 0.086106 0.992172
vn 0.003914 0.093933 0.996086
vn 0.041096 -0.129159 0.990215
vn 0.029354 -0.148728 0.988258
vn 0.088063 0.086106 0.992172
vn 0.041096 -0.129159 0.990215
vn 0.060665 0.455969 0.888454
vn 0.127202 0.238748 0.962818
vn 0.070450 0.142857 0.988258
vn 0.070450 0.142857 0.988258
vn 0.127202 0.238748 0.962818
vn 0.080235 0.201566 0.976517
vn 0.080235 0.201566 0.976517
vn -0.056751 0.133072 0.990215
vn 0.070450 0.142857 0.988258
vn -0.056751 0.133072 0.990215
vn -0.062622 0.011742 0.998043
vn 0.070450 0.142857 0.988258
vn -0.062622 0.011742 0.998043
vn -0.056751 0.133072 0.990215
vn -0.367906 -0.039139 0.929550
vn -0.099804 -0.007828 0.994129
vn -0.062622 0.011742 0.998043
vn -0.367906 -0.039139 0.929550
vn -0.367906 -0.039139 0.929550
vn -0.320939 0.052838 0.945205
vn -0.099804 -0.007828 0.994129
vn -0.320939 0.052838 0.945205
vn 0.003914 0.093933 0.996086
vn -0.099804 -0.007828 0.994129
vn 0.003914 0.093933 0.996086
vn -0.320939 0.052838 0.945205
vn 0.041096 -0.129159 0.990215
vn -0.320939 0.052838 0.945205
vn 0.021526 -0.115460 0.992172
vn 0.041096 -0.129159 0.990215
vn 0.041096 -0.129159 0.990215
vn 0.021526 -0.115460 0.992172
vn 0.019569 -0.416830 0.908023
vn 0.041096 -0.129159 0.990215
vn 0.019569 -0.416830 0.908023
vn 0.029354 -0.148728 0.988258
vn 0.127202 0.238748 0.962818
vn 0.084149 0.074364 0.994129
vn 0.080235 0.201566 0.976517
vn 0.021526 -0.115460 0.992172
vn 0.125245 -0.336595 0.933464
vn 0.019569 -0.416830 0.908023
vn 0.019569 -0.416830 0.908023
vn 0.021526 -0.485323 0.874755
vn 0.029354 -0.148728 0.988258
vn 0.029354 -0.148728 0.988258
vn 0.021526 -0.485323 0.874755
vn -0.060665 -0.140900 0.988258
vn 0.021526 -0.485323 0.874755
vn -0.033268 -0.350294 0.935421
vn -0.060665 -0.140900 0.988258
vn -0.060665 -0.140900 0.988258
vn -0.033268 -0.350294 0.935421
vn -0.117417 -0.129159 0.984344
vn -0.033268 -0.350294 0.935421
vn -0.193738 -0.211350 0.958904
vn -0.117417 -0.129159 0.984344
mtllib mtl_fx_decal_burnt_paper.mtl
g mtl_fx_decal_burnt_paper
usemtl mtl_fx_decal_burnt_paper
f 3/3/3 2/2/2 1/1/1
f 6/6/6 5/5/5 4/4/4
f 9/9/9 8/8/8 7/7/7
f 12/12/12 11/11/11 10/10/10
f 15/15/15 14/14/14 13/13/13
f 18/18/18 17/17/17 16/16/16
f 21/21/21 20/20/20 19/19/19
f 24/24/24 23/23/23 22/22/22
f 27/27/27 26/26/26 25/25/25
f 30/30/30 29/29/29 28/28/28
f 33/33/33 32/32/32 31/31/31
f 36/36/36 35/35/35 34/34/34
f 39/39/39 38/38/38 37/37/37
f 42/42/42 41/41/41 40/40/40
f 45/45/45 44/44/44 43/43/43
f 48/48/48 47/47/47 46/46/46
f 51/51/51 50/50/50 49/49/49
f 54/54/54 53/53/53 52/52/52
f 57/57/57 56/56/56 55/55/55
f 60/60/60 59/59/59 58/58/58
f 63/63/63 62/62/62 61/61/61
f 66/66/66 65/65/65 64/64/64
f 69/69/69 68/68/68 67/67/67
f 72/72/72 71/71/71 70/70/70
f 75/75/75 74/74/74 73/73/73
f 78/78/78 77/77/77 76/76/76
f 81/81/81 80/80/80 79/79/79
f 84/84/84 83/83/83 82/82/82
f 87/87/87 86/86/86 85/85/85
f 90/90/90 89/89/89 88/88/88
f 93/93/93 92/92/92 91/91/91
f 96/96/96 95/95/95 94/94/94
f 99/99/99 98/98/98 97/97/97
f 102/102/102 101/101/101 100/100/100
f 105/105/105 104/104/104 103/103/103
f 108/108/108 107/107/107 106/106/106
f 111/111/111 110/110/110 109/109/109
f 114/114/114 113/113/113 112/112/112
f 117/117/117 116/116/116 115/115/115
f 120/120/120 119/119/119 118/118/118
f 123/123/123 122/122/122 121/121/121
f 126/126/126 125/125/125 124/124/124
f 129/129/129 128/128/128 127/127/127
f 132/132/132 131/131/131 130/130/130
f 135/135/135 134/134/134 133/133/133
f 138/138/138 137/137/137 136/136/136
f 141/141/141 140/140/140 139/139/139
f 144/144/144 143/143/143 142/142/142
