# Generated by Wraith - Game extraction tools
# Please credit DTZxPorter for using it!

v 0.015692 -1.841241 0.054188
v -0.079974 -2.574816 -0.212971
v -0.253964 -2.574816 0.035484
v 0.095448 -2.574816 0.283931
v 0.261986 -2.574816 0.089972
v 0.015692 -1.841241 0.054188
v -0.057762 -1.605318 -0.408053
v -0.430974 -1.605318 -0.030025
v -0.078042 -2.038441 -0.216337
v -0.430974 -1.605318 -0.030025
v -0.257800 -2.038441 0.025786
v -0.078042 -2.038441 -0.216337
v -0.257800 -2.038441 0.025786
v -0.079974 -2.574816 -0.212971
v -0.078042 -2.038441 -0.216337
v -0.257800 -2.038441 0.025786
v -0.253964 -2.574816 0.035484
v -0.079974 -2.574816 -0.212971
v 0.139987 1.824660 -0.430850
v 0.366486 1.824657 -0.266301
v -0.139982 1.824660 -0.430850
v -0.139982 1.824660 -0.430850
v 0.366486 1.824657 -0.266301
v -0.366481 1.824660 -0.266301
v -0.366481 1.824660 -0.266301
v 0.366486 1.824657 -0.266301
v -0.452996 1.824660 -0.000025
v -0.452996 1.824660 -0.000025
v 0.366486 1.824657 -0.266301
v -0.366481 1.824660 0.266263
v -0.366481 1.824660 0.266263
v 0.366486 1.824657 -0.266301
v -0.139982 1.824660 0.430807
v -0.139982 1.824660 0.430807
v 0.366486 1.824657 -0.266301
v 0.139987 1.824660 0.430807
v 0.139987 1.824660 0.430807
v 0.366486 1.824657 -0.266301
v 0.366486 1.824660 0.266243
v 0.366486 1.824660 0.266243
v 0.366486 1.824657 -0.266301
v 0.453001 1.824660 -0.000025
v -0.117071 -2.038441 0.276987
v -0.117229 -2.574816 0.269959
v -0.253964 -2.574816 0.035484
v -0.257800 -2.038441 0.025786
v -0.117071 -2.038441 0.276987
v -0.253964 -2.574816 0.035484
v -0.117071 -2.038441 0.276987
v -0.257800 -2.038441 0.025786
v -0.369700 -1.605318 0.272316
v -0.369700 -1.605318 0.272316
v -0.139982 -1.605318 0.430807
v -0.117071 -2.038441 0.276987
v -0.117071 -2.038441 0.276987
v -0.139982 -1.605318 0.430807
v 0.100424 -2.038441 0.290954
v -0.117229 -2.574816 0.269959
v -0.117071 -2.038441 0.276987
v 0.100424 -2.038441 0.290954
v 0.095448 -2.574816 0.283931
v -0.117229 -2.574816 0.269959
v 0.100424 -2.038441 0.290954
v 0.100424 -2.038441 0.290954
v 0.261986 -2.574816 0.089972
v 0.095448 -2.574816 0.283931
v 0.268971 -2.038441 0.089583
v 0.261986 -2.574816 0.089972
v 0.100424 -2.038441 0.290954
v -0.430974 -1.605318 -0.030025
v -0.369700 -1.605318 0.272316
v -0.257800 -2.038441 0.025786
v -0.430974 -1.605318 -0.030025
v -0.452996 1.824660 -0.000025
v -0.369700 -1.605318 0.272316
v -0.366481 1.824660 0.266263
v -0.369700 -1.605318 0.272316
v -0.452996 1.824660 -0.000025
v -0.366481 1.824660 0.266263
v -0.139982 -1.605318 0.430807
v -0.369700 -1.605318 0.272316
v -0.366481 1.824660 0.266263
v -0.139982 1.824660 0.430807
v -0.139982 -1.605318 0.430807
v -0.139982 -1.605318 0.430807
v -0.139982 1.824660 0.430807
v 0.139987 -1.605318 0.430807
v 0.139987 -1.605318 0.430807
v 0.100424 -2.038441 0.290954
v -0.139982 -1.605318 0.430807
v 0.139987 -1.605318 0.430807
v 0.370810 -1.605318 0.271805
v 0.100424 -2.038441 0.290954
v 0.100424 -2.038441 0.290954
v 0.370810 -1.605318 0.271805
v 0.268971 -2.038441 0.089583
v 0.370810 -1.605318 0.271805
v 0.453001 -1.605318 -0.000025
v 0.268971 -2.038441 0.089583
v 0.453001 -1.605318 -0.000025
v 0.171872 -2.038441 -0.160393
v 0.268971 -2.038441 0.089583
v 0.171872 -2.038441 -0.160393
v 0.174584 -2.574816 -0.159128
v 0.268971 -2.038441 0.089583
v 0.268971 -2.038441 0.089583
v 0.174584 -2.574816 -0.159128
v 0.261986 -2.574816 0.089972
v 0.139987 -1.605318 0.430807
v -0.139982 1.824660 0.430807
v 0.139987 1.824660 0.430807
v 0.366486 1.824660 0.266243
v 0.139987 -1.605318 0.430807
v 0.139987 1.824660 0.430807
v 0.366486 1.824660 0.266243
v 0.370810 -1.605318 0.271805
v 0.139987 -1.605318 0.430807
v 0.366486 1.824660 0.266243
v 0.453001 1.824660 -0.000025
v 0.370810 -1.605318 0.271805
v 0.453001 -1.605318 -0.000025
v 0.370810 -1.605318 0.271805
v 0.453001 1.824660 -0.000025
v 0.366486 1.824657 -0.266301
v 0.453001 -1.605318 -0.000025
v 0.453001 1.824660 -0.000025
v 0.254826 -1.605318 -0.263014
v 0.453001 -1.605318 -0.000025
v 0.366486 1.824657 -0.266301
v 0.254826 -1.605318 -0.263014
v 0.171872 -2.038441 -0.160393
v 0.453001 -1.605318 -0.000025
v 0.254826 -1.605318 -0.263014
v -0.078042 -2.038441 -0.216337
v 0.171872 -2.038441 -0.160393
v -0.078042 -2.038441 -0.216337
v 0.174584 -2.574816 -0.159128
v 0.171872 -2.038441 -0.160393
v -0.079974 -2.574816 -0.212971
v 0.174584 -2.574816 -0.159128
v -0.078042 -2.038441 -0.216337
v 0.139987 1.824660 -0.430850
v 0.254826 -1.605318 -0.263014
v 0.366486 1.824657 -0.266301
v -0.057762 -1.605318 -0.408053
v 0.254826 -1.605318 -0.263014
v 0.139987 1.824660 -0.430850
v -0.057762 -1.605318 -0.408053
v -0.078042 -2.038441 -0.216337
v 0.254826 -1.605318 -0.263014
v -0.139982 1.824660 -0.430850
v -0.057762 -1.605318 -0.408053
v 0.139987 1.824660 -0.430850
v -0.139982 1.824660 -0.430850
v -0.366481 1.824660 -0.266301
v -0.057762 -1.605318 -0.408053
v -0.430974 -1.605318 -0.030025
v -0.057762 -1.605318 -0.408053
v -0.366481 1.824660 -0.266301
v -0.366481 1.824660 -0.266301
v -0.452996 1.824660 -0.000025
v -0.430974 -1.605318 -0.030025
v 0.261986 -2.574816 0.089972
v 0.174584 -2.574816 -0.159128
v 0.015692 -1.841241 0.054188
v 0.015692 -1.841241 0.054188
v 0.174584 -2.574816 -0.159128
v -0.079974 -2.574816 -0.212971
v -0.117229 -2.574816 0.269959
v 0.015692 -1.841241 0.054188
v -0.253964 -2.574816 0.035484
v -0.117229 -2.574816 0.269959
v 0.095448 -2.574816 0.283931
v 0.015692 -1.841241 0.054188
vt 0.168457 0.660889
vt 0.150146 0.483398
vt 0.120728 0.647705
vt 0.179810 0.812012
vt 0.208008 0.683594
vt 0.168457 0.660889
vt -0.381348 -1.904297
vt -0.381348 -1.208984
vt -0.308594 -1.871094
vt -0.381348 -1.208984
vt -0.308594 -1.095703
vt -0.308594 -1.871094
vt -0.308594 -1.095703
vt -0.207886 -1.792969
vt -0.308594 -1.871094
vt -0.308594 -1.095703
vt -0.207886 -1.105469
vt -0.207886 -1.792969
vt -0.059937 0.292969
vt -0.017044 0.428223
vt -0.112915 0.292969
vt -0.112915 0.292969
vt -0.017044 0.428223
vt -0.155762 0.428223
vt -0.155762 0.428223
vt -0.017044 0.428223
vt -0.172241 0.646484
vt -0.172241 0.646484
vt -0.017044 0.428223
vt -0.155762 0.865234
vt -0.155762 0.865234
vt -0.017044 0.428223
vt -0.112915 0.990059
vt -0.112915 0.990059
vt -0.017044 0.428223
vt -0.059937 0.990059
vt -0.059937 0.990059
vt -0.017044 0.428223
vt -0.018311 0.860107
vt -0.018311 0.860107
vt -0.017044 0.428223
vt -0.002575 0.646484
vt -0.308594 -0.515625
vt -0.207886 -0.512695
vt -0.207886 -1.105469
vt -0.308594 -1.095703
vt -0.308594 -0.515625
vt -0.207886 -1.105469
vt -0.308594 -0.515625
vt -0.308594 -1.095703
vt -0.381348 -0.850586
vt -0.381348 -0.850586
vt -0.381348 -0.532227
vt -0.308594 -0.515625
vt -0.308594 -0.515625
vt -0.381348 -0.532227
vt -0.308594 -0.226563
vt -0.207886 -0.512695
vt -0.308594 -0.515625
vt -0.308594 -0.226563
vt -0.207886 -0.229492
vt -0.207886 -0.512695
vt -0.308594 -0.226563
vt -0.308594 -0.226563
vt -0.207886 0.360840
vt -0.207886 -0.229492
vt -0.308594 0.362793
vt -0.207886 0.360840
vt -0.308594 -0.226563
vt -0.381348 -1.208984
vt -0.381348 -0.850586
vt -0.308594 -1.095703
vt -0.381348 -1.208984
vt -0.999512 -1.173828
vt -0.381348 -0.850586
vt -0.999512 -0.853516
vt -0.381348 -0.850586
vt -0.999512 -1.173828
vt -0.999512 -0.853516
vt -0.381348 -0.532227
vt -0.381348 -0.850586
vt -0.999512 -0.853516
vt -0.999512 -0.532227
vt -0.381348 -0.532227
vt -0.381348 -0.532227
vt -0.999512 -0.532227
vt -0.381348 -0.211914
vt -0.381348 -0.211914
vt -0.308594 -0.226563
vt -0.381348 -0.532227
vt -0.381348 -0.211914
vt -0.381348 0.106445
vt -0.308594 -0.226563
vt -0.308594 -0.226563
vt -0.381348 0.106445
vt -0.308594 0.362793
vt -0.381348 0.106445
vt -0.381348 0.429688
vt -0.308594 0.362793
vt -0.381348 0.429688
vt -0.308594 0.744873
vt -0.308594 0.362793
vt -0.308594 0.744873
vt -0.207886 0.688721
vt -0.308594 0.362793
vt -0.308594 0.362793
vt -0.207886 0.688721
vt -0.207886 0.360840
vt -0.381348 -0.211914
vt -0.999512 -0.532227
vt -0.999512 -0.211914
vt -0.999512 0.108887
vt -0.381348 -0.211914
vt -0.999512 -0.211914
vt -0.999512 0.108887
vt -0.381348 0.106445
vt -0.381348 -0.211914
vt -0.999512 0.108887
vt -0.999512 0.429688
vt -0.381348 0.106445
vt -0.381348 0.429688
vt -0.381348 0.106445
vt -0.999512 0.429688
vt -0.999512 0.750244
vt -0.381348 0.429688
vt -0.999512 0.429688
vt -0.381348 0.838501
vt -0.381348 0.429688
vt -0.999512 0.750244
vt -0.381348 0.838501
vt -0.308594 0.744873
vt -0.381348 0.429688
vt -0.381348 0.838501
vt -0.308594 1.336426
vt -0.308594 0.744873
vt -0.308594 1.336426
vt -0.207886 0.688721
vt -0.308594 0.744873
vt -0.207886 1.414795
vt -0.207886 0.688721
vt -0.308594 1.336426
vt -0.999512 1.070923
vt -0.381348 0.838501
vt -0.999512 0.750244
vt -0.381348 1.302979
vt -0.381348 0.838501
vt -0.999512 1.070923
vt -0.381348 1.302979
vt -0.308594 1.336426
vt -0.381348 0.838501
vt -0.999512 1.391602
vt -0.381348 1.302979
vt -0.999512 1.070923
vt -0.999512 1.391602
vt -0.999512 1.712402
vt -0.381348 1.302979
vt -0.381348 1.997559
vt -0.381348 1.302979
vt -0.999512 1.712402
vt -0.999512 1.712402
vt -0.999512 2.033203
vt -0.381348 1.997559
vt 0.208008 0.683594
vt 0.193237 0.518799
vt 0.168457 0.660889
vt 0.168457 0.660889
vt 0.193237 0.518799
vt 0.150146 0.483398
vt 0.143799 0.802856
vt 0.168457 0.660889
vt 0.120728 0.647705
vt 0.143799 0.802856
vt 0.179810 0.812012
vt 0.168457 0.660889
vn -0.090020 -0.984344 -0.150685
vn 0.344423 -0.360078 0.866928
vn 0.937378 -0.346380 0.037182
vn -0.369863 -0.313112 -0.874755
vn -0.929550 -0.320939 -0.176125
vn -0.090020 -0.984344 -0.150685
vn -0.133072 -0.166341 -0.976517
vn -0.951076 -0.168297 -0.256360
vn -0.767123 -0.154599 -0.622309
vn -0.951076 -0.168297 -0.256360
vn -0.786693 -0.107632 -0.608611
vn -0.767123 -0.154599 -0.622309
vn -0.786693 -0.107632 -0.608611
vn -0.810176 -0.007828 -0.585127
vn -0.767123 -0.154599 -0.622309
vn -0.786693 -0.107632 -0.608611
vn -0.819961 -0.015656 -0.573386
vn -0.810176 -0.007828 -0.585127
vn 0.000000 1.000000 0.000000
vn 0.000000 1.000000 0.000000
vn 0.000000 1.000000 0.000000
vn 0.000000 1.000000 0.000000
vn 0.000000 1.000000 0.000000
vn 0.000000 1.000000 0.000000
vn 0.000000 1.000000 0.000000
vn 0.000000 1.000000 0.000000
vn 0.000000 1.000000 0.000000
vn 0.000000 1.000000 0.000000
vn 0.000000 1.000000 0.000000
vn 0.000000 1.000000 0.000000
vn 0.000000 1.000000 0.000000
vn 0.000000 1.000000 0.000000
vn 0.000000 1.000000 0.000000
vn 0.000000 1.000000 0.000000
vn 0.000000 1.000000 0.000000
vn 0.000000 1.000000 0.000000
vn 0.000000 1.000000 0.000000
vn 0.000000 1.000000 0.000000
vn 0.000000 1.000000 0.000000
vn 0.000000 1.000000 0.000000
vn 0.000000 1.000000 0.000000
vn 0.000000 1.000000 0.000000
vn -0.612524 -0.197652 0.765166
vn -0.863014 -0.005871 0.502935
vn -0.868885 -0.001957 0.497065
vn -0.888454 -0.203523 0.412916
vn -0.612524 -0.197652 0.765166
vn -0.868885 -0.001957 0.497065
vn -0.612524 -0.197652 0.765166
vn -0.888454 -0.203523 0.412916
vn -0.788650 -0.189824 0.583170
vn -0.788650 -0.189824 0.583170
vn -0.363992 -0.131115 0.921722
vn -0.612524 -0.197652 0.765166
vn -0.612524 -0.197652 0.765166
vn -0.363992 -0.131115 0.921722
vn 0.520548 -0.191781 0.831703
vn -0.064579 -0.013699 0.998043
vn -0.612524 -0.197652 0.765166
vn 0.520548 -0.191781 0.831703
vn 0.387476 -0.015656 0.921722
vn -0.064579 -0.013699 0.998043
vn 0.520548 -0.191781 0.831703
vn 0.520548 -0.191781 0.831703
vn 0.763209 -0.011742 0.645793
vn 0.387476 -0.015656 0.921722
vn 0.972603 -0.215264 0.076321
vn 0.763209 -0.011742 0.645793
vn 0.520548 -0.191781 0.831703
vn -0.951076 -0.168297 -0.256360
vn -0.788650 -0.189824 0.583170
vn -0.888454 -0.203523 0.412916
vn -0.951076 -0.168297 -0.256360
vn -1.000000 -0.003914 -0.029354
vn -0.788650 -0.189824 0.583170
vn -0.747554 0.000000 0.663405
vn -0.788650 -0.189824 0.583170
vn -1.000000 -0.003914 -0.029354
vn -0.747554 0.000000 0.663405
vn -0.363992 -0.131115 0.921722
vn -0.788650 -0.189824 0.583170
vn -0.747554 0.000000 0.663405
vn -0.309198 0.000000 0.951076
vn -0.363992 -0.131115 0.921722
vn -0.363992 -0.131115 0.921722
vn -0.309198 0.000000 0.951076
vn 0.354207 -0.131115 0.925636
vn 0.354207 -0.131115 0.925636
vn 0.520548 -0.191781 0.831703
vn -0.363992 -0.131115 0.921722
vn 0.354207 -0.131115 0.925636
vn 0.763209 -0.178082 0.620352
vn 0.520548 -0.191781 0.831703
vn 0.520548 -0.191781 0.831703
vn 0.763209 -0.178082 0.620352
vn 0.972603 -0.215264 0.076321
vn 0.763209 -0.178082 0.620352
vn 0.976517 -0.207436 -0.058708
vn 0.972603 -0.215264 0.076321
vn 0.976517 -0.207436 -0.058708
vn 0.636008 -0.193738 -0.747554
vn 0.972603 -0.215264 0.076321
vn 0.636008 -0.193738 -0.747554
vn 0.937378 -0.003914 -0.346380
vn 0.972603 -0.215264 0.076321
vn 0.972603 -0.215264 0.076321
vn 0.937378 -0.003914 -0.346380
vn 0.937378 -0.003914 -0.346380
vn 0.354207 -0.131115 0.925636
vn -0.309198 0.000000 0.951076
vn 0.309198 0.000000 0.951076
vn 0.737769 0.001957 0.675147
vn 0.354207 -0.131115 0.925636
vn 0.309198 0.000000 0.951076
vn 0.737769 0.001957 0.675147
vn 0.763209 -0.178082 0.620352
vn 0.354207 -0.131115 0.925636
vn 0.737769 0.001957 0.675147
vn 0.996086 -0.007828 -0.093933
vn 0.763209 -0.178082 0.620352
vn 0.976517 -0.207436 -0.058708
vn 0.763209 -0.178082 0.620352
vn 0.996086 -0.007828 -0.093933
vn 0.716243 -0.021526 -0.696673
vn 0.976517 -0.207436 -0.058708
vn 0.996086 -0.007828 -0.093933
vn 0.669276 -0.193738 -0.718200
vn 0.976517 -0.207436 -0.058708
vn 0.716243 -0.021526 -0.696673
vn 0.669276 -0.193738 -0.718200
vn 0.636008 -0.193738 -0.747554
vn 0.976517 -0.207436 -0.058708
vn 0.669276 -0.193738 -0.718200
vn 0.268102 -0.174168 -0.947162
vn 0.636008 -0.193738 -0.747554
vn 0.268102 -0.174168 -0.947162
vn 0.213307 -0.003914 -0.976517
vn 0.636008 -0.193738 -0.747554
vn 0.213307 -0.003914 -0.976517
vn 0.213307 -0.003914 -0.976517
vn 0.268102 -0.174168 -0.947162
vn 0.258317 -0.017613 -0.966732
vn 0.669276 -0.193738 -0.718200
vn 0.716243 -0.021526 -0.696673
vn -0.133072 -0.166341 -0.976517
vn 0.669276 -0.193738 -0.718200
vn 0.258317 -0.017613 -0.966732
vn -0.133072 -0.166341 -0.976517
vn 0.268102 -0.174168 -0.947162
vn 0.669276 -0.193738 -0.718200
vn -0.360078 -0.019569 -0.933464
vn -0.133072 -0.166341 -0.976517
vn 0.258317 -0.017613 -0.966732
vn -0.360078 -0.019569 -0.933464
vn -0.839530 -0.017613 -0.544031
vn -0.133072 -0.166341 -0.976517
vn -0.951076 -0.168297 -0.256360
vn -0.133072 -0.166341 -0.976517
vn -0.839530 -0.017613 -0.544031
vn -0.839530 -0.017613 -0.544031
vn -1.000000 -0.003914 -0.029354
vn -0.951076 -0.168297 -0.256360
vn -0.929550 -0.320939 -0.176125
vn -0.622309 -0.340509 0.704501
vn -0.090020 -0.984344 -0.150685
vn -0.090020 -0.984344 -0.150685
vn -0.622309 -0.340509 0.704501
vn 0.344423 -0.360078 0.866928
vn 0.497065 -0.326810 -0.804305
vn -0.090020 -0.984344 -0.150685
vn 0.937378 -0.346380 0.037182
vn 0.497065 -0.326810 -0.804305
vn -0.369863 -0.313112 -0.874755
vn -0.090020 -0.984344 -0.150685
mtllib mtl_fx_shell_alpha.mtl
g mtl_fx_shell_alpha
usemtl mtl_fx_shell_alpha
f 3/3/3 2/2/2 1/1/1
f 6/6/6 5/5/5 4/4/4
f 9/9/9 8/8/8 7/7/7
f 12/12/12 11/11/11 10/10/10
f 15/15/15 14/14/14 13/13/13
f 18/18/18 17/17/17 16/16/16
f 21/21/21 20/20/20 19/19/19
f 24/24/24 23/23/23 22/22/22
f 27/27/27 26/26/26 25/25/25
f 30/30/30 29/29/29 28/28/28
f 33/33/33 32/32/32 31/31/31
f 36/36/36 35/35/35 34/34/34
f 39/39/39 38/38/38 37/37/37
f 42/42/42 41/41/41 40/40/40
f 45/45/45 44/44/44 43/43/43
f 48/48/48 47/47/47 46/46/46
f 51/51/51 50/50/50 49/49/49
f 54/54/54 53/53/53 52/52/52
f 57/57/57 56/56/56 55/55/55
f 60/60/60 59/59/59 58/58/58
f 63/63/63 62/62/62 61/61/61
f 66/66/66 65/65/65 64/64/64
f 69/69/69 68/68/68 67/67/67
f 72/72/72 71/71/71 70/70/70
f 75/75/75 74/74/74 73/73/73
f 78/78/78 77/77/77 76/76/76
f 81/81/81 80/80/80 79/79/79
f 84/84/84 83/83/83 82/82/82
f 87/87/87 86/86/86 85/85/85
f 90/90/90 89/89/89 88/88/88
f 93/93/93 92/92/92 91/91/91
f 96/96/96 95/95/95 94/94/94
f 99/99/99 98/98/98 97/97/97
f 102/102/102 101/101/101 100/100/100
f 105/105/105 104/104/104 103/103/103
f 108/108/108 107/107/107 106/106/106
f 111/111/111 110/110/110 109/109/109
f 114/114/114 113/113/113 112/112/112
f 117/117/117 116/116/116 115/115/115
f 120/120/120 119/119/119 118/118/118
f 123/123/123 122/122/122 121/121/121
f 126/126/126 125/125/125 124/124/124
f 129/129/129 128/128/128 127/127/127
f 132/132/132 131/131/131 130/130/130
f 135/135/135 134/134/134 133/133/133
f 138/138/138 137/137/137 136/136/136
f 141/141/141 140/140/140 139/139/139
f 144/144/144 143/143/143 142/142/142
f 147/147/147 146/146/146 145/145/145
f 150/150/150 149/149/149 148/148/148
f 153/153/153 152/152/152 151/151/151
f 156/156/156 155/155/155 154/154/154
f 159/159/159 158/158/158 157/157/157
f 162/162/162 161/161/161 160/160/160
f 165/165/165 164/164/164 163/163/163
f 168/168/168 167/167/167 166/166/166
f 171/171/171 170/170/170 169/169/169
f 174/174/174 173/173/173 172/172/172
