# Generated by Wraith - Game extraction tools
# Please credit DTZxPorter for using it!

v 0.182791 -1.916179 -11.785849
v -2.143445 -1.690846 15.474516
v 2.288408 -0.168258 6.133432
v -6.904497 1.916177 21.659445
v -2.143445 -1.690846 15.474516
v -7.189645 -1.202049 17.630901
v 4.417182 0.819502 17.768158
v -2.143445 -1.690846 15.474516
v 4.538743 0.807727 21.844437
v 4.538743 0.807727 21.844437
v -2.143445 -1.690846 15.474516
v -2.790398 1.517664 19.766512
v 7.189645 0.550947 10.929421
v -2.143445 -1.690846 15.474516
v 4.417182 0.819502 17.768158
v 7.189645 0.550947 10.929421
v 2.288408 -0.168258 6.133432
v -2.143445 -1.690846 15.474516
v -2.790398 1.517664 19.766512
v -2.143445 -1.690846 15.474516
v -6.904497 1.916177 21.659445
v 7.189645 0.550947 10.929421
v 5.750453 0.690355 -27.805683
v 3.324113 0.925382 -18.885809
v 2.288408 -0.168258 6.133432
v 3.324113 0.925382 -18.885809
v 0.182791 -1.916179 -11.785849
v 7.189645 0.550947 10.929421
v 3.324113 0.925382 -18.885809
v 2.288408 -0.168258 6.133432
v 5.750453 0.690355 -27.805683
v 7.189645 0.550947 10.929421
v 3.324113 0.925382 -18.885809
v 3.324113 0.925382 -18.885809
v 7.189645 0.550947 10.929421
v 4.417182 0.819502 17.768158
v -7.166279 -1.204311 -18.217388
v -7.189645 -1.202049 17.630901
v 0.182791 -1.916179 -11.785849
v 0.182791 -1.916179 -11.785849
v -7.189645 -1.202049 17.630901
v -2.143445 -1.690846 15.474516
v -6.904497 1.916177 21.659445
v -6.899908 1.915731 -22.332237
v -2.790398 1.517664 19.766512
v -6.899908 1.915731 -22.332237
v 3.324113 0.925382 -18.885809
v -2.790398 1.517664 19.766512
v -2.790398 1.517664 19.766512
v 3.324113 0.925382 -18.885809
v 4.417182 0.819502 17.768158
v 4.538743 0.807727 21.844437
v -2.790398 1.517664 19.766512
v 4.417182 0.819502 17.768158
v -6.904497 1.916177 21.659445
v -7.189645 -1.202049 17.630901
v -6.899908 1.915731 -22.332237
v -7.166279 -1.204311 -18.217388
v -6.899908 1.915731 -22.332237
v -7.189645 -1.202049 17.630901
v 0.182791 -1.916179 -11.785849
v 3.324113 0.925382 -18.885809
v -7.166279 -1.204311 -18.217388
v -7.166279 -1.204311 -18.217388
v 3.324113 0.925382 -18.885809
v -6.899908 1.915731 -22.332237
vt 0.828125 0.316895
vt 0.779297 0.881104
vt 0.867676 0.686035
vt 0.680176 0.988098
vt 0.779297 0.881104
vt 0.674805 0.922485
vt 0.908203 0.918152
vt 0.779297 0.881104
vt 0.910156 1.000000
vt 0.910156 1.000000
vt 0.779297 0.881104
vt 0.761719 0.953491
vt 0.965332 0.781982
vt 0.779297 0.881104
vt 0.908203 0.918152
vt 0.965332 0.781982
vt 0.867676 0.686035
vt 0.779297 0.881104
vt 0.761719 0.953491
vt 0.779297 0.881104
vt 0.680176 0.988098
vt 0.965332 0.781982
vt 0.936035 0.000000
vt 0.886230 0.182129
vt 0.867676 0.686035
vt 0.886230 0.182129
vt 0.828125 0.316895
vt 0.965332 0.781982
vt 0.886230 0.182129
vt 0.867676 0.686035
vt 0.581543 0.000000
vt 0.550293 0.854126
vt 0.635254 0.200684
vt 0.635254 0.200684
vt 0.550293 0.854126
vt 0.610840 1.000000
vt 0.327148 0.107910
vt 0.333496 0.888489
vt 0.492920 0.255371
vt 0.492920 0.255371
vt 0.333496 0.888489
vt 0.440674 0.845459
vt 0.250000 0.992725
vt 0.259033 0.000000
vt 0.160522 0.954407
vt 0.259033 0.000000
vt 0.017502 0.083008
vt 0.160522 0.954407
vt 0.160522 0.954407
vt 0.017502 0.083008
vt 0.001637 0.914307
vt 0.000000 1.000000
vt 0.160522 0.954407
vt 0.001637 0.914307
vt 0.256836 1.000000
vt 0.329346 0.905884
vt 0.255127 0.000000
vt 0.325195 0.087402
vt 0.255127 0.000000
vt 0.329346 0.905884
vt 0.828125 0.316895
vt 0.886230 0.182129
vt 0.675293 0.187500
vt 0.675293 0.187500
vt 0.886230 0.182129
vt 0.680664 0.120117
vn 0.403131 -0.913894 0.041096
vn 0.403131 -0.913894 0.041096
vn 0.403131 -0.913894 0.041096
vn 0.178082 -0.784736 0.594912
vn 0.178082 -0.784736 0.594912
vn 0.178082 -0.784736 0.594912
vn 0.362035 -0.931507 -0.013699
vn 0.362035 -0.931507 -0.013699
vn 0.362035 -0.931507 -0.013699
vn -0.234834 -0.794521 0.559687
vn -0.234834 -0.794521 0.559687
vn -0.234834 -0.794521 0.559687
vn 0.303327 -0.939335 0.160470
vn 0.303327 -0.939335 0.160470
vn 0.303327 -0.939335 0.160470
vn 0.203523 -0.976517 -0.062622
vn 0.203523 -0.976517 -0.062622
vn 0.203523 -0.976517 -0.062622
vn 0.203523 -0.769080 0.606654
vn 0.203523 -0.769080 0.606654
vn 0.203523 -0.769080 0.606654
vn -0.095890 -0.996086 0.000000
vn -0.095890 -0.996086 0.000000
vn -0.095890 -0.996086 0.000000
vn 0.663405 -0.747554 -0.005871
vn 0.663405 -0.747554 -0.005871
vn 0.663405 -0.747554 -0.005871
vn 0.180039 -0.982387 -0.035225
vn 0.180039 -0.982387 -0.035225
vn 0.180039 -0.982387 -0.035225
vn 0.095890 0.996086 0.000000
vn 0.095890 0.996086 0.000000
vn 0.095890 0.996086 0.000000
vn 0.095890 0.996086 0.000000
vn 0.095890 0.996086 0.000000
vn 0.095890 0.996086 0.000000
vn -0.095890 -0.996086 0.000000
vn -0.095890 -0.996086 0.000000
vn -0.095890 -0.996086 0.000000
vn -0.095890 -0.996086 0.000000
vn -0.095890 -0.996086 0.000000
vn -0.095890 -0.996086 0.000000
vn 0.095890 0.996086 0.000000
vn 0.095890 0.996086 0.000000
vn 0.095890 0.996086 0.000000
vn 0.095890 0.996086 0.000000
vn 0.095890 0.996086 0.000000
vn 0.095890 0.996086 0.000000
vn 0.095890 0.996086 0.000000
vn 0.095890 0.996086 0.000000
vn 0.095890 0.996086 0.000000
vn 0.095890 0.996086 0.000000
vn 0.095890 0.996086 0.000000
vn 0.095890 0.996086 0.000000
vn -0.996086 0.088063 0.000000
vn -0.996086 0.088063 0.000000
vn -0.996086 0.088063 0.000000
vn -0.996086 0.088063 0.000000
vn -0.996086 0.088063 0.000000
vn -0.996086 0.088063 0.000000
vn 0.154599 -0.890411 -0.426614
vn 0.154599 -0.890411 -0.426614
vn 0.154599 -0.890411 -0.426614
vn 0.154599 -0.890411 -0.426614
vn 0.154599 -0.890411 -0.426614
vn 0.154599 -0.890411 -0.426614
mtllib mtl_fx_wood_splinter.mtl
g mtl_fx_wood_splinter
usemtl mtl_fx_wood_splinter
f 3/3/3 2/2/2 1/1/1
f 6/6/6 5/5/5 4/4/4
f 9/9/9 8/8/8 7/7/7
f 12/12/12 11/11/11 10/10/10
f 15/15/15 14/14/14 13/13/13
f 18/18/18 17/17/17 16/16/16
f 21/21/21 20/20/20 19/19/19
f 24/24/24 23/23/23 22/22/22
f 27/27/27 26/26/26 25/25/25
f 30/30/30 29/29/29 28/28/28
f 33/33/33 32/32/32 31/31/31
f 36/36/36 35/35/35 34/34/34
f 39/39/39 38/38/38 37/37/37
f 42/42/42 41/41/41 40/40/40
f 45/45/45 44/44/44 43/43/43
f 48/48/48 47/47/47 46/46/46
f 51/51/51 50/50/50 49/49/49
f 54/54/54 53/53/53 52/52/52
f 57/57/57 56/56/56 55/55/55
f 60/60/60 59/59/59 58/58/58
f 63/63/63 62/62/62 61/61/61
f 66/66/66 65/65/65 64/64/64
