# Generated by Wraith - Game extraction tools
# Please credit DTZxPorter for using it!

v -2.540008 5.080000 0.000000
v 0.000061 5.080000 2.540000
v -2.539977 2.539981 0.000000
v 0.000061 5.080000 2.540000
v 0.000018 -0.000078 2.540000
v -2.539977 2.539981 0.000000
v -2.540008 5.080000 0.000000
v -2.539977 2.539981 0.000000
v 0.000061 5.080000 -2.540000
v -2.539977 2.539981 0.000000
v 0.000018 -0.000078 -2.540000
v 0.000061 5.080000 -2.540000
v 0.000061 5.080000 -2.540000
v 0.000018 -0.000078 -2.540000
v 2.539980 2.539981 0.000000
v 2.540008 5.080000 0.000000
v 0.000061 5.080000 -2.540000
v 2.539980 2.539981 0.000000
v 2.540008 5.080000 0.000000
v 2.539980 2.539981 0.000000
v 0.000061 5.080000 2.540000
v 2.539980 2.539981 0.000000
v 0.000018 -0.000078 2.540000
v 0.000061 5.080000 2.540000
v 5.080000 2.539981 0.000000
v 5.080000 -0.000078 2.540000
v 2.539980 2.539981 0.000000
v 5.080000 -0.000078 2.540000
v 0.000018 -0.000078 2.540000
v 2.539980 2.539981 0.000000
v 5.080000 2.539981 0.000000
v 2.539980 2.539981 0.000000
v 5.080000 -0.000078 -2.540000
v 2.539980 2.539981 0.000000
v 0.000018 -0.000078 -2.540000
v 5.080000 -0.000078 -2.540000
v -5.080000 2.539981 0.000000
v -5.080000 -0.000078 -2.540000
v -2.539977 2.539981 0.000000
v -5.080000 -0.000078 -2.540000
v 0.000018 -0.000078 -2.540000
v -2.539977 2.539981 0.000000
v 5.080000 -2.540019 0.000000
v 0.000018 -0.000078 2.540000
v 5.080000 -0.000078 2.540000
v -5.080000 -0.000078 2.540000
v 0.000018 -0.000078 2.540000
v 5.080000 -2.540019 0.000000
v -2.539977 2.539981 0.000000
v 0.000018 -0.000078 2.540000
v -5.080000 -0.000078 2.540000
v -5.080000 2.539981 0.000000
v -2.539977 2.539981 0.000000
v -5.080000 -0.000078 2.540000
v -5.080000 -2.540019 0.000000
v -5.080000 -0.000078 2.540000
v 5.080000 -2.540019 0.000000
v 5.080000 -2.540019 0.000000
v 5.080000 -1.796034 -1.796052
v -5.080000 -2.540019 0.000000
v 5.080000 -1.796034 -1.796052
v -5.080000 -1.796034 -1.796052
v -5.080000 -2.540019 0.000000
v 5.080000 -1.796034 -1.796052
v 5.080000 -0.000078 -2.540000
v -5.080000 -1.796034 -1.796052
v 5.080000 -0.000078 -2.540000
v 0.000018 -0.000078 -2.540000
v -5.080000 -1.796034 -1.796052
v -5.080000 -1.796034 -1.796052
v 0.000018 -0.000078 -2.540000
v -5.080000 -0.000078 -2.540000
vt 0.707520 0.783691
vt 0.443115 0.783691
vt 0.707520 0.804321
vt 0.443115 0.783691
vt 0.443115 0.824829
vt 0.707520 0.804321
vt 0.707520 0.783691
vt 0.707520 0.804321
vt 0.972168 0.783691
vt 0.707520 0.804321
vt 0.972168 0.824829
vt 0.972168 0.783691
vt -0.085876 0.783691
vt -0.085876 0.824829
vt 0.178589 0.804321
vt 0.178589 0.783691
vt -0.085876 0.783691
vt 0.178589 0.804321
vt 0.178589 0.783691
vt 0.178589 0.804321
vt 0.443115 0.783691
vt 0.178589 0.804321
vt 0.443115 0.824829
vt 0.443115 0.783691
vt 0.711426 0.926331
vt 0.447266 0.926331
vt 0.711426 0.946930
vt 0.447266 0.926331
vt 0.447266 0.967560
vt 0.711426 0.946930
vt 0.711426 0.926331
vt 0.711426 0.946930
vt 0.976074 0.926331
vt 0.711426 0.946930
vt 0.976074 0.967560
vt 0.976074 0.926331
vt 0.711426 1.008774
vt 0.976074 1.008774
vt 0.711426 0.988159
vt 0.976074 1.008774
vt 0.976074 0.967560
vt 0.711426 0.988159
vt 0.182739 0.926331
vt 0.447266 0.967560
vt 0.447266 0.926331
vt 0.447266 1.008774
vt 0.447266 0.967560
vt 0.182739 0.926331
vt 0.711426 0.988159
vt 0.447266 0.967560
vt 0.447266 1.008774
vt 0.711426 1.008774
vt 0.711426 0.988159
vt 0.447266 1.008774
vt 0.182739 1.008774
vt 0.447266 1.008774
vt 0.182739 0.926331
vt 0.182739 0.926331
vt 0.050446 0.926331
vt 0.182739 1.008774
vt 0.050446 0.926331
vt 0.050446 1.008774
vt 0.182739 1.008774
vt 0.050446 0.926331
vt -0.081787 0.926331
vt 0.050446 1.008774
vt -0.081787 0.926331
vt -0.081787 0.967560
vt 0.050446 1.008774
vt 0.050446 1.008774
vt -0.081787 0.967560
vt -0.081787 1.008774
vn -1.000000 0.000000 0.000000
vn 0.000000 0.000000 1.000000
vn -1.000000 0.000000 0.000000
vn 0.000000 0.000000 1.000000
vn 0.000000 0.000000 1.000000
vn -1.000000 0.000000 0.000000
vn -1.000000 0.000000 0.000000
vn -1.000000 0.000000 0.000000
vn 0.000000 0.000000 -1.000000
vn -1.000000 0.000000 0.000000
vn 0.000000 0.000000 -1.000000
vn 0.000000 0.000000 -1.000000
vn 0.000000 0.000000 -1.000000
vn 0.000000 0.000000 -1.000000
vn 1.000000 0.000000 0.000000
vn 1.000000 0.000000 0.000000
vn 0.000000 0.000000 -1.000000
vn 1.000000 0.000000 0.000000
vn 1.000000 0.000000 0.000000
vn 1.000000 0.000000 0.000000
vn 0.000000 0.000000 1.000000
vn 1.000000 0.000000 0.000000
vn 0.000000 0.000000 1.000000
vn 0.000000 0.000000 1.000000
vn 0.000000 1.000000 0.000000
vn 0.000000 0.000000 1.000000
vn 0.000000 1.000000 0.000000
vn 0.000000 0.000000 1.000000
vn 0.000000 0.317025 0.949119
vn 0.000000 1.000000 0.000000
vn 0.000000 1.000000 0.000000
vn 0.000000 1.000000 0.000000
vn 0.000000 0.195695 -0.980431
vn 0.000000 1.000000 0.000000
vn 0.000000 0.403131 -0.915851
vn 0.000000 0.195695 -0.980431
vn 0.000000 1.000000 0.000000
vn 0.000000 0.195695 -0.980431
vn 0.000000 1.000000 0.000000
vn 0.000000 0.195695 -0.980431
vn 0.000000 0.403131 -0.915851
vn 0.000000 1.000000 0.000000
vn 0.000000 -0.980431 0.195695
vn 0.000000 0.317025 0.949119
vn 0.000000 0.000000 1.000000
vn 0.000000 0.000000 1.000000
vn 0.000000 0.317025 0.949119
vn 0.000000 -0.980431 0.195695
vn 0.000000 1.000000 0.000000
vn 0.000000 0.317025 0.949119
vn 0.000000 0.000000 1.000000
vn 0.000000 1.000000 0.000000
vn 0.000000 1.000000 0.000000
vn 0.000000 0.000000 1.000000
vn 0.000000 -0.980431 0.195695
vn 0.000000 0.000000 1.000000
vn 0.000000 -0.980431 0.195695
vn 0.000000 -0.980431 0.195695
vn 0.000000 -0.706458 -0.706458
vn 0.000000 -0.980431 0.195695
vn 0.000000 -0.706458 -0.706458
vn 0.000000 -0.706458 -0.706458
vn 0.000000 -0.980431 0.195695
vn 0.000000 -0.706458 -0.706458
vn 0.000000 0.195695 -0.980431
vn 0.000000 -0.706458 -0.706458
vn 0.000000 0.195695 -0.980431
vn 0.000000 0.403131 -0.915851
vn 0.000000 -0.706458 -0.706458
vn 0.000000 -0.706458 -0.706458
vn 0.000000 0.403131 -0.915851
vn 0.000000 0.195695 -0.980431
mtllib mtl_p6_pipes_garage.mtl
g mtl_p6_pipes_garage
usemtl mtl_p6_pipes_garage
f 3/3/3 2/2/2 1/1/1
f 6/6/6 5/5/5 4/4/4
f 9/9/9 8/8/8 7/7/7
f 12/12/12 11/11/11 10/10/10
f 15/15/15 14/14/14 13/13/13
f 18/18/18 17/17/17 16/16/16
f 21/21/21 20/20/20 19/19/19
f 24/24/24 23/23/23 22/22/22
f 27/27/27 26/26/26 25/25/25
f 30/30/30 29/29/29 28/28/28
f 33/33/33 32/32/32 31/31/31
f 36/36/36 35/35/35 34/34/34
f 39/39/39 38/38/38 37/37/37
f 42/42/42 41/41/41 40/40/40
f 45/45/45 44/44/44 43/43/43
f 48/48/48 47/47/47 46/46/46
f 51/51/51 50/50/50 49/49/49
f 54/54/54 53/53/53 52/52/52
f 57/57/57 56/56/56 55/55/55
f 60/60/60 59/59/59 58/58/58
f 63/63/63 62/62/62 61/61/61
f 66/66/66 65/65/65 64/64/64
f 69/69/69 68/68/68 67/67/67
f 72/72/72 71/71/71 70/70/70
