# Generated by Wraith - Game extraction tools
# Please credit DTZxPorter for using it!

v 2.175259 1.261720 -1.438463
v 2.015061 1.175281 1.182637
v -0.007488 2.524275 -1.438463
v 2.015061 1.175281 1.182637
v -0.015024 2.351908 1.182637
v -0.007488 2.524275 -1.438463
v -0.007488 2.524275 -1.438463
v -0.015024 2.351908 1.182637
v -2.191067 1.267361 -1.438463
v -0.015024 2.351908 1.182637
v -2.046724 1.186236 1.182637
v -2.191067 1.267361 -1.438463
v 2.174486 -1.257750 -1.438463
v 2.013562 -1.167016 1.182637
v 2.175259 1.261720 -1.438463
v 2.013562 -1.167016 1.182637
v 2.015061 1.175281 1.182637
v 2.175259 1.261720 -1.438463
v -0.007529 -2.514666 -1.438463
v -2.191840 -1.252111 -1.438463
v -0.015100 -2.332688 1.182637
v -2.191840 -1.252111 -1.438463
v -2.048223 -1.156063 1.182637
v -0.015100 -2.332688 1.182637
v -2.191840 -1.252111 -1.438463
v -2.191067 1.267361 -1.438463
v -2.048223 -1.156063 1.182637
v -2.191067 1.267361 -1.438463
v -2.046724 1.186236 1.182637
v -2.048223 -1.156063 1.182637
v 2.174486 -1.257750 -1.438463
v -0.007529 -2.514666 -1.438463
v 2.013562 -1.167016 1.182637
v -0.007529 -2.514666 -1.438463
v -0.015100 -2.332688 1.182637
v 2.013562 -1.167016 1.182637
v 2.015061 1.175281 1.182637
v 2.013562 -1.167016 1.182637
v -0.014859 0.006777 1.433952
v -0.015024 2.351908 1.182637
v 2.015061 1.175281 1.182637
v -0.014859 0.006777 1.433952
v -2.046724 1.186236 1.182637
v -0.015024 2.351908 1.182637
v -0.014859 0.006777 1.433952
v 2.013562 -1.167016 1.182637
v -0.015100 -2.332688 1.182637
v -0.014859 0.006777 1.433952
v -0.015100 -2.332688 1.182637
v -2.048223 -1.156063 1.182637
v -0.014859 0.006777 1.433952
v -2.048223 -1.156063 1.182637
v -2.046724 1.186236 1.182637
v -0.014859 0.006777 1.433952
vt 0.910645 0.583984
vt 0.996582 0.584229
vt 0.910645 0.468262
vt 0.996582 0.584229
vt 0.996582 0.469238
vt 0.910645 0.468262
vt 0.910645 0.468262
vt 0.996582 0.469238
vt 0.910645 0.353516
vt 0.996582 0.469238
vt 0.996582 0.354004
vt 0.910645 0.353516
vt 0.910645 0.699463
vt 0.996582 0.698975
vt 0.910645 0.583984
vt 0.996582 0.698975
vt 0.996582 0.584229
vt 0.910645 0.583984
vt 0.910645 0.123047
vt 0.910645 0.238770
vt 0.996582 0.122559
vt 0.910645 0.238770
vt 0.996582 0.238281
vt 0.996582 0.122559
vt 0.910645 0.238770
vt 0.910645 0.353516
vt 0.996582 0.238281
vt 0.910645 0.353516
vt 0.996582 0.354004
vt 0.996582 0.238281
vt 0.910645 0.008301
vt 0.910645 0.123047
vt 0.996582 0.007813
vt 0.910645 0.123047
vt 0.996582 0.122559
vt 0.996582 0.007813
vt 0.900391 0.928955
vt 0.899902 0.825562
vt 0.811035 0.877319
vt 0.811035 0.980881
vt 0.900391 0.928955
vt 0.811035 0.877319
vt 0.721680 0.929443
vt 0.811035 0.980881
vt 0.811035 0.877319
vt 0.899902 0.825562
vt 0.811035 0.774048
vt 0.811035 0.877319
vt 0.811035 0.774048
vt 0.721680 0.826050
vt 0.811035 0.877319
vt 0.721680 0.826050
vt 0.721680 0.929443
vt 0.811035 0.877319
vn 0.500978 0.863014 0.058708
vn 0.500978 0.863014 0.058708
vn 0.500978 0.863014 0.058708
vn 0.500978 0.863014 0.058708
vn 0.500978 0.863014 0.058708
vn 0.500978 0.863014 0.058708
vn -0.497065 0.864971 0.054795
vn -0.497065 0.864971 0.054795
vn -0.497065 0.864971 0.054795
vn -0.497065 0.864971 0.054795
vn -0.497065 0.864971 0.054795
vn -0.497065 0.864971 0.054795
vn 0.998043 0.000000 0.060665
vn 0.998043 0.000000 0.060665
vn 0.998043 0.000000 0.060665
vn 0.998043 0.000000 0.060665
vn 0.998043 0.000000 0.060665
vn 0.998043 0.000000 0.060665
vn -0.499022 -0.864971 0.058708
vn -0.499022 -0.864971 0.058708
vn -0.499022 -0.864971 0.058708
vn -0.499022 -0.864971 0.058708
vn -0.499022 -0.864971 0.058708
vn -0.499022 -0.864971 0.058708
vn -0.998043 0.000000 0.054795
vn -0.998043 0.000000 0.054795
vn -0.998043 0.000000 0.054795
vn -0.998043 0.000000 0.054795
vn -0.998043 0.000000 0.054795
vn -0.998043 0.000000 0.054795
vn 0.497065 -0.864971 0.060665
vn 0.497065 -0.864971 0.060665
vn 0.497065 -0.864971 0.060665
vn 0.497065 -0.864971 0.060665
vn 0.497065 -0.864971 0.060665
vn 0.497065 -0.864971 0.060665
vn 0.091977 0.052838 0.994129
vn 0.123288 0.000000 0.992172
vn 0.041096 0.070450 0.996086
vn 0.000000 0.105675 0.994129
vn 0.091977 0.052838 0.994129
vn 0.041096 0.070450 0.996086
vn -0.060665 0.105675 0.992172
vn 0.000000 0.105675 0.994129
vn 0.041096 0.070450 0.996086
vn 0.060665 -0.105675 0.992172
vn 0.000000 -0.107632 0.994129
vn -0.041096 -0.070450 0.996086
vn 0.000000 -0.107632 0.994129
vn -0.091977 -0.052838 0.994129
vn -0.041096 -0.070450 0.996086
vn -0.091977 -0.052838 0.994129
vn -0.123288 0.000000 0.992172
vn -0.041096 -0.070450 0.996086
mtllib mtl_p_rus_angle_plate.mtl
g mtl_p_rus_angle_plate
usemtl mtl_p_rus_angle_plate
f 3/3/3 2/2/2 1/1/1
f 6/6/6 5/5/5 4/4/4
f 9/9/9 8/8/8 7/7/7
f 12/12/12 11/11/11 10/10/10
f 15/15/15 14/14/14 13/13/13
f 18/18/18 17/17/17 16/16/16
f 21/21/21 20/20/20 19/19/19
f 24/24/24 23/23/23 22/22/22
f 27/27/27 26/26/26 25/25/25
f 30/30/30 29/29/29 28/28/28
f 33/33/33 32/32/32 31/31/31
f 36/36/36 35/35/35 34/34/34
f 39/39/39 38/38/38 37/37/37
f 42/42/42 41/41/41 40/40/40
f 45/45/45 44/44/44 43/43/43
f 48/48/48 47/47/47 46/46/46
f 51/51/51 50/50/50 49/49/49
f 54/54/54 53/53/53 52/52/52
