# Generated by Wraith - Game extraction tools
# Please credit DTZxPorter for using it!

v -4.990965 -243.401581 -5.078489
v 4.990965 -243.401581 -5.078489
v 4.990965 -130.727036 -5.078489
v -4.990965 -130.727036 -5.078489
v -4.990965 -243.401581 -5.078489
v 4.990965 -130.727036 -5.078489
v -4.990965 -130.727036 -5.078489
v 4.990965 -130.727036 -5.078489
v 4.990965 -40.857113 -5.078489
v -4.990965 -40.857113 -5.078489
v -4.990965 -130.727036 -5.078489
v 4.990965 -40.857113 -5.078489
v -4.990965 -40.857113 -5.078489
v 4.990965 -40.857113 -5.078489
v -4.990965 40.857094 -5.078489
v 4.990965 -40.857113 -5.078489
v 4.990965 40.857094 -5.078489
v -4.990965 40.857094 -5.078489
v -4.990965 40.857094 -5.078489
v 4.990965 40.857094 -5.078489
v 4.990965 130.727051 -5.078489
v -4.990965 130.727051 -5.078489
v -4.990965 40.857094 -5.078489
v 4.990965 130.727051 -5.078489
v -4.990965 130.727051 -5.078489
v 4.990965 130.727051 -5.078489
v 4.990965 243.401611 -5.078489
v -4.990965 243.401611 -5.078489
v -4.990965 130.727051 -5.078489
v 4.990965 243.401611 -5.078489
v -4.990965 243.401611 53.088776
v -4.990965 243.401611 -5.078489
v 4.990965 243.401611 53.088776
v -4.990965 243.401611 -5.078489
v 4.990965 243.401611 -5.078489
v 4.990965 243.401611 53.088776
v -4.990965 243.401611 -5.078489
v -4.990965 243.401611 53.088776
v -4.990965 130.727051 53.088776
v -4.990965 130.727051 -5.078489
v -4.990965 243.401611 -5.078489
v -4.990965 130.727051 53.088776
v -4.990965 130.727051 -5.078489
v -4.990965 130.727051 53.088776
v -4.990965 40.856041 53.088776
v -4.990965 40.857094 -5.078489
v -4.990965 130.727051 -5.078489
v -4.990965 40.856041 53.088776
v -4.990965 -40.857113 -5.078489
v -4.990965 40.857094 -5.078489
v -4.990965 40.856041 53.088776
v -4.990965 -40.856056 53.088776
v -4.990965 -40.857113 -5.078489
v -4.990965 40.856041 53.088776
v -4.990965 -40.857113 -5.078489
v -4.990965 -40.856056 53.088776
v -4.990965 -130.727036 53.088776
v -4.990965 -130.727036 -5.078489
v -4.990965 -40.857113 -5.078489
v -4.990965 -130.727036 53.088776
v -4.990965 -130.727036 -5.078489
v -4.990965 -130.727036 53.088776
v -4.990965 -243.401581 53.088776
v -4.990965 -243.401581 -5.078489
v -4.990965 -130.727036 -5.078489
v -4.990965 -243.401581 53.088776
v -4.990965 -243.401581 -5.078489
v -4.990965 -243.401581 53.088776
v 4.990965 -243.401581 -5.078489
v -4.990965 -243.401581 53.088776
v 4.990965 -243.401581 53.088776
v 4.990965 -243.401581 -5.078489
v 4.990965 -130.727036 -5.078489
v 4.990965 -243.401581 -5.078489
v 4.990965 -243.401581 53.088776
v 4.990965 -130.727036 53.088776
v 4.990965 -130.727036 -5.078489
v 4.990965 -243.401581 53.088776
v 4.990965 -40.857113 -5.078489
v 4.990965 -130.727036 -5.078489
v 4.990965 -130.727036 53.088776
v 4.990965 -40.856056 53.088776
v 4.990965 -40.857113 -5.078489
v 4.990965 -130.727036 53.088776
v 4.990965 -40.857113 -5.078489
v 4.990965 -40.856056 53.088776
v 4.990965 40.857094 -5.078489
v 4.990965 -40.856056 53.088776
v 4.990965 40.856041 53.088776
v 4.990965 40.857094 -5.078489
v 4.990965 130.727051 -5.078489
v 4.990965 40.857094 -5.078489
v 4.990965 40.856041 53.088776
v 4.990965 130.727051 53.088776
v 4.990965 130.727051 -5.078489
v 4.990965 40.856041 53.088776
v 4.990965 243.401611 -5.078489
v 4.990965 130.727051 -5.078489
v 4.990965 130.727051 53.088776
v 4.990965 243.401611 53.088776
v 4.990965 243.401611 -5.078489
v 4.990965 130.727051 53.088776
v -4.990965 243.401611 196.596542
v -4.990965 243.401611 53.088776
v 4.990965 243.401611 196.596542
v -4.990965 243.401611 53.088776
v 4.990965 243.401611 53.088776
v 4.990965 243.401611 196.596542
v -4.990965 -243.401581 53.088776
v -4.990965 -243.401581 196.596542
v 4.990965 -243.401581 53.088776
v -4.990965 -243.401581 196.596542
v 4.990965 -243.401581 196.596542
v 4.990965 -243.401581 53.088776
v -4.990965 -243.401581 196.596542
v -4.990965 -243.401581 53.088776
v -4.990965 -130.727036 170.780151
v -4.990965 -243.401581 53.088776
v -4.990965 -130.727036 53.088776
v -4.990965 -130.727036 170.780151
v -4.990965 -130.727036 170.780151
v -4.990965 -130.727036 53.088776
v -4.990965 -40.853436 161.247009
v -4.990965 -130.727036 53.088776
v -4.990965 -40.856056 53.088776
v -4.990965 -40.853436 161.247009
v -4.990965 -40.853436 161.247009
v -4.990965 -40.856056 53.088776
v -4.990965 40.853420 161.247009
v -4.990965 -40.856056 53.088776
v -4.990965 40.856041 53.088776
v -4.990965 40.853420 161.247009
v -4.990965 40.856041 53.088776
v -4.990965 130.727051 53.088776
v -4.990965 40.853420 161.247009
v -4.990965 130.727051 53.088776
v -4.990965 130.727051 170.780151
v -4.990965 40.853420 161.247009
v -4.990965 130.727051 53.088776
v -4.990965 243.401611 53.088776
v -4.990965 130.727051 170.780151
v -4.990965 243.401611 53.088776
v -4.990965 243.401611 196.596542
v -4.990965 130.727051 170.780151
v 4.990965 -243.401581 196.596542
v 4.990965 -130.727036 170.780151
v 4.990965 -243.401581 53.088776
v 4.990965 -130.727036 170.780151
v 4.990965 -130.727036 53.088776
v 4.990965 -243.401581 53.088776
v 4.990965 -130.727036 170.780151
v 4.990965 -40.853436 161.247009
v 4.990965 -130.727036 53.088776
v 4.990965 -40.853436 161.247009
v 4.990965 -40.856056 53.088776
v 4.990965 -130.727036 53.088776
v 4.990965 -40.856056 53.088776
v 4.990965 -40.853436 161.247009
v 4.990965 40.856041 53.088776
v 4.990965 -40.853436 161.247009
v 4.990965 40.853420 161.247009
v 4.990965 40.856041 53.088776
v 4.990965 40.856041 53.088776
v 4.990965 40.853420 161.247009
v 4.990965 130.727051 53.088776
v 4.990965 40.853420 161.247009
v 4.990965 130.727051 170.780151
v 4.990965 130.727051 53.088776
v 4.990965 130.727051 53.088776
v 4.990965 130.727051 170.780151
v 4.990965 243.401611 53.088776
v 4.990965 130.727051 170.780151
v 4.990965 243.401611 196.596542
v 4.990965 243.401611 53.088776
v -4.990965 -243.401581 196.596542
v -4.990965 -130.727036 170.780151
v 4.990965 -243.401581 196.596542
v -4.990965 -130.727036 170.780151
v 4.990965 -130.727036 170.780151
v 4.990965 -243.401581 196.596542
v -4.990965 -130.727036 170.780151
v -4.990965 -40.853436 161.247009
v 4.990965 -130.727036 170.780151
v -4.990965 -40.853436 161.247009
v 4.990965 -40.853436 161.247009
v 4.990965 -130.727036 170.780151
v 4.990965 40.853420 161.247009
v 4.990965 -40.853436 161.247009
v -4.990965 -40.853436 161.247009
v -4.990965 40.853420 161.247009
v 4.990965 40.853420 161.247009
v -4.990965 -40.853436 161.247009
v -4.990965 40.853420 161.247009
v -4.990965 130.727051 170.780151
v 4.990965 40.853420 161.247009
v -4.990965 130.727051 170.780151
v 4.990965 130.727051 170.780151
v 4.990965 40.853420 161.247009
v -4.990965 130.727051 170.780151
v -4.990965 243.401611 196.596542
v 4.990965 130.727051 170.780151
v -4.990965 243.401611 196.596542
v 4.990965 243.401611 196.596542
v 4.990965 130.727051 170.780151
vt -0.108459 1.152588
vt -0.108459 1.204590
vt 0.479248 1.204590
vt 0.479248 1.152588
vt -0.108459 1.152588
vt 0.479248 1.204590
vt 0.479248 1.152588
vt 0.479248 1.204590
vt 0.948242 1.204590
vt 0.948242 1.152588
vt 0.479248 1.152588
vt 0.948242 1.204590
vt 0.948242 1.152588
vt 0.948242 1.204590
vt 1.374023 1.152588
vt 0.948242 1.204590
vt 1.374023 1.204590
vt 1.374023 1.152588
vt 1.374023 1.152588
vt 1.374023 1.204590
vt 1.842773 1.204590
vt 1.842773 1.152588
vt 1.374023 1.152588
vt 1.842773 1.204590
vt 1.842773 1.152588
vt 1.842773 1.204590
vt 2.429688 1.204590
vt 2.429688 1.152588
vt 1.842773 1.152588
vt 2.429688 1.204590
vt 1.682617 3.361328
vt 1.378906 3.361328
vt 1.682617 3.414063
vt 1.378906 3.361328
vt 1.378906 3.414063
vt 1.682617 3.414063
vt -0.108459 2.291992
vt -0.108459 2.595703
vt 0.479248 2.595703
vt 0.479248 2.291992
vt -0.108459 2.291992
vt 0.479248 2.595703
vt 0.479248 2.291992
vt 0.479248 2.595703
vt 0.948242 2.595703
vt 0.948242 2.291992
vt 0.479248 2.291992
vt 0.948242 2.595703
vt 1.374023 2.291992
vt 0.948242 2.291992
vt 0.948242 2.595703
vt 1.374023 2.595703
vt 1.374023 2.291992
vt 0.948242 2.595703
vt 1.374023 2.291992
vt 1.374023 2.595703
vt 1.842773 2.595703
vt 1.842773 2.291992
vt 1.374023 2.291992
vt 1.842773 2.595703
vt 1.842773 2.291992
vt 1.842773 2.595703
vt 2.429688 2.595703
vt 2.429688 2.291992
vt 1.842773 2.291992
vt 2.429688 2.595703
vt 1.369141 3.416016
vt 1.065430 3.416016
vt 1.369141 3.468750
vt 1.065430 3.416016
vt 1.065430 3.468750
vt 1.369141 3.468750
vt 1.842773 2.274414
vt 2.429688 2.274414
vt 2.429688 1.971191
vt 1.842773 1.971191
vt 1.842773 2.274414
vt 2.429688 1.971191
vt 1.374023 2.274414
vt 1.842773 2.274414
vt 1.842773 1.971191
vt 1.374023 1.971191
vt 1.374023 2.274414
vt 1.842773 1.971191
vt 1.374023 2.274414
vt 1.374023 1.971191
vt 0.948242 2.274414
vt 1.374023 1.971191
vt 0.948242 1.971191
vt 0.948242 2.274414
vt 0.479248 2.274414
vt 0.948242 2.274414
vt 0.948242 1.971191
vt 0.479248 1.971191
vt 0.479248 2.274414
vt 0.948242 1.971191
vt -0.108459 2.274414
vt 0.479248 2.274414
vt 0.479248 1.971191
vt -0.108459 1.971191
vt -0.108459 2.274414
vt 0.479248 1.971191
vt 0.431396 1.361816
vt -0.317139 1.361816
vt 0.431396 1.414063
vt -0.317139 1.361816
vt -0.317139 1.414063
vt 0.431396 1.414063
vt -0.933594 1.416992
vt -1.682617 1.416992
vt -0.933594 1.469238
vt -1.682617 1.416992
vt -1.682617 1.469238
vt -0.933594 1.469238
vt 0.431396 1.344482
vt 0.431396 0.595947
vt -0.156372 1.209839
vt 0.431396 0.595947
vt -0.156372 0.595947
vt -0.156372 1.209839
vt -0.156372 1.209839
vt -0.156372 0.595947
vt -0.625000 1.160156
vt -0.156372 0.595947
vt -0.625000 0.595947
vt -0.625000 1.160156
vt -0.625000 1.160156
vt -0.625000 0.595947
vt -1.050781 1.160156
vt -0.625000 0.595947
vt -1.050781 0.595947
vt -1.050781 1.160156
vt -1.050781 0.595947
vt -1.520508 0.595947
vt -1.050781 1.160156
vt -1.520508 0.595947
vt -1.520508 1.209839
vt -1.050781 1.160156
vt -1.520508 0.595947
vt -2.107422 0.595947
vt -1.520508 1.209839
vt -2.107422 0.595947
vt -2.107422 1.344482
vt -1.520508 1.209839
vt 0.431396 -0.776367
vt -0.156372 -0.642578
vt 0.431396 -0.028320
vt -0.156372 -0.642578
vt -0.156372 -0.028320
vt 0.431396 -0.028320
vt -0.156372 -0.642578
vt -0.625000 -0.592773
vt -0.156372 -0.028320
vt -0.625000 -0.592773
vt -0.625000 -0.028320
vt -0.156372 -0.028320
vt -0.625000 -0.028320
vt -0.625000 -0.592773
vt -1.050781 -0.028320
vt -0.625000 -0.592773
vt -1.050781 -0.592773
vt -1.050781 -0.028320
vt -1.050781 -0.028320
vt -1.050781 -0.592773
vt -1.520508 -0.028320
vt -1.050781 -0.592773
vt -1.520508 -0.642578
vt -1.520508 -0.028320
vt -1.520508 -0.028320
vt -1.520508 -0.642578
vt -2.107422 -0.028320
vt -1.520508 -0.642578
vt -2.107422 -0.776367
vt -2.107422 -0.028320
vt 0.431396 -0.916992
vt -0.156372 -0.916992
vt 0.431396 -0.865234
vt -0.156372 -0.916992
vt -0.156372 -0.865234
vt 0.431396 -0.865234
vt -0.156372 -0.916992
vt -0.625000 -0.916992
vt -0.156372 -0.865234
vt -0.625000 -0.916992
vt -0.625000 -0.865234
vt -0.156372 -0.865234
vt -1.050781 -0.865234
vt -0.625000 -0.865234
vt -0.625000 -0.916992
vt -1.050781 -0.916992
vt -1.050781 -0.865234
vt -0.625000 -0.916992
vt -1.050781 -0.916992
vt -1.520508 -0.916992
vt -1.050781 -0.865234
vt -1.520508 -0.916992
vt -1.520508 -0.865234
vt -1.050781 -0.865234
vt -1.520508 -0.916992
vt -2.107422 -0.916992
vt -1.520508 -0.865234
vt -2.107422 -0.916992
vt -2.107422 -0.865234
vt -1.520508 -0.865234
vn 0.000000 0.000000 -1.000000
vn 0.000000 0.000000 -1.000000
vn 0.000000 0.000000 -1.000000
vn 0.000000 0.000000 -1.000000
vn 0.000000 0.000000 -1.000000
vn 0.000000 0.000000 -1.000000
vn 0.000000 0.000000 -1.000000
vn 0.000000 0.000000 -1.000000
vn 0.000000 0.000000 -1.000000
vn 0.000000 0.000000 -1.000000
vn 0.000000 0.000000 -1.000000
vn 0.000000 0.000000 -1.000000
vn 0.000000 0.000000 -1.000000
vn 0.000000 0.000000 -1.000000
vn 0.000000 0.000000 -1.000000
vn 0.000000 0.000000 -1.000000
vn 0.000000 0.000000 -1.000000
vn 0.000000 0.000000 -1.000000
vn 0.000000 0.000000 -1.000000
vn 0.000000 0.000000 -1.000000
vn 0.000000 0.000000 -1.000000
vn 0.000000 0.000000 -1.000000
vn 0.000000 0.000000 -1.000000
vn 0.000000 0.000000 -1.000000
vn 0.000000 0.000000 -1.000000
vn 0.000000 0.000000 -1.000000
vn 0.000000 0.000000 -1.000000
vn 0.000000 0.000000 -1.000000
vn 0.000000 0.000000 -1.000000
vn 0.000000 0.000000 -1.000000
vn 0.000000 1.000000 0.000000
vn 0.000000 1.000000 0.000000
vn 0.000000 1.000000 0.000000
vn 0.000000 1.000000 0.000000
vn 0.000000 1.000000 0.000000
vn 0.000000 1.000000 0.000000
vn -1.000000 0.000000 0.000000
vn -1.000000 0.000000 0.000000
vn -1.000000 0.000000 0.000000
vn -1.000000 0.000000 0.000000
vn -1.000000 0.000000 0.000000
vn -1.000000 0.000000 0.000000
vn -1.000000 0.000000 0.000000
vn -1.000000 0.000000 0.000000
vn -1.000000 0.000000 0.000000
vn -1.000000 0.000000 0.000000
vn -1.000000 0.000000 0.000000
vn -1.000000 0.000000 0.000000
vn -1.000000 0.000000 0.000000
vn -1.000000 0.000000 0.000000
vn -1.000000 0.000000 0.000000
vn -1.000000 0.000000 0.000000
vn -1.000000 0.000000 0.000000
vn -1.000000 0.000000 0.000000
vn -1.000000 0.000000 0.000000
vn -1.000000 0.000000 0.000000
vn -1.000000 0.000000 0.000000
vn -1.000000 0.000000 0.000000
vn -1.000000 0.000000 0.000000
vn -1.000000 0.000000 0.000000
vn -1.000000 0.000000 0.000000
vn -1.000000 0.000000 0.000000
vn -1.000000 0.000000 0.000000
vn -1.000000 0.000000 0.000000
vn -1.000000 0.000000 0.000000
vn -1.000000 0.000000 0.000000
vn 0.000000 -1.000000 0.000000
vn 0.000000 -1.000000 0.000000
vn 0.000000 -1.000000 0.000000
vn 0.000000 -1.000000 0.000000
vn 0.000000 -1.000000 0.000000
vn 0.000000 -1.000000 0.000000
vn 1.000000 0.000000 0.000000
vn 1.000000 0.000000 0.000000
vn 1.000000 0.000000 0.000000
vn 1.000000 0.000000 0.000000
vn 1.000000 0.000000 0.000000
vn 1.000000 0.000000 0.000000
vn 1.000000 0.000000 0.000000
vn 1.000000 0.000000 0.000000
vn 1.000000 0.000000 0.000000
vn 1.000000 0.000000 0.000000
vn 1.000000 0.000000 0.000000
vn 1.000000 0.000000 0.000000
vn 1.000000 0.000000 0.000000
vn 1.000000 0.000000 0.000000
vn 1.000000 0.000000 0.000000
vn 1.000000 0.000000 0.000000
vn 1.000000 0.000000 0.000000
vn 1.000000 0.000000 0.000000
vn 1.000000 0.000000 0.000000
vn 1.000000 0.000000 0.000000
vn 1.000000 0.000000 0.000000
vn 1.000000 0.000000 0.000000
vn 1.000000 0.000000 0.000000
vn 1.000000 0.000000 0.000000
vn 1.000000 0.000000 0.000000
vn 1.000000 0.000000 0.000000
vn 1.000000 0.000000 0.000000
vn 1.000000 0.000000 0.000000
vn 1.000000 0.000000 0.000000
vn 1.000000 0.000000 0.000000
vn 0.000000 1.000000 0.000000
vn 0.000000 1.000000 0.000000
vn 0.000000 1.000000 0.000000
vn 0.000000 1.000000 0.000000
vn 0.000000 1.000000 0.000000
vn 0.000000 1.000000 0.000000
vn 0.000000 -1.000000 0.000000
vn 0.000000 -1.000000 0.000000
vn 0.000000 -1.000000 0.000000
vn 0.000000 -1.000000 0.000000
vn 0.000000 -1.000000 0.000000
vn 0.000000 -1.000000 0.000000
vn -1.000000 0.000000 0.000000
vn -1.000000 0.000000 0.000000
vn -1.000000 0.000000 0.000000
vn -1.000000 0.000000 0.000000
vn -1.000000 0.000000 0.000000
vn -1.000000 0.000000 0.000000
vn -1.000000 0.000000 0.000000
vn -1.000000 0.000000 0.000000
vn -1.000000 0.000000 0.000000
vn -1.000000 0.000000 0.000000
vn -1.000000 0.000000 0.000000
vn -1.000000 0.000000 0.000000
vn -1.000000 0.000000 0.000000
vn -1.000000 0.000000 0.000000
vn -1.000000 0.000000 0.000000
vn -1.000000 0.000000 0.000000
vn -1.000000 0.000000 0.000000
vn -1.000000 0.000000 0.000000
vn -1.000000 0.000000 0.000000
vn -1.000000 0.000000 0.000000
vn -1.000000 0.000000 0.000000
vn -1.000000 0.000000 0.000000
vn -1.000000 0.000000 0.000000
vn -1.000000 0.000000 0.000000
vn -1.000000 0.000000 0.000000
vn -1.000000 0.000000 0.000000
vn -1.000000 0.000000 0.000000
vn -1.000000 0.000000 0.000000
vn -1.000000 0.000000 0.000000
vn -1.000000 0.000000 0.000000
vn 1.000000 0.000000 0.000000
vn 1.000000 0.000000 0.000000
vn 1.000000 0.000000 0.000000
vn 1.000000 0.000000 0.000000
vn 1.000000 0.000000 0.000000
vn 1.000000 0.000000 0.000000
vn 1.000000 0.000000 0.000000
vn 1.000000 0.000000 0.000000
vn 1.000000 0.000000 0.000000
vn 1.000000 0.000000 0.000000
vn 1.000000 0.000000 0.000000
vn 1.000000 0.000000 0.000000
vn 1.000000 0.000000 0.000000
vn 1.000000 0.000000 0.000000
vn 1.000000 0.000000 0.000000
vn 1.000000 0.000000 0.000000
vn 1.000000 0.000000 0.000000
vn 1.000000 0.000000 0.000000
vn 1.000000 0.000000 0.000000
vn 1.000000 0.000000 0.000000
vn 1.000000 0.000000 0.000000
vn 1.000000 0.000000 0.000000
vn 1.000000 0.000000 0.000000
vn 1.000000 0.000000 0.000000
vn 1.000000 0.000000 0.000000
vn 1.000000 0.000000 0.000000
vn 1.000000 0.000000 0.000000
vn 1.000000 0.000000 0.000000
vn 1.000000 0.000000 0.000000
vn 1.000000 0.000000 0.000000
vn 0.000000 0.223092 0.974560
vn 0.000000 0.164384 0.986301
vn 0.000000 0.223092 0.974560
vn 0.000000 0.164384 0.986301
vn 0.000000 0.164384 0.986301
vn 0.000000 0.223092 0.974560
vn 0.000000 0.164384 0.986301
vn 0.000000 0.052838 0.998043
vn 0.000000 0.164384 0.986301
vn 0.000000 0.052838 0.998043
vn 0.000000 0.052838 0.998043
vn 0.000000 0.164384 0.986301
vn 0.000000 -0.052838 0.998043
vn 0.000000 0.052838 0.998043
vn 0.000000 0.052838 0.998043
vn 0.000000 -0.052838 0.998043
vn 0.000000 -0.052838 0.998043
vn 0.000000 0.052838 0.998043
vn 0.000000 -0.052838 0.998043
vn 0.000000 -0.164384 0.986301
vn 0.000000 -0.052838 0.998043
vn 0.000000 -0.164384 0.986301
vn 0.000000 -0.164384 0.986301
vn 0.000000 -0.052838 0.998043
vn 0.000000 -0.164384 0.986301
vn 0.000000 -0.223092 0.974560
vn 0.000000 -0.164384 0.986301
vn 0.000000 -0.223092 0.974560
vn 0.000000 -0.223092 0.974560
vn 0.000000 -0.164384 0.986301
mtllib nt_2020_concrete_pattern_02.mtl
g nt_2020_concrete_pattern_02
usemtl nt_2020_concrete_pattern_02
f 3/3/3 2/2/2 1/1/1
f 6/6/6 5/5/5 4/4/4
f 9/9/9 8/8/8 7/7/7
f 12/12/12 11/11/11 10/10/10
f 15/15/15 14/14/14 13/13/13
f 18/18/18 17/17/17 16/16/16
f 21/21/21 20/20/20 19/19/19
f 24/24/24 23/23/23 22/22/22
f 27/27/27 26/26/26 25/25/25
f 30/30/30 29/29/29 28/28/28
f 33/33/33 32/32/32 31/31/31
f 36/36/36 35/35/35 34/34/34
f 39/39/39 38/38/38 37/37/37
f 42/42/42 41/41/41 40/40/40
f 45/45/45 44/44/44 43/43/43
f 48/48/48 47/47/47 46/46/46
f 51/51/51 50/50/50 49/49/49
f 54/54/54 53/53/53 52/52/52
f 57/57/57 56/56/56 55/55/55
f 60/60/60 59/59/59 58/58/58
f 63/63/63 62/62/62 61/61/61
f 66/66/66 65/65/65 64/64/64
f 69/69/69 68/68/68 67/67/67
f 72/72/72 71/71/71 70/70/70
f 75/75/75 74/74/74 73/73/73
f 78/78/78 77/77/77 76/76/76
f 81/81/81 80/80/80 79/79/79
f 84/84/84 83/83/83 82/82/82
f 87/87/87 86/86/86 85/85/85
f 90/90/90 89/89/89 88/88/88
f 93/93/93 92/92/92 91/91/91
f 96/96/96 95/95/95 94/94/94
f 99/99/99 98/98/98 97/97/97
f 102/102/102 101/101/101 100/100/100
mtllib nt_wood_fence.mtl
g nt_wood_fence
usemtl nt_wood_fence
f 105/105/105 104/104/104 103/103/103
f 108/108/108 107/107/107 106/106/106
f 111/111/111 110/110/110 109/109/109
f 114/114/114 113/113/113 112/112/112
f 117/117/117 116/116/116 115/115/115
f 120/120/120 119/119/119 118/118/118
f 123/123/123 122/122/122 121/121/121
f 126/126/126 125/125/125 124/124/124
f 129/129/129 128/128/128 127/127/127
f 132/132/132 131/131/131 130/130/130
f 135/135/135 134/134/134 133/133/133
f 138/138/138 137/137/137 136/136/136
f 141/141/141 140/140/140 139/139/139
f 144/144/144 143/143/143 142/142/142
f 147/147/147 146/146/146 145/145/145
f 150/150/150 149/149/149 148/148/148
f 153/153/153 152/152/152 151/151/151
f 156/156/156 155/155/155 154/154/154
f 159/159/159 158/158/158 157/157/157
f 162/162/162 161/161/161 160/160/160
f 165/165/165 164/164/164 163/163/163
f 168/168/168 167/167/167 166/166/166
f 171/171/171 170/170/170 169/169/169
f 174/174/174 173/173/173 172/172/172
f 177/177/177 176/176/176 175/175/175
f 180/180/180 179/179/179 178/178/178
f 183/183/183 182/182/182 181/181/181
f 186/186/186 185/185/185 184/184/184
f 189/189/189 188/188/188 187/187/187
f 192/192/192 191/191/191 190/190/190
f 195/195/195 194/194/194 193/193/193
f 198/198/198 197/197/197 196/196/196
f 201/201/201 200/200/200 199/199/199
f 204/204/204 203/203/203 202/202/202
