# Generated by Wraith - Game extraction tools
# Please credit DTZxPorter for using it!

v 48.003315 -3.568763 0.030069
v 48.448116 0.000000 -0.451142
v -0.056373 -3.568763 0.030069
v 48.448116 0.000000 -0.451142
v -0.501178 0.000000 -0.451142
v -0.056373 -3.568763 0.030069
v 48.448116 0.000000 53.930527
v 48.448116 0.000000 -0.451142
v 48.003315 -3.568763 53.449318
v 48.448116 0.000000 -0.451142
v 48.003315 -3.568763 0.030069
v 48.003315 -3.568763 53.449318
v -0.501178 0.000000 -0.451142
v 48.448116 0.000000 -0.451142
v -0.501178 0.000000 53.930527
v 48.448116 0.000000 -0.451142
v 48.448116 0.000000 53.930527
v -0.501178 0.000000 53.930527
v -0.501178 0.000000 -0.451142
v -0.501178 0.000000 53.930527
v -0.056373 -3.568763 0.030069
v -0.501178 0.000000 53.930527
v -0.056373 -3.568763 53.449318
v -0.056373 -3.568763 0.030069
v -0.056373 -3.568763 0.030069
v -0.056373 -3.568763 53.449318
v 48.003315 -3.568763 53.449318
v 48.003315 -3.568763 0.030069
v -0.056373 -3.568763 0.030069
v 48.003315 -3.568763 53.449318
v -0.056373 -3.568763 53.449318
v -0.501178 0.000000 53.930527
v 48.003315 -3.568763 53.449318
v -0.501178 0.000000 53.930527
v 48.448116 0.000000 53.930527
v 48.003315 -3.568763 53.449318
v 42.006718 -3.507572 52.017361
v 45.662350 -3.507572 52.017361
v 45.662350 -7.613662 52.017361
v 42.006718 -7.613662 52.017361
v 42.006718 -3.507572 52.017361
v 45.662350 -7.613662 52.017361
v 42.006718 -7.613662 52.017361
v 45.662350 -7.613662 52.017361
v 42.006718 -7.613662 24.840227
v 45.662350 -7.613662 52.017361
v 45.662350 -7.613662 24.840227
v 42.006718 -7.613662 24.840227
v 42.006718 -7.613662 24.840227
v 45.662350 -7.613662 24.840227
v 45.662350 -3.507572 24.840227
v 42.006718 -3.507572 24.840227
v 42.006718 -7.613662 24.840227
v 45.662350 -3.507572 24.840227
v 45.662350 -7.613662 52.017361
v 45.662350 -3.507572 52.017361
v 45.662350 -7.613662 24.840227
v 45.662350 -3.507572 52.017361
v 45.662350 -3.507572 24.840227
v 45.662350 -7.613662 24.840227
v 42.006718 -7.613662 52.017361
v 42.006718 -7.613662 24.840227
v 42.006718 -3.507572 52.017361
v 42.006718 -7.613662 24.840227
v 42.006718 -3.507572 24.840227
v 42.006718 -3.507572 52.017361
vt 0.826172 0.046387
vt 0.834473 0.003418
vt 0.045258 0.045410
vt 0.834473 0.003418
vt 0.038574 0.003418
vt 0.045258 0.045410
vt 0.867676 0.958435
vt 0.867676 0.037598
vt 0.827148 0.949188
vt 0.867676 0.037598
vt 0.828125 0.045410
vt 0.827148 0.949188
vt 0.875488 0.141602
vt 0.996582 0.141602
vt 0.875488 0.007324
vt 0.996582 0.141602
vt 0.996582 0.007324
vt 0.875488 0.007324
vt 0.005409 0.037598
vt 0.005405 0.958435
vt 0.045258 0.045410
vt 0.005405 0.958435
vt 0.045532 0.950897
vt 0.045258 0.045410
vt 0.045258 0.045410
vt 0.045532 0.950897
vt 0.827637 0.950897
vt 0.828125 0.045410
vt 0.045258 0.045410
vt 0.827637 0.950897
vt 0.045532 0.950897
vt 0.038574 0.992321
vt 0.827637 0.950897
vt 0.038574 0.992321
vt 0.834473 0.992321
vt 0.827637 0.950897
vt 0.909180 0.991714
vt 0.968262 0.991714
vt 0.968262 0.925415
vt 0.909180 0.925415
vt 0.909180 0.991714
vt 0.968262 0.925415
vt 0.909180 0.925415
vt 0.968262 0.925415
vt 0.909180 0.486816
vt 0.968262 0.925415
vt 0.968262 0.486816
vt 0.909180 0.486816
vt 0.909180 0.486816
vt 0.968262 0.486816
vt 0.968262 0.420410
vt 0.909180 0.420410
vt 0.909180 0.486816
vt 0.968262 0.420410
vt 0.945313 0.406250
vt 0.983398 0.406250
vt 0.944824 0.151855
vt 0.983398 0.406250
vt 0.983398 0.151855
vt 0.944824 0.151855
vt 0.920898 0.406250
vt 0.921387 0.151855
vt 0.883301 0.406250
vt 0.921387 0.151855
vt 0.883301 0.151855
vt 0.883301 0.406250
vn 0.526419 -0.667319 -0.526419
vn 0.696673 -0.180039 -0.694716
vn -0.526419 -0.667319 -0.526419
vn 0.696673 -0.180039 -0.694716
vn -0.696673 -0.180039 -0.694716
vn -0.526419 -0.667319 -0.526419
vn 0.696673 -0.180039 0.694716
vn 0.696673 -0.180039 -0.694716
vn 0.526419 -0.667319 0.526419
vn 0.696673 -0.180039 -0.694716
vn 0.526419 -0.667319 -0.526419
vn 0.526419 -0.667319 0.526419
vn 0.000000 1.000000 0.000000
vn 0.000000 1.000000 0.000000
vn 0.000000 1.000000 0.000000
vn 0.000000 1.000000 0.000000
vn 0.000000 1.000000 0.000000
vn 0.000000 1.000000 0.000000
vn -0.696673 -0.180039 -0.694716
vn -0.696673 -0.180039 0.694716
vn -0.526419 -0.667319 -0.526419
vn -0.696673 -0.180039 0.694716
vn -0.526419 -0.667319 0.526419
vn -0.526419 -0.667319 -0.526419
vn -0.526419 -0.667319 -0.526419
vn -0.526419 -0.667319 0.526419
vn 0.526419 -0.667319 0.526419
vn 0.526419 -0.667319 -0.526419
vn -0.526419 -0.667319 -0.526419
vn 0.526419 -0.667319 0.526419
vn -0.526419 -0.667319 0.526419
vn -0.696673 -0.180039 0.694716
vn 0.526419 -0.667319 0.526419
vn -0.696673 -0.180039 0.694716
vn 0.696673 -0.180039 0.694716
vn 0.526419 -0.667319 0.526419
vn -0.706458 0.000000 0.706458
vn 0.706458 0.000000 0.706458
vn 0.577299 -0.577299 0.577299
vn -0.577299 -0.577299 0.577299
vn -0.706458 0.000000 0.706458
vn 0.577299 -0.577299 0.577299
vn -0.577299 -0.577299 0.577299
vn 0.577299 -0.577299 0.577299
vn -0.577299 -0.577299 -0.577299
vn 0.577299 -0.577299 0.577299
vn 0.577299 -0.577299 -0.577299
vn -0.577299 -0.577299 -0.577299
vn -0.577299 -0.577299 -0.577299
vn 0.577299 -0.577299 -0.577299
vn 0.706458 0.000000 -0.706458
vn -0.706458 0.000000 -0.706458
vn -0.577299 -0.577299 -0.577299
vn 0.706458 0.000000 -0.706458
vn 0.577299 -0.577299 0.577299
vn 0.706458 0.000000 0.706458
vn 0.577299 -0.577299 -0.577299
vn 0.706458 0.000000 0.706458
vn 0.706458 0.000000 -0.706458
vn 0.577299 -0.577299 -0.577299
vn -0.577299 -0.577299 0.577299
vn -0.577299 -0.577299 -0.577299
vn -0.706458 0.000000 0.706458
vn -0.577299 -0.577299 -0.577299
vn -0.706458 0.000000 -0.706458
vn -0.706458 0.000000 0.706458
mtllib mtl_p6_con_locker_door.mtl
g mtl_p6_con_locker_door
usemtl mtl_p6_con_locker_door
f 3/3/3 2/2/2 1/1/1
f 6/6/6 5/5/5 4/4/4
f 9/9/9 8/8/8 7/7/7
f 12/12/12 11/11/11 10/10/10
f 15/15/15 14/14/14 13/13/13
f 18/18/18 17/17/17 16/16/16
f 21/21/21 20/20/20 19/19/19
f 24/24/24 23/23/23 22/22/22
f 27/27/27 26/26/26 25/25/25
f 30/30/30 29/29/29 28/28/28
f 33/33/33 32/32/32 31/31/31
f 36/36/36 35/35/35 34/34/34
f 39/39/39 38/38/38 37/37/37
f 42/42/42 41/41/41 40/40/40
f 45/45/45 44/44/44 43/43/43
f 48/48/48 47/47/47 46/46/46
f 51/51/51 50/50/50 49/49/49
f 54/54/54 53/53/53 52/52/52
f 57/57/57 56/56/56 55/55/55
f 60/60/60 59/59/59 58/58/58
f 63/63/63 62/62/62 61/61/61
f 66/66/66 65/65/65 64/64/64
