# Generated by Wraith - Game extraction tools
# Please credit DTZxPorter for using it!

v 15.413942 11.600840 0.000000
v 13.162065 9.580755 16.804905
v -5.047676 15.175273 18.175823
v -6.109782 17.983852 0.000000
v 15.413942 11.600840 0.000000
v -5.047676 15.175273 18.175823
v -5.047676 15.175273 18.175823
v -16.063904 0.000000 18.421637
v -6.109782 17.983852 0.000000
v -19.235182 0.000000 0.000000
v -6.109782 17.983852 0.000000
v -16.063904 0.000000 18.421637
v -19.235182 0.000000 0.000000
v -16.063904 0.000000 18.421637
v -6.109782 -18.469170 0.000000
v -16.063904 0.000000 18.421637
v -5.047676 -15.349382 17.927092
v -6.109782 -18.469170 0.000000
v -6.109782 -18.469170 0.000000
v -5.047676 -15.349382 17.927092
v 15.926857 -11.600843 0.000000
v -5.047676 -15.349382 17.927092
v 13.174002 -9.580755 16.612926
v 15.926857 -11.600843 0.000000
v 15.926857 -11.600843 0.000000
v 13.174002 -9.580755 16.612926
v 15.413942 11.600840 0.000000
v 13.174002 -9.580755 16.612926
v 13.162065 9.580755 16.804905
v 15.413942 11.600840 0.000000
v 32.844273 23.699448 113.532349
v -13.138423 36.676159 115.386414
v 43.411304 30.796036 46.891701
v -17.295765 49.442429 49.885471
v 43.411304 30.796036 46.891701
v -13.138423 36.676159 115.386414
v -17.295765 49.442429 49.885471
v -13.138423 36.676159 115.386414
v -54.169407 -0.000003 48.200985
v -13.138423 36.676159 115.386414
v -40.207779 -0.000003 114.890396
v -54.169407 -0.000003 48.200985
v -54.169407 -0.000003 48.200985
v -40.207779 -0.000003 114.890396
v -17.372505 -53.433662 49.827374
v -40.207779 -0.000003 114.890396
v -13.180203 -39.443542 117.155373
v -17.372505 -53.433662 49.827374
v -13.180203 -39.443542 117.155373
v 32.384689 -24.762669 114.998505
v -17.372505 -53.433662 49.827374
v 40.516518 -33.023846 46.395065
v -17.372505 -53.433662 49.827374
v 32.384689 -24.762669 114.998505
v 40.516518 -33.023846 46.395065
v 32.384689 -24.762669 114.998505
v 43.411304 30.796036 46.891701
v 32.384689 -24.762669 114.998505
v 32.844273 23.699448 113.532349
v 43.411304 30.796036 46.891701
v 43.411304 30.796036 46.891701
v -17.295765 49.442429 49.885471
v 13.162065 9.580755 16.804905
v -5.047676 15.175273 18.175823
v 13.162065 9.580755 16.804905
v -17.295765 49.442429 49.885471
v -5.047676 15.175273 18.175823
v -17.295765 49.442429 49.885471
v -16.063904 0.000000 18.421637
v -17.295765 49.442429 49.885471
v -54.169407 -0.000003 48.200985
v -16.063904 0.000000 18.421637
v -54.169407 -0.000003 48.200985
v -17.372505 -53.433662 49.827374
v -16.063904 0.000000 18.421637
v -5.047676 -15.349382 17.927092
v -16.063904 0.000000 18.421637
v -17.372505 -53.433662 49.827374
v -17.372505 -53.433662 49.827374
v 40.516518 -33.023846 46.395065
v -5.047676 -15.349382 17.927092
v 13.174002 -9.580755 16.612926
v -5.047676 -15.349382 17.927092
v 40.516518 -33.023846 46.395065
v 40.516518 -33.023846 46.395065
v 43.411304 30.796036 46.891701
v 13.174002 -9.580755 16.612926
v 13.162065 9.580755 16.804905
v 13.174002 -9.580755 16.612926
v 43.411304 30.796036 46.891701
v -0.010775 0.000000 132.015900
v 32.384689 -24.762669 114.998505
v -13.180203 -39.443542 117.155373
v -0.010775 0.000000 132.015900
v 32.844273 23.699448 113.532349
v 32.384689 -24.762669 114.998505
v -0.010775 0.000000 132.015900
v -13.138423 36.676159 115.386414
v 32.844273 23.699448 113.532349
v -0.010775 0.000000 132.015900
v -40.207779 -0.000003 114.890396
v -13.138423 36.676159 115.386414
v -0.010775 0.000000 132.015900
v -13.180203 -39.443542 117.155373
v -40.207779 -0.000003 114.890396
vt 0.125488 0.003906
vt 0.125488 0.149414
vt 0.300293 0.149414
vt 0.300293 0.003906
vt 0.125488 0.003906
vt 0.300293 0.149414
vt 0.300293 0.149414
vt 0.475098 0.149414
vt 0.300293 0.003906
vt 0.475098 0.003906
vt 0.300293 0.003906
vt 0.475098 0.149414
vt 0.475098 0.003906
vt 0.475098 0.149414
vt 0.649414 0.003906
vt 0.475098 0.149414
vt 0.649414 0.149414
vt 0.649414 0.003906
vt 0.649414 0.003906
vt 0.649414 0.149414
vt 0.824219 0.003906
vt 0.649414 0.149414
vt 0.824219 0.149414
vt 0.824219 0.003906
vt 0.824219 0.003906
vt 0.824219 0.149414
vt 0.999023 0.003906
vt 0.824219 0.149414
vt 0.999023 0.149414
vt 0.999023 0.003906
vt -0.692871 0.614746
vt -0.294922 0.614746
vt -0.692871 0.208496
vt -0.294922 0.208496
vt -0.692871 0.208496
vt -0.294922 0.614746
vt -0.294922 0.208496
vt -0.294922 0.614746
vt 0.102783 0.208496
vt -0.294922 0.614746
vt 0.102783 0.614746
vt 0.102783 0.208496
vt 0.102783 0.208496
vt 0.102783 0.614746
vt 0.500488 0.208496
vt 0.102783 0.614746
vt 0.500488 0.614746
vt 0.500488 0.208496
vt 0.500488 0.614746
vt 0.898438 0.614746
vt 0.500488 0.208496
vt 0.898438 0.208496
vt 0.500488 0.208496
vt 0.898438 0.614746
vt 0.898438 0.208496
vt 0.898438 0.614746
vt 1.295898 0.208496
vt 0.898438 0.614746
vt 1.295898 0.614746
vt 1.295898 0.208496
vt 1.315430 0.553467
vt 1.712891 0.553467
vt 1.315430 0.212402
vt 1.712891 0.212402
vt 1.315430 0.212402
vt 1.712891 0.553467
vt 1.712891 0.212402
vt 1.712891 0.553467
vt 2.109375 0.212402
vt 1.712891 0.553467
vt 2.109375 0.553467
vt 2.109375 0.212402
vt 2.109375 0.553467
vt 2.507813 0.553467
vt 2.109375 0.212402
vt 2.507813 0.212402
vt 2.109375 0.212402
vt 2.507813 0.553467
vt 2.507813 0.553467
vt 2.906250 0.553467
vt 2.507813 0.212402
vt 2.906250 0.212402
vt 2.507813 0.212402
vt 2.906250 0.553467
vt 2.906250 0.553467
vt 3.304688 0.553467
vt 2.906250 0.212402
vt 3.304688 0.212402
vt 2.906250 0.212402
vt 3.304688 0.553467
vt 3.654297 0.536133
vt 3.867188 0.381836
vt 3.574219 0.286621
vt 3.654297 0.536133
vt 3.867188 0.690186
vt 3.867188 0.381836
vt 3.654297 0.536133
vt 3.574219 0.785522
vt 3.867188 0.690186
vt 3.654297 0.536133
vt 3.392578 0.536133
vt 3.574219 0.785522
vt 3.654297 0.536133
vt 3.574219 0.286621
vt 3.392578 0.536133
vn 0.708415 0.514677 0.481409
vn 0.500978 0.363992 -0.784736
vn -0.191781 0.589041 -0.784736
vn -0.270059 0.833659 0.481409
vn 0.708415 0.514677 0.481409
vn -0.191781 0.589041 -0.784736
vn -0.191781 0.589041 -0.784736
vn -0.620352 0.000000 -0.784736
vn -0.270059 0.833659 0.481409
vn -0.876712 0.000000 0.481409
vn -0.270059 0.833659 0.481409
vn -0.620352 0.000000 -0.784736
vn -0.876712 0.000000 0.481409
vn -0.620352 0.000000 -0.784736
vn -0.270059 -0.833659 0.481409
vn -0.620352 0.000000 -0.784736
vn -0.191781 -0.589041 -0.784736
vn -0.270059 -0.833659 0.481409
vn -0.270059 -0.833659 0.481409
vn -0.191781 -0.589041 -0.784736
vn 0.708415 -0.514677 0.481409
vn -0.191781 -0.589041 -0.784736
vn 0.500978 -0.363992 -0.784736
vn 0.708415 -0.514677 0.481409
vn 0.708415 -0.514677 0.481409
vn 0.500978 -0.363992 -0.784736
vn 0.708415 0.514677 0.481409
vn 0.500978 -0.363992 -0.784736
vn 0.500978 0.363992 -0.784736
vn 0.708415 0.514677 0.481409
vn 0.755382 0.549902 0.356164
vn -0.289628 0.888454 0.356164
vn 0.786693 0.571429 -0.234834
vn -0.289628 0.892368 -0.346380
vn 0.786693 0.571429 -0.234834
vn -0.289628 0.888454 0.356164
vn -0.289628 0.892368 -0.346380
vn -0.289628 0.888454 0.356164
vn -0.972603 0.000000 -0.234834
vn -0.289628 0.888454 0.356164
vn -0.935421 0.000000 0.356164
vn -0.972603 0.000000 -0.234834
vn -0.972603 0.000000 -0.234834
vn -0.935421 0.000000 0.356164
vn -0.301370 -0.923679 -0.234834
vn -0.935421 0.000000 0.356164
vn -0.289628 -0.888454 0.356164
vn -0.301370 -0.923679 -0.234834
vn -0.289628 -0.888454 0.356164
vn 0.755382 -0.549902 0.356164
vn -0.301370 -0.923679 -0.234834
vn 0.786693 -0.571429 -0.234834
vn -0.301370 -0.923679 -0.234834
vn 0.755382 -0.549902 0.356164
vn 0.786693 -0.571429 -0.234834
vn 0.755382 -0.549902 0.356164
vn 0.786693 0.571429 -0.234834
vn 0.755382 -0.549902 0.356164
vn 0.755382 0.549902 0.356164
vn 0.786693 0.571429 -0.234834
vn 0.786693 0.571429 -0.234834
vn -0.289628 0.892368 -0.346380
vn 0.500978 0.363992 -0.784736
vn -0.191781 0.589041 -0.784736
vn 0.500978 0.363992 -0.784736
vn -0.289628 0.892368 -0.346380
vn -0.191781 0.589041 -0.784736
vn -0.289628 0.892368 -0.346380
vn -0.620352 0.000000 -0.784736
vn -0.289628 0.892368 -0.346380
vn -0.972603 0.000000 -0.234834
vn -0.620352 0.000000 -0.784736
vn -0.972603 0.000000 -0.234834
vn -0.301370 -0.923679 -0.234834
vn -0.620352 0.000000 -0.784736
vn -0.191781 -0.589041 -0.784736
vn -0.620352 0.000000 -0.784736
vn -0.301370 -0.923679 -0.234834
vn -0.301370 -0.923679 -0.234834
vn 0.786693 -0.571429 -0.234834
vn -0.191781 -0.589041 -0.784736
vn 0.500978 -0.363992 -0.784736
vn -0.191781 -0.589041 -0.784736
vn 0.786693 -0.571429 -0.234834
vn 0.786693 -0.571429 -0.234834
vn 0.786693 0.571429 -0.234834
vn 0.500978 -0.363992 -0.784736
vn 0.500978 0.363992 -0.784736
vn 0.500978 -0.363992 -0.784736
vn 0.786693 0.571429 -0.234834
vn 0.000000 0.000000 1.000000
vn 0.581213 -0.422701 0.694716
vn -0.221135 -0.682975 0.694716
vn 0.000000 0.000000 1.000000
vn 0.581213 0.422701 0.694716
vn 0.581213 -0.422701 0.694716
vn 0.000000 0.000000 1.000000
vn -0.221135 0.682975 0.694716
vn 0.581213 0.422701 0.694716
vn 0.000000 0.000000 1.000000
vn -0.718200 0.000000 0.694716
vn -0.221135 0.682975 0.694716
vn 0.000000 0.000000 1.000000
vn -0.221135 -0.682975 0.694716
vn -0.718200 0.000000 0.694716
mtllib mtl_hedges_noalpha.mtl
g mtl_hedges_noalpha
usemtl mtl_hedges_noalpha
f 3/3/3 2/2/2 1/1/1
f 6/6/6 5/5/5 4/4/4
f 9/9/9 8/8/8 7/7/7
f 12/12/12 11/11/11 10/10/10
f 15/15/15 14/14/14 13/13/13
f 18/18/18 17/17/17 16/16/16
f 21/21/21 20/20/20 19/19/19
f 24/24/24 23/23/23 22/22/22
f 27/27/27 26/26/26 25/25/25
f 30/30/30 29/29/29 28/28/28
f 33/33/33 32/32/32 31/31/31
f 36/36/36 35/35/35 34/34/34
f 39/39/39 38/38/38 37/37/37
f 42/42/42 41/41/41 40/40/40
f 45/45/45 44/44/44 43/43/43
f 48/48/48 47/47/47 46/46/46
f 51/51/51 50/50/50 49/49/49
f 54/54/54 53/53/53 52/52/52
f 57/57/57 56/56/56 55/55/55
f 60/60/60 59/59/59 58/58/58
f 63/63/63 62/62/62 61/61/61
f 66/66/66 65/65/65 64/64/64
f 69/69/69 68/68/68 67/67/67
f 72/72/72 71/71/71 70/70/70
f 75/75/75 74/74/74 73/73/73
f 78/78/78 77/77/77 76/76/76
f 81/81/81 80/80/80 79/79/79
f 84/84/84 83/83/83 82/82/82
f 87/87/87 86/86/86 85/85/85
f 90/90/90 89/89/89 88/88/88
f 93/93/93 92/92/92 91/91/91
f 96/96/96 95/95/95 94/94/94
f 99/99/99 98/98/98 97/97/97
f 102/102/102 101/101/101 100/100/100
f 105/105/105 104/104/104 103/103/103
