# Generated by Wraith - Game extraction tools
# Please credit DTZxPorter for using it!

v -10.829494 -33.686306 0.000000
v -10.829494 23.773108 0.000000
v -10.829494 -33.686306 44.295547
v -10.829494 -33.686306 44.295547
v -10.829494 23.773108 0.000000
v -10.829494 23.773108 44.295547
v -39.559174 -4.956599 0.000000
v 17.900225 -4.956599 0.000000
v -39.559174 -4.956599 44.295547
v -39.559174 -4.956599 44.295547
v 17.900225 -4.956599 0.000000
v 17.900225 -4.956599 44.295547
v 42.129326 15.858551 0.000000
v -15.330033 15.858551 0.000000
v 42.129326 15.858551 44.295547
v 42.129326 15.858551 44.295547
v -15.330033 15.858551 0.000000
v -15.330033 15.858551 44.295547
v 13.399609 -12.871155 0.000000
v 13.399609 44.588261 0.000000
v 13.399609 -12.871155 44.295547
v 13.399609 -12.871155 44.295547
v 13.399609 44.588261 0.000000
v 13.399609 44.588261 44.295547
v -3.363942 -26.860415 0.000000
v 37.266018 13.769526 0.000000
v -3.363942 -26.860415 44.295547
v -3.363942 -26.860415 44.295547
v 37.266018 13.769526 0.000000
v 37.266018 13.769526 44.295547
v -3.363942 13.769526 0.000000
v 37.266018 -26.860415 0.000000
v -3.363942 13.769526 44.295547
v -3.363942 13.769526 44.295547
v 37.266018 -26.860415 0.000000
v 37.266018 -26.860415 44.295547
vt 0.376953 0.000000
vt 0.000000 0.000000
vt 0.376953 0.291016
vt 0.376953 0.291016
vt 0.000000 0.000000
vt 0.000000 0.291016
vt 0.376953 0.000000
vt 0.000000 0.000000
vt 0.376953 0.291016
vt 0.376953 0.291016
vt 0.000000 0.000000
vt 0.000000 0.291016
vt 0.376953 0.000000
vt 0.000000 0.000000
vt 0.376953 0.291016
vt 0.376953 0.291016
vt 0.000000 0.000000
vt 0.000000 0.291016
vt 0.376953 0.000000
vt 0.000000 0.000000
vt 0.376953 0.291016
vt 0.376953 0.291016
vt 0.000000 0.000000
vt 0.000000 0.291016
vt 0.376953 0.000000
vt 0.000000 0.000000
vt 0.376953 0.291016
vt 0.376953 0.291016
vt 0.000000 0.000000
vt 0.000000 0.291016
vt 0.376953 0.000000
vt 0.000000 0.000000
vt 0.376953 0.291016
vt 0.376953 0.291016
vt 0.000000 0.000000
vt 0.000000 0.291016
vn -1.000000 0.000000 0.000000
vn -1.000000 0.000000 0.000000
vn -1.000000 0.000000 0.000000
vn -1.000000 0.000000 0.000000
vn -1.000000 0.000000 0.000000
vn -1.000000 0.000000 0.000000
vn 0.000000 1.000000 0.000000
vn 0.000000 1.000000 0.000000
vn 0.000000 1.000000 0.000000
vn 0.000000 1.000000 0.000000
vn 0.000000 1.000000 0.000000
vn 0.000000 1.000000 0.000000
vn 0.000000 -1.000000 0.000000
vn 0.000000 -1.000000 0.000000
vn 0.000000 -1.000000 0.000000
vn 0.000000 -1.000000 0.000000
vn 0.000000 -1.000000 0.000000
vn 0.000000 -1.000000 0.000000
vn -1.000000 0.000000 0.000000
vn -1.000000 0.000000 0.000000
vn -1.000000 0.000000 0.000000
vn -1.000000 0.000000 0.000000
vn -1.000000 0.000000 0.000000
vn -1.000000 0.000000 0.000000
vn -0.706458 0.706458 0.000000
vn -0.706458 0.706458 0.000000
vn -0.706458 0.706458 0.000000
vn -0.706458 0.706458 0.000000
vn -0.706458 0.706458 0.000000
vn -0.706458 0.706458 0.000000
vn 0.706458 0.706458 0.000000
vn 0.706458 0.706458 0.000000
vn 0.706458 0.706458 0.000000
vn 0.706458 0.706458 0.000000
vn 0.706458 0.706458 0.000000
vn 0.706458 0.706458 0.000000
mtllib mtl_gardenflowers.mtl
g mtl_gardenflowers
usemtl mtl_gardenflowers
f 3/3/3 2/2/2 1/1/1
f 6/6/6 5/5/5 4/4/4
f 9/9/9 8/8/8 7/7/7
f 12/12/12 11/11/11 10/10/10
f 15/15/15 14/14/14 13/13/13
f 18/18/18 17/17/17 16/16/16
f 21/21/21 20/20/20 19/19/19
f 24/24/24 23/23/23 22/22/22
f 27/27/27 26/26/26 25/25/25
f 30/30/30 29/29/29 28/28/28
f 33/33/33 32/32/32 31/31/31
f 36/36/36 35/35/35 34/34/34
