# Generated by Wraith - Game extraction tools
# Please credit DTZxPorter for using it!

v -161.584747 51.837673 230.414886
v 154.362091 54.067318 234.649139
v 154.362091 -54.067329 232.608490
v -159.355118 -51.837685 233.945129
v -161.584747 51.837673 230.414886
v 154.362091 -54.067329 232.608490
v -139.894699 30.267712 44.323273
v -161.584747 51.837673 230.414886
v -159.355118 -51.837685 233.945129
v -139.894699 30.267712 44.323273
v -159.355118 -51.837685 233.945129
v -139.894714 -30.562170 44.323273
v 136.762283 30.267712 44.323273
v 154.362091 54.067318 234.649139
v -161.584747 51.837673 230.414886
v 136.762283 30.267712 44.323273
v -161.584747 51.837673 230.414886
v -139.894699 30.267712 44.323273
v -139.894714 -30.562170 44.323273
v -159.355118 -51.837685 233.945129
v 154.362091 -54.067329 232.608490
v -139.894714 -30.562170 44.323273
v 154.362091 -54.067329 232.608490
v 136.762314 -30.562170 44.323273
v 136.762314 -30.562170 44.323273
v 154.362091 -54.067329 232.608490
v 154.362091 54.067318 234.649139
v 136.762314 -30.562170 44.323273
v 154.362091 54.067318 234.649139
v 136.762283 30.267712 44.323273
vt 0.660156 0.790405
vt 3.337891 0.785156
vt 2.656250 0.147461
vt 0.677246 0.090820
vt 0.660156 0.790405
vt 2.656250 0.147461
vt 0.429199 -0.015625
vt 0.487305 1.180176
vt -0.217773 1.193115
vt 0.429199 -0.015625
vt -0.217773 1.193115
vt -0.158936 -0.004883
vt -0.418945 0.158691
vt -0.403809 1.225830
vt -2.738281 1.225342
vt -0.418945 0.158691
vt -2.738281 1.225342
vt -2.738281 -0.036133
vt -2.738281 -0.037109
vt -2.726563 1.241333
vt -0.412842 0.905762
vt -2.738281 -0.037109
vt -0.412842 0.905762
vt -0.390137 -0.037109
vt -0.362793 0.077637
vt -0.254395 1.078613
vt 0.548828 1.538086
vt -0.362793 0.077637
vt 0.548828 1.538086
vt 0.454102 -0.214844
vn -0.567515 0.178082 0.804305
vn 0.536204 0.191781 0.821918
vn 0.540117 -0.191781 0.819961
vn -0.551859 -0.181996 0.814090
vn -0.567515 0.178082 0.804305
vn 0.540117 -0.191781 0.819961
vn -0.947162 0.178082 0.264188
vn -0.567515 0.178082 0.804305
vn -0.551859 -0.181996 0.814090
vn -0.947162 0.178082 0.264188
vn -0.551859 -0.181996 0.814090
vn -0.947162 -0.178082 0.264188
vn 0.947162 0.180039 0.266145
vn 0.536204 0.191781 0.821918
vn -0.567515 0.178082 0.804305
vn 0.947162 0.180039 0.266145
vn -0.567515 0.178082 0.804305
vn -0.947162 0.178082 0.264188
vn -0.947162 -0.178082 0.264188
vn -0.551859 -0.181996 0.814090
vn 0.540117 -0.191781 0.819961
vn -0.947162 -0.178082 0.264188
vn 0.540117 -0.191781 0.819961
vn 0.947162 -0.180039 0.266145
vn 0.947162 -0.180039 0.266145
vn 0.540117 -0.191781 0.819961
vn 0.536204 0.191781 0.821918
vn 0.947162 -0.180039 0.266145
vn 0.536204 0.191781 0.821918
vn 0.947162 0.180039 0.266145
mtllib mtl_p6_foliage_hedge2.mtl
g mtl_p6_foliage_hedge2
usemtl mtl_p6_foliage_hedge2
f 3/3/3 2/2/2 1/1/1
f 6/6/6 5/5/5 4/4/4
f 9/9/9 8/8/8 7/7/7
f 12/12/12 11/11/11 10/10/10
f 15/15/15 14/14/14 13/13/13
f 18/18/18 17/17/17 16/16/16
f 21/21/21 20/20/20 19/19/19
f 24/24/24 23/23/23 22/22/22
f 27/27/27 26/26/26 25/25/25
f 30/30/30 29/29/29 28/28/28
