# Generated by Wraith - Game extraction tools
# Please credit DTZxPorter for using it!

v -31.632786 54.043106 80.510925
v -63.281891 -0.774758 80.510925
v -54.801556 30.874340 80.510925
v -63.281891 -0.774758 80.510925
v -31.632786 54.043106 80.510925
v -31.632795 -55.592628 80.510925
v -63.281891 -0.774758 80.510925
v -31.632795 -55.592628 80.510925
v -54.801556 -32.423862 80.510925
v -31.632786 54.043106 80.510925
v 63.314510 -0.774761 80.510925
v -31.632795 -55.592628 80.510925
v 31.665411 -55.592628 80.510925
v -31.632795 -55.592628 80.510925
v 63.314510 -0.774761 80.510925
v -31.632795 -55.592628 80.510925
v 31.665411 -55.592628 80.510925
v 0.016309 -64.072960 80.510925
v 63.314510 -0.774761 80.510925
v -31.632786 54.043106 80.510925
v 31.665417 54.043106 80.510925
v 54.834175 30.874338 80.510925
v 63.314510 -0.774761 80.510925
v 31.665417 54.043106 80.510925
v 31.665417 54.043106 80.510925
v -31.632786 54.043106 80.510925
v 0.016312 62.523438 80.510925
v 54.834175 -32.423862 80.510925
v 31.665411 -55.592628 80.510925
v 63.314510 -0.774761 80.510925
v 53.145691 31.066969 0.000000
v 61.492554 -0.083960 0.000000
v 54.834175 30.874338 80.510925
v 61.492554 -0.083960 0.000000
v 63.314510 -0.774761 80.510925
v 54.834175 30.874338 80.510925
v 61.492554 -0.083960 0.000000
v 53.145691 -31.234900 0.000000
v 63.314510 -0.774761 80.510925
v 53.145691 -31.234900 0.000000
v 54.834175 -32.423862 80.510925
v 63.314510 -0.774761 80.510925
v 54.834175 -32.423862 80.510925
v 53.145691 -31.234900 0.000000
v 31.665411 -55.592628 80.510925
v 53.145691 -31.234900 0.000000
v 30.341606 -54.038975 0.000000
v 31.665411 -55.592628 80.510925
v 31.665411 -55.592628 80.510925
v 30.341606 -54.038975 0.000000
v 0.016309 -64.072960 80.510925
v 30.341606 -54.038975 0.000000
v -0.809330 -62.385826 0.000000
v 0.016309 -64.072960 80.510925
v 0.016309 -64.072960 80.510925
v -0.809330 -62.385826 0.000000
v -31.632795 -55.592628 80.510925
v -0.809330 -62.385826 0.000000
v -31.960272 -54.038975 0.000000
v -31.632795 -55.592628 80.510925
v -54.801556 -32.423862 80.510925
v -31.632795 -55.592628 80.510925
v -31.960272 -54.038975 0.000000
v -54.764339 -31.234890 0.000000
v -54.801556 -32.423862 80.510925
v -31.960272 -54.038975 0.000000
v -63.281891 -0.774758 80.510925
v -54.801556 -32.423862 80.510925
v -54.764339 -31.234890 0.000000
v -63.111210 -0.083957 0.000000
v -63.281891 -0.774758 80.510925
v -54.764339 -31.234890 0.000000
v -54.801556 30.874340 80.510925
v -63.281891 -0.774758 80.510925
v -63.111210 -0.083957 0.000000
v -54.764339 31.066977 0.000000
v -54.801556 30.874340 80.510925
v -63.111210 -0.083957 0.000000
v -54.764339 31.066977 0.000000
v -31.960258 53.871063 0.000000
v -54.801556 30.874340 80.510925
v -31.960258 53.871063 0.000000
v -31.632786 54.043106 80.510925
v -54.801556 30.874340 80.510925
v -31.960258 53.871063 0.000000
v -0.809325 62.217907 0.000000
v -31.632786 54.043106 80.510925
v -0.809325 62.217907 0.000000
v 0.016312 62.523438 80.510925
v -31.632786 54.043106 80.510925
v -0.809325 62.217907 0.000000
v 30.341610 53.871063 0.000000
v 0.016312 62.523438 80.510925
v 30.341610 53.871063 0.000000
v 31.665417 54.043106 80.510925
v 0.016312 62.523438 80.510925
v 30.341610 53.871063 0.000000
v 53.145691 31.066969 0.000000
v 31.665417 54.043106 80.510925
v 53.145691 31.066969 0.000000
v 54.834175 30.874338 80.510925
v 31.665417 54.043106 80.510925
vt -0.238037 1.248169
vt -0.363037 1.031525
vt -0.329590 1.156616
vt -0.363037 1.031525
vt -0.238037 1.248169
vt -0.238037 0.814819
vt -0.363037 1.031525
vt -0.238037 0.814819
vt -0.329590 0.906433
vt -0.238037 1.248169
vt 0.137207 1.031525
vt -0.238037 0.814819
vt 0.012161 0.814819
vt -0.238037 0.814819
vt 0.137207 1.031525
vt -0.238037 0.814819
vt 0.012161 0.814819
vt -0.112915 0.781250
vt 0.137207 1.031525
vt -0.238037 1.248169
vt 0.012161 1.248169
vt 0.103760 1.156616
vt 0.137207 1.031525
vt 0.012161 1.248169
vt 0.012161 1.248169
vt -0.238037 1.248169
vt -0.112915 1.281738
vt 0.103760 0.906433
vt 0.012161 0.814819
vt 0.137207 1.031525
vt -1.725586 0.447266
vt -1.830078 0.447266
vt -1.725586 0.753296
vt -1.830078 0.447266
vt -1.830078 0.753296
vt -1.725586 0.753296
vt -1.830078 0.447266
vt -1.935547 0.447266
vt -1.830078 0.753296
vt -1.935547 0.447266
vt -1.935547 0.753296
vt -1.830078 0.753296
vt -1.935547 0.753296
vt -1.935547 0.447266
vt -2.041016 0.753296
vt -1.935547 0.447266
vt -2.041016 0.447266
vt -2.041016 0.753296
vt -2.041016 0.753296
vt -2.041016 0.447266
vt -2.146484 0.753296
vt -2.041016 0.447266
vt -2.146484 0.447266
vt -2.146484 0.753296
vt -2.146484 0.753296
vt -2.146484 0.447266
vt -2.251953 0.753296
vt -2.146484 0.447266
vt -2.251953 0.447266
vt -2.251953 0.753296
vt -2.357422 0.753296
vt -2.251953 0.753296
vt -2.251953 0.447266
vt -2.357422 0.447266
vt -2.357422 0.753296
vt -2.251953 0.447266
vt -2.462891 0.753296
vt -2.357422 0.753296
vt -2.357422 0.447266
vt -2.462891 0.447266
vt -2.462891 0.753296
vt -2.357422 0.447266
vt -2.568359 0.753296
vt -2.462891 0.753296
vt -2.462891 0.447266
vt -2.568359 0.447266
vt -2.568359 0.753296
vt -2.462891 0.447266
vt -2.568359 0.447266
vt -2.673828 0.447266
vt -2.568359 0.753296
vt -2.673828 0.447266
vt -2.673828 0.753296
vt -2.568359 0.753296
vt -2.673828 0.447266
vt -2.779297 0.447266
vt -2.673828 0.753296
vt -2.779297 0.447266
vt -2.779297 0.753296
vt -2.673828 0.753296
vt -2.779297 0.447266
vt -2.884766 0.447266
vt -2.779297 0.753296
vt -2.884766 0.447266
vt -2.884766 0.753296
vt -2.779297 0.753296
vt -2.884766 0.447266
vt -2.990234 0.447266
vt -2.884766 0.753296
vt -2.990234 0.447266
vt -2.990234 0.753296
vt -2.884766 0.753296
vn -0.056751 0.099804 0.994129
vn -0.115460 0.001957 0.994129
vn -0.099804 0.056751 0.994129
vn -0.115460 0.001957 0.994129
vn -0.056751 0.099804 0.994129
vn -0.056751 -0.099804 0.994129
vn -0.115460 0.001957 0.994129
vn -0.056751 -0.099804 0.994129
vn -0.099804 -0.056751 0.994129
vn -0.056751 0.099804 0.994129
vn 0.115460 0.001957 0.994129
vn -0.056751 -0.099804 0.994129
vn 0.056751 -0.099804 0.994129
vn -0.056751 -0.099804 0.994129
vn 0.115460 0.001957 0.994129
vn -0.056751 -0.099804 0.994129
vn 0.056751 -0.099804 0.994129
vn 0.001957 -0.115460 0.994129
vn 0.115460 0.001957 0.994129
vn -0.056751 0.099804 0.994129
vn 0.056751 0.099804 0.994129
vn 0.099804 0.056751 0.994129
vn 0.115460 0.001957 0.994129
vn 0.056751 0.099804 0.994129
vn 0.056751 0.099804 0.994129
vn -0.056751 0.099804 0.994129
vn 0.001957 0.115460 0.994129
vn 0.099804 -0.056751 0.994129
vn 0.056751 -0.099804 0.994129
vn 0.115460 0.001957 0.994129
vn 0.213307 0.113503 0.970646
vn 1.000000 0.000000 -0.023483
vn 0.099804 0.056751 0.994129
vn 1.000000 0.000000 -0.023483
vn 0.115460 0.001957 0.994129
vn 0.099804 0.056751 0.994129
vn 1.000000 0.000000 -0.023483
vn 0.864971 -0.499022 -0.025440
vn 0.115460 0.001957 0.994129
vn 0.864971 -0.499022 -0.025440
vn 0.099804 -0.056751 0.994129
vn 0.115460 0.001957 0.994129
vn 0.099804 -0.056751 0.994129
vn 0.864971 -0.499022 -0.025440
vn 0.056751 -0.099804 0.994129
vn 0.864971 -0.499022 -0.025440
vn 0.499022 -0.864971 -0.025440
vn 0.056751 -0.099804 0.994129
vn 0.056751 -0.099804 0.994129
vn 0.499022 -0.864971 -0.025440
vn 0.001957 -0.115460 0.994129
vn 0.499022 -0.864971 -0.025440
vn 0.000000 -1.000000 -0.021526
vn 0.001957 -0.115460 0.994129
vn 0.001957 -0.115460 0.994129
vn 0.000000 -1.000000 -0.021526
vn -0.056751 -0.099804 0.994129
vn 0.000000 -1.000000 -0.021526
vn -0.117417 -0.217221 0.968689
vn -0.056751 -0.099804 0.994129
vn -0.099804 -0.056751 0.994129
vn -0.056751 -0.099804 0.994129
vn -0.117417 -0.217221 0.968689
vn -0.217221 -0.119374 0.968689
vn -0.099804 -0.056751 0.994129
vn -0.117417 -0.217221 0.968689
vn -0.115460 0.001957 0.994129
vn -0.099804 -0.056751 0.994129
vn -0.217221 -0.119374 0.968689
vn -0.244618 -0.023483 0.968689
vn -0.115460 0.001957 0.994129
vn -0.217221 -0.119374 0.968689
vn -0.099804 0.056751 0.994129
vn -0.115460 0.001957 0.994129
vn -0.244618 -0.023483 0.968689
vn -0.217221 0.113503 0.968689
vn -0.099804 0.056751 0.994129
vn -0.244618 -0.023483 0.968689
vn -0.217221 0.113503 0.968689
vn -0.117417 0.213307 0.970646
vn -0.099804 0.056751 0.994129
vn -0.117417 0.213307 0.970646
vn -0.056751 0.099804 0.994129
vn -0.099804 0.056751 0.994129
vn -0.117417 0.213307 0.970646
vn -0.013699 0.189824 0.982387
vn -0.056751 0.099804 0.994129
vn -0.013699 0.189824 0.982387
vn 0.001957 0.115460 0.994129
vn -0.056751 0.099804 0.994129
vn -0.013699 0.189824 0.982387
vn 0.091977 0.166341 0.982387
vn 0.001957 0.115460 0.994129
vn 0.091977 0.166341 0.982387
vn 0.056751 0.099804 0.994129
vn 0.001957 0.115460 0.994129
vn 0.091977 0.166341 0.982387
vn 0.213307 0.113503 0.970646
vn 0.056751 0.099804 0.994129
vn 0.213307 0.113503 0.970646
vn 0.099804 0.056751 0.994129
vn 0.056751 0.099804 0.994129
mtllib mtl_p6_foliage_hedge_no_alpha.mtl
g mtl_p6_foliage_hedge_no_alpha
usemtl mtl_p6_foliage_hedge_no_alpha
f 3/3/3 2/2/2 1/1/1
f 6/6/6 5/5/5 4/4/4
f 9/9/9 8/8/8 7/7/7
f 12/12/12 11/11/11 10/10/10
f 15/15/15 14/14/14 13/13/13
f 18/18/18 17/17/17 16/16/16
f 21/21/21 20/20/20 19/19/19
f 24/24/24 23/23/23 22/22/22
f 27/27/27 26/26/26 25/25/25
f 30/30/30 29/29/29 28/28/28
f 33/33/33 32/32/32 31/31/31
f 36/36/36 35/35/35 34/34/34
f 39/39/39 38/38/38 37/37/37
f 42/42/42 41/41/41 40/40/40
f 45/45/45 44/44/44 43/43/43
f 48/48/48 47/47/47 46/46/46
f 51/51/51 50/50/50 49/49/49
f 54/54/54 53/53/53 52/52/52
f 57/57/57 56/56/56 55/55/55
f 60/60/60 59/59/59 58/58/58
f 63/63/63 62/62/62 61/61/61
f 66/66/66 65/65/65 64/64/64
f 69/69/69 68/68/68 67/67/67
f 72/72/72 71/71/71 70/70/70
f 75/75/75 74/74/74 73/73/73
f 78/78/78 77/77/77 76/76/76
f 81/81/81 80/80/80 79/79/79
f 84/84/84 83/83/83 82/82/82
f 87/87/87 86/86/86 85/85/85
f 90/90/90 89/89/89 88/88/88
f 93/93/93 92/92/92 91/91/91
f 96/96/96 95/95/95 94/94/94
f 99/99/99 98/98/98 97/97/97
f 102/102/102 101/101/101 100/100/100
