# Generated by Wraith - Game extraction tools
# Please credit DTZxPorter for using it!

v 0.427921 4.298523 1.719031
v -0.774255 4.992588 1.719895
v 0.427052 4.293365 2.677787
v -0.774255 4.992588 1.719895
v -0.782589 4.991748 2.678658
v 0.427052 4.293365 2.677787
v -0.782589 4.991748 2.678658
v -0.415905 4.991938 3.499658
v 0.427052 4.293365 2.677787
v -0.415905 4.991938 3.499658
v 0.249740 4.607628 3.499190
v 0.427052 4.293365 2.677787
v 0.427921 4.298523 1.719031
v 0.427052 4.293365 2.677787
v 0.427916 5.686687 1.719666
v 0.427052 4.293365 2.677787
v 0.427055 5.690138 2.678430
v 0.427916 5.686687 1.719666
v 0.427052 4.293365 2.677787
v 0.249740 4.607628 3.499190
v 0.427055 5.690138 2.678430
v 0.249740 4.607628 3.499190
v 0.249745 5.376240 3.499526
v 0.427055 5.690138 2.678430
v 0.427916 5.686687 1.719666
v 0.427055 5.690138 2.678430
v -0.774255 4.992588 1.719895
v 0.427055 5.690138 2.678430
v -0.782589 4.991748 2.678658
v -0.774255 4.992588 1.719895
v -0.782589 4.991748 2.678658
v 0.427055 5.690138 2.678430
v -0.415905 4.991938 3.499658
v 0.427055 5.690138 2.678430
v 0.249745 5.376240 3.499526
v -0.415905 4.991938 3.499658
v -0.750057 -5.168334 1.719031
v 0.590789 -4.809043 1.719895
v -0.753090 -5.164071 2.677787
v 0.590789 -4.809043 1.719895
v 0.596090 -4.802556 2.678658
v -0.753090 -5.164071 2.677787
v 0.596090 -4.802556 2.678658
v 0.336939 -5.061976 3.499658
v -0.753090 -5.164071 2.677787
v 0.336939 -5.061976 3.499658
v -0.405496 -5.260911 3.499190
v -0.753090 -5.164071 2.677787
v -0.750057 -5.168334 1.719031
v -0.753090 -5.164071 2.677787
v 0.231527 -6.149911 1.719666
v -0.753090 -5.164071 2.677787
v 0.234576 -6.151743 2.678430
v 0.231527 -6.149911 1.719666
v -0.753090 -5.164071 2.677787
v -0.405496 -5.260911 3.499190
v 0.234576 -6.151743 2.678430
v -0.405496 -5.260911 3.499190
v 0.137995 -5.804403 3.499526
v 0.234576 -6.151743 2.678430
v 0.231527 -6.149911 1.719666
v 0.234576 -6.151743 2.678430
v 0.590789 -4.809043 1.719895
v 0.234576 -6.151743 2.678430
v 0.596090 -4.802556 2.678658
v 0.590789 -4.809043 1.719895
v 0.596090 -4.802556 2.678658
v 0.234576 -6.151743 2.678430
v 0.336939 -5.061976 3.499658
v 0.234576 -6.151743 2.678430
v 0.137995 -5.804403 3.499526
v 0.336939 -5.061976 3.499658
v -1.616242 7.981874 0.469826
v -1.403668 6.763405 1.850281
v -1.616263 -7.983906 0.469831
v -1.403668 6.763405 1.850281
v -1.403696 -6.765432 1.850281
v -1.616263 -7.983906 0.469831
v -1.403696 -6.765432 1.850281
v -1.403668 6.763405 1.850281
v 1.497536 -6.765432 1.852143
v -1.403668 6.763405 1.850281
v 1.497561 6.763405 1.852148
v 1.497536 -6.765432 1.852143
v -1.616263 -7.983906 0.469831
v -1.403696 -6.765432 1.850281
v 1.711901 -7.983906 0.471975
v -1.403696 -6.765432 1.850281
v 1.497536 -6.765432 1.852143
v 1.711901 -7.983906 0.471975
v 1.711919 7.981874 0.471975
v 1.497561 6.763405 1.852148
v -1.616242 7.981874 0.469826
v 1.497561 6.763405 1.852148
v -1.403668 6.763405 1.850281
v -1.616242 7.981874 0.469826
v 1.711901 -7.983906 0.471975
v 1.497536 -6.765432 1.852143
v 1.711919 7.981874 0.471975
v 1.497536 -6.765432 1.852143
v 1.497561 6.763405 1.852148
v 1.711919 7.981874 0.471975
v -0.676611 5.081943 4.364555
v -0.074920 4.297799 4.363923
v -0.677090 5.082420 3.316597
v -0.074920 4.297799 4.363923
v -0.075400 4.298279 3.315957
v -0.677090 5.082420 3.316597
v 2.487396 9.761283 4.346214
v 2.919676 9.511703 4.345910
v -0.676611 5.081943 4.364555
v 2.919676 9.511703 4.345910
v -0.074920 4.297799 4.363923
v -0.676611 5.081943 4.364555
v -0.676611 5.081943 4.364555
v -0.677090 5.082420 3.316597
v 2.487915 9.762521 4.076667
v -0.676611 5.081943 4.364555
v 2.487915 9.762521 4.076667
v 2.487396 9.761283 4.346214
v 2.919676 9.511703 4.345910
v 2.920357 9.513252 4.076514
v -0.074920 4.297799 4.363923
v 2.920357 9.513252 4.076514
v -0.075400 4.298279 3.315957
v -0.074920 4.297799 4.363923
v -0.075400 4.298279 3.315957
v 2.920357 9.513252 4.076514
v -0.677090 5.082420 3.316597
v 2.920357 9.513252 4.076514
v 2.487915 9.762521 4.076667
v -0.677090 5.082420 3.316597
v 2.920357 9.513252 4.076514
v 2.919676 9.511703 4.345910
v 2.487915 9.762521 4.076667
v 2.919676 9.511703 4.345910
v 2.487396 9.761283 4.346214
v 2.487915 9.762521 4.076667
v 0.584929 -4.941273 4.364555
v -0.395005 -4.812259 4.363923
v 0.585605 -4.941270 3.316597
v -0.395005 -4.812259 4.363923
v -0.394324 -4.812256 3.315957
v 0.585605 -4.941270 3.316597
v 1.656431 -10.487357 4.346214
v 1.174283 -10.616544 4.345910
v 0.584929 -4.941273 4.364555
v 1.174283 -10.616544 4.345910
v -0.395005 -4.812259 4.363923
v 0.584929 -4.941273 4.364555
v 0.584929 -4.941273 4.364555
v 0.585605 -4.941270 3.316597
v 1.656939 -10.488597 4.076667
v 0.584929 -4.941273 4.364555
v 1.656939 -10.488597 4.076667
v 1.656431 -10.487357 4.346214
v 1.174283 -10.616544 4.345910
v 1.174894 -10.618122 4.076514
v -0.395005 -4.812259 4.363923
v 1.174894 -10.618122 4.076514
v -0.394324 -4.812256 3.315957
v -0.395005 -4.812259 4.363923
v -0.394324 -4.812256 3.315957
v 1.174894 -10.618122 4.076514
v 0.585605 -4.941270 3.316597
v 1.174894 -10.618122 4.076514
v 1.656939 -10.488597 4.076667
v 0.585605 -4.941270 3.316597
v 1.174894 -10.618122 4.076514
v 1.174283 -10.616544 4.345910
v 1.656939 -10.488597 4.076667
v 1.174283 -10.616544 4.345910
v 1.656431 -10.487357 4.346214
v 1.656939 -10.488597 4.076667
vt 0.389893 0.995689
vt 0.081909 0.995689
vt 0.390625 1.370117
vt 0.081909 0.995689
vt 0.091431 1.370117
vt 0.390625 1.370117
vt 0.091431 1.370117
vt 0.164673 2.178711
vt 0.390625 1.370117
vt 0.164673 2.178711
vt 0.398193 2.178711
vt 0.390625 1.370117
vt 0.389893 0.995689
vt 0.390625 1.370117
vt 0.669434 0.995689
vt 0.390625 1.370117
vt 0.668457 1.370117
vt 0.669434 0.995689
vt 0.390625 1.370117
vt 0.398193 2.178711
vt 0.668457 1.370117
vt 0.398193 2.178711
vt 0.661133 2.178711
vt 0.668457 1.370117
vt 0.669434 0.995689
vt 0.668457 1.370117
vt 0.977539 0.995689
vt 0.668457 1.370117
vt 0.968262 1.370117
vt 0.977539 0.995689
vt 0.968262 1.370117
vt 0.668457 1.370117
vt 0.894531 2.178711
vt 0.668457 1.370117
vt 0.661133 2.178711
vt 0.894531 2.178711
vt 0.389893 0.995689
vt 0.081909 0.995689
vt 0.390625 1.370117
vt 0.081909 0.995689
vt 0.091431 1.370117
vt 0.390625 1.370117
vt 0.091431 1.370117
vt 0.164673 2.178711
vt 0.390625 1.370117
vt 0.164673 2.178711
vt 0.398193 2.178711
vt 0.390625 1.370117
vt 0.389893 0.995689
vt 0.390625 1.370117
vt 0.669434 0.995689
vt 0.390625 1.370117
vt 0.668457 1.370117
vt 0.669434 0.995689
vt 0.390625 1.370117
vt 0.398193 2.178711
vt 0.668457 1.370117
vt 0.398193 2.178711
vt 0.661133 2.178711
vt 0.668457 1.370117
vt 0.669434 0.995689
vt 0.668457 1.370117
vt 0.977539 0.995689
vt 0.668457 1.370117
vt 0.968262 1.370117
vt 0.977539 0.995689
vt 0.968262 1.370117
vt 0.668457 1.370117
vt 0.894531 2.178711
vt 0.668457 1.370117
vt 0.661133 2.178711
vt 0.894531 2.178711
vt -0.130981 0.634277
vt -0.005924 0.523438
vt -0.130981 -0.818359
vt -0.005924 0.523438
vt -0.005924 -0.708008
vt -0.130981 -0.818359
vt 0.011101 -0.600586
vt 0.011101 0.479980
vt 0.238892 -0.600586
vt 0.011101 0.479980
vt 0.238892 0.479980
vt 0.238892 -0.600586
vt -0.131470 0.046387
vt -0.006115 0.030273
vt -0.131470 -0.250000
vt -0.006115 0.030273
vt -0.006172 -0.230469
vt -0.131470 -0.250000
vt -0.131470 0.109863
vt -0.005920 0.090332
vt -0.131470 -0.186523
vt -0.005920 0.090332
vt -0.005932 -0.169922
vt -0.131470 -0.186523
vt -0.130981 0.626221
vt -0.005924 0.518066
vt -0.130981 -0.814453
vt -0.005924 0.518066
vt -0.005924 -0.706055
vt -0.130981 -0.814453
vt 3.753906 7.746094
vt 3.753906 8.058594
vt 3.992188 7.746094
vt 3.753906 8.058594
vt 3.964844 8.101563
vt 3.992188 7.746094
vt 4.496094 6.984375
vt 4.250000 6.984375
vt 4.496094 9.203125
vt 4.250000 6.984375
vt 4.250000 9.203125
vt 4.496094 9.203125
vt 3.753906 7.746094
vt 3.992188 7.746094
vt 3.908203 6.730469
vt 3.753906 7.746094
vt 3.908203 6.730469
vt 3.753906 6.593750
vt 3.753906 9.257813
vt 3.908203 9.125000
vt 3.753906 8.058594
vt 3.908203 9.125000
vt 3.964844 8.101563
vt 3.753906 8.058594
vt 4.820313 7.335938
vt 4.812500 7.976563
vt 4.929688 7.359375
vt 4.812500 7.976563
vt 4.878906 7.976563
vt 4.929688 7.359375
vt 3.908203 9.125000
vt 3.753906 9.257813
vt 3.822266 9.367188
vt 3.753906 9.257813
vt 3.753906 9.367188
vt 3.822266 9.367188
vt 3.753906 7.761719
vt 3.753906 8.085938
vt 3.992188 7.761719
vt 3.753906 8.085938
vt 3.964844 8.132813
vt 3.992188 7.761719
vt 4.496094 6.984375
vt 4.250000 6.984375
vt 4.496094 9.203125
vt 4.250000 6.984375
vt 4.250000 9.203125
vt 4.496094 9.203125
vt 3.753906 7.761719
vt 3.992188 7.761719
vt 3.908203 6.730469
vt 3.753906 7.761719
vt 3.908203 6.730469
vt 3.753906 6.593750
vt 3.753906 9.257813
vt 3.908203 9.125000
vt 3.753906 8.085938
vt 3.908203 9.125000
vt 3.964844 8.132813
vt 3.753906 8.085938
vt 4.800781 7.335938
vt 4.812500 7.976563
vt 4.917969 7.347656
vt 4.812500 7.976563
vt 4.878906 7.976563
vt 4.917969 7.347656
vt 3.908203 9.125000
vt 3.753906 9.257813
vt 3.822266 9.367188
vt 3.753906 9.257813
vt 3.753906 9.367188
vt 3.822266 9.367188
vn 0.500978 -0.866928 -0.003914
vn -1.000000 0.000000 -0.007828
vn 0.489237 -0.845401 0.209393
vn -1.000000 0.000000 -0.007828
vn -0.976517 0.000000 0.211350
vn 0.489237 -0.845401 0.209393
vn -0.976517 0.000000 0.211350
vn -0.913894 0.000000 0.407045
vn 0.489237 -0.845401 0.209393
vn -0.913894 0.000000 0.407045
vn 0.457926 -0.792564 0.403131
vn 0.489237 -0.845401 0.209393
vn 0.500978 -0.866928 -0.003914
vn 0.489237 -0.845401 0.209393
vn 0.499022 0.866928 -0.001957
vn 0.489237 -0.845401 0.209393
vn 0.489237 0.845401 0.211350
vn 0.499022 0.866928 -0.001957
vn 0.489237 -0.845401 0.209393
vn 0.457926 -0.792564 0.403131
vn 0.489237 0.845401 0.211350
vn 0.457926 -0.792564 0.403131
vn 0.459883 0.792564 0.401174
vn 0.489237 0.845401 0.211350
vn 0.499022 0.866928 -0.001957
vn 0.489237 0.845401 0.211350
vn -1.000000 0.000000 -0.007828
vn 0.489237 0.845401 0.211350
vn -0.976517 0.000000 0.211350
vn -1.000000 0.000000 -0.007828
vn -0.976517 0.000000 0.211350
vn 0.489237 0.845401 0.211350
vn -0.913894 0.000000 0.407045
vn 0.489237 0.845401 0.211350
vn 0.459883 0.792564 0.401174
vn -0.913894 0.000000 0.407045
vn -0.966732 0.258317 -0.003914
vn 0.706458 0.706458 -0.007828
vn -0.945205 0.252446 0.209393
vn 0.706458 0.706458 -0.007828
vn 0.690802 0.690802 0.211350
vn -0.945205 0.252446 0.209393
vn 0.690802 0.690802 0.211350
vn 0.645793 0.645793 0.407045
vn -0.945205 0.252446 0.209393
vn 0.645793 0.645793 0.407045
vn -0.884540 0.234834 0.403131
vn -0.945205 0.252446 0.209393
vn -0.966732 0.258317 -0.003914
vn -0.945205 0.252446 0.209393
vn 0.258317 -0.966732 -0.001957
vn -0.945205 0.252446 0.209393
vn 0.252446 -0.945205 0.211350
vn 0.258317 -0.966732 -0.001957
vn -0.945205 0.252446 0.209393
vn -0.884540 0.234834 0.403131
vn 0.252446 -0.945205 0.211350
vn -0.884540 0.234834 0.403131
vn 0.234834 -0.884540 0.401174
vn 0.252446 -0.945205 0.211350
vn 0.258317 -0.966732 -0.001957
vn 0.252446 -0.945205 0.211350
vn 0.706458 0.706458 -0.007828
vn 0.252446 -0.945205 0.211350
vn 0.690802 0.690802 0.211350
vn 0.706458 0.706458 -0.007828
vn 0.690802 0.690802 0.211350
vn 0.252446 -0.945205 0.211350
vn 0.645793 0.645793 0.407045
vn 0.252446 -0.945205 0.211350
vn 0.234834 -0.884540 0.401174
vn 0.645793 0.645793 0.407045
vn -0.665362 0.504892 0.547945
vn -0.450098 0.340509 0.825832
vn -0.665362 -0.504892 0.547945
vn -0.450098 0.340509 0.825832
vn -0.450098 -0.340509 0.825832
vn -0.665362 -0.504892 0.547945
vn -0.450098 -0.340509 0.825832
vn -0.450098 0.340509 0.825832
vn 0.448141 -0.340509 0.825832
vn -0.450098 0.340509 0.825832
vn 0.448141 0.340509 0.825832
vn 0.448141 -0.340509 0.825832
vn -0.665362 -0.504892 0.547945
vn -0.450098 -0.340509 0.825832
vn 0.665362 -0.504892 0.549902
vn -0.450098 -0.340509 0.825832
vn 0.448141 -0.340509 0.825832
vn 0.665362 -0.504892 0.549902
vn 0.665362 0.504892 0.549902
vn 0.448141 0.340509 0.825832
vn -0.665362 0.504892 0.547945
vn 0.448141 0.340509 0.825832
vn -0.450098 0.340509 0.825832
vn -0.665362 0.504892 0.547945
vn 0.665362 -0.504892 0.549902
vn 0.448141 -0.340509 0.825832
vn 0.665362 0.504892 0.549902
vn 0.448141 -0.340509 0.825832
vn 0.448141 0.340509 0.825832
vn 0.665362 0.504892 0.549902
vn -0.792564 -0.608611 0.000000
vn 0.066536 -0.998043 0.000000
vn -0.530333 -0.391389 -0.751468
vn 0.066536 -0.998043 0.000000
vn 0.117417 -0.710372 -0.694716
vn -0.530333 -0.391389 -0.751468
vn 0.001957 0.001957 1.000000
vn 0.001957 0.001957 1.000000
vn 0.001957 0.001957 1.000000
vn 0.001957 0.001957 1.000000
vn 0.001957 0.001957 1.000000
vn 0.001957 0.001957 1.000000
vn -0.827789 0.559687 0.000000
vn -0.827789 0.559687 0.000000
vn -0.827789 0.559687 0.000000
vn -0.827789 0.559687 0.000000
vn -0.827789 0.559687 0.000000
vn -0.827789 0.559687 0.001957
vn 0.866928 -0.499022 0.000000
vn 0.866928 -0.499022 0.000000
vn 0.066536 -0.998043 0.000000
vn 0.866928 -0.499022 0.000000
vn 0.117417 -0.710372 -0.694716
vn 0.066536 -0.998043 0.000000
vn 0.117417 -0.710372 -0.694716
vn 0.093933 0.093933 -0.990215
vn -0.530333 -0.391389 -0.751468
vn 0.093933 0.093933 -0.990215
vn 0.093933 0.093933 -0.990215
vn -0.530333 -0.391389 -0.751468
vn 0.499022 0.866928 0.005871
vn 0.499022 0.866928 0.005871
vn 0.499022 0.866928 0.005871
vn 0.499022 0.866928 0.005871
vn 0.499022 0.866928 0.005871
vn 0.499022 0.866928 0.005871
vn 0.131115 0.992172 0.000000
vn -0.753425 0.657534 0.000000
vn 0.099804 0.651663 -0.751468
vn -0.753425 0.657534 0.000000
vn -0.585127 0.418787 -0.694716
vn 0.099804 0.651663 -0.751468
vn 0.000000 -0.003914 1.000000
vn 0.000000 -0.003914 1.000000
vn 0.000000 -0.003914 1.000000
vn 0.000000 -0.003914 1.000000
vn 0.000000 -0.003914 1.000000
vn 0.000000 -0.003914 1.000000
vn 0.982387 0.189824 0.000000
vn 0.982387 0.189824 0.000000
vn 0.982387 0.189824 0.000000
vn 0.982387 0.189824 0.000000
vn 0.982387 0.189824 0.000000
vn 0.982387 0.189824 0.001957
vn -0.964775 -0.260274 0.000000
vn -0.964775 -0.260274 0.000000
vn -0.753425 0.657534 0.000000
vn -0.964775 -0.260274 0.000000
vn -0.585127 0.418787 -0.694716
vn -0.753425 0.657534 0.000000
vn -0.585127 0.418787 -0.694716
vn 0.000000 -0.133072 -0.990215
vn 0.099804 0.651663 -0.751468
vn 0.000000 -0.133072 -0.990215
vn 0.000000 -0.133072 -0.990215
vn 0.099804 0.651663 -0.751468
vn 0.258317 -0.966732 0.005871
vn 0.258317 -0.966732 0.005871
vn 0.258317 -0.966732 0.005871
vn 0.258317 -0.966732 0.005871
vn 0.258317 -0.966732 0.005871
vn 0.258317 -0.966732 0.005871
mtllib me_office_ceiling_tiles_black.mtl
g me_office_ceiling_tiles_black
usemtl me_office_ceiling_tiles_black
f 3/3/3 2/2/2 1/1/1
f 6/6/6 5/5/5 4/4/4
f 9/9/9 8/8/8 7/7/7
f 12/12/12 11/11/11 10/10/10
f 15/15/15 14/14/14 13/13/13
f 18/18/18 17/17/17 16/16/16
f 21/21/21 20/20/20 19/19/19
f 24/24/24 23/23/23 22/22/22
f 27/27/27 26/26/26 25/25/25
f 30/30/30 29/29/29 28/28/28
f 33/33/33 32/32/32 31/31/31
f 36/36/36 35/35/35 34/34/34
f 39/39/39 38/38/38 37/37/37
f 42/42/42 41/41/41 40/40/40
f 45/45/45 44/44/44 43/43/43
f 48/48/48 47/47/47 46/46/46
f 51/51/51 50/50/50 49/49/49
f 54/54/54 53/53/53 52/52/52
f 57/57/57 56/56/56 55/55/55
f 60/60/60 59/59/59 58/58/58
f 63/63/63 62/62/62 61/61/61
f 66/66/66 65/65/65 64/64/64
f 69/69/69 68/68/68 67/67/67
f 72/72/72 71/71/71 70/70/70
mtllib brush_metal_panel_karma_matte.mtl
g brush_metal_panel_karma_matte
usemtl brush_metal_panel_karma_matte
f 75/75/75 74/74/74 73/73/73
f 78/78/78 77/77/77 76/76/76
f 81/81/81 80/80/80 79/79/79
f 84/84/84 83/83/83 82/82/82
f 87/87/87 86/86/86 85/85/85
f 90/90/90 89/89/89 88/88/88
f 93/93/93 92/92/92 91/91/91
f 96/96/96 95/95/95 94/94/94
f 99/99/99 98/98/98 97/97/97
f 102/102/102 101/101/101 100/100/100
f 105/105/105 104/104/104 103/103/103
f 108/108/108 107/107/107 106/106/106
f 111/111/111 110/110/110 109/109/109
f 114/114/114 113/113/113 112/112/112
f 117/117/117 116/116/116 115/115/115
f 120/120/120 119/119/119 118/118/118
f 123/123/123 122/122/122 121/121/121
f 126/126/126 125/125/125 124/124/124
f 129/129/129 128/128/128 127/127/127
f 132/132/132 131/131/131 130/130/130
f 135/135/135 134/134/134 133/133/133
f 138/138/138 137/137/137 136/136/136
f 141/141/141 140/140/140 139/139/139
f 144/144/144 143/143/143 142/142/142
f 147/147/147 146/146/146 145/145/145
f 150/150/150 149/149/149 148/148/148
f 153/153/153 152/152/152 151/151/151
f 156/156/156 155/155/155 154/154/154
f 159/159/159 158/158/158 157/157/157
f 162/162/162 161/161/161 160/160/160
f 165/165/165 164/164/164 163/163/163
f 168/168/168 167/167/167 166/166/166
f 171/171/171 170/170/170 169/169/169
f 174/174/174 173/173/173 172/172/172
