# Generated by Wraith - Game extraction tools
# Please credit DTZxPorter for using it!

v -4.127246 2.564120 0.229207
v -2.449698 -3.966434 0.229207
v 2.649169 3.952479 0.229207
v 2.649169 3.952479 0.229207
v -2.449698 -3.966434 0.229207
v 3.831308 -2.591193 0.229207
v -2.814963 -4.334324 8.958890
v -2.449698 -3.966434 0.229207
v -4.127246 2.564120 0.229207
v -4.462178 2.898290 8.958890
v -2.814963 -4.334324 8.958890
v -4.127246 2.564120 0.229207
v -4.462178 2.898290 8.958890
v -4.127246 2.564120 0.229207
v 2.649169 3.952479 0.229207
v 2.925361 4.279971 8.958890
v -4.462178 2.898290 8.958890
v 2.649169 3.952479 0.229207
v 4.227949 -2.722692 8.958890
v 2.925361 4.279971 8.958890
v 2.649169 3.952479 0.229207
v 3.831308 -2.591193 0.229207
v 4.227949 -2.722692 8.958890
v 2.649169 3.952479 0.229207
v 4.227949 -2.722692 8.958890
v 3.831308 -2.591193 0.229207
v -2.449698 -3.966434 0.229207
v -2.814963 -4.334324 8.958890
v 4.227949 -2.722692 8.958890
v -2.449698 -3.966434 0.229207
v -4.462178 2.898290 8.958890
v 2.925361 4.279971 8.958890
v -2.814963 -4.334324 8.958890
v 2.925361 4.279971 8.958890
v 4.227949 -2.722692 8.958890
v -2.814963 -4.334324 8.958890
vt 0.789063 0.918945
vt 0.811523 0.784546
vt 0.919434 0.882019
vt 0.919434 0.882019
vt 0.811523 0.784546
vt 0.927734 0.802979
vt 0.632813 0.645508
vt 0.370850 0.590820
vt 0.371338 0.918884
vt 0.633301 0.863892
vt 0.632813 0.645508
vt 0.371338 0.918884
vt 0.633301 0.863892
vt 0.371338 0.918884
vt 0.370605 0.204102
vt 0.632324 0.231445
vt 0.633301 0.863892
vt 0.370605 0.204102
vt 0.632813 0.314453
vt 0.632324 0.231445
vt 0.370605 0.204102
vt 0.370605 0.342773
vt 0.632813 0.314453
vt 0.370605 0.204102
vt 0.632813 0.314453
vt 0.370605 0.342773
vt 0.370850 0.590820
vt 0.632813 0.645508
vt 0.632813 0.314453
vt 0.370850 0.590820
vt 0.918945 0.611328
vt 0.884277 0.376465
vt 0.729980 0.611328
vt 0.884277 0.376465
vt 0.764648 0.378418
vt 0.729980 0.611328
vn -0.663405 0.426614 -0.614481
vn -0.299413 -0.481409 -0.823875
vn 0.315068 0.463796 -0.827789
vn 0.315068 0.463796 -0.827789
vn -0.299413 -0.481409 -0.823875
vn 0.669276 -0.444227 -0.594912
vn -0.528376 -0.847358 -0.046967
vn -0.299413 -0.481409 -0.823875
vn -0.663405 0.426614 -0.614481
vn -0.839530 0.538160 -0.056751
vn -0.528376 -0.847358 -0.046967
vn -0.663405 0.426614 -0.614481
vn -0.839530 0.538160 -0.056751
vn -0.663405 0.426614 -0.614481
vn 0.315068 0.463796 -0.827789
vn 0.561644 0.825832 -0.054795
vn -0.839530 0.538160 -0.056751
vn 0.315068 0.463796 -0.827789
vn 0.833659 -0.551859 -0.046967
vn 0.561644 0.825832 -0.054795
vn 0.315068 0.463796 -0.827789
vn 0.669276 -0.444227 -0.594912
vn 0.833659 -0.551859 -0.046967
vn 0.315068 0.463796 -0.827789
vn 0.833659 -0.551859 -0.046967
vn 0.669276 -0.444227 -0.594912
vn -0.299413 -0.481409 -0.823875
vn -0.528376 -0.847358 -0.046967
vn 0.833659 -0.551859 -0.046967
vn -0.299413 -0.481409 -0.823875
vn 0.000000 0.000000 1.000000
vn 0.000000 0.000000 1.000000
vn 0.000000 0.000000 1.000000
vn 0.000000 0.000000 1.000000
vn 0.000000 0.000000 1.000000
vn 0.000000 0.000000 1.000000
mtllib mtl_p_pent_coffeemug.mtl
g mtl_p_pent_coffeemug
usemtl mtl_p_pent_coffeemug
f 3/3/3 2/2/2 1/1/1
f 6/6/6 5/5/5 4/4/4
f 9/9/9 8/8/8 7/7/7
f 12/12/12 11/11/11 10/10/10
f 15/15/15 14/14/14 13/13/13
f 18/18/18 17/17/17 16/16/16
f 21/21/21 20/20/20 19/19/19
f 24/24/24 23/23/23 22/22/22
f 27/27/27 26/26/26 25/25/25
f 30/30/30 29/29/29 28/28/28
f 33/33/33 32/32/32 31/31/31
f 36/36/36 35/35/35 34/34/34
