# Generated by Wraith - Game extraction tools
# Please credit DTZxPorter for using it!

v -14.298381 -0.000005 -0.000000
v -27.936356 4.590372 -11.082129
v -27.936356 11.082124 -4.590362
v -14.298381 -0.000005 -0.000000
v -27.936356 -4.590366 -11.082134
v -27.936356 4.590372 -11.082129
v -14.298381 -0.000005 -0.000000
v -27.936356 -11.082134 -4.590372
v -27.936356 -4.590366 -11.082134
v -14.298381 -0.000005 -0.000000
v -27.936356 -11.082134 4.590364
v -27.936356 -11.082134 -4.590372
v -14.298381 -0.000005 -0.000000
v -27.936356 -4.590374 11.082131
v -27.936356 -11.082134 4.590364
v -14.298381 -0.000005 -0.000000
v -27.936356 4.590364 11.082131
v -27.936356 -4.590374 11.082131
v -14.298381 -0.000005 -0.000000
v -27.936356 11.082124 4.590369
v -27.936356 4.590364 11.082131
v -14.298381 -0.000005 -0.000000
v -27.936356 11.082124 -4.590362
v -27.936356 11.082124 4.590369
v -27.936356 -4.590366 -11.082134
v -14.413025 -5.548228 -13.356354
v -27.936356 4.590372 -11.082129
v -14.413025 -5.548228 -13.356354
v -14.413025 5.548232 -13.356345
v -27.936356 4.590372 -11.082129
v -27.936356 4.590372 -11.082129
v -14.413025 5.548232 -13.356345
v -27.936356 11.082124 -4.590362
v -14.413025 5.548232 -13.356345
v -14.413025 13.394616 -5.532374
v -27.936356 11.082124 -4.590362
v -27.936356 11.082124 -4.590362
v -14.413025 13.394616 -5.532374
v -27.936356 11.082124 4.590369
v -14.413025 13.394616 -5.532374
v -14.413025 13.394613 5.532382
v -27.936356 11.082124 4.590369
v -27.936356 11.082124 4.590369
v -14.413025 13.394613 5.532382
v -14.413025 5.548223 13.356354
v -27.936356 4.590364 11.082131
v -27.936356 11.082124 4.590369
v -14.413025 5.548223 13.356354
v -27.936356 4.590364 11.082131
v -14.413025 5.548223 13.356354
v -27.936356 -4.590374 11.082131
v -14.413025 5.548223 13.356354
v -14.413025 -5.548244 13.356352
v -27.936356 -4.590374 11.082131
v -27.936356 -4.590374 11.082131
v -14.413025 -5.548244 13.356352
v -27.936356 -11.082134 4.590364
v -14.413025 -5.548244 13.356352
v -14.413025 -13.394625 5.532377
v -27.936356 -11.082134 4.590364
v -27.936356 -11.082134 4.590364
v -14.413025 -13.394625 5.532377
v -27.936356 -11.082134 -4.590372
v -14.413025 -13.394625 5.532377
v -14.413025 -13.394625 -5.532387
v -27.936356 -11.082134 -4.590372
v -27.936356 -11.082134 -4.590372
v -14.413025 -13.394625 -5.532387
v -14.413025 -5.548228 -13.356354
v -27.936356 -4.590366 -11.082134
v -27.936356 -11.082134 -4.590372
v -14.413025 -5.548228 -13.356354
v -0.035633 13.394616 -5.532374
v -0.035633 5.548232 -13.356345
v -0.035633 13.394613 5.532382
v -0.035633 13.394613 5.532382
v -0.035633 5.548232 -13.356345
v -0.035633 5.548223 13.356352
v -0.035633 5.548223 13.356352
v -0.035633 5.548232 -13.356345
v -0.035633 -5.548244 13.356352
v -0.035633 -5.548244 13.356352
v -0.035633 5.548232 -13.356345
v -0.035633 -13.394625 5.532377
v -0.035633 -13.394625 5.532377
v -0.035633 5.548232 -13.356345
v -0.035633 -13.394625 -5.532387
v -0.035633 -13.394625 -5.532387
v -0.035633 5.548232 -13.356345
v -0.035633 -5.548228 -13.356354
v -0.035633 5.548232 -13.356345
v -0.035633 13.394616 -5.532374
v -14.413025 13.394616 -5.532374
v -14.413025 5.548232 -13.356345
v -0.035633 5.548232 -13.356345
v -14.413025 13.394616 -5.532374
v -0.035633 -5.548228 -13.356354
v -0.035633 5.548232 -13.356345
v -14.413025 5.548232 -13.356345
v -14.413025 -5.548228 -13.356354
v -0.035633 -5.548228 -13.356354
v -14.413025 5.548232 -13.356345
v -0.035633 -13.394625 -5.532387
v -0.035633 -5.548228 -13.356354
v -14.413025 -5.548228 -13.356354
v -14.413025 -13.394625 -5.532387
v -0.035633 -13.394625 -5.532387
v -14.413025 -5.548228 -13.356354
v -0.035633 -13.394625 5.532377
v -0.035633 -13.394625 -5.532387
v -14.413025 -13.394625 -5.532387
v -14.413025 -13.394625 5.532377
v -0.035633 -13.394625 5.532377
v -14.413025 -13.394625 -5.532387
v -0.035633 -5.548244 13.356352
v -0.035633 -13.394625 5.532377
v -14.413025 -13.394625 5.532377
v -14.413025 -5.548244 13.356352
v -0.035633 -5.548244 13.356352
v -14.413025 -13.394625 5.532377
v -0.035633 5.548223 13.356352
v -0.035633 -5.548244 13.356352
v -14.413025 -5.548244 13.356352
v -14.413025 5.548223 13.356354
v -0.035633 5.548223 13.356352
v -14.413025 -5.548244 13.356352
v -0.035633 13.394613 5.532382
v -0.035633 5.548223 13.356352
v -14.413025 5.548223 13.356354
v -14.413025 13.394613 5.532382
v -0.035633 13.394613 5.532382
v -14.413025 5.548223 13.356354
v -0.035633 13.394616 -5.532374
v -0.035633 13.394613 5.532382
v -14.413025 13.394613 5.532382
v -14.413025 13.394616 -5.532374
v -0.035633 13.394616 -5.532374
v -14.413025 13.394613 5.532382
vt 0.150757 0.725586
vt 0.090515 0.934326
vt 0.265381 0.934326
vt 0.150757 0.725586
vt 0.096313 0.934326
vt 0.090515 0.934326
vt 0.176514 0.725586
vt 0.263916 0.934326
vt 0.088989 0.934326
vt 0.351318 0.725586
vt 0.438965 0.934326
vt 0.263916 0.934326
vt 0.526367 0.725586
vt 0.613770 0.934326
vt 0.438965 0.934326
vt 0.556641 0.725586
vt 0.615234 0.934326
vt 0.613770 0.934326
vt 0.556641 0.725586
vt 0.440430 0.934326
vt 0.615234 0.934326
vt 0.150757 0.725586
vt 0.265381 0.934326
vt 0.440430 0.934326
vt 1.000000 0.633789
vt 1.000000 0.489746
vt 0.875488 0.632568
vt 1.000000 0.489746
vt 0.875000 0.489746
vt 0.875488 0.632568
vt 0.875488 0.633789
vt 0.875000 0.489746
vt 0.750488 0.633789
vt 0.875000 0.489746
vt 0.750488 0.489746
vt 0.750488 0.633789
vt 0.750488 0.633789
vt 0.750488 0.489746
vt 0.625488 0.633789
vt 0.750488 0.489746
vt 0.625488 0.489746
vt 0.625488 0.633789
vt 0.625488 0.633789
vt 0.625488 0.489746
vt 0.500488 0.489746
vt 0.500000 0.633789
vt 0.625488 0.633789
vt 0.500488 0.489746
vt 0.500000 0.633789
vt 0.500488 0.489746
vt 0.375244 0.633789
vt 0.500488 0.489746
vt 0.375488 0.489746
vt 0.375244 0.633789
vt 0.375244 0.633789
vt 0.375488 0.489746
vt 0.250488 0.633789
vt 0.375488 0.489746
vt 0.250488 0.489746
vt 0.250488 0.633789
vt 0.250488 0.633789
vt 0.250488 0.489746
vt 0.125488 0.633789
vt 0.250488 0.489746
vt 0.125488 0.489746
vt 0.125488 0.633789
vt 0.125488 0.633789
vt 0.125488 0.489746
vt 0.000421 0.489746
vt 0.000650 0.633789
vt 0.125488 0.633789
vt 0.000421 0.489746
vt 0.632813 0.133301
vt 0.557129 0.031250
vt 0.604980 0.264160
vt 0.604980 0.264160
vt 0.557129 0.031250
vt 0.505859 0.319824
vt 0.505859 0.319824
vt 0.557129 0.031250
vt 0.389404 0.291992
vt 0.389404 0.291992
vt 0.557129 0.031250
vt 0.327881 0.193359
vt 0.327881 0.193359
vt 0.557129 0.031250
vt 0.348633 0.080566
vt 0.348633 0.080566
vt 0.557129 0.031250
vt 0.442383 0.014160
vt 0.235962 0.351563
vt 0.003937 0.351563
vt 0.003937 0.431641
vt 0.235962 0.431641
vt 0.235962 0.351563
vt 0.003937 0.431641
vt 0.473145 0.351563
vt 0.235962 0.351563
vt 0.235962 0.431641
vt 0.473145 0.431641
vt 0.473145 0.351563
vt 0.235962 0.431641
vt 0.235962 0.351563
vt 0.003937 0.351563
vt 0.003937 0.431641
vt 0.235962 0.431641
vt 0.235962 0.351563
vt 0.003937 0.431641
vt 0.473145 0.351563
vt 0.235962 0.351563
vt 0.235962 0.431641
vt 0.473145 0.431641
vt 0.473145 0.351563
vt 0.235962 0.431641
vt 0.235962 0.351563
vt 0.473145 0.351563
vt 0.473145 0.431641
vt 0.235962 0.431641
vt 0.235962 0.351563
vt 0.473145 0.431641
vt 0.003937 0.351563
vt 0.235962 0.351563
vt 0.235962 0.431641
vt 0.003937 0.431641
vt 0.003937 0.351563
vt 0.235962 0.431641
vt 0.235962 0.351563
vt 0.473145 0.351563
vt 0.473145 0.431641
vt 0.235962 0.431641
vt 0.235962 0.351563
vt 0.473145 0.431641
vt 0.003937 0.351563
vt 0.235962 0.351563
vt 0.235962 0.431641
vt 0.003937 0.431641
vt 0.003937 0.351563
vt 0.235962 0.431641
vn -1.000000 0.000000 0.000000
vn -0.659491 -0.287671 0.692759
vn -0.659491 -0.692759 0.287671
vn -1.000000 0.000000 0.000000
vn -0.659491 0.287671 0.692759
vn -0.659491 -0.287671 0.692759
vn -1.000000 0.000000 0.000000
vn -0.659491 0.692759 0.287671
vn -0.659491 0.287671 0.692759
vn -1.000000 0.000000 0.000000
vn -0.659491 0.692759 -0.287671
vn -0.659491 0.692759 0.287671
vn -1.000000 0.000000 0.000000
vn -0.659491 0.287671 -0.692759
vn -0.659491 0.692759 -0.287671
vn -1.000000 0.000000 0.000000
vn -0.659491 -0.287671 -0.692759
vn -0.659491 0.287671 -0.692759
vn -1.000000 0.000000 0.000000
vn -0.659491 -0.692759 -0.287671
vn -0.659491 -0.287671 -0.692759
vn -1.000000 0.000000 0.000000
vn -0.659491 -0.692759 0.287671
vn -0.659491 -0.692759 -0.287671
vn 0.000000 -0.383562 -0.923679
vn 0.000000 -0.383562 -0.923679
vn 0.000000 0.383562 -0.923679
vn 0.000000 -0.383562 -0.923679
vn 0.000000 0.383562 -0.923679
vn 0.000000 0.383562 -0.923679
vn 0.000000 0.383562 -0.923679
vn 0.000000 0.383562 -0.923679
vn 0.000000 0.923679 -0.383562
vn 0.000000 0.383562 -0.923679
vn 0.000000 0.923679 -0.383562
vn 0.000000 0.923679 -0.383562
vn 0.000000 0.923679 -0.383562
vn 0.000000 0.923679 -0.383562
vn 0.000000 0.923679 0.383562
vn 0.000000 0.923679 -0.383562
vn 0.000000 0.923679 0.383562
vn 0.000000 0.923679 0.383562
vn 0.000000 0.923679 0.383562
vn 0.000000 0.923679 0.383562
vn 0.000000 0.383562 0.923679
vn 0.000000 0.383562 0.923679
vn 0.000000 0.923679 0.383562
vn 0.000000 0.383562 0.923679
vn 0.000000 0.383562 0.923679
vn 0.000000 0.383562 0.923679
vn 0.000000 -0.383562 0.923679
vn 0.000000 0.383562 0.923679
vn 0.000000 -0.383562 0.923679
vn 0.000000 -0.383562 0.923679
vn 0.000000 -0.383562 0.923679
vn 0.000000 -0.383562 0.923679
vn 0.000000 -0.923679 0.383562
vn 0.000000 -0.383562 0.923679
vn 0.000000 -0.923679 0.383562
vn 0.000000 -0.923679 0.383562
vn 0.000000 -0.923679 0.383562
vn 0.000000 -0.923679 0.383562
vn 0.000000 -0.923679 -0.383562
vn 0.000000 -0.923679 0.383562
vn 0.000000 -0.923679 -0.383562
vn 0.000000 -0.923679 -0.383562
vn 0.000000 -0.923679 -0.383562
vn 0.000000 -0.923679 -0.383562
vn 0.000000 -0.383562 -0.923679
vn 0.000000 -0.383562 -0.923679
vn 0.000000 -0.923679 -0.383562
vn 0.000000 -0.383562 -0.923679
vn 1.000000 0.000000 0.000000
vn 1.000000 0.000000 0.000000
vn 1.000000 0.000000 0.000000
vn 1.000000 0.000000 0.000000
vn 1.000000 0.000000 0.000000
vn 1.000000 0.000000 0.000000
vn 1.000000 0.000000 0.000000
vn 1.000000 0.000000 0.000000
vn 1.000000 0.000000 0.000000
vn 1.000000 0.000000 0.000000
vn 1.000000 0.000000 0.000000
vn 1.000000 0.000000 0.000000
vn 1.000000 0.000000 0.000000
vn 1.000000 0.000000 0.000000
vn 1.000000 0.000000 0.000000
vn 1.000000 0.000000 0.000000
vn 1.000000 0.000000 0.000000
vn 1.000000 0.000000 0.000000
vn 0.000000 0.381605 -0.923679
vn 0.000000 0.923679 -0.383562
vn 0.000000 0.923679 -0.383562
vn 0.000000 0.381605 -0.923679
vn 0.000000 0.381605 -0.923679
vn 0.000000 0.923679 -0.383562
vn 0.000000 -0.381605 -0.923679
vn 0.000000 0.381605 -0.923679
vn 0.000000 0.381605 -0.923679
vn 0.000000 -0.381605 -0.923679
vn 0.000000 -0.381605 -0.923679
vn 0.000000 0.381605 -0.923679
vn 0.000000 -0.923679 -0.383562
vn 0.000000 -0.381605 -0.923679
vn 0.000000 -0.381605 -0.923679
vn 0.000000 -0.923679 -0.383562
vn 0.000000 -0.923679 -0.383562
vn 0.000000 -0.381605 -0.923679
vn 0.000000 -0.923679 0.383562
vn 0.000000 -0.923679 -0.383562
vn 0.000000 -0.923679 -0.383562
vn 0.000000 -0.923679 0.383562
vn 0.000000 -0.923679 0.383562
vn 0.000000 -0.923679 -0.383562
vn 0.000000 -0.381605 0.923679
vn 0.000000 -0.923679 0.383562
vn 0.000000 -0.923679 0.383562
vn 0.000000 -0.381605 0.923679
vn 0.000000 -0.381605 0.923679
vn 0.000000 -0.923679 0.383562
vn 0.000000 0.381605 0.923679
vn 0.000000 -0.381605 0.923679
vn 0.000000 -0.381605 0.923679
vn 0.000000 0.381605 0.923679
vn 0.000000 0.381605 0.923679
vn 0.000000 -0.381605 0.923679
vn 0.000000 0.923679 0.383562
vn 0.000000 0.381605 0.923679
vn 0.000000 0.381605 0.923679
vn 0.000000 0.923679 0.383562
vn 0.000000 0.923679 0.383562
vn 0.000000 0.381605 0.923679
vn 0.000000 0.923679 -0.383562
vn 0.000000 0.923679 0.383562
vn 0.000000 0.923679 0.383562
vn 0.000000 0.923679 -0.383562
vn 0.000000 0.923679 -0.383562
vn 0.000000 0.923679 0.383562
mtllib mtl_p_rus_hose_fitting_end.mtl
g mtl_p_rus_hose_fitting_end
usemtl mtl_p_rus_hose_fitting_end
f 3/3/3 2/2/2 1/1/1
f 6/6/6 5/5/5 4/4/4
f 9/9/9 8/8/8 7/7/7
f 12/12/12 11/11/11 10/10/10
f 15/15/15 14/14/14 13/13/13
f 18/18/18 17/17/17 16/16/16
f 21/21/21 20/20/20 19/19/19
f 24/24/24 23/23/23 22/22/22
f 27/27/27 26/26/26 25/25/25
f 30/30/30 29/29/29 28/28/28
f 33/33/33 32/32/32 31/31/31
f 36/36/36 35/35/35 34/34/34
f 39/39/39 38/38/38 37/37/37
f 42/42/42 41/41/41 40/40/40
f 45/45/45 44/44/44 43/43/43
f 48/48/48 47/47/47 46/46/46
f 51/51/51 50/50/50 49/49/49
f 54/54/54 53/53/53 52/52/52
f 57/57/57 56/56/56 55/55/55
f 60/60/60 59/59/59 58/58/58
f 63/63/63 62/62/62 61/61/61
f 66/66/66 65/65/65 64/64/64
f 69/69/69 68/68/68 67/67/67
f 72/72/72 71/71/71 70/70/70
f 75/75/75 74/74/74 73/73/73
f 78/78/78 77/77/77 76/76/76
f 81/81/81 80/80/80 79/79/79
f 84/84/84 83/83/83 82/82/82
f 87/87/87 86/86/86 85/85/85
f 90/90/90 89/89/89 88/88/88
f 93/93/93 92/92/92 91/91/91
f 96/96/96 95/95/95 94/94/94
f 99/99/99 98/98/98 97/97/97
f 102/102/102 101/101/101 100/100/100
f 105/105/105 104/104/104 103/103/103
f 108/108/108 107/107/107 106/106/106
f 111/111/111 110/110/110 109/109/109
f 114/114/114 113/113/113 112/112/112
f 117/117/117 116/116/116 115/115/115
f 120/120/120 119/119/119 118/118/118
f 123/123/123 122/122/122 121/121/121
f 126/126/126 125/125/125 124/124/124
f 129/129/129 128/128/128 127/127/127
f 132/132/132 131/131/131 130/130/130
f 135/135/135 134/134/134 133/133/133
f 138/138/138 137/137/137 136/136/136
