# Generated by Wraith - Game extraction tools
# Please credit DTZxPorter for using it!

v -26.243889 -63.358364 11.176785
v -48.492382 -48.492401 11.176785
v 0.000008 -68.578598 11.176785
v -48.492382 -48.492401 11.176785
v -26.243916 63.358376 11.176785
v 0.000008 -68.578598 11.176785
v 0.000008 -68.578598 11.176785
v -26.243916 63.358376 11.176785
v 48.492393 -48.492371 11.176785
v 26.243898 -63.358345 11.176785
v 0.000008 -68.578598 11.176785
v 48.492393 -48.492371 11.176785
v -68.578606 -0.000013 11.176785
v -26.243916 63.358376 11.176785
v -48.492382 -48.492401 11.176785
v -63.358383 26.243889 11.176785
v -26.243916 63.358376 11.176785
v -68.578606 -0.000013 11.176785
v -48.492416 48.492393 11.176785
v -26.243916 63.358376 11.176785
v -63.358383 26.243889 11.176785
v -63.358364 -26.243904 11.176785
v -68.578606 -0.000013 11.176785
v -48.492382 -48.492401 11.176785
v 26.243889 63.358395 11.176785
v 48.492401 48.492413 11.176785
v -26.243916 63.358376 11.176785
v 48.492401 48.492413 11.176785
v 63.358383 26.243906 11.176785
v -26.243916 63.358376 11.176785
v 68.578629 0.000000 11.176785
v -26.243916 63.358376 11.176785
v 63.358383 26.243906 11.176785
v 48.492393 -48.492371 11.176785
v -26.243916 63.358376 11.176785
v 68.578629 0.000000 11.176785
v 63.358345 -26.243870 11.176785
v 48.492393 -48.492371 11.176785
v 68.578629 0.000000 11.176785
v 0.000010 -80.997696 -0.001001
v -30.996468 -74.832115 -0.001001
v 0.000008 -68.578598 11.176785
v -30.996468 -74.832115 -0.001001
v -26.243889 -63.358364 11.176785
v 0.000008 -68.578598 11.176785
v -30.996468 -74.832115 -0.001001
v -57.274021 -57.274033 -0.001001
v -26.243889 -63.358364 11.176785
v -57.274021 -57.274033 -0.001001
v -48.492382 -48.492401 11.176785
v -26.243889 -63.358364 11.176785
v -57.274021 -57.274033 -0.001001
v -74.832130 -30.996485 -0.001001
v -48.492382 -48.492401 11.176785
v -74.832130 -30.996485 -0.001001
v -63.358364 -26.243904 11.176785
v -48.492382 -48.492401 11.176785
v -74.832130 -30.996485 -0.001001
v -80.997719 -0.000003 -0.001001
v -63.358364 -26.243904 11.176785
v -80.997719 -0.000003 -0.001001
v -68.578606 -0.000013 11.176785
v -63.358364 -26.243904 11.176785
v -80.997719 -0.000003 -0.001001
v -74.832138 30.996485 -0.001001
v -68.578606 -0.000013 11.176785
v -74.832138 30.996485 -0.001001
v -63.358383 26.243889 11.176785
v -68.578606 -0.000013 11.176785
v -74.832138 30.996485 -0.001001
v -57.274048 57.274048 -0.001001
v -63.358383 26.243889 11.176785
v -57.274048 57.274048 -0.001001
v -48.492416 48.492393 11.176785
v -63.358383 26.243889 11.176785
v -57.274048 57.274048 -0.001001
v -30.996494 74.832161 -0.001001
v -48.492416 48.492393 11.176785
v -30.996494 74.832161 -0.001001
v -26.243916 63.358376 11.176785
v -48.492416 48.492393 11.176785
v -30.996494 74.832161 -0.001001
v 30.996496 74.832169 -0.001001
v -26.243916 63.358376 11.176785
v 30.996496 74.832169 -0.001001
v 26.243889 63.358395 11.176785
v -26.243916 63.358376 11.176785
v 30.996496 74.832169 -0.001001
v 57.274075 57.274075 -0.001001
v 26.243889 63.358395 11.176785
v 57.274075 57.274075 -0.001001
v 48.492401 48.492413 11.176785
v 26.243889 63.358395 11.176785
v 57.274075 57.274075 -0.001001
v 74.832184 30.996510 -0.001001
v 48.492401 48.492413 11.176785
v 74.832184 30.996510 -0.001001
v 63.358383 26.243906 11.176785
v 48.492401 48.492413 11.176785
v 74.832184 30.996510 -0.001001
v 80.997780 0.000003 -0.001001
v 63.358383 26.243906 11.176785
v 80.997780 0.000003 -0.001001
v 68.578629 0.000000 11.176785
v 63.358383 26.243906 11.176785
v 80.997780 0.000003 -0.001001
v 74.832108 -30.996452 -0.001001
v 68.578629 0.000000 11.176785
v 74.832108 -30.996452 -0.001001
v 63.358345 -26.243870 11.176785
v 68.578629 0.000000 11.176785
v 74.832108 -30.996452 -0.001001
v 57.274021 -57.273994 -0.001001
v 63.358345 -26.243870 11.176785
v 57.274021 -57.273994 -0.001001
v 48.492393 -48.492371 11.176785
v 63.358345 -26.243870 11.176785
v 57.274021 -57.273994 -0.001001
v 30.996485 -74.832100 -0.001001
v 48.492393 -48.492371 11.176785
v 30.996485 -74.832100 -0.001001
v 26.243898 -63.358345 11.176785
v 48.492393 -48.492371 11.176785
v 30.996485 -74.832100 -0.001001
v 0.000010 -80.997696 -0.001001
v 26.243898 -63.358345 11.176785
v 0.000010 -80.997696 -0.001001
v 0.000008 -68.578598 11.176785
v 26.243898 -63.358345 11.176785
vt 0.105347 0.550293
vt 0.179688 0.661865
vt 0.079224 0.418457
vt 0.179688 0.661865
vt 0.738770 0.550293
vt 0.079224 0.418457
vt 0.079224 0.418457
vt 0.738770 0.550293
vt 0.179688 0.174805
vt 0.105347 0.286621
vt 0.079224 0.418457
vt 0.179688 0.174805
vt 0.422119 0.762817
vt 0.738770 0.550293
vt 0.179688 0.661865
vt 0.553223 0.736572
vt 0.738770 0.550293
vt 0.422119 0.762817
vt 0.664551 0.661865
vt 0.738770 0.550293
vt 0.553223 0.736572
vt 0.290771 0.736572
vt 0.422119 0.762817
vt 0.179688 0.661865
vt 0.738770 0.286621
vt 0.664551 0.174805
vt 0.738770 0.550293
vt 0.664551 0.174805
vt 0.553223 0.100586
vt 0.738770 0.550293
vt 0.422119 0.074219
vt 0.738770 0.550293
vt 0.553223 0.100586
vt 0.179688 0.174805
vt 0.738770 0.550293
vt 0.422119 0.074219
vt 0.290771 0.100586
vt 0.179688 0.174805
vt 0.422119 0.074219
vt 0.005234 0.417480
vt 0.036957 0.577148
vt 0.055176 0.417480
vt 0.036957 0.577148
vt 0.083130 0.558105
vt 0.055176 0.417480
vt 0.036957 0.577148
vt 0.127319 0.712402
vt 0.083130 0.558105
vt 0.127319 0.712402
vt 0.162598 0.677002
vt 0.083130 0.558105
vt 0.127319 0.712402
vt 0.262451 0.802734
vt 0.162598 0.677002
vt 0.262451 0.802734
vt 0.281738 0.756592
vt 0.162598 0.677002
vt 0.262451 0.802734
vt 0.422119 0.834473
vt 0.281738 0.756592
vt 0.422119 0.834473
vt 0.422119 0.784424
vt 0.281738 0.756592
vt 0.422119 0.834473
vt 0.581543 0.802734
vt 0.422119 0.784424
vt 0.581543 0.802734
vt 0.562500 0.756592
vt 0.422119 0.784424
vt 0.581543 0.802734
vt 0.716797 0.712402
vt 0.562500 0.756592
vt 0.716797 0.712402
vt 0.681641 0.677002
vt 0.562500 0.756592
vt 0.716797 0.712402
vt 0.807129 0.577148
vt 0.681641 0.677002
vt 0.807129 0.577148
vt 0.761230 0.558105
vt 0.681641 0.677002
vt 0.807129 0.577148
vt 0.807129 0.258301
vt 0.761230 0.558105
vt 0.807129 0.258301
vt 0.761230 0.277344
vt 0.761230 0.558105
vt 0.807129 0.258301
vt 0.716797 0.123047
vt 0.761230 0.277344
vt 0.716797 0.123047
vt 0.681641 0.158203
vt 0.761230 0.277344
vt 0.716797 0.123047
vt 0.581543 0.032227
vt 0.681641 0.158203
vt 0.581543 0.032227
vt 0.562500 0.078613
vt 0.681641 0.158203
vt 0.581543 0.032227
vt 0.422119 0.000488
vt 0.562500 0.078613
vt 0.422119 0.000488
vt 0.422119 0.050781
vt 0.562500 0.078613
vt 0.422119 0.000488
vt 0.262451 0.032227
vt 0.422119 0.050781
vt 0.262451 0.032227
vt 0.281738 0.078613
vt 0.422119 0.050781
vt 0.262451 0.032227
vt 0.127319 0.123047
vt 0.281738 0.078613
vt 0.127319 0.123047
vt 0.162598 0.158203
vt 0.281738 0.078613
vt 0.127319 0.123047
vt 0.036957 0.258301
vt 0.162598 0.158203
vt 0.036957 0.258301
vt 0.083130 0.277344
vt 0.162598 0.158203
vt 0.036957 0.258301
vt 0.005234 0.417480
vt 0.083130 0.277344
vt 0.005234 0.417480
vt 0.055176 0.417480
vt 0.083130 0.277344
vn 0.064579 0.156556 0.986301
vn 0.119374 0.119374 0.986301
vn 0.000000 0.168297 0.986301
vn 0.119374 0.119374 0.986301
vn 0.011742 -0.039139 1.000000
vn 0.000000 0.168297 0.986301
vn 0.000000 0.168297 0.986301
vn 0.011742 -0.039139 1.000000
vn -0.119374 0.119374 0.986301
vn -0.064579 0.156556 0.986301
vn 0.000000 0.168297 0.986301
vn -0.119374 0.119374 0.986301
vn 0.168297 0.000000 0.986301
vn 0.011742 -0.039139 1.000000
vn 0.119374 0.119374 0.986301
vn 0.156556 -0.064579 0.986301
vn 0.011742 -0.039139 1.000000
vn 0.168297 0.000000 0.986301
vn 0.119374 -0.119374 0.986301
vn 0.011742 -0.039139 1.000000
vn 0.156556 -0.064579 0.986301
vn 0.156556 0.064579 0.986301
vn 0.168297 0.000000 0.986301
vn 0.119374 0.119374 0.986301
vn -0.048924 -0.152642 0.986301
vn -0.119374 -0.119374 0.986301
vn 0.011742 -0.039139 1.000000
vn -0.119374 -0.119374 0.986301
vn -0.156556 -0.064579 0.986301
vn 0.011742 -0.039139 1.000000
vn -0.168297 0.000000 0.986301
vn 0.011742 -0.039139 1.000000
vn -0.156556 -0.064579 0.986301
vn -0.119374 0.119374 0.986301
vn 0.011742 -0.039139 1.000000
vn -0.168297 0.000000 0.986301
vn -0.156556 0.064579 0.986301
vn -0.119374 0.119374 0.986301
vn -0.168297 0.000000 0.986301
vn 0.000000 -0.669276 0.743640
vn -0.256360 -0.618395 0.743640
vn 0.000000 -0.669276 0.743640
vn -0.256360 -0.618395 0.743640
vn -0.256360 -0.618395 0.743640
vn 0.000000 -0.669276 0.743640
vn -0.256360 -0.618395 0.743640
vn -0.473581 -0.473581 0.743640
vn -0.256360 -0.618395 0.743640
vn -0.473581 -0.473581 0.743640
vn -0.473581 -0.473581 0.743640
vn -0.256360 -0.618395 0.743640
vn -0.473581 -0.473581 0.743640
vn -0.618395 -0.256360 0.743640
vn -0.473581 -0.473581 0.743640
vn -0.618395 -0.256360 0.743640
vn -0.618395 -0.256360 0.743640
vn -0.473581 -0.473581 0.743640
vn -0.618395 -0.256360 0.743640
vn -0.669276 0.000000 0.743640
vn -0.618395 -0.256360 0.743640
vn -0.669276 0.000000 0.743640
vn -0.669276 0.000000 0.743640
vn -0.618395 -0.256360 0.743640
vn -0.669276 0.000000 0.743640
vn -0.618395 0.256360 0.743640
vn -0.669276 0.000000 0.743640
vn -0.618395 0.256360 0.743640
vn -0.618395 0.256360 0.743640
vn -0.669276 0.000000 0.743640
vn -0.618395 0.256360 0.743640
vn -0.473581 0.473581 0.743640
vn -0.618395 0.256360 0.743640
vn -0.473581 0.473581 0.743640
vn -0.473581 0.473581 0.743640
vn -0.618395 0.256360 0.743640
vn -0.473581 0.473581 0.743640
vn -0.191781 0.643836 0.741683
vn -0.473581 0.473581 0.743640
vn -0.191781 0.643836 0.741683
vn -0.191781 0.643836 0.741683
vn -0.473581 0.473581 0.743640
vn -0.191781 0.643836 0.741683
vn 0.191781 0.643836 0.741683
vn -0.191781 0.643836 0.741683
vn 0.191781 0.643836 0.741683
vn 0.191781 0.643836 0.741683
vn -0.191781 0.643836 0.741683
vn 0.191781 0.643836 0.741683
vn 0.473581 0.473581 0.743640
vn 0.191781 0.643836 0.741683
vn 0.473581 0.473581 0.743640
vn 0.473581 0.473581 0.743640
vn 0.191781 0.643836 0.741683
vn 0.473581 0.473581 0.743640
vn 0.618395 0.256360 0.743640
vn 0.473581 0.473581 0.743640
vn 0.618395 0.256360 0.743640
vn 0.618395 0.256360 0.743640
vn 0.473581 0.473581 0.743640
vn 0.618395 0.256360 0.743640
vn 0.669276 0.000000 0.743640
vn 0.618395 0.256360 0.743640
vn 0.669276 0.000000 0.743640
vn 0.669276 0.000000 0.743640
vn 0.618395 0.256360 0.743640
vn 0.669276 0.000000 0.743640
vn 0.618395 -0.256360 0.743640
vn 0.669276 0.000000 0.743640
vn 0.618395 -0.256360 0.743640
vn 0.618395 -0.256360 0.743640
vn 0.669276 0.000000 0.743640
vn 0.618395 -0.256360 0.743640
vn 0.473581 -0.473581 0.743640
vn 0.618395 -0.256360 0.743640
vn 0.473581 -0.473581 0.743640
vn 0.473581 -0.473581 0.743640
vn 0.618395 -0.256360 0.743640
vn 0.473581 -0.473581 0.743640
vn 0.256360 -0.618395 0.743640
vn 0.473581 -0.473581 0.743640
vn 0.256360 -0.618395 0.743640
vn 0.256360 -0.618395 0.743640
vn 0.473581 -0.473581 0.743640
vn 0.256360 -0.618395 0.743640
vn 0.000000 -0.669276 0.743640
vn 0.256360 -0.618395 0.743640
vn 0.000000 -0.669276 0.743640
vn 0.000000 -0.669276 0.743640
vn 0.256360 -0.618395 0.743640
mtllib mtl_p_rus_vent_ext_round.mtl
g mtl_p_rus_vent_ext_round
usemtl mtl_p_rus_vent_ext_round
f 3/3/3 2/2/2 1/1/1
f 6/6/6 5/5/5 4/4/4
f 9/9/9 8/8/8 7/7/7
f 12/12/12 11/11/11 10/10/10
f 15/15/15 14/14/14 13/13/13
f 18/18/18 17/17/17 16/16/16
f 21/21/21 20/20/20 19/19/19
f 24/24/24 23/23/23 22/22/22
f 27/27/27 26/26/26 25/25/25
f 30/30/30 29/29/29 28/28/28
f 33/33/33 32/32/32 31/31/31
f 36/36/36 35/35/35 34/34/34
f 39/39/39 38/38/38 37/37/37
f 42/42/42 41/41/41 40/40/40
f 45/45/45 44/44/44 43/43/43
f 48/48/48 47/47/47 46/46/46
f 51/51/51 50/50/50 49/49/49
f 54/54/54 53/53/53 52/52/52
f 57/57/57 56/56/56 55/55/55
f 60/60/60 59/59/59 58/58/58
f 63/63/63 62/62/62 61/61/61
f 66/66/66 65/65/65 64/64/64
f 69/69/69 68/68/68 67/67/67
f 72/72/72 71/71/71 70/70/70
f 75/75/75 74/74/74 73/73/73
f 78/78/78 77/77/77 76/76/76
f 81/81/81 80/80/80 79/79/79
f 84/84/84 83/83/83 82/82/82
f 87/87/87 86/86/86 85/85/85
f 90/90/90 89/89/89 88/88/88
f 93/93/93 92/92/92 91/91/91
f 96/96/96 95/95/95 94/94/94
f 99/99/99 98/98/98 97/97/97
f 102/102/102 101/101/101 100/100/100
f 105/105/105 104/104/104 103/103/103
f 108/108/108 107/107/107 106/106/106
f 111/111/111 110/110/110 109/109/109
f 114/114/114 113/113/113 112/112/112
f 117/117/117 116/116/116 115/115/115
f 120/120/120 119/119/119 118/118/118
f 123/123/123 122/122/122 121/121/121
f 126/126/126 125/125/125 124/124/124
f 129/129/129 128/128/128 127/127/127
