# Generated by Wraith - Game extraction tools
# Please credit DTZxPorter for using it!

v -69.980743 2.778107 1.798536
v -69.980743 -2.778107 1.845617
v -69.980743 -0.023543 -2.702700
v 69.956100 0.000000 0.076355
v 55.238186 -2.775819 1.850949
v 55.238186 2.775819 1.803738
v 55.238186 2.775819 1.803738
v 55.238186 -2.775819 1.850949
v -69.980743 -2.778107 1.845617
v -69.980743 2.778107 1.798536
v 55.238186 2.775819 1.803738
v -69.980743 -2.778107 1.845617
v 55.238186 -0.023604 -2.801569
v 69.956100 0.000000 0.076355
v 55.238186 2.775819 1.803738
v 55.238186 2.775819 1.803738
v -69.980743 2.778107 1.798536
v 55.238186 -0.023604 -2.801569
v -69.980743 -0.023543 -2.702700
v 55.238186 -0.023604 -2.801569
v -69.980743 2.778107 1.798536
v 55.238186 -2.775819 1.850949
v 69.956100 0.000000 0.076355
v 55.238186 -0.023604 -2.801569
v 55.238186 -0.023604 -2.801569
v -69.980743 -0.023543 -2.702700
v 55.238186 -2.775819 1.850949
v -69.980743 -2.778107 1.845617
v 55.238186 -2.775819 1.850949
v -69.980743 -0.023543 -2.702700
vt 0.997559 0.636963
vt 0.925781 0.347656
vt 0.950195 0.770020
vt -0.001119 0.499023
vt 0.163696 0.739746
vt 0.163696 0.255371
vt 0.163696 0.255371
vt 0.163696 0.739746
vt 0.998535 0.739990
vt 0.998535 0.254883
vt 0.163696 0.255371
vt 0.998535 0.739990
vt 0.163696 0.001465
vt -0.001119 0.499023
vt 0.163696 0.255371
vt 0.163696 0.255371
vt 0.998535 0.254883
vt 0.163696 0.001465
vt 0.998535 0.001465
vt 0.163696 0.001465
vt 0.998535 0.254883
vt 0.163696 0.739746
vt -0.001119 0.499023
vt 0.163696 0.993362
vt 0.163696 0.993362
vt 0.998535 0.993324
vt 0.163696 0.739746
vt 0.998535 0.739990
vt 0.163696 0.739746
vt 0.998535 0.993324
vn -1.000000 0.000000 0.000000
vn -1.000000 0.000000 0.000000
vn -1.000000 0.000000 0.000000
vn 0.996086 0.007828 -0.095890
vn 0.111546 -0.863014 0.495108
vn 0.109589 0.868885 0.481409
vn 0.109589 0.868885 0.481409
vn 0.111546 -0.863014 0.495108
vn 0.000000 -0.866928 0.497065
vn 0.000000 0.874755 0.483366
vn 0.109589 0.868885 0.481409
vn 0.000000 -0.866928 0.497065
vn 0.095890 -0.005871 -0.996086
vn 0.996086 0.007828 -0.095890
vn 0.109589 0.868885 0.481409
vn 0.109589 0.868885 0.481409
vn 0.000000 0.874755 0.483366
vn 0.095890 -0.005871 -0.996086
vn 0.000000 -0.005871 -1.000000
vn 0.095890 -0.005871 -0.996086
vn 0.000000 0.874755 0.483366
vn 0.111546 -0.863014 0.495108
vn 0.996086 0.007828 -0.095890
vn 0.095890 -0.005871 -0.996086
vn 0.095890 -0.005871 -0.996086
vn 0.000000 -0.005871 -1.000000
vn 0.111546 -0.863014 0.495108
vn 0.000000 -0.866928 0.497065
vn 0.111546 -0.863014 0.495108
vn 0.000000 -0.005871 -1.000000
mtllib mtl_s5_rocket.mtl
g mtl_s5_rocket
usemtl mtl_s5_rocket
f 3/3/3 2/2/2 1/1/1
f 6/6/6 5/5/5 4/4/4
f 9/9/9 8/8/8 7/7/7
f 12/12/12 11/11/11 10/10/10
f 15/15/15 14/14/14 13/13/13
f 18/18/18 17/17/17 16/16/16
f 21/21/21 20/20/20 19/19/19
f 24/24/24 23/23/23 22/22/22
f 27/27/27 26/26/26 25/25/25
f 30/30/30 29/29/29 28/28/28
