# Generated by Wraith - Game extraction tools
# Please credit DTZxPorter for using it!

v -47.896339 -87.517845 -44.383362
v 47.896370 -87.517845 -44.383362
v -47.896339 87.517845 -44.383362
v 47.896370 -87.517845 -44.383362
v 47.896370 87.517845 -44.383362
v -47.896339 87.517845 -44.383362
v -47.896339 -87.517845 -44.383362
v -47.896339 87.517845 -44.383362
v -47.896339 -87.517845 39.091545
v -47.896339 87.517845 -44.383362
v -47.896339 87.517845 39.091545
v -47.896339 -87.517845 39.091545
v -47.896339 87.517845 39.091545
v 47.896374 87.517845 39.091545
v -47.896339 -87.517845 39.091545
v 47.896374 87.517845 39.091545
v 47.896374 -87.517845 39.091545
v -47.896339 -87.517845 39.091545
v -47.896339 -87.517845 39.091545
v 47.896374 -87.517845 39.091545
v -47.896339 -87.517845 -44.383362
v 47.896374 -87.517845 39.091545
v 47.896370 -87.517845 -44.383362
v -47.896339 -87.517845 -44.383362
v 47.896370 87.517845 -44.383362
v 47.896374 87.517845 39.091545
v -47.896339 87.517845 39.091545
v -47.896339 87.517845 -44.383362
v 47.896370 87.517845 -44.383362
v -47.896339 87.517845 39.091545
v 47.896370 87.517845 -44.383362
v 47.896370 -87.517845 -44.383362
v 47.896374 87.517845 39.091545
v 47.896370 -87.517845 -44.383362
v 47.896374 -87.517845 39.091545
v 47.896374 87.517845 39.091545
vt 0.965332 0.026367
vt 0.791016 0.026367
vt 0.965332 0.379883
vt 0.791016 0.026367
vt 0.791016 0.379883
vt 0.965332 0.379883
vt 0.722168 0.238281
vt 0.279785 0.238281
vt 0.722168 0.446777
vt 0.279785 0.238281
vt 0.279785 0.446777
vt 0.722168 0.446777
vt 0.279785 0.446777
vt 0.279785 0.704590
vt 0.722168 0.446777
vt 0.279785 0.704590
vt 0.722168 0.704590
vt 0.722168 0.446777
vt 0.722168 0.446777
vt 0.722168 0.704590
vt 0.959961 0.446777
vt 0.722168 0.704590
vt 0.959961 0.704590
vt 0.959961 0.446777
vt 0.040161 0.704590
vt 0.279785 0.704590
vt 0.279785 0.446777
vt 0.040161 0.446777
vt 0.040161 0.704590
vt 0.279785 0.446777
vt 0.279541 0.912842
vt 0.722168 0.912842
vt 0.279785 0.704590
vt 0.722168 0.912842
vt 0.722168 0.704590
vt 0.279785 0.704590
vn -0.990215 -0.097847 -0.097847
vn 0.097847 -0.097847 -0.990215
vn -0.097847 0.990215 -0.097847
vn 0.097847 -0.097847 -0.990215
vn 0.097847 0.990215 -0.097847
vn -0.097847 0.990215 -0.097847
vn -0.990215 -0.097847 -0.097847
vn -0.097847 0.990215 -0.097847
vn -0.097847 -0.097847 0.990215
vn -0.097847 0.990215 -0.097847
vn -0.097847 0.990215 0.097847
vn -0.097847 -0.097847 0.990215
vn -0.097847 0.990215 0.097847
vn 0.097847 0.990215 0.097847
vn -0.097847 -0.097847 0.990215
vn 0.097847 0.990215 0.097847
vn 0.097847 -0.097847 0.990215
vn -0.097847 -0.097847 0.990215
vn -0.097847 -0.097847 0.990215
vn 0.097847 -0.097847 0.990215
vn -0.990215 -0.097847 -0.097847
vn 0.097847 -0.097847 0.990215
vn 0.097847 -0.097847 -0.990215
vn -0.990215 -0.097847 -0.097847
vn 0.097847 0.990215 -0.097847
vn 0.097847 0.990215 0.097847
vn -0.097847 0.990215 0.097847
vn -0.097847 0.990215 -0.097847
vn 0.097847 0.990215 -0.097847
vn -0.097847 0.990215 0.097847
vn 0.097847 0.990215 -0.097847
vn 0.097847 -0.097847 -0.990215
vn 0.097847 0.990215 0.097847
vn 0.097847 -0.097847 -0.990215
vn 0.097847 -0.097847 0.990215
vn 0.097847 0.990215 0.097847
mtllib mtl_t6_wpn_supply_drop_axis.mtl
g mtl_t6_wpn_supply_drop_axis
usemtl mtl_t6_wpn_supply_drop_axis
f 3/3/3 2/2/2 1/1/1
f 6/6/6 5/5/5 4/4/4
f 9/9/9 8/8/8 7/7/7
f 12/12/12 11/11/11 10/10/10
f 15/15/15 14/14/14 13/13/13
f 18/18/18 17/17/17 16/16/16
f 21/21/21 20/20/20 19/19/19
f 24/24/24 23/23/23 22/22/22
f 27/27/27 26/26/26 25/25/25
f 30/30/30 29/29/29 28/28/28
f 33/33/33 32/32/32 31/31/31
f 36/36/36 35/35/35 34/34/34
