# Generated by Wraith - Game extraction tools
# Please credit DTZxPorter for using it!

v 12.737937 14.513667 6.010999
v -13.253890 14.513667 5.990483
v 12.737937 14.513667 -1.211971
v -13.253890 14.513667 5.990483
v -13.253890 14.513667 -1.196896
v 12.737937 14.513667 -1.211971
v -13.253890 -16.287222 -1.395095
v -13.253890 -16.287222 6.091232
v 12.737937 -16.287222 -1.432710
v -13.253890 -16.287222 6.091232
v 12.737937 -16.287222 6.119309
v 12.737937 -16.287222 -1.432710
v -13.253890 -16.287222 -1.395095
v -13.253890 14.513667 -1.196896
v -13.253890 -16.287222 6.091232
v -13.253890 14.513667 -1.196896
v -13.253890 14.513667 5.990483
v -13.253890 -16.287222 6.091232
v 12.737937 14.513667 6.010999
v 12.737937 -16.287222 6.119309
v -13.253890 14.513667 5.990483
v 12.737937 -16.287222 6.119309
v -13.253890 -16.287222 6.091232
v -13.253890 14.513667 5.990483
v 12.737937 -16.287222 -1.432710
v 12.737937 14.513667 -1.211971
v -13.253890 -16.287222 -1.395095
v 12.737937 14.513667 -1.211971
v -13.253890 14.513667 -1.196896
v -13.253890 -16.287222 -1.395095
v 12.737937 14.513667 6.010999
v 12.737937 14.513667 -1.211971
v 12.737937 -16.287222 6.119309
v 12.737937 14.513667 -1.211971
v 12.737937 -16.287222 -1.432710
v 12.737937 -16.287222 6.119309
vt 0.929199 0.908203
vt 0.349609 0.908203
vt 0.928223 0.995895
vt 0.349609 0.908203
vt 0.349121 0.995712
vt 0.928223 0.995895
vt 0.327148 0.796753
vt 0.327148 0.894348
vt 0.901855 0.796265
vt 0.327148 0.894348
vt 0.901855 0.894714
vt 0.901855 0.796265
vt 0.375732 0.995361
vt 0.975098 0.995361
vt 0.376953 0.907593
vt 0.975098 0.995361
vt 0.976563 0.907593
vt 0.376953 0.907593
vt 0.941406 0.703857
vt 0.941895 0.044922
vt 0.390137 0.704102
vt 0.941895 0.044922
vt 0.391357 0.044922
vt 0.390137 0.704102
vt -0.057556 0.048828
vt -0.061462 0.717041
vt -0.609863 0.053223
vt -0.061462 0.717041
vt -0.620117 0.713379
vt -0.609863 0.053223
vt 0.297852 0.904175
vt 0.298828 0.993713
vt 1.073242 0.902588
vt 0.298828 0.993713
vt 1.074219 0.996889
vt 1.073242 0.902588
vn 0.577299 0.579256 0.577299
vn -0.577299 0.579256 0.577299
vn 0.575342 0.579256 -0.575342
vn -0.577299 0.579256 0.577299
vn -0.577299 0.579256 -0.575342
vn 0.575342 0.579256 -0.575342
vn -0.579256 -0.575342 -0.579256
vn -0.579256 -0.575342 0.577299
vn 0.577299 -0.575342 -0.579256
vn -0.579256 -0.575342 0.577299
vn 0.577299 -0.575342 0.577299
vn 0.577299 -0.575342 -0.579256
vn -0.579256 -0.575342 -0.579256
vn -0.577299 0.579256 -0.575342
vn -0.579256 -0.575342 0.577299
vn -0.577299 0.579256 -0.575342
vn -0.577299 0.579256 0.577299
vn -0.579256 -0.575342 0.577299
vn 0.577299 0.579256 0.577299
vn 0.577299 -0.575342 0.577299
vn -0.577299 0.579256 0.577299
vn 0.577299 -0.575342 0.577299
vn -0.579256 -0.575342 0.577299
vn -0.577299 0.579256 0.577299
vn 0.577299 -0.575342 -0.579256
vn 0.575342 0.579256 -0.575342
vn -0.579256 -0.575342 -0.579256
vn 0.575342 0.579256 -0.575342
vn -0.577299 0.579256 -0.575342
vn -0.579256 -0.575342 -0.579256
vn 0.577299 0.579256 0.577299
vn 0.575342 0.579256 -0.575342
vn 0.577299 -0.575342 0.577299
vn 0.575342 0.579256 -0.575342
vn 0.577299 -0.575342 -0.579256
vn 0.577299 -0.575342 0.577299
mtllib mtl_t6_wpn_c4.mtl
g mtl_t6_wpn_c4
usemtl mtl_t6_wpn_c4
f 3/3/3 2/2/2 1/1/1
f 6/6/6 5/5/5 4/4/4
f 9/9/9 8/8/8 7/7/7
f 12/12/12 11/11/11 10/10/10
f 15/15/15 14/14/14 13/13/13
f 18/18/18 17/17/17 16/16/16
f 21/21/21 20/20/20 19/19/19
f 24/24/24 23/23/23 22/22/22
f 27/27/27 26/26/26 25/25/25
f 30/30/30 29/29/29 28/28/28
f 33/33/33 32/32/32 31/31/31
f 36/36/36 35/35/35 34/34/34
