# Generated by Wraith - Game extraction tools
# Please credit DTZxPorter for using it!

v 6.993458 6.993458 -9.524576
v 9.890244 9.890244 0.040559
v 0.000000 9.890244 -9.524576
v 9.890244 9.890244 0.040559
v 0.000000 13.986918 0.040559
v 0.000000 9.890244 -9.524576
v 0.000000 9.890244 -9.524576
v 0.000000 13.986918 0.040559
v -6.993461 6.993458 -9.524576
v 0.000000 13.986918 0.040559
v -9.890247 9.890244 0.040559
v -6.993461 6.993458 -9.524576
v 0.000000 13.986918 0.040559
v 0.000000 9.890244 9.605693
v -9.890247 9.890244 0.040559
v 0.000000 9.890244 9.605693
v -6.993461 6.993458 9.605693
v -9.890247 9.890244 0.040559
v 9.890244 9.890244 0.040559
v 6.993458 6.993458 9.605693
v 0.000000 13.986918 0.040559
v 6.993458 6.993458 9.605693
v 0.000000 9.890244 9.605693
v 0.000000 13.986918 0.040559
v -6.993461 6.993458 -9.524576
v -9.890247 9.890244 0.040559
v -9.890244 -0.000000 -9.524576
v -9.890247 9.890244 0.040559
v -13.986918 0.000000 0.040559
v -9.890244 -0.000000 -9.524576
v -9.890244 -0.000000 -9.524576
v -13.986918 0.000000 0.040559
v -6.993461 -6.993458 -9.524576
v -13.986918 0.000000 0.040559
v -9.890247 -9.890244 0.040559
v -6.993461 -6.993458 -9.524576
v -13.986918 0.000000 0.040559
v -9.890244 0.000000 9.605693
v -9.890247 -9.890244 0.040559
v -9.890244 0.000000 9.605693
v -6.993461 -6.993458 9.605693
v -9.890247 -9.890244 0.040559
v -9.890247 9.890244 0.040559
v -6.993461 6.993458 9.605693
v -13.986918 0.000000 0.040559
v -6.993461 6.993458 9.605693
v -9.890244 0.000000 9.605693
v -13.986918 0.000000 0.040559
v -6.993461 -6.993458 -9.524576
v -9.890247 -9.890244 0.040559
v -0.000000 -9.890244 -9.524576
v -9.890247 -9.890244 0.040559
v 0.000000 -13.986918 0.040559
v -0.000000 -9.890244 -9.524576
v -0.000000 -9.890244 -9.524576
v 0.000000 -13.986918 0.040559
v 6.993461 -6.993461 -9.524576
v 0.000000 -13.986918 0.040559
v 9.890244 -9.890244 0.040559
v 6.993461 -6.993461 -9.524576
v 0.000000 -13.986918 0.040559
v 0.000000 -9.890244 9.605693
v 9.890244 -9.890244 0.040559
v 0.000000 -9.890244 9.605693
v 6.993461 -6.993461 9.605693
v 9.890244 -9.890244 0.040559
v -9.890247 -9.890244 0.040559
v -6.993461 -6.993458 9.605693
v 0.000000 -13.986918 0.040559
v -6.993461 -6.993458 9.605693
v 0.000000 -9.890244 9.605693
v 0.000000 -13.986918 0.040559
v 6.993461 -6.993461 -9.524576
v 9.890244 -9.890244 0.040559
v 9.890244 0.000000 -9.524576
v 9.890244 -9.890244 0.040559
v 13.986921 0.000000 0.040559
v 9.890244 0.000000 -9.524576
v 9.890244 0.000000 -9.524576
v 13.986921 0.000000 0.040559
v 6.993458 6.993458 -9.524576
v 13.986921 0.000000 0.040559
v 9.890244 9.890244 0.040559
v 6.993458 6.993458 -9.524576
v 13.986921 0.000000 0.040559
v 9.890244 0.000000 9.605693
v 9.890244 9.890244 0.040559
v 9.890244 0.000000 9.605693
v 6.993458 6.993458 9.605693
v 9.890244 9.890244 0.040559
v 9.890244 -9.890244 0.040559
v 6.993461 -6.993461 9.605693
v 13.986921 0.000000 0.040559
v 6.993461 -6.993461 9.605693
v 9.890244 0.000000 9.605693
v 13.986921 0.000000 0.040559
v 9.890244 0.000000 -9.524576
v -0.000000 -0.000000 -13.486585
v 6.993461 -6.993461 -9.524576
v 6.993458 6.993458 -9.524576
v -0.000000 -0.000000 -13.486585
v 9.890244 0.000000 -9.524576
v 0.000000 9.890244 -9.524576
v -0.000000 -0.000000 -13.486585
v 6.993458 6.993458 -9.524576
v -6.993461 6.993458 -9.524576
v -0.000000 -0.000000 -13.486585
v 0.000000 9.890244 -9.524576
v -9.890244 -0.000000 -9.524576
v -0.000000 -0.000000 -13.486585
v -6.993461 6.993458 -9.524576
v -6.993461 -6.993458 -9.524576
v -0.000000 -0.000000 -13.486585
v -9.890244 -0.000000 -9.524576
v -0.000000 -9.890244 -9.524576
v -0.000000 -0.000000 -13.486585
v -6.993461 -6.993458 -9.524576
v 6.993461 -6.993461 -9.524576
v -0.000000 -0.000000 -13.486585
v -0.000000 -9.890244 -9.524576
v 6.993458 6.993458 9.605693
v 0.000000 0.000000 13.567702
v 0.000000 9.890244 9.605693
v 9.890244 0.000000 9.605693
v 0.000000 0.000000 13.567702
v 6.993458 6.993458 9.605693
v 6.993461 -6.993461 9.605693
v 0.000000 0.000000 13.567702
v 9.890244 0.000000 9.605693
v 0.000000 -9.890244 9.605693
v 0.000000 0.000000 13.567702
v 6.993461 -6.993461 9.605693
v -6.993461 -6.993458 9.605693
v 0.000000 0.000000 13.567702
v 0.000000 -9.890244 9.605693
v -9.890244 0.000000 9.605693
v 0.000000 0.000000 13.567702
v -6.993461 -6.993458 9.605693
v -6.993461 6.993458 9.605693
v 0.000000 0.000000 13.567702
v -9.890244 0.000000 9.605693
v 0.000000 9.890244 9.605693
v 0.000000 0.000000 13.567702
v -6.993461 6.993458 9.605693
vt 0.207764 0.555420
vt 0.140991 0.535156
vt 0.207764 0.604004
vt 0.140991 0.535156
vt 0.140991 0.604004
vt 0.207764 0.604004
vt 0.207764 0.604004
vt 0.140991 0.604004
vt 0.207764 0.652832
vt 0.140991 0.604004
vt 0.140991 0.673096
vt 0.207764 0.652832
vt 0.140991 0.604004
vt 0.074341 0.604004
vt 0.140991 0.673096
vt 0.074341 0.604004
vt 0.074341 0.652832
vt 0.140991 0.673096
vt 0.140991 0.535156
vt 0.074341 0.555420
vt 0.140991 0.604004
vt 0.074341 0.555420
vt 0.074341 0.604004
vt 0.140991 0.604004
vt 0.210327 0.652832
vt 0.277100 0.673096
vt 0.210327 0.604004
vt 0.277100 0.673096
vt 0.277100 0.604004
vt 0.210327 0.604004
vt 0.210327 0.604004
vt 0.277100 0.604004
vt 0.210327 0.555420
vt 0.277100 0.604004
vt 0.277100 0.535156
vt 0.210327 0.555420
vt 0.277100 0.604004
vt 0.343750 0.604004
vt 0.277100 0.535156
vt 0.343750 0.604004
vt 0.343750 0.555420
vt 0.277100 0.535156
vt 0.277100 0.673096
vt 0.343750 0.652832
vt 0.277100 0.604004
vt 0.343750 0.652832
vt 0.343750 0.604004
vt 0.277100 0.604004
vt 0.335449 0.792358
vt 0.402344 0.812622
vt 0.335449 0.743652
vt 0.402344 0.812622
vt 0.402344 0.743652
vt 0.335449 0.743652
vt 0.335449 0.743652
vt 0.402344 0.743652
vt 0.335449 0.694824
vt 0.402344 0.743652
vt 0.402344 0.674805
vt 0.335449 0.694824
vt 0.402344 0.743652
vt 0.468994 0.743652
vt 0.402344 0.674805
vt 0.468994 0.743652
vt 0.468994 0.694824
vt 0.402344 0.674805
vt 0.402344 0.812622
vt 0.468994 0.792358
vt 0.402344 0.743652
vt 0.468994 0.792358
vt 0.468994 0.743652
vt 0.402344 0.743652
vt 0.333008 0.694824
vt 0.266357 0.674805
vt 0.333008 0.743652
vt 0.266357 0.674805
vt 0.266357 0.743652
vt 0.333008 0.743652
vt 0.333008 0.743652
vt 0.266357 0.743652
vt 0.333008 0.792358
vt 0.266357 0.743652
vt 0.266357 0.812622
vt 0.333008 0.792358
vt 0.266357 0.743652
vt 0.199707 0.743652
vt 0.266357 0.812622
vt 0.199707 0.743652
vt 0.199707 0.792358
vt 0.266357 0.812622
vt 0.266357 0.674805
vt 0.199707 0.694824
vt 0.266357 0.743652
vt 0.199707 0.694824
vt 0.199707 0.743652
vt 0.266357 0.743652
vt 0.212280 0.883118
vt 0.143311 0.883118
vt 0.192017 0.931946
vt 0.192017 0.834351
vt 0.143311 0.883118
vt 0.212280 0.883118
vt 0.143311 0.814209
vt 0.143311 0.883118
vt 0.192017 0.834351
vt 0.094543 0.834351
vt 0.143311 0.883118
vt 0.143311 0.814209
vt 0.074341 0.883118
vt 0.143311 0.883118
vt 0.094543 0.834351
vt 0.094543 0.931946
vt 0.143311 0.883118
vt 0.074341 0.883118
vt 0.143311 0.952118
vt 0.143311 0.883118
vt 0.094543 0.931946
vt 0.192017 0.931946
vt 0.143311 0.883118
vt 0.143311 0.952118
vt 0.332764 0.931946
vt 0.283936 0.883118
vt 0.283936 0.952118
vt 0.352783 0.883118
vt 0.283936 0.883118
vt 0.332764 0.931946
vt 0.332764 0.834351
vt 0.283936 0.883118
vt 0.352783 0.883118
vt 0.283936 0.814209
vt 0.283936 0.883118
vt 0.332764 0.834351
vt 0.235107 0.834351
vt 0.283936 0.883118
vt 0.283936 0.814209
vt 0.214966 0.883118
vt 0.283936 0.883118
vt 0.235107 0.834351
vt 0.235107 0.931946
vt 0.283936 0.883118
vt 0.214966 0.883118
vt 0.283936 0.952118
vt 0.283936 0.883118
vt 0.235107 0.931946
vn 0.487280 0.487280 -0.724070
vn 0.706458 0.706458 0.000000
vn 0.000000 0.690802 -0.724070
vn 0.706458 0.706458 0.000000
vn 0.000000 1.000000 0.000000
vn 0.000000 0.690802 -0.724070
vn 0.000000 0.690802 -0.724070
vn 0.000000 1.000000 0.000000
vn -0.487280 0.487280 -0.724070
vn 0.000000 1.000000 0.000000
vn -0.706458 0.706458 0.000000
vn -0.487280 0.487280 -0.724070
vn 0.000000 1.000000 0.000000
vn 0.000000 0.690802 0.724070
vn -0.706458 0.706458 0.000000
vn 0.000000 0.690802 0.724070
vn -0.487280 0.487280 0.724070
vn -0.706458 0.706458 0.000000
vn 0.706458 0.706458 0.000000
vn 0.487280 0.487280 0.724070
vn 0.000000 1.000000 0.000000
vn 0.487280 0.487280 0.724070
vn 0.000000 0.690802 0.724070
vn 0.000000 1.000000 0.000000
vn -0.487280 0.487280 -0.724070
vn -0.706458 0.706458 0.000000
vn -0.690802 0.000000 -0.724070
vn -0.706458 0.706458 0.000000
vn -1.000000 0.000000 0.000000
vn -0.690802 0.000000 -0.724070
vn -0.690802 0.000000 -0.724070
vn -1.000000 0.000000 0.000000
vn -0.487280 -0.487280 -0.724070
vn -1.000000 0.000000 0.000000
vn -0.706458 -0.706458 0.000000
vn -0.487280 -0.487280 -0.724070
vn -1.000000 0.000000 0.000000
vn -0.690802 0.000000 0.724070
vn -0.706458 -0.706458 0.000000
vn -0.690802 0.000000 0.724070
vn -0.487280 -0.487280 0.724070
vn -0.706458 -0.706458 0.000000
vn -0.706458 0.706458 0.000000
vn -0.487280 0.487280 0.724070
vn -1.000000 0.000000 0.000000
vn -0.487280 0.487280 0.724070
vn -0.690802 0.000000 0.724070
vn -1.000000 0.000000 0.000000
vn -0.487280 -0.487280 -0.724070
vn -0.706458 -0.706458 0.000000
vn 0.000000 -0.690802 -0.724070
vn -0.706458 -0.706458 0.000000
vn 0.000000 -1.000000 0.000000
vn 0.000000 -0.690802 -0.724070
vn 0.000000 -0.690802 -0.724070
vn 0.000000 -1.000000 0.000000
vn 0.487280 -0.487280 -0.724070
vn 0.000000 -1.000000 0.000000
vn 0.706458 -0.706458 0.000000
vn 0.487280 -0.487280 -0.724070
vn 0.000000 -1.000000 0.000000
vn 0.000000 -0.690802 0.724070
vn 0.706458 -0.706458 0.000000
vn 0.000000 -0.690802 0.724070
vn 0.487280 -0.487280 0.724070
vn 0.706458 -0.706458 0.000000
vn -0.706458 -0.706458 0.000000
vn -0.487280 -0.487280 0.724070
vn 0.000000 -1.000000 0.000000
vn -0.487280 -0.487280 0.724070
vn 0.000000 -0.690802 0.724070
vn 0.000000 -1.000000 0.000000
vn 0.487280 -0.487280 -0.724070
vn 0.706458 -0.706458 0.000000
vn 0.690802 0.000000 -0.724070
vn 0.706458 -0.706458 0.000000
vn 1.000000 0.000000 0.000000
vn 0.690802 0.000000 -0.724070
vn 0.690802 0.000000 -0.724070
vn 1.000000 0.000000 0.000000
vn 0.487280 0.487280 -0.724070
vn 1.000000 0.000000 0.000000
vn 0.706458 0.706458 0.000000
vn 0.487280 0.487280 -0.724070
vn 1.000000 0.000000 0.000000
vn 0.690802 0.000000 0.724070
vn 0.706458 0.706458 0.000000
vn 0.690802 0.000000 0.724070
vn 0.487280 0.487280 0.724070
vn 0.706458 0.706458 0.000000
vn 0.706458 -0.706458 0.000000
vn 0.487280 -0.487280 0.724070
vn 1.000000 0.000000 0.000000
vn 0.487280 -0.487280 0.724070
vn 0.690802 0.000000 0.724070
vn 1.000000 0.000000 0.000000
vn 0.690802 0.000000 -0.724070
vn 0.000000 0.000000 -1.000000
vn 0.487280 -0.487280 -0.724070
vn 0.487280 0.487280 -0.724070
vn 0.000000 0.000000 -1.000000
vn 0.690802 0.000000 -0.724070
vn 0.000000 0.690802 -0.724070
vn 0.000000 0.000000 -1.000000
vn 0.487280 0.487280 -0.724070
vn -0.487280 0.487280 -0.724070
vn 0.000000 0.000000 -1.000000
vn 0.000000 0.690802 -0.724070
vn -0.690802 0.000000 -0.724070
vn 0.000000 0.000000 -1.000000
vn -0.487280 0.487280 -0.724070
vn -0.487280 -0.487280 -0.724070
vn 0.000000 0.000000 -1.000000
vn -0.690802 0.000000 -0.724070
vn 0.000000 -0.690802 -0.724070
vn 0.000000 0.000000 -1.000000
vn -0.487280 -0.487280 -0.724070
vn 0.487280 -0.487280 -0.724070
vn 0.000000 0.000000 -1.000000
vn 0.000000 -0.690802 -0.724070
vn 0.487280 0.487280 0.724070
vn 0.000000 0.000000 1.000000
vn 0.000000 0.690802 0.724070
vn 0.690802 0.000000 0.724070
vn 0.000000 0.000000 1.000000
vn 0.487280 0.487280 0.724070
vn 0.487280 -0.487280 0.724070
vn 0.000000 0.000000 1.000000
vn 0.690802 0.000000 0.724070
vn 0.000000 -0.690802 0.724070
vn 0.000000 0.000000 1.000000
vn 0.487280 -0.487280 0.724070
vn -0.487280 -0.487280 0.724070
vn 0.000000 0.000000 1.000000
vn 0.000000 -0.690802 0.724070
vn -0.690802 0.000000 0.724070
vn 0.000000 0.000000 1.000000
vn -0.487280 -0.487280 0.724070
vn -0.487280 0.487280 0.724070
vn 0.000000 0.000000 1.000000
vn -0.690802 0.000000 0.724070
vn 0.000000 0.690802 0.724070
vn 0.000000 0.000000 1.000000
vn -0.487280 0.487280 0.724070
mtllib mtl_t6_wpn_motion_sensor.mtl
g mtl_t6_wpn_motion_sensor
usemtl mtl_t6_wpn_motion_sensor
f 3/3/3 2/2/2 1/1/1
f 6/6/6 5/5/5 4/4/4
f 9/9/9 8/8/8 7/7/7
f 12/12/12 11/11/11 10/10/10
f 15/15/15 14/14/14 13/13/13
f 18/18/18 17/17/17 16/16/16
f 21/21/21 20/20/20 19/19/19
f 24/24/24 23/23/23 22/22/22
f 27/27/27 26/26/26 25/25/25
f 30/30/30 29/29/29 28/28/28
f 33/33/33 32/32/32 31/31/31
f 36/36/36 35/35/35 34/34/34
f 39/39/39 38/38/38 37/37/37
f 42/42/42 41/41/41 40/40/40
f 45/45/45 44/44/44 43/43/43
f 48/48/48 47/47/47 46/46/46
f 51/51/51 50/50/50 49/49/49
f 54/54/54 53/53/53 52/52/52
f 57/57/57 56/56/56 55/55/55
f 60/60/60 59/59/59 58/58/58
f 63/63/63 62/62/62 61/61/61
f 66/66/66 65/65/65 64/64/64
f 69/69/69 68/68/68 67/67/67
f 72/72/72 71/71/71 70/70/70
f 75/75/75 74/74/74 73/73/73
f 78/78/78 77/77/77 76/76/76
f 81/81/81 80/80/80 79/79/79
f 84/84/84 83/83/83 82/82/82
f 87/87/87 86/86/86 85/85/85
f 90/90/90 89/89/89 88/88/88
f 93/93/93 92/92/92 91/91/91
f 96/96/96 95/95/95 94/94/94
f 99/99/99 98/98/98 97/97/97
f 102/102/102 101/101/101 100/100/100
f 105/105/105 104/104/104 103/103/103
f 108/108/108 107/107/107 106/106/106
f 111/111/111 110/110/110 109/109/109
f 114/114/114 113/113/113 112/112/112
f 117/117/117 116/116/116 115/115/115
f 120/120/120 119/119/119 118/118/118
f 123/123/123 122/122/122 121/121/121
f 126/126/126 125/125/125 124/124/124
f 129/129/129 128/128/128 127/127/127
f 132/132/132 131/131/131 130/130/130
f 135/135/135 134/134/134 133/133/133
f 138/138/138 137/137/137 136/136/136
f 141/141/141 140/140/140 139/139/139
f 144/144/144 143/143/143 142/142/142
