# Generated by Wraith - Game extraction tools
# Please credit DTZxPorter for using it!

v 7.139256 1.696372 -7.556922
v 7.139254 1.696372 -3.260774
v -6.321252 1.696372 -7.556922
v 7.139254 1.696372 -3.260774
v -6.321252 1.696372 -3.260774
v -6.321252 1.696372 -7.556922
v -6.321252 1.696372 -7.556922
v -6.321252 1.696372 -3.260774
v -6.321252 -1.339906 -7.556922
v -6.321252 1.696372 -3.260774
v -6.321252 -1.339906 -3.260774
v -6.321252 -1.339906 -7.556922
v 7.139256 -1.339906 -3.260774
v 7.139254 1.696372 -3.260774
v 7.139256 -1.339906 -7.556922
v 7.139254 1.696372 -3.260774
v 7.139256 1.696372 -7.556922
v 7.139256 -1.339906 -7.556922
v 7.139256 -1.339906 -7.556922
v -6.321252 -1.339906 -7.556922
v 7.139256 -1.339906 -3.260774
v -6.321252 -1.339906 -7.556922
v -6.321252 -1.339906 -3.260774
v 7.139256 -1.339906 -3.260774
v -6.321252 -1.339906 -7.556922
v 7.139256 -1.339906 -7.556922
v -6.321252 1.696372 -7.556922
v 7.139256 -1.339906 -7.556922
v 7.139256 1.696372 -7.556922
v -6.321252 1.696372 -7.556922
v 7.139254 1.696372 -3.260774
v 7.139256 -1.339906 -3.260774
v -6.321252 1.696372 -3.260774
v 7.139256 -1.339906 -3.260774
v -6.321252 -1.339906 -3.260774
v -6.321252 1.696372 -3.260774
vt 0.601563 0.075195
vt 0.601563 0.003906
vt 0.354980 0.075195
vt 0.601563 0.003906
vt 0.354980 0.003906
vt 0.354980 0.075195
vt 0.354980 0.075195
vt 0.353760 0.003906
vt 0.299805 0.075195
vt 0.353760 0.003906
vt 0.301025 0.003906
vt 0.299805 0.075195
vt 0.295654 0.080566
vt 0.295654 0.028809
vt 0.226318 0.079590
vt 0.295654 0.028809
vt 0.226318 0.029785
vt 0.226318 0.079590
vt -0.396240 0.076172
vt -0.642578 0.076172
vt -0.398926 0.005371
vt -0.642578 0.076172
vt -0.642090 0.005371
vt -0.398926 0.005371
vt 0.361328 0.074707
vt 0.601563 0.075195
vt 0.361328 0.044922
vt 0.601563 0.075195
vt 0.601563 0.044922
vt 0.361328 0.044922
vt -0.663086 0.079102
vt -0.663086 0.079102
vt -0.457275 0.079102
vt -0.663086 0.079102
vt -0.457275 0.079102
vt -0.457275 0.079102
vn 0.000000 1.000000 0.000000
vn 0.000000 1.000000 0.000000
vn 0.000000 1.000000 0.000000
vn 0.000000 1.000000 0.000000
vn 0.000000 1.000000 0.000000
vn 0.000000 1.000000 0.000000
vn -1.000000 0.000000 0.000000
vn -1.000000 0.000000 0.000000
vn -1.000000 0.000000 0.000000
vn -1.000000 0.000000 0.000000
vn -1.000000 0.000000 0.000000
vn -1.000000 0.000000 0.000000
vn 1.000000 0.000000 0.000000
vn 1.000000 0.000000 0.000000
vn 1.000000 0.000000 0.000000
vn 1.000000 0.000000 0.000000
vn 1.000000 0.000000 0.000000
vn 1.000000 0.000000 0.000000
vn 0.000000 -1.000000 0.000000
vn 0.000000 -1.000000 0.000000
vn 0.000000 -1.000000 0.000000
vn 0.000000 -1.000000 0.000000
vn 0.000000 -1.000000 0.000000
vn 0.000000 -1.000000 0.000000
vn 0.000000 0.000000 -1.000000
vn 0.000000 0.000000 -1.000000
vn 0.000000 0.000000 -1.000000
vn 0.000000 0.000000 -1.000000
vn 0.000000 0.000000 -1.000000
vn 0.000000 0.000000 -1.000000
vn 0.000000 0.000000 1.000000
vn 0.000000 0.000000 1.000000
vn 0.000000 0.000000 1.000000
vn 0.000000 0.000000 1.000000
vn 0.000000 0.000000 1.000000
vn 0.000000 0.000000 1.000000
mtllib mtl_t6_wpn_sniper_dsr50_camo2.mtl
g mtl_t6_wpn_sniper_dsr50_camo2
usemtl mtl_t6_wpn_sniper_dsr50_camo2
f 3/3/3 2/2/2 1/1/1
f 6/6/6 5/5/5 4/4/4
f 9/9/9 8/8/8 7/7/7
f 12/12/12 11/11/11 10/10/10
f 15/15/15 14/14/14 13/13/13
f 18/18/18 17/17/17 16/16/16
f 21/21/21 20/20/20 19/19/19
f 24/24/24 23/23/23 22/22/22
f 27/27/27 26/26/26 25/25/25
f 30/30/30 29/29/29 28/28/28
f 33/33/33 32/32/32 31/31/31
f 36/36/36 35/35/35 34/34/34
