# Generated by Wraith - Game extraction tools
# Please credit DTZxPorter for using it!

v -11.366210 -5.170719 8.152552
v -10.650395 -6.361174 5.028006
v -3.888941 -3.031706 7.589068
v -10.650395 -6.361174 5.028006
v -3.644023 -4.702063 4.917285
v -3.888941 -3.031706 7.589068
v -3.888941 -3.031706 7.589068
v -3.644023 -4.702063 4.917285
v 3.644021 -4.098656 4.917285
v 3.888938 -2.633947 7.589068
v -3.888941 -3.031706 7.589068
v 3.644021 -4.098656 4.917285
v -10.650395 -6.361174 5.028006
v -9.667897 -5.814728 0.231691
v -3.644023 -4.702063 4.917285
v -9.667897 -5.814728 0.231691
v -3.307862 -4.814306 1.753842
v -3.644023 -4.702063 4.917285
v -3.644023 -4.702063 4.917285
v -3.307862 -4.814306 1.753842
v 3.307862 -4.197081 1.753842
v 3.644021 -4.098656 4.917285
v -3.644023 -4.702063 4.917285
v 3.307862 -4.197081 1.753842
v -3.307862 -4.814306 1.753842
v -9.667897 -5.814728 0.231691
v -3.307862 -0.035794 -0.452201
v -3.307862 -4.814306 1.753842
v -3.307862 -0.035794 -0.452201
v 3.307862 -4.197081 1.753842
v -3.307862 -0.035794 -0.452201
v 3.307862 -0.006881 -0.452201
v 3.307862 -4.197081 1.753842
v 3.307862 -0.006881 -0.452201
v -3.307862 -0.035794 -0.452201
v 3.307862 4.246095 1.753842
v -3.307862 -0.035794 -0.452201
v -3.307862 4.814306 1.753842
v 3.307862 4.246095 1.753842
v -3.307862 4.814306 1.753842
v -3.888941 4.620438 9.306400
v 3.307862 4.246095 1.753842
v -3.888941 4.620438 9.306400
v 3.888938 4.076098 9.306400
v 3.307862 4.246095 1.753842
v -9.667897 -5.814728 0.231691
v -9.667897 -0.042634 -2.273668
v -3.307862 -0.035794 -0.452201
v -9.667897 -0.042634 -2.273668
v -9.667897 5.814725 0.231691
v -3.307862 -0.035794 -0.452201
v -9.667897 5.814725 0.231691
v -3.307862 4.814306 1.753842
v -3.307862 -0.035794 -0.452201
v -9.667897 5.814725 0.231691
v -10.722718 6.671787 7.944795
v -3.307862 4.814306 1.753842
v -10.722718 6.671787 7.944795
v -3.888941 4.620438 9.306400
v -3.307862 4.814306 1.753842
vt 0.000000 0.008301
vt 0.000000 0.146484
vt 0.333252 0.008301
vt 0.000000 0.146484
vt 0.333252 0.146484
vt 0.333252 0.008301
vt 0.333252 0.008301
vt 0.333252 0.146484
vt 0.718262 0.146484
vt 0.718262 0.008301
vt 0.333252 0.008301
vt 0.718262 0.146484
vt 0.000000 0.146484
vt 0.000000 0.336426
vt 0.333252 0.146484
vt 0.000000 0.336426
vt 0.333252 0.336426
vt 0.333252 0.146484
vt 0.333252 0.146484
vt 0.333252 0.336426
vt 0.718262 0.336426
vt 0.718262 0.146484
vt 0.333252 0.146484
vt 0.718262 0.336426
vt 0.333252 0.336426
vt 0.000000 0.336426
vt 0.333252 0.499023
vt 0.333252 0.336426
vt 0.333252 0.499023
vt 0.718262 0.336426
vt 0.333252 0.499023
vt 0.718262 0.499023
vt 0.718262 0.336426
vt 0.718262 0.499023
vt 0.333252 0.499023
vt 0.718262 0.664063
vt 0.333252 0.499023
vt 0.333252 0.664063
vt 0.718262 0.664063
vt 0.333252 0.664063
vt 0.333252 0.991753
vt 0.718262 0.664063
vt 0.333252 0.991753
vt 0.718262 0.991753
vt 0.718262 0.664063
vt 0.000000 0.336426
vt 0.000000 0.499023
vt 0.333252 0.499023
vt 0.000000 0.499023
vt 0.000000 0.664063
vt 0.333252 0.499023
vt 0.000000 0.664063
vt 0.333252 0.664063
vt 0.333252 0.499023
vt 0.000000 0.664063
vt 0.000000 0.991753
vt 0.333252 0.664063
vt 0.000000 0.991753
vt 0.333252 0.991753
vt 0.333252 0.664063
vn -0.244618 0.853229 -0.461840
vn -0.228963 0.947162 -0.227006
vn -0.152642 0.861057 -0.485323
vn -0.228963 0.947162 -0.227006
vn -0.152642 0.954990 -0.254403
vn -0.152642 0.861057 -0.485323
vn -0.152642 0.861057 -0.485323
vn -0.152642 0.954990 -0.254403
vn -0.074364 0.956947 -0.277887
vn -0.056751 0.861057 -0.504892
vn -0.152642 0.861057 -0.485323
vn -0.074364 0.956947 -0.277887
vn -0.228963 0.947162 -0.227006
vn -0.270059 0.804305 0.528376
vn -0.152642 0.954990 -0.254403
vn -0.270059 0.804305 0.528376
vn -0.168297 0.833659 0.524462
vn -0.152642 0.954990 -0.254403
vn -0.152642 0.954990 -0.254403
vn -0.168297 0.833659 0.524462
vn -0.064579 0.855186 0.514677
vn -0.074364 0.956947 -0.277887
vn -0.152642 0.954990 -0.254403
vn -0.064579 0.855186 0.514677
vn -0.168297 0.833659 0.524462
vn -0.270059 0.804305 0.528376
vn -0.156556 0.001957 0.988258
vn -0.168297 0.833659 0.524462
vn -0.156556 0.001957 0.988258
vn -0.064579 0.855186 0.514677
vn -0.156556 0.001957 0.988258
vn -0.021526 0.001957 1.000000
vn -0.064579 0.855186 0.514677
vn -0.021526 0.001957 1.000000
vn -0.156556 0.001957 0.988258
vn -0.056751 -0.851272 0.520548
vn -0.156556 0.001957 0.988258
vn -0.174168 -0.831703 0.528376
vn -0.056751 -0.851272 0.520548
vn -0.174168 -0.831703 0.528376
vn -0.152642 -0.988258 -0.003914
vn -0.056751 -0.851272 0.520548
vn -0.152642 -0.988258 -0.003914
vn -0.076321 -0.996086 -0.023483
vn -0.056751 -0.851272 0.520548
vn -0.270059 0.804305 0.528376
vn -0.285714 0.001957 0.958904
vn -0.156556 0.001957 0.988258
vn -0.285714 0.001957 0.958904
vn -0.287671 -0.798434 0.528376
vn -0.156556 0.001957 0.988258
vn -0.287671 -0.798434 0.528376
vn -0.174168 -0.831703 0.528376
vn -0.156556 0.001957 0.988258
vn -0.287671 -0.798434 0.528376
vn -0.228963 -0.972603 0.017613
vn -0.174168 -0.831703 0.528376
vn -0.228963 -0.972603 0.017613
vn -0.152642 -0.988258 -0.003914
vn -0.174168 -0.831703 0.528376
mtllib mtl_fx_decal_burnt_paper.mtl
g mtl_fx_decal_burnt_paper
usemtl mtl_fx_decal_burnt_paper
f 3/3/3 2/2/2 1/1/1
f 6/6/6 5/5/5 4/4/4
f 9/9/9 8/8/8 7/7/7
f 12/12/12 11/11/11 10/10/10
f 15/15/15 14/14/14 13/13/13
f 18/18/18 17/17/17 16/16/16
f 21/21/21 20/20/20 19/19/19
f 24/24/24 23/23/23 22/22/22
f 27/27/27 26/26/26 25/25/25
f 30/30/30 29/29/29 28/28/28
f 33/33/33 32/32/32 31/31/31
f 36/36/36 35/35/35 34/34/34
f 39/39/39 38/38/38 37/37/37
f 42/42/42 41/41/41 40/40/40
f 45/45/45 44/44/44 43/43/43
f 48/48/48 47/47/47 46/46/46
f 51/51/51 50/50/50 49/49/49
f 54/54/54 53/53/53 52/52/52
f 57/57/57 56/56/56 55/55/55
f 60/60/60 59/59/59 58/58/58
