# Generated by Wraith - Game extraction tools
# Please credit DTZxPorter for using it!

v 25.953560 18.843338 6.719169
v 25.953560 18.843334 -2.666284
v 25.953560 -18.863354 6.719169
v 25.953560 18.843334 -2.666284
v 25.953560 -18.863354 -2.666284
v 25.953560 -18.863354 6.719169
v 25.953560 18.843338 6.719169
v -27.126152 18.843338 6.719169
v 25.953560 18.843334 -2.666284
v -27.126152 18.843338 6.719169
v -27.126183 18.843334 -2.666284
v 25.953560 18.843334 -2.666284
v -27.126152 18.843338 6.719169
v 25.953560 18.843338 6.719169
v -27.126148 -18.863354 6.719169
v 25.953560 18.843338 6.719169
v 25.953560 -18.863354 6.719169
v -27.126148 -18.863354 6.719169
v 25.953560 -18.863354 6.719169
v 25.953560 -18.863354 -2.666284
v -27.126148 -18.863354 6.719169
v 25.953560 -18.863354 -2.666284
v -27.126181 -18.863354 -2.666284
v -27.126148 -18.863354 6.719169
v -27.126183 18.843334 -2.666284
v -27.126152 18.843338 6.719169
v -27.126181 -18.863354 -2.666284
v -27.126152 18.843338 6.719169
v -27.126148 -18.863354 6.719169
v -27.126181 -18.863354 -2.666284
v -27.126183 18.843334 -2.666284
v -27.126181 -18.863354 -2.666284
v 25.953560 18.843334 -2.666284
v -27.126181 -18.863354 -2.666284
v 25.953560 -18.863354 -2.666284
v 25.953560 18.843334 -2.666284
v 5.361795 -19.414471 4.154655
v 6.225718 -18.483318 3.590417
v 6.225718 -20.345623 4.718896
v 7.398632 -19.414471 4.154655
v 6.225718 -20.345623 4.718896
v 6.225718 -18.483318 3.590417
v -8.019827 -20.345623 4.718896
v -8.019827 -18.483318 3.590417
v -7.156668 -19.414471 4.154655
v -9.191640 -19.414471 4.154655
v -8.019827 -18.483318 3.590417
v -8.019827 -20.345623 4.718896
v 4.561990 -20.215168 -0.070236
v 6.225718 -18.483318 3.590417
v 4.058420 -20.823919 1.128044
v 6.225718 -18.483318 3.590417
v 5.361795 -19.414471 4.154655
v 4.058420 -20.823919 1.128044
v 4.058420 -20.823919 1.128044
v 5.361795 -19.414471 4.154655
v 4.561990 -22.035147 1.032594
v 5.361795 -19.414471 4.154655
v 6.225718 -20.345623 4.718896
v 4.561990 -22.035147 1.032594
v -6.357594 -20.215168 -0.070236
v -5.854482 -20.823919 1.128044
v -8.019827 -18.483318 3.590417
v -5.854482 -20.823919 1.128044
v -7.156668 -19.414471 4.154655
v -8.019827 -18.483318 3.590417
v -8.019827 -20.345623 4.718896
v -7.156668 -19.414471 4.154655
v -6.357594 -22.035147 1.032594
v -7.156668 -19.414471 4.154655
v -5.854482 -20.823919 1.128044
v -6.357594 -22.035147 1.032594
v -9.191640 -19.414471 4.154655
v -8.019827 -20.345623 4.718896
v -6.357594 -22.035147 1.032594
v -6.907705 -21.612961 -0.560570
v -9.191640 -19.414471 4.154655
v -6.357594 -22.035147 1.032594
v -6.907705 -21.612961 -0.560570
v -6.357594 -22.035147 1.032594
v -0.897941 -21.943302 -0.559806
v -6.357594 -22.035147 1.032594
v -0.897941 -22.097681 0.840026
v -0.897941 -21.943302 -0.559806
v 6.225718 -20.345623 4.718896
v 7.398632 -19.414471 4.154655
v 4.561990 -22.035147 1.032594
v 7.398632 -19.414471 4.154655
v 5.112710 -21.612961 -0.560570
v 4.561990 -22.035147 1.032594
v 5.112710 -21.612961 -0.560570
v -0.897941 -21.943302 -0.559806
v 4.561990 -22.035147 1.032594
v -0.897941 -21.943302 -0.559806
v -0.897941 -22.097681 0.840026
v 4.561990 -22.035147 1.032594
v -6.357594 -20.215168 -0.070236
v -8.019827 -18.483318 3.590417
v -9.191640 -19.414471 4.154655
v -6.907705 -21.612961 -0.560570
v -6.357594 -20.215168 -0.070236
v -9.191640 -19.414471 4.154655
v -6.357594 -20.215168 -0.070236
v -6.907705 -21.612961 -0.560570
v -0.897941 -21.943302 -0.559806
v -0.897941 -20.320038 -0.237145
v -6.357594 -20.215168 -0.070236
v -0.897941 -21.943302 -0.559806
v 7.398632 -19.414471 4.154655
v 6.225718 -18.483318 3.590417
v 4.561990 -20.215168 -0.070236
v 5.112710 -21.612961 -0.560570
v 7.398632 -19.414471 4.154655
v 4.561990 -20.215168 -0.070236
v 5.112710 -21.612961 -0.560570
v 4.561990 -20.215168 -0.070236
v -0.897941 -21.943302 -0.559806
v 4.561990 -20.215168 -0.070236
v -0.897941 -20.320038 -0.237145
v -0.897941 -21.943302 -0.559806
v -0.898185 -20.908422 0.946587
v -5.854482 -20.823919 1.128044
v -0.897941 -20.320038 -0.237145
v -5.854482 -20.823919 1.128044
v -6.357594 -20.215168 -0.070236
v -0.897941 -20.320038 -0.237145
v -0.898185 -20.908422 0.946587
v -0.897941 -20.320038 -0.237145
v 4.058420 -20.823919 1.128044
v -0.897941 -20.320038 -0.237145
v 4.561990 -20.215168 -0.070236
v 4.058420 -20.823919 1.128044
v -0.898185 -20.908422 0.946587
v 4.058420 -20.823919 1.128044
v -0.897941 -22.097681 0.840026
v 4.058420 -20.823919 1.128044
v 4.561990 -22.035147 1.032594
v -0.897941 -22.097681 0.840026
v -0.898185 -20.908422 0.946587
v -0.897941 -22.097681 0.840026
v -5.854482 -20.823919 1.128044
v -0.897941 -22.097681 0.840026
v -6.357594 -22.035147 1.032594
v -5.854482 -20.823919 1.128044
v 26.326485 -1.242852 40.355591
v 26.326485 24.962856 12.079483
v 26.326485 -7.004730 35.015610
v 26.326485 24.962856 12.079483
v 26.326485 19.200977 6.739493
v 26.326485 -7.004730 35.015610
v -27.013908 24.962856 12.079483
v -27.013905 -1.242852 40.355598
v -27.013905 19.200977 6.739493
v -27.013905 -1.242852 40.355598
v -27.013905 -7.004730 35.015602
v -27.013905 19.200977 6.739493
v -27.013905 -7.004730 35.015602
v 26.326485 -7.004730 35.015610
v -27.013905 19.200977 6.739493
v 26.326485 -7.004730 35.015610
v 26.326485 19.200977 6.739493
v -27.013905 19.200977 6.739493
v -27.013905 -1.242852 40.355598
v -27.013908 24.962856 12.079483
v 26.326485 -1.242852 40.355591
v -27.013908 24.962856 12.079483
v 26.326485 24.962856 12.079483
v 26.326485 -1.242852 40.355591
v 26.326485 -1.242852 40.355591
v 26.326485 -7.004730 35.015610
v -27.013905 -1.242852 40.355598
v 26.326485 -7.004730 35.015610
v -27.013905 -7.004730 35.015602
v -27.013905 -1.242852 40.355598
v 26.326485 24.962856 12.079483
v -27.013908 24.962856 12.079483
v 26.326485 19.200977 6.739493
v -27.013908 24.962856 12.079483
v -27.013905 19.200977 6.739493
v 26.326485 19.200977 6.739493
vt 0.328857 0.360840
vt 0.322266 0.256348
vt 0.008018 0.360840
vt 0.322266 0.256348
vt 0.015915 0.256348
vt 0.008018 0.360840
vt -0.696289 0.360840
vt -0.969727 0.360840
vt -0.712891 0.256348
vt -0.969727 0.360840
vt -0.957031 0.256348
vt -0.712891 0.256348
vt 0.882813 0.237305
vt 0.986328 0.237305
vt 0.882813 0.159668
vt 0.986328 0.237305
vt 0.986328 0.159668
vt 0.882813 0.159668
vt 0.578613 0.536377
vt 0.568359 0.441895
vt 0.012878 0.536377
vt 0.568359 0.441895
vt 0.021179 0.441895
vt 0.012878 0.536377
vt 0.322266 0.256348
vt 0.328857 0.360840
vt 0.015915 0.256348
vt 0.328857 0.360840
vt 0.008018 0.360840
vt 0.015915 0.256348
vt 0.010948 0.672607
vt 0.010948 0.985542
vt 0.453125 0.672607
vt 0.010948 0.985542
vt 0.453125 0.985542
vt 0.453125 0.672607
vt -0.208496 0.554199
vt -0.190063 0.571289
vt -0.226929 0.571289
vt -0.208496 0.594482
vt -0.226929 0.571289
vt -0.190063 0.571289
vt -0.226929 0.571045
vt -0.190063 0.571045
vt -0.208496 0.553955
vt -0.208496 0.594238
vt -0.190063 0.571045
vt -0.226929 0.571045
vt -0.151245 0.543457
vt -0.221680 0.579102
vt -0.166870 0.536621
vt -0.221680 0.579102
vt -0.226074 0.562256
vt -0.166870 0.536621
vt -0.172241 0.536865
vt -0.231445 0.562256
vt -0.163818 0.543457
vt -0.231445 0.562256
vt -0.235962 0.579102
vt -0.163818 0.543457
vt -0.151245 0.541992
vt -0.166870 0.535156
vt -0.221680 0.577637
vt -0.166870 0.535156
vt -0.226074 0.560791
vt -0.221680 0.577637
vt 0.763672 0.576660
vt 0.768066 0.559814
vt 0.835938 0.541016
vt 0.768066 0.559814
vt 0.827637 0.534180
vt 0.835938 0.541016
vt 0.774902 0.599609
vt 0.763672 0.576660
vt 0.835938 0.541016
vt 0.854980 0.554932
vt 0.774902 0.599609
vt 0.835938 0.541016
vt 0.854980 0.554932
vt 0.835938 0.541016
vt 0.866699 0.437500
vt 0.835938 0.541016
vt 0.839844 0.437500
vt 0.866699 0.437500
vt -0.235962 0.579102
vt -0.224854 0.602051
vt -0.163818 0.543457
vt -0.224854 0.602051
vt -0.144897 0.557373
vt -0.163818 0.543457
vt -0.144897 0.557373
vt -0.133179 0.439941
vt -0.163818 0.543457
vt -0.133179 0.439941
vt -0.160034 0.439941
vt -0.163818 0.543457
vt -0.151245 0.541992
vt -0.221680 0.577637
vt -0.232788 0.600586
vt -0.149414 0.555908
vt -0.151245 0.541992
vt -0.232788 0.600586
vt -0.151245 0.541992
vt -0.149414 0.555908
vt -0.134521 0.437988
vt -0.146851 0.437988
vt -0.151245 0.541992
vt -0.134521 0.437988
vt -0.232788 0.602051
vt -0.221680 0.579102
vt -0.151245 0.543457
vt -0.149414 0.557373
vt -0.232788 0.602051
vt -0.151245 0.543457
vt -0.149414 0.557373
vt -0.151245 0.543457
vt -0.134521 0.439453
vt -0.151245 0.543457
vt -0.146851 0.439453
vt -0.134521 0.439453
vt -0.163330 0.437988
vt -0.166870 0.535156
vt -0.146851 0.437988
vt -0.166870 0.535156
vt -0.151245 0.541992
vt -0.146851 0.437988
vt -0.163330 0.439453
vt -0.146851 0.439453
vt -0.166870 0.536621
vt -0.146851 0.439453
vt -0.151245 0.543457
vt -0.166870 0.536621
vt -0.168701 0.439941
vt -0.172241 0.536865
vt -0.160034 0.439941
vt -0.172241 0.536865
vt -0.163818 0.543457
vt -0.160034 0.439941
vt 0.831055 0.437500
vt 0.839844 0.437500
vt 0.827637 0.534180
vt 0.839844 0.437500
vt 0.835938 0.541016
vt 0.827637 0.534180
vt 0.013893 0.274902
vt 0.281250 0.274902
vt 0.015190 0.343262
vt 0.281250 0.274902
vt 0.279053 0.347656
vt 0.015190 0.343262
vt 0.281250 0.274902
vt 0.013847 0.274902
vt 0.280029 0.338379
vt 0.013847 0.274902
vt 0.014847 0.338379
vt 0.280029 0.338379
vt 0.772461 0.238770
vt 0.884277 0.238770
vt 0.772461 0.158203
vt 0.884277 0.238770
vt 0.884277 0.158203
vt 0.772461 0.158203
vt 0.457520 0.988129
vt 0.458740 0.665039
vt 0.005623 0.988129
vt 0.458740 0.665039
vt 0.004478 0.665039
vt 0.005623 0.988129
vt -0.979004 0.538330
vt -0.985352 0.591553
vt -0.437988 0.538330
vt -0.985352 0.591553
vt -0.431396 0.589111
vt -0.437988 0.538330
vt -0.982910 0.274902
vt -0.690918 0.274902
vt -0.985840 0.348633
vt -0.690918 0.274902
vt -0.687012 0.341309
vt -0.985840 0.348633
vn 1.000000 0.000000 0.000000
vn 1.000000 0.000000 0.000000
vn 1.000000 0.000000 0.000000
vn 1.000000 0.000000 0.000000
vn 1.000000 0.000000 0.000000
vn 1.000000 0.000000 0.000000
vn 0.000000 1.000000 0.000000
vn 0.000000 1.000000 0.000000
vn 0.000000 1.000000 0.000000
vn 0.000000 1.000000 0.000000
vn 0.000000 1.000000 0.000000
vn 0.000000 1.000000 0.000000
vn 0.000000 0.000000 1.000000
vn 0.000000 0.000000 1.000000
vn 0.000000 0.000000 1.000000
vn 0.000000 0.000000 1.000000
vn 0.000000 0.000000 1.000000
vn 0.000000 0.000000 1.000000
vn 0.000000 -1.000000 0.000000
vn 0.000000 -1.000000 0.000000
vn 0.000000 -1.000000 0.000000
vn 0.000000 -1.000000 0.000000
vn 0.000000 -1.000000 0.000000
vn 0.000000 -1.000000 0.000000
vn -1.000000 0.000000 0.000000
vn -1.000000 0.000000 0.000000
vn -1.000000 0.000000 0.000000
vn -1.000000 0.000000 0.000000
vn -1.000000 0.000000 0.000000
vn -1.000000 0.000000 0.000000
vn 0.000000 0.000000 -1.000000
vn 0.000000 0.000000 -1.000000
vn 0.000000 0.000000 -1.000000
vn 0.000000 0.000000 -1.000000
vn 0.000000 0.000000 -1.000000
vn 0.000000 0.000000 -1.000000
vn 0.000000 0.518591 0.855186
vn 0.000000 0.518591 0.855186
vn 0.000000 0.518591 0.855186
vn 0.000000 0.518591 0.855186
vn 0.000000 0.518591 0.855186
vn 0.000000 0.518591 0.855186
vn 0.000000 0.518591 0.855186
vn 0.000000 0.518591 0.855186
vn 0.000000 0.518591 0.855186
vn 0.000000 0.518591 0.855186
vn 0.000000 0.518591 0.855186
vn 0.000000 0.518591 0.855186
vn -0.033268 0.908023 -0.414873
vn -0.046967 0.906067 -0.418787
vn -0.739726 0.671233 0.013699
vn -0.046967 0.906067 -0.418787
vn -0.739726 0.671233 0.013699
vn -0.739726 0.671233 0.013699
vn -0.769080 -0.377691 0.514677
vn -0.769080 -0.377691 0.514677
vn -0.045010 -0.849315 0.526419
vn -0.769080 -0.377691 0.514677
vn -0.093933 -0.892368 0.440313
vn -0.045010 -0.849315 0.526419
vn 0.033268 0.908023 -0.414873
vn 0.739726 0.671233 0.013699
vn 0.046967 0.906067 -0.418787
vn 0.739726 0.671233 0.013699
vn 0.739726 0.671233 0.013699
vn 0.046967 0.906067 -0.418787
vn 0.093933 -0.892368 0.440313
vn 0.769080 -0.377691 0.514677
vn 0.045010 -0.849315 0.526419
vn 0.769080 -0.377691 0.514677
vn 0.769080 -0.377691 0.514677
vn 0.045010 -0.849315 0.526419
vn -0.859100 -0.502935 -0.101761
vn 0.093933 -0.892368 0.440313
vn 0.045010 -0.849315 0.526419
vn -0.579256 -0.420744 -0.698630
vn -0.859100 -0.502935 -0.101761
vn 0.045010 -0.849315 0.526419
vn -0.579256 -0.420744 -0.698630
vn 0.045010 -0.849315 0.526419
vn 0.000000 -0.532290 -0.847358
vn 0.045010 -0.849315 0.526419
vn 0.000000 -0.796477 0.602740
vn 0.000000 -0.532290 -0.847358
vn -0.093933 -0.892368 0.440313
vn 0.917808 -0.187867 -0.348337
vn -0.045010 -0.849315 0.526419
vn 0.917808 -0.187867 -0.348337
vn 0.579256 -0.420744 -0.698630
vn -0.045010 -0.849315 0.526419
vn 0.579256 -0.420744 -0.698630
vn 0.000000 -0.532290 -0.847358
vn -0.045010 -0.849315 0.526419
vn 0.000000 -0.532290 -0.847358
vn 0.000000 -0.796477 0.602740
vn -0.045010 -0.849315 0.526419
vn 0.033268 0.908023 -0.414873
vn 0.046967 0.906067 -0.418787
vn -0.859100 -0.502935 -0.101761
vn -0.579256 -0.420744 -0.698630
vn 0.033268 0.908023 -0.414873
vn -0.859100 -0.502935 -0.101761
vn 0.033268 0.908023 -0.414873
vn -0.579256 -0.420744 -0.698630
vn 0.000000 -0.532290 -0.847358
vn 0.000000 0.911937 -0.410959
vn 0.033268 0.908023 -0.414873
vn 0.000000 -0.532290 -0.847358
vn 0.917808 -0.187867 -0.348337
vn -0.046967 0.906067 -0.418787
vn -0.033268 0.908023 -0.414873
vn 0.579256 -0.420744 -0.698630
vn 0.917808 -0.187867 -0.348337
vn -0.033268 0.908023 -0.414873
vn 0.579256 -0.420744 -0.698630
vn -0.033268 0.908023 -0.414873
vn 0.000000 -0.532290 -0.847358
vn -0.033268 0.908023 -0.414873
vn 0.000000 0.911937 -0.410959
vn 0.000000 -0.532290 -0.847358
vn 0.031311 0.896282 0.444227
vn 0.031311 0.896282 0.444227
vn 0.000000 0.911937 -0.410959
vn 0.031311 0.896282 0.444227
vn 0.033268 0.908023 -0.414873
vn 0.000000 0.911937 -0.410959
vn -0.031311 0.896282 0.444227
vn 0.000000 0.911937 -0.410959
vn -0.031311 0.896282 0.444227
vn 0.000000 0.911937 -0.410959
vn -0.033268 0.908023 -0.414873
vn -0.031311 0.896282 0.444227
vn -0.035225 -0.090020 0.996086
vn -0.035225 -0.090020 0.996086
vn 0.000000 -0.796477 0.602740
vn -0.035225 -0.090020 0.996086
vn -0.045010 -0.849315 0.526419
vn 0.000000 -0.796477 0.602740
vn 0.035225 -0.090020 0.996086
vn 0.000000 -0.796477 0.602740
vn 0.035225 -0.090020 0.996086
vn 0.000000 -0.796477 0.602740
vn 0.045010 -0.849315 0.526419
vn 0.035225 -0.090020 0.996086
vn 1.000000 -0.001957 -0.001957
vn 1.000000 -0.001957 -0.001957
vn 1.000000 -0.001957 -0.001957
vn 1.000000 -0.001957 -0.001957
vn 1.000000 -0.001957 -0.001957
vn 1.000000 -0.001957 -0.001957
vn -1.000000 -0.001957 -0.001957
vn -1.000000 -0.001957 -0.001957
vn -1.000000 -0.001957 -0.001957
vn -1.000000 -0.001957 -0.001957
vn -1.000000 -0.001957 -0.001957
vn -1.000000 -0.001957 -0.001957
vn 0.000000 -0.733855 -0.679061
vn 0.000000 -0.733855 -0.679061
vn 0.000000 -0.733855 -0.679061
vn 0.000000 -0.733855 -0.679061
vn 0.000000 -0.733855 -0.679061
vn 0.000000 -0.733855 -0.679061
vn 0.000000 0.733855 0.679061
vn 0.000000 0.733855 0.679061
vn 0.000000 0.733855 0.679061
vn 0.000000 0.733855 0.679061
vn 0.000000 0.733855 0.679061
vn 0.000000 0.733855 0.679061
vn 0.000000 -0.682975 0.729941
vn 0.000000 -0.682975 0.729941
vn 0.000000 -0.682975 0.729941
vn 0.000000 -0.682975 0.729941
vn 0.000000 -0.682975 0.729941
vn 0.000000 -0.682975 0.729941
vn 0.000000 0.675147 -0.737769
vn 0.000000 0.675147 -0.737769
vn 0.000000 0.675147 -0.737769
vn 0.000000 0.675147 -0.737769
vn 0.000000 0.675147 -0.737769
vn 0.000000 0.675147 -0.737769
mtllib mtl_t6_wpn_briefcase_bomb.mtl
g mtl_t6_wpn_briefcase_bomb
usemtl mtl_t6_wpn_briefcase_bomb
f 3/3/3 2/2/2 1/1/1
f 6/6/6 5/5/5 4/4/4
f 9/9/9 8/8/8 7/7/7
f 12/12/12 11/11/11 10/10/10
f 15/15/15 14/14/14 13/13/13
f 18/18/18 17/17/17 16/16/16
f 21/21/21 20/20/20 19/19/19
f 24/24/24 23/23/23 22/22/22
f 27/27/27 26/26/26 25/25/25
f 30/30/30 29/29/29 28/28/28
f 33/33/33 32/32/32 31/31/31
f 36/36/36 35/35/35 34/34/34
f 39/39/39 38/38/38 37/37/37
f 42/42/42 41/41/41 40/40/40
f 45/45/45 44/44/44 43/43/43
f 48/48/48 47/47/47 46/46/46
f 51/51/51 50/50/50 49/49/49
f 54/54/54 53/53/53 52/52/52
f 57/57/57 56/56/56 55/55/55
f 60/60/60 59/59/59 58/58/58
f 63/63/63 62/62/62 61/61/61
f 66/66/66 65/65/65 64/64/64
f 69/69/69 68/68/68 67/67/67
f 72/72/72 71/71/71 70/70/70
f 75/75/75 74/74/74 73/73/73
f 78/78/78 77/77/77 76/76/76
f 81/81/81 80/80/80 79/79/79
f 84/84/84 83/83/83 82/82/82
f 87/87/87 86/86/86 85/85/85
f 90/90/90 89/89/89 88/88/88
f 93/93/93 92/92/92 91/91/91
f 96/96/96 95/95/95 94/94/94
f 99/99/99 98/98/98 97/97/97
f 102/102/102 101/101/101 100/100/100
f 105/105/105 104/104/104 103/103/103
f 108/108/108 107/107/107 106/106/106
f 111/111/111 110/110/110 109/109/109
f 114/114/114 113/113/113 112/112/112
f 117/117/117 116/116/116 115/115/115
f 120/120/120 119/119/119 118/118/118
f 123/123/123 122/122/122 121/121/121
f 126/126/126 125/125/125 124/124/124
f 129/129/129 128/128/128 127/127/127
f 132/132/132 131/131/131 130/130/130
f 135/135/135 134/134/134 133/133/133
f 138/138/138 137/137/137 136/136/136
f 141/141/141 140/140/140 139/139/139
f 144/144/144 143/143/143 142/142/142
f 147/147/147 146/146/146 145/145/145
f 150/150/150 149/149/149 148/148/148
f 153/153/153 152/152/152 151/151/151
f 156/156/156 155/155/155 154/154/154
f 159/159/159 158/158/158 157/157/157
f 162/162/162 161/161/161 160/160/160
f 165/165/165 164/164/164 163/163/163
f 168/168/168 167/167/167 166/166/166
f 171/171/171 170/170/170 169/169/169
f 174/174/174 173/173/173 172/172/172
f 177/177/177 176/176/176 175/175/175
f 180/180/180 179/179/179 178/178/178
