# Generated by Wraith - Game extraction tools
# Please credit DTZxPorter for using it!

v -1.890528 -2.470569 -2.650375
v -1.890528 2.674701 -2.650375
v -1.890528 0.102065 2.650376
v 15.335488 -2.470569 -2.650375
v 15.335488 0.102065 2.650376
v 15.335488 2.674701 -2.650375
v 15.335488 -2.470569 -2.650375
v 15.335488 2.674701 -2.650375
v -1.890528 -2.470569 -2.650375
v 15.335488 2.674701 -2.650375
v -1.890528 2.674701 -2.650375
v -1.890528 -2.470569 -2.650375
v -1.890528 2.674701 -2.650375
v 15.335488 2.674701 -2.650375
v -1.890528 0.102065 2.650376
v 15.335488 2.674701 -2.650375
v 15.335488 0.102065 2.650376
v -1.890528 0.102065 2.650376
v -1.890528 -2.470569 -2.650375
v -1.890528 0.102065 2.650376
v 15.335488 -2.470569 -2.650375
v -1.890528 0.102065 2.650376
v 15.335488 0.102065 2.650376
v 15.335488 -2.470569 -2.650375
vt 0.086609 0.253418
vt 0.020508 0.253418
vt 0.053558 0.286133
vt 0.096863 0.262207
vt 0.104980 0.286133
vt 0.125610 0.270020
vt 0.355469 0.108887
vt 0.355469 0.122070
vt 0.474854 0.122070
vt 0.355469 0.122070
vt 0.474854 0.122070
vt 0.474854 0.122070
vt 0.474854 0.122070
vt 0.355469 0.122070
vt 0.469727 0.146484
vt 0.355469 0.122070
vt 0.355469 0.147949
vt 0.469727 0.146484
vt 0.474854 0.122070
vt 0.469727 0.146484
vt 0.355469 0.108887
vt 0.469727 0.146484
vt 0.355469 0.147949
vt 0.355469 0.108887
vn -1.000000 0.000000 0.000000
vn -1.000000 0.000000 0.000000
vn -1.000000 0.000000 0.000000
vn 1.000000 0.000000 0.000000
vn 1.000000 0.000000 0.000000
vn 1.000000 0.000000 0.000000
vn 0.000000 0.000000 -1.000000
vn 0.000000 0.000000 -1.000000
vn 0.000000 0.000000 -1.000000
vn 0.000000 0.000000 -1.000000
vn 0.000000 0.000000 -1.000000
vn 0.000000 0.000000 -1.000000
vn 0.000000 0.900196 0.436399
vn 0.000000 0.900196 0.436399
vn 0.000000 0.900196 0.436399
vn 0.000000 0.900196 0.436399
vn 0.000000 0.900196 0.436399
vn 0.000000 0.900196 0.436399
vn 0.000000 -0.900196 0.436399
vn 0.000000 -0.900196 0.436399
vn 0.000000 -0.900196 0.436399
vn 0.000000 -0.900196 0.436399
vn 0.000000 -0.900196 0.436399
vn 0.000000 -0.900196 0.436399
mtllib mtl_t6_wpn_sniper_svu.mtl
g mtl_t6_wpn_sniper_svu
usemtl mtl_t6_wpn_sniper_svu
f 3/3/3 2/2/2 1/1/1
f 6/6/6 5/5/5 4/4/4
f 9/9/9 8/8/8 7/7/7
f 12/12/12 11/11/11 10/10/10
f 15/15/15 14/14/14 13/13/13
f 18/18/18 17/17/17 16/16/16
f 21/21/21 20/20/20 19/19/19
f 24/24/24 23/23/23 22/22/22
