# Generated by Wraith - Game extraction tools
# Please credit DTZxPorter for using it!

v -4.283494 1.516068 4.521645
v 6.260197 0.083045 4.208292
v -4.283494 -1.397541 4.521645
v -3.674097 -1.727423 -9.066829
v 6.242601 0.089004 -6.783268
v -3.674097 1.845917 -9.066829
v 6.260197 0.083045 4.208292
v -4.283494 1.516068 4.521645
v 5.543409 0.101006 -1.001392
v -4.283494 1.516068 4.521645
v -4.615120 1.523779 -1.306657
v 5.543409 0.101006 -1.001392
v 5.543409 0.101006 -1.001392
v -4.615120 1.523779 -1.306657
v 6.242601 0.089004 -6.783268
v -4.615120 1.523779 -1.306657
v -3.674097 1.845917 -9.066829
v 6.242601 0.089004 -6.783268
v 6.260197 0.083045 4.208292
v 5.543409 0.101006 -1.001392
v -4.283494 -1.397541 4.521645
v 5.543409 0.101006 -1.001392
v -4.615120 -1.405285 -1.306657
v -4.283494 -1.397541 4.521645
v 5.543409 0.101006 -1.001392
v 6.242601 0.089004 -6.783268
v -4.615120 -1.405285 -1.306657
v 6.242601 0.089004 -6.783268
v -3.674097 -1.727423 -9.066829
v -4.615120 -1.405285 -1.306657
v -3.674097 1.845917 -9.066829
v -4.615120 1.523779 -1.306657
v -3.674097 -1.727423 -9.066829
v -4.615120 1.523779 -1.306657
v -4.615120 -1.405285 -1.306657
v -3.674097 -1.727423 -9.066829
v -4.615120 -1.405285 -1.306657
v -4.615120 1.523779 -1.306657
v -4.283494 -1.397541 4.521645
v -4.615120 1.523779 -1.306657
v -4.283494 1.516068 4.521645
v -4.283494 -1.397541 4.521645
vt 0.961426 0.471191
vt 0.957520 0.549072
vt 0.952637 0.472168
vt 0.965332 0.448242
vt 0.971680 0.511230
vt 0.977051 0.448242
vt 0.618652 0.124023
vt 0.621582 0.007324
vt 0.559082 0.115723
vt 0.621582 0.007324
vt 0.555664 0.003906
vt 0.559082 0.115723
vt 0.559082 0.115723
vt 0.555664 0.003906
vt 0.492920 0.123535
vt 0.555664 0.003906
vt 0.467529 0.014160
vt 0.492920 0.123535
vt 0.618652 0.124023
vt 0.559082 0.115723
vt 0.621582 0.007324
vt 0.559082 0.115723
vt 0.555664 0.003906
vt 0.621582 0.007324
vt 0.559082 0.115723
vt 0.492920 0.123535
vt 0.555664 0.003906
vt 0.492920 0.123535
vt 0.467529 0.014160
vt 0.555664 0.003906
vt 0.965820 0.448242
vt 0.966797 0.503418
vt 0.977051 0.448242
vt 0.966797 0.503418
vt 0.976074 0.503418
vt 0.977051 0.448242
vt 0.976074 0.503418
vt 0.966797 0.503418
vt 0.976074 0.545166
vt 0.966797 0.503418
vt 0.966797 0.545166
vt 0.976074 0.545166
vn 0.029354 0.000000 1.000000
vn 0.029354 0.000000 1.000000
vn 0.029354 0.000000 1.000000
vn -0.575342 0.000000 -0.818004
vn 0.225049 0.000000 -0.974560
vn -0.575342 0.000000 -0.818004
vn 0.136986 0.990215 -0.009785
vn 0.136986 0.990215 -0.009785
vn 0.144814 0.990215 0.015656
vn 0.136986 0.990215 -0.009785
vn 0.144814 0.990215 0.015656
vn 0.144814 0.990215 0.015656
vn 0.144814 0.990215 0.015656
vn 0.144814 0.990215 0.015656
vn 0.150685 0.988258 0.041096
vn 0.144814 0.990215 0.015656
vn 0.150685 0.988258 0.041096
vn 0.150685 0.988258 0.041096
vn 0.142857 -0.990215 -0.013699
vn 0.150685 -0.988258 0.013699
vn 0.142857 -0.990215 -0.013699
vn 0.150685 -0.988258 0.013699
vn 0.150685 -0.988258 0.013699
vn 0.142857 -0.990215 -0.013699
vn 0.150685 -0.988258 0.013699
vn 0.158513 -0.986301 0.043053
vn 0.150685 -0.988258 0.013699
vn 0.158513 -0.986301 0.043053
vn 0.158513 -0.986301 0.043053
vn 0.150685 -0.988258 0.013699
vn -0.575342 0.000000 -0.818004
vn -1.000000 0.000000 -0.031311
vn -0.575342 0.000000 -0.818004
vn -1.000000 0.000000 -0.031311
vn -1.000000 0.000000 -0.031311
vn -0.575342 0.000000 -0.818004
vn -1.000000 0.000000 -0.031311
vn -1.000000 0.000000 -0.031311
vn -0.998043 0.000000 0.056751
vn -1.000000 0.000000 -0.031311
vn -0.998043 0.000000 0.056751
vn -0.998043 0.000000 0.056751
mtllib mtl_t6_wpn_sniper_svu.mtl
g mtl_t6_wpn_sniper_svu
usemtl mtl_t6_wpn_sniper_svu
f 3/3/3 2/2/2 1/1/1
f 6/6/6 5/5/5 4/4/4
f 9/9/9 8/8/8 7/7/7
f 12/12/12 11/11/11 10/10/10
f 15/15/15 14/14/14 13/13/13
f 18/18/18 17/17/17 16/16/16
f 21/21/21 20/20/20 19/19/19
f 24/24/24 23/23/23 22/22/22
f 27/27/27 26/26/26 25/25/25
f 30/30/30 29/29/29 28/28/28
mtllib mtl_t6_wpn_sniper_svu_camo3.mtl
g mtl_t6_wpn_sniper_svu_camo3
usemtl mtl_t6_wpn_sniper_svu_camo3
f 33/33/33 32/32/32 31/31/31
f 36/36/36 35/35/35 34/34/34
f 39/39/39 38/38/38 37/37/37
f 42/42/42 41/41/41 40/40/40
