# Generated by Wraith - Game extraction tools
# Please credit DTZxPorter for using it!

v -4.283494 1.558887 4.521645
v 6.260197 0.125867 4.208292
v -4.283494 -1.354722 4.521645
v -3.674097 0.102065 -9.066829
v 6.242601 0.131821 -6.783268
v -4.283494 1.558887 4.521645
v 6.242601 0.131821 -6.783268
v 6.260197 0.125867 4.208292
v -4.283494 1.558887 4.521645
v -3.674097 0.102065 -9.066829
v -4.283494 -1.354722 4.521645
v 6.242601 0.131821 -6.783268
v -4.283494 -1.354722 4.521645
v 6.260197 0.125867 4.208292
v 6.242601 0.131821 -6.783268
v -3.674097 0.102065 -9.066829
v -4.283494 1.558887 4.521645
v -4.283494 -1.354722 4.521645
vt 0.961426 0.471191
vt 0.957520 0.549072
vt 0.952637 0.472168
vt 0.467529 0.014160
vt 0.492920 0.123535
vt 0.621582 0.007324
vt 0.492920 0.123535
vt 0.618652 0.124023
vt 0.621582 0.007324
vt 0.467529 0.014160
vt 0.621582 0.007324
vt 0.492920 0.123535
vt 0.621582 0.007324
vt 0.618652 0.124023
vt 0.492920 0.123535
vt 0.971191 0.448242
vt 0.966797 0.545166
vt 0.976074 0.545166
vn 0.029354 0.000000 1.000000
vn 0.029354 0.000000 1.000000
vn 0.029354 0.000000 1.000000
vn 0.074364 0.996086 -0.056751
vn 0.074364 0.996086 -0.056751
vn 0.074364 0.996086 -0.056751
vn 0.074364 0.996086 -0.056751
vn 0.074364 0.996086 -0.056751
vn 0.074364 0.996086 -0.056751
vn 0.078278 -0.996086 -0.056751
vn 0.078278 -0.996086 -0.056751
vn 0.078278 -0.996086 -0.056751
vn 0.078278 -0.996086 -0.056751
vn 0.078278 -0.996086 -0.056751
vn 0.078278 -0.996086 -0.056751
vn -0.998043 0.000000 -0.045010
vn -0.998043 0.000000 -0.045010
vn -0.998043 0.000000 -0.045010
mtllib mtl_t6_wpn_sniper_svu.mtl
g mtl_t6_wpn_sniper_svu
usemtl mtl_t6_wpn_sniper_svu
f 3/3/3 2/2/2 1/1/1
f 6/6/6 5/5/5 4/4/4
f 9/9/9 8/8/8 7/7/7
f 12/12/12 11/11/11 10/10/10
f 15/15/15 14/14/14 13/13/13
mtllib mtl_t6_wpn_sniper_svu_camo3.mtl
g mtl_t6_wpn_sniper_svu_camo3
usemtl mtl_t6_wpn_sniper_svu_camo3
f 18/18/18 17/17/17 16/16/16
