# Generated by Wraith - Game extraction tools
# Please credit DTZxPorter for using it!

v -5.631919 -2.255845 1.233825
v -5.631919 0.089736 -3.099808
v -5.631919 2.435316 1.233825
v -3.273447 0.089736 -3.099808
v -3.273447 -2.255845 1.233825
v -3.273447 2.435316 1.233825
v -15.385664 0.089736 -2.533733
v -15.385664 1.912765 1.112312
v -15.385664 -1.733286 1.112312
v 21.145887 -2.566614 1.945633
v 21.145887 2.746078 1.945633
v 21.145887 0.089736 -3.367054
v -5.631921 1.614782 -3.099808
v -5.631921 -1.435313 -3.099808
v -5.631921 0.089728 -4.754656
v 5.636519 1.614782 -3.099808
v 5.636519 0.089728 -4.754656
v 5.636519 -1.435313 -3.099808
v 3.227807 -2.255845 1.233825
v 3.227807 0.089736 -3.099808
v 3.227807 2.435316 1.233825
v 5.586276 0.089736 -3.099808
v 5.586276 -2.255845 1.233825
v 5.586276 2.435316 1.233825
v -3.273447 0.089736 -3.099808
v -5.631919 0.089736 -3.099808
v -3.273447 -2.255845 1.233825
v -5.631919 0.089736 -3.099808
v -5.631919 -2.255845 1.233825
v -3.273447 -2.255845 1.233825
v -3.273447 2.435316 1.233825
v -3.273447 -2.255845 1.233825
v -5.631919 2.435316 1.233825
v -3.273447 -2.255845 1.233825
v -5.631919 -2.255845 1.233825
v -5.631919 2.435316 1.233825
v -3.273447 0.089736 -3.099808
v -3.273447 2.435316 1.233825
v -5.631919 0.089736 -3.099808
v -3.273447 2.435316 1.233825
v -5.631919 2.435316 1.233825
v -5.631919 0.089736 -3.099808
v -15.385664 -1.733286 1.112312
v -8.759986 -1.254374 0.633398
v -15.385664 0.089736 -2.533733
v -8.759986 -1.254374 0.633398
v -8.759986 0.089736 -2.054819
v -15.385664 0.089736 -2.533733
v -8.759986 0.089736 -2.054819
v -8.759986 1.433843 0.633398
v -15.385664 0.089736 -2.533733
v -8.759986 1.433843 0.633398
v -15.385664 1.912765 1.112312
v -15.385664 0.089736 -2.533733
v -8.759986 1.433843 0.633398
v -8.759986 -1.254374 0.633398
v -15.385664 1.912765 1.112312
v -8.759986 -1.254374 0.633398
v -15.385664 -1.733286 1.112312
v -15.385664 1.912765 1.112312
v 6.165083 -1.255326 0.633398
v -8.759986 -1.254374 0.633398
v 6.165083 1.434805 0.633398
v -8.759986 -1.254374 0.633398
v -8.759986 1.433843 0.633398
v 6.165083 1.434805 0.633398
v -8.759986 -1.254374 0.633398
v 6.165083 -1.255326 0.633398
v -8.759986 0.089736 -2.054819
v 6.165083 -1.255326 0.633398
v 6.165083 0.089736 -2.055777
v -8.759986 0.089736 -2.054819
v 6.165083 0.089736 -2.055777
v 6.165083 -1.255326 0.633398
v 21.145887 0.089736 -3.367054
v 6.165083 -1.255326 0.633398
v 21.145887 -2.566614 1.945633
v 21.145887 0.089736 -3.367054
v 21.145887 2.746078 1.945633
v 6.165083 1.434805 0.633398
v 21.145887 0.089736 -3.367054
v 6.165083 1.434805 0.633398
v 6.165083 0.089736 -2.055777
v 21.145887 0.089736 -3.367054
v 6.165083 -1.255326 0.633398
v 6.165083 1.434805 0.633398
v 21.145887 -2.566614 1.945633
v 6.165083 1.434805 0.633398
v 21.145887 2.746078 1.945633
v 21.145887 -2.566614 1.945633
v -8.759986 1.433843 0.633398
v -8.759986 0.089736 -2.054819
v 6.165083 1.434805 0.633398
v -8.759986 0.089736 -2.054819
v 6.165083 0.089736 -2.055777
v 6.165083 1.434805 0.633398
v 5.636519 1.614782 -3.099808
v 5.636519 -1.435313 -3.099808
v -5.631921 1.614782 -3.099808
v 5.636519 -1.435313 -3.099808
v -5.631921 -1.435313 -3.099808
v -5.631921 1.614782 -3.099808
v -5.631921 0.089728 -4.754656
v 5.636519 0.089728 -4.754656
v -5.631921 1.614782 -3.099808
v 5.636519 0.089728 -4.754656
v 5.636519 1.614782 -3.099808
v -5.631921 1.614782 -3.099808
v -5.631921 0.089728 -4.754656
v -5.631921 -1.435313 -3.099808
v 5.636519 0.089728 -4.754656
v -5.631921 -1.435313 -3.099808
v 5.636519 -1.435313 -3.099808
v 5.636519 0.089728 -4.754656
v 5.586276 0.089736 -3.099808
v 3.227807 0.089736 -3.099808
v 5.586276 -2.255845 1.233825
v 3.227807 0.089736 -3.099808
v 3.227807 -2.255845 1.233825
v 5.586276 -2.255845 1.233825
v 5.586276 2.435316 1.233825
v 5.586276 -2.255845 1.233825
v 3.227807 2.435316 1.233825
v 5.586276 -2.255845 1.233825
v 3.227807 -2.255845 1.233825
v 3.227807 2.435316 1.233825
v 5.586276 0.089736 -3.099808
v 5.586276 2.435316 1.233825
v 3.227807 0.089736 -3.099808
v 5.586276 2.435316 1.233825
v 3.227807 2.435316 1.233825
v 3.227807 0.089736 -3.099808
vt 0.089417 0.951996
vt 0.471924 0.900085
vt 0.260742 0.751587
vt 0.471924 0.900085
vt 0.089417 0.951996
vt 0.260742 0.751587
vt 0.714844 0.798584
vt 0.836426 0.879944
vt 0.796387 0.676758
vt 0.862305 0.433105
vt 0.840332 0.541992
vt 0.905762 0.498535
vt 0.156738 0.925842
vt 0.353760 0.925842
vt 0.255127 0.818970
vt 0.156738 0.818726
vt 0.255127 0.925720
vt 0.353760 0.818726
vt 0.089417 0.951996
vt 0.471924 0.900085
vt 0.260742 0.751587
vt 0.471924 0.900085
vt 0.089417 0.951996
vt 0.260742 0.751587
vt 0.821289 0.211914
vt 0.821289 0.343262
vt 0.732910 0.211914
vt 0.821289 0.343262
vt 0.732910 0.343262
vt 0.732910 0.211914
vt -0.375000 0.516113
vt -0.508301 0.516113
vt -0.375244 0.636475
vt -0.508301 0.516113
vt -0.507813 0.638672
vt -0.375244 0.636475
vt 0.821289 0.211914
vt 0.732910 0.211914
vt 0.821289 0.343262
vt 0.732910 0.211914
vt 0.732910 0.343262
vt 0.821289 0.343262
vt 0.131226 0.630615
vt 0.131226 0.380371
vt 0.406006 0.630615
vt 0.131226 0.380371
vt 0.406006 0.380371
vt 0.406006 0.630615
vt 0.322998 0.380371
vt 0.061768 0.380371
vt 0.322998 0.630615
vt 0.061768 0.380371
vt 0.061768 0.630615
vt 0.322998 0.630615
vt 0.061768 0.380371
vt 0.131226 0.380371
vt 0.061768 0.630615
vt 0.131226 0.380371
vt 0.131226 0.630615
vt 0.061768 0.630615
vt 0.073364 0.098633
vt 0.073364 0.370117
vt 0.288818 0.098633
vt 0.073364 0.370117
vt 0.288818 0.370117
vt 0.288818 0.098633
vt 0.073364 0.370117
vt 0.073364 0.098633
vt 0.009239 0.370117
vt 0.073364 0.098633
vt 0.009178 0.098633
vt 0.009239 0.370117
vt 0.033234 0.220703
vt 0.144775 0.220703
vt 0.033234 0.008301
vt 0.144775 0.220703
vt 0.144775 0.008301
vt 0.033234 0.008301
vt 0.318848 0.008301
vt 0.318848 0.220703
vt 0.426514 0.008301
vt 0.318848 0.220703
vt 0.426514 0.220703
vt 0.426514 0.008301
vt 0.144775 0.220703
vt 0.318848 0.220703
vt 0.144775 0.008301
vt 0.318848 0.220703
vt 0.318848 0.008301
vt 0.144775 0.008301
vt 0.288818 0.370117
vt 0.369873 0.370117
vt 0.288818 0.098633
vt 0.369873 0.370117
vt 0.369873 0.098633
vt 0.288818 0.098633
vt 0.142212 0.857178
vt 0.142212 0.947174
vt 0.474854 0.857178
vt 0.142212 0.947174
vt 0.474854 0.947174
vt 0.474854 0.857178
vt 0.482178 0.659912
vt 0.060089 0.659912
vt 0.482178 0.722900
vt 0.060089 0.659912
vt 0.060089 0.722900
vt 0.482178 0.722900
vt 0.482178 0.659912
vt 0.482178 0.722900
vt 0.060089 0.659912
vt 0.482178 0.722900
vt 0.060089 0.722900
vt 0.060089 0.659912
vt 0.821289 0.211914
vt 0.821289 0.343262
vt 0.732910 0.211914
vt 0.821289 0.343262
vt 0.732910 0.343262
vt 0.732910 0.211914
vt -0.375000 0.516113
vt -0.508301 0.516113
vt -0.375244 0.636475
vt -0.508301 0.516113
vt -0.507813 0.638672
vt -0.375244 0.636475
vt 0.821289 0.211914
vt 0.732910 0.211914
vt 0.821289 0.343262
vt 0.732910 0.211914
vt 0.732910 0.343262
vt 0.821289 0.343262
vn -1.000000 0.000000 0.000000
vn -1.000000 0.000000 0.000000
vn -1.000000 0.000000 0.000000
vn 1.000000 0.000000 0.000000
vn 1.000000 0.000000 0.000000
vn 1.000000 0.000000 0.000000
vn -0.722113 0.000000 -0.690802
vn -0.649706 0.647749 0.399217
vn -0.649706 -0.647749 0.399217
vn 0.639922 -0.655577 0.403131
vn 0.639922 0.655577 0.403131
vn 0.718200 0.000000 -0.696673
vn -1.000000 0.000000 0.000000
vn -1.000000 0.000000 0.000000
vn -1.000000 0.000000 0.000000
vn 0.778865 0.573386 0.250489
vn 0.592955 0.000000 -0.804305
vn 0.778865 -0.573386 0.250489
vn -1.000000 0.000000 0.000000
vn -1.000000 0.000000 0.000000
vn -1.000000 0.000000 0.000000
vn 1.000000 0.000000 0.000000
vn 1.000000 0.000000 0.000000
vn 1.000000 0.000000 0.000000
vn 0.000000 -0.878669 -0.475538
vn 0.000000 -0.878669 -0.475538
vn 0.000000 -0.878669 -0.475538
vn 0.000000 -0.878669 -0.475538
vn 0.000000 -0.878669 -0.475538
vn 0.000000 -0.878669 -0.475538
vn 0.000000 0.000000 1.000000
vn 0.000000 0.000000 1.000000
vn 0.000000 0.000000 1.000000
vn 0.000000 0.000000 1.000000
vn 0.000000 0.000000 1.000000
vn 0.000000 0.000000 1.000000
vn 0.000000 0.878669 -0.475538
vn 0.000000 0.878669 -0.475538
vn 0.000000 0.878669 -0.475538
vn 0.000000 0.878669 -0.475538
vn 0.000000 0.878669 -0.475538
vn 0.000000 0.878669 -0.475538
vn -0.649706 -0.647749 0.399217
vn 0.048924 -0.849315 0.524462
vn -0.722113 0.000000 -0.690802
vn 0.048924 -0.849315 0.524462
vn 0.035225 0.000000 -1.000000
vn -0.722113 0.000000 -0.690802
vn 0.035225 0.000000 -1.000000
vn 0.048924 0.849315 0.524462
vn -0.722113 0.000000 -0.690802
vn 0.048924 0.849315 0.524462
vn -0.649706 0.647749 0.399217
vn -0.722113 0.000000 -0.690802
vn 0.048924 0.849315 0.524462
vn 0.048924 -0.849315 0.524462
vn -0.649706 0.647749 0.399217
vn 0.048924 -0.849315 0.524462
vn -0.649706 -0.647749 0.399217
vn -0.649706 0.647749 0.399217
vn -0.060665 -0.849315 0.524462
vn 0.048924 -0.849315 0.524462
vn -0.060665 0.849315 0.524462
vn 0.048924 -0.849315 0.524462
vn 0.048924 0.849315 0.524462
vn -0.060665 0.849315 0.524462
vn 0.048924 -0.849315 0.524462
vn -0.060665 -0.849315 0.524462
vn 0.035225 0.000000 -1.000000
vn -0.060665 -0.849315 0.524462
vn -0.043053 0.000000 -1.000000
vn 0.035225 0.000000 -1.000000
vn -0.043053 0.000000 -1.000000
vn -0.060665 -0.849315 0.524462
vn 0.718200 0.000000 -0.696673
vn -0.060665 -0.849315 0.524462
vn 0.639922 -0.655577 0.403131
vn 0.718200 0.000000 -0.696673
vn 0.639922 0.655577 0.403131
vn -0.060665 0.849315 0.524462
vn 0.718200 0.000000 -0.696673
vn -0.060665 0.849315 0.524462
vn -0.043053 0.000000 -1.000000
vn 0.718200 0.000000 -0.696673
vn -0.060665 -0.849315 0.524462
vn -0.060665 0.849315 0.524462
vn 0.639922 -0.655577 0.403131
vn -0.060665 0.849315 0.524462
vn 0.639922 0.655577 0.403131
vn 0.639922 -0.655577 0.403131
vn 0.048924 0.849315 0.524462
vn 0.035225 0.000000 -1.000000
vn -0.060665 0.849315 0.524462
vn 0.035225 0.000000 -1.000000
vn -0.043053 0.000000 -1.000000
vn -0.060665 0.849315 0.524462
vn 0.778865 0.573386 0.250489
vn 0.778865 -0.573386 0.250489
vn 0.000000 0.000000 1.000000
vn 0.778865 -0.573386 0.250489
vn 0.000000 0.000000 1.000000
vn 0.000000 0.000000 1.000000
vn 0.000000 0.735812 -0.677104
vn 0.592955 0.000000 -0.804305
vn 0.000000 0.735812 -0.677104
vn 0.592955 0.000000 -0.804305
vn 0.778865 0.573386 0.250489
vn 0.000000 0.735812 -0.677104
vn 0.000000 -0.735812 -0.677104
vn 0.000000 -0.735812 -0.677104
vn 0.592955 0.000000 -0.804305
vn 0.000000 -0.735812 -0.677104
vn 0.778865 -0.573386 0.250489
vn 0.592955 0.000000 -0.804305
vn 0.000000 -0.878669 -0.475538
vn 0.000000 -0.878669 -0.475538
vn 0.000000 -0.878669 -0.475538
vn 0.000000 -0.878669 -0.475538
vn 0.000000 -0.878669 -0.475538
vn 0.000000 -0.878669 -0.475538
vn 0.000000 0.000000 1.000000
vn 0.000000 0.000000 1.000000
vn 0.000000 0.000000 1.000000
vn 0.000000 0.000000 1.000000
vn 0.000000 0.000000 1.000000
vn 0.000000 0.000000 1.000000
vn 0.000000 0.878669 -0.475538
vn 0.000000 0.878669 -0.475538
vn 0.000000 0.878669 -0.475538
vn 0.000000 0.878669 -0.475538
vn 0.000000 0.878669 -0.475538
vn 0.000000 0.878669 -0.475538
mtllib mtl_t6_wpn_sniper_ballista_scope_camo1.mtl
g mtl_t6_wpn_sniper_ballista_scope_camo1
usemtl mtl_t6_wpn_sniper_ballista_scope_camo1
f 3/3/3 2/2/2 1/1/1
f 6/6/6 5/5/5 4/4/4
f 9/9/9 8/8/8 7/7/7
f 12/12/12 11/11/11 10/10/10
f 15/15/15 14/14/14 13/13/13
f 18/18/18 17/17/17 16/16/16
f 21/21/21 20/20/20 19/19/19
f 24/24/24 23/23/23 22/22/22
f 27/27/27 26/26/26 25/25/25
f 30/30/30 29/29/29 28/28/28
f 33/33/33 32/32/32 31/31/31
f 36/36/36 35/35/35 34/34/34
f 39/39/39 38/38/38 37/37/37
f 42/42/42 41/41/41 40/40/40
f 45/45/45 44/44/44 43/43/43
f 48/48/48 47/47/47 46/46/46
f 51/51/51 50/50/50 49/49/49
f 54/54/54 53/53/53 52/52/52
f 57/57/57 56/56/56 55/55/55
f 60/60/60 59/59/59 58/58/58
f 63/63/63 62/62/62 61/61/61
f 66/66/66 65/65/65 64/64/64
f 69/69/69 68/68/68 67/67/67
f 72/72/72 71/71/71 70/70/70
f 75/75/75 74/74/74 73/73/73
f 78/78/78 77/77/77 76/76/76
f 81/81/81 80/80/80 79/79/79
f 84/84/84 83/83/83 82/82/82
f 87/87/87 86/86/86 85/85/85
f 90/90/90 89/89/89 88/88/88
f 93/93/93 92/92/92 91/91/91
f 96/96/96 95/95/95 94/94/94
f 99/99/99 98/98/98 97/97/97
f 102/102/102 101/101/101 100/100/100
f 105/105/105 104/104/104 103/103/103
f 108/108/108 107/107/107 106/106/106
f 111/111/111 110/110/110 109/109/109
f 114/114/114 113/113/113 112/112/112
f 117/117/117 116/116/116 115/115/115
f 120/120/120 119/119/119 118/118/118
f 123/123/123 122/122/122 121/121/121
f 126/126/126 125/125/125 124/124/124
f 129/129/129 128/128/128 127/127/127
f 132/132/132 131/131/131 130/130/130
