# Generated by Wraith - Game extraction tools
# Please credit DTZxPorter for using it!

v 12.414668 -1.243203 -2.581534
v 12.414668 0.000000 -2.865288
v 0.787999 0.000000 -2.865288
v 0.787999 -1.243203 -2.581534
v 12.414668 -1.243203 -2.581534
v 0.787999 0.000000 -2.865288
v 12.414668 -2.240171 -1.786476
v 12.414668 -1.243203 -2.581534
v 0.787999 -1.243203 -2.581534
v 0.787999 -2.240171 -1.786476
v 12.414668 -2.240171 -1.786476
v 0.787999 -1.243203 -2.581534
v 12.414668 -2.793449 -0.637586
v 12.414668 -2.240171 -1.786476
v 0.787999 -2.240171 -1.786476
v 0.787999 -2.793449 -0.637586
v 12.414668 -2.793449 -0.637586
v 0.787999 -2.240171 -1.786476
v 12.414668 -2.793449 0.637588
v 12.414668 -2.793449 -0.637586
v 0.787999 -2.793449 -0.637586
v 0.787999 -2.793449 0.637588
v 12.414668 -2.793449 0.637588
v 0.787999 -2.793449 -0.637586
v 12.414668 -2.240171 1.786479
v 12.414668 -2.793449 0.637588
v 0.787999 -2.793449 0.637588
v 0.787999 -2.240171 1.786479
v 12.414668 -2.240171 1.786479
v 0.787999 -2.793449 0.637588
v 12.414668 -1.243200 2.581537
v 12.414668 -2.240171 1.786479
v 0.787999 -2.240171 1.786479
v 0.787999 -1.243200 2.581534
v 12.414668 -1.243200 2.581537
v 0.787999 -2.240171 1.786479
v 12.414668 0.000000 2.865288
v 12.414668 -1.243200 2.581537
v 0.787999 -1.243200 2.581534
v 0.787999 0.000000 2.865288
v 12.414668 0.000000 2.865288
v 0.787999 -1.243200 2.581534
v 12.414668 1.243203 2.581534
v 12.414668 0.000000 2.865288
v 0.787999 0.000000 2.865288
v 0.787999 1.243203 2.581534
v 12.414668 1.243203 2.581534
v 0.787999 0.000000 2.865288
v 12.414668 2.240171 1.786479
v 12.414668 1.243203 2.581534
v 0.787999 1.243203 2.581534
v 0.787999 2.240171 1.786479
v 12.414668 2.240171 1.786479
v 0.787999 1.243203 2.581534
v 12.414668 2.793449 0.637586
v 12.414668 2.240171 1.786479
v 0.787999 2.240171 1.786479
v 0.787999 2.793449 0.637586
v 12.414668 2.793449 0.637586
v 0.787999 2.240171 1.786479
v 12.414668 2.793449 -0.637586
v 12.414668 2.793449 0.637586
v 0.787999 2.793449 0.637586
v 0.787999 2.793449 -0.637586
v 12.414668 2.793449 -0.637586
v 0.787999 2.793449 0.637586
v 12.414668 2.240171 -1.786476
v 12.414668 2.793449 -0.637586
v 0.787999 2.793449 -0.637586
v 0.787999 2.240171 -1.786476
v 12.414668 2.240171 -1.786476
v 0.787999 2.793449 -0.637586
v 12.414668 1.243200 -2.581534
v 12.414668 2.240171 -1.786476
v 0.787999 2.240171 -1.786476
v 0.787999 1.243200 -2.581534
v 12.414668 1.243200 -2.581534
v 0.787999 2.240171 -1.786476
v 12.414668 0.000000 -2.865288
v 12.414668 1.243200 -2.581534
v 0.787999 1.243200 -2.581534
v 0.787999 0.000000 -2.865288
v 12.414668 0.000000 -2.865288
v 0.787999 1.243200 -2.581534
v -0.003739 -1.225621 -1.536878
v -0.003736 0.437418 -1.916455
v -0.003736 -1.965742 0.000000
v -0.003736 -1.965742 0.000000
v -0.003736 0.437418 -1.916455
v -0.003739 -1.225618 1.536880
v -0.003739 -1.225618 1.536880
v -0.003736 0.437418 -1.916455
v -0.003736 0.437418 1.916458
v -0.003736 0.437418 1.916458
v -0.003736 0.437418 -1.916455
v -0.003736 1.771073 0.852904
v -0.003736 1.771073 0.852904
v -0.003736 0.437418 -1.916455
v -0.003736 1.771071 -0.852904
v 12.414668 0.000000 -2.865288
v 12.414668 -1.243203 -2.581534
v 12.414668 1.243200 -2.581534
v 12.414668 1.243200 -2.581534
v 12.414668 -1.243203 -2.581534
v 12.414668 2.240171 -1.786476
v 12.414668 2.240171 -1.786476
v 12.414668 -1.243203 -2.581534
v 12.414668 2.793449 -0.637586
v 12.414668 2.793449 -0.637586
v 12.414668 -1.243203 -2.581534
v 12.414668 2.793449 0.637586
v 12.414668 2.793449 0.637586
v 12.414668 -1.243203 -2.581534
v 12.414668 2.240171 1.786479
v 12.414668 2.240171 1.786479
v 12.414668 -1.243203 -2.581534
v 12.414668 1.243203 2.581534
v 12.414668 1.243203 2.581534
v 12.414668 -1.243203 -2.581534
v 12.414668 0.000000 2.865288
v 12.414668 0.000000 2.865288
v 12.414668 -1.243203 -2.581534
v 12.414668 -1.243200 2.581537
v 12.414668 -1.243200 2.581537
v 12.414668 -1.243203 -2.581534
v 12.414668 -2.240171 1.786479
v 12.414668 -2.240171 1.786479
v 12.414668 -1.243203 -2.581534
v 12.414668 -2.793449 0.637588
v 12.414668 -2.793449 0.637588
v 12.414668 -1.243203 -2.581534
v 12.414668 -2.793449 -0.637586
v 12.414668 -2.793449 -0.637586
v 12.414668 -1.243203 -2.581534
v 12.414668 -2.240171 -1.786476
v 0.787999 0.000000 -2.865288
v -0.003736 0.437418 -1.916455
v -0.003739 -1.225621 -1.536878
v 0.787999 0.000000 -2.865288
v 0.787999 1.243200 -2.581534
v -0.003736 0.437418 -1.916455
v 0.787999 1.243200 -2.581534
v 0.787999 2.240171 -1.786476
v -0.003736 0.437418 -1.916455
v 0.787999 2.240171 -1.786476
v -0.003736 1.771071 -0.852904
v -0.003736 0.437418 -1.916455
v 0.787999 2.240171 -1.786476
v 0.787999 2.793449 -0.637586
v -0.003736 1.771071 -0.852904
v 0.787999 2.793449 -0.637586
v 0.787999 2.793449 0.637586
v -0.003736 1.771071 -0.852904
v 0.787999 2.793449 0.637586
v -0.003736 1.771073 0.852904
v -0.003736 1.771071 -0.852904
v 0.787999 -1.243203 -2.581534
v 0.787999 0.000000 -2.865288
v -0.003739 -1.225621 -1.536878
v 0.787999 -2.240171 -1.786476
v 0.787999 -1.243203 -2.581534
v -0.003739 -1.225621 -1.536878
v 0.787999 -2.240171 -1.786476
v -0.003739 -1.225621 -1.536878
v -0.003736 -1.965742 0.000000
v 0.787999 -2.793449 -0.637586
v 0.787999 -2.240171 -1.786476
v -0.003736 -1.965742 0.000000
v 0.787999 -2.793449 0.637588
v 0.787999 -2.793449 -0.637586
v -0.003736 -1.965742 0.000000
v 0.787999 -2.793449 0.637588
v -0.003736 -1.965742 0.000000
v -0.003739 -1.225618 1.536880
v 0.787999 -2.240171 1.786479
v 0.787999 -2.793449 0.637588
v -0.003739 -1.225618 1.536880
v 0.787999 -1.243200 2.581534
v 0.787999 -2.240171 1.786479
v -0.003739 -1.225618 1.536880
v 0.787999 -1.243200 2.581534
v -0.003739 -1.225618 1.536880
v -0.003736 0.437418 1.916458
v 0.787999 0.000000 2.865288
v 0.787999 -1.243200 2.581534
v -0.003736 0.437418 1.916458
v 0.787999 1.243203 2.581534
v 0.787999 0.000000 2.865288
v -0.003736 0.437418 1.916458
v 0.787999 1.243203 2.581534
v -0.003736 0.437418 1.916458
v -0.003736 1.771073 0.852904
v 0.787999 2.240171 1.786479
v 0.787999 1.243203 2.581534
v -0.003736 1.771073 0.852904
v 0.787999 2.793449 0.637586
v 0.787999 2.240171 1.786479
v -0.003736 1.771073 0.852904
vt 0.012268 0.449219
vt 0.012268 0.487305
vt 0.690430 0.487305
vt 0.690430 0.449219
vt 0.012268 0.449219
vt 0.690430 0.487305
vt 0.012268 0.424805
vt 0.012268 0.449219
vt 0.690430 0.449219
vt 0.690430 0.424805
vt 0.012268 0.424805
vt 0.690430 0.449219
vt 0.012268 0.389648
vt 0.012268 0.424805
vt 0.690430 0.424805
vt 0.690430 0.389648
vt 0.012268 0.389648
vt 0.690430 0.424805
vt 0.012268 0.350586
vt 0.012268 0.389648
vt 0.690430 0.389648
vt 0.690430 0.350586
vt 0.012268 0.350586
vt 0.690430 0.389648
vt 0.012268 0.314941
vt 0.012268 0.350586
vt 0.690430 0.350586
vt 0.690430 0.314941
vt 0.012268 0.314941
vt 0.690430 0.350586
vt 0.012268 0.284668
vt 0.012268 0.314941
vt 0.690430 0.314941
vt 0.690430 0.284668
vt 0.012268 0.284668
vt 0.690430 0.314941
vt 0.012268 0.246582
vt 0.012268 0.284668
vt 0.690430 0.284668
vt 0.690430 0.246582
vt 0.012268 0.246582
vt 0.690430 0.284668
vt 0.012268 0.213379
vt 0.012268 0.246582
vt 0.690430 0.246582
vt 0.690430 0.213379
vt 0.012268 0.213379
vt 0.690430 0.246582
vt 0.012268 0.183594
vt 0.012268 0.213379
vt 0.690430 0.213379
vt 0.690430 0.183594
vt 0.012268 0.183594
vt 0.690430 0.213379
vt 0.012268 0.148438
vt 0.012268 0.183594
vt 0.690430 0.183594
vt 0.690430 0.148438
vt 0.012268 0.148438
vt 0.690430 0.183594
vt 0.012268 0.112305
vt 0.012268 0.148438
vt 0.690430 0.148438
vt 0.690430 0.112305
vt 0.012268 0.112305
vt 0.690430 0.148438
vt 0.012268 0.077148
vt 0.012268 0.112305
vt 0.690430 0.112305
vt 0.690430 0.077148
vt 0.012268 0.077148
vt 0.690430 0.112305
vt 0.012268 0.049805
vt 0.012268 0.077148
vt 0.690430 0.077148
vt 0.690430 0.049805
vt 0.012268 0.049805
vt 0.690430 0.077148
vt 0.012268 0.011719
vt 0.012268 0.049805
vt 0.690430 0.049805
vt 0.690430 0.011719
vt 0.012268 0.011719
vt 0.690430 0.049805
vt 0.818848 0.445801
vt 0.900391 0.464355
vt 0.782715 0.370605
vt 0.782715 0.370605
vt 0.900391 0.464355
vt 0.818848 0.295410
vt 0.818848 0.295410
vt 0.900391 0.464355
vt 0.900391 0.276855
vt 0.900391 0.276855
vt 0.900391 0.464355
vt 0.965332 0.328613
vt 0.965332 0.328613
vt 0.900391 0.464355
vt 0.965332 0.412109
vt 0.879883 0.012207
vt 0.830078 0.023926
vt 0.930176 0.023926
vt 0.930176 0.023926
vt 0.830078 0.023926
vt 0.970215 0.055664
vt 0.970215 0.055664
vt 0.830078 0.023926
vt 0.992188 0.102051
vt 0.992188 0.102051
vt 0.830078 0.023926
vt 0.992188 0.153320
vt 0.992188 0.153320
vt 0.830078 0.023926
vt 0.970215 0.199219
vt 0.970215 0.199219
vt 0.830078 0.023926
vt 0.930176 0.231445
vt 0.930176 0.231445
vt 0.830078 0.023926
vt 0.879883 0.242676
vt 0.879883 0.242676
vt 0.830078 0.023926
vt 0.830078 0.231445
vt 0.830078 0.231445
vt 0.830078 0.023926
vt 0.790039 0.199219
vt 0.790039 0.199219
vt 0.830078 0.023926
vt 0.767578 0.153320
vt 0.767578 0.153320
vt 0.830078 0.023926
vt 0.767578 0.102051
vt 0.767578 0.102051
vt 0.830078 0.023926
vt 0.790039 0.055664
vt 0.879395 0.486328
vt 0.901855 0.467285
vt 0.817871 0.448242
vt 0.879395 0.486328
vt 0.929688 0.474609
vt 0.901855 0.467285
vt 0.929688 0.474609
vt 0.970215 0.442871
vt 0.901855 0.467285
vt 0.970215 0.442871
vt 0.969238 0.413574
vt 0.901855 0.467285
vt 0.970215 0.442871
vt 0.992676 0.395996
vt 0.969238 0.413574
vt 0.992676 0.395996
vt 0.992676 0.344727
vt 0.969238 0.413574
vt 0.992676 0.344727
vt 0.969238 0.327148
vt 0.969238 0.413574
vt 0.829102 0.474609
vt 0.879395 0.486328
vt 0.817871 0.448242
vt 0.789063 0.442871
vt 0.829102 0.474609
vt 0.817871 0.448242
vt 0.789063 0.442871
vt 0.817871 0.448242
vt 0.780273 0.370605
vt 0.766602 0.395996
vt 0.789063 0.442871
vt 0.780273 0.370605
vt 0.766602 0.344727
vt 0.766602 0.395996
vt 0.780273 0.370605
vt 0.766602 0.344727
vt 0.780273 0.370605
vt 0.817871 0.292480
vt 0.789063 0.298340
vt 0.766602 0.344727
vt 0.817871 0.292480
vt 0.829102 0.266113
vt 0.789063 0.298340
vt 0.817871 0.292480
vt 0.829102 0.266113
vt 0.817871 0.292480
vt 0.901855 0.273438
vt 0.879395 0.254395
vt 0.829102 0.266113
vt 0.901855 0.273438
vt 0.929688 0.266113
vt 0.879395 0.254395
vt 0.901855 0.273438
vt 0.929688 0.266113
vt 0.901855 0.273438
vt 0.969238 0.327148
vt 0.970215 0.298340
vt 0.929688 0.266113
vt 0.969238 0.327148
vt 0.992676 0.344727
vt 0.970215 0.298340
vt 0.969238 0.327148
vn 0.000000 -0.434442 -0.900196
vn 0.000000 0.000000 -1.000000
vn 0.000000 0.000000 -1.000000
vn 0.000000 -0.434442 -0.900196
vn 0.000000 -0.434442 -0.900196
vn 0.000000 0.000000 -1.000000
vn 0.000000 -0.782779 -0.624266
vn 0.000000 -0.434442 -0.900196
vn 0.000000 -0.434442 -0.900196
vn 0.000000 -0.782779 -0.624266
vn 0.000000 -0.782779 -0.624266
vn 0.000000 -0.434442 -0.900196
vn 0.000000 -0.974560 -0.223092
vn 0.000000 -0.782779 -0.624266
vn 0.000000 -0.782779 -0.624266
vn 0.000000 -0.974560 -0.223092
vn 0.000000 -0.974560 -0.223092
vn 0.000000 -0.782779 -0.624266
vn 0.000000 -0.974560 0.223092
vn 0.000000 -0.974560 -0.223092
vn 0.000000 -0.974560 -0.223092
vn 0.000000 -0.974560 0.223092
vn 0.000000 -0.974560 0.223092
vn 0.000000 -0.974560 -0.223092
vn 0.000000 -0.782779 0.624266
vn 0.000000 -0.974560 0.223092
vn 0.000000 -0.974560 0.223092
vn 0.000000 -0.782779 0.624266
vn 0.000000 -0.782779 0.624266
vn 0.000000 -0.974560 0.223092
vn 0.000000 -0.434442 0.900196
vn 0.000000 -0.782779 0.624266
vn 0.000000 -0.782779 0.624266
vn 0.000000 -0.434442 0.900196
vn 0.000000 -0.434442 0.900196
vn 0.000000 -0.782779 0.624266
vn 0.000000 0.000000 1.000000
vn 0.000000 -0.434442 0.900196
vn 0.000000 -0.434442 0.900196
vn 0.000000 0.000000 1.000000
vn 0.000000 0.000000 1.000000
vn 0.000000 -0.434442 0.900196
vn 0.000000 0.434442 0.900196
vn 0.000000 0.000000 1.000000
vn 0.000000 0.000000 1.000000
vn 0.000000 0.434442 0.900196
vn 0.000000 0.434442 0.900196
vn 0.000000 0.000000 1.000000
vn 0.000000 0.782779 0.624266
vn 0.000000 0.434442 0.900196
vn 0.000000 0.434442 0.900196
vn 0.000000 0.782779 0.624266
vn 0.000000 0.782779 0.624266
vn 0.000000 0.434442 0.900196
vn 0.000000 0.974560 0.223092
vn 0.000000 0.782779 0.624266
vn 0.000000 0.782779 0.624266
vn 0.000000 0.974560 0.223092
vn 0.000000 0.974560 0.223092
vn 0.000000 0.782779 0.624266
vn 0.000000 0.974560 -0.223092
vn 0.000000 0.974560 0.223092
vn 0.000000 0.974560 0.223092
vn 0.000000 0.974560 -0.223092
vn 0.000000 0.974560 -0.223092
vn 0.000000 0.974560 0.223092
vn 0.000000 0.782779 -0.624266
vn 0.000000 0.974560 -0.223092
vn 0.000000 0.974560 -0.223092
vn 0.000000 0.782779 -0.624266
vn 0.000000 0.782779 -0.624266
vn 0.000000 0.974560 -0.223092
vn 0.000000 0.434442 -0.900196
vn 0.000000 0.782779 -0.624266
vn 0.000000 0.782779 -0.624266
vn 0.000000 0.434442 -0.900196
vn 0.000000 0.434442 -0.900196
vn 0.000000 0.782779 -0.624266
vn 0.000000 0.000000 -1.000000
vn 0.000000 0.434442 -0.900196
vn 0.000000 0.434442 -0.900196
vn 0.000000 0.000000 -1.000000
vn 0.000000 0.000000 -1.000000
vn 0.000000 0.434442 -0.900196
vn -1.000000 0.000000 0.000000
vn -1.000000 0.000000 0.000000
vn -1.000000 0.000000 0.000000
vn -1.000000 0.000000 0.000000
vn -1.000000 0.000000 0.000000
vn -1.000000 0.000000 0.000000
vn -1.000000 0.000000 0.000000
vn -1.000000 0.000000 0.000000
vn -1.000000 0.000000 0.000000
vn -1.000000 0.000000 0.000000
vn -1.000000 0.000000 0.000000
vn -1.000000 0.000000 0.000000
vn -1.000000 0.000000 0.000000
vn -1.000000 0.000000 0.000000
vn -1.000000 0.000000 0.000000
vn 1.000000 0.000000 0.000000
vn 1.000000 0.000000 0.000000
vn 1.000000 0.000000 0.000000
vn 1.000000 0.000000 0.000000
vn 1.000000 0.000000 0.000000
vn 1.000000 0.000000 0.000000
vn 1.000000 0.000000 0.000000
vn 1.000000 0.000000 0.000000
vn 1.000000 0.000000 0.000000
vn 1.000000 0.000000 0.000000
vn 1.000000 0.000000 0.000000
vn 1.000000 0.000000 0.000000
vn 1.000000 0.000000 0.000000
vn 1.000000 0.000000 0.000000
vn 1.000000 0.000000 0.000000
vn 1.000000 0.000000 0.000000
vn 1.000000 0.000000 0.000000
vn 1.000000 0.000000 0.000000
vn 1.000000 0.000000 0.000000
vn 1.000000 0.000000 0.000000
vn 1.000000 0.000000 0.000000
vn 1.000000 0.000000 0.000000
vn 1.000000 0.000000 0.000000
vn 1.000000 0.000000 0.000000
vn 1.000000 0.000000 0.000000
vn 1.000000 0.000000 0.000000
vn 1.000000 0.000000 0.000000
vn 1.000000 0.000000 0.000000
vn 1.000000 0.000000 0.000000
vn 1.000000 0.000000 0.000000
vn 1.000000 0.000000 0.000000
vn 1.000000 0.000000 0.000000
vn 1.000000 0.000000 0.000000
vn 1.000000 0.000000 0.000000
vn 1.000000 0.000000 0.000000
vn 1.000000 0.000000 0.000000
vn 0.000000 0.000000 -1.000000
vn -0.788650 0.136986 -0.598826
vn -0.788650 -0.383562 -0.479452
vn 0.000000 0.000000 -1.000000
vn 0.000000 0.434442 -0.900196
vn -0.788650 0.136986 -0.598826
vn 0.000000 0.434442 -0.900196
vn 0.000000 0.782779 -0.624266
vn -0.788650 0.136986 -0.598826
vn 0.000000 0.782779 -0.624266
vn -0.788650 0.553816 -0.266145
vn -0.788650 0.136986 -0.598826
vn 0.000000 0.782779 -0.624266
vn 0.000000 0.974560 -0.223092
vn -0.788650 0.553816 -0.266145
vn 0.000000 0.974560 -0.223092
vn 0.000000 0.974560 0.223092
vn -0.788650 0.553816 -0.266145
vn 0.000000 0.974560 0.223092
vn -0.788650 0.553816 0.266145
vn -0.788650 0.553816 -0.266145
vn 0.000000 -0.434442 -0.900196
vn 0.000000 0.000000 -1.000000
vn -0.788650 -0.383562 -0.479452
vn 0.000000 -0.782779 -0.624266
vn 0.000000 -0.434442 -0.900196
vn -0.788650 -0.383562 -0.479452
vn 0.000000 -0.782779 -0.624266
vn -0.788650 -0.383562 -0.479452
vn -0.788650 -0.614481 0.000000
vn 0.000000 -0.974560 -0.223092
vn 0.000000 -0.782779 -0.624266
vn -0.788650 -0.614481 0.000000
vn 0.000000 -0.974560 0.223092
vn 0.000000 -0.974560 -0.223092
vn -0.788650 -0.614481 0.000000
vn 0.000000 -0.974560 0.223092
vn -0.788650 -0.614481 0.000000
vn -0.788650 -0.383562 0.479452
vn 0.000000 -0.782779 0.624266
vn 0.000000 -0.974560 0.223092
vn -0.788650 -0.383562 0.479452
vn 0.000000 -0.434442 0.900196
vn 0.000000 -0.782779 0.624266
vn -0.788650 -0.383562 0.479452
vn 0.000000 -0.434442 0.900196
vn -0.788650 -0.383562 0.479452
vn -0.788650 0.136986 0.598826
vn 0.000000 0.000000 1.000000
vn 0.000000 -0.434442 0.900196
vn -0.788650 0.136986 0.598826
vn 0.000000 0.434442 0.900196
vn 0.000000 0.000000 1.000000
vn -0.788650 0.136986 0.598826
vn 0.000000 0.434442 0.900196
vn -0.788650 0.136986 0.598826
vn -0.788650 0.553816 0.266145
vn 0.000000 0.782779 0.624266
vn 0.000000 0.434442 0.900196
vn -0.788650 0.553816 0.266145
vn 0.000000 0.974560 0.223092
vn 0.000000 0.782779 0.624266
vn -0.788650 0.553816 0.266145
mtllib mtl_t6_attach_shotgun_silencer1.mtl
g mtl_t6_attach_shotgun_silencer1
usemtl mtl_t6_attach_shotgun_silencer1
f 3/3/3 2/2/2 1/1/1
f 6/6/6 5/5/5 4/4/4
f 9/9/9 8/8/8 7/7/7
f 12/12/12 11/11/11 10/10/10
f 15/15/15 14/14/14 13/13/13
f 18/18/18 17/17/17 16/16/16
f 21/21/21 20/20/20 19/19/19
f 24/24/24 23/23/23 22/22/22
f 27/27/27 26/26/26 25/25/25
f 30/30/30 29/29/29 28/28/28
f 33/33/33 32/32/32 31/31/31
f 36/36/36 35/35/35 34/34/34
f 39/39/39 38/38/38 37/37/37
f 42/42/42 41/41/41 40/40/40
f 45/45/45 44/44/44 43/43/43
f 48/48/48 47/47/47 46/46/46
f 51/51/51 50/50/50 49/49/49
f 54/54/54 53/53/53 52/52/52
f 57/57/57 56/56/56 55/55/55
f 60/60/60 59/59/59 58/58/58
f 63/63/63 62/62/62 61/61/61
f 66/66/66 65/65/65 64/64/64
f 69/69/69 68/68/68 67/67/67
f 72/72/72 71/71/71 70/70/70
f 75/75/75 74/74/74 73/73/73
f 78/78/78 77/77/77 76/76/76
f 81/81/81 80/80/80 79/79/79
f 84/84/84 83/83/83 82/82/82
f 87/87/87 86/86/86 85/85/85
f 90/90/90 89/89/89 88/88/88
f 93/93/93 92/92/92 91/91/91
f 96/96/96 95/95/95 94/94/94
f 99/99/99 98/98/98 97/97/97
f 102/102/102 101/101/101 100/100/100
f 105/105/105 104/104/104 103/103/103
f 108/108/108 107/107/107 106/106/106
f 111/111/111 110/110/110 109/109/109
f 114/114/114 113/113/113 112/112/112
f 117/117/117 116/116/116 115/115/115
f 120/120/120 119/119/119 118/118/118
f 123/123/123 122/122/122 121/121/121
f 126/126/126 125/125/125 124/124/124
f 129/129/129 128/128/128 127/127/127
f 132/132/132 131/131/131 130/130/130
f 135/135/135 134/134/134 133/133/133
f 138/138/138 137/137/137 136/136/136
f 141/141/141 140/140/140 139/139/139
f 144/144/144 143/143/143 142/142/142
f 147/147/147 146/146/146 145/145/145
f 150/150/150 149/149/149 148/148/148
f 153/153/153 152/152/152 151/151/151
f 156/156/156 155/155/155 154/154/154
f 159/159/159 158/158/158 157/157/157
f 162/162/162 161/161/161 160/160/160
f 165/165/165 164/164/164 163/163/163
f 168/168/168 167/167/167 166/166/166
f 171/171/171 170/170/170 169/169/169
f 174/174/174 173/173/173 172/172/172
f 177/177/177 176/176/176 175/175/175
f 180/180/180 179/179/179 178/178/178
f 183/183/183 182/182/182 181/181/181
f 186/186/186 185/185/185 184/184/184
f 189/189/189 188/188/188 187/187/187
f 192/192/192 191/191/191 190/190/190
f 195/195/195 194/194/194 193/193/193
f 198/198/198 197/197/197 196/196/196
