# Generated by Wraith - Game extraction tools
# Please credit DTZxPorter for using it!

v 18.426941 0.091455 2.615148
v 18.867899 0.091455 2.040956
v 18.426941 -2.486787 0.000000
v 18.867899 0.091455 2.040956
v 18.867899 -2.081802 0.000000
v 18.426941 -2.486787 0.000000
v 1.339560 0.091455 -2.615148
v 18.426941 0.091455 -2.615148
v 1.339560 2.730574 0.000000
v 18.426941 0.091455 -2.615148
v 18.426941 2.730574 0.000000
v 1.339560 2.730574 0.000000
v 1.339560 2.730574 0.000000
v 18.426941 2.730574 0.000000
v 1.339560 0.091455 2.615148
v 18.426941 2.730574 0.000000
v 18.426941 0.091455 2.615148
v 1.339560 0.091455 2.615148
v 1.339560 0.091455 2.615148
v 18.426941 0.091455 2.615148
v 1.339560 -2.486787 0.000000
v 18.426941 0.091455 2.615148
v 18.426941 -2.486787 0.000000
v 1.339560 -2.486787 0.000000
v 1.339560 -2.486787 0.000000
v 18.426941 -2.486787 0.000000
v 1.339560 0.091455 -2.615148
v 18.426941 -2.486787 0.000000
v 18.426941 0.091455 -2.615148
v 1.339560 0.091455 -2.615148
v 23.865849 2.281077 0.000000
v 23.865849 0.091455 -2.040956
v 23.865849 0.091455 2.040956
v 23.865849 0.091455 -2.040956
v 23.865849 -2.081802 0.000000
v 23.865849 0.091455 2.040956
v 18.426941 0.091455 -2.615148
v 18.867899 0.091455 -2.040956
v 18.426941 2.730574 0.000000
v 18.867899 0.091455 -2.040956
v 18.867899 2.281077 0.000000
v 18.426941 2.730574 0.000000
v 18.426941 0.091455 2.615148
v 18.426941 2.730574 0.000000
v 18.867899 0.091455 2.040956
v 18.426941 2.730574 0.000000
v 18.867899 2.281077 0.000000
v 18.867899 0.091455 2.040956
v 18.426941 0.091455 -2.615148
v 18.426941 -2.486787 0.000000
v 18.867899 0.091455 -2.040956
v 18.426941 -2.486787 0.000000
v 18.867899 -2.081802 0.000000
v 18.867899 0.091455 -2.040956
v 18.867899 0.091455 -2.040956
v 23.865849 0.091455 -2.040956
v 18.867899 2.281077 0.000000
v 23.865849 0.091455 -2.040956
v 23.865849 2.281077 0.000000
v 18.867899 2.281077 0.000000
v 18.867899 2.281077 0.000000
v 23.865849 2.281077 0.000000
v 18.867899 0.091455 2.040956
v 23.865849 2.281077 0.000000
v 23.865849 0.091455 2.040956
v 18.867899 0.091455 2.040956
v 18.867899 0.091455 2.040956
v 23.865849 0.091455 2.040956
v 18.867899 -2.081802 0.000000
v 23.865849 0.091455 2.040956
v 23.865849 -2.081802 0.000000
v 18.867899 -2.081802 0.000000
v 18.867899 -2.081802 0.000000
v 23.865849 -2.081802 0.000000
v 18.867899 0.091455 -2.040956
v 23.865849 -2.081802 0.000000
v 23.865849 0.091455 -2.040956
v 18.867899 0.091455 -2.040956
v -0.002873 0.041092 0.000000
v 1.339560 0.091455 -2.615148
v 1.339560 2.730574 0.000000
v -0.002873 0.041092 0.000000
v 1.339560 -2.486787 0.000000
v 1.339560 0.091455 -2.615148
v 1.339560 0.091455 2.615148
v 1.339560 -2.486787 0.000000
v -0.002873 0.041092 0.000000
v -0.002873 0.041092 0.000000
v 1.339560 2.730574 0.000000
v 1.339560 0.091455 2.615148
vt 0.179443 0.736816
vt 0.154663 0.736816
vt 0.179443 0.871460
vt 0.154663 0.736816
vt 0.154663 0.871460
vt 0.179443 0.871460
vt 0.706543 0.542969
vt 0.179443 0.542969
vt 0.706543 0.634277
vt 0.179443 0.542969
vt 0.179443 0.634277
vt 0.706543 0.634277
vt 0.706543 0.634277
vt 0.179443 0.634277
vt 0.706543 0.736816
vt 0.179443 0.634277
vt 0.179443 0.736816
vt 0.706543 0.736816
vt 0.706543 0.736816
vt 0.179443 0.736816
vt 0.706543 0.871460
vt 0.179443 0.736816
vt 0.179443 0.871460
vt 0.706543 0.871460
vt 0.706543 0.871460
vt 0.179443 0.871460
vt 0.706543 0.970047
vt 0.179443 0.871460
vt 0.179443 0.970047
vt 0.706543 0.970047
vt 0.932617 0.626465
vt 0.853027 0.539551
vt 0.853027 0.713623
vt 0.853027 0.539551
vt 0.744141 0.626465
vt 0.853027 0.713623
vt 0.179443 0.542969
vt 0.154663 0.542969
vt 0.179443 0.634277
vt 0.154663 0.542969
vt 0.154663 0.634277
vt 0.179443 0.634277
vt 0.179443 0.736816
vt 0.179443 0.634277
vt 0.154663 0.736816
vt 0.179443 0.634277
vt 0.154663 0.634277
vt 0.154663 0.736816
vt 0.179443 0.970047
vt 0.179443 0.871460
vt 0.154663 0.970047
vt 0.179443 0.871460
vt 0.154663 0.871460
vt 0.154663 0.970047
vt 0.154663 0.542969
vt 0.005829 0.542969
vt 0.154663 0.634277
vt 0.005829 0.542969
vt 0.005829 0.634277
vt 0.154663 0.634277
vt 0.154663 0.634277
vt 0.005829 0.634277
vt 0.154663 0.736816
vt 0.005829 0.634277
vt 0.005829 0.736816
vt 0.154663 0.736816
vt 0.154663 0.736816
vt 0.005829 0.736816
vt 0.154663 0.871460
vt 0.005829 0.736816
vt 0.005829 0.871460
vt 0.154663 0.871460
vt 0.154663 0.871460
vt 0.005829 0.871460
vt 0.154663 0.970047
vt 0.005829 0.871460
vt 0.005829 0.970047
vt 0.154663 0.970047
vt 0.836914 0.867432
vt 0.716309 0.869751
vt 0.836914 0.992905
vt 0.836914 0.867432
vt 0.836914 0.749512
vt 0.716309 0.869751
vt 0.957520 0.869751
vt 0.836914 0.749512
vt 0.836914 0.867432
vt 0.836914 0.867432
vt 0.836914 0.992905
vt 0.957520 0.869751
vn 0.643836 -0.170254 0.745597
vn 0.643836 0.170254 0.745597
vn 0.643836 -0.688845 -0.332681
vn 0.643836 0.170254 0.745597
vn 0.643836 -0.765166 0.000000
vn 0.643836 -0.688845 -0.332681
vn 0.000000 -0.223092 -0.974560
vn 0.000000 -0.223092 -0.974560
vn 0.000000 1.000000 0.000000
vn 0.000000 -0.223092 -0.974560
vn 0.000000 1.000000 0.000000
vn 0.000000 1.000000 0.000000
vn 0.000000 1.000000 0.000000
vn 0.000000 1.000000 0.000000
vn 0.000000 -0.223092 0.974560
vn 0.000000 1.000000 0.000000
vn 0.000000 -0.223092 0.974560
vn 0.000000 -0.223092 0.974560
vn 0.000000 -0.223092 0.974560
vn 0.000000 -0.223092 0.974560
vn 0.000000 -0.900196 -0.434442
vn 0.000000 -0.223092 0.974560
vn 0.000000 -0.900196 -0.434442
vn 0.000000 -0.900196 -0.434442
vn 0.000000 -0.900196 -0.434442
vn 0.000000 -0.900196 -0.434442
vn 0.000000 -0.223092 -0.974560
vn 0.000000 -0.900196 -0.434442
vn 0.000000 -0.223092 -0.974560
vn 0.000000 -0.223092 -0.974560
vn 1.000000 0.000000 0.000000
vn 1.000000 0.000000 0.000000
vn 1.000000 0.000000 0.000000
vn 1.000000 0.000000 0.000000
vn 1.000000 0.000000 0.000000
vn 1.000000 0.000000 0.000000
vn 0.643836 -0.170254 -0.745597
vn 0.643836 -0.477495 -0.598826
vn 0.643836 0.765166 0.000000
vn 0.643836 -0.477495 -0.598826
vn 0.643836 0.688845 -0.332681
vn 0.643836 0.765166 0.000000
vn 0.643836 -0.170254 0.745597
vn 0.643836 0.765166 0.000000
vn 0.643836 0.170254 0.745597
vn 0.643836 0.765166 0.000000
vn 0.643836 0.688845 -0.332681
vn 0.643836 0.170254 0.745597
vn 0.643836 -0.170254 -0.745597
vn 0.643836 -0.688845 -0.332681
vn 0.643836 -0.477495 -0.598826
vn 0.643836 -0.688845 -0.332681
vn 0.643836 -0.765166 0.000000
vn 0.643836 -0.477495 -0.598826
vn 0.000000 -0.624266 -0.782779
vn 0.000000 -0.223092 -0.974560
vn 0.000000 0.900196 -0.434442
vn 0.000000 -0.223092 -0.974560
vn 0.000000 1.000000 0.000000
vn 0.000000 0.900196 -0.434442
vn 0.000000 0.900196 -0.434442
vn 0.000000 1.000000 0.000000
vn 0.000000 0.223092 0.974560
vn 0.000000 1.000000 0.000000
vn 0.000000 -0.223092 0.974560
vn 0.000000 0.223092 0.974560
vn 0.000000 0.223092 0.974560
vn 0.000000 -0.223092 0.974560
vn 0.000000 -1.000000 0.000000
vn 0.000000 -0.223092 0.974560
vn 0.000000 -0.900196 -0.434442
vn 0.000000 -1.000000 0.000000
vn 0.000000 -1.000000 0.000000
vn 0.000000 -0.900196 -0.434442
vn 0.000000 -0.624266 -0.782779
vn 0.000000 -0.900196 -0.434442
vn 0.000000 -0.223092 -0.974560
vn 0.000000 -0.624266 -0.782779
vn 0.000000 0.900196 0.434442
vn -0.356164 -0.207436 -0.911937
vn -0.356164 0.935421 0.000000
vn 0.000000 0.900196 0.434442
vn -0.356164 -0.841487 -0.405088
vn -0.356164 -0.207436 -0.911937
vn -0.356164 -0.207436 0.911937
vn -0.356164 -0.841487 -0.405088
vn 0.000000 0.900196 0.434442
vn 0.000000 0.900196 0.434442
vn -0.356164 0.935421 0.000000
vn -0.356164 -0.207436 0.911937
mtllib mtl_t6_attach_shotgun_silencer1.mtl
g mtl_t6_attach_shotgun_silencer1
usemtl mtl_t6_attach_shotgun_silencer1
f 3/3/3 2/2/2 1/1/1
f 6/6/6 5/5/5 4/4/4
f 9/9/9 8/8/8 7/7/7
f 12/12/12 11/11/11 10/10/10
f 15/15/15 14/14/14 13/13/13
f 18/18/18 17/17/17 16/16/16
f 21/21/21 20/20/20 19/19/19
f 24/24/24 23/23/23 22/22/22
f 27/27/27 26/26/26 25/25/25
f 30/30/30 29/29/29 28/28/28
f 33/33/33 32/32/32 31/31/31
f 36/36/36 35/35/35 34/34/34
f 39/39/39 38/38/38 37/37/37
f 42/42/42 41/41/41 40/40/40
f 45/45/45 44/44/44 43/43/43
f 48/48/48 47/47/47 46/46/46
f 51/51/51 50/50/50 49/49/49
f 54/54/54 53/53/53 52/52/52
f 57/57/57 56/56/56 55/55/55
f 60/60/60 59/59/59 58/58/58
f 63/63/63 62/62/62 61/61/61
f 66/66/66 65/65/65 64/64/64
f 69/69/69 68/68/68 67/67/67
f 72/72/72 71/71/71 70/70/70
f 75/75/75 74/74/74 73/73/73
f 78/78/78 77/77/77 76/76/76
f 81/81/81 80/80/80 79/79/79
f 84/84/84 83/83/83 82/82/82
f 87/87/87 86/86/86 85/85/85
f 90/90/90 89/89/89 88/88/88
