# Generated by Wraith - Game extraction tools
# Please credit DTZxPorter for using it!

v -1.732144 -0.906623 -14.256273
v -1.732144 0.932297 -14.256273
v -2.950281 0.932297 -8.230842
v -2.950281 -0.906623 -8.185592
v -1.732144 -0.906623 -14.256273
v -2.950281 0.932297 -8.230842
v -2.950281 0.932297 -8.230842
v -3.397914 0.932297 -3.705398
v -2.950281 -0.906623 -8.185592
v -3.397914 0.932297 -3.705398
v -3.397914 -0.906623 -3.705398
v -2.950281 -0.906623 -8.185592
v -3.397914 -0.906623 -3.705398
v -3.397914 0.932297 -3.705398
v -3.403855 -0.906623 4.446123
v -3.397914 0.932297 -3.705398
v -3.403855 0.932297 4.446123
v -3.403855 -0.906623 4.446123
v -1.283473 1.501760 -14.159221
v -1.283473 0.932297 -14.159221
v 5.282323 1.500096 -12.765299
v 5.282323 1.500096 -12.765299
v -1.283473 0.932297 -14.159221
v 5.282323 -1.474422 -12.765299
v 5.282323 -1.474422 -12.765299
v -1.283473 0.932297 -14.159221
v -1.315535 -0.906623 -14.159221
v -1.283473 -1.476085 -14.159221
v 5.282323 -1.474422 -12.765299
v -1.315535 -0.906623 -14.159221
v -1.283473 0.932297 -14.159221
v -1.732144 0.932297 -14.256273
v -1.315535 -0.906623 -14.159221
v -1.732144 0.932297 -14.256273
v -1.732144 -0.906623 -14.256273
v -1.315535 -0.906623 -14.159221
v -1.283473 0.932297 -14.159221
v -2.493066 0.935703 -8.157232
v -1.732144 0.932297 -14.256273
v -2.493066 0.935703 -8.157232
v -2.950281 0.932297 -8.230842
v -1.732144 0.932297 -14.256273
v -3.397914 0.932297 -3.705398
v -2.950281 0.932297 -8.230842
v -2.493066 0.935703 -8.157232
v -2.949672 0.935703 -3.617186
v -3.397914 0.932297 -3.705398
v -2.493066 0.935703 -8.157232
v -3.397914 0.932297 -3.705398
v -2.949672 0.935703 -3.617186
v -3.403855 0.932297 4.446123
v -2.949672 0.935703 -3.617186
v -2.956344 0.933767 4.613694
v -3.403855 0.932297 4.446123
v -1.283473 0.932297 -14.159221
v -1.283473 1.501760 -14.159221
v -2.493066 0.935703 -8.157232
v -1.283473 1.501760 -14.159221
v -2.493066 1.501694 -8.157232
v -2.493066 0.935703 -8.157232
v -2.949672 0.935703 -3.617186
v -2.493066 0.935703 -8.157232
v -2.493066 1.501694 -8.157232
v -2.949672 1.501694 -3.617186
v -2.949672 0.935703 -3.617186
v -2.493066 1.501694 -8.157232
v -2.949672 1.501694 -3.617186
v -2.956344 1.501694 4.613694
v -2.949672 0.935703 -3.617186
v -2.956344 1.501694 4.613694
v -2.956344 0.933767 4.613694
v -2.949672 0.935703 -3.617186
v -3.403855 0.932297 4.446123
v -2.956344 0.933767 4.613694
v -3.403855 -0.906623 4.446123
v -2.956344 0.933767 4.613694
v -2.956344 -0.923214 4.613694
v -3.403855 -0.906623 4.446123
v -1.315535 -0.906623 -14.159221
v -1.732144 -0.906623 -14.256273
v -2.950281 -0.906623 -8.185592
v -2.493066 -0.910031 -8.111983
v -1.315535 -0.906623 -14.159221
v -2.950281 -0.906623 -8.185592
v -2.950281 -0.906623 -8.185592
v -3.397914 -0.906623 -3.705398
v -2.493066 -0.910031 -8.111983
v -3.397914 -0.906623 -3.705398
v -2.949672 -0.910031 -3.617186
v -2.493066 -0.910031 -8.111983
v -2.949672 -0.910031 -3.617186
v -3.397914 -0.906623 -3.705398
v -3.403855 -0.906623 4.446123
v -2.956344 -0.923214 4.613694
v -2.949672 -0.910031 -3.617186
v -3.403855 -0.906623 4.446123
v 5.282323 1.500096 -12.765299
v 4.119968 1.501694 -7.032119
v -1.283473 1.501760 -14.159221
v 4.119968 1.501694 -7.032119
v -2.493066 1.501694 -8.157232
v -1.283473 1.501760 -14.159221
v -2.493066 1.501694 -8.157232
v 4.119968 1.501694 -7.032119
v -2.949672 1.501694 -3.617186
v 4.119968 1.501694 -7.032119
v 3.660099 1.501694 -2.469024
v -2.949672 1.501694 -3.617186
v -2.956344 1.501694 4.613694
v -2.949672 1.501694 -3.617186
v 3.660099 1.501694 -2.469024
v 3.662553 1.501694 4.515826
v -2.956344 1.501694 4.613694
v 3.660099 1.501694 -2.469024
v 4.119968 1.501694 -7.032119
v 5.282323 1.500096 -12.765299
v 5.282323 -1.474422 -12.765299
v 4.119968 -1.476017 -7.032119
v 4.119968 1.501694 -7.032119
v 5.282323 -1.474422 -12.765299
v 3.660099 1.501694 -2.469024
v 4.119968 1.501694 -7.032119
v 4.119968 -1.476017 -7.032119
v 3.660099 -1.476017 -2.469024
v 3.660099 1.501694 -2.469024
v 4.119968 -1.476017 -7.032119
v 3.660099 1.501694 -2.469024
v 3.660099 -1.476017 -2.469024
v 3.662553 1.501694 4.515826
v 3.660099 -1.476017 -2.469024
v 3.662553 -1.476017 4.515826
v 3.662553 1.501694 4.515826
v -2.493066 -1.476017 -8.157232
v -1.283473 -1.476085 -14.159221
v -1.315535 -0.906623 -14.159221
v -2.493066 -0.910031 -8.111983
v -2.493066 -1.476017 -8.157232
v -1.315535 -0.906623 -14.159221
v -2.949672 -1.476017 -3.617186
v -2.493066 -1.476017 -8.157232
v -2.493066 -0.910031 -8.111983
v -2.949672 -0.910031 -3.617186
v -2.949672 -1.476017 -3.617186
v -2.493066 -0.910031 -8.111983
v -2.949672 -1.476017 -3.617186
v -2.949672 -0.910031 -3.617186
v -2.956344 -1.476017 4.613694
v -2.949672 -0.910031 -3.617186
v -2.956344 -0.923214 4.613694
v -2.956344 -1.476017 4.613694
v 4.119968 -1.476017 -7.032119
v 5.282323 -1.474422 -12.765299
v -1.283473 -1.476085 -14.159221
v -2.493066 -1.476017 -8.157232
v 4.119968 -1.476017 -7.032119
v -1.283473 -1.476085 -14.159221
v 4.119968 -1.476017 -7.032119
v -2.493066 -1.476017 -8.157232
v -2.949672 -1.476017 -3.617186
v 3.660099 -1.476017 -2.469024
v 4.119968 -1.476017 -7.032119
v -2.949672 -1.476017 -3.617186
v 3.660099 -1.476017 -2.469024
v -2.949672 -1.476017 -3.617186
v -2.956344 -1.476017 4.613694
v 3.662553 -1.476017 4.515826
v 3.660099 -1.476017 -2.469024
v -2.956344 -1.476017 4.613694
v -2.956344 0.933767 4.613694
v -2.956344 1.501694 4.613694
v 3.662553 1.501694 4.515826
v 3.662553 1.501694 4.515826
v 3.662553 -1.476017 4.515826
v -2.956344 0.933767 4.613694
v 3.662553 -1.476017 4.515826
v -2.956344 -0.923214 4.613694
v -2.956344 0.933767 4.613694
v 3.662553 -1.476017 4.515826
v -2.956344 -1.476017 4.613694
v -2.956344 -0.923214 4.613694
vt 0.780273 0.080078
vt 0.756348 0.079590
vt 0.756348 0.161621
vt 0.780273 0.162109
vt 0.780273 0.080078
vt 0.756348 0.161621
vt 0.756348 0.161621
vt 0.756348 0.226074
vt 0.780273 0.162109
vt 0.756348 0.226074
vt 0.780273 0.225586
vt 0.780273 0.162109
vt 0.780273 0.225586
vt 0.756348 0.226074
vt 0.780273 0.341309
vt 0.756348 0.226074
vt 0.754395 0.341309
vt 0.780273 0.341309
vt 0.687500 0.307617
vt 0.687500 0.312500
vt 0.735840 0.307617
vt 0.735840 0.307617
vt 0.687500 0.312500
vt 0.735840 0.332520
vt 0.735840 0.332520
vt 0.687500 0.312500
vt 0.687012 0.327637
vt 0.687500 0.332520
vt 0.735840 0.332520
vt 0.687012 0.327637
vt 0.687500 0.312500
vt 0.684082 0.313477
vt 0.687012 0.327637
vt 0.684082 0.313477
vt 0.684082 0.327148
vt 0.687012 0.327637
vt 0.750000 0.080078
vt 0.750977 0.161621
vt 0.756348 0.079590
vt 0.750977 0.161621
vt 0.756348 0.161621
vt 0.756348 0.079590
vt 0.756348 0.226074
vt 0.756348 0.161621
vt 0.750977 0.161621
vt 0.750977 0.226563
vt 0.756348 0.226074
vt 0.750977 0.161621
vt 0.756348 0.226074
vt 0.750977 0.226563
vt 0.754395 0.341309
vt 0.750977 0.226563
vt 0.748535 0.349121
vt 0.754395 0.341309
vt 0.750000 0.080078
vt 0.739746 0.080078
vt 0.750977 0.161621
vt 0.739746 0.080078
vt 0.739746 0.161621
vt 0.750977 0.161621
vt 0.750977 0.226563
vt 0.750977 0.161621
vt 0.739746 0.161621
vt 0.739746 0.227051
vt 0.750977 0.226563
vt 0.739746 0.161621
vt 0.739746 0.227051
vt 0.742676 0.349609
vt 0.750977 0.226563
vt 0.742676 0.349609
vt 0.748535 0.349121
vt 0.750977 0.226563
vt 0.639160 0.775391
vt 0.639160 0.782349
vt 0.667480 0.775391
vt 0.639160 0.782349
vt 0.667480 0.782349
vt 0.667480 0.775391
vt 0.750000 0.080078
vt 0.756348 0.079590
vt 0.756348 0.161621
vt 0.750977 0.161621
vt 0.750000 0.080078
vt 0.756348 0.161621
vt 0.756348 0.161621
vt 0.756348 0.226074
vt 0.750977 0.161621
vt 0.756348 0.226074
vt 0.750977 0.226563
vt 0.750977 0.161621
vt 0.750977 0.226563
vt 0.756348 0.226074
vt 0.754395 0.341309
vt 0.749023 0.349609
vt 0.750977 0.226563
vt 0.754395 0.341309
vt 0.004459 0.124512
vt 0.011200 0.191895
vt 0.100769 0.109863
vt 0.011200 0.191895
vt 0.107422 0.185547
vt 0.100769 0.109863
vt 0.107422 0.185547
vt 0.011200 0.191895
vt 0.107788 0.250000
vt 0.011200 0.191895
vt 0.011398 0.257324
vt 0.107788 0.250000
vt 0.096191 0.373535
vt 0.107788 0.250000
vt 0.011398 0.257324
vt 0.003063 0.354980
vt 0.096191 0.373535
vt 0.011398 0.257324
vt 0.997559 0.886047
vt 0.997559 0.834351
vt 0.968750 0.834351
vt 0.968750 0.886047
vt 0.997559 0.886047
vt 0.968750 0.834351
vt 0.997559 0.930603
vt 0.997559 0.886047
vt 0.968750 0.886047
vt 0.968750 0.930603
vt 0.997559 0.930603
vt 0.968750 0.886047
vt 0.997559 0.930603
vt 0.968750 0.930603
vt 0.997559 0.998516
vt 0.968750 0.930603
vt 0.968750 0.998516
vt 0.997559 0.998516
vt 0.739746 0.161133
vt 0.739746 0.080078
vt 0.750000 0.080078
vt 0.750977 0.161621
vt 0.739746 0.161133
vt 0.750000 0.080078
vt 0.739746 0.227051
vt 0.739746 0.161133
vt 0.750977 0.161621
vt 0.750977 0.226563
vt 0.739746 0.227051
vt 0.750977 0.161621
vt 0.739746 0.227051
vt 0.750977 0.226563
vt 0.742676 0.349609
vt 0.750977 0.226563
vt 0.749023 0.349609
vt 0.742676 0.349609
vt 0.011246 0.191895
vt 0.004459 0.124512
vt 0.100769 0.109863
vt 0.107422 0.185547
vt 0.011246 0.191895
vt 0.100769 0.109863
vt 0.011246 0.191895
vt 0.107422 0.185547
vt 0.107788 0.250000
vt 0.011398 0.257324
vt 0.011246 0.191895
vt 0.107788 0.250000
vt 0.011398 0.257324
vt 0.107788 0.250000
vt 0.096191 0.373535
vt 0.003063 0.354980
vt 0.011398 0.257324
vt 0.096191 0.373535
vt 0.513672 0.276855
vt 0.513672 0.280273
vt 0.550293 0.279785
vt 0.550293 0.279785
vt 0.553711 0.260742
vt 0.513672 0.276855
vt 0.553711 0.260742
vt 0.513672 0.265137
vt 0.513672 0.276855
vt 0.553711 0.260742
vt 0.513672 0.261719
vt 0.513672 0.265137
vn -0.980431 -0.001957 -0.197652
vn -0.980431 -0.001957 -0.197652
vn -0.988258 -0.001957 -0.148728
vn -0.988258 -0.001957 -0.148728
vn -0.980431 -0.001957 -0.197652
vn -0.988258 -0.001957 -0.148728
vn -0.988258 -0.001957 -0.148728
vn -0.998043 0.000000 -0.048924
vn -0.988258 -0.001957 -0.148728
vn -0.998043 0.000000 -0.048924
vn -0.998043 0.000000 -0.048924
vn -0.988258 -0.001957 -0.148728
vn -0.998043 0.000000 -0.048924
vn -0.998043 0.000000 -0.048924
vn -1.000000 0.000000 0.000000
vn -0.998043 0.000000 -0.048924
vn -1.000000 0.000000 0.000000
vn -1.000000 0.000000 0.000000
vn 0.207436 0.000000 -0.978474
vn 0.213307 0.000000 -0.976517
vn 0.207436 0.000000 -0.978474
vn 0.207436 0.000000 -0.978474
vn 0.213307 0.000000 -0.976517
vn 0.207436 0.000000 -0.978474
vn 0.207436 0.000000 -0.978474
vn 0.213307 0.000000 -0.976517
vn 0.213307 0.000000 -0.976517
vn 0.207436 0.000000 -0.978474
vn 0.207436 0.000000 -0.978474
vn 0.213307 0.000000 -0.976517
vn 0.213307 0.000000 -0.976517
vn 0.219178 -0.001957 -0.976517
vn 0.213307 0.000000 -0.976517
vn 0.219178 -0.001957 -0.976517
vn 0.219178 -0.001957 -0.976517
vn 0.213307 0.000000 -0.976517
vn -0.003914 1.000000 -0.001957
vn -0.005871 1.000000 0.000000
vn -0.003914 1.000000 -0.001957
vn -0.005871 1.000000 0.000000
vn -0.005871 1.000000 0.000000
vn -0.003914 1.000000 -0.001957
vn -0.005871 1.000000 0.000000
vn -0.005871 1.000000 0.000000
vn -0.005871 1.000000 0.000000
vn -0.005871 1.000000 0.000000
vn -0.005871 1.000000 0.000000
vn -0.005871 1.000000 0.000000
vn -0.005871 1.000000 0.000000
vn -0.005871 1.000000 0.000000
vn -0.005871 1.000000 0.000000
vn -0.005871 1.000000 0.000000
vn -0.005871 1.000000 0.000000
vn -0.005871 1.000000 0.000000
vn -0.980431 0.000000 -0.197652
vn -0.980431 0.000000 -0.197652
vn -0.988258 0.000000 -0.148728
vn -0.980431 0.000000 -0.197652
vn -0.988258 0.000000 -0.148728
vn -0.988258 0.000000 -0.148728
vn -0.998043 0.000000 -0.050881
vn -0.988258 0.000000 -0.148728
vn -0.988258 0.000000 -0.148728
vn -0.998043 0.000000 -0.050881
vn -0.998043 0.000000 -0.050881
vn -0.988258 0.000000 -0.148728
vn -0.998043 0.000000 -0.050881
vn -1.000000 0.000000 0.000000
vn -0.998043 0.000000 -0.050881
vn -1.000000 0.000000 0.000000
vn -1.000000 0.000000 0.000000
vn -0.998043 0.000000 -0.050881
vn -0.350294 0.000000 0.937378
vn -0.350294 0.000000 0.937378
vn -0.350294 0.000000 0.937378
vn -0.350294 0.000000 0.937378
vn -0.350294 0.000000 0.937378
vn -0.350294 0.000000 0.937378
vn -0.003914 -1.000000 -0.001957
vn -0.003914 -1.000000 -0.001957
vn -0.005871 -1.000000 0.000000
vn -0.005871 -1.000000 0.000000
vn -0.003914 -1.000000 -0.001957
vn -0.005871 -1.000000 0.000000
vn -0.005871 -1.000000 0.000000
vn -0.015656 -1.000000 0.000000
vn -0.005871 -1.000000 0.000000
vn -0.015656 -1.000000 0.000000
vn -0.015656 -1.000000 0.000000
vn -0.005871 -1.000000 0.000000
vn -0.015656 -1.000000 0.000000
vn -0.015656 -1.000000 0.000000
vn -0.021526 -1.000000 0.000000
vn -0.021526 -1.000000 0.000000
vn -0.015656 -1.000000 0.000000
vn -0.021526 -1.000000 0.000000
vn 0.000000 1.000000 0.000000
vn 0.000000 1.000000 0.000000
vn 0.000000 1.000000 0.000000
vn 0.000000 1.000000 0.000000
vn 0.000000 1.000000 0.000000
vn 0.000000 1.000000 0.000000
vn 0.000000 1.000000 0.000000
vn 0.000000 1.000000 0.000000
vn 0.000000 1.000000 0.000000
vn 0.000000 1.000000 0.000000
vn 0.000000 1.000000 0.000000
vn 0.000000 1.000000 0.000000
vn 0.000000 1.000000 0.000000
vn 0.000000 1.000000 0.000000
vn 0.000000 1.000000 0.000000
vn 0.000000 1.000000 0.000000
vn 0.000000 1.000000 0.000000
vn 0.000000 1.000000 0.000000
vn 0.988258 0.000000 0.148728
vn 0.980431 0.000000 0.199609
vn 0.980431 0.000000 0.199609
vn 0.988258 0.000000 0.148728
vn 0.988258 0.000000 0.148728
vn 0.980431 0.000000 0.199609
vn 0.998043 0.000000 0.050881
vn 0.988258 0.000000 0.148728
vn 0.988258 0.000000 0.148728
vn 0.998043 0.000000 0.050881
vn 0.998043 0.000000 0.050881
vn 0.988258 0.000000 0.148728
vn 0.998043 0.000000 0.050881
vn 0.998043 0.000000 0.050881
vn 1.000000 0.000000 0.000000
vn 0.998043 0.000000 0.050881
vn 1.000000 0.000000 0.000000
vn 1.000000 0.000000 0.000000
vn -0.988258 -0.007828 -0.146771
vn -0.980431 -0.019569 -0.193738
vn -0.980431 -0.019569 -0.193738
vn -0.988258 -0.007828 -0.146771
vn -0.988258 -0.007828 -0.146771
vn -0.980431 -0.019569 -0.193738
vn -0.998043 0.001957 -0.050881
vn -0.988258 -0.007828 -0.146771
vn -0.988258 -0.007828 -0.146771
vn -0.998043 0.001957 -0.050881
vn -0.998043 0.001957 -0.050881
vn -0.988258 -0.007828 -0.146771
vn -0.998043 0.001957 -0.050881
vn -0.998043 0.001957 -0.050881
vn -1.000000 0.000000 0.000000
vn -0.998043 0.001957 -0.050881
vn -1.000000 0.000000 0.000000
vn -1.000000 0.000000 0.000000
vn 0.000000 -1.000000 0.000000
vn 0.000000 -1.000000 0.000000
vn 0.000000 -1.000000 0.000000
vn 0.000000 -1.000000 0.000000
vn 0.000000 -1.000000 0.000000
vn 0.000000 -1.000000 0.000000
vn 0.000000 -1.000000 0.000000
vn 0.000000 -1.000000 0.000000
vn 0.000000 -1.000000 0.000000
vn 0.000000 -1.000000 0.000000
vn 0.000000 -1.000000 0.000000
vn 0.000000 -1.000000 0.000000
vn 0.000000 -1.000000 0.000000
vn 0.000000 -1.000000 0.000000
vn 0.000000 -1.000000 0.000000
vn 0.000000 -1.000000 0.000000
vn 0.000000 -1.000000 0.000000
vn 0.000000 -1.000000 0.000000
vn 0.015656 0.000000 1.000000
vn 0.015656 0.000000 1.000000
vn 0.015656 0.000000 1.000000
vn 0.015656 0.000000 1.000000
vn 0.015656 0.000000 1.000000
vn 0.015656 0.000000 1.000000
vn 0.015656 0.000000 1.000000
vn 0.015656 0.000000 1.000000
vn 0.015656 0.000000 1.000000
vn 0.015656 0.000000 1.000000
vn 0.015656 0.000000 1.000000
vn 0.015656 0.000000 1.000000
mtllib mtl_t6_wpn_ar_sig556_camo1.mtl
g mtl_t6_wpn_ar_sig556_camo1
usemtl mtl_t6_wpn_ar_sig556_camo1
f 3/3/3 2/2/2 1/1/1
f 6/6/6 5/5/5 4/4/4
f 9/9/9 8/8/8 7/7/7
f 12/12/12 11/11/11 10/10/10
f 15/15/15 14/14/14 13/13/13
f 18/18/18 17/17/17 16/16/16
f 21/21/21 20/20/20 19/19/19
f 24/24/24 23/23/23 22/22/22
f 27/27/27 26/26/26 25/25/25
f 30/30/30 29/29/29 28/28/28
f 33/33/33 32/32/32 31/31/31
f 36/36/36 35/35/35 34/34/34
f 39/39/39 38/38/38 37/37/37
f 42/42/42 41/41/41 40/40/40
f 45/45/45 44/44/44 43/43/43
f 48/48/48 47/47/47 46/46/46
f 51/51/51 50/50/50 49/49/49
f 54/54/54 53/53/53 52/52/52
f 57/57/57 56/56/56 55/55/55
f 60/60/60 59/59/59 58/58/58
f 63/63/63 62/62/62 61/61/61
f 66/66/66 65/65/65 64/64/64
f 69/69/69 68/68/68 67/67/67
f 72/72/72 71/71/71 70/70/70
f 75/75/75 74/74/74 73/73/73
f 78/78/78 77/77/77 76/76/76
f 81/81/81 80/80/80 79/79/79
f 84/84/84 83/83/83 82/82/82
f 87/87/87 86/86/86 85/85/85
f 90/90/90 89/89/89 88/88/88
f 93/93/93 92/92/92 91/91/91
f 96/96/96 95/95/95 94/94/94
f 99/99/99 98/98/98 97/97/97
f 102/102/102 101/101/101 100/100/100
f 105/105/105 104/104/104 103/103/103
f 108/108/108 107/107/107 106/106/106
f 111/111/111 110/110/110 109/109/109
f 114/114/114 113/113/113 112/112/112
f 117/117/117 116/116/116 115/115/115
f 120/120/120 119/119/119 118/118/118
f 123/123/123 122/122/122 121/121/121
f 126/126/126 125/125/125 124/124/124
f 129/129/129 128/128/128 127/127/127
f 132/132/132 131/131/131 130/130/130
f 135/135/135 134/134/134 133/133/133
f 138/138/138 137/137/137 136/136/136
f 141/141/141 140/140/140 139/139/139
f 144/144/144 143/143/143 142/142/142
f 147/147/147 146/146/146 145/145/145
f 150/150/150 149/149/149 148/148/148
f 153/153/153 152/152/152 151/151/151
f 156/156/156 155/155/155 154/154/154
f 159/159/159 158/158/158 157/157/157
f 162/162/162 161/161/161 160/160/160
f 165/165/165 164/164/164 163/163/163
f 168/168/168 167/167/167 166/166/166
f 171/171/171 170/170/170 169/169/169
f 174/174/174 173/173/173 172/172/172
f 177/177/177 176/176/176 175/175/175
f 180/180/180 179/179/179 178/178/178
