# Generated by Wraith - Game extraction tools
# Please credit DTZxPorter for using it!

v 1.778552 2.128716 -15.544838
v 1.778552 1.236673 -15.544838
v 5.329781 1.682694 -14.113033
v 1.677683 1.682686 1.639610
v -2.150532 1.236663 1.678643
v -2.150532 2.128708 1.678646
v -2.196847 -0.500878 4.892271
v -2.196847 0.391168 4.892271
v 1.632161 -0.054856 4.892271
v 4.135489 -0.054856 -11.083241
v 0.599590 0.391168 -12.550949
v 0.599590 -0.500878 -12.550949
v 1.778552 1.236673 -15.544838
v 1.778552 2.128716 -15.544838
v -1.189142 1.236668 -6.903745
v 1.778552 2.128716 -15.544838
v -1.189142 2.128711 -6.903745
v -1.189142 1.236668 -6.903745
v 5.329781 1.682694 -14.113033
v 2.549696 1.682689 -6.208491
v 1.778552 2.128716 -15.544838
v 2.549696 1.682689 -6.208491
v -1.189142 2.128711 -6.903745
v 1.778552 2.128716 -15.544838
v 2.549696 1.682689 -6.208491
v 1.677683 1.682686 1.639610
v -1.189142 2.128711 -6.903745
v 1.677683 1.682686 1.639610
v -2.150532 2.128708 1.678646
v -1.189142 2.128711 -6.903745
v -1.189142 1.236668 -6.903745
v -1.189142 2.128711 -6.903745
v -2.150532 1.236663 1.678643
v -1.189142 2.128711 -6.903745
v -2.150532 2.128708 1.678646
v -2.150532 1.236663 1.678643
v 2.549696 1.682689 -6.208491
v 5.329781 1.682694 -14.113033
v 1.778552 1.236673 -15.544838
v -1.189142 1.236668 -6.903745
v 2.549696 1.682689 -6.208491
v 1.778552 1.236673 -15.544838
v 2.549696 1.682689 -6.208491
v -1.189142 1.236668 -6.903745
v 1.677683 1.682686 1.639610
v -1.189142 1.236668 -6.903745
v -2.150532 1.236663 1.678643
v 1.677683 1.682686 1.639610
v -2.196847 0.391168 4.892271
v -2.196847 -0.500878 4.892271
v -1.718030 0.391168 -4.231681
v -2.196847 -0.500878 4.892271
v -1.718030 -0.500878 -4.231681
v -1.718030 0.391168 -4.231681
v 1.632161 -0.054856 4.892271
v 2.009553 -0.054856 -3.478408
v -2.196847 -0.500878 4.892271
v 2.009553 -0.054856 -3.478408
v -1.718030 -0.500878 -4.231681
v -2.196847 -0.500878 4.892271
v 2.009553 -0.054856 -3.478408
v 4.135489 -0.054856 -11.083241
v -1.718030 -0.500878 -4.231681
v 4.135489 -0.054856 -11.083241
v 0.599590 -0.500878 -12.550949
v -1.718030 -0.500878 -4.231681
v -1.718030 0.391168 -4.231681
v -1.718030 -0.500878 -4.231681
v 0.599590 0.391168 -12.550949
v -1.718030 -0.500878 -4.231681
v 0.599590 -0.500878 -12.550949
v 0.599590 0.391168 -12.550949
v 2.009553 -0.054856 -3.478408
v 1.632161 -0.054856 4.892271
v -2.196847 0.391168 4.892271
v -1.718030 0.391168 -4.231681
v 2.009553 -0.054856 -3.478408
v -2.196847 0.391168 4.892271
v 2.009553 -0.054856 -3.478408
v -1.718030 0.391168 -4.231681
v 4.135489 -0.054856 -11.083241
v -1.718030 0.391168 -4.231681
v 0.599590 0.391168 -12.550949
v 4.135489 -0.054856 -11.083241
v -1.416624 -1.035334 -6.502964
v -1.758085 -1.035334 -4.793971
v 2.838795 -1.035334 -5.652724
v -1.758085 -1.035334 -4.793971
v 2.497333 -1.035334 -3.943733
v 2.838795 -1.035334 -5.652724
v 2.497333 -1.035334 -3.943733
v -1.758085 -1.035334 -4.793971
v 2.497333 2.664559 -3.943733
v -1.758085 -1.035334 -4.793971
v -1.758085 2.664559 -4.793971
v 2.497333 2.664559 -3.943733
v -1.758085 2.664559 -4.793971
v -1.758085 -1.035334 -4.793971
v -1.416624 2.664559 -6.502964
v -1.758085 -1.035334 -4.793971
v -1.416624 -1.035334 -6.502964
v -1.416624 2.664559 -6.502964
v 2.838795 -1.035334 -5.652724
v 2.497333 -1.035334 -3.943733
v 2.838795 2.664559 -5.652724
v 2.497333 -1.035334 -3.943733
v 2.497333 2.664559 -3.943733
v 2.838795 2.664559 -5.652724
v 2.497333 2.664559 -3.943733
v -1.758085 2.664559 -4.793971
v 2.838795 2.664559 -5.652724
v -1.758085 2.664559 -4.793971
v -1.416624 2.664559 -6.502964
v 2.838795 2.664559 -5.652724
v 2.838795 2.664559 -5.652724
v -1.416624 2.664559 -6.502964
v 2.838795 -1.035334 -5.652724
v -1.416624 2.664559 -6.502964
v -1.416624 -1.035334 -6.502964
v 2.838795 -1.035334 -5.652724
vt -0.108337 0.335449
vt -0.108337 0.361816
vt -0.039490 0.348633
vt -1.879883 0.343750
vt -1.891602 0.404297
vt -1.868164 0.404297
vt -0.108337 0.335449
vt -0.108337 0.361816
vt -0.039490 0.348633
vt -1.879883 0.343750
vt -1.891602 0.404297
vt -1.868164 0.404297
vt -1.031250 0.411133
vt -1.003906 0.411133
vt -1.044922 0.208496
vt -1.003906 0.411133
vt -1.018555 0.208496
vt -1.044922 0.208496
vt -0.116211 0.411133
vt -0.126831 0.228027
vt -0.031891 0.411133
vt -0.126831 0.228027
vt -0.046112 0.208984
vt -0.031891 0.411133
vt -0.126831 0.228027
vt -0.171997 0.055664
vt -0.046112 0.208984
vt -0.171997 0.055664
vt -0.094055 0.023438
vt -0.046112 0.208984
vt -1.044922 0.208496
vt -1.018555 0.208496
vt -1.093750 0.023438
vt -1.018555 0.208496
vt -1.067383 0.020996
vt -1.093750 0.023438
vt -1.133789 0.228516
vt -1.124023 0.411133
vt -1.031250 0.411133
vt -1.044922 0.208496
vt -1.133789 0.228516
vt -1.031250 0.411133
vt -1.133789 0.228516
vt -1.044922 0.208496
vt -1.179688 0.059082
vt -1.044922 0.208496
vt -1.093750 0.023438
vt -1.179688 0.059082
vt -1.031250 0.411133
vt -1.003906 0.411133
vt -1.044922 0.208496
vt -1.003906 0.411133
vt -1.018555 0.208496
vt -1.044922 0.208496
vt -0.116211 0.411133
vt -0.126831 0.228027
vt -0.031891 0.411133
vt -0.126831 0.228027
vt -0.046112 0.208984
vt -0.031891 0.411133
vt -0.126831 0.228027
vt -0.171997 0.055664
vt -0.046112 0.208984
vt -0.171997 0.055664
vt -0.094055 0.023438
vt -0.046112 0.208984
vt -1.044922 0.208496
vt -1.018555 0.208496
vt -1.093750 0.023438
vt -1.018555 0.208496
vt -1.067383 0.020996
vt -1.093750 0.023438
vt -1.133789 0.228516
vt -1.124023 0.411133
vt -1.031250 0.411133
vt -1.044922 0.208496
vt -1.133789 0.228516
vt -1.031250 0.411133
vt -1.133789 0.228516
vt -1.044922 0.208496
vt -1.179688 0.059082
vt -1.044922 0.208496
vt -1.093750 0.023438
vt -1.179688 0.059082
vt 0.531738 0.840454
vt 0.512695 0.840454
vt 0.531738 0.806152
vt 0.512695 0.840454
vt 0.512695 0.806152
vt 0.531738 0.806152
vt 0.490479 0.807251
vt 0.418457 0.807251
vt 0.490479 0.838623
vt 0.418457 0.807251
vt 0.418457 0.838623
vt 0.490479 0.838623
vt 0.512695 0.840454
vt 0.512695 0.806152
vt 0.531738 0.840454
vt 0.512695 0.806152
vt 0.531738 0.806152
vt 0.531738 0.840454
vt 0.531738 0.806152
vt 0.512695 0.806152
vt 0.531738 0.840454
vt 0.512695 0.806152
vt 0.512695 0.840454
vt 0.531738 0.840454
vt 0.512695 0.806152
vt 0.512695 0.840454
vt 0.531738 0.806152
vt 0.512695 0.840454
vt 0.531738 0.840454
vt 0.531738 0.806152
vt 0.490479 0.838623
vt 0.418457 0.838623
vt 0.490479 0.807251
vt 0.418457 0.838623
vt 0.418457 0.807251
vt 0.490479 0.807251
vn 0.373777 0.000000 -0.927593
vn 0.373777 0.000000 -0.927593
vn 0.373777 0.000000 -0.927593
vn 0.009785 0.000000 1.000000
vn 0.009785 0.000000 1.000000
vn 0.009785 0.000000 1.000000
vn 0.000000 0.000000 1.000000
vn 0.000000 0.000000 1.000000
vn 0.000000 0.000000 1.000000
vn 0.383562 0.000000 -0.923679
vn 0.383562 0.000000 -0.923679
vn 0.383562 0.000000 -0.923679
vn -0.939335 0.000000 -0.342466
vn -0.939335 0.000000 -0.342466
vn -0.939335 0.000000 -0.342466
vn -0.939335 0.000000 -0.342466
vn -0.939335 0.000000 -0.342466
vn -0.939335 0.000000 -0.342466
vn 0.000000 1.000000 0.000000
vn 0.000000 1.000000 0.000000
vn 0.000000 1.000000 0.000000
vn 0.000000 1.000000 0.000000
vn 0.000000 1.000000 0.000000
vn 0.000000 1.000000 0.000000
vn 0.000000 1.000000 0.000000
vn 0.000000 1.000000 0.000000
vn 0.000000 1.000000 0.000000
vn 0.000000 1.000000 0.000000
vn 0.000000 1.000000 0.000000
vn 0.000000 1.000000 0.000000
vn -0.998043 0.000000 -0.050881
vn -0.998043 0.000000 -0.050881
vn -0.998043 0.000000 -0.050881
vn -0.998043 0.000000 -0.050881
vn -0.998043 0.000000 -0.050881
vn -0.998043 0.000000 -0.050881
vn 0.000000 -1.000000 0.000000
vn 0.000000 -1.000000 0.000000
vn 0.000000 -1.000000 0.000000
vn 0.000000 -1.000000 0.000000
vn 0.000000 -1.000000 0.000000
vn 0.000000 -1.000000 0.000000
vn 0.000000 -1.000000 0.000000
vn 0.000000 -1.000000 0.000000
vn 0.000000 -1.000000 0.000000
vn 0.000000 -1.000000 0.000000
vn 0.000000 -1.000000 0.000000
vn 0.000000 -1.000000 0.000000
vn -1.000000 0.000000 -0.033268
vn -1.000000 0.000000 -0.033268
vn -1.000000 0.000000 -0.033268
vn -1.000000 0.000000 -0.033268
vn -1.000000 0.000000 -0.033268
vn -1.000000 0.000000 -0.033268
vn 0.000000 -1.000000 0.000000
vn 0.000000 -1.000000 0.000000
vn 0.000000 -1.000000 0.000000
vn 0.000000 -1.000000 0.000000
vn 0.000000 -1.000000 0.000000
vn 0.000000 -1.000000 0.000000
vn 0.000000 -1.000000 0.000000
vn 0.000000 -1.000000 0.000000
vn 0.000000 -1.000000 0.000000
vn 0.000000 -1.000000 0.000000
vn 0.000000 -1.000000 0.000000
vn 0.000000 -1.000000 0.000000
vn -0.945205 0.000000 -0.326810
vn -0.945205 0.000000 -0.326810
vn -0.945205 0.000000 -0.326810
vn -0.945205 0.000000 -0.326810
vn -0.945205 0.000000 -0.326810
vn -0.945205 0.000000 -0.326810
vn 0.000000 1.000000 0.000000
vn 0.000000 1.000000 0.000000
vn 0.000000 1.000000 0.000000
vn 0.000000 1.000000 0.000000
vn 0.000000 1.000000 0.000000
vn 0.000000 1.000000 0.000000
vn 0.000000 1.000000 0.000000
vn 0.000000 1.000000 0.000000
vn 0.000000 1.000000 0.000000
vn 0.000000 1.000000 0.000000
vn 0.000000 1.000000 0.000000
vn 0.000000 1.000000 0.000000
vn 0.000000 -1.000000 0.000000
vn 0.000000 -1.000000 0.000000
vn 0.000000 -1.000000 0.000000
vn 0.000000 -1.000000 0.000000
vn 0.000000 -1.000000 0.000000
vn 0.000000 -1.000000 0.000000
vn -0.195695 0.000000 0.980431
vn -0.195695 0.000000 0.980431
vn -0.195695 0.000000 0.980431
vn -0.195695 0.000000 0.980431
vn -0.195695 0.000000 0.980431
vn -0.195695 0.000000 0.980431
vn -0.980431 0.000000 -0.195695
vn -0.980431 0.000000 -0.195695
vn -0.980431 0.000000 -0.195695
vn -0.980431 0.000000 -0.195695
vn -0.980431 0.000000 -0.195695
vn -0.980431 0.000000 -0.195695
vn 0.980431 0.000000 0.195695
vn 0.980431 0.000000 0.195695
vn 0.980431 0.000000 0.195695
vn 0.980431 0.000000 0.195695
vn 0.980431 0.000000 0.195695
vn 0.980431 0.000000 0.195695
vn 0.000000 1.000000 0.000000
vn 0.000000 1.000000 0.000000
vn 0.000000 1.000000 0.000000
vn 0.000000 1.000000 0.000000
vn 0.000000 1.000000 0.000000
vn 0.000000 1.000000 0.000000
vn 0.195695 0.000000 -0.980431
vn 0.195695 0.000000 -0.980431
vn 0.195695 0.000000 -0.980431
vn 0.195695 0.000000 -0.980431
vn 0.195695 0.000000 -0.980431
vn 0.195695 0.000000 -0.980431
mtllib mtl_t6_wpn_smg_chicom_camo1.mtl
g mtl_t6_wpn_smg_chicom_camo1
usemtl mtl_t6_wpn_smg_chicom_camo1
f 3/3/3 2/2/2 1/1/1
f 6/6/6 5/5/5 4/4/4
f 9/9/9 8/8/8 7/7/7
f 12/12/12 11/11/11 10/10/10
f 15/15/15 14/14/14 13/13/13
f 18/18/18 17/17/17 16/16/16
f 21/21/21 20/20/20 19/19/19
f 24/24/24 23/23/23 22/22/22
f 27/27/27 26/26/26 25/25/25
f 30/30/30 29/29/29 28/28/28
f 33/33/33 32/32/32 31/31/31
f 36/36/36 35/35/35 34/34/34
f 39/39/39 38/38/38 37/37/37
f 42/42/42 41/41/41 40/40/40
f 45/45/45 44/44/44 43/43/43
f 48/48/48 47/47/47 46/46/46
f 51/51/51 50/50/50 49/49/49
f 54/54/54 53/53/53 52/52/52
f 57/57/57 56/56/56 55/55/55
f 60/60/60 59/59/59 58/58/58
f 63/63/63 62/62/62 61/61/61
f 66/66/66 65/65/65 64/64/64
f 69/69/69 68/68/68 67/67/67
f 72/72/72 71/71/71 70/70/70
f 75/75/75 74/74/74 73/73/73
f 78/78/78 77/77/77 76/76/76
f 81/81/81 80/80/80 79/79/79
f 84/84/84 83/83/83 82/82/82
mtllib mtl_t6_wpn_smg_chicom_camo2.mtl
g mtl_t6_wpn_smg_chicom_camo2
usemtl mtl_t6_wpn_smg_chicom_camo2
f 87/87/87 86/86/86 85/85/85
f 90/90/90 89/89/89 88/88/88
f 93/93/93 92/92/92 91/91/91
f 96/96/96 95/95/95 94/94/94
f 99/99/99 98/98/98 97/97/97
f 102/102/102 101/101/101 100/100/100
f 105/105/105 104/104/104 103/103/103
f 108/108/108 107/107/107 106/106/106
f 111/111/111 110/110/110 109/109/109
f 114/114/114 113/113/113 112/112/112
f 117/117/117 116/116/116 115/115/115
f 120/120/120 119/119/119 118/118/118
