# Generated by Wraith - Game extraction tools
# Please credit DTZxPorter for using it!

v 4.987011 -1.066820 -12.061685
v 0.770279 -1.066820 -13.620663
v 4.205557 -1.066820 -10.029876
v 0.770279 -1.066820 -13.620663
v 0.022307 -1.066820 -11.488402
v 4.205557 -1.066820 -10.029876
v 0.022307 1.236543 -11.488402
v 0.770279 1.236543 -13.620663
v 4.205557 1.236543 -10.029876
v 0.770279 1.236543 -13.620663
v 4.987011 1.236543 -12.061685
v 4.205557 1.236543 -10.029876
v 0.770279 1.236543 -13.620663
v 0.770279 -1.066820 -13.620663
v 4.987011 1.236543 -12.061685
v 0.770279 -1.066820 -13.620663
v 4.987011 -1.066820 -12.061685
v 4.987011 1.236543 -12.061685
v 4.987011 -1.066820 -12.061685
v 4.205557 -1.066820 -10.029876
v 4.987011 1.236543 -12.061685
v 4.205557 -1.066820 -10.029876
v 4.205557 1.236543 -10.029876
v 4.987011 1.236543 -12.061685
v 0.770279 1.236543 -13.620663
v 0.022307 1.236543 -11.488402
v 0.770279 -1.066820 -13.620663
v 0.022307 1.236543 -11.488402
v 0.022307 -1.066820 -11.488402
v 0.770279 -1.066820 -13.620663
v 0.022307 1.236543 -11.488402
v -1.419258 1.236543 -6.854056
v 0.022307 -1.066820 -11.488402
v -1.419258 1.236543 -6.854056
v -1.419258 -1.066820 -6.854056
v 0.022307 -1.066820 -11.488402
v -1.419258 1.236543 -6.854056
v -2.523614 1.236543 -0.721787
v -1.419258 -1.066820 -6.854056
v -2.523614 1.236543 -0.721787
v -2.523614 -1.066820 -0.721787
v -1.419258 -1.066820 -6.854056
v -2.523614 1.236543 -0.721787
v -2.908358 1.236543 3.358774
v -2.523614 -1.066820 -0.721787
v -2.908358 1.236543 3.358774
v -2.908358 -1.066820 3.358774
v -2.523614 -1.066820 -0.721787
v -2.908358 -1.066820 3.358774
v -2.908358 1.236543 3.358774
v 1.438890 -1.066820 3.358774
v -2.908358 1.236543 3.358774
v 1.438890 1.236543 3.358774
v 1.438890 -1.066820 3.358774
v 4.205557 1.236543 -10.029876
v 2.838164 1.236543 -6.055174
v 0.022307 1.236543 -11.488402
v 2.838164 1.236543 -6.055174
v -1.419258 1.236543 -6.854056
v 0.022307 1.236543 -11.488402
v 2.838164 1.236543 -6.055174
v 1.782117 1.236543 -0.352552
v -1.419258 1.236543 -6.854056
v 1.782117 1.236543 -0.352552
v -2.523614 1.236543 -0.721787
v -1.419258 1.236543 -6.854056
v 1.782117 1.236543 -0.352552
v 1.438890 1.236543 3.358774
v -2.523614 1.236543 -0.721787
v 1.438890 1.236543 3.358774
v -2.908358 1.236543 3.358774
v -2.523614 1.236543 -0.721787
v 4.205557 -1.066820 -10.029876
v 2.838164 -1.066820 -6.055174
v 4.205557 1.236543 -10.029876
v 2.838164 -1.066820 -6.055174
v 2.838164 1.236543 -6.055174
v 4.205557 1.236543 -10.029876
v 2.838164 -1.066820 -6.055174
v 1.782117 -1.066820 -0.352552
v 2.838164 1.236543 -6.055174
v 1.782117 -1.066820 -0.352552
v 1.782117 1.236543 -0.352552
v 2.838164 1.236543 -6.055174
v 1.782117 -1.066820 -0.352552
v 1.438890 -1.066820 3.358774
v 1.782117 1.236543 -0.352552
v 1.438890 -1.066820 3.358774
v 1.438890 1.236543 3.358774
v 1.782117 1.236543 -0.352552
v 4.205557 -1.066820 -10.029876
v 0.022307 -1.066820 -11.488402
v 2.838164 -1.066820 -6.055174
v 0.022307 -1.066820 -11.488402
v -1.419258 -1.066820 -6.854056
v 2.838164 -1.066820 -6.055174
v 2.838164 -1.066820 -6.055174
v -1.419258 -1.066820 -6.854056
v 1.782117 -1.066820 -0.352552
v -1.419258 -1.066820 -6.854056
v -2.523614 -1.066820 -0.721787
v 1.782117 -1.066820 -0.352552
v 1.782117 -1.066820 -0.352552
v -2.523614 -1.066820 -0.721787
v 1.438890 -1.066820 3.358774
v -2.523614 -1.066820 -0.721787
v -2.908358 -1.066820 3.358774
v 1.438890 -1.066820 3.358774
vt 0.005421 0.149902
vt 0.111694 0.139160
vt 0.013840 0.204102
vt 0.111694 0.139160
vt 0.118713 0.195801
vt 0.013840 0.204102
vt 1.118164 0.195801
vt 1.111328 0.139160
vt 1.013672 0.204102
vt 1.111328 0.139160
vt 1.004883 0.149902
vt 1.013672 0.204102
vt 1.161133 0.064453
vt 1.161133 0.104004
vt 1.234375 0.065918
vt 1.161133 0.104004
vt 1.234375 0.105469
vt 1.234375 0.065918
vt 1.191406 0.173828
vt 1.191406 0.211914
vt 1.233398 0.173828
vt 1.191406 0.211914
vt 1.233398 0.211914
vt 1.233398 0.173828
vt 1.137695 0.139160
vt 1.137695 0.187988
vt 1.186523 0.139160
vt 1.137695 0.187988
vt 1.186523 0.187988
vt 1.186523 0.139160
vt 1.137695 0.187988
vt 1.137695 0.287598
vt 1.186523 0.187988
vt 1.137695 0.287598
vt 1.186523 0.287598
vt 1.186523 0.187988
vt 1.137695 0.287598
vt 1.137695 0.428711
vt 1.186523 0.287598
vt 1.137695 0.428711
vt 1.186523 0.428711
vt 1.186523 0.287598
vt 1.137695 0.428711
vt 1.137695 0.510010
vt 1.186523 0.428711
vt 1.137695 0.510010
vt 1.186523 0.510010
vt 1.186523 0.428711
vt 0.044708 0.305176
vt 0.094910 0.305176
vt 0.044708 0.210449
vt 0.094910 0.305176
vt 0.094910 0.210449
vt 0.044708 0.210449
vt 1.013672 0.204102
vt 1.025391 0.314453
vt 1.118164 0.195801
vt 1.025391 0.314453
vt 1.125977 0.317871
vt 1.118164 0.195801
vt 1.025391 0.314453
vt 1.021484 0.461426
vt 1.125977 0.317871
vt 1.021484 0.461426
vt 1.121094 0.474609
vt 1.125977 0.317871
vt 1.021484 0.461426
vt 1.008789 0.541748
vt 1.121094 0.474609
vt 1.008789 0.541748
vt 1.108398 0.563477
vt 1.121094 0.474609
vt 1.191406 0.211914
vt 1.191406 0.290039
vt 1.233398 0.211914
vt 1.191406 0.290039
vt 1.233398 0.289551
vt 1.233398 0.211914
vt 1.191406 0.290039
vt 1.191406 0.391602
vt 1.233398 0.289551
vt 1.191406 0.391602
vt 1.233398 0.391113
vt 1.233398 0.289551
vt 1.191406 0.391602
vt 1.191406 0.447754
vt 1.233398 0.391113
vt 1.191406 0.447754
vt 1.233398 0.447754
vt 1.233398 0.391113
vt 0.013840 0.204102
vt 0.118713 0.195801
vt 0.026321 0.314453
vt 0.118713 0.195801
vt 0.126221 0.317871
vt 0.026321 0.314453
vt 0.026321 0.314453
vt 0.126221 0.317871
vt 0.021820 0.461426
vt 0.126221 0.317871
vt 0.121216 0.474609
vt 0.021820 0.461426
vt 0.021820 0.461426
vt 0.121216 0.474609
vt 0.008949 0.541748
vt 0.121216 0.474609
vt 0.109253 0.563477
vt 0.008949 0.541748
vn 0.000000 -1.000000 0.000000
vn 0.000000 -1.000000 0.000000
vn 0.000000 -1.000000 0.000000
vn 0.000000 -1.000000 0.000000
vn 0.000000 -1.000000 0.000000
vn 0.000000 -1.000000 0.000000
vn 0.000000 1.000000 0.000000
vn 0.000000 1.000000 0.000000
vn 0.000000 1.000000 0.000000
vn 0.000000 1.000000 0.000000
vn 0.000000 1.000000 0.000000
vn 0.000000 1.000000 0.000000
vn 0.346380 0.000000 -0.937378
vn 0.346380 0.000000 -0.937378
vn 0.346380 0.000000 -0.937378
vn 0.346380 0.000000 -0.937378
vn 0.346380 0.000000 -0.937378
vn 0.346380 0.000000 -0.937378
vn 0.933464 0.000000 0.358121
vn 0.933464 0.000000 0.358121
vn 0.933464 0.000000 0.358121
vn 0.933464 0.000000 0.358121
vn 0.933464 0.000000 0.358121
vn 0.933464 0.000000 0.358121
vn -0.943249 0.000000 -0.330724
vn -0.943249 0.000000 -0.330724
vn -0.943249 0.000000 -0.330724
vn -0.943249 0.000000 -0.330724
vn -0.943249 0.000000 -0.330724
vn -0.943249 0.000000 -0.330724
vn -0.954990 0.000000 -0.297456
vn -0.970646 0.000000 -0.236791
vn -0.954990 0.000000 -0.297456
vn -0.970646 0.000000 -0.236791
vn -0.970646 0.000000 -0.236791
vn -0.954990 0.000000 -0.297456
vn -0.970646 0.000000 -0.236791
vn -0.990215 0.000000 -0.135029
vn -0.970646 0.000000 -0.236791
vn -0.990215 0.000000 -0.135029
vn -0.990215 0.000000 -0.135029
vn -0.970646 0.000000 -0.236791
vn -0.990215 0.000000 -0.135029
vn -0.996086 0.000000 -0.093933
vn -0.990215 0.000000 -0.135029
vn -0.996086 0.000000 -0.093933
vn -0.996086 0.000000 -0.093933
vn -0.990215 0.000000 -0.135029
vn 0.000000 0.000000 1.000000
vn 0.000000 0.000000 1.000000
vn 0.000000 0.000000 1.000000
vn 0.000000 0.000000 1.000000
vn 0.000000 0.000000 1.000000
vn 0.000000 0.000000 1.000000
vn 0.000000 1.000000 0.000000
vn 0.000000 1.000000 0.000000
vn 0.000000 1.000000 0.000000
vn 0.000000 1.000000 0.000000
vn 0.000000 1.000000 0.000000
vn 0.000000 1.000000 0.000000
vn 0.000000 1.000000 0.000000
vn 0.000000 1.000000 0.000000
vn 0.000000 1.000000 0.000000
vn 0.000000 1.000000 0.000000
vn 0.000000 1.000000 0.000000
vn 0.000000 1.000000 0.000000
vn 0.000000 1.000000 0.000000
vn 0.000000 1.000000 0.000000
vn 0.000000 1.000000 0.000000
vn 0.000000 1.000000 0.000000
vn 0.000000 1.000000 0.000000
vn 0.000000 1.000000 0.000000
vn 0.945205 0.000000 0.324853
vn 0.966732 0.000000 0.254403
vn 0.945205 0.000000 0.324853
vn 0.966732 0.000000 0.254403
vn 0.966732 0.000000 0.254403
vn 0.945205 0.000000 0.324853
vn 0.966732 0.000000 0.254403
vn 0.990215 0.000000 0.136986
vn 0.966732 0.000000 0.254403
vn 0.990215 0.000000 0.136986
vn 0.990215 0.000000 0.136986
vn 0.966732 0.000000 0.254403
vn 0.990215 0.000000 0.136986
vn 0.996086 0.000000 0.091977
vn 0.990215 0.000000 0.136986
vn 0.996086 0.000000 0.091977
vn 0.996086 0.000000 0.091977
vn 0.990215 0.000000 0.136986
vn 0.000000 -1.000000 0.000000
vn 0.000000 -1.000000 0.000000
vn 0.000000 -1.000000 0.000000
vn 0.000000 -1.000000 0.000000
vn 0.000000 -1.000000 0.000000
vn 0.000000 -1.000000 0.000000
vn 0.000000 -1.000000 0.000000
vn 0.000000 -1.000000 0.000000
vn 0.000000 -1.000000 0.000000
vn 0.000000 -1.000000 0.000000
vn 0.000000 -1.000000 0.000000
vn 0.000000 -1.000000 0.000000
vn 0.000000 -1.000000 0.000000
vn 0.000000 -1.000000 0.000000
vn 0.000000 -1.000000 0.000000
vn 0.000000 -1.000000 0.000000
vn 0.000000 -1.000000 0.000000
vn 0.000000 -1.000000 0.000000
mtllib mtl_t6_wpn_smg_scorpion_camo4.mtl
g mtl_t6_wpn_smg_scorpion_camo4
usemtl mtl_t6_wpn_smg_scorpion_camo4
f 3/3/3 2/2/2 1/1/1
f 6/6/6 5/5/5 4/4/4
f 9/9/9 8/8/8 7/7/7
f 12/12/12 11/11/11 10/10/10
f 15/15/15 14/14/14 13/13/13
f 18/18/18 17/17/17 16/16/16
f 21/21/21 20/20/20 19/19/19
f 24/24/24 23/23/23 22/22/22
f 27/27/27 26/26/26 25/25/25
f 30/30/30 29/29/29 28/28/28
f 33/33/33 32/32/32 31/31/31
f 36/36/36 35/35/35 34/34/34
f 39/39/39 38/38/38 37/37/37
f 42/42/42 41/41/41 40/40/40
f 45/45/45 44/44/44 43/43/43
f 48/48/48 47/47/47 46/46/46
mtllib mtl_t6_wpn_smg_scorpion_camo3.mtl
g mtl_t6_wpn_smg_scorpion_camo3
usemtl mtl_t6_wpn_smg_scorpion_camo3
f 51/51/51 50/50/50 49/49/49
f 54/54/54 53/53/53 52/52/52
f 57/57/57 56/56/56 55/55/55
f 60/60/60 59/59/59 58/58/58
f 63/63/63 62/62/62 61/61/61
f 66/66/66 65/65/65 64/64/64
f 69/69/69 68/68/68 67/67/67
f 72/72/72 71/71/71 70/70/70
f 75/75/75 74/74/74 73/73/73
f 78/78/78 77/77/77 76/76/76
f 81/81/81 80/80/80 79/79/79
f 84/84/84 83/83/83 82/82/82
f 87/87/87 86/86/86 85/85/85
f 90/90/90 89/89/89 88/88/88
f 93/93/93 92/92/92 91/91/91
f 96/96/96 95/95/95 94/94/94
f 99/99/99 98/98/98 97/97/97
f 102/102/102 101/101/101 100/100/100
f 105/105/105 104/104/104 103/103/103
f 108/108/108 107/107/107 106/106/106
