# Generated by Wraith - Game extraction tools
# Please credit DTZxPorter for using it!

v 0.000000 0.000036 0.043289
v 2.022917 2.279307 -2.089640
v 2.022917 -0.000719 2.319327
v 0.000000 0.000036 0.043289
v 2.022917 -0.000719 2.319327
v 2.022917 -2.279594 -2.089640
v 2.022917 2.279307 -2.089640
v 0.000000 0.000036 0.043289
v 2.022917 -2.279594 -2.089640
v 18.813107 2.279307 -2.089640
v 18.813107 -2.279594 -2.089640
v 18.813107 -0.000719 2.319327
v 2.022917 2.279307 -2.089640
v 18.813107 2.279307 -2.089640
v 2.022917 -0.000719 2.319327
v 18.813107 2.279307 -2.089640
v 18.813107 -0.000719 2.319327
v 2.022917 -0.000719 2.319327
v 2.022917 -0.000719 2.319327
v 18.813107 -0.000719 2.319327
v 2.022917 -2.279594 -2.089640
v 18.813107 -0.000719 2.319327
v 18.813107 -2.279594 -2.089640
v 2.022917 -2.279594 -2.089640
v 18.813107 2.279307 -2.089640
v 2.022917 2.279307 -2.089640
v 18.813107 -2.279594 -2.089640
v 2.022917 2.279307 -2.089640
v 2.022917 -2.279594 -2.089640
v 18.813107 -2.279594 -2.089640
vt 0.924316 0.143555
vt 0.864746 0.143555
vt 0.909668 0.278320
vt 0.924316 0.143555
vt 0.909668 0.278320
vt 0.978516 0.197754
vt 0.864746 0.143555
vt 0.924316 0.143555
vt 0.978516 0.197754
vt 0.894531 0.328125
vt 0.734863 0.256348
vt 0.780762 0.552979
vt 0.677246 0.152832
vt 0.015610 0.152832
vt 0.677246 0.357910
vt 0.015610 0.152832
vt 0.015617 0.357910
vt 0.677246 0.357910
vt 0.677246 0.357910
vt 0.015617 0.357910
vt 0.677246 0.565430
vt 0.015617 0.357910
vt 0.015617 0.565674
vt 0.677246 0.565430
vt 0.015610 0.152832
vt 0.677246 0.152832
vt 0.015617 0.565674
vt 0.677246 0.152832
vt 0.677246 0.565430
vt 0.015617 0.565674
vn -0.996086 0.000000 0.078278
vn 0.000000 0.622309 0.782779
vn 0.000000 -0.223092 0.974560
vn -0.996086 0.000000 0.078278
vn 0.000000 -0.223092 0.974560
vn 0.000000 -0.900196 -0.434442
vn 0.000000 0.622309 0.782779
vn -0.996086 0.000000 0.078278
vn 0.000000 -0.900196 -0.434442
vn 1.000000 0.000000 0.000000
vn 1.000000 0.000000 0.000000
vn 1.000000 0.000000 0.000000
vn 0.000000 0.888454 0.459883
vn 0.000000 0.888454 0.459883
vn 0.000000 0.888454 0.459883
vn 0.000000 0.888454 0.459883
vn 0.000000 0.888454 0.459883
vn 0.000000 0.888454 0.459883
vn 0.000000 -0.888454 0.459883
vn 0.000000 -0.888454 0.459883
vn 0.000000 -0.888454 0.459883
vn 0.000000 -0.888454 0.459883
vn 0.000000 -0.888454 0.459883
vn 0.000000 -0.888454 0.459883
vn 0.000000 0.000000 -1.000000
vn 0.000000 0.000000 -1.000000
vn 0.000000 0.000000 -1.000000
vn 0.000000 0.000000 -1.000000
vn 0.000000 0.000000 -1.000000
vn 0.000000 0.000000 -1.000000
mtllib mtl_t6_attach_smg_silencer1.mtl
g mtl_t6_attach_smg_silencer1
usemtl mtl_t6_attach_smg_silencer1
f 3/3/3 2/2/2 1/1/1
f 6/6/6 5/5/5 4/4/4
f 9/9/9 8/8/8 7/7/7
f 12/12/12 11/11/11 10/10/10
f 15/15/15 14/14/14 13/13/13
f 18/18/18 17/17/17 16/16/16
f 21/21/21 20/20/20 19/19/19
f 24/24/24 23/23/23 22/22/22
f 27/27/27 26/26/26 25/25/25
f 30/30/30 29/29/29 28/28/28
