# Generated by Wraith - Game extraction tools
# Please credit DTZxPorter for using it!

v 0.930580 0.000000 -18.908478
v 7.966240 -1.454318 -16.412922
v 7.966240 1.454318 -16.412922
v 3.094671 -1.380759 5.784571
v -4.027838 0.000000 5.732958
v 3.094671 1.380759 5.784571
v 0.930580 0.000000 -18.908478
v 7.966240 1.454318 -16.412922
v -3.858849 0.000000 4.028161
v 7.966240 1.454318 -16.412922
v 3.197537 1.381536 4.748302
v -3.858849 0.000000 4.028161
v 3.197537 1.381536 4.748302
v 3.094671 1.380759 5.784571
v -3.858849 0.000000 4.028161
v 3.094671 1.380759 5.784571
v -4.027838 0.000000 5.732958
v -3.858849 0.000000 4.028161
v 7.966240 -1.454318 -16.412922
v 3.197537 -1.381536 4.748302
v 7.966240 1.454318 -16.412922
v 3.197537 -1.381536 4.748302
v 3.197537 1.381536 4.748302
v 7.966240 1.454318 -16.412922
v 3.197537 1.381536 4.748302
v 3.197537 -1.381536 4.748302
v 3.094671 -1.380759 5.784571
v 3.094671 1.380759 5.784571
v 3.197537 1.381536 4.748302
v 3.094671 -1.380759 5.784571
v 0.930580 0.000000 -18.908478
v -3.858849 0.000000 4.028161
v 7.966240 -1.454318 -16.412922
v -3.858849 0.000000 4.028161
v 3.197537 -1.381536 4.748302
v 7.966240 -1.454318 -16.412922
v 3.197537 -1.381536 4.748302
v -3.858849 0.000000 4.028161
v 3.094671 -1.380759 5.784571
v -3.858849 0.000000 4.028161
v -4.027838 0.000000 5.732958
v 3.094671 -1.380759 5.784571
vt 0.039551 0.268555
vt 0.044647 0.333496
vt 0.034485 0.333496
vt 0.080383 0.457031
vt 0.070862 0.407715
vt 0.060913 0.457031
vt 0.202148 0.149902
vt 0.104553 0.171875
vt 0.198975 0.471191
vt 0.104553 0.171875
vt 0.105042 0.459961
vt 0.198975 0.471191
vt 0.105042 0.459961
vt 0.103027 0.473633
vt 0.198975 0.471191
vt 0.103027 0.473633
vt 0.195801 0.492676
vt 0.198975 0.471191
vt 0.044647 0.333496
vt 0.044647 0.558105
vt 0.034485 0.333496
vt 0.044647 0.558105
vt 0.034485 0.558105
vt 0.034485 0.333496
vt 0.034485 0.558105
vt 0.044647 0.558105
vt 0.044647 0.571045
vt 0.034485 0.571045
vt 0.034485 0.558105
vt 0.044647 0.571045
vt 1.202148 0.149902
vt 1.199219 0.471191
vt 1.104492 0.172363
vt 1.199219 0.471191
vt 1.104492 0.459961
vt 1.104492 0.172363
vt 1.104492 0.459961
vt 1.199219 0.471191
vt 1.101563 0.472168
vt 1.199219 0.471191
vt 1.193359 0.494141
vt 1.101563 0.472168
vn -0.041096 0.000000 -1.000000
vn 0.334638 0.000000 -0.943249
vn 0.669276 0.587084 -0.455969
vn 0.669276 0.000000 0.743640
vn -0.373777 0.000000 0.927593
vn 0.479452 0.590998 0.649706
vn -0.041096 0.000000 -1.000000
vn 0.669276 0.587084 -0.455969
vn -0.988258 0.000000 -0.150685
vn 0.669276 0.587084 -0.455969
vn 0.626223 0.772994 0.101761
vn -0.988258 0.000000 -0.150685
vn 0.626223 0.772994 0.101761
vn 0.479452 0.590998 0.649706
vn -0.988258 0.000000 -0.150685
vn 0.479452 0.590998 0.649706
vn -0.373777 0.000000 0.927593
vn -0.988258 0.000000 -0.150685
vn 0.974560 0.000000 0.219178
vn 0.986301 0.000000 0.160470
vn 0.669276 0.587084 -0.455969
vn 0.986301 0.000000 0.160470
vn 0.626223 0.772994 0.101761
vn 0.669276 0.587084 -0.455969
vn 0.626223 0.772994 0.101761
vn 0.986301 0.000000 0.160470
vn 0.669276 0.000000 0.743640
vn 0.479452 0.590998 0.649706
vn 0.626223 0.772994 0.101761
vn 0.669276 0.000000 0.743640
vn -0.041096 0.000000 -1.000000
vn -0.988258 0.000000 -0.150685
vn -0.187867 -0.980431 -0.039139
vn -0.988258 0.000000 -0.150685
vn -0.189824 -0.982387 -0.029354
vn -0.187867 -0.980431 -0.039139
vn -0.189824 -0.982387 -0.029354
vn -0.988258 0.000000 -0.150685
vn -0.189824 -0.982387 -0.017613
vn -0.988258 0.000000 -0.150685
vn -0.373777 0.000000 0.927593
vn -0.189824 -0.982387 -0.017613
mtllib mtl_t6_wpn_shotty_saiga.mtl
g mtl_t6_wpn_shotty_saiga
usemtl mtl_t6_wpn_shotty_saiga
f 3/3/3 2/2/2 1/1/1
f 6/6/6 5/5/5 4/4/4
f 9/9/9 8/8/8 7/7/7
f 12/12/12 11/11/11 10/10/10
f 15/15/15 14/14/14 13/13/13
f 18/18/18 17/17/17 16/16/16
f 21/21/21 20/20/20 19/19/19
f 24/24/24 23/23/23 22/22/22
f 27/27/27 26/26/26 25/25/25
f 30/30/30 29/29/29 28/28/28
f 33/33/33 32/32/32 31/31/31
f 36/36/36 35/35/35 34/34/34
f 39/39/39 38/38/38 37/37/37
f 42/42/42 41/41/41 40/40/40
