# Generated by Wraith - Game extraction tools
# Please credit DTZxPorter for using it!

v -5.561363 57.300503 1.259472
v 5.510131 54.643215 1.259472
v -5.561363 54.643215 1.259472
v 5.510131 54.643215 1.259472
v -5.561363 57.300503 1.259472
v 5.510131 57.300503 1.259472
v 0.000000 0.000000 3.004566
v -1.013308 60.959999 0.977953
v 0.000000 60.959999 3.004566
v -1.013308 60.959999 0.977953
v 0.000000 0.000000 3.004566
v -1.013308 0.000000 0.977953
v 1.013308 0.000000 0.977953
v 0.000000 60.959999 3.004566
v 1.013308 60.959999 0.977953
v 0.000000 60.959999 3.004566
v 1.013308 0.000000 0.977953
v 0.000000 0.000000 3.004566
vt 0.983887 0.250488
vt 0.834961 0.273926
vt 0.998047 0.272949
vt 0.834961 0.273926
vt 0.983887 0.250488
vt 0.818359 0.343262
vt 0.267090 -1.179688
vt 0.110657 2.804688
vt 0.267090 2.804688
vt 0.110657 2.804688
vt 0.267090 -1.179688
vt 0.110657 -1.179688
vt 0.423828 -1.179688
vt 0.267090 2.804688
vt 0.423828 2.804688
vt 0.267090 2.804688
vt 0.423828 -1.179688
vt 0.267090 -1.179688
vn 0.000000 0.000000 1.000000
vn 0.000000 0.000000 1.000000
vn 0.000000 0.000000 1.000000
vn 0.000000 0.000000 1.000000
vn 0.000000 0.000000 1.000000
vn 0.000000 0.000000 1.000000
vn -0.706458 0.000000 0.706458
vn -1.000000 0.000000 0.000000
vn -0.706458 0.000000 0.706458
vn -1.000000 0.000000 0.000000
vn -0.706458 0.000000 0.706458
vn -1.000000 0.000000 0.000000
vn 1.000000 0.000000 0.000000
vn 0.706458 0.000000 0.706458
vn 1.000000 0.000000 0.000000
vn 0.706458 0.000000 0.706458
vn 1.000000 0.000000 0.000000
vn 0.706458 0.000000 0.706458
mtllib mtl_p_rus_pipes_modular.mtl
g mtl_p_rus_pipes_modular
usemtl mtl_p_rus_pipes_modular
f 3/3/3 2/2/2 1/1/1
f 6/6/6 5/5/5 4/4/4
f 9/9/9 8/8/8 7/7/7
f 12/12/12 11/11/11 10/10/10
f 15/15/15 14/14/14 13/13/13
f 18/18/18 17/17/17 16/16/16
