# Generated by Wraith - Game extraction tools
# Please credit DTZxPorter for using it!

v 0.203073 0.701650 12.730943
v -2.309513 1.689260 9.948647
v 0.926021 2.745522 9.948677
v 0.205003 -0.680956 12.730927
v 2.930413 -0.005232 9.948662
v 0.933679 -2.736362 9.948629
v -0.611777 -0.416822 12.730927
v -2.304775 -1.689103 9.948614
v -0.637499 0.401399 12.730934
v -0.903168 1.217176 2.969504
v -2.312017 1.651284 2.969491
v -1.448712 -0.469796 2.969466
v -0.611777 -0.416822 12.730927
v 0.205003 -0.680956 12.730927
v -2.304775 -1.689103 9.948614
v -2.304775 -1.689103 9.948614
v 0.205003 -0.680956 12.730927
v 0.933679 -2.736362 9.948629
v -2.312017 1.651284 2.969491
v 0.850580 2.683733 2.969522
v -2.309513 1.689260 9.948647
v -2.309513 1.689260 9.948647
v 0.850580 2.683733 2.969522
v 0.926021 2.745522 9.948677
v 0.926021 2.745522 9.948677
v 0.850580 2.683733 2.969522
v 2.930413 -0.005232 9.948662
v 0.850580 2.683733 2.969522
v 2.809788 -0.005011 2.969504
v 2.930413 -0.005232 9.948662
v 2.930413 -0.005232 9.948662
v 2.809788 -0.005011 2.969504
v 0.933679 -2.736362 9.948629
v 2.809788 -0.005011 2.969504
v 0.858065 -2.674574 2.969474
v 0.933679 -2.736362 9.948629
v 0.708609 0.007874 12.730934
v 0.205003 -0.680956 12.730927
v 0.203073 0.701650 12.730943
v 0.203073 0.701650 12.730943
v 0.205003 -0.680956 12.730927
v -0.637499 0.401399 12.730934
v -0.637499 0.401399 12.730934
v 0.205003 -0.680956 12.730927
v -0.611777 -0.416822 12.730927
v 0.708609 0.007874 12.730934
v 2.930413 -0.005232 9.948662
v 0.205003 -0.680956 12.730927
v 0.708609 0.007874 12.730934
v 0.203073 0.701650 12.730943
v 2.930413 -0.005232 9.948662
v 2.930413 -0.005232 9.948662
v 0.203073 0.701650 12.730943
v 0.926021 2.745522 9.948677
v -0.637499 0.401399 12.730934
v -2.309513 1.689260 9.948647
v 0.203073 0.701650 12.730943
v -0.637499 0.401399 12.730934
v -2.304775 -1.689103 9.948614
v -2.309513 1.689260 9.948647
v -2.307384 -1.650924 2.969461
v -2.312017 1.651284 2.969491
v -2.309513 1.689260 9.948647
v -2.304775 -1.689103 9.948614
v -2.307384 -1.650924 2.969461
v -2.309513 1.689260 9.948647
v 0.858065 -2.674574 2.969474
v -2.307384 -1.650924 2.969461
v -2.304775 -1.689103 9.948614
v 0.933679 -2.736362 9.948629
v 0.858065 -2.674574 2.969474
v -2.304775 -1.689103 9.948614
v -2.312017 1.651284 2.969491
v -0.903168 1.217176 2.969504
v 0.850580 2.683733 2.969522
v 0.869861 1.219665 2.969504
v 0.850580 2.683733 2.969522
v -0.903168 1.217176 2.969504
v 0.850580 2.683733 2.969522
v 0.869861 1.219665 2.969504
v 2.809788 -0.005011 2.969504
v 1.420086 -0.465816 2.969504
v 2.809788 -0.005011 2.969504
v 0.869861 1.219665 2.969504
v -2.307384 -1.650924 2.969461
v -1.448712 -0.469796 2.969466
v -2.312017 1.651284 2.969491
v -1.448712 -0.469796 2.969466
v -2.307384 -1.650924 2.969461
v -0.012857 -1.509934 2.969466
v 0.858065 -2.674574 2.969474
v -0.012857 -1.509934 2.969466
v -2.307384 -1.650924 2.969461
v -0.012857 -1.509934 2.969466
v 0.858065 -2.674574 2.969474
v 1.420086 -0.465816 2.969504
v 2.809788 -0.005011 2.969504
v 1.420086 -0.465816 2.969504
v 0.858065 -2.674574 2.969474
v 3.790721 -1.232423 -3.857056
v -0.012857 -1.509934 2.969466
v 1.420086 -0.465816 2.969504
v -0.009388 -4.001465 -3.857056
v -0.012857 -1.509934 2.969466
v 3.790721 -1.232423 -3.857056
v -0.009388 -4.001465 -3.857056
v -1.448712 -0.469796 2.969466
v -0.012857 -1.509934 2.969466
v -3.817191 -1.243010 -3.857056
v -1.448712 -0.469796 2.969466
v -0.009388 -4.001465 -3.857056
v -3.817191 -1.243010 -3.857056
v -0.009388 -4.001465 -3.857056
v -3.620176 -1.208222 -7.464694
v -3.620176 -1.208222 -7.464694
v -0.009388 -4.001465 -3.857056
v -0.009545 -3.823843 -7.464694
v -3.620176 -1.208222 -7.464694
v -0.009545 -3.823843 -7.464694
v -0.014950 -0.001760 -9.503839
v -0.009545 -3.823843 -7.464694
v 3.593795 -1.198199 -7.464694
v -0.014950 -0.001760 -9.503839
v 3.790721 -1.232423 -3.857056
v 3.593795 -1.198199 -7.464694
v -0.009388 -4.001465 -3.857056
v -0.009388 -4.001465 -3.857056
v 3.593795 -1.198199 -7.464694
v -0.009545 -3.823843 -7.464694
v 3.593795 -1.198199 -7.464694
v 2.210163 3.040164 -7.464694
v -0.014950 -0.001760 -9.503839
v 3.790721 -1.232423 -3.857056
v 2.210163 3.040164 -7.464694
v 3.593795 -1.198199 -7.464694
v 2.331522 3.237355 -3.857056
v 2.210163 3.040164 -7.464694
v 3.790721 -1.232423 -3.857056
v 3.790721 -1.232423 -3.857056
v 1.420086 -0.465816 2.969504
v 2.331522 3.237355 -3.857056
v 2.331522 3.237355 -3.857056
v 1.420086 -0.465816 2.969504
v 0.869861 1.219665 2.969504
v -2.248324 3.033951 -7.464694
v -3.620176 -1.208222 -7.464694
v -0.014950 -0.001760 -9.503839
v -2.248324 3.033951 -7.464694
v -3.817191 -1.243010 -3.857056
v -3.620176 -1.208222 -7.464694
v -2.370417 3.230824 -3.857056
v -3.817191 -1.243010 -3.857056
v -2.248324 3.033951 -7.464694
v -2.370417 3.230824 -3.857056
v -0.903168 1.217176 2.969504
v -3.817191 -1.243010 -3.857056
v -3.817191 -1.243010 -3.857056
v -0.903168 1.217176 2.969504
v -1.448712 -0.469796 2.969466
v 2.210163 3.040164 -7.464694
v -2.370417 3.230824 -3.857056
v -2.248324 3.033951 -7.464694
v 2.331522 3.237355 -3.857056
v -2.370417 3.230824 -3.857056
v 2.210163 3.040164 -7.464694
v 2.331522 3.237355 -3.857056
v 0.869861 1.219665 2.969504
v -2.370417 3.230824 -3.857056
v -2.370417 3.230824 -3.857056
v 0.869861 1.219665 2.969504
v -0.903168 1.217176 2.969504
v 2.210163 3.040164 -7.464694
v -2.248324 3.033951 -7.464694
v -0.014950 -0.001760 -9.503839
vt 0.262451 0.102539
vt 0.104553 0.860352
vt 0.296387 0.860352
vt 0.122375 0.103027
vt 0.105591 0.860352
vt 0.478760 0.860352
vt 0.052673 0.103516
vt 0.295410 0.860352
vt 0.335449 0.102051
vt 0.899414 0.169434
vt 0.854980 0.243164
vt 0.900391 0.167480
vt 0.052673 0.103516
vt 0.122375 0.103027
vt 0.295410 0.860352
vt 0.295410 0.860352
vt 0.122375 0.103027
vt 0.478760 0.860352
vt 0.104553 0.119629
vt 0.296631 0.119629
vt 0.104553 0.860352
vt 0.104553 0.860352
vt 0.296631 0.119629
vt 0.296387 0.860352
vt 0.296387 0.860352
vt 0.296631 0.119629
vt 0.105591 0.860352
vt 0.296631 0.119629
vt 0.105652 0.119629
vt 0.105591 0.860352
vt 0.105591 0.860352
vt 0.105652 0.119629
vt 0.478760 0.860352
vt 0.105652 0.119629
vt 0.478516 0.119629
vt 0.478760 0.860352
vt 0.688965 0.102539
vt 0.654297 0.057129
vt 0.654297 0.147949
vt 0.654297 0.147949
vt 0.654297 0.057129
vt 0.596680 0.128418
vt 0.596680 0.128418
vt 0.654297 0.057129
vt 0.598145 0.074219
vt 0.192383 0.103027
vt 0.105591 0.860352
vt 0.122375 0.103027
vt 0.192383 0.103027
vt 0.262451 0.102539
vt 0.105591 0.860352
vt 0.105591 0.860352
vt 0.262451 0.102539
vt 0.296387 0.860352
vt 0.335449 0.102051
vt 0.104553 0.860352
vt 0.262451 0.102539
vt 0.335449 0.102051
vt 0.295410 0.860352
vt 0.104553 0.860352
vt 0.295410 0.119629
vt 0.104553 0.119629
vt 0.104553 0.860352
vt 0.295410 0.860352
vt 0.295410 0.119629
vt 0.104553 0.860352
vt 0.478516 0.119629
vt 0.295410 0.119629
vt 0.295410 0.860352
vt 0.478760 0.860352
vt 0.478516 0.119629
vt 0.295410 0.860352
vt 0.854980 0.243164
vt 0.899414 0.169434
vt 0.854980 0.243164
vt 0.899414 0.168945
vt 0.854980 0.243164
vt 0.899414 0.169434
vt 0.854980 0.243164
vt 0.899414 0.168945
vt 0.854980 0.242676
vt 0.899414 0.167969
vt 0.854980 0.242676
vt 0.899414 0.168945
vt 0.855469 0.243652
vt 0.900391 0.167480
vt 0.854980 0.243164
vt 0.900391 0.167480
vt 0.855469 0.243652
vt 0.900391 0.167969
vt 0.854980 0.243164
vt 0.900391 0.167969
vt 0.855469 0.243652
vt 0.900391 0.167969
vt 0.854980 0.243164
vt 0.899414 0.167969
vt 0.854980 0.242676
vt 0.899414 0.167969
vt 0.854980 0.243164
vt 0.671875 0.751343
vt 0.806641 0.451172
vt 0.724121 0.441895
vt 0.819824 0.745361
vt 0.806641 0.451172
vt 0.671875 0.751343
vt 0.819824 0.745361
vt 0.886719 0.437988
vt 0.806641 0.451172
vt 0.983887 0.737305
vt 0.886719 0.437988
vt 0.819824 0.745361
vt 0.983887 0.737305
vt 0.819824 0.745361
vt 0.977051 0.849609
vt 0.977051 0.849609
vt 0.819824 0.745361
vt 0.818359 0.818481
vt 0.977051 0.849609
vt 0.818359 0.818481
vt 0.791016 0.987114
vt 0.818359 0.818481
vt 0.685059 0.836426
vt 0.791016 0.987114
vt 0.671875 0.751343
vt 0.685059 0.836426
vt 0.819824 0.745361
vt 0.819824 0.745361
vt 0.685059 0.836426
vt 0.818359 0.818481
vt 0.685059 0.836426
vt 0.888672 0.826416
vt 0.791992 0.987167
vt 0.671875 0.751343
vt 0.888672 0.826416
vt 0.685059 0.836426
vt 0.895020 0.743896
vt 0.888672 0.826416
vt 0.671875 0.751343
vt 0.671875 0.751343
vt 0.724121 0.441895
vt 0.895020 0.743896
vt 0.895020 0.743896
vt 0.724121 0.441895
vt 0.848145 0.447754
vt 0.754395 0.821411
vt 0.598633 0.873413
vt 0.791992 0.987167
vt 0.754395 0.821411
vt 0.572266 0.754761
vt 0.598633 0.873413
vt 0.749512 0.747559
vt 0.572266 0.754761
vt 0.754395 0.821411
vt 0.749512 0.747559
vt 0.766113 0.449219
vt 0.572266 0.754761
vt 0.572266 0.754761
vt 0.766113 0.449219
vt 0.684570 0.428711
vt 0.888672 0.826416
vt 0.749512 0.747559
vt 0.754395 0.821411
vt 0.895020 0.743896
vt 0.749512 0.747559
vt 0.888672 0.826416
vt 0.895020 0.743896
vt 0.848145 0.447754
vt 0.749512 0.747559
vt 0.749512 0.747559
vt 0.848145 0.447754
vt 0.766113 0.449219
vt 0.888672 0.826416
vt 0.754395 0.821411
vt 0.791992 0.987167
vn 0.166341 0.524462 0.835616
vn -0.767123 0.551859 0.328767
vn 0.287671 0.898239 0.332681
vn 0.168297 -0.524462 0.833659
vn 0.943249 0.000000 0.334638
vn 0.289628 -0.898239 0.332681
vn -0.452055 -0.328767 0.827789
vn -0.763209 -0.555773 0.328767
vn -0.455969 0.324853 0.829746
vn 0.000000 0.000000 -1.000000
vn 0.000000 0.000000 -1.000000
vn 0.000000 0.000000 -1.000000
vn -0.452055 -0.328767 0.827789
vn 0.168297 -0.524462 0.833659
vn -0.763209 -0.555773 0.328767
vn -0.763209 -0.555773 0.328767
vn 0.168297 -0.524462 0.833659
vn 0.289628 -0.898239 0.332681
vn -0.810176 0.587084 -0.001957
vn 0.307241 0.951076 -0.011742
vn -0.767123 0.551859 0.328767
vn -0.767123 0.551859 0.328767
vn 0.307241 0.951076 -0.011742
vn 0.287671 0.898239 0.332681
vn 0.287671 0.898239 0.332681
vn 0.307241 0.951076 -0.011742
vn 0.943249 0.000000 0.334638
vn 0.307241 0.951076 -0.011742
vn 1.000000 0.000000 -0.017613
vn 0.943249 0.000000 0.334638
vn 0.943249 0.000000 0.334638
vn 1.000000 0.000000 -0.017613
vn 0.289628 -0.898239 0.332681
vn 1.000000 0.000000 -0.017613
vn 0.307241 -0.951076 -0.011742
vn 0.289628 -0.898239 0.332681
vn 0.545988 0.000000 0.837573
vn 0.168297 -0.524462 0.833659
vn 0.166341 0.524462 0.835616
vn 0.166341 0.524462 0.835616
vn 0.168297 -0.524462 0.833659
vn -0.455969 0.324853 0.829746
vn -0.455969 0.324853 0.829746
vn 0.168297 -0.524462 0.833659
vn -0.452055 -0.328767 0.827789
vn 0.545988 0.000000 0.837573
vn 0.943249 0.000000 0.334638
vn 0.168297 -0.524462 0.833659
vn 0.545988 0.000000 0.837573
vn 0.166341 0.524462 0.835616
vn 0.943249 0.000000 0.334638
vn 0.943249 0.000000 0.334638
vn 0.166341 0.524462 0.835616
vn 0.287671 0.898239 0.332681
vn -0.455969 0.324853 0.829746
vn -0.767123 0.551859 0.328767
vn 0.166341 0.524462 0.835616
vn -0.455969 0.324853 0.829746
vn -0.763209 -0.555773 0.328767
vn -0.767123 0.551859 0.328767
vn -0.808219 -0.589041 -0.001957
vn -0.810176 0.587084 -0.001957
vn -0.767123 0.551859 0.328767
vn -0.763209 -0.555773 0.328767
vn -0.808219 -0.589041 -0.001957
vn -0.767123 0.551859 0.328767
vn 0.307241 -0.951076 -0.011742
vn -0.808219 -0.589041 -0.001957
vn -0.763209 -0.555773 0.328767
vn 0.289628 -0.898239 0.332681
vn 0.307241 -0.951076 -0.011742
vn -0.763209 -0.555773 0.328767
vn 0.000000 0.000000 -1.000000
vn 0.000000 0.000000 -1.000000
vn 0.000000 0.000000 -1.000000
vn 0.000000 0.000000 -1.000000
vn 0.000000 0.000000 -1.000000
vn 0.000000 0.000000 -1.000000
vn 0.000000 0.000000 -1.000000
vn 0.000000 0.000000 -1.000000
vn 0.000000 0.000000 -1.000000
vn 0.000000 0.000000 -1.000000
vn 0.000000 0.000000 -1.000000
vn 0.000000 0.000000 -1.000000
vn 0.000000 0.000000 -1.000000
vn 0.000000 0.000000 -1.000000
vn 0.000000 0.000000 -1.000000
vn 0.000000 0.000000 -1.000000
vn 0.000000 0.000000 -1.000000
vn 0.000000 0.000000 -1.000000
vn 0.000000 0.000000 -1.000000
vn 0.000000 0.000000 -1.000000
vn 0.000000 0.000000 -1.000000
vn 0.000000 0.000000 -1.000000
vn 0.000000 0.000000 -1.000000
vn 0.000000 0.000000 -1.000000
vn 0.000000 0.000000 -1.000000
vn 0.000000 0.000000 -1.000000
vn 0.000000 0.000000 -1.000000
vn 0.941292 -0.305284 0.148728
vn 0.001957 -0.939335 0.342466
vn 0.894325 -0.289628 0.342466
vn 0.001957 -0.988258 0.152642
vn 0.001957 -0.939335 0.342466
vn 0.941292 -0.305284 0.148728
vn 0.001957 -0.988258 0.152642
vn -0.892368 -0.291585 0.342466
vn 0.001957 -0.939335 0.342466
vn -0.939335 -0.307241 0.148728
vn -0.892368 -0.291585 0.342466
vn 0.001957 -0.988258 0.152642
vn -0.939335 -0.307241 0.148728
vn 0.001957 -0.988258 0.152642
vn -0.778865 -0.254403 -0.573386
vn -0.778865 -0.254403 -0.573386
vn 0.001957 -0.988258 0.152642
vn 0.001957 -0.819961 -0.571429
vn -0.778865 -0.254403 -0.573386
vn 0.001957 -0.819961 -0.571429
vn 0.000000 0.001957 -1.000000
vn 0.001957 -0.819961 -0.571429
vn 0.780822 -0.252446 -0.573386
vn 0.000000 0.001957 -1.000000
vn 0.941292 -0.305284 0.148728
vn 0.780822 -0.252446 -0.573386
vn 0.001957 -0.988258 0.152642
vn 0.001957 -0.988258 0.152642
vn 0.780822 -0.252446 -0.573386
vn 0.001957 -0.819961 -0.571429
vn 0.780822 -0.252446 -0.573386
vn 0.479452 0.663405 -0.575342
vn 0.000000 0.001957 -1.000000
vn 0.941292 -0.305284 0.148728
vn 0.479452 0.663405 -0.575342
vn 0.780822 -0.252446 -0.573386
vn 0.581213 0.800391 0.144814
vn 0.479452 0.663405 -0.575342
vn 0.941292 -0.305284 0.148728
vn 0.941292 -0.305284 0.148728
vn 0.894325 -0.289628 0.342466
vn 0.581213 0.800391 0.144814
vn 0.581213 0.800391 0.144814
vn 0.894325 -0.289628 0.342466
vn 0.551859 0.761252 0.342466
vn -0.481409 0.661448 -0.575342
vn -0.778865 -0.254403 -0.573386
vn 0.000000 0.001957 -1.000000
vn -0.481409 0.661448 -0.575342
vn -0.939335 -0.307241 0.148728
vn -0.778865 -0.254403 -0.573386
vn -0.583170 0.800391 0.144814
vn -0.939335 -0.307241 0.148728
vn -0.481409 0.661448 -0.575342
vn -0.583170 0.800391 0.144814
vn -0.553816 0.759295 0.342466
vn -0.939335 -0.307241 0.148728
vn -0.939335 -0.307241 0.148728
vn -0.553816 0.759295 0.342466
vn -0.892368 -0.291585 0.342466
vn 0.479452 0.663405 -0.575342
vn -0.583170 0.800391 0.144814
vn -0.481409 0.661448 -0.575342
vn 0.581213 0.800391 0.144814
vn -0.583170 0.800391 0.144814
vn 0.479452 0.663405 -0.575342
vn 0.581213 0.800391 0.144814
vn 0.551859 0.761252 0.342466
vn -0.583170 0.800391 0.144814
vn -0.583170 0.800391 0.144814
vn 0.551859 0.761252 0.342466
vn -0.553816 0.759295 0.342466
vn 0.479452 0.663405 -0.575342
vn -0.481409 0.661448 -0.575342
vn 0.000000 0.001957 -1.000000
mtllib mtl_utility_lightbulb_bare_off.mtl
g mtl_utility_lightbulb_bare_off
usemtl mtl_utility_lightbulb_bare_off
f 3/3/3 2/2/2 1/1/1
f 6/6/6 5/5/5 4/4/4
f 9/9/9 8/8/8 7/7/7
f 12/12/12 11/11/11 10/10/10
f 15/15/15 14/14/14 13/13/13
f 18/18/18 17/17/17 16/16/16
f 21/21/21 20/20/20 19/19/19
f 24/24/24 23/23/23 22/22/22
f 27/27/27 26/26/26 25/25/25
f 30/30/30 29/29/29 28/28/28
f 33/33/33 32/32/32 31/31/31
f 36/36/36 35/35/35 34/34/34
f 39/39/39 38/38/38 37/37/37
f 42/42/42 41/41/41 40/40/40
f 45/45/45 44/44/44 43/43/43
f 48/48/48 47/47/47 46/46/46
f 51/51/51 50/50/50 49/49/49
f 54/54/54 53/53/53 52/52/52
f 57/57/57 56/56/56 55/55/55
f 60/60/60 59/59/59 58/58/58
f 63/63/63 62/62/62 61/61/61
f 66/66/66 65/65/65 64/64/64
f 69/69/69 68/68/68 67/67/67
f 72/72/72 71/71/71 70/70/70
f 75/75/75 74/74/74 73/73/73
f 78/78/78 77/77/77 76/76/76
f 81/81/81 80/80/80 79/79/79
f 84/84/84 83/83/83 82/82/82
f 87/87/87 86/86/86 85/85/85
f 90/90/90 89/89/89 88/88/88
f 93/93/93 92/92/92 91/91/91
f 96/96/96 95/95/95 94/94/94
f 99/99/99 98/98/98 97/97/97
mtllib mtl_utility_lightbulb_bare_on.mtl
g mtl_utility_lightbulb_bare_on
usemtl mtl_utility_lightbulb_bare_on
f 102/102/102 101/101/101 100/100/100
f 105/105/105 104/104/104 103/103/103
f 108/108/108 107/107/107 106/106/106
f 111/111/111 110/110/110 109/109/109
f 114/114/114 113/113/113 112/112/112
f 117/117/117 116/116/116 115/115/115
f 120/120/120 119/119/119 118/118/118
f 123/123/123 122/122/122 121/121/121
f 126/126/126 125/125/125 124/124/124
f 129/129/129 128/128/128 127/127/127
f 132/132/132 131/131/131 130/130/130
f 135/135/135 134/134/134 133/133/133
f 138/138/138 137/137/137 136/136/136
f 141/141/141 140/140/140 139/139/139
f 144/144/144 143/143/143 142/142/142
f 147/147/147 146/146/146 145/145/145
f 150/150/150 149/149/149 148/148/148
f 153/153/153 152/152/152 151/151/151
f 156/156/156 155/155/155 154/154/154
f 159/159/159 158/158/158 157/157/157
f 162/162/162 161/161/161 160/160/160
f 165/165/165 164/164/164 163/163/163
f 168/168/168 167/167/167 166/166/166
f 171/171/171 170/170/170 169/169/169
f 174/174/174 173/173/173 172/172/172
