# Generated by Wraith - Game extraction tools
# Please credit DTZxPorter for using it!

v -36.960892 -22.169542 0.000000
v 35.786079 -31.037586 1.182487
v 33.086712 -31.580500 0.000000
v -37.598976 -22.147312 5.801561
v -36.863533 -23.753313 2.521435
v -39.336250 -22.169542 1.423982
v -36.863533 -23.753313 2.521435
v -36.960892 -22.169542 0.000000
v -39.336250 -22.169542 1.423982
v 35.786079 -31.037586 1.182487
v -36.960892 -22.169542 0.000000
v -36.863533 -23.753313 2.521435
v 39.336250 -14.662958 -18.170015
v 36.391315 31.266603 -18.170015
v 36.391315 -14.662958 -18.170015
v 36.391315 31.266603 -18.170015
v 39.336250 -14.662958 -18.170015
v 39.336250 31.266603 -18.170015
v -37.598724 29.059286 5.801561
v -36.960892 29.044298 0.000000
v 35.546528 31.159555 4.825947
v -36.960892 29.044298 0.000000
v -37.598724 29.059286 5.801561
v -39.336250 29.044298 1.423982
v 36.349846 -16.450317 -11.581348
v 39.336250 -14.662958 -18.170015
v 36.391315 -14.662958 -18.170015
v 39.336250 -14.662958 -18.170015
v 36.349846 -16.450317 -11.581348
v 39.294785 -16.450317 -10.214376
v 39.294785 -16.450317 -10.214376
v 39.336250 31.266603 -18.170015
v 39.336250 -14.662958 -18.170015
v 39.294785 -16.450317 -10.214376
v 39.336250 31.266603 1.034710
v 39.336250 31.266603 -18.170015
v 35.968918 31.580500 0.000000
v 39.336250 31.266603 -18.170015
v 39.336250 31.266603 1.034710
v 39.336250 31.266603 -18.170015
v 35.968918 31.580500 0.000000
v 36.391315 31.266603 -18.170015
v 36.349846 -16.450317 -11.581348
v 36.935005 -31.037586 -9.240171
v 39.294785 -16.450317 -10.214376
v 35.786079 -31.037586 1.182487
v 39.294785 -16.450317 -10.214376
v 36.935005 -31.037586 -9.240171
v 36.935005 -31.037586 -9.240171
v 33.086712 -31.580500 0.000000
v 35.786079 -31.037586 1.182487
v 33.086712 -31.580500 0.000000
v 36.935005 -31.037586 -9.240171
v 34.040916 -31.037586 -10.214376
v 36.935005 -31.037586 -9.240171
v 36.349846 -16.450317 -11.581348
v 34.040916 -31.037586 -10.214376
v -36.960892 29.044298 0.000000
v -39.336250 -22.169542 1.423982
v -36.960892 -22.169542 0.000000
v -39.336250 -22.169542 1.423982
v -36.960892 29.044298 0.000000
v -39.336250 29.044298 1.423982
v -39.336250 29.044298 1.423982
v -37.598976 -22.147312 5.801561
v -39.336250 -22.169542 1.423982
v -37.598976 -22.147312 5.801561
v -39.336250 29.044298 1.423982
v -37.598724 29.059286 5.801561
v -37.598724 29.059286 5.801561
v 35.548344 -19.030624 4.825947
v -37.598976 -22.147312 5.801561
v 35.548344 -19.030624 4.825947
v 35.786079 -31.037586 1.182487
v -37.598976 -22.147312 5.801561
v -37.598976 -22.147312 5.801561
v 35.786079 -31.037586 1.182487
v -36.863533 -23.753313 2.521435
v 35.548344 -19.030624 4.825947
v -37.598724 29.059286 5.801561
v 35.546528 31.159555 4.825947
v 39.336250 31.266603 1.034710
v 35.548344 -19.030624 4.825947
v 35.546528 31.159555 4.825947
v 35.548344 -19.030624 4.825947
v 39.336250 31.266603 1.034710
v 39.336250 -18.339319 1.034710
v 35.548344 -19.030624 4.825947
v 39.336250 -18.339319 1.034710
v 35.786079 -31.037586 1.182487
v 35.968918 31.580500 0.000000
v 39.336250 31.266603 1.034710
v 35.546528 31.159555 4.825947
v 35.546528 31.159555 4.825947
v -36.960892 29.044298 0.000000
v 35.968918 31.580500 0.000000
v 39.336250 -18.339319 1.034710
v 39.336250 31.266603 1.034710
v 39.294785 -16.450317 -10.214376
v 35.786079 -31.037586 1.182487
v 39.336250 -18.339319 1.034710
v 39.294785 -16.450317 -10.214376
v 36.391315 31.266603 -18.170015
v 36.349846 -16.450317 -11.581348
v 36.391315 -14.662958 -18.170015
v 35.968918 31.580500 0.000000
v 36.349846 -16.450317 -11.581348
v 36.391315 31.266603 -18.170015
v 33.086712 -31.580500 0.000000
v 36.349846 -16.450317 -11.581348
v 35.968918 31.580500 0.000000
v 33.086712 -31.580500 0.000000
v 34.040916 -31.037586 -10.214376
v 36.349846 -16.450317 -11.581348
vt 0.926758 0.450195
vt 0.432617 0.456543
vt 0.449219 0.471680
vt 0.940918 0.413574
vt 0.924316 0.431152
vt 0.943359 0.439941
vt 0.924316 0.431152
vt 0.926758 0.450195
vt 0.943359 0.439941
vt 0.432617 0.456543
vt 0.926758 0.450195
vt 0.924316 0.431152
vt 0.291016 0.342285
vt 0.277588 0.037109
vt 0.277832 0.350098
vt 0.277588 0.037109
vt 0.291016 0.342285
vt 0.297607 0.036133
vt 0.939941 0.055176
vt 0.930176 0.013672
vt 0.446777 0.040039
vt 0.930176 0.013672
vt 0.939941 0.055176
vt 0.946289 0.022949
vt 0.321533 0.372070
vt 0.291016 0.342285
vt 0.277832 0.350098
vt 0.291016 0.342285
vt 0.321533 0.372070
vt 0.341064 0.360352
vt 0.341064 0.360352
vt 0.297607 0.036133
vt 0.291016 0.342285
vt 0.341064 0.360352
vt 0.422607 0.038086
vt 0.297607 0.036133
vt 0.428955 0.012695
vt 0.297607 0.036133
vt 0.422607 0.038086
vt 0.297607 0.036133
vt 0.428955 0.012695
vt 0.299805 0.015137
vt 0.321533 0.372070
vt 0.359863 0.458008
vt 0.341064 0.360352
vt 0.432617 0.456543
vt 0.341064 0.360352
vt 0.359863 0.458008
vt 0.359863 0.458008
vt 0.418457 0.483398
vt 0.432617 0.456543
vt 0.418457 0.483398
vt 0.359863 0.458008
vt 0.347168 0.470215
vt 0.359863 0.458008
vt 0.321533 0.372070
vt 0.347168 0.470215
vt 0.991211 0.059570
vt 0.968750 0.403320
vt 0.987305 0.403320
vt 0.968750 0.403320
vt 0.991211 0.059570
vt 0.972656 0.059082
vt 0.972656 0.059082
vt 0.934082 0.402832
vt 0.968750 0.403320
vt 0.934082 0.402832
vt 0.972656 0.059082
vt 0.939941 0.055176
vt 0.939941 0.055176
vt 0.445068 0.375488
vt 0.934082 0.402832
vt 0.445068 0.375488
vt 0.432617 0.456543
vt 0.934082 0.402832
vt 0.934082 0.402832
vt 0.432617 0.456543
vt 0.924316 0.431152
vt 0.445068 0.375488
vt 0.939941 0.055176
vt 0.446777 0.040039
vt 0.422607 0.038086
vt 0.445068 0.375488
vt 0.446777 0.040039
vt 0.445068 0.375488
vt 0.422607 0.038086
vt 0.414063 0.370605
vt 0.445068 0.375488
vt 0.414063 0.370605
vt 0.432617 0.456543
vt 0.428955 0.012695
vt 0.422607 0.038086
vt 0.446777 0.040039
vt 0.446777 0.040039
vt 0.930176 0.013672
vt 0.428955 0.012695
vt 0.414063 0.370605
vt 0.422607 0.038086
vt 0.341064 0.360352
vt 0.432617 0.456543
vt 0.414063 0.370605
vt 0.341064 0.360352
vt 0.263672 0.018555
vt 0.219238 0.330566
vt 0.262451 0.319336
vt 0.144653 0.015625
vt 0.219238 0.330566
vt 0.263672 0.018555
vt 0.140503 0.430176
vt 0.219238 0.330566
vt 0.144653 0.015625
vt 0.140503 0.430176
vt 0.207764 0.427246
vt 0.219238 0.330566
vn -0.350294 -0.592955 -0.726027
vn 0.528376 -0.661448 0.534247
vn 0.005871 -0.925636 0.377691
vn -0.497065 -0.438356 0.749511
vn -0.287671 -0.956947 -0.037182
vn -0.855186 -0.424658 -0.295499
vn -0.287671 -0.956947 -0.037182
vn -0.350294 -0.592955 -0.726027
vn -0.855186 -0.424658 -0.295499
vn 0.528376 -0.661448 0.534247
vn -0.350294 -0.592955 -0.726027
vn -0.287671 -0.956947 -0.037182
vn 0.594912 -0.493151 -0.634051
vn 0.000000 0.706458 -0.708415
vn 0.000000 -0.608611 -0.792564
vn 0.000000 0.706458 -0.708415
vn 0.594912 -0.493151 -0.634051
vn 0.579256 0.571429 -0.581213
vn -0.454012 0.592955 0.665362
vn -0.281800 0.851272 -0.442270
vn 0.291585 0.608611 0.737769
vn -0.281800 0.851272 -0.442270
vn -0.454012 0.592955 0.665362
vn -0.767123 0.585127 -0.260274
vn 0.277887 -0.708415 -0.649706
vn 0.594912 -0.493151 -0.634051
vn 0.000000 -0.608611 -0.792564
vn 0.594912 -0.493151 -0.634051
vn 0.277887 -0.708415 -0.649706
vn 0.917808 -0.285714 -0.273973
vn 0.917808 -0.285714 -0.273973
vn 0.579256 0.571429 -0.581213
vn 0.594912 -0.493151 -0.634051
vn 0.917808 -0.285714 -0.273973
vn 0.735812 0.604697 0.307241
vn 0.579256 0.571429 -0.581213
vn 0.041096 0.998043 0.052838
vn 0.579256 0.571429 -0.581213
vn 0.735812 0.604697 0.307241
vn 0.579256 0.571429 -0.581213
vn 0.041096 0.998043 0.052838
vn 0.000000 0.706458 -0.708415
vn 0.277887 -0.708415 -0.649706
vn 0.641879 -0.641879 -0.418787
vn 0.917808 -0.285714 -0.273973
vn 0.528376 -0.661448 0.534247
vn 0.917808 -0.285714 -0.273973
vn 0.641879 -0.641879 -0.418787
vn 0.641879 -0.641879 -0.418787
vn 0.005871 -0.925636 0.377691
vn 0.528376 -0.661448 0.534247
vn 0.005871 -0.925636 0.377691
vn 0.641879 -0.641879 -0.418787
vn 0.223092 -0.712329 -0.663405
vn 0.641879 -0.641879 -0.418787
vn 0.277887 -0.708415 -0.649706
vn 0.223092 -0.712329 -0.663405
vn -0.281800 0.851272 -0.442270
vn -0.855186 -0.424658 -0.295499
vn -0.350294 -0.592955 -0.726027
vn -0.855186 -0.424658 -0.295499
vn -0.281800 0.851272 -0.442270
vn -0.767123 0.585127 -0.260274
vn -0.767123 0.585127 -0.260274
vn -0.497065 -0.438356 0.749511
vn -0.855186 -0.424658 -0.295499
vn -0.497065 -0.438356 0.749511
vn -0.767123 0.585127 -0.260274
vn -0.454012 0.592955 0.665362
vn -0.454012 0.592955 0.665362
vn 0.381605 -0.131115 0.915851
vn -0.497065 -0.438356 0.749511
vn 0.381605 -0.131115 0.915851
vn 0.528376 -0.661448 0.534247
vn -0.497065 -0.438356 0.749511
vn -0.497065 -0.438356 0.749511
vn 0.528376 -0.661448 0.534247
vn -0.287671 -0.956947 -0.037182
vn 0.381605 -0.131115 0.915851
vn -0.454012 0.592955 0.665362
vn 0.291585 0.608611 0.737769
vn 0.735812 0.604697 0.307241
vn 0.381605 -0.131115 0.915851
vn 0.291585 0.608611 0.737769
vn 0.381605 -0.131115 0.915851
vn 0.735812 0.604697 0.307241
vn 0.927593 -0.127202 0.350294
vn 0.381605 -0.131115 0.915851
vn 0.927593 -0.127202 0.350294
vn 0.528376 -0.661448 0.534247
vn 0.041096 0.998043 0.052838
vn 0.735812 0.604697 0.307241
vn 0.291585 0.608611 0.737769
vn 0.291585 0.608611 0.737769
vn -0.281800 0.851272 -0.442270
vn 0.041096 0.998043 0.052838
vn 0.927593 -0.127202 0.350294
vn 0.735812 0.604697 0.307241
vn 0.917808 -0.285714 -0.273973
vn 0.528376 -0.661448 0.534247
vn 0.927593 -0.127202 0.350294
vn 0.917808 -0.285714 -0.273973
vn -1.000000 -0.001957 -0.021526
vn -0.990215 0.041096 -0.127202
vn -1.000000 0.000000 -0.005871
vn -0.998043 0.005871 -0.052838
vn -0.990215 0.041096 -0.127202
vn -1.000000 -0.001957 -0.021526
vn -0.984344 0.103718 -0.142857
vn -0.990215 0.041096 -0.127202
vn -0.998043 0.005871 -0.052838
vn -0.984344 0.103718 -0.142857
vn -0.986301 0.148728 -0.084149
vn -0.990215 0.041096 -0.127202
mtllib mtl_p6_pool_lounge_chair_acc.mtl
g mtl_p6_pool_lounge_chair_acc
usemtl mtl_p6_pool_lounge_chair_acc
f 3/3/3 2/2/2 1/1/1
f 6/6/6 5/5/5 4/4/4
f 9/9/9 8/8/8 7/7/7
f 12/12/12 11/11/11 10/10/10
f 15/15/15 14/14/14 13/13/13
f 18/18/18 17/17/17 16/16/16
f 21/21/21 20/20/20 19/19/19
f 24/24/24 23/23/23 22/22/22
f 27/27/27 26/26/26 25/25/25
f 30/30/30 29/29/29 28/28/28
f 33/33/33 32/32/32 31/31/31
f 36/36/36 35/35/35 34/34/34
f 39/39/39 38/38/38 37/37/37
f 42/42/42 41/41/41 40/40/40
f 45/45/45 44/44/44 43/43/43
f 48/48/48 47/47/47 46/46/46
f 51/51/51 50/50/50 49/49/49
f 54/54/54 53/53/53 52/52/52
f 57/57/57 56/56/56 55/55/55
f 60/60/60 59/59/59 58/58/58
f 63/63/63 62/62/62 61/61/61
f 66/66/66 65/65/65 64/64/64
f 69/69/69 68/68/68 67/67/67
f 72/72/72 71/71/71 70/70/70
f 75/75/75 74/74/74 73/73/73
f 78/78/78 77/77/77 76/76/76
f 81/81/81 80/80/80 79/79/79
f 84/84/84 83/83/83 82/82/82
f 87/87/87 86/86/86 85/85/85
f 90/90/90 89/89/89 88/88/88
f 93/93/93 92/92/92 91/91/91
f 96/96/96 95/95/95 94/94/94
f 99/99/99 98/98/98 97/97/97
f 102/102/102 101/101/101 100/100/100
f 105/105/105 104/104/104 103/103/103
f 108/108/108 107/107/107 106/106/106
f 111/111/111 110/110/110 109/109/109
f 114/114/114 113/113/113 112/112/112
