# Generated by Wraith - Game extraction tools
# Please credit DTZxPorter for using it!

v 7.419878 -1.299408 -12.630935
v 1.839320 -1.225875 -16.953022
v 1.839320 -3.315582 -16.454657
v 2.105371 2.149627 1.831421
v -4.629433 1.088898 1.652841
v -4.629433 3.015579 1.193360
v 1.839320 -3.315582 -16.454657
v -4.629433 1.088898 1.652841
v 7.419878 -1.299408 -12.630935
v -4.629433 1.088898 1.652841
v 2.105371 2.149627 1.831421
v 7.419878 -1.299408 -12.630935
v 2.105371 2.149627 1.831421
v -4.629433 3.015579 1.193360
v 7.419878 -1.299408 -12.630935
v -4.629433 3.015579 1.193360
v 1.839320 -1.225875 -16.953022
v 7.419878 -1.299408 -12.630935
v 1.839320 -3.315582 -16.454657
v 1.839320 -1.225875 -16.953022
v -4.629433 1.088898 1.652841
v 1.839320 -1.225875 -16.953022
v -4.629433 3.015579 1.193360
v -4.629433 1.088898 1.652841
vt 0.522461 0.191895
vt 0.624512 0.207031
vt 0.623535 0.176270
vt 0.786621 0.395996
vt 0.792969 0.299805
vt 0.778809 0.299805
vt -0.246094 0.274902
vt -0.235229 0.645752
vt -0.348145 0.317871
vt -0.235229 0.645752
vt -0.336670 0.615723
vt -0.348145 0.317871
vt 0.657715 0.614746
vt 0.765137 0.645508
vt 0.645996 0.318359
vt 0.765137 0.645508
vt 0.754395 0.274414
vt 0.645996 0.318359
vt 0.992676 0.255859
vt 0.992676 0.228516
vt 0.722656 0.255371
vt 0.992676 0.228516
vt 0.722656 0.229980
vt 0.722656 0.255371
vn 0.600783 -0.185910 -0.778865
vn 0.600783 -0.185910 -0.778865
vn 0.600783 -0.185910 -0.778865
vn -0.062622 0.230920 0.970646
vn -0.062622 0.230920 0.970646
vn -0.062622 0.230920 0.970646
vn 0.064579 -0.956947 0.283757
vn 0.090020 -0.964775 0.246575
vn 0.064579 -0.956947 0.283757
vn 0.090020 -0.964775 0.246575
vn 0.090020 -0.964775 0.246575
vn 0.064579 -0.956947 0.283757
vn 0.090020 0.972603 -0.215264
vn 0.090020 0.972603 -0.215264
vn 0.064579 0.982387 -0.178082
vn 0.090020 0.972603 -0.215264
vn 0.064579 0.982387 -0.178082
vn 0.064579 0.982387 -0.178082
vn -0.890411 -0.105675 -0.442270
vn -0.890411 -0.105675 -0.442270
vn -0.978474 -0.048924 -0.201566
vn -0.890411 -0.105675 -0.442270
vn -0.978474 -0.048924 -0.201566
vn -0.978474 -0.048924 -0.201566
mtllib mtl_t6_wpn_ar_an94_camo2.mtl
g mtl_t6_wpn_ar_an94_camo2
usemtl mtl_t6_wpn_ar_an94_camo2
f 3/3/3 2/2/2 1/1/1
f 6/6/6 5/5/5 4/4/4
f 9/9/9 8/8/8 7/7/7
f 12/12/12 11/11/11 10/10/10
f 15/15/15 14/14/14 13/13/13
f 18/18/18 17/17/17 16/16/16
f 21/21/21 20/20/20 19/19/19
f 24/24/24 23/23/23 22/22/22
