# Generated by Wraith - Game extraction tools
# Please credit DTZxPorter for using it!

v 3.617785 -5.752513 -0.164104
v 4.910617 -11.016262 1.181336
v 6.018006 -10.440829 1.479037
v -3.293836 12.654533 1.398727
v -2.566236 12.564339 1.398087
v -3.062574 12.728438 1.897095
v -3.495266 9.359837 1.614922
v -3.062574 12.728438 1.897095
v -3.021848 9.541447 2.608237
v -3.062574 12.728438 1.897095
v -3.495266 9.359837 1.614922
v -3.293836 12.654533 1.398727
v -3.495266 9.359837 1.614922
v -2.566236 12.564339 1.398087
v -3.293836 12.654533 1.398727
v -2.566236 12.564339 1.398087
v -3.495266 9.359837 1.614922
v -2.124860 9.246826 1.028090
v -3.966825 5.545292 0.554314
v -2.124860 9.246826 1.028090
v -3.495266 9.359837 1.614922
v -2.124860 9.246826 1.028090
v -3.966825 5.545292 0.554314
v -0.974438 6.007648 -0.167416
v -2.494839 -0.438937 0.745902
v -0.974438 6.007648 -0.167416
v -3.966825 5.545292 0.554314
v -0.974438 6.007648 -0.167416
v -2.494839 -0.438937 0.745902
v 0.192126 -0.000269 -0.038918
v -2.494839 -0.438937 0.745902
v 3.617785 -5.752513 -0.164104
v 0.192126 -0.000269 -0.038918
v 3.617785 -5.752513 -0.164104
v -2.494839 -0.438937 0.745902
v 0.380068 -6.371135 0.783905
v 4.910617 -11.016262 1.181336
v 3.617785 -5.752513 -0.164104
v 0.380068 -6.371135 0.783905
v -3.495266 9.359837 1.614922
v -4.594479 5.390942 3.550336
v -3.966825 5.545292 0.554314
v -3.344205 -0.611965 4.051907
v -3.966825 5.545292 0.554314
v -4.594479 5.390942 3.550336
v -3.966825 5.545292 0.554314
v -3.344205 -0.611965 4.051907
v -2.494839 -0.438937 0.745902
v -0.402646 -6.516748 3.729558
v -2.494839 -0.438937 0.745902
v -3.344205 -0.611965 4.051907
v -2.494839 -0.438937 0.745902
v -0.402646 -6.516748 3.729558
v 0.380068 -6.371135 0.783905
v -0.402646 -6.516748 3.729558
v 4.910617 -11.016262 1.181336
v 0.380068 -6.371135 0.783905
v 4.910617 -11.016262 1.181336
v -0.402646 -6.516748 3.729558
v 4.634646 -11.097864 2.225924
v 4.634646 -11.097864 2.225924
v 6.018006 -10.440829 1.479037
v 4.910617 -11.016262 1.181336
v 6.018006 -10.440829 1.479037
v 4.634646 -11.097864 2.225924
v 5.584977 -10.751134 2.603424
v -4.594479 5.390942 3.550336
v -3.495266 9.359837 1.614922
v -3.021848 9.541447 2.608237
v -3.021848 9.541447 2.608237
v -1.952191 6.317155 4.782350
v -4.594479 5.390942 3.550336
v -1.952191 6.317155 4.782350
v -3.344205 -0.611965 4.051907
v -4.594479 5.390942 3.550336
v -3.344205 -0.611965 4.051907
v -1.952191 6.317155 4.782350
v -0.280896 0.446255 5.675236
v 2.366244 -5.701556 5.152047
v -3.344205 -0.611965 4.051907
v -0.280896 0.446255 5.675236
v -3.344205 -0.611965 4.051907
v 2.366244 -5.701556 5.152047
v -0.402646 -6.516748 3.729558
v 5.584977 -10.751134 2.603424
v -0.402646 -6.516748 3.729558
v 2.366244 -5.701556 5.152047
v -0.402646 -6.516748 3.729558
v 5.584977 -10.751134 2.603424
v 4.634646 -11.097864 2.225924
v -3.021848 9.541447 2.608237
v 0.446169 6.555943 2.815077
v -1.952191 6.317155 4.782350
v 2.080415 0.652148 3.526358
v -1.952191 6.317155 4.782350
v 0.446169 6.555943 2.815077
v -1.952191 6.317155 4.782350
v 2.080415 0.652148 3.526358
v -0.280896 0.446255 5.675236
v 2.080415 0.652148 3.526358
v 2.366244 -5.701556 5.152047
v -0.280896 0.446255 5.675236
v 2.366244 -5.701556 5.152047
v 2.080415 0.652148 3.526358
v 5.023043 -5.210162 2.744937
v 5.023043 -5.210162 2.744937
v 5.584977 -10.751134 2.603424
v 2.366244 -5.701556 5.152047
v 0.446169 6.555943 2.815077
v -3.021848 9.541447 2.608237
v -1.685971 9.415194 1.948970
v -2.124860 9.246826 1.028090
v 0.446169 6.555943 2.815077
v -1.685971 9.415194 1.948970
v 0.446169 6.555943 2.815077
v -2.124860 9.246826 1.028090
v -0.974438 6.007648 -0.167416
v -0.974438 6.007648 -0.167416
v 2.080415 0.652148 3.526358
v 0.446169 6.555943 2.815077
v 2.080415 0.652148 3.526358
v -0.974438 6.007648 -0.167416
v 0.192126 -0.000269 -0.038918
v 3.617785 -5.752513 -0.164104
v 2.080415 0.652148 3.526358
v 0.192126 -0.000269 -0.038918
v 2.080415 0.652148 3.526358
v 3.617785 -5.752513 -0.164104
v 5.023043 -5.210162 2.744937
v 6.018006 -10.440829 1.479037
v 5.023043 -5.210162 2.744937
v 3.617785 -5.752513 -0.164104
v 5.584977 -10.751134 2.603424
v 5.023043 -5.210162 2.744937
v 6.018006 -10.440829 1.479037
v -3.062574 12.728438 1.897095
v -1.685971 9.415194 1.948970
v -3.021848 9.541447 2.608237
v -1.685971 9.415194 1.948970
v -3.062574 12.728438 1.897095
v -2.566236 12.564339 1.398087
v -1.685971 9.415194 1.948970
v -2.566236 12.564339 1.398087
v -2.124860 9.246826 1.028090
vt 0.977051 0.672119
vt 0.910645 0.632080
vt 0.902344 0.623047
vt 0.877441 0.957306
vt 0.877441 0.974777
vt 0.895020 0.962555
vt 0.916992 0.895996
vt 0.865234 0.968079
vt 0.889160 0.889893
vt 0.865234 0.968079
vt 0.916992 0.895996
vt 0.894043 0.977142
vt 0.916992 0.895996
vt 0.931641 0.979385
vt 0.894043 0.977142
vt 0.931641 0.979385
vt 0.916992 0.895996
vt 0.950195 0.903931
vt 0.944824 0.853149
vt 0.950195 0.903931
vt 0.916992 0.895996
vt 0.950195 0.903931
vt 0.944824 0.853149
vt 0.982422 0.864136
vt 0.960938 0.779541
vt 0.982422 0.864136
vt 0.944824 0.853149
vt 0.982422 0.864136
vt 0.960938 0.779541
vt 0.996582 0.771973
vt 0.960938 0.779541
vt 0.977051 0.672119
vt 0.996582 0.771973
vt 0.977051 0.672119
vt 0.960938 0.779541
vt 0.947266 0.701172
vt 0.910645 0.632080
vt 0.977051 0.672119
vt 0.947266 0.701172
vt 0.916992 0.895996
vt 0.913574 0.843140
vt 0.944824 0.853149
vt 0.921875 0.778320
vt 0.944824 0.853149
vt 0.913574 0.843140
vt 0.944824 0.853149
vt 0.921875 0.778320
vt 0.960938 0.779541
vt 0.919434 0.712891
vt 0.960938 0.779541
vt 0.921875 0.778320
vt 0.960938 0.779541
vt 0.919434 0.712891
vt 0.947266 0.701172
vt 0.919434 0.712891
vt 0.910645 0.632080
vt 0.947266 0.701172
vt 0.910645 0.632080
vt 0.919434 0.712891
vt 0.907227 0.636963
vt 0.907227 0.636963
vt 0.902344 0.623047
vt 0.910645 0.632080
vt 0.902344 0.623047
vt 0.907227 0.636963
vt 0.902344 0.632568
vt 0.913574 0.843140
vt 0.916992 0.895996
vt 0.889160 0.889893
vt 0.889160 0.889893
vt 0.881836 0.844238
vt 0.913574 0.843140
vt 0.881836 0.844238
vt 0.921875 0.778320
vt 0.913574 0.843140
vt 0.921875 0.778320
vt 0.881836 0.844238
vt 0.883789 0.775024
vt 0.891113 0.703857
vt 0.921875 0.778320
vt 0.883789 0.775024
vt 0.921875 0.778320
vt 0.891113 0.703857
vt 0.919434 0.712891
vt 0.902344 0.632568
vt 0.919434 0.712891
vt 0.891113 0.703857
vt 0.919434 0.712891
vt 0.902344 0.632568
vt 0.907227 0.636963
vt 0.889160 0.889893
vt 0.847168 0.843262
vt 0.881836 0.844238
vt 0.848633 0.765015
vt 0.881836 0.844238
vt 0.847168 0.843262
vt 0.881836 0.844238
vt 0.848633 0.765015
vt 0.883789 0.775024
vt 0.848633 0.765015
vt 0.891113 0.703857
vt 0.883789 0.775024
vt 0.891113 0.703857
vt 0.848633 0.765015
vt 0.860840 0.684814
vt 0.860840 0.684814
vt 0.902344 0.632568
vt 0.891113 0.703857
vt 0.847168 0.843262
vt 0.889160 0.889893
vt 0.854980 0.887024
vt 0.831055 0.889771
vt 0.847168 0.843262
vt 0.854980 0.887024
vt 0.847168 0.843262
vt 0.831055 0.889771
vt 0.804688 0.848389
vt 0.804688 0.848389
vt 0.848633 0.765015
vt 0.847168 0.843262
vt 0.848633 0.765015
vt 0.804688 0.848389
vt 0.795898 0.759644
vt 0.825684 0.665527
vt 0.848633 0.765015
vt 0.795898 0.759644
vt 0.848633 0.765015
vt 0.825684 0.665527
vt 0.860840 0.684814
vt 0.902344 0.623047
vt 0.860840 0.684814
vt 0.825684 0.665527
vt 0.902344 0.632568
vt 0.860840 0.684814
vt 0.902344 0.623047
vt 0.865234 0.968079
vt 0.854980 0.887024
vt 0.889160 0.889893
vt 0.854980 0.887024
vt 0.865234 0.968079
vt 0.841309 0.966248
vt 0.854980 0.887024
vt 0.841309 0.966248
vt 0.831055 0.889771
vn 0.354207 0.084149 -0.931507
vn -0.225049 -0.747554 -0.624266
vn 0.833659 -0.459883 -0.305284
vn 0.121331 0.972603 -0.199609
vn 0.121331 0.972603 -0.199609
vn 0.121331 0.972603 -0.199609
vn -0.902153 0.207436 -0.377691
vn -0.258317 0.270059 0.927593
vn -0.205479 0.487280 0.849315
vn -0.258317 0.270059 0.927593
vn -0.902153 0.207436 -0.377691
vn -0.841487 0.015656 -0.540117
vn -0.902153 0.207436 -0.377691
vn 0.553816 0.213307 -0.804305
vn -0.841487 0.015656 -0.540117
vn 0.553816 0.213307 -0.804305
vn -0.902153 0.207436 -0.377691
vn 0.307241 0.354207 -0.882583
vn -0.729941 0.035225 -0.681018
vn 0.307241 0.354207 -0.882583
vn -0.902153 0.207436 -0.377691
vn 0.307241 0.354207 -0.882583
vn -0.729941 0.035225 -0.681018
vn 0.375734 0.187867 -0.908023
vn -0.606654 -0.246575 -0.755382
vn 0.375734 0.187867 -0.908023
vn -0.729941 0.035225 -0.681018
vn 0.375734 0.187867 -0.908023
vn -0.606654 -0.246575 -0.755382
vn 0.348337 0.131115 -0.927593
vn -0.606654 -0.246575 -0.755382
vn 0.354207 0.084149 -0.931507
vn 0.348337 0.131115 -0.927593
vn 0.354207 0.084149 -0.931507
vn -0.606654 -0.246575 -0.755382
vn -0.585127 -0.442270 -0.679061
vn -0.225049 -0.747554 -0.624266
vn 0.354207 0.084149 -0.931507
vn -0.585127 -0.442270 -0.679061
vn -0.902153 0.207436 -0.377691
vn -0.900196 0.174168 0.397260
vn -0.729941 0.035225 -0.681018
vn -0.812133 -0.252446 0.524462
vn -0.729941 0.035225 -0.681018
vn -0.900196 0.174168 0.397260
vn -0.729941 0.035225 -0.681018
vn -0.812133 -0.252446 0.524462
vn -0.606654 -0.246575 -0.755382
vn -0.714286 -0.636008 0.291585
vn -0.606654 -0.246575 -0.755382
vn -0.812133 -0.252446 0.524462
vn -0.606654 -0.246575 -0.755382
vn -0.714286 -0.636008 0.291585
vn -0.585127 -0.442270 -0.679061
vn -0.714286 -0.636008 0.291585
vn -0.225049 -0.747554 -0.624266
vn -0.585127 -0.442270 -0.679061
vn -0.225049 -0.747554 -0.624266
vn -0.714286 -0.636008 0.291585
vn -0.011742 -0.982387 0.187867
vn -0.011742 -0.982387 0.187867
vn 0.833659 -0.459883 -0.305284
vn -0.225049 -0.747554 -0.624266
vn 0.833659 -0.459883 -0.305284
vn -0.011742 -0.982387 0.187867
vn 0.432485 -0.506849 0.745597
vn -0.900196 0.174168 0.397260
vn -0.902153 0.207436 -0.377691
vn -0.205479 0.487280 0.849315
vn -0.205479 0.487280 0.849315
vn 0.064579 0.303327 0.951076
vn -0.900196 0.174168 0.397260
vn 0.064579 0.303327 0.951076
vn -0.812133 -0.252446 0.524462
vn -0.900196 0.174168 0.397260
vn -0.812133 -0.252446 0.524462
vn 0.064579 0.303327 0.951076
vn 0.129159 0.080235 0.988258
vn 0.187867 -0.113503 0.974560
vn -0.812133 -0.252446 0.524462
vn 0.129159 0.080235 0.988258
vn -0.812133 -0.252446 0.524462
vn 0.187867 -0.113503 0.974560
vn -0.714286 -0.636008 0.291585
vn 0.432485 -0.506849 0.745597
vn -0.714286 -0.636008 0.291585
vn 0.187867 -0.113503 0.974560
vn -0.714286 -0.636008 0.291585
vn 0.432485 -0.506849 0.745597
vn -0.011742 -0.982387 0.187867
vn -0.205479 0.487280 0.849315
vn 0.833659 0.524462 0.170254
vn 0.064579 0.303327 0.951076
vn 0.917808 0.356164 0.172211
vn 0.064579 0.303327 0.951076
vn 0.833659 0.524462 0.170254
vn 0.064579 0.303327 0.951076
vn 0.917808 0.356164 0.172211
vn 0.129159 0.080235 0.988258
vn 0.917808 0.356164 0.172211
vn 0.187867 -0.113503 0.974560
vn 0.129159 0.080235 0.988258
vn 0.187867 -0.113503 0.974560
vn 0.917808 0.356164 0.172211
vn 0.937378 0.262231 0.232877
vn 0.937378 0.262231 0.232877
vn 0.432485 -0.506849 0.745597
vn 0.187867 -0.113503 0.974560
vn 0.833659 0.524462 0.170254
vn -0.205479 0.487280 0.849315
vn 0.837573 0.426614 0.342466
vn 0.307241 0.354207 -0.882583
vn 0.833659 0.524462 0.170254
vn 0.837573 0.426614 0.342466
vn 0.833659 0.524462 0.170254
vn 0.307241 0.354207 -0.882583
vn 0.375734 0.187867 -0.908023
vn 0.375734 0.187867 -0.908023
vn 0.917808 0.356164 0.172211
vn 0.833659 0.524462 0.170254
vn 0.917808 0.356164 0.172211
vn 0.375734 0.187867 -0.908023
vn 0.348337 0.131115 -0.927593
vn 0.354207 0.084149 -0.931507
vn 0.917808 0.356164 0.172211
vn 0.348337 0.131115 -0.927593
vn 0.917808 0.356164 0.172211
vn 0.354207 0.084149 -0.931507
vn 0.937378 0.262231 0.232877
vn 0.833659 -0.459883 -0.305284
vn 0.937378 0.262231 0.232877
vn 0.354207 0.084149 -0.931507
vn 0.432485 -0.506849 0.745597
vn 0.937378 0.262231 0.232877
vn 0.833659 -0.459883 -0.305284
vn -0.258317 0.270059 0.927593
vn 0.837573 0.426614 0.342466
vn -0.205479 0.487280 0.849315
vn 0.837573 0.426614 0.342466
vn -0.258317 0.270059 0.927593
vn 0.553816 0.213307 -0.804305
vn 0.837573 0.426614 0.342466
vn 0.553816 0.213307 -0.804305
vn 0.307241 0.354207 -0.882583
mtllib mtl_p_jun_fruit_bananas.mtl
g mtl_p_jun_fruit_bananas
usemtl mtl_p_jun_fruit_bananas
f 3/3/3 2/2/2 1/1/1
f 6/6/6 5/5/5 4/4/4
f 9/9/9 8/8/8 7/7/7
f 12/12/12 11/11/11 10/10/10
f 15/15/15 14/14/14 13/13/13
f 18/18/18 17/17/17 16/16/16
f 21/21/21 20/20/20 19/19/19
f 24/24/24 23/23/23 22/22/22
f 27/27/27 26/26/26 25/25/25
f 30/30/30 29/29/29 28/28/28
f 33/33/33 32/32/32 31/31/31
f 36/36/36 35/35/35 34/34/34
f 39/39/39 38/38/38 37/37/37
f 42/42/42 41/41/41 40/40/40
f 45/45/45 44/44/44 43/43/43
f 48/48/48 47/47/47 46/46/46
f 51/51/51 50/50/50 49/49/49
f 54/54/54 53/53/53 52/52/52
f 57/57/57 56/56/56 55/55/55
f 60/60/60 59/59/59 58/58/58
f 63/63/63 62/62/62 61/61/61
f 66/66/66 65/65/65 64/64/64
f 69/69/69 68/68/68 67/67/67
f 72/72/72 71/71/71 70/70/70
f 75/75/75 74/74/74 73/73/73
f 78/78/78 77/77/77 76/76/76
f 81/81/81 80/80/80 79/79/79
f 84/84/84 83/83/83 82/82/82
f 87/87/87 86/86/86 85/85/85
f 90/90/90 89/89/89 88/88/88
f 93/93/93 92/92/92 91/91/91
f 96/96/96 95/95/95 94/94/94
f 99/99/99 98/98/98 97/97/97
f 102/102/102 101/101/101 100/100/100
f 105/105/105 104/104/104 103/103/103
f 108/108/108 107/107/107 106/106/106
f 111/111/111 110/110/110 109/109/109
f 114/114/114 113/113/113 112/112/112
f 117/117/117 116/116/116 115/115/115
f 120/120/120 119/119/119 118/118/118
f 123/123/123 122/122/122 121/121/121
f 126/126/126 125/125/125 124/124/124
f 129/129/129 128/128/128 127/127/127
f 132/132/132 131/131/131 130/130/130
f 135/135/135 134/134/134 133/133/133
f 138/138/138 137/137/137 136/136/136
f 141/141/141 140/140/140 139/139/139
f 144/144/144 143/143/143 142/142/142
