# Generated by Wraith - Game extraction tools
# Please credit DTZxPorter for using it!

v -6.924396 12.691682 0.776453
v 1.214709 -13.178966 0.776453
v -0.106456 14.836656 0.776453
v 1.214709 -13.178966 0.776453
v 8.032645 -11.033988 0.776453
v -0.106456 14.836656 0.776453
v 8.032645 -11.033988 0.776453
v 4.623676 -12.106478 6.688554
v -0.106456 14.836656 0.776453
v 4.623676 -12.106478 6.688554
v -3.515426 13.764168 6.688554
v -0.106456 14.836656 0.776453
v -6.924396 12.691682 0.776453
v -3.515426 13.764168 6.688554
v 1.214709 -13.178966 0.776453
v -3.515426 13.764168 6.688554
v 4.623676 -12.106478 6.688554
v 1.214709 -13.178966 0.776453
vt 0.375000 0.750000
vt 0.375000 1.000000
vt 0.625000 0.750000
vt 0.375000 1.000000
vt 0.625000 1.000000
vt 0.625000 0.750000
vt 0.625000 0.000000
vt 0.500000 0.250000
vt 0.875000 0.000000
vt 0.500000 0.250000
vt 0.875000 0.250000
vt 0.875000 0.000000
vt 0.125000 0.000000
vt 0.125000 0.250000
vt 0.375000 0.000000
vt 0.125000 0.250000
vt 0.500000 0.250000
vt 0.375000 0.000000
vn 0.000000 0.000000 -1.000000
vn 0.000000 0.000000 -1.000000
vn 0.000000 0.000000 -1.000000
vn 0.000000 0.000000 -1.000000
vn 0.000000 0.000000 -1.000000
vn 0.000000 0.000000 -1.000000
vn 0.816047 0.256360 0.516634
vn 0.816047 0.256360 0.516634
vn 0.816047 0.256360 0.516634
vn 0.816047 0.256360 0.516634
vn 0.816047 0.256360 0.516634
vn 0.816047 0.256360 0.516634
vn -0.816047 -0.256360 0.516634
vn -0.816047 -0.256360 0.516634
vn -0.816047 -0.256360 0.516634
vn -0.816047 -0.256360 0.516634
vn -0.816047 -0.256360 0.516634
vn -0.816047 -0.256360 0.516634
mtllib mtl_p_jun_fruit_bananas.mtl
g mtl_p_jun_fruit_bananas
usemtl mtl_p_jun_fruit_bananas
f 3/3/3 2/2/2 1/1/1
f 6/6/6 5/5/5 4/4/4
f 9/9/9 8/8/8 7/7/7
f 12/12/12 11/11/11 10/10/10
f 15/15/15 14/14/14 13/13/13
f 18/18/18 17/17/17 16/16/16
