# Generated by Wraith - Game extraction tools
# Please credit DTZxPorter for using it!

v 0.584670 50.771374 16.940546
v 44.318970 25.521360 16.940546
v 44.617805 25.760086 277.285919
v 0.000005 51.520184 277.285919
v 0.584670 50.771374 16.940546
v 44.617805 25.760086 277.285919
v 0.584670 50.771374 16.940546
v 0.000005 51.520184 277.285919
v -43.149643 25.521370 16.940546
v 0.000005 51.520184 277.285919
v -44.617805 25.760092 277.285919
v -43.149643 25.521370 16.940546
v -43.149643 -24.978638 16.940546
v -43.149643 25.521370 16.940546
v -44.617805 25.760092 277.285919
v -44.617805 -25.760086 277.285919
v -43.149643 -24.978638 16.940546
v -44.617805 25.760092 277.285919
v -44.617805 -25.760086 277.285919
v 0.000000 -51.520184 277.285919
v -43.149643 -24.978638 16.940546
v 0.000000 -51.520184 277.285919
v 0.584665 -50.228645 16.940559
v -43.149643 -24.978638 16.940546
v 0.000000 -51.520184 277.285919
v 44.617805 -25.760094 277.285919
v 0.584665 -50.228645 16.940559
v 44.617805 -25.760094 277.285919
v 44.318970 -24.978645 16.940546
v 0.584665 -50.228645 16.940559
v 44.318970 25.521360 16.940546
v 44.318970 -24.978645 16.940546
v 44.617805 -25.760094 277.285919
v 44.617805 25.760086 277.285919
v 44.318970 25.521360 16.940546
v 44.617805 -25.760094 277.285919
v -44.617805 25.760092 277.285919
v 0.000005 51.520184 277.285919
v -44.617805 -25.760086 277.285919
v -44.617805 -25.760086 277.285919
v 0.000005 51.520184 277.285919
v 0.000000 -51.520184 277.285919
v 0.000000 -51.520184 277.285919
v 0.000005 51.520184 277.285919
v 44.617805 -25.760094 277.285919
v 44.617805 -25.760094 277.285919
v 0.000005 51.520184 277.285919
v 44.617805 25.760086 277.285919
vt 0.175415 1.314941
vt -0.330566 1.314941
vt -0.330566 2.836914
vt 0.175415 2.836914
vt 0.175415 1.314941
vt -0.330566 2.836914
vt 0.175415 1.314941
vt 0.175415 2.836914
vt 0.681152 1.314941
vt 0.175415 2.836914
vt 0.681152 2.836914
vt 0.681152 1.314941
vt 1.187500 1.314941
vt 0.681152 1.314941
vt 0.681152 2.836914
vt 1.187500 2.836914
vt 1.187500 1.314941
vt 0.681152 2.836914
vt 1.187500 2.836914
vt 1.693359 2.836914
vt 1.187500 1.314941
vt 1.693359 2.836914
vt 1.693359 1.314941
vt 1.187500 1.314941
vt 1.693359 2.836914
vt 2.199219 2.836914
vt 1.693359 1.314941
vt 2.199219 2.836914
vt 2.199219 1.314941
vt 1.693359 1.314941
vt 2.705078 1.314941
vt 2.199219 1.314941
vt 2.199219 2.836914
vt 2.705078 2.836914
vt 2.705078 1.314941
vt 2.199219 2.836914
vt 2.000000 2.748047
vt 2.431641 2.997070
vt 2.000000 2.250977
vt 2.000000 2.250977
vt 2.431641 2.997070
vt 2.431641 2.001953
vt 2.431641 2.001953
vt 2.431641 2.997070
vt 2.863281 2.250977
vt 2.863281 2.250977
vt 2.431641 2.997070
vt 2.863281 2.748047
vn 0.000000 1.000000 0.031311
vn 0.864971 0.499022 0.031311
vn 0.784736 0.452055 0.424658
vn 0.000000 0.906067 0.424658
vn 0.000000 1.000000 0.031311
vn 0.784736 0.452055 0.424658
vn 0.000000 1.000000 0.031311
vn 0.000000 0.906067 0.424658
vn -0.864971 0.499022 0.031311
vn 0.000000 0.906067 0.424658
vn -0.784736 0.452055 0.424658
vn -0.864971 0.499022 0.031311
vn -0.864971 -0.499022 0.031311
vn -0.864971 0.499022 0.031311
vn -0.784736 0.452055 0.424658
vn -0.784736 -0.452055 0.424658
vn -0.864971 -0.499022 0.031311
vn -0.784736 0.452055 0.424658
vn -0.784736 -0.452055 0.424658
vn 0.000000 -0.906067 0.424658
vn -0.864971 -0.499022 0.031311
vn 0.000000 -0.906067 0.424658
vn 0.000000 -1.000000 0.031311
vn -0.864971 -0.499022 0.031311
vn 0.000000 -0.906067 0.424658
vn 0.784736 -0.452055 0.424658
vn 0.000000 -1.000000 0.031311
vn 0.784736 -0.452055 0.424658
vn 0.864971 -0.499022 0.031311
vn 0.000000 -1.000000 0.031311
vn 0.864971 0.499022 0.031311
vn 0.864971 -0.499022 0.031311
vn 0.784736 -0.452055 0.424658
vn 0.784736 0.452055 0.424658
vn 0.864971 0.499022 0.031311
vn 0.784736 -0.452055 0.424658
vn 0.000000 0.000000 1.000000
vn 0.000000 0.000000 1.000000
vn 0.000000 0.000000 1.000000
vn 0.000000 0.000000 1.000000
vn 0.000000 0.000000 1.000000
vn 0.000000 0.000000 1.000000
vn 0.000000 0.000000 1.000000
vn 0.000000 0.000000 1.000000
vn 0.000000 0.000000 1.000000
vn 0.000000 0.000000 1.000000
vn 0.000000 0.000000 1.000000
vn 0.000000 0.000000 1.000000
mtllib mtl_p6_foliage_hedge2.mtl
g mtl_p6_foliage_hedge2
usemtl mtl_p6_foliage_hedge2
f 3/3/3 2/2/2 1/1/1
f 6/6/6 5/5/5 4/4/4
f 9/9/9 8/8/8 7/7/7
f 12/12/12 11/11/11 10/10/10
f 15/15/15 14/14/14 13/13/13
f 18/18/18 17/17/17 16/16/16
f 21/21/21 20/20/20 19/19/19
f 24/24/24 23/23/23 22/22/22
f 27/27/27 26/26/26 25/25/25
f 30/30/30 29/29/29 28/28/28
f 33/33/33 32/32/32 31/31/31
f 36/36/36 35/35/35 34/34/34
f 39/39/39 38/38/38 37/37/37
f 42/42/42 41/41/41 40/40/40
f 45/45/45 44/44/44 43/43/43
f 48/48/48 47/47/47 46/46/46
