# Generated by Wraith - Game extraction tools
# Please credit DTZxPorter for using it!

v 1.270000 1.270000 -1.270000
v 0.000000 1.270000 -1.270000
v 1.270000 -1.270000 -1.270000
v 0.000000 1.270000 -1.270000
v 0.000000 -1.270000 -1.270000
v 1.270000 -1.270000 -1.270000
v 0.000000 1.270000 1.270000
v 1.270000 1.270000 1.270000
v 0.000000 -1.270000 1.270000
v 1.270000 1.270000 1.270000
v 1.270000 -1.270000 1.270000
v 0.000000 -1.270000 1.270000
v 1.270000 -1.270000 1.270000
v 1.270000 -1.270000 -1.270000
v 0.000000 -1.270000 1.270000
v 1.270000 -1.270000 -1.270000
v 0.000000 -1.270000 -1.270000
v 0.000000 -1.270000 1.270000
v 1.270000 1.270000 -1.270000
v 1.270000 -1.270000 -1.270000
v 1.270000 1.270000 1.270000
v 1.270000 -1.270000 -1.270000
v 1.270000 -1.270000 1.270000
v 1.270000 1.270000 1.270000
v 1.270000 1.270000 -1.270000
v 1.270000 1.270000 1.270000
v 0.000000 1.270000 -1.270000
v 1.270000 1.270000 1.270000
v 0.000000 1.270000 1.270000
v 0.000000 1.270000 -1.270000
vt 0.880371 0.428711
vt 0.880371 0.354004
vt 0.729980 0.428711
vt 0.880371 0.354004
vt 0.729980 0.354004
vt 0.729980 0.428711
vt 0.880371 0.667725
vt 0.880371 0.592773
vt 0.729980 0.667725
vt 0.880371 0.592773
vt 0.729980 0.592773
vt 0.729980 0.667725
vt 0.723633 0.585938
vt 0.723633 0.435059
vt 0.648438 0.585938
vt 0.723633 0.435059
vt 0.648438 0.435059
vt 0.648438 0.585938
vt 0.880371 0.435059
vt 0.729980 0.435059
vt 0.880371 0.585938
vt 0.729980 0.435059
vt 0.729980 0.585938
vt 0.880371 0.585938
vt 0.885742 0.435059
vt 0.885742 0.585938
vt 0.960449 0.435059
vt 0.885742 0.585938
vt 0.960449 0.585938
vt 0.960449 0.435059
vn 0.000000 0.000000 -1.000000
vn 0.000000 0.000000 -1.000000
vn 0.000000 0.000000 -1.000000
vn 0.000000 0.000000 -1.000000
vn 0.000000 0.000000 -1.000000
vn 0.000000 0.000000 -1.000000
vn 0.000000 0.000000 1.000000
vn 0.000000 0.000000 1.000000
vn 0.000000 0.000000 1.000000
vn 0.000000 0.000000 1.000000
vn 0.000000 0.000000 1.000000
vn 0.000000 0.000000 1.000000
vn 0.000000 -1.000000 0.000000
vn 0.000000 -1.000000 0.000000
vn 0.000000 -1.000000 0.000000
vn 0.000000 -1.000000 0.000000
vn 0.000000 -1.000000 0.000000
vn 0.000000 -1.000000 0.000000
vn 1.000000 0.000000 0.000000
vn 1.000000 0.000000 0.000000
vn 1.000000 0.000000 0.000000
vn 1.000000 0.000000 0.000000
vn 1.000000 0.000000 0.000000
vn 1.000000 0.000000 0.000000
vn 0.000000 1.000000 0.000000
vn 0.000000 1.000000 0.000000
vn 0.000000 1.000000 0.000000
vn 0.000000 1.000000 0.000000
vn 0.000000 1.000000 0.000000
vn 0.000000 1.000000 0.000000
mtllib mtl_nt_2020_buttons.mtl
g mtl_nt_2020_buttons
usemtl mtl_nt_2020_buttons
f 3/3/3 2/2/2 1/1/1
f 6/6/6 5/5/5 4/4/4
f 9/9/9 8/8/8 7/7/7
f 12/12/12 11/11/11 10/10/10
f 15/15/15 14/14/14 13/13/13
f 18/18/18 17/17/17 16/16/16
f 21/21/21 20/20/20 19/19/19
f 24/24/24 23/23/23 22/22/22
f 27/27/27 26/26/26 25/25/25
f 30/30/30 29/29/29 28/28/28
