# Generated by Wraith - Game extraction tools
# Please credit DTZxPorter for using it!

v -18.000025 -9.668456 57.599991
v -18.000025 -9.668454 74.400009
v 1.199965 -9.668456 69.375046
v -18.000025 -9.668454 74.400009
v -8.296354 -9.668454 80.274811
v 1.199965 -9.668456 69.375046
v 1.199965 -9.668456 69.375046
v -8.296354 -9.668454 80.274811
v 0.615699 -9.668454 87.265160
v 17.999987 -9.668456 74.901375
v 1.199965 -9.668456 69.375046
v 0.615699 -9.668454 87.265160
v 1.199965 -9.668456 69.375046
v 17.999987 -9.668456 74.901375
v 17.999987 -9.668454 0.000000
v 1.199965 -9.668454 0.000000
v 1.199965 -9.668456 69.375046
v 17.999987 -9.668454 0.000000
v 17.999987 -9.668456 98.399979
v 17.999987 -9.668456 74.901375
v 0.615699 -9.668454 87.265160
v 10.799999 -9.668456 98.399979
v 17.999987 -9.668456 98.399979
v 0.615699 -9.668454 87.265160
v 1.199965 9.668454 69.375046
v 1.199965 -9.668456 69.375046
v 1.199965 9.668454 0.000000
v 1.199965 -9.668456 69.375046
v 1.199965 -9.668454 0.000000
v 1.199965 9.668454 0.000000
v 1.199965 -9.668456 69.375046
v 1.199965 9.668454 69.375046
v -18.000025 -9.668456 57.599991
v 1.199965 9.668454 69.375046
v -18.000025 9.668454 57.599991
v -18.000025 -9.668456 57.599991
v -18.000025 9.668456 74.400009
v -18.000025 -9.668454 74.400009
v -18.000025 9.668454 57.599991
v -18.000025 -9.668454 74.400009
v -18.000025 -9.668456 57.599991
v -18.000025 9.668454 57.599991
v 10.799999 9.668454 98.399979
v 17.999987 9.668454 98.399979
v 10.799999 -9.668456 98.399979
v 17.999987 9.668454 98.399979
v 17.999987 -9.668456 98.399979
v 10.799999 -9.668456 98.399979
v -18.000025 9.668456 74.400009
v -8.296354 9.668456 80.274811
v -18.000025 -9.668454 74.400009
v -8.296354 9.668456 80.274811
v -8.296354 -9.668454 80.274811
v -18.000025 -9.668454 74.400009
v -8.296354 9.668456 80.274811
v 0.615699 9.668456 87.265160
v -8.296354 -9.668454 80.274811
v 0.615699 9.668456 87.265160
v 0.615699 -9.668454 87.265160
v -8.296354 -9.668454 80.274811
v 0.615699 -9.668454 87.265160
v 0.615699 9.668456 87.265160
v 10.799999 -9.668456 98.399979
v 0.615699 9.668456 87.265160
v 10.799999 9.668454 98.399979
v 10.799999 -9.668456 98.399979
v 17.999987 -9.668456 74.901375
v 17.999987 -9.668456 98.399979
v 17.999987 9.668454 98.399979
v 17.999987 9.668456 74.901375
v 17.999987 -9.668456 74.901375
v 17.999987 9.668454 98.399979
v 17.999987 -9.668454 0.000000
v 17.999987 -9.668456 74.901375
v 17.999987 9.668456 74.901375
v 17.999987 9.668454 0.000000
v 17.999987 -9.668454 0.000000
v 17.999987 9.668456 74.901375
v 1.199965 9.668454 0.000000
v 1.199965 -9.668454 0.000000
v 17.999987 9.668454 0.000000
v 1.199965 -9.668454 0.000000
v 17.999987 -9.668454 0.000000
v 17.999987 9.668454 0.000000
v 10.799999 9.668454 98.399979
v 0.615699 9.668456 87.265160
v 17.999987 9.668454 98.399979
v 0.615699 9.668456 87.265160
v 17.999987 9.668456 74.901375
v 17.999987 9.668454 98.399979
v 17.999987 9.668456 74.901375
v 0.615699 9.668456 87.265160
v 1.199965 9.668454 69.375046
v 17.999987 9.668454 0.000000
v 17.999987 9.668456 74.901375
v 1.199965 9.668454 69.375046
v 1.199965 9.668454 0.000000
v 17.999987 9.668454 0.000000
v 1.199965 9.668454 69.375046
v 0.615699 9.668456 87.265160
v -8.296354 9.668456 80.274811
v 1.199965 9.668454 69.375046
v 1.199965 9.668454 69.375046
v -8.296354 9.668456 80.274811
v -18.000025 9.668456 74.400009
v -18.000025 9.668454 57.599991
v 1.199965 9.668454 69.375046
v -18.000025 9.668456 74.400009
vt 0.160034 0.454590
vt 0.160034 0.586426
vt 0.310791 0.546875
vt 0.160034 0.586426
vt 0.236206 0.632568
vt 0.310791 0.546875
vt 0.310791 0.546875
vt 0.236206 0.632568
vt 0.306152 0.687500
vt 0.442627 0.590332
vt 0.310791 0.546875
vt 0.306152 0.687500
vt 0.310791 0.546875
vt 0.442627 0.590332
vt 0.442627 0.001953
vt 0.310791 0.001953
vt 0.310791 0.546875
vt 0.442627 0.001953
vt 0.442627 0.774902
vt 0.442627 0.590332
vt 0.306152 0.687500
vt 0.386230 0.774902
vt 0.442627 0.774902
vt 0.306152 0.687500
vt 0.892578 0.001953
vt 0.740723 0.001953
vt 0.892578 0.546875
vt 0.740723 0.001953
vt 0.740723 0.546875
vt 0.892578 0.546875
vt 0.839844 0.930786
vt 0.839844 0.778931
vt 0.688965 0.930786
vt 0.839844 0.778931
vt 0.688965 0.778931
vt 0.688965 0.930786
vt 0.997559 0.739502
vt 0.845703 0.739502
vt 0.997559 0.871460
vt 0.845703 0.739502
vt 0.845703 0.871460
vt 0.997559 0.871460
vt 0.625977 0.930786
vt 0.682617 0.930786
vt 0.625977 0.778931
vt 0.682617 0.930786
vt 0.682617 0.778931
vt 0.625977 0.778931
vt 0.997559 0.739502
vt 0.997559 0.693359
vt 0.845703 0.739502
vt 0.997559 0.693359
vt 0.845703 0.693359
vt 0.845703 0.739502
vt 0.997559 0.693359
vt 0.997559 0.638428
vt 0.845703 0.693359
vt 0.997559 0.638428
vt 0.845703 0.638428
vt 0.845703 0.693359
vt 0.845703 0.638428
vt 0.997559 0.638428
vt 0.845703 0.551025
vt 0.997559 0.638428
vt 0.997559 0.551025
vt 0.845703 0.551025
vt 0.001991 0.590332
vt 0.001991 0.774902
vt 0.153809 0.774902
vt 0.153809 0.590332
vt 0.001991 0.590332
vt 0.153809 0.774902
vt 0.001991 0.001953
vt 0.001991 0.590332
vt 0.153809 0.590332
vt 0.153809 0.001953
vt 0.001991 0.001953
vt 0.153809 0.590332
vt 0.488281 0.778931
vt 0.488281 0.930786
vt 0.620117 0.778931
vt 0.488281 0.930786
vt 0.620117 0.930786
vt 0.620117 0.778931
vt 0.676270 0.001953
vt 0.596680 0.089355
vt 0.732910 0.001953
vt 0.596680 0.089355
vt 0.732910 0.186523
vt 0.732910 0.001953
vt 0.732910 0.186523
vt 0.596680 0.089355
vt 0.601074 0.229980
vt 0.732910 0.774902
vt 0.732910 0.186523
vt 0.601074 0.229980
vt 0.601074 0.774902
vt 0.732910 0.774902
vt 0.601074 0.229980
vt 0.596680 0.089355
vt 0.526367 0.144531
vt 0.601074 0.229980
vt 0.601074 0.229980
vt 0.526367 0.144531
vt 0.450439 0.190430
vt 0.450439 0.322754
vt 0.601074 0.229980
vt 0.450439 0.190430
vn 0.000000 -1.000000 0.000000
vn 0.000000 -1.000000 0.000000
vn 0.000000 -1.000000 0.000000
vn 0.000000 -1.000000 0.000000
vn 0.000000 -1.000000 0.000000
vn 0.000000 -1.000000 0.000000
vn 0.000000 -1.000000 0.000000
vn 0.000000 -1.000000 0.000000
vn 0.000000 -1.000000 0.000000
vn 0.000000 -1.000000 0.000000
vn 0.000000 -1.000000 0.000000
vn 0.000000 -1.000000 0.000000
vn 0.000000 -1.000000 0.000000
vn 0.000000 -1.000000 0.000000
vn 0.000000 -1.000000 0.000000
vn 0.000000 -1.000000 0.000000
vn 0.000000 -1.000000 0.000000
vn 0.000000 -1.000000 0.000000
vn 0.000000 -1.000000 0.000000
vn 0.000000 -1.000000 0.000000
vn 0.000000 -1.000000 0.000000
vn 0.000000 -1.000000 0.000000
vn 0.000000 -1.000000 0.000000
vn 0.000000 -1.000000 0.000000
vn -1.000000 0.000000 0.000000
vn -1.000000 0.000000 0.000000
vn -1.000000 0.000000 0.000000
vn -1.000000 0.000000 0.000000
vn -1.000000 0.000000 0.000000
vn -1.000000 0.000000 0.000000
vn 0.522505 0.000000 -0.853229
vn 0.522505 0.000000 -0.853229
vn 0.522505 0.000000 -0.853229
vn 0.522505 0.000000 -0.853229
vn 0.522505 0.000000 -0.853229
vn 0.522505 0.000000 -0.853229
vn -1.000000 0.000000 0.000000
vn -1.000000 0.000000 0.000000
vn -1.000000 0.000000 0.000000
vn -1.000000 0.000000 0.000000
vn -1.000000 0.000000 0.000000
vn -1.000000 0.000000 0.000000
vn 0.000000 0.000000 1.000000
vn 0.000000 0.000000 1.000000
vn 0.000000 0.000000 1.000000
vn 0.000000 0.000000 1.000000
vn 0.000000 0.000000 1.000000
vn 0.000000 0.000000 1.000000
vn -0.518591 0.000000 0.855186
vn -0.569472 0.000000 0.821918
vn -0.518591 0.000000 0.855186
vn -0.569472 0.000000 0.821918
vn -0.569472 0.000000 0.821918
vn -0.518591 0.000000 0.855186
vn -0.569472 0.000000 0.821918
vn -0.679061 0.000000 0.733855
vn -0.569472 0.000000 0.821918
vn -0.679061 0.000000 0.733855
vn -0.679061 0.000000 0.733855
vn -0.569472 0.000000 0.821918
vn -0.679061 0.000000 0.733855
vn -0.679061 0.000000 0.733855
vn -0.737769 0.000000 0.675147
vn -0.679061 0.000000 0.733855
vn -0.737769 0.000000 0.675147
vn -0.737769 0.000000 0.675147
vn 1.000000 0.000000 0.000000
vn 1.000000 0.000000 0.000000
vn 1.000000 0.000000 0.000000
vn 1.000000 0.000000 0.000000
vn 1.000000 0.000000 0.000000
vn 1.000000 0.000000 0.000000
vn 1.000000 0.000000 0.000000
vn 1.000000 0.000000 0.000000
vn 1.000000 0.000000 0.000000
vn 1.000000 0.000000 0.000000
vn 1.000000 0.000000 0.000000
vn 1.000000 0.000000 0.000000
vn 0.000000 0.000000 -1.000000
vn 0.000000 0.000000 -1.000000
vn 0.000000 0.000000 -1.000000
vn 0.000000 0.000000 -1.000000
vn 0.000000 0.000000 -1.000000
vn 0.000000 0.000000 -1.000000
vn 0.000000 1.000000 0.000000
vn 0.000000 1.000000 0.000000
vn 0.000000 1.000000 0.000000
vn 0.000000 1.000000 0.000000
vn 0.000000 1.000000 0.000000
vn 0.000000 1.000000 0.000000
vn 0.000000 1.000000 0.000000
vn 0.000000 1.000000 0.000000
vn 0.000000 1.000000 0.000000
vn 0.000000 1.000000 0.000000
vn 0.000000 1.000000 0.000000
vn 0.000000 1.000000 0.000000
vn 0.000000 1.000000 0.000000
vn 0.000000 1.000000 0.000000
vn 0.000000 1.000000 0.000000
vn 0.000000 1.000000 0.000000
vn 0.000000 1.000000 0.000000
vn 0.000000 1.000000 0.000000
vn 0.000000 1.000000 0.000000
vn 0.000000 1.000000 0.000000
vn 0.000000 1.000000 0.000000
vn 0.000000 1.000000 0.000000
vn 0.000000 1.000000 0.000000
vn 0.000000 1.000000 0.000000
mtllib dub_gold_shiny_01.mtl
g dub_gold_shiny_01
usemtl dub_gold_shiny_01
f 3/3/3 2/2/2 1/1/1
f 6/6/6 5/5/5 4/4/4
f 9/9/9 8/8/8 7/7/7
f 12/12/12 11/11/11 10/10/10
f 15/15/15 14/14/14 13/13/13
f 18/18/18 17/17/17 16/16/16
f 21/21/21 20/20/20 19/19/19
f 24/24/24 23/23/23 22/22/22
mtllib dub_gold_shiny_01.mtl
g dub_gold_shiny_01
usemtl dub_gold_shiny_01
f 27/27/27 26/26/26 25/25/25
f 30/30/30 29/29/29 28/28/28
f 33/33/33 32/32/32 31/31/31
f 36/36/36 35/35/35 34/34/34
f 39/39/39 38/38/38 37/37/37
f 42/42/42 41/41/41 40/40/40
f 45/45/45 44/44/44 43/43/43
f 48/48/48 47/47/47 46/46/46
f 51/51/51 50/50/50 49/49/49
f 54/54/54 53/53/53 52/52/52
f 57/57/57 56/56/56 55/55/55
f 60/60/60 59/59/59 58/58/58
f 63/63/63 62/62/62 61/61/61
f 66/66/66 65/65/65 64/64/64
f 69/69/69 68/68/68 67/67/67
f 72/72/72 71/71/71 70/70/70
f 75/75/75 74/74/74 73/73/73
f 78/78/78 77/77/77 76/76/76
f 81/81/81 80/80/80 79/79/79
f 84/84/84 83/83/83 82/82/82
f 87/87/87 86/86/86 85/85/85
f 90/90/90 89/89/89 88/88/88
f 93/93/93 92/92/92 91/91/91
f 96/96/96 95/95/95 94/94/94
f 99/99/99 98/98/98 97/97/97
f 102/102/102 101/101/101 100/100/100
f 105/105/105 104/104/104 103/103/103
f 108/108/108 107/107/107 106/106/106
