# Generated by Wraith - Game extraction tools
# Please credit DTZxPorter for using it!

v -0.898025 0.898025 4.702363
v 0.898025 0.898025 4.702363
v 0.898025 0.898025 9.782363
v -0.898025 0.898025 9.782363
v -0.898025 0.898025 4.702363
v 0.898025 0.898025 9.782363
v -0.898025 -0.898025 4.702363
v -0.898025 0.898025 4.702363
v -0.898025 0.898025 9.782363
v -0.898025 -0.898025 9.782363
v -0.898025 -0.898025 4.702363
v -0.898025 0.898025 9.782363
v 0.898025 -0.898025 4.702363
v -0.898025 -0.898025 4.702363
v -0.898025 -0.898025 9.782363
v 0.898025 -0.898025 9.782363
v 0.898025 -0.898025 4.702363
v -0.898025 -0.898025 9.782363
v 0.898025 0.898025 4.702363
v 0.898025 -0.898025 4.702363
v 0.898025 -0.898025 9.782363
v 0.898025 0.898025 9.782363
v 0.898025 0.898025 4.702363
v 0.898025 -0.898025 9.782363
v 0.898025 -0.898025 4.702363
v 0.898025 0.898025 4.702363
v -0.898025 -0.898025 4.702363
v 0.898025 0.898025 4.702363
v -0.898025 0.898025 4.702363
v -0.898025 -0.898025 4.702363
v 0.898025 0.898025 9.782363
v 0.898025 -0.898025 9.782363
v -0.898025 0.898025 9.782363
v 0.898025 -0.898025 9.782363
v -0.898025 -0.898025 9.782363
v -0.898025 0.898025 9.782363
v -0.165100 0.285961 9.783094
v -0.165100 0.285961 35.096321
v -0.165100 -0.285961 9.783094
v -0.165100 0.285961 35.096321
v -0.165100 -0.285961 35.096321
v -0.165100 -0.285961 9.783094
v -0.165100 -0.285961 9.783094
v -0.165100 -0.285961 35.096321
v 0.330200 0.000000 9.783094
v -0.165100 -0.285961 35.096321
v 0.330200 0.000000 35.096321
v 0.330200 0.000000 9.783094
v 0.330200 0.000000 9.783094
v 0.330200 0.000000 35.096321
v -0.165100 0.285961 9.783094
v 0.330200 0.000000 35.096321
v -0.165100 0.285961 35.096321
v -0.165100 0.285961 9.783094
v 1.763329 -1.524000 24.203913
v -0.522671 -1.524000 24.203913
v 1.763329 0.000000 25.727911
v -0.522671 -1.524000 24.203913
v -0.522671 0.000000 25.727911
v 1.763329 0.000000 25.727911
v 1.763329 0.000000 25.727911
v -0.522671 0.000000 25.727911
v 1.763329 1.524000 24.203913
v -0.522671 0.000000 25.727911
v -0.522671 1.524000 24.203913
v 1.763329 1.524000 24.203913
v 1.763329 1.524000 24.203913
v -0.522671 1.524000 24.203913
v 1.763329 0.000000 22.679911
v -0.522671 1.524000 24.203913
v -0.522671 0.000000 22.679911
v 1.763329 0.000000 22.679911
v 1.763329 0.000000 22.679911
v -0.522671 0.000000 22.679911
v 1.763329 -1.524000 24.203913
v -0.522671 0.000000 22.679911
v -0.522671 -1.524000 24.203913
v 1.763329 -1.524000 24.203913
v -0.522671 -1.524000 24.203913
v -0.522671 0.000000 22.679911
v -0.522671 0.000000 25.727911
v -0.522671 0.000000 22.679911
v -0.522671 1.524000 24.203913
v -0.522671 0.000000 25.727911
v 1.763329 0.000000 22.679911
v 1.763329 -1.524000 24.203913
v 1.763329 1.524000 24.203913
v 1.763329 -1.524000 24.203913
v 1.763329 0.000000 25.727911
v 1.763329 1.524000 24.203913
v -1.040912 -2.564912 8.084807
v -2.564912 1.040912 8.084807
v -2.992397 1.214397 -8.889999
v 2.992397 -1.214397 -8.889999
v 2.564912 -1.040912 8.084807
v -1.214397 -2.992397 -8.889999
v 1.214397 2.992397 -8.889999
v 1.040912 2.564912 8.084807
v 2.992397 -1.214397 -8.889999
v 1.040912 2.564912 8.084807
v 2.564912 -1.040912 8.084807
v 2.992397 -1.214397 -8.889999
v -2.992397 1.214397 -8.889999
v -2.564912 1.040912 8.084807
v 1.214397 2.992397 -8.889999
v -2.564912 1.040912 8.084807
v 1.040912 2.564912 8.084807
v 1.214397 2.992397 -8.889999
v -1.214397 -2.992397 -8.889999
v -1.040912 -2.564912 8.084807
v -2.992397 1.214397 -8.889999
v 2.564912 -1.040912 8.084807
v -1.040912 -2.564912 8.084807
v -1.214397 -2.992397 -8.889999
v 2.992397 -1.214397 8.889999
v -1.214397 -2.992397 8.889999
v 1.214397 2.992397 8.889999
v -1.214397 -2.992397 8.889999
v -2.992397 1.214397 8.889999
v 1.214397 2.992397 8.889999
v 2.564912 -1.040912 8.084807
v 1.040912 2.564912 8.084807
v -1.040912 -2.564912 8.084807
v 1.040912 2.564912 8.084807
v -2.564912 1.040912 8.084807
v -1.040912 -2.564912 8.084807
v 2.992397 -1.214397 8.889999
v 2.992397 -1.214397 -8.889999
v -1.214397 -2.992397 8.889999
v 1.214397 2.992397 -8.889999
v 2.992397 -1.214397 -8.889999
v 2.992397 -1.214397 8.889999
v 1.214397 2.992397 8.889999
v 1.214397 2.992397 -8.889999
v 2.992397 -1.214397 8.889999
v -2.992397 1.214397 -8.889999
v 1.214397 2.992397 -8.889999
v 1.214397 2.992397 8.889999
v -2.992397 1.214397 8.889999
v -2.992397 1.214397 -8.889999
v 1.214397 2.992397 8.889999
v -1.214397 -2.992397 -8.889999
v -2.992397 1.214397 -8.889999
v -2.992397 1.214397 8.889999
v -1.214397 -2.992397 8.889999
v -1.214397 -2.992397 -8.889999
v -2.992397 1.214397 8.889999
v 2.992397 -1.214397 -8.889999
v -1.214397 -2.992397 -8.889999
v -1.214397 -2.992397 8.889999
vt 0.843750 0.716553
vt 0.794922 0.716553
vt 0.794922 1.062683
vt 0.843750 1.062683
vt 0.843750 0.716553
vt 0.794922 1.062683
vt 0.892578 0.716553
vt 0.843750 0.716553
vt 0.843750 1.062683
vt 0.892578 1.062683
vt 0.892578 0.716553
vt 0.843750 1.062683
vt 0.941406 0.716553
vt 0.892578 0.716553
vt 0.892578 1.062683
vt 0.941406 1.062683
vt 0.941406 0.716553
vt 0.892578 1.062683
vt 0.990723 0.716553
vt 0.941406 0.716553
vt 0.941406 1.062683
vt 0.990723 1.062683
vt 0.990723 0.716553
vt 0.941406 1.062683
vt 1.216797 1.959473
vt 1.216797 1.782715
vt 1.040039 1.959473
vt 1.216797 1.782715
vt 1.040039 1.782715
vt 1.040039 1.959473
vt 0.216675 1.959473
vt 0.216675 1.783691
vt 0.040985 1.959473
vt 0.216675 1.783691
vt 0.040985 1.783691
vt 0.040985 1.959473
vt 0.793945 1.008987
vt 0.793945 1.993652
vt 0.857910 1.008987
vt 0.793945 1.993652
vt 0.857910 1.993652
vt 0.857910 1.008987
vt 0.857910 1.008987
vt 0.857910 1.993652
vt 0.921875 1.008987
vt 0.857910 1.993652
vt 0.921875 1.993652
vt 0.921875 1.008987
vt 0.921875 1.008987
vt 0.921875 1.993652
vt 0.985840 1.008987
vt 0.921875 1.993652
vt 0.985840 1.993652
vt 0.985840 1.008987
vt 0.914063 1.812500
vt 0.914063 1.529785
vt 0.867188 1.812500
vt 0.914063 1.529785
vt 0.867188 1.529785
vt 0.867188 1.812500
vt 0.867188 1.812500
vt 0.867188 1.529785
vt 0.820313 1.812500
vt 0.867188 1.529785
vt 0.820313 1.529785
vt 0.820313 1.812500
vt 0.820313 1.812500
vt 0.820313 1.529785
vt 0.961426 1.812500
vt 0.820313 1.529785
vt 0.961426 1.529785
vt 0.961426 1.812500
vt 0.961426 1.812500
vt 0.961426 1.529785
vt 0.914063 1.812500
vt 0.961426 1.529785
vt 0.914063 1.529785
vt 0.914063 1.812500
vt 0.127563 0.987770
vt 0.244995 0.870361
vt 0.010071 0.870361
vt 0.244995 0.870361
vt 0.127563 0.752808
vt 0.010071 0.870361
vt 0.244995 1.871582
vt 0.127563 1.753906
vt 0.127563 1.988770
vt 0.127563 1.753906
vt 0.010071 1.871582
vt 0.127563 1.988770
vt 0.487305 0.713379
vt 0.677246 0.713379
vt 0.677246 0.030273
vt 0.106689 0.030273
vt 0.106689 0.713379
vt 0.487305 0.030273
vt 0.296875 0.030273
vt 0.296875 0.713379
vt 0.106689 0.030273
vt 0.296875 0.713379
vt 0.106689 0.713379
vt 0.106689 0.030273
vt 0.677246 0.030273
vt 0.677246 0.713379
vt 0.296875 0.030273
vt 0.677246 0.713379
vt 0.296875 0.713379
vt 0.296875 0.030273
vt 0.487305 0.030273
vt 0.487305 0.713379
vt 0.677246 0.030273
vt 0.106689 0.713379
vt 0.487305 0.713379
vt 0.487305 0.030273
vt 1.086914 -0.229492
vt 1.026367 -0.086914
vt 1.229492 -0.169922
vt 1.026367 -0.086914
vt 1.169922 -0.027344
vt 1.229492 -0.169922
vt 1.162109 0.789917
vt 1.048828 0.837646
vt 1.209961 0.902954
vt 1.048828 0.837646
vt 1.096680 0.950745
vt 1.209961 0.902954
vt 0.106689 0.737549
vt 0.106689 0.005371
vt 0.487305 0.737549
vt 0.296875 0.005371
vt 0.106689 0.005371
vt 0.106689 0.737549
vt 0.296875 0.737549
vt 0.296875 0.005371
vt 0.106689 0.737549
vt 0.677246 0.005371
vt 0.296875 0.005371
vt 0.296875 0.737549
vt 0.677246 0.737549
vt 0.677246 0.005371
vt 0.296875 0.737549
vt 0.487305 0.005371
vt 0.677246 0.005371
vt 0.677246 0.737549
vt 0.487305 0.737549
vt 0.487305 0.005371
vt 0.677246 0.737549
vt 0.106689 0.005371
vt 0.487305 0.005371
vt 0.487305 0.737549
vn -0.706458 0.706458 0.000000
vn 0.706458 0.706458 0.000000
vn 0.706458 0.706458 0.000000
vn -0.706458 0.706458 0.000000
vn -0.706458 0.706458 0.000000
vn 0.706458 0.706458 0.000000
vn -0.706458 -0.706458 0.000000
vn -0.706458 0.706458 0.000000
vn -0.706458 0.706458 0.000000
vn -0.706458 -0.706458 0.000000
vn -0.706458 -0.706458 0.000000
vn -0.706458 0.706458 0.000000
vn 0.706458 -0.706458 0.000000
vn -0.706458 -0.706458 0.000000
vn -0.706458 -0.706458 0.000000
vn 0.706458 -0.706458 0.000000
vn 0.706458 -0.706458 0.000000
vn -0.706458 -0.706458 0.000000
vn 0.706458 0.706458 0.000000
vn 0.706458 -0.706458 0.000000
vn 0.706458 -0.706458 0.000000
vn 0.706458 0.706458 0.000000
vn 0.706458 0.706458 0.000000
vn 0.706458 -0.706458 0.000000
vn 0.000000 0.000000 -1.000000
vn 0.000000 0.000000 -1.000000
vn 0.000000 0.000000 -1.000000
vn 0.000000 0.000000 -1.000000
vn 0.000000 0.000000 -1.000000
vn 0.000000 0.000000 -1.000000
vn 0.000000 0.000000 1.000000
vn 0.000000 0.000000 1.000000
vn 0.000000 0.000000 1.000000
vn 0.000000 0.000000 1.000000
vn 0.000000 0.000000 1.000000
vn 0.000000 0.000000 1.000000
vn -0.500978 0.866928 0.000000
vn -0.500978 0.866928 0.000000
vn -0.500978 -0.866928 0.000000
vn -0.500978 0.866928 0.000000
vn -0.500978 -0.866928 0.000000
vn -0.500978 -0.866928 0.000000
vn -0.500978 -0.866928 0.000000
vn -0.500978 -0.866928 0.000000
vn 1.000000 0.000000 0.000000
vn -0.500978 -0.866928 0.000000
vn 1.000000 0.000000 0.000000
vn 1.000000 0.000000 0.000000
vn 1.000000 0.000000 0.000000
vn 1.000000 0.000000 0.000000
vn -0.500978 0.866928 0.000000
vn 1.000000 0.000000 0.000000
vn -0.500978 0.866928 0.000000
vn -0.500978 0.866928 0.000000
vn 0.000000 -1.000000 0.000000
vn 0.000000 -1.000000 0.000000
vn 0.000000 0.000000 1.000000
vn 0.000000 -1.000000 0.000000
vn 0.000000 0.000000 1.000000
vn 0.000000 0.000000 1.000000
vn 0.000000 0.000000 1.000000
vn 0.000000 0.000000 1.000000
vn 0.000000 1.000000 0.000000
vn 0.000000 0.000000 1.000000
vn 0.000000 1.000000 0.000000
vn 0.000000 1.000000 0.000000
vn 0.000000 1.000000 0.000000
vn 0.000000 1.000000 0.000000
vn 0.000000 0.000000 -1.000000
vn 0.000000 1.000000 0.000000
vn 0.000000 0.000000 -1.000000
vn 0.000000 0.000000 -1.000000
vn 0.000000 0.000000 -1.000000
vn 0.000000 0.000000 -1.000000
vn 0.000000 -1.000000 0.000000
vn 0.000000 0.000000 -1.000000
vn 0.000000 -1.000000 0.000000
vn 0.000000 -1.000000 0.000000
vn -1.000000 0.000000 0.000000
vn -1.000000 0.000000 0.000000
vn -1.000000 0.000000 0.000000
vn -1.000000 0.000000 0.000000
vn -1.000000 0.000000 0.000000
vn -1.000000 0.000000 0.000000
vn 1.000000 0.000000 0.000000
vn 1.000000 0.000000 0.000000
vn 1.000000 0.000000 0.000000
vn 1.000000 0.000000 0.000000
vn 1.000000 0.000000 0.000000
vn 1.000000 0.000000 0.000000
vn 0.375734 0.925636 -0.027397
vn 0.925636 -0.375734 -0.027397
vn 0.925636 -0.375734 -0.027397
vn -0.925636 0.375734 -0.027397
vn -0.925636 0.375734 -0.027397
vn 0.375734 0.925636 -0.027397
vn -0.375734 -0.925636 -0.027397
vn -0.375734 -0.925636 -0.027397
vn -0.925636 0.375734 -0.027397
vn -0.375734 -0.925636 -0.027397
vn -0.925636 0.375734 -0.027397
vn -0.925636 0.375734 -0.027397
vn 0.925636 -0.375734 -0.027397
vn 0.925636 -0.375734 -0.027397
vn -0.375734 -0.925636 -0.027397
vn 0.925636 -0.375734 -0.027397
vn -0.375734 -0.925636 -0.027397
vn -0.375734 -0.925636 -0.027397
vn 0.375734 0.925636 -0.027397
vn 0.375734 0.925636 -0.027397
vn 0.925636 -0.375734 -0.027397
vn -0.925636 0.375734 -0.027397
vn 0.375734 0.925636 -0.027397
vn 0.375734 0.925636 -0.027397
vn 0.000000 0.000000 1.000000
vn 0.000000 0.000000 1.000000
vn 0.000000 0.000000 1.000000
vn 0.000000 0.000000 1.000000
vn 0.000000 0.000000 1.000000
vn 0.000000 0.000000 1.000000
vn 0.000000 0.000000 -1.000000
vn 0.000000 0.000000 -1.000000
vn 0.000000 0.000000 -1.000000
vn 0.000000 0.000000 -1.000000
vn 0.000000 0.000000 -1.000000
vn 0.000000 0.000000 -1.000000
vn 0.925636 -0.375734 0.000000
vn 0.925636 -0.375734 0.000000
vn -0.375734 -0.925636 0.000000
vn 0.375734 0.925636 0.000000
vn 0.925636 -0.375734 0.000000
vn 0.925636 -0.375734 0.000000
vn 0.375734 0.925636 0.000000
vn 0.375734 0.925636 0.000000
vn 0.925636 -0.375734 0.000000
vn -0.925636 0.375734 0.000000
vn 0.375734 0.925636 0.000000
vn 0.375734 0.925636 0.000000
vn -0.925636 0.375734 0.000000
vn -0.925636 0.375734 0.000000
vn 0.375734 0.925636 0.000000
vn -0.375734 -0.925636 0.000000
vn -0.925636 0.375734 0.000000
vn -0.925636 0.375734 0.000000
vn -0.375734 -0.925636 0.000000
vn -0.375734 -0.925636 0.000000
vn -0.925636 0.375734 0.000000
vn 0.925636 -0.375734 0.000000
vn -0.375734 -0.925636 0.000000
vn -0.375734 -0.925636 0.000000
mtllib mtl_nt_2020_light_modern.mtl
g mtl_nt_2020_light_modern
usemtl mtl_nt_2020_light_modern
f 3/3/3 2/2/2 1/1/1
f 6/6/6 5/5/5 4/4/4
f 9/9/9 8/8/8 7/7/7
f 12/12/12 11/11/11 10/10/10
f 15/15/15 14/14/14 13/13/13
f 18/18/18 17/17/17 16/16/16
f 21/21/21 20/20/20 19/19/19
f 24/24/24 23/23/23 22/22/22
f 27/27/27 26/26/26 25/25/25
f 30/30/30 29/29/29 28/28/28
f 33/33/33 32/32/32 31/31/31
f 36/36/36 35/35/35 34/34/34
f 39/39/39 38/38/38 37/37/37
f 42/42/42 41/41/41 40/40/40
f 45/45/45 44/44/44 43/43/43
f 48/48/48 47/47/47 46/46/46
f 51/51/51 50/50/50 49/49/49
f 54/54/54 53/53/53 52/52/52
f 57/57/57 56/56/56 55/55/55
f 60/60/60 59/59/59 58/58/58
f 63/63/63 62/62/62 61/61/61
f 66/66/66 65/65/65 64/64/64
f 69/69/69 68/68/68 67/67/67
f 72/72/72 71/71/71 70/70/70
f 75/75/75 74/74/74 73/73/73
f 78/78/78 77/77/77 76/76/76
f 81/81/81 80/80/80 79/79/79
f 84/84/84 83/83/83 82/82/82
f 87/87/87 86/86/86 85/85/85
f 90/90/90 89/89/89 88/88/88
mtllib mtl_nt_2020_light_modern_unlit.mtl
g mtl_nt_2020_light_modern_unlit
usemtl mtl_nt_2020_light_modern_unlit
f 93/93/93 92/92/92 91/91/91
f 96/96/96 95/95/95 94/94/94
f 99/99/99 98/98/98 97/97/97
f 102/102/102 101/101/101 100/100/100
f 105/105/105 104/104/104 103/103/103
f 108/108/108 107/107/107 106/106/106
f 111/111/111 110/110/110 109/109/109
f 114/114/114 113/113/113 112/112/112
f 117/117/117 116/116/116 115/115/115
f 120/120/120 119/119/119 118/118/118
f 123/123/123 122/122/122 121/121/121
f 126/126/126 125/125/125 124/124/124
f 129/129/129 128/128/128 127/127/127
f 132/132/132 131/131/131 130/130/130
f 135/135/135 134/134/134 133/133/133
f 138/138/138 137/137/137 136/136/136
f 141/141/141 140/140/140 139/139/139
f 144/144/144 143/143/143 142/142/142
f 147/147/147 146/146/146 145/145/145
f 150/150/150 149/149/149 148/148/148
