# Generated by Wraith - Game extraction tools
# Please credit DTZxPorter for using it!

v -20.400034 -9.668441 74.400009
v -32.399998 -9.668441 83.062508
v -28.555195 -9.668441 88.406212
v -11.775831 -9.668441 81.184441
v -20.400034 -9.668441 74.400009
v -28.555195 -9.668441 88.406212
v -15.633580 -9.668441 96.212288
v -11.775831 -9.668441 81.184441
v -28.555195 -9.668441 88.406212
v -11.775831 -9.668441 81.184441
v -15.633580 -9.668441 96.212288
v 0.527061 -9.668441 82.587067
v -15.633580 -9.668441 96.212288
v 4.438024 -9.668441 97.382256
v 0.527061 -9.668441 82.587067
v 0.527061 -9.668441 82.587067
v 4.438024 -9.668441 97.382256
v 21.801033 -9.668441 88.100143
v 7.663680 -9.668441 72.873825
v 0.527061 -9.668441 82.587067
v 21.801033 -9.668441 88.100143
v 7.663680 -9.668441 72.873825
v 21.801033 -9.668441 88.100143
v 26.894173 -9.668441 69.409698
v 7.663680 -9.668441 72.873825
v 26.894173 -9.668441 69.409698
v 22.167368 -9.668441 54.976006
v 4.898305 -9.668441 60.140881
v 7.663680 -9.668441 72.873825
v 22.167368 -9.668441 54.976006
v 22.167368 -9.668441 54.976006
v -6.000021 -9.668441 14.399993
v 4.898305 -9.668441 60.140881
v -6.000021 -9.668441 14.399993
v -32.399998 -9.668441 5.062501
v 4.898305 -9.668441 60.140881
v -32.399998 -9.668441 5.062501
v -6.000021 -9.668441 14.399993
v -32.399998 -9.668441 0.000000
v -32.399998 -9.668441 0.000000
v -6.000021 -9.668441 14.399993
v 32.399998 -9.668441 0.000000
v -6.000021 -9.668441 14.399993
v 32.399998 -9.668441 14.399993
v 32.399998 -9.668441 0.000000
v -32.399998 9.668441 0.000000
v -32.399998 9.668441 5.062501
v -32.399998 -9.668441 0.000000
v -32.399998 9.668441 5.062501
v -32.399998 -9.668441 5.062501
v -32.399998 -9.668441 0.000000
v -32.399998 -9.668441 5.062501
v -32.399998 9.668441 5.062501
v 4.898305 9.668441 60.140923
v 4.898305 -9.668441 60.140881
v -32.399998 -9.668441 5.062501
v 4.898305 9.668441 60.140923
v 4.898305 9.668441 60.140923
v 7.663680 9.668441 72.873825
v 4.898305 -9.668441 60.140881
v 7.663680 9.668441 72.873825
v 7.663680 -9.668441 72.873825
v 4.898305 -9.668441 60.140881
v -32.399998 9.668441 83.062508
v -32.399998 -9.668441 83.062508
v -20.400034 9.668441 74.400009
v -32.399998 -9.668441 83.062508
v -20.400034 -9.668441 74.400009
v -20.400034 9.668441 74.400009
v 21.801033 9.668441 88.100143
v 21.801033 -9.668441 88.100143
v 4.438024 -9.668441 97.382256
v 4.438024 9.668441 97.382256
v 21.801033 9.668441 88.100143
v 4.438024 -9.668441 97.382256
v 4.438024 9.668441 97.382256
v 4.438024 -9.668441 97.382256
v -15.633580 -9.668441 96.212288
v -15.633580 9.668441 96.212288
v 4.438024 9.668441 97.382256
v -15.633580 -9.668441 96.212288
v -15.633580 9.668441 96.212288
v -15.633580 -9.668441 96.212288
v -28.555195 -9.668441 88.406212
v -28.555195 9.668441 88.406174
v -15.633580 9.668441 96.212288
v -28.555195 -9.668441 88.406212
v -28.555195 9.668441 88.406174
v -28.555195 -9.668441 88.406212
v -32.399998 -9.668441 83.062508
v -32.399998 9.668441 83.062508
v -28.555195 9.668441 88.406174
v -32.399998 -9.668441 83.062508
v 21.801033 9.668441 88.100143
v 26.894173 9.668441 69.409698
v 21.801033 -9.668441 88.100143
v 26.894173 9.668441 69.409698
v 26.894173 -9.668441 69.409698
v 21.801033 -9.668441 88.100143
v 26.894173 9.668441 69.409698
v 22.167368 9.668441 54.976006
v 26.894173 -9.668441 69.409698
v 22.167368 9.668441 54.976006
v 22.167368 -9.668441 54.976006
v 26.894173 -9.668441 69.409698
v 22.167368 -9.668441 54.976006
v 22.167368 9.668441 54.976006
v -6.000021 -9.668441 14.399993
v 22.167368 9.668441 54.976006
v -6.000021 9.668441 14.399993
v -6.000021 -9.668441 14.399993
v -6.000021 -9.668441 14.399993
v -6.000021 9.668441 14.399993
v 32.399998 -9.668441 14.399993
v -6.000021 9.668441 14.399993
v 32.399998 9.668441 14.399993
v 32.399998 -9.668441 14.399993
v 32.399998 -9.668441 14.399993
v 32.399998 9.668441 14.399993
v 32.399998 -9.668441 0.000000
v 32.399998 9.668441 14.399993
v 32.399998 9.668441 0.000000
v 32.399998 -9.668441 0.000000
v -32.399998 -9.668441 0.000000
v 32.399998 -9.668441 0.000000
v -32.399998 9.668441 0.000000
v 32.399998 -9.668441 0.000000
v 32.399998 9.668441 0.000000
v -32.399998 9.668441 0.000000
v -32.399998 9.668441 83.062508
v -20.400034 9.668441 74.400009
v -28.555195 9.668441 88.406174
v -28.555195 9.668441 88.406174
v -20.400034 9.668441 74.400009
v -11.775831 9.668441 81.184441
v -15.633580 9.668441 96.212288
v -28.555195 9.668441 88.406174
v -11.775831 9.668441 81.184441
v -11.775831 9.668441 81.184441
v 0.527061 9.668441 82.587067
v -15.633580 9.668441 96.212288
v 0.527061 9.668441 82.587067
v 4.438024 9.668441 97.382256
v -15.633580 9.668441 96.212288
v 4.438024 9.668441 97.382256
v 0.527061 9.668441 82.587067
v 21.801033 9.668441 88.100143
v 0.527061 9.668441 82.587067
v 7.663680 9.668441 72.873825
v 21.801033 9.668441 88.100143
v 7.663680 9.668441 72.873825
v 26.894173 9.668441 69.409698
v 21.801033 9.668441 88.100143
v 26.894173 9.668441 69.409698
v 7.663680 9.668441 72.873825
v 22.167368 9.668441 54.976006
v 7.663680 9.668441 72.873825
v 4.898305 9.668441 60.140923
v 22.167368 9.668441 54.976006
v -6.000021 9.668441 14.399993
v 22.167368 9.668441 54.976006
v 4.898305 9.668441 60.140923
v -32.399998 9.668441 5.062501
v -6.000021 9.668441 14.399993
v 4.898305 9.668441 60.140923
v -32.399998 9.668441 0.000000
v -6.000021 9.668441 14.399993
v -32.399998 9.668441 5.062501
v -6.000021 9.668441 14.399993
v -32.399998 9.668441 0.000000
v 32.399998 9.668441 0.000000
v 32.399998 9.668441 14.399993
v -6.000021 9.668441 14.399993
v 32.399998 9.668441 0.000000
v -20.400034 9.668441 74.400009
v -20.400034 -9.668441 74.400009
v -11.775831 -9.668441 81.184441
v -11.775831 9.668441 81.184441
v -20.400034 9.668441 74.400009
v -11.775831 -9.668441 81.184441
v -11.775831 9.668441 81.184441
v -11.775831 -9.668441 81.184441
v 0.527061 -9.668441 82.587067
v 0.527061 9.668441 82.587067
v -11.775831 9.668441 81.184441
v 0.527061 -9.668441 82.587067
v 0.527061 9.668441 82.587067
v 0.527061 -9.668441 82.587067
v 7.663680 9.668441 72.873825
v 0.527061 -9.668441 82.587067
v 7.663680 -9.668441 72.873825
v 7.663680 9.668441 72.873825
vt 0.475830 0.455078
vt 0.402832 0.507568
vt 0.426270 0.540039
vt 0.528320 0.496094
vt 0.475830 0.455078
vt 0.426270 0.540039
vt 0.504883 0.587646
vt 0.528320 0.496094
vt 0.426270 0.540039
vt 0.528320 0.496094
vt 0.504883 0.587646
vt 0.603027 0.504639
vt 0.504883 0.587646
vt 0.626953 0.594727
vt 0.603027 0.504639
vt 0.603027 0.504639
vt 0.626953 0.594727
vt 0.732422 0.538086
vt 0.646484 0.445801
vt 0.603027 0.504639
vt 0.732422 0.538086
vt 0.646484 0.445801
vt 0.732422 0.538086
vt 0.763672 0.424805
vt 0.646484 0.445801
vt 0.763672 0.424805
vt 0.734863 0.336914
vt 0.629883 0.368164
vt 0.646484 0.445801
vt 0.734863 0.336914
vt 0.734863 0.336914
vt 0.563477 0.089844
vt 0.629883 0.368164
vt 0.563477 0.089844
vt 0.402832 0.033203
vt 0.629883 0.368164
vt 0.402832 0.033203
vt 0.563477 0.089844
vt 0.402832 0.002441
vt 0.402832 0.002441
vt 0.563477 0.089844
vt 0.796875 0.002441
vt 0.563477 0.089844
vt 0.796875 0.089844
vt 0.796875 0.002441
vt 0.921387 0.464355
vt 0.921387 0.433594
vt 0.803711 0.464355
vt 0.921387 0.433594
vt 0.803711 0.433594
vt 0.803711 0.464355
vt 0.803711 0.433594
vt 0.921387 0.433594
vt 0.921387 0.098633
vt 0.803711 0.098633
vt 0.803711 0.433594
vt 0.921387 0.098633
vt 0.921387 0.098633
vt 0.921387 0.020996
vt 0.803711 0.098633
vt 0.921387 0.020996
vt 0.803711 0.020996
vt 0.803711 0.098633
vt 0.466309 0.844727
vt 0.583984 0.844727
vt 0.466309 0.771729
vt 0.583984 0.844727
vt 0.583984 0.771729
vt 0.466309 0.771729
vt 0.707520 0.623779
vt 0.589844 0.623779
vt 0.589844 0.729248
vt 0.707520 0.729248
vt 0.707520 0.623779
vt 0.589844 0.729248
vt 0.707520 0.729248
vt 0.589844 0.729248
vt 0.589844 0.851440
vt 0.707520 0.851440
vt 0.707520 0.729248
vt 0.589844 0.851440
vt 0.707520 0.851440
vt 0.589844 0.851440
vt 0.589844 0.929993
vt 0.707520 0.929993
vt 0.707520 0.851440
vt 0.589844 0.929993
vt 0.707520 0.929993
vt 0.589844 0.929993
vt 0.589844 0.953400
vt 0.707520 0.953400
vt 0.707520 0.929993
vt 0.589844 0.953400
vt 0.954590 0.892944
vt 0.954590 0.802734
vt 0.836914 0.892944
vt 0.954590 0.802734
vt 0.836914 0.802734
vt 0.836914 0.892944
vt 0.954590 0.802734
vt 0.954590 0.715088
vt 0.836914 0.802734
vt 0.954590 0.715088
vt 0.836914 0.715088
vt 0.836914 0.802734
vt 0.836914 0.715088
vt 0.954590 0.715088
vt 0.836914 0.468262
vt 0.954590 0.715088
vt 0.954590 0.468262
vt 0.836914 0.468262
vt 0.342773 0.837402
vt 0.460449 0.837402
vt 0.342773 0.603760
vt 0.460449 0.837402
vt 0.460449 0.603760
vt 0.342773 0.603760
vt 0.249390 0.603760
vt 0.249390 0.721436
vt 0.336914 0.603760
vt 0.249390 0.721436
vt 0.336914 0.721436
vt 0.336914 0.603760
vt 0.831055 0.998009
vt 0.831055 0.603760
vt 0.713379 0.998009
vt 0.831055 0.603760
vt 0.713379 0.603760
vt 0.713379 0.998009
vt 0.001905 0.094727
vt 0.074890 0.147461
vt 0.025299 0.062012
vt 0.025299 0.062012
vt 0.074890 0.147461
vt 0.127319 0.105957
vt 0.103882 0.014648
vt 0.025299 0.062012
vt 0.127319 0.105957
vt 0.127319 0.105957
vt 0.202148 0.097656
vt 0.103882 0.014648
vt 0.202148 0.097656
vt 0.225952 0.007813
vt 0.103882 0.014648
vt 0.225952 0.007813
vt 0.202148 0.097656
vt 0.331543 0.063965
vt 0.202148 0.097656
vt 0.245605 0.156738
vt 0.331543 0.063965
vt 0.245605 0.156738
vt 0.362549 0.177734
vt 0.331543 0.063965
vt 0.362549 0.177734
vt 0.245605 0.156738
vt 0.333740 0.265625
vt 0.245605 0.156738
vt 0.228760 0.234375
vt 0.333740 0.265625
vt 0.162476 0.512451
vt 0.333740 0.265625
vt 0.228760 0.234375
vt 0.001905 0.569336
vt 0.162476 0.512451
vt 0.228760 0.234375
vt 0.001905 0.600098
vt 0.162476 0.512451
vt 0.001905 0.569336
vt 0.162476 0.512451
vt 0.001905 0.600098
vt 0.395996 0.600098
vt 0.395996 0.512451
vt 0.162476 0.512451
vt 0.395996 0.600098
vt 0.466309 0.771729
vt 0.583984 0.771729
vt 0.583984 0.719238
vt 0.466309 0.719238
vt 0.466309 0.771729
vt 0.583984 0.719238
vt 0.466309 0.719238
vt 0.583984 0.719238
vt 0.583984 0.644287
vt 0.466309 0.644287
vt 0.466309 0.719238
vt 0.583984 0.644287
vt 0.466309 0.644287
vt 0.583984 0.644287
vt 0.466309 0.603760
vt 0.583984 0.644287
vt 0.583984 0.603760
vt 0.466309 0.603760
vn 0.000000 -1.000000 0.000000
vn 0.000000 -1.000000 0.000000
vn 0.000000 -1.000000 0.000000
vn 0.000000 -1.000000 0.000000
vn 0.000000 -1.000000 0.000000
vn 0.000000 -1.000000 0.000000
vn 0.000000 -1.000000 0.000000
vn 0.000000 -1.000000 0.000000
vn 0.000000 -1.000000 0.000000
vn 0.000000 -1.000000 0.000000
vn 0.000000 -1.000000 0.000000
vn 0.000000 -1.000000 0.000000
vn 0.000000 -1.000000 0.000000
vn 0.000000 -1.000000 0.000000
vn 0.000000 -1.000000 0.000000
vn 0.000000 -1.000000 0.000000
vn 0.000000 -1.000000 0.000000
vn 0.000000 -1.000000 0.000000
vn 0.000000 -1.000000 0.000000
vn 0.000000 -1.000000 0.000000
vn 0.000000 -1.000000 0.000000
vn 0.000000 -1.000000 0.000000
vn 0.000000 -1.000000 0.000000
vn 0.000000 -1.000000 0.000000
vn 0.000000 -1.000000 0.000000
vn 0.000000 -1.000000 0.000000
vn 0.000000 -1.000000 0.000000
vn 0.000000 -1.000000 0.000000
vn 0.000000 -1.000000 0.000000
vn 0.000000 -1.000000 0.000000
vn 0.000000 -1.000000 0.000000
vn 0.000000 -1.000000 0.000000
vn 0.000000 -1.000000 0.000000
vn 0.000000 -1.000000 0.000000
vn 0.000000 -1.000000 0.000000
vn 0.000000 -1.000000 0.000000
vn 0.000000 -1.000000 0.000000
vn 0.000000 -1.000000 0.000000
vn 0.000000 -1.000000 0.000000
vn 0.000000 -1.000000 0.000000
vn 0.000000 -1.000000 0.000000
vn 0.000000 -1.000000 0.000000
vn 0.000000 -1.000000 0.000000
vn 0.000000 -1.000000 0.000000
vn 0.000000 -1.000000 0.000000
vn -1.000000 0.000000 0.000000
vn -1.000000 0.000000 0.000000
vn -1.000000 0.000000 0.000000
vn -1.000000 0.000000 0.000000
vn -1.000000 0.000000 0.000000
vn -1.000000 0.000000 0.000000
vn -0.827789 0.000000 0.561644
vn -0.827789 0.000000 0.561644
vn -0.919765 0.000000 0.393346
vn -0.919765 0.000000 0.393346
vn -0.827789 0.000000 0.561644
vn -0.919765 0.000000 0.393346
vn -0.919765 0.000000 0.393346
vn -0.978474 0.000000 -0.207436
vn -0.919765 0.000000 0.393346
vn -0.978474 0.000000 -0.207436
vn -0.978474 0.000000 -0.207436
vn -0.919765 0.000000 0.393346
vn -0.585127 0.000000 -0.810176
vn -0.585127 0.000000 -0.810176
vn -0.585127 0.000000 -0.810176
vn -0.585127 0.000000 -0.810176
vn -0.585127 0.000000 -0.810176
vn -0.585127 0.000000 -0.810176
vn 0.782779 0.000000 0.624266
vn 0.782779 0.000000 0.624266
vn 0.215264 0.000000 0.976517
vn 0.215264 0.000000 0.976517
vn 0.782779 0.000000 0.624266
vn 0.215264 0.000000 0.976517
vn 0.215264 0.000000 0.976517
vn 0.215264 0.000000 0.976517
vn -0.295499 0.000000 0.954990
vn -0.295499 0.000000 0.954990
vn 0.215264 0.000000 0.976517
vn -0.295499 0.000000 0.954990
vn -0.295499 0.000000 0.954990
vn -0.295499 0.000000 0.954990
vn -0.679061 0.000000 0.735812
vn -0.679061 0.000000 0.735812
vn -0.295499 0.000000 0.954990
vn -0.679061 0.000000 0.735812
vn -0.679061 0.000000 0.735812
vn -0.679061 0.000000 0.735812
vn -0.812133 0.000000 0.583170
vn -0.812133 0.000000 0.583170
vn -0.679061 0.000000 0.735812
vn -0.812133 0.000000 0.583170
vn 0.782779 0.000000 0.624266
vn 1.000000 0.000000 -0.025440
vn 0.782779 0.000000 0.624266
vn 1.000000 0.000000 -0.025440
vn 1.000000 0.000000 -0.025440
vn 0.782779 0.000000 0.624266
vn 1.000000 0.000000 -0.025440
vn 0.896282 0.000000 -0.446184
vn 1.000000 0.000000 -0.025440
vn 0.896282 0.000000 -0.446184
vn 0.896282 0.000000 -0.446184
vn 1.000000 0.000000 -0.025440
vn 0.896282 0.000000 -0.446184
vn 0.896282 0.000000 -0.446184
vn 0.821918 0.000000 -0.569472
vn 0.896282 0.000000 -0.446184
vn 0.821918 0.000000 -0.569472
vn 0.821918 0.000000 -0.569472
vn 0.000000 0.000000 1.000000
vn 0.000000 0.000000 1.000000
vn 0.000000 0.000000 1.000000
vn 0.000000 0.000000 1.000000
vn 0.000000 0.000000 1.000000
vn 0.000000 0.000000 1.000000
vn 1.000000 0.000000 0.000000
vn 1.000000 0.000000 0.000000
vn 1.000000 0.000000 0.000000
vn 1.000000 0.000000 0.000000
vn 1.000000 0.000000 0.000000
vn 1.000000 0.000000 0.000000
vn 0.000000 0.000000 -1.000000
vn 0.000000 0.000000 -1.000000
vn 0.000000 0.000000 -1.000000
vn 0.000000 0.000000 -1.000000
vn 0.000000 0.000000 -1.000000
vn 0.000000 0.000000 -1.000000
vn 0.000000 1.000000 0.000000
vn 0.000000 1.000000 0.000000
vn 0.000000 1.000000 0.000000
vn 0.000000 1.000000 0.000000
vn 0.000000 1.000000 0.000000
vn 0.000000 1.000000 0.000000
vn 0.000000 1.000000 0.000000
vn 0.000000 1.000000 0.000000
vn 0.000000 1.000000 0.000000
vn 0.000000 1.000000 0.000000
vn 0.000000 1.000000 0.000000
vn 0.000000 1.000000 0.000000
vn 0.000000 1.000000 0.000000
vn 0.000000 1.000000 0.000000
vn 0.000000 1.000000 0.000000
vn 0.000000 1.000000 0.000000
vn 0.000000 1.000000 0.000000
vn 0.000000 1.000000 0.000000
vn 0.000000 1.000000 0.000000
vn 0.000000 1.000000 0.000000
vn 0.000000 1.000000 0.000000
vn 0.000000 1.000000 0.000000
vn 0.000000 1.000000 0.000000
vn 0.000000 1.000000 0.000000
vn 0.000000 1.000000 0.000000
vn 0.000000 1.000000 0.000000
vn 0.000000 1.000000 0.000000
vn 0.000000 1.000000 0.000000
vn 0.000000 1.000000 0.000000
vn 0.000000 1.000000 0.000000
vn 0.000000 1.000000 0.000000
vn 0.000000 1.000000 0.000000
vn 0.000000 1.000000 0.000000
vn 0.000000 1.000000 0.000000
vn 0.000000 1.000000 0.000000
vn 0.000000 1.000000 0.000000
vn 0.000000 1.000000 0.000000
vn 0.000000 1.000000 0.000000
vn 0.000000 1.000000 0.000000
vn 0.000000 1.000000 0.000000
vn 0.000000 1.000000 0.000000
vn 0.000000 1.000000 0.000000
vn 0.000000 1.000000 0.000000
vn 0.000000 1.000000 0.000000
vn 0.000000 1.000000 0.000000
vn 0.618395 0.000000 -0.786693
vn 0.618395 0.000000 -0.786693
vn 0.379648 0.000000 -0.925636
vn 0.379648 0.000000 -0.925636
vn 0.618395 0.000000 -0.786693
vn 0.379648 0.000000 -0.925636
vn 0.379648 0.000000 -0.925636
vn 0.379648 0.000000 -0.925636
vn -0.401174 0.000000 -0.915851
vn -0.401174 0.000000 -0.915851
vn 0.379648 0.000000 -0.925636
vn -0.401174 0.000000 -0.915851
vn -0.401174 0.000000 -0.915851
vn -0.401174 0.000000 -0.915851
vn -0.978474 0.000000 -0.207436
vn -0.401174 0.000000 -0.915851
vn -0.978474 0.000000 -0.207436
vn -0.978474 0.000000 -0.207436
mtllib dub_gold_shiny_01.mtl
g dub_gold_shiny_01
usemtl dub_gold_shiny_01
f 3/3/3 2/2/2 1/1/1
f 6/6/6 5/5/5 4/4/4
f 9/9/9 8/8/8 7/7/7
f 12/12/12 11/11/11 10/10/10
f 15/15/15 14/14/14 13/13/13
f 18/18/18 17/17/17 16/16/16
f 21/21/21 20/20/20 19/19/19
f 24/24/24 23/23/23 22/22/22
f 27/27/27 26/26/26 25/25/25
f 30/30/30 29/29/29 28/28/28
f 33/33/33 32/32/32 31/31/31
f 36/36/36 35/35/35 34/34/34
f 39/39/39 38/38/38 37/37/37
f 42/42/42 41/41/41 40/40/40
f 45/45/45 44/44/44 43/43/43
mtllib dub_gold_shiny_01.mtl
g dub_gold_shiny_01
usemtl dub_gold_shiny_01
f 48/48/48 47/47/47 46/46/46
f 51/51/51 50/50/50 49/49/49
f 54/54/54 53/53/53 52/52/52
f 57/57/57 56/56/56 55/55/55
f 60/60/60 59/59/59 58/58/58
f 63/63/63 62/62/62 61/61/61
f 66/66/66 65/65/65 64/64/64
f 69/69/69 68/68/68 67/67/67
f 72/72/72 71/71/71 70/70/70
f 75/75/75 74/74/74 73/73/73
f 78/78/78 77/77/77 76/76/76
f 81/81/81 80/80/80 79/79/79
f 84/84/84 83/83/83 82/82/82
f 87/87/87 86/86/86 85/85/85
f 90/90/90 89/89/89 88/88/88
f 93/93/93 92/92/92 91/91/91
f 96/96/96 95/95/95 94/94/94
f 99/99/99 98/98/98 97/97/97
f 102/102/102 101/101/101 100/100/100
f 105/105/105 104/104/104 103/103/103
f 108/108/108 107/107/107 106/106/106
f 111/111/111 110/110/110 109/109/109
f 114/114/114 113/113/113 112/112/112
f 117/117/117 116/116/116 115/115/115
f 120/120/120 119/119/119 118/118/118
f 123/123/123 122/122/122 121/121/121
f 126/126/126 125/125/125 124/124/124
f 129/129/129 128/128/128 127/127/127
f 132/132/132 131/131/131 130/130/130
f 135/135/135 134/134/134 133/133/133
f 138/138/138 137/137/137 136/136/136
f 141/141/141 140/140/140 139/139/139
f 144/144/144 143/143/143 142/142/142
f 147/147/147 146/146/146 145/145/145
f 150/150/150 149/149/149 148/148/148
f 153/153/153 152/152/152 151/151/151
f 156/156/156 155/155/155 154/154/154
f 159/159/159 158/158/158 157/157/157
f 162/162/162 161/161/161 160/160/160
f 165/165/165 164/164/164 163/163/163
f 168/168/168 167/167/167 166/166/166
f 171/171/171 170/170/170 169/169/169
f 174/174/174 173/173/173 172/172/172
f 177/177/177 176/176/176 175/175/175
f 180/180/180 179/179/179 178/178/178
f 183/183/183 182/182/182 181/181/181
f 186/186/186 185/185/185 184/184/184
f 189/189/189 188/188/188 187/187/187
f 192/192/192 191/191/191 190/190/190
