# Generated by Wraith - Game extraction tools
# Please credit DTZxPorter for using it!

v 0.000000 -1.055647 13.928953
v 0.536595 -1.055647 11.076822
v -0.536595 -1.055647 11.076822
v 0.536595 -1.055647 11.076822
v 1.148021 -1.055647 9.976684
v -0.536595 -1.055647 11.076822
v 1.148021 -1.055647 9.976684
v -1.148011 -1.055647 9.976684
v -0.536595 -1.055647 11.076822
v -1.148011 -1.055647 9.976684
v 1.148021 -1.055647 9.976684
v 1.148505 -1.055647 9.031194
v -1.148505 -1.055647 9.031194
v -1.148011 -1.055647 9.976684
v 1.148505 -1.055647 9.031194
v 1.148505 -1.055647 9.031194
v 0.664388 -1.055647 7.536106
v -1.148505 -1.055647 9.031194
v 0.664388 -1.055647 7.536106
v -0.664378 -1.055647 7.536106
v -1.148505 -1.055647 9.031194
v -0.664378 -1.055647 7.536106
v 0.664388 -1.055647 7.536106
v 0.566710 -1.055647 -0.601769
v -0.566710 -1.055647 -0.601769
v -0.664378 -1.055647 7.536106
v 0.566710 -1.055647 -0.601769
vt 0.741699 0.693848
vt 0.761230 0.590820
vt 0.721680 0.590820
vt 0.761230 0.590820
vt 0.782715 0.550781
vt 0.721680 0.590820
vt 0.782715 0.550781
vt 0.700195 0.550781
vt 0.721680 0.590820
vt 0.700195 0.550781
vt 0.782715 0.550781
vt 0.783203 0.516846
vt 0.699707 0.516846
vt 0.700195 0.550781
vt 0.783203 0.516846
vt 0.783203 0.516846
vt 0.766602 0.461914
vt 0.699707 0.516846
vt 0.766602 0.461914
vt 0.716797 0.461914
vt 0.699707 0.516846
vt 0.716797 0.461914
vt 0.766602 0.461914
vt 0.763184 0.151855
vt 0.719727 0.151855
vt 0.716797 0.461914
vt 0.763184 0.151855
vn 0.000000 -1.000000 0.000000
vn 0.000000 -1.000000 0.000000
vn 0.000000 -1.000000 0.000000
vn 0.000000 -1.000000 0.000000
vn 0.000000 -1.000000 0.000000
vn 0.000000 -1.000000 0.000000
vn 0.000000 -1.000000 0.000000
vn 0.000000 -1.000000 0.000000
vn 0.000000 -1.000000 0.000000
vn 0.000000 -1.000000 0.000000
vn 0.000000 -1.000000 0.000000
vn 0.000000 -1.000000 0.000000
vn 0.000000 -1.000000 0.000000
vn 0.000000 -1.000000 0.000000
vn 0.000000 -1.000000 0.000000
vn 0.000000 -1.000000 0.000000
vn 0.000000 -1.000000 0.000000
vn 0.000000 -1.000000 0.000000
vn 0.000000 -1.000000 0.000000
vn 0.000000 -1.000000 0.000000
vn 0.000000 -1.000000 0.000000
vn 0.000000 -1.000000 0.000000
vn 0.000000 -1.000000 0.000000
vn 0.000000 -1.000000 0.000000
vn 0.000000 -1.000000 0.000000
vn 0.000000 -1.000000 0.000000
vn 0.000000 -1.000000 0.000000
mtllib mtl_nt_2020_wall_clock_01.mtl
g mtl_nt_2020_wall_clock_01
usemtl mtl_nt_2020_wall_clock_01
f 3/3/3 2/2/2 1/1/1
f 6/6/6 5/5/5 4/4/4
f 9/9/9 8/8/8 7/7/7
f 12/12/12 11/11/11 10/10/10
f 15/15/15 14/14/14 13/13/13
f 18/18/18 17/17/17 16/16/16
f 21/21/21 20/20/20 19/19/19
f 24/24/24 23/23/23 22/22/22
f 27/27/27 26/26/26 25/25/25
