# Generated by Wraith - Game extraction tools
# Please credit DTZxPorter for using it!

v -44.617805 -25.760086 271.050171
v -44.617805 25.760092 271.050171
v 0.000005 51.520184 271.050171
v 0.000005 51.520184 271.050171
v 44.617805 -25.760094 271.050171
v -44.617805 -25.760086 271.050171
v 44.617805 -25.760094 271.050171
v 0.000000 -51.520184 271.050171
v -44.617805 -25.760086 271.050171
v 0.000005 51.520184 271.050171
v 44.617805 25.760086 271.050171
v 44.617805 -25.760094 271.050171
v 20.418222 -11.788461 22.123587
v 0.000000 -23.576914 22.123587
v 0.876999 -44.601334 74.336395
v 40.207928 -21.893621 74.336388
v 20.418222 -11.788461 22.123587
v 0.876999 -44.601334 74.336395
v 40.207928 -21.893621 74.336388
v 0.876999 -44.601334 74.336395
v 48.430012 -28.063665 182.445618
v 40.207928 -21.893621 74.336388
v 48.430012 -28.063665 182.445618
v 48.430012 27.520926 182.445618
v 40.207928 23.521795 74.336388
v 40.207928 -21.893621 74.336388
v 48.430012 27.520926 182.445618
v 40.207928 23.521795 74.336388
v 20.418222 11.788452 22.123581
v 40.207928 -21.893621 74.336388
v 20.418222 11.788452 22.123581
v 20.418222 -11.788461 22.123587
v 40.207928 -21.893621 74.336388
v 0.876999 -44.601334 74.336395
v 0.292334 -55.855961 182.445618
v 48.430012 -28.063665 182.445618
v 44.617805 -25.760094 271.050171
v 48.430012 -28.063665 182.445618
v 0.292334 -55.855961 182.445618
v 48.430012 -28.063665 182.445618
v 44.617805 -25.760094 271.050171
v 48.430012 27.520926 182.445618
v 44.617805 -25.760094 271.050171
v 44.617805 25.760086 271.050171
v 48.430012 27.520926 182.445618
v 0.876999 -44.601334 74.336395
v -38.453930 -21.893612 74.336388
v 0.292334 -55.855961 182.445618
v -38.453930 -21.893612 74.336388
v -47.845348 -28.063660 182.445618
v 0.292334 -55.855961 182.445618
v 0.000000 -51.520184 271.050171
v 0.292334 -55.855961 182.445618
v -47.845348 -28.063660 182.445618
v 0.000000 -51.520184 271.050171
v 44.617805 -25.760094 271.050171
v 0.292334 -55.855961 182.445618
v 0.876999 -44.601334 74.336395
v 0.000000 -23.576914 22.123587
v -38.453930 -21.893612 74.336388
v 0.000000 -23.576914 22.123587
v -20.418222 -11.788454 22.123587
v -38.453930 -21.893612 74.336388
v -44.617805 -25.760086 271.050171
v 0.000000 -51.520184 271.050171
v -47.845348 -28.063660 182.445618
v -44.617805 -25.760086 271.050171
v -47.845348 -28.063660 182.445618
v -47.845348 27.520933 182.445618
v -44.617805 25.760092 271.050171
v -44.617805 -25.760086 271.050171
v -47.845348 27.520933 182.445618
v 0.000005 51.520184 271.050171
v -44.617805 25.760092 271.050171
v -47.845348 27.520933 182.445618
v 0.292336 55.313232 182.445618
v 0.000005 51.520184 271.050171
v -47.845348 27.520933 182.445618
v 44.617805 25.760086 271.050171
v 0.000005 51.520184 271.050171
v 0.292336 55.313232 182.445618
v 48.430012 27.520926 182.445618
v 44.617805 25.760086 271.050171
v 0.292336 55.313232 182.445618
v 40.207928 23.521795 74.336388
v 48.430012 27.520926 182.445618
v 0.292336 55.313232 182.445618
v -47.845348 -28.063660 182.445618
v -38.453930 -21.893612 74.336388
v -47.845348 27.520933 182.445618
v -38.453930 -21.893612 74.336388
v -38.453930 23.521805 74.336388
v -47.845348 27.520933 182.445618
v -47.845348 27.520933 182.445618
v -38.453930 23.521805 74.336388
v 0.292336 55.313232 182.445618
v -38.453930 23.521805 74.336388
v 0.877004 46.229511 74.336388
v 0.292336 55.313232 182.445618
v 0.877004 46.229511 74.336388
v 40.207928 23.521795 74.336388
v 0.292336 55.313232 182.445618
v 40.207928 23.521795 74.336388
v 0.877004 46.229511 74.336388
v 20.418222 11.788452 22.123581
v 0.877004 46.229511 74.336388
v 0.000003 23.576908 22.123587
v 20.418222 11.788452 22.123581
v -38.453930 23.521805 74.336388
v -38.453930 -21.893612 74.336388
v -20.418222 11.788458 22.123581
v -38.453930 -21.893612 74.336388
v -20.418222 -11.788454 22.123587
v -20.418222 11.788458 22.123581
v 0.877004 46.229511 74.336388
v -38.453930 23.521805 74.336388
v 0.000003 23.576908 22.123587
v -38.453930 23.521805 74.336388
v -20.418222 11.788458 22.123581
v 0.000003 23.576908 22.123587
v -14.425135 8.328350 11.757520
v -20.418222 11.788458 22.123581
v -20.418222 -11.788454 22.123587
v -14.425135 -8.328350 11.757520
v -14.425135 8.328350 11.757520
v -20.418222 -11.788454 22.123587
v -14.425135 8.328350 11.757520
v -14.425135 -8.328350 11.757520
v -18.157139 10.483022 -0.294180
v -14.425135 -8.328350 11.757520
v -18.157139 -10.483019 -0.294180
v -18.157139 10.483022 -0.294180
v -14.425135 -8.328350 11.757520
v 0.000000 -16.656702 11.757520
v -18.157139 -10.483019 -0.294180
v 0.000000 -16.656702 11.757520
v 0.000000 -20.966045 -0.294180
v -18.157139 -10.483019 -0.294180
v 0.000000 -16.656702 11.757520
v 14.425135 -8.328352 11.757520
v 0.000000 -20.966045 -0.294180
v 14.425135 -8.328352 11.757520
v 18.157139 -10.483024 -0.294180
v 0.000000 -20.966045 -0.294180
v -14.425135 -8.328350 11.757520
v -20.418222 -11.788454 22.123587
v 0.000000 -23.576914 22.123587
v 0.000000 -16.656702 11.757520
v -14.425135 -8.328350 11.757520
v 0.000000 -23.576914 22.123587
v 0.000000 -16.656702 11.757520
v 0.000000 -23.576914 22.123587
v 20.418222 -11.788461 22.123587
v 14.425135 -8.328352 11.757520
v 0.000000 -16.656702 11.757520
v 20.418222 -11.788461 22.123587
v 14.425135 -8.328352 11.757520
v 20.418222 -11.788461 22.123587
v 20.418222 11.788452 22.123581
v 14.425135 8.328347 11.757520
v 14.425135 -8.328352 11.757520
v 20.418222 11.788452 22.123581
v 14.425135 -8.328352 11.757520
v 14.425135 8.328347 11.757520
v 18.157139 -10.483024 -0.294180
v 14.425135 8.328347 11.757520
v 18.157139 10.483019 -0.294180
v 18.157139 -10.483024 -0.294180
v 14.425135 8.328347 11.757520
v 0.000003 16.656700 11.757520
v 18.157139 10.483019 -0.294180
v 0.000003 16.656700 11.757520
v 0.000003 20.966042 -0.294180
v 18.157139 10.483019 -0.294180
v 14.425135 8.328347 11.757520
v 20.418222 11.788452 22.123581
v 0.000003 23.576908 22.123587
v 0.000003 16.656700 11.757520
v 14.425135 8.328347 11.757520
v 0.000003 23.576908 22.123587
v 0.000003 16.656700 11.757520
v 0.000003 23.576908 22.123587
v -20.418222 11.788458 22.123581
v -14.425135 8.328350 11.757520
v 0.000003 16.656700 11.757520
v -20.418222 11.788458 22.123581
v 0.000003 16.656700 11.757520
v -14.425135 8.328350 11.757520
v 0.000003 20.966042 -0.294180
v -14.425135 8.328350 11.757520
v -18.157139 10.483022 -0.294180
v 0.000003 20.966042 -0.294180
vt 0.124390 0.446777
vt 0.124390 0.696777
vt 0.341064 0.821777
vt 0.341064 0.821777
vt 0.557617 0.446777
vt 0.124390 0.446777
vt 0.557617 0.446777
vt 0.341064 0.321289
vt 0.124390 0.446777
vt 0.341064 0.821777
vt 0.557617 0.696777
vt 0.557617 0.446777
vt -1.934570 -0.393555
vt -2.197266 -0.393555
vt -2.304688 -0.156250
vt -1.799805 -0.156250
vt -1.934570 -0.393555
vt -2.304688 -0.156250
vt -1.799805 -0.156250
vt -2.304688 -0.156250
vt -1.799805 0.336914
vt -1.799805 -0.156250
vt -1.799805 0.336914
vt -1.293945 0.336914
vt -1.293945 -0.156250
vt -1.799805 -0.156250
vt -1.293945 0.336914
vt -1.293945 -0.156250
vt -1.424805 -0.398438
vt -1.799805 -0.156250
vt -1.424805 -0.398438
vt -1.687500 -0.398438
vt -1.799805 -0.156250
vt -2.304688 -0.156250
vt -2.304688 0.336914
vt -1.799805 0.336914
vt -1.799805 0.837402
vt -1.799805 0.336914
vt -2.304688 0.336914
vt -1.799805 0.336914
vt -1.799805 0.837402
vt -1.293945 0.336914
vt -1.799805 0.837402
vt -1.293945 0.837402
vt -1.293945 0.336914
vt -2.304688 -0.156250
vt -2.810547 -0.156250
vt -2.304688 0.336914
vt -2.810547 -0.156250
vt -2.810547 0.336914
vt -2.304688 0.336914
vt -2.304688 0.837402
vt -2.304688 0.336914
vt -2.810547 0.336914
vt -2.304688 0.837402
vt -1.799805 0.837402
vt -2.304688 0.336914
vt -2.304688 -0.156250
vt -2.431641 -0.390625
vt -2.810547 -0.156250
vt -2.431641 -0.390625
vt -2.693359 -0.390625
vt -2.810547 -0.156250
vt -2.810547 0.837402
vt -2.304688 0.837402
vt -2.810547 0.336914
vt -2.810547 0.837402
vt -2.810547 0.336914
vt -3.318359 0.336914
vt -3.318359 0.837402
vt -2.810547 0.837402
vt -3.318359 0.336914
vt -3.824219 0.837402
vt -3.318359 0.837402
vt -3.318359 0.336914
vt -3.824219 0.336914
vt -3.824219 0.837402
vt -3.318359 0.336914
vt -4.328125 0.837402
vt -3.824219 0.837402
vt -3.824219 0.336914
vt -4.328125 0.336914
vt -4.328125 0.837402
vt -3.824219 0.336914
vt -4.328125 -0.156250
vt -4.328125 0.336914
vt -3.824219 0.336914
vt -2.810547 0.336914
vt -2.810547 -0.156250
vt -3.318359 0.336914
vt -2.810547 -0.156250
vt -3.318359 -0.156250
vt -3.318359 0.336914
vt -3.318359 0.336914
vt -3.318359 -0.156250
vt -3.824219 0.336914
vt -3.318359 -0.156250
vt -3.824219 -0.156250
vt -3.824219 0.336914
vt -3.824219 -0.156250
vt -4.328125 -0.156250
vt -3.824219 0.336914
vt -4.328125 -0.156250
vt -3.824219 -0.156250
vt -4.203125 -0.399414
vt -3.824219 -0.156250
vt -3.941406 -0.399414
vt -4.203125 -0.399414
vt -3.318359 -0.156250
vt -2.810547 -0.156250
vt -3.187500 -0.391602
vt -2.810547 -0.156250
vt -2.923828 -0.391602
vt -3.187500 -0.391602
vt -3.824219 -0.156250
vt -3.318359 -0.156250
vt -3.689453 -0.395508
vt -3.318359 -0.156250
vt -3.425781 -0.395508
vt -3.689453 -0.395508
vt -1.068359 0.104004
vt -1.068359 0.172852
vt -0.929688 0.172852
vt -0.929688 0.104004
vt -1.068359 0.104004
vt -0.929688 0.172852
vt -1.068359 0.104004
vt -0.929688 0.104004
vt -1.068359 0.015625
vt -0.929688 0.104004
vt -0.929688 0.015625
vt -1.068359 0.015625
vt -0.929688 0.104004
vt -0.791016 0.104004
vt -0.929688 0.015625
vt -0.791016 0.104004
vt -0.791016 0.015625
vt -0.929688 0.015625
vt -0.791016 0.104004
vt -0.652344 0.104004
vt -0.791016 0.015625
vt -0.652344 0.104004
vt -0.652344 0.015625
vt -0.791016 0.015625
vt -0.929688 0.104004
vt -0.929688 0.172852
vt -0.791016 0.172852
vt -0.791016 0.104004
vt -0.929688 0.104004
vt -0.791016 0.172852
vt -0.791016 0.104004
vt -0.791016 0.172852
vt -0.652344 0.172852
vt -0.652344 0.104004
vt -0.791016 0.104004
vt -0.652344 0.172852
vt -0.652344 0.104004
vt -0.652344 0.172852
vt -0.513672 0.172852
vt -0.513184 0.104004
vt -0.652344 0.104004
vt -0.513672 0.172852
vt -0.652344 0.104004
vt -0.513184 0.104004
vt -0.652344 0.015625
vt -0.513184 0.104004
vt -0.513184 0.015625
vt -0.652344 0.015625
vt -0.513184 0.104004
vt -0.374756 0.104004
vt -0.513184 0.015625
vt -0.374756 0.104004
vt -0.374756 0.015625
vt -0.513184 0.015625
vt -0.513184 0.104004
vt -0.513672 0.172852
vt -0.374756 0.172852
vt -0.374756 0.104004
vt -0.513184 0.104004
vt -0.374756 0.172852
vt -0.374756 0.104004
vt -0.374756 0.172852
vt -1.068359 0.172852
vt -1.068359 0.104004
vt -0.374756 0.104004
vt -1.068359 0.172852
vt -0.374756 0.104004
vt -1.068359 0.104004
vt -0.374756 0.015625
vt -1.068359 0.104004
vt -1.068359 0.015625
vt -0.374756 0.015625
vn -0.166341 -0.093933 0.982387
vn -0.166341 0.093933 0.982387
vn -0.003914 0.189824 0.982387
vn -0.003914 0.189824 0.982387
vn 0.166341 -0.093933 0.982387
vn -0.166341 -0.093933 0.982387
vn 0.166341 -0.093933 0.982387
vn -0.003914 -0.189824 0.982387
vn -0.166341 -0.093933 0.982387
vn -0.003914 0.189824 0.982387
vn 0.166341 0.093933 0.982387
vn 0.166341 -0.093933 0.982387
vn 0.675147 -0.348337 0.649706
vn 0.107632 -0.753425 0.649706
vn 0.060665 -0.518591 0.853229
vn 0.467710 -0.242661 0.851272
vn 0.675147 -0.348337 0.649706
vn 0.060665 -0.518591 0.853229
vn 0.467710 -0.242661 0.851272
vn 0.060665 -0.518591 0.853229
vn 0.238748 -0.133072 0.962818
vn 0.467710 -0.242661 0.851272
vn 0.238748 -0.133072 0.962818
vn 0.238748 0.131115 0.962818
vn 0.465753 0.248532 0.849315
vn 0.467710 -0.242661 0.851272
vn 0.238748 0.131115 0.962818
vn 0.465753 0.248532 0.849315
vn 0.675147 0.348337 0.649706
vn 0.467710 -0.242661 0.851272
vn 0.675147 0.348337 0.649706
vn 0.675147 -0.348337 0.649706
vn 0.467710 -0.242661 0.851272
vn 0.060665 -0.518591 0.853229
vn 0.013699 -0.270059 0.962818
vn 0.238748 -0.133072 0.962818
vn 0.166341 -0.093933 0.982387
vn 0.238748 -0.133072 0.962818
vn 0.013699 -0.270059 0.962818
vn 0.238748 -0.133072 0.962818
vn 0.166341 -0.093933 0.982387
vn 0.238748 0.131115 0.962818
vn 0.166341 -0.093933 0.982387
vn 0.166341 0.093933 0.982387
vn 0.238748 0.131115 0.962818
vn 0.060665 -0.518591 0.853229
vn -0.461840 -0.242661 0.853229
vn 0.013699 -0.270059 0.962818
vn -0.461840 -0.242661 0.853229
vn -0.236791 -0.133072 0.962818
vn 0.013699 -0.270059 0.962818
vn -0.003914 -0.189824 0.982387
vn 0.013699 -0.270059 0.962818
vn -0.236791 -0.133072 0.962818
vn -0.003914 -0.189824 0.982387
vn 0.166341 -0.093933 0.982387
vn 0.013699 -0.270059 0.962818
vn 0.060665 -0.518591 0.853229
vn 0.107632 -0.753425 0.649706
vn -0.461840 -0.242661 0.853229
vn 0.107632 -0.753425 0.649706
vn -0.675147 -0.348337 0.649706
vn -0.461840 -0.242661 0.853229
vn -0.166341 -0.093933 0.982387
vn -0.003914 -0.189824 0.982387
vn -0.236791 -0.133072 0.962818
vn -0.166341 -0.093933 0.982387
vn -0.236791 -0.133072 0.962818
vn -0.236791 0.131115 0.962818
vn -0.166341 0.093933 0.982387
vn -0.166341 -0.093933 0.982387
vn -0.236791 0.131115 0.962818
vn -0.003914 0.189824 0.982387
vn -0.166341 0.093933 0.982387
vn -0.236791 0.131115 0.962818
vn 0.013699 0.270059 0.962818
vn -0.003914 0.189824 0.982387
vn -0.236791 0.131115 0.962818
vn 0.166341 0.093933 0.982387
vn -0.003914 0.189824 0.982387
vn 0.013699 0.270059 0.962818
vn 0.238748 0.131115 0.962818
vn 0.166341 0.093933 0.982387
vn 0.013699 0.270059 0.962818
vn 0.465753 0.248532 0.849315
vn 0.238748 0.131115 0.962818
vn 0.013699 0.270059 0.962818
vn -0.236791 -0.133072 0.962818
vn -0.461840 -0.242661 0.853229
vn -0.236791 0.131115 0.962818
vn -0.461840 -0.242661 0.853229
vn -0.461840 0.248532 0.851272
vn -0.236791 0.131115 0.962818
vn -0.236791 0.131115 0.962818
vn -0.461840 0.248532 0.851272
vn 0.013699 0.270059 0.962818
vn -0.461840 0.248532 0.851272
vn 0.060665 0.522505 0.849315
vn 0.013699 0.270059 0.962818
vn 0.060665 0.522505 0.849315
vn 0.465753 0.248532 0.849315
vn 0.013699 0.270059 0.962818
vn 0.465753 0.248532 0.849315
vn 0.060665 0.522505 0.849315
vn 0.675147 0.348337 0.649706
vn 0.060665 0.522505 0.849315
vn -0.107632 0.753425 0.649706
vn 0.675147 0.348337 0.649706
vn -0.461840 0.248532 0.851272
vn -0.461840 -0.242661 0.853229
vn -0.675147 0.348337 0.649706
vn -0.461840 -0.242661 0.853229
vn -0.675147 -0.348337 0.649706
vn -0.675147 0.348337 0.649706
vn 0.060665 0.522505 0.849315
vn -0.461840 0.248532 0.851272
vn -0.107632 0.753425 0.649706
vn -0.461840 0.248532 0.851272
vn -0.675147 0.348337 0.649706
vn -0.107632 0.753425 0.649706
vn -0.759295 0.389432 0.522505
vn -0.675147 0.348337 0.649706
vn -0.675147 -0.348337 0.649706
vn -0.759295 -0.389432 0.522505
vn -0.759295 0.389432 0.522505
vn -0.675147 -0.348337 0.649706
vn -0.759295 0.389432 0.522505
vn -0.759295 -0.389432 0.522505
vn -0.882583 0.454012 0.115460
vn -0.759295 -0.389432 0.522505
vn -0.882583 -0.454012 0.115460
vn -0.882583 0.454012 0.115460
vn -0.759295 -0.389432 0.522505
vn 0.125245 -0.843444 0.522505
vn -0.882583 -0.454012 0.115460
vn 0.125245 -0.843444 0.522505
vn 0.144814 -0.982387 0.115460
vn -0.882583 -0.454012 0.115460
vn 0.125245 -0.843444 0.522505
vn 0.759295 -0.389432 0.522505
vn 0.144814 -0.982387 0.115460
vn 0.759295 -0.389432 0.522505
vn 0.882583 -0.454012 0.115460
vn 0.144814 -0.982387 0.115460
vn -0.759295 -0.389432 0.522505
vn -0.675147 -0.348337 0.649706
vn 0.107632 -0.753425 0.649706
vn 0.125245 -0.843444 0.522505
vn -0.759295 -0.389432 0.522505
vn 0.107632 -0.753425 0.649706
vn 0.125245 -0.843444 0.522505
vn 0.107632 -0.753425 0.649706
vn 0.675147 -0.348337 0.649706
vn 0.759295 -0.389432 0.522505
vn 0.125245 -0.843444 0.522505
vn 0.675147 -0.348337 0.649706
vn 0.759295 -0.389432 0.522505
vn 0.675147 -0.348337 0.649706
vn 0.675147 0.348337 0.649706
vn 0.759295 0.389432 0.522505
vn 0.759295 -0.389432 0.522505
vn 0.675147 0.348337 0.649706
vn 0.759295 -0.389432 0.522505
vn 0.759295 0.389432 0.522505
vn 0.882583 -0.454012 0.115460
vn 0.759295 0.389432 0.522505
vn 0.882583 0.454012 0.115460
vn 0.882583 -0.454012 0.115460
vn 0.759295 0.389432 0.522505
vn -0.125245 0.843444 0.522505
vn 0.882583 0.454012 0.115460
vn -0.125245 0.843444 0.522505
vn -0.144814 0.982387 0.115460
vn 0.882583 0.454012 0.115460
vn 0.759295 0.389432 0.522505
vn 0.675147 0.348337 0.649706
vn -0.107632 0.753425 0.649706
vn -0.125245 0.843444 0.522505
vn 0.759295 0.389432 0.522505
vn -0.107632 0.753425 0.649706
vn -0.125245 0.843444 0.522505
vn -0.107632 0.753425 0.649706
vn -0.675147 0.348337 0.649706
vn -0.759295 0.389432 0.522505
vn -0.125245 0.843444 0.522505
vn -0.675147 0.348337 0.649706
vn -0.125245 0.843444 0.522505
vn -0.759295 0.389432 0.522505
vn -0.144814 0.982387 0.115460
vn -0.759295 0.389432 0.522505
vn -0.882583 0.454012 0.115460
vn -0.144814 0.982387 0.115460
mtllib mtl_p6_foliage_hedge2.mtl
g mtl_p6_foliage_hedge2
usemtl mtl_p6_foliage_hedge2
f 3/3/3 2/2/2 1/1/1
f 6/6/6 5/5/5 4/4/4
f 9/9/9 8/8/8 7/7/7
f 12/12/12 11/11/11 10/10/10
f 15/15/15 14/14/14 13/13/13
f 18/18/18 17/17/17 16/16/16
f 21/21/21 20/20/20 19/19/19
f 24/24/24 23/23/23 22/22/22
f 27/27/27 26/26/26 25/25/25
f 30/30/30 29/29/29 28/28/28
f 33/33/33 32/32/32 31/31/31
f 36/36/36 35/35/35 34/34/34
f 39/39/39 38/38/38 37/37/37
f 42/42/42 41/41/41 40/40/40
f 45/45/45 44/44/44 43/43/43
f 48/48/48 47/47/47 46/46/46
f 51/51/51 50/50/50 49/49/49
f 54/54/54 53/53/53 52/52/52
f 57/57/57 56/56/56 55/55/55
f 60/60/60 59/59/59 58/58/58
f 63/63/63 62/62/62 61/61/61
f 66/66/66 65/65/65 64/64/64
f 69/69/69 68/68/68 67/67/67
f 72/72/72 71/71/71 70/70/70
f 75/75/75 74/74/74 73/73/73
f 78/78/78 77/77/77 76/76/76
f 81/81/81 80/80/80 79/79/79
f 84/84/84 83/83/83 82/82/82
f 87/87/87 86/86/86 85/85/85
f 90/90/90 89/89/89 88/88/88
f 93/93/93 92/92/92 91/91/91
f 96/96/96 95/95/95 94/94/94
f 99/99/99 98/98/98 97/97/97
f 102/102/102 101/101/101 100/100/100
f 105/105/105 104/104/104 103/103/103
f 108/108/108 107/107/107 106/106/106
f 111/111/111 110/110/110 109/109/109
f 114/114/114 113/113/113 112/112/112
f 117/117/117 116/116/116 115/115/115
f 120/120/120 119/119/119 118/118/118
f 123/123/123 122/122/122 121/121/121
f 126/126/126 125/125/125 124/124/124
f 129/129/129 128/128/128 127/127/127
f 132/132/132 131/131/131 130/130/130
f 135/135/135 134/134/134 133/133/133
f 138/138/138 137/137/137 136/136/136
f 141/141/141 140/140/140 139/139/139
f 144/144/144 143/143/143 142/142/142
f 147/147/147 146/146/146 145/145/145
f 150/150/150 149/149/149 148/148/148
f 153/153/153 152/152/152 151/151/151
f 156/156/156 155/155/155 154/154/154
f 159/159/159 158/158/158 157/157/157
f 162/162/162 161/161/161 160/160/160
f 165/165/165 164/164/164 163/163/163
f 168/168/168 167/167/167 166/166/166
f 171/171/171 170/170/170 169/169/169
f 174/174/174 173/173/173 172/172/172
f 177/177/177 176/176/176 175/175/175
f 180/180/180 179/179/179 178/178/178
f 183/183/183 182/182/182 181/181/181
f 186/186/186 185/185/185 184/184/184
f 189/189/189 188/188/188 187/187/187
f 192/192/192 191/191/191 190/190/190
