# Generated by Wraith - Game extraction tools
# Please credit DTZxPorter for using it!

v -7.893219 10.252252 20.699518
v -7.893219 10.252252 0.006088
v -7.375344 14.900941 20.699518
v -7.893219 10.252252 0.006088
v -7.375344 14.900941 0.006088
v -7.375344 14.900941 20.699518
v 6.491929 14.900941 20.699518
v 6.491929 10.285869 20.699518
v -7.375344 14.900941 20.699518
v 6.491929 10.285869 20.699518
v -7.893219 10.252252 20.699518
v -7.375344 14.900941 20.699518
v 6.491929 10.285869 0.006086
v 6.491929 10.285869 20.699518
v 6.491929 14.900941 0.006088
v 6.491929 10.285869 20.699518
v 6.491929 14.900941 20.699518
v 6.491929 14.900941 0.006088
v -7.893219 10.252252 0.006088
v 6.491929 10.285869 0.006086
v -7.375344 14.900941 0.006088
v 6.491929 10.285869 0.006086
v 6.491929 14.900941 0.006088
v -7.375344 14.900941 0.006088
v -7.375344 14.900941 20.699518
v -7.375344 14.900941 0.006088
v 6.491929 14.900941 20.699518
v -7.375344 14.900941 0.006088
v 6.491929 14.900941 0.006088
v 6.491929 14.900941 20.699518
v -8.105280 5.642059 20.699518
v -8.105280 5.642059 0.006086
v -7.893219 10.252252 20.699518
v -8.105280 5.642059 0.006086
v -7.893219 10.252252 0.006088
v -7.893219 10.252252 20.699518
v 6.491929 10.285869 20.699518
v 5.974073 4.894769 20.699518
v -7.893219 10.252252 20.699518
v 5.974073 4.894769 20.699518
v -8.105280 5.642059 20.699518
v -7.893219 10.252252 20.699518
v 5.974073 4.894769 0.006088
v 5.974073 4.894769 20.699518
v 6.491929 10.285869 0.006086
v 5.974073 4.894769 20.699518
v 6.491929 10.285869 20.699518
v 6.491929 10.285869 0.006086
v -8.105280 5.642059 0.006086
v 5.974073 4.894769 0.006088
v -7.893219 10.252252 0.006088
v 5.974073 4.894769 0.006088
v 6.491929 10.285869 0.006086
v -7.893219 10.252252 0.006088
v -8.105280 5.642059 20.699518
v -7.474447 -0.068116 18.051165
v -8.105280 5.642059 0.006086
v -7.474447 -0.068116 18.051165
v -7.893219 0.095963 0.006086
v -8.105280 5.642059 0.006086
v 6.392846 -0.068116 18.051165
v -7.474447 -0.068116 18.051165
v 5.974073 4.894769 20.699518
v -7.474447 -0.068116 18.051165
v -8.105280 5.642059 20.699518
v 5.974073 4.894769 20.699518
v 5.974054 0.095963 0.006086
v 6.392846 -0.068116 18.051165
v 5.974073 4.894769 0.006088
v 6.392846 -0.068116 18.051165
v 5.974073 4.894769 20.699518
v 5.974073 4.894769 0.006088
v -8.105280 5.642059 0.006086
v -7.893219 0.095963 0.006086
v 5.974073 4.894769 0.006088
v -7.893219 0.095963 0.006086
v 5.974054 0.095963 0.006086
v 5.974073 4.894769 0.006088
v -7.474447 -5.123137 18.051165
v -7.474447 -5.123137 0.006086
v -7.474447 -0.068116 18.051165
v -7.474447 -5.123137 0.006086
v -7.893219 0.095963 0.006086
v -7.474447 -0.068116 18.051165
v 6.392846 -5.123137 18.051165
v -7.474447 -5.123137 18.051165
v 6.392846 -0.068116 18.051165
v -7.474447 -5.123137 18.051165
v -7.474447 -0.068116 18.051165
v 6.392846 -0.068116 18.051165
v 5.974054 0.095963 0.006086
v 6.392846 -5.123137 0.006086
v 6.392846 -0.068116 18.051165
v 6.392846 -5.123137 0.006086
v 6.392846 -5.123137 18.051165
v 6.392846 -0.068116 18.051165
v -7.893219 0.095963 0.006086
v -7.474447 -5.123137 0.006086
v 5.974054 0.095963 0.006086
v -7.474447 -5.123137 0.006086
v 6.392846 -5.123137 0.006086
v 5.974054 0.095963 0.006086
v -7.146579 -10.527342 18.703892
v -7.474447 -10.512430 0.006086
v -7.474447 -5.123137 18.051165
v -7.474447 -10.512430 0.006086
v -7.474447 -5.123137 0.006086
v -7.474447 -5.123137 18.051165
v 6.720695 -10.527342 18.703892
v -7.146579 -10.527342 18.703892
v 6.392846 -5.123137 18.051165
v -7.146579 -10.527342 18.703892
v -7.474447 -5.123137 18.051165
v 6.392846 -5.123137 18.051165
v 6.392846 -5.123137 0.006086
v 6.392846 -10.512430 0.006086
v 6.392846 -5.123137 18.051165
v 6.392846 -10.512430 0.006086
v 6.720695 -10.527342 18.703892
v 6.392846 -5.123137 18.051165
v -7.474447 -10.512430 0.006086
v 6.392846 -10.512430 0.006086
v -7.474447 -5.123137 0.006086
v 6.392846 -10.512430 0.006086
v 6.392846 -5.123137 0.006086
v -7.474447 -5.123137 0.006086
v 6.720695 -10.527342 18.703892
v 6.392846 -10.512430 0.006086
v -7.146579 -10.527342 18.703892
v 6.392846 -10.512430 0.006086
v -7.474447 -10.512430 0.006086
v -7.146579 -10.527342 18.703892
v -6.818731 -14.972898 20.307014
v -6.818712 -19.106741 0.785083
v -7.146579 -10.527342 18.703892
v -6.818712 -19.106741 0.785083
v -6.818712 -14.676100 -0.153121
v -7.146579 -10.527342 18.703892
v 7.048562 -14.972898 20.307014
v -6.818731 -14.972898 20.307014
v 6.720695 -10.527342 18.703892
v -6.818731 -14.972898 20.307014
v -7.146579 -10.527342 18.703892
v 6.720695 -10.527342 18.703892
v 7.048562 -14.676100 -0.153121
v 7.048562 -19.106741 0.785083
v 6.720695 -10.527342 18.703892
v 7.048562 -19.106741 0.785083
v 7.048562 -14.972898 20.307014
v 6.720695 -10.527342 18.703892
v -6.818712 -19.106741 0.785083
v 7.048562 -19.106741 0.785083
v -6.818712 -14.676100 -0.153121
v 7.048562 -19.106741 0.785083
v 7.048562 -14.676100 -0.153121
v -6.818712 -14.676100 -0.153121
v 7.048562 -14.972898 20.307014
v 7.048562 -19.106741 0.785083
v -6.818731 -14.972898 20.307014
v 7.048562 -19.106741 0.785083
v -6.818712 -19.106741 0.785083
v -6.818731 -14.972898 20.307014
v -7.146579 -10.527342 18.703892
v -6.818712 -14.676100 -0.153121
v 6.720695 -10.527342 18.703892
v -6.818712 -14.676100 -0.153121
v 7.048562 -14.676100 -0.153121
v 6.720695 -10.527342 18.703892
vt 0.001305 0.896179
vt 0.001305 0.604492
vt 0.057892 0.896179
vt 0.001305 0.604492
vt 0.057892 0.604492
vt 0.057892 0.896179
vt 0.609863 0.896362
vt 0.609863 1.000000
vt 0.303467 0.896362
vt 0.609863 1.000000
vt 0.303467 1.000000
vt 0.303467 0.896362
vt 0.609863 1.000000
vt 0.354248 1.000000
vt 0.609863 0.896362
vt 0.354248 1.000000
vt 0.354248 0.896362
vt 0.609863 0.896362
vt 0.303467 1.000000
vt 0.609863 1.000000
vt 0.303467 0.896362
vt 0.609863 1.000000
vt 0.609863 0.896362
vt 0.303467 0.896362
vt 0.058716 0.894409
vt 0.058716 0.606689
vt 0.246216 0.894409
vt 0.058716 0.606689
vt 0.246216 0.606689
vt 0.246216 0.894409
vt 0.001305 0.896179
vt 0.001305 0.604492
vt 0.057892 0.896179
vt 0.001305 0.604492
vt 0.057892 0.604492
vt 0.057892 0.896179
vt 0.609863 0.896362
vt 0.609863 1.000000
vt 0.303467 0.896362
vt 0.609863 1.000000
vt 0.303467 1.000000
vt 0.303467 0.896362
vt 0.609863 1.000000
vt 0.354248 1.000000
vt 0.609863 0.896362
vt 0.354248 1.000000
vt 0.354248 0.896362
vt 0.609863 0.896362
vt 0.303467 1.000000
vt 0.609863 1.000000
vt 0.303467 0.896362
vt 0.609863 1.000000
vt 0.609863 0.896362
vt 0.303467 0.896362
vt 0.001305 0.604492
vt 0.057892 0.604492
vt 0.001305 0.896179
vt 0.057892 0.604492
vt 0.057892 0.896179
vt 0.001305 0.896179
vt 0.609863 1.000000
vt 0.303467 1.000000
vt 0.609863 0.896362
vt 0.303467 1.000000
vt 0.303467 0.896362
vt 0.609863 0.896362
vt 0.609863 1.000000
vt 0.354248 1.000000
vt 0.609863 0.896362
vt 0.354248 1.000000
vt 0.354248 0.896362
vt 0.609863 0.896362
vt 0.303467 0.896362
vt 0.303467 1.000000
vt 0.609863 0.896362
vt 0.303467 1.000000
vt 0.609863 1.000000
vt 0.609863 0.896362
vt 0.254639 0.896179
vt 0.254639 0.604492
vt 0.322998 0.896179
vt 0.254639 0.604492
vt 0.322998 0.604492
vt 0.322998 0.896179
vt 0.302246 0.999400
vt 0.001202 0.999400
vt 0.302246 0.898987
vt 0.001202 0.999400
vt 0.001202 0.898987
vt 0.302246 0.898987
vt 0.302246 0.898987
vt 0.302246 0.999400
vt 0.053131 0.898987
vt 0.302246 0.999400
vt 0.053131 0.999400
vt 0.053131 0.898987
vt 0.001202 0.898987
vt 0.001202 0.999400
vt 0.302246 0.898987
vt 0.001202 0.999400
vt 0.302246 0.999400
vt 0.302246 0.898987
vt 0.254639 0.896179
vt 0.254639 0.604492
vt 0.322998 0.896179
vt 0.254639 0.604492
vt 0.322998 0.604492
vt 0.322998 0.896179
vt 0.302246 0.999400
vt 0.001202 0.999400
vt 0.302246 0.898987
vt 0.001202 0.999400
vt 0.001202 0.898987
vt 0.302246 0.898987
vt 0.302246 0.898987
vt 0.302246 0.999400
vt 0.053131 0.898987
vt 0.302246 0.999400
vt 0.053131 0.999400
vt 0.053131 0.898987
vt 0.001202 0.999400
vt 0.302246 0.999400
vt 0.001202 0.898987
vt 0.302246 0.999400
vt 0.302246 0.898987
vt 0.001202 0.898987
vt 0.499512 0.894409
vt 0.499512 0.606689
vt 0.323730 0.894409
vt 0.499512 0.606689
vt 0.323730 0.606689
vt 0.323730 0.894409
vt 0.251953 0.595947
vt 0.251953 0.298828
vt 0.311768 0.595947
vt 0.251953 0.298828
vt 0.311768 0.298828
vt 0.311768 0.595947
vt 0.924316 1.000000
vt 0.615723 1.000000
vt 0.924316 0.896851
vt 0.615723 1.000000
vt 0.615723 0.896851
vt 0.924316 0.896851
vt 0.924316 0.896851
vt 0.924316 1.000000
vt 0.665527 0.896851
vt 0.924316 1.000000
vt 0.665527 1.000000
vt 0.665527 0.896851
vt 0.615723 1.000000
vt 0.924316 1.000000
vt 0.615723 0.896851
vt 0.924316 1.000000
vt 0.924316 0.896851
vt 0.615723 0.896851
vt 0.501953 0.591553
vt 0.501953 0.300781
vt 0.312500 0.591553
vt 0.501953 0.300781
vt 0.312500 0.300781
vt 0.312500 0.591553
vt 0.312500 0.591553
vt 0.312500 0.300781
vt 0.501953 0.591553
vt 0.312500 0.300781
vt 0.501953 0.300781
vt 0.501953 0.591553
vn -0.994129 0.111546 0.000000
vn -0.994129 0.111546 0.000000
vn -0.994129 0.111546 0.000000
vn -0.994129 0.111546 0.000000
vn -0.994129 0.111546 0.000000
vn -0.994129 0.111546 0.000000
vn 0.000000 0.000000 1.000000
vn 0.000000 0.000000 1.000000
vn 0.000000 0.000000 1.000000
vn 0.000000 0.000000 1.000000
vn 0.000000 0.000000 1.000000
vn 0.000000 0.000000 1.000000
vn 1.000000 0.000000 0.000000
vn 1.000000 0.000000 0.000000
vn 1.000000 0.000000 0.000000
vn 1.000000 0.000000 0.000000
vn 1.000000 0.000000 0.000000
vn 1.000000 0.000000 0.000000
vn 0.000000 0.000000 -1.000000
vn 0.000000 0.000000 -1.000000
vn 0.000000 0.000000 -1.000000
vn 0.000000 0.000000 -1.000000
vn 0.000000 0.000000 -1.000000
vn 0.000000 0.000000 -1.000000
vn 0.000000 1.000000 0.000000
vn 0.000000 1.000000 0.000000
vn 0.000000 1.000000 0.000000
vn 0.000000 1.000000 0.000000
vn 0.000000 1.000000 0.000000
vn 0.000000 1.000000 0.000000
vn -0.998043 0.045010 0.000000
vn -0.998043 0.045010 0.000000
vn -0.998043 0.045010 0.000000
vn -0.998043 0.045010 0.000000
vn -0.998043 0.045010 0.000000
vn -0.998043 0.045010 0.000000
vn 0.000000 0.000000 1.000000
vn 0.000000 0.000000 1.000000
vn 0.000000 0.000000 1.000000
vn 0.000000 0.000000 1.000000
vn 0.000000 0.000000 1.000000
vn 0.000000 0.000000 1.000000
vn 0.996086 -0.095890 0.000000
vn 0.996086 -0.095890 0.000000
vn 0.996086 -0.095890 0.000000
vn 0.996086 -0.095890 0.000000
vn 0.996086 -0.095890 0.000000
vn 0.996086 -0.095890 0.000000
vn 0.000000 0.000000 -1.000000
vn 0.000000 0.000000 -1.000000
vn 0.000000 0.000000 -1.000000
vn 0.000000 0.000000 -1.000000
vn 0.000000 0.000000 -1.000000
vn 0.000000 0.000000 -1.000000
vn -0.996086 -0.076321 0.009785
vn -0.996086 -0.076321 0.009785
vn -0.996086 -0.076321 0.009785
vn -0.996086 -0.076321 0.009785
vn -0.996086 -0.076321 0.009785
vn -0.996086 -0.076321 0.009785
vn -0.011742 -0.446184 0.894325
vn -0.011742 -0.446184 0.894325
vn -0.011742 -0.446184 0.894325
vn -0.011742 -0.446184 0.894325
vn -0.011742 -0.446184 0.894325
vn -0.011742 -0.446184 0.894325
vn 0.998043 0.045010 -0.009785
vn 0.998043 0.045010 -0.009785
vn 0.998043 0.045010 -0.009785
vn 0.998043 0.045010 -0.009785
vn 0.998043 0.045010 -0.009785
vn 0.998043 0.045010 -0.009785
vn 0.000000 0.000000 -1.000000
vn 0.000000 0.000000 -1.000000
vn 0.000000 0.000000 -1.000000
vn 0.000000 0.000000 -1.000000
vn 0.000000 0.000000 -1.000000
vn 0.000000 0.000000 -1.000000
vn -1.000000 -0.041096 0.011742
vn -1.000000 -0.041096 0.011742
vn -1.000000 -0.041096 0.011742
vn -1.000000 -0.041096 0.011742
vn -1.000000 -0.041096 0.011742
vn -1.000000 -0.041096 0.011742
vn 0.000000 0.000000 1.000000
vn 0.000000 0.000000 1.000000
vn 0.000000 0.000000 1.000000
vn 0.000000 0.000000 1.000000
vn 0.000000 0.000000 1.000000
vn 0.000000 0.000000 1.000000
vn 1.000000 0.041096 -0.011742
vn 1.000000 0.041096 -0.011742
vn 1.000000 0.041096 -0.011742
vn 1.000000 0.041096 -0.011742
vn 1.000000 0.041096 -0.011742
vn 1.000000 0.041096 -0.011742
vn 0.000000 0.000000 -1.000000
vn 0.000000 0.000000 -1.000000
vn 0.000000 0.000000 -1.000000
vn 0.000000 0.000000 -1.000000
vn 0.000000 0.000000 -1.000000
vn 0.000000 0.000000 -1.000000
vn -1.000000 -0.029354 0.009785
vn -1.000000 -0.029354 0.009785
vn -1.000000 -0.029354 0.009785
vn -1.000000 -0.029354 0.009785
vn -1.000000 -0.029354 0.009785
vn -1.000000 -0.029354 0.009785
vn 0.000000 0.119374 0.992172
vn 0.000000 0.119374 0.992172
vn 0.000000 0.119374 0.992172
vn 0.000000 0.119374 0.992172
vn 0.000000 0.119374 0.992172
vn 0.000000 0.119374 0.992172
vn 1.000000 0.029354 -0.009785
vn 1.000000 0.029354 -0.009785
vn 1.000000 0.029354 -0.009785
vn 1.000000 0.029354 -0.009785
vn 1.000000 0.029354 -0.009785
vn 1.000000 0.029354 -0.009785
vn 0.000000 0.000000 -1.000000
vn 0.000000 0.000000 -1.000000
vn 0.000000 0.000000 -1.000000
vn 0.000000 0.000000 -1.000000
vn 0.000000 0.000000 -1.000000
vn 0.000000 0.000000 -1.000000
vn 0.000000 -1.000000 0.000000
vn 0.000000 -1.000000 0.000000
vn 0.000000 -1.000000 0.000000
vn 0.000000 -1.000000 0.000000
vn 0.000000 -1.000000 0.000000
vn 0.000000 -1.000000 0.000000
vn -1.000000 -0.037182 0.000000
vn -1.000000 -0.037182 0.000000
vn -1.000000 -0.037182 0.000000
vn -1.000000 -0.037182 0.000000
vn -1.000000 -0.037182 0.000000
vn -1.000000 -0.037182 0.000000
vn 0.000000 0.338552 0.941292
vn 0.000000 0.338552 0.941292
vn 0.000000 0.338552 0.941292
vn 0.000000 0.338552 0.941292
vn 0.000000 0.338552 0.941292
vn 0.000000 0.338552 0.941292
vn 1.000000 0.037182 0.000000
vn 1.000000 0.037182 0.000000
vn 1.000000 0.037182 0.000000
vn 1.000000 0.037182 0.000000
vn 1.000000 0.037182 0.000000
vn 1.000000 0.037182 0.000000
vn 0.000000 -0.207436 -0.978474
vn 0.000000 -0.207436 -0.978474
vn 0.000000 -0.207436 -0.978474
vn 0.000000 -0.207436 -0.978474
vn 0.000000 -0.207436 -0.978474
vn 0.000000 -0.207436 -0.978474
vn 0.000000 -0.978474 0.207436
vn 0.000000 -0.978474 0.207436
vn 0.000000 -0.978474 0.207436
vn 0.000000 -0.978474 0.207436
vn 0.000000 -0.978474 0.207436
vn 0.000000 -0.978474 0.207436
vn 0.000000 0.976517 -0.215264
vn 0.000000 0.976517 -0.215264
vn 0.000000 0.976517 -0.215264
vn 0.000000 0.976517 -0.215264
vn 0.000000 0.976517 -0.215264
vn 0.000000 0.976517 -0.215264
mtllib mtl_p_glo_books.mtl
g mtl_p_glo_books
usemtl mtl_p_glo_books
f 3/3/3 2/2/2 1/1/1
f 6/6/6 5/5/5 4/4/4
f 9/9/9 8/8/8 7/7/7
f 12/12/12 11/11/11 10/10/10
f 15/15/15 14/14/14 13/13/13
f 18/18/18 17/17/17 16/16/16
f 21/21/21 20/20/20 19/19/19
f 24/24/24 23/23/23 22/22/22
f 27/27/27 26/26/26 25/25/25
f 30/30/30 29/29/29 28/28/28
f 33/33/33 32/32/32 31/31/31
f 36/36/36 35/35/35 34/34/34
f 39/39/39 38/38/38 37/37/37
f 42/42/42 41/41/41 40/40/40
f 45/45/45 44/44/44 43/43/43
f 48/48/48 47/47/47 46/46/46
f 51/51/51 50/50/50 49/49/49
f 54/54/54 53/53/53 52/52/52
f 57/57/57 56/56/56 55/55/55
f 60/60/60 59/59/59 58/58/58
f 63/63/63 62/62/62 61/61/61
f 66/66/66 65/65/65 64/64/64
f 69/69/69 68/68/68 67/67/67
f 72/72/72 71/71/71 70/70/70
f 75/75/75 74/74/74 73/73/73
f 78/78/78 77/77/77 76/76/76
f 81/81/81 80/80/80 79/79/79
f 84/84/84 83/83/83 82/82/82
f 87/87/87 86/86/86 85/85/85
f 90/90/90 89/89/89 88/88/88
f 93/93/93 92/92/92 91/91/91
f 96/96/96 95/95/95 94/94/94
f 99/99/99 98/98/98 97/97/97
f 102/102/102 101/101/101 100/100/100
f 105/105/105 104/104/104 103/103/103
f 108/108/108 107/107/107 106/106/106
f 111/111/111 110/110/110 109/109/109
f 114/114/114 113/113/113 112/112/112
f 117/117/117 116/116/116 115/115/115
f 120/120/120 119/119/119 118/118/118
f 123/123/123 122/122/122 121/121/121
f 126/126/126 125/125/125 124/124/124
f 129/129/129 128/128/128 127/127/127
f 132/132/132 131/131/131 130/130/130
f 135/135/135 134/134/134 133/133/133
f 138/138/138 137/137/137 136/136/136
f 141/141/141 140/140/140 139/139/139
f 144/144/144 143/143/143 142/142/142
f 147/147/147 146/146/146 145/145/145
f 150/150/150 149/149/149 148/148/148
f 153/153/153 152/152/152 151/151/151
f 156/156/156 155/155/155 154/154/154
f 159/159/159 158/158/158 157/157/157
f 162/162/162 161/161/161 160/160/160
f 165/165/165 164/164/164 163/163/163
f 168/168/168 167/167/167 166/166/166
