# Generated by Wraith - Game extraction tools
# Please credit DTZxPorter for using it!

v 0.000000 0.000000 14.758233
v -8.431819 8.431829 3.800612
v 8.431819 8.431829 3.800612
v 0.000000 0.000000 14.758233
v -8.431819 -8.431829 3.800612
v -8.431819 8.431829 3.800612
v 0.000000 0.000000 14.758233
v 8.431819 -8.431829 3.800612
v -8.431819 -8.431829 3.800612
v 0.000000 0.000000 14.758233
v 8.431819 8.431829 3.800612
v 8.431819 -8.431829 3.800612
v 8.431819 -8.431829 3.800612
v -8.431819 -8.431829 -3.387209
v -8.431819 -8.431829 3.800612
v 8.431819 -8.431829 3.800612
v 8.431819 -8.431829 -3.387209
v -8.431819 -8.431829 -3.387209
v -8.431819 8.431829 3.800612
v 8.431819 8.431829 -3.387209
v 8.431819 8.431829 3.800612
v -8.431819 8.431829 3.800612
v -8.431819 8.431829 -3.387209
v 8.431819 8.431829 -3.387209
v 8.431819 -8.431829 -3.387209
v 8.431819 -8.431829 3.800612
v 8.431819 8.431829 -3.387209
v 8.431819 8.431829 3.800612
v 8.431819 8.431829 -3.387209
v 8.431819 -8.431829 3.800612
v -8.431819 -8.431829 3.800612
v -8.431819 8.431829 -3.387209
v -8.431819 8.431829 3.800612
v -8.431819 -8.431829 3.800612
v -8.431819 -8.431829 -3.387209
v -8.431819 8.431829 -3.387209
v -8.431819 -8.431829 -3.387209
v 8.431819 -8.431829 -3.387209
v -8.431819 8.431829 -3.387209
v 8.431819 -8.431829 -3.387209
v 8.431819 8.431829 -3.387209
v -8.431819 8.431829 -3.387209
vt 0.245239 0.730469
vt 0.181396 0.964569
vt 0.447510 0.784424
vt 0.245239 0.730469
vt 0.041046 0.675537
vt 0.181396 0.964569
vt 0.245239 0.730469
vt 0.307129 0.495605
vt 0.041046 0.675537
vt 0.245239 0.730469
vt 0.447510 0.784424
vt 0.307129 0.495605
vt 0.608887 1.758789
vt 0.965332 1.916016
vt 0.965332 1.758789
vt 0.608887 1.758789
vt 0.608887 1.916016
vt 0.965332 1.916016
vt 0.608887 0.759155
vt 0.995117 0.916138
vt 0.995117 0.759155
vt 0.608887 0.759155
vt 0.608887 0.916138
vt 0.995117 0.916138
vt 0.326172 0.497070
vt 0.483154 0.497070
vt 0.326172 0.170898
vt 0.483154 0.170898
vt 0.326172 0.170898
vt 0.483154 0.497070
vt 0.610352 1.758789
vt 0.997070 1.916504
vt 0.997070 1.759277
vt 0.610352 1.758789
vt 0.610352 1.916016
vt 0.997070 1.916504
vt 0.624512 0.366699
vt 0.992676 0.367188
vt 0.624023 0.009277
vt 0.992676 0.367188
vt 0.992676 0.009277
vt 0.624023 0.009277
vn 0.000000 0.792564 0.610568
vn 0.000000 0.792564 0.610568
vn 0.000000 0.792564 0.610568
vn -0.792564 0.000000 0.610568
vn -0.792564 0.000000 0.610568
vn -0.792564 0.000000 0.610568
vn 0.000000 -0.792564 0.610568
vn 0.000000 -0.792564 0.610568
vn 0.000000 -0.792564 0.610568
vn 0.792564 0.000000 0.610568
vn 0.792564 0.000000 0.610568
vn 0.792564 0.000000 0.610568
vn 0.000000 -1.000000 0.000000
vn 0.000000 -1.000000 0.000000
vn 0.000000 -1.000000 0.000000
vn 0.000000 -1.000000 0.000000
vn 0.000000 -1.000000 0.000000
vn 0.000000 -1.000000 0.000000
vn 0.000000 1.000000 0.000000
vn 0.000000 1.000000 0.000000
vn 0.000000 1.000000 0.000000
vn 0.000000 1.000000 0.000000
vn 0.000000 1.000000 0.000000
vn 0.000000 1.000000 0.000000
vn 1.000000 0.000000 0.000000
vn 1.000000 0.000000 0.000000
vn 1.000000 0.000000 0.000000
vn 1.000000 0.000000 0.000000
vn 1.000000 0.000000 0.000000
vn 1.000000 0.000000 0.000000
vn -1.000000 0.000000 0.000000
vn -1.000000 0.000000 0.000000
vn -1.000000 0.000000 0.000000
vn -1.000000 0.000000 0.000000
vn -1.000000 0.000000 0.000000
vn -1.000000 0.000000 0.000000
vn 0.000000 0.000000 -1.000000
vn 0.000000 0.000000 -1.000000
vn 0.000000 0.000000 -1.000000
vn 0.000000 0.000000 -1.000000
vn 0.000000 0.000000 -1.000000
vn 0.000000 0.000000 -1.000000
mtllib mtl_p6_pipes_garage_details.mtl
g mtl_p6_pipes_garage_details
usemtl mtl_p6_pipes_garage_details
f 3/3/3 2/2/2 1/1/1
f 6/6/6 5/5/5 4/4/4
f 9/9/9 8/8/8 7/7/7
f 12/12/12 11/11/11 10/10/10
f 15/15/15 14/14/14 13/13/13
f 18/18/18 17/17/17 16/16/16
f 21/21/21 20/20/20 19/19/19
f 24/24/24 23/23/23 22/22/22
f 27/27/27 26/26/26 25/25/25
f 30/30/30 29/29/29 28/28/28
f 33/33/33 32/32/32 31/31/31
f 36/36/36 35/35/35 34/34/34
f 39/39/39 38/38/38 37/37/37
f 42/42/42 41/41/41 40/40/40
