# Generated by Wraith - Game extraction tools
# Please credit DTZxPorter for using it!

v 0.143797 1.313881 -10.735129
v 0.143797 -1.313881 -10.735129
v 5.295449 0.000000 -8.479718
v 3.233609 0.000000 6.370919
v -2.390128 -1.313881 6.371031
v -2.390125 1.313881 6.371031
v -2.442824 1.932643 -0.497652
v -2.442824 4.560408 -0.497652
v 3.159462 3.246524 -0.006942
v 8.470262 3.246524 -14.027928
v 3.535111 4.560408 -16.724350
v 3.535111 1.932643 -16.724350
v 4.234390 -1.693040 -3.610115
v 4.234390 4.972543 -3.610115
v -2.535964 -1.693040 -4.685596
v 4.234390 4.972543 -3.610115
v -2.535964 4.972543 -4.685596
v -2.535964 -1.693040 -4.685596
v 4.234390 4.972543 -3.610115
v 3.748197 4.972543 -0.685914
v -2.535964 4.972543 -4.685596
v 3.748197 4.972543 -0.685914
v -3.022158 4.972543 -1.761398
v -2.535964 4.972543 -4.685596
v 3.748197 -1.693040 -0.685914
v -3.022158 -1.693040 -1.761398
v 3.748197 4.972543 -0.685914
v -3.022158 -1.693040 -1.761398
v -3.022158 4.972543 -1.761398
v 3.748197 4.972543 -0.685914
v -3.022158 -1.693040 -1.761398
v 3.748197 -1.693040 -0.685914
v -2.535964 -1.693040 -4.685596
v 3.748197 -1.693040 -0.685914
v 4.234390 -1.693040 -3.610115
v -2.535964 -1.693040 -4.685596
v 3.748197 -1.693040 -0.685914
v 3.748197 4.972543 -0.685914
v 4.234390 -1.693040 -3.610115
v 3.748197 4.972543 -0.685914
v 4.234390 4.972543 -3.610115
v 4.234390 -1.693040 -3.610115
v -2.535964 4.972543 -4.685596
v -3.022158 4.972543 -1.761398
v -2.535964 -1.693040 -4.685596
v -3.022158 4.972543 -1.761398
v -3.022158 -1.693040 -1.761398
v -2.535964 -1.693040 -4.685596
v 0.143797 1.313881 -10.735129
v 5.295449 0.000000 -8.479718
v -1.917614 1.313881 -2.585992
v 5.295449 0.000000 -8.479718
v 3.593785 0.000000 -1.803162
v -1.917614 1.313881 -2.585992
v -2.390125 1.313881 6.371031
v -1.917614 1.313881 -2.585992
v 3.593785 0.000000 -1.803162
v 3.233609 0.000000 6.370919
v -2.390125 1.313881 6.371031
v 3.593785 0.000000 -1.803162
v 0.143797 -1.313881 -10.735129
v -1.917614 -1.313881 -2.585992
v 5.295449 0.000000 -8.479718
v -1.917614 -1.313881 -2.585992
v 3.593785 0.000000 -1.803162
v 5.295449 0.000000 -8.479718
v 3.593785 0.000000 -1.803162
v -1.917614 -1.313881 -2.585992
v -2.390128 -1.313881 6.371031
v 3.233609 0.000000 6.370919
v 3.593785 0.000000 -1.803162
v -2.390128 -1.313881 6.371031
v -2.442824 1.932643 -0.497652
v 3.159462 3.246524 -0.006942
v -0.396062 1.932643 -8.544798
v 3.159462 3.246524 -0.006942
v 4.815888 3.246524 -6.589322
v -0.396062 1.932643 -8.544798
v 3.535111 1.932643 -16.724350
v -0.396062 1.932643 -8.544798
v 4.815888 3.246524 -6.589322
v 8.470262 3.246524 -14.027928
v 3.535111 1.932643 -16.724350
v 4.815888 3.246524 -6.589322
v -2.442824 4.560408 -0.497652
v -0.396062 4.560408 -8.544798
v 3.159462 3.246524 -0.006942
v -0.396062 4.560408 -8.544798
v 4.815888 3.246524 -6.589322
v 3.159462 3.246524 -0.006942
v 4.815888 3.246524 -6.589322
v -0.396062 4.560408 -8.544798
v 3.535111 4.560408 -16.724350
v 8.470262 3.246524 -14.027928
v 4.815888 3.246524 -6.589322
v 3.535111 4.560408 -16.724350
v 0.143797 1.313881 -10.735129
v -1.917614 1.313881 -2.585992
v 0.143797 -1.313881 -10.735129
v -1.917614 1.313881 -2.585992
v -1.917614 -1.313881 -2.585992
v 0.143797 -1.313881 -10.735129
v -1.917614 -1.313881 -2.585992
v -1.917614 1.313881 -2.585992
v -2.390125 1.313881 6.371031
v -2.390128 -1.313881 6.371031
v -1.917614 -1.313881 -2.585992
v -2.390125 1.313881 6.371031
v -2.442824 1.932643 -0.497652
v -0.396062 1.932643 -8.544798
v -2.442824 4.560408 -0.497652
v -0.396062 1.932643 -8.544798
v -0.396062 4.560408 -8.544798
v -2.442824 4.560408 -0.497652
v -0.396062 4.560408 -8.544798
v -0.396062 1.932643 -8.544798
v 3.535111 1.932643 -16.724350
v 3.535111 4.560408 -16.724350
v -0.396062 4.560408 -8.544798
v 3.535111 1.932643 -16.724350
vt 0.217041 0.531250
vt 0.217041 0.499023
vt 0.280762 0.514893
vt 1.549805 0.446289
vt 1.530273 0.527832
vt 1.568359 0.527832
vt 0.217041 0.531250
vt 0.217041 0.499023
vt 0.280762 0.514893
vt 1.549805 0.446289
vt 1.530273 0.527832
vt 1.568359 0.527832
vt 1.911133 0.238770
vt 1.911133 0.340332
vt 1.814453 0.238770
vt 1.911133 0.340332
vt 1.814453 0.340332
vt 1.814453 0.238770
vt 1.816406 0.241699
vt 1.762695 0.241699
vt 1.816406 0.318359
vt 1.762695 0.241699
vt 1.762695 0.318359
vt 1.816406 0.318359
vt 1.911133 0.238770
vt 1.814453 0.238770
vt 1.911133 0.340332
vt 1.814453 0.238770
vt 1.814453 0.340332
vt 1.911133 0.340332
vt 1.762695 0.318359
vt 1.762695 0.241699
vt 1.816406 0.318359
vt 1.762695 0.241699
vt 1.816406 0.241699
vt 1.816406 0.318359
vt 1.762695 0.338867
vt 1.762695 0.231445
vt 1.809570 0.338867
vt 1.762695 0.231445
vt 1.809570 0.231445
vt 1.809570 0.338867
vt 1.809570 0.231445
vt 1.762695 0.231445
vt 1.809570 0.338867
vt 1.762695 0.231445
vt 1.762695 0.338867
vt 1.809570 0.338867
vt 1.437500 0.263672
vt 1.354492 0.299805
vt 1.470703 0.395020
vt 1.354492 0.299805
vt 1.381836 0.407715
vt 1.470703 0.395020
vt 1.478516 0.539551
vt 1.470703 0.395020
vt 1.381836 0.407715
vt 1.387695 0.539551
vt 1.478516 0.539551
vt 1.381836 0.407715
vt 0.437744 0.263672
vt 0.470947 0.395020
vt 0.354492 0.299805
vt 0.470947 0.395020
vt 0.382080 0.407715
vt 0.354492 0.299805
vt 0.382080 0.407715
vt 0.470947 0.395020
vt 0.479248 0.539551
vt 0.387939 0.539551
vt 0.382080 0.407715
vt 0.479248 0.539551
vt 1.437500 0.263672
vt 1.354492 0.299805
vt 1.470703 0.393555
vt 1.354492 0.299805
vt 1.381836 0.406250
vt 1.470703 0.393555
vt 1.478516 0.539551
vt 1.470703 0.393555
vt 1.381836 0.406250
vt 1.387695 0.539551
vt 1.478516 0.539551
vt 1.381836 0.406250
vt 0.437744 0.263672
vt 0.470947 0.393555
vt 0.354492 0.299805
vt 0.470947 0.393555
vt 0.382080 0.406250
vt 0.354492 0.299805
vt 0.382080 0.406250
vt 0.470947 0.393555
vt 0.479248 0.539551
vt 0.387939 0.539551
vt 0.382080 0.406250
vt 0.479248 0.539551
vt 0.486328 0.266113
vt 0.486084 0.400391
vt 0.527832 0.266113
vt 0.486084 0.400391
vt 0.527832 0.400391
vt 0.527832 0.266113
vt 0.527832 0.400391
vt 0.486084 0.400391
vt 0.488281 0.543213
vt 0.525879 0.543213
vt 0.527832 0.400391
vt 0.488281 0.543213
vt 0.486328 0.266113
vt 0.486084 0.398926
vt 0.527832 0.266113
vt 0.486084 0.398926
vt 0.527832 0.398926
vt 0.527832 0.266113
vt 0.527832 0.398926
vt 0.486084 0.398926
vt 0.488281 0.543213
vt 0.525879 0.543213
vt 0.527832 0.398926
vt 0.488281 0.543213
vn 0.401174 0.000000 -0.915851
vn 0.401174 0.000000 -0.915851
vn 0.401174 0.000000 -0.915851
vn 0.000000 0.000000 1.000000
vn 0.000000 0.000000 1.000000
vn 0.000000 0.000000 1.000000
vn -0.088063 0.000000 0.996086
vn -0.088063 0.000000 0.996086
vn -0.088063 0.000000 0.996086
vn 0.479452 0.000000 -0.876712
vn 0.479452 0.000000 -0.876712
vn 0.479452 0.000000 -0.876712
vn 0.156556 0.000000 -0.988258
vn 0.156556 0.000000 -0.988258
vn 0.156556 0.000000 -0.988258
vn 0.156556 0.000000 -0.988258
vn 0.156556 0.000000 -0.988258
vn 0.156556 0.000000 -0.988258
vn 0.000000 1.000000 0.000000
vn 0.000000 1.000000 0.000000
vn 0.000000 1.000000 0.000000
vn 0.000000 1.000000 0.000000
vn 0.000000 1.000000 0.000000
vn 0.000000 1.000000 0.000000
vn -0.156556 0.000000 0.988258
vn -0.156556 0.000000 0.988258
vn -0.156556 0.000000 0.988258
vn -0.156556 0.000000 0.988258
vn -0.156556 0.000000 0.988258
vn -0.156556 0.000000 0.988258
vn 0.000000 -1.000000 0.000000
vn 0.000000 -1.000000 0.000000
vn 0.000000 -1.000000 0.000000
vn 0.000000 -1.000000 0.000000
vn 0.000000 -1.000000 0.000000
vn 0.000000 -1.000000 0.000000
vn 0.986301 0.000000 0.164384
vn 0.986301 0.000000 0.164384
vn 0.986301 0.000000 0.164384
vn 0.986301 0.000000 0.164384
vn 0.986301 0.000000 0.164384
vn 0.986301 0.000000 0.164384
vn -0.986301 0.000000 -0.164384
vn -0.986301 0.000000 -0.164384
vn -0.986301 0.000000 -0.164384
vn -0.986301 0.000000 -0.164384
vn -0.986301 0.000000 -0.164384
vn -0.986301 0.000000 -0.164384
vn 0.223092 0.972603 0.056751
vn 0.223092 0.972603 0.056751
vn 0.227006 0.972603 0.033268
vn 0.223092 0.972603 0.056751
vn 0.227006 0.972603 0.033268
vn 0.227006 0.972603 0.033268
vn 0.228963 0.972603 0.011742
vn 0.227006 0.972603 0.033268
vn 0.227006 0.972603 0.033268
vn 0.228963 0.972603 0.011742
vn 0.228963 0.972603 0.011742
vn 0.227006 0.972603 0.033268
vn 0.223092 -0.972603 0.056751
vn 0.227006 -0.972603 0.033268
vn 0.223092 -0.972603 0.056751
vn 0.227006 -0.972603 0.033268
vn 0.227006 -0.972603 0.033268
vn 0.223092 -0.972603 0.056751
vn 0.227006 -0.972603 0.033268
vn 0.227006 -0.972603 0.033268
vn 0.228963 -0.972603 0.011742
vn 0.228963 -0.972603 0.011742
vn 0.227006 -0.972603 0.033268
vn 0.228963 -0.972603 0.011742
vn 0.223092 -0.972603 0.056751
vn 0.223092 -0.972603 0.056751
vn 0.215264 -0.972603 0.078278
vn 0.223092 -0.972603 0.056751
vn 0.215264 -0.972603 0.078278
vn 0.215264 -0.972603 0.078278
vn 0.205479 -0.972603 0.099804
vn 0.215264 -0.972603 0.078278
vn 0.215264 -0.972603 0.078278
vn 0.205479 -0.972603 0.099804
vn 0.205479 -0.972603 0.099804
vn 0.215264 -0.972603 0.078278
vn 0.223092 0.972603 0.056751
vn 0.215264 0.972603 0.078278
vn 0.223092 0.972603 0.056751
vn 0.215264 0.972603 0.078278
vn 0.215264 0.972603 0.078278
vn 0.223092 0.972603 0.056751
vn 0.215264 0.972603 0.078278
vn 0.215264 0.972603 0.078278
vn 0.205479 0.972603 0.099804
vn 0.205479 0.972603 0.099804
vn 0.215264 0.972603 0.078278
vn 0.205479 0.972603 0.099804
vn -0.968689 0.000000 -0.244618
vn -0.988258 0.000000 -0.148728
vn -0.968689 0.000000 -0.244618
vn -0.988258 0.000000 -0.148728
vn -0.988258 0.000000 -0.148728
vn -0.968689 0.000000 -0.244618
vn -0.988258 0.000000 -0.148728
vn -0.988258 0.000000 -0.148728
vn -0.998043 0.000000 -0.052838
vn -0.998043 0.000000 -0.052838
vn -0.988258 0.000000 -0.148728
vn -0.998043 0.000000 -0.052838
vn -0.968689 0.000000 -0.246575
vn -0.939335 0.000000 -0.342466
vn -0.968689 0.000000 -0.246575
vn -0.939335 0.000000 -0.342466
vn -0.939335 0.000000 -0.342466
vn -0.968689 0.000000 -0.246575
vn -0.939335 0.000000 -0.342466
vn -0.939335 0.000000 -0.342466
vn -0.902153 0.000000 -0.432485
vn -0.902153 0.000000 -0.432485
vn -0.939335 0.000000 -0.342466
vn -0.902153 0.000000 -0.432485
mtllib mtl_t6_wpn_ar_hk416_camo2.mtl
g mtl_t6_wpn_ar_hk416_camo2
usemtl mtl_t6_wpn_ar_hk416_camo2
f 3/3/3 2/2/2 1/1/1
f 6/6/6 5/5/5 4/4/4
f 9/9/9 8/8/8 7/7/7
f 12/12/12 11/11/11 10/10/10
f 15/15/15 14/14/14 13/13/13
f 18/18/18 17/17/17 16/16/16
f 21/21/21 20/20/20 19/19/19
f 24/24/24 23/23/23 22/22/22
f 27/27/27 26/26/26 25/25/25
f 30/30/30 29/29/29 28/28/28
f 33/33/33 32/32/32 31/31/31
f 36/36/36 35/35/35 34/34/34
f 39/39/39 38/38/38 37/37/37
f 42/42/42 41/41/41 40/40/40
f 45/45/45 44/44/44 43/43/43
f 48/48/48 47/47/47 46/46/46
f 51/51/51 50/50/50 49/49/49
f 54/54/54 53/53/53 52/52/52
f 57/57/57 56/56/56 55/55/55
f 60/60/60 59/59/59 58/58/58
f 63/63/63 62/62/62 61/61/61
f 66/66/66 65/65/65 64/64/64
f 69/69/69 68/68/68 67/67/67
f 72/72/72 71/71/71 70/70/70
f 75/75/75 74/74/74 73/73/73
f 78/78/78 77/77/77 76/76/76
f 81/81/81 80/80/80 79/79/79
f 84/84/84 83/83/83 82/82/82
f 87/87/87 86/86/86 85/85/85
f 90/90/90 89/89/89 88/88/88
f 93/93/93 92/92/92 91/91/91
f 96/96/96 95/95/95 94/94/94
mtllib mtl_t6_wpn_ar_hk416_camo4.mtl
g mtl_t6_wpn_ar_hk416_camo4
usemtl mtl_t6_wpn_ar_hk416_camo4
f 99/99/99 98/98/98 97/97/97
f 102/102/102 101/101/101 100/100/100
f 105/105/105 104/104/104 103/103/103
f 108/108/108 107/107/107 106/106/106
f 111/111/111 110/110/110 109/109/109
f 114/114/114 113/113/113 112/112/112
f 117/117/117 116/116/116 115/115/115
f 120/120/120 119/119/119 118/118/118
