# Generated by Wraith - Game extraction tools
# Please credit DTZxPorter for using it!

v -0.396542 -2.268278 3.146824
v -12.399388 -2.268278 3.146824
v -0.396545 -2.268278 0.567525
v -12.399388 -2.268278 3.146824
v -12.399388 -2.268278 0.567525
v -0.396545 -2.268278 0.567525
v -13.356285 -3.403989 3.146824
v -13.356285 -10.704172 3.146824
v -13.356285 -3.403989 0.567525
v -13.356285 -10.704172 3.146824
v -13.356285 -10.704172 0.567525
v -13.356285 -3.403989 0.567525
v -12.425570 -11.832270 3.146824
v -0.396542 -11.832270 3.146824
v -12.425573 -11.832270 0.567525
v -0.396542 -11.832270 3.146824
v -0.396545 -11.832270 0.567525
v -12.425573 -11.832270 0.567525
v 0.721764 -10.976232 3.146824
v 0.721764 -3.170438 3.146824
v 0.721764 -10.976232 0.567525
v 0.721764 -3.170438 3.146824
v 0.721764 -3.170438 0.567525
v 0.721764 -10.976232 0.567525
v 0.721764 -10.976232 0.567525
v 0.721764 -3.170438 0.567525
v -0.396545 -11.832270 0.567525
v -0.396545 -11.832270 0.567525
v 0.721764 -3.170438 0.567525
v -12.425573 -11.832270 0.567525
v 0.721764 -3.170438 0.567525
v -0.396545 -2.268278 0.567525
v -12.425573 -11.832270 0.567525
v -12.425573 -11.832270 0.567525
v -0.396545 -2.268278 0.567525
v -13.356285 -10.704172 0.567525
v -13.356285 -3.403989 0.567525
v -13.356285 -10.704172 0.567525
v -0.396545 -2.268278 0.567525
v -12.399388 -2.268278 0.567525
v -13.356285 -3.403989 0.567525
v -0.396545 -2.268278 0.567525
v 0.721764 -10.976232 3.146824
v -0.396542 -11.832270 3.146824
v 0.721764 -3.170438 3.146824
v -0.396542 -11.832270 3.146824
v -12.425570 -11.832270 3.146824
v 0.721764 -3.170438 3.146824
v 0.721764 -3.170438 3.146824
v -12.425570 -11.832270 3.146824
v -0.396542 -2.268278 3.146824
v -12.425570 -11.832270 3.146824
v -13.356285 -10.704172 3.146824
v -0.396542 -2.268278 3.146824
v -0.396542 -2.268278 3.146824
v -13.356285 -10.704172 3.146824
v -13.356285 -3.403989 3.146824
v -12.399388 -2.268278 3.146824
v -0.396542 -2.268278 3.146824
v -13.356285 -3.403989 3.146824
v -13.356285 -3.403989 3.146824
v -13.356285 -3.403989 0.567525
v -12.399388 -2.268278 3.146824
v -13.356285 -3.403989 0.567525
v -12.399388 -2.268278 0.567525
v -12.399388 -2.268278 3.146824
v -0.396542 -2.268278 3.146824
v -0.396545 -2.268278 0.567525
v 0.721764 -3.170438 3.146824
v -0.396545 -2.268278 0.567525
v 0.721764 -3.170438 0.567525
v 0.721764 -3.170438 3.146824
v -12.425570 -11.832270 3.146824
v -12.425573 -11.832270 0.567525
v -13.356285 -10.704172 3.146824
v -12.425573 -11.832270 0.567525
v -13.356285 -10.704172 0.567525
v -13.356285 -10.704172 3.146824
v 0.721764 -10.976232 3.146824
v 0.721764 -10.976232 0.567525
v -0.396542 -11.832270 3.146824
v 0.721764 -10.976232 0.567525
v -0.396545 -11.832270 0.567525
v -0.396542 -11.832270 3.146824
vt 0.551758 0.079590
vt 0.551758 0.913452
vt 0.680664 0.079590
vt 0.551758 0.913452
vt 0.680664 0.913452
vt 0.680664 0.079590
vt 0.997070 0.534180
vt 0.995117 0.126953
vt 0.860840 0.534180
vt 0.995117 0.126953
vt 0.855957 0.126953
vt 0.860840 0.534180
vt 0.830078 0.916992
vt 0.830078 0.079590
vt 0.704590 0.916992
vt 0.830078 0.079590
vt 0.704590 0.079590
vt 0.704590 0.916992
vt 0.997070 0.534180
vt 0.995117 0.126953
vt 0.860840 0.534180
vt 0.995117 0.126953
vt 0.855957 0.126953
vt 0.860840 0.534180
vt 0.475586 -0.006836
vt 0.074829 -0.006836
vt 0.543945 0.058105
vt 0.543945 0.058105
vt 0.074829 -0.006836
vt 0.545898 0.755371
vt 0.074829 -0.006836
vt 0.006439 0.058105
vt 0.545898 0.755371
vt 0.545898 0.755371
vt 0.006439 0.058105
vt 0.477295 0.821289
vt 0.072998 0.821289
vt 0.477295 0.821289
vt 0.006439 0.058105
vt 0.004360 0.755371
vt 0.072998 0.821289
vt 0.006439 0.058105
vt 0.560547 0.843262
vt 0.517090 0.820923
vt 0.560547 0.974350
vt 0.517090 0.820923
vt 0.059296 0.820923
vt 0.560547 0.974350
vt 0.560547 0.974350
vt 0.059296 0.820923
vt 0.517090 0.996664
vt 0.059296 0.820923
vt 0.016037 0.843262
vt 0.517090 0.996664
vt 0.517090 0.996664
vt 0.016037 0.843262
vt 0.016037 0.974350
vt 0.059296 0.996664
vt 0.517090 0.996664
vt 0.016037 0.974350
vt 0.997070 0.534180
vt 0.860840 0.534180
vt 0.997070 0.607666
vt 0.860840 0.534180
vt 0.860840 0.607666
vt 0.997070 0.607666
vt 0.995117 0.058594
vt 0.855957 0.058594
vt 0.995117 0.126953
vt 0.855957 0.058594
vt 0.855957 0.126953
vt 0.995117 0.126953
vt 0.995117 0.058594
vt 0.855957 0.058594
vt 0.995117 0.126953
vt 0.855957 0.058594
vt 0.855957 0.126953
vt 0.995117 0.126953
vt 0.997070 0.534180
vt 0.860840 0.534180
vt 0.997070 0.607666
vt 0.860840 0.534180
vt 0.860840 0.607666
vt 0.997070 0.607666
vn 0.000000 1.000000 0.000000
vn 0.000000 1.000000 0.000000
vn 0.000000 1.000000 0.000000
vn 0.000000 1.000000 0.000000
vn 0.000000 1.000000 0.000000
vn 0.000000 1.000000 0.000000
vn -1.000000 0.000000 0.000000
vn -1.000000 0.000000 0.000000
vn -1.000000 0.000000 0.000000
vn -1.000000 0.000000 0.000000
vn -1.000000 0.000000 0.000000
vn -1.000000 0.000000 0.000000
vn 0.000000 -1.000000 0.000000
vn 0.000000 -1.000000 0.000000
vn 0.000000 -1.000000 0.000000
vn 0.000000 -1.000000 0.000000
vn 0.000000 -1.000000 0.000000
vn 0.000000 -1.000000 0.000000
vn 1.000000 0.000000 0.000000
vn 1.000000 0.000000 0.000000
vn 1.000000 0.000000 0.000000
vn 1.000000 0.000000 0.000000
vn 1.000000 0.000000 0.000000
vn 1.000000 0.000000 0.000000
vn 0.000000 0.000000 -1.000000
vn 0.000000 0.000000 -1.000000
vn 0.000000 0.000000 -1.000000
vn 0.000000 0.000000 -1.000000
vn 0.000000 0.000000 -1.000000
vn 0.000000 0.000000 -1.000000
vn 0.000000 0.000000 -1.000000
vn 0.000000 0.000000 -1.000000
vn 0.000000 0.000000 -1.000000
vn 0.000000 0.000000 -1.000000
vn 0.000000 0.000000 -1.000000
vn 0.000000 0.000000 -1.000000
vn 0.000000 0.000000 -1.000000
vn 0.000000 0.000000 -1.000000
vn 0.000000 0.000000 -1.000000
vn 0.000000 0.000000 -1.000000
vn 0.000000 0.000000 -1.000000
vn 0.000000 0.000000 -1.000000
vn 0.000000 0.000000 1.000000
vn 0.000000 0.000000 1.000000
vn 0.000000 0.000000 1.000000
vn 0.000000 0.000000 1.000000
vn 0.000000 0.000000 1.000000
vn 0.000000 0.000000 1.000000
vn 0.000000 0.000000 1.000000
vn 0.000000 0.000000 1.000000
vn 0.000000 0.000000 1.000000
vn 0.000000 0.000000 1.000000
vn 0.000000 0.000000 1.000000
vn 0.000000 0.000000 1.000000
vn 0.000000 0.000000 1.000000
vn 0.000000 0.000000 1.000000
vn 0.000000 0.000000 1.000000
vn 0.000000 0.000000 1.000000
vn 0.000000 0.000000 1.000000
vn 0.000000 0.000000 1.000000
vn -0.765166 0.643836 0.000000
vn -0.765166 0.643836 0.000000
vn -0.765166 0.643836 0.000000
vn -0.765166 0.643836 0.000000
vn -0.765166 0.643836 0.000000
vn -0.765166 0.643836 0.000000
vn 0.628180 0.778865 0.000000
vn 0.628180 0.778865 0.000000
vn 0.628180 0.778865 0.000000
vn 0.628180 0.778865 0.000000
vn 0.628180 0.778865 0.000000
vn 0.628180 0.778865 0.000000
vn -0.771037 -0.636008 0.000000
vn -0.771037 -0.636008 0.000000
vn -0.771037 -0.636008 0.000000
vn -0.771037 -0.636008 0.000000
vn -0.771037 -0.636008 0.000000
vn -0.771037 -0.636008 0.000000
vn 0.608611 -0.794521 0.000000
vn 0.608611 -0.794521 0.000000
vn 0.608611 -0.794521 0.000000
vn 0.608611 -0.794521 0.000000
vn 0.608611 -0.794521 0.000000
vn 0.608611 -0.794521 0.000000
mtllib mtl_t6_wpn_pda.mtl
g mtl_t6_wpn_pda
usemtl mtl_t6_wpn_pda
f 3/3/3 2/2/2 1/1/1
f 6/6/6 5/5/5 4/4/4
f 9/9/9 8/8/8 7/7/7
f 12/12/12 11/11/11 10/10/10
f 15/15/15 14/14/14 13/13/13
f 18/18/18 17/17/17 16/16/16
f 21/21/21 20/20/20 19/19/19
f 24/24/24 23/23/23 22/22/22
f 27/27/27 26/26/26 25/25/25
f 30/30/30 29/29/29 28/28/28
f 33/33/33 32/32/32 31/31/31
f 36/36/36 35/35/35 34/34/34
f 39/39/39 38/38/38 37/37/37
f 42/42/42 41/41/41 40/40/40
f 45/45/45 44/44/44 43/43/43
f 48/48/48 47/47/47 46/46/46
f 51/51/51 50/50/50 49/49/49
f 54/54/54 53/53/53 52/52/52
f 57/57/57 56/56/56 55/55/55
f 60/60/60 59/59/59 58/58/58
f 63/63/63 62/62/62 61/61/61
f 66/66/66 65/65/65 64/64/64
f 69/69/69 68/68/68 67/67/67
f 72/72/72 71/71/71 70/70/70
f 75/75/75 74/74/74 73/73/73
f 78/78/78 77/77/77 76/76/76
f 81/81/81 80/80/80 79/79/79
f 84/84/84 83/83/83 82/82/82
