# Generated by Wraith - Game extraction tools
# Please credit DTZxPorter for using it!

v 0.003322 5.226863 15.419250
v 1.273322 5.079998 15.239997
v 0.003322 -5.226863 15.419250
v 1.273322 5.079998 -15.239997
v 0.003322 5.226863 -15.419250
v 0.003322 -5.226863 -15.419250
v 1.264839 -0.593199 -7.381796
v 5.470540 -2.254176 -6.828625
v 1.264839 -0.942282 -11.057371
v 5.470540 3.053141 -11.655538
v 1.264839 2.287638 -8.959867
v 1.264839 -0.942282 -11.057371
v 1.273322 5.079998 15.239997
v 1.273322 5.079998 -15.239997
v 0.003322 -5.226863 15.419250
v 1.273322 5.079998 -15.239997
v 0.003322 -5.226863 -15.419250
v 0.003322 -5.226863 15.419250
v 0.003322 5.226863 -15.419250
v 1.273322 5.079998 -15.239997
v 0.003322 5.226863 15.419250
v 1.273322 5.079998 -15.239997
v 1.273322 5.079998 15.239997
v 0.003322 5.226863 15.419250
v 5.470540 -2.377778 -12.330905
v 5.470540 3.053141 -11.655538
v 1.264839 -0.942282 -11.057371
v 7.482347 0.286461 -8.910070
v 5.470540 3.053141 -11.655538
v 5.470540 -2.377778 -12.330905
v 7.482347 0.286461 -8.910070
v 5.470540 3.690257 -7.147187
v 5.470540 3.053141 -11.655538
v 7.482347 0.286461 -8.910070
v 5.470540 -2.254176 -6.828625
v 5.470540 3.690257 -7.147187
v 5.470540 3.690257 -7.147187
v 5.470540 -2.254176 -6.828625
v 1.264839 -0.593199 -7.381796
v 7.482347 0.286461 -8.910070
v 5.470540 -2.377778 -12.330905
v 5.470540 -2.254176 -6.828625
v 5.470540 -2.254176 -6.828625
v 5.470540 -2.377778 -12.330905
v 1.264839 -0.942282 -11.057371
v 1.264839 2.287638 -8.959867
v 5.470540 3.690257 -7.147187
v 1.264839 -0.593199 -7.381796
v 5.470540 3.053141 -11.655538
v 5.470540 3.690257 -7.147187
v 1.264839 2.287638 -8.959867
vt 0.003454 0.970535
vt 0.043793 0.970535
vt 0.023636 1.287354
vt 0.043793 0.001953
vt 0.003454 0.001953
vt 0.023636 0.318848
vt 0.547363 0.001953
vt 0.506836 0.390625
vt 0.371582 0.001953
vt 0.561523 0.138672
vt 0.723633 0.001953
vt 0.938965 0.001953
vt 0.046722 0.971054
vt 0.046722 0.002441
vt 0.369629 0.971054
vt 0.046722 0.002441
vt 0.369629 0.002441
vt 0.369629 0.971054
vt 0.003454 0.001953
vt 0.043793 0.001953
vt 0.003454 0.970535
vt 0.043793 0.001953
vt 0.043793 0.970535
vt 0.003454 0.970535
vt 0.680176 0.295898
vt 0.561523 0.138672
vt 0.938965 0.001953
vt 0.539551 0.269531
vt 0.561523 0.138672
vt 0.680176 0.295898
vt 0.539551 0.269531
vt 0.409912 0.200195
vt 0.561523 0.138672
vt 0.539551 0.269531
vt 0.506836 0.390625
vt 0.409912 0.200195
vt 0.409912 0.200195
vt 0.506836 0.390625
vt 0.547363 0.001953
vt 0.539551 0.269531
vt 0.680176 0.295898
vt 0.506836 0.390625
vt 0.506836 0.390625
vt 0.680176 0.295898
vt 0.371582 0.001953
vt 0.723633 0.001953
vt 0.409912 0.200195
vt 0.547363 0.001953
vt 0.561523 0.138672
vt 0.409912 0.200195
vt 0.723633 0.001953
vn 0.138943 0.000000 0.990215
vn 0.138943 0.000000 0.990215
vn 0.138943 0.000000 0.990215
vn 0.138943 0.000000 -0.990215
vn 0.138943 0.000000 -0.990215
vn 0.138943 0.000000 -0.990215
vn -0.436399 -0.536204 0.722113
vn 0.377691 -0.559687 0.737769
vn -0.434442 -0.600783 -0.669276
vn -0.536204 0.459883 -0.708415
vn -0.536204 0.459883 -0.708415
vn -0.536204 0.459883 -0.708415
vn 0.992172 -0.121331 0.000000
vn 0.992172 -0.121331 0.000000
vn 0.992172 -0.121331 0.000000
vn 0.992172 -0.121331 0.000000
vn 0.992172 -0.121331 0.000000
vn 0.992172 -0.121331 0.000000
vn 0.115460 0.994129 0.000000
vn 0.115460 0.994129 0.000000
vn 0.115460 0.994129 0.000000
vn 0.115460 0.994129 0.000000
vn 0.115460 0.994129 0.000000
vn 0.115460 0.994129 0.000000
vn 0.461840 -0.610568 -0.643836
vn 0.436399 0.628180 -0.643836
vn -0.434442 -0.600783 -0.669276
vn 1.000000 0.009785 0.035225
vn 0.436399 0.628180 -0.643836
vn 0.461840 -0.610568 -0.643836
vn 1.000000 0.009785 0.035225
vn 0.409002 0.698630 0.585127
vn 0.436399 0.628180 -0.643836
vn 1.000000 0.009785 0.035225
vn 0.377691 -0.559687 0.737769
vn 0.409002 0.698630 0.585127
vn 0.409002 0.698630 0.585127
vn 0.377691 -0.559687 0.737769
vn -0.436399 -0.536204 0.722113
vn 1.000000 0.009785 0.035225
vn 0.461840 -0.610568 -0.643836
vn 0.377691 -0.559687 0.737769
vn 0.377691 -0.559687 0.737769
vn 0.461840 -0.610568 -0.643836
vn -0.434442 -0.600783 -0.669276
vn -0.344423 0.769080 0.538160
vn 0.409002 0.698630 0.585127
vn -0.436399 -0.536204 0.722113
vn 0.436399 0.628180 -0.643836
vn 0.409002 0.698630 0.585127
vn -0.344423 0.769080 0.538160
mtllib mtl_p_glo_doorknob.mtl
g mtl_p_glo_doorknob
usemtl mtl_p_glo_doorknob
f 3/3/3 2/2/2 1/1/1
f 6/6/6 5/5/5 4/4/4
f 9/9/9 8/8/8 7/7/7
f 12/12/12 11/11/11 10/10/10
f 15/15/15 14/14/14 13/13/13
f 18/18/18 17/17/17 16/16/16
f 21/21/21 20/20/20 19/19/19
f 24/24/24 23/23/23 22/22/22
f 27/27/27 26/26/26 25/25/25
f 30/30/30 29/29/29 28/28/28
f 33/33/33 32/32/32 31/31/31
f 36/36/36 35/35/35 34/34/34
f 39/39/39 38/38/38 37/37/37
f 42/42/42 41/41/41 40/40/40
f 45/45/45 44/44/44 43/43/43
f 48/48/48 47/47/47 46/46/46
f 51/51/51 50/50/50 49/49/49
