# Generated by Wraith - Game extraction tools
# Please credit DTZxPorter for using it!

v 68.694466 0.000000 2.900543
v 68.694466 2.900543 0.000000
v 68.694466 -2.900543 0.000000
v 68.694466 2.900543 0.000000
v 68.694466 0.000000 -2.900543
v 68.694466 -2.900543 0.000000
v -69.204544 0.000000 -1.555709
v -69.204544 1.555709 0.000000
v -69.204544 -1.555709 -0.000000
v -69.204544 1.555709 0.000000
v -69.204544 0.000000 1.555709
v -69.204544 -1.555709 -0.000000
v 68.694466 2.900543 0.000000
v -69.204544 1.555709 0.000000
v 68.694466 0.000000 -2.900543
v -69.204544 1.555709 0.000000
v 68.694466 2.900543 0.000000
v 68.694466 0.000000 2.900543
v -69.204544 0.000000 1.555709
v -69.204544 1.555709 0.000000
v 68.694466 0.000000 2.900543
v -69.204544 -1.555709 -0.000000
v -69.204544 0.000000 1.555709
v 68.694466 0.000000 2.900543
v 68.694466 -2.900543 0.000000
v -69.204544 -1.555709 -0.000000
v 68.694466 0.000000 2.900543
v -69.204544 0.000000 -1.555709
v -69.204544 -1.555709 -0.000000
v 68.694466 -2.900543 0.000000
v 68.694466 0.000000 -2.900543
v -69.204544 0.000000 -1.555709
v 68.694466 -2.900543 0.000000
v -69.204544 1.555709 0.000000
v -69.204544 0.000000 -1.555709
v 68.694466 0.000000 -2.900543
vt 0.013657 0.775513
vt 0.013657 0.498047
vt 0.013657 0.498047
vt 0.013657 0.498047
vt 0.013657 0.220703
vt 0.013657 0.498047
vt 0.981445 0.349121
vt 0.981445 0.498047
vt 0.981445 0.498047
vt 0.981445 0.498047
vt 0.981445 0.646973
vt 0.981445 0.498047
vt 0.013657 0.498047
vt 0.981445 0.498047
vt 0.013657 0.220703
vt 0.981445 0.498047
vt 0.013657 0.498047
vt 0.013657 0.775513
vt 0.981445 0.646973
vt 0.981445 0.498047
vt 0.013657 0.775513
vt 0.981445 0.498047
vt 0.981445 0.646973
vt 0.013657 0.775513
vt 0.013657 0.498047
vt 0.981445 0.498047
vt 0.013657 0.775513
vt 0.981445 0.349121
vt 0.981445 0.498047
vt 0.013657 0.498047
vt 0.013657 0.220703
vt 0.981445 0.349121
vt 0.013657 0.498047
vt 0.981445 0.498047
vt 0.981445 0.349121
vt 0.013657 0.220703
vn 1.000000 0.000000 0.000000
vn 1.000000 0.000000 0.000000
vn 1.000000 0.000000 0.000000
vn 1.000000 0.000000 0.000000
vn 1.000000 0.000000 0.000000
vn 1.000000 0.000000 0.000000
vn -1.000000 0.000000 0.000000
vn -1.000000 0.000000 0.000000
vn -1.000000 0.000000 0.000000
vn -1.000000 0.000000 0.000000
vn -1.000000 0.000000 0.000000
vn -1.000000 0.000000 0.000000
vn -0.009785 1.000000 0.000000
vn -0.009785 1.000000 0.000000
vn -0.009785 0.000000 -1.000000
vn -0.009785 1.000000 0.000000
vn -0.009785 1.000000 0.000000
vn -0.009785 0.000000 1.000000
vn -0.009785 0.000000 1.000000
vn -0.009785 1.000000 0.000000
vn -0.009785 0.000000 1.000000
vn -0.009785 -1.000000 0.000000
vn -0.009785 0.000000 1.000000
vn -0.009785 0.000000 1.000000
vn -0.009785 -1.000000 0.000000
vn -0.009785 -1.000000 0.000000
vn -0.009785 0.000000 1.000000
vn -0.009785 0.000000 -1.000000
vn -0.009785 -1.000000 0.000000
vn -0.009785 -1.000000 0.000000
vn -0.009785 0.000000 -1.000000
vn -0.009785 0.000000 -1.000000
vn -0.009785 -1.000000 0.000000
vn -0.009785 1.000000 0.000000
vn -0.009785 0.000000 -1.000000
vn -0.009785 0.000000 -1.000000
mtllib mtl_weapon_stinger_missle.mtl
g mtl_weapon_stinger_missle
usemtl mtl_weapon_stinger_missle
f 3/3/3 2/2/2 1/1/1
f 6/6/6 5/5/5 4/4/4
f 9/9/9 8/8/8 7/7/7
f 12/12/12 11/11/11 10/10/10
f 15/15/15 14/14/14 13/13/13
f 18/18/18 17/17/17 16/16/16
f 21/21/21 20/20/20 19/19/19
f 24/24/24 23/23/23 22/22/22
f 27/27/27 26/26/26 25/25/25
f 30/30/30 29/29/29 28/28/28
f 33/33/33 32/32/32 31/31/31
f 36/36/36 35/35/35 34/34/34
