# Generated by Wraith - Game extraction tools
# Please credit DTZxPorter for using it!

v 5.346636 68.580002 -0.000010
v -4.996759 68.580002 -0.000010
v 5.346636 -68.580002 -0.000010
v -4.996759 68.580002 -0.000010
v -4.996759 -68.580002 -0.000010
v 5.346636 -68.580002 -0.000010
v 5.346636 68.580002 53.369144
v 5.346636 68.580002 -0.000010
v 5.346636 -68.580002 53.369144
v 5.346636 68.580002 -0.000010
v 5.346636 -68.580002 -0.000010
v 5.346636 -68.580002 53.369144
v -4.996759 68.580002 -0.000010
v 5.346636 68.580002 -0.000010
v -4.996759 68.580002 53.369144
v 5.346636 68.580002 -0.000010
v 5.346636 68.580002 53.369144
v -4.996759 68.580002 53.369144
v -4.996759 68.580002 -0.000010
v -4.996759 68.580002 53.369144
v -4.996759 -68.580002 -0.000010
v -4.996759 68.580002 53.369144
v -4.996759 -68.580002 53.369144
v -4.996759 -68.580002 -0.000010
v 5.346636 -68.580002 53.369144
v 5.346636 -68.580002 -0.000010
v -4.996759 -68.580002 53.369144
v 5.346636 -68.580002 -0.000010
v -4.996759 -68.580002 -0.000010
v -4.996759 -68.580002 53.369144
v -4.996759 68.580002 198.119995
v 5.346636 68.580002 198.119995
v -4.996759 -68.580002 198.119995
v 5.346636 68.580002 198.119995
v 5.346636 -68.580002 198.119995
v -4.996759 -68.580002 198.119995
v 5.346636 68.580002 198.119995
v 5.346636 68.580002 53.369144
v 5.346636 -68.580002 198.119995
v 5.346636 68.580002 53.369144
v 5.346636 -68.580002 53.369144
v 5.346636 -68.580002 198.119995
v -4.996759 68.580002 53.369144
v -4.996759 68.580002 198.119995
v -4.996759 -68.580002 53.369144
v -4.996759 68.580002 198.119995
v -4.996759 -68.580002 198.119995
v -4.996759 -68.580002 53.369144
v -4.996759 -68.580002 198.119995
v 5.346636 -68.580002 198.119995
v -4.996759 -68.580002 53.369144
v 5.346636 -68.580002 198.119995
v 5.346636 -68.580002 53.369144
v -4.996759 -68.580002 53.369144
v -4.996759 68.580002 53.369144
v 5.346636 68.580002 53.369144
v -4.996759 68.580002 198.119995
v 5.346636 68.580002 53.369144
v 5.346636 68.580002 198.119995
v -4.996759 68.580002 198.119995
vt -0.131348 0.564209
vt -0.263916 0.564209
vt -0.131348 2.322266
vt -0.263916 0.564209
vt -0.263916 2.322266
vt -0.131348 2.322266
vt -2.232422 -1.306641
vt -2.232422 -1.990234
vt -3.990234 -1.306641
vt -2.232422 -1.990234
vt -3.990234 -1.990234
vt -3.990234 -1.306641
vt -0.256592 0.548096
vt -0.124084 0.548096
vt -0.256592 -0.135742
vt -0.124084 0.548096
vt -0.124084 -0.135742
vt -0.256592 -0.135742
vt -0.447998 0.548096
vt -0.447998 -0.135742
vt -2.205078 0.548096
vt -0.447998 -0.135742
vt -2.205078 -0.135742
vt -2.205078 0.548096
vt -0.289063 -1.306641
vt -0.289063 -1.990234
vt -0.421631 -1.306641
vt -0.289063 -1.990234
vt -0.421631 -1.990234
vt -0.421631 -1.306641
vt -0.106628 1.322510
vt 0.025940 1.322510
vt -0.106628 -0.435547
vt 0.025940 1.322510
vt 0.025940 -0.435547
vt -0.106628 -0.435547
vt -2.232422 -0.451172
vt -2.232422 -2.306641
vt -3.990234 -0.451172
vt -2.232422 -2.306641
vt -3.990234 -2.306641
vt -3.990234 -0.451172
vt -0.447998 -1.134766
vt -0.447998 -2.990234
vt -2.205078 -1.134766
vt -0.447998 -2.990234
vt -2.205078 -2.990234
vt -2.205078 -1.134766
vt -0.421631 -0.451172
vt -0.289063 -0.451172
vt -0.421631 -2.306641
vt -0.289063 -0.451172
vt -0.289063 -2.306641
vt -0.421631 -2.306641
vt -0.256592 -1.134766
vt -0.124084 -1.134766
vt -0.256592 -2.990234
vt -0.124084 -1.134766
vt -0.124084 -2.990234
vt -0.256592 -2.990234
vn 0.000000 0.000000 -1.000000
vn 0.000000 0.000000 -1.000000
vn 0.000000 0.000000 -1.000000
vn 0.000000 0.000000 -1.000000
vn 0.000000 0.000000 -1.000000
vn 0.000000 0.000000 -1.000000
vn 1.000000 0.000000 0.000000
vn 1.000000 0.000000 0.000000
vn 1.000000 0.000000 0.000000
vn 1.000000 0.000000 0.000000
vn 1.000000 0.000000 0.000000
vn 1.000000 0.000000 0.000000
vn 0.000000 1.000000 0.000000
vn 0.000000 1.000000 0.000000
vn 0.000000 1.000000 0.000000
vn 0.000000 1.000000 0.000000
vn 0.000000 1.000000 0.000000
vn 0.000000 1.000000 0.000000
vn -1.000000 0.000000 0.000000
vn -1.000000 0.000000 0.000000
vn -1.000000 0.000000 0.000000
vn -1.000000 0.000000 0.000000
vn -1.000000 0.000000 0.000000
vn -1.000000 0.000000 0.000000
vn 0.000000 -1.000000 0.000000
vn 0.000000 -1.000000 0.000000
vn 0.000000 -1.000000 0.000000
vn 0.000000 -1.000000 0.000000
vn 0.000000 -1.000000 0.000000
vn 0.000000 -1.000000 0.000000
vn 0.000000 0.000000 1.000000
vn 0.000000 0.000000 1.000000
vn 0.000000 0.000000 1.000000
vn 0.000000 0.000000 1.000000
vn 0.000000 0.000000 1.000000
vn 0.000000 0.000000 1.000000
vn 1.000000 0.000000 0.000000
vn 1.000000 0.000000 0.000000
vn 1.000000 0.000000 0.000000
vn 1.000000 0.000000 0.000000
vn 1.000000 0.000000 0.000000
vn 1.000000 0.000000 0.000000
vn -1.000000 0.000000 0.000000
vn -1.000000 0.000000 0.000000
vn -1.000000 0.000000 0.000000
vn -1.000000 0.000000 0.000000
vn -1.000000 0.000000 0.000000
vn -1.000000 0.000000 0.000000
vn 0.000000 -1.000000 0.000000
vn 0.000000 -1.000000 0.000000
vn 0.000000 -1.000000 0.000000
vn 0.000000 -1.000000 0.000000
vn 0.000000 -1.000000 0.000000
vn 0.000000 -1.000000 0.000000
vn 0.000000 1.000000 0.000000
vn 0.000000 1.000000 0.000000
vn 0.000000 1.000000 0.000000
vn 0.000000 1.000000 0.000000
vn 0.000000 1.000000 0.000000
vn 0.000000 1.000000 0.000000
mtllib nt_2020_concrete_pattern_02.mtl
g nt_2020_concrete_pattern_02
usemtl nt_2020_concrete_pattern_02
f 3/3/3 2/2/2 1/1/1
f 6/6/6 5/5/5 4/4/4
f 9/9/9 8/8/8 7/7/7
f 12/12/12 11/11/11 10/10/10
f 15/15/15 14/14/14 13/13/13
f 18/18/18 17/17/17 16/16/16
f 21/21/21 20/20/20 19/19/19
f 24/24/24 23/23/23 22/22/22
f 27/27/27 26/26/26 25/25/25
f 30/30/30 29/29/29 28/28/28
mtllib nt_wood_fence.mtl
g nt_wood_fence
usemtl nt_wood_fence
f 33/33/33 32/32/32 31/31/31
f 36/36/36 35/35/35 34/34/34
f 39/39/39 38/38/38 37/37/37
f 42/42/42 41/41/41 40/40/40
f 45/45/45 44/44/44 43/43/43
f 48/48/48 47/47/47 46/46/46
f 51/51/51 50/50/50 49/49/49
f 54/54/54 53/53/53 52/52/52
f 57/57/57 56/56/56 55/55/55
f 60/60/60 59/59/59 58/58/58
