# Generated by Wraith - Game extraction tools
# Please credit DTZxPorter for using it!

v -5.185643 1.431534 1.516225
v -5.185643 0.042454 4.444624
v -5.203891 -1.434546 1.588691
v -2.040900 1.370206 0.000000
v 3.593028 1.370206 0.000000
v -2.040900 1.357828 0.730885
v 3.593028 1.370206 0.000000
v 3.593028 1.357828 0.730885
v -2.040900 1.357828 0.730885
v -2.040900 -1.370206 0.000000
v 3.593028 -1.370206 0.000000
v -2.040900 1.370206 0.000000
v 3.593028 -1.370206 0.000000
v 3.593028 1.370206 0.000000
v -2.040900 1.370206 0.000000
v 3.593028 1.357828 0.730885
v 3.593028 -1.357828 0.730885
v -2.040900 1.357828 0.730885
v 3.593028 -1.357828 0.730885
v -2.040900 -1.357828 0.730885
v -2.040900 1.357828 0.730885
v 3.593028 -1.357828 0.730885
v 3.593028 -1.370206 0.000000
v -2.040900 -1.357828 0.730885
v 3.593028 -1.370206 0.000000
v -2.040900 -1.370206 0.000000
v -2.040900 -1.357828 0.730885
v -2.040900 -1.357828 0.730885
v -2.040900 -1.370206 0.000000
v -2.040900 1.357828 0.730885
v -2.040900 -1.370206 0.000000
v -2.040900 1.370206 0.000000
v -2.040900 1.357828 0.730885
v 3.593028 -1.357828 0.730885
v 3.593028 1.357828 0.730885
v 3.593028 -1.370206 0.000000
v 3.593028 1.357828 0.730885
v 3.593028 1.370206 0.000000
v 3.593028 -1.370206 0.000000
v 0.399806 1.269807 1.494150
v 0.399806 0.027755 4.381581
v -5.185643 1.431534 1.516225
v 0.399806 0.027755 4.381581
v -5.185643 0.042454 4.444624
v -5.185643 1.431534 1.516225
v -5.185643 1.431534 1.516225
v -5.203891 -1.434546 1.588691
v 0.399806 1.269807 1.494150
v -5.203891 -1.434546 1.588691
v 0.382654 -1.358811 1.538300
v 0.399806 1.269807 1.494150
v 0.382654 -1.358811 1.538300
v -5.203891 -1.434546 1.588691
v 0.399806 0.027755 4.381581
v -5.203891 -1.434546 1.588691
v -5.185643 0.042454 4.444624
v 0.399806 0.027755 4.381581
v 6.755577 0.061595 4.949053
v 5.735899 2.076999 0.791390
v 5.561116 -2.124055 0.947362
v 0.923567 0.002639 4.766236
v 0.923567 2.006140 1.494150
v 0.923567 -2.000865 1.494150
v -2.383538 -2.316724 1.582928
v -2.383538 2.321999 1.582928
v -2.383538 0.002639 4.940526
v 3.267217 2.059561 0.714058
v 5.735899 2.076999 0.791390
v 3.267215 0.061077 5.030117
v 5.735899 2.076999 0.791390
v 6.755577 0.061595 4.949053
v 3.267215 0.061077 5.030117
v 3.267217 2.059561 0.714058
v 3.267215 0.061077 5.030117
v 0.399806 1.269807 1.494150
v 3.267215 0.061077 5.030117
v 0.399806 0.027755 4.381581
v 0.399806 1.269807 1.494150
v 0.399806 0.027755 4.381581
v 3.267215 0.061077 5.030117
v 0.382654 -1.358811 1.538300
v 3.267215 0.061077 5.030117
v 3.267217 -2.106221 0.868721
v 0.382654 -1.358811 1.538300
v 3.267217 -2.106221 0.868721
v 3.267215 0.061077 5.030117
v 5.561116 -2.124055 0.947362
v 3.267215 0.061077 5.030117
v 6.755577 0.061595 4.949053
v 5.561116 -2.124055 0.947362
v 3.267217 2.059561 0.714058
v 0.399806 1.269807 1.494150
v 3.267217 -2.106221 0.868721
v 0.399806 1.269807 1.494150
v 0.382654 -1.358811 1.538300
v 3.267217 -2.106221 0.868721
v 3.267217 -2.106221 0.868721
v 5.561116 -2.124055 0.947362
v 3.267217 2.059561 0.714058
v 5.561116 -2.124055 0.947362
v 5.735899 2.076999 0.791390
v 3.267217 2.059561 0.714058
v 0.923567 -2.000865 1.494150
v -2.383538 -2.316724 1.582928
v 0.923567 0.002639 4.766236
v -2.383538 -2.316724 1.582928
v -2.383538 0.002639 4.940526
v 0.923567 0.002639 4.766236
v -2.383538 0.002639 4.940526
v -2.383538 2.321999 1.582928
v 0.923567 0.002639 4.766236
v -2.383538 2.321999 1.582928
v 0.923567 2.006140 1.494150
v 0.923567 0.002639 4.766236
v 0.923567 -2.000865 1.494150
v 0.923567 2.006140 1.494150
v -2.383538 -2.316724 1.582928
v 0.923567 2.006140 1.494150
v -2.383538 2.321999 1.582928
v -2.383538 -2.316724 1.582928
vt 0.670898 0.315430
vt 0.638672 0.276855
vt 0.605469 0.315430
vt 0.270264 0.558350
vt 0.270264 0.996454
vt 0.328857 0.558350
vt 0.270264 0.996454
vt 0.328857 0.996454
vt 0.328857 0.558350
vt 1.351563 0.642334
vt 1.351563 0.591309
vt 1.307617 0.642334
vt 1.351563 0.591309
vt 1.307617 0.591309
vt 1.307617 0.642334
vt 0.328857 0.996454
vt 0.409424 0.996454
vt 0.328857 0.558350
vt 0.409424 0.996454
vt 0.409424 0.558350
vt 0.328857 0.558350
vt 1.328125 0.996645
vt 1.269531 0.996645
vt 1.328125 0.558350
vt 1.269531 0.996645
vt 1.269531 0.558350
vt 1.328125 0.558350
vt 0.347656 0.249512
vt 0.284424 0.249512
vt 0.347656 0.540039
vt 0.284424 0.249512
vt 0.284424 0.540039
vt 0.347656 0.540039
vt 1.349609 0.542480
vt 1.349609 0.247070
vt 1.283203 0.542480
vt 1.349609 0.247070
vt 1.283203 0.247070
vt 1.283203 0.542480
vt 0.801270 0.381836
vt 0.920898 0.381836
vt 0.802246 0.004395
vt 0.920898 0.381836
vt 0.928223 0.004395
vt 0.802246 0.004395
vt 0.718750 0.382813
vt 0.811035 0.383301
vt 0.724121 0.005371
vt 0.811035 0.383301
vt 0.808594 0.005859
vt 0.724121 0.005371
vt 0.995117 0.385254
vt 0.999512 0.007324
vt 0.931152 0.387207
vt 0.999512 0.007324
vt 0.920410 0.009277
vt 0.931152 0.387207
vt 0.148560 0.395996
vt 0.170044 0.366699
vt 0.138184 0.361328
vt 0.497070 0.989174
vt 0.497070 0.905212
vt 0.497070 0.905212
vt 0.068848 0.633545
vt 0.068848 0.633545
vt 0.073914 0.910767
vt 0.718750 0.234375
vt 0.718262 0.404785
vt 0.997070 0.236328
vt 0.718262 0.404785
vt 0.998047 0.453613
vt 0.997070 0.236328
vt 0.871582 0.428711
vt 0.871582 0.241211
vt 0.993652 0.417969
vt 0.871582 0.241211
vt 0.992676 0.271484
vt 0.993652 0.417969
vt 0.992676 0.271484
vt 0.871582 0.241211
vt 0.993652 0.417969
vt 0.871582 0.241211
vt 0.871582 0.428711
vt 0.993652 0.417969
vt 0.718750 0.234375
vt 0.995605 0.234375
vt 0.718262 0.404785
vt 0.995605 0.234375
vt 0.996582 0.451660
vt 0.718262 0.404785
vt 0.994629 0.248535
vt 0.862793 0.286133
vt 0.994629 0.437988
vt 0.862793 0.286133
vt 0.861816 0.405273
vt 0.994629 0.437988
vt 0.719238 0.405762
vt 0.858398 0.426270
vt 0.719238 0.235840
vt 0.858398 0.426270
vt 0.867188 0.234863
vt 0.719238 0.235840
vt 0.019638 0.224121
vt 0.011292 0.011719
vt 0.254395 0.224121
vt 0.011292 0.011719
vt 0.265625 0.011719
vt 0.254395 0.224121
vt 0.265625 0.011719
vt 0.011292 0.011719
vt 0.254395 0.224121
vt 0.011292 0.011719
vt 0.019638 0.224121
vt 0.254395 0.224121
vt 0.528320 0.273926
vt 0.528320 0.184082
vt 0.454346 0.281250
vt 0.528320 0.184082
vt 0.454346 0.176758
vt 0.454346 0.281250
vn -1.000000 0.005871 0.003914
vn -1.000000 0.005871 0.003914
vn -1.000000 0.005871 0.003914
vn 0.000000 1.000000 0.017613
vn 0.000000 1.000000 0.017613
vn 0.000000 1.000000 0.017613
vn 0.000000 1.000000 0.017613
vn 0.000000 1.000000 0.017613
vn 0.000000 1.000000 0.017613
vn 0.000000 0.000000 -1.000000
vn 0.000000 0.000000 -1.000000
vn 0.000000 0.000000 -1.000000
vn 0.000000 0.000000 -1.000000
vn 0.000000 0.000000 -1.000000
vn 0.000000 0.000000 -1.000000
vn 0.000000 0.000000 1.000000
vn 0.000000 0.000000 1.000000
vn 0.000000 0.000000 1.000000
vn 0.000000 0.000000 1.000000
vn 0.000000 0.000000 1.000000
vn 0.000000 0.000000 1.000000
vn 0.000000 -1.000000 0.017613
vn 0.000000 -1.000000 0.017613
vn 0.000000 -1.000000 0.017613
vn 0.000000 -1.000000 0.017613
vn 0.000000 -1.000000 0.017613
vn 0.000000 -1.000000 0.017613
vn -1.000000 0.000000 0.000000
vn -1.000000 0.000000 0.000000
vn -1.000000 0.000000 0.000000
vn -1.000000 0.000000 0.000000
vn -1.000000 0.000000 0.000000
vn -1.000000 0.000000 0.000000
vn 1.000000 0.000000 0.000000
vn 1.000000 0.000000 0.000000
vn 1.000000 0.000000 0.000000
vn 1.000000 0.000000 0.000000
vn 1.000000 0.000000 0.000000
vn 1.000000 0.000000 0.000000
vn 0.009785 0.833659 -0.551859
vn 0.031311 0.019569 1.000000
vn 0.009785 0.833659 -0.551859
vn 0.031311 0.019569 1.000000
vn 0.031311 0.019569 1.000000
vn 0.009785 0.833659 -0.551859
vn 0.009785 0.833659 -0.551859
vn 0.001957 -0.857143 -0.516634
vn 0.009785 0.833659 -0.551859
vn 0.001957 -0.857143 -0.516634
vn 0.001957 -0.857143 -0.516634
vn 0.009785 0.833659 -0.551859
vn 0.001957 -0.857143 -0.516634
vn 0.001957 -0.857143 -0.516634
vn 0.031311 0.019569 1.000000
vn 0.001957 -0.857143 -0.516634
vn 0.031311 0.019569 1.000000
vn 0.031311 0.019569 1.000000
vn 0.964775 -0.048924 -0.260274
vn 0.964775 -0.048924 -0.260274
vn 0.964775 -0.048924 -0.260274
vn 1.000000 0.000000 0.000000
vn 1.000000 0.000000 0.000000
vn 1.000000 0.000000 0.000000
vn -1.000000 0.000000 0.000000
vn -1.000000 0.000000 0.000000
vn -1.000000 0.000000 0.000000
vn -0.158513 0.827789 -0.538160
vn 0.029354 0.835616 -0.549902
vn -0.131115 0.023483 0.990215
vn 0.029354 0.835616 -0.549902
vn -0.005871 0.023483 1.000000
vn -0.131115 0.023483 0.990215
vn -0.158513 0.827789 -0.538160
vn -0.131115 0.023483 0.990215
vn -0.330724 0.794521 -0.508806
vn -0.131115 0.023483 0.990215
vn -0.258317 0.021526 0.966732
vn -0.330724 0.794521 -0.508806
vn -0.258317 0.021526 0.966732
vn -0.131115 0.023483 0.990215
vn -0.317025 -0.823875 -0.467710
vn -0.131115 0.023483 0.990215
vn -0.150685 -0.859100 -0.489237
vn -0.317025 -0.823875 -0.467710
vn -0.150685 -0.859100 -0.489237
vn -0.131115 0.023483 0.990215
vn 0.029354 -0.866928 -0.497065
vn -0.131115 0.023483 0.990215
vn -0.005871 0.023483 1.000000
vn 0.029354 -0.866928 -0.497065
vn -0.158513 0.827789 -0.538160
vn -0.330724 0.794521 -0.508806
vn -0.150685 -0.859100 -0.489237
vn -0.330724 0.794521 -0.508806
vn -0.317025 -0.823875 -0.467710
vn -0.150685 -0.859100 -0.489237
vn -0.150685 -0.859100 -0.489237
vn 0.029354 -0.866928 -0.497065
vn -0.158513 0.827789 -0.538160
vn 0.029354 -0.866928 -0.497065
vn 0.029354 0.835616 -0.549902
vn -0.158513 0.827789 -0.538160
vn 0.060665 -0.835616 0.545988
vn 0.060665 -0.835616 0.545988
vn 0.111546 0.000000 0.994129
vn 0.060665 -0.835616 0.545988
vn 0.111546 0.000000 0.994129
vn 0.111546 0.000000 0.994129
vn 0.111546 0.000000 0.994129
vn 0.037182 0.878669 -0.477495
vn 0.111546 0.000000 0.994129
vn 0.037182 0.878669 -0.477495
vn 0.037182 0.878669 -0.477495
vn 0.111546 0.000000 0.994129
vn -0.027397 0.000000 -1.000000
vn 0.037182 0.878669 -0.477495
vn -0.027397 0.000000 -1.000000
vn 0.037182 0.878669 -0.477495
vn 0.037182 0.878669 -0.477495
vn -0.027397 0.000000 -1.000000
mtllib mtl_t6_attach_optic_acog.mtl
g mtl_t6_attach_optic_acog
usemtl mtl_t6_attach_optic_acog
f 3/3/3 2/2/2 1/1/1
f 6/6/6 5/5/5 4/4/4
f 9/9/9 8/8/8 7/7/7
f 12/12/12 11/11/11 10/10/10
f 15/15/15 14/14/14 13/13/13
f 18/18/18 17/17/17 16/16/16
f 21/21/21 20/20/20 19/19/19
f 24/24/24 23/23/23 22/22/22
f 27/27/27 26/26/26 25/25/25
f 30/30/30 29/29/29 28/28/28
f 33/33/33 32/32/32 31/31/31
f 36/36/36 35/35/35 34/34/34
f 39/39/39 38/38/38 37/37/37
f 42/42/42 41/41/41 40/40/40
f 45/45/45 44/44/44 43/43/43
f 48/48/48 47/47/47 46/46/46
f 51/51/51 50/50/50 49/49/49
f 54/54/54 53/53/53 52/52/52
f 57/57/57 56/56/56 55/55/55
mtllib mtl_t6_attach_optic_acog_camo1.mtl
g mtl_t6_attach_optic_acog_camo1
usemtl mtl_t6_attach_optic_acog_camo1
f 60/60/60 59/59/59 58/58/58
f 63/63/63 62/62/62 61/61/61
f 66/66/66 65/65/65 64/64/64
f 69/69/69 68/68/68 67/67/67
f 72/72/72 71/71/71 70/70/70
f 75/75/75 74/74/74 73/73/73
f 78/78/78 77/77/77 76/76/76
f 81/81/81 80/80/80 79/79/79
f 84/84/84 83/83/83 82/82/82
f 87/87/87 86/86/86 85/85/85
f 90/90/90 89/89/89 88/88/88
f 93/93/93 92/92/92 91/91/91
f 96/96/96 95/95/95 94/94/94
f 99/99/99 98/98/98 97/97/97
f 102/102/102 101/101/101 100/100/100
f 105/105/105 104/104/104 103/103/103
f 108/108/108 107/107/107 106/106/106
f 111/111/111 110/110/110 109/109/109
f 114/114/114 113/113/113 112/112/112
f 117/117/117 116/116/116 115/115/115
f 120/120/120 119/119/119 118/118/118
