# Generated by Wraith - Game extraction tools
# Please credit DTZxPorter for using it!

v 24.900572 7.664477 -1.367229
v 24.657089 11.503734 -3.991298
v 8.274611 7.460176 1.093142
v 4.030335 11.767367 6.668361
v -5.693649 -1.874073 5.082240
v -6.017836 0.428483 1.135075
v -5.693649 -1.874073 5.082240
v 4.030335 11.767367 6.668361
v 8.661438 8.207322 5.919902
v -2.649383 -6.056419 4.396694
v -5.693649 -1.874073 5.082240
v 8.661438 8.207322 5.919902
v -2.649383 -6.056419 4.396694
v -23.855562 -10.706981 10.294559
v -5.693649 -1.874073 5.082240
v -23.855562 -10.706981 10.294559
v -23.802490 -1.446103 11.263349
v -5.693649 -1.874073 5.082240
v -23.802490 -1.446103 11.263349
v -24.536652 4.178249 2.338360
v -5.693649 -1.874073 5.082240
v -24.536652 4.178249 2.338360
v -6.017836 0.428483 1.135075
v -5.693649 -1.874073 5.082240
v 8.661438 8.207322 5.919902
v 4.030335 11.767367 6.668361
v 25.169006 12.553804 2.639835
v 25.188065 8.738628 2.237415
v 8.661438 8.207322 5.919902
v 25.169006 12.553804 2.639835
v 8.274611 7.460176 1.093142
v 8.661438 8.207322 5.919902
v 25.188065 8.738628 2.237415
v -2.649383 -6.056419 4.396694
v 8.661438 8.207322 5.919902
v 8.274611 7.460176 1.093142
v -2.994980 -7.488438 0.058842
v -2.649383 -6.056419 4.396694
v 8.274611 7.460176 1.093142
v -23.855562 -10.706981 10.294559
v -2.649383 -6.056419 4.396694
v -2.994980 -7.488438 0.058842
v -24.642868 -14.353855 0.399707
v -23.855562 -10.706981 10.294559
v -2.994980 -7.488438 0.058842
v -24.642868 -14.353855 0.399707
v -2.994980 -7.488438 0.058842
v -25.148941 -3.252391 -5.510624
v -2.994980 -7.488438 0.058842
v -4.456222 -2.992455 -2.484051
v -25.148941 -3.252391 -5.510624
v 4.030335 11.767367 6.668361
v 3.658921 13.711629 2.123158
v 25.169006 12.553804 2.639835
v 3.658921 13.711629 2.123158
v 24.897978 14.353855 -0.664141
v 25.169006 12.553804 2.639835
v 3.658921 13.711629 2.123158
v 7.006394 11.144450 -2.159955
v 24.897978 14.353855 -0.664141
v 7.006394 11.144450 -2.159955
v 24.657089 11.503734 -3.991298
v 24.897978 14.353855 -0.664141
v 3.658921 13.711629 2.123158
v 4.030335 11.767367 6.668361
v -6.017836 0.428483 1.135075
v 3.658921 13.711629 2.123158
v -6.017836 0.428483 1.135075
v 7.006394 11.144450 -2.159955
v -6.017836 0.428483 1.135075
v -4.456222 -2.992455 -2.484051
v 7.006394 11.144450 -2.159955
v -4.456222 -2.992455 -2.484051
v -6.017836 0.428483 1.135075
v -25.148941 -3.252391 -5.510624
v -6.017836 0.428483 1.135075
v -24.536652 4.178249 2.338360
v -25.148941 -3.252391 -5.510624
v 24.900572 7.664477 -1.367229
v 8.274611 7.460176 1.093142
v 25.188065 8.738628 2.237415
v -4.456222 -2.992455 -2.484051
v -2.994980 -7.488438 0.058842
v 8.274611 7.460176 1.093142
v 7.006394 11.144450 -2.159955
v -4.456222 -2.992455 -2.484051
v 8.274611 7.460176 1.093142
v 24.657089 11.503734 -3.991298
v 7.006394 11.144450 -2.159955
v 8.274611 7.460176 1.093142
v 24.657089 11.503734 -3.991298
v 24.900572 7.664477 -1.367229
v 24.897978 14.353855 -0.664141
v 24.900572 7.664477 -1.367229
v 25.188065 8.738628 2.237415
v 24.897978 14.353855 -0.664141
v 25.169006 12.553804 2.639835
v 24.897978 14.353855 -0.664141
v 25.188065 8.738628 2.237415
v -24.642868 -14.353855 0.399707
v -25.148941 -3.252391 -5.510624
v -23.855562 -10.706981 10.294559
v -25.148941 -3.252391 -5.510624
v -24.536652 4.178249 2.338360
v -23.855562 -10.706981 10.294559
v -23.855562 -10.706981 10.294559
v -24.536652 4.178249 2.338360
v -23.802490 -1.446103 11.263349
vt 0.583008 0.671875
vt 0.566406 0.671875
vt 0.577637 0.766113
vt 0.614258 0.797241
vt 0.562012 0.857544
vt 0.580566 0.872925
vt 0.562012 0.857544
vt 0.614258 0.797241
vt 0.593750 0.772461
vt 0.538086 0.842407
vt 0.562012 0.857544
vt 0.593750 0.772461
vt 0.538086 0.842407
vt 0.495605 0.960724
vt 0.562012 0.857544
vt 0.495605 0.960724
vt 0.541504 0.977463
vt 0.562012 0.857544
vt 0.541504 0.977463
vt 0.582520 0.988312
vt 0.562012 0.857544
vt 0.582520 0.988312
vt 0.580566 0.872925
vt 0.562012 0.857544
vt 0.593750 0.772461
vt 0.614258 0.797241
vt 0.617188 0.671875
vt 0.602539 0.671875
vt 0.593750 0.772461
vt 0.617188 0.671875
vt 0.577637 0.766113
vt 0.593750 0.772461
vt 0.602539 0.671875
vt 0.538086 0.842407
vt 0.593750 0.772461
vt 0.577637 0.766113
vt 0.522461 0.830566
vt 0.538086 0.842407
vt 0.577637 0.766113
vt 0.495605 0.960724
vt 0.538086 0.842407
vt 0.522461 0.830566
vt 0.459229 0.947144
vt 0.495605 0.960724
vt 0.522461 0.830566
vt 0.459229 0.947144
vt 0.522461 0.830566
vt 0.417236 0.932007
vt 0.522461 0.830566
vt 0.505371 0.815430
vt 0.417236 0.932007
vt 0.614258 0.797241
vt 0.625488 0.802490
vt 0.617188 0.671875
vt 0.625488 0.802490
vt 0.632813 0.671875
vt 0.617188 0.671875
vt 0.625488 0.802490
vt 0.646484 0.805054
vt 0.632813 0.671875
vt 0.646484 0.805054
vt 0.644531 0.671875
vt 0.632813 0.671875
vt 0.625488 0.802490
vt 0.614258 0.797241
vt 0.580566 0.872925
vt 0.625488 0.802490
vt 0.580566 0.872925
vt 0.646484 0.805054
vt 0.580566 0.872925
vt 0.600098 0.878357
vt 0.646484 0.805054
vt 0.600098 0.878357
vt 0.580566 0.872925
vt 0.612793 0.994946
vt 0.580566 0.872925
vt 0.582520 0.988312
vt 0.612793 0.994946
vt 0.583008 0.671875
vt 0.577637 0.766113
vt 0.602539 0.671875
vt 0.505371 0.815430
vt 0.522461 0.830566
vt 0.577637 0.766113
vt 0.565918 0.747803
vt 0.505371 0.815430
vt 0.577637 0.766113
vt 0.566406 0.671875
vt 0.565918 0.747803
vt 0.577637 0.766113
vt 0.283447 0.605957
vt 0.339600 0.558105
vt 0.233276 0.558105
vt 0.339600 0.558105
vt 0.316650 0.502930
vt 0.233276 0.558105
vt 0.256104 0.502930
vt 0.233276 0.558105
vt 0.316650 0.502930
vt 0.229248 0.559326
vt 0.289551 0.600098
vt 0.256104 0.504395
vt 0.289551 0.600098
vt 0.336914 0.559326
vt 0.256104 0.504395
vt 0.256104 0.504395
vt 0.336914 0.559326
vt 0.310059 0.504395
vn -0.015656 -0.941292 -0.334638
vn -0.127202 0.121331 -0.984344
vn 0.407045 -0.821918 -0.399217
vn -0.164384 0.414873 0.894325
vn -0.080235 0.389432 0.917808
vn -0.369863 0.909980 -0.191781
vn -0.080235 0.389432 0.917808
vn -0.164384 0.414873 0.894325
vn 0.356164 -0.573386 0.737769
vn 0.438356 -0.532290 0.724070
vn -0.080235 0.389432 0.917808
vn 0.356164 -0.573386 0.737769
vn 0.438356 -0.532290 0.724070
vn 0.348337 -0.569472 0.743640
vn -0.080235 0.389432 0.917808
vn 0.348337 -0.569472 0.743640
vn 0.285714 0.457926 0.841487
vn -0.080235 0.389432 0.917808
vn 0.285714 0.457926 0.841487
vn 0.181996 0.976517 -0.111546
vn -0.080235 0.389432 0.917808
vn 0.181996 0.976517 -0.111546
vn -0.369863 0.909980 -0.191781
vn -0.080235 0.389432 0.917808
vn 0.356164 -0.573386 0.737769
vn -0.164384 0.414873 0.894325
vn 0.142857 0.524462 0.839530
vn 0.166341 -0.636008 0.753425
vn 0.356164 -0.573386 0.737769
vn 0.142857 0.524462 0.839530
vn 0.407045 -0.821918 -0.399217
vn 0.356164 -0.573386 0.737769
vn 0.166341 -0.636008 0.753425
vn 0.438356 -0.532290 0.724070
vn 0.356164 -0.573386 0.737769
vn 0.407045 -0.821918 -0.399217
vn 0.542074 -0.739726 -0.397260
vn 0.438356 -0.532290 0.724070
vn 0.407045 -0.821918 -0.399217
vn 0.348337 -0.569472 0.743640
vn 0.438356 -0.532290 0.724070
vn 0.542074 -0.739726 -0.397260
vn 0.272016 -0.886497 -0.373777
vn 0.348337 -0.569472 0.743640
vn 0.542074 -0.739726 -0.397260
vn 0.272016 -0.886497 -0.373777
vn 0.542074 -0.739726 -0.397260
vn 0.142857 0.168297 -0.974560
vn 0.542074 -0.739726 -0.397260
vn 0.064579 0.117417 -0.990215
vn 0.142857 0.168297 -0.974560
vn -0.164384 0.414873 0.894325
vn -0.452055 0.874755 -0.176125
vn 0.142857 0.524462 0.839530
vn -0.452055 0.874755 -0.176125
vn -0.031311 0.994129 -0.101761
vn 0.142857 0.524462 0.839530
vn -0.452055 0.874755 -0.176125
vn -0.074364 0.090020 -0.992172
vn -0.031311 0.994129 -0.101761
vn -0.074364 0.090020 -0.992172
vn -0.127202 0.121331 -0.984344
vn -0.031311 0.994129 -0.101761
vn -0.452055 0.874755 -0.176125
vn -0.164384 0.414873 0.894325
vn -0.369863 0.909980 -0.191781
vn -0.452055 0.874755 -0.176125
vn -0.369863 0.909980 -0.191781
vn -0.074364 0.090020 -0.992172
vn -0.369863 0.909980 -0.191781
vn 0.064579 0.117417 -0.990215
vn -0.074364 0.090020 -0.992172
vn 0.064579 0.117417 -0.990215
vn -0.369863 0.909980 -0.191781
vn 0.142857 0.168297 -0.974560
vn -0.369863 0.909980 -0.191781
vn 0.181996 0.976517 -0.111546
vn 0.142857 0.168297 -0.974560
vn -0.015656 -0.941292 -0.334638
vn 0.407045 -0.821918 -0.399217
vn 0.166341 -0.636008 0.753425
vn 0.064579 0.117417 -0.990215
vn 0.542074 -0.739726 -0.397260
vn 0.407045 -0.821918 -0.399217
vn -0.074364 0.090020 -0.992172
vn 0.064579 0.117417 -0.990215
vn 0.407045 -0.821918 -0.399217
vn -0.127202 0.121331 -0.984344
vn -0.074364 0.090020 -0.992172
vn 0.407045 -0.821918 -0.399217
vn 0.996086 0.009785 -0.080235
vn 0.996086 0.009785 -0.080235
vn 0.996086 0.009785 -0.080235
vn 0.996086 0.009785 -0.080235
vn 0.996086 0.009785 -0.080235
vn 0.996086 0.009785 -0.080235
vn 0.996086 0.009785 -0.080235
vn 0.996086 0.009785 -0.080235
vn 0.996086 0.009785 -0.080235
vn -0.996086 -0.001957 0.080235
vn -0.996086 -0.001957 0.080235
vn -0.996086 -0.001957 0.080235
vn -0.996086 -0.001957 0.080235
vn -0.996086 -0.001957 0.080235
vn -0.996086 -0.001957 0.080235
vn -0.996086 -0.001957 0.080235
vn -0.996086 -0.001957 0.080235
vn -0.996086 -0.001957 0.080235
mtllib mtl_engine_destroy.mtl
g mtl_engine_destroy
usemtl mtl_engine_destroy
f 3/3/3 2/2/2 1/1/1
f 6/6/6 5/5/5 4/4/4
f 9/9/9 8/8/8 7/7/7
f 12/12/12 11/11/11 10/10/10
f 15/15/15 14/14/14 13/13/13
f 18/18/18 17/17/17 16/16/16
f 21/21/21 20/20/20 19/19/19
f 24/24/24 23/23/23 22/22/22
f 27/27/27 26/26/26 25/25/25
f 30/30/30 29/29/29 28/28/28
f 33/33/33 32/32/32 31/31/31
f 36/36/36 35/35/35 34/34/34
f 39/39/39 38/38/38 37/37/37
f 42/42/42 41/41/41 40/40/40
f 45/45/45 44/44/44 43/43/43
f 48/48/48 47/47/47 46/46/46
f 51/51/51 50/50/50 49/49/49
f 54/54/54 53/53/53 52/52/52
f 57/57/57 56/56/56 55/55/55
f 60/60/60 59/59/59 58/58/58
f 63/63/63 62/62/62 61/61/61
f 66/66/66 65/65/65 64/64/64
f 69/69/69 68/68/68 67/67/67
f 72/72/72 71/71/71 70/70/70
f 75/75/75 74/74/74 73/73/73
f 78/78/78 77/77/77 76/76/76
f 81/81/81 80/80/80 79/79/79
f 84/84/84 83/83/83 82/82/82
f 87/87/87 86/86/86 85/85/85
f 90/90/90 89/89/89 88/88/88
f 93/93/93 92/92/92 91/91/91
f 96/96/96 95/95/95 94/94/94
f 99/99/99 98/98/98 97/97/97
f 102/102/102 101/101/101 100/100/100
f 105/105/105 104/104/104 103/103/103
f 108/108/108 107/107/107 106/106/106
