# Generated by Wraith - Game extraction tools
# Please credit DTZxPorter for using it!

v -0.538561 -6.391483 3.877249
v -3.255891 -4.948248 3.891069
v 0.159751 -2.449022 6.331344
v -3.255891 -4.948248 3.891069
v -4.126334 -1.958741 5.401112
v 0.159751 -2.449022 6.331344
v -4.126334 -1.958741 5.401112
v -3.258017 1.375689 7.555009
v 0.159751 -2.449022 6.331344
v -3.258017 1.375689 7.555009
v -0.044648 2.280963 8.070814
v 0.159751 -2.449022 6.331344
v 0.159751 -2.449022 6.331344
v -0.044648 2.280963 8.070814
v 2.560338 0.769402 6.670040
v 2.550569 -1.704340 4.915184
v 0.159751 -2.449022 6.331344
v 2.560338 0.769402 6.670040
v 0.159751 -2.449022 6.331344
v 2.550569 -1.704340 4.915184
v 2.521052 -4.527296 4.660253
v -0.538561 -6.391483 3.877249
v 0.159751 -2.449022 6.331344
v 2.521052 -4.527296 4.660253
v -5.931260 -1.235469 4.054101
v -4.126334 -1.958741 5.401112
v -3.255891 -4.948248 3.891069
v -5.931260 -1.235469 4.054101
v -5.034422 2.314557 4.928748
v -4.126334 -1.958741 5.401112
v -5.034422 2.314557 4.928748
v -3.258017 1.375689 7.555009
v -4.126334 -1.958741 5.401112
v -3.258017 1.375689 7.555009
v -5.034422 2.314557 4.928748
v -0.196261 4.771725 5.031117
v -0.044648 2.280963 8.070814
v -3.258017 1.375689 7.555009
v -0.196261 4.771725 5.031117
v -0.044648 2.280963 8.070814
v -0.196261 4.771725 5.031117
v 3.353463 2.262208 4.322133
v 2.560338 0.769402 6.670040
v -0.044648 2.280963 8.070814
v 3.353463 2.262208 4.322133
v 2.550569 -1.704340 4.915184
v 2.560338 0.769402 6.670040
v 3.353463 2.262208 4.322133
v 4.360756 -0.692434 3.297580
v 2.550569 -1.704340 4.915184
v 3.353463 2.262208 4.322133
v 4.360756 -0.692434 3.297580
v 3.575408 -3.461377 2.993647
v 2.550569 -1.704340 4.915184
v 3.575408 -3.461377 2.993647
v 2.521052 -4.527296 4.660253
v 2.550569 -1.704340 4.915184
v 4.360756 -0.692434 3.297580
v 3.353463 2.262208 4.322133
v 2.299427 1.647177 1.575379
v 2.904691 -0.137163 0.966904
v 4.360756 -0.692434 3.297580
v 2.299427 1.647177 1.575379
v 2.904691 -0.137163 0.966904
v 3.177822 -2.675291 0.208158
v 4.360756 -0.692434 3.297580
v 3.177822 -2.675291 0.208158
v 3.575408 -3.461377 2.993647
v 4.360756 -0.692434 3.297580
v 3.177822 -2.675291 0.208158
v -0.315511 -3.973357 0.201572
v 3.575408 -3.461377 2.993647
v -0.315511 -3.973357 0.201572
v -0.606293 -6.193007 1.413695
v 3.575408 -3.461377 2.993647
v 3.353463 2.262208 4.322133
v -0.196261 4.771725 5.031117
v 2.299427 1.647177 1.575379
v -0.196261 4.771725 5.031117
v -0.582823 3.661842 0.234894
v 2.299427 1.647177 1.575379
v -3.945679 2.413851 1.217861
v -0.582823 3.661842 0.234894
v -0.196261 4.771725 5.031117
v -5.034422 2.314557 4.928748
v -3.945679 2.413851 1.217861
v -0.196261 4.771725 5.031117
v -0.583743 -0.543951 -0.502455
v -0.315511 -3.973357 0.201572
v 3.177822 -2.675291 0.208158
v 2.904691 -0.137163 0.966904
v -0.583743 -0.543951 -0.502455
v 3.177822 -2.675291 0.208158
v -0.583743 -0.543951 -0.502455
v 2.904691 -0.137163 0.966904
v 2.299427 1.647177 1.575379
v -0.582823 3.661842 0.234894
v -0.583743 -0.543951 -0.502455
v 2.299427 1.647177 1.575379
v -0.606293 -6.193007 1.413695
v -0.538561 -6.391483 3.877249
v 2.521052 -4.527296 4.660253
v 3.575408 -3.461377 2.993647
v -0.606293 -6.193007 1.413695
v 2.521052 -4.527296 4.660253
v -3.255891 -4.948248 3.891069
v -0.538561 -6.391483 3.877249
v -0.606293 -6.193007 1.413695
v -4.300850 -5.602551 1.948129
v -3.255891 -4.948248 3.891069
v -0.606293 -6.193007 1.413695
v -4.300850 -5.602551 1.948129
v -5.931260 -1.235469 4.054101
v -3.255891 -4.948248 3.891069
v -3.660328 -0.861548 0.216291
v -5.931260 -1.235469 4.054101
v -4.300850 -5.602551 1.948129
v -3.660328 -0.861548 0.216291
v -3.945679 2.413851 1.217861
v -5.931260 -1.235469 4.054101
v -3.945679 2.413851 1.217861
v -5.034422 2.314557 4.928748
v -5.931260 -1.235469 4.054101
v -3.849667 -4.051320 0.111994
v -4.300850 -5.602551 1.948129
v -0.606293 -6.193007 1.413695
v -3.849667 -4.051320 0.111994
v -3.660328 -0.861548 0.216291
v -4.300850 -5.602551 1.948129
v -3.660328 -0.861548 0.216291
v -3.849667 -4.051320 0.111994
v -0.315511 -3.973357 0.201572
v -0.583743 -0.543951 -0.502455
v -3.660328 -0.861548 0.216291
v -0.315511 -3.973357 0.201572
v -3.945679 2.413851 1.217861
v -3.660328 -0.861548 0.216291
v -0.583743 -0.543951 -0.502455
v -0.582823 3.661842 0.234894
v -3.945679 2.413851 1.217861
v -0.583743 -0.543951 -0.502455
v -0.315511 -3.973357 0.201572
v -3.849667 -4.051320 0.111994
v -0.606293 -6.193007 1.413695
vt 0.990723 0.263184
vt 0.863770 0.217285
vt 0.840332 0.346680
vt 0.863770 0.217285
vt 0.764160 0.235840
vt 0.840332 0.346680
vt 0.764160 0.235840
vt 0.723145 0.310059
vt 0.840332 0.346680
vt 0.723145 0.310059
vt 0.729492 0.409668
vt 0.840332 0.346680
vt 0.840332 0.346680
vt 0.729492 0.409668
vt 0.771484 0.436035
vt 0.842773 0.416016
vt 0.840332 0.346680
vt 0.771484 0.436035
vt 0.840332 0.346680
vt 0.842773 0.416016
vt 0.899902 0.387695
vt 0.990723 0.263184
vt 0.840332 0.346680
vt 0.899902 0.387695
vt 0.763672 0.211426
vt 0.764160 0.235840
vt 0.863770 0.217285
vt 0.763672 0.211426
vt 0.680176 0.255859
vt 0.764160 0.235840
vt 0.680176 0.255859
vt 0.723145 0.310059
vt 0.764160 0.235840
vt 0.723145 0.310059
vt 0.680176 0.255859
vt 0.675293 0.473145
vt 0.729492 0.409668
vt 0.723145 0.310059
vt 0.675293 0.473145
vt 0.729492 0.409668
vt 0.675293 0.473145
vt 0.749023 0.506836
vt 0.771484 0.436035
vt 0.729492 0.409668
vt 0.749023 0.506836
vt 0.842773 0.416016
vt 0.771484 0.436035
vt 0.749023 0.506836
vt 0.833496 0.500488
vt 0.842773 0.416016
vt 0.749023 0.506836
vt 0.833496 0.500488
vt 0.920898 0.480469
vt 0.842773 0.416016
vt 0.920898 0.480469
vt 0.899902 0.387695
vt 0.842773 0.416016
vt 0.833496 0.500488
vt 0.749023 0.506836
vt 0.781250 0.578125
vt 0.836914 0.560547
vt 0.833496 0.500488
vt 0.781250 0.578125
vt 0.836914 0.560547
vt 0.895020 0.547852
vt 0.833496 0.500488
vt 0.895020 0.547852
vt 0.920898 0.480469
vt 0.833496 0.500488
vt 0.895020 0.547852
vt 0.957520 0.601807
vt 0.920898 0.480469
vt 0.957520 0.601807
vt 0.992188 0.493652
vt 0.920898 0.480469
vt 0.749023 0.506836
vt 0.675293 0.473145
vt 0.781250 0.578125
vt 0.675293 0.473145
vt 0.758789 0.651123
vt 0.781250 0.578125
vt 0.662598 0.687500
vt 0.758789 0.651123
vt 0.675293 0.473145
vt 0.590332 0.486816
vt 0.662598 0.687500
vt 0.675293 0.473145
vt 0.872559 0.638184
vt 0.957520 0.601807
vt 0.895020 0.547852
vt 0.836914 0.560547
vt 0.872559 0.638184
vt 0.895020 0.547852
vt 0.872559 0.638184
vt 0.836914 0.560547
vt 0.781250 0.578125
vt 0.758789 0.651123
vt 0.872559 0.638184
vt 0.781250 0.578125
vt 0.992188 0.493652
vt 0.990723 0.263184
vt 0.899902 0.387695
vt 0.920898 0.480469
vt 0.992188 0.493652
vt 0.899902 0.387695
vt 0.863770 0.217285
vt 0.990723 0.263184
vt 0.861816 0.088867
vt 0.830078 0.138672
vt 0.863770 0.217285
vt 0.861816 0.088867
vt 0.830078 0.138672
vt 0.763672 0.211426
vt 0.863770 0.217285
vt 0.728516 0.131348
vt 0.763672 0.211426
vt 0.830078 0.138672
vt 0.728516 0.131348
vt 0.657227 0.181152
vt 0.763672 0.211426
vt 0.657227 0.181152
vt 0.680176 0.255859
vt 0.763672 0.211426
vt 0.791016 0.115723
vt 0.830078 0.138672
vt 0.861816 0.088867
vt 0.791016 0.115723
vt 0.728516 0.131348
vt 0.830078 0.138672
vt 0.728516 0.131348
vt 0.791016 0.115723
vt 0.788574 0.039551
vt 0.703613 0.076172
vt 0.728516 0.131348
vt 0.788574 0.039551
vt 0.657227 0.181152
vt 0.728516 0.131348
vt 0.703613 0.076172
vt 0.600098 0.113770
vt 0.657227 0.181152
vt 0.703613 0.076172
vt 0.788574 0.039551
vt 0.791016 0.115723
vt 0.861816 0.088867
vn 0.099804 -0.825832 0.555773
vn -0.430528 -0.700587 0.569472
vn 0.078278 -0.436399 0.896282
vn -0.430528 -0.700587 0.569472
vn -0.481409 -0.397260 0.780822
vn 0.078278 -0.436399 0.896282
vn -0.481409 -0.397260 0.780822
vn -0.510763 0.093933 0.855186
vn 0.078278 -0.436399 0.896282
vn -0.510763 0.093933 0.855186
vn 0.168297 0.189824 0.966732
vn 0.078278 -0.436399 0.896282
vn 0.078278 -0.436399 0.896282
vn 0.168297 0.189824 0.966732
vn 0.704501 0.048924 0.706458
vn 0.618395 -0.275930 0.735812
vn 0.078278 -0.436399 0.896282
vn 0.704501 0.048924 0.706458
vn 0.078278 -0.436399 0.896282
vn 0.618395 -0.275930 0.735812
vn 0.647749 -0.544031 0.532290
vn 0.099804 -0.825832 0.555773
vn 0.078278 -0.436399 0.896282
vn 0.647749 -0.544031 0.532290
vn -0.984344 -0.135029 0.113503
vn -0.481409 -0.397260 0.780822
vn -0.430528 -0.700587 0.569472
vn -0.984344 -0.135029 0.113503
vn -0.792564 0.565558 0.223092
vn -0.481409 -0.397260 0.780822
vn -0.792564 0.565558 0.223092
vn -0.510763 0.093933 0.855186
vn -0.481409 -0.397260 0.780822
vn -0.510763 0.093933 0.855186
vn -0.792564 0.565558 0.223092
vn 0.121331 0.968689 0.215264
vn 0.168297 0.189824 0.966732
vn -0.510763 0.093933 0.855186
vn 0.121331 0.968689 0.215264
vn 0.168297 0.189824 0.966732
vn 0.121331 0.968689 0.215264
vn 0.851272 0.514677 0.101761
vn 0.704501 0.048924 0.706458
vn 0.168297 0.189824 0.966732
vn 0.851272 0.514677 0.101761
vn 0.618395 -0.275930 0.735812
vn 0.704501 0.048924 0.706458
vn 0.851272 0.514677 0.101761
vn 0.994129 0.035225 0.097847
vn 0.618395 -0.275930 0.735812
vn 0.851272 0.514677 0.101761
vn 0.994129 0.035225 0.097847
vn 0.843444 -0.522505 -0.127202
vn 0.618395 -0.275930 0.735812
vn 0.843444 -0.522505 -0.127202
vn 0.647749 -0.544031 0.532290
vn 0.618395 -0.275930 0.735812
vn 0.994129 0.035225 0.097847
vn 0.851272 0.514677 0.101761
vn 0.653620 0.510763 -0.557730
vn 0.665362 0.183953 -0.722113
vn 0.994129 0.035225 0.097847
vn 0.653620 0.510763 -0.557730
vn 0.665362 0.183953 -0.722113
vn 0.630137 -0.270059 -0.727984
vn 0.994129 0.035225 0.097847
vn 0.630137 -0.270059 -0.727984
vn 0.843444 -0.522505 -0.127202
vn 0.994129 0.035225 0.097847
vn 0.630137 -0.270059 -0.727984
vn 0.136986 -0.381605 -0.913894
vn 0.843444 -0.522505 -0.127202
vn 0.136986 -0.381605 -0.913894
vn 0.193738 -0.906067 -0.373777
vn 0.843444 -0.522505 -0.127202
vn 0.851272 0.514677 0.101761
vn 0.121331 0.968689 0.215264
vn 0.653620 0.510763 -0.557730
vn 0.121331 0.968689 0.215264
vn 0.095890 0.684932 -0.722113
vn 0.653620 0.510763 -0.557730
vn -0.637965 0.508806 -0.577299
vn 0.095890 0.684932 -0.722113
vn 0.121331 0.968689 0.215264
vn -0.792564 0.565558 0.223092
vn -0.637965 0.508806 -0.577299
vn 0.121331 0.968689 0.215264
vn 0.068493 0.099804 -0.992172
vn 0.136986 -0.381605 -0.913894
vn 0.630137 -0.270059 -0.727984
vn 0.665362 0.183953 -0.722113
vn 0.068493 0.099804 -0.992172
vn 0.630137 -0.270059 -0.727984
vn 0.068493 0.099804 -0.992172
vn 0.665362 0.183953 -0.722113
vn 0.653620 0.510763 -0.557730
vn 0.095890 0.684932 -0.722113
vn 0.068493 0.099804 -0.992172
vn 0.653620 0.510763 -0.557730
vn 0.193738 -0.906067 -0.373777
vn 0.099804 -0.825832 0.555773
vn 0.647749 -0.544031 0.532290
vn 0.843444 -0.522505 -0.127202
vn 0.193738 -0.906067 -0.373777
vn 0.647749 -0.544031 0.532290
vn -0.430528 -0.700587 0.569472
vn 0.099804 -0.825832 0.555773
vn 0.193738 -0.906067 -0.373777
vn -0.667319 -0.724070 -0.172211
vn -0.430528 -0.700587 0.569472
vn 0.193738 -0.906067 -0.373777
vn -0.667319 -0.724070 -0.172211
vn -0.984344 -0.135029 0.113503
vn -0.430528 -0.700587 0.569472
vn -0.618395 0.074364 -0.782779
vn -0.984344 -0.135029 0.113503
vn -0.667319 -0.724070 -0.172211
vn -0.618395 0.074364 -0.782779
vn -0.637965 0.508806 -0.577299
vn -0.984344 -0.135029 0.113503
vn -0.637965 0.508806 -0.577299
vn -0.792564 0.565558 0.223092
vn -0.984344 -0.135029 0.113503
vn -0.416830 -0.289628 -0.861057
vn -0.667319 -0.724070 -0.172211
vn 0.193738 -0.906067 -0.373777
vn -0.416830 -0.289628 -0.861057
vn -0.618395 0.074364 -0.782779
vn -0.667319 -0.724070 -0.172211
vn -0.618395 0.074364 -0.782779
vn -0.416830 -0.289628 -0.861057
vn 0.136986 -0.381605 -0.913894
vn 0.068493 0.099804 -0.992172
vn -0.618395 0.074364 -0.782779
vn 0.136986 -0.381605 -0.913894
vn -0.637965 0.508806 -0.577299
vn -0.618395 0.074364 -0.782779
vn 0.068493 0.099804 -0.992172
vn 0.095890 0.684932 -0.722113
vn -0.637965 0.508806 -0.577299
vn 0.068493 0.099804 -0.992172
vn 0.136986 -0.381605 -0.913894
vn -0.416830 -0.289628 -0.861057
vn 0.193738 -0.906067 -0.373777
mtllib mtl_fx_dest_atlas.mtl
g mtl_fx_dest_atlas
usemtl mtl_fx_dest_atlas
f 3/3/3 2/2/2 1/1/1
f 6/6/6 5/5/5 4/4/4
f 9/9/9 8/8/8 7/7/7
f 12/12/12 11/11/11 10/10/10
f 15/15/15 14/14/14 13/13/13
f 18/18/18 17/17/17 16/16/16
f 21/21/21 20/20/20 19/19/19
f 24/24/24 23/23/23 22/22/22
f 27/27/27 26/26/26 25/25/25
f 30/30/30 29/29/29 28/28/28
f 33/33/33 32/32/32 31/31/31
f 36/36/36 35/35/35 34/34/34
f 39/39/39 38/38/38 37/37/37
f 42/42/42 41/41/41 40/40/40
f 45/45/45 44/44/44 43/43/43
f 48/48/48 47/47/47 46/46/46
f 51/51/51 50/50/50 49/49/49
f 54/54/54 53/53/53 52/52/52
f 57/57/57 56/56/56 55/55/55
f 60/60/60 59/59/59 58/58/58
f 63/63/63 62/62/62 61/61/61
f 66/66/66 65/65/65 64/64/64
f 69/69/69 68/68/68 67/67/67
f 72/72/72 71/71/71 70/70/70
f 75/75/75 74/74/74 73/73/73
f 78/78/78 77/77/77 76/76/76
f 81/81/81 80/80/80 79/79/79
f 84/84/84 83/83/83 82/82/82
f 87/87/87 86/86/86 85/85/85
f 90/90/90 89/89/89 88/88/88
f 93/93/93 92/92/92 91/91/91
f 96/96/96 95/95/95 94/94/94
f 99/99/99 98/98/98 97/97/97
f 102/102/102 101/101/101 100/100/100
f 105/105/105 104/104/104 103/103/103
f 108/108/108 107/107/107 106/106/106
f 111/111/111 110/110/110 109/109/109
f 114/114/114 113/113/113 112/112/112
f 117/117/117 116/116/116 115/115/115
f 120/120/120 119/119/119 118/118/118
f 123/123/123 122/122/122 121/121/121
f 126/126/126 125/125/125 124/124/124
f 129/129/129 128/128/128 127/127/127
f 132/132/132 131/131/131 130/130/130
f 135/135/135 134/134/134 133/133/133
f 138/138/138 137/137/137 136/136/136
f 141/141/141 140/140/140 139/139/139
f 144/144/144 143/143/143 142/142/142
