# Generated by Wraith - Game extraction tools
# Please credit DTZxPorter for using it!

v -11.121313 -10.785594 -1.097608
v -10.459849 -7.069658 0.825835
v -4.527082 -10.785594 2.389373
v -10.459849 -7.069658 0.825835
v -3.398347 -7.069658 2.847891
v -4.527082 -10.785594 2.389373
v -4.527082 -10.785594 2.389373
v -3.398347 -7.069658 2.847891
v 3.052310 -10.785594 3.689241
v -3.398347 -7.069658 2.847891
v 3.740828 -7.069658 2.513172
v 3.052310 -10.785594 3.689241
v 3.052310 -10.785594 3.689241
v 3.740828 -7.069658 2.513172
v 11.571185 -10.785594 0.955538
v 3.740828 -7.069658 2.513172
v 10.254589 -7.069658 -1.940608
v 11.571185 -10.785594 0.955538
v 3.740828 -7.069658 2.513172
v 4.221947 -3.871153 2.379528
v 10.254589 -7.069658 -1.940608
v 4.221947 -3.871153 2.379528
v 8.127769 -3.871153 -4.032097
v 10.254589 -7.069658 -1.940608
v -10.459849 -7.069658 0.825835
v -9.536646 -3.871153 2.090768
v -3.398347 -7.069658 2.847891
v -9.536646 -3.871153 2.090768
v -2.074588 -3.871153 3.891008
v -3.398347 -7.069658 2.847891
v -3.398347 -7.069658 2.847891
v -2.074588 -3.871153 3.891008
v 3.740828 -7.069658 2.513172
v -2.074588 -3.871153 3.891008
v 4.221947 -3.871153 2.379528
v 3.740828 -7.069658 2.513172
v -2.074588 -3.871153 3.891008
v -1.003986 -0.152225 3.919317
v 4.221947 -3.871153 2.379528
v -1.003986 -0.152225 3.919317
v 4.450890 -0.152225 1.132370
v 4.221947 -3.871153 2.379528
v 4.221947 -3.871153 2.379528
v 4.450890 -0.152225 1.132370
v 8.127769 -3.871153 -4.032097
v 4.450890 -0.152225 1.132370
v 6.232284 -0.152225 -5.303667
v 8.127769 -3.871153 -4.032097
v 4.450890 -0.152225 1.132370
v 4.790336 3.871153 0.293827
v 6.232284 -0.152225 -5.303667
v 4.790336 3.871153 0.293827
v 3.125780 3.871153 -6.636494
v 6.232284 -0.152225 -5.303667
v -9.536646 -3.871153 2.090768
v -8.349043 -0.152225 4.319067
v -2.074588 -3.871153 3.891008
v -8.349043 -0.152225 4.319067
v -1.003986 -0.152225 3.919317
v -2.074588 -3.871153 3.891008
v -8.349043 -0.152225 4.319067
v -6.763593 3.871153 5.863112
v -1.003986 -0.152225 3.919317
v -6.763593 3.871153 5.863112
v 0.754281 3.871153 4.196568
v -1.003986 -0.152225 3.919317
v -1.003986 -0.152225 3.919317
v 0.754281 3.871153 4.196568
v 4.450890 -0.152225 1.132370
v 0.754281 3.871153 4.196568
v 4.790336 3.871153 0.293827
v 4.450890 -0.152225 1.132370
v 0.754281 3.871153 4.196568
v 1.097211 7.659740 3.850630
v 4.790336 3.871153 0.293827
v 1.097211 7.659740 3.850630
v 3.660231 7.659740 -1.200574
v 4.790336 3.871153 0.293827
v 4.790336 3.871153 0.293827
v 3.660231 7.659740 -1.200574
v 3.125780 3.871153 -6.636494
v 3.660231 7.659740 -1.200574
v 1.185974 7.659740 -7.445482
v 3.125780 3.871153 -6.636494
v 3.660231 7.659740 -1.200574
v 3.719444 10.785594 -1.931762
v 1.185974 7.659740 -7.445482
v 3.719444 10.785594 -1.931762
v -0.853638 10.785594 -7.940736
v 1.185974 7.659740 -7.445482
v -6.763593 3.871153 5.863112
v -3.957241 6.866034 7.512396
v 0.754281 3.871153 4.196568
v -3.957241 6.866034 7.512396
v 1.097211 7.659740 3.850630
v 0.754281 3.871153 4.196568
v 1.097211 7.659740 3.850630
v -3.957241 6.866034 7.512396
v -1.685658 8.910594 8.463348
v 2.804950 10.785594 3.818857
v 1.097211 7.659740 3.850630
v -1.685658 8.910594 8.463348
v 1.097211 7.659740 3.850630
v 2.804950 10.785594 3.818857
v 3.660231 7.659740 -1.200574
v 2.804950 10.785594 3.818857
v 3.719444 10.785594 -1.931762
v 3.660231 7.659740 -1.200574
vt 0.000000 0.008301
vt 0.000000 0.184570
vt 0.333252 0.008301
vt 0.000000 0.184570
vt 0.333252 0.184570
vt 0.333252 0.008301
vt 0.333252 0.008301
vt 0.333252 0.184570
vt 0.666504 0.008301
vt 0.333252 0.184570
vt 0.666504 0.184570
vt 0.666504 0.008301
vt 0.666504 0.008301
vt 0.666504 0.184570
vt 0.989258 0.008301
vt 0.666504 0.184570
vt 0.989258 0.184570
vt 0.989258 0.008301
vt 0.666504 0.184570
vt 0.666504 0.336426
vt 0.989258 0.184570
vt 0.666504 0.336426
vt 0.989258 0.336426
vt 0.989258 0.184570
vt 0.000000 0.184570
vt 0.000000 0.336426
vt 0.333252 0.184570
vt 0.000000 0.336426
vt 0.333252 0.336426
vt 0.333252 0.184570
vt 0.333252 0.184570
vt 0.333252 0.336426
vt 0.666504 0.184570
vt 0.333252 0.336426
vt 0.666504 0.336426
vt 0.666504 0.184570
vt 0.333252 0.336426
vt 0.333252 0.493652
vt 0.666504 0.336426
vt 0.333252 0.493652
vt 0.666504 0.493652
vt 0.666504 0.336426
vt 0.666504 0.336426
vt 0.666504 0.493652
vt 0.989258 0.336426
vt 0.666504 0.493652
vt 0.989258 0.493652
vt 0.989258 0.336426
vt 0.666504 0.493652
vt 0.666504 0.664063
vt 0.989258 0.493652
vt 0.666504 0.664063
vt 0.989258 0.664063
vt 0.989258 0.493652
vt 0.000000 0.336426
vt 0.000000 0.493652
vt 0.333252 0.336426
vt 0.000000 0.493652
vt 0.333252 0.493652
vt 0.333252 0.336426
vt 0.000000 0.493652
vt 0.000000 0.664063
vt 0.333252 0.493652
vt 0.000000 0.664063
vt 0.333252 0.664063
vt 0.333252 0.493652
vt 0.333252 0.493652
vt 0.333252 0.664063
vt 0.666504 0.493652
vt 0.333252 0.664063
vt 0.666504 0.664063
vt 0.666504 0.493652
vt 0.333252 0.664063
vt 0.333252 0.843628
vt 0.666504 0.664063
vt 0.333252 0.843628
vt 0.666504 0.843628
vt 0.666504 0.664063
vt 0.666504 0.664063
vt 0.666504 0.843628
vt 0.989258 0.664063
vt 0.666504 0.843628
vt 0.989258 0.843628
vt 0.989258 0.664063
vt 0.666504 0.843628
vt 0.666504 0.991753
vt 0.989258 0.843628
vt 0.666504 0.991753
vt 0.989258 0.991753
vt 0.989258 0.843628
vt 0.000000 0.664063
vt 0.000000 0.843628
vt 0.333252 0.664063
vt 0.000000 0.843628
vt 0.333252 0.843628
vt 0.333252 0.664063
vt 0.333252 0.843628
vt 0.000000 0.843628
vt 0.000000 0.991753
vt 0.333252 0.991753
vt 0.333252 0.843628
vt 0.000000 0.991753
vt 0.333252 0.843628
vt 0.333252 0.991753
vt 0.666504 0.843628
vt 0.333252 0.991753
vt 0.666504 0.991753
vt 0.666504 0.843628
vn -0.365949 -0.203523 0.908023
vn -0.307241 -0.227006 0.923679
vn -0.221135 -0.046967 0.974560
vn -0.307241 -0.227006 0.923679
vn -0.140900 -0.133072 0.980431
vn -0.221135 -0.046967 0.974560
vn -0.221135 -0.046967 0.974560
vn -0.140900 -0.133072 0.980431
vn 0.166341 0.305284 0.937378
vn -0.140900 -0.133072 0.980431
vn 0.303327 0.217221 0.927593
vn 0.166341 0.305284 0.937378
vn 0.166341 0.305284 0.937378
vn 0.303327 0.217221 0.927593
vn 0.381605 0.469667 0.796477
vn 0.303327 0.217221 0.927593
vn 0.530333 0.436399 0.726027
vn 0.381605 0.469667 0.796477
vn 0.303327 0.217221 0.927593
vn 0.555773 0.176125 0.812133
vn 0.530333 0.436399 0.726027
vn 0.555773 0.176125 0.812133
vn 0.774951 0.362035 0.516634
vn 0.530333 0.436399 0.726027
vn -0.307241 -0.227006 0.923679
vn -0.168297 -0.258317 0.951076
vn -0.140900 -0.133072 0.980431
vn -0.168297 -0.258317 0.951076
vn 0.035225 -0.154599 0.986301
vn -0.140900 -0.133072 0.980431
vn -0.140900 -0.133072 0.980431
vn 0.035225 -0.154599 0.986301
vn 0.303327 0.217221 0.927593
vn 0.035225 -0.154599 0.986301
vn 0.555773 0.176125 0.812133
vn 0.303327 0.217221 0.927593
vn 0.035225 -0.154599 0.986301
vn 0.250489 -0.138943 0.958904
vn 0.555773 0.176125 0.812133
vn 0.250489 -0.138943 0.958904
vn 0.772994 0.183953 0.606654
vn 0.555773 0.176125 0.812133
vn 0.555773 0.176125 0.812133
vn 0.772994 0.183953 0.606654
vn 0.774951 0.362035 0.516634
vn 0.772994 0.183953 0.606654
vn 0.921722 0.330724 0.199609
vn 0.774951 0.362035 0.516634
vn 0.772994 0.183953 0.606654
vn 0.923679 0.211350 0.318982
vn 0.921722 0.330724 0.199609
vn 0.923679 0.211350 0.318982
vn 0.941292 0.309198 -0.140900
vn 0.921722 0.330724 0.199609
vn -0.168297 -0.258317 0.951076
vn 0.021526 -0.268102 0.962818
vn 0.035225 -0.154599 0.986301
vn 0.021526 -0.268102 0.962818
vn 0.250489 -0.138943 0.958904
vn 0.035225 -0.154599 0.986301
vn 0.021526 -0.268102 0.962818
vn 0.260274 -0.309198 0.913894
vn 0.250489 -0.138943 0.958904
vn 0.260274 -0.309198 0.913894
vn 0.500978 -0.129159 0.855186
vn 0.250489 -0.138943 0.958904
vn 0.250489 -0.138943 0.958904
vn 0.500978 -0.129159 0.855186
vn 0.772994 0.183953 0.606654
vn 0.500978 -0.129159 0.855186
vn 0.923679 0.211350 0.318982
vn 0.772994 0.183953 0.606654
vn 0.500978 -0.129159 0.855186
vn 0.743640 -0.252446 0.618395
vn 0.923679 0.211350 0.318982
vn 0.743640 -0.252446 0.618395
vn 0.992172 0.129159 0.027397
vn 0.923679 0.211350 0.318982
vn 0.923679 0.211350 0.318982
vn 0.992172 0.129159 0.027397
vn 0.941292 0.309198 -0.140900
vn 0.992172 0.129159 0.027397
vn 0.890411 0.230920 -0.391389
vn 0.941292 0.309198 -0.140900
vn 0.992172 0.129159 0.027397
vn 0.994129 -0.029354 -0.107632
vn 0.890411 0.230920 -0.391389
vn 0.994129 -0.029354 -0.107632
vn 0.853229 0.174168 -0.491194
vn 0.890411 0.230920 -0.391389
vn 0.260274 -0.309198 0.913894
vn 0.518591 -0.471624 0.714286
vn 0.500978 -0.129159 0.855186
vn 0.518591 -0.471624 0.714286
vn 0.743640 -0.252446 0.618395
vn 0.500978 -0.129159 0.855186
vn 0.743640 -0.252446 0.618395
vn 0.518591 -0.471624 0.714286
vn 0.622309 -0.573386 0.532290
vn 0.802348 -0.414873 0.430528
vn 0.743640 -0.252446 0.618395
vn 0.622309 -0.573386 0.532290
vn 0.743640 -0.252446 0.618395
vn 0.802348 -0.414873 0.430528
vn 0.992172 0.129159 0.027397
vn 0.802348 -0.414873 0.430528
vn 0.994129 -0.029354 -0.107632
vn 0.992172 0.129159 0.027397
mtllib mtl_fx_decal_burnt_paper.mtl
g mtl_fx_decal_burnt_paper
usemtl mtl_fx_decal_burnt_paper
f 3/3/3 2/2/2 1/1/1
f 6/6/6 5/5/5 4/4/4
f 9/9/9 8/8/8 7/7/7
f 12/12/12 11/11/11 10/10/10
f 15/15/15 14/14/14 13/13/13
f 18/18/18 17/17/17 16/16/16
f 21/21/21 20/20/20 19/19/19
f 24/24/24 23/23/23 22/22/22
f 27/27/27 26/26/26 25/25/25
f 30/30/30 29/29/29 28/28/28
f 33/33/33 32/32/32 31/31/31
f 36/36/36 35/35/35 34/34/34
f 39/39/39 38/38/38 37/37/37
f 42/42/42 41/41/41 40/40/40
f 45/45/45 44/44/44 43/43/43
f 48/48/48 47/47/47 46/46/46
f 51/51/51 50/50/50 49/49/49
f 54/54/54 53/53/53 52/52/52
f 57/57/57 56/56/56 55/55/55
f 60/60/60 59/59/59 58/58/58
f 63/63/63 62/62/62 61/61/61
f 66/66/66 65/65/65 64/64/64
f 69/69/69 68/68/68 67/67/67
f 72/72/72 71/71/71 70/70/70
f 75/75/75 74/74/74 73/73/73
f 78/78/78 77/77/77 76/76/76
f 81/81/81 80/80/80 79/79/79
f 84/84/84 83/83/83 82/82/82
f 87/87/87 86/86/86 85/85/85
f 90/90/90 89/89/89 88/88/88
f 93/93/93 92/92/92 91/91/91
f 96/96/96 95/95/95 94/94/94
f 99/99/99 98/98/98 97/97/97
f 102/102/102 101/101/101 100/100/100
f 105/105/105 104/104/104 103/103/103
f 108/108/108 107/107/107 106/106/106
