# Generated by Wraith - Game extraction tools
# Please credit DTZxPorter for using it!

v 4.804778 2.045563 14.485259
v -3.395314 -2.045563 -35.642578
v 4.254347 -2.045563 -11.800507
v 4.804778 2.045563 14.485259
v -4.804778 -2.045563 7.056854
v -3.395314 -2.045563 -35.642578
v 3.073042 -2.045563 35.642578
v -4.804778 -2.045563 7.056854
v 4.804778 2.045563 14.485259
v 3.073042 -2.045563 35.642578
v 4.804778 2.045563 14.485259
v 4.254347 -2.045563 -11.800507
v 3.073042 -2.045563 35.642578
v 4.254347 -2.045563 -11.800507
v -4.804778 -2.045563 7.056854
v 4.254347 -2.045563 -11.800507
v -3.395314 -2.045563 -35.642578
v -4.804778 -2.045563 7.056854
vt 0.823242 0.670654
vt 0.938477 0.000000
vt 0.834473 0.300293
vt 0.823242 0.670654
vt 0.961914 0.562500
vt 0.938477 0.000000
vt 0.846191 1.000000
vt 0.961914 0.562500
vt 0.823242 0.670654
vt 0.660156 1.000000
vt 0.823242 0.670654
vt 0.648926 0.300293
vt 0.274902 1.000000
vt 0.288818 0.328613
vt 0.164673 0.589111
vt 0.288818 0.328613
vt 0.186035 0.000000
vt 0.164673 0.589111
vn 0.455969 0.878669 -0.146771
vn 0.455969 0.878669 -0.146771
vn 0.455969 0.878669 -0.146771
vn -0.383562 0.923679 -0.011742
vn -0.383562 0.923679 -0.011742
vn -0.383562 0.923679 -0.011742
vn -0.471624 0.872798 0.129159
vn -0.471624 0.872798 0.129159
vn -0.471624 0.872798 0.129159
vn 0.958904 -0.281800 0.023483
vn 0.958904 -0.281800 0.023483
vn 0.958904 -0.281800 0.023483
vn 0.000000 -1.000000 0.000000
vn 0.000000 -1.000000 0.000000
vn 0.000000 -1.000000 0.000000
vn 0.000000 -1.000000 0.000000
vn 0.000000 -1.000000 0.000000
vn 0.000000 -1.000000 0.000000
mtllib mtl_fx_wood_splinter.mtl
g mtl_fx_wood_splinter
usemtl mtl_fx_wood_splinter
f 3/3/3 2/2/2 1/1/1
f 6/6/6 5/5/5 4/4/4
f 9/9/9 8/8/8 7/7/7
f 12/12/12 11/11/11 10/10/10
f 15/15/15 14/14/14 13/13/13
f 18/18/18 17/17/17 16/16/16
