# Generated by Wraith - Game extraction tools
# Please credit DTZxPorter for using it!

v 6.186822 -3.573737 15.161633
v 3.571489 -6.189073 0.001125
v 3.571489 -6.189070 15.161633
v -0.001125 -7.146351 0.001125
v 3.571489 -6.189070 15.161633
v 3.571489 -6.189073 0.001125
v 3.571489 -6.189070 15.161633
v -0.001125 -7.146351 0.001125
v -0.001125 -7.146351 15.161633
v -3.573737 -6.189073 0.001125
v -0.001125 -7.146351 15.161633
v -0.001125 -7.146351 0.001125
v -0.001125 -7.146351 15.161633
v -3.573737 -6.189073 0.001125
v -3.573737 -6.189070 15.161633
v -6.189073 -3.573737 0.001125
v -3.573737 -6.189070 15.161633
v -3.573737 -6.189073 0.001125
v -3.573737 -6.189070 15.161633
v -6.189073 -3.573737 0.001125
v -6.189073 -3.573737 15.161633
v -7.146351 -0.001125 0.001125
v -6.189073 -3.573737 15.161633
v -6.189073 -3.573737 0.001125
v -6.189073 -3.573737 15.161633
v -7.146351 -0.001125 0.001125
v -7.146351 -0.001125 15.161633
v -6.189073 3.571486 0.001125
v -7.146351 -0.001125 15.161633
v -7.146351 -0.001125 0.001125
v -7.146351 -0.001125 15.161633
v -6.189073 3.571486 0.001125
v -6.189073 3.571486 15.161633
v -3.573739 6.186820 0.001125
v -6.189073 3.571486 15.161633
v -6.189073 3.571486 0.001125
v -6.189073 3.571486 15.161633
v -3.573739 6.186820 0.001125
v -3.573739 6.186820 15.161633
v -0.001125 7.144101 0.001125
v -3.573739 6.186820 15.161633
v -3.573739 6.186820 0.001125
v -3.573739 6.186820 15.161633
v -0.001125 7.144101 0.001125
v -0.001125 7.144101 15.161633
v 3.571486 6.186822 0.001125
v -0.001125 7.144101 15.161633
v -0.001125 7.144101 0.001125
v -0.001125 7.144101 15.161633
v 3.571486 6.186822 0.001125
v 3.571486 6.186822 15.161633
v 6.186820 3.571489 0.001125
v 3.571486 6.186822 15.161633
v 3.571486 6.186822 0.001125
v 3.571486 6.186822 15.161633
v 6.186820 3.571489 0.001125
v 6.186820 3.571489 15.161633
v 7.144101 -0.001125 0.001125
v 6.186820 3.571489 15.161633
v 6.186820 3.571489 0.001125
v 6.186820 3.571489 15.161633
v 7.144101 -0.001125 0.001125
v 7.144101 -0.001125 15.161633
v 6.186822 -3.573737 0.001125
v 7.144101 -0.001125 15.161633
v 7.144101 -0.001125 0.001125
v 7.144101 -0.001125 15.161633
v 6.186822 -3.573737 0.001125
v 6.186822 -3.573737 15.161633
v 3.571489 -6.189073 0.001125
v 6.186822 -3.573737 15.161633
v 6.186822 -3.573737 0.001125
v 6.186822 -3.573737 15.161633
v 6.186820 3.571489 15.161633
v 7.144101 -0.001125 15.161633
v -0.001125 -7.146351 15.161633
v 6.186820 3.571489 15.161633
v 6.186822 -3.573737 15.161633
v -0.001125 -7.146351 15.161633
v -6.189073 3.571486 15.161633
v 6.186820 3.571489 15.161633
v 6.186820 3.571489 15.161633
v -6.189073 3.571486 15.161633
v -0.001125 7.144101 15.161633
v 6.186820 3.571489 15.161633
v -0.001125 7.144101 15.161633
v 3.571486 6.186822 15.161633
v -0.001125 -7.146351 15.161633
v 6.186822 -3.573737 15.161633
v 3.571489 -6.189070 15.161633
v -0.001125 7.144101 15.161633
v -6.189073 3.571486 15.161633
v -3.573739 6.186820 15.161633
v -6.189073 -3.573737 15.161633
v -0.001125 -7.146351 15.161633
v -3.573737 -6.189070 15.161633
v -6.189073 -3.573737 15.161633
v -6.189073 3.571486 15.161633
v -0.001125 -7.146351 15.161633
v -7.146351 -0.001125 15.161633
v -6.189073 3.571486 15.161633
v -6.189073 -3.573737 15.161633
v -7.146351 -0.001125 0.001125
v -6.189073 -3.573737 0.001125
v -6.189073 3.571486 0.001125
v -6.189073 3.571486 0.001125
v -6.189073 -3.573737 0.001125
v -3.573739 6.186820 0.001125
v -3.573739 6.186820 0.001125
v -6.189073 -3.573737 0.001125
v -0.001125 7.144101 0.001125
v -0.001125 7.144101 0.001125
v -6.189073 -3.573737 0.001125
v 3.571486 6.186822 0.001125
v 3.571486 6.186822 0.001125
v -6.189073 -3.573737 0.001125
v 6.186820 3.571489 0.001125
v 6.186820 3.571489 0.001125
v -6.189073 -3.573737 0.001125
v 7.144101 -0.001125 0.001125
v 7.144101 -0.001125 0.001125
v -6.189073 -3.573737 0.001125
v 6.186822 -3.573737 0.001125
v 6.186822 -3.573737 0.001125
v -6.189073 -3.573737 0.001125
v 3.571489 -6.189073 0.001125
v 3.571489 -6.189073 0.001125
v -6.189073 -3.573737 0.001125
v -0.001125 -7.146351 0.001125
v -0.001125 -7.146351 0.001125
v -6.189073 -3.573737 0.001125
v -3.573737 -6.189073 0.001125
vt -0.100708 0.653320
vt -0.158081 0.321289
vt -0.158081 0.653320
vt 0.473389 0.321289
vt 0.530762 0.653320
vt 0.530762 0.321289
vt 0.530762 0.653320
vt 0.473389 0.321289
vt 0.473389 0.653320
vt 0.416016 0.321289
vt 0.473389 0.653320
vt 0.473389 0.321289
vt 0.473389 0.653320
vt 0.416016 0.321289
vt 0.416016 0.653320
vt 0.358643 0.321289
vt 0.416016 0.653320
vt 0.416016 0.321289
vt 0.416016 0.653320
vt 0.358643 0.321289
vt 0.358643 0.653320
vt 0.301025 0.321289
vt 0.358643 0.653320
vt 0.358643 0.321289
vt 0.358643 0.653320
vt 0.301025 0.321289
vt 0.301025 0.653320
vt 0.243774 0.321289
vt 0.301025 0.653320
vt 0.301025 0.321289
vt 0.301025 0.653320
vt 0.243774 0.321289
vt 0.243774 0.653320
vt 0.186279 0.321289
vt 0.243774 0.653320
vt 0.243774 0.321289
vt 0.243774 0.653320
vt 0.186279 0.321289
vt 0.186279 0.653320
vt 0.128906 0.321289
vt 0.186279 0.653320
vt 0.186279 0.321289
vt 0.186279 0.653320
vt 0.128906 0.321289
vt 0.128906 0.653320
vt 0.071472 0.321289
vt 0.128906 0.653320
vt 0.128906 0.321289
vt 0.128906 0.653320
vt 0.071472 0.321289
vt 0.071472 0.653320
vt 0.014099 0.321289
vt 0.071472 0.653320
vt 0.071472 0.321289
vt 0.071472 0.653320
vt 0.014099 0.321289
vt 0.014099 0.653320
vt -0.043304 0.321289
vt 0.014099 0.653320
vt 0.014099 0.321289
vt 0.014099 0.653320
vt -0.043304 0.321289
vt -0.043304 0.653320
vt -0.100708 0.321289
vt -0.043304 0.653320
vt -0.043304 0.321289
vt -0.043304 0.653320
vt -0.100708 0.321289
vt -0.100708 0.653320
vt -0.158081 0.321289
vt -0.100708 0.653320
vt -0.100708 0.321289
vt 0.772461 0.715576
vt 0.922363 0.715576
vt 0.847656 0.695557
vt 0.697754 0.845337
vt 0.922363 0.715576
vt 0.772461 0.715576
vt 0.697754 0.845337
vt 0.922363 0.975067
vt 0.922363 0.715576
vt 0.922363 0.715576
vt 0.922363 0.975067
vt 0.997559 0.845337
vt 0.922363 0.715576
vt 0.997559 0.845337
vt 0.977051 0.770508
vt 0.697754 0.845337
vt 0.772461 0.715576
vt 0.717773 0.770508
vt 0.997559 0.845337
vt 0.922363 0.975067
vt 0.977051 0.920227
vt 0.772461 0.975067
vt 0.697754 0.845337
vt 0.717773 0.920227
vt 0.772461 0.975067
vt 0.922363 0.975067
vt 0.697754 0.845337
vt 0.847656 0.995140
vt 0.922363 0.975067
vt 0.772461 0.975067
vt 0.694824 0.835205
vt 0.714844 0.759399
vt 0.714844 0.911011
vt 0.714844 0.911011
vt 0.714844 0.759399
vt 0.770508 0.966492
vt 0.770508 0.966492
vt 0.714844 0.759399
vt 0.846191 0.986786
vt 0.846191 0.986786
vt 0.714844 0.759399
vt 0.921875 0.966492
vt 0.921875 0.966492
vt 0.714844 0.759399
vt 0.977539 0.911011
vt 0.977539 0.911011
vt 0.714844 0.759399
vt 0.998047 0.835205
vt 0.998047 0.835205
vt 0.714844 0.759399
vt 0.977539 0.759399
vt 0.977539 0.759399
vt 0.714844 0.759399
vt 0.921875 0.703857
vt 0.921875 0.703857
vt 0.714844 0.759399
vt 0.846191 0.683594
vt 0.846191 0.683594
vt 0.714844 0.759399
vt 0.770508 0.703857
vn 0.706458 -0.706458 0.000000
vn 0.706458 -0.706458 0.000000
vn 0.706458 -0.706458 0.000000
vn 0.088063 -0.996086 0.000000
vn 0.258317 -0.966732 0.000000
vn 0.258317 -0.966732 0.000000
vn 0.258317 -0.966732 0.000000
vn 0.088063 -0.996086 0.000000
vn -0.088063 -0.996086 0.000000
vn -0.420744 -0.908023 0.000000
vn -0.088063 -0.996086 0.000000
vn 0.088063 -0.996086 0.000000
vn -0.088063 -0.996086 0.000000
vn -0.420744 -0.908023 0.000000
vn -0.575342 -0.818004 0.000000
vn -0.818004 -0.575342 0.000000
vn -0.575342 -0.818004 0.000000
vn -0.420744 -0.908023 0.000000
vn -0.575342 -0.818004 0.000000
vn -0.818004 -0.575342 0.000000
vn -0.908023 -0.420744 0.000000
vn -0.996086 -0.088063 0.000000
vn -0.908023 -0.420744 0.000000
vn -0.818004 -0.575342 0.000000
vn -0.908023 -0.420744 0.000000
vn -0.996086 -0.088063 0.000000
vn -0.996086 0.088063 0.000000
vn -0.908023 0.420744 0.000000
vn -0.996086 0.088063 0.000000
vn -0.996086 -0.088063 0.000000
vn -0.996086 0.088063 0.000000
vn -0.908023 0.420744 0.000000
vn -0.818004 0.575342 0.000000
vn -0.575342 0.818004 0.000000
vn -0.818004 0.575342 0.000000
vn -0.908023 0.420744 0.000000
vn -0.818004 0.575342 0.000000
vn -0.575342 0.818004 0.000000
vn -0.420744 0.908023 0.000000
vn -0.088063 0.996086 0.000000
vn -0.420744 0.908023 0.000000
vn -0.575342 0.818004 0.000000
vn -0.420744 0.908023 0.000000
vn -0.088063 0.996086 0.000000
vn 0.088063 0.996086 0.000000
vn 0.420744 0.908023 0.000000
vn 0.088063 0.996086 0.000000
vn -0.088063 0.996086 0.000000
vn 0.088063 0.996086 0.000000
vn 0.420744 0.908023 0.000000
vn 0.575342 0.818004 0.000000
vn 0.818004 0.575342 0.000000
vn 0.575342 0.818004 0.000000
vn 0.420744 0.908023 0.000000
vn 0.575342 0.818004 0.000000
vn 0.818004 0.575342 0.000000
vn 0.908023 0.420744 0.000000
vn 0.996086 0.088063 0.000000
vn 0.908023 0.420744 0.000000
vn 0.818004 0.575342 0.000000
vn 0.908023 0.420744 0.000000
vn 0.996086 0.088063 0.000000
vn 0.996086 -0.088063 0.000000
vn 0.908023 -0.420744 0.000000
vn 0.996086 -0.088063 0.000000
vn 0.996086 0.088063 0.000000
vn 0.996086 -0.088063 0.000000
vn 0.908023 -0.420744 0.000000
vn 0.866928 -0.499022 0.000000
vn 0.706458 -0.706458 0.000000
vn 0.866928 -0.499022 0.000000
vn 0.908023 -0.420744 0.000000
vn 0.000000 0.000000 1.000000
vn 0.000000 0.000000 1.000000
vn 0.000000 0.000000 1.000000
vn 0.000000 0.000000 1.000000
vn 0.000000 0.000000 1.000000
vn 0.000000 0.000000 1.000000
vn 0.000000 0.000000 1.000000
vn 0.000000 0.000000 1.000000
vn 0.000000 0.000000 1.000000
vn 0.000000 0.000000 1.000000
vn 0.000000 0.000000 1.000000
vn 0.000000 0.000000 1.000000
vn 0.000000 0.000000 1.000000
vn 0.000000 0.000000 1.000000
vn 0.000000 0.000000 1.000000
vn 0.000000 0.000000 1.000000
vn 0.000000 0.000000 1.000000
vn 0.000000 0.000000 1.000000
vn 0.000000 0.000000 1.000000
vn 0.000000 0.000000 1.000000
vn 0.000000 0.000000 1.000000
vn 0.000000 0.000000 1.000000
vn 0.000000 0.000000 1.000000
vn 0.000000 0.000000 1.000000
vn 0.000000 0.000000 1.000000
vn 0.000000 0.000000 1.000000
vn 0.000000 0.000000 1.000000
vn 0.000000 0.000000 1.000000
vn 0.000000 0.000000 1.000000
vn 0.000000 0.000000 1.000000
vn 0.000000 0.000000 -1.000000
vn 0.000000 0.000000 -1.000000
vn 0.000000 0.000000 -1.000000
vn 0.000000 0.000000 -1.000000
vn 0.000000 0.000000 -1.000000
vn 0.000000 0.000000 -1.000000
vn 0.000000 0.000000 -1.000000
vn 0.000000 0.000000 -1.000000
vn 0.000000 0.000000 -1.000000
vn 0.000000 0.000000 -1.000000
vn 0.000000 0.000000 -1.000000
vn 0.000000 0.000000 -1.000000
vn 0.000000 0.000000 -1.000000
vn 0.000000 0.000000 -1.000000
vn 0.000000 0.000000 -1.000000
vn 0.000000 0.000000 -1.000000
vn 0.000000 0.000000 -1.000000
vn 0.000000 0.000000 -1.000000
vn 0.000000 0.000000 -1.000000
vn 0.000000 0.000000 -1.000000
vn 0.000000 0.000000 -1.000000
vn 0.000000 0.000000 -1.000000
vn 0.000000 0.000000 -1.000000
vn 0.000000 0.000000 -1.000000
vn 0.000000 0.000000 -1.000000
vn 0.000000 0.000000 -1.000000
vn 0.000000 0.000000 -1.000000
vn 0.000000 0.000000 -1.000000
vn 0.000000 0.000000 -1.000000
vn 0.000000 0.000000 -1.000000
mtllib mtl_nt_2020_cans_clean.mtl
g mtl_nt_2020_cans_clean
usemtl mtl_nt_2020_cans_clean
f 3/3/3 2/2/2 1/1/1
f 6/6/6 5/5/5 4/4/4
f 9/9/9 8/8/8 7/7/7
f 12/12/12 11/11/11 10/10/10
f 15/15/15 14/14/14 13/13/13
f 18/18/18 17/17/17 16/16/16
f 21/21/21 20/20/20 19/19/19
f 24/24/24 23/23/23 22/22/22
f 27/27/27 26/26/26 25/25/25
f 30/30/30 29/29/29 28/28/28
f 33/33/33 32/32/32 31/31/31
f 36/36/36 35/35/35 34/34/34
f 39/39/39 38/38/38 37/37/37
f 42/42/42 41/41/41 40/40/40
f 45/45/45 44/44/44 43/43/43
f 48/48/48 47/47/47 46/46/46
f 51/51/51 50/50/50 49/49/49
f 54/54/54 53/53/53 52/52/52
f 57/57/57 56/56/56 55/55/55
f 60/60/60 59/59/59 58/58/58
f 63/63/63 62/62/62 61/61/61
f 66/66/66 65/65/65 64/64/64
f 69/69/69 68/68/68 67/67/67
f 72/72/72 71/71/71 70/70/70
f 75/75/75 74/74/74 73/73/73
f 78/78/78 77/77/77 76/76/76
f 81/81/81 80/80/80 79/79/79
f 84/84/84 83/83/83 82/82/82
f 87/87/87 86/86/86 85/85/85
f 90/90/90 89/89/89 88/88/88
f 93/93/93 92/92/92 91/91/91
f 96/96/96 95/95/95 94/94/94
f 99/99/99 98/98/98 97/97/97
f 102/102/102 101/101/101 100/100/100
f 105/105/105 104/104/104 103/103/103
f 108/108/108 107/107/107 106/106/106
f 111/111/111 110/110/110 109/109/109
f 114/114/114 113/113/113 112/112/112
f 117/117/117 116/116/116 115/115/115
f 120/120/120 119/119/119 118/118/118
f 123/123/123 122/122/122 121/121/121
f 126/126/126 125/125/125 124/124/124
f 129/129/129 128/128/128 127/127/127
f 132/132/132 131/131/131 130/130/130
