# Generated by Wraith - Game extraction tools
# Please credit DTZxPorter for using it!

v 0.051346 -0.827748 13.928953
v 0.051346 -1.055647 13.928953
v -0.051346 -0.827748 13.928953
v 0.051346 -1.055647 13.928953
v -0.051346 -1.055647 13.928953
v -0.051346 -0.827748 13.928953
v 0.566710 -1.055647 -0.601769
v 0.566710 -0.827748 -0.601769
v -0.566710 -1.055647 -0.601769
v 0.566710 -0.827748 -0.601769
v -0.566710 -0.827748 -0.601769
v -0.566710 -1.055647 -0.601769
v 0.051346 -1.055647 13.928953
v 0.406088 -1.055647 11.534915
v -0.051346 -1.055647 13.928953
v -0.051346 -1.055647 13.928953
v 0.406088 -1.055647 11.534915
v -0.406088 -1.055647 11.534915
v -0.406088 -1.055647 11.534915
v 0.406088 -1.055647 11.534915
v -0.536595 -1.055647 11.076822
v 0.406088 -1.055647 11.534915
v 0.536595 -1.055647 11.076822
v -0.536595 -1.055647 11.076822
v 0.536595 -1.055647 11.076822
v 1.148016 -1.055647 9.976684
v -0.536595 -1.055647 11.076822
v 1.148016 -1.055647 9.976684
v -1.148016 -1.055647 9.976684
v -0.536595 -1.055647 11.076822
v -1.148016 -1.055647 9.976684
v 1.148016 -1.055647 9.976684
v -1.231184 -1.055647 9.500106
v 1.148016 -1.055647 9.976684
v 1.231184 -1.055647 9.500106
v -1.231184 -1.055647 9.500106
v 1.231184 -1.055647 9.500106
v 1.148502 -1.055647 9.031194
v -1.231184 -1.055647 9.500106
v 1.148502 -1.055647 9.031194
v -1.148502 -1.055647 9.031194
v -1.231184 -1.055647 9.500106
v 1.148502 -1.055647 9.031194
v 0.664383 -1.055647 7.536106
v -1.148502 -1.055647 9.031194
v 0.664383 -1.055647 7.536106
v -0.664383 -1.055647 7.536106
v -1.148502 -1.055647 9.031194
v -0.664383 -1.055647 7.536106
v 0.664383 -1.055647 7.536106
v -0.614647 -1.055647 7.064896
v 0.664383 -1.055647 7.536106
v 0.614647 -1.055647 7.064896
v -0.614647 -1.055647 7.064896
v 0.614647 -1.055647 7.064896
v 0.566710 -1.055647 -0.601769
v -0.614647 -1.055647 7.064896
v 0.566710 -1.055647 -0.601769
v -0.566710 -1.055647 -0.601769
v -0.614647 -1.055647 7.064896
v 0.051346 -1.055647 13.928953
v 0.051346 -0.827748 13.928953
v 0.406088 -0.827748 11.534915
v 0.406088 -1.055647 11.534915
v 0.051346 -1.055647 13.928953
v 0.406088 -0.827748 11.534915
v 0.406088 -1.055647 11.534915
v 0.406088 -0.827748 11.534915
v 0.536595 -1.055647 11.076822
v 0.406088 -0.827748 11.534915
v 0.536595 -0.827748 11.076822
v 0.536595 -1.055647 11.076822
v 0.536595 -1.055647 11.076822
v 0.536595 -0.827748 11.076822
v 1.148016 -0.827748 9.976684
v 1.148016 -1.055647 9.976684
v 0.536595 -1.055647 11.076822
v 1.148016 -0.827748 9.976684
v 1.148016 -1.055647 9.976684
v 1.148016 -0.827748 9.976684
v 1.231184 -1.055647 9.500106
v 1.148016 -0.827748 9.976684
v 1.231184 -0.827748 9.500106
v 1.231184 -1.055647 9.500106
v 1.231184 -1.055647 9.500106
v 1.231184 -0.827748 9.500106
v 1.148502 -0.827748 9.031194
v 1.148502 -1.055647 9.031194
v 1.231184 -1.055647 9.500106
v 1.148502 -0.827748 9.031194
v 1.148502 -1.055647 9.031194
v 1.148502 -0.827748 9.031194
v 0.664383 -0.827748 7.536106
v 0.664383 -1.055647 7.536106
v 1.148502 -1.055647 9.031194
v 0.664383 -0.827748 7.536106
v 0.664383 -1.055647 7.536106
v 0.664383 -0.827748 7.536106
v 0.614647 -1.055647 7.064896
v 0.664383 -0.827748 7.536106
v 0.614647 -0.827748 7.064896
v 0.614647 -1.055647 7.064896
v 0.566710 -1.055647 -0.601769
v 0.614647 -1.055647 7.064896
v 0.614647 -0.827748 7.064896
v 0.566710 -0.827748 -0.601769
v 0.566710 -1.055647 -0.601769
v 0.614647 -0.827748 7.064896
v -0.051346 -0.827748 13.928953
v -0.051346 -1.055647 13.928953
v -0.406088 -0.827748 11.534915
v -0.051346 -1.055647 13.928953
v -0.406088 -1.055647 11.534915
v -0.406088 -0.827748 11.534915
v -0.536595 -0.827748 11.076822
v -0.406088 -0.827748 11.534915
v -0.406088 -1.055647 11.534915
v -0.536595 -1.055647 11.076822
v -0.536595 -0.827748 11.076822
v -0.406088 -1.055647 11.534915
v -0.536595 -1.055647 11.076822
v -1.148016 -1.055647 9.976684
v -0.536595 -0.827748 11.076822
v -1.148016 -1.055647 9.976684
v -1.148016 -0.827748 9.976684
v -0.536595 -0.827748 11.076822
v -1.231184 -0.827748 9.500106
v -1.148016 -0.827748 9.976684
v -1.148016 -1.055647 9.976684
v -1.231184 -1.055647 9.500106
v -1.231184 -0.827748 9.500106
v -1.148016 -1.055647 9.976684
v -1.231184 -1.055647 9.500106
v -1.148502 -1.055647 9.031194
v -1.231184 -0.827748 9.500106
v -1.148502 -1.055647 9.031194
v -1.148502 -0.827748 9.031194
v -1.231184 -0.827748 9.500106
v -1.148502 -1.055647 9.031194
v -0.664383 -1.055647 7.536106
v -1.148502 -0.827748 9.031194
v -0.664383 -1.055647 7.536106
v -0.664383 -0.827748 7.536106
v -1.148502 -0.827748 9.031194
v -0.614647 -0.827748 7.064896
v -0.664383 -0.827748 7.536106
v -0.664383 -1.055647 7.536106
v -0.614647 -1.055647 7.064896
v -0.614647 -0.827748 7.064896
v -0.664383 -1.055647 7.536106
v -0.614647 -1.055647 7.064896
v -0.566710 -1.055647 -0.601769
v -0.614647 -0.827748 7.064896
v -0.566710 -1.055647 -0.601769
v -0.566710 -0.827748 -0.601769
v -0.614647 -0.827748 7.064896
vt 0.743164 0.701904
vt 0.743164 0.693848
vt 0.739746 0.701904
vt 0.743164 0.693848
vt 0.739746 0.693848
vt 0.739746 0.701904
vt 0.763184 0.151855
vt 0.763184 0.143066
vt 0.719727 0.151855
vt 0.763184 0.143066
vt 0.719727 0.143066
vt 0.719727 0.151855
vt 0.743164 0.693848
vt 0.756348 0.607666
vt 0.739746 0.693848
vt 0.739746 0.693848
vt 0.756348 0.607666
vt 0.726563 0.607666
vt 0.726563 0.607666
vt 0.756348 0.607666
vt 0.721680 0.590820
vt 0.756348 0.607666
vt 0.761230 0.590820
vt 0.721680 0.590820
vt 0.761230 0.590820
vt 0.782715 0.550781
vt 0.721680 0.590820
vt 0.782715 0.550781
vt 0.700195 0.550781
vt 0.721680 0.590820
vt 0.700195 0.550781
vt 0.782715 0.550781
vt 0.697266 0.533691
vt 0.782715 0.550781
vt 0.786133 0.533691
vt 0.697266 0.533691
vt 0.786133 0.533691
vt 0.783203 0.516846
vt 0.697266 0.533691
vt 0.783203 0.516846
vt 0.699707 0.516846
vt 0.697266 0.533691
vt 0.783203 0.516846
vt 0.766602 0.461914
vt 0.699707 0.516846
vt 0.766602 0.461914
vt 0.716797 0.461914
vt 0.699707 0.516846
vt 0.716797 0.461914
vt 0.766602 0.461914
vt 0.718262 0.443848
vt 0.766602 0.461914
vt 0.764648 0.443848
vt 0.718262 0.443848
vt 0.764648 0.443848
vt 0.763184 0.151855
vt 0.718262 0.443848
vt 0.763184 0.151855
vt 0.719727 0.151855
vt 0.718262 0.443848
vt 0.743164 0.693848
vt 0.751465 0.694824
vt 0.764160 0.609131
vt 0.756348 0.607666
vt 0.743164 0.693848
vt 0.764160 0.609131
vt 0.756348 0.607666
vt 0.764160 0.609131
vt 0.761230 0.590820
vt 0.764160 0.609131
vt 0.768555 0.594238
vt 0.761230 0.590820
vt 0.761230 0.590820
vt 0.768555 0.594238
vt 0.790527 0.553711
vt 0.782715 0.550781
vt 0.761230 0.590820
vt 0.790527 0.553711
vt 0.782715 0.550781
vt 0.790527 0.553711
vt 0.786133 0.533691
vt 0.790527 0.553711
vt 0.794434 0.533936
vt 0.786133 0.533691
vt 0.786133 0.533691
vt 0.794434 0.533936
vt 0.791504 0.514893
vt 0.783203 0.516846
vt 0.786133 0.533691
vt 0.791504 0.514893
vt 0.783203 0.516846
vt 0.791504 0.514893
vt 0.774414 0.459961
vt 0.766602 0.461914
vt 0.783203 0.516846
vt 0.774414 0.459961
vt 0.766602 0.461914
vt 0.774414 0.459961
vt 0.764648 0.443848
vt 0.774414 0.459961
vt 0.773438 0.443848
vt 0.764648 0.443848
vt 0.763184 0.151855
vt 0.764648 0.443848
vt 0.773438 0.443848
vt 0.771973 0.151367
vt 0.763184 0.151855
vt 0.773438 0.443848
vt 0.731445 0.694824
vt 0.739746 0.693848
vt 0.718750 0.609131
vt 0.739746 0.693848
vt 0.726563 0.607666
vt 0.718750 0.609131
vt 0.714355 0.594238
vt 0.718750 0.609131
vt 0.726563 0.607666
vt 0.721680 0.590820
vt 0.714355 0.594238
vt 0.726563 0.607666
vt 0.721680 0.590820
vt 0.700195 0.550781
vt 0.714355 0.594238
vt 0.700195 0.550781
vt 0.692383 0.553711
vt 0.714355 0.594238
vt 0.688477 0.533936
vt 0.692383 0.553711
vt 0.700195 0.550781
vt 0.697266 0.533691
vt 0.688477 0.533936
vt 0.700195 0.550781
vt 0.697266 0.533691
vt 0.699707 0.516846
vt 0.688477 0.533936
vt 0.699707 0.516846
vt 0.691406 0.514893
vt 0.688477 0.533936
vt 0.699707 0.516846
vt 0.716797 0.461914
vt 0.691406 0.514893
vt 0.716797 0.461914
vt 0.708496 0.459961
vt 0.691406 0.514893
vt 0.709473 0.443848
vt 0.708496 0.459961
vt 0.716797 0.461914
vt 0.718262 0.443848
vt 0.709473 0.443848
vt 0.716797 0.461914
vt 0.718262 0.443848
vt 0.719727 0.151855
vt 0.709473 0.443848
vt 0.719727 0.151855
vt 0.710938 0.151367
vt 0.709473 0.443848
vn 0.653620 0.000000 0.757339
vn 0.653620 0.000000 0.757339
vn -0.653620 0.000000 0.757339
vn 0.653620 0.000000 0.757339
vn -0.653620 0.000000 0.757339
vn -0.653620 0.000000 0.757339
vn 0.000000 0.000000 -1.000000
vn 0.000000 0.000000 -1.000000
vn 0.000000 0.000000 -1.000000
vn 0.000000 0.000000 -1.000000
vn 0.000000 0.000000 -1.000000
vn 0.000000 0.000000 -1.000000
vn 0.000000 -1.000000 0.000000
vn 0.000000 -1.000000 0.000000
vn 0.000000 -1.000000 0.000000
vn 0.000000 -1.000000 0.000000
vn 0.000000 -1.000000 0.000000
vn 0.000000 -1.000000 0.000000
vn 0.000000 -1.000000 0.000000
vn 0.000000 -1.000000 0.000000
vn 0.000000 -1.000000 0.000000
vn 0.000000 -1.000000 0.000000
vn 0.000000 -1.000000 0.000000
vn 0.000000 -1.000000 0.000000
vn 0.000000 -1.000000 0.000000
vn 0.000000 -1.000000 0.000000
vn 0.000000 -1.000000 0.000000
vn 0.000000 -1.000000 0.000000
vn 0.000000 -1.000000 0.000000
vn 0.000000 -1.000000 0.000000
vn 0.000000 -1.000000 0.000000
vn 0.000000 -1.000000 0.000000
vn 0.000000 -1.000000 0.000000
vn 0.000000 -1.000000 0.000000
vn 0.000000 -1.000000 0.000000
vn 0.000000 -1.000000 0.000000
vn 0.000000 -1.000000 0.000000
vn 0.000000 -1.000000 0.000000
vn 0.000000 -1.000000 0.000000
vn 0.000000 -1.000000 0.000000
vn 0.000000 -1.000000 0.000000
vn 0.000000 -1.000000 0.000000
vn 0.000000 -1.000000 0.000000
vn 0.000000 -1.000000 0.000000
vn 0.000000 -1.000000 0.000000
vn 0.000000 -1.000000 0.000000
vn 0.000000 -1.000000 0.000000
vn 0.000000 -1.000000 0.000000
vn 0.000000 -1.000000 0.000000
vn 0.000000 -1.000000 0.000000
vn 0.000000 -1.000000 0.000000
vn 0.000000 -1.000000 0.000000
vn 0.000000 -1.000000 0.000000
vn 0.000000 -1.000000 0.000000
vn 0.000000 -1.000000 0.000000
vn 0.000000 -1.000000 0.000000
vn 0.000000 -1.000000 0.000000
vn 0.000000 -1.000000 0.000000
vn 0.000000 -1.000000 0.000000
vn 0.000000 -1.000000 0.000000
vn 0.653620 0.000000 0.757339
vn 0.653620 0.000000 0.757339
vn 0.978474 0.000000 0.211350
vn 0.978474 0.000000 0.211350
vn 0.653620 0.000000 0.757339
vn 0.978474 0.000000 0.211350
vn 0.978474 0.000000 0.211350
vn 0.978474 0.000000 0.211350
vn 0.923679 0.000000 0.381605
vn 0.978474 0.000000 0.211350
vn 0.923679 0.000000 0.381605
vn 0.923679 0.000000 0.381605
vn 0.923679 0.000000 0.381605
vn 0.923679 0.000000 0.381605
vn 0.943249 0.000000 0.332681
vn 0.943249 0.000000 0.332681
vn 0.923679 0.000000 0.381605
vn 0.943249 0.000000 0.332681
vn 0.943249 0.000000 0.332681
vn 0.943249 0.000000 0.332681
vn 1.000000 0.000000 0.000000
vn 0.943249 0.000000 0.332681
vn 1.000000 0.000000 0.000000
vn 1.000000 0.000000 0.000000
vn 1.000000 0.000000 0.000000
vn 1.000000 0.000000 0.000000
vn 0.970646 0.000000 -0.240705
vn 0.970646 0.000000 -0.240705
vn 1.000000 0.000000 0.000000
vn 0.970646 0.000000 -0.240705
vn 0.970646 0.000000 -0.240705
vn 0.970646 0.000000 -0.240705
vn 0.978474 0.000000 -0.207436
vn 0.978474 0.000000 -0.207436
vn 0.970646 0.000000 -0.240705
vn 0.978474 0.000000 -0.207436
vn 0.978474 0.000000 -0.207436
vn 0.978474 0.000000 -0.207436
vn 0.998043 0.000000 -0.054795
vn 0.978474 0.000000 -0.207436
vn 0.998043 0.000000 -0.054795
vn 0.998043 0.000000 -0.054795
vn 1.000000 0.000000 -0.005871
vn 0.998043 0.000000 -0.054795
vn 0.998043 0.000000 -0.054795
vn 1.000000 0.000000 -0.005871
vn 1.000000 0.000000 -0.005871
vn 0.998043 0.000000 -0.054795
vn -0.653620 0.000000 0.757339
vn -0.653620 0.000000 0.757339
vn -0.978474 0.000000 0.211350
vn -0.653620 0.000000 0.757339
vn -0.978474 0.000000 0.211350
vn -0.978474 0.000000 0.211350
vn -0.923679 0.000000 0.381605
vn -0.978474 0.000000 0.211350
vn -0.978474 0.000000 0.211350
vn -0.923679 0.000000 0.381605
vn -0.923679 0.000000 0.381605
vn -0.978474 0.000000 0.211350
vn -0.923679 0.000000 0.381605
vn -0.943249 0.000000 0.332681
vn -0.923679 0.000000 0.381605
vn -0.943249 0.000000 0.332681
vn -0.943249 0.000000 0.332681
vn -0.923679 0.000000 0.381605
vn -1.000000 0.000000 0.000000
vn -0.943249 0.000000 0.332681
vn -0.943249 0.000000 0.332681
vn -1.000000 0.000000 0.000000
vn -1.000000 0.000000 0.000000
vn -0.943249 0.000000 0.332681
vn -1.000000 0.000000 0.000000
vn -0.970646 0.000000 -0.240705
vn -1.000000 0.000000 0.000000
vn -0.970646 0.000000 -0.240705
vn -0.970646 0.000000 -0.240705
vn -1.000000 0.000000 0.000000
vn -0.970646 0.000000 -0.240705
vn -0.978474 0.000000 -0.207436
vn -0.970646 0.000000 -0.240705
vn -0.978474 0.000000 -0.207436
vn -0.978474 0.000000 -0.207436
vn -0.970646 0.000000 -0.240705
vn -0.998043 0.000000 -0.054795
vn -0.978474 0.000000 -0.207436
vn -0.978474 0.000000 -0.207436
vn -0.998043 0.000000 -0.054795
vn -0.998043 0.000000 -0.054795
vn -0.978474 0.000000 -0.207436
vn -0.998043 0.000000 -0.054795
vn -1.000000 0.000000 -0.005871
vn -0.998043 0.000000 -0.054795
vn -1.000000 0.000000 -0.005871
vn -1.000000 0.000000 -0.005871
vn -0.998043 0.000000 -0.054795
mtllib mtl_nt_2020_wall_clock_01.mtl
g mtl_nt_2020_wall_clock_01
usemtl mtl_nt_2020_wall_clock_01
f 3/3/3 2/2/2 1/1/1
f 6/6/6 5/5/5 4/4/4
f 9/9/9 8/8/8 7/7/7
f 12/12/12 11/11/11 10/10/10
f 15/15/15 14/14/14 13/13/13
f 18/18/18 17/17/17 16/16/16
f 21/21/21 20/20/20 19/19/19
f 24/24/24 23/23/23 22/22/22
f 27/27/27 26/26/26 25/25/25
f 30/30/30 29/29/29 28/28/28
f 33/33/33 32/32/32 31/31/31
f 36/36/36 35/35/35 34/34/34
f 39/39/39 38/38/38 37/37/37
f 42/42/42 41/41/41 40/40/40
f 45/45/45 44/44/44 43/43/43
f 48/48/48 47/47/47 46/46/46
f 51/51/51 50/50/50 49/49/49
f 54/54/54 53/53/53 52/52/52
f 57/57/57 56/56/56 55/55/55
f 60/60/60 59/59/59 58/58/58
f 63/63/63 62/62/62 61/61/61
f 66/66/66 65/65/65 64/64/64
f 69/69/69 68/68/68 67/67/67
f 72/72/72 71/71/71 70/70/70
f 75/75/75 74/74/74 73/73/73
f 78/78/78 77/77/77 76/76/76
f 81/81/81 80/80/80 79/79/79
f 84/84/84 83/83/83 82/82/82
f 87/87/87 86/86/86 85/85/85
f 90/90/90 89/89/89 88/88/88
f 93/93/93 92/92/92 91/91/91
f 96/96/96 95/95/95 94/94/94
f 99/99/99 98/98/98 97/97/97
f 102/102/102 101/101/101 100/100/100
f 105/105/105 104/104/104 103/103/103
f 108/108/108 107/107/107 106/106/106
f 111/111/111 110/110/110 109/109/109
f 114/114/114 113/113/113 112/112/112
f 117/117/117 116/116/116 115/115/115
f 120/120/120 119/119/119 118/118/118
f 123/123/123 122/122/122 121/121/121
f 126/126/126 125/125/125 124/124/124
f 129/129/129 128/128/128 127/127/127
f 132/132/132 131/131/131 130/130/130
f 135/135/135 134/134/134 133/133/133
f 138/138/138 137/137/137 136/136/136
f 141/141/141 140/140/140 139/139/139
f 144/144/144 143/143/143 142/142/142
f 147/147/147 146/146/146 145/145/145
f 150/150/150 149/149/149 148/148/148
f 153/153/153 152/152/152 151/151/151
f 156/156/156 155/155/155 154/154/154
