# Generated by Wraith - Game extraction tools
# Please credit DTZxPorter for using it!

v 71.119995 35.560013 0.000000
v 71.119995 -35.560005 0.000000
v 71.119995 35.560013 1.603207
v -71.119995 -35.560005 0.000000
v -71.119995 35.560013 0.000000
v -71.119995 -35.560005 1.603207
v 71.119995 12.874601 1.603207
v -71.119995 12.874601 1.603207
v 71.119995 20.094513 5.082591
v -71.119995 12.874601 1.603207
v -71.119995 20.094513 5.082591
v 71.119995 20.094513 5.082591
v -71.119995 27.318802 5.082591
v -71.119995 34.538712 1.603207
v 71.119995 27.318802 5.082591
v -71.119995 34.538712 1.603207
v 71.119995 34.538712 1.603207
v 71.119995 27.318802 5.082591
v 71.119995 20.094513 5.082591
v -71.119995 20.094513 5.082591
v 71.119995 27.318802 5.082591
v -71.119995 20.094513 5.082591
v -71.119995 27.318802 5.082591
v 71.119995 27.318802 5.082591
v -71.119995 34.538712 1.603207
v -71.119995 35.560013 1.603207
v 71.119995 34.538712 1.603207
v -71.119995 35.560013 1.603207
v 71.119995 35.560013 1.603207
v 71.119995 34.538712 1.603207
v 71.119995 -10.832076 1.603207
v -71.119995 -10.832076 1.603207
v 71.119995 -3.612167 5.082591
v -71.119995 -10.832076 1.603207
v -71.119995 -3.612167 5.082591
v 71.119995 -3.612167 5.082591
v -71.119995 3.612137 5.082591
v -71.119995 10.832046 1.603207
v 71.119995 3.612137 5.082591
v -71.119995 10.832046 1.603207
v 71.119995 10.832046 1.603207
v 71.119995 3.612137 5.082591
v 71.119995 -3.612167 5.082591
v -71.119995 -3.612167 5.082591
v 71.119995 3.612137 5.082591
v -71.119995 -3.612167 5.082591
v -71.119995 3.612137 5.082591
v 71.119995 3.612137 5.082591
v -71.119995 12.874601 1.603207
v 71.119995 12.874601 1.603207
v -71.119995 10.832046 1.603207
v 71.119995 12.874601 1.603207
v 71.119995 10.832046 1.603207
v -71.119995 10.832046 1.603207
v 71.119995 -34.538742 1.603207
v -71.119995 -34.538742 1.603207
v 71.119995 -27.318829 5.082591
v -71.119995 -34.538742 1.603207
v -71.119995 -27.318829 5.082591
v 71.119995 -27.318829 5.082591
v -71.119995 -20.094528 5.082591
v -71.119995 -12.874619 1.603207
v 71.119995 -20.094528 5.082591
v -71.119995 -12.874619 1.603207
v 71.119995 -12.874619 1.603207
v 71.119995 -20.094528 5.082591
v 71.119995 -27.318829 5.082591
v -71.119995 -27.318829 5.082591
v 71.119995 -20.094528 5.082591
v -71.119995 -27.318829 5.082591
v -71.119995 -20.094528 5.082591
v 71.119995 -20.094528 5.082591
v 71.119995 -34.538742 1.603207
v 71.119995 -35.560005 1.603207
v -71.119995 -34.538742 1.603207
v 71.119995 -35.560005 1.603207
v -71.119995 -35.560005 1.603207
v -71.119995 -34.538742 1.603207
v -71.119995 -10.832076 1.603207
v 71.119995 -10.832076 1.603207
v -71.119995 -12.874619 1.603207
v 71.119995 -10.832076 1.603207
v 71.119995 -12.874619 1.603207
v -71.119995 -12.874619 1.603207
v 71.119995 27.318802 5.082591
v 71.119995 34.538712 1.603207
v 71.119995 20.094513 5.082591
v 71.119995 20.094513 5.082591
v 71.119995 34.538712 1.603207
v 71.119995 12.874601 1.603207
v 71.119995 34.538712 1.603207
v 71.119995 -35.560005 0.000000
v 71.119995 12.874601 1.603207
v 71.119995 -35.560005 1.603207
v 71.119995 -34.538742 1.603207
v 71.119995 -35.560005 0.000000
v 71.119995 -34.538742 1.603207
v 71.119995 -27.318829 5.082591
v 71.119995 -35.560005 0.000000
v 71.119995 -27.318829 5.082591
v 71.119995 -20.094528 5.082591
v 71.119995 -35.560005 0.000000
v 71.119995 -20.094528 5.082591
v 71.119995 -12.874619 1.603207
v 71.119995 -35.560005 0.000000
v 71.119995 -10.832076 1.603207
v 71.119995 -35.560005 0.000000
v 71.119995 -12.874619 1.603207
v 71.119995 10.832046 1.603207
v 71.119995 -35.560005 0.000000
v 71.119995 -10.832076 1.603207
v 71.119995 -3.612167 5.082591
v 71.119995 10.832046 1.603207
v 71.119995 -10.832076 1.603207
v 71.119995 3.612137 5.082591
v 71.119995 10.832046 1.603207
v 71.119995 -3.612167 5.082591
v -71.119995 35.560013 1.603207
v -71.119995 35.560013 0.000000
v 71.119995 35.560013 1.603207
v -71.119995 35.560013 0.000000
v 71.119995 35.560013 0.000000
v 71.119995 35.560013 1.603207
v -71.119995 -27.318829 5.082591
v -71.119995 -34.538742 1.603207
v -71.119995 -20.094528 5.082591
v -71.119995 -20.094528 5.082591
v -71.119995 -34.538742 1.603207
v -71.119995 -12.874619 1.603207
v -71.119995 -34.538742 1.603207
v -71.119995 35.560013 0.000000
v -71.119995 -12.874619 1.603207
v -71.119995 35.560013 1.603207
v -71.119995 34.538712 1.603207
v -71.119995 35.560013 0.000000
v -71.119995 34.538712 1.603207
v -71.119995 27.318802 5.082591
v -71.119995 35.560013 0.000000
v -71.119995 27.318802 5.082591
v -71.119995 20.094513 5.082591
v -71.119995 35.560013 0.000000
v -71.119995 20.094513 5.082591
v -71.119995 12.874601 1.603207
v -71.119995 35.560013 0.000000
v -71.119995 10.832046 1.603207
v -71.119995 35.560013 0.000000
v -71.119995 12.874601 1.603207
v -71.119995 -10.832076 1.603207
v -71.119995 35.560013 0.000000
v -71.119995 10.832046 1.603207
v -71.119995 3.612137 5.082591
v -71.119995 -10.832076 1.603207
v -71.119995 10.832046 1.603207
v -71.119995 -3.612167 5.082591
v -71.119995 -10.832076 1.603207
v -71.119995 3.612137 5.082591
v 71.119995 -35.560005 1.603207
v 71.119995 -35.560005 0.000000
v -71.119995 -35.560005 1.603207
v 71.119995 -35.560005 0.000000
v -71.119995 -35.560005 0.000000
v -71.119995 -35.560005 1.603207
v 71.119995 35.560013 0.000000
v -71.119995 35.560013 0.000000
v 71.119995 -35.560005 0.000000
v -71.119995 35.560013 0.000000
v -71.119995 -35.560005 0.000000
v 71.119995 -35.560005 0.000000
vt 0.499023 0.464355
vt -0.000152 0.464355
vt 0.499023 0.486816
vt -0.000152 0.464355
vt 0.499023 0.464355
vt -0.000152 0.486816
vt 0.339844 0.000000
vt 0.339844 1.000000
vt 0.390625 0.000000
vt 0.339844 1.000000
vt 0.390625 1.000000
vt 0.390625 0.000000
vt 0.441406 1.000000
vt 0.492188 1.000000
vt 0.441406 0.000000
vt 0.492188 1.000000
vt 0.492188 0.000000
vt 0.441406 0.000000
vt 0.390625 0.000000
vt 0.390625 1.000000
vt 0.441406 0.000000
vt 0.390625 1.000000
vt 0.441406 1.000000
vt 0.441406 0.000000
vt 0.492188 1.000000
vt 0.499512 1.000000
vt 0.492188 0.000000
vt 0.499512 1.000000
vt 0.499512 0.000000
vt 0.492188 0.000000
vt 0.173340 0.000000
vt 0.173340 1.000000
vt 0.223999 0.000000
vt 0.173340 1.000000
vt 0.223999 1.000000
vt 0.223999 0.000000
vt 0.274902 1.000000
vt 0.325439 1.000000
vt 0.274902 0.000000
vt 0.325439 1.000000
vt 0.325439 0.000000
vt 0.274902 0.000000
vt 0.223999 0.000000
vt 0.223999 1.000000
vt 0.274902 0.000000
vt 0.223999 1.000000
vt 0.274902 1.000000
vt 0.274902 0.000000
vt 0.339844 1.000000
vt 0.339844 0.000000
vt 0.325439 1.000000
vt 0.339844 0.000000
vt 0.325439 0.000000
vt 0.325439 1.000000
vt 0.006695 0.000000
vt 0.006695 1.000000
vt 0.057434 0.000000
vt 0.006695 1.000000
vt 0.057434 1.000000
vt 0.057434 0.000000
vt 0.108215 1.000000
vt 0.158936 1.000000
vt 0.108215 0.000000
vt 0.158936 1.000000
vt 0.158936 0.000000
vt 0.108215 0.000000
vt 0.057434 0.000000
vt 0.057434 1.000000
vt 0.108215 0.000000
vt 0.057434 1.000000
vt 0.108215 1.000000
vt 0.108215 0.000000
vt 0.006695 0.000000
vt -0.000485 0.000000
vt 0.006695 1.000000
vt -0.000485 0.000000
vt -0.000485 1.000000
vt 0.006695 1.000000
vt 0.173340 1.000000
vt 0.173340 0.000000
vt 0.158936 1.000000
vt 0.173340 0.000000
vt 0.158936 0.000000
vt 0.158936 1.000000
vt 0.441162 0.535889
vt 0.491943 0.486816
vt 0.390381 0.535889
vt 0.390381 0.535889
vt 0.491943 0.486816
vt 0.339844 0.486816
vt 0.491943 0.486816
vt -0.000152 0.464355
vt 0.339844 0.486816
vt -0.000152 0.486816
vt 0.007015 0.486816
vt -0.000152 0.464355
vt 0.007015 0.486816
vt 0.057678 0.535889
vt -0.000152 0.464355
vt 0.057678 0.535889
vt 0.108398 0.535889
vt -0.000152 0.464355
vt 0.108398 0.535889
vt 0.159058 0.486816
vt -0.000152 0.464355
vt 0.173340 0.486816
vt -0.000152 0.464355
vt 0.159058 0.486816
vt 0.325439 0.486816
vt -0.000152 0.464355
vt 0.173340 0.486816
vt 0.224121 0.535889
vt 0.325439 0.486816
vt 0.173340 0.486816
vt 0.274658 0.535889
vt 0.325439 0.486816
vt 0.224121 0.535889
vt -0.171753 0.998009
vt -0.160034 0.998009
vt -0.171753 0.002441
vt -0.160034 0.998009
vt -0.160034 0.002441
vt -0.171753 0.002441
vt 0.057678 0.535889
vt 0.007015 0.486816
vt 0.108398 0.535889
vt 0.108398 0.535889
vt 0.007015 0.486816
vt 0.159058 0.486816
vt 0.007015 0.486816
vt 0.499023 0.464355
vt 0.159058 0.486816
vt 0.499023 0.486816
vt 0.491943 0.486816
vt 0.499023 0.464355
vt 0.491943 0.486816
vt 0.441162 0.535889
vt 0.499023 0.464355
vt 0.441162 0.535889
vt 0.390381 0.535889
vt 0.499023 0.464355
vt 0.390381 0.535889
vt 0.339844 0.486816
vt 0.499023 0.464355
vt 0.325439 0.486816
vt 0.499023 0.464355
vt 0.339844 0.486816
vt 0.173340 0.486816
vt 0.499023 0.464355
vt 0.325439 0.486816
vt 0.274658 0.535889
vt 0.173340 0.486816
vt 0.325439 0.486816
vt 0.224121 0.535889
vt 0.173340 0.486816
vt 0.274658 0.535889
vt -0.325684 0.002441
vt -0.338135 0.002441
vt -0.325684 0.998009
vt -0.338135 0.002441
vt -0.338135 0.998009
vt -0.325684 0.998009
vt -0.000996 0.998009
vt -0.000996 0.002441
vt -0.498779 0.998009
vt -0.000996 0.002441
vt -0.498779 0.002441
vt -0.498779 0.998009
vn 1.000000 0.000000 0.000000
vn 1.000000 0.000000 0.000000
vn 1.000000 0.000000 0.000000
vn -1.000000 0.000000 0.000000
vn -1.000000 0.000000 0.000000
vn -1.000000 0.000000 0.000000
vn 0.000000 -0.434442 0.900196
vn 0.000000 -0.434442 0.900196
vn 0.000000 -0.434442 0.900196
vn 0.000000 -0.434442 0.900196
vn 0.000000 -0.434442 0.900196
vn 0.000000 -0.434442 0.900196
vn 0.000000 0.434442 0.900196
vn 0.000000 0.434442 0.900196
vn 0.000000 0.434442 0.900196
vn 0.000000 0.434442 0.900196
vn 0.000000 0.434442 0.900196
vn 0.000000 0.434442 0.900196
vn 0.000000 0.000000 1.000000
vn 0.000000 0.000000 1.000000
vn 0.000000 0.000000 1.000000
vn 0.000000 0.000000 1.000000
vn 0.000000 0.000000 1.000000
vn 0.000000 0.000000 1.000000
vn 0.000000 0.000000 1.000000
vn 0.000000 0.000000 1.000000
vn 0.000000 0.000000 1.000000
vn 0.000000 0.000000 1.000000
vn 0.000000 0.000000 1.000000
vn 0.000000 0.000000 1.000000
vn 0.000000 -0.434442 0.900196
vn 0.000000 -0.434442 0.900196
vn 0.000000 -0.434442 0.900196
vn 0.000000 -0.434442 0.900196
vn 0.000000 -0.434442 0.900196
vn 0.000000 -0.434442 0.900196
vn 0.000000 0.434442 0.900196
vn 0.000000 0.434442 0.900196
vn 0.000000 0.434442 0.900196
vn 0.000000 0.434442 0.900196
vn 0.000000 0.434442 0.900196
vn 0.000000 0.434442 0.900196
vn 0.000000 0.000000 1.000000
vn 0.000000 0.000000 1.000000
vn 0.000000 0.000000 1.000000
vn 0.000000 0.000000 1.000000
vn 0.000000 0.000000 1.000000
vn 0.000000 0.000000 1.000000
vn 0.000000 0.000000 1.000000
vn 0.000000 0.000000 1.000000
vn 0.000000 0.000000 1.000000
vn 0.000000 0.000000 1.000000
vn 0.000000 0.000000 1.000000
vn 0.000000 0.000000 1.000000
vn 0.000000 -0.434442 0.900196
vn 0.000000 -0.434442 0.900196
vn 0.000000 -0.434442 0.900196
vn 0.000000 -0.434442 0.900196
vn 0.000000 -0.434442 0.900196
vn 0.000000 -0.434442 0.900196
vn 0.000000 0.434442 0.900196
vn 0.000000 0.434442 0.900196
vn 0.000000 0.434442 0.900196
vn 0.000000 0.434442 0.900196
vn 0.000000 0.434442 0.900196
vn 0.000000 0.434442 0.900196
vn 0.000000 0.000000 1.000000
vn 0.000000 0.000000 1.000000
vn 0.000000 0.000000 1.000000
vn 0.000000 0.000000 1.000000
vn 0.000000 0.000000 1.000000
vn 0.000000 0.000000 1.000000
vn 0.000000 0.000000 1.000000
vn 0.000000 0.000000 1.000000
vn 0.000000 0.000000 1.000000
vn 0.000000 0.000000 1.000000
vn 0.000000 0.000000 1.000000
vn 0.000000 0.000000 1.000000
vn 0.000000 0.000000 1.000000
vn 0.000000 0.000000 1.000000
vn 0.000000 0.000000 1.000000
vn 0.000000 0.000000 1.000000
vn 0.000000 0.000000 1.000000
vn 0.000000 0.000000 1.000000
vn 1.000000 0.000000 0.000000
vn 1.000000 0.000000 0.000000
vn 1.000000 0.000000 0.000000
vn 1.000000 0.000000 0.000000
vn 1.000000 0.000000 0.000000
vn 1.000000 0.000000 0.000000
vn 1.000000 0.000000 0.000000
vn 1.000000 0.000000 0.000000
vn 1.000000 0.000000 0.000000
vn 1.000000 0.000000 0.000000
vn 1.000000 0.000000 0.000000
vn 1.000000 0.000000 0.000000
vn 1.000000 0.000000 0.000000
vn 1.000000 0.000000 0.000000
vn 1.000000 0.000000 0.000000
vn 1.000000 0.000000 0.000000
vn 1.000000 0.000000 0.000000
vn 1.000000 0.000000 0.000000
vn 1.000000 0.000000 0.000000
vn 1.000000 0.000000 0.000000
vn 1.000000 0.000000 0.000000
vn 1.000000 0.000000 0.000000
vn 1.000000 0.000000 0.000000
vn 1.000000 0.000000 0.000000
vn 1.000000 0.000000 0.000000
vn 1.000000 0.000000 0.000000
vn 1.000000 0.000000 0.000000
vn 1.000000 0.000000 0.000000
vn 1.000000 0.000000 0.000000
vn 1.000000 0.000000 0.000000
vn 1.000000 0.000000 0.000000
vn 1.000000 0.000000 0.000000
vn 1.000000 0.000000 0.000000
vn 0.000000 1.000000 0.000000
vn 0.000000 1.000000 0.000000
vn 0.000000 1.000000 0.000000
vn 0.000000 1.000000 0.000000
vn 0.000000 1.000000 0.000000
vn 0.000000 1.000000 0.000000
vn -1.000000 0.000000 0.000000
vn -1.000000 0.000000 0.000000
vn -1.000000 0.000000 0.000000
vn -1.000000 0.000000 0.000000
vn -1.000000 0.000000 0.000000
vn -1.000000 0.000000 0.000000
vn -1.000000 0.000000 0.000000
vn -1.000000 0.000000 0.000000
vn -1.000000 0.000000 0.000000
vn -1.000000 0.000000 0.000000
vn -1.000000 0.000000 0.000000
vn -1.000000 0.000000 0.000000
vn -1.000000 0.000000 0.000000
vn -1.000000 0.000000 0.000000
vn -1.000000 0.000000 0.000000
vn -1.000000 0.000000 0.000000
vn -1.000000 0.000000 0.000000
vn -1.000000 0.000000 0.000000
vn -1.000000 0.000000 0.000000
vn -1.000000 0.000000 0.000000
vn -1.000000 0.000000 0.000000
vn -1.000000 0.000000 0.000000
vn -1.000000 0.000000 0.000000
vn -1.000000 0.000000 0.000000
vn -1.000000 0.000000 0.000000
vn -1.000000 0.000000 0.000000
vn -1.000000 0.000000 0.000000
vn -1.000000 0.000000 0.000000
vn -1.000000 0.000000 0.000000
vn -1.000000 0.000000 0.000000
vn -1.000000 0.000000 0.000000
vn -1.000000 0.000000 0.000000
vn -1.000000 0.000000 0.000000
vn 0.000000 -1.000000 0.000000
vn 0.000000 -1.000000 0.000000
vn 0.000000 -1.000000 0.000000
vn 0.000000 -1.000000 0.000000
vn 0.000000 -1.000000 0.000000
vn 0.000000 -1.000000 0.000000
vn 0.000000 0.000000 -1.000000
vn 0.000000 0.000000 -1.000000
vn 0.000000 0.000000 -1.000000
vn 0.000000 0.000000 -1.000000
vn 0.000000 0.000000 -1.000000
vn 0.000000 0.000000 -1.000000
mtllib nt_2020_hydroponic_floor_holes.mtl
g nt_2020_hydroponic_floor_holes
usemtl nt_2020_hydroponic_floor_holes
f 3/3/3 2/2/2 1/1/1
f 6/6/6 5/5/5 4/4/4
f 9/9/9 8/8/8 7/7/7
f 12/12/12 11/11/11 10/10/10
f 15/15/15 14/14/14 13/13/13
f 18/18/18 17/17/17 16/16/16
f 21/21/21 20/20/20 19/19/19
f 24/24/24 23/23/23 22/22/22
f 27/27/27 26/26/26 25/25/25
f 30/30/30 29/29/29 28/28/28
f 33/33/33 32/32/32 31/31/31
f 36/36/36 35/35/35 34/34/34
f 39/39/39 38/38/38 37/37/37
f 42/42/42 41/41/41 40/40/40
f 45/45/45 44/44/44 43/43/43
f 48/48/48 47/47/47 46/46/46
f 51/51/51 50/50/50 49/49/49
f 54/54/54 53/53/53 52/52/52
f 57/57/57 56/56/56 55/55/55
f 60/60/60 59/59/59 58/58/58
f 63/63/63 62/62/62 61/61/61
f 66/66/66 65/65/65 64/64/64
f 69/69/69 68/68/68 67/67/67
f 72/72/72 71/71/71 70/70/70
f 75/75/75 74/74/74 73/73/73
f 78/78/78 77/77/77 76/76/76
f 81/81/81 80/80/80 79/79/79
f 84/84/84 83/83/83 82/82/82
f 87/87/87 86/86/86 85/85/85
f 90/90/90 89/89/89 88/88/88
f 93/93/93 92/92/92 91/91/91
f 96/96/96 95/95/95 94/94/94
f 99/99/99 98/98/98 97/97/97
f 102/102/102 101/101/101 100/100/100
f 105/105/105 104/104/104 103/103/103
f 108/108/108 107/107/107 106/106/106
f 111/111/111 110/110/110 109/109/109
f 114/114/114 113/113/113 112/112/112
f 117/117/117 116/116/116 115/115/115
f 120/120/120 119/119/119 118/118/118
f 123/123/123 122/122/122 121/121/121
f 126/126/126 125/125/125 124/124/124
f 129/129/129 128/128/128 127/127/127
f 132/132/132 131/131/131 130/130/130
f 135/135/135 134/134/134 133/133/133
f 138/138/138 137/137/137 136/136/136
f 141/141/141 140/140/140 139/139/139
f 144/144/144 143/143/143 142/142/142
f 147/147/147 146/146/146 145/145/145
f 150/150/150 149/149/149 148/148/148
f 153/153/153 152/152/152 151/151/151
f 156/156/156 155/155/155 154/154/154
f 159/159/159 158/158/158 157/157/157
f 162/162/162 161/161/161 160/160/160
f 165/165/165 164/164/164 163/163/163
f 168/168/168 167/167/167 166/166/166
