# Generated by Wraith - Game extraction tools
# Please credit DTZxPorter for using it!

v 48.448116 0.000000 53.930527
v 48.448116 0.000000 -0.451142
v 48.135105 -3.454164 53.582779
v 48.448116 0.000000 -0.451142
v 48.135105 -3.454164 -0.103391
v 48.135105 -3.454164 53.582779
v 48.135105 -3.454164 53.582779
v 48.135105 -3.454164 -0.103391
v 47.871525 -3.683366 53.315857
v 48.135105 -3.454164 -0.103391
v 47.871525 -3.683366 0.163528
v 47.871525 -3.683366 53.315857
v 47.871525 -3.683366 0.163528
v 0.075418 -3.683366 0.163528
v 47.871525 -3.683366 53.315857
v 0.075418 -3.683366 0.163528
v 0.075418 -3.683366 53.315857
v 47.871525 -3.683366 53.315857
v 48.135105 -3.454164 53.582779
v 47.871525 -3.683366 53.315857
v 0.075418 -3.683366 53.315857
v -0.188163 -3.454164 53.582779
v 48.135105 -3.454164 53.582779
v 0.075418 -3.683366 53.315857
v -0.188163 -3.454164 53.582779
v -0.501178 0.000000 53.930527
v 48.135105 -3.454164 53.582779
v -0.501178 0.000000 53.930527
v 48.448116 0.000000 53.930527
v 48.135105 -3.454164 53.582779
v 47.871525 -3.683366 0.163528
v 48.135105 -3.454164 -0.103391
v 0.075418 -3.683366 0.163528
v 48.135105 -3.454164 -0.103391
v -0.188163 -3.454164 -0.103391
v 0.075418 -3.683366 0.163528
v 48.135105 -3.454164 -0.103391
v 48.448116 0.000000 -0.451142
v -0.188163 -3.454164 -0.103391
v 48.448116 0.000000 -0.451142
v -0.501178 0.000000 -0.451142
v -0.188163 -3.454164 -0.103391
v 0.075418 -3.683366 53.315857
v 0.075418 -3.683366 0.163528
v -0.188163 -3.454164 -0.103391
v -0.188163 -3.454164 53.582779
v 0.075418 -3.683366 53.315857
v -0.188163 -3.454164 -0.103391
v -0.501178 0.000000 53.930527
v -0.188163 -3.454164 53.582779
v -0.188163 -3.454164 -0.103391
v -0.501178 0.000000 -0.451142
v -0.501178 0.000000 53.930527
v -0.188163 -3.454164 -0.103391
v -0.501178 0.000000 -0.451142
v 48.448116 0.000000 -0.451142
v -0.501178 0.000000 53.930527
v 48.448116 0.000000 -0.451142
v 48.448116 0.000000 53.930527
v -0.501178 0.000000 53.930527
v 42.006718 -3.507572 52.017361
v 45.662350 -3.507572 52.017361
v 45.662350 -7.613662 52.017361
v 42.006718 -7.613662 52.017361
v 42.006718 -3.507572 52.017361
v 45.662350 -7.613662 52.017361
v 42.006718 -7.613662 52.017361
v 45.662350 -7.613662 52.017361
v 42.006718 -7.613662 24.840227
v 45.662350 -7.613662 52.017361
v 45.662350 -7.613662 24.840227
v 42.006718 -7.613662 24.840227
v 42.006718 -7.613662 24.840227
v 45.662350 -7.613662 24.840227
v 45.662350 -3.507572 24.840227
v 42.006718 -3.507572 24.840227
v 42.006718 -7.613662 24.840227
v 45.662350 -3.507572 24.840227
v 45.662350 -7.613662 24.840227
v 45.662350 -6.331181 27.481644
v 45.662350 -3.507572 24.840227
v 45.662350 -6.331181 49.330849
v 45.662350 -6.331181 27.481644
v 45.662350 -7.613662 24.840227
v 45.662350 -6.331181 49.330849
v 44.762348 -5.761550 48.763443
v 45.662350 -6.331181 27.481644
v 44.762348 -5.761550 48.763443
v 44.762348 -5.761550 28.049051
v 45.662350 -6.331181 27.481644
v 45.662350 -6.331181 27.481644
v 44.762348 -5.761550 28.049051
v 45.662350 -3.507572 27.481638
v 45.662350 -6.331181 27.481644
v 45.662350 -3.507572 27.481638
v 45.662350 -3.507572 24.840227
v 45.662350 -7.613662 52.017361
v 45.662350 -6.331181 49.330849
v 45.662350 -7.613662 24.840227
v 45.662350 -7.613662 52.017361
v 45.662350 -3.507572 52.017361
v 45.662350 -6.331181 49.330849
v 45.662350 -3.507572 52.017361
v 45.662350 -3.507572 49.330845
v 45.662350 -6.331181 49.330849
v 45.662350 -6.331181 49.330849
v 45.662350 -3.507572 49.330845
v 44.762348 -5.761550 48.763443
v 45.662350 -3.507572 49.330845
v 44.762348 -3.507572 48.763443
v 44.762348 -5.761550 48.763443
v 44.762348 -3.507572 48.763443
v 44.762348 -3.507572 28.049044
v 44.762348 -5.761550 48.763443
v 44.762348 -3.507572 28.049044
v 44.762348 -5.761550 28.049051
v 44.762348 -5.761550 48.763443
v 44.762348 -5.761550 28.049051
v 44.762348 -3.507572 28.049044
v 45.662350 -3.507572 27.481638
v 42.006718 -6.331181 49.330849
v 42.006718 -3.507572 49.330845
v 42.006718 -3.507572 52.017361
v 42.006718 -6.331181 49.330849
v 42.906715 -5.761550 48.763443
v 42.006718 -3.507572 49.330845
v 42.906715 -5.761550 48.763443
v 42.906715 -3.507572 48.763443
v 42.006718 -3.507572 49.330845
v 42.906715 -3.507572 48.763443
v 42.906715 -5.761550 48.763443
v 42.906723 -5.761550 28.049051
v 42.906723 -3.507572 28.049044
v 42.906715 -3.507572 48.763443
v 42.906723 -5.761550 28.049051
v 42.006721 -3.507572 27.481638
v 42.906723 -3.507572 28.049044
v 42.906723 -5.761550 28.049051
v 42.006718 -7.613662 52.017361
v 42.006718 -6.331181 49.330849
v 42.006718 -3.507572 52.017361
v 42.006718 -6.331181 49.330849
v 42.006718 -7.613662 52.017361
v 42.006718 -7.613662 24.840227
v 42.006721 -6.331181 27.481644
v 42.006718 -6.331181 49.330849
v 42.006718 -7.613662 24.840227
v 42.006721 -6.331181 27.481644
v 42.906723 -5.761550 28.049051
v 42.006718 -6.331181 49.330849
v 42.906723 -5.761550 28.049051
v 42.906715 -5.761550 48.763443
v 42.006718 -6.331181 49.330849
v 42.006718 -7.613662 24.840227
v 42.006718 -3.507572 24.840227
v 42.006721 -6.331181 27.481644
v 42.006718 -3.507572 24.840227
v 42.006721 -3.507572 27.481638
v 42.006721 -6.331181 27.481644
v 42.006721 -6.331181 27.481644
v 42.006721 -3.507572 27.481638
v 42.906723 -5.761550 28.049051
vt 0.867676 0.958435
vt 0.867676 0.037598
vt 0.829590 0.951508
vt 0.867676 0.037598
vt 0.829590 0.044434
vt 0.829590 0.951508
vt 0.829590 0.951508
vt 0.829590 0.044434
vt 0.824219 0.946838
vt 0.829590 0.044434
vt 0.824219 0.048828
vt 0.824219 0.946838
vt 0.824219 0.048828
vt 0.049133 0.048828
vt 0.824219 0.946838
vt 0.049133 0.048828
vt 0.049133 0.946838
vt 0.824219 0.946838
vt 0.828613 0.952637
vt 0.824219 0.946838
vt 0.049133 0.946838
vt 0.044708 0.952637
vt 0.828613 0.952637
vt 0.049133 0.946838
vt 0.044708 0.952637
vt 0.038574 0.992321
vt 0.828613 0.952637
vt 0.038574 0.992321
vt 0.834473 0.992321
vt 0.828613 0.952637
vt 0.824219 0.048828
vt 0.828613 0.043457
vt 0.049133 0.048828
vt 0.828613 0.043457
vt 0.044708 0.043457
vt 0.049133 0.048828
vt 0.828613 0.043457
vt 0.834473 0.003418
vt 0.044708 0.043457
vt 0.834473 0.003418
vt 0.038574 0.003418
vt 0.044708 0.043457
vt 0.049133 0.946838
vt 0.049133 0.048828
vt 0.043610 0.044434
vt 0.043610 0.951508
vt 0.049133 0.946838
vt 0.043610 0.044434
vt 0.005405 0.958435
vt 0.043610 0.951508
vt 0.043610 0.044434
vt 0.005409 0.037598
vt 0.005405 0.958435
vt 0.043610 0.044434
vt 0.875488 0.141602
vt 0.996582 0.141602
vt 0.875488 0.007324
vt 0.996582 0.141602
vt 0.996582 0.007324
vt 0.875488 0.007324
vt 0.909180 0.991714
vt 0.968262 0.991714
vt 0.968262 0.925415
vt 0.909180 0.925415
vt 0.909180 0.991714
vt 0.968262 0.925415
vt 0.909180 0.925415
vt 0.968262 0.925415
vt 0.909180 0.486816
vt 0.968262 0.925415
vt 0.968262 0.486816
vt 0.909180 0.486816
vt 0.909180 0.486816
vt 0.968262 0.486816
vt 0.968262 0.420410
vt 0.909180 0.420410
vt 0.909180 0.486816
vt 0.968262 0.420410
vt 0.944824 0.151855
vt 0.956543 0.171875
vt 0.983398 0.151855
vt 0.957031 0.385254
vt 0.956543 0.171875
vt 0.944824 0.151855
vt 0.957031 0.385254
vt 0.965820 0.376953
vt 0.956543 0.171875
vt 0.965820 0.376953
vt 0.965332 0.179688
vt 0.956543 0.171875
vt 0.956543 0.171875
vt 0.965332 0.179688
vt 0.983398 0.171875
vt 0.956543 0.171875
vt 0.983398 0.171875
vt 0.983398 0.151855
vt 0.945313 0.406250
vt 0.957031 0.385254
vt 0.944824 0.151855
vt 0.945313 0.406250
vt 0.983398 0.406250
vt 0.957031 0.385254
vt 0.983398 0.406250
vt 0.983398 0.385254
vt 0.957031 0.385254
vt 0.957031 0.385254
vt 0.983398 0.385254
vt 0.965820 0.376953
vt 0.983398 0.385254
vt 0.983398 0.376953
vt 0.965820 0.376953
vt 0.983398 0.376953
vt 0.983398 0.180176
vt 0.965820 0.376953
vt 0.983398 0.180176
vt 0.965332 0.179688
vt 0.965820 0.376953
vt 0.965332 0.179688
vt 0.983398 0.180176
vt 0.983398 0.171875
vt 0.909668 0.385254
vt 0.883301 0.385254
vt 0.883301 0.406250
vt 0.909668 0.385254
vt 0.900879 0.376953
vt 0.883301 0.385254
vt 0.900879 0.376953
vt 0.883301 0.376953
vt 0.883301 0.385254
vt 0.883301 0.376953
vt 0.900879 0.376953
vt 0.900879 0.179688
vt 0.883301 0.180176
vt 0.883301 0.376953
vt 0.900879 0.179688
vt 0.883301 0.171875
vt 0.883301 0.180176
vt 0.900879 0.179688
vt 0.920898 0.406250
vt 0.909668 0.385254
vt 0.883301 0.406250
vt 0.909668 0.385254
vt 0.920898 0.406250
vt 0.921387 0.151855
vt 0.909668 0.171875
vt 0.909668 0.385254
vt 0.921387 0.151855
vt 0.909668 0.171875
vt 0.900879 0.179688
vt 0.909668 0.385254
vt 0.900879 0.179688
vt 0.900879 0.376953
vt 0.909668 0.385254
vt 0.921387 0.151855
vt 0.883301 0.151855
vt 0.909668 0.171875
vt 0.883301 0.151855
vt 0.883301 0.171875
vt 0.909668 0.171875
vt 0.909668 0.171875
vt 0.883301 0.171875
vt 0.900879 0.179688
vn 0.700587 -0.133072 0.700587
vn 0.700587 -0.133072 -0.700587
vn 0.571429 -0.589041 0.569472
vn 0.700587 -0.133072 -0.700587
vn 0.571429 -0.589041 -0.569472
vn 0.571429 -0.589041 0.569472
vn 0.571429 -0.589041 0.569472
vn 0.571429 -0.589041 -0.569472
vn 0.244618 -0.939335 0.242661
vn 0.571429 -0.589041 -0.569472
vn 0.244618 -0.939335 -0.242661
vn 0.244618 -0.939335 0.242661
vn 0.244618 -0.939335 -0.242661
vn -0.244618 -0.939335 -0.242661
vn 0.244618 -0.939335 0.242661
vn -0.244618 -0.939335 -0.242661
vn -0.244618 -0.939335 0.242661
vn 0.244618 -0.939335 0.242661
vn 0.571429 -0.589041 0.569472
vn 0.244618 -0.939335 0.242661
vn -0.244618 -0.939335 0.242661
vn -0.571429 -0.589041 0.569472
vn 0.571429 -0.589041 0.569472
vn -0.244618 -0.939335 0.242661
vn -0.571429 -0.589041 0.569472
vn -0.700587 -0.133072 0.700587
vn 0.571429 -0.589041 0.569472
vn -0.700587 -0.133072 0.700587
vn 0.700587 -0.133072 0.700587
vn 0.571429 -0.589041 0.569472
vn 0.244618 -0.939335 -0.242661
vn 0.571429 -0.589041 -0.569472
vn -0.244618 -0.939335 -0.242661
vn 0.571429 -0.589041 -0.569472
vn -0.571429 -0.589041 -0.569472
vn -0.244618 -0.939335 -0.242661
vn 0.571429 -0.589041 -0.569472
vn 0.700587 -0.133072 -0.700587
vn -0.571429 -0.589041 -0.569472
vn 0.700587 -0.133072 -0.700587
vn -0.700587 -0.133072 -0.700587
vn -0.571429 -0.589041 -0.569472
vn -0.244618 -0.939335 0.242661
vn -0.244618 -0.939335 -0.242661
vn -0.571429 -0.589041 -0.569472
vn -0.571429 -0.589041 0.569472
vn -0.244618 -0.939335 0.242661
vn -0.571429 -0.589041 -0.569472
vn -0.700587 -0.133072 0.700587
vn -0.571429 -0.589041 0.569472
vn -0.571429 -0.589041 -0.569472
vn -0.700587 -0.133072 -0.700587
vn -0.700587 -0.133072 0.700587
vn -0.571429 -0.589041 -0.569472
vn 0.000000 1.000000 0.000000
vn 0.000000 1.000000 0.000000
vn 0.000000 1.000000 0.000000
vn 0.000000 1.000000 0.000000
vn 0.000000 1.000000 0.000000
vn 0.000000 1.000000 0.000000
vn -0.706458 0.000000 0.706458
vn 0.706458 0.000000 0.706458
vn 0.816047 -0.409002 0.409002
vn -0.816047 -0.409002 0.409002
vn -0.706458 0.000000 0.706458
vn 0.816047 -0.409002 0.409002
vn -0.816047 -0.409002 0.409002
vn 0.816047 -0.409002 0.409002
vn -0.816047 -0.409002 -0.409002
vn 0.816047 -0.409002 0.409002
vn 0.816047 -0.409002 -0.409002
vn -0.816047 -0.409002 -0.409002
vn -0.816047 -0.409002 -0.409002
vn 0.816047 -0.409002 -0.409002
vn 0.706458 0.000000 -0.706458
vn -0.706458 0.000000 -0.706458
vn -0.816047 -0.409002 -0.409002
vn 0.706458 0.000000 -0.706458
vn 0.816047 -0.409002 -0.409002
vn 0.931507 0.256360 0.256360
vn 0.706458 0.000000 -0.706458
vn 0.931507 0.256360 -0.256360
vn 0.931507 0.256360 0.256360
vn 0.816047 -0.409002 -0.409002
vn 0.931507 0.256360 -0.256360
vn 0.864971 0.354207 -0.354207
vn 0.931507 0.256360 0.256360
vn 0.864971 0.354207 -0.354207
vn 0.864971 0.354207 0.354207
vn 0.931507 0.256360 0.256360
vn 0.931507 0.256360 0.256360
vn 0.864971 0.354207 0.354207
vn 0.874755 0.000000 0.483366
vn 0.931507 0.256360 0.256360
vn 0.874755 0.000000 0.483366
vn 0.706458 0.000000 -0.706458
vn 0.816047 -0.409002 0.409002
vn 0.931507 0.256360 -0.256360
vn 0.816047 -0.409002 -0.409002
vn 0.816047 -0.409002 0.409002
vn 0.706458 0.000000 0.706458
vn 0.931507 0.256360 -0.256360
vn 0.706458 0.000000 0.706458
vn 0.874755 0.000000 -0.483366
vn 0.931507 0.256360 -0.256360
vn 0.931507 0.256360 -0.256360
vn 0.874755 0.000000 -0.483366
vn 0.864971 0.354207 -0.354207
vn 0.874755 0.000000 -0.483366
vn 0.874755 0.000000 -0.483366
vn 0.864971 0.354207 -0.354207
vn 0.874755 0.000000 -0.483366
vn 0.874755 0.000000 0.483366
vn 0.864971 0.354207 -0.354207
vn 0.874755 0.000000 0.483366
vn 0.864971 0.354207 0.354207
vn 0.864971 0.354207 -0.354207
vn 0.864971 0.354207 0.354207
vn 0.874755 0.000000 0.483366
vn 0.874755 0.000000 0.483366
vn -0.931507 0.256360 -0.256360
vn -0.874755 0.000000 -0.483366
vn -0.706458 0.000000 0.706458
vn -0.931507 0.256360 -0.256360
vn -0.864971 0.354207 -0.354207
vn -0.874755 0.000000 -0.483366
vn -0.864971 0.354207 -0.354207
vn -0.874755 0.000000 -0.483366
vn -0.874755 0.000000 -0.483366
vn -0.874755 0.000000 -0.483366
vn -0.864971 0.354207 -0.354207
vn -0.864971 0.354207 0.354207
vn -0.874755 0.000000 0.483366
vn -0.874755 0.000000 -0.483366
vn -0.864971 0.354207 0.354207
vn -0.874755 0.000000 0.483366
vn -0.874755 0.000000 0.483366
vn -0.864971 0.354207 0.354207
vn -0.816047 -0.409002 0.409002
vn -0.931507 0.256360 -0.256360
vn -0.706458 0.000000 0.706458
vn -0.931507 0.256360 -0.256360
vn -0.816047 -0.409002 0.409002
vn -0.816047 -0.409002 -0.409002
vn -0.931507 0.256360 0.256360
vn -0.931507 0.256360 -0.256360
vn -0.816047 -0.409002 -0.409002
vn -0.931507 0.256360 0.256360
vn -0.864971 0.354207 0.354207
vn -0.931507 0.256360 -0.256360
vn -0.864971 0.354207 0.354207
vn -0.864971 0.354207 -0.354207
vn -0.931507 0.256360 -0.256360
vn -0.816047 -0.409002 -0.409002
vn -0.706458 0.000000 -0.706458
vn -0.931507 0.256360 0.256360
vn -0.706458 0.000000 -0.706458
vn -0.874755 0.000000 0.483366
vn -0.931507 0.256360 0.256360
vn -0.931507 0.256360 0.256360
vn -0.874755 0.000000 0.483366
vn -0.864971 0.354207 0.354207
mtllib mtl_p6_con_locker_door.mtl
g mtl_p6_con_locker_door
usemtl mtl_p6_con_locker_door
f 3/3/3 2/2/2 1/1/1
f 6/6/6 5/5/5 4/4/4
f 9/9/9 8/8/8 7/7/7
f 12/12/12 11/11/11 10/10/10
f 15/15/15 14/14/14 13/13/13
f 18/18/18 17/17/17 16/16/16
f 21/21/21 20/20/20 19/19/19
f 24/24/24 23/23/23 22/22/22
f 27/27/27 26/26/26 25/25/25
f 30/30/30 29/29/29 28/28/28
f 33/33/33 32/32/32 31/31/31
f 36/36/36 35/35/35 34/34/34
f 39/39/39 38/38/38 37/37/37
f 42/42/42 41/41/41 40/40/40
f 45/45/45 44/44/44 43/43/43
f 48/48/48 47/47/47 46/46/46
f 51/51/51 50/50/50 49/49/49
f 54/54/54 53/53/53 52/52/52
f 57/57/57 56/56/56 55/55/55
f 60/60/60 59/59/59 58/58/58
f 63/63/63 62/62/62 61/61/61
f 66/66/66 65/65/65 64/64/64
f 69/69/69 68/68/68 67/67/67
f 72/72/72 71/71/71 70/70/70
f 75/75/75 74/74/74 73/73/73
f 78/78/78 77/77/77 76/76/76
f 81/81/81 80/80/80 79/79/79
f 84/84/84 83/83/83 82/82/82
f 87/87/87 86/86/86 85/85/85
f 90/90/90 89/89/89 88/88/88
f 93/93/93 92/92/92 91/91/91
f 96/96/96 95/95/95 94/94/94
f 99/99/99 98/98/98 97/97/97
f 102/102/102 101/101/101 100/100/100
f 105/105/105 104/104/104 103/103/103
f 108/108/108 107/107/107 106/106/106
f 111/111/111 110/110/110 109/109/109
f 114/114/114 113/113/113 112/112/112
f 117/117/117 116/116/116 115/115/115
f 120/120/120 119/119/119 118/118/118
f 123/123/123 122/122/122 121/121/121
f 126/126/126 125/125/125 124/124/124
f 129/129/129 128/128/128 127/127/127
f 132/132/132 131/131/131 130/130/130
f 135/135/135 134/134/134 133/133/133
f 138/138/138 137/137/137 136/136/136
f 141/141/141 140/140/140 139/139/139
f 144/144/144 143/143/143 142/142/142
f 147/147/147 146/146/146 145/145/145
f 150/150/150 149/149/149 148/148/148
f 153/153/153 152/152/152 151/151/151
f 156/156/156 155/155/155 154/154/154
f 159/159/159 158/158/158 157/157/157
f 162/162/162 161/161/161 160/160/160
