# Generated by Wraith - Game extraction tools
# Please credit DTZxPorter for using it!

v -15.208191 -8.780455 1.110673
v -11.287930 -13.452432 1.110673
v -6.562565 -11.366698 -1.110671
v -6.562565 -11.366698 -1.110671
v -11.287930 -13.452432 1.110673
v -6.006181 -16.501850 1.110673
v -6.562565 -11.366698 -1.110671
v -6.006181 -16.501850 1.110673
v 0.000003 -17.560907 1.110673
v 6.166795 -10.681200 -1.110671
v -6.562565 -11.366698 -1.110671
v 0.000003 -17.560907 1.110673
v 6.166795 -10.681200 -1.110671
v -12.333591 0.000003 -1.110671
v -6.562565 -11.366698 -1.110671
v -12.333591 0.000003 -1.110671
v -15.208191 -8.780455 1.110673
v -6.562565 -11.366698 -1.110671
v -12.333591 0.000003 -1.110671
v -17.294117 -3.049417 1.110673
v -15.208191 -8.780455 1.110673
v -12.333591 0.000003 -1.110671
v -17.294117 3.049425 1.110673
v -17.294117 -3.049417 1.110673
v -12.333591 0.000003 -1.110671
v -15.208200 8.780457 1.110673
v -17.294117 3.049425 1.110673
v -12.333591 0.000003 -1.110671
v -6.562568 11.366700 -1.110671
v -15.208200 8.780457 1.110673
v -6.562568 11.366700 -1.110671
v -11.287937 13.452442 1.110673
v -15.208200 8.780457 1.110673
v 6.166795 -10.681200 -1.110671
v 0.000003 -17.560907 1.110673
v 6.006193 -16.501850 1.110673
v 6.166795 -10.681200 -1.110671
v 6.006193 -16.501850 1.110673
v 11.287937 -13.452432 1.110673
v 6.166795 -10.681200 -1.110671
v 11.287937 -13.452432 1.110673
v 15.208191 -8.780447 1.110673
v 6.166795 -10.681200 -1.110671
v 15.208191 -8.780447 1.110673
v 13.125128 0.000005 -1.110671
v 6.166795 -10.681200 -1.110671
v 13.125128 0.000005 -1.110671
v -12.333591 0.000003 -1.110671
v 13.125128 0.000005 -1.110671
v -6.562568 11.366700 -1.110671
v -12.333591 0.000003 -1.110671
v 6.166787 10.681209 -1.110671
v -6.562568 11.366700 -1.110671
v 13.125128 0.000005 -1.110671
v 6.166787 10.681209 -1.110671
v 0.000000 17.560907 1.110673
v -6.562568 11.366700 -1.110671
v 0.000000 17.560907 1.110673
v -6.006188 16.501863 1.110673
v -6.562568 11.366700 -1.110671
v -6.562568 11.366700 -1.110671
v -6.006188 16.501863 1.110673
v -11.287937 13.452442 1.110673
v 15.208191 -8.780447 1.110673
v 17.294117 -3.049415 1.110673
v 13.125128 0.000005 -1.110671
v 13.125128 0.000005 -1.110671
v 17.294117 -3.049415 1.110673
v 17.294117 3.049433 1.110673
v 13.125128 0.000005 -1.110671
v 17.294117 3.049433 1.110673
v 15.208191 8.780457 1.110673
v 6.166787 10.681209 -1.110671
v 13.125128 0.000005 -1.110671
v 15.208191 8.780457 1.110673
v 6.166787 10.681209 -1.110671
v 15.208191 8.780457 1.110673
v 11.287930 13.452442 1.110673
v 6.166787 10.681209 -1.110671
v 11.287930 13.452442 1.110673
v 6.006175 16.501863 1.110673
v 6.166787 10.681209 -1.110671
v 6.006175 16.501863 1.110673
v 0.000000 17.560907 1.110673
v -6.562565 -11.366698 -0.792947
v -11.287930 -13.452432 1.110673
v -15.208191 -8.780455 1.110673
v -6.562565 -11.366698 -0.792947
v -6.006181 -16.501850 1.110673
v -11.287930 -13.452432 1.110673
v -6.006181 -16.501850 1.110673
v -6.562565 -11.366698 -0.792947
v 0.000003 -17.560907 1.110673
v -6.562565 -11.366698 -0.792947
v 6.166795 -10.681200 -0.792950
v 0.000003 -17.560907 1.110673
v 6.166795 -10.681200 -0.792950
v 6.006193 -16.501850 1.110673
v 0.000003 -17.560907 1.110673
v 6.166795 -10.681200 -0.792950
v 11.287937 -13.452432 1.110673
v 6.006193 -16.501850 1.110673
v 6.166795 -10.681200 -0.792950
v 15.208191 -8.780447 1.110673
v 11.287937 -13.452432 1.110673
v -12.333591 0.000003 -0.792947
v -6.562565 -11.366698 -0.792947
v -15.208191 -8.780455 1.110673
v 6.166795 -10.681200 -0.792950
v -6.562565 -11.366698 -0.792947
v -12.333591 0.000003 -0.792947
v 6.166795 -10.681200 -0.792950
v -12.333591 0.000003 -0.792947
v 13.125128 0.000005 -0.792947
v 6.166795 -10.681200 -0.792950
v 13.125128 0.000005 -0.792947
v 15.208191 -8.780447 1.110673
v 13.125128 0.000005 -0.792947
v 17.294117 -3.049415 1.110673
v 15.208191 -8.780447 1.110673
v 13.125128 0.000005 -0.792947
v 17.294117 3.049433 1.110673
v 17.294117 -3.049415 1.110673
v 17.294117 3.049433 1.110673
v 13.125128 0.000005 -0.792947
v 15.208191 8.780457 1.110673
v 13.125128 0.000005 -0.792947
v 6.166787 10.681209 -0.792950
v 15.208191 8.780457 1.110673
v 6.166787 10.681209 -0.792950
v 11.287930 13.452442 1.110673
v 15.208191 8.780457 1.110673
v -12.333591 0.000003 -0.792947
v -15.208191 -8.780455 1.110673
v -17.294117 -3.049417 1.110673
v -12.333591 0.000003 -0.792947
v -17.294117 -3.049417 1.110673
v -17.294117 3.049425 1.110673
v -12.333591 0.000003 -0.792947
v -17.294117 3.049425 1.110673
v -15.208200 8.780457 1.110673
v -6.562568 11.366700 -0.792947
v -12.333591 0.000003 -0.792947
v -15.208200 8.780457 1.110673
v -12.333591 0.000003 -0.792947
v -6.562568 11.366700 -0.792947
v 13.125128 0.000005 -0.792947
v 6.166787 10.681209 -0.792950
v 13.125128 0.000005 -0.792947
v -6.562568 11.366700 -0.792947
v 6.166787 10.681209 -0.792950
v -6.562568 11.366700 -0.792947
v 0.000000 17.560907 1.110673
v 6.166787 10.681209 -0.792950
v 0.000000 17.560907 1.110673
v 6.006175 16.501863 1.110673
v 6.166787 10.681209 -0.792950
v 6.006175 16.501863 1.110673
v 11.287930 13.452442 1.110673
v -11.287937 13.452442 1.110673
v -6.562568 11.366700 -0.792947
v -15.208200 8.780457 1.110673
v -6.562568 11.366700 -0.792947
v -11.287937 13.452442 1.110673
v -6.006188 16.501863 1.110673
v -6.562568 11.366700 -0.792947
v -6.006188 16.501863 1.110673
v 0.000000 17.560907 1.110673
vt 0.697754 0.246582
vt 0.733398 0.289551
vt 0.778320 0.268066
vt 0.778320 0.268066
vt 0.733398 0.289551
vt 0.781738 0.317871
vt 0.778320 0.268066
vt 0.781738 0.317871
vt 0.836914 0.327148
vt 0.892090 0.262207
vt 0.778320 0.268066
vt 0.836914 0.327148
vt 0.892090 0.262207
vt 0.726563 0.166504
vt 0.778320 0.268066
vt 0.726563 0.166504
vt 0.697754 0.246582
vt 0.778320 0.268066
vt 0.726563 0.166504
vt 0.678711 0.194336
vt 0.697754 0.246582
vt 0.726563 0.166504
vt 0.678711 0.138672
vt 0.678711 0.194336
vt 0.726563 0.166504
vt 0.697754 0.086426
vt 0.678711 0.138672
vt 0.726563 0.166504
vt 0.777832 0.064941
vt 0.697754 0.086426
vt 0.777832 0.064941
vt 0.733398 0.042969
vt 0.697754 0.086426
vt 0.892090 0.262207
vt 0.836914 0.327148
vt 0.892090 0.317383
vt 0.892090 0.262207
vt 0.892090 0.317383
vt 0.940430 0.289551
vt 0.892090 0.262207
vt 0.940430 0.289551
vt 0.976074 0.247070
vt 0.892090 0.262207
vt 0.976074 0.247070
vt 0.954102 0.166504
vt 0.892090 0.262207
vt 0.954102 0.166504
vt 0.726563 0.166504
vt 0.954102 0.166504
vt 0.777832 0.064941
vt 0.726563 0.166504
vt 0.892090 0.070801
vt 0.777832 0.064941
vt 0.954102 0.166504
vt 0.892090 0.070801
vt 0.836914 0.005859
vt 0.777832 0.064941
vt 0.836914 0.005859
vt 0.782227 0.015137
vt 0.777832 0.064941
vt 0.777832 0.064941
vt 0.782227 0.015137
vt 0.733398 0.042969
vt 0.976074 0.247070
vt 0.995117 0.194824
vt 0.954102 0.166504
vt 0.954102 0.166504
vt 0.995117 0.194824
vt 0.995605 0.138672
vt 0.954102 0.166504
vt 0.995605 0.138672
vt 0.975586 0.085938
vt 0.892090 0.070801
vt 0.954102 0.166504
vt 0.975586 0.085938
vt 0.892090 0.070801
vt 0.975586 0.085938
vt 0.939941 0.043457
vt 0.892090 0.070801
vt 0.939941 0.043457
vt 0.891602 0.015625
vt 0.892090 0.070801
vt 0.891602 0.015625
vt 0.836914 0.005859
vt 0.587402 0.907959
vt 0.522949 0.938507
vt 0.472412 0.877563
vt 0.587402 0.907959
vt 0.592285 0.979050
vt 0.522949 0.938507
vt 0.592285 0.979050
vt 0.587402 0.907959
vt 0.671387 0.992355
vt 0.587402 0.907959
vt 0.750488 0.899536
vt 0.671387 0.992355
vt 0.750488 0.899536
vt 0.750000 0.978867
vt 0.671387 0.992355
vt 0.750488 0.899536
vt 0.819336 0.938934
vt 0.750000 0.978867
vt 0.750488 0.899536
vt 0.870117 0.877747
vt 0.819336 0.938934
vt 0.513184 0.762939
vt 0.587402 0.907959
vt 0.472412 0.877563
vt 0.750488 0.899536
vt 0.587402 0.907959
vt 0.513184 0.762939
vt 0.750488 0.899536
vt 0.513184 0.762939
vt 0.838867 0.762939
vt 0.750488 0.899536
vt 0.838867 0.762939
vt 0.870117 0.877747
vt 0.838867 0.762939
vt 0.897461 0.803345
vt 0.870117 0.877747
vt 0.838867 0.762939
vt 0.897949 0.722900
vt 0.897461 0.803345
vt 0.897949 0.722900
vt 0.838867 0.762939
vt 0.869629 0.647949
vt 0.838867 0.762939
vt 0.750000 0.626221
vt 0.869629 0.647949
vt 0.750000 0.626221
vt 0.818848 0.586914
vt 0.869629 0.647949
vt 0.513184 0.762939
vt 0.472412 0.877563
vt 0.444824 0.802856
vt 0.513184 0.762939
vt 0.444824 0.802856
vt 0.444824 0.723145
vt 0.513184 0.762939
vt 0.444824 0.723145
vt 0.472168 0.648193
vt 0.586914 0.617676
vt 0.513184 0.762939
vt 0.472168 0.648193
vt 0.513184 0.762939
vt 0.586914 0.617676
vt 0.838867 0.762939
vt 0.750000 0.626221
vt 0.838867 0.762939
vt 0.586914 0.617676
vt 0.750000 0.626221
vt 0.586914 0.617676
vt 0.670898 0.533203
vt 0.750000 0.626221
vt 0.670898 0.533203
vt 0.749512 0.546875
vt 0.750000 0.626221
vt 0.749512 0.546875
vt 0.818848 0.586914
vt 0.522949 0.586426
vt 0.586914 0.617676
vt 0.472168 0.648193
vt 0.586914 0.617676
vt 0.522949 0.586426
vt 0.592773 0.546631
vt 0.586914 0.617676
vt 0.592773 0.546631
vt 0.670898 0.533203
vn -0.317025 -0.150685 -0.935421
vn -0.266145 -0.295499 -0.917808
vn -0.136986 -0.236791 -0.960861
vn -0.136986 -0.236791 -0.960861
vn -0.266145 -0.295499 -0.917808
vn -0.121331 -0.377691 -0.917808
vn -0.136986 -0.236791 -0.960861
vn -0.121331 -0.377691 -0.917808
vn 0.027397 -0.350294 -0.935421
vn 0.123288 -0.211350 -0.968689
vn -0.136986 -0.236791 -0.960861
vn 0.027397 -0.350294 -0.935421
vn 0.123288 -0.211350 -0.968689
vn -0.244618 0.000000 -0.968689
vn -0.136986 -0.236791 -0.960861
vn -0.244618 0.000000 -0.968689
vn -0.317025 -0.150685 -0.935421
vn -0.136986 -0.236791 -0.960861
vn -0.244618 0.000000 -0.968689
vn -0.375734 -0.062622 -0.923679
vn -0.317025 -0.150685 -0.935421
vn -0.244618 0.000000 -0.968689
vn -0.375734 0.062622 -0.923679
vn -0.375734 -0.062622 -0.923679
vn -0.244618 0.000000 -0.968689
vn -0.317025 0.150685 -0.935421
vn -0.375734 0.062622 -0.923679
vn -0.244618 0.000000 -0.968689
vn -0.109589 0.189824 -0.974560
vn -0.317025 0.150685 -0.935421
vn -0.109589 0.189824 -0.974560
vn -0.266145 0.295499 -0.917808
vn -0.317025 0.150685 -0.935421
vn 0.123288 -0.211350 -0.968689
vn 0.027397 -0.350294 -0.935421
vn 0.133072 -0.356164 -0.923679
vn 0.123288 -0.211350 -0.968689
vn 0.133072 -0.356164 -0.923679
vn 0.242661 -0.293542 -0.923679
vn 0.123288 -0.211350 -0.968689
vn 0.242661 -0.293542 -0.923679
vn 0.289628 -0.199609 -0.935421
vn 0.123288 -0.211350 -0.968689
vn 0.289628 -0.199609 -0.935421
vn 0.219178 0.000000 -0.974560
vn 0.123288 -0.211350 -0.968689
vn 0.219178 0.000000 -0.974560
vn -0.244618 0.000000 -0.968689
vn 0.219178 0.000000 -0.974560
vn -0.109589 0.189824 -0.974560
vn -0.244618 0.000000 -0.968689
vn 0.142857 0.246575 -0.958904
vn -0.109589 0.189824 -0.974560
vn 0.219178 0.000000 -0.974560
vn 0.142857 0.246575 -0.958904
vn 0.027397 0.350294 -0.935421
vn -0.109589 0.189824 -0.974560
vn 0.027397 0.350294 -0.935421
vn -0.121331 0.377691 -0.917808
vn -0.109589 0.189824 -0.974560
vn -0.109589 0.189824 -0.974560
vn -0.121331 0.377691 -0.917808
vn -0.266145 0.295499 -0.917808
vn 0.289628 -0.199609 -0.935421
vn 0.389432 -0.084149 -0.917808
vn 0.219178 0.000000 -0.974560
vn 0.219178 0.000000 -0.974560
vn 0.389432 -0.084149 -0.917808
vn 0.389432 0.084149 -0.917808
vn 0.219178 0.000000 -0.974560
vn 0.389432 0.084149 -0.917808
vn 0.289628 0.199609 -0.935421
vn 0.142857 0.246575 -0.958904
vn 0.219178 0.000000 -0.974560
vn 0.289628 0.199609 -0.935421
vn 0.142857 0.246575 -0.958904
vn 0.289628 0.199609 -0.935421
vn 0.242661 0.293542 -0.923679
vn 0.142857 0.246575 -0.958904
vn 0.242661 0.293542 -0.923679
vn 0.133072 0.356164 -0.923679
vn 0.142857 0.246575 -0.958904
vn 0.133072 0.356164 -0.923679
vn 0.027397 0.350294 -0.935421
vn 0.119374 0.207436 0.970646
vn 0.232877 0.258317 0.937378
vn 0.277887 0.131115 0.951076
vn 0.119374 0.207436 0.970646
vn 0.107632 0.330724 0.937378
vn 0.232877 0.258317 0.937378
vn 0.107632 0.330724 0.937378
vn 0.119374 0.207436 0.970646
vn -0.025440 0.305284 0.951076
vn 0.119374 0.207436 0.970646
vn -0.105675 0.183953 0.976517
vn -0.025440 0.305284 0.951076
vn -0.105675 0.183953 0.976517
vn -0.117417 0.311155 0.943249
vn -0.025440 0.305284 0.951076
vn -0.105675 0.183953 0.976517
vn -0.211350 0.258317 0.943249
vn -0.117417 0.311155 0.943249
vn -0.105675 0.183953 0.976517
vn -0.252446 0.174168 0.951076
vn -0.211350 0.258317 0.943249
vn 0.213307 0.000000 0.976517
vn 0.119374 0.207436 0.970646
vn 0.277887 0.131115 0.951076
vn -0.105675 0.183953 0.976517
vn 0.119374 0.207436 0.970646
vn 0.213307 0.000000 0.976517
vn -0.105675 0.183953 0.976517
vn 0.213307 0.000000 0.976517
vn -0.191781 0.000000 0.982387
vn -0.105675 0.183953 0.976517
vn -0.191781 0.000000 0.982387
vn -0.252446 0.174168 0.951076
vn -0.191781 0.000000 0.982387
vn -0.340509 0.072407 0.937378
vn -0.252446 0.174168 0.951076
vn -0.191781 0.000000 0.982387
vn -0.340509 -0.072407 0.937378
vn -0.340509 0.072407 0.937378
vn -0.340509 -0.072407 0.937378
vn -0.191781 0.000000 0.982387
vn -0.252446 -0.174168 0.951076
vn -0.191781 0.000000 0.982387
vn -0.123288 -0.215264 0.968689
vn -0.252446 -0.174168 0.951076
vn -0.123288 -0.215264 0.968689
vn -0.211350 -0.258317 0.943249
vn -0.252446 -0.174168 0.951076
vn 0.213307 0.000000 0.976517
vn 0.277887 0.131115 0.951076
vn 0.328767 0.054795 0.943249
vn 0.213307 0.000000 0.976517
vn 0.328767 0.054795 0.943249
vn 0.328767 -0.054795 0.943249
vn 0.213307 0.000000 0.976517
vn 0.328767 -0.054795 0.943249
vn 0.277887 -0.131115 0.951076
vn 0.095890 -0.166341 0.982387
vn 0.213307 0.000000 0.976517
vn 0.277887 -0.131115 0.951076
vn 0.213307 0.000000 0.976517
vn 0.095890 -0.166341 0.982387
vn -0.191781 0.000000 0.982387
vn -0.123288 -0.215264 0.968689
vn -0.191781 0.000000 0.982387
vn 0.095890 -0.166341 0.982387
vn -0.123288 -0.215264 0.968689
vn 0.095890 -0.166341 0.982387
vn -0.025440 -0.305284 0.951076
vn -0.123288 -0.215264 0.968689
vn -0.025440 -0.305284 0.951076
vn -0.117417 -0.311155 0.943249
vn -0.123288 -0.215264 0.968689
vn -0.117417 -0.311155 0.943249
vn -0.211350 -0.258317 0.943249
vn 0.232877 -0.258317 0.937378
vn 0.095890 -0.166341 0.982387
vn 0.277887 -0.131115 0.951076
vn 0.095890 -0.166341 0.982387
vn 0.232877 -0.258317 0.937378
vn 0.107632 -0.330724 0.937378
vn 0.095890 -0.166341 0.982387
vn 0.107632 -0.330724 0.937378
vn -0.025440 -0.305284 0.951076
mtllib mtl_p_jun_dinnerware.mtl
g mtl_p_jun_dinnerware
usemtl mtl_p_jun_dinnerware
f 3/3/3 2/2/2 1/1/1
f 6/6/6 5/5/5 4/4/4
f 9/9/9 8/8/8 7/7/7
f 12/12/12 11/11/11 10/10/10
f 15/15/15 14/14/14 13/13/13
f 18/18/18 17/17/17 16/16/16
f 21/21/21 20/20/20 19/19/19
f 24/24/24 23/23/23 22/22/22
f 27/27/27 26/26/26 25/25/25
f 30/30/30 29/29/29 28/28/28
f 33/33/33 32/32/32 31/31/31
f 36/36/36 35/35/35 34/34/34
f 39/39/39 38/38/38 37/37/37
f 42/42/42 41/41/41 40/40/40
f 45/45/45 44/44/44 43/43/43
f 48/48/48 47/47/47 46/46/46
f 51/51/51 50/50/50 49/49/49
f 54/54/54 53/53/53 52/52/52
f 57/57/57 56/56/56 55/55/55
f 60/60/60 59/59/59 58/58/58
f 63/63/63 62/62/62 61/61/61
f 66/66/66 65/65/65 64/64/64
f 69/69/69 68/68/68 67/67/67
f 72/72/72 71/71/71 70/70/70
f 75/75/75 74/74/74 73/73/73
f 78/78/78 77/77/77 76/76/76
f 81/81/81 80/80/80 79/79/79
f 84/84/84 83/83/83 82/82/82
f 87/87/87 86/86/86 85/85/85
f 90/90/90 89/89/89 88/88/88
f 93/93/93 92/92/92 91/91/91
f 96/96/96 95/95/95 94/94/94
f 99/99/99 98/98/98 97/97/97
f 102/102/102 101/101/101 100/100/100
f 105/105/105 104/104/104 103/103/103
f 108/108/108 107/107/107 106/106/106
f 111/111/111 110/110/110 109/109/109
f 114/114/114 113/113/113 112/112/112
f 117/117/117 116/116/116 115/115/115
f 120/120/120 119/119/119 118/118/118
f 123/123/123 122/122/122 121/121/121
f 126/126/126 125/125/125 124/124/124
f 129/129/129 128/128/128 127/127/127
f 132/132/132 131/131/131 130/130/130
f 135/135/135 134/134/134 133/133/133
f 138/138/138 137/137/137 136/136/136
f 141/141/141 140/140/140 139/139/139
f 144/144/144 143/143/143 142/142/142
f 147/147/147 146/146/146 145/145/145
f 150/150/150 149/149/149 148/148/148
f 153/153/153 152/152/152 151/151/151
f 156/156/156 155/155/155 154/154/154
f 159/159/159 158/158/158 157/157/157
f 162/162/162 161/161/161 160/160/160
f 165/165/165 164/164/164 163/163/163
f 168/168/168 167/167/167 166/166/166
