# Generated by Wraith - Game extraction tools
# Please credit DTZxPorter for using it!

v 4.234390 -1.693040 -3.610115
v 4.234390 4.972543 -3.610115
v -2.535964 -1.693040 -4.685596
v 4.234390 4.972543 -3.610115
v -2.535964 4.972543 -4.685596
v -2.535964 -1.693040 -4.685596
v 4.234390 4.972543 -3.610115
v 3.748197 4.972543 -0.685914
v -2.535964 4.972543 -4.685596
v 3.748197 4.972543 -0.685914
v -3.022158 4.972543 -1.761398
v -2.535964 4.972543 -4.685596
v 3.748197 -1.693040 -0.685914
v -3.022158 -1.693040 -1.761398
v 3.748197 4.972543 -0.685914
v -3.022158 -1.693040 -1.761398
v -3.022158 4.972543 -1.761398
v 3.748197 4.972543 -0.685914
v -3.022158 -1.693040 -1.761398
v 3.748197 -1.693040 -0.685914
v -2.535964 -1.693040 -4.685596
v 3.748197 -1.693040 -0.685914
v 4.234390 -1.693040 -3.610115
v -2.535964 -1.693040 -4.685596
v 3.748197 -1.693040 -0.685914
v 3.748197 4.972543 -0.685914
v 4.234390 -1.693040 -3.610115
v 3.748197 4.972543 -0.685914
v 4.234390 4.972543 -3.610115
v 4.234390 -1.693040 -3.610115
v -2.535964 4.972543 -4.685596
v -3.022158 4.972543 -1.761398
v -2.535964 -1.693040 -4.685596
v -3.022158 4.972543 -1.761398
v -3.022158 -1.693040 -1.761398
v -2.535964 -1.693040 -4.685596
v 0.143797 1.313881 -10.735129
v 0.143797 -1.313881 -10.735129
v 5.295449 1.313881 -8.479718
v 0.143797 -1.313881 -10.735129
v 5.295449 -1.313881 -8.479718
v 5.295449 1.313881 -8.479718
v 3.233609 1.313881 6.370919
v 3.233609 -1.313881 6.370919
v -2.390125 1.313881 6.371031
v 3.233609 -1.313881 6.370919
v -2.390128 -1.313881 6.371031
v -2.390125 1.313881 6.371031
v 5.295449 1.313881 -8.479718
v 4.346674 1.313881 -5.973984
v 0.143797 1.313881 -10.735129
v 4.346674 1.313881 -5.973984
v -1.052389 1.313881 -7.539639
v 0.143797 1.313881 -10.735129
v 4.346674 1.313881 -5.973984
v 3.457526 1.313881 -2.211971
v -1.052389 1.313881 -7.539639
v 3.457526 1.313881 -2.211971
v -2.104779 1.313881 -3.004443
v -1.052389 1.313881 -7.539639
v 3.457526 1.313881 -2.211971
v 3.233609 1.313881 0.615557
v -2.104779 1.313881 -3.004443
v 3.233609 1.313881 0.615557
v -2.390128 1.313881 0.615557
v -2.104779 1.313881 -3.004443
v -2.390125 1.313881 6.371031
v -2.390128 1.313881 0.615557
v 3.233609 1.313881 0.615557
v 3.233609 1.313881 6.370919
v -2.390125 1.313881 6.371031
v 3.233609 1.313881 0.615557
v 4.346674 -1.313881 -5.973984
v 5.295449 -1.313881 -8.479718
v 0.143797 -1.313881 -10.735129
v -1.052389 -1.313881 -7.539639
v 4.346674 -1.313881 -5.973984
v 0.143797 -1.313881 -10.735129
v 4.346674 -1.313881 -5.973984
v -1.052389 -1.313881 -7.539639
v 3.457526 -1.313881 -2.211971
v -1.052389 -1.313881 -7.539639
v -2.104779 -1.313881 -3.004443
v 3.457526 -1.313881 -2.211971
v 3.457526 -1.313881 -2.211971
v -2.104779 -1.313881 -3.004443
v 3.233609 -1.313881 0.615557
v -2.104779 -1.313881 -3.004443
v -2.390128 -1.313881 0.615557
v 3.233609 -1.313881 0.615557
v 3.233609 -1.313881 0.615557
v -2.390128 -1.313881 0.615557
v -2.390128 -1.313881 6.371031
v 3.233609 -1.313881 6.370919
v 3.233609 -1.313881 0.615557
v -2.390128 -1.313881 6.371031
v 5.295449 1.313881 -8.479718
v 5.295449 -1.313881 -8.479718
v 4.346674 1.313881 -5.973984
v 5.295449 -1.313881 -8.479718
v 4.346674 -1.313881 -5.973984
v 4.346674 1.313881 -5.973984
v 4.346674 -1.313881 -5.973984
v 3.457526 -1.313881 -2.211971
v 4.346674 1.313881 -5.973984
v 3.457526 -1.313881 -2.211971
v 3.457526 1.313881 -2.211971
v 4.346674 1.313881 -5.973984
v 3.457526 -1.313881 -2.211971
v 3.233609 -1.313881 0.615557
v 3.457526 1.313881 -2.211971
v 3.233609 -1.313881 0.615557
v 3.233609 1.313881 0.615557
v 3.457526 1.313881 -2.211971
v 3.233609 -1.313881 0.615557
v 3.233609 -1.313881 6.370919
v 3.233609 1.313881 0.615557
v 3.233609 -1.313881 6.370919
v 3.233609 1.313881 6.370919
v 3.233609 1.313881 0.615557
v -2.442824 1.932643 -0.497652
v -2.442824 4.560408 -0.497652
v 3.159462 1.932643 -0.006942
v -2.442824 4.560408 -0.497652
v 3.159462 4.560408 -0.006942
v 3.159462 1.932643 -0.006942
v 8.470262 1.932643 -14.027928
v 8.470262 4.560408 -14.027928
v 3.535111 1.932643 -16.724350
v 8.470262 4.560408 -14.027928
v 3.535111 4.560408 -16.724350
v 3.535111 1.932643 -16.724350
v 3.159462 1.932643 -0.006942
v 3.528235 1.932643 -2.660789
v -2.442824 1.932643 -0.497652
v 3.528235 1.932643 -2.660789
v -1.960467 1.932643 -3.875420
v -2.442824 1.932643 -0.497652
v 3.528235 1.932643 -2.660789
v 4.551656 1.932643 -6.388511
v -1.960467 1.932643 -3.875420
v 4.551656 1.932643 -6.388511
v -0.709590 1.932643 -8.359936
v -1.960467 1.932643 -3.875420
v 4.551656 1.932643 -6.388511
v 6.206284 1.932643 -10.003510
v -0.709590 1.932643 -8.359936
v 6.206284 1.932643 -10.003510
v 1.271079 1.932643 -12.699834
v -0.709590 1.932643 -8.359936
v 3.535111 1.932643 -16.724350
v 1.271079 1.932643 -12.699834
v 6.206284 1.932643 -10.003510
v 8.470262 1.932643 -14.027928
v 3.535111 1.932643 -16.724350
v 6.206284 1.932643 -10.003510
v 3.528235 4.560408 -2.660789
v 3.159462 4.560408 -0.006942
v -2.442824 4.560408 -0.497652
v -1.960467 4.560408 -3.875420
v 3.528235 4.560408 -2.660789
v -2.442824 4.560408 -0.497652
v 3.528235 4.560408 -2.660789
v -1.960467 4.560408 -3.875420
v 4.551656 4.560408 -6.388511
v -1.960467 4.560408 -3.875420
v -0.709590 4.560408 -8.359936
v 4.551656 4.560408 -6.388511
v 4.551656 4.560408 -6.388511
v -0.709590 4.560408 -8.359936
v 6.206284 4.560408 -10.003510
v -0.709590 4.560408 -8.359936
v 1.271079 4.560408 -12.699834
v 6.206284 4.560408 -10.003510
v 6.206284 4.560408 -10.003510
v 1.271079 4.560408 -12.699834
v 3.535111 4.560408 -16.724350
v 8.470262 4.560408 -14.027928
v 6.206284 4.560408 -10.003510
v 3.535111 4.560408 -16.724350
v 3.159462 1.932643 -0.006942
v 3.159462 4.560408 -0.006942
v 3.528235 1.932643 -2.660789
v 3.159462 4.560408 -0.006942
v 3.528235 4.560408 -2.660789
v 3.528235 1.932643 -2.660789
v 3.528235 4.560408 -2.660789
v 4.551656 4.560408 -6.388511
v 3.528235 1.932643 -2.660789
v 4.551656 4.560408 -6.388511
v 4.551656 1.932643 -6.388511
v 3.528235 1.932643 -2.660789
v 4.551656 4.560408 -6.388511
v 6.206284 4.560408 -10.003510
v 4.551656 1.932643 -6.388511
v 6.206284 4.560408 -10.003510
v 6.206284 1.932643 -10.003510
v 4.551656 1.932643 -6.388511
v 6.206284 4.560408 -10.003510
v 8.470262 4.560408 -14.027928
v 6.206284 1.932643 -10.003510
v 8.470262 4.560408 -14.027928
v 8.470262 1.932643 -14.027928
v 6.206284 1.932643 -10.003510
v 0.143797 1.313881 -10.735129
v -1.052389 1.313881 -7.539639
v 0.143797 -1.313881 -10.735129
v -1.052389 1.313881 -7.539639
v -1.052389 -1.313881 -7.539639
v 0.143797 -1.313881 -10.735129
v -2.104779 -1.313881 -3.004443
v -1.052389 -1.313881 -7.539639
v -1.052389 1.313881 -7.539639
v -2.104779 1.313881 -3.004443
v -2.104779 -1.313881 -3.004443
v -1.052389 1.313881 -7.539639
v -2.104779 -1.313881 -3.004443
v -2.104779 1.313881 -3.004443
v -2.390128 1.313881 0.615557
v -2.390128 -1.313881 0.615557
v -2.104779 -1.313881 -3.004443
v -2.390128 1.313881 0.615557
v -2.390128 -1.313881 0.615557
v -2.390128 1.313881 0.615557
v -2.390125 1.313881 6.371031
v -2.390128 -1.313881 6.371031
v -2.390128 -1.313881 0.615557
v -2.390125 1.313881 6.371031
v -2.442824 1.932643 -0.497652
v -1.960467 1.932643 -3.875420
v -2.442824 4.560408 -0.497652
v -1.960467 1.932643 -3.875420
v -1.960467 4.560408 -3.875420
v -2.442824 4.560408 -0.497652
v -0.709590 4.560408 -8.359936
v -1.960467 4.560408 -3.875420
v -1.960467 1.932643 -3.875420
v -0.709590 1.932643 -8.359936
v -0.709590 4.560408 -8.359936
v -1.960467 1.932643 -3.875420
v -0.709590 4.560408 -8.359936
v -0.709590 1.932643 -8.359936
v 1.271079 1.932643 -12.699834
v 1.271079 4.560408 -12.699834
v -0.709590 4.560408 -8.359936
v 1.271079 1.932643 -12.699834
v 1.271079 4.560408 -12.699834
v 1.271079 1.932643 -12.699834
v 3.535111 1.932643 -16.724350
v 3.535111 4.560408 -16.724350
v 1.271079 4.560408 -12.699834
v 3.535111 1.932643 -16.724350
vt 0.911621 0.238770
vt 0.911621 0.340332
vt 0.814941 0.238770
vt 0.911621 0.340332
vt 0.814941 0.340332
vt 0.814941 0.238770
vt 0.816895 0.241699
vt 0.763184 0.241699
vt 0.816895 0.318359
vt 0.763184 0.241699
vt 0.763184 0.318359
vt 0.816895 0.318359
vt 0.911621 0.238770
vt 0.814941 0.238770
vt 0.911621 0.340332
vt 0.814941 0.238770
vt 0.814941 0.340332
vt 0.911621 0.340332
vt 0.763184 0.318359
vt 0.763184 0.241699
vt 0.816895 0.318359
vt 0.763184 0.241699
vt 0.816895 0.241699
vt 0.816895 0.318359
vt 0.763184 0.338867
vt 0.763184 0.231445
vt 0.809570 0.338867
vt 0.763184 0.231445
vt 0.809570 0.231445
vt 0.809570 0.338867
vt 0.809570 0.231445
vt 0.763184 0.231445
vt 0.809570 0.338867
vt 0.763184 0.231445
vt 0.763184 0.338867
vt 0.809570 0.338867
vt -0.782715 0.531250
vt -0.782715 0.499023
vt -0.718750 0.531250
vt -0.782715 0.499023
vt -0.718750 0.499023
vt -0.718750 0.531250
vt 0.569336 0.446777
vt 0.531250 0.446289
vt 0.568848 0.527832
vt 0.531250 0.446289
vt 0.530762 0.527832
vt 0.568848 0.527832
vt 0.354492 0.299805
vt 0.369873 0.340332
vt 0.437744 0.263672
vt 0.369873 0.340332
vt 0.457031 0.315430
vt 0.437744 0.263672
vt 0.369873 0.340332
vt 0.384277 0.401367
vt 0.457031 0.315430
vt 0.384277 0.401367
vt 0.473877 0.388184
vt 0.457031 0.315430
vt 0.384277 0.401367
vt 0.387939 0.446777
vt 0.473877 0.388184
vt 0.387939 0.446777
vt 0.478516 0.446777
vt 0.473877 0.388184
vt 0.479248 0.539551
vt 0.478516 0.446777
vt 0.387939 0.446777
vt 0.387939 0.539551
vt 0.479248 0.539551
vt 0.387939 0.446777
vt -0.629883 0.340332
vt -0.645020 0.299805
vt -0.562012 0.263672
vt -0.542480 0.315430
vt -0.629883 0.340332
vt -0.562012 0.263672
vt -0.629883 0.340332
vt -0.542480 0.315430
vt -0.615234 0.401367
vt -0.542480 0.315430
vt -0.525879 0.388184
vt -0.615234 0.401367
vt -0.615234 0.401367
vt -0.525879 0.388184
vt -0.611816 0.446777
vt -0.525879 0.388184
vt -0.520996 0.446777
vt -0.611816 0.446777
vt -0.611816 0.446777
vt -0.520996 0.446777
vt -0.520508 0.539551
vt -0.611816 0.539551
vt -0.611816 0.446777
vt -0.520508 0.539551
vt 0.569336 0.293945
vt 0.531250 0.293945
vt 0.569336 0.336426
vt 0.531250 0.293945
vt 0.531250 0.336426
vt 0.569336 0.336426
vt 0.531250 0.336426
vt 0.531250 0.397949
vt 0.569336 0.336426
vt 0.531250 0.397949
vt 0.569336 0.397949
vt 0.569336 0.336426
vt 0.531250 0.397949
vt 0.531250 0.442871
vt 0.569336 0.397949
vt 0.531250 0.442871
vt 0.569336 0.442871
vt 0.569336 0.397949
vt 0.531250 0.442871
vt 0.531250 0.534180
vt 0.569336 0.442871
vt 0.531250 0.534180
vt 0.569336 0.534180
vt 0.569336 0.442871
vt -0.782715 0.531250
vt -0.782715 0.499023
vt -0.718750 0.531250
vt -0.782715 0.499023
vt -0.718750 0.499023
vt -0.718750 0.531250
vt 0.569336 0.446777
vt 0.531250 0.446289
vt 0.568848 0.527832
vt 0.531250 0.446289
vt 0.530762 0.527832
vt 0.568848 0.527832
vt 0.354492 0.299805
vt 0.369873 0.340332
vt 0.437744 0.263672
vt 0.369873 0.340332
vt 0.457031 0.315430
vt 0.437744 0.263672
vt 0.369873 0.340332
vt 0.384277 0.401367
vt 0.457031 0.315430
vt 0.384277 0.401367
vt 0.473877 0.388184
vt 0.457031 0.315430
vt 0.384277 0.401367
vt 0.388916 0.465332
vt 0.473877 0.388184
vt 0.388916 0.465332
vt 0.479736 0.465332
vt 0.473877 0.388184
vt 0.479248 0.539551
vt 0.479736 0.465332
vt 0.388916 0.465332
vt 0.387939 0.539551
vt 0.479248 0.539551
vt 0.388916 0.465332
vt -0.629883 0.340332
vt -0.645020 0.299805
vt -0.562012 0.263672
vt -0.542480 0.315430
vt -0.629883 0.340332
vt -0.562012 0.263672
vt -0.629883 0.340332
vt -0.542480 0.315430
vt -0.615234 0.401367
vt -0.542480 0.315430
vt -0.525879 0.388184
vt -0.615234 0.401367
vt -0.615234 0.401367
vt -0.525879 0.388184
vt -0.610840 0.465332
vt -0.525879 0.388184
vt -0.520020 0.465332
vt -0.610840 0.465332
vt -0.610840 0.465332
vt -0.520020 0.465332
vt -0.520508 0.539551
vt -0.611816 0.539551
vt -0.610840 0.465332
vt -0.520508 0.539551
vt 0.569336 0.293945
vt 0.531250 0.293945
vt 0.569336 0.336426
vt 0.531250 0.293945
vt 0.531250 0.336426
vt 0.569336 0.336426
vt 0.531250 0.336426
vt 0.531250 0.397949
vt 0.569336 0.336426
vt 0.531250 0.397949
vt 0.569336 0.397949
vt 0.569336 0.336426
vt 0.531250 0.397949
vt 0.531250 0.460938
vt 0.569336 0.397949
vt 0.531250 0.460938
vt 0.569336 0.460938
vt 0.569336 0.397949
vt 0.531250 0.460938
vt 0.531250 0.534180
vt 0.569336 0.460938
vt 0.531250 0.534180
vt 0.569336 0.534180
vt 0.569336 0.460938
vt 0.486328 0.266113
vt 0.486328 0.320313
vt 0.527832 0.266113
vt 0.486328 0.320313
vt 0.527832 0.320313
vt 0.527832 0.266113
vt 0.527832 0.394043
vt 0.527832 0.320313
vt 0.486328 0.320313
vt 0.486084 0.394043
vt 0.527832 0.394043
vt 0.486328 0.320313
vt 0.527832 0.394043
vt 0.486084 0.394043
vt 0.486084 0.452148
vt 0.527832 0.452148
vt 0.527832 0.394043
vt 0.486084 0.452148
vt 0.527832 0.452148
vt 0.486084 0.452148
vt 0.488281 0.543213
vt 0.525879 0.543213
vt 0.527832 0.452148
vt 0.488281 0.543213
vt 0.486328 0.266113
vt 0.486328 0.320313
vt 0.527832 0.266113
vt 0.486328 0.320313
vt 0.527832 0.320313
vt 0.527832 0.266113
vt 0.527832 0.394043
vt 0.527832 0.320313
vt 0.486328 0.320313
vt 0.486084 0.394043
vt 0.527832 0.394043
vt 0.486328 0.320313
vt 0.527832 0.394043
vt 0.486084 0.394043
vt 0.486816 0.470215
vt 0.527344 0.470215
vt 0.527832 0.394043
vt 0.486816 0.470215
vt 0.527344 0.470215
vt 0.486816 0.470215
vt 0.488281 0.543213
vt 0.525879 0.543213
vt 0.527344 0.470215
vt 0.488281 0.543213
vn 0.156556 0.000000 -0.988258
vn 0.156556 0.000000 -0.988258
vn 0.156556 0.000000 -0.988258
vn 0.156556 0.000000 -0.988258
vn 0.156556 0.000000 -0.988258
vn 0.156556 0.000000 -0.988258
vn 0.000000 1.000000 0.000000
vn 0.000000 1.000000 0.000000
vn 0.000000 1.000000 0.000000
vn 0.000000 1.000000 0.000000
vn 0.000000 1.000000 0.000000
vn 0.000000 1.000000 0.000000
vn -0.156556 0.000000 0.988258
vn -0.156556 0.000000 0.988258
vn -0.156556 0.000000 0.988258
vn -0.156556 0.000000 0.988258
vn -0.156556 0.000000 0.988258
vn -0.156556 0.000000 0.988258
vn 0.000000 -1.000000 0.000000
vn 0.000000 -1.000000 0.000000
vn 0.000000 -1.000000 0.000000
vn 0.000000 -1.000000 0.000000
vn 0.000000 -1.000000 0.000000
vn 0.000000 -1.000000 0.000000
vn 0.986301 0.000000 0.164384
vn 0.986301 0.000000 0.164384
vn 0.986301 0.000000 0.164384
vn 0.986301 0.000000 0.164384
vn 0.986301 0.000000 0.164384
vn 0.986301 0.000000 0.164384
vn -0.986301 0.000000 -0.164384
vn -0.986301 0.000000 -0.164384
vn -0.986301 0.000000 -0.164384
vn -0.986301 0.000000 -0.164384
vn -0.986301 0.000000 -0.164384
vn -0.986301 0.000000 -0.164384
vn 0.401174 0.000000 -0.915851
vn 0.401174 0.000000 -0.915851
vn 0.401174 0.000000 -0.915851
vn 0.401174 0.000000 -0.915851
vn 0.401174 0.000000 -0.915851
vn 0.401174 0.000000 -0.915851
vn 0.000000 0.000000 1.000000
vn 0.000000 0.000000 1.000000
vn 0.000000 0.000000 1.000000
vn 0.000000 0.000000 1.000000
vn 0.000000 0.000000 1.000000
vn 0.000000 0.000000 1.000000
vn 0.000000 1.000000 0.000000
vn 0.000000 1.000000 0.000000
vn 0.000000 1.000000 0.000000
vn 0.000000 1.000000 0.000000
vn 0.000000 1.000000 0.000000
vn 0.000000 1.000000 0.000000
vn 0.000000 1.000000 0.000000
vn 0.000000 1.000000 0.000000
vn 0.000000 1.000000 0.000000
vn 0.000000 1.000000 0.000000
vn 0.000000 1.000000 0.000000
vn 0.000000 1.000000 0.000000
vn 0.000000 1.000000 0.000000
vn 0.000000 1.000000 0.000000
vn 0.000000 1.000000 0.000000
vn 0.000000 1.000000 0.000000
vn 0.000000 1.000000 0.000000
vn 0.000000 1.000000 0.000000
vn 0.000000 1.000000 0.000000
vn 0.000000 1.000000 0.000000
vn 0.000000 1.000000 0.000000
vn 0.000000 1.000000 0.000000
vn 0.000000 1.000000 0.000000
vn 0.000000 1.000000 0.000000
vn 0.000000 -1.000000 0.000000
vn 0.000000 -1.000000 0.000000
vn 0.000000 -1.000000 0.000000
vn 0.000000 -1.000000 0.000000
vn 0.000000 -1.000000 0.000000
vn 0.000000 -1.000000 0.000000
vn 0.000000 -1.000000 0.000000
vn 0.000000 -1.000000 0.000000
vn 0.000000 -1.000000 0.000000
vn 0.000000 -1.000000 0.000000
vn 0.000000 -1.000000 0.000000
vn 0.000000 -1.000000 0.000000
vn 0.000000 -1.000000 0.000000
vn 0.000000 -1.000000 0.000000
vn 0.000000 -1.000000 0.000000
vn 0.000000 -1.000000 0.000000
vn 0.000000 -1.000000 0.000000
vn 0.000000 -1.000000 0.000000
vn 0.000000 -1.000000 0.000000
vn 0.000000 -1.000000 0.000000
vn 0.000000 -1.000000 0.000000
vn 0.000000 -1.000000 0.000000
vn 0.000000 -1.000000 0.000000
vn 0.000000 -1.000000 0.000000
vn 0.935421 0.000000 0.354207
vn 0.935421 0.000000 0.354207
vn 0.956947 0.000000 0.293542
vn 0.935421 0.000000 0.354207
vn 0.956947 0.000000 0.293542
vn 0.956947 0.000000 0.293542
vn 0.956947 0.000000 0.293542
vn 0.988258 0.000000 0.154599
vn 0.956947 0.000000 0.293542
vn 0.988258 0.000000 0.154599
vn 0.988258 0.000000 0.154599
vn 0.956947 0.000000 0.293542
vn 0.988258 0.000000 0.154599
vn 1.000000 0.000000 0.039139
vn 0.988258 0.000000 0.154599
vn 1.000000 0.000000 0.039139
vn 1.000000 0.000000 0.039139
vn 0.988258 0.000000 0.154599
vn 1.000000 0.000000 0.039139
vn 1.000000 0.000000 0.000000
vn 1.000000 0.000000 0.039139
vn 1.000000 0.000000 0.000000
vn 1.000000 0.000000 0.000000
vn 1.000000 0.000000 0.039139
vn -0.088063 0.000000 0.996086
vn -0.088063 0.000000 0.996086
vn -0.088063 0.000000 0.996086
vn -0.088063 0.000000 0.996086
vn -0.088063 0.000000 0.996086
vn -0.088063 0.000000 0.996086
vn 0.479452 0.000000 -0.876712
vn 0.479452 0.000000 -0.876712
vn 0.479452 0.000000 -0.876712
vn 0.479452 0.000000 -0.876712
vn 0.479452 0.000000 -0.876712
vn 0.479452 0.000000 -0.876712
vn 0.000000 -1.000000 0.000000
vn 0.000000 -1.000000 0.000000
vn 0.000000 -1.000000 0.000000
vn 0.000000 -1.000000 0.000000
vn 0.000000 -1.000000 0.000000
vn 0.000000 -1.000000 0.000000
vn 0.000000 -1.000000 0.000000
vn 0.000000 -1.000000 0.000000
vn 0.000000 -1.000000 0.000000
vn 0.000000 -1.000000 0.000000
vn 0.000000 -1.000000 0.000000
vn 0.000000 -1.000000 0.000000
vn 0.000000 -1.000000 0.000000
vn 0.000000 -1.000000 0.000000
vn 0.000000 -1.000000 0.000000
vn 0.000000 -1.000000 0.000000
vn 0.000000 -1.000000 0.000000
vn 0.000000 -1.000000 0.000000
vn 0.000000 -1.000000 0.000000
vn 0.000000 -1.000000 0.000000
vn 0.000000 -1.000000 0.000000
vn 0.000000 -1.000000 0.000000
vn 0.000000 -1.000000 0.000000
vn 0.000000 -1.000000 0.000000
vn 0.000000 1.000000 0.000000
vn 0.000000 1.000000 0.000000
vn 0.000000 1.000000 0.000000
vn 0.000000 1.000000 0.000000
vn 0.000000 1.000000 0.000000
vn 0.000000 1.000000 0.000000
vn 0.000000 1.000000 0.000000
vn 0.000000 1.000000 0.000000
vn 0.000000 1.000000 0.000000
vn 0.000000 1.000000 0.000000
vn 0.000000 1.000000 0.000000
vn 0.000000 1.000000 0.000000
vn 0.000000 1.000000 0.000000
vn 0.000000 1.000000 0.000000
vn 0.000000 1.000000 0.000000
vn 0.000000 1.000000 0.000000
vn 0.000000 1.000000 0.000000
vn 0.000000 1.000000 0.000000
vn 0.000000 1.000000 0.000000
vn 0.000000 1.000000 0.000000
vn 0.000000 1.000000 0.000000
vn 0.000000 1.000000 0.000000
vn 0.000000 1.000000 0.000000
vn 0.000000 1.000000 0.000000
vn 0.990215 0.000000 0.136986
vn 0.990215 0.000000 0.136986
vn 0.980431 0.000000 0.201566
vn 0.990215 0.000000 0.136986
vn 0.980431 0.000000 0.201566
vn 0.980431 0.000000 0.201566
vn 0.980431 0.000000 0.201566
vn 0.939335 0.000000 0.342466
vn 0.980431 0.000000 0.201566
vn 0.939335 0.000000 0.342466
vn 0.939335 0.000000 0.342466
vn 0.980431 0.000000 0.201566
vn 0.939335 0.000000 0.342466
vn 0.890411 0.000000 0.454012
vn 0.939335 0.000000 0.342466
vn 0.890411 0.000000 0.454012
vn 0.890411 0.000000 0.454012
vn 0.939335 0.000000 0.342466
vn 0.890411 0.000000 0.454012
vn 0.870842 0.000000 0.491194
vn 0.890411 0.000000 0.454012
vn 0.870842 0.000000 0.491194
vn 0.870842 0.000000 0.491194
vn 0.890411 0.000000 0.454012
vn -0.937378 0.000000 -0.350294
vn -0.956947 0.000000 -0.289628
vn -0.937378 0.000000 -0.350294
vn -0.956947 0.000000 -0.289628
vn -0.956947 0.000000 -0.289628
vn -0.937378 0.000000 -0.350294
vn -0.988258 0.000000 -0.152642
vn -0.956947 0.000000 -0.289628
vn -0.956947 0.000000 -0.289628
vn -0.988258 0.000000 -0.152642
vn -0.988258 0.000000 -0.152642
vn -0.956947 0.000000 -0.289628
vn -0.988258 0.000000 -0.152642
vn -0.988258 0.000000 -0.152642
vn -1.000000 0.000000 -0.039139
vn -1.000000 0.000000 -0.039139
vn -0.988258 0.000000 -0.152642
vn -1.000000 0.000000 -0.039139
vn -1.000000 0.000000 -0.039139
vn -1.000000 0.000000 -0.039139
vn -1.000000 0.000000 0.000000
vn -1.000000 0.000000 0.000000
vn -1.000000 0.000000 -0.039139
vn -1.000000 0.000000 0.000000
vn -0.990215 0.000000 -0.140900
vn -0.978474 0.000000 -0.205479
vn -0.990215 0.000000 -0.140900
vn -0.978474 0.000000 -0.205479
vn -0.978474 0.000000 -0.205479
vn -0.990215 0.000000 -0.140900
vn -0.939335 0.000000 -0.342466
vn -0.978474 0.000000 -0.205479
vn -0.978474 0.000000 -0.205479
vn -0.939335 0.000000 -0.342466
vn -0.939335 0.000000 -0.342466
vn -0.978474 0.000000 -0.205479
vn -0.939335 0.000000 -0.342466
vn -0.939335 0.000000 -0.342466
vn -0.892368 0.000000 -0.454012
vn -0.892368 0.000000 -0.454012
vn -0.939335 0.000000 -0.342466
vn -0.892368 0.000000 -0.454012
vn -0.892368 0.000000 -0.454012
vn -0.892368 0.000000 -0.454012
vn -0.870842 0.000000 -0.491194
vn -0.870842 0.000000 -0.491194
vn -0.892368 0.000000 -0.454012
vn -0.870842 0.000000 -0.491194
mtllib mtl_t6_wpn_ar_hk416_camo2.mtl
g mtl_t6_wpn_ar_hk416_camo2
usemtl mtl_t6_wpn_ar_hk416_camo2
f 3/3/3 2/2/2 1/1/1
f 6/6/6 5/5/5 4/4/4
f 9/9/9 8/8/8 7/7/7
f 12/12/12 11/11/11 10/10/10
f 15/15/15 14/14/14 13/13/13
f 18/18/18 17/17/17 16/16/16
f 21/21/21 20/20/20 19/19/19
f 24/24/24 23/23/23 22/22/22
f 27/27/27 26/26/26 25/25/25
f 30/30/30 29/29/29 28/28/28
f 33/33/33 32/32/32 31/31/31
f 36/36/36 35/35/35 34/34/34
f 39/39/39 38/38/38 37/37/37
f 42/42/42 41/41/41 40/40/40
f 45/45/45 44/44/44 43/43/43
f 48/48/48 47/47/47 46/46/46
f 51/51/51 50/50/50 49/49/49
f 54/54/54 53/53/53 52/52/52
f 57/57/57 56/56/56 55/55/55
f 60/60/60 59/59/59 58/58/58
f 63/63/63 62/62/62 61/61/61
f 66/66/66 65/65/65 64/64/64
f 69/69/69 68/68/68 67/67/67
f 72/72/72 71/71/71 70/70/70
f 75/75/75 74/74/74 73/73/73
f 78/78/78 77/77/77 76/76/76
f 81/81/81 80/80/80 79/79/79
f 84/84/84 83/83/83 82/82/82
f 87/87/87 86/86/86 85/85/85
f 90/90/90 89/89/89 88/88/88
f 93/93/93 92/92/92 91/91/91
f 96/96/96 95/95/95 94/94/94
f 99/99/99 98/98/98 97/97/97
f 102/102/102 101/101/101 100/100/100
f 105/105/105 104/104/104 103/103/103
f 108/108/108 107/107/107 106/106/106
f 111/111/111 110/110/110 109/109/109
f 114/114/114 113/113/113 112/112/112
f 117/117/117 116/116/116 115/115/115
f 120/120/120 119/119/119 118/118/118
f 123/123/123 122/122/122 121/121/121
f 126/126/126 125/125/125 124/124/124
f 129/129/129 128/128/128 127/127/127
f 132/132/132 131/131/131 130/130/130
f 135/135/135 134/134/134 133/133/133
f 138/138/138 137/137/137 136/136/136
f 141/141/141 140/140/140 139/139/139
f 144/144/144 143/143/143 142/142/142
f 147/147/147 146/146/146 145/145/145
f 150/150/150 149/149/149 148/148/148
f 153/153/153 152/152/152 151/151/151
f 156/156/156 155/155/155 154/154/154
f 159/159/159 158/158/158 157/157/157
f 162/162/162 161/161/161 160/160/160
f 165/165/165 164/164/164 163/163/163
f 168/168/168 167/167/167 166/166/166
f 171/171/171 170/170/170 169/169/169
f 174/174/174 173/173/173 172/172/172
f 177/177/177 176/176/176 175/175/175
f 180/180/180 179/179/179 178/178/178
f 183/183/183 182/182/182 181/181/181
f 186/186/186 185/185/185 184/184/184
f 189/189/189 188/188/188 187/187/187
f 192/192/192 191/191/191 190/190/190
f 195/195/195 194/194/194 193/193/193
f 198/198/198 197/197/197 196/196/196
f 201/201/201 200/200/200 199/199/199
f 204/204/204 203/203/203 202/202/202
mtllib mtl_t6_wpn_ar_hk416_camo4.mtl
g mtl_t6_wpn_ar_hk416_camo4
usemtl mtl_t6_wpn_ar_hk416_camo4
f 207/207/207 206/206/206 205/205/205
f 210/210/210 209/209/209 208/208/208
f 213/213/213 212/212/212 211/211/211
f 216/216/216 215/215/215 214/214/214
f 219/219/219 218/218/218 217/217/217
f 222/222/222 221/221/221 220/220/220
f 225/225/225 224/224/224 223/223/223
f 228/228/228 227/227/227 226/226/226
f 231/231/231 230/230/230 229/229/229
f 234/234/234 233/233/233 232/232/232
f 237/237/237 236/236/236 235/235/235
f 240/240/240 239/239/239 238/238/238
f 243/243/243 242/242/242 241/241/241
f 246/246/246 245/245/245 244/244/244
f 249/249/249 248/248/248 247/247/247
f 252/252/252 251/251/251 250/250/250
