# Generated by Wraith - Game extraction tools
# Please credit DTZxPorter for using it!

v 10.422675 -1.408374 -14.826283
v 4.236522 -1.408374 -20.091356
v 7.007719 -1.408374 -10.511744
v 4.236522 -1.408374 -20.091356
v 0.455316 -1.408374 -15.312746
v 7.007719 -1.408374 -10.511744
v 7.007719 -1.408374 -10.511744
v 0.455316 -1.408374 -15.312746
v -3.732810 -1.408374 -7.087604
v 3.743332 -1.408374 -4.336677
v 7.007719 -1.408374 -10.511744
v -3.732810 -1.408374 -7.087604
v 3.743332 -1.408374 -4.336677
v -3.732810 -1.408374 -7.087604
v 2.964238 -1.408374 0.436829
v -3.732810 -1.408374 -7.087604
v -5.159123 -1.408374 0.467431
v 2.964238 -1.408374 0.436829
v 4.236522 -1.408374 -20.091356
v 4.236522 1.421165 -20.091356
v 0.455316 -1.408374 -15.312746
v 4.236522 1.421165 -20.091356
v 0.455316 1.421165 -15.312746
v 0.455316 -1.408374 -15.312746
v 0.455316 -1.408374 -15.312746
v 0.455316 1.421165 -15.312746
v -3.732810 -1.408374 -7.087604
v 0.455316 1.421165 -15.312746
v -3.732810 1.421165 -7.087604
v -3.732810 -1.408374 -7.087604
v -5.159123 -1.408374 0.467431
v -3.732810 -1.408374 -7.087604
v -3.732810 1.421165 -7.087604
v -5.159123 1.421165 0.467431
v -5.159123 -1.408374 0.467431
v -3.732810 1.421165 -7.087604
v 4.236522 1.421165 -20.091356
v 10.422675 1.421165 -14.826283
v 7.007719 1.421165 -10.511744
v 0.455316 1.421165 -15.312746
v 4.236522 1.421165 -20.091356
v 7.007719 1.421165 -10.511744
v 0.455316 1.421165 -15.312746
v 7.007719 1.421165 -10.511744
v -3.732810 1.421165 -7.087604
v 7.007719 1.421165 -10.511744
v 3.743332 1.421165 -4.336677
v -3.732810 1.421165 -7.087604
v -3.732810 1.421165 -7.087604
v 3.743332 1.421165 -4.336677
v 2.964238 1.421165 0.436829
v -5.159123 1.421165 0.467431
v -3.732810 1.421165 -7.087604
v 2.964238 1.421165 0.436829
v 10.422675 1.421165 -14.826283
v 10.422675 -1.408374 -14.826283
v 7.007719 1.421165 -10.511744
v 10.422675 -1.408374 -14.826283
v 7.007719 -1.408374 -10.511744
v 7.007719 1.421165 -10.511744
v 7.007719 1.421165 -10.511744
v 7.007719 -1.408374 -10.511744
v 3.743332 1.421165 -4.336677
v 7.007719 -1.408374 -10.511744
v 3.743332 -1.408374 -4.336677
v 3.743332 1.421165 -4.336677
v 2.964238 1.421165 0.436829
v 3.743332 1.421165 -4.336677
v 3.743332 -1.408374 -4.336677
v 2.964238 -1.408374 0.436829
v 2.964238 1.421165 0.436829
v 3.743332 -1.408374 -4.336677
v 4.236522 -1.408374 -20.091356
v 10.422675 -1.408374 -14.826283
v 4.236522 1.421165 -20.091356
v 10.422675 -1.408374 -14.826283
v 10.422675 1.421165 -14.826283
v 4.236522 1.421165 -20.091356
v -5.159123 1.421165 0.467431
v 2.964238 1.421165 0.436829
v -5.159123 -1.408374 0.467431
v 2.964238 1.421165 0.436829
v 2.964238 -1.408374 0.436829
v -5.159123 -1.408374 0.467431
v 3.933488 4.294149 -4.723425
v -3.458893 4.294149 -8.091244
v 6.391490 4.294149 -9.646363
v -3.458893 4.294149 -8.091244
v -0.736050 4.294149 -13.542737
v 6.391490 4.294149 -9.646363
v 6.391490 4.294149 -9.646363
v -0.736050 4.294149 -13.542737
v 4.935060 4.294149 -20.825031
v 10.598139 4.294149 -15.222366
v 6.391490 4.294149 -9.646363
v 4.935060 4.294149 -20.825031
v 10.598139 4.294149 -15.222366
v 4.935060 4.294149 -20.825031
v 14.590119 4.294149 -17.953209
v 4.935060 4.294149 -20.825031
v 11.171184 4.294149 -25.322111
v 14.590119 4.294149 -17.953209
v -3.458893 4.294149 -8.091244
v -3.458893 1.464610 -8.091244
v -0.736050 4.294149 -13.542737
v -3.458893 1.464610 -8.091244
v -0.736050 1.464610 -13.542737
v -0.736050 4.294149 -13.542737
v -0.736050 4.294149 -13.542737
v -0.736050 1.464610 -13.542737
v 4.935060 4.294149 -20.825031
v -0.736050 1.464610 -13.542737
v 4.935060 1.464610 -20.825031
v 4.935060 4.294149 -20.825031
v 11.171184 4.294149 -25.322111
v 4.935060 4.294149 -20.825031
v 4.935060 1.464610 -20.825031
v 11.171184 1.464610 -25.322111
v 11.171184 4.294149 -25.322111
v 4.935060 1.464610 -20.825031
v -3.458893 1.464610 -8.091244
v 3.933488 1.464610 -4.723425
v 6.391490 1.464610 -9.646363
v -0.736050 1.464610 -13.542737
v -3.458893 1.464610 -8.091244
v 6.391490 1.464610 -9.646363
v -0.736050 1.464610 -13.542737
v 6.391490 1.464610 -9.646363
v 4.935060 1.464610 -20.825031
v 6.391490 1.464610 -9.646363
v 10.598139 1.464610 -15.222366
v 4.935060 1.464610 -20.825031
v 4.935060 1.464610 -20.825031
v 10.598139 1.464610 -15.222366
v 14.590119 1.464610 -17.953209
v 11.171184 1.464610 -25.322111
v 4.935060 1.464610 -20.825031
v 14.590119 1.464610 -17.953209
v 3.933488 1.464610 -4.723425
v 3.933488 4.294149 -4.723425
v 6.391490 1.464610 -9.646363
v 3.933488 4.294149 -4.723425
v 6.391490 4.294149 -9.646363
v 6.391490 1.464610 -9.646363
v 6.391490 1.464610 -9.646363
v 6.391490 4.294149 -9.646363
v 10.598139 1.464610 -15.222366
v 6.391490 4.294149 -9.646363
v 10.598139 4.294149 -15.222366
v 10.598139 1.464610 -15.222366
v 14.590119 1.464610 -17.953209
v 10.598139 1.464610 -15.222366
v 10.598139 4.294149 -15.222366
v 14.590119 4.294149 -17.953209
v 14.590119 1.464610 -17.953209
v 10.598139 4.294149 -15.222366
v -3.458893 4.294149 -8.091244
v 3.933488 4.294149 -4.723425
v -3.458893 1.464610 -8.091244
v 3.933488 4.294149 -4.723425
v 3.933488 1.464610 -4.723425
v -3.458893 1.464610 -8.091244
v 11.171184 1.464610 -25.322111
v 14.590119 1.464610 -17.953209
v 11.171184 4.294149 -25.322111
v 14.590119 1.464610 -17.953209
v 14.590119 4.294149 -17.953209
v 11.171184 4.294149 -25.322111
v -2.601333 -1.654122 -11.285782
v -2.601333 4.593227 -11.285782
v 0.323803 -1.654122 -9.664027
v -2.601333 4.593227 -11.285782
v 0.323803 4.593227 -9.664027
v 0.323803 -1.654122 -9.664027
v -1.001121 4.593227 -14.172062
v -1.001121 -1.654122 -14.172062
v 1.924015 4.593227 -12.550308
v -1.001121 -1.654122 -14.172062
v 1.924015 -1.654122 -12.550308
v 1.924015 4.593227 -12.550308
v 1.924015 -1.654122 -12.550308
v 0.323803 -1.654122 -9.664027
v 1.924015 4.593227 -12.550308
v 0.323803 -1.654122 -9.664027
v 0.323803 4.593227 -9.664027
v 1.924015 4.593227 -12.550308
v 2.491195 -1.654122 -8.462379
v 2.491195 4.593227 -8.462379
v 5.416327 -1.654122 -6.840624
v 2.491195 4.593227 -8.462379
v 5.416327 4.593227 -6.840624
v 5.416327 -1.654122 -6.840624
v 4.091405 4.593227 -11.348660
v 4.091405 -1.654122 -11.348660
v 7.016539 4.593227 -9.726908
v 4.091405 -1.654122 -11.348660
v 7.016539 -1.654122 -9.726908
v 7.016539 4.593227 -9.726908
v 4.091405 4.593227 -11.348660
v 2.491195 4.593227 -8.462379
v 4.091405 -1.654122 -11.348660
v 2.491195 4.593227 -8.462379
v 2.491195 -1.654122 -8.462379
v 4.091405 -1.654122 -11.348660
v -1.001121 -1.654122 -14.172062
v -2.601333 -1.654122 -11.285782
v 1.924015 -1.654122 -12.550308
v -2.601333 -1.654122 -11.285782
v 0.323803 -1.654122 -9.664027
v 1.924015 -1.654122 -12.550308
v -2.601333 4.593227 -11.285782
v -1.001121 4.593227 -14.172062
v 0.323803 4.593227 -9.664027
v -1.001121 4.593227 -14.172062
v 1.924015 4.593227 -12.550308
v 0.323803 4.593227 -9.664027
v -1.001121 4.593227 -14.172062
v -2.601333 4.593227 -11.285782
v -1.001121 -1.654122 -14.172062
v -2.601333 4.593227 -11.285782
v -2.601333 -1.654122 -11.285782
v -1.001121 -1.654122 -14.172062
v 4.091405 -1.654122 -11.348660
v 2.491195 -1.654122 -8.462379
v 7.016539 -1.654122 -9.726908
v 2.491195 -1.654122 -8.462379
v 5.416327 -1.654122 -6.840624
v 7.016539 -1.654122 -9.726908
v 2.491195 4.593227 -8.462379
v 4.091405 4.593227 -11.348660
v 5.416327 4.593227 -6.840624
v 4.091405 4.593227 -11.348660
v 7.016539 4.593227 -9.726908
v 5.416327 4.593227 -6.840624
v 7.016539 -1.654122 -9.726908
v 5.416327 -1.654122 -6.840624
v 7.016539 4.593227 -9.726908
v 5.416327 -1.654122 -6.840624
v 5.416327 4.593227 -6.840624
v 7.016539 4.593227 -9.726908
vt 0.028534 0.333008
vt 0.007179 0.242676
vt 0.092041 0.320801
vt 0.007179 0.242676
vt 0.077148 0.229004
vt 0.092041 0.320801
vt 0.092041 0.320801
vt 0.077148 0.229004
vt 0.184937 0.233887
vt 0.173950 0.320313
vt 0.092041 0.320801
vt 0.184937 0.233887
vt 0.173950 0.320313
vt 0.184937 0.233887
vt 0.228271 0.336914
vt 0.184937 0.233887
vt 0.270996 0.254395
vt 0.228271 0.336914
vt -0.996582 0.220215
vt -0.992676 0.242188
vt -0.923828 0.206055
vt -0.992676 0.242188
vt -0.922363 0.228027
vt -0.923828 0.206055
vt -0.923828 0.206055
vt -0.922363 0.228027
vt -0.812012 0.212891
vt -0.922363 0.228027
vt -0.814453 0.230957
vt -0.812012 0.212891
vt -0.721680 0.232910
vt -0.812012 0.212891
vt -0.814453 0.230957
vt -0.728027 0.254395
vt -0.721680 0.232910
vt -0.814453 0.230957
vt -0.992676 0.242188
vt -0.971191 0.333008
vt -0.907715 0.320801
vt -0.922363 0.228027
vt -0.992676 0.242188
vt -0.907715 0.320801
vt -0.922363 0.228027
vt -0.907715 0.320801
vt -0.814453 0.230957
vt -0.907715 0.320801
vt -0.825684 0.320801
vt -0.814453 0.230957
vt -0.814453 0.230957
vt -0.825684 0.320801
vt -0.771484 0.337402
vt -0.728027 0.254395
vt -0.814453 0.230957
vt -0.771484 0.337402
vt -0.971191 0.333008
vt -0.966797 0.349609
vt -0.907715 0.320801
vt -0.966797 0.349609
vt -0.908691 0.338379
vt -0.907715 0.320801
vt -0.907715 0.320801
vt -0.908691 0.338379
vt -0.825684 0.320801
vt -0.908691 0.338379
vt -0.829102 0.340820
vt -0.825684 0.320801
vt -0.771484 0.337402
vt -0.825684 0.320801
vt -0.829102 0.340820
vt -0.777832 0.353027
vt -0.771484 0.337402
vt -0.829102 0.340820
vt -0.675781 0.087402
vt -0.675781 0.005859
vt -0.712402 0.087402
vt -0.675781 0.005859
vt -0.712402 0.005859
vt -0.712402 0.087402
vt -0.675293 0.177246
vt -0.675293 0.097656
vt -0.711426 0.177246
vt -0.675293 0.097656
vt -0.711426 0.097656
vt -0.711426 0.177246
vt 0.028534 0.333008
vt 0.007179 0.242676
vt 0.092041 0.320801
vt 0.007179 0.242676
vt 0.077148 0.229004
vt 0.092041 0.320801
vt 0.092041 0.320801
vt 0.077148 0.229004
vt 0.184937 0.233887
vt 0.173950 0.320313
vt 0.092041 0.320801
vt 0.184937 0.233887
vt 0.173950 0.320313
vt 0.184937 0.233887
vt 0.228271 0.336914
vt 0.184937 0.233887
vt 0.270996 0.254395
vt 0.228271 0.336914
vt -0.996582 0.220215
vt -0.992676 0.242188
vt -0.923828 0.206055
vt -0.992676 0.242188
vt -0.922363 0.228027
vt -0.923828 0.206055
vt -0.923828 0.206055
vt -0.922363 0.228027
vt -0.812012 0.212891
vt -0.922363 0.228027
vt -0.814453 0.230957
vt -0.812012 0.212891
vt -0.721680 0.232910
vt -0.812012 0.212891
vt -0.814453 0.230957
vt -0.728027 0.254395
vt -0.721680 0.232910
vt -0.814453 0.230957
vt -0.992676 0.242188
vt -0.971191 0.333008
vt -0.907715 0.320801
vt -0.922363 0.228027
vt -0.992676 0.242188
vt -0.907715 0.320801
vt -0.922363 0.228027
vt -0.907715 0.320801
vt -0.814453 0.230957
vt -0.907715 0.320801
vt -0.825684 0.320801
vt -0.814453 0.230957
vt -0.814453 0.230957
vt -0.825684 0.320801
vt -0.771484 0.337402
vt -0.728027 0.254395
vt -0.814453 0.230957
vt -0.771484 0.337402
vt -0.971191 0.333008
vt -0.966797 0.349609
vt -0.907715 0.320801
vt -0.966797 0.349609
vt -0.908691 0.338379
vt -0.907715 0.320801
vt -0.907715 0.320801
vt -0.908691 0.338379
vt -0.825684 0.320801
vt -0.908691 0.338379
vt -0.829102 0.340820
vt -0.825684 0.320801
vt -0.771484 0.337402
vt -0.825684 0.320801
vt -0.829102 0.340820
vt -0.777832 0.353027
vt -0.771484 0.337402
vt -0.829102 0.340820
vt -0.675781 0.087402
vt -0.675781 0.005859
vt -0.712402 0.087402
vt -0.675781 0.005859
vt -0.712402 0.005859
vt -0.712402 0.087402
vt -0.675293 0.177246
vt -0.675293 0.097656
vt -0.711426 0.177246
vt -0.675293 0.097656
vt -0.711426 0.097656
vt -0.711426 0.177246
vt -0.052155 0.404297
vt -0.184082 0.404297
vt -0.052155 0.461426
vt -0.184082 0.404297
vt -0.184082 0.461426
vt -0.052155 0.461426
vt -0.052155 0.404297
vt -0.184082 0.404297
vt -0.052155 0.461426
vt -0.184082 0.404297
vt -0.184082 0.461426
vt -0.052155 0.461426
vt -0.052155 0.461426
vt -0.052155 0.404297
vt -0.184082 0.461426
vt -0.052155 0.404297
vt -0.184082 0.404297
vt -0.184082 0.461426
vt -0.052155 0.404297
vt -0.184082 0.404297
vt -0.052155 0.461426
vt -0.184082 0.404297
vt -0.184082 0.461426
vt -0.052155 0.461426
vt -0.052155 0.404297
vt -0.184082 0.404297
vt -0.052155 0.461426
vt -0.184082 0.404297
vt -0.184082 0.461426
vt -0.052155 0.461426
vt -0.184082 0.404297
vt -0.184082 0.461426
vt -0.052155 0.404297
vt -0.184082 0.461426
vt -0.052155 0.461426
vt -0.052155 0.404297
vt 0.833008 0.404297
vt 0.833008 0.460449
vt 0.890625 0.404297
vt 0.833008 0.460449
vt 0.890625 0.460449
vt 0.890625 0.404297
vt 0.833008 0.404297
vt 0.833008 0.460449
vt 0.890625 0.404297
vt 0.833008 0.460449
vt 0.890625 0.460449
vt 0.890625 0.404297
vt 0.815430 0.404297
vt 0.815430 0.461426
vt 0.947754 0.404297
vt 0.815430 0.461426
vt 0.947754 0.461426
vt 0.947754 0.404297
vt 0.833008 0.404297
vt 0.833008 0.460449
vt 0.890625 0.404297
vt 0.833008 0.460449
vt 0.890625 0.460449
vt 0.890625 0.404297
vt 0.833008 0.404297
vt 0.833008 0.460449
vt 0.890625 0.404297
vt 0.833008 0.460449
vt 0.890625 0.460449
vt 0.890625 0.404297
vt 0.947754 0.461426
vt 0.947754 0.404297
vt 0.815430 0.461426
vt 0.947754 0.404297
vt 0.815430 0.404297
vt 0.815430 0.461426
vn 0.000000 -1.000000 0.000000
vn 0.000000 -1.000000 0.000000
vn 0.000000 -1.000000 0.000000
vn 0.000000 -1.000000 0.000000
vn 0.000000 -1.000000 0.000000
vn 0.000000 -1.000000 0.000000
vn 0.000000 -1.000000 0.000000
vn 0.000000 -1.000000 0.000000
vn 0.000000 -1.000000 0.000000
vn 0.000000 -1.000000 0.000000
vn 0.000000 -1.000000 0.000000
vn 0.000000 -1.000000 0.000000
vn 0.000000 -1.000000 0.000000
vn 0.000000 -1.000000 0.000000
vn 0.000000 -1.000000 0.000000
vn 0.000000 -1.000000 0.000000
vn 0.000000 -1.000000 0.000000
vn 0.000000 -1.000000 0.000000
vn -0.784736 0.000000 -0.620352
vn -0.784736 0.000000 -0.620352
vn -0.841487 0.000000 -0.540117
vn -0.784736 0.000000 -0.620352
vn -0.841487 0.000000 -0.540117
vn -0.841487 0.000000 -0.540117
vn -0.841487 0.000000 -0.540117
vn -0.841487 0.000000 -0.540117
vn -0.947162 0.000000 -0.322896
vn -0.841487 0.000000 -0.540117
vn -0.947162 0.000000 -0.322896
vn -0.947162 0.000000 -0.322896
vn -0.982387 0.000000 -0.185910
vn -0.947162 0.000000 -0.322896
vn -0.947162 0.000000 -0.322896
vn -0.982387 0.000000 -0.185910
vn -0.982387 0.000000 -0.185910
vn -0.947162 0.000000 -0.322896
vn 0.000000 1.000000 0.000000
vn 0.000000 1.000000 0.000000
vn 0.000000 1.000000 0.000000
vn 0.000000 1.000000 0.000000
vn 0.000000 1.000000 0.000000
vn 0.000000 1.000000 0.000000
vn 0.000000 1.000000 0.000000
vn 0.000000 1.000000 0.000000
vn 0.000000 1.000000 0.000000
vn 0.000000 1.000000 0.000000
vn 0.000000 1.000000 0.000000
vn 0.000000 1.000000 0.000000
vn 0.000000 1.000000 0.000000
vn 0.000000 1.000000 0.000000
vn 0.000000 1.000000 0.000000
vn 0.000000 1.000000 0.000000
vn 0.000000 1.000000 0.000000
vn 0.000000 1.000000 0.000000
vn 0.784736 0.000000 0.620352
vn 0.784736 0.000000 0.620352
vn 0.837573 0.000000 0.545988
vn 0.784736 0.000000 0.620352
vn 0.837573 0.000000 0.545988
vn 0.837573 0.000000 0.545988
vn 0.837573 0.000000 0.545988
vn 0.837573 0.000000 0.545988
vn 0.947162 0.000000 0.318982
vn 0.837573 0.000000 0.545988
vn 0.947162 0.000000 0.318982
vn 0.947162 0.000000 0.318982
vn 0.986301 0.000000 0.160470
vn 0.947162 0.000000 0.318982
vn 0.947162 0.000000 0.318982
vn 0.986301 0.000000 0.160470
vn 0.986301 0.000000 0.160470
vn 0.947162 0.000000 0.318982
vn 0.647749 0.000000 -0.761252
vn 0.647749 0.000000 -0.761252
vn 0.647749 0.000000 -0.761252
vn 0.647749 0.000000 -0.761252
vn 0.647749 0.000000 -0.761252
vn 0.647749 0.000000 -0.761252
vn 0.003914 0.000000 1.000000
vn 0.003914 0.000000 1.000000
vn 0.003914 0.000000 1.000000
vn 0.003914 0.000000 1.000000
vn 0.003914 0.000000 1.000000
vn 0.003914 0.000000 1.000000
vn 0.000000 1.000000 0.000000
vn 0.000000 1.000000 0.000000
vn 0.000000 1.000000 0.000000
vn 0.000000 1.000000 0.000000
vn 0.000000 1.000000 0.000000
vn 0.000000 1.000000 0.000000
vn 0.000000 1.000000 0.000000
vn 0.000000 1.000000 0.000000
vn 0.000000 1.000000 0.000000
vn 0.000000 1.000000 0.000000
vn 0.000000 1.000000 0.000000
vn 0.000000 1.000000 0.000000
vn 0.000000 1.000000 0.000000
vn 0.000000 1.000000 0.000000
vn 0.000000 1.000000 0.000000
vn 0.000000 1.000000 0.000000
vn 0.000000 1.000000 0.000000
vn 0.000000 1.000000 0.000000
vn -0.894325 0.000000 -0.446184
vn -0.894325 0.000000 -0.446184
vn -0.845401 0.000000 -0.532290
vn -0.894325 0.000000 -0.446184
vn -0.845401 0.000000 -0.532290
vn -0.845401 0.000000 -0.532290
vn -0.845401 0.000000 -0.532290
vn -0.845401 0.000000 -0.532290
vn -0.694716 0.000000 -0.720157
vn -0.845401 0.000000 -0.532290
vn -0.694716 0.000000 -0.720157
vn -0.694716 0.000000 -0.720157
vn -0.585127 0.000000 -0.810176
vn -0.694716 0.000000 -0.720157
vn -0.694716 0.000000 -0.720157
vn -0.585127 0.000000 -0.810176
vn -0.585127 0.000000 -0.810176
vn -0.694716 0.000000 -0.720157
vn 0.000000 -1.000000 0.000000
vn 0.000000 -1.000000 0.000000
vn 0.000000 -1.000000 0.000000
vn 0.000000 -1.000000 0.000000
vn 0.000000 -1.000000 0.000000
vn 0.000000 -1.000000 0.000000
vn 0.000000 -1.000000 0.000000
vn 0.000000 -1.000000 0.000000
vn 0.000000 -1.000000 0.000000
vn 0.000000 -1.000000 0.000000
vn 0.000000 -1.000000 0.000000
vn 0.000000 -1.000000 0.000000
vn 0.000000 -1.000000 0.000000
vn 0.000000 -1.000000 0.000000
vn 0.000000 -1.000000 0.000000
vn 0.000000 -1.000000 0.000000
vn 0.000000 -1.000000 0.000000
vn 0.000000 -1.000000 0.000000
vn 0.894325 0.000000 0.446184
vn 0.894325 0.000000 0.446184
vn 0.849315 0.000000 0.526419
vn 0.894325 0.000000 0.446184
vn 0.849315 0.000000 0.526419
vn 0.849315 0.000000 0.526419
vn 0.849315 0.000000 0.526419
vn 0.849315 0.000000 0.526419
vn 0.690802 0.000000 0.724070
vn 0.849315 0.000000 0.526419
vn 0.690802 0.000000 0.724070
vn 0.690802 0.000000 0.724070
vn 0.565558 0.000000 0.825832
vn 0.690802 0.000000 0.724070
vn 0.690802 0.000000 0.724070
vn 0.565558 0.000000 0.825832
vn 0.565558 0.000000 0.825832
vn 0.690802 0.000000 0.724070
vn -0.414873 0.000000 0.909980
vn -0.414873 0.000000 0.909980
vn -0.414873 0.000000 0.909980
vn -0.414873 0.000000 0.909980
vn -0.414873 0.000000 0.909980
vn -0.414873 0.000000 0.909980
vn 0.908023 0.000000 -0.420744
vn 0.908023 0.000000 -0.420744
vn 0.908023 0.000000 -0.420744
vn 0.908023 0.000000 -0.420744
vn 0.908023 0.000000 -0.420744
vn 0.908023 0.000000 -0.420744
vn -0.485323 0.000000 0.874755
vn -0.485323 0.000000 0.874755
vn -0.485323 0.000000 0.874755
vn -0.485323 0.000000 0.874755
vn -0.485323 0.000000 0.874755
vn -0.485323 0.000000 0.874755
vn 0.485323 0.000000 -0.874755
vn 0.485323 0.000000 -0.874755
vn 0.485323 0.000000 -0.874755
vn 0.485323 0.000000 -0.874755
vn 0.485323 0.000000 -0.874755
vn 0.485323 0.000000 -0.874755
vn 0.874755 0.000000 0.485323
vn 0.874755 0.000000 0.485323
vn 0.874755 0.000000 0.485323
vn 0.874755 0.000000 0.485323
vn 0.874755 0.000000 0.485323
vn 0.874755 0.000000 0.485323
vn -0.485323 0.000000 0.874755
vn -0.485323 0.000000 0.874755
vn -0.485323 0.000000 0.874755
vn -0.485323 0.000000 0.874755
vn -0.485323 0.000000 0.874755
vn -0.485323 0.000000 0.874755
vn 0.485323 0.000000 -0.874755
vn 0.485323 0.000000 -0.874755
vn 0.485323 0.000000 -0.874755
vn 0.485323 0.000000 -0.874755
vn 0.485323 0.000000 -0.874755
vn 0.485323 0.000000 -0.874755
vn -0.874755 0.000000 -0.485323
vn -0.874755 0.000000 -0.485323
vn -0.874755 0.000000 -0.485323
vn -0.874755 0.000000 -0.485323
vn -0.874755 0.000000 -0.485323
vn -0.874755 0.000000 -0.485323
vn 0.000000 -1.000000 0.000000
vn 0.000000 -1.000000 0.000000
vn 0.000000 -1.000000 0.000000
vn 0.000000 -1.000000 0.000000
vn 0.000000 -1.000000 0.000000
vn 0.000000 -1.000000 0.000000
vn 0.000000 1.000000 0.000000
vn 0.000000 1.000000 0.000000
vn 0.000000 1.000000 0.000000
vn 0.000000 1.000000 0.000000
vn 0.000000 1.000000 0.000000
vn 0.000000 1.000000 0.000000
vn -0.874755 0.000000 -0.485323
vn -0.874755 0.000000 -0.485323
vn -0.874755 0.000000 -0.485323
vn -0.874755 0.000000 -0.485323
vn -0.874755 0.000000 -0.485323
vn -0.874755 0.000000 -0.485323
vn 0.000000 -1.000000 0.000000
vn 0.000000 -1.000000 0.000000
vn 0.000000 -1.000000 0.000000
vn 0.000000 -1.000000 0.000000
vn 0.000000 -1.000000 0.000000
vn 0.000000 -1.000000 0.000000
vn 0.000000 1.000000 0.000000
vn 0.000000 1.000000 0.000000
vn 0.000000 1.000000 0.000000
vn 0.000000 1.000000 0.000000
vn 0.000000 1.000000 0.000000
vn 0.000000 1.000000 0.000000
vn 0.874755 0.000000 0.485323
vn 0.874755 0.000000 0.485323
vn 0.874755 0.000000 0.485323
vn 0.874755 0.000000 0.485323
vn 0.874755 0.000000 0.485323
vn 0.874755 0.000000 0.485323
mtllib mtl_t6_wpn_ar_type95.mtl
g mtl_t6_wpn_ar_type95
usemtl mtl_t6_wpn_ar_type95
f 3/3/3 2/2/2 1/1/1
f 6/6/6 5/5/5 4/4/4
f 9/9/9 8/8/8 7/7/7
f 12/12/12 11/11/11 10/10/10
f 15/15/15 14/14/14 13/13/13
f 18/18/18 17/17/17 16/16/16
f 21/21/21 20/20/20 19/19/19
f 24/24/24 23/23/23 22/22/22
f 27/27/27 26/26/26 25/25/25
f 30/30/30 29/29/29 28/28/28
f 33/33/33 32/32/32 31/31/31
f 36/36/36 35/35/35 34/34/34
f 39/39/39 38/38/38 37/37/37
f 42/42/42 41/41/41 40/40/40
f 45/45/45 44/44/44 43/43/43
f 48/48/48 47/47/47 46/46/46
f 51/51/51 50/50/50 49/49/49
f 54/54/54 53/53/53 52/52/52
f 57/57/57 56/56/56 55/55/55
f 60/60/60 59/59/59 58/58/58
f 63/63/63 62/62/62 61/61/61
f 66/66/66 65/65/65 64/64/64
f 69/69/69 68/68/68 67/67/67
f 72/72/72 71/71/71 70/70/70
f 75/75/75 74/74/74 73/73/73
f 78/78/78 77/77/77 76/76/76
f 81/81/81 80/80/80 79/79/79
f 84/84/84 83/83/83 82/82/82
f 87/87/87 86/86/86 85/85/85
f 90/90/90 89/89/89 88/88/88
f 93/93/93 92/92/92 91/91/91
f 96/96/96 95/95/95 94/94/94
f 99/99/99 98/98/98 97/97/97
f 102/102/102 101/101/101 100/100/100
f 105/105/105 104/104/104 103/103/103
f 108/108/108 107/107/107 106/106/106
f 111/111/111 110/110/110 109/109/109
f 114/114/114 113/113/113 112/112/112
f 117/117/117 116/116/116 115/115/115
f 120/120/120 119/119/119 118/118/118
f 123/123/123 122/122/122 121/121/121
f 126/126/126 125/125/125 124/124/124
f 129/129/129 128/128/128 127/127/127
f 132/132/132 131/131/131 130/130/130
f 135/135/135 134/134/134 133/133/133
f 138/138/138 137/137/137 136/136/136
f 141/141/141 140/140/140 139/139/139
f 144/144/144 143/143/143 142/142/142
f 147/147/147 146/146/146 145/145/145
f 150/150/150 149/149/149 148/148/148
f 153/153/153 152/152/152 151/151/151
f 156/156/156 155/155/155 154/154/154
f 159/159/159 158/158/158 157/157/157
f 162/162/162 161/161/161 160/160/160
f 165/165/165 164/164/164 163/163/163
f 168/168/168 167/167/167 166/166/166
f 171/171/171 170/170/170 169/169/169
f 174/174/174 173/173/173 172/172/172
f 177/177/177 176/176/176 175/175/175
f 180/180/180 179/179/179 178/178/178
f 183/183/183 182/182/182 181/181/181
f 186/186/186 185/185/185 184/184/184
f 189/189/189 188/188/188 187/187/187
f 192/192/192 191/191/191 190/190/190
f 195/195/195 194/194/194 193/193/193
f 198/198/198 197/197/197 196/196/196
f 201/201/201 200/200/200 199/199/199
f 204/204/204 203/203/203 202/202/202
mtllib mtl_t6_wpn_ar_type95_camo3.mtl
g mtl_t6_wpn_ar_type95_camo3
usemtl mtl_t6_wpn_ar_type95_camo3
f 207/207/207 206/206/206 205/205/205
f 210/210/210 209/209/209 208/208/208
f 213/213/213 212/212/212 211/211/211
f 216/216/216 215/215/215 214/214/214
f 219/219/219 218/218/218 217/217/217
f 222/222/222 221/221/221 220/220/220
f 225/225/225 224/224/224 223/223/223
f 228/228/228 227/227/227 226/226/226
f 231/231/231 230/230/230 229/229/229
f 234/234/234 233/233/233 232/232/232
f 237/237/237 236/236/236 235/235/235
f 240/240/240 239/239/239 238/238/238
