# Generated by Wraith - Game extraction tools
# Please credit DTZxPorter for using it!

v 18.813107 -0.516098 2.261177
v 18.813107 0.568203 2.210438
v 18.813107 -1.416286 1.772633
v 18.813107 0.568203 2.210438
v 18.813107 1.446078 1.813321
v 18.813107 -1.416286 1.772633
v 18.813107 1.446078 1.813321
v 18.813107 2.072056 0.983737
v 18.813107 -1.416286 1.772633
v 18.813107 2.072056 0.983737
v 18.813107 2.319325 0.000000
v 18.813107 -1.416286 1.772633
v 18.813107 2.319325 0.000000
v 18.813107 2.072056 -0.983737
v 18.813107 -1.416286 1.772633
v 18.813107 2.072056 -0.983737
v 18.813107 1.446075 -1.813321
v 18.813107 -1.416286 1.772633
v 18.813107 1.446075 -1.813321
v 18.813107 0.542470 -2.210440
v 18.813107 -1.416286 1.772633
v 18.813107 -1.416286 1.772633
v 18.813107 0.542470 -2.210440
v 18.813107 -2.089640 1.006317
v 18.813107 -2.089640 1.006317
v 18.813107 0.542470 -2.210440
v 18.813107 -2.246351 0.000000
v 18.813107 0.542470 -2.210440
v 18.813107 -0.516098 -2.261177
v 18.813107 -2.246351 0.000000
v 18.813107 -0.516098 -2.261177
v 18.813107 -1.416286 -1.772630
v 18.813107 -2.246351 0.000000
v 18.813107 -2.246351 0.000000
v 18.813107 -1.416286 -1.772630
v 18.813107 -2.089640 -1.006317
v 2.022914 -0.516098 -2.261177
v 18.813107 -0.516098 -2.261177
v 18.813107 0.542470 -2.210440
v 2.022914 1.446075 -1.813321
v 2.022914 -0.516098 -2.261177
v 18.813107 0.542470 -2.210440
v 18.813107 0.542470 -2.210440
v 18.813107 1.446075 -1.813321
v 2.022914 1.446075 -1.813321
v 2.022914 1.446075 -1.813321
v 18.813107 1.446075 -1.813321
v 18.813107 2.072056 -0.983737
v 2.022917 2.319325 0.000000
v 2.022914 1.446075 -1.813321
v 18.813107 2.072056 -0.983737
v 18.813107 2.072056 -0.983737
v 18.813107 2.319325 0.000000
v 2.022917 2.319325 0.000000
v 18.813107 2.319325 0.000000
v 18.813107 2.072056 0.983737
v 2.022917 2.319325 0.000000
v 18.813107 2.072056 0.983737
v 2.022917 1.446078 1.813321
v 2.022917 2.319325 0.000000
v 18.813107 2.072056 0.983737
v 18.813107 1.446078 1.813321
v 2.022917 1.446078 1.813321
v 2.022917 1.446078 1.813321
v 18.813107 1.446078 1.813321
v 18.813107 0.568203 2.210438
v 2.022917 -0.516098 2.261177
v 2.022917 1.446078 1.813321
v 18.813107 0.568203 2.210438
v 18.813107 0.568203 2.210438
v 18.813107 -0.516098 2.261177
v 2.022917 -0.516098 2.261177
v 18.813107 -0.516098 2.261177
v 18.813107 -1.416286 1.772633
v 2.022917 -0.516098 2.261177
v 18.813107 -1.416286 1.772633
v 2.022917 -2.089640 1.006317
v 2.022917 -0.516098 2.261177
v 18.813107 -1.416286 1.772633
v 18.813107 -2.089640 1.006317
v 2.022917 -2.089640 1.006317
v 2.022917 -2.089640 1.006317
v 18.813107 -2.089640 1.006317
v 18.813107 -2.246351 0.000000
v 2.022917 -2.089640 -1.006317
v 2.022917 -2.089640 1.006317
v 18.813107 -2.246351 0.000000
v 18.813107 -2.246351 0.000000
v 18.813107 -2.089640 -1.006317
v 2.022917 -2.089640 -1.006317
v 2.022917 -2.089640 -1.006317
v 18.813107 -2.089640 -1.006317
v 18.813107 -1.416286 -1.772630
v 2.022914 -0.516098 -2.261177
v 2.022917 -2.089640 -1.006317
v 18.813107 -1.416286 -1.772630
v 18.813107 -1.416286 -1.772630
v 18.813107 -0.516098 -2.261177
v 2.022914 -0.516098 -2.261177
v 0.000000 0.000000 0.000000
v 2.022917 -2.089640 1.006317
v 2.022917 -2.089640 -1.006317
v 0.000000 0.000000 0.000000
v 2.022917 -0.516098 2.261177
v 2.022917 -2.089640 1.006317
v 0.000000 0.000000 0.000000
v 2.022917 1.446078 1.813321
v 2.022917 -0.516098 2.261177
v 0.000000 0.000000 0.000000
v 2.022917 2.319325 0.000000
v 2.022917 1.446078 1.813321
v 0.000000 0.000000 0.000000
v 2.022914 1.446075 -1.813321
v 2.022917 2.319325 0.000000
v 0.000000 0.000000 0.000000
v 2.022914 -0.516098 -2.261177
v 2.022914 1.446075 -1.813321
v 0.000000 0.000000 0.000000
v 2.022917 -2.089640 -1.006317
v 2.022914 -0.516098 -2.261177
vt 0.705566 0.327148
vt 0.708008 0.417480
vt 0.726074 0.251953
vt 0.708008 0.417480
vt 0.724121 0.490723
vt 0.726074 0.251953
vt 0.724121 0.490723
vt 0.758789 0.542969
vt 0.726074 0.251953
vt 0.758789 0.542969
vt 0.800293 0.563721
vt 0.726074 0.251953
vt 0.800293 0.563721
vt 0.841309 0.542969
vt 0.726074 0.251953
vt 0.841309 0.542969
vt 0.875977 0.490723
vt 0.726074 0.251953
vt 0.875977 0.490723
vt 0.892578 0.415527
vt 0.726074 0.251953
vt 0.726074 0.251953
vt 0.892578 0.415527
vt 0.758301 0.195313
vt 0.758301 0.195313
vt 0.892578 0.415527
vt 0.800293 0.182617
vt 0.892578 0.415527
vt 0.894531 0.327148
vt 0.800293 0.182617
vt 0.894531 0.327148
vt 0.874023 0.251953
vt 0.800293 0.182617
vt 0.800293 0.182617
vt 0.874023 0.251953
vt 0.842285 0.195313
vt 0.677246 0.016602
vt 0.015602 0.016602
vt 0.015610 0.066895
vt 0.677246 0.116699
vt 0.677246 0.016602
vt 0.015610 0.066895
vt 0.015610 0.066895
vt 0.015610 0.116699
vt 0.677246 0.116699
vt 0.677246 0.116699
vt 0.015610 0.116699
vt 0.015610 0.183594
vt 0.677246 0.250000
vt 0.677246 0.116699
vt 0.015610 0.183594
vt 0.015610 0.183594
vt 0.015610 0.250000
vt 0.677246 0.250000
vt 0.015610 0.250000
vt 0.015610 0.316895
vt 0.677246 0.250000
vt 0.015610 0.316895
vt 0.677246 0.383301
vt 0.677246 0.250000
vt 0.015610 0.316895
vt 0.015610 0.383301
vt 0.677246 0.383301
vt 0.677246 0.383301
vt 0.015610 0.383301
vt 0.015610 0.452637
vt 0.677246 0.521484
vt 0.677246 0.383301
vt 0.015610 0.452637
vt 0.015610 0.452637
vt 0.015617 0.521484
vt 0.677246 0.521484
vt 0.015617 0.521484
vt 0.015617 0.588379
vt 0.677246 0.521484
vt 0.015617 0.588379
vt 0.677246 0.655273
vt 0.677246 0.521484
vt 0.015617 0.588379
vt 0.015617 0.655273
vt 0.677246 0.655273
vt 0.677246 0.655273
vt 0.015617 0.655273
vt 0.015617 0.729248
vt 0.677246 0.803223
vt 0.677246 0.655273
vt 0.015617 0.729248
vt 0.015617 0.729248
vt 0.015617 0.803345
vt 0.677246 0.803223
vt 0.677246 0.803223
vt 0.015617 0.803345
vt 0.015617 0.864136
vt 0.677246 0.924805
vt 0.677246 0.803223
vt 0.015617 0.864136
vt 0.015617 0.864136
vt 0.015625 0.924866
vt 0.677246 0.924805
vt 0.924316 0.143555
vt 0.965820 0.251465
vt 0.991211 0.143555
vt 0.924316 0.143555
vt 0.909668 0.278320
vt 0.965820 0.251465
vt 0.924316 0.143555
vt 0.864746 0.203613
vt 0.909668 0.278320
vt 0.924316 0.143555
vt 0.864746 0.083984
vt 0.864746 0.203613
vt 0.924316 0.143555
vt 0.909668 0.009277
vt 0.864746 0.083984
vt 0.924316 0.143555
vt 0.965820 0.036133
vt 0.909668 0.009277
vt 0.924316 0.143555
vt 0.991211 0.143555
vt 0.965820 0.036133
vn 1.000000 0.000000 0.000000
vn 1.000000 0.000000 0.000000
vn 1.000000 0.000000 0.000000
vn 1.000000 0.000000 0.000000
vn 1.000000 0.000000 0.000000
vn 1.000000 0.000000 0.000000
vn 1.000000 0.000000 0.000000
vn 1.000000 0.000000 0.000000
vn 1.000000 0.000000 0.000000
vn 1.000000 0.000000 0.000000
vn 1.000000 0.000000 0.000000
vn 1.000000 0.000000 0.000000
vn 1.000000 0.000000 0.000000
vn 1.000000 0.000000 0.000000
vn 1.000000 0.000000 0.000000
vn 1.000000 0.000000 0.000000
vn 1.000000 0.000000 0.000000
vn 1.000000 0.000000 0.000000
vn 1.000000 0.000000 0.000000
vn 1.000000 0.000000 0.000000
vn 1.000000 0.000000 0.000000
vn 1.000000 0.000000 0.000000
vn 1.000000 0.000000 0.000000
vn 1.000000 0.000000 0.000000
vn 1.000000 0.000000 0.000000
vn 1.000000 0.000000 0.000000
vn 1.000000 0.000000 0.000000
vn 1.000000 0.000000 0.000000
vn 1.000000 0.000000 0.000000
vn 1.000000 0.000000 0.000000
vn 1.000000 0.000000 0.000000
vn 1.000000 0.000000 0.000000
vn 1.000000 0.000000 0.000000
vn 1.000000 0.000000 0.000000
vn 1.000000 0.000000 0.000000
vn 1.000000 0.000000 0.000000
vn -0.338552 -0.293542 -0.894325
vn -0.003914 -0.166341 -0.986301
vn -0.003914 0.285714 -0.958904
vn -0.338552 0.516634 -0.786693
vn -0.338552 -0.293542 -0.894325
vn -0.003914 0.285714 -0.958904
vn -0.003914 0.285714 -0.958904
vn -0.003914 0.669276 -0.741683
vn -0.338552 0.516634 -0.786693
vn -0.338552 0.516634 -0.786693
vn -0.003914 0.669276 -0.741683
vn -0.003914 0.927593 -0.371820
vn -0.338552 0.937378 -0.084149
vn -0.338552 0.516634 -0.786693
vn -0.003914 0.927593 -0.371820
vn -0.003914 0.927593 -0.371820
vn -0.003914 0.998043 0.066536
vn -0.338552 0.937378 -0.084149
vn -0.003914 0.998043 0.066536
vn -0.003914 0.870842 0.491194
vn -0.338552 0.937378 -0.084149
vn -0.003914 0.870842 0.491194
vn -0.338552 0.651663 0.679061
vn -0.338552 0.937378 -0.084149
vn -0.003914 0.870842 0.491194
vn -0.003914 0.569472 0.821918
vn -0.338552 0.651663 0.679061
vn -0.338552 0.651663 0.679061
vn -0.003914 0.569472 0.821918
vn -0.003914 0.166341 0.986301
vn -0.338552 -0.121331 0.933464
vn -0.338552 0.651663 0.679061
vn -0.003914 0.166341 0.986301
vn -0.003914 0.166341 0.986301
vn -0.003914 -0.279843 0.960861
vn -0.338552 -0.121331 0.933464
vn -0.003914 -0.279843 0.960861
vn -0.003914 -0.667319 0.743640
vn -0.338552 -0.121331 0.933464
vn -0.003914 -0.667319 0.743640
vn -0.338552 -0.806262 0.483366
vn -0.338552 -0.121331 0.933464
vn -0.003914 -0.667319 0.743640
vn -0.003914 -0.925636 0.377691
vn -0.338552 -0.806262 0.483366
vn -0.338552 -0.806262 0.483366
vn -0.003914 -0.925636 0.377691
vn -0.003914 -0.998043 -0.050881
vn -0.338552 -0.882583 -0.324853
vn -0.338552 -0.806262 0.483366
vn -0.003914 -0.998043 -0.050881
vn -0.003914 -0.998043 -0.050881
vn -0.003914 -0.878669 -0.475538
vn -0.338552 -0.882583 -0.324853
vn -0.338552 -0.882583 -0.324853
vn -0.003914 -0.878669 -0.475538
vn -0.003914 -0.577299 -0.816047
vn -0.338552 -0.293542 -0.894325
vn -0.338552 -0.882583 -0.324853
vn -0.003914 -0.577299 -0.816047
vn -0.003914 -0.577299 -0.816047
vn -0.003914 -0.166341 -0.986301
vn -0.338552 -0.293542 -0.894325
vn -1.000000 0.000000 0.000000
vn -0.338552 -0.806262 0.483366
vn -0.338552 -0.882583 -0.324853
vn -1.000000 0.000000 0.000000
vn -0.338552 -0.121331 0.933464
vn -0.338552 -0.806262 0.483366
vn -1.000000 0.000000 0.000000
vn -0.338552 0.651663 0.679061
vn -0.338552 -0.121331 0.933464
vn -1.000000 0.000000 0.000000
vn -0.338552 0.937378 -0.084149
vn -0.338552 0.651663 0.679061
vn -1.000000 0.000000 0.000000
vn -0.338552 0.516634 -0.786693
vn -0.338552 0.937378 -0.084149
vn -1.000000 0.000000 0.000000
vn -0.338552 -0.293542 -0.894325
vn -0.338552 0.516634 -0.786693
vn -1.000000 0.000000 0.000000
vn -0.338552 -0.882583 -0.324853
vn -0.338552 -0.293542 -0.894325
mtllib mtl_t6_attach_smg_silencer1.mtl
g mtl_t6_attach_smg_silencer1
usemtl mtl_t6_attach_smg_silencer1
f 3/3/3 2/2/2 1/1/1
f 6/6/6 5/5/5 4/4/4
f 9/9/9 8/8/8 7/7/7
f 12/12/12 11/11/11 10/10/10
f 15/15/15 14/14/14 13/13/13
f 18/18/18 17/17/17 16/16/16
f 21/21/21 20/20/20 19/19/19
f 24/24/24 23/23/23 22/22/22
f 27/27/27 26/26/26 25/25/25
f 30/30/30 29/29/29 28/28/28
f 33/33/33 32/32/32 31/31/31
f 36/36/36 35/35/35 34/34/34
f 39/39/39 38/38/38 37/37/37
f 42/42/42 41/41/41 40/40/40
f 45/45/45 44/44/44 43/43/43
f 48/48/48 47/47/47 46/46/46
f 51/51/51 50/50/50 49/49/49
f 54/54/54 53/53/53 52/52/52
f 57/57/57 56/56/56 55/55/55
f 60/60/60 59/59/59 58/58/58
f 63/63/63 62/62/62 61/61/61
f 66/66/66 65/65/65 64/64/64
f 69/69/69 68/68/68 67/67/67
f 72/72/72 71/71/71 70/70/70
f 75/75/75 74/74/74 73/73/73
f 78/78/78 77/77/77 76/76/76
f 81/81/81 80/80/80 79/79/79
f 84/84/84 83/83/83 82/82/82
f 87/87/87 86/86/86 85/85/85
f 90/90/90 89/89/89 88/88/88
f 93/93/93 92/92/92 91/91/91
f 96/96/96 95/95/95 94/94/94
f 99/99/99 98/98/98 97/97/97
f 102/102/102 101/101/101 100/100/100
f 105/105/105 104/104/104 103/103/103
f 108/108/108 107/107/107 106/106/106
f 111/111/111 110/110/110 109/109/109
f 114/114/114 113/113/113 112/112/112
f 117/117/117 116/116/116 115/115/115
f 120/120/120 119/119/119 118/118/118
