# Generated by Wraith - Game extraction tools
# Please credit DTZxPorter for using it!

v 19.670313 0.944088 -1.986981
v 5.620598 0.466997 -2.205281
v 19.670313 -0.010091 -2.205281
v 5.620598 1.921680 -0.933028
v 5.620598 0.466997 -2.205281
v 19.670313 0.944088 -1.986981
v 19.670313 1.709318 -1.375133
v 5.620598 1.921680 -0.933028
v 19.670313 0.944088 -1.986981
v 19.670313 2.134042 -0.490924
v 5.620598 1.921680 -0.933028
v 19.670313 1.709318 -1.375133
v 5.620598 1.921855 0.932665
v 5.620598 1.921680 -0.933028
v 19.670313 2.134042 -0.490924
v 19.670313 2.134133 0.490520
v 5.620598 1.921855 0.932665
v 19.670313 2.134042 -0.490924
v 19.670313 1.709578 1.374808
v 5.620598 1.921855 0.932665
v 19.670313 2.134133 0.490520
v 5.620598 0.467390 2.205281
v 5.620598 1.921855 0.932665
v 19.670313 1.709578 1.374808
v 19.670313 0.944458 1.986801
v 5.620598 0.467390 2.205281
v 19.670313 1.709578 1.374808
v 19.670313 -0.009677 2.205281
v 5.620598 0.467390 2.205281
v 19.670313 0.944458 1.986801
v 5.620598 -1.346472 1.681056
v 5.620598 0.467390 2.205281
v 19.670313 -0.009677 2.205281
v 19.670313 -0.963856 1.986981
v 5.620598 -1.346472 1.681056
v 19.670313 -0.009677 2.205281
v 19.670313 -1.729087 1.375133
v 5.620598 -1.346472 1.681056
v 19.670313 -0.963856 1.986981
v 5.620598 -2.153857 0.000201
v 5.620598 -1.346472 1.681056
v 19.670313 -1.729087 1.375133
v 19.670313 -2.153811 0.490924
v 5.620598 -2.153857 0.000201
v 19.670313 -1.729087 1.375133
v 19.670313 -2.153902 -0.490520
v 5.620598 -2.153857 0.000201
v 19.670313 -2.153811 0.490924
v 5.620598 -1.346787 -1.680804
v 5.620598 -2.153857 0.000201
v 19.670313 -2.153902 -0.490520
v 19.670313 -1.729346 -1.374808
v 5.620598 -1.346787 -1.680804
v 19.670313 -2.153902 -0.490520
v 19.670313 -0.964227 -1.986801
v 5.620598 -1.346787 -1.680804
v 19.670313 -1.729346 -1.374808
v 5.620598 0.466997 -2.205281
v 5.620598 -1.346787 -1.680804
v 19.670313 -0.964227 -1.986801
v 19.670313 -0.010091 -2.205281
v 5.620598 0.466997 -2.205281
v 19.670313 -0.964227 -1.986801
v 0.004780 2.230745 -1.081319
v 0.004780 2.230951 1.080907
v 0.004780 0.546905 -2.429286
v 0.004780 0.546905 -2.429286
v 0.004780 2.230951 1.080907
v 0.004780 -1.552603 -1.947951
v 0.004780 -1.552603 -1.947951
v 0.004780 2.230951 1.080907
v 0.004780 -2.486807 0.000231
v 0.004780 -2.486807 0.000231
v 0.004780 2.230951 1.080907
v 0.004780 -1.552232 1.948243
v 0.004780 -1.552232 1.948243
v 0.004780 2.230951 1.080907
v 0.004780 0.547367 2.429190
v 4.610501 0.546905 -2.429286
v 0.004780 0.546905 -2.429286
v 4.610501 -1.552603 -1.947951
v 0.004780 0.546905 -2.429286
v 0.004780 -1.552603 -1.947951
v 4.610501 -1.552603 -1.947951
v 4.610501 -1.552603 -1.947951
v 0.004780 -1.552603 -1.947951
v 4.610501 -2.486807 0.000231
v 0.004780 -1.552603 -1.947951
v 0.004780 -2.486807 0.000231
v 4.610501 -2.486807 0.000231
v 4.610501 -2.486807 0.000231
v 0.004780 -2.486807 0.000231
v 4.610501 -1.552232 1.948243
v 0.004780 -2.486807 0.000231
v 0.004780 -1.552232 1.948243
v 4.610501 -1.552232 1.948243
v 4.610501 -1.552232 1.948243
v 0.004780 -1.552232 1.948243
v 4.610501 0.547367 2.429190
v 0.004780 -1.552232 1.948243
v 0.004780 0.547367 2.429190
v 4.610501 0.547367 2.429190
v 4.610501 0.547367 2.429190
v 0.004780 0.547367 2.429190
v 4.610501 2.230951 1.080907
v 0.004780 0.547367 2.429190
v 0.004780 2.230951 1.080907
v 4.610501 2.230951 1.080907
v 4.610501 2.230951 1.080907
v 0.004780 2.230951 1.080907
v 4.610501 2.230745 -1.081319
v 0.004780 2.230951 1.080907
v 0.004780 2.230745 -1.081319
v 4.610501 2.230745 -1.081319
v 4.610501 2.230745 -1.081319
v 0.004780 2.230745 -1.081319
v 4.610501 0.546905 -2.429286
v 0.004780 2.230745 -1.081319
v 0.004780 0.546905 -2.429286
v 4.610501 0.546905 -2.429286
v 5.620598 0.466997 -2.205281
v 4.610501 0.546905 -2.429286
v 5.620598 -1.346787 -1.680804
v 4.610501 0.546905 -2.429286
v 4.610501 -1.552603 -1.947951
v 5.620598 -1.346787 -1.680804
v 5.620598 -1.346787 -1.680804
v 4.610501 -1.552603 -1.947951
v 4.610501 -2.486807 0.000231
v 5.620598 -2.153857 0.000201
v 5.620598 -1.346787 -1.680804
v 4.610501 -2.486807 0.000231
v 5.620598 -2.153857 0.000201
v 4.610501 -2.486807 0.000231
v 5.620598 -1.346472 1.681056
v 4.610501 -2.486807 0.000231
v 4.610501 -1.552232 1.948243
v 5.620598 -1.346472 1.681056
v 5.620598 -1.346472 1.681056
v 4.610501 -1.552232 1.948243
v 5.620598 0.467390 2.205281
v 4.610501 -1.552232 1.948243
v 4.610501 0.547367 2.429190
v 5.620598 0.467390 2.205281
v 5.620598 0.467390 2.205281
v 4.610501 0.547367 2.429190
v 5.620598 1.921855 0.932665
v 4.610501 0.547367 2.429190
v 4.610501 2.230951 1.080907
v 5.620598 1.921855 0.932665
v 5.620598 1.921855 0.932665
v 4.610501 2.230951 1.080907
v 5.620598 1.921680 -0.933028
v 4.610501 2.230951 1.080907
v 4.610501 2.230745 -1.081319
v 5.620598 1.921680 -0.933028
v 5.620598 1.921680 -0.933028
v 4.610501 2.230745 -1.081319
v 4.610501 0.546905 -2.429286
v 5.620598 0.466997 -2.205281
v 5.620598 1.921680 -0.933028
v 4.610501 0.546905 -2.429286
v 19.670313 2.134133 0.490520
v 19.670313 2.134042 -0.490924
v 19.670313 1.709578 1.374808
v 19.670313 1.709578 1.374808
v 19.670313 2.134042 -0.490924
v 19.670313 0.944458 1.986801
v 19.670313 0.944458 1.986801
v 19.670313 2.134042 -0.490924
v 19.670313 -0.009677 2.205281
v 19.670313 -0.009677 2.205281
v 19.670313 2.134042 -0.490924
v 19.670313 -0.963856 1.986981
v 19.670313 -0.963856 1.986981
v 19.670313 2.134042 -0.490924
v 19.670313 -1.729087 1.375133
v 19.670313 -1.729087 1.375133
v 19.670313 2.134042 -0.490924
v 19.670313 -2.153811 0.490924
v 19.670313 -2.153811 0.490924
v 19.670313 2.134042 -0.490924
v 19.670313 -2.153902 -0.490520
v 19.670313 -2.153902 -0.490520
v 19.670313 2.134042 -0.490924
v 19.670313 -1.729346 -1.374808
v 19.670313 -1.729346 -1.374808
v 19.670313 2.134042 -0.490924
v 19.670313 -0.964227 -1.986801
v 19.670313 2.134042 -0.490924
v 19.670313 1.709318 -1.375133
v 19.670313 -0.964227 -1.986801
v 19.670313 -0.964227 -1.986801
v 19.670313 1.709318 -1.375133
v 19.670313 -0.010091 -2.205281
v 19.670313 -0.010091 -2.205281
v 19.670313 1.709318 -1.375133
v 19.670313 0.944088 -1.986981
vt 0.018219 0.541260
vt 0.515625 0.526611
vt 0.018219 0.512207
vt 0.515625 0.594727
vt 0.515625 0.526611
vt 0.018219 0.541260
vt 0.018219 0.576172
vt 0.515625 0.594727
vt 0.018219 0.541260
vt 0.018219 0.613281
vt 0.515625 0.594727
vt 0.018219 0.576172
vt 0.515625 0.666504
vt 0.515625 0.594727
vt 0.018219 0.613281
vt 0.018219 0.647461
vt 0.515625 0.666504
vt 0.018219 0.613281
vt 0.018219 0.685791
vt 0.515625 0.666504
vt 0.018219 0.647461
vt 0.515625 0.731201
vt 0.515625 0.666504
vt 0.018219 0.685791
vt 0.018219 0.715088
vt 0.515625 0.731201
vt 0.018219 0.685791
vt 0.018219 0.747314
vt 0.515625 0.731201
vt 0.018219 0.715088
vt 0.515625 0.804688
vt 0.515625 0.731201
vt 0.018219 0.747314
vt 0.018219 0.785278
vt 0.515625 0.804688
vt 0.018219 0.747314
vt 0.018219 0.824219
vt 0.515625 0.804688
vt 0.018219 0.785278
vt 0.515625 0.874146
vt 0.515625 0.804688
vt 0.018219 0.824219
vt 0.018219 0.855835
vt 0.515625 0.874146
vt 0.018219 0.824219
vt 0.018219 0.892334
vt 0.515625 0.874146
vt 0.018219 0.855835
vt 0.515625 0.943817
vt 0.515625 0.874146
vt 0.018219 0.892334
vt 0.018219 0.929260
vt 0.515625 0.943817
vt 0.018219 0.892334
vt 0.018219 0.958435
vt 0.515625 0.943817
vt 0.018219 0.929260
vt 0.515625 0.990814
vt 0.515625 0.943817
vt 0.018219 0.958435
vt 0.018219 0.990814
vt 0.515625 0.990814
vt 0.018219 0.958435
vt 0.823730 0.989189
vt 0.926758 0.965668
vt 0.741211 0.923279
vt 0.741211 0.923279
vt 0.926758 0.965668
vt 0.741211 0.817505
vt 0.741211 0.817505
vt 0.926758 0.965668
vt 0.823730 0.751587
vt 0.823730 0.751587
vt 0.926758 0.965668
vt 0.926758 0.775146
vt 0.926758 0.775146
vt 0.926758 0.965668
vt 0.972656 0.870483
vt 0.551270 0.993633
vt 0.714355 0.993633
vt 0.551270 0.938477
vt 0.714355 0.993633
vt 0.714355 0.938477
vt 0.551270 0.938477
vt 0.551270 0.938477
vt 0.714355 0.938477
vt 0.551270 0.874146
vt 0.714355 0.938477
vt 0.714355 0.874146
vt 0.551270 0.874146
vt 0.551270 0.874146
vt 0.714355 0.874146
vt 0.551270 0.802002
vt 0.714355 0.874146
vt 0.714355 0.802002
vt 0.551270 0.802002
vt 0.551270 0.802002
vt 0.714355 0.802002
vt 0.551270 0.731201
vt 0.714355 0.802002
vt 0.714355 0.731201
vt 0.551270 0.731201
vt 0.551270 0.731201
vt 0.714355 0.731201
vt 0.551270 0.662598
vt 0.714355 0.731201
vt 0.714355 0.662598
vt 0.551270 0.662598
vt 0.551270 0.662598
vt 0.714355 0.662598
vt 0.551270 0.594727
vt 0.714355 0.662598
vt 0.714355 0.594727
vt 0.551270 0.594727
vt 0.551270 0.594727
vt 0.714355 0.594727
vt 0.551270 0.531982
vt 0.714355 0.594727
vt 0.714355 0.531982
vt 0.551270 0.531982
vt 0.515625 0.990814
vt 0.551270 0.993633
vt 0.515625 0.943817
vt 0.551270 0.993633
vt 0.551270 0.938477
vt 0.515625 0.943817
vt 0.515625 0.943817
vt 0.551270 0.938477
vt 0.551270 0.874146
vt 0.515625 0.874146
vt 0.515625 0.943817
vt 0.551270 0.874146
vt 0.515625 0.874146
vt 0.551270 0.874146
vt 0.515625 0.804688
vt 0.551270 0.874146
vt 0.551270 0.802002
vt 0.515625 0.804688
vt 0.515625 0.804688
vt 0.551270 0.802002
vt 0.515625 0.731201
vt 0.551270 0.802002
vt 0.551270 0.731201
vt 0.515625 0.731201
vt 0.515625 0.731201
vt 0.551270 0.731201
vt 0.515625 0.666504
vt 0.551270 0.731201
vt 0.551270 0.662598
vt 0.515625 0.666504
vt 0.515625 0.666504
vt 0.551270 0.662598
vt 0.515625 0.594727
vt 0.551270 0.662598
vt 0.551270 0.594727
vt 0.515625 0.594727
vt 0.515625 0.594727
vt 0.551270 0.594727
vt 0.551270 0.531982
vt 0.515625 0.526611
vt 0.515625 0.594727
vt 0.551270 0.531982
vt 0.825195 0.726074
vt 0.875000 0.737305
vt 0.785645 0.694336
vt 0.785645 0.694336
vt 0.875000 0.737305
vt 0.763672 0.648438
vt 0.763672 0.648438
vt 0.875000 0.737305
vt 0.763672 0.597656
vt 0.763672 0.597656
vt 0.875000 0.737305
vt 0.785645 0.552002
vt 0.785645 0.552002
vt 0.875000 0.737305
vt 0.825195 0.520264
vt 0.825195 0.520264
vt 0.875000 0.737305
vt 0.875000 0.509033
vt 0.875000 0.509033
vt 0.875000 0.737305
vt 0.924316 0.520264
vt 0.924316 0.520264
vt 0.875000 0.737305
vt 0.964355 0.552002
vt 0.964355 0.552002
vt 0.875000 0.737305
vt 0.986328 0.597656
vt 0.875000 0.737305
vt 0.924316 0.726074
vt 0.986328 0.597656
vt 0.986328 0.597656
vt 0.924316 0.726074
vt 0.986328 0.648438
vt 0.986328 0.648438
vt 0.924316 0.726074
vt 0.964355 0.694336
vn -0.001957 0.448141 -0.894325
vn -0.005871 0.221135 -0.974560
vn -0.001957 -0.019569 -1.000000
vn -0.009785 0.906067 -0.424658
vn -0.005871 0.221135 -0.974560
vn -0.001957 0.448141 -0.894325
vn -0.005871 0.790607 -0.610568
vn -0.009785 0.906067 -0.424658
vn -0.001957 0.448141 -0.894325
vn -0.007828 0.974560 -0.221135
vn -0.009785 0.906067 -0.424658
vn -0.005871 0.790607 -0.610568
vn -0.009785 0.906067 0.424658
vn -0.009785 0.906067 -0.424658
vn -0.007828 0.974560 -0.221135
vn -0.007828 0.974560 0.221135
vn -0.009785 0.906067 0.424658
vn -0.007828 0.974560 -0.221135
vn -0.005871 0.792564 0.610568
vn -0.009785 0.906067 0.424658
vn -0.007828 0.974560 0.221135
vn -0.005871 0.221135 0.974560
vn -0.009785 0.906067 0.424658
vn -0.005871 0.792564 0.610568
vn -0.001957 0.448141 0.894325
vn -0.005871 0.221135 0.974560
vn -0.005871 0.792564 0.610568
vn -0.001957 -0.017613 1.000000
vn -0.005871 0.221135 0.974560
vn -0.001957 0.448141 0.894325
vn -0.009785 -0.634051 0.772994
vn -0.005871 0.221135 0.974560
vn -0.001957 -0.017613 1.000000
vn -0.005871 -0.452055 0.892368
vn -0.009785 -0.634051 0.772994
vn -0.001957 -0.017613 1.000000
vn -0.007828 -0.782779 0.622309
vn -0.009785 -0.634051 0.772994
vn -0.005871 -0.452055 0.892368
vn -0.011742 -1.000000 0.000000
vn -0.009785 -0.634051 0.772994
vn -0.007828 -0.782779 0.622309
vn -0.007828 -0.974560 0.221135
vn -0.011742 -1.000000 0.000000
vn -0.007828 -0.782779 0.622309
vn -0.007828 -0.974560 -0.221135
vn -0.011742 -1.000000 0.000000
vn -0.007828 -0.974560 0.221135
vn -0.009785 -0.634051 -0.772994
vn -0.011742 -1.000000 0.000000
vn -0.007828 -0.974560 -0.221135
vn -0.007828 -0.782779 -0.622309
vn -0.009785 -0.634051 -0.772994
vn -0.007828 -0.974560 -0.221135
vn -0.005871 -0.452055 -0.892368
vn -0.009785 -0.634051 -0.772994
vn -0.007828 -0.782779 -0.622309
vn -0.005871 0.221135 -0.974560
vn -0.009785 -0.634051 -0.772994
vn -0.005871 -0.452055 -0.892368
vn -0.001957 -0.019569 -1.000000
vn -0.005871 0.221135 -0.974560
vn -0.005871 -0.452055 -0.892368
vn -1.000000 0.000000 0.000000
vn -1.000000 0.000000 0.000000
vn -1.000000 0.000000 0.000000
vn -1.000000 0.000000 0.000000
vn -1.000000 0.000000 0.000000
vn -1.000000 0.000000 0.000000
vn -1.000000 0.000000 0.000000
vn -1.000000 0.000000 0.000000
vn -1.000000 0.000000 0.000000
vn -1.000000 0.000000 0.000000
vn -1.000000 0.000000 0.000000
vn -1.000000 0.000000 0.000000
vn -1.000000 0.000000 0.000000
vn -1.000000 0.000000 0.000000
vn -1.000000 0.000000 0.000000
vn 0.000000 0.223092 -0.974560
vn 0.000000 0.223092 -0.974560
vn 0.000000 -0.624266 -0.780822
vn 0.000000 0.223092 -0.974560
vn 0.000000 -0.624266 -0.780822
vn 0.000000 -0.624266 -0.780822
vn 0.000000 -0.624266 -0.780822
vn 0.000000 -0.624266 -0.780822
vn 0.000000 -1.000000 0.000000
vn 0.000000 -0.624266 -0.780822
vn 0.000000 -1.000000 0.000000
vn 0.000000 -1.000000 0.000000
vn 0.000000 -1.000000 0.000000
vn 0.000000 -1.000000 0.000000
vn 0.000000 -0.624266 0.780822
vn 0.000000 -1.000000 0.000000
vn 0.000000 -0.624266 0.780822
vn 0.000000 -0.624266 0.780822
vn 0.000000 -0.624266 0.780822
vn 0.000000 -0.624266 0.780822
vn 0.000000 0.223092 0.974560
vn 0.000000 -0.624266 0.780822
vn 0.000000 0.223092 0.974560
vn 0.000000 0.223092 0.974560
vn 0.000000 0.223092 0.974560
vn 0.000000 0.223092 0.974560
vn 0.000000 0.902153 0.432485
vn 0.000000 0.223092 0.974560
vn 0.000000 0.902153 0.432485
vn 0.000000 0.902153 0.432485
vn 0.000000 0.902153 0.432485
vn 0.000000 0.902153 0.432485
vn 0.000000 0.902153 -0.432485
vn 0.000000 0.902153 0.432485
vn 0.000000 0.902153 -0.432485
vn 0.000000 0.902153 -0.432485
vn 0.000000 0.902153 -0.432485
vn 0.000000 0.902153 -0.432485
vn 0.000000 0.223092 -0.974560
vn 0.000000 0.902153 -0.432485
vn 0.000000 0.223092 -0.974560
vn 0.000000 0.223092 -0.974560
vn 0.277887 0.211350 -0.937378
vn 0.277887 0.211350 -0.937378
vn 0.289628 -0.604697 -0.741683
vn 0.277887 0.211350 -0.937378
vn 0.289628 -0.604697 -0.741683
vn 0.289628 -0.604697 -0.741683
vn 0.289628 -0.604697 -0.741683
vn 0.289628 -0.604697 -0.741683
vn 0.313112 -0.949119 0.000000
vn 0.313112 -0.949119 0.000000
vn 0.289628 -0.604697 -0.741683
vn 0.313112 -0.949119 0.000000
vn 0.313112 -0.949119 0.000000
vn 0.313112 -0.949119 0.000000
vn 0.289628 -0.604697 0.741683
vn 0.313112 -0.949119 0.000000
vn 0.289628 -0.604697 0.741683
vn 0.289628 -0.604697 0.741683
vn 0.289628 -0.604697 0.741683
vn 0.289628 -0.604697 0.741683
vn 0.277887 0.211350 0.937378
vn 0.289628 -0.604697 0.741683
vn 0.277887 0.211350 0.937378
vn 0.277887 0.211350 0.937378
vn 0.277887 0.211350 0.937378
vn 0.277887 0.211350 0.937378
vn 0.301370 0.863014 0.407045
vn 0.277887 0.211350 0.937378
vn 0.301370 0.863014 0.407045
vn 0.301370 0.863014 0.407045
vn 0.301370 0.863014 0.407045
vn 0.301370 0.863014 0.407045
vn 0.301370 0.863014 -0.407045
vn 0.301370 0.863014 0.407045
vn 0.301370 0.863014 -0.407045
vn 0.301370 0.863014 -0.407045
vn 0.301370 0.863014 -0.407045
vn 0.301370 0.863014 -0.407045
vn 0.277887 0.211350 -0.937378
vn 0.277887 0.211350 -0.937378
vn 0.301370 0.863014 -0.407045
vn 0.277887 0.211350 -0.937378
vn 1.000000 0.000000 0.000000
vn 1.000000 0.000000 0.000000
vn 1.000000 0.000000 0.000000
vn 1.000000 0.000000 0.000000
vn 1.000000 0.000000 0.000000
vn 1.000000 0.000000 0.000000
vn 1.000000 0.000000 0.000000
vn 1.000000 0.000000 0.000000
vn 1.000000 0.000000 0.000000
vn 1.000000 0.000000 0.000000
vn 1.000000 0.000000 0.000000
vn 1.000000 0.000000 0.000000
vn 1.000000 0.000000 0.000000
vn 1.000000 0.000000 0.000000
vn 1.000000 0.000000 0.000000
vn 1.000000 0.000000 0.000000
vn 1.000000 0.000000 0.000000
vn 1.000000 0.000000 0.000000
vn 1.000000 0.000000 0.000000
vn 1.000000 0.000000 0.000000
vn 1.000000 0.000000 0.000000
vn 1.000000 0.000000 0.000000
vn 1.000000 0.000000 0.000000
vn 1.000000 0.000000 0.000000
vn 1.000000 0.000000 0.000000
vn 1.000000 0.000000 0.000000
vn 1.000000 0.000000 0.000000
vn 1.000000 0.000000 0.000000
vn 1.000000 0.000000 0.000000
vn 1.000000 0.000000 0.000000
vn 1.000000 0.000000 0.000000
vn 1.000000 0.000000 0.000000
vn 1.000000 0.000000 0.000000
vn 1.000000 0.000000 0.000000
vn 1.000000 0.000000 0.000000
vn 1.000000 0.000000 0.000000
mtllib mtl_t6_attach_rus_silencer.mtl
g mtl_t6_attach_rus_silencer
usemtl mtl_t6_attach_rus_silencer
f 3/3/3 2/2/2 1/1/1
f 6/6/6 5/5/5 4/4/4
f 9/9/9 8/8/8 7/7/7
f 12/12/12 11/11/11 10/10/10
f 15/15/15 14/14/14 13/13/13
f 18/18/18 17/17/17 16/16/16
f 21/21/21 20/20/20 19/19/19
f 24/24/24 23/23/23 22/22/22
f 27/27/27 26/26/26 25/25/25
f 30/30/30 29/29/29 28/28/28
f 33/33/33 32/32/32 31/31/31
f 36/36/36 35/35/35 34/34/34
f 39/39/39 38/38/38 37/37/37
f 42/42/42 41/41/41 40/40/40
f 45/45/45 44/44/44 43/43/43
f 48/48/48 47/47/47 46/46/46
f 51/51/51 50/50/50 49/49/49
f 54/54/54 53/53/53 52/52/52
f 57/57/57 56/56/56 55/55/55
f 60/60/60 59/59/59 58/58/58
f 63/63/63 62/62/62 61/61/61
f 66/66/66 65/65/65 64/64/64
f 69/69/69 68/68/68 67/67/67
f 72/72/72 71/71/71 70/70/70
f 75/75/75 74/74/74 73/73/73
f 78/78/78 77/77/77 76/76/76
f 81/81/81 80/80/80 79/79/79
f 84/84/84 83/83/83 82/82/82
f 87/87/87 86/86/86 85/85/85
f 90/90/90 89/89/89 88/88/88
f 93/93/93 92/92/92 91/91/91
f 96/96/96 95/95/95 94/94/94
f 99/99/99 98/98/98 97/97/97
f 102/102/102 101/101/101 100/100/100
f 105/105/105 104/104/104 103/103/103
f 108/108/108 107/107/107 106/106/106
f 111/111/111 110/110/110 109/109/109
f 114/114/114 113/113/113 112/112/112
f 117/117/117 116/116/116 115/115/115
f 120/120/120 119/119/119 118/118/118
f 123/123/123 122/122/122 121/121/121
f 126/126/126 125/125/125 124/124/124
f 129/129/129 128/128/128 127/127/127
f 132/132/132 131/131/131 130/130/130
f 135/135/135 134/134/134 133/133/133
f 138/138/138 137/137/137 136/136/136
f 141/141/141 140/140/140 139/139/139
f 144/144/144 143/143/143 142/142/142
f 147/147/147 146/146/146 145/145/145
f 150/150/150 149/149/149 148/148/148
f 153/153/153 152/152/152 151/151/151
f 156/156/156 155/155/155 154/154/154
f 159/159/159 158/158/158 157/157/157
f 162/162/162 161/161/161 160/160/160
f 165/165/165 164/164/164 163/163/163
f 168/168/168 167/167/167 166/166/166
f 171/171/171 170/170/170 169/169/169
f 174/174/174 173/173/173 172/172/172
f 177/177/177 176/176/176 175/175/175
f 180/180/180 179/179/179 178/178/178
f 183/183/183 182/182/182 181/181/181
f 186/186/186 185/185/185 184/184/184
f 189/189/189 188/188/188 187/187/187
f 192/192/192 191/191/191 190/190/190
f 195/195/195 194/194/194 193/193/193
f 198/198/198 197/197/197 196/196/196
