# Generated by Wraith - Game extraction tools
# Please credit DTZxPorter for using it!

v 24.319040 0.000000 -3.115198
v 24.319040 -1.351633 -2.806695
v 24.319040 1.351633 -2.806695
v 24.319040 1.351633 -2.806695
v 24.319040 -1.351633 -2.806695
v 24.319040 2.435558 -1.942295
v 24.319040 2.435558 -1.942295
v 24.319040 -1.351633 -2.806695
v 24.319040 3.037093 -0.693196
v 24.319040 3.037093 -0.693196
v 24.319040 -1.351633 -2.806695
v 24.319040 3.037093 0.693196
v 24.319040 3.037093 0.693196
v 24.319040 -1.351633 -2.806695
v 24.319040 2.435560 1.942295
v 24.319040 2.435560 1.942295
v 24.319040 -1.351633 -2.806695
v 24.319040 1.351633 2.806695
v 24.319040 1.351633 2.806695
v 24.319040 -1.351633 -2.806695
v 24.319040 0.000000 3.115198
v 24.319040 0.000000 3.115198
v 24.319040 -1.351633 -2.806695
v 24.319040 -1.351633 2.806697
v 24.319040 -1.351633 2.806697
v 24.319040 -1.351633 -2.806695
v 24.319040 -2.435558 1.942295
v 24.319040 -2.435558 1.942295
v 24.319040 -1.351633 -2.806695
v 24.319040 -3.037093 0.693196
v 24.319040 -3.037093 0.693196
v 24.319040 -1.351633 -2.806695
v 24.319040 -3.037093 -0.693196
v 24.319040 -3.037093 -0.693196
v 24.319040 -1.351633 -2.806695
v 24.319040 -2.435560 -1.942292
v 24.319040 -1.351633 -2.806695
v 24.319040 0.000000 -3.115198
v 4.215981 0.675815 -2.960947
v 4.215981 -1.893595 -2.374494
v 24.319040 -1.351633 -2.806695
v 4.215981 0.675815 -2.960947
v 4.215981 -1.893595 -2.374494
v 24.319040 -2.435560 -1.942292
v 24.319040 -1.351633 -2.806695
v 24.319040 -3.037093 -0.693196
v 24.319040 -2.435560 -1.942292
v 4.215981 -1.893595 -2.374494
v 4.215981 -3.037093 0.000000
v 24.319040 -3.037093 -0.693196
v 4.215981 -1.893595 -2.374494
v 4.215981 -3.037093 0.000000
v 24.319040 -3.037093 0.693196
v 24.319040 -3.037093 -0.693196
v 24.319040 -2.435558 1.942295
v 24.319040 -3.037093 0.693196
v 4.215981 -3.037093 0.000000
v 4.215981 0.675815 -2.960947
v 0.000003 0.421272 -1.845714
v 4.215981 -1.893595 -2.374494
v 0.000003 0.421272 -1.845714
v 0.000003 -1.180379 -1.480147
v 4.215981 -1.893595 -2.374494
v 4.215981 -1.893595 -2.374494
v 0.000003 -1.180379 -1.480147
v 4.215981 -3.037093 0.000000
v 0.000003 -1.180379 -1.480147
v 0.000003 -1.893179 0.000000
v 4.215981 -3.037093 0.000000
v 4.215981 -3.037093 0.000000
v 0.000003 -1.893179 0.000000
v 4.215981 -1.893595 2.374496
v 4.215981 -1.893595 2.374496
v 24.319040 -2.435558 1.942295
v 4.215981 -3.037093 0.000000
v 4.215981 -1.893595 2.374496
v 24.319040 -1.351633 2.806697
v 24.319040 -2.435558 1.942295
v 24.319040 0.000000 3.115198
v 24.319040 -1.351633 2.806697
v 4.215981 -1.893595 2.374496
v 4.215981 0.675818 2.960947
v 24.319040 0.000000 3.115198
v 4.215981 -1.893595 2.374496
v 4.215981 0.675818 2.960947
v 24.319040 1.351633 2.806695
v 24.319040 0.000000 3.115198
v 24.319040 2.435560 1.942295
v 24.319040 1.351633 2.806695
v 4.215981 0.675818 2.960947
v 0.000003 -1.893179 0.000000
v 0.000003 -1.180379 1.480147
v 4.215981 -1.893595 2.374496
v 4.215981 -1.893595 2.374496
v 0.000003 -1.180379 1.480147
v 4.215981 0.675818 2.960947
v 0.000003 -1.180379 1.480147
v 0.000003 0.421272 1.845714
v 4.215981 0.675818 2.960947
v 4.215981 0.675818 2.960947
v 0.000003 0.421272 1.845714
v 4.215981 2.736327 1.317744
v 4.215981 2.736327 1.317744
v 24.319040 2.435560 1.942295
v 4.215981 0.675818 2.960947
v 4.215981 2.736327 1.317744
v 24.319040 3.037093 0.693196
v 24.319040 2.435560 1.942295
v 24.319040 3.037093 -0.693196
v 24.319040 3.037093 0.693196
v 4.215981 2.736327 1.317744
v 4.215981 2.736327 -1.317744
v 24.319040 3.037093 -0.693196
v 4.215981 2.736327 1.317744
v 4.215981 2.736327 -1.317744
v 24.319040 2.435558 -1.942295
v 24.319040 3.037093 -0.693196
v 24.319040 1.351633 -2.806695
v 24.319040 2.435558 -1.942295
v 4.215981 2.736327 -1.317744
v 0.000003 0.421272 1.845714
v 0.000003 1.705696 0.821421
v 4.215981 2.736327 1.317744
v 4.215981 2.736327 1.317744
v 0.000003 1.705696 0.821421
v 4.215981 2.736327 -1.317744
v 0.000003 1.705696 0.821421
v 0.000003 1.705696 -0.821418
v 4.215981 2.736327 -1.317744
v 4.215981 2.736327 -1.317744
v 0.000003 1.705696 -0.821418
v 4.215981 0.675815 -2.960947
v 4.215981 0.675815 -2.960947
v 24.319040 1.351633 -2.806695
v 4.215981 2.736327 -1.317744
v 4.215981 0.675815 -2.960947
v 24.319040 0.000000 -3.115198
v 24.319040 1.351633 -2.806695
v 0.000003 1.705696 -0.821418
v 0.000003 0.421272 -1.845714
v 4.215981 0.675815 -2.960947
v 0.000003 0.421272 -1.845714
v 0.000003 1.705696 -0.821418
v 0.000003 -1.180379 -1.480147
v 0.000003 -1.180379 -1.480147
v 0.000003 1.705696 -0.821418
v 0.000003 -1.893179 0.000000
v 0.000003 -1.893179 0.000000
v 0.000003 1.705696 -0.821418
v 0.000003 -1.180379 1.480147
v 0.000003 -1.180379 1.480147
v 0.000003 1.705696 -0.821418
v 0.000003 0.421272 1.845714
v 0.000003 0.421272 1.845714
v 0.000003 1.705696 -0.821418
v 0.000003 1.705696 0.821421
vt 0.907227 0.323730
vt 0.873535 0.331543
vt 0.940918 0.331543
vt 0.940918 0.331543
vt 0.873535 0.331543
vt 0.967773 0.353027
vt 0.967773 0.353027
vt 0.873535 0.331543
vt 0.982422 0.383789
vt 0.982422 0.383789
vt 0.873535 0.331543
vt 0.982422 0.418457
vt 0.982422 0.418457
vt 0.873535 0.331543
vt 0.967773 0.449219
vt 0.967773 0.449219
vt 0.873535 0.331543
vt 0.940918 0.470703
vt 0.940918 0.470703
vt 0.873535 0.331543
vt 0.907227 0.478516
vt 0.907227 0.478516
vt 0.873535 0.331543
vt 0.873535 0.470703
vt 0.873535 0.470703
vt 0.873535 0.331543
vt 0.846680 0.449219
vt 0.846680 0.449219
vt 0.873535 0.331543
vt 0.831543 0.418457
vt 0.831543 0.418457
vt 0.873535 0.331543
vt 0.831543 0.383789
vt 0.831543 0.383789
vt 0.873535 0.331543
vt 0.846680 0.353027
vt 0.012085 0.457520
vt 0.012085 0.488770
vt 0.547363 0.488770
vt 0.547363 0.439941
vt 0.012085 0.457520
vt 0.547363 0.488770
vt 0.547363 0.439941
vt 0.012085 0.422363
vt 0.012085 0.457520
vt 0.012085 0.391602
vt 0.012085 0.422363
vt 0.547363 0.439941
vt 0.547363 0.375000
vt 0.012085 0.391602
vt 0.547363 0.439941
vt 0.547363 0.375000
vt 0.012085 0.357910
vt 0.012085 0.391602
vt 0.012085 0.325195
vt 0.012085 0.357910
vt 0.547363 0.375000
vt 0.547363 0.488770
vt 0.779785 0.467285
vt 0.547363 0.439941
vt 0.779785 0.467285
vt 0.779785 0.423340
vt 0.547363 0.439941
vt 0.547363 0.439941
vt 0.779785 0.423340
vt 0.547363 0.375000
vt 0.779785 0.423340
vt 0.779785 0.364258
vt 0.547363 0.375000
vt 0.547363 0.375000
vt 0.779785 0.364258
vt 0.547363 0.305664
vt 0.547363 0.305664
vt 0.012085 0.325195
vt 0.547363 0.375000
vt 0.547363 0.305664
vt 0.012085 0.286621
vt 0.012085 0.325195
vt 0.012085 0.251953
vt 0.012085 0.286621
vt 0.547363 0.305664
vt 0.547363 0.235840
vt 0.012085 0.251953
vt 0.547363 0.305664
vt 0.547363 0.235840
vt 0.012085 0.219238
vt 0.012085 0.251953
vt 0.012085 0.184570
vt 0.012085 0.219238
vt 0.547363 0.235840
vt 0.779785 0.364258
vt 0.779785 0.301270
vt 0.547363 0.305664
vt 0.547363 0.305664
vt 0.779785 0.301270
vt 0.547363 0.235840
vt 0.779785 0.301270
vt 0.779785 0.237793
vt 0.547363 0.235840
vt 0.547363 0.235840
vt 0.779785 0.237793
vt 0.547363 0.169922
vt 0.547363 0.169922
vt 0.012085 0.184570
vt 0.547363 0.235840
vt 0.547363 0.169922
vt 0.012085 0.155273
vt 0.012085 0.184570
vt 0.012085 0.117188
vt 0.012085 0.155273
vt 0.547363 0.169922
vt 0.547363 0.099609
vt 0.012085 0.117188
vt 0.547363 0.169922
vt 0.547363 0.099609
vt 0.012085 0.082520
vt 0.012085 0.117188
vt 0.012085 0.045410
vt 0.012085 0.082520
vt 0.547363 0.099609
vt 0.779785 0.237793
vt 0.779785 0.178223
vt 0.547363 0.169922
vt 0.547363 0.169922
vt 0.779785 0.178223
vt 0.547363 0.099609
vt 0.779785 0.178223
vt 0.779785 0.114746
vt 0.547363 0.099609
vt 0.547363 0.099609
vt 0.779785 0.114746
vt 0.547363 0.028809
vt 0.547363 0.028809
vt 0.012085 0.045410
vt 0.547363 0.099609
vt 0.547363 0.028809
vt 0.012085 0.012207
vt 0.012085 0.045410
vt 0.779785 0.114746
vt 0.779785 0.050293
vt 0.547363 0.028809
vt 0.923828 0.294434
vt 0.979004 0.250488
vt 0.854492 0.278809
vt 0.854492 0.278809
vt 0.979004 0.250488
vt 0.824219 0.214844
vt 0.824219 0.214844
vt 0.979004 0.250488
vt 0.854492 0.151367
vt 0.854492 0.151367
vt 0.979004 0.250488
vt 0.923828 0.135742
vt 0.923828 0.135742
vt 0.979004 0.250488
vt 0.979004 0.179688
vn 1.000000 0.000000 0.000000
vn 1.000000 0.000000 0.000000
vn 1.000000 0.000000 0.000000
vn 1.000000 0.000000 0.000000
vn 1.000000 0.000000 0.000000
vn 1.000000 0.000000 0.000000
vn 1.000000 0.000000 0.000000
vn 1.000000 0.000000 0.000000
vn 1.000000 0.000000 0.000000
vn 1.000000 0.000000 0.000000
vn 1.000000 0.000000 0.000000
vn 1.000000 0.000000 0.000000
vn 1.000000 0.000000 0.000000
vn 1.000000 0.000000 0.000000
vn 1.000000 0.000000 0.000000
vn 1.000000 0.000000 0.000000
vn 1.000000 0.000000 0.000000
vn 1.000000 0.000000 0.000000
vn 1.000000 0.000000 0.000000
vn 1.000000 0.000000 0.000000
vn 1.000000 0.000000 0.000000
vn 1.000000 0.000000 0.000000
vn 1.000000 0.000000 0.000000
vn 1.000000 0.000000 0.000000
vn 1.000000 0.000000 0.000000
vn 1.000000 0.000000 0.000000
vn 1.000000 0.000000 0.000000
vn 1.000000 0.000000 0.000000
vn 1.000000 0.000000 0.000000
vn 1.000000 0.000000 0.000000
vn 1.000000 0.000000 0.000000
vn 1.000000 0.000000 0.000000
vn 1.000000 0.000000 0.000000
vn 1.000000 0.000000 0.000000
vn 1.000000 0.000000 0.000000
vn 1.000000 0.000000 0.000000
vn -0.007828 -0.434442 -0.900196
vn -0.007828 0.000000 -1.000000
vn -0.109589 0.221135 -0.968689
vn -0.109589 -0.620352 -0.776908
vn -0.007828 -0.434442 -0.900196
vn -0.109589 0.221135 -0.968689
vn -0.109589 -0.620352 -0.776908
vn -0.007828 -0.782779 -0.624266
vn -0.007828 -0.434442 -0.900196
vn -0.007828 -0.974560 -0.223092
vn -0.007828 -0.782779 -0.624266
vn -0.109589 -0.620352 -0.776908
vn -0.109589 -0.994129 0.000000
vn -0.007828 -0.974560 -0.223092
vn -0.109589 -0.620352 -0.776908
vn -0.109589 -0.994129 0.000000
vn -0.007828 -0.974560 0.223092
vn -0.007828 -0.974560 -0.223092
vn -0.007828 -0.780822 0.624266
vn -0.007828 -0.974560 0.223092
vn -0.109589 -0.994129 0.000000
vn -0.109589 0.221135 -0.968689
vn -0.262231 0.215264 -0.941292
vn -0.109589 -0.620352 -0.776908
vn -0.262231 0.215264 -0.941292
vn -0.262231 -0.600783 -0.755382
vn -0.109589 -0.620352 -0.776908
vn -0.109589 -0.620352 -0.776908
vn -0.262231 -0.600783 -0.755382
vn -0.109589 -0.994129 0.000000
vn -0.262231 -0.600783 -0.755382
vn -0.262231 -0.964775 0.000000
vn -0.109589 -0.994129 0.000000
vn -0.109589 -0.994129 0.000000
vn -0.262231 -0.964775 0.000000
vn -0.109589 -0.620352 0.776908
vn -0.109589 -0.620352 0.776908
vn -0.007828 -0.780822 0.624266
vn -0.109589 -0.994129 0.000000
vn -0.109589 -0.620352 0.776908
vn -0.007828 -0.434442 0.900196
vn -0.007828 -0.780822 0.624266
vn -0.007828 0.000000 1.000000
vn -0.007828 -0.434442 0.900196
vn -0.109589 -0.620352 0.776908
vn -0.109589 0.221135 0.968689
vn -0.007828 0.000000 1.000000
vn -0.109589 -0.620352 0.776908
vn -0.109589 0.221135 0.968689
vn -0.007828 0.434442 0.900196
vn -0.007828 0.000000 1.000000
vn -0.007828 0.782779 0.624266
vn -0.007828 0.434442 0.900196
vn -0.109589 0.221135 0.968689
vn -0.262231 -0.964775 0.000000
vn -0.262231 -0.600783 0.755382
vn -0.109589 -0.620352 0.776908
vn -0.109589 -0.620352 0.776908
vn -0.262231 -0.600783 0.755382
vn -0.109589 0.221135 0.968689
vn -0.262231 -0.600783 0.755382
vn -0.262231 0.215264 0.941292
vn -0.109589 0.221135 0.968689
vn -0.109589 0.221135 0.968689
vn -0.262231 0.215264 0.941292
vn -0.109589 0.896282 0.430528
vn -0.109589 0.896282 0.430528
vn -0.007828 0.782779 0.624266
vn -0.109589 0.221135 0.968689
vn -0.109589 0.896282 0.430528
vn -0.007828 0.974560 0.223092
vn -0.007828 0.782779 0.624266
vn -0.007828 0.974560 -0.223092
vn -0.007828 0.974560 0.223092
vn -0.109589 0.896282 0.430528
vn -0.109589 0.896282 -0.430528
vn -0.007828 0.974560 -0.223092
vn -0.109589 0.896282 0.430528
vn -0.109589 0.896282 -0.430528
vn -0.007828 0.782779 -0.624266
vn -0.007828 0.974560 -0.223092
vn -0.007828 0.434442 -0.900196
vn -0.007828 0.782779 -0.624266
vn -0.109589 0.896282 -0.430528
vn -0.262231 0.215264 0.941292
vn -0.262231 0.868885 0.418787
vn -0.109589 0.896282 0.430528
vn -0.109589 0.896282 0.430528
vn -0.262231 0.868885 0.418787
vn -0.109589 0.896282 -0.430528
vn -0.262231 0.868885 0.418787
vn -0.262231 0.868885 -0.418787
vn -0.109589 0.896282 -0.430528
vn -0.109589 0.896282 -0.430528
vn -0.262231 0.868885 -0.418787
vn -0.109589 0.221135 -0.968689
vn -0.109589 0.221135 -0.968689
vn -0.007828 0.434442 -0.900196
vn -0.109589 0.896282 -0.430528
vn -0.109589 0.221135 -0.968689
vn -0.007828 0.000000 -1.000000
vn -0.007828 0.434442 -0.900196
vn -0.262231 0.868885 -0.418787
vn -0.262231 0.215264 -0.941292
vn -0.109589 0.221135 -0.968689
vn -1.000000 0.000000 0.000000
vn -1.000000 0.000000 0.000000
vn -1.000000 0.000000 0.000000
vn -1.000000 0.000000 0.000000
vn -1.000000 0.000000 0.000000
vn -1.000000 0.000000 0.000000
vn -1.000000 0.000000 0.000000
vn -1.000000 0.000000 0.000000
vn -1.000000 0.000000 0.000000
vn -1.000000 0.000000 0.000000
vn -1.000000 0.000000 0.000000
vn -1.000000 0.000000 0.000000
vn -1.000000 0.000000 0.000000
vn -1.000000 0.000000 0.000000
vn -1.000000 0.000000 0.000000
mtllib mtl_t6_attach_sniper_silencer1.mtl
g mtl_t6_attach_sniper_silencer1
usemtl mtl_t6_attach_sniper_silencer1
f 3/3/3 2/2/2 1/1/1
f 6/6/6 5/5/5 4/4/4
f 9/9/9 8/8/8 7/7/7
f 12/12/12 11/11/11 10/10/10
f 15/15/15 14/14/14 13/13/13
f 18/18/18 17/17/17 16/16/16
f 21/21/21 20/20/20 19/19/19
f 24/24/24 23/23/23 22/22/22
f 27/27/27 26/26/26 25/25/25
f 30/30/30 29/29/29 28/28/28
f 33/33/33 32/32/32 31/31/31
f 36/36/36 35/35/35 34/34/34
f 39/39/39 38/38/38 37/37/37
f 42/42/42 41/41/41 40/40/40
f 45/45/45 44/44/44 43/43/43
f 48/48/48 47/47/47 46/46/46
f 51/51/51 50/50/50 49/49/49
f 54/54/54 53/53/53 52/52/52
f 57/57/57 56/56/56 55/55/55
f 60/60/60 59/59/59 58/58/58
f 63/63/63 62/62/62 61/61/61
f 66/66/66 65/65/65 64/64/64
f 69/69/69 68/68/68 67/67/67
f 72/72/72 71/71/71 70/70/70
f 75/75/75 74/74/74 73/73/73
f 78/78/78 77/77/77 76/76/76
f 81/81/81 80/80/80 79/79/79
f 84/84/84 83/83/83 82/82/82
f 87/87/87 86/86/86 85/85/85
f 90/90/90 89/89/89 88/88/88
f 93/93/93 92/92/92 91/91/91
f 96/96/96 95/95/95 94/94/94
f 99/99/99 98/98/98 97/97/97
f 102/102/102 101/101/101 100/100/100
f 105/105/105 104/104/104 103/103/103
f 108/108/108 107/107/107 106/106/106
f 111/111/111 110/110/110 109/109/109
f 114/114/114 113/113/113 112/112/112
f 117/117/117 116/116/116 115/115/115
f 120/120/120 119/119/119 118/118/118
f 123/123/123 122/122/122 121/121/121
f 126/126/126 125/125/125 124/124/124
f 129/129/129 128/128/128 127/127/127
f 132/132/132 131/131/131 130/130/130
f 135/135/135 134/134/134 133/133/133
f 138/138/138 137/137/137 136/136/136
f 141/141/141 140/140/140 139/139/139
f 144/144/144 143/143/143 142/142/142
f 147/147/147 146/146/146 145/145/145
f 150/150/150 149/149/149 148/148/148
f 153/153/153 152/152/152 151/151/151
f 156/156/156 155/155/155 154/154/154
