# Generated by Wraith - Game extraction tools
# Please credit DTZxPorter for using it!

v -0.000000 -0.240868 -0.054684
v 2.102028 -2.226292 0.901446
v 2.102028 -2.226292 -1.010813
v -0.000000 -0.240868 -0.054684
v 2.102028 -2.226292 -1.010813
v 2.102028 -0.731228 -2.203089
v -0.000000 -0.240868 -0.054684
v 2.102028 -0.731225 2.093722
v 2.102028 -2.226292 0.901446
v -0.000000 -0.240868 -0.054684
v 2.102028 1.133089 1.668203
v 2.102028 -0.731225 2.093722
v -0.000000 -0.240868 -0.054684
v 2.102028 1.962787 -0.054684
v 2.102028 1.133089 1.668203
v -0.000000 -0.240868 -0.054684
v 2.102028 1.133089 -1.777571
v 2.102028 1.962787 -0.054684
v -0.000000 -0.240868 -0.054684
v 2.102028 -0.731228 -2.203089
v 2.102028 1.133089 -1.777571
v 2.102028 -0.731228 -2.203089
v 21.470480 -0.731228 -2.203089
v 21.470480 0.263167 -2.213374
v 2.102028 1.133089 -1.777571
v 2.102028 -0.731228 -2.203089
v 21.470480 0.263167 -2.213374
v 21.470480 0.263167 -2.213374
v 21.470480 1.133089 -1.777571
v 2.102028 1.133089 -1.777571
v 2.102028 1.133089 -1.777571
v 21.470480 1.133089 -1.777571
v 21.470480 1.765391 -1.015393
v 2.102028 1.962787 -0.054684
v 2.102028 1.133089 -1.777571
v 21.470480 1.765391 -1.015393
v 21.470480 1.765391 -1.015393
v 21.470480 1.962787 -0.054684
v 2.102028 1.962787 -0.054684
v 21.470480 1.962787 -0.054684
v 21.470480 1.765391 0.906023
v 2.102028 1.962787 -0.054684
v 21.470480 1.765391 0.906023
v 2.102028 1.133089 1.668203
v 2.102028 1.962787 -0.054684
v 21.470480 1.765391 0.906023
v 21.470480 1.133089 1.668203
v 2.102028 1.133089 1.668203
v 2.102028 1.133089 1.668203
v 21.470480 1.133089 1.668203
v 21.470480 0.263167 2.104007
v 2.102028 -0.731225 2.093722
v 2.102028 1.133089 1.668203
v 21.470480 0.263167 2.104007
v 21.470480 0.263167 2.104007
v 21.470480 -0.731225 2.093722
v 2.102028 -0.731225 2.093722
v 2.102028 -0.731225 2.093722
v 21.470480 -0.731225 2.093722
v 21.470480 -1.610073 1.676453
v 2.102028 -2.226292 0.901446
v 2.102028 -0.731225 2.093722
v 21.470480 -1.610073 1.676453
v 21.470480 -1.610073 1.676453
v 21.470480 -2.226292 0.901446
v 2.102028 -2.226292 0.901446
v 2.102028 -2.226292 0.901446
v 21.470480 -2.226292 0.901446
v 21.470480 -2.443744 -0.054684
v 2.102028 -2.226292 -1.010813
v 2.102028 -2.226292 0.901446
v 21.470480 -2.443744 -0.054684
v 21.470480 -2.443744 -0.054684
v 21.470480 -2.226292 -1.010813
v 2.102028 -2.226292 -1.010813
v 21.470480 -2.226292 -1.010813
v 21.470480 -1.610073 -1.785821
v 2.102028 -2.226292 -1.010813
v 21.470480 -1.610073 -1.785821
v 2.102028 -0.731228 -2.203089
v 2.102028 -2.226292 -1.010813
v 21.470480 -1.610073 -1.785821
v 21.470480 -0.731228 -2.203089
v 2.102028 -0.731228 -2.203089
v 21.470480 0.263167 -2.213374
v 21.470480 -0.731228 -2.203089
v 21.470480 1.133089 -1.777571
v 21.470480 1.133089 -1.777571
v 21.470480 -0.731228 -2.203089
v 21.470480 1.765391 -1.015393
v 21.470480 1.765391 -1.015393
v 21.470480 -0.731228 -2.203089
v 21.470480 1.962787 -0.054684
v 21.470480 1.962787 -0.054684
v 21.470480 -0.731228 -2.203089
v 21.470480 1.765391 0.906023
v 21.470480 1.765391 0.906023
v 21.470480 -0.731228 -2.203089
v 21.470480 1.133089 1.668203
v 21.470480 1.133089 1.668203
v 21.470480 -0.731228 -2.203089
v 21.470480 0.263167 2.104007
v 21.470480 0.263167 2.104007
v 21.470480 -0.731228 -2.203089
v 21.470480 -0.731225 2.093722
v 21.470480 -0.731225 2.093722
v 21.470480 -0.731228 -2.203089
v 21.470480 -1.610073 1.676453
v 21.470480 -1.610073 1.676453
v 21.470480 -0.731228 -2.203089
v 21.470480 -2.226292 0.901446
v 21.470480 -2.226292 0.901446
v 21.470480 -0.731228 -2.203089
v 21.470480 -2.443744 -0.054684
v 21.470480 -2.443744 -0.054684
v 21.470480 -0.731228 -2.203089
v 21.470480 -2.226292 -1.010813
v 21.470480 -2.226292 -1.010813
v 21.470480 -0.731228 -2.203089
v 21.470480 -1.610073 -1.785821
vt 0.924316 0.143555
vt 0.965820 0.251465
vt 0.991211 0.143555
vt 0.924316 0.143555
vt 0.991211 0.143555
vt 0.965820 0.036133
vt 0.924316 0.143555
vt 0.909668 0.278320
vt 0.965820 0.251465
vt 0.924316 0.143555
vt 0.864746 0.203613
vt 0.909668 0.278320
vt 0.924316 0.143555
vt 0.864746 0.083984
vt 0.864746 0.203613
vt 0.924316 0.143555
vt 0.909668 0.009277
vt 0.864746 0.083984
vt 0.924316 0.143555
vt 0.965820 0.036133
vt 0.909668 0.009277
vt 0.677246 0.016602
vt 0.015602 0.016602
vt 0.015610 0.066895
vt 0.677246 0.116699
vt 0.677246 0.016602
vt 0.015610 0.066895
vt 0.015610 0.066895
vt 0.015610 0.116699
vt 0.677246 0.116699
vt 0.677246 0.116699
vt 0.015610 0.116699
vt 0.015610 0.183594
vt 0.677246 0.250000
vt 0.677246 0.116699
vt 0.015610 0.183594
vt 0.015610 0.183594
vt 0.015610 0.250000
vt 0.677246 0.250000
vt 0.015610 0.250000
vt 0.015610 0.316895
vt 0.677246 0.250000
vt 0.015610 0.316895
vt 0.677246 0.383301
vt 0.677246 0.250000
vt 0.015610 0.316895
vt 0.015610 0.383301
vt 0.677246 0.383301
vt 0.677246 0.383301
vt 0.015610 0.383301
vt 0.015610 0.452637
vt 0.677246 0.521484
vt 0.677246 0.383301
vt 0.015610 0.452637
vt 0.015610 0.452637
vt 0.015617 0.521484
vt 0.677246 0.521484
vt 0.677246 0.521484
vt 0.015617 0.521484
vt 0.015617 0.588379
vt 0.677246 0.655273
vt 0.677246 0.521484
vt 0.015617 0.588379
vt 0.015617 0.588379
vt 0.015617 0.655273
vt 0.677246 0.655273
vt 0.677246 0.655273
vt 0.015617 0.655273
vt 0.015617 0.729248
vt 0.677246 0.803223
vt 0.677246 0.655273
vt 0.015617 0.729248
vt 0.015617 0.729248
vt 0.015617 0.803345
vt 0.677246 0.803223
vt 0.015617 0.803345
vt 0.015617 0.864136
vt 0.677246 0.803223
vt 0.015617 0.864136
vt 0.677246 0.924805
vt 0.677246 0.803223
vt 0.015617 0.864136
vt 0.015625 0.924866
vt 0.677246 0.924805
vt 0.892578 0.418457
vt 0.892090 0.333008
vt 0.873535 0.493164
vt 0.873535 0.493164
vt 0.892090 0.333008
vt 0.841309 0.547119
vt 0.841309 0.547119
vt 0.892090 0.333008
vt 0.799805 0.564209
vt 0.799805 0.564209
vt 0.892090 0.333008
vt 0.758789 0.547119
vt 0.758789 0.547119
vt 0.892090 0.333008
vt 0.726074 0.493164
vt 0.726074 0.493164
vt 0.892090 0.333008
vt 0.707520 0.418457
vt 0.707520 0.418457
vt 0.892090 0.333008
vt 0.708008 0.333008
vt 0.708008 0.333008
vt 0.892090 0.333008
vt 0.726074 0.257813
vt 0.726074 0.257813
vt 0.892090 0.333008
vt 0.759277 0.205078
vt 0.759277 0.205078
vt 0.892090 0.333008
vt 0.799805 0.186035
vt 0.799805 0.186035
vt 0.892090 0.333008
vt 0.840820 0.205078
vt 0.840820 0.205078
vt 0.892090 0.333008
vt 0.874023 0.257813
vn -1.000000 0.000000 0.000000
vn -0.724070 -0.622309 0.299413
vn -0.724070 -0.622309 -0.299413
vn -1.000000 0.000000 0.000000
vn -0.724070 -0.622309 -0.299413
vn -0.724070 -0.152642 -0.673190
vn -1.000000 0.000000 0.000000
vn -0.724070 -0.152642 0.673190
vn -0.724070 -0.622309 0.299413
vn -1.000000 0.000000 0.000000
vn -0.724070 0.430528 0.540117
vn -0.724070 -0.152642 0.673190
vn -1.000000 0.000000 0.000000
vn -0.724070 0.690802 0.000000
vn -0.724070 0.430528 0.540117
vn -1.000000 0.000000 0.000000
vn -0.724070 0.430528 -0.540117
vn -0.724070 0.690802 0.000000
vn -1.000000 0.000000 0.000000
vn -0.724070 -0.152642 -0.673190
vn -0.724070 0.430528 -0.540117
vn -0.005871 -0.346380 -0.937378
vn -0.003914 -0.148728 -0.988258
vn -0.003914 0.299413 -0.954990
vn -0.005871 0.518591 -0.855186
vn -0.005871 -0.346380 -0.937378
vn -0.003914 0.299413 -0.954990
vn -0.003914 0.299413 -0.954990
vn -0.003914 0.682975 -0.729941
vn -0.005871 0.518591 -0.855186
vn -0.005871 0.518591 -0.855186
vn -0.003914 0.682975 -0.729941
vn -0.003914 0.933464 -0.358121
vn -0.005871 0.992172 -0.125245
vn -0.005871 0.518591 -0.855186
vn -0.003914 0.933464 -0.358121
vn -0.003914 0.933464 -0.358121
vn -0.003914 0.996086 0.082192
vn -0.005871 0.992172 -0.125245
vn -0.003914 0.996086 0.082192
vn -0.003914 0.863014 0.504892
vn -0.005871 0.992172 -0.125245
vn -0.003914 0.863014 0.504892
vn -0.005871 0.716243 0.696673
vn -0.005871 0.992172 -0.125245
vn -0.003914 0.863014 0.504892
vn -0.003914 0.557730 0.829746
vn -0.005871 0.716243 0.696673
vn -0.005871 0.716243 0.696673
vn -0.003914 0.557730 0.829746
vn -0.003914 0.146771 0.988258
vn -0.005871 -0.097847 0.996086
vn -0.005871 0.716243 0.696673
vn -0.003914 0.146771 0.988258
vn -0.003914 0.146771 0.988258
vn -0.003914 -0.299413 0.954990
vn -0.005871 -0.097847 0.996086
vn -0.005871 -0.097847 0.996086
vn -0.003914 -0.299413 0.954990
vn -0.003914 -0.679061 0.733855
vn -0.005871 -0.837573 0.545988
vn -0.005871 -0.097847 0.996086
vn -0.003914 -0.679061 0.733855
vn -0.003914 -0.679061 0.733855
vn -0.003914 -0.931507 0.365949
vn -0.005871 -0.837573 0.545988
vn -0.005871 -0.837573 0.545988
vn -0.003914 -0.931507 0.365949
vn -0.003914 -0.998043 -0.074364
vn -0.005871 -0.949119 -0.313112
vn -0.005871 -0.837573 0.545988
vn -0.003914 -0.998043 -0.074364
vn -0.003914 -0.998043 -0.074364
vn -0.003914 -0.866928 -0.499022
vn -0.005871 -0.949119 -0.313112
vn -0.003914 -0.866928 -0.499022
vn -0.003914 -0.561644 -0.827789
vn -0.005871 -0.949119 -0.313112
vn -0.003914 -0.561644 -0.827789
vn -0.005871 -0.346380 -0.937378
vn -0.005871 -0.949119 -0.313112
vn -0.003914 -0.561644 -0.827789
vn -0.003914 -0.148728 -0.988258
vn -0.005871 -0.346380 -0.937378
vn 1.000000 0.000000 0.000000
vn 1.000000 0.000000 0.000000
vn 1.000000 0.000000 0.000000
vn 1.000000 0.000000 0.000000
vn 1.000000 0.000000 0.000000
vn 1.000000 0.000000 0.000000
vn 1.000000 0.000000 0.000000
vn 1.000000 0.000000 0.000000
vn 1.000000 0.000000 0.000000
vn 1.000000 0.000000 0.000000
vn 1.000000 0.000000 0.000000
vn 1.000000 0.000000 0.000000
vn 1.000000 0.000000 0.000000
vn 1.000000 0.000000 0.000000
vn 1.000000 0.000000 0.000000
vn 1.000000 0.000000 0.000000
vn 1.000000 0.000000 0.000000
vn 1.000000 0.000000 0.000000
vn 1.000000 0.000000 0.000000
vn 1.000000 0.000000 0.000000
vn 1.000000 0.000000 0.000000
vn 1.000000 0.000000 0.000000
vn 1.000000 0.000000 0.000000
vn 1.000000 0.000000 0.000000
vn 1.000000 0.000000 0.000000
vn 1.000000 0.000000 0.000000
vn 1.000000 0.000000 0.000000
vn 1.000000 0.000000 0.000000
vn 1.000000 0.000000 0.000000
vn 1.000000 0.000000 0.000000
vn 1.000000 0.000000 0.000000
vn 1.000000 0.000000 0.000000
vn 1.000000 0.000000 0.000000
vn 1.000000 0.000000 0.000000
vn 1.000000 0.000000 0.000000
vn 1.000000 0.000000 0.000000
mtllib mtl_t6_attach_smg_silencer1.mtl
g mtl_t6_attach_smg_silencer1
usemtl mtl_t6_attach_smg_silencer1
f 3/3/3 2/2/2 1/1/1
f 6/6/6 5/5/5 4/4/4
f 9/9/9 8/8/8 7/7/7
f 12/12/12 11/11/11 10/10/10
f 15/15/15 14/14/14 13/13/13
f 18/18/18 17/17/17 16/16/16
f 21/21/21 20/20/20 19/19/19
f 24/24/24 23/23/23 22/22/22
f 27/27/27 26/26/26 25/25/25
f 30/30/30 29/29/29 28/28/28
f 33/33/33 32/32/32 31/31/31
f 36/36/36 35/35/35 34/34/34
f 39/39/39 38/38/38 37/37/37
f 42/42/42 41/41/41 40/40/40
f 45/45/45 44/44/44 43/43/43
f 48/48/48 47/47/47 46/46/46
f 51/51/51 50/50/50 49/49/49
f 54/54/54 53/53/53 52/52/52
f 57/57/57 56/56/56 55/55/55
f 60/60/60 59/59/59 58/58/58
f 63/63/63 62/62/62 61/61/61
f 66/66/66 65/65/65 64/64/64
f 69/69/69 68/68/68 67/67/67
f 72/72/72 71/71/71 70/70/70
f 75/75/75 74/74/74 73/73/73
f 78/78/78 77/77/77 76/76/76
f 81/81/81 80/80/80 79/79/79
f 84/84/84 83/83/83 82/82/82
f 87/87/87 86/86/86 85/85/85
f 90/90/90 89/89/89 88/88/88
f 93/93/93 92/92/92 91/91/91
f 96/96/96 95/95/95 94/94/94
f 99/99/99 98/98/98 97/97/97
f 102/102/102 101/101/101 100/100/100
f 105/105/105 104/104/104 103/103/103
f 108/108/108 107/107/107 106/106/106
f 111/111/111 110/110/110 109/109/109
f 114/114/114 113/113/113 112/112/112
f 117/117/117 116/116/116 115/115/115
f 120/120/120 119/119/119 118/118/118
