# Generated by Wraith - Game extraction tools
# Please credit DTZxPorter for using it!

v 6.260197 1.046645 4.208292
v -4.283494 1.527465 4.521645
v 5.526182 1.054626 1.039048
v -4.283494 1.527465 4.521645
v -4.735811 1.535179 1.645397
v 5.526182 1.054626 1.039048
v 5.560629 1.054489 -3.041832
v 5.526182 1.054626 1.039048
v -4.735811 1.535179 1.645397
v -4.494425 1.535179 -4.258714
v 5.560629 1.054489 -3.041832
v -4.735811 1.535179 1.645397
v 5.560629 1.054489 -3.041832
v -4.494425 1.535179 -4.258714
v 6.242601 1.106714 -6.783268
v -4.494425 1.535179 -4.258714
v -3.674097 1.857322 -9.066829
v 6.242601 1.106714 -6.783268
v 6.260197 -0.857750 4.208292
v 5.526182 -0.829749 1.039048
v -4.283494 -1.386139 4.521645
v 5.526182 -0.829749 1.039048
v -4.735811 -1.393883 1.645397
v -4.283494 -1.386139 4.521645
v -4.735811 -1.393883 1.645397
v 5.526182 -0.829749 1.039048
v 5.560629 -0.829734 -3.041832
v -4.494425 -1.393883 -4.258714
v -4.735811 -1.393883 1.645397
v 5.560629 -0.829734 -3.041832
v 5.560629 -0.829734 -3.041832
v 6.242601 -0.905906 -6.783268
v -4.494425 -1.393883 -4.258714
v 6.242601 -0.905906 -6.783268
v -3.674097 -1.716027 -9.066829
v -4.494425 -1.393883 -4.258714
v -4.283494 -1.386139 4.521645
v -4.283494 1.527465 4.521645
v 6.260197 -0.857750 4.208292
v -4.283494 1.527465 4.521645
v 6.260197 1.046645 4.208292
v 6.260197 -0.857750 4.208292
v 6.242601 1.106714 -6.783268
v 6.242601 -0.905906 -6.783268
v 5.560629 -0.829734 -3.041832
v 5.560629 1.054489 -3.041832
v 6.242601 1.106714 -6.783268
v 5.560629 -0.829734 -3.041832
v 5.560629 1.054489 -3.041832
v 5.560629 -0.829734 -3.041832
v 5.526182 -0.829749 1.039048
v 5.526182 1.054626 1.039048
v 5.560629 1.054489 -3.041832
v 5.526182 -0.829749 1.039048
v 6.260197 1.046645 4.208292
v 5.526182 1.054626 1.039048
v 5.526182 -0.829749 1.039048
v 6.260197 -0.857750 4.208292
v 6.260197 1.046645 4.208292
v 5.526182 -0.829749 1.039048
v -3.674097 -1.716027 -9.066829
v 6.242601 -0.905906 -6.783268
v -3.674097 1.857322 -9.066829
v 6.242601 -0.905906 -6.783268
v 6.242601 1.106714 -6.783268
v -3.674097 1.857322 -9.066829
v -3.674097 1.857322 -9.066829
v -4.494425 1.535179 -4.258714
v -3.674097 -1.716027 -9.066829
v -4.494425 1.535179 -4.258714
v -4.494425 -1.393883 -4.258714
v -3.674097 -1.716027 -9.066829
v -4.494425 -1.393883 -4.258714
v -4.494425 1.535179 -4.258714
v -4.735811 1.535179 1.645397
v -4.735811 -1.393883 1.645397
v -4.494425 -1.393883 -4.258714
v -4.735811 1.535179 1.645397
v -4.735811 -1.393883 1.645397
v -4.735811 1.535179 1.645397
v -4.283494 -1.386139 4.521645
v -4.735811 1.535179 1.645397
v -4.283494 1.527465 4.521645
v -4.283494 -1.386139 4.521645
vt 0.618652 0.124023
vt 0.621582 0.007324
vt 0.582031 0.115234
vt 0.621582 0.007324
vt 0.589355 0.002441
vt 0.582031 0.115234
vt 0.535645 0.115723
vt 0.582031 0.115234
vt 0.589355 0.002441
vt 0.521973 0.004883
vt 0.535645 0.115723
vt 0.589355 0.002441
vt 0.535645 0.115723
vt 0.521973 0.004883
vt 0.492920 0.123535
vt 0.521973 0.004883
vt 0.467529 0.014160
vt 0.492920 0.123535
vt 0.618652 0.124023
vt 0.582031 0.115234
vt 0.621582 0.007324
vt 0.582031 0.115234
vt 0.589355 0.002441
vt 0.621582 0.007324
vt 0.589355 0.002441
vt 0.582031 0.115234
vt 0.535645 0.115723
vt 0.521973 0.004883
vt 0.589355 0.002441
vt 0.535645 0.115723
vt 0.535645 0.115723
vt 0.492920 0.123535
vt 0.521973 0.004883
vt 0.492920 0.123535
vt 0.467529 0.014160
vt 0.521973 0.004883
vt 0.952637 0.472168
vt 0.961426 0.471191
vt 0.952637 0.549072
vt 0.961426 0.471191
vt 0.962402 0.549072
vt 0.952637 0.549072
vt 0.732910 0.966522
vt 0.732910 0.953278
vt 0.707520 0.953766
vt 0.707520 0.966187
vt 0.732910 0.966522
vt 0.707520 0.953766
vt 0.707520 0.966187
vt 0.707520 0.953766
vt 0.680664 0.953766
vt 0.680664 0.966187
vt 0.707520 0.966187
vt 0.680664 0.953766
vt 0.659668 0.966125
vt 0.680664 0.966187
vt 0.680664 0.953766
vt 0.659668 0.953583
vt 0.659668 0.966125
vt 0.680664 0.953766
vt 0.965332 0.448242
vt 0.967773 0.511230
vt 0.977051 0.448242
vt 0.967773 0.511230
vt 0.975098 0.511230
vt 0.977051 0.448242
vt 0.965820 0.448242
vt 0.966797 0.482422
vt 0.977051 0.448242
vt 0.966797 0.482422
vt 0.976074 0.482422
vt 0.977051 0.448242
vt 0.976074 0.482422
vt 0.966797 0.482422
vt 0.966797 0.524658
vt 0.976074 0.524658
vt 0.976074 0.482422
vt 0.966797 0.524658
vt 0.976074 0.524658
vt 0.966797 0.524658
vt 0.976074 0.545166
vt 0.966797 0.524658
vt 0.966797 0.545166
vt 0.976074 0.545166
vn 0.045010 0.998043 -0.005871
vn 0.045010 0.998043 -0.005871
vn 0.046967 0.998043 -0.001957
vn 0.045010 0.998043 -0.005871
vn 0.046967 0.998043 -0.001957
vn 0.046967 0.998043 -0.001957
vn 0.048924 0.998043 0.027397
vn 0.046967 0.998043 -0.001957
vn 0.046967 0.998043 -0.001957
vn 0.048924 0.998043 0.027397
vn 0.048924 0.998043 0.027397
vn 0.046967 0.998043 -0.001957
vn 0.048924 0.998043 0.027397
vn 0.048924 0.998043 0.027397
vn 0.052838 0.998043 0.052838
vn 0.048924 0.998043 0.027397
vn 0.052838 0.998043 0.052838
vn 0.052838 0.998043 0.052838
vn 0.050881 -0.998043 -0.013699
vn 0.052838 -0.998043 -0.005871
vn 0.050881 -0.998043 -0.013699
vn 0.052838 -0.998043 -0.005871
vn 0.052838 -0.998043 -0.005871
vn 0.050881 -0.998043 -0.013699
vn 0.052838 -0.998043 -0.005871
vn 0.052838 -0.998043 -0.005871
vn 0.056751 -0.998043 0.029354
vn 0.056751 -0.998043 0.029354
vn 0.052838 -0.998043 -0.005871
vn 0.056751 -0.998043 0.029354
vn 0.056751 -0.998043 0.029354
vn 0.058708 -0.996086 0.056751
vn 0.056751 -0.998043 0.029354
vn 0.058708 -0.996086 0.056751
vn 0.058708 -0.996086 0.056751
vn 0.056751 -0.998043 0.029354
vn 0.029354 0.000000 1.000000
vn 0.029354 0.000000 1.000000
vn 0.029354 0.000000 1.000000
vn 0.029354 0.000000 1.000000
vn 0.029354 0.000000 1.000000
vn 0.029354 0.000000 1.000000
vn 0.984344 0.000000 0.180039
vn 0.984344 0.000000 0.180039
vn 0.996086 0.000000 0.093933
vn 0.996086 0.000000 0.093933
vn 0.984344 0.000000 0.180039
vn 0.996086 0.000000 0.093933
vn 0.996086 0.000000 0.093933
vn 0.996086 0.000000 0.093933
vn 0.994129 0.000000 -0.109589
vn 0.994129 0.000000 -0.109589
vn 0.996086 0.000000 0.093933
vn 0.994129 0.000000 -0.109589
vn 0.974560 0.000000 -0.225049
vn 0.994129 0.000000 -0.109589
vn 0.994129 0.000000 -0.109589
vn 0.974560 0.000000 -0.225049
vn 0.974560 0.000000 -0.225049
vn 0.994129 0.000000 -0.109589
vn -0.553816 0.000000 -0.831703
vn 0.225049 0.000000 -0.974560
vn -0.553816 0.000000 -0.831703
vn 0.225049 0.000000 -0.974560
vn 0.225049 0.000000 -0.974560
vn -0.553816 0.000000 -0.831703
vn -0.553816 0.000000 -0.831703
vn -0.994129 0.000000 -0.105675
vn -0.553816 0.000000 -0.831703
vn -0.994129 0.000000 -0.105675
vn -0.994129 0.000000 -0.105675
vn -0.553816 0.000000 -0.831703
vn -0.994129 0.000000 -0.105675
vn -0.994129 0.000000 -0.105675
vn -0.998043 0.000000 0.056751
vn -0.998043 0.000000 0.056751
vn -0.994129 0.000000 -0.105675
vn -0.998043 0.000000 0.056751
vn -0.998043 0.000000 0.056751
vn -0.998043 0.000000 0.056751
vn -0.988258 0.000000 0.154599
vn -0.998043 0.000000 0.056751
vn -0.988258 0.000000 0.154599
vn -0.988258 0.000000 0.154599
mtllib mtl_t6_wpn_sniper_svu.mtl
g mtl_t6_wpn_sniper_svu
usemtl mtl_t6_wpn_sniper_svu
f 3/3/3 2/2/2 1/1/1
f 6/6/6 5/5/5 4/4/4
f 9/9/9 8/8/8 7/7/7
f 12/12/12 11/11/11 10/10/10
f 15/15/15 14/14/14 13/13/13
f 18/18/18 17/17/17 16/16/16
f 21/21/21 20/20/20 19/19/19
f 24/24/24 23/23/23 22/22/22
f 27/27/27 26/26/26 25/25/25
f 30/30/30 29/29/29 28/28/28
f 33/33/33 32/32/32 31/31/31
f 36/36/36 35/35/35 34/34/34
f 39/39/39 38/38/38 37/37/37
f 42/42/42 41/41/41 40/40/40
f 45/45/45 44/44/44 43/43/43
f 48/48/48 47/47/47 46/46/46
f 51/51/51 50/50/50 49/49/49
f 54/54/54 53/53/53 52/52/52
f 57/57/57 56/56/56 55/55/55
f 60/60/60 59/59/59 58/58/58
f 63/63/63 62/62/62 61/61/61
f 66/66/66 65/65/65 64/64/64
mtllib mtl_t6_wpn_sniper_svu_camo3.mtl
g mtl_t6_wpn_sniper_svu_camo3
usemtl mtl_t6_wpn_sniper_svu_camo3
f 69/69/69 68/68/68 67/67/67
f 72/72/72 71/71/71 70/70/70
f 75/75/75 74/74/74 73/73/73
f 78/78/78 77/77/77 76/76/76
f 81/81/81 80/80/80 79/79/79
f 84/84/84 83/83/83 82/82/82
