# Generated by Wraith - Game extraction tools
# Please credit DTZxPorter for using it!

v -18.113678 -0.694258 44.534927
v -18.142281 -0.568274 45.442032
v -18.254026 0.296055 45.301777
v -13.456292 0.256743 -59.823410
v -13.574903 -0.694258 -59.773041
v -13.715253 0.296055 -59.006184
vt 0.334961 0.361816
vt 0.335938 0.416992
vt 0.302490 0.415527
vt 0.301758 0.357422
vt 0.334961 0.361816
vt 0.302490 0.415527
vn 0.992172 0.131115 0.013699
vn 0.992172 0.131115 0.013699
vn 0.992172 0.131115 0.013699
vn 0.947162 -0.101761 0.305284
vn 0.947162 -0.101761 0.305284
vn 0.947162 -0.101761 0.305284
mtllib mtl_default.mtl
g mtl_default
usemtl mtl_default
f 3/3/3 2/2/2 1/1/1
f 6/6/6 5/5/5 4/4/4
