# Generated by Wraith - Game extraction tools
# Please credit DTZxPorter for using it!

v -9.195824 1.886656 7.719248
v -9.195824 -1.886656 7.719248
v -8.384987 2.574282 -0.001681
v -9.195824 -1.886656 7.719248
v -8.384987 -2.574282 -0.001681
v -8.384987 2.574282 -0.001681
v 8.113309 -3.411896 -0.001681
v -8.384987 -2.574282 -0.001681
v 7.932494 -2.670050 7.307905
v -8.384987 -2.574282 -0.001681
v -9.195824 -1.886656 7.719248
v 7.932494 -2.670050 7.307905
v 8.113309 3.411896 -0.001681
v 7.612105 2.887665 7.214652
v -8.384987 2.574282 -0.001681
v 7.612105 2.887665 7.214652
v -9.195824 1.886656 7.719248
v -8.384987 2.574282 -0.001681
v -9.195824 1.886656 7.719248
v 7.612105 2.887665 7.214652
v -9.195824 -1.886656 7.719248
v 7.612105 2.887665 7.214652
v 7.932494 -2.670050 7.307905
v -9.195824 -1.886656 7.719248
v 7.612105 2.887665 7.214652
v 8.113309 3.411896 -0.001681
v 7.932494 -2.670050 7.307905
v 8.113309 3.411896 -0.001681
v 8.113309 -3.411896 -0.001681
v 7.932494 -2.670050 7.307905
vt 0.714844 0.602539
vt 0.582520 0.602539
vt 0.738770 0.872681
vt 0.582520 0.602539
vt 0.558594 0.872681
vt 0.738770 0.872681
vt 0.000998 0.019043
vt 0.000998 0.596436
vt 0.256836 0.025391
vt 0.000998 0.596436
vt 0.271240 0.624756
vt 0.256836 0.025391
vt 0.545898 0.019043
vt 0.293457 0.036621
vt 0.545898 0.596436
vt 0.293457 0.036621
vt 0.275879 0.624756
vt 0.545898 0.596436
vt 0.709961 0.600586
vt 0.745117 0.012207
vt 0.578125 0.600586
vt 0.745117 0.012207
vt 0.550781 0.000977
vt 0.578125 0.600586
vt 0.746094 0.842651
vt 0.998535 0.860962
vt 0.742676 0.648193
vt 0.998535 0.860962
vt 0.998535 0.622070
vt 0.742676 0.648193
vn -0.589041 0.581213 0.561644
vn -0.589041 -0.571429 0.573386
vn -0.724070 0.688845 -0.019569
vn -0.589041 -0.571429 0.573386
vn -0.724070 -0.690802 -0.009785
vn -0.724070 0.688845 -0.019569
vn 0.696673 -0.710372 0.101761
vn -0.724070 -0.690802 -0.009785
vn 0.549902 -0.538160 0.639922
vn -0.724070 -0.690802 -0.009785
vn -0.589041 -0.571429 0.573386
vn 0.549902 -0.538160 0.639922
vn 0.677104 0.731898 0.088063
vn 0.538160 0.571429 0.620352
vn -0.724070 0.688845 -0.019569
vn 0.538160 0.571429 0.620352
vn -0.589041 0.581213 0.561644
vn -0.724070 0.688845 -0.019569
vn -0.589041 0.581213 0.561644
vn 0.538160 0.571429 0.620352
vn -0.589041 -0.571429 0.573386
vn 0.538160 0.571429 0.620352
vn 0.549902 -0.538160 0.639922
vn -0.589041 -0.571429 0.573386
vn 0.538160 0.571429 0.620352
vn 0.677104 0.731898 0.088063
vn 0.549902 -0.538160 0.639922
vn 0.677104 0.731898 0.088063
vn 0.696673 -0.710372 0.101761
vn 0.549902 -0.538160 0.639922
mtllib mtl_p_rus_tape_dispenser.mtl
g mtl_p_rus_tape_dispenser
usemtl mtl_p_rus_tape_dispenser
f 3/3/3 2/2/2 1/1/1
f 6/6/6 5/5/5 4/4/4
f 9/9/9 8/8/8 7/7/7
f 12/12/12 11/11/11 10/10/10
f 15/15/15 14/14/14 13/13/13
f 18/18/18 17/17/17 16/16/16
f 21/21/21 20/20/20 19/19/19
f 24/24/24 23/23/23 22/22/22
f 27/27/27 26/26/26 25/25/25
f 30/30/30 29/29/29 28/28/28
