# Generated by Wraith - Game extraction tools
# Please credit DTZxPorter for using it!

v -44.559608 -44.559608 5.518419
v -44.559608 44.559608 5.518419
v 44.559608 -44.559608 5.518419
v -44.559608 44.559608 5.518419
v 44.559608 44.559608 5.518419
v 44.559608 -44.559608 5.518419
v -2.046219 9.796432 -25.427710
v -2.046219 -9.796432 -25.427710
v 26.019840 9.796432 -25.427710
v -2.046219 -9.796432 -25.427710
v 26.019840 -9.796432 -25.427710
v 26.019840 9.796432 -25.427710
v 26.019840 -9.796432 -25.427710
v -2.046219 -9.796432 -25.427710
v 44.559608 -44.559608 -4.303466
v -2.046219 -9.796432 -25.427710
v -44.559608 -44.559608 -4.303466
v 44.559608 -44.559608 -4.303466
v -44.559608 -44.559608 -4.303466
v -44.559608 -44.559608 5.518419
v 44.559608 -44.559608 -4.303466
v -44.559608 -44.559608 5.518419
v 44.559608 -44.559608 5.518419
v 44.559608 -44.559608 -4.303466
v -2.046219 -9.796432 -25.427710
v -2.046219 9.796432 -25.427710
v -44.559608 -44.559608 -4.303466
v -2.046219 9.796432 -25.427710
v -44.559608 44.559608 -4.303466
v -44.559608 -44.559608 -4.303466
v -44.559608 44.559608 -4.303466
v -44.559608 44.559608 5.518419
v -44.559608 -44.559608 -4.303466
v -44.559608 44.559608 5.518419
v -44.559608 -44.559608 5.518419
v -44.559608 -44.559608 -4.303466
v -2.046219 9.796432 -25.427710
v 26.019840 9.796432 -25.427710
v 44.559608 44.559608 -4.303466
v -44.559608 44.559608 -4.303466
v -2.046219 9.796432 -25.427710
v 44.559608 44.559608 -4.303466
v -44.559608 44.559608 -4.303466
v 44.559608 44.559608 -4.303466
v 44.559608 44.559608 5.518419
v -44.559608 44.559608 5.518419
v -44.559608 44.559608 -4.303466
v 44.559608 44.559608 5.518419
v 26.019840 9.796432 -25.427710
v 26.019840 -9.796432 -25.427710
v 44.559608 -44.559608 -4.303466
v 44.559608 44.559608 -4.303466
v 26.019840 9.796432 -25.427710
v 44.559608 -44.559608 -4.303466
v 44.559608 44.559608 5.518419
v 44.559608 44.559608 -4.303466
v 44.559608 -44.559608 -4.303466
v 44.559608 -44.559608 5.518419
v 44.559608 44.559608 5.518419
v 44.559608 -44.559608 -4.303466
vt 0.375000 0.000000
vt 0.375000 0.250000
vt 0.625000 0.000000
vt 0.375000 0.250000
vt 0.625000 0.250000
vt 0.625000 0.000000
vt 0.494141 0.597656
vt 0.494141 0.652588
vt 0.572754 0.597656
vt 0.494141 0.652588
vt 0.572754 0.652588
vt 0.572754 0.597656
vt 0.572754 0.652588
vt 0.494141 0.652588
vt 0.625000 0.886719
vt 0.494141 0.652588
vt 0.375000 0.886719
vt 0.625000 0.886719
vt 0.375000 0.886719
vt 0.375000 1.000000
vt 0.625000 0.886719
vt 0.375000 1.000000
vt 0.625000 1.000000
vt 0.625000 0.886719
vt 0.109863 0.097656
vt 0.109863 0.152832
vt 0.261475 0.000000
vt 0.109863 0.152832
vt 0.261475 0.250000
vt 0.261475 0.000000
vt 0.261475 0.250000
vt 0.375000 0.250000
vt 0.261475 0.000000
vt 0.375000 0.250000
vt 0.375000 0.000000
vt 0.261475 0.000000
vt 0.494141 0.597656
vt 0.572754 0.597656
vt 0.625000 0.363770
vt 0.375000 0.363770
vt 0.494141 0.597656
vt 0.625000 0.363770
vt 0.375000 0.363770
vt 0.625000 0.363770
vt 0.625000 0.250000
vt 0.375000 0.250000
vt 0.375000 0.363770
vt 0.625000 0.250000
vt 0.859375 0.152832
vt 0.859375 0.097656
vt 0.738281 0.000000
vt 0.738281 0.250000
vt 0.859375 0.152832
vt 0.738281 0.000000
vt 0.625000 0.250000
vt 0.738281 0.250000
vt 0.738281 0.000000
vt 0.625000 0.000000
vt 0.625000 0.250000
vt 0.738281 0.000000
vn 0.000000 0.000000 1.000000
vn 0.000000 0.000000 1.000000
vn 0.000000 0.000000 1.000000
vn 0.000000 0.000000 1.000000
vn 0.000000 0.000000 1.000000
vn 0.000000 0.000000 1.000000
vn 0.000000 0.000000 -1.000000
vn 0.000000 0.000000 -1.000000
vn 0.000000 0.000000 -1.000000
vn 0.000000 0.000000 -1.000000
vn 0.000000 0.000000 -1.000000
vn 0.000000 0.000000 -1.000000
vn 0.000000 -0.518591 -0.855186
vn 0.000000 -0.518591 -0.855186
vn 0.000000 -0.870842 -0.491194
vn 0.000000 -0.518591 -0.855186
vn 0.000000 -0.870842 -0.491194
vn 0.000000 -0.870842 -0.491194
vn 0.000000 -0.870842 -0.491194
vn 0.000000 -1.000000 0.000000
vn 0.000000 -0.870842 -0.491194
vn 0.000000 -1.000000 0.000000
vn 0.000000 -1.000000 0.000000
vn 0.000000 -0.870842 -0.491194
vn -0.444227 0.000000 -0.896282
vn -0.444227 0.000000 -0.896282
vn -0.849315 0.000000 -0.526419
vn -0.444227 0.000000 -0.896282
vn -0.849315 0.000000 -0.526419
vn -0.849315 0.000000 -0.526419
vn -0.849315 0.000000 -0.526419
vn -1.000000 0.000000 0.000000
vn -0.849315 0.000000 -0.526419
vn -1.000000 0.000000 0.000000
vn -1.000000 0.000000 0.000000
vn -0.849315 0.000000 -0.526419
vn 0.000000 0.518591 -0.855186
vn 0.000000 0.518591 -0.855186
vn 0.000000 0.870842 -0.491194
vn 0.000000 0.870842 -0.491194
vn 0.000000 0.518591 -0.855186
vn 0.000000 0.870842 -0.491194
vn 0.000000 0.870842 -0.491194
vn 0.000000 0.870842 -0.491194
vn 0.000000 1.000000 0.000000
vn 0.000000 1.000000 0.000000
vn 0.000000 0.870842 -0.491194
vn 0.000000 1.000000 0.000000
vn 0.751468 0.000000 -0.659491
vn 0.751468 0.000000 -0.659491
vn 0.935421 0.000000 -0.352250
vn 0.935421 0.000000 -0.352250
vn 0.751468 0.000000 -0.659491
vn 0.935421 0.000000 -0.352250
vn 1.000000 0.000000 0.000000
vn 0.935421 0.000000 -0.352250
vn 0.935421 0.000000 -0.352250
vn 1.000000 0.000000 0.000000
vn 1.000000 0.000000 0.000000
vn 0.935421 0.000000 -0.352250
mtllib mtl_t6_veh_drone_quad_rotor_body2.mtl
g mtl_t6_veh_drone_quad_rotor_body2
usemtl mtl_t6_veh_drone_quad_rotor_body2
f 3/3/3 2/2/2 1/1/1
f 6/6/6 5/5/5 4/4/4
f 9/9/9 8/8/8 7/7/7
f 12/12/12 11/11/11 10/10/10
f 15/15/15 14/14/14 13/13/13
f 18/18/18 17/17/17 16/16/16
f 21/21/21 20/20/20 19/19/19
f 24/24/24 23/23/23 22/22/22
f 27/27/27 26/26/26 25/25/25
f 30/30/30 29/29/29 28/28/28
f 33/33/33 32/32/32 31/31/31
f 36/36/36 35/35/35 34/34/34
f 39/39/39 38/38/38 37/37/37
f 42/42/42 41/41/41 40/40/40
f 45/45/45 44/44/44 43/43/43
f 48/48/48 47/47/47 46/46/46
f 51/51/51 50/50/50 49/49/49
f 54/54/54 53/53/53 52/52/52
f 57/57/57 56/56/56 55/55/55
f 60/60/60 59/59/59 58/58/58
