# Generated by Wraith - Game extraction tools
# Please credit DTZxPorter for using it!

v -3.444254 0.739470 -18.991537
v -5.411222 0.739470 -18.367043
v -5.755463 0.739470 -22.861263
v -0.462048 0.739470 -2.778728
v -5.411222 0.739470 -18.367043
v -3.444254 0.739470 -18.991537
v 1.504918 0.739470 -3.403222
v -0.462048 0.739470 -2.778728
v -3.444254 0.739470 -18.991537
v -0.462048 0.739470 -2.778728
v 1.504918 0.739470 -3.403222
v 1.849160 0.739470 1.090999
v -5.755463 0.035608 -22.861263
v -5.411222 0.035608 -18.367043
v -3.444254 0.035608 -18.991537
v -3.444254 0.035608 -18.991537
v -5.411222 0.035608 -18.367043
v -0.462048 0.035608 -2.778728
v 1.504918 0.035608 -3.403222
v -3.444254 0.035608 -18.991537
v -0.462048 0.035608 -2.778728
v 1.849160 0.035608 1.090999
v 1.504918 0.035608 -3.403222
v -0.462048 0.035608 -2.778728
v -2.325621 -0.038412 -15.847286
v -3.019261 -0.000747 -17.997276
v -4.309725 -0.029472 -15.207010
v -3.019261 -0.000747 -17.997276
v -5.003365 0.008194 -17.356997
v -4.309725 -0.029472 -15.207010
v -0.606731 0.387540 -2.276297
v -5.819201 0.387540 -18.694012
v -0.462048 0.739470 -2.778728
v -5.819201 0.387540 -18.694012
v -5.411222 0.739470 -18.367043
v -0.462048 0.739470 -2.778728
v -5.755463 0.739470 -22.861263
v -5.411222 0.739470 -18.367043
v -5.819201 0.387540 -18.694012
v -6.368061 0.387540 -23.123264
v -5.755463 0.739470 -22.861263
v -5.819201 0.387540 -18.694012
v -6.311618 0.387540 -24.712975
v -5.755463 0.739470 -22.861263
v -6.368061 0.387540 -23.123264
v -5.406184 0.387540 -23.428652
v -5.755463 0.739470 -22.861263
v -6.311618 0.387540 -24.712975
v -5.406184 0.387540 -23.428652
v -3.299573 0.387540 -19.493969
v -5.755463 0.739470 -22.861263
v -3.299573 0.387540 -19.493969
v -3.444254 0.739470 -18.991537
v -5.755463 0.739470 -22.861263
v -3.299573 0.387540 -19.493969
v 1.912899 0.387540 -3.076258
v -3.444254 0.739470 -18.991537
v 1.912899 0.387540 -3.076258
v 1.504918 0.739470 -3.403222
v -3.444254 0.739470 -18.991537
v 1.849160 0.739470 1.090999
v 1.504918 0.739470 -3.403222
v 1.912899 0.387540 -3.076258
v 2.441741 0.387540 1.359352
v 1.849160 0.739470 1.090999
v 1.912899 0.387540 -3.076258
v 2.403492 0.387540 2.936959
v 1.849160 0.739470 1.090999
v 2.441741 0.387540 1.359352
v 1.519895 0.387540 1.652028
v 1.849160 0.739470 1.090999
v 2.403492 0.387540 2.936959
v 1.519895 0.387540 1.652028
v -0.606731 0.387540 -2.276297
v 1.849160 0.739470 1.090999
v -0.606731 0.387540 -2.276297
v -0.462048 0.739470 -2.778728
v 1.849160 0.739470 1.090999
v -0.606731 0.387540 -2.276297
v 1.519895 0.387540 1.652028
v 1.849160 0.035608 1.090999
v 1.519895 0.387540 1.652028
v 2.403492 0.387540 2.936959
v 1.849160 0.035608 1.090999
v 2.403492 0.387540 2.936959
v 2.441741 0.387540 1.359352
v 1.849160 0.035608 1.090999
v 1.849160 0.035608 1.090999
v 2.441741 0.387540 1.359352
v 1.912899 0.387540 -3.076258
v 1.504918 0.035608 -3.403222
v 1.849160 0.035608 1.090999
v 1.912899 0.387540 -3.076258
v 1.912899 0.387540 -3.076258
v -3.299573 0.387540 -19.493969
v 1.504918 0.035608 -3.403222
v -3.299573 0.387540 -19.493969
v -3.444254 0.035608 -18.991537
v 1.504918 0.035608 -3.403222
v -3.444254 0.035608 -18.991537
v -3.299573 0.387540 -19.493969
v -5.755463 0.035608 -22.861263
v -3.299573 0.387540 -19.493969
v -5.406184 0.387540 -23.428652
v -5.755463 0.035608 -22.861263
v -5.406184 0.387540 -23.428652
v -6.311618 0.387540 -24.712975
v -5.755463 0.035608 -22.861263
v -6.311618 0.387540 -24.712975
v -6.368061 0.387540 -23.123264
v -5.755463 0.035608 -22.861263
v -5.755463 0.035608 -22.861263
v -6.368061 0.387540 -23.123264
v -5.819201 0.387540 -18.694012
v -5.411222 0.035608 -18.367043
v -5.755463 0.035608 -22.861263
v -5.819201 0.387540 -18.694012
v -0.462048 0.035608 -2.778728
v -5.411222 0.035608 -18.367043
v -5.819201 0.387540 -18.694012
v -0.606731 0.387540 -2.276297
v -0.462048 0.035608 -2.778728
v -5.819201 0.387540 -18.694012
v -0.462048 0.035608 -2.778728
v -0.606731 0.387540 -2.276297
v 1.849160 0.035608 1.090999
vt 0.227539 0.931763
vt 0.227539 0.766724
vt 0.080627 0.849243
vt 0.773926 0.766724
vt 0.227539 0.766724
vt 0.227539 0.931763
vt 0.774414 0.931763
vt 0.773926 0.766724
vt 0.227539 0.931763
vt 0.773926 0.766724
vt 0.774414 0.931763
vt 0.920898 0.849243
vt 1.920898 0.849243
vt 1.773438 0.766724
vt 1.773438 0.931763
vt 1.773438 0.931763
vt 1.773438 0.766724
vt 1.226563 0.766724
vt 1.226563 0.931763
vt 1.773438 0.931763
vt 1.226563 0.766724
vt 1.080078 0.849121
vt 1.226563 0.931763
vt 1.226563 0.766724
vt 0.001839 0.002441
vt 0.001839 0.998009
vt 0.994629 0.002441
vt 0.001839 0.998009
vt 0.994629 0.998009
vt 0.994629 0.002441
vt -0.211182 0.743652
vt -0.786621 0.743652
vt -0.225708 0.766724
vt -0.786621 0.743652
vt -0.771973 0.766724
vt -0.225708 0.766724
vt -0.918945 0.849243
vt -0.771973 0.766724
vt -0.786621 0.743652
vt -0.933594 0.808838
vt -0.918945 0.849243
vt -0.786621 0.743652
vt -0.982910 0.856567
vt -0.918945 0.849243
vt -0.933594 0.808838
vt -0.933594 0.887878
vt -0.918945 0.849243
vt -0.982910 0.856567
vt -0.933594 0.887878
vt -0.786621 0.954895
vt -0.918945 0.849243
vt -0.786621 0.954895
vt -0.771973 0.931763
vt -0.918945 0.849243
vt -0.786621 0.954895
vt -0.210815 0.954895
vt -0.771973 0.931763
vt -0.210815 0.954895
vt -0.225342 0.931763
vt -0.771973 0.931763
vt -0.079041 0.849243
vt -0.225342 0.931763
vt -0.210815 0.954895
vt -0.064514 0.889587
vt -0.079041 0.849243
vt -0.210815 0.954895
vt -0.013840 0.842529
vt -0.079041 0.849243
vt -0.064514 0.889587
vt -0.064514 0.808838
vt -0.079041 0.849243
vt -0.013840 0.842529
vt -0.064514 0.808838
vt -0.211182 0.743652
vt -0.079041 0.849243
vt -0.211182 0.743652
vt -0.225708 0.766724
vt -0.079041 0.849243
vt 0.212646 0.743652
vt 0.065918 0.808838
vt 0.080444 0.849121
vt 0.065918 0.808838
vt 0.017075 0.847656
vt 0.080444 0.849121
vt 0.017075 0.847656
vt 0.065918 0.887878
vt 0.080444 0.849121
vt 0.080444 0.849121
vt 0.065918 0.887878
vt 0.212646 0.954895
vt 0.227173 0.931763
vt 0.080444 0.849121
vt 0.212646 0.954895
vt 0.212646 0.954895
vt 0.788574 0.954895
vt 0.227173 0.931763
vt 0.788574 0.954895
vt 0.773926 0.931763
vt 0.227173 0.931763
vt 0.773926 0.931763
vt 0.788574 0.954895
vt 0.920898 0.849243
vt 0.788574 0.954895
vt 0.935059 0.889587
vt 0.920898 0.849243
vt 0.935059 0.889587
vt 0.985352 0.851685
vt 0.920898 0.849243
vt 0.985352 0.851685
vt 0.935059 0.808838
vt 0.920898 0.849243
vt 0.920898 0.849243
vt 0.935059 0.808838
vt 0.788574 0.743652
vt 0.773926 0.766724
vt 0.920898 0.849243
vt 0.788574 0.743652
vt 0.227173 0.766724
vt 0.773926 0.766724
vt 0.788574 0.743652
vt 0.212646 0.743652
vt 0.227173 0.766724
vt 0.788574 0.743652
vt 0.227173 0.766724
vt 0.212646 0.743652
vt 0.080444 0.849121
vn 0.000000 1.000000 0.000000
vn 0.000000 1.000000 0.000000
vn 0.000000 1.000000 0.000000
vn 0.000000 1.000000 0.000000
vn 0.000000 1.000000 0.000000
vn 0.000000 1.000000 0.000000
vn 0.000000 1.000000 0.000000
vn 0.000000 1.000000 0.000000
vn 0.000000 1.000000 0.000000
vn 0.000000 1.000000 0.000000
vn 0.000000 1.000000 0.000000
vn 0.000000 1.000000 0.000000
vn 0.000000 -1.000000 0.000000
vn 0.000000 -1.000000 0.000000
vn 0.000000 -1.000000 0.000000
vn 0.000000 -1.000000 0.000000
vn 0.000000 -1.000000 0.000000
vn 0.000000 -1.000000 0.000000
vn 0.000000 -1.000000 0.000000
vn 0.000000 -1.000000 0.000000
vn 0.000000 -1.000000 0.000000
vn 0.000000 -1.000000 0.000000
vn 0.000000 -1.000000 0.000000
vn 0.000000 -1.000000 0.000000
vn -0.009785 -1.000000 -0.013699
vn -0.009785 -1.000000 -0.013699
vn -0.009785 -1.000000 -0.013699
vn -0.009785 -1.000000 -0.013699
vn -0.009785 -1.000000 -0.013699
vn -0.009785 -1.000000 -0.013699
vn -0.634051 0.724070 0.268102
vn -0.669276 0.727984 0.148728
vn -0.634051 0.724070 0.268102
vn -0.669276 0.727984 0.148728
vn -0.669276 0.727984 0.148728
vn -0.634051 0.724070 0.268102
vn -0.046967 0.986301 -0.158513
vn -0.669276 0.727984 0.148728
vn -0.669276 0.727984 0.148728
vn -0.542074 0.839530 0.021526
vn -0.046967 0.986301 -0.158513
vn -0.669276 0.727984 0.148728
vn -0.048924 0.984344 -0.172211
vn -0.046967 0.986301 -0.158513
vn -0.542074 0.839530 0.021526
vn 0.461840 0.837573 -0.289628
vn -0.046967 0.986301 -0.158513
vn -0.048924 0.984344 -0.172211
vn 0.461840 0.837573 -0.289628
vn 0.632094 0.727984 -0.266145
vn -0.046967 0.986301 -0.158513
vn 0.632094 0.727984 -0.266145
vn 0.632094 0.727984 -0.266145
vn -0.046967 0.986301 -0.158513
vn 0.632094 0.727984 -0.266145
vn 0.673190 0.724070 -0.146771
vn 0.632094 0.727984 -0.266145
vn 0.673190 0.724070 -0.146771
vn 0.673190 0.724070 -0.146771
vn 0.632094 0.727984 -0.266145
vn 0.046967 0.986301 0.160470
vn 0.673190 0.724070 -0.146771
vn 0.673190 0.724070 -0.146771
vn 0.553816 0.833659 -0.023483
vn 0.046967 0.986301 0.160470
vn 0.673190 0.724070 -0.146771
vn 0.048924 0.984344 0.172211
vn 0.046967 0.986301 0.160470
vn 0.553816 0.833659 -0.023483
vn -0.473581 0.829746 0.293542
vn 0.046967 0.986301 0.160470
vn 0.048924 0.984344 0.172211
vn -0.473581 0.829746 0.293542
vn -0.634051 0.724070 0.268102
vn 0.046967 0.986301 0.160470
vn -0.634051 0.724070 0.268102
vn -0.634051 0.724070 0.268102
vn 0.046967 0.986301 0.160470
vn -0.634051 -0.724070 0.268102
vn -0.473581 -0.829746 0.293542
vn 0.046967 -0.986301 0.160470
vn -0.473581 -0.829746 0.293542
vn 0.048924 -0.984344 0.172211
vn 0.046967 -0.986301 0.160470
vn 0.048924 -0.984344 0.172211
vn 0.553816 -0.833659 -0.023483
vn 0.046967 -0.986301 0.160470
vn 0.046967 -0.986301 0.160470
vn 0.553816 -0.833659 -0.023483
vn 0.673190 -0.724070 -0.146771
vn 0.673190 -0.724070 -0.146771
vn 0.046967 -0.986301 0.160470
vn 0.673190 -0.724070 -0.146771
vn 0.673190 -0.724070 -0.146771
vn 0.632094 -0.727984 -0.266145
vn 0.673190 -0.724070 -0.146771
vn 0.632094 -0.727984 -0.266145
vn 0.632094 -0.727984 -0.266145
vn 0.673190 -0.724070 -0.146771
vn 0.632094 -0.727984 -0.266145
vn 0.632094 -0.727984 -0.266145
vn -0.046967 -0.986301 -0.158513
vn 0.632094 -0.727984 -0.266145
vn 0.461840 -0.837573 -0.289628
vn -0.046967 -0.986301 -0.158513
vn 0.461840 -0.837573 -0.289628
vn -0.048924 -0.984344 -0.172211
vn -0.046967 -0.986301 -0.158513
vn -0.048924 -0.984344 -0.172211
vn -0.542074 -0.839530 0.021526
vn -0.046967 -0.986301 -0.158513
vn -0.046967 -0.986301 -0.158513
vn -0.542074 -0.839530 0.021526
vn -0.669276 -0.727984 0.148728
vn -0.669276 -0.727984 0.148728
vn -0.046967 -0.986301 -0.158513
vn -0.669276 -0.727984 0.148728
vn -0.634051 -0.724070 0.268102
vn -0.669276 -0.727984 0.148728
vn -0.669276 -0.727984 0.148728
vn -0.634051 -0.724070 0.268102
vn -0.634051 -0.724070 0.268102
vn -0.669276 -0.727984 0.148728
vn -0.634051 -0.724070 0.268102
vn -0.634051 -0.724070 0.268102
vn 0.046967 -0.986301 0.160470
mtllib mtl_t6_wpn_ballistic_knife_camo1.mtl
g mtl_t6_wpn_ballistic_knife_camo1
usemtl mtl_t6_wpn_ballistic_knife_camo1
f 3/3/3 2/2/2 1/1/1
f 6/6/6 5/5/5 4/4/4
f 9/9/9 8/8/8 7/7/7
f 12/12/12 11/11/11 10/10/10
f 15/15/15 14/14/14 13/13/13
f 18/18/18 17/17/17 16/16/16
f 21/21/21 20/20/20 19/19/19
f 24/24/24 23/23/23 22/22/22
mtllib mtl_player_icon_world.mtl
g mtl_player_icon_world
usemtl mtl_player_icon_world
f 27/27/27 26/26/26 25/25/25
f 30/30/30 29/29/29 28/28/28
mtllib mtl_t6_wpn_ballistic_knife_camo2.mtl
g mtl_t6_wpn_ballistic_knife_camo2
usemtl mtl_t6_wpn_ballistic_knife_camo2
f 33/33/33 32/32/32 31/31/31
f 36/36/36 35/35/35 34/34/34
f 39/39/39 38/38/38 37/37/37
f 42/42/42 41/41/41 40/40/40
f 45/45/45 44/44/44 43/43/43
f 48/48/48 47/47/47 46/46/46
f 51/51/51 50/50/50 49/49/49
f 54/54/54 53/53/53 52/52/52
f 57/57/57 56/56/56 55/55/55
f 60/60/60 59/59/59 58/58/58
f 63/63/63 62/62/62 61/61/61
f 66/66/66 65/65/65 64/64/64
f 69/69/69 68/68/68 67/67/67
f 72/72/72 71/71/71 70/70/70
f 75/75/75 74/74/74 73/73/73
f 78/78/78 77/77/77 76/76/76
f 81/81/81 80/80/80 79/79/79
f 84/84/84 83/83/83 82/82/82
f 87/87/87 86/86/86 85/85/85
f 90/90/90 89/89/89 88/88/88
f 93/93/93 92/92/92 91/91/91
f 96/96/96 95/95/95 94/94/94
f 99/99/99 98/98/98 97/97/97
f 102/102/102 101/101/101 100/100/100
f 105/105/105 104/104/104 103/103/103
f 108/108/108 107/107/107 106/106/106
f 111/111/111 110/110/110 109/109/109
f 114/114/114 113/113/113 112/112/112
f 117/117/117 116/116/116 115/115/115
f 120/120/120 119/119/119 118/118/118
f 123/123/123 122/122/122 121/121/121
f 126/126/126 125/125/125 124/124/124
