# Generated by Wraith - Game extraction tools
# Please credit DTZxPorter for using it!

v -1.650161 0.828876 -9.464672
v -0.917650 0.830496 -14.777705
v 3.003496 0.526938 -13.834739
v 2.099329 0.523433 -8.661018
v -1.650161 0.828876 -9.464672
v 3.003496 0.526938 -13.834739
v -1.833374 0.611896 4.361053
v -1.650161 0.828876 -9.464672
v 2.099329 0.523433 -8.661018
v 1.823866 0.522544 4.232826
v -1.833374 0.611896 4.361053
v 2.099329 0.523433 -8.661018
v 3.003496 0.526938 -13.834739
v 3.003496 -0.450781 -13.834739
v 2.099329 -0.446385 -8.661018
v 2.099329 0.523433 -8.661018
v 3.003496 0.526938 -13.834739
v 2.099329 -0.446385 -8.661018
v 1.823866 0.522544 4.232826
v 2.099329 0.523433 -8.661018
v 2.099329 -0.446385 -8.661018
v 1.823866 -0.446387 4.232826
v 1.823866 0.522544 4.232826
v 2.099329 -0.446385 -8.661018
v -0.917650 -0.754339 -14.777705
v -1.650161 -0.752719 -9.464672
v 3.003496 -0.450781 -13.834739
v -1.650161 -0.752719 -9.464672
v 2.099329 -0.446385 -8.661018
v 3.003496 -0.450781 -13.834739
v 2.099329 -0.446385 -8.661018
v -1.650161 -0.752719 -9.464672
v -1.833374 -0.535739 4.361053
v 1.823866 -0.446387 4.232826
v 2.099329 -0.446385 -8.661018
v -1.833374 -0.535739 4.361053
v -1.650161 0.828876 -9.464672
v -1.833374 0.611896 4.361053
v -1.833374 -0.535739 4.361053
v -1.650161 -0.752719 -9.464672
v -1.650161 0.828876 -9.464672
v -1.833374 -0.535739 4.361053
v -1.650161 0.828876 -9.464672
v -1.650161 -0.752719 -9.464672
v -0.917650 -0.754339 -14.777705
v -0.917650 0.830496 -14.777705
v -1.650161 0.828876 -9.464672
v -0.917650 -0.754339 -14.777705
v -1.833374 0.611896 4.361053
v 1.823866 0.522544 4.232826
v -1.833374 -0.535739 4.361053
v 1.823866 0.522544 4.232826
v 1.823866 -0.446387 4.232826
v -1.833374 -0.535739 4.361053
v 3.003496 -0.450781 -13.834739
v -0.917650 0.830496 -14.777705
v -0.917650 -0.754339 -14.777705
v 3.003496 -0.450781 -13.834739
v 3.003496 0.526938 -13.834739
v -0.917650 0.830496 -14.777705
vt 0.880859 0.083984
vt 0.870117 0.005859
vt 0.812988 0.020020
vt 0.827148 0.095703
vt 0.880859 0.083984
vt 0.812988 0.020020
vt 0.884277 0.286133
vt 0.880859 0.083984
vt 0.827148 0.095703
vt 0.830078 0.280762
vt 0.884277 0.286133
vt 0.827148 0.095703
vt 0.809082 0.014160
vt 0.796387 0.014160
vt 0.796875 0.078125
vt 0.808594 0.078125
vt 0.809082 0.014160
vt 0.796875 0.078125
vt 0.808594 0.232422
vt 0.808594 0.078125
vt 0.796875 0.078125
vt 0.796875 0.232422
vt 0.808594 0.232422
vt 0.796875 0.078125
vt 0.870117 0.006348
vt 0.880859 0.083984
vt 0.812988 0.020020
vt 0.880859 0.083984
vt 0.827148 0.095703
vt 0.812988 0.020020
vt 0.827148 0.095703
vt 0.880859 0.083984
vt 0.884277 0.285645
vt 0.830078 0.280762
vt 0.827148 0.095703
vt 0.884277 0.285645
vt 0.770996 0.083984
vt 0.774414 0.290039
vt 0.789063 0.290039
vt 0.793457 0.083008
vt 0.770996 0.083984
vt 0.789063 0.290039
vt 0.770996 0.083984
vt 0.793457 0.083008
vt 0.794922 0.005859
vt 0.769531 0.005859
vt 0.770996 0.083984
vt 0.794922 0.005859
vt 0.322510 0.308105
vt 0.320557 0.224609
vt 0.296387 0.308105
vt 0.320557 0.224609
vt 0.298340 0.224609
vt 0.296387 0.308105
vt 0.198730 0.183105
vt 0.208130 0.158203
vt 0.196289 0.158203
vt 0.198730 0.183105
vt 0.205811 0.183105
vt 0.208130 0.158203
vn 0.064579 0.998043 0.009785
vn 0.076321 0.996086 0.011742
vn 0.076321 0.996086 0.011742
vn 0.726027 0.684932 0.074364
vn 0.064579 0.998043 0.009785
vn 0.076321 0.996086 0.011742
vn 0.052838 0.998043 0.009785
vn 0.064579 0.998043 0.009785
vn 0.726027 0.684932 0.074364
vn 0.604697 0.555773 0.571429
vn 0.052838 0.998043 0.009785
vn 0.726027 0.684932 0.074364
vn 0.984344 0.000000 0.172211
vn 0.984344 0.000000 0.172211
vn 0.996086 0.000000 0.097847
vn 0.726027 0.684932 0.074364
vn 0.984344 0.000000 0.172211
vn 0.996086 0.000000 0.097847
vn 0.604697 0.555773 0.571429
vn 0.726027 0.684932 0.074364
vn 0.996086 0.000000 0.097847
vn 0.712329 0.000000 0.702544
vn 0.604697 0.555773 0.571429
vn 0.996086 0.000000 0.097847
vn 0.076321 -0.996086 0.011742
vn 0.064579 -0.998043 0.009785
vn 0.076321 -0.996086 0.011742
vn 0.064579 -0.998043 0.009785
vn 0.064579 -0.998043 0.009785
vn 0.076321 -0.996086 0.011742
vn 0.064579 -0.998043 0.009785
vn 0.064579 -0.998043 0.009785
vn 0.052838 -0.998043 0.009785
vn 0.052838 -0.998043 0.009785
vn 0.064579 -0.998043 0.009785
vn 0.052838 -0.998043 0.009785
vn -0.998043 0.000000 -0.074364
vn -1.000000 0.000000 -0.013699
vn -1.000000 0.000000 -0.013699
vn -0.998043 0.000000 -0.074364
vn -0.998043 0.000000 -0.074364
vn -1.000000 0.000000 -0.013699
vn -0.998043 0.000000 -0.074364
vn -0.998043 0.000000 -0.074364
vn -0.563601 0.000000 -0.825832
vn -0.244618 0.000000 -0.970646
vn -0.998043 0.000000 -0.074364
vn -0.563601 0.000000 -0.825832
vn 0.035225 0.000000 1.000000
vn 0.604697 0.555773 0.571429
vn 0.035225 0.000000 1.000000
vn 0.604697 0.555773 0.571429
vn 0.712329 0.000000 0.702544
vn 0.035225 0.000000 1.000000
vn 0.232877 0.000000 -0.972603
vn -0.244618 0.000000 -0.970646
vn -0.563601 0.000000 -0.825832
vn 0.232877 0.000000 -0.972603
vn 0.232877 0.000000 -0.972603
vn -0.244618 0.000000 -0.970646
mtllib mtl_t6_wpn_smg_msmc_camo1.mtl
g mtl_t6_wpn_smg_msmc_camo1
usemtl mtl_t6_wpn_smg_msmc_camo1
f 3/3/3 2/2/2 1/1/1
f 6/6/6 5/5/5 4/4/4
f 9/9/9 8/8/8 7/7/7
f 12/12/12 11/11/11 10/10/10
f 15/15/15 14/14/14 13/13/13
f 18/18/18 17/17/17 16/16/16
f 21/21/21 20/20/20 19/19/19
f 24/24/24 23/23/23 22/22/22
f 27/27/27 26/26/26 25/25/25
f 30/30/30 29/29/29 28/28/28
f 33/33/33 32/32/32 31/31/31
f 36/36/36 35/35/35 34/34/34
f 39/39/39 38/38/38 37/37/37
f 42/42/42 41/41/41 40/40/40
f 45/45/45 44/44/44 43/43/43
f 48/48/48 47/47/47 46/46/46
f 51/51/51 50/50/50 49/49/49
f 54/54/54 53/53/53 52/52/52
f 57/57/57 56/56/56 55/55/55
f 60/60/60 59/59/59 58/58/58
