# Generated by Wraith - Game extraction tools
# Please credit DTZxPorter for using it!

v -80.372795 19.977766 39.292938
v 0.000000 16.887892 41.839169
v 0.000000 -39.641193 41.530560
v -87.957886 -38.647915 40.138718
v -80.372795 19.977766 39.292938
v 0.000000 -39.641193 41.530560
v -83.554626 -42.959373 28.993870
v -87.957886 -38.647915 40.138718
v 0.000000 -39.641193 41.530560
v 0.000000 -43.660042 29.218464
v -83.554626 -42.959373 28.993870
v 0.000000 -39.641193 41.530560
v -83.554626 -42.959373 28.993870
v 0.000000 -43.660042 29.218464
v 0.000000 -42.401855 5.286979
v -99.419472 -42.117752 5.286979
v -83.554626 -42.959373 28.993870
v 0.000000 -42.401855 5.286979
v -83.554626 -42.959373 28.993870
v -99.419472 -42.117752 5.286979
v -100.111137 -42.960396 27.111937
v -84.015015 37.870190 5.271275
v 0.000000 -42.401855 5.286979
v 0.000000 37.870190 5.271275
v -84.015015 37.870190 5.271275
v -98.975670 25.945440 5.270152
v 0.000000 -42.401855 5.286979
v 0.000000 -42.401855 5.286979
v -98.975670 25.945440 5.270152
v -99.419472 -42.117752 5.286979
v -70.418282 17.863827 32.330536
v 0.000000 27.978100 71.641808
v 0.000000 17.863827 32.330536
v -70.418282 17.863827 32.330536
v -78.564011 27.978100 71.641808
v 0.000000 27.978100 71.641808
v -78.564011 27.978100 71.641808
v 0.000000 43.791676 72.893829
v 0.000000 27.978100 71.641808
v -78.564011 27.978100 71.641808
v -91.648224 43.791676 72.893829
v 0.000000 43.791676 72.893829
v -78.564011 27.978100 71.641808
v -92.544647 17.241129 70.391327
v -91.648224 43.791676 72.893829
v -92.544647 17.241129 70.391327
v -107.337959 31.080166 73.918221
v -91.648224 43.791676 72.893829
v -107.337959 31.080166 73.918221
v -92.544647 17.241129 70.391327
v -108.655548 -42.880348 73.459946
v -78.564011 27.978100 71.641808
v -70.418282 17.863827 32.330536
v -92.544647 17.241129 70.391327
v -70.418282 17.863827 32.330536
v -80.586029 11.098148 30.676785
v -92.544647 17.241129 70.391327
v -92.544647 17.241129 70.391327
v -80.586029 11.098148 30.676785
v -96.251335 -42.879314 71.717941
v -92.544647 17.241129 70.391327
v -96.251335 -42.879314 71.717941
v -108.655548 -42.880348 73.459946
v -108.655548 -42.880348 73.459946
v -96.251335 -42.879314 71.717941
v -100.111137 -42.960396 27.111937
v -96.251335 -42.879314 71.717941
v -83.554626 -42.959373 28.993870
v -100.111137 -42.960396 27.111937
v -80.586029 11.098148 30.676785
v -83.554626 -42.959373 28.993870
v -96.251335 -42.879314 71.717941
v 0.000000 27.978100 71.641808
v 70.418266 17.863827 32.330536
v 0.000000 17.863827 32.330536
v 0.000000 27.978100 71.641808
v 78.564011 27.978100 71.641808
v 70.418266 17.863827 32.330536
v 70.418266 17.863827 32.330536
v 78.564011 27.978100 71.641808
v 92.544647 17.241129 70.391327
v 80.586021 11.098148 30.676785
v 70.418266 17.863827 32.330536
v 92.544647 17.241129 70.391327
v 92.544647 17.241129 70.391327
v 96.251320 -42.879314 71.717941
v 80.586021 11.098148 30.676785
v 96.251320 -42.879314 71.717941
v 83.554619 -42.959373 28.993870
v 80.586021 11.098148 30.676785
v 83.554619 -42.959373 28.993870
v 96.251320 -42.879314 71.717941
v 100.111130 -42.960396 27.111937
v 96.251320 -42.879314 71.717941
v 108.765594 -42.880348 72.960129
v 100.111130 -42.960396 27.111937
v 0.000000 43.791676 72.893829
v 78.564011 27.978100 71.641808
v 0.000000 27.978100 71.641808
v 0.000000 43.791676 72.893829
v 91.648216 43.791676 72.893829
v 78.564011 27.978100 71.641808
v 92.544647 17.241129 70.391327
v 78.564011 27.978100 71.641808
v 91.648216 43.791676 72.893829
v 107.337952 31.080166 73.918221
v 92.544647 17.241129 70.391327
v 91.648216 43.791676 72.893829
v 107.337952 31.080166 73.918221
v 108.765594 -42.880348 72.960129
v 92.544647 17.241129 70.391327
v 108.765594 -42.880348 72.960129
v 96.251320 -42.879314 71.717941
v 92.544647 17.241129 70.391327
v 0.000000 -39.641193 41.530560
v 0.000000 16.887892 41.839169
v 80.372780 19.977766 39.292938
v 87.957878 -38.647915 40.138718
v 0.000000 -39.641193 41.530560
v 80.372780 19.977766 39.292938
v 87.957878 -38.647915 40.138718
v 83.554619 -42.959373 28.993870
v 0.000000 -39.641193 41.530560
v 83.554619 -42.959373 28.993870
v 0.000000 -43.660042 29.218464
v 0.000000 -39.641193 41.530560
v 0.000000 -42.401855 5.286979
v 0.000000 -43.660042 29.218464
v 83.554619 -42.959373 28.993870
v 99.419464 -42.117752 5.286979
v 0.000000 -42.401855 5.286979
v 83.554619 -42.959373 28.993870
v 100.111130 -42.960396 27.111937
v 99.419464 -42.117752 5.286979
v 83.554619 -42.959373 28.993870
v 0.000000 -42.401855 5.286979
v 84.015015 37.870190 5.271275
v 0.000000 37.870190 5.271275
v 84.015015 37.870190 5.271275
v 0.000000 -42.401855 5.286979
v 98.975670 25.945440 5.270152
v 98.975670 25.945440 5.270152
v 0.000000 -42.401855 5.286979
v 99.419464 -42.117752 5.286979
v -98.975670 25.945440 5.270152
v -100.111137 -42.960396 27.111937
v -99.419472 -42.117752 5.286979
v -100.111137 -42.960396 27.111937
v -98.975670 25.945440 5.270152
v -107.337959 31.080166 73.918221
v -108.655548 -42.880348 73.459946
v -100.111137 -42.960396 27.111937
v -107.337959 31.080166 73.918221
v -91.648224 43.791676 72.893829
v -107.337959 31.080166 73.918221
v -98.975670 25.945440 5.270152
v -84.015015 37.870190 5.271275
v -91.648224 43.791676 72.893829
v -98.975670 25.945440 5.270152
v 0.000000 43.791676 72.893829
v -91.648224 43.791676 72.893829
v -84.015015 37.870190 5.271275
v -84.015015 37.870190 5.271275
v 0.000000 37.870190 5.271275
v 0.000000 43.791676 72.893829
v 0.000000 37.870190 5.271275
v 84.015015 37.870190 5.271275
v 0.000000 43.791676 72.893829
v 84.015015 37.870190 5.271275
v 91.648216 43.791676 72.893829
v 0.000000 43.791676 72.893829
v 91.648216 43.791676 72.893829
v 84.015015 37.870190 5.271275
v 98.975670 25.945440 5.270152
v 107.337952 31.080166 73.918221
v 91.648216 43.791676 72.893829
v 98.975670 25.945440 5.270152
v 98.975670 25.945440 5.270152
v 100.111130 -42.960396 27.111937
v 107.337952 31.080166 73.918221
v 100.111130 -42.960396 27.111937
v 108.765594 -42.880348 72.960129
v 107.337952 31.080166 73.918221
v 100.111130 -42.960396 27.111937
v 98.975670 25.945440 5.270152
v 99.419464 -42.117752 5.286979
v -1.708394 22.636154 47.778976
v 19.372925 25.469654 79.077164
v -24.466238 25.472780 77.980362
v -1.708394 22.636154 47.778976
v 19.235773 8.153141 40.260521
v 19.372925 25.469654 79.077164
v -1.662011 6.126358 62.061733
v 19.372925 25.469654 79.077164
v 19.235773 8.153141 40.260521
v -1.662011 6.126358 62.061733
v -24.466238 25.472780 77.980362
v 19.372925 25.469654 79.077164
v -23.001947 9.041307 39.582832
v -24.466238 25.472780 77.980362
v -1.662011 6.126358 62.061733
v -23.001947 9.041307 39.582832
v -1.708394 22.636154 47.778976
v -24.466238 25.472780 77.980362
v 19.235773 8.153141 40.260521
v -1.708394 22.636154 47.778976
v -23.001947 9.041307 39.582832
v -1.662011 6.126358 62.061733
v 19.235773 8.153141 40.260521
v -23.001947 9.041307 39.582832
vt 0.961914 0.815796
vt 0.971680 0.976883
vt 0.749023 0.976883
vt 0.748047 0.825806
vt 0.961914 0.815796
vt 0.749023 0.976883
vt 0.675781 0.823486
vt 0.748047 0.825806
vt 0.749023 0.976883
vt 0.677734 0.976883
vt 0.675781 0.823486
vt 0.749023 0.976883
vt 0.675781 0.823486
vt 0.677734 0.976883
vt 0.584473 0.976883
vt 0.584473 0.704346
vt 0.675781 0.823486
vt 0.584473 0.976883
vt 0.675781 0.823486
vt 0.584473 0.704346
vt 0.667480 0.704346
vt 0.665039 0.307129
vt 0.978027 0.026855
vt 0.978027 0.307129
vt 0.665039 0.307129
vt 0.589844 0.257324
vt 0.978027 0.026855
vt 0.978027 0.026855
vt 0.589844 0.257324
vt 0.589844 0.027344
vt 0.024994 0.645996
vt 0.246094 0.977509
vt 0.024994 0.977509
vt 0.024994 0.645996
vt 0.246094 0.645996
vt 0.246094 0.977509
vt 0.246094 0.645996
vt 0.312012 0.977509
vt 0.246094 0.977509
vt 0.246094 0.645996
vt 0.312012 0.645996
vt 0.312012 0.977509
vt 0.246094 0.645996
vt 0.246094 0.526611
vt 0.312012 0.645996
vt 0.246094 0.526611
vt 0.312012 0.526611
vt 0.312012 0.645996
vt 0.312012 0.526611
vt 0.246094 0.526611
vt 0.302979 0.175293
vt 0.246094 0.645996
vt 0.024994 0.645996
vt 0.246094 0.526611
vt 0.024994 0.645996
vt 0.024994 0.526611
vt 0.246094 0.526611
vt 0.246094 0.526611
vt 0.024994 0.526611
vt 0.248779 0.191406
vt 0.246094 0.526611
vt 0.248779 0.191406
vt 0.302979 0.175293
vt 0.302979 0.175293
vt 0.248779 0.191406
vt 0.065857 0.087891
vt 0.248779 0.191406
vt 0.021667 0.176270
vt 0.065857 0.087891
vt 0.024994 0.526611
vt 0.021667 0.176270
vt 0.248779 0.191406
vt 0.246094 0.977509
vt 0.024994 0.645996
vt 0.024994 0.977509
vt 0.246094 0.977509
vt 0.246094 0.645996
vt 0.024994 0.645996
vt 0.024994 0.645996
vt 0.246094 0.645996
vt 0.246094 0.526611
vt 0.024994 0.526611
vt 0.024994 0.645996
vt 0.246094 0.526611
vt 0.246094 0.526611
vt 0.248779 0.191406
vt 0.024994 0.526611
vt 0.248779 0.191406
vt 0.021667 0.176270
vt 0.024994 0.526611
vt 0.021667 0.176270
vt 0.248779 0.191406
vt 0.065857 0.087891
vt 0.248779 0.191406
vt 0.302979 0.175293
vt 0.065857 0.087891
vt 0.312012 0.977509
vt 0.246094 0.645996
vt 0.246094 0.977509
vt 0.312012 0.977509
vt 0.312012 0.645996
vt 0.246094 0.645996
vt 0.246094 0.526611
vt 0.246094 0.645996
vt 0.312012 0.645996
vt 0.312012 0.526611
vt 0.246094 0.526611
vt 0.312012 0.645996
vt 0.312012 0.526611
vt 0.302979 0.175293
vt 0.246094 0.526611
vt 0.302979 0.175293
vt 0.248779 0.191406
vt 0.246094 0.526611
vt 0.749023 0.976883
vt 0.971680 0.976883
vt 0.961914 0.815796
vt 0.748047 0.825806
vt 0.749023 0.976883
vt 0.961914 0.815796
vt 0.748047 0.825806
vt 0.675781 0.823486
vt 0.749023 0.976883
vt 0.675781 0.823486
vt 0.677734 0.976883
vt 0.749023 0.976883
vt 0.584473 0.976883
vt 0.677734 0.976883
vt 0.675781 0.823486
vt 0.584473 0.704346
vt 0.584473 0.976883
vt 0.675781 0.823486
vt 0.667480 0.704346
vt 0.584473 0.704346
vt 0.675781 0.823486
vt 0.978027 0.026855
vt 0.665039 0.307129
vt 0.978027 0.307129
vt 0.665039 0.307129
vt 0.978027 0.026855
vt 0.589844 0.257324
vt 0.589844 0.257324
vt 0.978027 0.026855
vt 0.589844 0.027344
vt 0.553223 0.526611
vt 0.462646 0.173828
vt 0.553223 0.173828
vt 0.462646 0.173828
vt 0.553223 0.526611
vt 0.312012 0.526611
vt 0.302979 0.175293
vt 0.462646 0.173828
vt 0.312012 0.526611
vt 0.312012 0.645996
vt 0.312012 0.526611
vt 0.553223 0.526611
vt 0.553223 0.645996
vt 0.312012 0.645996
vt 0.553223 0.526611
vt 0.312012 0.977509
vt 0.312012 0.645996
vt 0.553223 0.645996
vt 0.553223 0.645996
vt 0.553223 0.977509
vt 0.312012 0.977509
vt 0.553223 0.977509
vt 0.553223 0.645996
vt 0.312012 0.977509
vt 0.553223 0.645996
vt 0.312012 0.645996
vt 0.312012 0.977509
vt 0.312012 0.645996
vt 0.553223 0.645996
vt 0.553223 0.526611
vt 0.312012 0.526611
vt 0.312012 0.645996
vt 0.553223 0.526611
vt 0.553223 0.526611
vt 0.462646 0.173828
vt 0.312012 0.526611
vt 0.462646 0.173828
vt 0.302979 0.175293
vt 0.312012 0.526611
vt 0.462646 0.173828
vt 0.553223 0.526611
vt 0.553223 0.173828
vt 0.830566 0.462891
vt 0.948242 0.579102
vt 0.712402 0.579102
vt 0.830566 0.462891
vt 0.948242 0.347168
vt 0.948242 0.579102
vt 0.828613 0.458496
vt 0.948242 0.579102
vt 0.948242 0.347168
vt 0.828613 0.458496
vt 0.712402 0.579102
vt 0.948242 0.579102
vt 0.712402 0.347168
vt 0.712402 0.579102
vt 0.828613 0.458496
vt 0.712402 0.347168
vt 0.830566 0.462891
vt 0.712402 0.579102
vt 0.948242 0.347168
vt 0.830566 0.462891
vt 0.712402 0.347168
vt 0.828613 0.458496
vt 0.948242 0.347168
vt 0.712402 0.347168
vn -0.023483 0.005871 1.000000
vn 0.000000 0.005871 1.000000
vn 0.000000 -0.575342 0.818004
vn -0.021526 -0.575342 0.818004
vn -0.023483 0.005871 1.000000
vn 0.000000 -0.575342 0.818004
vn 0.227006 -0.964775 0.131115
vn -0.021526 -0.575342 0.818004
vn 0.000000 -0.575342 0.818004
vn 0.000000 -0.988258 0.148728
vn 0.227006 -0.964775 0.131115
vn 0.000000 -0.575342 0.818004
vn 0.227006 -0.964775 0.131115
vn 0.000000 -0.988258 0.148728
vn 0.000000 -1.000000 -0.043053
vn -0.448141 -0.892368 -0.050881
vn 0.227006 -0.964775 0.131115
vn 0.000000 -1.000000 -0.043053
vn 0.227006 -0.964775 0.131115
vn -0.448141 -0.892368 -0.050881
vn -0.702544 -0.706458 -0.076321
vn 0.000000 0.000000 -1.000000
vn 0.000000 0.000000 -1.000000
vn 0.000000 0.000000 -1.000000
vn 0.000000 0.000000 -1.000000
vn 0.000000 0.000000 -1.000000
vn 0.000000 0.000000 -1.000000
vn 0.000000 0.000000 -1.000000
vn 0.000000 0.000000 -1.000000
vn 0.000000 0.000000 -1.000000
vn 0.279843 -0.915851 0.285714
vn 0.000000 -0.643836 0.765166
vn 0.000000 -0.968689 0.248532
vn 0.279843 -0.915851 0.285714
vn 0.185910 -0.594912 0.780822
vn 0.000000 -0.643836 0.765166
vn 0.185910 -0.594912 0.780822
vn 0.000000 0.710372 0.704501
vn 0.000000 -0.643836 0.765166
vn 0.185910 -0.594912 0.780822
vn -0.227006 0.651663 0.724070
vn 0.000000 0.710372 0.704501
vn 0.185910 -0.594912 0.780822
vn 0.540117 -0.291585 0.790607
vn -0.227006 0.651663 0.724070
vn 0.540117 -0.291585 0.790607
vn -0.596869 0.295499 0.745597
vn -0.227006 0.651663 0.724070
vn -0.596869 0.295499 0.745597
vn 0.540117 -0.291585 0.790607
vn -0.520548 -0.655577 0.545988
vn 0.185910 -0.594912 0.780822
vn 0.279843 -0.915851 0.285714
vn 0.540117 -0.291585 0.790607
vn 0.279843 -0.915851 0.285714
vn 0.821918 -0.465753 0.324853
vn 0.540117 -0.291585 0.790607
vn 0.540117 -0.291585 0.790607
vn 0.821918 -0.465753 0.324853
vn 0.569472 -0.524462 0.632094
vn 0.540117 -0.291585 0.790607
vn 0.569472 -0.524462 0.632094
vn -0.520548 -0.655577 0.545988
vn -0.520548 -0.655577 0.545988
vn 0.569472 -0.524462 0.632094
vn -0.702544 -0.706458 -0.076321
vn 0.569472 -0.524462 0.632094
vn 0.227006 -0.964775 0.131115
vn -0.702544 -0.706458 -0.076321
vn 0.821918 -0.465753 0.324853
vn 0.227006 -0.964775 0.131115
vn 0.569472 -0.524462 0.632094
vn 0.000000 -0.643836 0.765166
vn -0.279843 -0.915851 0.285714
vn 0.000000 -0.968689 0.248532
vn 0.000000 -0.643836 0.765166
vn -0.185910 -0.594912 0.780822
vn -0.279843 -0.915851 0.285714
vn -0.279843 -0.915851 0.285714
vn -0.185910 -0.594912 0.780822
vn -0.534247 -0.291585 0.792564
vn -0.821918 -0.465753 0.324853
vn -0.279843 -0.915851 0.285714
vn -0.534247 -0.291585 0.792564
vn -0.534247 -0.291585 0.792564
vn -0.561644 -0.528376 0.636008
vn -0.821918 -0.465753 0.324853
vn -0.561644 -0.528376 0.636008
vn -0.227006 -0.964775 0.131115
vn -0.821918 -0.465753 0.324853
vn -0.227006 -0.964775 0.131115
vn -0.561644 -0.528376 0.636008
vn 0.702544 -0.706458 -0.076321
vn -0.561644 -0.528376 0.636008
vn 0.530333 -0.651663 0.544031
vn 0.702544 -0.706458 -0.076321
vn 0.000000 0.710372 0.704501
vn -0.185910 -0.594912 0.780822
vn 0.000000 -0.643836 0.765166
vn 0.000000 0.710372 0.704501
vn 0.227006 0.651663 0.724070
vn -0.185910 -0.594912 0.780822
vn -0.534247 -0.291585 0.792564
vn -0.185910 -0.594912 0.780822
vn 0.227006 0.651663 0.724070
vn 0.602740 0.291585 0.743640
vn -0.534247 -0.291585 0.792564
vn 0.227006 0.651663 0.724070
vn 0.602740 0.291585 0.743640
vn 0.530333 -0.651663 0.544031
vn -0.534247 -0.291585 0.792564
vn 0.530333 -0.651663 0.544031
vn -0.561644 -0.528376 0.636008
vn -0.534247 -0.291585 0.792564
vn 0.000000 -0.575342 0.818004
vn 0.000000 0.005871 1.000000
vn 0.023483 0.005871 1.000000
vn 0.021526 -0.575342 0.818004
vn 0.000000 -0.575342 0.818004
vn 0.023483 0.005871 1.000000
vn 0.021526 -0.575342 0.818004
vn -0.227006 -0.964775 0.131115
vn 0.000000 -0.575342 0.818004
vn -0.227006 -0.964775 0.131115
vn 0.000000 -0.988258 0.148728
vn 0.000000 -0.575342 0.818004
vn 0.000000 -1.000000 -0.043053
vn 0.000000 -0.988258 0.148728
vn -0.227006 -0.964775 0.131115
vn 0.448141 -0.892368 -0.050881
vn 0.000000 -1.000000 -0.043053
vn -0.227006 -0.964775 0.131115
vn 0.702544 -0.706458 -0.076321
vn 0.448141 -0.892368 -0.050881
vn -0.227006 -0.964775 0.131115
vn 0.000000 0.000000 -1.000000
vn 0.000000 0.000000 -1.000000
vn 0.000000 0.000000 -1.000000
vn 0.000000 0.000000 -1.000000
vn 0.000000 0.000000 -1.000000
vn 0.000000 0.000000 -1.000000
vn 0.000000 0.000000 -1.000000
vn 0.000000 0.000000 -1.000000
vn 0.000000 0.000000 -1.000000
vn -0.953033 0.281800 -0.113503
vn -0.702544 -0.706458 -0.076321
vn -0.448141 -0.892368 -0.050881
vn -0.702544 -0.706458 -0.076321
vn -0.953033 0.281800 -0.113503
vn -0.596869 0.295499 0.745597
vn -0.520548 -0.655577 0.545988
vn -0.702544 -0.706458 -0.076321
vn -0.596869 0.295499 0.745597
vn -0.227006 0.651663 0.724070
vn -0.596869 0.295499 0.745597
vn -0.953033 0.281800 -0.113503
vn -0.330724 0.935421 -0.117417
vn -0.227006 0.651663 0.724070
vn -0.953033 0.281800 -0.113503
vn 0.000000 0.710372 0.704501
vn -0.227006 0.651663 0.724070
vn -0.330724 0.935421 -0.117417
vn -0.330724 0.935421 -0.117417
vn 0.000000 0.996086 -0.088063
vn 0.000000 0.710372 0.704501
vn 0.000000 0.996086 -0.088063
vn 0.330724 0.935421 -0.117417
vn 0.000000 0.710372 0.704501
vn 0.330724 0.935421 -0.117417
vn 0.227006 0.651663 0.724070
vn 0.000000 0.710372 0.704501
vn 0.227006 0.651663 0.724070
vn 0.330724 0.935421 -0.117417
vn 0.953033 0.281800 -0.115460
vn 0.602740 0.291585 0.743640
vn 0.227006 0.651663 0.724070
vn 0.953033 0.281800 -0.115460
vn 0.953033 0.281800 -0.115460
vn 0.702544 -0.706458 -0.076321
vn 0.602740 0.291585 0.743640
vn 0.702544 -0.706458 -0.076321
vn 0.530333 -0.651663 0.544031
vn 0.602740 0.291585 0.743640
vn 0.702544 -0.706458 -0.076321
vn 0.953033 0.281800 -0.115460
vn 0.448141 -0.892368 -0.050881
vn 0.019569 0.878669 -0.477495
vn 0.561644 -0.590998 0.581213
vn -0.058708 -0.630137 0.774951
vn 0.019569 0.878669 -0.477495
vn 0.675147 -0.733855 -0.072407
vn 0.561644 -0.590998 0.581213
vn -0.013699 -0.925636 0.379648
vn 0.561644 -0.590998 0.581213
vn 0.675147 -0.733855 -0.072407
vn -0.013699 -0.925636 0.379648
vn -0.058708 -0.630137 0.774951
vn 0.561644 -0.590998 0.581213
vn -0.508806 -0.784736 -0.354207
vn -0.058708 -0.630137 0.774951
vn -0.013699 -0.925636 0.379648
vn -0.508806 -0.784736 -0.354207
vn 0.019569 0.878669 -0.477495
vn -0.058708 -0.630137 0.774951
vn 0.675147 -0.733855 -0.072407
vn 0.019569 0.878669 -0.477495
vn -0.508806 -0.784736 -0.354207
vn -0.013699 -0.925636 0.379648
vn 0.675147 -0.733855 -0.072407
vn -0.508806 -0.784736 -0.354207
mtllib mtl_nt_2020_moving_couch_01.mtl
g mtl_nt_2020_moving_couch_01
usemtl mtl_nt_2020_moving_couch_01
f 3/3/3 2/2/2 1/1/1
f 6/6/6 5/5/5 4/4/4
f 9/9/9 8/8/8 7/7/7
f 12/12/12 11/11/11 10/10/10
f 15/15/15 14/14/14 13/13/13
f 18/18/18 17/17/17 16/16/16
f 21/21/21 20/20/20 19/19/19
f 24/24/24 23/23/23 22/22/22
f 27/27/27 26/26/26 25/25/25
f 30/30/30 29/29/29 28/28/28
f 33/33/33 32/32/32 31/31/31
f 36/36/36 35/35/35 34/34/34
f 39/39/39 38/38/38 37/37/37
f 42/42/42 41/41/41 40/40/40
f 45/45/45 44/44/44 43/43/43
f 48/48/48 47/47/47 46/46/46
f 51/51/51 50/50/50 49/49/49
f 54/54/54 53/53/53 52/52/52
f 57/57/57 56/56/56 55/55/55
f 60/60/60 59/59/59 58/58/58
f 63/63/63 62/62/62 61/61/61
f 66/66/66 65/65/65 64/64/64
f 69/69/69 68/68/68 67/67/67
f 72/72/72 71/71/71 70/70/70
f 75/75/75 74/74/74 73/73/73
f 78/78/78 77/77/77 76/76/76
f 81/81/81 80/80/80 79/79/79
f 84/84/84 83/83/83 82/82/82
f 87/87/87 86/86/86 85/85/85
f 90/90/90 89/89/89 88/88/88
f 93/93/93 92/92/92 91/91/91
f 96/96/96 95/95/95 94/94/94
f 99/99/99 98/98/98 97/97/97
f 102/102/102 101/101/101 100/100/100
f 105/105/105 104/104/104 103/103/103
f 108/108/108 107/107/107 106/106/106
f 111/111/111 110/110/110 109/109/109
f 114/114/114 113/113/113 112/112/112
f 117/117/117 116/116/116 115/115/115
f 120/120/120 119/119/119 118/118/118
f 123/123/123 122/122/122 121/121/121
f 126/126/126 125/125/125 124/124/124
f 129/129/129 128/128/128 127/127/127
f 132/132/132 131/131/131 130/130/130
f 135/135/135 134/134/134 133/133/133
f 138/138/138 137/137/137 136/136/136
f 141/141/141 140/140/140 139/139/139
f 144/144/144 143/143/143 142/142/142
f 147/147/147 146/146/146 145/145/145
f 150/150/150 149/149/149 148/148/148
f 153/153/153 152/152/152 151/151/151
f 156/156/156 155/155/155 154/154/154
f 159/159/159 158/158/158 157/157/157
f 162/162/162 161/161/161 160/160/160
f 165/165/165 164/164/164 163/163/163
f 168/168/168 167/167/167 166/166/166
f 171/171/171 170/170/170 169/169/169
f 174/174/174 173/173/173 172/172/172
f 177/177/177 176/176/176 175/175/175
f 180/180/180 179/179/179 178/178/178
f 183/183/183 182/182/182 181/181/181
f 186/186/186 185/185/185 184/184/184
f 189/189/189 188/188/188 187/187/187
f 192/192/192 191/191/191 190/190/190
f 195/195/195 194/194/194 193/193/193
f 198/198/198 197/197/197 196/196/196
f 201/201/201 200/200/200 199/199/199
f 204/204/204 203/203/203 202/202/202
f 207/207/207 206/206/206 205/205/205
f 210/210/210 209/209/209 208/208/208
