# Generated by Wraith - Game extraction tools
# Please credit DTZxPorter for using it!

v 0.587903 49.756554 11.375288
v 43.444893 25.013058 11.375288
v 43.590485 25.161142 191.275818
v 0.017470 50.318031 191.275818
v 0.587903 49.756554 11.375288
v 43.590485 25.161142 191.275818
v 0.587903 49.756554 11.375288
v 0.017470 50.318031 191.275818
v -42.269100 25.013065 11.375288
v 0.017470 50.318031 191.275818
v -43.555557 25.161150 191.275818
v -42.269100 25.013065 11.375288
v -42.269100 -24.473913 11.375288
v -42.269100 25.013065 11.375288
v -43.555557 25.161150 191.275818
v -43.555557 -25.152615 191.275818
v -42.269100 -24.473913 11.375288
v -43.555557 25.161150 191.275818
v -43.555557 -25.152615 191.275818
v 0.017465 -50.309505 191.275818
v -42.269100 -24.473913 11.375288
v 0.017465 -50.309505 191.275818
v 0.587898 -49.217407 11.375299
v -42.269100 -24.473913 11.375288
v 0.017465 -50.309505 191.275818
v 43.590485 -25.152622 191.275818
v 0.587898 -49.217407 11.375299
v 43.590485 -25.152622 191.275818
v 43.444893 -24.473921 11.375288
v 0.587898 -49.217407 11.375299
v 43.444893 -24.473921 11.375288
v 43.590485 -25.152622 191.275818
v 43.590485 25.161142 191.275818
v 43.444893 25.013058 11.375288
v 43.444893 -24.473921 11.375288
v 43.590485 25.161142 191.275818
v 43.590485 -25.152622 191.275818
v 0.017465 -50.309505 191.275818
v -43.555557 -25.152615 191.275818
v 0.017470 50.318031 191.275818
v 43.590485 -25.152622 191.275818
v -43.555557 -25.152615 191.275818
v 43.590485 25.161142 191.275818
v 43.590485 -25.152622 191.275818
v 0.017470 50.318031 191.275818
v -43.555557 -25.152615 191.275818
v -43.555557 25.161150 191.275818
v 0.017470 50.318031 191.275818
vt 0.175415 1.314941
vt -0.330566 1.314941
vt -0.330566 2.836914
vt 0.175415 2.836914
vt 0.175415 1.314941
vt -0.330566 2.836914
vt 0.175415 1.314941
vt 0.175415 2.836914
vt 0.681152 1.314941
vt 0.175415 2.836914
vt 0.681152 2.836914
vt 0.681152 1.314941
vt 1.187500 1.314941
vt 0.681152 1.314941
vt 0.681152 2.836914
vt 1.187500 2.836914
vt 1.187500 1.314941
vt 0.681152 2.836914
vt 1.187500 2.836914
vt 1.693359 2.836914
vt 1.187500 1.314941
vt 1.693359 2.836914
vt 1.693359 1.314941
vt 1.187500 1.314941
vt 1.693359 2.836914
vt 2.199219 2.836914
vt 1.693359 1.314941
vt 2.199219 2.836914
vt 2.199219 1.314941
vt 1.693359 1.314941
vt 2.199219 1.314941
vt 2.199219 2.836914
vt 2.705078 2.836914
vt 2.705078 1.314941
vt 2.199219 1.314941
vt 2.705078 2.836914
vt 2.863281 2.250977
vt 2.431641 2.001953
vt 2.000000 2.250977
vt 2.431641 2.997070
vt 2.863281 2.250977
vt 2.000000 2.250977
vt 2.863281 2.748047
vt 2.863281 2.250977
vt 2.431641 2.997070
vt 2.000000 2.250977
vt 2.000000 2.748047
vt 2.431641 2.997070
vn 0.000000 0.998043 0.046967
vn 0.864971 0.499022 0.046967
vn 0.716243 0.412916 0.561644
vn 0.000000 0.827789 0.561644
vn 0.000000 0.998043 0.046967
vn 0.716243 0.412916 0.561644
vn 0.000000 0.998043 0.046967
vn 0.000000 0.827789 0.561644
vn -0.864971 0.499022 0.046967
vn 0.000000 0.827789 0.561644
vn -0.716243 0.412916 0.561644
vn -0.864971 0.499022 0.046967
vn -0.864971 -0.499022 0.046967
vn -0.864971 0.499022 0.046967
vn -0.716243 0.412916 0.561644
vn -0.716243 -0.412916 0.561644
vn -0.864971 -0.499022 0.046967
vn -0.716243 0.412916 0.561644
vn -0.716243 -0.412916 0.561644
vn 0.000000 -0.827789 0.561644
vn -0.864971 -0.499022 0.046967
vn 0.000000 -0.827789 0.561644
vn 0.000000 -0.998043 0.046967
vn -0.864971 -0.499022 0.046967
vn 0.000000 -0.827789 0.561644
vn 0.716243 -0.412916 0.561644
vn 0.000000 -0.998043 0.046967
vn 0.716243 -0.412916 0.561644
vn 0.864971 -0.499022 0.046967
vn 0.000000 -0.998043 0.046967
vn 0.864971 -0.499022 0.046967
vn 0.716243 -0.412916 0.561644
vn 0.716243 0.412916 0.561644
vn 0.864971 0.499022 0.046967
vn 0.864971 -0.499022 0.046967
vn 0.716243 0.412916 0.561644
vn 0.000000 0.000000 1.000000
vn 0.000000 0.000000 1.000000
vn 0.000000 0.000000 1.000000
vn 0.000000 0.000000 1.000000
vn 0.000000 0.000000 1.000000
vn 0.000000 0.000000 1.000000
vn 0.000000 0.000000 1.000000
vn 0.000000 0.000000 1.000000
vn 0.000000 0.000000 1.000000
vn 0.000000 0.000000 1.000000
vn 0.000000 0.000000 1.000000
vn 0.000000 0.000000 1.000000
mtllib mtl_p6_foliage_hedge2.mtl
g mtl_p6_foliage_hedge2
usemtl mtl_p6_foliage_hedge2
f 3/3/3 2/2/2 1/1/1
f 6/6/6 5/5/5 4/4/4
f 9/9/9 8/8/8 7/7/7
f 12/12/12 11/11/11 10/10/10
f 15/15/15 14/14/14 13/13/13
f 18/18/18 17/17/17 16/16/16
f 21/21/21 20/20/20 19/19/19
f 24/24/24 23/23/23 22/22/22
f 27/27/27 26/26/26 25/25/25
f 30/30/30 29/29/29 28/28/28
f 33/33/33 32/32/32 31/31/31
f 36/36/36 35/35/35 34/34/34
f 39/39/39 38/38/38 37/37/37
f 42/42/42 41/41/41 40/40/40
f 45/45/45 44/44/44 43/43/43
f 48/48/48 47/47/47 46/46/46
