# Generated by Wraith - Game extraction tools
# Please credit DTZxPorter for using it!

v 12.059221 0.014623 2.927226
v 14.646667 0.014623 0.000000
v 12.059221 -2.912603 0.000000
v 12.059221 0.014623 -2.927226
v 14.646667 0.014623 0.000000
v 12.059221 2.941848 0.000000
v -11.950271 2.941848 0.000000
v -11.950271 0.014623 2.927226
v -11.950271 0.014623 -2.927226
v -11.950271 0.014623 -2.927226
v -11.950271 0.014623 2.927226
v -11.950271 -2.912603 0.000000
v 12.059221 0.014623 2.927226
v 12.059221 2.941848 0.000000
v 14.646667 0.014623 0.000000
v -11.950271 0.014623 2.927226
v 12.059221 2.941848 0.000000
v 12.059221 0.014623 2.927226
v -11.950271 2.941848 0.000000
v 12.059221 2.941848 0.000000
v -11.950271 0.014623 2.927226
v -11.950271 0.014623 2.927226
v 12.059221 0.014623 2.927226
v -11.950271 -2.912603 0.000000
v -11.950271 -2.912603 0.000000
v 12.059221 0.014623 2.927226
v 12.059221 -2.912603 0.000000
v -11.950271 -2.912603 0.000000
v 12.059221 -2.912603 0.000000
v -11.950271 0.014623 -2.927226
v -11.950271 0.014623 -2.927226
v 12.059221 -2.912603 0.000000
v 12.059221 0.014623 -2.927226
v -11.950271 0.014623 -2.927226
v 12.059221 0.014623 -2.927226
v -11.950271 2.941848 0.000000
v -11.950271 2.941848 0.000000
v 12.059221 0.014623 -2.927226
v 12.059221 2.941848 0.000000
v 12.059221 -2.912603 0.000000
v 14.646667 0.014623 0.000000
v 12.059221 0.014623 -2.927226
vt 0.678711 0.604980
vt 0.662598 0.626953
vt 0.662598 0.604980
vt 0.646484 0.604980
vt 0.662598 0.626953
vt 0.662598 0.604980
vt 0.931152 0.963226
vt 0.913086 0.999273
vt 0.913086 0.927124
vt 0.913086 0.927124
vt 0.913086 0.999273
vt 0.895020 0.963226
vt 0.678711 0.604980
vt 0.662598 0.604980
vt 0.662598 0.626953
vt 0.678711 0.383301
vt 0.662598 0.604980
vt 0.678711 0.604980
vt 0.662598 0.383301
vt 0.662598 0.604980
vt 0.678711 0.383301
vt 0.678711 0.383301
vt 0.678711 0.604980
vt 0.662598 0.383301
vt 0.662598 0.383301
vt 0.678711 0.604980
vt 0.662598 0.604980
vt 0.662598 0.383301
vt 0.662598 0.604980
vt 0.646484 0.383301
vt 0.646484 0.383301
vt 0.662598 0.604980
vt 0.646484 0.604980
vt 0.646484 0.383301
vt 0.646484 0.604980
vt 0.662598 0.383301
vt 0.662598 0.383301
vt 0.646484 0.604980
vt 0.662598 0.604980
vt 0.662598 0.604980
vt 0.662598 0.626953
vt 0.646484 0.604980
vn 0.444227 0.000000 0.896282
vn 1.000000 0.000000 0.000000
vn 0.444227 -0.896282 0.000000
vn 0.444227 0.000000 -0.896282
vn 1.000000 0.000000 0.000000
vn 0.444227 0.896282 0.000000
vn -1.000000 0.000000 0.000000
vn -1.000000 0.000000 0.000000
vn -1.000000 0.000000 0.000000
vn -1.000000 0.000000 0.000000
vn -1.000000 0.000000 0.000000
vn -1.000000 0.000000 0.000000
vn 0.444227 0.000000 0.896282
vn 0.444227 0.896282 0.000000
vn 1.000000 0.000000 0.000000
vn 0.000000 0.000000 1.000000
vn 0.444227 0.896282 0.000000
vn 0.444227 0.000000 0.896282
vn 0.000000 1.000000 0.000000
vn 0.444227 0.896282 0.000000
vn 0.000000 0.000000 1.000000
vn 0.000000 0.000000 1.000000
vn 0.444227 0.000000 0.896282
vn 0.000000 -1.000000 0.000000
vn 0.000000 -1.000000 0.000000
vn 0.444227 0.000000 0.896282
vn 0.444227 -0.896282 0.000000
vn 0.000000 -1.000000 0.000000
vn 0.444227 -0.896282 0.000000
vn 0.000000 0.000000 -1.000000
vn 0.000000 0.000000 -1.000000
vn 0.444227 -0.896282 0.000000
vn 0.444227 0.000000 -0.896282
vn 0.000000 0.000000 -1.000000
vn 0.444227 0.000000 -0.896282
vn 0.000000 1.000000 0.000000
vn 0.000000 1.000000 0.000000
vn 0.444227 0.000000 -0.896282
vn 0.444227 0.896282 0.000000
vn 0.444227 -0.896282 0.000000
vn 1.000000 0.000000 0.000000
vn 0.444227 0.000000 -0.896282
mtllib mtl_weapon_at4.mtl
g mtl_weapon_at4
usemtl mtl_weapon_at4
f 3/3/3 2/2/2 1/1/1
f 6/6/6 5/5/5 4/4/4
f 9/9/9 8/8/8 7/7/7
f 12/12/12 11/11/11 10/10/10
f 15/15/15 14/14/14 13/13/13
f 18/18/18 17/17/17 16/16/16
f 21/21/21 20/20/20 19/19/19
f 24/24/24 23/23/23 22/22/22
f 27/27/27 26/26/26 25/25/25
f 30/30/30 29/29/29 28/28/28
f 33/33/33 32/32/32 31/31/31
f 36/36/36 35/35/35 34/34/34
f 39/39/39 38/38/38 37/37/37
f 42/42/42 41/41/41 40/40/40
