# Generated by Wraith - Game extraction tools
# Please credit DTZxPorter for using it!

v 0.000191 0.020198 -11.599578
v 3.954851 -5.443367 12.642525
v -3.954851 -5.443370 12.642525
v 0.000191 0.020198 -11.599578
v -3.954851 -5.443370 12.642525
v -6.399065 2.079183 12.642525
v 0.000191 0.020198 -11.599578
v -6.399065 2.079183 12.642525
v 0.000005 6.728374 12.642525
v -3.145099 -4.348770 -12.642523
v -0.000201 5.330213 -12.642523
v -5.088740 1.633172 -12.642523
v 0.000191 0.020198 -11.599578
v 0.000005 6.728374 12.642525
v 6.399075 2.079180 12.642525
v 0.000191 0.020198 -11.599578
v 6.399075 2.079180 12.642525
v 3.954851 -5.443367 12.642525
v -6.399065 2.079183 12.642525
v -3.954851 -5.443370 12.642525
v -5.088740 1.633172 -12.642523
v -3.145099 -4.348770 -12.642523
v -5.088740 1.633172 -12.642523
v -3.954851 -5.443370 12.642525
v 3.144700 -4.348770 -12.642523
v -3.145099 -4.348770 -12.642523
v -3.954851 -5.443370 12.642525
v 3.954851 -5.443367 12.642525
v 3.144700 -4.348770 -12.642523
v -3.954851 -5.443370 12.642525
v 5.088341 1.633172 -12.642523
v 3.144700 -4.348770 -12.642523
v 3.954851 -5.443367 12.642525
v 6.399075 2.079180 12.642525
v 5.088341 1.633172 -12.642523
v 3.954851 -5.443367 12.642525
v -0.000201 5.330213 -12.642523
v 5.088341 1.633172 -12.642523
v 6.399075 2.079180 12.642525
v 0.000005 6.728374 12.642525
v -0.000201 5.330213 -12.642523
v 6.399075 2.079180 12.642525
v -5.088740 1.633172 -12.642523
v -0.000201 5.330213 -12.642523
v 0.000005 6.728374 12.642525
v -6.399065 2.079183 12.642525
v -5.088740 1.633172 -12.642523
v 0.000005 6.728374 12.642525
v 5.088341 1.633172 -12.642523
v -0.000201 5.330213 -12.642523
v 3.144700 -4.348770 -12.642523
v 3.144700 -4.348770 -12.642523
v -0.000201 5.330213 -12.642523
v -3.145099 -4.348770 -12.642523
vt 0.328613 0.902588
vt 0.256592 0.954865
vt 0.356201 0.987152
vt 0.328613 0.902588
vt 0.356201 0.987152
vt 0.417480 0.902588
vt 0.328613 0.902588
vt 0.417480 0.902588
vt 0.356201 0.817993
vt 0.844238 0.841553
vt 0.587891 0.961792
vt 0.677734 0.840820
vt 0.328613 0.902588
vt 0.356201 0.817993
vt 0.256592 0.850342
vt 0.328613 0.902588
vt 0.256592 0.850342
vt 0.256592 0.954865
vt 0.035858 0.618164
vt 0.222046 0.618164
vt 0.106323 0.018555
vt 0.264648 0.018555
vt 0.106323 0.018555
vt 0.222046 0.618164
vt 0.424072 0.018555
vt 0.264648 0.018555
vt 0.222046 0.618164
vt 0.409180 0.618164
vt 0.424072 0.018555
vt 0.222046 0.618164
vt 0.583496 0.018555
vt 0.424072 0.018555
vt 0.409180 0.618164
vt 0.596680 0.618164
vt 0.583496 0.018555
vt 0.409180 0.618164
vt 0.743164 0.018555
vt 0.583496 0.018555
vt 0.596680 0.618164
vt 0.784180 0.618164
vt 0.743164 0.018555
vt 0.596680 0.618164
vt 0.901367 0.018555
vt 0.743164 0.018555
vt 0.784180 0.618164
vt 0.971191 0.618164
vt 0.901367 0.018555
vt 0.784180 0.618164
vt 0.445313 0.913696
vt 0.587891 0.961792
vt 0.700195 0.886658
vt 0.700195 0.886658
vt 0.587891 0.961792
vt 0.844238 0.841553
vn 0.000000 0.000000 1.000000
vn -0.565558 0.778865 0.268102
vn 0.565558 0.778865 0.268102
vn 0.000000 0.000000 1.000000
vn 0.565558 0.778865 0.268102
vn 0.915851 -0.297456 0.268102
vn 0.000000 0.000000 1.000000
vn 0.915851 -0.297456 0.268102
vn 0.000000 -0.962818 0.266145
vn 0.000000 0.000000 -1.000000
vn 0.000000 0.000000 -1.000000
vn 0.000000 0.000000 -1.000000
vn 0.000000 0.000000 1.000000
vn 0.000000 -0.962818 0.266145
vn -0.915851 -0.297456 0.268102
vn 0.000000 0.000000 1.000000
vn -0.915851 -0.297456 0.268102
vn -0.565558 0.778865 0.268102
vn -0.949119 0.309198 -0.054795
vn -0.587084 -0.808219 -0.052838
vn -0.949119 0.309198 -0.054795
vn -0.587084 -0.808219 -0.052838
vn -0.949119 0.309198 -0.054795
vn -0.587084 -0.808219 -0.052838
vn 0.587084 -0.808219 -0.052838
vn -0.587084 -0.808219 -0.052838
vn -0.587084 -0.808219 -0.052838
vn 0.587084 -0.808219 -0.052838
vn 0.587084 -0.808219 -0.052838
vn -0.587084 -0.808219 -0.052838
vn 0.949119 0.309198 -0.054795
vn 0.587084 -0.808219 -0.052838
vn 0.587084 -0.808219 -0.052838
vn 0.949119 0.309198 -0.054795
vn 0.949119 0.309198 -0.054795
vn 0.587084 -0.808219 -0.052838
vn 0.000000 0.998043 -0.054795
vn 0.949119 0.309198 -0.054795
vn 0.949119 0.309198 -0.054795
vn 0.000000 0.998043 -0.054795
vn 0.000000 0.998043 -0.054795
vn 0.949119 0.309198 -0.054795
vn -0.949119 0.309198 -0.054795
vn 0.000000 0.998043 -0.054795
vn 0.000000 0.998043 -0.054795
vn -0.949119 0.309198 -0.054795
vn -0.949119 0.309198 -0.054795
vn 0.000000 0.998043 -0.054795
vn 0.000000 0.000000 -1.000000
vn 0.000000 0.000000 -1.000000
vn 0.000000 0.000000 -1.000000
vn 0.000000 0.000000 -1.000000
vn 0.000000 0.000000 -1.000000
vn 0.000000 0.000000 -1.000000
mtllib mtl_pocorn_cup.mtl
g mtl_pocorn_cup
usemtl mtl_pocorn_cup
f 3/3/3 2/2/2 1/1/1
f 6/6/6 5/5/5 4/4/4
f 9/9/9 8/8/8 7/7/7
f 12/12/12 11/11/11 10/10/10
f 15/15/15 14/14/14 13/13/13
f 18/18/18 17/17/17 16/16/16
f 21/21/21 20/20/20 19/19/19
f 24/24/24 23/23/23 22/22/22
f 27/27/27 26/26/26 25/25/25
f 30/30/30 29/29/29 28/28/28
f 33/33/33 32/32/32 31/31/31
f 36/36/36 35/35/35 34/34/34
f 39/39/39 38/38/38 37/37/37
f 42/42/42 41/41/41 40/40/40
f 45/45/45 44/44/44 43/43/43
f 48/48/48 47/47/47 46/46/46
f 51/51/51 50/50/50 49/49/49
f 54/54/54 53/53/53 52/52/52
