# Generated by Wraith - Game extraction tools
# Please credit DTZxPorter for using it!

v 3.954851 -5.443367 12.642525
v 0.000191 0.020198 -11.599578
v 6.399075 -2.079180 12.642525
v 0.000005 -6.728374 12.642525
v 0.000191 0.020198 -11.599578
v 3.954851 -5.443367 12.642525
v -3.954851 -5.443370 12.642525
v 0.000191 0.020198 -11.599578
v 0.000005 -6.728374 12.642525
v -6.399075 -2.079180 12.642525
v 0.000191 0.020198 -11.599578
v -3.954851 -5.443370 12.642525
v -6.399065 2.079183 12.642525
v 0.000191 0.020198 -11.599578
v -6.399075 -2.079180 12.642525
v -3.954841 5.443370 12.642525
v 0.000191 0.020198 -11.599578
v -6.399065 2.079183 12.642525
v 0.000005 6.728374 12.642525
v 0.000191 0.020198 -11.599578
v -3.954841 5.443370 12.642525
v 6.399075 -2.079180 12.642525
v 0.000191 0.020198 -11.599578
v 6.399075 2.079180 12.642525
v 6.399075 2.079180 12.642525
v 0.000191 0.020198 -11.599578
v 3.954851 5.443370 12.642525
v 3.954851 5.443370 12.642525
v 0.000191 0.020198 -11.599578
v 0.000005 6.728374 12.642525
v -6.399065 2.079183 12.642525
v -5.088740 -1.673565 -12.642523
v -5.088740 1.633172 -12.642523
v -6.399075 -2.079180 12.642525
v -5.088740 -1.673565 -12.642523
v -6.399065 2.079183 12.642525
v -6.399075 -2.079180 12.642525
v -3.145099 -4.348770 -12.642523
v -5.088740 -1.673565 -12.642523
v -3.954851 -5.443370 12.642525
v -3.145099 -4.348770 -12.642523
v -6.399075 -2.079180 12.642525
v -3.954851 -5.443370 12.642525
v -0.000201 -5.370606 -12.642523
v -3.145099 -4.348770 -12.642523
v 0.000005 -6.728374 12.642525
v -0.000201 -5.370606 -12.642523
v -3.954851 -5.443370 12.642525
v 0.000005 -6.728374 12.642525
v 3.144700 -4.348770 -12.642523
v -0.000201 -5.370606 -12.642523
v 3.954851 -5.443367 12.642525
v 3.144700 -4.348770 -12.642523
v 0.000005 -6.728374 12.642525
v 3.954851 -5.443367 12.642525
v 5.088362 -1.673565 -12.642523
v 3.144700 -4.348770 -12.642523
v 6.399075 -2.079180 12.642525
v 5.088362 -1.673565 -12.642523
v 3.954851 -5.443367 12.642525
v 6.399075 -2.079180 12.642525
v 5.088341 1.633172 -12.642523
v 5.088362 -1.673565 -12.642523
v 6.399075 2.079180 12.642525
v 5.088341 1.633172 -12.642523
v 6.399075 -2.079180 12.642525
v 6.399075 2.079180 12.642525
v 3.144700 4.308376 -12.642453
v 5.088341 1.633172 -12.642523
v 3.954851 5.443370 12.642525
v 3.144700 4.308376 -12.642453
v 6.399075 2.079180 12.642525
v 3.954851 5.443370 12.642525
v -0.000201 5.330213 -12.642523
v 3.144700 4.308376 -12.642453
v 0.000005 6.728374 12.642525
v -0.000201 5.330213 -12.642523
v 3.954851 5.443370 12.642525
v 0.000005 6.728374 12.642525
v -3.145099 4.308376 -12.642523
v -0.000201 5.330213 -12.642523
v -3.954841 5.443370 12.642525
v -3.145099 4.308376 -12.642523
v 0.000005 6.728374 12.642525
v -3.954841 5.443370 12.642525
v -5.088740 1.633172 -12.642523
v -3.145099 4.308376 -12.642523
v -6.399065 2.079183 12.642525
v -5.088740 1.633172 -12.642523
v -3.954841 5.443370 12.642525
v 3.144700 -4.348770 -12.642523
v 5.088362 -1.673565 -12.642523
v -0.000201 -5.370606 -12.642523
v -0.000201 -5.370606 -12.642523
v 5.088362 -1.673565 -12.642523
v -3.145099 -4.348770 -12.642523
v -3.145099 -4.348770 -12.642523
v 5.088362 -1.673565 -12.642523
v -5.088740 -1.673565 -12.642523
v -5.088740 -1.673565 -12.642523
v 5.088362 -1.673565 -12.642523
v -5.088740 1.633172 -12.642523
v 3.144700 4.308376 -12.642453
v 5.088362 -1.673565 -12.642523
v 5.088341 1.633172 -12.642523
v -0.000201 5.330213 -12.642523
v 5.088362 -1.673565 -12.642523
v 3.144700 4.308376 -12.642453
v -3.145099 4.308376 -12.642523
v 5.088362 -1.673565 -12.642523
v -0.000201 5.330213 -12.642523
v -5.088740 1.633172 -12.642523
v 5.088362 -1.673565 -12.642523
v -3.145099 4.308376 -12.642523
vt 0.256592 0.954865
vt 0.328613 0.902588
vt 0.239746 0.902588
vt 0.301270 0.987152
vt 0.328613 0.902588
vt 0.256592 0.954865
vt 0.356201 0.987152
vt 0.328613 0.902588
vt 0.301270 0.987152
vt 0.400635 0.954865
vt 0.328613 0.902588
vt 0.356201 0.987152
vt 0.417480 0.902588
vt 0.328613 0.902588
vt 0.400635 0.954865
vt 0.400635 0.850342
vt 0.328613 0.902588
vt 0.417480 0.902588
vt 0.356201 0.817993
vt 0.328613 0.902588
vt 0.400635 0.850342
vt 0.239746 0.902588
vt 0.328613 0.902588
vt 0.256592 0.850342
vt 0.256592 0.850342
vt 0.328613 0.902588
vt 0.301270 0.817993
vt 0.301270 0.817993
vt 0.328613 0.902588
vt 0.356201 0.817993
vt 0.035858 0.618164
vt 0.185303 0.018555
vt 0.106323 0.018555
vt 0.128662 0.618164
vt 0.185303 0.018555
vt 0.035858 0.618164
vt 0.128662 0.618164
vt 0.264648 0.018555
vt 0.185303 0.018555
vt 0.222046 0.618164
vt 0.264648 0.018555
vt 0.128662 0.618164
vt 0.222046 0.618164
vt 0.344238 0.018555
vt 0.264648 0.018555
vt 0.315674 0.618164
vt 0.344238 0.018555
vt 0.222046 0.618164
vt 0.315674 0.618164
vt 0.424072 0.018555
vt 0.344238 0.018555
vt 0.409180 0.618164
vt 0.424072 0.018555
vt 0.315674 0.618164
vt 0.409180 0.618164
vt 0.503906 0.018555
vt 0.424072 0.018555
vt 0.502930 0.618164
vt 0.503906 0.018555
vt 0.409180 0.618164
vt 0.502930 0.618164
vt 0.583496 0.018555
vt 0.503906 0.018555
vt 0.596680 0.618164
vt 0.583496 0.018555
vt 0.502930 0.618164
vt 0.596680 0.618164
vt 0.663574 0.018555
vt 0.583496 0.018555
vt 0.690430 0.618164
vt 0.663574 0.018555
vt 0.596680 0.618164
vt 0.690430 0.618164
vt 0.743164 0.018555
vt 0.663574 0.018555
vt 0.784180 0.618164
vt 0.743164 0.018555
vt 0.690430 0.618164
vt 0.784180 0.618164
vt 0.822266 0.018555
vt 0.743164 0.018555
vt 0.877930 0.618164
vt 0.822266 0.018555
vt 0.784180 0.618164
vt 0.877930 0.618164
vt 0.901367 0.018555
vt 0.822266 0.018555
vt 0.971191 0.618164
vt 0.901367 0.018555
vt 0.877930 0.618164
vt 0.700195 0.886658
vt 0.674805 0.961731
vt 0.765137 0.840698
vt 0.765137 0.840698
vt 0.674805 0.961731
vt 0.844238 0.841553
vt 0.844238 0.841553
vt 0.674805 0.961731
vt 0.907715 0.888794
vt 0.907715 0.888794
vt 0.674805 0.961731
vt 0.931641 0.964417
vt 0.508789 0.960968
vt 0.421631 0.838135
vt 0.445313 0.913696
vt 0.587891 0.961792
vt 0.421631 0.838135
vt 0.508789 0.960968
vt 0.652832 0.915894
vt 0.421631 0.838135
vt 0.587891 0.961792
vt 0.677734 0.840820
vt 0.421631 0.838135
vt 0.652832 0.915894
vn -0.565558 0.778865 0.268102
vn 0.000000 0.000000 1.000000
vn -0.915851 0.297456 0.268102
vn 0.000000 0.962818 0.268102
vn 0.000000 0.000000 1.000000
vn -0.565558 0.778865 0.268102
vn 0.565558 0.778865 0.268102
vn 0.000000 0.000000 1.000000
vn 0.000000 0.962818 0.268102
vn 0.915851 0.297456 0.268102
vn 0.000000 0.000000 1.000000
vn 0.565558 0.778865 0.268102
vn 0.915851 -0.297456 0.268102
vn 0.000000 0.000000 1.000000
vn 0.915851 0.297456 0.268102
vn 0.565558 -0.778865 0.266145
vn 0.000000 0.000000 1.000000
vn 0.915851 -0.297456 0.268102
vn 0.000000 -0.962818 0.266145
vn 0.000000 0.000000 1.000000
vn 0.565558 -0.778865 0.266145
vn -0.915851 0.297456 0.268102
vn 0.000000 0.000000 1.000000
vn -0.915851 -0.297456 0.268102
vn -0.915851 -0.297456 0.268102
vn 0.000000 0.000000 1.000000
vn -0.565558 -0.778865 0.266145
vn -0.565558 -0.778865 0.266145
vn 0.000000 0.000000 1.000000
vn 0.000000 -0.962818 0.266145
vn -0.949119 0.309198 -0.054795
vn -0.949119 -0.309198 -0.054795
vn -0.949119 0.309198 -0.054795
vn -0.949119 -0.309198 -0.054795
vn -0.949119 -0.309198 -0.054795
vn -0.949119 0.309198 -0.054795
vn -0.949119 -0.309198 -0.054795
vn -0.587084 -0.808219 -0.052838
vn -0.949119 -0.309198 -0.054795
vn -0.587084 -0.808219 -0.052838
vn -0.587084 -0.808219 -0.052838
vn -0.949119 -0.309198 -0.054795
vn -0.587084 -0.808219 -0.052838
vn 0.000000 -0.998043 -0.052838
vn -0.587084 -0.808219 -0.052838
vn 0.000000 -0.998043 -0.052838
vn 0.000000 -0.998043 -0.052838
vn -0.587084 -0.808219 -0.052838
vn 0.000000 -0.998043 -0.052838
vn 0.587084 -0.808219 -0.052838
vn 0.000000 -0.998043 -0.052838
vn 0.587084 -0.808219 -0.052838
vn 0.587084 -0.808219 -0.052838
vn 0.000000 -0.998043 -0.052838
vn 0.587084 -0.808219 -0.052838
vn 0.949119 -0.309198 -0.054795
vn 0.587084 -0.808219 -0.052838
vn 0.949119 -0.309198 -0.054795
vn 0.949119 -0.309198 -0.054795
vn 0.587084 -0.808219 -0.052838
vn 0.949119 -0.309198 -0.054795
vn 0.949119 0.309198 -0.054795
vn 0.949119 -0.309198 -0.054795
vn 0.949119 0.309198 -0.054795
vn 0.949119 0.309198 -0.054795
vn 0.949119 -0.309198 -0.054795
vn 0.949119 0.309198 -0.054795
vn 0.587084 0.808219 -0.054795
vn 0.949119 0.309198 -0.054795
vn 0.587084 0.808219 -0.054795
vn 0.587084 0.808219 -0.054795
vn 0.949119 0.309198 -0.054795
vn 0.587084 0.808219 -0.054795
vn 0.000000 0.998043 -0.054795
vn 0.587084 0.808219 -0.054795
vn 0.000000 0.998043 -0.054795
vn 0.000000 0.998043 -0.054795
vn 0.587084 0.808219 -0.054795
vn 0.000000 0.998043 -0.054795
vn -0.587084 0.808219 -0.054795
vn 0.000000 0.998043 -0.054795
vn -0.587084 0.808219 -0.054795
vn -0.587084 0.808219 -0.054795
vn 0.000000 0.998043 -0.054795
vn -0.587084 0.808219 -0.054795
vn -0.949119 0.309198 -0.054795
vn -0.587084 0.808219 -0.054795
vn -0.949119 0.309198 -0.054795
vn -0.949119 0.309198 -0.054795
vn -0.587084 0.808219 -0.054795
vn 0.000000 0.000000 -1.000000
vn 0.000000 0.000000 -1.000000
vn 0.000000 0.000000 -1.000000
vn 0.000000 0.000000 -1.000000
vn 0.000000 0.000000 -1.000000
vn 0.000000 0.000000 -1.000000
vn 0.000000 0.000000 -1.000000
vn 0.000000 0.000000 -1.000000
vn 0.000000 0.000000 -1.000000
vn 0.000000 0.000000 -1.000000
vn 0.000000 0.000000 -1.000000
vn 0.000000 0.000000 -1.000000
vn 0.000000 0.000000 -1.000000
vn 0.000000 0.000000 -1.000000
vn 0.000000 0.000000 -1.000000
vn 0.000000 0.000000 -1.000000
vn 0.000000 0.000000 -1.000000
vn 0.000000 0.000000 -1.000000
vn 0.000000 0.000000 -1.000000
vn 0.000000 0.000000 -1.000000
vn 0.000000 0.000000 -1.000000
vn 0.000000 0.000000 -1.000000
vn 0.000000 0.000000 -1.000000
vn 0.000000 0.000000 -1.000000
mtllib mtl_pocorn_cup.mtl
g mtl_pocorn_cup
usemtl mtl_pocorn_cup
f 3/3/3 2/2/2 1/1/1
f 6/6/6 5/5/5 4/4/4
f 9/9/9 8/8/8 7/7/7
f 12/12/12 11/11/11 10/10/10
f 15/15/15 14/14/14 13/13/13
f 18/18/18 17/17/17 16/16/16
f 21/21/21 20/20/20 19/19/19
f 24/24/24 23/23/23 22/22/22
f 27/27/27 26/26/26 25/25/25
f 30/30/30 29/29/29 28/28/28
f 33/33/33 32/32/32 31/31/31
f 36/36/36 35/35/35 34/34/34
f 39/39/39 38/38/38 37/37/37
f 42/42/42 41/41/41 40/40/40
f 45/45/45 44/44/44 43/43/43
f 48/48/48 47/47/47 46/46/46
f 51/51/51 50/50/50 49/49/49
f 54/54/54 53/53/53 52/52/52
f 57/57/57 56/56/56 55/55/55
f 60/60/60 59/59/59 58/58/58
f 63/63/63 62/62/62 61/61/61
f 66/66/66 65/65/65 64/64/64
f 69/69/69 68/68/68 67/67/67
f 72/72/72 71/71/71 70/70/70
f 75/75/75 74/74/74 73/73/73
f 78/78/78 77/77/77 76/76/76
f 81/81/81 80/80/80 79/79/79
f 84/84/84 83/83/83 82/82/82
f 87/87/87 86/86/86 85/85/85
f 90/90/90 89/89/89 88/88/88
f 93/93/93 92/92/92 91/91/91
f 96/96/96 95/95/95 94/94/94
f 99/99/99 98/98/98 97/97/97
f 102/102/102 101/101/101 100/100/100
f 105/105/105 104/104/104 103/103/103
f 108/108/108 107/107/107 106/106/106
f 111/111/111 110/110/110 109/109/109
f 114/114/114 113/113/113 112/112/112
