# Generated by Wraith - Game extraction tools
# Please credit DTZxPorter for using it!

v 6.415916 -40.419178 1.288700
v 3.862322 -37.787430 -0.002374
v 6.439723 40.419189 1.288700
v 3.862322 -37.787430 -0.002374
v 3.862322 37.786888 -0.002374
v 6.403953 40.419189 1.288700
v 6.403953 40.419189 -1.288700
v 3.862322 37.786888 0.002364
v 6.439723 -40.419178 -1.288700
v 3.862322 -37.787430 0.002364
v 6.415916 -40.419178 -1.288700
v 3.862322 37.786888 0.002364
v -6.439723 -40.419178 1.288700
v -6.439723 -37.787430 -0.002374
v 6.415916 -40.419178 1.288700
v 6.415916 -40.419178 1.288700
v -6.439723 -37.787430 -0.002374
v 3.862322 -37.787430 -0.002374
v -6.439723 -40.419178 -1.288700
v 6.415916 -40.419178 -1.288700
v -6.439723 -37.787430 0.002364
v 3.862322 -37.787430 0.002364
v -6.439723 -37.787430 0.002364
v 6.415916 -40.419178 -1.288700
v 6.415916 -40.419178 1.288700
v -6.439723 -40.419178 -1.288700
v -6.439723 -40.419178 1.288700
v 6.415916 -40.419178 -1.288700
v -6.439723 -40.419178 -1.288700
v 6.415916 -40.419178 1.288700
v 6.415916 -40.419178 -1.288700
v 6.415916 -40.419178 1.288700
v 6.439723 -40.419178 -1.288700
v 6.439723 -40.419178 -1.288700
v 6.415916 -40.419178 1.288700
v 6.439723 -40.419178 1.288700
v 6.439723 -40.419178 1.288700
v 6.439723 40.419189 1.288700
v 6.439723 -40.419178 -1.288700
v 6.439723 -40.419178 -1.288700
v 6.439723 40.419189 1.288700
v 6.439723 40.419189 -1.288700
v 6.403953 40.419189 1.288700
v 6.439723 40.419189 -1.288700
v 6.439723 40.419189 1.288700
v 6.403953 40.419189 -1.288700
v 6.439723 40.419189 -1.288700
v 6.403953 40.419189 1.288700
v 6.403953 40.419189 -1.288700
v 6.403953 40.419189 1.288700
v -6.439723 40.419189 -1.288700
v -6.439723 40.419189 -1.288700
v 6.403953 40.419189 1.288700
v -6.439723 40.419189 1.288700
v -6.439723 40.419189 1.288700
v 6.403953 40.419189 1.288700
v -6.439723 37.786888 -0.002374
v 6.403953 40.419189 1.288700
v 3.862322 37.786888 -0.002374
v -6.439723 37.786888 -0.002374
v -6.439723 40.419189 -1.288700
v -6.439723 37.786888 0.002364
v 6.403953 40.419189 -1.288700
v 3.862322 37.786888 0.002364
v 6.403953 40.419189 -1.288700
v -6.439723 37.786888 0.002364
vt 0.456055 0.255859
vt 0.443604 0.255859
vt 0.069153 0.280762
vt 0.443604 0.255859
vt 0.081787 0.255859
vt 0.069153 0.255859
vt 0.069153 0.330078
vt 0.081787 0.330078
vt 0.456055 0.305176
vt 0.443604 0.330078
vt 0.456055 0.330078
vt 0.081787 0.330078
vt 0.523926 0.238770
vt 0.523926 0.213867
vt 0.474609 0.238770
vt 0.474609 0.238770
vt 0.523926 0.213867
vt 0.474609 0.213867
vt 0.518066 0.248047
vt 0.468750 0.248047
vt 0.518066 0.273438
vt 0.468750 0.273438
vt 0.518066 0.273438
vt 0.468750 0.248047
vt 0.468506 0.280762
vt 0.517578 0.305176
vt 0.517578 0.280762
vt 0.468506 0.305176
vt 0.517578 0.305176
vt 0.468506 0.280762
vt 0.468506 0.305176
vt 0.468506 0.280762
vt 0.456055 0.305176
vt 0.456055 0.305176
vt 0.468506 0.280762
vt 0.456055 0.280762
vt 0.456055 0.280762
vt 0.069153 0.280762
vt 0.456055 0.305176
vt 0.456055 0.305176
vt 0.069153 0.280762
vt 0.069153 0.305176
vt 0.056824 0.280762
vt 0.069153 0.305176
vt 0.069153 0.280762
vt 0.056824 0.305176
vt 0.069153 0.305176
vt 0.056824 0.280762
vt 0.056824 0.305176
vt 0.056824 0.280762
vt 0.007515 0.305176
vt 0.007515 0.305176
vt 0.056824 0.280762
vt 0.007515 0.280762
vt 0.007236 0.272949
vt 0.056549 0.272949
vt 0.007236 0.248047
vt 0.056549 0.272949
vt 0.056549 0.248047
vt 0.007236 0.248047
vt 0.007904 0.313965
vt 0.007904 0.338867
vt 0.057220 0.313965
vt 0.057220 0.338867
vt 0.057220 0.313965
vt 0.007904 0.338867
vn -0.185910 -0.645793 0.741683
vn 0.281800 -0.285714 0.915851
vn 0.381605 0.688845 0.616438
vn 0.281800 -0.285714 0.915851
vn 0.281800 0.285714 0.915851
vn -0.185910 0.645793 0.741683
vn -0.185910 0.645793 -0.741683
vn 0.281800 0.285714 -0.915851
vn 0.381605 -0.688845 -0.616438
vn 0.281800 -0.285714 -0.915851
vn -0.185910 -0.645793 -0.741683
vn 0.281800 0.285714 -0.915851
vn 0.000000 -0.528376 0.849315
vn 0.000000 -0.530333 0.849315
vn -0.185910 -0.645793 0.741683
vn -0.185910 -0.645793 0.741683
vn 0.000000 -0.530333 0.849315
vn 0.281800 -0.285714 0.915851
vn 0.000000 -0.528376 -0.849315
vn -0.185910 -0.645793 -0.741683
vn 0.000000 -0.528376 -0.849315
vn 0.281800 -0.285714 -0.915851
vn 0.000000 -0.528376 -0.849315
vn -0.185910 -0.645793 -0.741683
vn -0.185910 -0.645793 0.741683
vn 0.000000 -0.528376 -0.849315
vn 0.000000 -0.528376 0.849315
vn -0.185910 -0.645793 -0.741683
vn 0.000000 -0.528376 -0.849315
vn -0.185910 -0.645793 0.741683
vn -0.185910 -0.645793 -0.741683
vn -0.185910 -0.645793 0.741683
vn 0.381605 -0.688845 -0.616438
vn 0.381605 -0.688845 -0.616438
vn -0.185910 -0.645793 0.741683
vn 0.381605 -0.688845 0.616438
vn 0.381605 -0.688845 0.616438
vn 0.381605 0.688845 0.616438
vn 0.381605 -0.688845 -0.616438
vn 0.381605 -0.688845 -0.616438
vn 0.381605 0.688845 0.616438
vn 0.381605 0.688845 -0.616438
vn -0.185910 0.645793 0.741683
vn 0.381605 0.688845 -0.616438
vn 0.381605 0.688845 0.616438
vn -0.185910 0.645793 -0.741683
vn 0.381605 0.688845 -0.616438
vn -0.185910 0.645793 0.741683
vn -0.185910 0.645793 -0.741683
vn -0.185910 0.645793 0.741683
vn 0.000000 0.528376 -0.849315
vn 0.000000 0.528376 -0.849315
vn -0.185910 0.645793 0.741683
vn 0.000000 0.528376 0.849315
vn 0.000000 0.528376 0.849315
vn -0.185910 0.645793 0.741683
vn 0.000000 0.530333 0.847358
vn -0.185910 0.645793 0.741683
vn 0.281800 0.285714 0.915851
vn 0.000000 0.530333 0.847358
vn 0.000000 0.528376 -0.849315
vn 0.000000 0.528376 -0.849315
vn -0.185910 0.645793 -0.741683
vn 0.281800 0.285714 -0.915851
vn -0.185910 0.645793 -0.741683
vn 0.000000 0.528376 -0.849315
mtllib mtl_bathroom_chrome.mtl
g mtl_bathroom_chrome
usemtl mtl_bathroom_chrome
f 3/3/3 2/2/2 1/1/1
f 6/6/6 5/5/5 4/4/4
f 9/9/9 8/8/8 7/7/7
f 12/12/12 11/11/11 10/10/10
f 15/15/15 14/14/14 13/13/13
f 18/18/18 17/17/17 16/16/16
f 21/21/21 20/20/20 19/19/19
f 24/24/24 23/23/23 22/22/22
f 27/27/27 26/26/26 25/25/25
f 30/30/30 29/29/29 28/28/28
f 33/33/33 32/32/32 31/31/31
f 36/36/36 35/35/35 34/34/34
f 39/39/39 38/38/38 37/37/37
f 42/42/42 41/41/41 40/40/40
f 45/45/45 44/44/44 43/43/43
f 48/48/48 47/47/47 46/46/46
f 51/51/51 50/50/50 49/49/49
f 54/54/54 53/53/53 52/52/52
f 57/57/57 56/56/56 55/55/55
f 60/60/60 59/59/59 58/58/58
f 63/63/63 62/62/62 61/61/61
f 66/66/66 65/65/65 64/64/64
