# Generated by Wraith - Game extraction tools
# Please credit DTZxPorter for using it!

v 5.314757 1.524975 -1.912259
v 19.784842 1.088514 -2.260323
v 19.784842 1.961436 -1.564193
v 5.314757 1.524975 -1.912259
v 19.784842 1.961436 -1.564193
v 5.314757 2.445870 0.000000
v 19.784842 1.961436 -1.564193
v 19.784842 2.445870 -0.558254
v 5.314757 2.445870 0.000000
v 5.314757 2.445870 0.000000
v 19.784842 2.445870 -0.558254
v 19.784842 2.445870 0.558254
v 5.314757 2.445870 0.000000
v 19.784842 2.445870 0.558254
v 5.314757 1.524975 1.912259
v 19.784842 2.445870 0.558254
v 19.784842 1.961436 1.564193
v 5.314757 1.524975 1.912259
v 5.314757 1.524975 1.912259
v 19.784842 1.961436 1.564193
v 19.784842 1.088514 2.260326
v 19.784842 1.088514 2.260326
v 19.784842 0.000000 2.508771
v 5.314757 1.524975 1.912259
v 19.784842 0.000000 2.508771
v 5.314757 -0.544256 2.384549
v 5.314757 1.524975 1.912259
v 19.784842 0.000000 2.508771
v 19.784842 -1.088514 2.260326
v 5.314757 -0.544256 2.384549
v 19.784842 -1.088514 2.260326
v 19.784842 -1.961436 1.564193
v 5.314757 -0.544256 2.384549
v 19.784842 -1.961436 1.564193
v 5.314757 -2.203653 1.061225
v 5.314757 -0.544256 2.384549
v 5.314757 -2.203653 1.061225
v 19.784842 -1.961436 1.564193
v 19.784842 -2.445870 0.558254
v 5.314757 -2.203653 1.061225
v 19.784842 -2.445870 0.558254
v 5.314757 -2.203653 -1.061222
v 19.784842 -2.445870 0.558254
v 19.784842 -2.445870 -0.558254
v 5.314757 -2.203653 -1.061222
v 5.314757 -2.203653 -1.061222
v 19.784842 -2.445870 -0.558254
v 19.784842 -1.961436 -1.564193
v 5.314757 -2.203653 -1.061222
v 19.784842 -1.961436 -1.564193
v 5.314757 -0.544258 -2.384547
v 19.784842 -1.961436 -1.564193
v 19.784842 -1.088514 -2.260323
v 5.314757 -0.544258 -2.384547
v 5.314757 -0.544258 -2.384547
v 19.784842 -1.088514 -2.260323
v 19.784842 0.000000 -2.508771
v 5.314757 -0.544258 -2.384547
v 19.784842 0.000000 -2.508771
v 5.314757 1.524975 -1.912259
v 19.784842 0.000000 -2.508771
v 19.784842 1.088514 -2.260323
v 5.314757 1.524975 -1.912259
v 19.784842 0.000000 -2.508771
v 19.784842 -1.088514 -2.260323
v 19.784842 1.088514 -2.260323
v 19.784842 1.088514 -2.260323
v 19.784842 -1.088514 -2.260323
v 19.784842 1.961436 -1.564193
v 19.784842 1.961436 -1.564193
v 19.784842 -1.088514 -2.260323
v 19.784842 2.445870 -0.558254
v 19.784842 2.445870 -0.558254
v 19.784842 -1.088514 -2.260323
v 19.784842 2.445870 0.558254
v 19.784842 2.445870 0.558254
v 19.784842 -1.088514 -2.260323
v 19.784842 1.961436 1.564193
v 19.784842 1.961436 1.564193
v 19.784842 -1.088514 -2.260323
v 19.784842 1.088514 2.260326
v 19.784842 1.088514 2.260326
v 19.784842 -1.088514 -2.260323
v 19.784842 0.000000 2.508771
v 19.784842 0.000000 2.508771
v 19.784842 -1.088514 -2.260323
v 19.784842 -1.088514 2.260326
v 19.784842 -1.088514 2.260326
v 19.784842 -1.088514 -2.260323
v 19.784842 -1.961436 1.564193
v 19.784842 -1.961436 1.564193
v 19.784842 -1.088514 -2.260323
v 19.784842 -2.445870 0.558254
v 19.784842 -2.445870 0.558254
v 19.784842 -1.088514 -2.260323
v 19.784842 -2.445870 -0.558254
v 19.784842 -2.445870 -0.558254
v 19.784842 -1.088514 -2.260323
v 19.784842 -1.961436 -1.564193
v 5.314757 -0.544256 2.384549
v 5.314757 -2.203653 1.061225
v 5.314757 1.524975 1.912259
v 5.314757 1.524975 1.912259
v 5.314757 -2.203653 1.061225
v 5.314757 2.445870 0.000000
v 5.314757 2.445870 0.000000
v 5.314757 -2.203653 1.061225
v 5.314757 1.524975 -1.912259
v 5.314757 1.524975 -1.912259
v 5.314757 -2.203653 1.061225
v 5.314757 -0.544258 -2.384547
v 5.314757 -0.544258 -2.384547
v 5.314757 -2.203653 1.061225
v 5.314757 -2.203653 -1.061222
v -0.020213 -0.982228 -1.762968
v -0.020213 -1.813618 -0.594091
v 5.419082 -0.982228 -1.762968
v -0.020213 -1.813618 -0.594091
v 5.419082 -1.813618 -0.594091
v 5.419082 -0.982228 -1.762968
v -0.020213 1.767350 -0.579313
v -0.020213 0.982228 -1.762968
v 5.419082 1.767342 -0.579310
v -0.020213 0.982228 -1.762968
v 5.419082 0.982228 -1.762968
v 5.419082 1.767342 -0.579310
v -0.020213 0.982228 -1.762968
v -0.020213 -0.982228 -1.762968
v 5.419082 0.982228 -1.762968
v -0.020213 -0.982228 -1.762968
v 5.419082 -0.982228 -1.762968
v 5.419082 0.982228 -1.762968
v -0.020213 1.755102 0.637807
v -0.020213 1.767350 -0.579313
v 5.419082 1.755082 0.637809
v -0.020213 1.767350 -0.579313
v 5.419082 1.767342 -0.579310
v 5.419082 1.755082 0.637809
v -0.020213 -1.813618 -0.594091
v -0.020213 -1.813618 0.663336
v 5.419082 -1.813618 -0.594091
v -0.020213 -1.813618 0.663336
v 5.419082 -1.813618 0.663336
v 5.419082 -1.813618 -0.594091
v -0.020213 0.982228 -1.762968
v -0.020213 1.767350 -0.579313
v -0.020213 -0.982228 -1.762968
v -0.020213 -0.982228 -1.762968
v -0.020213 1.767350 -0.579313
v -0.020213 -1.813618 -0.594091
v -0.020213 1.767350 -0.579313
v -0.020213 1.755102 0.637807
v -0.020213 -1.813618 -0.594091
v -0.020213 1.755102 0.637807
v -0.020213 0.628462 1.762971
v -0.020213 -1.813618 -0.594091
v -0.020213 0.628462 1.762971
v -0.020213 -0.628462 1.762971
v -0.020213 -1.813618 -0.594091
v -0.020213 -1.813618 -0.594091
v -0.020213 -0.628462 1.762971
v -0.020213 -1.813618 0.663336
v -0.020213 0.628462 1.762971
v 5.419082 0.628462 1.762971
v -0.020213 -0.628462 1.762971
v 5.419082 0.628462 1.762971
v 5.419082 -0.628462 1.762971
v -0.020213 -0.628462 1.762971
v -0.020213 1.755102 0.637807
v 5.419082 1.755082 0.637809
v -0.020213 0.628462 1.762971
v 5.419082 1.755082 0.637809
v 5.419082 0.628462 1.762971
v -0.020213 0.628462 1.762971
v -0.020213 -0.628462 1.762971
v 5.419082 -0.628462 1.762971
v -0.020213 -1.813618 0.663336
v 5.419082 -0.628462 1.762971
v 5.419082 -1.813618 0.663336
v -0.020213 -1.813618 0.663336
vt 0.644531 0.531738
vt 0.014908 0.514648
vt 0.014908 0.548828
vt 0.644531 0.531738
vt 0.014908 0.548828
vt 0.644531 0.600098
vt 0.014908 0.548828
vt 0.014908 0.583008
vt 0.644531 0.600098
vt 0.644531 0.600098
vt 0.014908 0.583008
vt 0.014908 0.617432
vt 0.644531 0.600098
vt 0.014908 0.617432
vt 0.644531 0.668701
vt 0.014908 0.617432
vt 0.014908 0.651611
vt 0.644531 0.668701
vt 0.644531 0.668701
vt 0.014908 0.651611
vt 0.014908 0.685791
vt 0.014908 0.685791
vt 0.014908 0.719971
vt 0.644531 0.668701
vt 0.014908 0.719971
vt 0.644531 0.737061
vt 0.644531 0.668701
vt 0.014908 0.719971
vt 0.014908 0.754150
vt 0.644531 0.737061
vt 0.014908 0.754150
vt 0.014908 0.788330
vt 0.644531 0.737061
vt 0.014908 0.788330
vt 0.644531 0.805420
vt 0.644531 0.737061
vt 0.644531 0.805420
vt 0.014908 0.788330
vt 0.014908 0.822510
vt 0.644531 0.805420
vt 0.014908 0.822510
vt 0.644531 0.873901
vt 0.014908 0.822510
vt 0.014908 0.856689
vt 0.644531 0.873901
vt 0.644531 0.873901
vt 0.014908 0.856689
vt 0.014908 0.890930
vt 0.644531 0.873901
vt 0.014908 0.890930
vt 0.644531 0.942230
vt 0.014908 0.890930
vt 0.014908 0.925110
vt 0.644531 0.942230
vt 0.644531 0.942230
vt 0.014908 0.925110
vt 0.014908 0.959320
vt 0.644531 0.942230
vt 0.014908 0.959320
vt 0.644531 0.993526
vt 0.014908 0.959320
vt 0.014908 0.993526
vt 0.644531 0.993526
vt 0.801758 0.932312
vt 0.794922 0.903381
vt 0.794922 0.961243
vt 0.794922 0.961243
vt 0.794922 0.903381
vt 0.776367 0.984451
vt 0.776367 0.984451
vt 0.794922 0.903381
vt 0.749512 0.997337
vt 0.749512 0.997337
vt 0.794922 0.903381
vt 0.720215 0.997337
vt 0.720215 0.997337
vt 0.794922 0.903381
vt 0.693359 0.984451
vt 0.693359 0.984451
vt 0.794922 0.903381
vt 0.674805 0.961243
vt 0.674805 0.961243
vt 0.794922 0.903381
vt 0.667969 0.932312
vt 0.667969 0.932312
vt 0.794922 0.903381
vt 0.674805 0.903381
vt 0.674805 0.903381
vt 0.794922 0.903381
vt 0.693359 0.880127
vt 0.693359 0.880127
vt 0.794922 0.903381
vt 0.720215 0.867310
vt 0.720215 0.867310
vt 0.794922 0.903381
vt 0.749512 0.867310
vt 0.749512 0.867310
vt 0.794922 0.903381
vt 0.776367 0.880127
vt 0.864258 0.859375
vt 0.819336 0.895325
vt 0.920410 0.872192
vt 0.920410 0.872192
vt 0.819336 0.895325
vt 0.945801 0.924194
vt 0.945801 0.924194
vt 0.819336 0.895325
vt 0.920410 0.976181
vt 0.920410 0.976181
vt 0.819336 0.895325
vt 0.864258 0.989021
vt 0.864258 0.989021
vt 0.819336 0.895325
vt 0.819336 0.953033
vt -0.068787 0.744141
vt -0.127563 0.744141
vt -0.065552 0.520752
vt -0.127563 0.744141
vt -0.124695 0.520752
vt -0.065552 0.520752
vt 0.812500 0.744141
vt 0.762695 0.744141
vt 0.811523 0.520752
vt 0.762695 0.744141
vt 0.759277 0.520752
vt 0.811523 0.520752
vt 0.762695 0.744141
vt 0.675293 0.744141
vt 0.759277 0.520752
vt 0.675293 0.744141
vt 0.675781 0.520752
vt 0.759277 0.520752
vt 0.872559 0.744141
vt 0.812500 0.744141
vt 0.872070 0.520752
vt 0.812500 0.744141
vt 0.811523 0.520752
vt 0.872070 0.520752
vt -0.127563 0.744141
vt -0.188721 0.744141
vt -0.124695 0.520752
vt -0.188721 0.744141
vt -0.189453 0.520752
vt -0.124695 0.520752
vt 0.845703 0.862427
vt 0.816406 0.906372
vt 0.918457 0.862427
vt 0.918457 0.862427
vt 0.816406 0.906372
vt 0.949219 0.905823
vt 0.816406 0.906372
vt 0.816895 0.951538
vt 0.949219 0.905823
vt 0.816895 0.951538
vt 0.858398 0.993267
vt 0.949219 0.905823
vt 0.858398 0.993267
vt 0.905273 0.993267
vt 0.949219 0.905823
vt 0.949219 0.905823
vt 0.905273 0.993267
vt 0.949219 0.952484
vt 0.931641 0.744141
vt 0.933594 0.520752
vt 0.988770 0.744141
vt 0.933594 0.520752
vt 0.991211 0.520752
vt 0.988770 0.744141
vt 0.872559 0.744141
vt 0.872070 0.520752
vt 0.931641 0.744141
vt 0.872070 0.520752
vt 0.933594 0.520752
vt 0.931641 0.744141
vt -0.237305 0.744141
vt -0.239136 0.520752
vt -0.188721 0.744141
vt -0.239136 0.520752
vt -0.189453 0.520752
vt -0.188721 0.744141
vn -0.011742 0.624266 -0.780822
vn -0.007828 0.434442 -0.900196
vn -0.007828 0.780822 -0.624266
vn -0.011742 0.624266 -0.780822
vn -0.007828 0.780822 -0.624266
vn -0.011742 1.000000 0.000000
vn -0.007828 0.780822 -0.624266
vn -0.007828 0.974560 -0.223092
vn -0.011742 1.000000 0.000000
vn -0.011742 1.000000 0.000000
vn -0.007828 0.974560 -0.223092
vn -0.007828 0.974560 0.223092
vn -0.011742 1.000000 0.000000
vn -0.007828 0.974560 0.223092
vn -0.011742 0.624266 0.780822
vn -0.007828 0.974560 0.223092
vn -0.007828 0.780822 0.624266
vn -0.011742 0.624266 0.780822
vn -0.011742 0.624266 0.780822
vn -0.007828 0.780822 0.624266
vn -0.007828 0.434442 0.900196
vn -0.007828 0.434442 0.900196
vn -1.000000 0.000000 0.000000
vn -0.011742 0.624266 0.780822
vn -1.000000 0.000000 0.000000
vn -1.000000 0.000000 0.000000
vn -0.011742 0.624266 0.780822
vn -1.000000 0.000000 0.000000
vn -1.000000 0.000000 0.000000
vn -1.000000 0.000000 0.000000
vn -1.000000 0.000000 0.000000
vn -0.007828 -0.782779 0.624266
vn -1.000000 0.000000 0.000000
vn -0.007828 -0.782779 0.624266
vn -0.011742 -0.900196 0.434442
vn -1.000000 0.000000 0.000000
vn -0.011742 -0.900196 0.434442
vn -0.007828 -0.782779 0.624266
vn -0.007828 -0.974560 0.223092
vn -0.011742 -0.900196 0.434442
vn -0.007828 -0.974560 0.223092
vn -0.011742 -0.900196 -0.434442
vn -0.007828 -0.974560 0.223092
vn -0.007828 -0.974560 -0.223092
vn -0.011742 -0.900196 -0.434442
vn -0.011742 -0.900196 -0.434442
vn -0.007828 -0.974560 -0.223092
vn -0.007828 -0.782779 -0.624266
vn -0.011742 -0.900196 -0.434442
vn -0.007828 -0.782779 -0.624266
vn -0.011742 -0.223092 -0.974560
vn -0.007828 -0.782779 -0.624266
vn -0.007828 -0.434442 -0.900196
vn -0.011742 -0.223092 -0.974560
vn -0.011742 -0.223092 -0.974560
vn -0.007828 -0.434442 -0.900196
vn -0.007828 0.000000 -1.000000
vn -0.011742 -0.223092 -0.974560
vn -0.007828 0.000000 -1.000000
vn -0.011742 0.624266 -0.780822
vn -0.007828 0.000000 -1.000000
vn -0.007828 0.434442 -0.900196
vn -0.011742 0.624266 -0.780822
vn 1.000000 0.000000 0.000000
vn 1.000000 0.000000 0.000000
vn 1.000000 0.000000 0.000000
vn 1.000000 0.000000 0.000000
vn 1.000000 0.000000 0.000000
vn 1.000000 0.000000 0.000000
vn 1.000000 0.000000 0.000000
vn 1.000000 0.000000 0.000000
vn 1.000000 0.000000 0.000000
vn 1.000000 0.000000 0.000000
vn 1.000000 0.000000 0.000000
vn 1.000000 0.000000 0.000000
vn 1.000000 0.000000 0.000000
vn 1.000000 0.000000 0.000000
vn 1.000000 0.000000 0.000000
vn 1.000000 0.000000 0.000000
vn 1.000000 0.000000 0.000000
vn 1.000000 0.000000 0.000000
vn 1.000000 0.000000 0.000000
vn 1.000000 0.000000 0.000000
vn 1.000000 0.000000 0.000000
vn 1.000000 0.000000 0.000000
vn 1.000000 0.000000 0.000000
vn 1.000000 0.000000 0.000000
vn 1.000000 0.000000 0.000000
vn 1.000000 0.000000 0.000000
vn 1.000000 0.000000 0.000000
vn 1.000000 0.000000 0.000000
vn 1.000000 0.000000 0.000000
vn 1.000000 0.000000 0.000000
vn 1.000000 0.000000 0.000000
vn 1.000000 0.000000 0.000000
vn 1.000000 0.000000 0.000000
vn 1.000000 0.000000 0.000000
vn 1.000000 0.000000 0.000000
vn 1.000000 0.000000 0.000000
vn -1.000000 0.000000 0.000000
vn -1.000000 0.000000 0.000000
vn -1.000000 0.000000 0.000000
vn -1.000000 0.000000 0.000000
vn -1.000000 0.000000 0.000000
vn -1.000000 0.000000 0.000000
vn -1.000000 0.000000 0.000000
vn -1.000000 0.000000 0.000000
vn -1.000000 0.000000 0.000000
vn -1.000000 0.000000 0.000000
vn -1.000000 0.000000 0.000000
vn -1.000000 0.000000 0.000000
vn -1.000000 0.000000 0.000000
vn -1.000000 0.000000 0.000000
vn -1.000000 0.000000 0.000000
vn 0.000000 -0.814090 -0.579256
vn 0.000000 -0.814090 -0.579256
vn 0.000000 -0.814090 -0.579256
vn 0.000000 -0.814090 -0.579256
vn 0.000000 -0.814090 -0.579256
vn 0.000000 -0.814090 -0.579256
vn 0.000000 0.833659 -0.551859
vn 0.000000 0.833659 -0.551859
vn 0.000000 0.833659 -0.551859
vn 0.000000 0.833659 -0.551859
vn 0.000000 0.833659 -0.551859
vn 0.000000 0.833659 -0.551859
vn 0.000000 0.000000 -1.000000
vn 0.000000 0.000000 -1.000000
vn 0.000000 0.000000 -1.000000
vn 0.000000 0.000000 -1.000000
vn 0.000000 0.000000 -1.000000
vn 0.000000 0.000000 -1.000000
vn 0.000000 1.000000 0.009785
vn 0.000000 1.000000 0.009785
vn 0.000000 1.000000 0.009785
vn 0.000000 1.000000 0.009785
vn 0.000000 1.000000 0.009785
vn 0.000000 1.000000 0.009785
vn 0.000000 -1.000000 0.000000
vn 0.000000 -1.000000 0.000000
vn 0.000000 -1.000000 0.000000
vn 0.000000 -1.000000 0.000000
vn 0.000000 -1.000000 0.000000
vn 0.000000 -1.000000 0.000000
vn -1.000000 0.000000 0.000000
vn -1.000000 0.000000 0.000000
vn -1.000000 0.000000 0.000000
vn -1.000000 0.000000 0.000000
vn -1.000000 0.000000 0.000000
vn -1.000000 0.000000 0.000000
vn -1.000000 0.000000 0.000000
vn -1.000000 0.000000 0.000000
vn -1.000000 0.000000 0.000000
vn -1.000000 0.000000 0.000000
vn -1.000000 0.000000 0.000000
vn -1.000000 0.000000 0.000000
vn -1.000000 0.000000 0.000000
vn -1.000000 0.000000 0.000000
vn -1.000000 0.000000 0.000000
vn -1.000000 0.000000 0.000000
vn -1.000000 0.000000 0.000000
vn -1.000000 0.000000 0.000000
vn 0.000000 0.000000 1.000000
vn 0.000000 0.000000 1.000000
vn 0.000000 0.000000 1.000000
vn 0.000000 0.000000 1.000000
vn 0.000000 0.000000 1.000000
vn 0.000000 0.000000 1.000000
vn 0.000000 0.706458 0.708415
vn 0.000000 0.706458 0.708415
vn 0.000000 0.706458 0.708415
vn 0.000000 0.706458 0.708415
vn 0.000000 0.706458 0.708415
vn 0.000000 0.706458 0.708415
vn 0.000000 -0.681018 0.733855
vn 0.000000 -0.681018 0.733855
vn 0.000000 -0.681018 0.733855
vn 0.000000 -0.681018 0.733855
vn 0.000000 -0.681018 0.733855
vn 0.000000 -0.681018 0.733855
mtllib mtl_t6_attach_sniper_silencer1.mtl
g mtl_t6_attach_sniper_silencer1
usemtl mtl_t6_attach_sniper_silencer1
f 3/3/3 2/2/2 1/1/1
f 6/6/6 5/5/5 4/4/4
f 9/9/9 8/8/8 7/7/7
f 12/12/12 11/11/11 10/10/10
f 15/15/15 14/14/14 13/13/13
f 18/18/18 17/17/17 16/16/16
f 21/21/21 20/20/20 19/19/19
f 24/24/24 23/23/23 22/22/22
f 27/27/27 26/26/26 25/25/25
f 30/30/30 29/29/29 28/28/28
f 33/33/33 32/32/32 31/31/31
f 36/36/36 35/35/35 34/34/34
f 39/39/39 38/38/38 37/37/37
f 42/42/42 41/41/41 40/40/40
f 45/45/45 44/44/44 43/43/43
f 48/48/48 47/47/47 46/46/46
f 51/51/51 50/50/50 49/49/49
f 54/54/54 53/53/53 52/52/52
f 57/57/57 56/56/56 55/55/55
f 60/60/60 59/59/59 58/58/58
f 63/63/63 62/62/62 61/61/61
f 66/66/66 65/65/65 64/64/64
f 69/69/69 68/68/68 67/67/67
f 72/72/72 71/71/71 70/70/70
f 75/75/75 74/74/74 73/73/73
f 78/78/78 77/77/77 76/76/76
f 81/81/81 80/80/80 79/79/79
f 84/84/84 83/83/83 82/82/82
f 87/87/87 86/86/86 85/85/85
f 90/90/90 89/89/89 88/88/88
f 93/93/93 92/92/92 91/91/91
f 96/96/96 95/95/95 94/94/94
f 99/99/99 98/98/98 97/97/97
f 102/102/102 101/101/101 100/100/100
f 105/105/105 104/104/104 103/103/103
f 108/108/108 107/107/107 106/106/106
f 111/111/111 110/110/110 109/109/109
f 114/114/114 113/113/113 112/112/112
f 117/117/117 116/116/116 115/115/115
f 120/120/120 119/119/119 118/118/118
f 123/123/123 122/122/122 121/121/121
f 126/126/126 125/125/125 124/124/124
f 129/129/129 128/128/128 127/127/127
f 132/132/132 131/131/131 130/130/130
f 135/135/135 134/134/134 133/133/133
f 138/138/138 137/137/137 136/136/136
f 141/141/141 140/140/140 139/139/139
f 144/144/144 143/143/143 142/142/142
f 147/147/147 146/146/146 145/145/145
f 150/150/150 149/149/149 148/148/148
f 153/153/153 152/152/152 151/151/151
f 156/156/156 155/155/155 154/154/154
f 159/159/159 158/158/158 157/157/157
f 162/162/162 161/161/161 160/160/160
f 165/165/165 164/164/164 163/163/163
f 168/168/168 167/167/167 166/166/166
f 171/171/171 170/170/170 169/169/169
f 174/174/174 173/173/173 172/172/172
f 177/177/177 176/176/176 175/175/175
f 180/180/180 179/179/179 178/178/178
