# Generated by Wraith - Game extraction tools
# Please credit DTZxPorter for using it!

v 19.784842 2.465073 -2.473221
v 19.784842 -2.463231 -2.473221
v 19.784842 -0.004646 2.516723
v 5.314757 -0.004646 2.516723
v 5.314757 -2.463231 -2.473221
v 5.314757 2.465073 -2.473221
v -0.020213 1.761226 -2.473221
v -0.020213 0.000000 1.762971
v -0.020213 -1.813618 -2.473221
v 5.314757 2.465073 -2.473221
v 19.784842 2.465073 -2.473221
v 5.314757 -0.004646 2.516723
v 19.784842 2.465073 -2.473221
v 19.784842 -0.004646 2.516723
v 5.314757 -0.004646 2.516723
v 19.784842 2.465073 -2.473221
v 5.314757 2.465073 -2.473221
v 19.784842 -2.463231 -2.473221
v 5.314757 2.465073 -2.473221
v 5.314757 -2.463231 -2.473221
v 19.784842 -2.463231 -2.473221
v 19.784842 -0.004646 2.516723
v 19.784842 -2.463231 -2.473221
v 5.314757 -0.004646 2.516723
v 19.784842 -2.463231 -2.473221
v 5.314757 -2.463231 -2.473221
v 5.314757 -0.004646 2.516723
v 5.419082 1.761213 -2.473221
v -0.020213 1.761226 -2.473221
v 5.419082 -1.813618 -2.473221
v -0.020213 1.761226 -2.473221
v -0.020213 -1.813618 -2.473221
v 5.419082 -1.813618 -2.473221
v -0.020213 1.761226 -2.473221
v 5.419082 1.761213 -2.473221
v -0.020213 0.000000 1.762971
v 5.419082 1.761213 -2.473221
v 5.419082 0.000000 1.762971
v -0.020213 0.000000 1.762971
v -0.020213 0.000000 1.762971
v 5.419082 0.000000 1.762971
v -0.020213 -1.813618 -2.473221
v 5.419082 0.000000 1.762971
v 5.419082 -1.813618 -2.473221
v -0.020213 -1.813618 -2.473221
vt 0.760254 0.985092
vt 0.734863 0.873779
vt 0.677734 0.945343
vt 0.892578 0.865723
vt 0.819336 0.924194
vt 0.933105 0.950165
vt 0.816406 0.928955
vt 0.881836 0.993267
vt 0.949219 0.929138
vt 0.644531 0.565918
vt 0.014908 0.565918
vt 0.644531 0.702881
vt 0.014908 0.565918
vt 0.014908 0.702881
vt 0.644531 0.702881
vt 0.014908 0.993526
vt 0.644531 0.993526
vt 0.014908 0.839600
vt 0.644531 0.993526
vt 0.644531 0.839600
vt 0.014908 0.839600
vt 0.014908 0.702881
vt 0.014908 0.839600
vt 0.644531 0.702881
vt 0.014908 0.839600
vt 0.644531 0.839600
vt 0.644531 0.702881
vt 0.841797 0.520752
vt 0.842285 0.744141
vt -0.157104 0.520752
vt 0.842285 0.744141
vt -0.158203 0.744141
vt -0.157104 0.520752
vt 0.842285 0.744141
vt 0.841797 0.520752
vt 0.959961 0.744141
vt 0.841797 0.520752
vt 0.962402 0.520752
vt 0.959961 0.744141
vt -0.237305 0.744141
vt -0.239136 0.520752
vt -0.158203 0.744141
vt -0.239136 0.520752
vt -0.157104 0.520752
vt -0.158203 0.744141
vn 1.000000 0.000000 0.000000
vn 1.000000 0.000000 0.000000
vn 1.000000 0.000000 0.000000
vn -1.000000 0.000000 0.000000
vn -1.000000 0.000000 0.000000
vn -1.000000 0.000000 0.000000
vn -1.000000 0.000000 0.000000
vn -1.000000 0.000000 0.000000
vn -1.000000 0.000000 0.000000
vn 0.000000 0.896282 0.444227
vn 0.000000 0.896282 0.444227
vn 0.000000 0.896282 0.444227
vn 0.000000 0.896282 0.444227
vn 0.000000 0.896282 0.444227
vn 0.000000 0.896282 0.444227
vn 0.000000 0.000000 -1.000000
vn 0.000000 0.000000 -1.000000
vn 0.000000 0.000000 -1.000000
vn 0.000000 0.000000 -1.000000
vn 0.000000 0.000000 -1.000000
vn 0.000000 0.000000 -1.000000
vn 0.000000 -0.896282 0.442270
vn 0.000000 -0.896282 0.442270
vn 0.000000 -0.896282 0.442270
vn 0.000000 -0.896282 0.442270
vn 0.000000 -0.896282 0.442270
vn 0.000000 -0.896282 0.442270
vn 0.000000 0.000000 -1.000000
vn 0.000000 0.000000 -1.000000
vn 0.000000 0.000000 -1.000000
vn 0.000000 0.000000 -1.000000
vn 0.000000 0.000000 -1.000000
vn 0.000000 0.000000 -1.000000
vn 0.000000 0.923679 0.383562
vn 0.000000 0.923679 0.383562
vn 0.000000 0.923679 0.383562
vn 0.000000 0.923679 0.383562
vn 0.000000 0.923679 0.383562
vn 0.000000 0.923679 0.383562
vn 0.000000 -0.919765 0.393346
vn 0.000000 -0.919765 0.393346
vn 0.000000 -0.919765 0.393346
vn 0.000000 -0.919765 0.393346
vn 0.000000 -0.919765 0.393346
vn 0.000000 -0.919765 0.393346
mtllib mtl_t6_attach_sniper_silencer1.mtl
g mtl_t6_attach_sniper_silencer1
usemtl mtl_t6_attach_sniper_silencer1
f 3/3/3 2/2/2 1/1/1
f 6/6/6 5/5/5 4/4/4
f 9/9/9 8/8/8 7/7/7
f 12/12/12 11/11/11 10/10/10
f 15/15/15 14/14/14 13/13/13
f 18/18/18 17/17/17 16/16/16
f 21/21/21 20/20/20 19/19/19
f 24/24/24 23/23/23 22/22/22
f 27/27/27 26/26/26 25/25/25
f 30/30/30 29/29/29 28/28/28
f 33/33/33 32/32/32 31/31/31
f 36/36/36 35/35/35 34/34/34
f 39/39/39 38/38/38 37/37/37
f 42/42/42 41/41/41 40/40/40
f 45/45/45 44/44/44 43/43/43
