# Generated by Wraith - Game extraction tools
# Please credit DTZxPorter for using it!

v 61.901825 1.499070 -1.525455
v 61.901825 -0.018021 -2.162528
v 69.956100 0.000000 0.000000
v 55.238186 1.962800 -1.997352
v 61.901825 -0.018021 -2.162528
v 61.901825 1.499070 -1.525455
v 55.238186 -0.023604 -2.801569
v 61.901825 -0.018021 -2.162528
v 55.238186 1.962800 -1.997352
v 55.238186 1.962800 -1.997352
v -69.980743 1.957428 -1.997156
v 55.238186 -0.023604 -2.801569
v -69.980743 1.957428 -1.997156
v -69.980743 -0.023543 -2.702700
v 55.238186 -0.023604 -2.801569
v 55.238186 1.962800 -1.997352
v 61.901825 1.499070 -1.525455
v 55.238186 2.775819 -0.023604
v 55.238186 2.775819 -0.023604
v -69.980743 2.778107 -0.028806
v 55.238186 1.962800 -1.997352
v -69.980743 2.778107 -0.028806
v -69.980743 1.957428 -1.997156
v 55.238186 1.962800 -1.997352
v 55.238186 2.775819 -0.023604
v 61.901825 1.499070 -1.525455
v 61.901825 2.136780 -0.018029
v 55.238186 2.775819 -0.023604
v 61.901825 2.136780 -0.018029
v 55.238182 1.997344 1.962793
v 55.238182 1.997344 1.962793
v -69.980743 1.991898 1.952158
v 55.238186 2.775819 -0.023604
v -69.980743 1.991898 1.952158
v -69.980743 2.778107 -0.028806
v 55.238186 2.775819 -0.023604
v 61.901825 2.136780 -0.018029
v 61.901825 1.499070 -1.525455
v 69.956100 0.000000 0.000000
v 61.901825 1.525453 1.499060
v 61.901825 2.136780 -0.018029
v 69.956100 0.000000 0.000000
v 55.238182 1.997344 1.962793
v 61.901825 2.136780 -0.018029
v 61.901825 1.525453 1.499060
v 55.238182 1.997344 1.962793
v 61.901825 1.525453 1.499060
v 55.238186 0.023604 2.787655
v 55.238186 0.023604 2.787655
v -69.980743 1.991898 1.952158
v 55.238182 1.997344 1.962793
v -69.980743 0.023543 2.786283
v -69.980743 1.991898 1.952158
v 55.238186 0.023604 2.787655
v 55.238182 -1.962800 1.997349
v -69.980743 0.023543 2.786283
v 55.238186 0.023604 2.787655
v -69.980743 -1.957428 1.986623
v -69.980743 0.023543 2.786283
v 55.238182 -1.962800 1.997349
v 55.238182 -1.962800 1.997349
v 55.238186 -2.775819 0.023604
v -69.980743 -1.957428 1.986623
v 55.238186 -2.775819 0.023604
v -69.980743 -2.778107 0.018273
v -69.980743 -1.957428 1.986623
v 61.901825 0.018021 2.148611
v 61.901825 1.525453 1.499060
v 69.956100 0.000000 0.000000
v 55.238186 0.023604 2.787655
v 61.901825 1.525453 1.499060
v 61.901825 0.018021 2.148611
v 55.238186 0.023604 2.787655
v 61.901825 0.018021 2.148611
v 55.238182 -1.962800 1.997349
v 55.238182 -1.962800 1.997349
v 61.901825 0.018021 2.148611
v 61.901825 -1.499055 1.525455
v 55.238182 -1.962800 1.997349
v 61.901825 -1.499055 1.525455
v 55.238186 -2.775819 0.023604
v 55.238186 -2.775819 0.023604
v 61.901825 -1.499055 1.525455
v 61.901821 -2.136780 0.018029
v 55.238186 -2.775819 0.023604
v 61.901821 -2.136780 0.018029
v 55.238186 -1.997344 -1.962793
v 55.238186 -1.997344 -1.962793
v -69.980743 -2.778107 0.018273
v 55.238186 -2.775819 0.023604
v -69.980743 -1.991898 -1.962691
v -69.980743 -2.778107 0.018273
v 55.238186 -1.997344 -1.962793
v -69.980743 -0.023543 -2.702700
v -69.980743 -1.991898 -1.962691
v 55.238186 -1.997344 -1.962793
v 55.238186 -0.023604 -2.801569
v -69.980743 -0.023543 -2.702700
v 55.238186 -1.997344 -1.962793
v 55.238186 -0.023604 -2.801569
v 55.238186 -1.997344 -1.962793
v 61.901825 -0.018021 -2.162528
v 61.901825 -1.499055 1.525455
v 61.901825 0.018021 2.148611
v 69.956100 0.000000 0.000000
v 61.901821 -2.136780 0.018029
v 61.901825 -1.499055 1.525455
v 69.956100 0.000000 0.000000
v 61.901825 -1.525453 -1.499062
v 61.901821 -2.136780 0.018029
v 69.956100 0.000000 0.000000
v 55.238186 -1.997344 -1.962793
v 61.901821 -2.136780 0.018029
v 61.901825 -1.525453 -1.499062
v 55.238186 -1.997344 -1.962793
v 61.901825 -1.525453 -1.499062
v 61.901825 -0.018021 -2.162528
v 61.901825 -0.018021 -2.162528
v 61.901825 -1.525453 -1.499062
v 69.956100 0.000000 0.000000
v -69.980743 1.957428 -1.997156
v -69.980743 2.778107 -0.028806
v -69.980743 -0.023543 -2.702700
v -69.980743 2.778107 -0.028806
v -69.980743 1.991898 1.952158
v -69.980743 -0.023543 -2.702700
v -69.980743 1.991898 1.952158
v -69.980743 0.023543 2.786283
v -69.980743 -0.023543 -2.702700
v -69.980743 0.023543 2.786283
v -69.980743 -1.957428 1.986623
v -69.980743 -0.023543 -2.702700
v -69.980743 -1.957428 1.986623
v -69.980743 -2.778107 0.018273
v -69.980743 -0.023543 -2.702700
v -69.980743 -0.023543 -2.702700
v -69.980743 -2.778107 0.018273
v -69.980743 -1.991898 -1.962691
vt 0.085083 0.130859
vt 0.085083 0.001465
vt -0.001119 0.499023
vt 0.163696 0.129395
vt 0.085083 0.001465
vt 0.085083 0.130859
vt 0.163696 0.001465
vt 0.085083 0.001465
vt 0.163696 0.129395
vt 0.163696 0.129395
vt 0.998535 0.129395
vt 0.163696 0.001465
vt 0.998535 0.129395
vt 0.998535 0.001465
vt 0.163696 0.001465
vt 0.163696 0.129395
vt 0.085083 0.130859
vt 0.163696 0.255371
vt 0.163696 0.255371
vt 0.998535 0.254883
vt 0.163696 0.129395
vt 0.998535 0.254883
vt 0.998535 0.129395
vt 0.163696 0.129395
vt 0.163696 0.255371
vt 0.085083 0.130859
vt 0.085083 0.256836
vt 0.163696 0.255371
vt 0.085083 0.256836
vt 0.163696 0.377441
vt 0.163696 0.377441
vt 0.998535 0.377441
vt 0.163696 0.255371
vt 0.998535 0.377441
vt 0.998535 0.254883
vt 0.163696 0.255371
vt 0.085083 0.256836
vt 0.085083 0.130859
vt -0.001119 0.499023
vt 0.085083 0.378418
vt 0.085083 0.256836
vt -0.001119 0.499023
vt 0.163696 0.377441
vt 0.085083 0.256836
vt 0.085083 0.378418
vt 0.163696 0.377441
vt 0.085083 0.378418
vt 0.163696 0.497559
vt 0.163696 0.497559
vt 0.998535 0.377441
vt 0.163696 0.377441
vt 0.998535 0.497559
vt 0.998535 0.377441
vt 0.163696 0.497559
vt 0.163696 0.617432
vt 0.998535 0.497559
vt 0.163696 0.497559
vt 0.998535 0.617676
vt 0.998535 0.497559
vt 0.163696 0.617432
vt 0.163696 0.617432
vt 0.163696 0.739746
vt 0.998535 0.617676
vt 0.163696 0.739746
vt 0.998535 0.739990
vt 0.998535 0.617676
vt 0.085083 0.497559
vt 0.085083 0.378418
vt -0.001119 0.499023
vt 0.163696 0.497559
vt 0.085083 0.378418
vt 0.085083 0.497559
vt 0.163696 0.497559
vt 0.085083 0.497559
vt 0.163696 0.617432
vt 0.163696 0.617432
vt 0.085083 0.497559
vt 0.085083 0.616211
vt 0.163696 0.617432
vt 0.085083 0.616211
vt 0.163696 0.739746
vt 0.163696 0.739746
vt 0.085083 0.616211
vt 0.085083 0.738037
vt 0.163696 0.739746
vt 0.085083 0.738037
vt 0.163696 0.865234
vt 0.163696 0.865234
vt 0.998535 0.739990
vt 0.163696 0.739746
vt 0.998535 0.865356
vt 0.998535 0.739990
vt 0.163696 0.865234
vt 0.998535 0.993324
vt 0.998535 0.865356
vt 0.163696 0.865234
vt 0.163696 0.993362
vt 0.998535 0.993324
vt 0.163696 0.865234
vt 0.163696 0.993362
vt 0.163696 0.865234
vt 0.085083 0.993362
vt 0.085083 0.616211
vt 0.085083 0.497559
vt -0.001119 0.499023
vt 0.085083 0.738037
vt 0.085083 0.616211
vt -0.001119 0.499023
vt 0.085083 0.863892
vt 0.085083 0.738037
vt -0.001119 0.499023
vt 0.163696 0.865234
vt 0.085083 0.738037
vt 0.085083 0.863892
vt 0.163696 0.865234
vt 0.085083 0.863892
vt 0.085083 0.993362
vt 0.085083 0.993362
vt 0.085083 0.863892
vt -0.001119 0.499023
vt 0.978516 0.798584
vt 0.997559 0.636963
vt 0.950195 0.770020
vt 0.997559 0.636963
vt 0.996094 0.392090
vt 0.950195 0.770020
vt 0.996094 0.392090
vt 0.973633 0.204590
vt 0.950195 0.770020
vt 0.973633 0.204590
vt 0.944824 0.186035
vt 0.950195 0.770020
vt 0.944824 0.186035
vt 0.925781 0.347656
vt 0.950195 0.770020
vt 0.950195 0.770020
vt 0.925781 0.347656
vt 0.927734 0.592773
vn 0.178082 0.694716 -0.696673
vn 0.178082 -0.007828 -0.984344
vn 1.000000 0.000000 0.003914
vn 0.048924 0.700587 -0.712329
vn 0.178082 -0.007828 -0.984344
vn 0.178082 0.694716 -0.696673
vn 0.048924 -0.007828 -0.998043
vn 0.178082 -0.007828 -0.984344
vn 0.048924 0.700587 -0.712329
vn 0.048924 0.700587 -0.712329
vn 0.000000 0.696673 -0.718200
vn 0.048924 -0.007828 -0.998043
vn 0.000000 0.696673 -0.718200
vn 0.000000 -0.007828 -1.000000
vn 0.048924 -0.007828 -0.998043
vn 0.048924 0.700587 -0.712329
vn 0.178082 0.694716 -0.696673
vn 0.048924 0.998043 -0.007828
vn 0.048924 0.998043 -0.007828
vn 0.000000 1.000000 -0.007828
vn 0.048924 0.700587 -0.712329
vn 0.000000 1.000000 -0.007828
vn 0.000000 0.696673 -0.718200
vn 0.048924 0.700587 -0.712329
vn 0.048924 0.998043 -0.007828
vn 0.178082 0.694716 -0.696673
vn 0.178082 0.984344 -0.007828
vn 0.048924 0.998043 -0.007828
vn 0.178082 0.984344 -0.007828
vn 0.048924 0.714286 0.698630
vn 0.048924 0.714286 0.698630
vn 0.000000 0.714286 0.698630
vn 0.048924 0.998043 -0.007828
vn 0.000000 0.714286 0.698630
vn 0.000000 1.000000 -0.007828
vn 0.048924 0.998043 -0.007828
vn 0.178082 0.984344 -0.007828
vn 0.178082 0.694716 -0.696673
vn 1.000000 0.000000 0.003914
vn 0.178082 0.704501 0.686888
vn 0.178082 0.984344 -0.007828
vn 1.000000 0.000000 0.003914
vn 0.048924 0.714286 0.698630
vn 0.178082 0.984344 -0.007828
vn 0.178082 0.704501 0.686888
vn 0.048924 0.714286 0.698630
vn 0.178082 0.704501 0.686888
vn 0.048924 0.007828 0.998043
vn 0.048924 0.007828 0.998043
vn 0.000000 0.714286 0.698630
vn 0.048924 0.714286 0.698630
vn 0.000000 0.007828 1.000000
vn 0.000000 0.714286 0.698630
vn 0.048924 0.007828 0.998043
vn 0.048924 -0.702544 0.710372
vn 0.000000 0.007828 1.000000
vn 0.048924 0.007828 0.998043
vn 0.000000 -0.702544 0.710372
vn 0.000000 0.007828 1.000000
vn 0.048924 -0.702544 0.710372
vn 0.048924 -0.702544 0.710372
vn 0.048924 -0.998043 0.007828
vn 0.000000 -0.702544 0.710372
vn 0.048924 -0.998043 0.007828
vn 0.000000 -1.000000 0.007828
vn 0.000000 -0.702544 0.710372
vn 0.178082 0.007828 0.984344
vn 0.178082 0.704501 0.686888
vn 1.000000 0.000000 0.003914
vn 0.048924 0.007828 0.998043
vn 0.178082 0.704501 0.686888
vn 0.178082 0.007828 0.984344
vn 0.048924 0.007828 0.998043
vn 0.178082 0.007828 0.984344
vn 0.048924 -0.702544 0.710372
vn 0.048924 -0.702544 0.710372
vn 0.178082 0.007828 0.984344
vn 0.178082 -0.692759 0.700587
vn 0.048924 -0.702544 0.710372
vn 0.178082 -0.692759 0.700587
vn 0.048924 -0.998043 0.007828
vn 0.048924 -0.998043 0.007828
vn 0.178082 -0.692759 0.700587
vn 0.178082 -0.984344 0.007828
vn 0.048924 -0.998043 0.007828
vn 0.178082 -0.984344 0.007828
vn 0.048924 -0.712329 -0.700587
vn 0.048924 -0.712329 -0.700587
vn 0.000000 -1.000000 0.007828
vn 0.048924 -0.998043 0.007828
vn 0.000000 -0.708415 -0.704501
vn 0.000000 -1.000000 0.007828
vn 0.048924 -0.712329 -0.700587
vn 0.000000 -0.007828 -1.000000
vn 0.000000 -0.708415 -0.704501
vn 0.048924 -0.712329 -0.700587
vn 0.048924 -0.007828 -0.998043
vn 0.000000 -0.007828 -1.000000
vn 0.048924 -0.712329 -0.700587
vn 0.048924 -0.007828 -0.998043
vn 0.048924 -0.712329 -0.700587
vn 0.178082 -0.007828 -0.984344
vn 0.178082 -0.692759 0.700587
vn 0.178082 0.007828 0.984344
vn 1.000000 0.000000 0.003914
vn 0.178082 -0.984344 0.007828
vn 0.178082 -0.692759 0.700587
vn 1.000000 0.000000 0.003914
vn 0.178082 -0.706458 -0.684932
vn 0.178082 -0.984344 0.007828
vn 1.000000 0.000000 0.003914
vn 0.048924 -0.712329 -0.700587
vn 0.178082 -0.984344 0.007828
vn 0.178082 -0.706458 -0.684932
vn 0.048924 -0.712329 -0.700587
vn 0.178082 -0.706458 -0.684932
vn 0.178082 -0.007828 -0.984344
vn 0.178082 -0.007828 -0.984344
vn 0.178082 -0.706458 -0.684932
vn 1.000000 0.000000 0.003914
vn -1.000000 0.000000 0.000000
vn -1.000000 0.000000 0.000000
vn -1.000000 0.000000 0.000000
vn -1.000000 0.000000 0.000000
vn -1.000000 0.000000 0.000000
vn -1.000000 0.000000 0.000000
vn -1.000000 0.000000 0.000000
vn -1.000000 0.000000 0.000000
vn -1.000000 0.000000 0.000000
vn -1.000000 0.000000 0.000000
vn -1.000000 0.000000 0.000000
vn -1.000000 0.000000 0.000000
vn -1.000000 0.000000 0.000000
vn -1.000000 0.000000 0.000000
vn -1.000000 0.000000 0.000000
vn -1.000000 0.000000 0.000000
vn -1.000000 0.000000 0.000000
vn -1.000000 0.000000 0.000000
mtllib mtl_s5_rocket.mtl
g mtl_s5_rocket
usemtl mtl_s5_rocket
f 3/3/3 2/2/2 1/1/1
f 6/6/6 5/5/5 4/4/4
f 9/9/9 8/8/8 7/7/7
f 12/12/12 11/11/11 10/10/10
f 15/15/15 14/14/14 13/13/13
f 18/18/18 17/17/17 16/16/16
f 21/21/21 20/20/20 19/19/19
f 24/24/24 23/23/23 22/22/22
f 27/27/27 26/26/26 25/25/25
f 30/30/30 29/29/29 28/28/28
f 33/33/33 32/32/32 31/31/31
f 36/36/36 35/35/35 34/34/34
f 39/39/39 38/38/38 37/37/37
f 42/42/42 41/41/41 40/40/40
f 45/45/45 44/44/44 43/43/43
f 48/48/48 47/47/47 46/46/46
f 51/51/51 50/50/50 49/49/49
f 54/54/54 53/53/53 52/52/52
f 57/57/57 56/56/56 55/55/55
f 60/60/60 59/59/59 58/58/58
f 63/63/63 62/62/62 61/61/61
f 66/66/66 65/65/65 64/64/64
f 69/69/69 68/68/68 67/67/67
f 72/72/72 71/71/71 70/70/70
f 75/75/75 74/74/74 73/73/73
f 78/78/78 77/77/77 76/76/76
f 81/81/81 80/80/80 79/79/79
f 84/84/84 83/83/83 82/82/82
f 87/87/87 86/86/86 85/85/85
f 90/90/90 89/89/89 88/88/88
f 93/93/93 92/92/92 91/91/91
f 96/96/96 95/95/95 94/94/94
f 99/99/99 98/98/98 97/97/97
f 102/102/102 101/101/101 100/100/100
f 105/105/105 104/104/104 103/103/103
f 108/108/108 107/107/107 106/106/106
f 111/111/111 110/110/110 109/109/109
f 114/114/114 113/113/113 112/112/112
f 117/117/117 116/116/116 115/115/115
f 120/120/120 119/119/119 118/118/118
f 123/123/123 122/122/122 121/121/121
f 126/126/126 125/125/125 124/124/124
f 129/129/129 128/128/128 127/127/127
f 132/132/132 131/131/131 130/130/130
f 135/135/135 134/134/134 133/133/133
f 138/138/138 137/137/137 136/136/136
