# Generated by Wraith - Game extraction tools
# Please credit DTZxPorter for using it!

v -69.980743 -0.023543 -2.702700
v 55.238186 -0.023604 -2.801569
v -69.980743 2.778107 -0.028806
v -69.980743 2.778107 -0.028806
v -69.980743 0.023543 2.786283
v -69.980743 -0.023543 -2.702700
v -69.980743 -0.023543 -2.702700
v -69.980743 0.023543 2.786283
v -69.980743 -2.778107 0.018273
v -69.980743 -2.778107 0.018273
v 55.238186 -2.775819 0.023604
v -69.980743 -0.023543 -2.702700
v 55.238186 -0.023604 -2.801569
v -69.980743 -0.023543 -2.702700
v 55.238186 -2.775819 0.023604
v 55.238186 -2.775819 0.023604
v 69.956100 0.000000 0.000000
v 55.238186 -0.023604 -2.801569
v 55.238186 0.023604 2.787655
v 69.956100 0.000000 0.000000
v 55.238186 -2.775819 0.023604
v -69.980743 -2.778107 0.018273
v 55.238186 0.023604 2.787655
v 55.238186 -2.775819 0.023604
v -69.980743 0.023543 2.786283
v 55.238186 0.023604 2.787655
v -69.980743 -2.778107 0.018273
v 55.238186 -0.023604 -2.801569
v 69.956100 0.000000 0.000000
v 55.238186 2.775819 -0.023604
v 55.238186 2.775819 -0.023604
v 69.956100 0.000000 0.000000
v 55.238186 0.023604 2.787655
v -69.980743 0.023543 2.786283
v 55.238186 2.775819 -0.023604
v 55.238186 0.023604 2.787655
v -69.980743 2.778107 -0.028806
v 55.238186 2.775819 -0.023604
v -69.980743 0.023543 2.786283
v 55.238186 2.775819 -0.023604
v -69.980743 2.778107 -0.028806
v 55.238186 -0.023604 -2.801569
vt 0.998535 0.001465
vt 0.163696 0.001465
vt 0.998535 0.254883
vt 0.997559 0.636963
vt 0.973633 0.204590
vt 0.950195 0.770020
vt 0.950195 0.770020
vt 0.973633 0.204590
vt 0.925781 0.347656
vt 0.998535 0.739990
vt 0.163696 0.739746
vt 0.998535 0.993324
vt 0.163696 0.993362
vt 0.998535 0.993324
vt 0.163696 0.739746
vt 0.163696 0.739746
vt -0.001119 0.499023
vt 0.163696 0.993362
vt 0.163696 0.497559
vt -0.001119 0.499023
vt 0.163696 0.739746
vt 0.998535 0.739990
vt 0.163696 0.497559
vt 0.163696 0.739746
vt 0.998535 0.497559
vt 0.163696 0.497559
vt 0.998535 0.739990
vt 0.163696 0.001465
vt -0.001119 0.499023
vt 0.163696 0.255371
vt 0.163696 0.255371
vt -0.001119 0.499023
vt 0.163696 0.497559
vt 0.998535 0.497559
vt 0.163696 0.255371
vt 0.163696 0.497559
vt 0.998535 0.254883
vt 0.163696 0.255371
vt 0.998535 0.497559
vt 0.163696 0.255371
vt 0.998535 0.254883
vt 0.163696 0.001465
vn 0.000000 -0.007828 -1.000000
vn 0.093933 -0.007828 -0.996086
vn 0.000000 1.000000 -0.011742
vn -1.000000 0.000000 0.000000
vn -1.000000 0.000000 0.000000
vn -1.000000 0.000000 0.000000
vn -1.000000 0.000000 0.000000
vn -1.000000 0.000000 0.000000
vn -1.000000 0.000000 0.000000
vn 0.000000 -1.000000 0.003914
vn 0.093933 -0.996086 0.007828
vn 0.000000 -0.007828 -1.000000
vn 0.093933 -0.007828 -0.996086
vn 0.000000 -0.007828 -1.000000
vn 0.093933 -0.996086 0.007828
vn 0.093933 -0.996086 0.007828
vn 1.000000 0.000000 0.005871
vn 0.093933 -0.007828 -0.996086
vn 0.093933 0.007828 0.996086
vn 1.000000 0.000000 0.005871
vn 0.093933 -0.996086 0.007828
vn 0.000000 -1.000000 0.003914
vn 0.093933 0.007828 0.996086
vn 0.093933 -0.996086 0.007828
vn 0.000000 0.007828 1.000000
vn 0.093933 0.007828 0.996086
vn 0.000000 -1.000000 0.003914
vn 0.093933 -0.007828 -0.996086
vn 1.000000 0.000000 0.005871
vn 0.093933 0.996086 -0.009785
vn 0.093933 0.996086 -0.009785
vn 1.000000 0.000000 0.005871
vn 0.093933 0.007828 0.996086
vn 0.000000 0.007828 1.000000
vn 0.093933 0.996086 -0.009785
vn 0.093933 0.007828 0.996086
vn 0.000000 1.000000 -0.011742
vn 0.093933 0.996086 -0.009785
vn 0.000000 0.007828 1.000000
vn 0.093933 0.996086 -0.009785
vn 0.000000 1.000000 -0.011742
vn 0.093933 -0.007828 -0.996086
mtllib mtl_s5_rocket.mtl
g mtl_s5_rocket
usemtl mtl_s5_rocket
f 3/3/3 2/2/2 1/1/1
f 6/6/6 5/5/5 4/4/4
f 9/9/9 8/8/8 7/7/7
f 12/12/12 11/11/11 10/10/10
f 15/15/15 14/14/14 13/13/13
f 18/18/18 17/17/17 16/16/16
f 21/21/21 20/20/20 19/19/19
f 24/24/24 23/23/23 22/22/22
f 27/27/27 26/26/26 25/25/25
f 30/30/30 29/29/29 28/28/28
f 33/33/33 32/32/32 31/31/31
f 36/36/36 35/35/35 34/34/34
f 39/39/39 38/38/38 37/37/37
f 42/42/42 41/41/41 40/40/40
