# Generated by Wraith - Game extraction tools
# Please credit DTZxPorter for using it!

v 2.766105 1.634307 3.907071
v 2.766105 -1.645158 3.907071
v -3.420610 1.634307 3.574492
v 2.766105 -1.645158 3.907071
v -3.420610 -1.645158 3.574492
v -3.420610 1.634307 3.574492
v -3.111234 1.744172 -0.119875
v -3.420610 1.634307 3.574492
v -3.111234 -1.535293 -0.119875
v -3.420610 1.634307 3.574492
v -3.420610 -1.645158 3.574492
v -3.111234 -1.535293 -0.119875
v -3.111234 1.744172 -0.119875
v 2.787306 1.744172 1.152685
v -3.420610 1.634307 3.574492
v 2.787306 1.744172 1.152685
v 2.766105 1.634307 3.907071
v -3.420610 1.634307 3.574492
v -3.111234 -1.535293 -0.119875
v -3.420610 -1.645158 3.574492
v 2.787306 -1.535293 1.152685
v -3.420610 -1.645158 3.574492
v 2.766105 -1.645158 3.907071
v 2.787306 -1.535293 1.152685
v 2.766105 -1.645158 3.907071
v 2.766105 1.634307 3.907071
v 2.787306 -1.535293 1.152685
v 2.766105 1.634307 3.907071
v 2.787306 1.744172 1.152685
v 2.787306 -1.535293 1.152685
v 5.625226 3.191817 -11.895759
v -0.361688 3.191817 -13.168317
v 5.625226 -3.202683 -11.895759
v -0.361688 3.191817 -13.168317
v -0.361688 -3.202683 -13.168317
v 5.625226 -3.202683 -11.895759
v -1.401126 7.178726 -8.278149
v -0.361688 3.191817 -13.168317
v 5.625226 3.191817 -11.895759
v 4.585788 7.178726 -7.005591
v -1.401126 7.178726 -8.278149
v 5.625226 3.191817 -11.895759
v -2.697287 5.755813 -2.180206
v -1.401126 7.178726 -8.278149
v 4.585788 7.178726 -7.005591
v 3.289630 5.755813 -0.907648
v -2.697287 5.755813 -2.180206
v 4.585788 7.178726 -7.005591
v -3.274132 -0.005433 0.533634
v -2.697287 5.755813 -2.180206
v 3.289630 5.755813 -0.907648
v 2.712790 -0.005433 1.806194
v -3.274132 -0.005433 0.533634
v 3.289630 5.755813 -0.907648
v 5.625226 -3.202683 -11.895759
v -0.361688 -3.202683 -13.168317
v 4.585788 -7.189574 -7.005591
v -0.361688 -3.202683 -13.168317
v -1.401126 -7.189574 -8.278149
v 4.585788 -7.189574 -7.005591
v 4.585788 -7.189574 -7.005591
v -1.401126 -7.189574 -8.278149
v 3.289630 -5.766678 -0.907648
v -1.401126 -7.189574 -8.278149
v -2.697287 -5.766678 -2.180206
v 3.289630 -5.766678 -0.907648
v 3.289630 -5.766678 -0.907648
v -2.697287 -5.766678 -2.180206
v 2.712790 -0.005433 1.806194
v -2.697287 -5.766678 -2.180206
v -3.274132 -0.005433 0.533634
v 2.712790 -0.005433 1.806194
v 4.585788 -7.189574 -7.005591
v 3.289630 -5.766678 -0.907648
v 5.625226 -3.202683 -11.895759
v 5.625226 -3.202683 -11.895759
v 3.289630 -5.766678 -0.907648
v 5.625226 3.191817 -11.895759
v 5.625226 3.191817 -11.895759
v 3.289630 -5.766678 -0.907648
v 4.585788 7.178726 -7.005591
v 4.585788 7.178726 -7.005591
v 3.289630 -5.766678 -0.907648
v 3.289630 5.755813 -0.907648
v 3.289630 5.755813 -0.907648
v 3.289630 -5.766678 -0.907648
v 2.712790 -0.005433 1.806194
v -2.697287 -5.766678 -2.180206
v -1.401126 -7.189574 -8.278149
v -3.274132 -0.005433 0.533634
v -3.274132 -0.005433 0.533634
v -1.401126 -7.189574 -8.278149
v -2.697287 5.755813 -2.180206
v -2.697287 5.755813 -2.180206
v -1.401126 -7.189574 -8.278149
v -1.401126 7.178726 -8.278149
v -1.401126 7.178726 -8.278149
v -1.401126 -7.189574 -8.278149
v -0.361688 3.191817 -13.168317
v -0.361688 3.191817 -13.168317
v -1.401126 -7.189574 -8.278149
v -0.361688 -3.202683 -13.168317
vt 0.722656 0.714111
vt 0.722656 0.619629
vt 0.544434 0.714111
vt 0.722656 0.619629
vt 0.544434 0.619629
vt 0.544434 0.714111
vt 0.302979 0.725098
vt 0.407471 0.752441
vt 0.300049 0.643066
vt 0.407471 0.752441
vt 0.407471 0.643066
vt 0.300049 0.643066
vt 1.995117 0.542969
vt 1.750000 0.542969
vt 1.981445 0.675049
vt 1.750000 0.542969
vt 1.730469 0.642578
vt 1.981445 0.675049
vt 0.995605 0.542969
vt 0.981934 0.675049
vt 0.750488 0.542969
vt 0.981934 0.675049
vt 0.730957 0.642578
vt 0.750488 0.542969
vt 1.407227 0.752441
vt 1.407227 0.643066
vt 1.302734 0.752441
vt 1.407227 0.643066
vt 1.306641 0.670410
vt 1.302734 0.752441
vt 0.993164 0.010742
vt 0.750000 0.010742
vt 0.993164 0.270996
vt 0.750000 0.010742
vt 0.750000 0.270996
vt 0.993164 0.270996
vt 1.750000 0.229980
vt 1.750000 0.076172
vt 1.995117 0.076172
vt 1.995117 0.229980
vt 1.750000 0.229980
vt 1.995117 0.076172
vt 1.750000 0.400879
vt 1.750000 0.229980
vt 1.995117 0.229980
vt 1.995117 0.400879
vt 1.750000 0.400879
vt 1.995117 0.229980
vt 1.750000 0.542969
vt 1.750000 0.400879
vt 1.995117 0.400879
vt 1.995117 0.542969
vt 1.750000 0.542969
vt 1.995117 0.400879
vt 0.995605 0.076172
vt 0.750488 0.076172
vt 0.995605 0.229980
vt 0.750488 0.076172
vt 0.750488 0.229980
vt 0.995605 0.229980
vt 0.995605 0.229980
vt 0.750488 0.229980
vt 0.995605 0.400879
vt 0.750488 0.229980
vt 0.750488 0.400879
vt 0.995605 0.400879
vt 0.995605 0.400879
vt 0.750488 0.400879
vt 0.995605 0.542969
vt 0.750488 0.400879
vt 0.750488 0.542969
vt 0.995605 0.542969
vt 1.362305 0.619385
vt 1.618164 0.557373
vt 1.155273 0.453613
vt 1.155273 0.453613
vt 1.618164 0.557373
vt 1.152344 0.185059
vt 1.152344 0.185059
vt 1.618164 0.557373
vt 1.356445 0.015625
vt 1.356445 0.015625
vt 1.618164 0.557373
vt 1.613281 0.073242
vt 1.613281 0.073242
vt 1.618164 0.557373
vt 1.729492 0.314453
vt 0.613770 0.077637
vt 0.358643 0.018066
vt 0.727539 0.318848
vt 0.727539 0.318848
vt 0.358643 0.018066
vt 0.613770 0.560303
vt 0.613770 0.560303
vt 0.358643 0.018066
vt 0.358643 0.619873
vt 0.358643 0.619873
vt 0.358643 0.018066
vt 0.153687 0.453125
vt 0.153687 0.453125
vt 0.358643 0.018066
vt 0.153687 0.185059
vn -0.052838 0.000000 0.998043
vn -0.052838 0.000000 0.998043
vn -0.052838 0.000000 0.998043
vn -0.052838 0.000000 0.998043
vn -0.052838 0.000000 0.998043
vn -0.052838 0.000000 0.998043
vn -0.996086 0.000000 -0.084149
vn -0.996086 0.000000 -0.084149
vn -0.996086 0.000000 -0.084149
vn -0.996086 0.000000 -0.084149
vn -0.996086 0.000000 -0.084149
vn -0.996086 0.000000 -0.084149
vn -0.003914 1.000000 0.033268
vn -0.003914 1.000000 0.033268
vn -0.003914 1.000000 0.033268
vn -0.003914 1.000000 0.033268
vn -0.003914 1.000000 0.033268
vn -0.003914 1.000000 0.033268
vn 0.003914 -1.000000 -0.033268
vn 0.003914 -1.000000 -0.033268
vn 0.003914 -1.000000 -0.033268
vn 0.003914 -1.000000 -0.033268
vn 0.003914 -1.000000 -0.033268
vn 0.003914 -1.000000 -0.033268
vn 1.000000 0.000000 0.007828
vn 1.000000 0.000000 0.007828
vn 1.000000 0.000000 0.007828
vn 1.000000 0.000000 0.007828
vn 1.000000 0.000000 0.007828
vn 1.000000 0.000000 0.007828
vn 0.187867 0.434442 -0.880626
vn 0.187867 0.434442 -0.880626
vn 0.187867 -0.434442 -0.880626
vn 0.187867 0.434442 -0.880626
vn 0.187867 -0.434442 -0.880626
vn 0.187867 -0.434442 -0.880626
vn 0.046967 0.974560 -0.217221
vn 0.187867 0.434442 -0.880626
vn 0.187867 0.434442 -0.880626
vn 0.046967 0.974560 -0.217221
vn 0.046967 0.974560 -0.217221
vn 0.187867 0.434442 -0.880626
vn -0.129159 0.782779 0.610568
vn 0.046967 0.974560 -0.217221
vn 0.046967 0.974560 -0.217221
vn -0.129159 0.782779 0.610568
vn -0.129159 0.782779 0.610568
vn 0.046967 0.974560 -0.217221
vn -0.187867 0.434442 0.880626
vn -0.129159 0.782779 0.610568
vn -0.129159 0.782779 0.610568
vn -0.187867 0.434442 0.880626
vn -0.187867 0.434442 0.880626
vn -0.129159 0.782779 0.610568
vn 0.187867 -0.434442 -0.880626
vn 0.187867 -0.434442 -0.880626
vn 0.046967 -0.974560 -0.217221
vn 0.187867 -0.434442 -0.880626
vn 0.046967 -0.974560 -0.217221
vn 0.046967 -0.974560 -0.217221
vn 0.046967 -0.974560 -0.217221
vn 0.046967 -0.974560 -0.217221
vn -0.129159 -0.782779 0.610568
vn 0.046967 -0.974560 -0.217221
vn -0.129159 -0.782779 0.610568
vn -0.129159 -0.782779 0.610568
vn -0.129159 -0.782779 0.610568
vn -0.129159 -0.782779 0.610568
vn -0.187867 -0.434442 0.880626
vn -0.129159 -0.782779 0.610568
vn -0.187867 -0.434442 0.880626
vn -0.187867 -0.434442 0.880626
vn 0.978474 0.000000 0.207436
vn 0.978474 0.000000 0.207436
vn 0.978474 0.000000 0.207436
vn 0.978474 0.000000 0.207436
vn 0.978474 0.000000 0.207436
vn 0.978474 0.000000 0.207436
vn 0.978474 0.000000 0.207436
vn 0.978474 0.000000 0.207436
vn 0.978474 0.000000 0.207436
vn 0.978474 0.000000 0.207436
vn 0.978474 0.000000 0.207436
vn 0.978474 0.000000 0.207436
vn 0.978474 0.000000 0.207436
vn 0.978474 0.000000 0.207436
vn 0.978474 0.000000 0.207436
vn -0.978474 0.000000 -0.207436
vn -0.978474 0.000000 -0.207436
vn -0.978474 0.000000 -0.207436
vn -0.978474 0.000000 -0.207436
vn -0.978474 0.000000 -0.207436
vn -0.978474 0.000000 -0.207436
vn -0.978474 0.000000 -0.207436
vn -0.978474 0.000000 -0.207436
vn -0.978474 0.000000 -0.207436
vn -0.978474 0.000000 -0.207436
vn -0.978474 0.000000 -0.207436
vn -0.978474 0.000000 -0.207436
vn -0.978474 0.000000 -0.207436
vn -0.978474 0.000000 -0.207436
vn -0.978474 0.000000 -0.207436
mtllib mtl_t6_wpn_lmg_type95_drum.mtl
g mtl_t6_wpn_lmg_type95_drum
usemtl mtl_t6_wpn_lmg_type95_drum
f 3/3/3 2/2/2 1/1/1
f 6/6/6 5/5/5 4/4/4
f 9/9/9 8/8/8 7/7/7
f 12/12/12 11/11/11 10/10/10
f 15/15/15 14/14/14 13/13/13
f 18/18/18 17/17/17 16/16/16
f 21/21/21 20/20/20 19/19/19
f 24/24/24 23/23/23 22/22/22
f 27/27/27 26/26/26 25/25/25
f 30/30/30 29/29/29 28/28/28
f 33/33/33 32/32/32 31/31/31
f 36/36/36 35/35/35 34/34/34
f 39/39/39 38/38/38 37/37/37
f 42/42/42 41/41/41 40/40/40
f 45/45/45 44/44/44 43/43/43
f 48/48/48 47/47/47 46/46/46
f 51/51/51 50/50/50 49/49/49
f 54/54/54 53/53/53 52/52/52
f 57/57/57 56/56/56 55/55/55
f 60/60/60 59/59/59 58/58/58
f 63/63/63 62/62/62 61/61/61
f 66/66/66 65/65/65 64/64/64
f 69/69/69 68/68/68 67/67/67
f 72/72/72 71/71/71 70/70/70
f 75/75/75 74/74/74 73/73/73
f 78/78/78 77/77/77 76/76/76
f 81/81/81 80/80/80 79/79/79
f 84/84/84 83/83/83 82/82/82
f 87/87/87 86/86/86 85/85/85
f 90/90/90 89/89/89 88/88/88
f 93/93/93 92/92/92 91/91/91
f 96/96/96 95/95/95 94/94/94
f 99/99/99 98/98/98 97/97/97
f 102/102/102 101/101/101 100/100/100
