# Generated by Wraith - Game extraction tools
# Please credit DTZxPorter for using it!

v -3.420610 1.634315 3.574492
v -3.420610 -1.645166 3.574492
v -3.111234 0.104440 -0.119875
v 2.766105 1.634315 3.907071
v 2.787306 0.104440 1.152685
v 2.766105 -1.645166 3.907071
v 2.766105 1.634315 3.907071
v 2.766105 -1.645166 3.907071
v -3.420610 1.634315 3.574492
v 2.766105 -1.645166 3.907071
v -3.420610 -1.645166 3.574492
v -3.420610 1.634315 3.574492
v -3.111234 0.104440 -0.119875
v 2.787306 0.104440 1.152685
v -3.420610 1.634315 3.574492
v 2.787306 0.104440 1.152685
v 2.766105 1.634315 3.907071
v -3.420610 1.634315 3.574492
v -3.111234 0.104440 -0.119875
v -3.420610 -1.645166 3.574492
v 2.787306 0.104440 1.152685
v -3.420610 -1.645166 3.574492
v 2.766105 -1.645166 3.907071
v 2.787306 0.104440 1.152685
v 5.625226 -0.005425 -11.895759
v -0.361688 -0.005425 -13.168317
v 3.937710 -6.478125 -3.956619
v -0.361688 -0.005425 -13.168317
v -2.049206 -6.478125 -5.229177
v 3.937710 -6.478125 -3.956619
v 3.937710 6.467261 -3.956619
v -2.049206 6.467261 -5.229177
v 5.625226 -0.005425 -11.895759
v -2.049206 6.467261 -5.229177
v -0.361688 -0.005425 -13.168317
v 5.625226 -0.005425 -11.895759
v 2.712790 -0.005425 1.806194
v -3.274132 -0.005425 0.533634
v 3.937710 6.467261 -3.956619
v -3.274132 -0.005425 0.533634
v -2.049206 6.467261 -5.229177
v 3.937710 6.467261 -3.956619
v 3.937710 -6.478125 -3.956619
v -2.049206 -6.478125 -5.229177
v 2.712790 -0.005425 1.806194
v -2.049206 -6.478125 -5.229177
v -3.274132 -0.005425 0.533634
v 2.712790 -0.005425 1.806194
v 5.625226 -0.005425 -11.895759
v 3.937710 -6.478125 -3.956619
v 3.937710 6.467261 -3.956619
v 3.937710 -6.478125 -3.956619
v 2.712790 -0.005425 1.806194
v 3.937710 6.467261 -3.956619
v -3.274132 -0.005425 0.533634
v -2.049206 -6.478125 -5.229177
v -2.049206 6.467261 -5.229177
v -2.049206 -6.478125 -5.229177
v -0.361688 -0.005425 -13.168317
v -2.049206 6.467261 -5.229177
vt 0.407471 0.752441
vt 0.407471 0.643066
vt 0.301514 0.684082
vt 1.407227 0.643066
vt 1.304688 0.711426
vt 1.407227 0.752441
vt 0.722656 0.714111
vt 0.722656 0.619629
vt 0.544434 0.714111
vt 0.722656 0.619629
vt 0.544434 0.619629
vt 0.544434 0.714111
vt 1.995117 0.542969
vt 1.750000 0.542969
vt 1.981445 0.675049
vt 1.750000 0.542969
vt 1.730469 0.642578
vt 1.981445 0.675049
vt 0.995605 0.542969
vt 0.981934 0.675049
vt 0.750488 0.542969
vt 0.981934 0.675049
vt 0.730957 0.642578
vt 0.750488 0.542969
vt 0.984375 0.266602
vt 0.755371 0.266602
vt 0.984375 0.514648
vt 0.755371 0.266602
vt 0.755371 0.514648
vt 0.984375 0.514648
vt 0.984375 0.019043
vt 0.755371 0.019043
vt 0.984375 0.266602
vt 0.755371 0.019043
vt 0.755371 0.266602
vt 0.984375 0.266602
vt 0.750977 0.500732
vt 0.750977 0.280273
vt 0.963379 0.500732
vt 0.750977 0.280273
vt 0.963379 0.280273
vt 0.963379 0.500732
vt 0.963379 0.500732
vt 0.963379 0.280273
vt 0.750977 0.500732
vt 0.963379 0.280273
vt 0.750977 0.280273
vt 0.750977 0.500732
vt 0.410645 0.009766
vt 0.121216 0.364746
vt 0.699707 0.364746
vt 0.121216 0.364746
vt 0.410645 0.622559
vt 0.699707 0.364746
vt 0.417969 0.622559
vt 0.128662 0.364746
vt 0.707520 0.364746
vt 0.128662 0.364746
vt 0.417969 0.009766
vt 0.707520 0.364746
vn -0.996086 0.000000 -0.084149
vn -0.996086 0.000000 -0.084149
vn -0.996086 0.000000 -0.084149
vn 1.000000 0.000000 0.007828
vn 1.000000 0.000000 0.007828
vn 1.000000 0.000000 0.007828
vn -0.052838 0.000000 0.998043
vn -0.052838 0.000000 0.998043
vn -0.052838 0.000000 0.998043
vn -0.052838 0.000000 0.998043
vn -0.052838 0.000000 0.998043
vn -0.052838 0.000000 0.998043
vn 0.056751 0.904110 -0.424658
vn 0.056751 0.904110 -0.424658
vn 0.056751 0.904110 -0.424658
vn 0.056751 0.904110 -0.424658
vn 0.056751 0.904110 -0.424658
vn 0.056751 0.904110 -0.424658
vn 0.062622 -0.878669 -0.473581
vn 0.062622 -0.878669 -0.473581
vn 0.062622 -0.878669 -0.473581
vn 0.062622 -0.878669 -0.473581
vn 0.062622 -0.878669 -0.473581
vn 0.062622 -0.878669 -0.473581
vn 0.207436 0.000000 -0.978474
vn 0.207436 0.000000 -0.978474
vn -0.015656 -0.996086 0.078278
vn 0.207436 0.000000 -0.978474
vn -0.015656 -0.996086 0.078278
vn -0.015656 -0.996086 0.078278
vn -0.015656 0.996086 0.078278
vn -0.015656 0.996086 0.078278
vn 0.207436 0.000000 -0.978474
vn -0.015656 0.996086 0.078278
vn 0.207436 0.000000 -0.978474
vn 0.207436 0.000000 -0.978474
vn -0.154599 0.673190 0.724070
vn -0.154599 0.673190 0.724070
vn -0.015656 0.996086 0.078278
vn -0.154599 0.673190 0.724070
vn -0.015656 0.996086 0.078278
vn -0.015656 0.996086 0.078278
vn -0.015656 -0.996086 0.078278
vn -0.015656 -0.996086 0.078278
vn -0.154599 -0.673190 0.724070
vn -0.015656 -0.996086 0.078278
vn -0.154599 -0.673190 0.724070
vn -0.154599 -0.673190 0.724070
vn 0.978474 0.000000 0.207436
vn 0.978474 0.000000 0.207436
vn 0.978474 0.000000 0.207436
vn 0.978474 0.000000 0.207436
vn 0.978474 0.000000 0.207436
vn 0.978474 0.000000 0.207436
vn -0.978474 0.000000 -0.207436
vn -0.978474 0.000000 -0.207436
vn -0.978474 0.000000 -0.207436
vn -0.978474 0.000000 -0.207436
vn -0.978474 0.000000 -0.207436
vn -0.978474 0.000000 -0.207436
mtllib mtl_t6_wpn_lmg_type95_drum.mtl
g mtl_t6_wpn_lmg_type95_drum
usemtl mtl_t6_wpn_lmg_type95_drum
f 3/3/3 2/2/2 1/1/1
f 6/6/6 5/5/5 4/4/4
f 9/9/9 8/8/8 7/7/7
f 12/12/12 11/11/11 10/10/10
f 15/15/15 14/14/14 13/13/13
f 18/18/18 17/17/17 16/16/16
f 21/21/21 20/20/20 19/19/19
f 24/24/24 23/23/23 22/22/22
f 27/27/27 26/26/26 25/25/25
f 30/30/30 29/29/29 28/28/28
f 33/33/33 32/32/32 31/31/31
f 36/36/36 35/35/35 34/34/34
f 39/39/39 38/38/38 37/37/37
f 42/42/42 41/41/41 40/40/40
f 45/45/45 44/44/44 43/43/43
f 48/48/48 47/47/47 46/46/46
f 51/51/51 50/50/50 49/49/49
f 54/54/54 53/53/53 52/52/52
f 57/57/57 56/56/56 55/55/55
f 60/60/60 59/59/59 58/58/58
