# Generated by Wraith - Game extraction tools
# Please credit DTZxPorter for using it!

v -78.342659 113.901489 18.103172
v -78.342659 113.901489 0.000000
v 78.342659 113.901489 18.103172
v -78.342659 113.901489 0.000000
v 78.342659 113.901489 0.000000
v 78.342659 113.901489 18.103172
v -86.638168 -121.885880 114.561569
v -86.638168 -92.564919 114.561569
v 86.638168 -121.885880 114.561569
v -86.638168 -92.564919 114.561569
v 86.638168 -92.564919 114.561569
v 86.638168 -121.885880 114.561569
v -81.538170 -81.754967 111.223869
v -81.538170 -69.740799 40.458744
v 81.538170 -81.754967 111.223869
v -81.538170 -69.740799 40.458744
v 81.538170 -69.740799 40.458744
v 81.538170 -81.754967 111.223869
v 86.638168 -121.885880 114.561569
v 86.638168 -92.564919 114.561569
v 86.638168 -121.885880 -0.000030
v 86.638168 -92.564919 114.561569
v 86.638168 -73.115189 -0.000030
v 86.638168 -121.885880 -0.000030
v -86.638168 -121.885880 114.561569
v -86.638168 -121.885880 -0.000030
v -86.638168 -92.564919 114.561569
v -86.638168 -121.885880 -0.000030
v -86.638168 -73.115189 -0.000030
v -86.638168 -92.564919 114.561569
v 86.638168 -73.115189 -0.000030
v 86.638168 -92.564919 114.561569
v 81.538170 -79.697113 38.768410
v 86.638168 -92.564919 114.561569
v 81.538170 -91.711281 109.533524
v 81.538170 -79.697113 38.768410
v 86.638168 -73.115189 -0.000030
v 81.538170 -79.697113 38.768410
v -86.638168 -73.115189 -0.000030
v 81.538170 -79.697113 38.768410
v -81.538170 -79.697113 38.768410
v -86.638168 -73.115189 -0.000030
v -81.538170 -91.711281 109.533524
v 81.538170 -91.711281 109.533524
v 86.638168 -92.564919 114.561569
v -86.638168 -92.564919 114.561569
v -81.538170 -91.711281 109.533524
v 86.638168 -92.564919 114.561569
v -81.538170 -79.697113 38.768410
v -81.538170 -91.711281 109.533524
v -86.638168 -92.564919 114.561569
v -86.638168 -73.115189 -0.000030
v -81.538170 -79.697113 38.768410
v -86.638168 -92.564919 114.561569
v -81.538170 -91.711281 109.533524
v -81.538170 -81.754967 111.223869
v 81.538170 -91.711281 109.533524
v -81.538170 -81.754967 111.223869
v 81.538170 -81.754967 111.223869
v 81.538170 -91.711281 109.533524
v 81.538170 -91.711281 109.533524
v 81.538170 -81.754967 111.223869
v 81.538170 -79.697113 38.768410
v 81.538170 -81.754967 111.223869
v 81.538170 -69.740799 40.458744
v 81.538170 -79.697113 38.768410
v -81.538170 -79.697113 38.768410
v -81.538170 -69.740799 40.458744
v -81.538170 -91.711281 109.533524
v -81.538170 -69.740799 40.458744
v -81.538170 -81.754967 111.223869
v -81.538170 -91.711281 109.533524
v 78.342659 -79.843712 18.103172
v 78.342659 113.901489 18.103172
v 78.342659 -79.843712 0.000000
v 78.342659 113.901489 18.103172
v 78.342659 113.901489 0.000000
v 78.342659 -79.843712 0.000000
v -78.342659 -79.843712 0.000000
v -78.342659 113.901489 0.000000
v -78.342659 -79.843712 18.103172
v -78.342659 113.901489 0.000000
v -78.342659 113.901489 18.103172
v -78.342659 -79.843712 18.103172
v -79.664764 -81.268097 41.490540
v -79.664764 121.788803 41.490540
v 79.664764 -81.268097 41.490540
v -79.664764 121.788803 41.490540
v 79.664764 121.788803 41.490540
v 79.664764 -81.268097 41.490540
v -79.664764 121.788803 41.490540
v -79.664764 121.788803 17.526896
v 79.664764 121.788803 41.490540
v -79.664764 121.788803 17.526896
v 79.664764 121.788803 17.526896
v 79.664764 121.788803 41.490540
v 79.664764 -81.268097 41.490540
v 79.664764 121.788803 41.490540
v 79.664764 -81.268097 17.526896
v 79.664764 121.788803 41.490540
v 79.664764 121.788803 17.526896
v 79.664764 -81.268097 17.526896
v -79.664764 -81.268097 17.526896
v -79.664764 121.788803 17.526896
v -79.664764 -81.268097 41.490540
v -79.664764 121.788803 17.526896
v -79.664764 121.788803 41.490540
v -79.664764 -81.268097 41.490540
vt 0.332275 0.932983
vt 0.818848 0.912598
vt 0.097351 0.995319
vt 0.818848 0.912598
vt 0.092285 0.912598
vt 0.097351 0.995319
vt 0.334717 0.901306
vt 0.334717 0.818115
vt 0.008591 0.898804
vt 0.334717 0.818115
vt 0.008591 0.793579
vt 0.008591 0.898804
vt 0.732422 0.869141
vt 0.992676 0.869141
vt 0.667969 0.500732
vt 0.992676 0.869141
vt 0.985840 0.500000
vt 0.667969 0.500732
vt 0.070679 0.560059
vt 0.072388 0.690918
vt 0.604492 0.561279
vt 0.072388 0.690918
vt 0.603027 0.795166
vt 0.604492 0.561279
vt 0.070679 0.560059
vt 0.604492 0.561279
vt 0.072388 0.690918
vt 0.604492 0.561279
vt 0.603027 0.795166
vt 0.072388 0.690918
vt 0.008598 0.352051
vt 0.008591 0.696533
vt 0.022919 0.502686
vt 0.008591 0.696533
vt 0.022919 0.777222
vt 0.022919 0.502686
vt 0.954102 0.442383
vt 0.976074 0.346191
vt 0.980469 0.007324
vt 0.976074 0.346191
vt 0.980469 0.007324
vt 0.980469 0.007324
vt 0.022919 0.777222
vt 0.334717 0.786621
vt 0.334717 0.790894
vt 0.008591 0.793091
vt 0.022919 0.777222
vt 0.334717 0.790894
vt 0.022903 0.502686
vt 0.022919 0.777222
vt 0.008591 0.793091
vt 0.008598 0.352051
vt 0.022903 0.502686
vt 0.008591 0.793091
vt 0.615723 0.869141
vt 0.732422 0.869141
vt 0.622559 0.503906
vt 0.732422 0.869141
vt 0.667969 0.500732
vt 0.622559 0.503906
vt 0.686523 0.452637
vt 0.667969 0.500732
vt 0.971191 0.451660
vt 0.667969 0.500732
vt 0.985840 0.500000
vt 0.971191 0.451660
vt 0.979980 0.456543
vt 0.981934 0.497070
vt 0.667480 0.454590
vt 0.981934 0.497070
vt 0.667969 0.500732
vt 0.667480 0.454590
vt -0.800293 0.995312
vt -0.206055 0.932983
vt -0.783691 0.906433
vt -0.206055 0.932983
vt 0.092285 0.912598
vt -0.783691 0.906433
vt 1.695313 0.908386
vt 0.818848 0.912598
vt 1.710938 0.995316
vt 0.818848 0.912598
vt 0.823242 0.995319
vt 1.710938 0.995316
vt 0.980469 0.007324
vt 0.191895 0.007324
vt 0.978027 0.338867
vt 0.191895 0.007324
vt 0.129150 0.337891
vt 0.978027 0.338867
vt 0.191895 0.007324
vt 0.066406 0.007324
vt 0.129150 0.337891
vt 0.066406 0.007324
vt 0.046753 0.339844
vt 0.129150 0.337891
vt 0.978027 0.338867
vt 0.129150 0.337891
vt 0.977051 0.436523
vt 0.129150 0.337891
vt 0.130615 0.432129
vt 0.977051 0.436523
vt 0.935547 0.442383
vt 0.130615 0.432129
vt 0.976563 0.342773
vt 0.130615 0.432129
vt 0.129150 0.337891
vt 0.976563 0.342773
vn 0.000000 1.000000 0.000000
vn 0.000000 1.000000 0.000000
vn 0.000000 1.000000 0.000000
vn 0.000000 1.000000 0.000000
vn 0.000000 1.000000 0.000000
vn 0.000000 1.000000 0.000000
vn 0.000000 0.000000 1.000000
vn 0.000000 0.000000 1.000000
vn 0.000000 0.000000 1.000000
vn 0.000000 0.000000 1.000000
vn 0.000000 0.000000 1.000000
vn 0.000000 0.000000 1.000000
vn 0.000000 0.986301 0.168297
vn 0.000000 0.986301 0.168297
vn 0.000000 0.986301 0.168297
vn 0.000000 0.986301 0.168297
vn 0.000000 0.986301 0.168297
vn 0.000000 0.986301 0.168297
vn 1.000000 0.000000 0.000000
vn 1.000000 0.000000 0.000000
vn 1.000000 0.000000 0.000000
vn 1.000000 0.000000 0.000000
vn 1.000000 0.000000 0.000000
vn 1.000000 0.000000 0.000000
vn -1.000000 0.000000 0.000000
vn -1.000000 0.000000 0.000000
vn -1.000000 0.000000 0.000000
vn -1.000000 0.000000 0.000000
vn -1.000000 0.000000 0.000000
vn -1.000000 0.000000 0.000000
vn 0.000000 0.986301 0.168297
vn 0.000000 0.986301 0.168297
vn 0.000000 0.986301 0.168297
vn 0.000000 0.986301 0.168297
vn 0.000000 0.986301 0.168297
vn 0.000000 0.986301 0.168297
vn 0.000000 0.986301 0.168297
vn 0.000000 0.986301 0.168297
vn 0.000000 0.986301 0.168297
vn 0.000000 0.986301 0.168297
vn 0.000000 0.986301 0.168297
vn 0.000000 0.986301 0.168297
vn 0.000000 0.986301 0.168297
vn 0.000000 0.986301 0.168297
vn 0.000000 0.986301 0.168297
vn 0.000000 0.986301 0.168297
vn 0.000000 0.986301 0.168297
vn 0.000000 0.986301 0.168297
vn 0.000000 0.986301 0.168297
vn 0.000000 0.986301 0.168297
vn 0.000000 0.986301 0.168297
vn 0.000000 0.986301 0.168297
vn 0.000000 0.986301 0.168297
vn 0.000000 0.986301 0.168297
vn 0.000000 -0.168297 0.986301
vn 0.000000 -0.168297 0.986301
vn 0.000000 -0.168297 0.986301
vn 0.000000 -0.168297 0.986301
vn 0.000000 -0.168297 0.986301
vn 0.000000 -0.168297 0.986301
vn 1.000000 0.000000 0.000000
vn 1.000000 0.000000 0.000000
vn 1.000000 0.000000 0.000000
vn 1.000000 0.000000 0.000000
vn 1.000000 0.000000 0.000000
vn 1.000000 0.000000 0.000000
vn -1.000000 0.000000 0.000000
vn -1.000000 0.000000 0.000000
vn -1.000000 0.000000 0.000000
vn -1.000000 0.000000 0.000000
vn -1.000000 0.000000 0.000000
vn -1.000000 0.000000 0.000000
vn 1.000000 0.000000 0.000000
vn 1.000000 0.000000 0.000000
vn 1.000000 0.000000 0.000000
vn 1.000000 0.000000 0.000000
vn 1.000000 0.000000 0.000000
vn 1.000000 0.000000 0.000000
vn -1.000000 0.000000 0.000000
vn -1.000000 0.000000 0.000000
vn -1.000000 0.000000 0.000000
vn -1.000000 0.000000 0.000000
vn -1.000000 0.000000 0.000000
vn -1.000000 0.000000 0.000000
vn 0.000000 0.000000 1.000000
vn 0.000000 0.000000 1.000000
vn 0.000000 0.000000 1.000000
vn 0.000000 0.000000 1.000000
vn 0.000000 0.000000 1.000000
vn 0.000000 0.000000 1.000000
vn 0.000000 1.000000 0.000000
vn 0.000000 1.000000 0.000000
vn 0.000000 1.000000 0.000000
vn 0.000000 1.000000 0.000000
vn 0.000000 1.000000 0.000000
vn 0.000000 1.000000 0.000000
vn 1.000000 0.000000 0.000000
vn 1.000000 0.000000 0.000000
vn 1.000000 0.000000 0.000000
vn 1.000000 0.000000 0.000000
vn 1.000000 0.000000 0.000000
vn 1.000000 0.000000 0.000000
vn -1.000000 0.000000 0.000000
vn -1.000000 0.000000 0.000000
vn -1.000000 0.000000 0.000000
vn -1.000000 0.000000 0.000000
vn -1.000000 0.000000 0.000000
vn -1.000000 0.000000 0.000000
mtllib mtl_nt_2020_bed_fullsize_01.mtl
g mtl_nt_2020_bed_fullsize_01
usemtl mtl_nt_2020_bed_fullsize_01
f 3/3/3 2/2/2 1/1/1
f 6/6/6 5/5/5 4/4/4
f 9/9/9 8/8/8 7/7/7
f 12/12/12 11/11/11 10/10/10
f 15/15/15 14/14/14 13/13/13
f 18/18/18 17/17/17 16/16/16
f 21/21/21 20/20/20 19/19/19
f 24/24/24 23/23/23 22/22/22
f 27/27/27 26/26/26 25/25/25
f 30/30/30 29/29/29 28/28/28
f 33/33/33 32/32/32 31/31/31
f 36/36/36 35/35/35 34/34/34
f 39/39/39 38/38/38 37/37/37
f 42/42/42 41/41/41 40/40/40
f 45/45/45 44/44/44 43/43/43
f 48/48/48 47/47/47 46/46/46
f 51/51/51 50/50/50 49/49/49
f 54/54/54 53/53/53 52/52/52
f 57/57/57 56/56/56 55/55/55
f 60/60/60 59/59/59 58/58/58
f 63/63/63 62/62/62 61/61/61
f 66/66/66 65/65/65 64/64/64
f 69/69/69 68/68/68 67/67/67
f 72/72/72 71/71/71 70/70/70
f 75/75/75 74/74/74 73/73/73
f 78/78/78 77/77/77 76/76/76
f 81/81/81 80/80/80 79/79/79
f 84/84/84 83/83/83 82/82/82
f 87/87/87 86/86/86 85/85/85
f 90/90/90 89/89/89 88/88/88
f 93/93/93 92/92/92 91/91/91
f 96/96/96 95/95/95 94/94/94
f 99/99/99 98/98/98 97/97/97
f 102/102/102 101/101/101 100/100/100
f 105/105/105 104/104/104 103/103/103
f 108/108/108 107/107/107 106/106/106
