# Generated by Wraith - Game extraction tools
# Please credit DTZxPorter for using it!

v 130.174744 60.324951 15.239792
v -42.465881 459.700409 15.239821
v 22.185118 485.457367 15.239821
v 193.674866 89.534912 15.239792
v 130.174744 60.324951 15.239792
v 22.185118 485.457367 15.239821
v 193.674866 89.534912 15.239792
v 407.034790 -344.804932 15.239745
v 130.174744 60.324951 15.239792
v 407.034790 -344.804932 15.239745
v 344.804688 -377.824951 15.239745
v 130.174744 60.324951 15.239792
v 367.188599 -418.306122 15.239745
v 344.804688 -377.824951 15.239745
v 407.034790 -344.804932 15.239745
v 429.299438 -385.048096 15.239745
v 367.188599 -418.306122 15.239745
v 407.034790 -344.804932 15.239745
v 329.564758 -386.715332 7.619751
v 351.948486 -427.315186 7.619751
v 130.293762 -542.806152 7.619736
v 107.314758 -501.014862 7.619736
v 329.564758 -386.715332 7.619751
v 130.293762 -542.806152 7.619736
v 113.664734 52.705078 7.619796
v 329.564758 -386.715332 7.619751
v 107.314758 -501.014862 7.619736
v -113.665161 -52.705078 7.619781
v 113.664734 52.705078 7.619796
v 107.314758 -501.014862 7.619736
v 113.664734 52.705078 7.619796
v -113.665161 -52.705078 7.619781
v -290.909607 357.028809 7.619812
v -58.975891 452.080292 7.619827
v 113.664734 52.705078 7.619796
v -290.909607 357.028809 7.619812
v -308.570557 350.559784 12.699799
v -130.175232 -60.324951 12.699768
v -342.741516 336.351440 12.699815
v -130.175232 -60.324951 12.699768
v -163.195313 -76.834961 12.699768
v -342.741516 336.351440 12.699815
v -130.175232 -60.324951 12.699768
v 92.074707 -509.905029 12.699722
v -163.195313 -76.834961 12.699768
v 92.074707 -509.905029 12.699722
v 59.054684 -527.685059 12.699722
v -163.195313 -76.834961 12.699768
v 82.152893 -569.595215 12.699739
v 59.054684 -527.685059 12.699722
v 92.074707 -509.905029 12.699722
v 114.934685 -551.696045 12.699722
v 82.152893 -569.595215 12.699739
v 92.074707 -509.905029 12.699722
v 107.314758 -501.014862 7.619736
v 130.293762 -542.806152 7.619736
v 130.293762 -542.806152 21.589735
v 107.314758 -501.014862 21.589735
v 107.314758 -501.014862 7.619736
v 130.293762 -542.806152 21.589735
v -113.665161 -52.705078 7.619781
v 107.314758 -501.014862 7.619736
v 107.314758 -501.014862 21.589735
v -113.665161 -52.705078 21.589781
v -113.665161 -52.705078 7.619781
v 107.314758 -501.014862 21.589735
v -290.909607 357.028809 7.619812
v -113.665161 -52.705078 7.619781
v -113.665161 -52.705078 21.589781
v -290.909637 357.028656 21.589813
v -290.909607 357.028809 7.619812
v -113.665161 -52.705078 21.589781
v 130.174744 60.324951 21.589798
v -42.465881 459.700409 21.589828
v -42.465881 459.700409 15.239821
v 130.174744 60.324951 15.239792
v 130.174744 60.324951 21.589798
v -42.465881 459.700409 15.239821
v 344.804688 -377.824951 21.589752
v 130.174744 60.324951 21.589798
v 130.174744 60.324951 15.239792
v 344.804688 -377.824951 15.239745
v 344.804688 -377.824951 21.589752
v 130.174744 60.324951 15.239792
v 367.188599 -418.306122 21.589752
v 344.804688 -377.824951 21.589752
v 344.804688 -377.824951 15.239745
v 367.188599 -418.306122 15.239745
v 367.188599 -418.306122 21.589752
v 344.804688 -377.824951 15.239745
v 329.564758 -386.715057 21.589752
v 351.948486 -427.315186 21.589752
v 351.948486 -427.315186 7.619751
v 329.564758 -386.715332 7.619751
v 329.564758 -386.715057 21.589752
v 351.948486 -427.315186 7.619751
v 113.664734 52.705078 21.589798
v 329.564758 -386.715057 21.589752
v 329.564758 -386.715332 7.619751
v 113.664734 52.705078 7.619796
v 113.664734 52.705078 21.589798
v 329.564758 -386.715332 7.619751
v -58.975891 452.080292 21.589828
v 113.664734 52.705078 21.589798
v 113.664734 52.705078 7.619796
v -58.975891 452.080292 7.619827
v -58.975891 452.080292 21.589828
v 113.664734 52.705078 7.619796
v 92.074707 -509.905029 21.589735
v 114.934685 -551.696045 21.589735
v 114.934685 -551.696045 12.699722
v 92.074707 -509.905029 12.699722
v 92.074707 -509.905029 21.589735
v 114.934685 -551.696045 12.699722
v -130.175232 -60.324951 21.589781
v 92.074707 -509.905029 21.589735
v 92.074707 -509.905029 12.699722
v -130.175232 -60.324951 12.699768
v -130.175232 -60.324951 21.589781
v 92.074707 -509.905029 12.699722
v -308.570526 350.559784 21.589813
v -130.175232 -60.324951 21.589781
v -130.175232 -60.324951 12.699768
v -308.570557 350.559784 12.699799
v -308.570526 350.559784 21.589813
v -130.175232 -60.324951 12.699768
v 351.948486 -427.315186 21.589752
v 329.564758 -386.715057 21.589752
v 367.188599 -418.306122 21.589752
v 329.564758 -386.715057 21.589752
v 344.804688 -377.824951 21.589752
v 367.188599 -418.306122 21.589752
v 329.564758 -386.715057 21.589752
v 113.664734 52.705078 21.589798
v 344.804688 -377.824951 21.589752
v 113.664734 52.705078 21.589798
v 130.174744 60.324951 21.589798
v 344.804688 -377.824951 21.589752
v 113.664734 52.705078 21.589798
v -58.975891 452.080292 21.589828
v 130.174744 60.324951 21.589798
v -58.975891 452.080292 21.589828
v -42.465881 459.700409 21.589828
v 130.174744 60.324951 21.589798
v -130.175232 -60.324951 21.589781
v -308.570526 350.559784 21.589813
v -290.909637 357.028656 21.589813
v -113.665161 -52.705078 21.589781
v -130.175232 -60.324951 21.589781
v -290.909637 357.028656 21.589813
v -113.665161 -52.705078 21.589781
v 107.314758 -501.014862 21.589735
v -130.175232 -60.324951 21.589781
v 107.314758 -501.014862 21.589735
v 92.074707 -509.905029 21.589735
v -130.175232 -60.324951 21.589781
v 92.074707 -509.905029 21.589735
v 107.314758 -501.014862 21.589735
v 130.293762 -542.806152 21.589735
v 114.934685 -551.696045 21.589735
v 92.074707 -509.905029 21.589735
v 130.293762 -542.806152 21.589735
v 59.054684 -527.685059 22.859741
v 82.152893 -569.595215 22.859726
v 42.417053 -590.225098 23.018478
v 19.218384 -548.143799 23.018494
v 59.054684 -527.685059 22.859741
v 42.417053 -590.225098 23.018478
v -163.195313 -76.834961 22.859787
v 59.054684 -527.685059 22.859741
v 19.218384 -548.143799 23.018494
v -203.626846 -95.339600 23.018539
v -163.195313 -76.834961 22.859787
v 19.218384 -548.143799 23.018494
v -342.741425 336.351440 22.859800
v -163.195313 -76.834961 22.859787
v -203.626846 -95.339600 23.018539
v -383.694641 319.384521 23.018553
v -342.741425 336.351440 22.859800
v -203.626846 -95.339600 23.018539
v 59.054684 -527.685059 12.699722
v 82.152893 -569.595215 12.699739
v 82.152893 -569.595215 22.859726
v 59.054684 -527.685059 22.859741
v 59.054684 -527.685059 12.699722
v 82.152893 -569.595215 22.859726
v -163.195313 -76.834961 12.699768
v 59.054684 -527.685059 12.699722
v 59.054684 -527.685059 22.859741
v -163.195313 -76.834961 22.859787
v -163.195313 -76.834961 12.699768
v 59.054684 -527.685059 22.859741
v -342.741516 336.351440 12.699815
v -163.195313 -76.834961 12.699768
v -163.195313 -76.834961 22.859787
v -342.741425 336.351440 22.859800
v -342.741516 336.351440 12.699815
v -163.195313 -76.834961 22.859787
v 19.218384 -548.143799 23.018494
v 42.417053 -590.225098 23.018478
v 42.416992 -590.225098 12.858488
v 19.218384 -548.144043 12.858488
v 19.218384 -548.143799 23.018494
v 42.416992 -590.225098 12.858488
v -203.626846 -95.339600 23.018539
v 19.218384 -548.143799 23.018494
v 19.218384 -548.144043 12.858488
v -203.626846 -95.339600 12.858537
v -203.626846 -95.339600 23.018539
v 19.218384 -548.144043 12.858488
v -383.694641 319.384521 23.018553
v -203.626846 -95.339600 23.018539
v -203.626846 -95.339600 12.858537
v -383.694641 319.384766 12.858551
v -383.694641 319.384521 23.018553
v -203.626846 -95.339600 12.858537
vt 0.447021 0.164063
vt -0.071350 0.164551
vt -0.071350 0.000000
vt 0.447021 0.000000
vt 0.447021 0.164063
vt -0.071350 0.000000
vt 0.447021 0.000000
vt 1.027344 0.000000
vt 0.447021 0.164063
vt 1.027344 0.000000
vt 1.027344 0.164551
vt 0.447021 0.164063
vt 1.082031 0.164551
vt 1.027344 0.164551
vt 1.027344 0.000000
vt 1.082031 0.000000
vt 1.082031 0.164551
vt 1.027344 0.000000
vt 1.027344 0.207031
vt 1.082031 0.207031
vt 1.082031 0.793091
vt 1.027344 0.793091
vt 1.027344 0.207031
vt 1.082031 0.793091
vt 0.447021 0.207031
vt 1.027344 0.207031
vt 1.027344 0.793091
vt 0.447021 0.793091
vt 0.447021 0.207031
vt 1.027344 0.793091
vt 0.447021 0.207031
vt 0.447021 0.793091
vt -0.071350 0.793091
vt -0.071350 0.207031
vt 0.447021 0.207031
vt -0.071350 0.793091
vt -0.071350 0.836060
vt 0.447021 0.835938
vt -0.071350 0.921875
vt 0.447021 0.835938
vt 0.447021 0.921875
vt -0.071350 0.921875
vt 0.447021 0.835938
vt 1.027344 0.836060
vt 0.447021 0.921875
vt 1.027344 0.836060
vt 1.027344 0.921875
vt 0.447021 0.921875
vt 1.082031 0.921875
vt 1.027344 0.921875
vt 1.027344 0.836060
vt 1.082031 0.836060
vt 1.082031 0.921875
vt 1.027344 0.836060
vt -0.440674 0.226074
vt -0.634766 0.226074
vt -0.634766 0.887024
vt -0.440674 0.887024
vt -0.440674 0.226074
vt -0.634766 0.887024
vt 1.605469 0.226074
vt -0.440674 0.226074
vt -0.440674 0.887024
vt 1.605469 0.887024
vt 1.605469 0.226074
vt -0.440674 0.887024
vt 3.431641 0.226074
vt 1.605469 0.226074
vt 1.605469 0.887024
vt 3.431641 0.887024
vt 3.431641 0.226074
vt 1.605469 0.887024
vt -16.468750 0.954590
vt -18.718750 0.954590
vt -18.718750 0.211426
vt -16.468750 0.211426
vt -16.468750 0.954590
vt -18.718750 0.211426
vt -13.960938 0.954590
vt -16.468750 0.954590
vt -16.468750 0.211426
vt -13.960938 0.211426
vt -13.960938 0.954590
vt -16.468750 0.211426
vt -13.726563 0.954590
vt -13.960938 0.954590
vt -13.960938 0.211426
vt -13.726563 0.211426
vt -13.726563 0.954590
vt -13.960938 0.211426
vt 0.237427 0.943420
vt 0.038849 0.943420
vt 0.038849 0.198242
vt 0.237427 0.198242
vt 0.237427 0.943420
vt 0.038849 0.198242
vt 2.333984 0.943420
vt 0.237427 0.943420
vt 0.237427 0.198242
vt 2.333984 0.198242
vt 2.333984 0.943420
vt 0.237427 0.198242
vt 4.199219 0.943420
vt 2.333984 0.943420
vt 2.333984 0.198242
vt 4.199219 0.198242
vt 4.199219 0.943420
vt 2.333984 0.198242
vt -0.440674 0.887024
vt -0.634766 0.887024
vt -0.634766 0.226074
vt -0.440674 0.226074
vt -0.440674 0.887024
vt -0.634766 0.226074
vt 1.605469 0.887024
vt -0.440674 0.887024
vt -0.440674 0.226074
vt 1.605469 0.226074
vt 1.605469 0.887024
vt -0.440674 0.226074
vt 3.431641 0.887024
vt 1.605469 0.887024
vt 1.605469 0.226074
vt 3.431641 0.226074
vt 3.431641 0.887024
vt 1.605469 0.226074
vt -0.306641 0.098633
vt -0.021652 0.098633
vt -0.306641 1.000000
vt -0.021652 0.098633
vt -0.021652 1.000000
vt -0.306641 1.000000
vt -0.021652 0.098633
vt 2.988281 0.098633
vt -0.021652 1.000000
vt 2.988281 0.098633
vt 2.988281 1.000000
vt -0.021652 1.000000
vt 2.988281 0.098633
vt 5.664063 0.098633
vt 2.988281 1.000000
vt 5.664063 0.098633
vt 5.664063 1.000000
vt 2.988281 1.000000
vt -26.312500 1.871582
vt -29.062500 1.871582
vt -29.062500 1.133911
vt -26.312500 1.133911
vt -26.312500 1.871582
vt -29.062500 1.133911
vt -26.312500 1.133911
vt -23.218750 1.133911
vt -26.312500 1.871582
vt -23.218750 1.133911
vt -23.218750 1.871582
vt -26.312500 1.871582
vt -23.218750 1.871582
vt -23.218750 1.133911
vt -22.921875 1.133911
vt -22.921875 1.871582
vt -23.218750 1.871582
vt -22.921875 1.133911
vt -0.430420 0.861206
vt -0.618164 0.861206
vt -0.618164 0.159668
vt -0.430420 0.159668
vt -0.430420 0.861206
vt -0.618164 0.159668
vt 1.541992 0.861206
vt -0.430420 0.861206
vt -0.430420 0.159668
vt 1.541992 0.159668
vt 1.541992 0.861206
vt -0.430420 0.159668
vt 3.310547 0.861206
vt 1.541992 0.861206
vt 1.541992 0.159668
vt 3.310547 0.159668
vt 3.310547 0.861206
vt 1.541992 0.159668
vt -0.430420 1.020660
vt -0.618164 1.020660
vt -0.618164 0.861206
vt -0.430420 0.861206
vt -0.430420 1.020660
vt -0.618164 0.861206
vt 1.541992 1.020660
vt -0.430420 1.020660
vt -0.430420 0.861206
vt 1.541992 0.861206
vt 1.541992 1.020660
vt -0.430420 0.861206
vt 3.310547 1.020660
vt 1.541992 1.020660
vt 1.541992 0.861206
vt 3.310547 0.861206
vt 3.310547 1.020660
vt 1.541992 0.861206
vt -0.430420 0.159668
vt -0.618164 0.159668
vt -0.618164 0.000000
vt -0.430420 0.000000
vt -0.430420 0.159668
vt -0.618164 0.000000
vt 1.541992 0.159668
vt -0.430420 0.159668
vt -0.430420 0.000000
vt 1.541992 0.000000
vt 1.541992 0.159668
vt -0.430420 0.000000
vt 3.273438 0.159668
vt 1.541992 0.159668
vt 1.541992 0.000000
vt 3.273438 0.000000
vt 3.273438 0.159668
vt 1.541992 0.000000
vn 0.000000 0.000000 1.000000
vn 0.000000 0.000000 1.000000
vn 0.000000 0.000000 1.000000
vn 0.000000 0.000000 1.000000
vn 0.000000 0.000000 1.000000
vn 0.000000 0.000000 1.000000
vn 0.000000 0.000000 1.000000
vn 0.000000 0.000000 1.000000
vn 0.000000 0.000000 1.000000
vn 0.000000 0.000000 1.000000
vn 0.000000 0.000000 1.000000
vn 0.000000 0.000000 1.000000
vn 0.000000 0.000000 1.000000
vn 0.000000 0.000000 1.000000
vn 0.000000 0.000000 1.000000
vn 0.000000 0.000000 1.000000
vn 0.000000 0.000000 1.000000
vn 0.000000 0.000000 1.000000
vn 0.000000 0.000000 1.000000
vn 0.000000 0.000000 1.000000
vn 0.000000 0.000000 1.000000
vn 0.000000 0.000000 1.000000
vn 0.000000 0.000000 1.000000
vn 0.000000 0.000000 1.000000
vn 0.000000 0.000000 1.000000
vn 0.000000 0.000000 1.000000
vn 0.000000 0.000000 1.000000
vn 0.000000 0.000000 1.000000
vn 0.000000 0.000000 1.000000
vn 0.000000 0.000000 1.000000
vn 0.000000 0.000000 1.000000
vn 0.000000 0.000000 1.000000
vn 0.000000 0.000000 1.000000
vn 0.000000 0.000000 1.000000
vn 0.000000 0.000000 1.000000
vn 0.000000 0.000000 1.000000
vn 0.000000 0.000000 1.000000
vn 0.000000 0.000000 1.000000
vn 0.000000 0.000000 1.000000
vn 0.000000 0.000000 1.000000
vn 0.000000 0.000000 1.000000
vn 0.000000 0.000000 1.000000
vn 0.000000 0.000000 1.000000
vn 0.000000 0.000000 1.000000
vn 0.000000 0.000000 1.000000
vn 0.000000 0.000000 1.000000
vn 0.000000 0.000000 1.000000
vn 0.000000 0.000000 1.000000
vn 0.000000 0.000000 1.000000
vn 0.000000 0.000000 1.000000
vn 0.000000 0.000000 1.000000
vn 0.000000 0.000000 1.000000
vn 0.000000 0.000000 1.000000
vn 0.000000 0.000000 1.000000
vn 0.886497 0.461840 0.000000
vn 0.876712 0.481409 0.000000
vn 0.876712 0.481409 0.000000
vn 0.886497 0.461840 0.000000
vn 0.886497 0.461840 0.000000
vn 0.876712 0.481409 0.000000
vn 0.908023 0.418787 0.000000
vn 0.886497 0.461840 0.000000
vn 0.886497 0.461840 0.000000
vn 0.908023 0.418787 0.000000
vn 0.908023 0.418787 0.000000
vn 0.886497 0.461840 0.000000
vn 0.917808 0.397260 0.000000
vn 0.908023 0.418787 0.000000
vn 0.908023 0.418787 0.000000
vn 0.917808 0.397260 0.000000
vn 0.917808 0.397260 0.000000
vn 0.908023 0.418787 0.000000
vn 0.908023 0.418787 0.000000
vn 0.917808 0.397260 0.000000
vn 0.917808 0.397260 0.000000
vn 0.908023 0.418787 0.000000
vn 0.908023 0.418787 0.000000
vn 0.917808 0.397260 0.000000
vn 0.886497 0.461840 0.000000
vn 0.908023 0.418787 0.000000
vn 0.908023 0.418787 0.000000
vn 0.886497 0.461840 0.000000
vn 0.886497 0.461840 0.000000
vn 0.908023 0.418787 0.000000
vn 0.874755 0.483366 0.000000
vn 0.886497 0.461840 0.000000
vn 0.886497 0.461840 0.000000
vn 0.874755 0.483366 0.000000
vn 0.874755 0.483366 0.000000
vn 0.886497 0.461840 0.000000
vn -0.886497 -0.461840 0.000000
vn -0.874755 -0.483366 0.000000
vn -0.874755 -0.483366 0.000000
vn -0.886497 -0.461840 0.000000
vn -0.886497 -0.461840 0.000000
vn -0.874755 -0.483366 0.000000
vn -0.908023 -0.418787 0.000000
vn -0.886497 -0.461840 0.000000
vn -0.886497 -0.461840 0.000000
vn -0.908023 -0.418787 0.000000
vn -0.908023 -0.418787 0.000000
vn -0.886497 -0.461840 0.000000
vn -0.917808 -0.397260 0.000000
vn -0.908023 -0.418787 0.000000
vn -0.908023 -0.418787 0.000000
vn -0.917808 -0.397260 0.000000
vn -0.917808 -0.397260 0.000000
vn -0.908023 -0.418787 0.000000
vn -0.886497 -0.461840 0.000000
vn -0.876712 -0.479452 0.000000
vn -0.876712 -0.479452 0.000000
vn -0.886497 -0.461840 0.000000
vn -0.886497 -0.461840 0.000000
vn -0.876712 -0.479452 0.000000
vn -0.908023 -0.420744 0.000000
vn -0.886497 -0.461840 0.000000
vn -0.886497 -0.461840 0.000000
vn -0.908023 -0.420744 0.000000
vn -0.908023 -0.420744 0.000000
vn -0.886497 -0.461840 0.000000
vn -0.917808 -0.399217 0.000000
vn -0.908023 -0.420744 0.000000
vn -0.908023 -0.420744 0.000000
vn -0.917808 -0.399217 0.000000
vn -0.917808 -0.399217 0.000000
vn -0.908023 -0.420744 0.000000
vn 0.000000 0.000000 1.000000
vn 0.000000 0.000000 1.000000
vn 0.000000 0.000000 1.000000
vn 0.000000 0.000000 1.000000
vn 0.000000 0.000000 1.000000
vn 0.000000 0.000000 1.000000
vn 0.000000 0.000000 1.000000
vn 0.000000 0.000000 1.000000
vn 0.000000 0.000000 1.000000
vn 0.000000 0.000000 1.000000
vn 0.000000 0.000000 1.000000
vn 0.000000 0.000000 1.000000
vn 0.000000 0.000000 1.000000
vn 0.000000 0.000000 1.000000
vn 0.000000 0.000000 1.000000
vn 0.000000 0.000000 1.000000
vn 0.000000 0.000000 1.000000
vn 0.000000 0.000000 1.000000
vn 0.000000 0.000000 1.000000
vn 0.000000 0.000000 1.000000
vn 0.000000 0.000000 1.000000
vn 0.000000 0.000000 1.000000
vn 0.000000 0.000000 1.000000
vn 0.000000 0.000000 1.000000
vn 0.000000 0.000000 1.000000
vn 0.000000 0.000000 1.000000
vn 0.000000 0.000000 1.000000
vn 0.000000 0.000000 1.000000
vn 0.000000 0.000000 1.000000
vn 0.000000 0.000000 1.000000
vn 0.000000 0.000000 1.000000
vn 0.000000 0.000000 1.000000
vn 0.000000 0.000000 1.000000
vn 0.000000 0.000000 1.000000
vn 0.000000 0.000000 1.000000
vn 0.000000 0.000000 1.000000
vn 0.003914 0.001957 1.000000
vn 0.003914 0.001957 1.000000
vn 0.003914 0.001957 1.000000
vn 0.003914 0.001957 1.000000
vn 0.003914 0.001957 1.000000
vn 0.003914 0.001957 1.000000
vn 0.003914 0.001957 1.000000
vn 0.003914 0.001957 1.000000
vn 0.003914 0.001957 1.000000
vn 0.003914 0.001957 1.000000
vn 0.003914 0.001957 1.000000
vn 0.003914 0.001957 1.000000
vn 0.003914 0.001957 1.000000
vn 0.003914 0.001957 1.000000
vn 0.003914 0.001957 1.000000
vn 0.003914 0.001957 1.000000
vn 0.003914 0.001957 1.000000
vn 0.003914 0.001957 1.000000
vn 0.886497 0.461840 0.000000
vn 0.876712 0.483366 0.000000
vn 0.876712 0.483366 0.000000
vn 0.886497 0.461840 0.000000
vn 0.886497 0.461840 0.000000
vn 0.876712 0.483366 0.000000
vn 0.908023 0.420744 0.000000
vn 0.886497 0.461840 0.000000
vn 0.886497 0.461840 0.000000
vn 0.908023 0.420744 0.000000
vn 0.908023 0.420744 0.000000
vn 0.886497 0.461840 0.000000
vn 0.917808 0.399217 0.000000
vn 0.908023 0.420744 0.000000
vn 0.908023 0.420744 0.000000
vn 0.917808 0.399217 0.000000
vn 0.917808 0.399217 0.000000
vn 0.908023 0.420744 0.000000
vn -0.886497 -0.461840 0.000000
vn -0.876712 -0.483366 0.000000
vn -0.876712 -0.483366 0.000000
vn -0.886497 -0.461840 0.000000
vn -0.886497 -0.461840 0.000000
vn -0.876712 -0.483366 0.000000
vn -0.908023 -0.420744 0.000000
vn -0.886497 -0.461840 0.000000
vn -0.886497 -0.461840 0.000000
vn -0.908023 -0.420744 0.000000
vn -0.908023 -0.420744 0.000000
vn -0.886497 -0.461840 0.000000
vn -0.917808 -0.399217 0.000000
vn -0.908023 -0.420744 0.000000
vn -0.908023 -0.420744 0.000000
vn -0.917808 -0.399217 0.000000
vn -0.917808 -0.399217 0.000000
vn -0.908023 -0.420744 0.000000
mtllib metal_aircraft_catapult_strip.mtl
g metal_aircraft_catapult_strip
usemtl metal_aircraft_catapult_strip
f 3/3/3 2/2/2 1/1/1
f 6/6/6 5/5/5 4/4/4
f 9/9/9 8/8/8 7/7/7
f 12/12/12 11/11/11 10/10/10
f 15/15/15 14/14/14 13/13/13
f 18/18/18 17/17/17 16/16/16
f 21/21/21 20/20/20 19/19/19
f 24/24/24 23/23/23 22/22/22
f 27/27/27 26/26/26 25/25/25
f 30/30/30 29/29/29 28/28/28
f 33/33/33 32/32/32 31/31/31
f 36/36/36 35/35/35 34/34/34
f 39/39/39 38/38/38 37/37/37
f 42/42/42 41/41/41 40/40/40
f 45/45/45 44/44/44 43/43/43
f 48/48/48 47/47/47 46/46/46
f 51/51/51 50/50/50 49/49/49
f 54/54/54 53/53/53 52/52/52
mtllib railroadtrack_side.mtl
g railroadtrack_side
usemtl railroadtrack_side
f 57/57/57 56/56/56 55/55/55
f 60/60/60 59/59/59 58/58/58
f 63/63/63 62/62/62 61/61/61
f 66/66/66 65/65/65 64/64/64
f 69/69/69 68/68/68 67/67/67
f 72/72/72 71/71/71 70/70/70
f 75/75/75 74/74/74 73/73/73
f 78/78/78 77/77/77 76/76/76
f 81/81/81 80/80/80 79/79/79
f 84/84/84 83/83/83 82/82/82
f 87/87/87 86/86/86 85/85/85
f 90/90/90 89/89/89 88/88/88
f 93/93/93 92/92/92 91/91/91
f 96/96/96 95/95/95 94/94/94
f 99/99/99 98/98/98 97/97/97
f 102/102/102 101/101/101 100/100/100
f 105/105/105 104/104/104 103/103/103
f 108/108/108 107/107/107 106/106/106
f 111/111/111 110/110/110 109/109/109
f 114/114/114 113/113/113 112/112/112
f 117/117/117 116/116/116 115/115/115
f 120/120/120 119/119/119 118/118/118
f 123/123/123 122/122/122 121/121/121
f 126/126/126 125/125/125 124/124/124
mtllib railroadtrack_top.mtl
g railroadtrack_top
usemtl railroadtrack_top
f 129/129/129 128/128/128 127/127/127
f 132/132/132 131/131/131 130/130/130
f 135/135/135 134/134/134 133/133/133
f 138/138/138 137/137/137 136/136/136
f 141/141/141 140/140/140 139/139/139
f 144/144/144 143/143/143 142/142/142
f 147/147/147 146/146/146 145/145/145
f 150/150/150 149/149/149 148/148/148
f 153/153/153 152/152/152 151/151/151
f 156/156/156 155/155/155 154/154/154
f 159/159/159 158/158/158 157/157/157
f 162/162/162 161/161/161 160/160/160
mtllib dub_concrete_wall_01_trim_clean.mtl
g dub_concrete_wall_01_trim_clean
usemtl dub_concrete_wall_01_trim_clean
f 165/165/165 164/164/164 163/163/163
f 168/168/168 167/167/167 166/166/166
f 171/171/171 170/170/170 169/169/169
f 174/174/174 173/173/173 172/172/172
f 177/177/177 176/176/176 175/175/175
f 180/180/180 179/179/179 178/178/178
f 183/183/183 182/182/182 181/181/181
f 186/186/186 185/185/185 184/184/184
f 189/189/189 188/188/188 187/187/187
f 192/192/192 191/191/191 190/190/190
f 195/195/195 194/194/194 193/193/193
f 198/198/198 197/197/197 196/196/196
f 201/201/201 200/200/200 199/199/199
f 204/204/204 203/203/203 202/202/202
f 207/207/207 206/206/206 205/205/205
f 210/210/210 209/209/209 208/208/208
f 213/213/213 212/212/212 211/211/211
f 216/216/216 215/215/215 214/214/214
