# Generated by Wraith - Game extraction tools
# Please credit DTZxPorter for using it!

v 9.467987 0.000676 4.042392
v 6.706756 6.666870 4.042392
v 10.308480 0.000676 4.960155
v 6.706756 6.666870 4.042392
v 7.301075 7.261192 4.960155
v 10.308480 0.000676 4.960155
v 6.706756 6.666870 4.042392
v 0.040559 9.428102 4.042392
v 7.301075 7.261192 4.960155
v 0.040559 9.428102 4.042392
v 0.040559 10.268598 4.960155
v 7.301075 7.261192 4.960155
v 0.040559 9.428102 4.042392
v -6.625635 6.666870 4.042392
v 0.040559 10.268598 4.960155
v -6.625635 6.666870 4.042392
v -7.219954 7.261192 4.960155
v 0.040559 10.268598 4.960155
v -6.625635 6.666870 4.042392
v -9.386867 0.000676 4.042392
v -7.219954 7.261192 4.960155
v -9.386867 0.000676 4.042392
v -10.227360 0.000676 4.960155
v -7.219954 7.261192 4.960155
v -9.386867 0.000676 4.042392
v -6.625638 -6.665524 4.042392
v -10.227360 0.000676 4.960155
v -6.625638 -6.665524 4.042392
v -7.219957 -7.259838 4.960155
v -10.227360 0.000676 4.960155
v -6.625638 -6.665524 4.042392
v 0.040559 -9.426750 4.042392
v -7.219957 -7.259838 4.960155
v 0.040559 -9.426750 4.042392
v 0.040559 -10.267246 4.960155
v -7.219957 -7.259838 4.960155
v 0.040559 -9.426750 4.042392
v 6.706758 -6.665524 4.042392
v 0.040559 -10.267246 4.960155
v 6.706758 -6.665524 4.042392
v 7.301080 -7.259838 4.960155
v 0.040559 -10.267246 4.960155
v 6.706758 -6.665524 4.042392
v 9.467987 0.000676 4.042392
v 7.301080 -7.259838 4.960155
v 9.467987 0.000676 4.042392
v 10.308480 0.000676 4.960155
v 7.301080 -7.259838 4.960155
v 12.841593 0.000676 4.042395
v 9.092255 9.052372 4.042395
v 12.841593 0.000676 0.000000
v 9.092255 9.052372 4.042395
v 9.092255 9.052372 0.000000
v 12.841593 0.000676 0.000000
v 9.092255 9.052372 4.042395
v 0.040559 12.801706 4.042395
v 9.092255 9.052372 0.000000
v 0.040559 12.801706 4.042395
v 0.040559 12.801706 0.000000
v 9.092255 9.052372 0.000000
v 0.040559 12.801706 4.042395
v -9.011135 9.052372 4.042395
v 0.040559 12.801706 0.000000
v -9.011135 9.052372 4.042395
v -9.011135 9.052372 0.000000
v 0.040559 12.801706 0.000000
v -9.011135 9.052372 4.042395
v -12.760472 0.000678 4.042395
v -9.011135 9.052372 0.000000
v -12.760472 0.000678 4.042395
v -12.760472 0.000678 0.000000
v -9.011135 9.052372 0.000000
v -12.760472 0.000678 4.042395
v -9.011137 -9.051013 4.042395
v -12.760472 0.000678 0.000000
v -9.011137 -9.051013 4.042395
v -9.011137 -9.051013 0.000000
v -12.760472 0.000678 0.000000
v -9.011137 -9.051013 4.042395
v 0.040559 -12.800352 4.042395
v -9.011137 -9.051013 0.000000
v 0.040559 -12.800352 4.042395
v 0.040559 -12.800352 0.000000
v -9.011137 -9.051013 0.000000
v 0.040559 -12.800352 4.042395
v 9.092258 -9.051013 4.042395
v 0.040559 -12.800352 0.000000
v 9.092258 -9.051013 4.042395
v 9.092258 -9.051013 0.000000
v 0.040559 -12.800352 0.000000
v 9.092258 -9.051013 4.042395
v 12.841593 0.000676 4.042395
v 9.092258 -9.051013 0.000000
v 12.841593 0.000676 4.042395
v 12.841593 0.000676 0.000000
v 9.092258 -9.051013 0.000000
v 9.092258 -9.051013 0.000000
v 0.040559 0.000676 0.000000
v 0.040559 -12.800352 0.000000
v 12.841593 0.000676 0.000000
v 0.040559 0.000676 0.000000
v 9.092258 -9.051013 0.000000
v 9.092255 9.052372 0.000000
v 0.040559 0.000676 0.000000
v 12.841593 0.000676 0.000000
v 0.040559 12.801706 0.000000
v 0.040559 0.000676 0.000000
v 9.092255 9.052372 0.000000
v -9.011135 9.052372 0.000000
v 0.040559 0.000676 0.000000
v 0.040559 12.801706 0.000000
v -12.760472 0.000678 0.000000
v 0.040559 0.000676 0.000000
v -9.011135 9.052372 0.000000
v -9.011137 -9.051013 0.000000
v 0.040559 0.000676 0.000000
v -12.760472 0.000678 0.000000
v 0.040559 -12.800352 0.000000
v 0.040559 0.000676 0.000000
v -9.011137 -9.051013 0.000000
v -7.219954 7.261192 4.960155
v -10.227360 0.000676 4.960155
v -9.011135 9.052372 4.042395
v -10.227360 0.000676 4.960155
v -12.760472 0.000678 4.042395
v -9.011135 9.052372 4.042395
v -10.227360 0.000676 4.960155
v -7.219957 -7.259838 4.960155
v -12.760472 0.000678 4.042395
v -7.219957 -7.259838 4.960155
v -9.011137 -9.051013 4.042395
v -12.760472 0.000678 4.042395
v -7.219957 -7.259838 4.960155
v 0.040559 -10.267246 4.960155
v -9.011137 -9.051013 4.042395
v 0.040559 -10.267246 4.960155
v 0.040559 -12.800352 4.042395
v -9.011137 -9.051013 4.042395
v 0.040559 -10.267246 4.960155
v 7.301080 -7.259838 4.960155
v 0.040559 -12.800352 4.042395
v 7.301080 -7.259838 4.960155
v 9.092258 -9.051013 4.042395
v 0.040559 -12.800352 4.042395
v 7.301080 -7.259838 4.960155
v 10.308480 0.000676 4.960155
v 9.092258 -9.051013 4.042395
v 10.308480 0.000676 4.960155
v 12.841593 0.000676 4.042395
v 9.092258 -9.051013 4.042395
v 10.308480 0.000676 4.960155
v 7.301075 7.261192 4.960155
v 12.841593 0.000676 4.042395
v 7.301075 7.261192 4.960155
v 9.092255 9.052372 4.042395
v 12.841593 0.000676 4.042395
v 7.301075 7.261192 4.960155
v 0.040559 10.268598 4.960155
v 9.092255 9.052372 4.042395
v 0.040559 10.268598 4.960155
v 0.040559 12.801706 4.042395
v 9.092255 9.052372 4.042395
v 0.040559 10.268598 4.960155
v -7.219954 7.261192 4.960155
v 0.040559 12.801706 4.042395
v -7.219954 7.261192 4.960155
v -9.011135 9.052372 4.042395
v 0.040559 12.801706 4.042395
v 0.040559 0.000676 5.427990
v 6.706758 -6.665524 4.042392
v 0.040559 -9.426750 4.042392
v 0.040559 0.000676 5.427990
v 9.467987 0.000676 4.042392
v 6.706758 -6.665524 4.042392
v 0.040559 0.000676 5.427990
v 6.706756 6.666870 4.042392
v 9.467987 0.000676 4.042392
v 0.040559 0.000676 5.427990
v 0.040559 9.428102 4.042392
v 6.706756 6.666870 4.042392
v 0.040559 0.000676 5.427990
v -6.625635 6.666870 4.042392
v 0.040559 9.428102 4.042392
v 0.040559 0.000676 5.427990
v -9.386867 0.000676 4.042392
v -6.625635 6.666870 4.042392
v 0.040559 0.000676 5.427990
v -6.625638 -6.665524 4.042392
v -9.386867 0.000676 4.042392
v 0.040559 0.000676 5.427990
v 0.040559 -9.426750 4.042392
v -6.625638 -6.665524 4.042392
vt 0.150269 0.500000
vt 0.252686 0.252930
vt 0.500000 0.833374
vt 0.252686 0.252930
vt 0.264160 0.735840
vt 0.500000 0.833374
vt 0.252686 0.252930
vt 0.500000 0.150391
vt 0.264160 0.735840
vt 0.500000 0.150391
vt 0.166626 0.500000
vt 0.264160 0.735840
vt 0.500000 0.150391
vt 0.747070 0.252930
vt 0.166626 0.500000
vt 0.747070 0.252930
vt 0.264160 0.264648
vt 0.166626 0.500000
vt 0.747070 0.252930
vt 0.849609 0.500000
vt 0.264160 0.264648
vt 0.849609 0.500000
vt 0.500000 0.166992
vt 0.264160 0.264648
vt 0.849609 0.500000
vt 0.747070 0.747314
vt 0.500000 0.166992
vt 0.747070 0.747314
vt 0.735352 0.264648
vt 0.500000 0.166992
vt 0.747070 0.747314
vt 0.500000 0.849731
vt 0.735352 0.264648
vt 0.500000 0.849731
vt 0.833008 0.500000
vt 0.735352 0.264648
vt 0.500000 0.849731
vt 0.252686 0.747314
vt 0.833008 0.500000
vt 0.252686 0.747314
vt 0.735352 0.735840
vt 0.833008 0.500000
vt 0.252686 0.747314
vt 0.150269 0.500000
vt 0.735352 0.735840
vt 0.150269 0.500000
vt 0.500000 0.833374
vt 0.735352 0.735840
vt 0.750000 1.000000
vt 0.875000 1.000000
vt 0.750000 0.000000
vt 0.875000 1.000000
vt 0.875000 0.000000
vt 0.750000 0.000000
vt 0.875000 1.000000
vt 1.000000 1.000000
vt 0.875000 0.000000
vt 1.000000 1.000000
vt 1.000000 0.000000
vt 0.875000 0.000000
vt 0.000000 1.000000
vt 0.125000 1.000000
vt 0.000000 0.000000
vt 0.125000 1.000000
vt 0.125000 0.000000
vt 0.000000 0.000000
vt 0.125000 1.000000
vt 0.250000 1.000000
vt 0.125000 0.000000
vt 0.250000 1.000000
vt 0.250000 0.000000
vt 0.125000 0.000000
vt 0.250000 1.000000
vt 0.375000 1.000000
vt 0.250000 0.000000
vt 0.375000 1.000000
vt 0.375000 0.000000
vt 0.250000 0.000000
vt 0.375000 1.000000
vt 0.500000 1.000000
vt 0.375000 0.000000
vt 0.500000 1.000000
vt 0.500000 0.000000
vt 0.375000 0.000000
vt 0.500000 1.000000
vt 0.625000 1.000000
vt 0.500000 0.000000
vt 0.625000 1.000000
vt 0.625000 0.000000
vt 0.500000 0.000000
vt 0.625000 1.000000
vt 0.750000 1.000000
vt 0.625000 0.000000
vt 0.750000 1.000000
vt 0.750000 0.000000
vt 0.625000 0.000000
vt 0.853516 0.853638
vt 0.500000 0.500000
vt 1.000000 0.500000
vt 0.500000 1.000000
vt 0.500000 0.500000
vt 0.853516 0.853638
vt 0.146362 0.853638
vt 0.500000 0.500000
vt 0.500000 1.000000
vt 0.000000 0.500000
vt 0.500000 0.500000
vt 0.146362 0.853638
vt 0.146362 0.146484
vt 0.500000 0.500000
vt 0.000000 0.500000
vt 0.500000 0.000000
vt 0.500000 0.500000
vt 0.146362 0.146484
vt 0.853516 0.146484
vt 0.500000 0.500000
vt 0.500000 0.000000
vt 1.000000 0.500000
vt 0.500000 0.500000
vt 0.853516 0.146484
vt 0.264160 0.264648
vt 0.500000 0.166992
vt 0.146362 0.146484
vt 0.500000 0.166992
vt 0.500000 0.000000
vt 0.146362 0.146484
vt 0.500000 0.166992
vt 0.735352 0.264648
vt 0.500000 0.000000
vt 0.735352 0.264648
vt 0.853516 0.146484
vt 0.500000 0.000000
vt 0.735352 0.264648
vt 0.833008 0.500000
vt 0.853516 0.146484
vt 0.833008 0.500000
vt 1.000000 0.500000
vt 0.853516 0.146484
vt 0.833008 0.500000
vt 0.735352 0.735840
vt 1.000000 0.500000
vt 0.735352 0.735840
vt 0.853516 0.853638
vt 1.000000 0.500000
vt 0.735352 0.735840
vt 0.500000 0.833374
vt 0.853516 0.853638
vt 0.500000 0.833374
vt 0.500000 1.000000
vt 0.853516 0.853638
vt 0.500000 0.833374
vt 0.264160 0.735840
vt 0.500000 1.000000
vt 0.264160 0.735840
vt 0.146362 0.853638
vt 0.500000 1.000000
vt 0.264160 0.735840
vt 0.166626 0.500000
vt 0.146362 0.853638
vt 0.166626 0.500000
vt 0.000000 0.500000
vt 0.146362 0.853638
vt 0.166626 0.500000
vt 0.264160 0.264648
vt 0.000000 0.500000
vt 0.264160 0.264648
vt 0.146362 0.146484
vt 0.000000 0.500000
vt 0.500000 0.500000
vt 0.252686 0.747314
vt 0.500000 0.849731
vt 0.500000 0.500000
vt 0.150269 0.500000
vt 0.252686 0.747314
vt 0.500000 0.500000
vt 0.252686 0.252930
vt 0.150269 0.500000
vt 0.500000 0.500000
vt 0.500000 0.150391
vt 0.252686 0.252930
vt 0.500000 0.500000
vt 0.747070 0.252930
vt 0.500000 0.150391
vt 0.500000 0.500000
vt 0.849609 0.500000
vt 0.747070 0.252930
vt 0.500000 0.500000
vt 0.747070 0.747314
vt 0.849609 0.500000
vt 0.500000 0.500000
vt 0.500000 0.849731
vt 0.747070 0.747314
vn -0.737769 0.000000 0.675147
vn -0.520548 -0.520548 0.675147
vn -0.737769 0.000000 0.675147
vn -0.520548 -0.520548 0.675147
vn -0.520548 -0.520548 0.675147
vn -0.737769 0.000000 0.675147
vn -0.520548 -0.520548 0.675147
vn 0.000000 -0.737769 0.675147
vn -0.520548 -0.520548 0.675147
vn 0.000000 -0.737769 0.675147
vn 0.000000 -0.737769 0.675147
vn -0.520548 -0.520548 0.675147
vn 0.000000 -0.737769 0.675147
vn 0.520548 -0.520548 0.675147
vn 0.000000 -0.737769 0.675147
vn 0.520548 -0.520548 0.675147
vn 0.520548 -0.520548 0.675147
vn 0.000000 -0.737769 0.675147
vn 0.520548 -0.520548 0.675147
vn 0.737769 0.000000 0.675147
vn 0.520548 -0.520548 0.675147
vn 0.737769 0.000000 0.675147
vn 0.737769 0.000000 0.675147
vn 0.520548 -0.520548 0.675147
vn 0.737769 0.000000 0.675147
vn 0.520548 0.520548 0.675147
vn 0.737769 0.000000 0.675147
vn 0.520548 0.520548 0.675147
vn 0.520548 0.520548 0.675147
vn 0.737769 0.000000 0.675147
vn 0.520548 0.520548 0.675147
vn 0.000000 0.737769 0.675147
vn 0.520548 0.520548 0.675147
vn 0.000000 0.737769 0.675147
vn 0.000000 0.737769 0.675147
vn 0.520548 0.520548 0.675147
vn 0.000000 0.737769 0.675147
vn -0.520548 0.520548 0.675147
vn 0.000000 0.737769 0.675147
vn -0.520548 0.520548 0.675147
vn -0.520548 0.520548 0.675147
vn 0.000000 0.737769 0.675147
vn -0.520548 0.520548 0.675147
vn -0.737769 0.000000 0.675147
vn -0.520548 0.520548 0.675147
vn -0.737769 0.000000 0.675147
vn -0.737769 0.000000 0.675147
vn -0.520548 0.520548 0.675147
vn 0.923679 0.383562 0.000000
vn 0.706458 0.706458 0.000000
vn 0.923679 0.383562 0.000000
vn 0.706458 0.706458 0.000000
vn 0.706458 0.706458 0.000000
vn 0.923679 0.383562 0.000000
vn 0.706458 0.706458 0.000000
vn 0.000000 1.000000 0.000000
vn 0.706458 0.706458 0.000000
vn 0.000000 1.000000 0.000000
vn 0.000000 1.000000 0.000000
vn 0.706458 0.706458 0.000000
vn 0.000000 1.000000 0.000000
vn -0.706458 0.706458 0.000000
vn 0.000000 1.000000 0.000000
vn -0.706458 0.706458 0.000000
vn -0.706458 0.706458 0.000000
vn 0.000000 1.000000 0.000000
vn -0.706458 0.706458 0.000000
vn -1.000000 0.000000 0.000000
vn -0.706458 0.706458 0.000000
vn -1.000000 0.000000 0.000000
vn -1.000000 0.000000 0.000000
vn -0.706458 0.706458 0.000000
vn -1.000000 0.000000 0.000000
vn -0.706458 -0.706458 0.000000
vn -1.000000 0.000000 0.000000
vn -0.706458 -0.706458 0.000000
vn -0.706458 -0.706458 0.000000
vn -1.000000 0.000000 0.000000
vn -0.706458 -0.706458 0.000000
vn 0.000000 -1.000000 0.000000
vn -0.706458 -0.706458 0.000000
vn 0.000000 -1.000000 0.000000
vn 0.000000 -1.000000 0.000000
vn -0.706458 -0.706458 0.000000
vn 0.000000 -1.000000 0.000000
vn 0.706458 -0.706458 0.000000
vn 0.000000 -1.000000 0.000000
vn 0.706458 -0.706458 0.000000
vn 0.706458 -0.706458 0.000000
vn 0.000000 -1.000000 0.000000
vn 0.706458 -0.706458 0.000000
vn 1.000000 0.000000 0.000000
vn 0.706458 -0.706458 0.000000
vn 1.000000 0.000000 0.000000
vn 1.000000 0.000000 0.000000
vn 0.706458 -0.706458 0.000000
vn 0.000000 0.000000 -1.000000
vn 0.000000 0.000000 -1.000000
vn 0.000000 0.000000 -1.000000
vn 0.000000 0.000000 -1.000000
vn 0.000000 0.000000 -1.000000
vn 0.000000 0.000000 -1.000000
vn 0.000000 0.000000 -1.000000
vn 0.000000 0.000000 -1.000000
vn 0.000000 0.000000 -1.000000
vn 0.000000 0.000000 -1.000000
vn 0.000000 0.000000 -1.000000
vn 0.000000 0.000000 -1.000000
vn 0.000000 0.000000 -1.000000
vn 0.000000 0.000000 -1.000000
vn 0.000000 0.000000 -1.000000
vn 0.000000 0.000000 -1.000000
vn 0.000000 0.000000 -1.000000
vn 0.000000 0.000000 -1.000000
vn 0.000000 0.000000 -1.000000
vn 0.000000 0.000000 -1.000000
vn 0.000000 0.000000 -1.000000
vn 0.000000 0.000000 -1.000000
vn 0.000000 0.000000 -1.000000
vn 0.000000 0.000000 -1.000000
vn -0.240705 0.240705 0.939335
vn -0.340509 0.000000 0.939335
vn -0.240705 0.240705 0.939335
vn -0.340509 0.000000 0.939335
vn -0.340509 0.000000 0.939335
vn -0.240705 0.240705 0.939335
vn -0.340509 0.000000 0.939335
vn -0.240705 -0.240705 0.939335
vn -0.340509 0.000000 0.939335
vn -0.240705 -0.240705 0.939335
vn -0.240705 -0.240705 0.939335
vn -0.340509 0.000000 0.939335
vn -0.240705 -0.240705 0.939335
vn 0.000000 -0.340509 0.939335
vn -0.240705 -0.240705 0.939335
vn 0.000000 -0.340509 0.939335
vn 0.000000 -0.340509 0.939335
vn -0.240705 -0.240705 0.939335
vn 0.000000 -0.340509 0.939335
vn 0.240705 -0.240705 0.939335
vn 0.000000 -0.340509 0.939335
vn 0.240705 -0.240705 0.939335
vn 0.240705 -0.240705 0.939335
vn 0.000000 -0.340509 0.939335
vn 0.240705 -0.240705 0.939335
vn 0.340509 0.000000 0.939335
vn 0.240705 -0.240705 0.939335
vn 0.340509 0.000000 0.939335
vn 0.340509 0.000000 0.939335
vn 0.240705 -0.240705 0.939335
vn 0.340509 0.000000 0.939335
vn 0.240705 0.240705 0.939335
vn 0.340509 0.000000 0.939335
vn 0.240705 0.240705 0.939335
vn 0.240705 0.240705 0.939335
vn 0.340509 0.000000 0.939335
vn 0.240705 0.240705 0.939335
vn 0.000000 0.340509 0.939335
vn 0.240705 0.240705 0.939335
vn 0.000000 0.340509 0.939335
vn 0.000000 0.340509 0.939335
vn 0.240705 0.240705 0.939335
vn 0.000000 0.340509 0.939335
vn -0.240705 0.240705 0.939335
vn 0.000000 0.340509 0.939335
vn -0.240705 0.240705 0.939335
vn -0.240705 0.240705 0.939335
vn 0.000000 0.340509 0.939335
vn 0.000000 0.000000 1.000000
vn 0.103718 -0.103718 0.990215
vn 0.000000 -0.144814 0.990215
vn 0.000000 0.000000 1.000000
vn 0.144814 0.000000 0.990215
vn 0.103718 -0.103718 0.990215
vn 0.000000 0.000000 1.000000
vn 0.103718 0.103718 0.990215
vn 0.144814 0.000000 0.990215
vn 0.000000 0.000000 1.000000
vn 0.000000 0.144814 0.990215
vn 0.103718 0.103718 0.990215
vn 0.000000 0.000000 1.000000
vn -0.103718 0.103718 0.990215
vn 0.000000 0.144814 0.990215
vn 0.000000 0.000000 1.000000
vn -0.144814 0.000000 0.990215
vn -0.103718 0.103718 0.990215
vn 0.000000 0.000000 1.000000
vn -0.103718 -0.103718 0.990215
vn -0.144814 0.000000 0.990215
vn 0.000000 0.000000 1.000000
vn 0.000000 -0.144814 0.990215
vn -0.103718 -0.103718 0.990215
mtllib metal_wall_brushed.mtl
g metal_wall_brushed
usemtl metal_wall_brushed
f 3/3/3 2/2/2 1/1/1
f 6/6/6 5/5/5 4/4/4
f 9/9/9 8/8/8 7/7/7
f 12/12/12 11/11/11 10/10/10
f 15/15/15 14/14/14 13/13/13
f 18/18/18 17/17/17 16/16/16
f 21/21/21 20/20/20 19/19/19
f 24/24/24 23/23/23 22/22/22
f 27/27/27 26/26/26 25/25/25
f 30/30/30 29/29/29 28/28/28
f 33/33/33 32/32/32 31/31/31
f 36/36/36 35/35/35 34/34/34
f 39/39/39 38/38/38 37/37/37
f 42/42/42 41/41/41 40/40/40
f 45/45/45 44/44/44 43/43/43
f 48/48/48 47/47/47 46/46/46
f 51/51/51 50/50/50 49/49/49
f 54/54/54 53/53/53 52/52/52
f 57/57/57 56/56/56 55/55/55
f 60/60/60 59/59/59 58/58/58
f 63/63/63 62/62/62 61/61/61
f 66/66/66 65/65/65 64/64/64
f 69/69/69 68/68/68 67/67/67
f 72/72/72 71/71/71 70/70/70
f 75/75/75 74/74/74 73/73/73
f 78/78/78 77/77/77 76/76/76
f 81/81/81 80/80/80 79/79/79
f 84/84/84 83/83/83 82/82/82
f 87/87/87 86/86/86 85/85/85
f 90/90/90 89/89/89 88/88/88
f 93/93/93 92/92/92 91/91/91
f 96/96/96 95/95/95 94/94/94
f 99/99/99 98/98/98 97/97/97
f 102/102/102 101/101/101 100/100/100
f 105/105/105 104/104/104 103/103/103
f 108/108/108 107/107/107 106/106/106
f 111/111/111 110/110/110 109/109/109
f 114/114/114 113/113/113 112/112/112
f 117/117/117 116/116/116 115/115/115
f 120/120/120 119/119/119 118/118/118
f 123/123/123 122/122/122 121/121/121
f 126/126/126 125/125/125 124/124/124
f 129/129/129 128/128/128 127/127/127
f 132/132/132 131/131/131 130/130/130
f 135/135/135 134/134/134 133/133/133
f 138/138/138 137/137/137 136/136/136
f 141/141/141 140/140/140 139/139/139
f 144/144/144 143/143/143 142/142/142
f 147/147/147 146/146/146 145/145/145
f 150/150/150 149/149/149 148/148/148
f 153/153/153 152/152/152 151/151/151
f 156/156/156 155/155/155 154/154/154
f 159/159/159 158/158/158 157/157/157
f 162/162/162 161/161/161 160/160/160
f 165/165/165 164/164/164 163/163/163
f 168/168/168 167/167/167 166/166/166
mtllib light_recessed_off.mtl
g light_recessed_off
usemtl light_recessed_off
f 171/171/171 170/170/170 169/169/169
f 174/174/174 173/173/173 172/172/172
f 177/177/177 176/176/176 175/175/175
f 180/180/180 179/179/179 178/178/178
f 183/183/183 182/182/182 181/181/181
f 186/186/186 185/185/185 184/184/184
f 189/189/189 188/188/188 187/187/187
f 192/192/192 191/191/191 190/190/190
