# Generated by Wraith - Game extraction tools
# Please credit DTZxPorter for using it!

v -1.882531 6.957177 -5.040576
v -1.882539 -2.630579 -8.155826
v 2.832816 5.230254 -3.918356
v -1.882539 -2.630579 -8.155826
v 2.832816 -2.222909 -6.340033
v 2.832816 5.230254 -3.918356
v -1.882531 6.957177 -5.040576
v 2.832816 5.230254 -3.918356
v -1.882531 6.957177 5.040576
v 2.832816 5.230254 -3.918356
v 2.832816 5.230254 3.918356
v -1.882531 6.957177 5.040576
v -1.882531 6.957177 5.040576
v 2.832816 5.230254 3.918356
v -1.882539 -2.630579 8.155823
v 2.832816 5.230254 3.918356
v 2.832816 -2.222909 6.340033
v -1.882539 -2.630579 8.155823
v -1.882539 -2.630579 8.155823
v 2.832816 -2.222909 6.340033
v -1.882539 -8.556129 0.000000
v 2.832816 -2.222909 6.340033
v 2.832824 -6.829209 0.000000
v -1.882539 -8.556129 0.000000
v -1.882539 -2.630579 -8.155826
v -1.882539 -8.556129 0.000000
v 2.832816 -2.222909 -6.340033
v -1.882539 -8.556129 0.000000
v 2.832824 -6.829209 0.000000
v 2.832816 -2.222909 -6.340033
v -1.882539 -2.630579 -8.155826
v -1.882531 6.957177 -5.040576
v -1.882539 -8.556129 0.000000
v -1.882539 -8.556129 0.000000
v -1.882531 6.957177 -5.040576
v -1.882539 -2.630579 8.155823
v -1.882539 -2.630579 8.155823
v -1.882531 6.957177 -5.040576
v -1.882531 6.957177 5.040576
v 2.832816 -2.222909 -6.340033
v 2.832824 -6.829209 0.000000
v 2.832816 5.230254 -3.918356
v 2.832816 5.230254 -3.918356
v 2.832824 -6.829209 0.000000
v 2.832816 5.230254 3.918356
v 2.832816 5.230254 3.918356
v 2.832824 -6.829209 0.000000
v 2.832816 -2.222909 6.340033
vt -0.004269 0.796875
vt -0.004269 0.994335
vt 0.108337 0.796875
vt -0.004269 0.994335
vt 0.108337 0.994335
vt 0.108337 0.796875
vt -0.004269 0.796875
vt 0.108337 0.796875
vt -0.004269 0.599365
vt 0.108337 0.796875
vt 0.108337 0.599365
vt -0.004269 0.599365
vt -0.004269 0.599365
vt 0.108337 0.599365
vt -0.004269 0.401855
vt 0.108337 0.599365
vt 0.108337 0.401855
vt -0.004269 0.401855
vt -0.004269 0.401855
vt 0.108337 0.401855
vt -0.004269 0.204590
vt 0.108337 0.401855
vt 0.108337 0.204590
vt -0.004269 0.204590
vt -0.004269 0.006836
vt -0.004269 0.204590
vt 0.108337 0.006836
vt -0.004269 0.204590
vt 0.108337 0.204590
vt 0.108337 0.006836
vt 0.779785 0.268066
vt 0.592773 0.329102
vt 0.895508 0.427246
vt 0.895508 0.427246
vt 0.592773 0.329102
vt 0.779785 0.586182
vt 0.779785 0.586182
vt 0.592773 0.329102
vt 0.592773 0.525391
vt 0.570801 0.728516
vt 0.478027 0.856201
vt 0.721191 0.777222
vt 0.721191 0.777222
vt 0.478027 0.856201
vt 0.721191 0.935242
vt 0.721191 0.935242
vt 0.478027 0.856201
vt 0.570801 0.984070
vn 0.320939 0.293542 -0.900196
vn 0.320939 0.293542 -0.900196
vn 0.320939 0.293542 -0.900196
vn 0.320939 0.293542 -0.900196
vn 0.320939 0.293542 -0.900196
vn 0.320939 0.293542 -0.900196
vn 0.344423 0.939335 0.000000
vn 0.344423 0.939335 0.000000
vn 0.344423 0.939335 0.000000
vn 0.344423 0.939335 0.000000
vn 0.344423 0.939335 0.000000
vn 0.344423 0.939335 0.000000
vn 0.320939 0.293542 0.900196
vn 0.320939 0.293542 0.900196
vn 0.320939 0.293542 0.900196
vn 0.320939 0.293542 0.900196
vn 0.320939 0.293542 0.900196
vn 0.320939 0.293542 0.900196
vn 0.283757 -0.774951 0.563601
vn 0.283757 -0.774951 0.563601
vn 0.283757 -0.774951 0.563601
vn 0.283757 -0.774951 0.563601
vn 0.283757 -0.774951 0.563601
vn 0.283757 -0.774951 0.563601
vn 0.283757 -0.774951 -0.563601
vn 0.283757 -0.774951 -0.563601
vn 0.283757 -0.774951 -0.563601
vn 0.283757 -0.774951 -0.563601
vn 0.283757 -0.774951 -0.563601
vn 0.283757 -0.774951 -0.563601
vn -1.000000 0.000000 0.000000
vn -1.000000 0.000000 0.000000
vn -1.000000 0.000000 0.000000
vn -1.000000 0.000000 0.000000
vn -1.000000 0.000000 0.000000
vn -1.000000 0.000000 0.000000
vn -1.000000 0.000000 0.000000
vn -1.000000 0.000000 0.000000
vn -1.000000 0.000000 0.000000
vn 1.000000 0.000000 0.000000
vn 1.000000 0.000000 0.000000
vn 1.000000 0.000000 0.000000
vn 1.000000 0.000000 0.000000
vn 1.000000 0.000000 0.000000
vn 1.000000 0.000000 0.000000
vn 1.000000 0.000000 0.000000
vn 1.000000 0.000000 0.000000
vn 1.000000 0.000000 0.000000
mtllib mtl_nt_2020_wall_meter_01_dest.mtl
g mtl_nt_2020_wall_meter_01_dest
usemtl mtl_nt_2020_wall_meter_01_dest
f 3/3/3 2/2/2 1/1/1
f 6/6/6 5/5/5 4/4/4
f 9/9/9 8/8/8 7/7/7
f 12/12/12 11/11/11 10/10/10
f 15/15/15 14/14/14 13/13/13
f 18/18/18 17/17/17 16/16/16
f 21/21/21 20/20/20 19/19/19
f 24/24/24 23/23/23 22/22/22
f 27/27/27 26/26/26 25/25/25
f 30/30/30 29/29/29 28/28/28
f 33/33/33 32/32/32 31/31/31
f 36/36/36 35/35/35 34/34/34
f 39/39/39 38/38/38 37/37/37
f 42/42/42 41/41/41 40/40/40
f 45/45/45 44/44/44 43/43/43
f 48/48/48 47/47/47 46/46/46
