# Generated by Wraith - Game extraction tools
# Please credit DTZxPorter for using it!

v 10.318260 2.430610 -1.235205
v 10.318260 -2.409081 -1.235205
v 12.342292 0.010765 -1.220513
v 10.318260 2.430610 1.262776
v 12.342292 0.010765 0.880925
v 10.318260 -2.409081 1.262776
v 10.318260 2.430610 -1.235205
v 10.318260 2.430610 1.262776
v 10.318260 -2.409081 -1.235205
v 10.318260 2.430610 1.262776
v 10.318260 -2.409081 1.262776
v 10.318260 -2.409081 -1.235205
v 10.320817 -2.343399 0.880925
v 10.320817 -2.343399 -0.875858
v -12.096880 -2.343399 0.880925
v 10.320817 -2.343399 -0.875858
v -12.096880 -2.343399 -0.875858
v -12.096880 -2.343399 0.880925
v 10.320817 2.370551 -0.875858
v -12.096880 2.370551 -0.875858
v 10.320817 -2.343399 -0.875858
v -12.096880 2.370551 -0.875858
v -12.096880 -2.343399 -0.875858
v 10.320817 -2.343399 -0.875858
v 10.320817 -2.343399 0.880925
v -12.096880 -2.343399 0.880925
v 10.320817 2.370551 0.880925
v -12.096880 -2.343399 0.880925
v -12.096880 2.370551 0.880925
v 10.320817 2.370551 0.880925
v 10.320817 2.370551 0.880925
v -12.096880 2.370551 0.880925
v 10.320817 2.370551 -0.875858
v -12.096880 2.370551 0.880925
v -12.096880 2.370551 -0.875858
v 10.320817 2.370551 -0.875858
v -12.096880 -2.343399 0.880925
v -12.096880 -2.343399 -0.875858
v -12.096880 2.370551 0.880925
v -12.096880 -2.343399 -0.875858
v -12.096880 2.370551 -0.875858
v -12.096880 2.370551 0.880925
v 10.320817 2.370551 0.880925
v 10.320817 2.370551 -0.875858
v 10.320817 -2.343399 0.880925
v 10.320817 2.370551 -0.875858
v 10.320817 -2.343399 -0.875858
v 10.320817 -2.343399 0.880925
v -12.049950 0.010765 -2.385291
v -9.593554 -2.302772 -2.385291
v -9.593554 2.324303 -2.385291
v -9.593554 -2.302772 -2.385291
v -6.981843 0.010757 -2.385291
v -9.593554 2.324303 -2.385291
v -6.981691 0.010749 -0.815757
v -6.981843 0.010757 -2.385291
v -9.593554 -2.302772 -0.815757
v -6.981843 0.010757 -2.385291
v -9.593554 -2.302772 -2.385291
v -9.593554 -2.302772 -0.815757
v -12.049950 0.010765 -0.815757
v -9.593554 -2.302772 -0.815757
v -9.593554 -2.302772 -2.385291
v -12.049950 0.010765 -2.385291
v -12.049950 0.010765 -0.815757
v -9.593554 -2.302772 -2.385291
v -9.593554 2.324303 -0.815757
v -12.049950 0.010765 -0.815757
v -12.049950 0.010765 -2.385291
v -9.593554 2.324303 -2.385291
v -9.593554 2.324303 -0.815757
v -12.049950 0.010765 -2.385291
v -9.593554 2.324303 -0.815757
v -9.593554 2.324303 -2.385291
v -6.981691 0.010749 -0.815757
v -9.593554 2.324303 -2.385291
v -6.981843 0.010757 -2.385291
v -6.981691 0.010749 -0.815757
v 10.318260 2.430610 1.262776
v 10.318260 2.430610 -1.235205
v 12.342292 0.010765 0.880925
v 10.318260 2.430610 -1.235205
v 12.342292 0.010765 -1.220513
v 12.342292 0.010765 0.880925
v 12.342292 0.010765 -1.220513
v 10.318260 -2.409081 -1.235205
v 12.342292 0.010765 0.880925
v 10.318260 -2.409081 -1.235205
v 10.318260 -2.409081 1.262776
v 12.342292 0.010765 0.880925
vt 0.323486 0.786133
vt 0.323486 0.886292
vt 0.281738 0.848267
vt -0.675293 0.786621
vt -0.717773 0.824219
vt -0.678223 0.885803
vt 0.320313 0.820801
vt 0.320313 0.850220
vt 0.320313 0.820801
vt 0.320313 0.850220
vt 0.320313 0.850220
vt 0.320313 0.820801
vt -0.951660 0.994324
vt -0.951660 0.925293
vt -0.261719 0.994324
vt -0.951660 0.925293
vt -0.261719 0.926575
vt -0.261719 0.994324
vt -0.671387 0.883057
vt -0.218994 0.883057
vt -0.671387 0.789429
vt -0.218994 0.883057
vt -0.218994 0.789429
vt -0.671387 0.789429
vt -0.671387 0.884216
vt -0.218994 0.884216
vt -0.671387 0.788208
vt -0.218994 0.884216
vt -0.218994 0.788208
vt -0.671387 0.788208
vt -0.951172 0.994324
vt -0.261719 0.994324
vt -0.951172 0.925293
vt -0.261719 0.994324
vt -0.261719 0.926575
vt -0.951172 0.925293
vt -0.373047 0.925659
vt -0.373047 0.994240
vt -0.261719 0.925659
vt -0.373047 0.994240
vt -0.261719 0.994240
vt -0.261719 0.925659
vt -0.373047 0.925659
vt -0.373047 0.994240
vt -0.261719 0.925659
vt -0.373047 0.994240
vt -0.261719 0.994240
vt -0.261719 0.925659
vt -0.893555 0.916199
vt -0.859375 0.878418
vt -0.928223 0.878418
vt -0.859375 0.878418
vt -0.893555 0.842285
vt -0.928223 0.878418
vt -0.835449 0.916199
vt -0.835449 0.890137
vt -0.738281 0.916199
vt -0.835449 0.890137
vt -0.738281 0.890137
vt -0.738281 0.916199
vt -0.624023 0.916199
vt -0.738281 0.916199
vt -0.738281 0.890137
vt -0.624023 0.890137
vt -0.624023 0.916199
vt -0.738281 0.890137
vt -0.737793 0.916199
vt -0.624023 0.916199
vt -0.624023 0.890137
vt -0.737793 0.890137
vt -0.737793 0.916199
vt -0.624023 0.890137
vt -0.737793 0.916199
vt -0.737793 0.890137
vt -0.845215 0.916199
vt -0.737793 0.890137
vt -0.845215 0.890137
vt -0.845215 0.916199
vt -0.953125 0.999254
vt -0.953125 0.915527
vt -0.996582 0.999246
vt -0.953125 0.915527
vt -0.996582 0.915527
vt -0.996582 0.999246
vt 0.013222 0.915527
vt 0.047333 0.912292
vt 0.023361 0.999244
vt 0.047333 0.912292
vt 0.046753 0.999234
vt 0.023361 0.999244
vn 0.007828 0.000000 -1.000000
vn 0.007828 0.000000 -1.000000
vn 0.007828 0.000000 -1.000000
vn 0.185910 0.000000 0.982387
vn 0.185910 0.000000 0.982387
vn 0.185910 0.000000 0.982387
vn -1.000000 0.000000 0.000000
vn -1.000000 0.000000 0.000000
vn -1.000000 0.000000 0.000000
vn -1.000000 0.000000 0.000000
vn -1.000000 0.000000 0.000000
vn -1.000000 0.000000 0.000000
vn 0.000000 -1.000000 0.000000
vn 0.000000 -1.000000 0.000000
vn 0.000000 -1.000000 0.000000
vn 0.000000 -1.000000 0.000000
vn 0.000000 -1.000000 0.000000
vn 0.000000 -1.000000 0.000000
vn 0.000000 0.000000 -1.000000
vn 0.000000 0.000000 -1.000000
vn 0.000000 0.000000 -1.000000
vn 0.000000 0.000000 -1.000000
vn 0.000000 0.000000 -1.000000
vn 0.000000 0.000000 -1.000000
vn 0.000000 0.000000 1.000000
vn 0.000000 0.000000 1.000000
vn 0.000000 0.000000 1.000000
vn 0.000000 0.000000 1.000000
vn 0.000000 0.000000 1.000000
vn 0.000000 0.000000 1.000000
vn 0.000000 1.000000 0.000000
vn 0.000000 1.000000 0.000000
vn 0.000000 1.000000 0.000000
vn 0.000000 1.000000 0.000000
vn 0.000000 1.000000 0.000000
vn 0.000000 1.000000 0.000000
vn -1.000000 0.000000 0.000000
vn -1.000000 0.000000 0.000000
vn -1.000000 0.000000 0.000000
vn -1.000000 0.000000 0.000000
vn -1.000000 0.000000 0.000000
vn -1.000000 0.000000 0.000000
vn 1.000000 0.000000 0.000000
vn 1.000000 0.000000 0.000000
vn 1.000000 0.000000 0.000000
vn 1.000000 0.000000 0.000000
vn 1.000000 0.000000 0.000000
vn 1.000000 0.000000 0.000000
vn 0.000000 0.000000 -1.000000
vn 0.000000 0.000000 -1.000000
vn 0.000000 0.000000 -1.000000
vn 0.000000 0.000000 -1.000000
vn 0.000000 0.000000 -1.000000
vn 0.000000 0.000000 -1.000000
vn 0.663405 -0.749511 0.000000
vn 0.663405 -0.749511 0.000000
vn 0.663405 -0.749511 0.000000
vn 0.663405 -0.749511 0.000000
vn 0.663405 -0.749511 0.000000
vn 0.663405 -0.749511 0.000000
vn -0.684932 -0.727984 0.000000
vn 0.663405 -0.749511 0.000000
vn 0.663405 -0.749511 0.000000
vn -0.684932 -0.727984 0.000000
vn -0.684932 -0.727984 0.000000
vn 0.663405 -0.749511 0.000000
vn -0.684932 0.727984 0.000000
vn -0.684932 -0.727984 0.000000
vn -0.684932 -0.727984 0.000000
vn -0.684932 0.727984 0.000000
vn -0.684932 0.727984 0.000000
vn -0.684932 -0.727984 0.000000
vn -0.684932 0.727984 0.000000
vn -0.684932 0.727984 0.000000
vn 0.663405 -0.749511 0.000000
vn -0.684932 0.727984 0.000000
vn 0.663405 -0.749511 0.000000
vn 0.663405 -0.749511 0.000000
vn 0.767123 0.641879 0.000000
vn 0.767123 0.641879 0.000000
vn 0.767123 0.641879 0.000000
vn 0.767123 0.641879 0.000000
vn 0.767123 0.641879 0.000000
vn 0.767123 0.641879 0.000000
vn 0.767123 -0.641879 0.000000
vn 0.767123 -0.641879 0.000000
vn 0.767123 -0.641879 0.000000
vn 0.767123 -0.641879 0.000000
vn 0.767123 -0.641879 0.000000
vn 0.767123 -0.641879 0.000000
mtllib mtl_t6_wpn_smg_pdw57_camo1.mtl
g mtl_t6_wpn_smg_pdw57_camo1
usemtl mtl_t6_wpn_smg_pdw57_camo1
f 3/3/3 2/2/2 1/1/1
f 6/6/6 5/5/5 4/4/4
f 9/9/9 8/8/8 7/7/7
f 12/12/12 11/11/11 10/10/10
f 15/15/15 14/14/14 13/13/13
f 18/18/18 17/17/17 16/16/16
f 21/21/21 20/20/20 19/19/19
f 24/24/24 23/23/23 22/22/22
f 27/27/27 26/26/26 25/25/25
f 30/30/30 29/29/29 28/28/28
f 33/33/33 32/32/32 31/31/31
f 36/36/36 35/35/35 34/34/34
f 39/39/39 38/38/38 37/37/37
f 42/42/42 41/41/41 40/40/40
f 45/45/45 44/44/44 43/43/43
f 48/48/48 47/47/47 46/46/46
f 51/51/51 50/50/50 49/49/49
f 54/54/54 53/53/53 52/52/52
f 57/57/57 56/56/56 55/55/55
f 60/60/60 59/59/59 58/58/58
f 63/63/63 62/62/62 61/61/61
f 66/66/66 65/65/65 64/64/64
f 69/69/69 68/68/68 67/67/67
f 72/72/72 71/71/71 70/70/70
f 75/75/75 74/74/74 73/73/73
f 78/78/78 77/77/77 76/76/76
f 81/81/81 80/80/80 79/79/79
f 84/84/84 83/83/83 82/82/82
f 87/87/87 86/86/86 85/85/85
f 90/90/90 89/89/89 88/88/88
