# Generated by Wraith - Game extraction tools
# Please credit DTZxPorter for using it!

v 8.104045 0.362563 -8.465859
v 0.165460 0.362563 -8.465859
v 8.104024 0.362570 7.896863
v 0.165460 0.362563 -8.465859
v 0.165460 0.362570 7.896863
v 8.104024 0.362570 7.896863
v 8.104045 0.362563 -8.465859
v 8.545337 1.379867 -8.872307
v 0.165460 0.362563 -8.465859
v 8.545337 1.379867 -8.872307
v -0.275841 1.379867 -8.872307
v 0.165460 0.362563 -8.465859
v 8.104024 0.362570 7.896863
v 8.545337 1.379873 8.303291
v 8.104045 0.362563 -8.465859
v 8.545337 1.379873 8.303291
v 8.545337 1.379867 -8.872307
v 8.104045 0.362563 -8.465859
v 0.165460 0.362563 -8.465859
v -0.275841 1.379867 -8.872307
v 0.165460 0.362570 7.896863
v -0.275841 1.379867 -8.872307
v -0.275852 1.379873 8.303291
v 0.165460 0.362570 7.896863
v 0.165460 0.362570 7.896863
v -0.275852 1.379873 8.303291
v 8.104024 0.362570 7.896863
v -0.275852 1.379873 8.303291
v 8.545337 1.379873 8.303291
v 8.104024 0.362570 7.896863
v -0.069075 1.218575 -8.875834
v -0.069075 1.218575 8.341468
v -1.696611 1.218575 -8.875834
v -0.069075 1.218575 8.341468
v -1.696611 1.218575 8.341468
v -1.696611 1.218575 -8.875834
v 0.744692 -0.190914 8.341468
v -0.069075 1.218575 8.341468
v -0.069075 1.218575 -8.875834
v 0.744692 -0.190914 -8.875834
v 0.744692 -0.190914 8.341468
v -0.069075 1.218575 -8.875834
v -0.069075 -1.600404 8.341468
v 0.744692 -0.190914 8.341468
v 0.744692 -0.190914 -8.875834
v -0.069075 -1.600404 -8.875834
v -0.069075 -1.600404 8.341468
v 0.744692 -0.190914 -8.875834
v -1.696611 -1.600404 8.341468
v -0.069075 -1.600404 8.341468
v -0.069075 -1.600404 -8.875834
v -1.696611 -1.600404 -8.875834
v -1.696611 -1.600404 8.341468
v -0.069075 -1.600404 -8.875834
v -2.510378 -0.190914 8.341468
v -1.696611 -1.600404 8.341468
v -1.696611 -1.600404 -8.875834
v -2.510378 -0.190914 -8.875834
v -2.510378 -0.190914 8.341468
v -1.696611 -1.600404 -8.875834
v -1.696611 1.218575 8.341468
v -2.510378 -0.190914 8.341468
v -2.510378 -0.190914 -8.875834
v -1.696611 1.218575 -8.875834
v -1.696611 1.218575 8.341468
v -2.510378 -0.190914 -8.875834
v -0.069075 -1.600404 -8.875834
v 0.744692 -0.190914 -8.875834
v -1.696611 -1.600404 -8.875834
v -1.696611 -1.600404 -8.875834
v 0.744692 -0.190914 -8.875834
v -2.510378 -0.190914 -8.875834
v -2.510378 -0.190914 -8.875834
v 0.744692 -0.190914 -8.875834
v -1.696611 1.218575 -8.875834
v -1.696611 1.218575 -8.875834
v 0.744692 -0.190914 -8.875834
v -0.069075 1.218575 -8.875834
v -0.069075 -1.600404 8.341468
v -1.696611 -1.600404 8.341468
v 0.744692 -0.190914 8.341468
v 0.744692 -0.190914 8.341468
v -1.696611 -1.600404 8.341468
v -0.069075 1.218575 8.341468
v -0.069075 1.218575 8.341468
v -1.696611 -1.600404 8.341468
v -1.696611 1.218575 8.341468
v -1.696611 1.218575 8.341468
v -1.696611 -1.600404 8.341468
v -2.510378 -0.190914 8.341468
vt 0.212280 0.579590
vt 0.187134 0.579590
vt 0.212280 0.632080
vt 0.187134 0.579590
vt 0.187134 0.632080
vt 0.212280 0.632080
vt 0.212280 0.579590
vt 0.214600 0.577393
vt 0.187134 0.579590
vt 0.214600 0.577393
vt 0.184692 0.577393
vt 0.187134 0.579590
vt 0.212280 0.632080
vt 0.214600 0.634277
vt 0.212280 0.579590
vt 0.214600 0.634277
vt 0.214600 0.577393
vt 0.212280 0.579590
vt 0.187134 0.579590
vt 0.184692 0.577393
vt 0.187134 0.632080
vt 0.184692 0.577393
vt 0.184692 0.634277
vt 0.187134 0.632080
vt 0.187134 0.632080
vt 0.184692 0.634277
vt 0.212280 0.632080
vt 0.184692 0.634277
vt 0.214600 0.634277
vt 0.212280 0.632080
vt 0.215210 0.642578
vt 0.214966 0.731201
vt 0.178833 0.642578
vt 0.214966 0.731201
vt 0.178589 0.731201
vt 0.178833 0.642578
vt 0.207764 0.731201
vt 0.214966 0.731201
vt 0.215210 0.642578
vt 0.208008 0.642578
vt 0.207764 0.731201
vt 0.215210 0.642578
vt 0.200439 0.731201
vt 0.207764 0.731201
vt 0.208008 0.642578
vt 0.200684 0.642578
vt 0.200439 0.731201
vt 0.208008 0.642578
vt 0.193115 0.731201
vt 0.200439 0.731201
vt 0.200684 0.642578
vt 0.193359 0.642578
vt 0.193115 0.731201
vt 0.200684 0.642578
vt 0.185913 0.731201
vt 0.193115 0.731201
vt 0.193359 0.642578
vt 0.186157 0.642578
vt 0.185913 0.731201
vt 0.193359 0.642578
vt 0.178589 0.731201
vt 0.185913 0.731201
vt 0.186157 0.642578
vt 0.178833 0.642578
vt 0.178589 0.731201
vt 0.186157 0.642578
vt 0.207153 0.765625
vt 0.210938 0.761841
vt 0.202026 0.764160
vt 0.202026 0.764160
vt 0.210938 0.761841
vt 0.200684 0.759033
vt 0.200684 0.759033
vt 0.210938 0.761841
vt 0.204468 0.755371
vt 0.204468 0.755371
vt 0.210938 0.761841
vt 0.209595 0.756714
vt 0.198608 0.744873
vt 0.193481 0.743652
vt 0.199951 0.750000
vt 0.199951 0.750000
vt 0.193481 0.743652
vt 0.196167 0.753784
vt 0.196167 0.753784
vt 0.193481 0.743652
vt 0.191162 0.752319
vt 0.191162 0.752319
vt 0.193481 0.743652
vt 0.189819 0.747314
vn 0.000000 -1.000000 0.000000
vn 0.000000 -1.000000 0.000000
vn 0.000000 -1.000000 0.000000
vn 0.000000 -1.000000 0.000000
vn 0.000000 -1.000000 0.000000
vn 0.000000 -1.000000 0.000000
vn 0.000000 -0.371820 -0.929550
vn 0.000000 -0.371820 -0.929550
vn 0.000000 -0.371820 -0.929550
vn 0.000000 -0.371820 -0.929550
vn 0.000000 -0.371820 -0.929550
vn 0.000000 -0.371820 -0.929550
vn 0.917808 -0.397260 0.000000
vn 0.917808 -0.397260 0.000000
vn 0.917808 -0.397260 0.000000
vn 0.917808 -0.397260 0.000000
vn 0.917808 -0.397260 0.000000
vn 0.917808 -0.397260 0.000000
vn -0.917808 -0.397260 0.000000
vn -0.917808 -0.397260 0.000000
vn -0.917808 -0.397260 0.000000
vn -0.917808 -0.397260 0.000000
vn -0.917808 -0.397260 0.000000
vn -0.917808 -0.397260 0.000000
vn 0.000000 -0.371820 0.929550
vn 0.000000 -0.371820 0.929550
vn 0.000000 -0.371820 0.929550
vn 0.000000 -0.371820 0.929550
vn 0.000000 -0.371820 0.929550
vn 0.000000 -0.371820 0.929550
vn 0.500978 0.866928 0.000000
vn 0.500978 0.866928 0.000000
vn -0.499022 0.866928 0.000000
vn 0.500978 0.866928 0.000000
vn -0.499022 0.866928 0.000000
vn -0.499022 0.866928 0.000000
vn 1.000000 0.000000 0.000000
vn 0.500978 0.866928 0.000000
vn 0.500978 0.866928 0.000000
vn 1.000000 0.000000 0.000000
vn 1.000000 0.000000 0.000000
vn 0.500978 0.866928 0.000000
vn 0.500978 -0.866928 0.000000
vn 1.000000 0.000000 0.000000
vn 1.000000 0.000000 0.000000
vn 0.500978 -0.866928 0.000000
vn 0.500978 -0.866928 0.000000
vn 1.000000 0.000000 0.000000
vn -0.499022 -0.866928 0.000000
vn 0.500978 -0.866928 0.000000
vn 0.500978 -0.866928 0.000000
vn -0.499022 -0.866928 0.000000
vn -0.499022 -0.866928 0.000000
vn 0.500978 -0.866928 0.000000
vn -1.000000 0.000000 0.000000
vn -0.499022 -0.866928 0.000000
vn -0.499022 -0.866928 0.000000
vn -1.000000 0.000000 0.000000
vn -1.000000 0.000000 0.000000
vn -0.499022 -0.866928 0.000000
vn -0.499022 0.866928 0.000000
vn -1.000000 0.000000 0.000000
vn -1.000000 0.000000 0.000000
vn -0.499022 0.866928 0.000000
vn -0.499022 0.866928 0.000000
vn -1.000000 0.000000 0.000000
vn 0.000000 0.000000 -1.000000
vn 0.000000 0.000000 -1.000000
vn 0.000000 0.000000 -1.000000
vn 0.000000 0.000000 -1.000000
vn 0.000000 0.000000 -1.000000
vn 0.000000 0.000000 -1.000000
vn 0.000000 0.000000 -1.000000
vn 0.000000 0.000000 -1.000000
vn 0.000000 0.000000 -1.000000
vn 0.000000 0.000000 -1.000000
vn 0.000000 0.000000 -1.000000
vn 0.000000 0.000000 -1.000000
vn 0.000000 0.000000 1.000000
vn 0.000000 0.000000 1.000000
vn 0.000000 0.000000 1.000000
vn 0.000000 0.000000 1.000000
vn 0.000000 0.000000 1.000000
vn 0.000000 0.000000 1.000000
vn 0.000000 0.000000 1.000000
vn 0.000000 0.000000 1.000000
vn 0.000000 0.000000 1.000000
vn 0.000000 0.000000 1.000000
vn 0.000000 0.000000 1.000000
vn 0.000000 0.000000 1.000000
mtllib mtl_p_rus_door_metal_white.mtl
g mtl_p_rus_door_metal_white
usemtl mtl_p_rus_door_metal_white
f 3/3/3 2/2/2 1/1/1
f 6/6/6 5/5/5 4/4/4
f 9/9/9 8/8/8 7/7/7
f 12/12/12 11/11/11 10/10/10
f 15/15/15 14/14/14 13/13/13
f 18/18/18 17/17/17 16/16/16
f 21/21/21 20/20/20 19/19/19
f 24/24/24 23/23/23 22/22/22
f 27/27/27 26/26/26 25/25/25
f 30/30/30 29/29/29 28/28/28
f 33/33/33 32/32/32 31/31/31
f 36/36/36 35/35/35 34/34/34
f 39/39/39 38/38/38 37/37/37
f 42/42/42 41/41/41 40/40/40
f 45/45/45 44/44/44 43/43/43
f 48/48/48 47/47/47 46/46/46
f 51/51/51 50/50/50 49/49/49
f 54/54/54 53/53/53 52/52/52
f 57/57/57 56/56/56 55/55/55
f 60/60/60 59/59/59 58/58/58
f 63/63/63 62/62/62 61/61/61
f 66/66/66 65/65/65 64/64/64
f 69/69/69 68/68/68 67/67/67
f 72/72/72 71/71/71 70/70/70
f 75/75/75 74/74/74 73/73/73
f 78/78/78 77/77/77 76/76/76
f 81/81/81 80/80/80 79/79/79
f 84/84/84 83/83/83 82/82/82
f 87/87/87 86/86/86 85/85/85
f 90/90/90 89/89/89 88/88/88
