# Generated by Wraith - Game extraction tools
# Please credit DTZxPorter for using it!

v -0.697720 0.796008 0.461858
v -0.697720 0.261071 0.461858
v -0.713676 0.796008 -0.525419
v -0.713676 0.796008 -0.525419
v -0.697720 0.261071 0.461858
v -0.713676 0.261071 -0.525419
v -0.697720 0.261071 0.461858
v -0.697720 0.796008 0.461858
v 0.001567 0.261071 0.309725
v 0.001567 0.261071 0.309725
v -0.697720 0.796008 0.461858
v 0.001567 0.796008 0.309722
v -0.713676 -0.808800 -0.525419
v -0.713676 -0.273865 -0.525419
v -0.697720 -0.808800 0.461858
v -0.697720 -0.808800 0.461858
v -0.713676 -0.273865 -0.525419
v -0.697720 -0.273865 0.461858
v -0.697720 -0.808800 0.461858
v -0.697720 -0.273865 0.461858
v 0.001567 -0.808800 0.309722
v 0.001567 -0.808800 0.309722
v -0.697720 -0.273865 0.461858
v 0.001567 -0.273865 0.309722
v -0.713676 -0.273865 -0.525419
v -0.713676 -0.808800 -0.525419
v 0.001567 -0.273865 -0.392788
v 0.001567 -0.273865 -0.392788
v -0.713676 -0.808800 -0.525419
v 0.001567 -0.808800 -0.392788
v 0.761248 0.261071 -0.475242
v 0.761248 -0.273865 -0.475242
v 0.658757 0.261071 0.509821
v 0.658757 0.261071 0.509821
v 0.761248 -0.273865 -0.475242
v 0.658757 -0.273865 0.509821
v 0.001567 -0.273865 -0.392788
v 0.001567 -0.273865 0.309722
v 0.001567 -0.808800 -0.392788
v 0.001567 -0.273865 0.309722
v 0.001567 -0.808800 0.309722
v 0.001567 -0.808800 -0.392788
v 0.001567 0.261071 -0.392788
v 0.001567 0.796008 -0.392788
v 0.001567 0.261071 0.309722
v 0.001567 0.261071 0.309722
v 0.001567 0.796008 -0.392788
v 0.001567 0.796008 0.309722
v -0.713676 0.796008 -0.525419
v -0.713676 0.261071 -0.525419
v 0.001567 0.796008 -0.392788
v 0.001567 0.796008 -0.392788
v -0.713676 0.261071 -0.525419
v 0.001567 0.261071 -0.392788
v 0.761248 -0.273865 -0.475242
v 0.761248 0.261071 -0.475242
v 0.001567 -0.273865 -0.392788
v 0.001567 -0.273865 -0.392788
v 0.761248 0.261071 -0.475242
v 0.001567 0.261071 -0.392788
v 0.001567 -0.273865 -0.392788
v 0.001567 0.261071 -0.392788
v 0.001567 -0.273865 0.309722
v 0.001567 -0.273865 0.309722
v 0.001567 0.261071 -0.392788
v 0.001567 0.261071 0.309722
v 0.001567 -0.273865 0.309722
v 0.001567 0.261071 0.309722
v 0.658757 -0.273865 0.509821
v 0.658757 -0.273865 0.509821
v 0.001567 0.261071 0.309722
v 0.658757 0.261071 0.509821
vt 0.692383 0.225098
vt 0.692383 0.860352
vt 1.299805 0.225098
vt 1.299805 0.225098
vt 0.692383 0.860352
vt 1.299805 0.860352
vt 0.692383 0.860352
vt 0.692383 0.225098
vt 0.242676 0.860352
vt 0.242676 0.860352
vt 0.692383 0.225098
vt 0.242676 0.225098
vt 1.299805 0.812744
vt 1.299805 0.214844
vt 0.692383 0.812744
vt 0.692383 0.812744
vt 1.299805 0.214844
vt 0.692383 0.214844
vt 0.692383 0.812744
vt 0.692383 0.214844
vt 0.242676 0.812744
vt 0.242676 0.812744
vt 0.692383 0.214844
vt 0.242676 0.214844
vt 1.299805 0.214844
vt 1.299805 0.812744
vt 1.748047 0.214844
vt 1.748047 0.214844
vt 1.299805 0.812744
vt 1.748047 0.812744
vt -0.290771 0.027344
vt -0.290771 0.973007
vt 0.336670 0.027344
vt 0.336670 0.027344
vt -0.290771 0.973007
vt 0.336670 0.973007
vt -0.251465 0.214844
vt 0.242676 0.214844
vt -0.251465 0.812744
vt 0.242676 0.214844
vt 0.242676 0.812744
vt -0.251465 0.812744
vt -0.251465 0.860352
vt -0.251465 0.225098
vt 0.242676 0.860352
vt 0.242676 0.860352
vt -0.251465 0.225098
vt 0.242676 0.225098
vt 1.299805 0.225098
vt 1.299805 0.860352
vt 1.748047 0.225098
vt 1.748047 0.225098
vt 1.299805 0.860352
vt 1.748047 0.860352
vt 1.708984 0.973007
vt 1.708984 0.027344
vt 1.261719 0.973007
vt 1.261719 0.973007
vt 1.708984 0.027344
vt 1.261719 0.027344
vt 1.261719 0.973007
vt 1.261719 0.027344
vt 0.791016 0.973007
vt 0.791016 0.973007
vt 1.261719 0.027344
vt 0.791016 0.027344
vt 0.791016 0.973007
vt 0.791016 0.027344
vt 0.336670 0.973007
vt 0.336670 0.973007
vt 0.791016 0.027344
vt 0.336670 0.027344
vn -0.620352 0.000000 0.782779
vn -0.620352 0.000000 0.782779
vn -0.645793 0.000000 -0.763209
vn -0.645793 0.000000 -0.763209
vn -0.620352 0.000000 0.782779
vn -0.645793 0.000000 -0.763209
vn -0.620352 0.000000 0.782779
vn -0.620352 0.000000 0.782779
vn 0.213307 0.000000 0.976517
vn 0.213307 0.000000 0.976517
vn -0.620352 0.000000 0.782779
vn 0.213307 0.000000 0.976517
vn -0.645793 0.000000 -0.763209
vn -0.645793 0.000000 -0.763209
vn -0.620352 0.000000 0.782779
vn -0.620352 0.000000 0.782779
vn -0.645793 0.000000 -0.763209
vn -0.620352 0.000000 0.782779
vn -0.620352 0.000000 0.782779
vn -0.620352 0.000000 0.782779
vn 0.213307 0.000000 0.976517
vn 0.213307 0.000000 0.976517
vn -0.620352 0.000000 0.782779
vn 0.213307 0.000000 0.976517
vn -0.645793 0.000000 -0.763209
vn -0.645793 0.000000 -0.763209
vn 0.181996 0.000000 -0.982387
vn 0.181996 0.000000 -0.982387
vn -0.645793 0.000000 -0.763209
vn 0.181996 0.000000 -0.982387
vn 0.706458 0.000000 -0.708415
vn 0.706458 0.000000 -0.708415
vn 0.553816 0.000000 0.833659
vn 0.553816 0.000000 0.833659
vn 0.706458 0.000000 -0.708415
vn 0.553816 0.000000 0.833659
vn -0.904110 0.000000 -0.426614
vn -0.923679 0.000000 0.385519
vn -1.000000 0.000000 0.000000
vn -0.923679 0.000000 0.385519
vn -1.000000 0.000000 0.000000
vn -1.000000 0.000000 0.000000
vn -0.904110 0.000000 -0.426614
vn -1.000000 0.000000 0.000000
vn -0.923679 0.000000 0.385519
vn -0.923679 0.000000 0.385519
vn -1.000000 0.000000 0.000000
vn -1.000000 0.000000 0.000000
vn -0.645793 0.000000 -0.763209
vn -0.645793 0.000000 -0.763209
vn 0.181996 0.000000 -0.982387
vn 0.181996 0.000000 -0.982387
vn -0.645793 0.000000 -0.763209
vn 0.181996 0.000000 -0.982387
vn 0.706458 0.000000 -0.708415
vn 0.706458 0.000000 -0.708415
vn -0.904110 0.000000 -0.426614
vn -0.904110 0.000000 -0.426614
vn 0.706458 0.000000 -0.708415
vn -0.904110 0.000000 -0.426614
vn -0.904110 0.000000 -0.426614
vn -0.904110 0.000000 -0.426614
vn -0.923679 0.000000 0.385519
vn -0.923679 0.000000 0.385519
vn -0.904110 0.000000 -0.426614
vn -0.923679 0.000000 0.385519
vn -0.923679 0.000000 0.385519
vn -0.923679 0.000000 0.385519
vn 0.553816 0.000000 0.833659
vn 0.553816 0.000000 0.833659
vn -0.923679 0.000000 0.385519
vn 0.553816 0.000000 0.833659
mtllib mtl_fx_bullet_chain_alpha.mtl
g mtl_fx_bullet_chain_alpha
usemtl mtl_fx_bullet_chain_alpha
f 3/3/3 2/2/2 1/1/1
f 6/6/6 5/5/5 4/4/4
f 9/9/9 8/8/8 7/7/7
f 12/12/12 11/11/11 10/10/10
f 15/15/15 14/14/14 13/13/13
f 18/18/18 17/17/17 16/16/16
f 21/21/21 20/20/20 19/19/19
f 24/24/24 23/23/23 22/22/22
f 27/27/27 26/26/26 25/25/25
f 30/30/30 29/29/29 28/28/28
f 33/33/33 32/32/32 31/31/31
f 36/36/36 35/35/35 34/34/34
f 39/39/39 38/38/38 37/37/37
f 42/42/42 41/41/41 40/40/40
f 45/45/45 44/44/44 43/43/43
f 48/48/48 47/47/47 46/46/46
f 51/51/51 50/50/50 49/49/49
f 54/54/54 53/53/53 52/52/52
f 57/57/57 56/56/56 55/55/55
f 60/60/60 59/59/59 58/58/58
f 63/63/63 62/62/62 61/61/61
f 66/66/66 65/65/65 64/64/64
f 69/69/69 68/68/68 67/67/67
f 72/72/72 71/71/71 70/70/70
