# Generated by Wraith - Game extraction tools
# Please credit DTZxPorter for using it!

v 3.888939 -2.633947 7.589068
v -11.366210 -5.170719 8.152552
v -9.667898 -5.814728 0.231691
v 3.307863 -4.197081 1.753842
v 3.888939 -2.633947 7.589068
v -9.667898 -5.814728 0.231691
v -9.667898 -5.814728 0.231691
v -9.667898 -0.042634 -2.273668
v 3.307863 -4.197081 1.753842
v -9.667898 -0.042634 -2.273668
v 3.307863 -0.006881 -0.452201
v 3.307863 -4.197081 1.753842
v 3.307863 -0.006881 -0.452201
v -9.667898 -0.042634 -2.273668
v -9.667898 5.814725 0.231691
v 3.307863 4.246095 1.753842
v 3.307863 -0.006881 -0.452201
v -9.667898 5.814725 0.231691
v 3.307863 4.246095 1.753842
v -9.667898 5.814725 0.231691
v -10.722716 6.671787 7.944795
v 3.888939 4.076098 9.306400
v 3.307863 4.246095 1.753842
v -10.722716 6.671787 7.944795
vt 0.718262 0.008301
vt 0.000000 0.008301
vt 0.000000 0.336426
vt 0.718262 0.336426
vt 0.718262 0.008301
vt 0.000000 0.336426
vt 0.000000 0.336426
vt 0.000000 0.499023
vt 0.718262 0.336426
vt 0.000000 0.499023
vt 0.718262 0.499023
vt 0.718262 0.336426
vt 0.718262 0.499023
vt 0.000000 0.499023
vt 0.000000 0.664063
vt 0.718262 0.664063
vt 0.718262 0.499023
vt 0.000000 0.664063
vt 0.718262 0.664063
vt 0.000000 0.664063
vt 0.000000 0.991753
vt 0.718262 0.991753
vt 0.718262 0.664063
vt 0.000000 0.991753
vn -0.136986 0.976517 -0.168297
vn -0.136986 0.976517 -0.168297
vn -0.174168 0.872798 0.454012
vn -0.174168 0.872798 0.454012
vn -0.136986 0.976517 -0.168297
vn -0.174168 0.872798 0.454012
vn -0.174168 0.872798 0.454012
vn -0.156556 0.001957 0.988258
vn -0.174168 0.872798 0.454012
vn -0.156556 0.001957 0.988258
vn -0.156556 0.001957 0.988258
vn -0.174168 0.872798 0.454012
vn -0.156556 0.001957 0.988258
vn -0.156556 0.001957 0.988258
vn -0.170254 -0.819961 0.545988
vn -0.170254 -0.819961 0.545988
vn -0.156556 0.001957 0.988258
vn -0.170254 -0.819961 0.545988
vn -0.170254 -0.819961 0.545988
vn -0.170254 -0.819961 0.545988
vn -0.152642 -0.988258 0.039139
vn -0.152642 -0.988258 0.039139
vn -0.170254 -0.819961 0.545988
vn -0.152642 -0.988258 0.039139
mtllib mtl_fx_decal_burnt_paper.mtl
g mtl_fx_decal_burnt_paper
usemtl mtl_fx_decal_burnt_paper
f 3/3/3 2/2/2 1/1/1
f 6/6/6 5/5/5 4/4/4
f 9/9/9 8/8/8 7/7/7
f 12/12/12 11/11/11 10/10/10
f 15/15/15 14/14/14 13/13/13
f 18/18/18 17/17/17 16/16/16
f 21/21/21 20/20/20 19/19/19
f 24/24/24 23/23/23 22/22/22
