# Generated by Wraith - Game extraction tools
# Please credit DTZxPorter for using it!

v -1.291813 -4.037076 -5.556562
v -0.747273 0.000000 -6.868287
v -1.783303 -0.000000 -8.618642
v -2.329713 -5.065906 -6.972628
v -1.291813 -4.037076 -5.556562
v -1.783303 -0.000000 -8.618642
v -1.290587 -6.532128 -2.122419
v -1.291813 -4.037076 -5.556562
v -2.329713 -5.065906 -6.972628
v -2.597950 -8.196816 -2.663304
v -1.290587 -6.532128 -2.122419
v -2.329713 -5.065906 -6.972628
v -2.597950 -8.196816 -2.663304
v -2.210290 -8.618636 0.000000
v -1.290587 -6.532128 -2.122419
v -2.210290 -8.618636 0.000000
v -1.172390 -6.868277 0.000000
v -1.290587 -6.532128 -2.122419
v -2.210290 -8.618636 0.000000
v -1.882539 -8.196808 2.663304
v -1.172390 -6.868277 0.000000
v -1.882539 -8.196808 2.663304
v -1.172395 -6.532123 2.122416
v -1.172390 -6.868277 0.000000
v -1.882539 -8.196808 2.663304
v -1.470663 -4.878100 6.690690
v -1.172395 -6.532123 2.122416
v -1.470663 -4.878100 6.690690
v -0.799480 -3.849268 5.274625
v -1.172395 -6.532123 2.122416
v -1.172393 0.000005 6.868285
v -0.799480 -3.849268 5.274625
v -1.470663 -4.878100 6.690690
v -2.137374 0.000005 8.618639
v -1.172393 0.000005 6.868285
v -1.470663 -4.878100 6.690690
v -1.172393 4.037076 5.556560
v -1.172393 0.000005 6.868285
v -2.137374 0.000005 8.618639
v -2.210290 5.065918 6.972622
v -1.172393 4.037076 5.556560
v -2.137374 0.000005 8.618639
v -1.297909 6.532128 2.122416
v -1.172393 4.037076 5.556560
v -2.210290 5.065918 6.972622
v -2.335807 8.196816 2.663307
v -1.297909 6.532128 2.122416
v -2.210290 5.065918 6.972622
v -2.335807 8.196816 2.663307
v -2.210293 8.618644 0.000000
v -1.297909 6.532128 2.122416
v -2.210293 8.618644 0.000000
v -1.172393 6.868287 0.000000
v -1.297909 6.532128 2.122416
v -2.210293 8.618644 0.000000
v -2.210290 7.767244 -2.663307
v -1.172393 6.868287 0.000000
v -2.210290 7.767244 -2.663307
v -1.172393 5.793293 -2.122416
v -1.172393 6.868287 0.000000
v -1.172393 4.037078 -5.556560
v -1.172393 5.793293 -2.122416
v -2.210290 7.767244 -2.663307
v -2.210293 5.065918 -6.972625
v -1.172393 4.037078 -5.556560
v -2.210290 7.767244 -2.663307
v -2.210293 5.065918 -6.972625
v -1.783303 -0.000000 -8.618642
v -1.172393 4.037078 -5.556560
v -1.783303 -0.000000 -8.618642
v -0.747273 0.000000 -6.868287
v -1.172393 4.037078 -5.556560
v 2.169762 4.823511 1.567251
v 2.169762 4.514250 -1.567254
v 2.169762 2.981094 4.103121
v 2.169762 2.981094 4.103121
v 2.169762 4.514250 -1.567254
v 2.215040 0.000005 5.071732
v 2.215040 0.000005 5.071732
v 2.169762 4.514250 -1.567254
v 2.325591 -2.793284 3.821186
v 2.169762 4.514250 -1.567254
v 1.978957 2.981094 -4.103121
v 2.325591 -2.793284 3.821186
v 1.978957 2.981094 -4.103121
v 2.169762 0.000005 -5.071737
v 2.325591 -2.793284 3.821186
v 2.169762 0.000005 -5.071737
v 1.926344 -2.981086 -4.103121
v 2.325591 -2.793284 3.821186
v 1.926344 -2.981086 -4.103121
v 1.926341 -4.823506 -1.567256
v 2.325591 -2.793284 3.821186
v 2.325591 -2.793284 3.821186
v 1.926341 -4.823506 -1.567256
v 2.281337 -4.823501 1.567251
v 2.169762 0.000005 -5.071737
v 2.070496 0.000003 -6.685087
v 1.926344 -2.981086 -4.103121
v 2.070496 0.000003 -6.685087
v 1.827073 -3.929395 -5.408351
v 1.926344 -2.981086 -4.103121
v 1.926344 -2.981086 -4.103121
v 1.827073 -3.929395 -5.408351
v 1.926341 -4.823506 -1.567256
v 1.827073 -3.929395 -5.408351
v 1.827075 -6.357894 -2.065805
v 1.926341 -4.823506 -1.567256
v 1.827075 -6.357894 -2.065805
v 2.182071 -6.357892 2.065805
v 1.926341 -4.823506 -1.567256
v 2.182071 -6.357892 2.065805
v 2.281337 -4.823501 1.567251
v 1.926341 -4.823506 -1.567256
v 2.281337 -4.823501 1.567251
v 2.182071 -6.357892 2.065805
v 2.226325 -3.741587 5.126414
v 2.325591 -2.793284 3.821186
v 2.281337 -4.823501 1.567251
v 2.226325 -3.741587 5.126414
v 2.070496 0.000003 -6.685087
v -0.747273 0.000000 -6.868287
v 1.827073 -3.929395 -5.408351
v -0.747273 0.000000 -6.868287
v -1.291813 -4.037076 -5.556562
v 1.827073 -3.929395 -5.408351
v 1.827073 -3.929395 -5.408351
v -1.291813 -4.037076 -5.556562
v 1.827075 -6.357894 -2.065805
v -1.291813 -4.037076 -5.556562
v -1.290587 -6.532128 -2.122419
v 1.827075 -6.357894 -2.065805
v -1.290587 -6.532128 -2.122419
v -1.172390 -6.868277 0.000000
v 1.827075 -6.357894 -2.065805
v 1.827075 -6.357894 -2.065805
v -1.172390 -6.868277 0.000000
v 2.182071 -6.357892 2.065805
v 2.182071 -6.357892 2.065805
v -1.172390 -6.868277 0.000000
v -1.172395 -6.532123 2.122416
v 2.182071 -6.357892 2.065805
v -1.172395 -6.532123 2.122416
v -0.799480 -3.849268 5.274625
v 2.226325 -3.741587 5.126414
v 2.182071 -6.357892 2.065805
v -0.799480 -3.849268 5.274625
v 2.226325 -3.741587 5.126414
v -0.799480 -3.849268 5.274625
v 2.115774 0.000005 6.685087
v 2.226325 -3.741587 5.126414
v 2.115774 0.000005 6.685087
v 2.215040 0.000005 5.071732
v 2.325591 -2.793284 3.821186
v 2.226325 -3.741587 5.126414
v 2.215040 0.000005 5.071732
v -0.799480 -3.849268 5.274625
v -1.172393 0.000005 6.868285
v 2.115774 0.000005 6.685087
v 2.115774 0.000005 6.685087
v -1.172393 0.000005 6.868285
v 2.070496 3.929398 5.408349
v 2.115774 0.000005 6.685087
v 2.070496 3.929398 5.408349
v 2.169762 2.981094 4.103121
v 2.215040 0.000005 5.071732
v 2.115774 0.000005 6.685087
v 2.169762 2.981094 4.103121
v -1.172393 0.000005 6.868285
v -1.172393 4.037076 5.556560
v 2.070496 3.929398 5.408349
v 2.070496 3.929398 5.408349
v -1.172393 4.037076 5.556560
v 2.070496 6.357899 2.065805
v 2.070496 3.929398 5.408349
v 2.070496 6.357899 2.065805
v 2.169762 4.823511 1.567251
v 2.169762 2.981094 4.103121
v 2.070496 3.929398 5.408349
v 2.169762 4.823511 1.567251
v -1.172393 4.037076 5.556560
v -1.297909 6.532128 2.122416
v 2.070496 6.357899 2.065805
v 2.070496 6.357899 2.065805
v -1.297909 6.532128 2.122416
v -1.172393 6.868287 0.000000
v 2.070496 6.048639 -2.065805
v 2.070496 6.357899 2.065805
v -1.172393 6.868287 0.000000
v 2.169762 4.823511 1.567251
v 2.070496 6.357899 2.065805
v 2.070496 6.048639 -2.065805
v 2.169762 4.514250 -1.567254
v 2.169762 4.823511 1.567251
v 2.070496 6.048639 -2.065805
v 2.169762 4.514250 -1.567254
v 2.070496 6.048639 -2.065805
v 1.978957 2.981094 -4.103121
v 2.070496 6.048639 -2.065805
v 1.879689 3.929395 -5.408351
v 1.978957 2.981094 -4.103121
v 1.978957 2.981094 -4.103121
v 1.879689 3.929395 -5.408351
v 2.070496 0.000003 -6.685087
v 2.169762 0.000005 -5.071737
v 1.978957 2.981094 -4.103121
v 2.070496 0.000003 -6.685087
v 2.070496 0.000003 -6.685087
v 1.879689 3.929395 -5.408351
v -0.747273 0.000000 -6.868287
v 1.879689 3.929395 -5.408351
v -1.172393 4.037078 -5.556560
v -0.747273 0.000000 -6.868287
v -1.172393 5.793293 -2.122416
v -1.172393 4.037078 -5.556560
v 1.879689 3.929395 -5.408351
v 2.070496 6.048639 -2.065805
v -1.172393 5.793293 -2.122416
v 1.879689 3.929395 -5.408351
v -1.172393 5.793293 -2.122416
v 2.070496 6.048639 -2.065805
v -1.172393 6.868287 0.000000
v -2.137374 0.000005 8.618639
v -1.470663 -4.878100 6.690690
v -2.210290 5.065918 6.972622
v -2.210290 5.065918 6.972622
v -1.470663 -4.878100 6.690690
v -2.335807 8.196816 2.663307
v -1.470663 -4.878100 6.690690
v -1.882539 -8.196808 2.663304
v -2.335807 8.196816 2.663307
v -1.882539 -8.196808 2.663304
v -2.210290 -8.618636 0.000000
v -2.335807 8.196816 2.663307
v -2.210290 -8.618636 0.000000
v -2.597950 -8.196816 -2.663304
v -2.335807 8.196816 2.663307
v -2.597950 -8.196816 -2.663304
v -2.329713 -5.065906 -6.972628
v -2.335807 8.196816 2.663307
v -2.329713 -5.065906 -6.972628
v -1.783303 -0.000000 -8.618642
v -2.335807 8.196816 2.663307
v -1.783303 -0.000000 -8.618642
v -2.210293 5.065918 -6.972625
v -2.335807 8.196816 2.663307
v -2.335807 8.196816 2.663307
v -2.210293 5.065918 -6.972625
v -2.210290 7.767244 -2.663307
v -2.210293 8.618644 0.000000
v -2.335807 8.196816 2.663307
v -2.210290 7.767244 -2.663307
vt 0.051453 0.103516
vt 0.051453 0.004395
vt 0.004021 0.004395
vt 0.004021 0.103516
vt 0.051453 0.103516
vt 0.004021 0.004395
vt 0.051453 0.206055
vt 0.051453 0.103516
vt 0.004021 0.103516
vt 0.004021 0.206055
vt 0.051453 0.206055
vt 0.004021 0.103516
vt 0.004021 0.206055
vt 0.004021 0.255859
vt 0.051453 0.206055
vt 0.004021 0.255859
vt 0.051453 0.255859
vt 0.051453 0.206055
vt 0.004021 0.255859
vt 0.004021 0.305664
vt 0.051453 0.255859
vt 0.004021 0.305664
vt 0.051453 0.305664
vt 0.051453 0.255859
vt 0.004021 0.305664
vt 0.004021 0.404785
vt 0.051453 0.305664
vt 0.004021 0.404785
vt 0.051453 0.404785
vt 0.051453 0.305664
vt 0.051453 0.503906
vt 0.051453 0.404785
vt 0.004021 0.404785
vt 0.004021 0.503906
vt 0.051453 0.503906
vt 0.004021 0.404785
vt 0.051453 0.602539
vt 0.051453 0.503906
vt 0.004021 0.503906
vt 0.004021 0.602539
vt 0.051453 0.602539
vt 0.004021 0.503906
vt 0.051453 0.700439
vt 0.051453 0.602539
vt 0.004021 0.602539
vt 0.004021 0.700439
vt 0.051453 0.700439
vt 0.004021 0.602539
vt 0.004021 0.700439
vt 0.004021 0.749512
vt 0.051453 0.700439
vt 0.004021 0.749512
vt 0.051453 0.749512
vt 0.051453 0.700439
vt 0.004021 0.749512
vt 0.004021 0.799316
vt 0.051453 0.749512
vt 0.004021 0.799316
vt 0.051453 0.799316
vt 0.051453 0.749512
vt 0.051453 0.901489
vt 0.051453 0.799316
vt 0.004021 0.799316
vt 0.004021 0.901489
vt 0.051453 0.901489
vt 0.004021 0.799316
vt 0.004021 0.901489
vt 0.004021 0.994392
vt 0.051453 0.901489
vt 0.004021 0.994392
vt 0.051453 0.994392
vt 0.051453 0.901489
vt 0.729492 0.900330
vt 0.729492 0.815918
vt 0.679688 0.968628
vt 0.679688 0.968628
vt 0.729492 0.815918
vt 0.599609 0.994698
vt 0.599609 0.994698
vt 0.729492 0.815918
vt 0.519043 0.968628
vt 0.729492 0.815918
vt 0.679688 0.747803
vt 0.519043 0.968628
vt 0.679688 0.747803
vt 0.599609 0.721680
vt 0.519043 0.968628
vt 0.599609 0.721680
vt 0.519043 0.747803
vt 0.519043 0.968628
vt 0.519043 0.747803
vt 0.469727 0.815918
vt 0.519043 0.968628
vt 0.519043 0.968628
vt 0.469727 0.815918
vt 0.469727 0.900330
vt 0.180664 0.004395
vt 0.128174 0.004395
vt 0.180664 0.103516
vt 0.128174 0.004395
vt 0.128174 0.103516
vt 0.180664 0.103516
vt 0.180664 0.103516
vt 0.128174 0.103516
vt 0.180664 0.206055
vt 0.128174 0.103516
vt 0.128174 0.206055
vt 0.180664 0.206055
vt 0.128174 0.206055
vt 0.128174 0.305664
vt 0.180664 0.206055
vt 0.128174 0.305664
vt 0.180664 0.305664
vt 0.180664 0.206055
vt 0.180664 0.305664
vt 0.128174 0.305664
vt 0.128174 0.404785
vt 0.180664 0.404785
vt 0.180664 0.305664
vt 0.128174 0.404785
vt 0.128174 0.004395
vt 0.051453 0.004395
vt 0.128174 0.103516
vt 0.051453 0.004395
vt 0.051453 0.103516
vt 0.128174 0.103516
vt 0.128174 0.103516
vt 0.051453 0.103516
vt 0.128174 0.206055
vt 0.051453 0.103516
vt 0.051453 0.206055
vt 0.128174 0.206055
vt 0.051453 0.206055
vt 0.051453 0.255859
vt 0.128174 0.206055
vt 0.128174 0.206055
vt 0.051453 0.255859
vt 0.128174 0.305664
vt 0.128174 0.305664
vt 0.051453 0.255859
vt 0.051453 0.305664
vt 0.128174 0.305664
vt 0.051453 0.305664
vt 0.051453 0.404785
vt 0.128174 0.404785
vt 0.128174 0.305664
vt 0.051453 0.404785
vt 0.128174 0.404785
vt 0.051453 0.404785
vt 0.128174 0.503906
vt 0.128174 0.404785
vt 0.128174 0.503906
vt 0.180664 0.503906
vt 0.180664 0.404785
vt 0.128174 0.404785
vt 0.180664 0.503906
vt 0.051453 0.404785
vt 0.051453 0.503906
vt 0.128174 0.503906
vt 0.128174 0.503906
vt 0.051453 0.503906
vt 0.128174 0.602539
vt 0.128174 0.503906
vt 0.128174 0.602539
vt 0.180664 0.602539
vt 0.180664 0.503906
vt 0.128174 0.503906
vt 0.180664 0.602539
vt 0.051453 0.503906
vt 0.051453 0.602539
vt 0.128174 0.602539
vt 0.128174 0.602539
vt 0.051453 0.602539
vt 0.128174 0.700439
vt 0.128174 0.602539
vt 0.128174 0.700439
vt 0.180664 0.700439
vt 0.180664 0.602539
vt 0.128174 0.602539
vt 0.180664 0.700439
vt 0.051453 0.602539
vt 0.051453 0.700439
vt 0.128174 0.700439
vt 0.128174 0.700439
vt 0.051453 0.700439
vt 0.051453 0.749512
vt 0.128174 0.799316
vt 0.128174 0.700439
vt 0.051453 0.749512
vt 0.180664 0.700439
vt 0.128174 0.700439
vt 0.128174 0.799316
vt 0.180664 0.799316
vt 0.180664 0.700439
vt 0.128174 0.799316
vt 0.180664 0.799316
vt 0.128174 0.799316
vt 0.180664 0.901489
vt 0.128174 0.799316
vt 0.128174 0.901489
vt 0.180664 0.901489
vt 0.180664 0.901489
vt 0.128174 0.901489
vt 0.128174 0.994392
vt 0.180664 0.994392
vt 0.180664 0.901489
vt 0.128174 0.994392
vt 0.128174 0.994392
vt 0.128174 0.901489
vt 0.051453 0.994392
vt 0.128174 0.901489
vt 0.051453 0.901489
vt 0.051453 0.994392
vt 0.051453 0.799316
vt 0.051453 0.901489
vt 0.128174 0.901489
vt 0.128174 0.799316
vt 0.051453 0.799316
vt 0.128174 0.901489
vt 0.051453 0.799316
vt 0.128174 0.799316
vt 0.051453 0.749512
vt 0.729492 0.602295
vt 0.632324 0.570801
vt 0.826172 0.570801
vt 0.826172 0.570801
vt 0.632324 0.570801
vt 0.886230 0.488281
vt 0.632324 0.570801
vt 0.572266 0.488281
vt 0.886230 0.488281
vt 0.572266 0.488281
vt 0.563965 0.437500
vt 0.886230 0.488281
vt 0.563965 0.437500
vt 0.572266 0.386230
vt 0.886230 0.488281
vt 0.572266 0.386230
vt 0.632324 0.303711
vt 0.886230 0.488281
vt 0.632324 0.303711
vt 0.729492 0.271973
vt 0.886230 0.488281
vt 0.729492 0.271973
vt 0.826172 0.303711
vt 0.886230 0.488281
vt 0.886230 0.488281
vt 0.826172 0.303711
vt 0.886230 0.386230
vt 0.894531 0.437500
vt 0.886230 0.488281
vt 0.886230 0.386230
vn 0.839530 -0.369863 -0.399217
vn 0.872798 -0.009785 -0.489237
vn 0.872798 -0.009785 -0.489237
vn 0.839530 -0.369863 -0.399217
vn 0.839530 -0.369863 -0.399217
vn 0.872798 -0.009785 -0.489237
vn 0.823875 -0.510763 -0.246575
vn 0.839530 -0.369863 -0.399217
vn 0.839530 -0.369863 -0.399217
vn 0.823875 -0.510763 -0.246575
vn 0.823875 -0.510763 -0.246575
vn 0.839530 -0.369863 -0.399217
vn 0.823875 -0.510763 -0.246575
vn 0.863014 -0.499022 -0.082192
vn 0.823875 -0.510763 -0.246575
vn 0.863014 -0.499022 -0.082192
vn 0.863014 -0.499022 -0.082192
vn 0.823875 -0.510763 -0.246575
vn 0.863014 -0.499022 -0.082192
vn 0.911937 -0.399217 0.097847
vn 0.863014 -0.499022 -0.082192
vn 0.911937 -0.399217 0.097847
vn 0.911937 -0.399217 0.097847
vn 0.863014 -0.499022 -0.082192
vn 0.911937 -0.399217 0.097847
vn 0.925636 -0.209393 0.317025
vn 0.911937 -0.399217 0.097847
vn 0.925636 -0.209393 0.317025
vn 0.925636 -0.209393 0.317025
vn 0.911937 -0.399217 0.097847
vn 0.882583 0.046967 0.467710
vn 0.925636 -0.209393 0.317025
vn 0.925636 -0.209393 0.317025
vn 0.882583 0.046967 0.467710
vn 0.882583 0.046967 0.467710
vn 0.925636 -0.209393 0.317025
vn 0.864971 0.307241 0.395303
vn 0.882583 0.046967 0.467710
vn 0.882583 0.046967 0.467710
vn 0.864971 0.307241 0.395303
vn 0.864971 0.307241 0.395303
vn 0.882583 0.046967 0.467710
vn 0.855186 0.473581 0.209393
vn 0.864971 0.307241 0.395303
vn 0.864971 0.307241 0.395303
vn 0.855186 0.473581 0.209393
vn 0.855186 0.473581 0.209393
vn 0.864971 0.307241 0.395303
vn 0.855186 0.473581 0.209393
vn 0.872798 0.485323 -0.031311
vn 0.855186 0.473581 0.209393
vn 0.872798 0.485323 -0.031311
vn 0.872798 0.485323 -0.031311
vn 0.855186 0.473581 0.209393
vn 0.872798 0.485323 -0.031311
vn 0.866928 0.446184 -0.217221
vn 0.872798 0.485323 -0.031311
vn 0.866928 0.446184 -0.217221
vn 0.866928 0.446184 -0.217221
vn 0.872798 0.485323 -0.031311
vn 0.864971 0.338552 -0.367906
vn 0.866928 0.446184 -0.217221
vn 0.866928 0.446184 -0.217221
vn 0.864971 0.338552 -0.367906
vn 0.864971 0.338552 -0.367906
vn 0.866928 0.446184 -0.217221
vn 0.864971 0.338552 -0.367906
vn 0.872798 -0.009785 -0.489237
vn 0.864971 0.338552 -0.367906
vn 0.872798 -0.009785 -0.489237
vn 0.872798 -0.009785 -0.489237
vn 0.864971 0.338552 -0.367906
vn 1.000000 -0.001957 -0.025440
vn 1.000000 -0.001957 -0.025440
vn 1.000000 -0.001957 -0.025440
vn 1.000000 -0.001957 -0.025440
vn 1.000000 -0.001957 -0.025440
vn 1.000000 -0.001957 -0.025440
vn 1.000000 -0.001957 -0.025440
vn 1.000000 -0.001957 -0.025440
vn 1.000000 -0.001957 -0.025440
vn 1.000000 -0.001957 -0.025440
vn 1.000000 -0.001957 -0.025440
vn 1.000000 -0.001957 -0.025440
vn 1.000000 -0.001957 -0.025440
vn 1.000000 -0.001957 -0.025440
vn 1.000000 -0.001957 -0.025440
vn 1.000000 -0.001957 -0.025440
vn 1.000000 -0.001957 -0.025440
vn 1.000000 -0.001957 -0.025440
vn 1.000000 -0.001957 -0.025440
vn 1.000000 -0.001957 -0.025440
vn 1.000000 -0.001957 -0.025440
vn 1.000000 -0.001957 -0.025440
vn 1.000000 -0.001957 -0.025440
vn 1.000000 -0.001957 -0.025440
vn 1.000000 -0.005871 -0.043053
vn 0.727984 -0.005871 -0.684932
vn 0.996086 -0.068493 -0.039139
vn 0.727984 -0.005871 -0.684932
vn 0.718200 -0.428571 -0.549902
vn 0.996086 -0.068493 -0.039139
vn 0.996086 -0.068493 -0.039139
vn 0.718200 -0.428571 -0.549902
vn 0.996086 -0.058708 -0.068493
vn 0.718200 -0.428571 -0.549902
vn 0.724070 -0.645793 -0.244618
vn 0.996086 -0.058708 -0.068493
vn 0.724070 -0.645793 -0.244618
vn 0.739726 -0.643836 0.197652
vn 0.996086 -0.058708 -0.068493
vn 0.739726 -0.643836 0.197652
vn 0.998043 -0.060665 -0.033268
vn 0.996086 -0.058708 -0.068493
vn 0.998043 -0.060665 -0.033268
vn 0.739726 -0.643836 0.197652
vn 0.716243 -0.405088 0.567515
vn 0.998043 -0.025440 0.050881
vn 0.998043 -0.060665 -0.033268
vn 0.716243 -0.405088 0.567515
vn 0.727984 -0.005871 -0.684932
vn 0.062622 0.000000 -0.998043
vn 0.718200 -0.428571 -0.549902
vn 0.062622 0.000000 -0.998043
vn 0.060665 -0.589041 -0.806262
vn 0.718200 -0.428571 -0.549902
vn 0.718200 -0.428571 -0.549902
vn 0.060665 -0.589041 -0.806262
vn 0.724070 -0.645793 -0.244618
vn 0.060665 -0.589041 -0.806262
vn 0.086106 -0.947162 -0.311155
vn 0.724070 -0.645793 -0.244618
vn 0.086106 -0.947162 -0.311155
vn 0.107632 -0.994129 -0.003914
vn 0.724070 -0.645793 -0.244618
vn 0.724070 -0.645793 -0.244618
vn 0.107632 -0.994129 -0.003914
vn 0.739726 -0.643836 0.197652
vn 0.739726 -0.643836 0.197652
vn 0.107632 -0.994129 -0.003914
vn 0.086106 -0.935421 0.342466
vn 0.739726 -0.643836 0.197652
vn 0.086106 -0.935421 0.342466
vn 0.056751 -0.587084 0.808219
vn 0.716243 -0.405088 0.567515
vn 0.739726 -0.643836 0.197652
vn 0.056751 -0.587084 0.808219
vn 0.716243 -0.405088 0.567515
vn 0.056751 -0.587084 0.808219
vn 0.724070 -0.011742 0.688845
vn 0.716243 -0.405088 0.567515
vn 0.724070 -0.011742 0.688845
vn 0.998043 0.017613 0.062622
vn 0.998043 -0.025440 0.050881
vn 0.716243 -0.405088 0.567515
vn 0.998043 0.017613 0.062622
vn 0.056751 -0.587084 0.808219
vn 0.056751 -0.037182 0.998043
vn 0.724070 -0.011742 0.688845
vn 0.724070 -0.011742 0.688845
vn 0.056751 -0.037182 0.998043
vn 0.720157 0.410959 0.559687
vn 0.724070 -0.011742 0.688845
vn 0.720157 0.410959 0.559687
vn 0.998043 0.041096 0.046967
vn 0.998043 0.017613 0.062622
vn 0.724070 -0.011742 0.688845
vn 0.998043 0.041096 0.046967
vn 0.056751 -0.037182 0.998043
vn 0.054795 0.587084 0.808219
vn 0.720157 0.410959 0.559687
vn 0.720157 0.410959 0.559687
vn 0.054795 0.587084 0.808219
vn 0.735812 0.655577 0.170254
vn 0.720157 0.410959 0.559687
vn 0.735812 0.655577 0.170254
vn 0.998043 0.058708 0.015656
vn 0.998043 0.041096 0.046967
vn 0.720157 0.410959 0.559687
vn 0.998043 0.058708 0.015656
vn 0.054795 0.587084 0.808219
vn 0.080235 0.964775 0.250489
vn 0.735812 0.655577 0.170254
vn 0.735812 0.655577 0.170254
vn 0.080235 0.964775 0.250489
vn 0.095890 0.988258 -0.119374
vn 0.710372 0.661448 -0.238748
vn 0.735812 0.655577 0.170254
vn 0.095890 0.988258 -0.119374
vn 0.998043 0.058708 0.015656
vn 0.735812 0.655577 0.170254
vn 0.710372 0.661448 -0.238748
vn 0.998043 0.043053 -0.043053
vn 0.998043 0.058708 0.015656
vn 0.710372 0.661448 -0.238748
vn 0.998043 0.043053 -0.043053
vn 0.710372 0.661448 -0.238748
vn 0.996086 0.046967 -0.062622
vn 0.710372 0.661448 -0.238748
vn 0.712329 0.442270 -0.545988
vn 0.996086 0.046967 -0.062622
vn 0.996086 0.046967 -0.062622
vn 0.712329 0.442270 -0.545988
vn 0.727984 -0.005871 -0.684932
vn 1.000000 -0.005871 -0.043053
vn 0.996086 0.046967 -0.062622
vn 0.727984 -0.005871 -0.684932
vn 0.727984 -0.005871 -0.684932
vn 0.712329 0.442270 -0.545988
vn 0.062622 0.000000 -0.998043
vn 0.712329 0.442270 -0.545988
vn 0.029354 0.632094 -0.772994
vn 0.062622 0.000000 -0.998043
vn 0.046967 0.947162 -0.315068
vn 0.029354 0.632094 -0.772994
vn 0.712329 0.442270 -0.545988
vn 0.710372 0.661448 -0.238748
vn 0.046967 0.947162 -0.315068
vn 0.712329 0.442270 -0.545988
vn 0.046967 0.947162 -0.315068
vn 0.710372 0.661448 -0.238748
vn 0.095890 0.988258 -0.119374
vn -1.000000 -0.009785 0.013699
vn -1.000000 -0.009785 0.013699
vn -1.000000 -0.009785 0.013699
vn -1.000000 -0.009785 0.013699
vn -1.000000 -0.009785 0.013699
vn -1.000000 -0.009785 0.013699
vn -1.000000 -0.009785 0.013699
vn -1.000000 -0.009785 0.013699
vn -1.000000 -0.009785 0.013699
vn -1.000000 -0.009785 0.013699
vn -1.000000 -0.009785 0.013699
vn -1.000000 -0.009785 0.013699
vn -1.000000 -0.009785 0.013699
vn -1.000000 -0.009785 0.013699
vn -1.000000 -0.009785 0.013699
vn -1.000000 -0.009785 0.013699
vn -1.000000 -0.009785 0.013699
vn -1.000000 -0.009785 0.013699
vn -1.000000 -0.009785 0.013699
vn -1.000000 -0.009785 0.013699
vn -1.000000 -0.009785 0.013699
vn -1.000000 -0.009785 0.013699
vn -1.000000 -0.009785 0.013699
vn -1.000000 -0.009785 0.013699
vn -1.000000 -0.009785 0.013699
vn -1.000000 -0.009785 0.013699
vn -1.000000 -0.009785 0.013699
vn -1.000000 -0.009785 0.013699
vn -1.000000 -0.009785 0.013699
vn -1.000000 -0.009785 0.013699
mtllib mtl_nt_2020_wall_meter_01_dest.mtl
g mtl_nt_2020_wall_meter_01_dest
usemtl mtl_nt_2020_wall_meter_01_dest
f 3/3/3 2/2/2 1/1/1
f 6/6/6 5/5/5 4/4/4
f 9/9/9 8/8/8 7/7/7
f 12/12/12 11/11/11 10/10/10
f 15/15/15 14/14/14 13/13/13
f 18/18/18 17/17/17 16/16/16
f 21/21/21 20/20/20 19/19/19
f 24/24/24 23/23/23 22/22/22
f 27/27/27 26/26/26 25/25/25
f 30/30/30 29/29/29 28/28/28
f 33/33/33 32/32/32 31/31/31
f 36/36/36 35/35/35 34/34/34
f 39/39/39 38/38/38 37/37/37
f 42/42/42 41/41/41 40/40/40
f 45/45/45 44/44/44 43/43/43
f 48/48/48 47/47/47 46/46/46
f 51/51/51 50/50/50 49/49/49
f 54/54/54 53/53/53 52/52/52
f 57/57/57 56/56/56 55/55/55
f 60/60/60 59/59/59 58/58/58
f 63/63/63 62/62/62 61/61/61
f 66/66/66 65/65/65 64/64/64
f 69/69/69 68/68/68 67/67/67
f 72/72/72 71/71/71 70/70/70
f 75/75/75 74/74/74 73/73/73
f 78/78/78 77/77/77 76/76/76
f 81/81/81 80/80/80 79/79/79
f 84/84/84 83/83/83 82/82/82
f 87/87/87 86/86/86 85/85/85
f 90/90/90 89/89/89 88/88/88
f 93/93/93 92/92/92 91/91/91
f 96/96/96 95/95/95 94/94/94
f 99/99/99 98/98/98 97/97/97
f 102/102/102 101/101/101 100/100/100
f 105/105/105 104/104/104 103/103/103
f 108/108/108 107/107/107 106/106/106
f 111/111/111 110/110/110 109/109/109
f 114/114/114 113/113/113 112/112/112
f 117/117/117 116/116/116 115/115/115
f 120/120/120 119/119/119 118/118/118
f 123/123/123 122/122/122 121/121/121
f 126/126/126 125/125/125 124/124/124
f 129/129/129 128/128/128 127/127/127
f 132/132/132 131/131/131 130/130/130
f 135/135/135 134/134/134 133/133/133
f 138/138/138 137/137/137 136/136/136
f 141/141/141 140/140/140 139/139/139
f 144/144/144 143/143/143 142/142/142
f 147/147/147 146/146/146 145/145/145
f 150/150/150 149/149/149 148/148/148
f 153/153/153 152/152/152 151/151/151
f 156/156/156 155/155/155 154/154/154
f 159/159/159 158/158/158 157/157/157
f 162/162/162 161/161/161 160/160/160
f 165/165/165 164/164/164 163/163/163
f 168/168/168 167/167/167 166/166/166
f 171/171/171 170/170/170 169/169/169
f 174/174/174 173/173/173 172/172/172
f 177/177/177 176/176/176 175/175/175
f 180/180/180 179/179/179 178/178/178
f 183/183/183 182/182/182 181/181/181
f 186/186/186 185/185/185 184/184/184
f 189/189/189 188/188/188 187/187/187
f 192/192/192 191/191/191 190/190/190
f 195/195/195 194/194/194 193/193/193
f 198/198/198 197/197/197 196/196/196
f 201/201/201 200/200/200 199/199/199
f 204/204/204 203/203/203 202/202/202
f 207/207/207 206/206/206 205/205/205
f 210/210/210 209/209/209 208/208/208
f 213/213/213 212/212/212 211/211/211
f 216/216/216 215/215/215 214/214/214
f 219/219/219 218/218/218 217/217/217
f 222/222/222 221/221/221 220/220/220
f 225/225/225 224/224/224 223/223/223
f 228/228/228 227/227/227 226/226/226
f 231/231/231 230/230/230 229/229/229
f 234/234/234 233/233/233 232/232/232
f 237/237/237 236/236/236 235/235/235
f 240/240/240 239/239/239 238/238/238
f 243/243/243 242/242/242 241/241/241
f 246/246/246 245/245/245 244/244/244
f 249/249/249 248/248/248 247/247/247
f 252/252/252 251/251/251 250/250/250
