# Generated by Wraith - Game extraction tools
# Please credit DTZxPorter for using it!

v -14.276014 -15.241458 0.013200
v -17.495649 -18.711222 44.936020
v 14.276017 -15.241458 0.013200
v -17.495649 -18.711222 44.936020
v 18.711222 -17.495649 44.936020
v 14.276017 -15.241458 0.013200
v -17.495649 -18.711222 44.936020
v -17.495651 18.711220 44.936020
v 18.711222 -17.495649 44.936020
v -17.495651 18.711220 44.936020
v 18.711222 17.495649 44.936020
v 18.711222 -17.495649 44.936020
v 18.711222 17.495649 44.936020
v -17.495651 18.711220 44.936020
v 14.276011 15.241458 0.013195
v -17.495651 18.711220 44.936020
v -15.241456 14.276017 0.013195
v 14.276011 15.241458 0.013195
v 14.276011 15.241458 0.013195
v -15.241456 14.276017 0.013195
v 14.276017 -15.241458 0.013200
v -15.241456 14.276017 0.013195
v -14.276014 -15.241458 0.013200
v 14.276017 -15.241458 0.013200
v 14.276017 -15.241458 0.013200
v 18.711222 -17.495649 44.936020
v 14.276011 15.241458 0.013195
v 18.711222 -17.495649 44.936020
v 18.711222 17.495649 44.936020
v 14.276011 15.241458 0.013195
v -14.276014 -15.241458 0.013200
v -15.241456 14.276017 0.013195
v -17.495649 -18.711222 44.936020
v -15.241456 14.276017 0.013195
v -17.495651 18.711220 44.936020
v -17.495649 -18.711222 44.936020
vt 0.044373 0.008789
vt -0.002190 0.658447
vt 0.457275 0.008789
vt -0.002190 0.658447
vt 0.521484 0.658447
vt 0.457275 0.008789
vt 0.596191 0.112305
vt 0.596191 0.403320
vt 0.877930 0.122070
vt 0.596191 0.403320
vt 0.877930 0.394043
vt 0.877930 0.122070
vt 0.519043 0.651367
vt -0.004341 0.651367
vt 0.455322 0.001465
vt -0.004341 0.651367
vt 0.028259 0.001465
vt 0.455322 0.001465
vt 0.839355 0.435547
vt 0.609863 0.442871
vt 0.839355 0.672363
vt 0.609863 0.442871
vt 0.617676 0.672363
vt 0.839355 0.672363
vt 0.034698 0.001465
vt 0.002085 0.651367
vt 0.475586 0.001465
vt 0.002085 0.651367
vt 0.508301 0.651367
vt 0.475586 0.001465
vt 0.037476 0.008789
vt 0.464355 0.008789
vt -0.012703 0.658447
vt 0.464355 0.008789
vt 0.528320 0.658447
vt -0.012703 0.658447
vn 0.019569 -0.998043 -0.064579
vn 0.019569 -0.998043 -0.064579
vn 0.019569 -0.998043 -0.064579
vn 0.019569 -0.998043 -0.064579
vn 0.019569 -0.998043 -0.064579
vn 0.019569 -0.998043 -0.064579
vn 0.000000 0.000000 1.000000
vn 0.000000 0.000000 1.000000
vn 0.000000 0.000000 1.000000
vn 0.000000 0.000000 1.000000
vn 0.000000 0.000000 1.000000
vn 0.000000 0.000000 1.000000
vn 0.003914 0.998043 -0.074364
vn 0.003914 0.998043 -0.074364
vn 0.003914 0.998043 -0.074364
vn 0.003914 0.998043 -0.074364
vn 0.003914 0.998043 -0.074364
vn 0.003914 0.998043 -0.074364
vn 0.000000 0.000000 -1.000000
vn 0.000000 0.000000 -1.000000
vn 0.000000 0.000000 -1.000000
vn 0.000000 0.000000 -1.000000
vn 0.000000 0.000000 -1.000000
vn 0.000000 0.000000 -1.000000
vn 0.996086 0.000000 -0.097847
vn 0.996086 0.000000 -0.097847
vn 0.996086 0.000000 -0.097847
vn 0.996086 0.000000 -0.097847
vn 0.996086 0.000000 -0.097847
vn 0.996086 0.000000 -0.097847
vn -0.998043 -0.013699 -0.060665
vn -0.998043 -0.013699 -0.060665
vn -0.998043 -0.013699 -0.060665
vn -0.998043 -0.013699 -0.060665
vn -0.998043 -0.013699 -0.060665
vn -0.998043 -0.013699 -0.060665
mtllib mtl_nt_2020_planter01.mtl
g mtl_nt_2020_planter01
usemtl mtl_nt_2020_planter01
f 3/3/3 2/2/2 1/1/1
f 6/6/6 5/5/5 4/4/4
f 9/9/9 8/8/8 7/7/7
f 12/12/12 11/11/11 10/10/10
f 15/15/15 14/14/14 13/13/13
f 18/18/18 17/17/17 16/16/16
f 21/21/21 20/20/20 19/19/19
f 24/24/24 23/23/23 22/22/22
f 27/27/27 26/26/26 25/25/25
f 30/30/30 29/29/29 28/28/28
f 33/33/33 32/32/32 31/31/31
f 36/36/36 35/35/35 34/34/34
