# Generated by Wraith - Game extraction tools
# Please credit DTZxPorter for using it!

v 31.071684 31.071684 78.081818
v 31.071684 31.071684 80.415146
v 0.000000 43.941998 78.081818
v 31.071684 31.071684 80.415146
v 0.000000 43.941998 80.415146
v 0.000000 43.941998 78.081818
v 0.000000 43.941998 78.081818
v 0.000000 43.941998 80.415146
v -31.071684 31.071684 78.081818
v 0.000000 43.941998 80.415146
v -31.071684 31.071684 80.415146
v -31.071684 31.071684 78.081818
v -31.071684 31.071684 78.081818
v -31.071684 31.071684 80.415146
v -43.941998 0.000000 78.081818
v -31.071684 31.071684 80.415146
v -43.941998 0.000000 80.415146
v -43.941998 0.000000 78.081818
v -43.941998 0.000000 78.081818
v -43.941998 0.000000 80.415146
v -31.071684 -31.071684 78.081818
v -43.941998 0.000000 80.415146
v -31.071684 -31.071684 80.415146
v -31.071684 -31.071684 78.081818
v -31.071684 -31.071684 78.081818
v -31.071684 -31.071684 80.415146
v 0.000000 -43.941998 78.081818
v -31.071684 -31.071684 80.415146
v 0.000000 -43.941998 80.415146
v 0.000000 -43.941998 78.081818
v 0.000000 -43.941998 78.081818
v 0.000000 -43.941998 80.415146
v 31.071686 -31.071686 78.081818
v 0.000000 -43.941998 80.415146
v 31.071686 -31.071686 80.415146
v 31.071686 -31.071686 78.081818
v 31.071686 -31.071686 78.081818
v 31.071686 -31.071686 80.415146
v 43.942001 0.000000 78.081818
v 31.071686 -31.071686 80.415146
v 43.942001 0.000000 80.415146
v 43.942001 0.000000 78.081818
v 43.942001 0.000000 78.081818
v 43.942001 0.000000 80.415146
v 31.071684 31.071684 78.081818
v 43.942001 0.000000 80.415146
v 31.071684 31.071684 80.415146
v 31.071684 31.071684 78.081818
v 4.089268 1.693830 34.315899
v 8.453737 3.501652 77.860184
v -1.693830 4.089268 34.315899
v 8.453737 3.501652 77.860184
v -3.501652 8.453737 77.860184
v -1.693830 4.089268 34.315899
v -1.693830 4.089268 34.315899
v -3.501652 8.453737 77.860184
v -4.089268 -1.693830 34.315899
v -3.501652 8.453737 77.860184
v -8.453737 -3.501652 77.860184
v -4.089268 -1.693830 34.315899
v -4.089268 -1.693830 34.315899
v -8.453737 -3.501652 77.860184
v 1.693832 -4.089268 34.315899
v -8.453737 -3.501652 77.860184
v 3.501652 -8.453737 77.860184
v 1.693832 -4.089268 34.315899
v 1.693832 -4.089268 34.315899
v 3.501652 -8.453737 77.860184
v 4.089268 1.693830 34.315899
v 3.501652 -8.453737 77.860184
v 8.453737 3.501652 77.860184
v 4.089268 1.693830 34.315899
v 9.161897 -16.482924 28.514400
v 13.755128 -24.746479 1.096724
v 5.925746 -13.691553 25.190842
v 13.755128 -24.746479 1.096724
v 10.896931 -21.746613 1.067328
v 5.925746 -13.691553 25.190842
v 9.161897 -16.482924 28.514400
v 8.499683 -12.260849 25.190842
v 13.755128 -24.746479 1.096724
v 8.499683 -12.260849 25.190842
v 12.716307 -20.735325 1.067328
v 13.755128 -24.746479 1.096724
v 0.027036 -0.048638 46.149590
v 9.161897 -16.482924 28.514400
v -2.553841 -1.483200 37.520325
v 9.161897 -16.482924 28.514400
v 5.925746 -13.691553 25.190842
v -2.553841 -1.483200 37.520325
v 0.027036 -0.048638 46.149590
v 2.607912 1.385921 37.520325
v 9.161897 -16.482924 28.514400
v 2.607912 1.385921 37.520325
v 8.499683 -12.260849 25.190842
v 9.161897 -16.482924 28.514400
v -18.858078 0.000003 28.514400
v -28.312397 0.000005 1.096724
v -14.846044 1.472420 25.190842
v -28.312397 0.000005 1.096724
v -24.301748 1.040778 1.067328
v -14.846044 1.472420 25.190842
v -18.858078 0.000003 28.514400
v -14.846046 -1.472418 25.190842
v -28.312397 0.000005 1.096724
v -14.846046 -1.472418 25.190842
v -24.301748 -1.040770 1.067328
v -28.312397 0.000005 1.096724
v -0.055649 0.000000 46.149590
v -18.858078 0.000003 28.514400
v -0.055649 2.952775 37.520325
v -18.858078 0.000003 28.514400
v -14.846044 1.472420 25.190842
v -0.055649 2.952775 37.520325
v -0.055649 0.000000 46.149590
v -0.055649 -2.952775 37.520325
v -18.858078 0.000003 28.514400
v -0.055649 -2.952775 37.520325
v -14.846046 -1.472418 25.190842
v -18.858078 0.000003 28.514400
v 10.794995 15.462705 28.514400
v 16.206961 23.214787 1.096724
v 9.705683 11.330173 25.190842
v 16.206961 23.214787 1.096724
v 14.764514 19.330475 1.067328
v 9.705683 11.330173 25.190842
v 10.794995 15.462705 28.514400
v 7.291060 13.015895 25.190842
v 16.206961 23.214787 1.096724
v 7.291060 13.015895 25.190842
v 13.057748 20.522022 1.067328
v 16.206961 23.214787 1.096724
v 0.031854 0.045629 46.149590
v 10.794995 15.462705 28.514400
v 2.452987 -1.644637 37.520325
v 10.794995 15.462705 28.514400
v 9.705683 11.330173 25.190842
v 2.452987 -1.644637 37.520325
v 0.031854 0.045629 46.149590
v -2.389276 1.735894 37.520325
v 10.794995 15.462705 28.514400
v -2.389276 1.735894 37.520325
v 7.291060 13.015895 25.190842
v 10.794995 15.462705 28.514400
v 43.942001 0.000000 78.081818
v 0.000000 0.000000 78.081818
v 31.071686 -31.071686 78.081818
v 31.071684 31.071684 78.081818
v 0.000000 0.000000 78.081818
v 43.942001 0.000000 78.081818
v 0.000000 43.941998 78.081818
v 0.000000 0.000000 78.081818
v 31.071684 31.071684 78.081818
v -31.071684 31.071684 78.081818
v 0.000000 0.000000 78.081818
v 0.000000 43.941998 78.081818
v -43.941998 0.000000 78.081818
v 0.000000 0.000000 78.081818
v -31.071684 31.071684 78.081818
v -31.071684 -31.071684 78.081818
v 0.000000 0.000000 78.081818
v -43.941998 0.000000 78.081818
v 0.000000 -43.941998 78.081818
v 0.000000 0.000000 78.081818
v -31.071684 -31.071684 78.081818
v 31.071686 -31.071686 78.081818
v 0.000000 0.000000 78.081818
v 0.000000 -43.941998 78.081818
v 31.071684 31.071684 80.415146
v 0.000000 0.000000 80.415146
v 0.000000 43.941998 80.415146
v 43.942001 0.000000 80.415146
v 0.000000 0.000000 80.415146
v 31.071684 31.071684 80.415146
v 31.071686 -31.071686 80.415146
v 0.000000 0.000000 80.415146
v 43.942001 0.000000 80.415146
v 0.000000 -43.941998 80.415146
v 0.000000 0.000000 80.415146
v 31.071686 -31.071686 80.415146
v -31.071684 -31.071684 80.415146
v 0.000000 0.000000 80.415146
v 0.000000 -43.941998 80.415146
v -43.941998 0.000000 80.415146
v 0.000000 0.000000 80.415146
v -31.071684 -31.071684 80.415146
v -31.071684 31.071684 80.415146
v 0.000000 0.000000 80.415146
v -43.941998 0.000000 80.415146
v 0.000000 43.941998 80.415146
v 0.000000 0.000000 80.415146
v -31.071684 31.071684 80.415146
vt 0.977051 0.001953
vt 0.964844 0.001953
vt 0.977051 0.163086
vt 0.964844 0.001953
vt 0.964844 0.163086
vt 0.977051 0.163086
vt 0.977051 0.163086
vt 0.964844 0.163086
vt 0.977051 0.323730
vt 0.964844 0.163086
vt 0.964844 0.323730
vt 0.977051 0.323730
vt 0.985840 0.323730
vt 0.997559 0.323730
vt 0.985840 0.163086
vt 0.997559 0.323730
vt 0.997559 0.163086
vt 0.985840 0.163086
vt 0.985840 0.163086
vt 0.997559 0.163086
vt 0.985840 0.001953
vt 0.997559 0.163086
vt 0.997559 0.001953
vt 0.985840 0.001953
vt 0.925781 0.323730
vt 0.937988 0.323730
vt 0.925781 0.163086
vt 0.937988 0.323730
vt 0.937988 0.163086
vt 0.925781 0.163086
vt 0.925781 0.163086
vt 0.937988 0.163086
vt 0.925781 0.001953
vt 0.937988 0.163086
vt 0.937988 0.001953
vt 0.925781 0.001953
vt 0.957520 0.001953
vt 0.945313 0.001953
vt 0.957520 0.163086
vt 0.945313 0.001953
vt 0.945313 0.163086
vt 0.957520 0.163086
vt 0.957520 0.163086
vt 0.945313 0.163086
vt 0.957520 0.323730
vt 0.945313 0.163086
vt 0.945313 0.323730
vt 0.957520 0.323730
vt 0.131470 0.686768
vt 0.150269 0.461426
vt 0.105225 0.686768
vt 0.150269 0.461426
vt 0.095825 0.461426
vt 0.105225 0.686768
vt 0.055786 0.916077
vt 0.074524 0.690674
vt 0.029480 0.916077
vt 0.074524 0.690674
vt 0.020126 0.690674
vt 0.029480 0.916077
vt 0.100769 0.698730
vt 0.082092 0.924072
vt 0.127075 0.698730
vt 0.082092 0.924072
vt 0.136475 0.924072
vt 0.127075 0.698730
vt 0.180664 0.698730
vt 0.161987 0.924072
vt 0.207031 0.698730
vt 0.161987 0.924072
vt 0.216309 0.924072
vt 0.207031 0.698730
vt 0.897461 0.552490
vt 0.855469 0.694580
vt 0.914551 0.569580
vt 0.855469 0.694580
vt 0.872559 0.694580
vt 0.914551 0.569580
vt 0.758789 0.603271
vt 0.778320 0.586182
vt 0.715820 0.461426
vt 0.778320 0.586182
vt 0.734375 0.461426
vt 0.715820 0.461426
vt 0.979492 0.461426
vt 0.897461 0.552490
vt 0.977539 0.505859
vt 0.897461 0.552490
vt 0.914551 0.569580
vt 0.977539 0.505859
vt 0.847168 0.694580
vt 0.849121 0.649902
vt 0.758789 0.603271
vt 0.849121 0.649902
vt 0.778320 0.586182
vt 0.758789 0.603271
vt 0.612305 0.552490
vt 0.562988 0.694580
vt 0.632813 0.569580
vt 0.562988 0.694580
vt 0.583984 0.694580
vt 0.632813 0.569580
vt 0.459717 0.603271
vt 0.480469 0.586182
vt 0.410889 0.461426
vt 0.480469 0.586182
vt 0.431641 0.461426
vt 0.410889 0.461426
vt 0.709473 0.461426
vt 0.612305 0.552490
vt 0.709473 0.505859
vt 0.612305 0.552490
vt 0.632813 0.569580
vt 0.709473 0.505859
vt 0.557129 0.694580
vt 0.557129 0.649902
vt 0.459717 0.603271
vt 0.557129 0.649902
vt 0.480469 0.586182
vt 0.459717 0.603271
vt 0.364014 0.603271
vt 0.404785 0.461426
vt 0.345215 0.586182
vt 0.404785 0.461426
vt 0.386719 0.461426
vt 0.345215 0.586182
vt 0.232422 0.552490
vt 0.217041 0.569580
vt 0.271973 0.694580
vt 0.217041 0.569580
vt 0.255859 0.694580
vt 0.271973 0.694580
vt 0.280273 0.694580
vt 0.364014 0.603271
vt 0.278076 0.649902
vt 0.364014 0.603271
vt 0.345215 0.586182
vt 0.278076 0.649902
vt 0.156372 0.461426
vt 0.158569 0.505859
vt 0.232422 0.552490
vt 0.158569 0.505859
vt 0.217041 0.569580
vt 0.232422 0.552490
vt 0.457031 0.229492
vt 0.229492 0.229492
vt 0.390381 0.390625
vt 0.390381 0.068848
vt 0.229492 0.229492
vt 0.457031 0.229492
vt 0.229492 0.001953
vt 0.229492 0.229492
vt 0.390381 0.068848
vt 0.068604 0.068848
vt 0.229492 0.229492
vt 0.229492 0.001953
vt 0.001991 0.229492
vt 0.229492 0.229492
vt 0.068604 0.068848
vt 0.068604 0.390625
vt 0.229492 0.229492
vt 0.001991 0.229492
vt 0.229492 0.457031
vt 0.229492 0.229492
vt 0.068604 0.390625
vt 0.390381 0.390625
vt 0.229492 0.229492
vt 0.229492 0.457031
vt 0.852539 0.390625
vt 0.691406 0.229492
vt 0.691406 0.457031
vt 0.918945 0.229492
vt 0.691406 0.229492
vt 0.852539 0.390625
vt 0.852539 0.068848
vt 0.691406 0.229492
vt 0.918945 0.229492
vt 0.691406 0.001953
vt 0.691406 0.229492
vt 0.852539 0.068848
vt 0.530273 0.068848
vt 0.691406 0.229492
vt 0.691406 0.001953
vt 0.463867 0.229492
vt 0.691406 0.229492
vt 0.530273 0.068848
vt 0.530273 0.390625
vt 0.691406 0.229492
vt 0.463867 0.229492
vt 0.691406 0.457031
vt 0.691406 0.229492
vt 0.530273 0.390625
vn 0.383562 0.923679 0.000000
vn 0.383562 0.923679 0.000000
vn 0.383562 0.923679 0.000000
vn 0.383562 0.923679 0.000000
vn 0.383562 0.923679 0.000000
vn 0.383562 0.923679 0.000000
vn -0.383562 0.923679 0.000000
vn -0.383562 0.923679 0.000000
vn -0.383562 0.923679 0.000000
vn -0.383562 0.923679 0.000000
vn -0.383562 0.923679 0.000000
vn -0.383562 0.923679 0.000000
vn -0.923679 0.383562 0.000000
vn -0.923679 0.383562 0.000000
vn -0.923679 0.383562 0.000000
vn -0.923679 0.383562 0.000000
vn -0.923679 0.383562 0.000000
vn -0.923679 0.383562 0.000000
vn -0.923679 -0.383562 0.000000
vn -0.923679 -0.383562 0.000000
vn -0.923679 -0.383562 0.000000
vn -0.923679 -0.383562 0.000000
vn -0.923679 -0.383562 0.000000
vn -0.923679 -0.383562 0.000000
vn -0.383562 -0.923679 0.000000
vn -0.383562 -0.923679 0.000000
vn -0.383562 -0.923679 0.000000
vn -0.383562 -0.923679 0.000000
vn -0.383562 -0.923679 0.000000
vn -0.383562 -0.923679 0.000000
vn 0.383562 -0.923679 0.000000
vn 0.383562 -0.923679 0.000000
vn 0.383562 -0.923679 0.000000
vn 0.383562 -0.923679 0.000000
vn 0.383562 -0.923679 0.000000
vn 0.383562 -0.923679 0.000000
vn 0.923679 -0.383562 0.000000
vn 0.923679 -0.383562 0.000000
vn 0.923679 -0.383562 0.000000
vn 0.923679 -0.383562 0.000000
vn 0.923679 -0.383562 0.000000
vn 0.923679 -0.383562 0.000000
vn 0.923679 0.383562 0.000000
vn 0.923679 0.383562 0.000000
vn 0.923679 0.383562 0.000000
vn 0.923679 0.383562 0.000000
vn 0.923679 0.383562 0.000000
vn 0.923679 0.383562 0.000000
vn 0.381605 0.921722 -0.076321
vn 0.381605 0.921722 -0.076321
vn 0.381605 0.921722 -0.076321
vn 0.381605 0.921722 -0.076321
vn 0.381605 0.921722 -0.076321
vn 0.381605 0.921722 -0.076321
vn -0.921722 0.381605 -0.076321
vn -0.921722 0.381605 -0.076321
vn -0.921722 0.381605 -0.076321
vn -0.921722 0.381605 -0.076321
vn -0.921722 0.381605 -0.076321
vn -0.921722 0.381605 -0.076321
vn -0.381605 -0.921722 -0.076321
vn -0.381605 -0.921722 -0.076321
vn -0.381605 -0.921722 -0.076321
vn -0.381605 -0.921722 -0.076321
vn -0.381605 -0.921722 -0.076321
vn -0.381605 -0.921722 -0.076321
vn 0.921722 -0.381605 -0.076321
vn 0.921722 -0.381605 -0.076321
vn 0.921722 -0.381605 -0.076321
vn 0.921722 -0.381605 -0.076321
vn 0.921722 -0.381605 -0.076321
vn 0.921722 -0.381605 -0.076321
vn -0.853229 -0.522505 -0.001957
vn -0.866928 -0.497065 0.000000
vn -0.853229 -0.522505 -0.003914
vn -0.866928 -0.497065 0.000000
vn -0.866928 -0.499022 0.000000
vn -0.853229 -0.522505 -0.003914
vn 0.894325 0.450098 -0.001957
vn 0.894325 0.448141 -0.003914
vn 0.880626 0.475538 0.000000
vn 0.894325 0.448141 -0.003914
vn 0.880626 0.471624 0.000000
vn 0.880626 0.475538 0.000000
vn -0.814090 -0.581213 0.000000
vn -0.833659 -0.553816 0.001957
vn -0.812133 -0.583170 -0.003914
vn -0.833659 -0.553816 0.001957
vn -0.835616 -0.549902 -0.001957
vn -0.812133 -0.583170 -0.003914
vn 0.923679 0.383562 0.000000
vn 0.923679 0.383562 -0.003914
vn 0.909980 0.414873 0.001957
vn 0.923679 0.383562 -0.003914
vn 0.908023 0.418787 -0.001957
vn 0.909980 0.414873 0.001957
vn -0.041096 1.000000 -0.001957
vn -0.011742 1.000000 0.000000
vn -0.041096 1.000000 -0.003914
vn -0.011742 1.000000 0.000000
vn -0.015656 1.000000 0.000000
vn -0.041096 1.000000 -0.003914
vn -0.041096 -1.000000 -0.001957
vn -0.041096 -1.000000 -0.003914
vn -0.011742 -1.000000 0.000000
vn -0.041096 -1.000000 -0.003914
vn -0.015656 -1.000000 0.000000
vn -0.011742 -1.000000 0.000000
vn -0.113503 0.994129 0.000000
vn -0.078278 0.996086 0.001957
vn -0.113503 0.994129 -0.003914
vn -0.078278 0.996086 0.001957
vn -0.076321 0.998043 -0.001957
vn -0.113503 0.994129 -0.003914
vn -0.113503 -0.994129 0.000000
vn -0.113503 -0.994129 -0.003914
vn -0.078278 -0.996086 0.001957
vn -0.113503 -0.994129 -0.003914
vn -0.076321 -0.998043 -0.001957
vn -0.078278 -0.996086 0.001957
vn 0.843444 -0.538160 -0.001957
vn 0.827789 -0.561644 0.000000
vn 0.843444 -0.538160 -0.003914
vn 0.827789 -0.561644 0.000000
vn 0.827789 -0.559687 0.000000
vn 0.843444 -0.538160 -0.003914
vn -0.794521 0.606654 -0.001957
vn -0.794521 0.606654 -0.003914
vn -0.812133 0.583170 0.000000
vn -0.794521 0.606654 -0.003914
vn -0.810176 0.585127 0.000000
vn -0.812133 0.583170 0.000000
vn 0.878669 -0.475538 0.000000
vn 0.863014 -0.506849 0.001957
vn 0.880626 -0.475538 -0.003914
vn 0.863014 -0.506849 0.001957
vn 0.861057 -0.508806 -0.001957
vn 0.880626 -0.475538 -0.003914
vn -0.749511 0.661448 0.000000
vn -0.749511 0.663405 -0.003914
vn -0.772994 0.636008 0.001957
vn -0.749511 0.663405 -0.003914
vn -0.774951 0.632094 -0.001957
vn -0.772994 0.636008 0.001957
vn 0.000000 0.000000 -1.000000
vn 0.000000 0.000000 -1.000000
vn 0.000000 0.000000 -1.000000
vn 0.000000 0.000000 -1.000000
vn 0.000000 0.000000 -1.000000
vn 0.000000 0.000000 -1.000000
vn 0.000000 0.000000 -1.000000
vn 0.000000 0.000000 -1.000000
vn 0.000000 0.000000 -1.000000
vn 0.000000 0.000000 -1.000000
vn 0.000000 0.000000 -1.000000
vn 0.000000 0.000000 -1.000000
vn 0.000000 0.000000 -1.000000
vn 0.000000 0.000000 -1.000000
vn 0.000000 0.000000 -1.000000
vn 0.000000 0.000000 -1.000000
vn 0.000000 0.000000 -1.000000
vn 0.000000 0.000000 -1.000000
vn 0.000000 0.000000 -1.000000
vn 0.000000 0.000000 -1.000000
vn 0.000000 0.000000 -1.000000
vn 0.000000 0.000000 -1.000000
vn 0.000000 0.000000 -1.000000
vn 0.000000 0.000000 -1.000000
vn 0.000000 0.000000 1.000000
vn 0.000000 0.000000 1.000000
vn 0.000000 0.000000 1.000000
vn 0.000000 0.000000 1.000000
vn 0.000000 0.000000 1.000000
vn 0.000000 0.000000 1.000000
vn 0.000000 0.000000 1.000000
vn 0.000000 0.000000 1.000000
vn 0.000000 0.000000 1.000000
vn 0.000000 0.000000 1.000000
vn 0.000000 0.000000 1.000000
vn 0.000000 0.000000 1.000000
vn 0.000000 0.000000 1.000000
vn 0.000000 0.000000 1.000000
vn 0.000000 0.000000 1.000000
vn 0.000000 0.000000 1.000000
vn 0.000000 0.000000 1.000000
vn 0.000000 0.000000 1.000000
vn 0.000000 0.000000 1.000000
vn 0.000000 0.000000 1.000000
vn 0.000000 0.000000 1.000000
vn 0.000000 0.000000 1.000000
vn 0.000000 0.000000 1.000000
vn 0.000000 0.000000 1.000000
mtllib sub_polished_metal.mtl
g sub_polished_metal
usemtl sub_polished_metal
f 3/3/3 2/2/2 1/1/1
f 6/6/6 5/5/5 4/4/4
f 9/9/9 8/8/8 7/7/7
f 12/12/12 11/11/11 10/10/10
f 15/15/15 14/14/14 13/13/13
f 18/18/18 17/17/17 16/16/16
f 21/21/21 20/20/20 19/19/19
f 24/24/24 23/23/23 22/22/22
f 27/27/27 26/26/26 25/25/25
f 30/30/30 29/29/29 28/28/28
f 33/33/33 32/32/32 31/31/31
f 36/36/36 35/35/35 34/34/34
f 39/39/39 38/38/38 37/37/37
f 42/42/42 41/41/41 40/40/40
f 45/45/45 44/44/44 43/43/43
f 48/48/48 47/47/47 46/46/46
f 51/51/51 50/50/50 49/49/49
f 54/54/54 53/53/53 52/52/52
f 57/57/57 56/56/56 55/55/55
f 60/60/60 59/59/59 58/58/58
f 63/63/63 62/62/62 61/61/61
f 66/66/66 65/65/65 64/64/64
f 69/69/69 68/68/68 67/67/67
f 72/72/72 71/71/71 70/70/70
f 75/75/75 74/74/74 73/73/73
f 78/78/78 77/77/77 76/76/76
f 81/81/81 80/80/80 79/79/79
f 84/84/84 83/83/83 82/82/82
f 87/87/87 86/86/86 85/85/85
f 90/90/90 89/89/89 88/88/88
f 93/93/93 92/92/92 91/91/91
f 96/96/96 95/95/95 94/94/94
f 99/99/99 98/98/98 97/97/97
f 102/102/102 101/101/101 100/100/100
f 105/105/105 104/104/104 103/103/103
f 108/108/108 107/107/107 106/106/106
f 111/111/111 110/110/110 109/109/109
f 114/114/114 113/113/113 112/112/112
f 117/117/117 116/116/116 115/115/115
f 120/120/120 119/119/119 118/118/118
f 123/123/123 122/122/122 121/121/121
f 126/126/126 125/125/125 124/124/124
f 129/129/129 128/128/128 127/127/127
f 132/132/132 131/131/131 130/130/130
f 135/135/135 134/134/134 133/133/133
f 138/138/138 137/137/137 136/136/136
f 141/141/141 140/140/140 139/139/139
f 144/144/144 143/143/143 142/142/142
f 147/147/147 146/146/146 145/145/145
f 150/150/150 149/149/149 148/148/148
f 153/153/153 152/152/152 151/151/151
f 156/156/156 155/155/155 154/154/154
f 159/159/159 158/158/158 157/157/157
f 162/162/162 161/161/161 160/160/160
f 165/165/165 164/164/164 163/163/163
f 168/168/168 167/167/167 166/166/166
f 171/171/171 170/170/170 169/169/169
f 174/174/174 173/173/173 172/172/172
f 177/177/177 176/176/176 175/175/175
f 180/180/180 179/179/179 178/178/178
f 183/183/183 182/182/182 181/181/181
f 186/186/186 185/185/185 184/184/184
f 189/189/189 188/188/188 187/187/187
f 192/192/192 191/191/191 190/190/190
