# Generated by Wraith - Game extraction tools
# Please credit DTZxPorter for using it!

v -4.685104 -269.436188 -5.078489
v 4.685104 -269.436188 -5.078489
v 4.685104 -144.709808 -5.078489
v -4.685104 -144.709808 -5.078489
v -4.685104 -269.436188 -5.078489
v 4.685104 -144.709808 -5.078489
v -4.685104 -144.709808 -5.078489
v 4.685104 -144.709808 -5.078489
v 4.685104 -45.227253 -5.078489
v -4.685104 -45.227253 -5.078489
v -4.685104 -144.709808 -5.078489
v 4.685104 -45.227253 -5.078489
v -4.685104 -45.227253 -5.078489
v 4.685104 -45.227253 -5.078489
v -4.685104 45.227234 -5.078489
v 4.685104 -45.227253 -5.078489
v 4.685104 45.227234 -5.078489
v -4.685104 45.227234 -5.078489
v -4.685104 45.227234 -5.078489
v 4.685104 45.227234 -5.078489
v 4.685104 144.709808 -5.078489
v -4.685104 144.709808 -5.078489
v -4.685104 45.227234 -5.078489
v 4.685104 144.709808 -5.078489
v -4.685104 144.709808 -5.078489
v 4.685104 144.709808 -5.078489
v 4.685104 269.436188 -5.078489
v -4.685104 269.436188 -5.078489
v -4.685104 144.709808 -5.078489
v 4.685104 269.436188 -5.078489
v -4.685104 269.436188 52.990974
v -4.685104 269.436188 -5.078489
v 4.685104 269.436188 52.990974
v -4.685104 269.436188 -5.078489
v 4.685104 269.436188 -5.078489
v 4.685104 269.436188 52.990974
v -4.685104 269.436188 -5.078489
v -4.685104 269.436188 52.990974
v -4.685104 144.709808 52.806576
v -4.685104 144.709808 -5.078489
v -4.685104 269.436188 -5.078489
v -4.685104 144.709808 52.806576
v -4.685104 144.709808 -5.078489
v -4.685104 144.709808 52.806576
v -4.685104 45.226070 52.738480
v -4.685104 45.227234 -5.078489
v -4.685104 144.709808 -5.078489
v -4.685104 45.226070 52.738480
v -4.685104 -45.227253 -5.078489
v -4.685104 45.227234 -5.078489
v -4.685104 45.226070 52.738480
v -4.685104 -45.226089 52.738480
v -4.685104 -45.227253 -5.078489
v -4.685104 45.226070 52.738480
v -4.685104 -45.227253 -5.078489
v -4.685104 -45.226089 52.738480
v -4.685104 -144.709808 52.806576
v -4.685104 -144.709808 -5.078489
v -4.685104 -45.227253 -5.078489
v -4.685104 -144.709808 52.806576
v -4.685104 -269.436188 -5.078489
v -4.685104 -144.709808 -5.078489
v -4.685104 -144.709808 52.806576
v -4.685104 -269.436188 52.990974
v -4.685104 -269.436188 -5.078489
v -4.685104 -144.709808 52.806576
v -4.685104 -269.436188 -5.078489
v -4.685104 -269.436188 52.990974
v 4.685104 -269.436188 -5.078489
v -4.685104 -269.436188 52.990974
v 4.685104 -269.436188 52.990974
v 4.685104 -269.436188 -5.078489
v 4.685104 -269.436188 52.990974
v 4.685104 -144.709808 52.806576
v 4.685104 -269.436188 -5.078489
v 4.685104 -144.709808 52.806576
v 4.685104 -144.709808 -5.078489
v 4.685104 -269.436188 -5.078489
v 4.685104 -45.227253 -5.078489
v 4.685104 -144.709808 -5.078489
v 4.685104 -144.709808 52.806576
v 4.685104 -45.226089 52.738480
v 4.685104 -45.227253 -5.078489
v 4.685104 -144.709808 52.806576
v 4.685104 -45.227253 -5.078489
v 4.685104 -45.226089 52.738480
v 4.685104 45.227234 -5.078489
v 4.685104 -45.226089 52.738480
v 4.685104 45.226070 52.738480
v 4.685104 45.227234 -5.078489
v 4.685104 144.709808 -5.078489
v 4.685104 45.227234 -5.078489
v 4.685104 45.226070 52.738480
v 4.685104 144.709808 52.806576
v 4.685104 144.709808 -5.078489
v 4.685104 45.226070 52.738480
v 4.685104 269.436188 -5.078489
v 4.685104 144.709808 -5.078489
v 4.685104 144.709808 52.806576
v 4.685104 269.436188 52.990974
v 4.685104 269.436188 -5.078489
v 4.685104 144.709808 52.806576
v -4.685104 269.436188 196.596542
v -4.685104 269.436188 52.990974
v 4.685104 269.436188 196.596542
v -4.685104 269.436188 52.990974
v 4.685104 269.436188 52.990974
v 4.685104 269.436188 196.596542
v -4.685104 -269.436188 52.990974
v -4.685104 -269.436188 196.596542
v 4.685104 -269.436188 52.990974
v -4.685104 -269.436188 196.596542
v 4.685104 -269.436188 196.596542
v 4.685104 -269.436188 52.990974
v -4.685104 -269.436188 196.596542
v -4.685104 -269.436188 52.990974
v -4.685104 -144.709808 170.780151
v -4.685104 -269.436188 52.990974
v -4.685104 -144.709808 52.806576
v -4.685104 -144.709808 170.780151
v -4.685104 -144.709808 170.780151
v -4.685104 -144.709808 52.806576
v -4.685104 -45.223183 161.247009
v -4.685104 -144.709808 52.806576
v -4.685104 -45.226089 52.738480
v -4.685104 -45.223183 161.247009
v -4.685104 -45.223183 161.247009
v -4.685104 -45.226089 52.738480
v -4.685104 45.223167 161.247009
v -4.685104 -45.226089 52.738480
v -4.685104 45.226070 52.738480
v -4.685104 45.223167 161.247009
v -4.685104 45.226070 52.738480
v -4.685104 144.709808 52.806576
v -4.685104 45.223167 161.247009
v -4.685104 144.709808 52.806576
v -4.685104 144.709808 170.780151
v -4.685104 45.223167 161.247009
v -4.685104 144.709808 52.806576
v -4.685104 269.436188 52.990974
v -4.685104 144.709808 170.780151
v -4.685104 269.436188 52.990974
v -4.685104 269.436188 196.596542
v -4.685104 144.709808 170.780151
v 4.685104 -269.436188 196.596542
v 4.685104 -144.709808 170.780151
v 4.685104 -269.436188 52.990974
v 4.685104 -144.709808 170.780151
v 4.685104 -144.709808 52.806576
v 4.685104 -269.436188 52.990974
v 4.685104 -144.709808 170.780151
v 4.685104 -45.223183 161.247009
v 4.685104 -144.709808 52.806576
v 4.685104 -45.223183 161.247009
v 4.685104 -45.226089 52.738480
v 4.685104 -144.709808 52.806576
v 4.685104 -45.226089 52.738480
v 4.685104 -45.223183 161.247009
v 4.685104 45.226070 52.738480
v 4.685104 -45.223183 161.247009
v 4.685104 45.223167 161.247009
v 4.685104 45.226070 52.738480
v 4.685104 45.226070 52.738480
v 4.685104 45.223167 161.247009
v 4.685104 144.709808 52.806576
v 4.685104 45.223167 161.247009
v 4.685104 144.709808 170.780151
v 4.685104 144.709808 52.806576
v 4.685104 144.709808 52.806576
v 4.685104 144.709808 170.780151
v 4.685104 269.436188 52.990974
v 4.685104 144.709808 170.780151
v 4.685104 269.436188 196.596542
v 4.685104 269.436188 52.990974
v -4.685104 -269.436188 196.596542
v -4.685104 -144.709808 170.780151
v 4.685104 -269.436188 196.596542
v -4.685104 -144.709808 170.780151
v 4.685104 -144.709808 170.780151
v 4.685104 -269.436188 196.596542
v -4.685104 -144.709808 170.780151
v -4.685104 -45.223183 161.247009
v 4.685104 -144.709808 170.780151
v -4.685104 -45.223183 161.247009
v 4.685104 -45.223183 161.247009
v 4.685104 -144.709808 170.780151
v 4.685104 45.223167 161.247009
v 4.685104 -45.223183 161.247009
v -4.685104 -45.223183 161.247009
v -4.685104 45.223167 161.247009
v 4.685104 45.223167 161.247009
v -4.685104 -45.223183 161.247009
v -4.685104 45.223167 161.247009
v -4.685104 144.709808 170.780151
v 4.685104 45.223167 161.247009
v -4.685104 144.709808 170.780151
v 4.685104 144.709808 170.780151
v 4.685104 45.223167 161.247009
v -4.685104 144.709808 170.780151
v -4.685104 269.436188 196.596542
v 4.685104 144.709808 170.780151
v -4.685104 269.436188 196.596542
v 4.685104 269.436188 196.596542
v 4.685104 144.709808 170.780151
vt -0.214600 1.242676
vt -0.214600 1.286865
vt 0.373047 1.286865
vt 0.373047 1.242676
vt -0.214600 1.242676
vt 0.373047 1.286865
vt 0.373047 1.242676
vt 0.373047 1.286865
vt 0.841797 1.286865
vt 0.841797 1.242676
vt 0.373047 1.242676
vt 0.841797 1.286865
vt 0.841797 1.242676
vt 0.841797 1.286865
vt 1.267578 1.242676
vt 0.841797 1.286865
vt 1.267578 1.286865
vt 1.267578 1.242676
vt 1.267578 1.242676
vt 1.267578 1.286865
vt 1.737305 1.286865
vt 1.737305 1.242676
vt 1.267578 1.242676
vt 1.737305 1.286865
vt 1.737305 1.242676
vt 1.737305 1.286865
vt 2.324219 1.286865
vt 2.324219 1.242676
vt 1.737305 1.242676
vt 2.324219 1.286865
vt 1.648438 3.236328
vt 1.374023 3.236328
vt 1.648438 3.281250
vt 1.374023 3.236328
vt 1.374023 3.281250
vt 1.648438 3.281250
vt -0.214600 2.270508
vt -0.214600 2.543945
vt 0.373047 2.542969
vt 0.373047 2.270508
vt -0.214600 2.270508
vt 0.373047 2.542969
vt 0.373047 2.270508
vt 0.373047 2.542969
vt 0.841797 2.542969
vt 0.841797 2.270508
vt 0.373047 2.270508
vt 0.841797 2.542969
vt 1.267578 2.270508
vt 0.841797 2.270508
vt 0.841797 2.542969
vt 1.267578 2.542969
vt 1.267578 2.270508
vt 0.841797 2.542969
vt 1.267578 2.270508
vt 1.267578 2.542969
vt 1.737305 2.542969
vt 1.737305 2.270508
vt 1.267578 2.270508
vt 1.737305 2.542969
vt 2.324219 2.270508
vt 1.737305 2.270508
vt 1.737305 2.542969
vt 2.324219 2.543945
vt 2.324219 2.270508
vt 1.737305 2.542969
vt 2.324219 3.298828
vt 2.050781 3.298828
vt 2.324219 3.341797
vt 2.050781 3.298828
vt 2.050781 3.341797
vt 2.324219 3.341797
vt 2.324219 1.980469
vt 1.737305 1.981445
vt 2.324219 2.253906
vt 1.737305 1.981445
vt 1.737305 2.253906
vt 2.324219 2.253906
vt 1.267578 2.253906
vt 1.737305 2.253906
vt 1.737305 1.981445
vt 1.267578 1.981445
vt 1.267578 2.253906
vt 1.737305 1.981445
vt 1.267578 2.253906
vt 1.267578 1.981445
vt 0.841797 2.253906
vt 1.267578 1.981445
vt 0.841797 1.981445
vt 0.841797 2.253906
vt 0.373047 2.253906
vt 0.841797 2.253906
vt 0.841797 1.981445
vt 0.373047 1.981445
vt 0.373047 2.253906
vt 0.841797 1.981445
vt -0.214600 2.253906
vt 0.373047 2.253906
vt 0.373047 1.981445
vt -0.214600 1.980469
vt -0.214600 2.253906
vt 0.373047 1.981445
vt 0.325195 1.237915
vt -0.351318 1.237915
vt 0.325195 1.281982
vt -0.351318 1.237915
vt -0.351318 1.281982
vt 0.325195 1.281982
vt 0.051636 1.298828
vt -0.625000 1.298828
vt 0.051636 1.343018
vt -0.625000 1.298828
vt -0.625000 1.343018
vt 0.051636 1.343018
vt 0.325195 1.221436
vt 0.325195 0.544678
vt -0.262451 1.099731
vt 0.325195 0.544678
vt -0.262451 0.543945
vt -0.262451 1.099731
vt -0.262451 1.099731
vt -0.262451 0.543945
vt -0.731445 1.054840
vt -0.262451 0.543945
vt -0.731445 0.543457
vt -0.731445 1.054840
vt -0.731445 1.054840
vt -0.731445 0.543457
vt -1.157227 1.054840
vt -0.731445 0.543457
vt -1.157227 0.543457
vt -1.157227 1.054840
vt -1.157227 0.543457
vt -1.625977 0.543945
vt -1.157227 1.054840
vt -1.625977 0.543945
vt -1.625977 1.099731
vt -1.157227 1.054840
vt -1.625977 0.543945
vt -2.212891 0.544678
vt -1.625977 1.099731
vt -2.212891 0.544678
vt -2.212891 1.221436
vt -1.625977 1.099731
vt 0.325195 -0.695313
vt -0.262451 -0.574219
vt 0.325195 -0.018555
vt -0.262451 -0.574219
vt -0.262451 -0.017578
vt 0.325195 -0.018555
vt -0.262451 -0.574219
vt -0.731445 -0.529297
vt -0.262451 -0.017578
vt -0.731445 -0.529297
vt -0.731445 -0.017578
vt -0.262451 -0.017578
vt -0.731445 -0.017578
vt -0.731445 -0.529297
vt -1.157227 -0.017578
vt -0.731445 -0.529297
vt -1.157227 -0.529297
vt -1.157227 -0.017578
vt -1.157227 -0.017578
vt -1.157227 -0.529297
vt -1.625977 -0.017578
vt -1.157227 -0.529297
vt -1.625977 -0.574219
vt -1.625977 -0.017578
vt -1.625977 -0.017578
vt -1.625977 -0.574219
vt -2.212891 -0.018555
vt -1.625977 -0.574219
vt -2.212891 -0.695313
vt -2.212891 -0.018555
vt 0.325195 -0.818359
vt -0.262451 -0.818359
vt 0.325195 -0.774414
vt -0.262451 -0.818359
vt -0.262451 -0.774414
vt 0.325195 -0.774414
vt -0.262451 -0.818359
vt -0.731445 -0.818359
vt -0.262451 -0.774414
vt -0.731445 -0.818359
vt -0.731445 -0.774414
vt -0.262451 -0.774414
vt -1.157227 -0.774414
vt -0.731445 -0.774414
vt -0.731445 -0.818359
vt -1.157227 -0.818359
vt -1.157227 -0.774414
vt -0.731445 -0.818359
vt -1.157227 -0.818359
vt -1.625977 -0.818359
vt -1.157227 -0.774414
vt -1.625977 -0.818359
vt -1.625977 -0.774414
vt -1.157227 -0.774414
vt -1.625977 -0.818359
vt -2.212891 -0.818359
vt -1.625977 -0.774414
vt -2.212891 -0.818359
vt -2.212891 -0.774414
vt -1.625977 -0.774414
vn 0.000000 0.000000 -1.000000
vn 0.000000 0.000000 -1.000000
vn 0.000000 0.000000 -1.000000
vn 0.000000 0.000000 -1.000000
vn 0.000000 0.000000 -1.000000
vn 0.000000 0.000000 -1.000000
vn 0.000000 0.000000 -1.000000
vn 0.000000 0.000000 -1.000000
vn 0.000000 0.000000 -1.000000
vn 0.000000 0.000000 -1.000000
vn 0.000000 0.000000 -1.000000
vn 0.000000 0.000000 -1.000000
vn 0.000000 0.000000 -1.000000
vn 0.000000 0.000000 -1.000000
vn 0.000000 0.000000 -1.000000
vn 0.000000 0.000000 -1.000000
vn 0.000000 0.000000 -1.000000
vn 0.000000 0.000000 -1.000000
vn 0.000000 0.000000 -1.000000
vn 0.000000 0.000000 -1.000000
vn 0.000000 0.000000 -1.000000
vn 0.000000 0.000000 -1.000000
vn 0.000000 0.000000 -1.000000
vn 0.000000 0.000000 -1.000000
vn 0.000000 0.000000 -1.000000
vn 0.000000 0.000000 -1.000000
vn 0.000000 0.000000 -1.000000
vn 0.000000 0.000000 -1.000000
vn 0.000000 0.000000 -1.000000
vn 0.000000 0.000000 -1.000000
vn 0.000000 1.000000 0.000000
vn 0.000000 1.000000 0.000000
vn 0.000000 1.000000 0.000000
vn 0.000000 1.000000 0.000000
vn 0.000000 1.000000 0.000000
vn 0.000000 1.000000 0.000000
vn -1.000000 0.000000 0.000000
vn -1.000000 0.000000 0.000000
vn -1.000000 0.000000 0.000000
vn -1.000000 0.000000 0.000000
vn -1.000000 0.000000 0.000000
vn -1.000000 0.000000 0.000000
vn -1.000000 0.000000 0.000000
vn -1.000000 0.000000 0.000000
vn -1.000000 0.000000 0.000000
vn -1.000000 0.000000 0.000000
vn -1.000000 0.000000 0.000000
vn -1.000000 0.000000 0.000000
vn -1.000000 0.000000 0.000000
vn -1.000000 0.000000 0.000000
vn -1.000000 0.000000 0.000000
vn -1.000000 0.000000 0.000000
vn -1.000000 0.000000 0.000000
vn -1.000000 0.000000 0.000000
vn -1.000000 0.000000 0.000000
vn -1.000000 0.000000 0.000000
vn -1.000000 0.000000 0.000000
vn -1.000000 0.000000 0.000000
vn -1.000000 0.000000 0.000000
vn -1.000000 0.000000 0.000000
vn -1.000000 0.000000 0.000000
vn -1.000000 0.000000 0.000000
vn -1.000000 0.000000 0.000000
vn -1.000000 0.000000 0.000000
vn -1.000000 0.000000 0.000000
vn -1.000000 0.000000 0.000000
vn 0.000000 -1.000000 0.000000
vn 0.000000 -1.000000 0.000000
vn 0.000000 -1.000000 0.000000
vn 0.000000 -1.000000 0.000000
vn 0.000000 -1.000000 0.000000
vn 0.000000 -1.000000 0.000000
vn 1.000000 0.000000 0.000000
vn 1.000000 0.000000 0.000000
vn 1.000000 0.000000 0.000000
vn 1.000000 0.000000 0.000000
vn 1.000000 0.000000 0.000000
vn 1.000000 0.000000 0.000000
vn 1.000000 0.000000 0.000000
vn 1.000000 0.000000 0.000000
vn 1.000000 0.000000 0.000000
vn 1.000000 0.000000 0.000000
vn 1.000000 0.000000 0.000000
vn 1.000000 0.000000 0.000000
vn 1.000000 0.000000 0.000000
vn 1.000000 0.000000 0.000000
vn 1.000000 0.000000 0.000000
vn 1.000000 0.000000 0.000000
vn 1.000000 0.000000 0.000000
vn 1.000000 0.000000 0.000000
vn 1.000000 0.000000 0.000000
vn 1.000000 0.000000 0.000000
vn 1.000000 0.000000 0.000000
vn 1.000000 0.000000 0.000000
vn 1.000000 0.000000 0.000000
vn 1.000000 0.000000 0.000000
vn 1.000000 0.000000 0.000000
vn 1.000000 0.000000 0.000000
vn 1.000000 0.000000 0.000000
vn 1.000000 0.000000 0.000000
vn 1.000000 0.000000 0.000000
vn 1.000000 0.000000 0.000000
vn 0.000000 1.000000 0.000000
vn 0.000000 1.000000 0.000000
vn 0.000000 1.000000 0.000000
vn 0.000000 1.000000 0.000000
vn 0.000000 1.000000 0.000000
vn 0.000000 1.000000 0.000000
vn 0.000000 -1.000000 0.000000
vn 0.000000 -1.000000 0.000000
vn 0.000000 -1.000000 0.000000
vn 0.000000 -1.000000 0.000000
vn 0.000000 -1.000000 0.000000
vn 0.000000 -1.000000 0.000000
vn -1.000000 0.000000 0.000000
vn -1.000000 0.000000 0.000000
vn -1.000000 0.000000 0.000000
vn -1.000000 0.000000 0.000000
vn -1.000000 0.000000 0.000000
vn -1.000000 0.000000 0.000000
vn -1.000000 0.000000 0.000000
vn -1.000000 0.000000 0.000000
vn -1.000000 0.000000 0.000000
vn -1.000000 0.000000 0.000000
vn -1.000000 0.000000 0.000000
vn -1.000000 0.000000 0.000000
vn -1.000000 0.000000 0.000000
vn -1.000000 0.000000 0.000000
vn -1.000000 0.000000 0.000000
vn -1.000000 0.000000 0.000000
vn -1.000000 0.000000 0.000000
vn -1.000000 0.000000 0.000000
vn -1.000000 0.000000 0.000000
vn -1.000000 0.000000 0.000000
vn -1.000000 0.000000 0.000000
vn -1.000000 0.000000 0.000000
vn -1.000000 0.000000 0.000000
vn -1.000000 0.000000 0.000000
vn -1.000000 0.000000 0.000000
vn -1.000000 0.000000 0.000000
vn -1.000000 0.000000 0.000000
vn -1.000000 0.000000 0.000000
vn -1.000000 0.000000 0.000000
vn -1.000000 0.000000 0.000000
vn 1.000000 0.000000 0.000000
vn 1.000000 0.000000 0.000000
vn 1.000000 0.000000 0.000000
vn 1.000000 0.000000 0.000000
vn 1.000000 0.000000 0.000000
vn 1.000000 0.000000 0.000000
vn 1.000000 0.000000 0.000000
vn 1.000000 0.000000 0.000000
vn 1.000000 0.000000 0.000000
vn 1.000000 0.000000 0.000000
vn 1.000000 0.000000 0.000000
vn 1.000000 0.000000 0.000000
vn 1.000000 0.000000 0.000000
vn 1.000000 0.000000 0.000000
vn 1.000000 0.000000 0.000000
vn 1.000000 0.000000 0.000000
vn 1.000000 0.000000 0.000000
vn 1.000000 0.000000 0.000000
vn 1.000000 0.000000 0.000000
vn 1.000000 0.000000 0.000000
vn 1.000000 0.000000 0.000000
vn 1.000000 0.000000 0.000000
vn 1.000000 0.000000 0.000000
vn 1.000000 0.000000 0.000000
vn 1.000000 0.000000 0.000000
vn 1.000000 0.000000 0.000000
vn 1.000000 0.000000 0.000000
vn 1.000000 0.000000 0.000000
vn 1.000000 0.000000 0.000000
vn 1.000000 0.000000 0.000000
vn 0.000000 0.203523 0.978474
vn 0.000000 0.148728 0.988258
vn 0.000000 0.203523 0.978474
vn 0.000000 0.148728 0.988258
vn 0.000000 0.148728 0.988258
vn 0.000000 0.203523 0.978474
vn 0.000000 0.148728 0.988258
vn 0.000000 0.046967 0.998043
vn 0.000000 0.148728 0.988258
vn 0.000000 0.046967 0.998043
vn 0.000000 0.046967 0.998043
vn 0.000000 0.148728 0.988258
vn 0.000000 -0.046967 0.998043
vn 0.000000 0.046967 0.998043
vn 0.000000 0.046967 0.998043
vn 0.000000 -0.046967 0.998043
vn 0.000000 -0.046967 0.998043
vn 0.000000 0.046967 0.998043
vn 0.000000 -0.046967 0.998043
vn 0.000000 -0.148728 0.988258
vn 0.000000 -0.046967 0.998043
vn 0.000000 -0.148728 0.988258
vn 0.000000 -0.148728 0.988258
vn 0.000000 -0.046967 0.998043
vn 0.000000 -0.148728 0.988258
vn 0.000000 -0.203523 0.978474
vn 0.000000 -0.148728 0.988258
vn 0.000000 -0.203523 0.978474
vn 0.000000 -0.203523 0.978474
vn 0.000000 -0.148728 0.988258
mtllib nt_2020_concrete_pattern_02.mtl
g nt_2020_concrete_pattern_02
usemtl nt_2020_concrete_pattern_02
f 3/3/3 2/2/2 1/1/1
f 6/6/6 5/5/5 4/4/4
f 9/9/9 8/8/8 7/7/7
f 12/12/12 11/11/11 10/10/10
f 15/15/15 14/14/14 13/13/13
f 18/18/18 17/17/17 16/16/16
f 21/21/21 20/20/20 19/19/19
f 24/24/24 23/23/23 22/22/22
f 27/27/27 26/26/26 25/25/25
f 30/30/30 29/29/29 28/28/28
f 33/33/33 32/32/32 31/31/31
f 36/36/36 35/35/35 34/34/34
f 39/39/39 38/38/38 37/37/37
f 42/42/42 41/41/41 40/40/40
f 45/45/45 44/44/44 43/43/43
f 48/48/48 47/47/47 46/46/46
f 51/51/51 50/50/50 49/49/49
f 54/54/54 53/53/53 52/52/52
f 57/57/57 56/56/56 55/55/55
f 60/60/60 59/59/59 58/58/58
f 63/63/63 62/62/62 61/61/61
f 66/66/66 65/65/65 64/64/64
f 69/69/69 68/68/68 67/67/67
f 72/72/72 71/71/71 70/70/70
f 75/75/75 74/74/74 73/73/73
f 78/78/78 77/77/77 76/76/76
f 81/81/81 80/80/80 79/79/79
f 84/84/84 83/83/83 82/82/82
f 87/87/87 86/86/86 85/85/85
f 90/90/90 89/89/89 88/88/88
f 93/93/93 92/92/92 91/91/91
f 96/96/96 95/95/95 94/94/94
f 99/99/99 98/98/98 97/97/97
f 102/102/102 101/101/101 100/100/100
mtllib nt_wood_fence.mtl
g nt_wood_fence
usemtl nt_wood_fence
f 105/105/105 104/104/104 103/103/103
f 108/108/108 107/107/107 106/106/106
f 111/111/111 110/110/110 109/109/109
f 114/114/114 113/113/113 112/112/112
f 117/117/117 116/116/116 115/115/115
f 120/120/120 119/119/119 118/118/118
f 123/123/123 122/122/122 121/121/121
f 126/126/126 125/125/125 124/124/124
f 129/129/129 128/128/128 127/127/127
f 132/132/132 131/131/131 130/130/130
f 135/135/135 134/134/134 133/133/133
f 138/138/138 137/137/137 136/136/136
f 141/141/141 140/140/140 139/139/139
f 144/144/144 143/143/143 142/142/142
f 147/147/147 146/146/146 145/145/145
f 150/150/150 149/149/149 148/148/148
f 153/153/153 152/152/152 151/151/151
f 156/156/156 155/155/155 154/154/154
f 159/159/159 158/158/158 157/157/157
f 162/162/162 161/161/161 160/160/160
f 165/165/165 164/164/164 163/163/163
f 168/168/168 167/167/167 166/166/166
f 171/171/171 170/170/170 169/169/169
f 174/174/174 173/173/173 172/172/172
f 177/177/177 176/176/176 175/175/175
f 180/180/180 179/179/179 178/178/178
f 183/183/183 182/182/182 181/181/181
f 186/186/186 185/185/185 184/184/184
f 189/189/189 188/188/188 187/187/187
f 192/192/192 191/191/191 190/190/190
f 195/195/195 194/194/194 193/193/193
f 198/198/198 197/197/197 196/196/196
f 201/201/201 200/200/200 199/199/199
f 204/204/204 203/203/203 202/202/202
