# Generated by Wraith - Game extraction tools
# Please credit DTZxPorter for using it!

v -4.784080 324.063934 24.652306
v -4.784080 324.063934 0.473870
v 4.784080 324.063934 24.652306
v -4.784080 324.063934 0.473870
v 4.784080 324.063934 0.473870
v 4.784080 324.063934 24.652306
v -4.784080 324.063934 0.473870
v -4.784080 324.063934 24.652306
v -4.784080 174.049469 24.740364
v -4.784080 174.049469 0.473870
v -4.784080 324.063934 0.473870
v -4.784080 174.049469 24.740364
v -4.784080 174.049469 0.473870
v -4.784080 174.049469 24.740364
v -4.784080 54.394531 24.772886
v -4.784080 54.396973 0.473870
v -4.784080 174.049469 0.473870
v -4.784080 54.394531 24.772886
v -4.784080 -54.397003 0.473870
v -4.784080 54.396973 0.473870
v -4.784080 54.394531 24.772886
v -4.784080 -54.394550 24.772886
v -4.784080 -54.397003 0.473870
v -4.784080 54.394531 24.772886
v -4.784080 -54.397003 0.473870
v -4.784080 -54.394550 24.772886
v -4.784080 -174.049469 24.740364
v -4.784080 -174.049469 0.473870
v -4.784080 -54.397003 0.473870
v -4.784080 -174.049469 24.740364
v -4.784080 -174.049469 0.473870
v -4.784080 -174.049469 24.740364
v -4.784080 -324.063904 24.652306
v -4.784080 -324.063904 0.473870
v -4.784080 -174.049469 0.473870
v -4.784080 -324.063904 24.652306
v -4.784080 -324.063904 0.473870
v -4.784080 -324.063904 24.652306
v 4.784080 -324.063904 0.473870
v -4.784080 -324.063904 24.652306
v 4.784080 -324.063904 24.652306
v 4.784080 -324.063904 0.473870
v 4.784080 -174.049469 0.473870
v 4.784080 -324.063904 0.473870
v 4.784080 -324.063904 24.652306
v 4.784080 -174.049469 24.740364
v 4.784080 -174.049469 0.473870
v 4.784080 -324.063904 24.652306
v 4.784080 -54.397003 0.473870
v 4.784080 -174.049469 0.473870
v 4.784080 -174.049469 24.740364
v 4.784080 -54.394550 24.772886
v 4.784080 -54.397003 0.473870
v 4.784080 -174.049469 24.740364
v 4.784080 -54.397003 0.473870
v 4.784080 -54.394550 24.772886
v 4.784080 54.396973 0.473870
v 4.784080 -54.394550 24.772886
v 4.784080 54.394531 24.772886
v 4.784080 54.396973 0.473870
v 4.784080 174.049469 0.473870
v 4.784080 54.396973 0.473870
v 4.784080 54.394531 24.772886
v 4.784080 174.049469 24.740364
v 4.784080 174.049469 0.473870
v 4.784080 54.394531 24.772886
v 4.784080 324.063934 0.473870
v 4.784080 174.049469 0.473870
v 4.784080 174.049469 24.740364
v 4.784080 324.063934 24.652306
v 4.784080 324.063934 0.473870
v 4.784080 174.049469 24.740364
v -4.784080 324.063934 123.952454
v -4.784080 324.063934 24.652306
v 4.784080 324.063934 123.952454
v -4.784080 324.063934 24.652306
v 4.784080 324.063934 24.652306
v 4.784080 324.063934 123.952454
v -4.784080 -324.063904 24.652306
v -4.784080 -324.063904 123.952454
v 4.784080 -324.063904 24.652306
v -4.784080 -324.063904 123.952454
v 4.784080 -324.063904 123.952454
v 4.784080 -324.063904 24.652306
v -4.784080 -324.063904 123.952454
v -4.784080 -324.063904 24.652306
v -4.784080 -174.049469 98.136055
v -4.784080 -324.063904 24.652306
v -4.784080 -174.049469 24.740364
v -4.784080 -174.049469 98.136055
v -4.784080 -174.049469 98.136055
v -4.784080 -174.049469 24.740364
v -4.784080 -54.392105 88.602882
v -4.784080 -174.049469 24.740364
v -4.784080 -54.394550 24.772886
v -4.784080 -54.392105 88.602882
v -4.784080 -54.392105 88.602882
v -4.784080 -54.394550 24.772886
v -4.784080 54.392090 88.602882
v -4.784080 -54.394550 24.772886
v -4.784080 54.394531 24.772886
v -4.784080 54.392090 88.602882
v -4.784080 54.394531 24.772886
v -4.784080 174.049469 24.740364
v -4.784080 54.392090 88.602882
v -4.784080 174.049469 24.740364
v -4.784080 174.049469 98.136055
v -4.784080 54.392090 88.602882
v -4.784080 174.049469 24.740364
v -4.784080 324.063934 24.652306
v -4.784080 174.049469 98.136055
v -4.784080 324.063934 24.652306
v -4.784080 324.063934 123.952454
v -4.784080 174.049469 98.136055
v 4.784080 -324.063904 123.952454
v 4.784080 -174.049469 98.136055
v 4.784080 -324.063904 24.652306
v 4.784080 -174.049469 98.136055
v 4.784080 -174.049469 24.740364
v 4.784080 -324.063904 24.652306
v 4.784080 -174.049469 98.136055
v 4.784080 -54.392105 88.602882
v 4.784080 -174.049469 24.740364
v 4.784080 -54.392105 88.602882
v 4.784080 -54.394550 24.772886
v 4.784080 -174.049469 24.740364
v 4.784080 -54.394550 24.772886
v 4.784080 -54.392105 88.602882
v 4.784080 54.394531 24.772886
v 4.784080 -54.392105 88.602882
v 4.784080 54.392090 88.602882
v 4.784080 54.394531 24.772886
v 4.784080 54.394531 24.772886
v 4.784080 54.392090 88.602882
v 4.784080 174.049469 24.740364
v 4.784080 54.392090 88.602882
v 4.784080 174.049469 98.136055
v 4.784080 174.049469 24.740364
v 4.784080 174.049469 24.740364
v 4.784080 174.049469 98.136055
v 4.784080 324.063934 24.652306
v 4.784080 174.049469 98.136055
v 4.784080 324.063934 123.952454
v 4.784080 324.063934 24.652306
v -4.784080 -324.063904 123.952454
v -4.784080 -174.049469 98.136055
v 4.784080 -324.063904 123.952454
v -4.784080 -174.049469 98.136055
v 4.784080 -174.049469 98.136055
v 4.784080 -324.063904 123.952454
v -4.784080 -174.049469 98.136055
v -4.784080 -54.392105 88.602882
v 4.784080 -174.049469 98.136055
v -4.784080 -54.392105 88.602882
v 4.784080 -54.392105 88.602882
v 4.784080 -174.049469 98.136055
v 4.784080 54.392090 88.602882
v 4.784080 -54.392105 88.602882
v -4.784080 -54.392105 88.602882
v -4.784080 54.392090 88.602882
v 4.784080 54.392090 88.602882
v -4.784080 -54.392105 88.602882
v -4.784080 54.392090 88.602882
v -4.784080 174.049469 98.136055
v 4.784080 54.392090 88.602882
v -4.784080 174.049469 98.136055
v 4.784080 174.049469 98.136055
v 4.784080 54.392090 88.602882
v -4.784080 174.049469 98.136055
v -4.784080 324.063934 123.952454
v 4.784080 174.049469 98.136055
v -4.784080 324.063934 123.952454
v 4.784080 324.063934 123.952454
v 4.784080 174.049469 98.136055
vt 0.435547 0.747559
vt 0.340820 0.747559
vt 0.435547 0.785034
vt 0.340820 0.747559
vt 0.340820 0.785034
vt 0.435547 0.785034
vt -1.714844 0.244629
vt -1.714844 0.339844
vt -1.126953 0.339844
vt -1.126953 0.244629
vt -1.714844 0.244629
vt -1.126953 0.339844
vt -1.126953 0.244629
vt -1.126953 0.339844
vt -0.658203 0.339844
vt -0.658203 0.244629
vt -1.126953 0.244629
vt -0.658203 0.339844
vt -0.231934 0.244629
vt -0.658203 0.244629
vt -0.658203 0.339844
vt -0.231934 0.339844
vt -0.231934 0.244629
vt -0.658203 0.339844
vt -0.231934 0.244629
vt -0.231934 0.339844
vt 0.236816 0.339844
vt 0.236816 0.244629
vt -0.231934 0.244629
vt 0.236816 0.339844
vt 0.236816 0.244629
vt 0.236816 0.339844
vt 0.824707 0.339844
vt 0.824707 0.244629
vt 0.236816 0.244629
vt 0.824707 0.339844
vt 0.824707 0.803955
vt 0.729980 0.803955
vt 0.824707 0.841431
vt 0.729980 0.803955
vt 0.729980 0.841431
vt 0.824707 0.841431
vt 0.236816 0.226074
vt 0.824707 0.226074
vt 0.824707 0.131348
vt 0.236816 0.130859
vt 0.236816 0.226074
vt 0.824707 0.131348
vt -0.231934 0.226074
vt 0.236816 0.226074
vt 0.236816 0.130859
vt -0.231934 0.130859
vt -0.231934 0.226074
vt 0.236816 0.130859
vt -0.231934 0.226074
vt -0.231934 0.130859
vt -0.658203 0.226074
vt -0.231934 0.130859
vt -0.658203 0.130859
vt -0.658203 0.226074
vt -1.126953 0.226074
vt -0.658203 0.226074
vt -0.658203 0.130859
vt -1.126953 0.130859
vt -1.126953 0.226074
vt -0.658203 0.130859
vt -1.714844 0.226074
vt -1.126953 0.226074
vt -1.126953 0.130859
vt -1.714844 0.131348
vt -1.714844 0.226074
vt -1.126953 0.130859
vt -0.175171 0.747559
vt -0.563965 0.747559
vt -0.175171 0.785034
vt -0.563965 0.747559
vt -0.563965 0.785034
vt -0.175171 0.785034
vt -0.269775 0.803955
vt -0.658691 0.803955
vt -0.269775 0.841431
vt -0.658691 0.803955
vt -0.658691 0.841431
vt -0.269775 0.841431
vt -0.175171 0.728760
vt -0.175171 0.339844
vt -0.762695 0.627441
vt -0.175171 0.339844
vt -0.762695 0.339844
vt -0.762695 0.627441
vt -0.762695 0.627441
vt -0.762695 0.339844
vt -1.231445 0.590088
vt -0.762695 0.339844
vt -1.231445 0.339844
vt -1.231445 0.590088
vt -1.231445 0.590088
vt -1.231445 0.339844
vt -1.658203 0.590088
vt -1.231445 0.339844
vt -1.658203 0.339844
vt -1.658203 0.590088
vt -1.658203 0.339844
vt -2.126953 0.339844
vt -1.658203 0.590088
vt -2.126953 0.339844
vt -2.126953 0.627441
vt -1.658203 0.590088
vt -2.126953 0.339844
vt -2.714844 0.339844
vt -2.126953 0.627441
vt -2.714844 0.339844
vt -2.714844 0.728760
vt -2.126953 0.627441
vt -0.175171 -0.257813
vt -0.762695 -0.156250
vt -0.175171 0.131348
vt -0.762695 -0.156250
vt -0.762695 0.130859
vt -0.175171 0.131348
vt -0.762695 -0.156250
vt -1.231445 -0.119141
vt -0.762695 0.130859
vt -1.231445 -0.119141
vt -1.231445 0.130859
vt -0.762695 0.130859
vt -1.231445 0.130859
vt -1.231445 -0.119141
vt -1.658203 0.130859
vt -1.231445 -0.119141
vt -1.658203 -0.119141
vt -1.658203 0.130859
vt -1.658203 0.130859
vt -1.658203 -0.119141
vt -2.126953 0.130859
vt -1.658203 -0.119141
vt -2.126953 -0.156250
vt -2.126953 0.130859
vt -2.126953 0.130859
vt -2.126953 -0.156250
vt -2.714844 0.131348
vt -2.126953 -0.156250
vt -2.714844 -0.257813
vt -2.714844 0.131348
vt -0.175171 -0.314453
vt -0.762695 -0.314453
vt -0.175171 -0.277344
vt -0.762695 -0.314453
vt -0.762695 -0.277344
vt -0.175171 -0.277344
vt -0.762695 -0.314453
vt -1.231445 -0.314453
vt -0.762695 -0.277344
vt -1.231445 -0.314453
vt -1.231445 -0.277344
vt -0.762695 -0.277344
vt -1.658203 -0.277344
vt -1.231445 -0.277344
vt -1.231445 -0.314453
vt -1.658203 -0.314453
vt -1.658203 -0.277344
vt -1.231445 -0.314453
vt -1.658203 -0.314453
vt -2.126953 -0.314453
vt -1.658203 -0.277344
vt -2.126953 -0.314453
vt -2.126953 -0.277344
vt -1.658203 -0.277344
vt -2.126953 -0.314453
vt -2.714844 -0.314453
vt -2.126953 -0.277344
vt -2.714844 -0.314453
vt -2.714844 -0.277344
vt -2.126953 -0.277344
vn 0.000000 1.000000 0.000000
vn 0.000000 1.000000 0.000000
vn 0.000000 1.000000 0.000000
vn 0.000000 1.000000 0.000000
vn 0.000000 1.000000 0.000000
vn 0.000000 1.000000 0.000000
vn -1.000000 0.000000 0.000000
vn -1.000000 0.000000 0.000000
vn -1.000000 0.000000 0.000000
vn -1.000000 0.000000 0.000000
vn -1.000000 0.000000 0.000000
vn -1.000000 0.000000 0.000000
vn -1.000000 0.000000 0.000000
vn -1.000000 0.000000 0.000000
vn -1.000000 0.000000 0.000000
vn -1.000000 0.000000 0.000000
vn -1.000000 0.000000 0.000000
vn -1.000000 0.000000 0.000000
vn -1.000000 0.000000 0.000000
vn -1.000000 0.000000 0.000000
vn -1.000000 0.000000 0.000000
vn -1.000000 0.000000 0.000000
vn -1.000000 0.000000 0.000000
vn -1.000000 0.000000 0.000000
vn -1.000000 0.000000 0.000000
vn -1.000000 0.000000 0.000000
vn -1.000000 0.000000 0.000000
vn -1.000000 0.000000 0.000000
vn -1.000000 0.000000 0.000000
vn -1.000000 0.000000 0.000000
vn -1.000000 0.000000 0.000000
vn -1.000000 0.000000 0.000000
vn -1.000000 0.000000 0.000000
vn -1.000000 0.000000 0.000000
vn -1.000000 0.000000 0.000000
vn -1.000000 0.000000 0.000000
vn 0.000000 -1.000000 0.000000
vn 0.000000 -1.000000 0.000000
vn 0.000000 -1.000000 0.000000
vn 0.000000 -1.000000 0.000000
vn 0.000000 -1.000000 0.000000
vn 0.000000 -1.000000 0.000000
vn 1.000000 0.000000 0.000000
vn 1.000000 0.000000 0.000000
vn 1.000000 0.000000 0.000000
vn 1.000000 0.000000 0.000000
vn 1.000000 0.000000 0.000000
vn 1.000000 0.000000 0.000000
vn 1.000000 0.000000 0.000000
vn 1.000000 0.000000 0.000000
vn 1.000000 0.000000 0.000000
vn 1.000000 0.000000 0.000000
vn 1.000000 0.000000 0.000000
vn 1.000000 0.000000 0.000000
vn 1.000000 0.000000 0.000000
vn 1.000000 0.000000 0.000000
vn 1.000000 0.000000 0.000000
vn 1.000000 0.000000 0.000000
vn 1.000000 0.000000 0.000000
vn 1.000000 0.000000 0.000000
vn 1.000000 0.000000 0.000000
vn 1.000000 0.000000 0.000000
vn 1.000000 0.000000 0.000000
vn 1.000000 0.000000 0.000000
vn 1.000000 0.000000 0.000000
vn 1.000000 0.000000 0.000000
vn 1.000000 0.000000 0.000000
vn 1.000000 0.000000 0.000000
vn 1.000000 0.000000 0.000000
vn 1.000000 0.000000 0.000000
vn 1.000000 0.000000 0.000000
vn 1.000000 0.000000 0.000000
vn 0.000000 1.000000 0.000000
vn 0.000000 1.000000 0.000000
vn 0.000000 1.000000 0.000000
vn 0.000000 1.000000 0.000000
vn 0.000000 1.000000 0.000000
vn 0.000000 1.000000 0.000000
vn 0.000000 -1.000000 0.000000
vn 0.000000 -1.000000 0.000000
vn 0.000000 -1.000000 0.000000
vn 0.000000 -1.000000 0.000000
vn 0.000000 -1.000000 0.000000
vn 0.000000 -1.000000 0.000000
vn -1.000000 0.000000 0.000000
vn -1.000000 0.000000 0.000000
vn -1.000000 0.000000 0.000000
vn -1.000000 0.000000 0.000000
vn -1.000000 0.000000 0.000000
vn -1.000000 0.000000 0.000000
vn -1.000000 0.000000 0.000000
vn -1.000000 0.000000 0.000000
vn -1.000000 0.000000 0.000000
vn -1.000000 0.000000 0.000000
vn -1.000000 0.000000 0.000000
vn -1.000000 0.000000 0.000000
vn -1.000000 0.000000 0.000000
vn -1.000000 0.000000 0.000000
vn -1.000000 0.000000 0.000000
vn -1.000000 0.000000 0.000000
vn -1.000000 0.000000 0.000000
vn -1.000000 0.000000 0.000000
vn -1.000000 0.000000 0.000000
vn -1.000000 0.000000 0.000000
vn -1.000000 0.000000 0.000000
vn -1.000000 0.000000 0.000000
vn -1.000000 0.000000 0.000000
vn -1.000000 0.000000 0.000000
vn -1.000000 0.000000 0.000000
vn -1.000000 0.000000 0.000000
vn -1.000000 0.000000 0.000000
vn -1.000000 0.000000 0.000000
vn -1.000000 0.000000 0.000000
vn -1.000000 0.000000 0.000000
vn 1.000000 0.000000 0.000000
vn 1.000000 0.000000 0.000000
vn 1.000000 0.000000 0.000000
vn 1.000000 0.000000 0.000000
vn 1.000000 0.000000 0.000000
vn 1.000000 0.000000 0.000000
vn 1.000000 0.000000 0.000000
vn 1.000000 0.000000 0.000000
vn 1.000000 0.000000 0.000000
vn 1.000000 0.000000 0.000000
vn 1.000000 0.000000 0.000000
vn 1.000000 0.000000 0.000000
vn 1.000000 0.000000 0.000000
vn 1.000000 0.000000 0.000000
vn 1.000000 0.000000 0.000000
vn 1.000000 0.000000 0.000000
vn 1.000000 0.000000 0.000000
vn 1.000000 0.000000 0.000000
vn 1.000000 0.000000 0.000000
vn 1.000000 0.000000 0.000000
vn 1.000000 0.000000 0.000000
vn 1.000000 0.000000 0.000000
vn 1.000000 0.000000 0.000000
vn 1.000000 0.000000 0.000000
vn 1.000000 0.000000 0.000000
vn 1.000000 0.000000 0.000000
vn 1.000000 0.000000 0.000000
vn 1.000000 0.000000 0.000000
vn 1.000000 0.000000 0.000000
vn 1.000000 0.000000 0.000000
vn 0.000000 0.170254 0.986301
vn 0.000000 0.125245 0.992172
vn 0.000000 0.170254 0.986301
vn 0.000000 0.125245 0.992172
vn 0.000000 0.125245 0.992172
vn 0.000000 0.170254 0.986301
vn 0.000000 0.125245 0.992172
vn 0.000000 0.039139 1.000000
vn 0.000000 0.125245 0.992172
vn 0.000000 0.039139 1.000000
vn 0.000000 0.039139 1.000000
vn 0.000000 0.125245 0.992172
vn 0.000000 -0.039139 1.000000
vn 0.000000 0.039139 1.000000
vn 0.000000 0.039139 1.000000
vn 0.000000 -0.039139 1.000000
vn 0.000000 -0.039139 1.000000
vn 0.000000 0.039139 1.000000
vn 0.000000 -0.039139 1.000000
vn 0.000000 -0.125245 0.992172
vn 0.000000 -0.039139 1.000000
vn 0.000000 -0.125245 0.992172
vn 0.000000 -0.125245 0.992172
vn 0.000000 -0.039139 1.000000
vn 0.000000 -0.125245 0.992172
vn 0.000000 -0.170254 0.986301
vn 0.000000 -0.125245 0.992172
vn 0.000000 -0.170254 0.986301
vn 0.000000 -0.170254 0.986301
vn 0.000000 -0.125245 0.992172
mtllib nt_2020_concrete_pattern_02.mtl
g nt_2020_concrete_pattern_02
usemtl nt_2020_concrete_pattern_02
f 3/3/3 2/2/2 1/1/1
f 6/6/6 5/5/5 4/4/4
f 9/9/9 8/8/8 7/7/7
f 12/12/12 11/11/11 10/10/10
f 15/15/15 14/14/14 13/13/13
f 18/18/18 17/17/17 16/16/16
f 21/21/21 20/20/20 19/19/19
f 24/24/24 23/23/23 22/22/22
f 27/27/27 26/26/26 25/25/25
f 30/30/30 29/29/29 28/28/28
f 33/33/33 32/32/32 31/31/31
f 36/36/36 35/35/35 34/34/34
f 39/39/39 38/38/38 37/37/37
f 42/42/42 41/41/41 40/40/40
f 45/45/45 44/44/44 43/43/43
f 48/48/48 47/47/47 46/46/46
f 51/51/51 50/50/50 49/49/49
f 54/54/54 53/53/53 52/52/52
f 57/57/57 56/56/56 55/55/55
f 60/60/60 59/59/59 58/58/58
f 63/63/63 62/62/62 61/61/61
f 66/66/66 65/65/65 64/64/64
f 69/69/69 68/68/68 67/67/67
f 72/72/72 71/71/71 70/70/70
mtllib nt_wood_fence.mtl
g nt_wood_fence
usemtl nt_wood_fence
f 75/75/75 74/74/74 73/73/73
f 78/78/78 77/77/77 76/76/76
f 81/81/81 80/80/80 79/79/79
f 84/84/84 83/83/83 82/82/82
f 87/87/87 86/86/86 85/85/85
f 90/90/90 89/89/89 88/88/88
f 93/93/93 92/92/92 91/91/91
f 96/96/96 95/95/95 94/94/94
f 99/99/99 98/98/98 97/97/97
f 102/102/102 101/101/101 100/100/100
f 105/105/105 104/104/104 103/103/103
f 108/108/108 107/107/107 106/106/106
f 111/111/111 110/110/110 109/109/109
f 114/114/114 113/113/113 112/112/112
f 117/117/117 116/116/116 115/115/115
f 120/120/120 119/119/119 118/118/118
f 123/123/123 122/122/122 121/121/121
f 126/126/126 125/125/125 124/124/124
f 129/129/129 128/128/128 127/127/127
f 132/132/132 131/131/131 130/130/130
f 135/135/135 134/134/134 133/133/133
f 138/138/138 137/137/137 136/136/136
f 141/141/141 140/140/140 139/139/139
f 144/144/144 143/143/143 142/142/142
f 147/147/147 146/146/146 145/145/145
f 150/150/150 149/149/149 148/148/148
f 153/153/153 152/152/152 151/151/151
f 156/156/156 155/155/155 154/154/154
f 159/159/159 158/158/158 157/157/157
f 162/162/162 161/161/161 160/160/160
f 165/165/165 164/164/164 163/163/163
f 168/168/168 167/167/167 166/166/166
f 171/171/171 170/170/170 169/169/169
f 174/174/174 173/173/173 172/172/172
