# Generated by Wraith - Game extraction tools
# Please credit DTZxPorter for using it!

v -4.194165 -0.121425 -5.823184
v -3.510610 2.539428 -4.882380
v -6.803270 -0.121425 -2.232035
v -3.510610 2.539428 -4.882380
v -5.697263 2.539428 -1.872671
v -6.803270 -0.121425 -2.232035
v -6.803270 -0.121425 -2.232035
v -5.697263 2.539428 -1.872671
v -6.803270 -0.121425 2.206833
v -5.697263 2.539428 -1.872671
v -5.697263 2.539428 1.847469
v -6.803270 -0.121425 2.206833
v -6.803270 -0.121425 2.206833
v -5.697263 2.539428 1.847469
v -4.194165 -0.121425 5.797979
v -5.697263 2.539428 1.847469
v -3.510610 2.539428 4.857077
v -4.194165 -0.121425 5.797979
v -4.194165 -0.121425 5.797979
v -3.510610 2.539428 4.857077
v 0.027450 -0.121425 7.169594
v -3.510610 2.539428 4.857077
v 0.027450 2.539428 6.006717
v 0.027450 -0.121425 7.169594
v 0.027450 -0.121425 7.169594
v 0.027450 2.539428 6.006717
v 4.249064 -0.121425 5.797979
v 0.027450 2.539428 6.006717
v 3.565510 2.539428 4.857077
v 4.249064 -0.121425 5.797979
v 4.249064 -0.121425 5.797979
v 3.565510 2.539428 4.857077
v 6.858170 -0.121425 2.206833
v 3.565510 2.539428 4.857077
v 5.752163 2.539428 1.847469
v 6.858170 -0.121425 2.206833
v 6.858170 -0.121425 2.206833
v 5.752163 2.539428 1.847469
v 6.858170 -0.121425 -2.232035
v 5.752163 2.539428 1.847469
v 5.752163 2.539428 -1.872671
v 6.858170 -0.121425 -2.232035
v 6.858170 -0.121425 -2.232035
v 5.752163 2.539428 -1.872671
v 4.249064 -0.121425 -5.823184
v 5.752163 2.539428 -1.872671
v 3.565510 2.539428 -4.882380
v 4.249064 -0.121425 -5.823184
v 4.249064 -0.121425 -5.823184
v 3.565510 2.539428 -4.882380
v 0.027450 -0.121425 -7.194896
v 3.565510 2.539428 -4.882380
v 0.027450 2.539428 -6.031921
v 0.027450 -0.121425 -7.194896
v 0.027450 -0.121425 -7.194896
v 0.027450 2.539428 -6.031921
v -4.194165 -0.121425 -5.823184
v 0.027450 2.539428 -6.031921
v -3.510610 2.539428 -4.882380
v -4.194165 -0.121425 -5.823184
v -3.510610 2.539428 -4.882380
v -2.808778 1.722504 -3.916444
v -5.697263 2.539428 -1.872671
v -2.808778 1.722504 -3.916444
v -4.561662 1.722504 -1.503784
v -5.697263 2.539428 -1.872671
v -5.697263 2.539428 1.847469
v -5.697263 2.539428 -1.872671
v -4.561662 1.722504 -1.503784
v -4.561662 1.722504 1.478483
v -5.697263 2.539428 1.847469
v -4.561662 1.722504 -1.503784
v -4.561662 1.722504 1.478483
v -2.808778 1.722504 3.891140
v -5.697263 2.539428 1.847469
v -2.808778 1.722504 3.891140
v -3.510610 2.539428 4.857077
v -5.697263 2.539428 1.847469
v -3.510610 2.539428 4.857077
v -2.808778 1.722504 3.891140
v 0.027450 2.539428 6.006717
v -2.808778 1.722504 3.891140
v 0.027450 1.722504 4.812716
v 0.027450 2.539428 6.006717
v 0.027450 2.539428 6.006717
v 0.027450 1.722504 4.812716
v 3.565510 2.539428 4.857077
v 0.027450 1.722504 4.812716
v 2.863774 1.722504 3.891140
v 3.565510 2.539428 4.857077
v 3.565510 2.539428 4.857077
v 2.863774 1.722504 3.891140
v 5.752163 2.539428 1.847469
v 2.863774 1.722504 3.891140
v 4.616658 1.722504 1.478483
v 5.752163 2.539428 1.847469
v 5.752163 2.539428 1.847469
v 4.616658 1.722504 1.478483
v 5.752163 2.539428 -1.872671
v 4.616658 1.722504 1.478483
v 4.616658 1.722504 -1.503784
v 5.752163 2.539428 -1.872671
v 5.752163 2.539428 -1.872671
v 4.616658 1.722504 -1.503784
v 3.565510 2.539428 -4.882380
v 4.616658 1.722504 -1.503784
v 2.863774 1.722504 -3.916444
v 3.565510 2.539428 -4.882380
v 3.565510 2.539428 -4.882380
v 2.863774 1.722504 -3.916444
v 0.027450 2.539428 -6.031921
v 2.863774 1.722504 -3.916444
v 0.027450 1.722504 -4.837918
v 0.027450 2.539428 -6.031921
v 0.027450 2.539428 -6.031921
v 0.027450 1.722504 -4.837918
v -3.510610 2.539428 -4.882380
v 0.027450 1.722504 -4.837918
v -2.808778 1.722504 -3.916444
v -3.510610 2.539428 -4.882380
v -2.808778 1.722504 3.891140
v -4.561662 1.722504 1.478483
v 0.027450 1.728170 -0.012601
v -4.561662 1.722504 1.478483
v -4.561662 1.722504 -1.503784
v 0.027450 1.728170 -0.012601
v -4.561662 1.722504 -1.503784
v -2.808778 1.722504 -3.916444
v 0.027450 1.728170 -0.012601
v -2.808778 1.722504 -3.916444
v 0.027450 1.722504 -4.837918
v 0.027450 1.728170 -0.012601
v 0.027450 1.722504 -4.837918
v 2.863774 1.722504 -3.916444
v 0.027450 1.728170 -0.012601
v 2.863774 1.722504 -3.916444
v 4.616658 1.722504 -1.503784
v 0.027450 1.728170 -0.012601
v 4.616658 1.722504 -1.503784
v 4.616658 1.722504 1.478483
v 0.027450 1.728170 -0.012601
v 4.616658 1.722504 1.478483
v 2.863774 1.722504 3.891140
v 0.027450 1.728170 -0.012601
v 2.863774 1.722504 3.891140
v 0.027450 1.722504 4.812716
v 0.027450 1.728170 -0.012601
v 0.027450 1.722504 4.812716
v -2.808778 1.722504 3.891140
v 0.027450 1.728170 -0.012601
vt 0.298340 0.536621
vt 0.109558 0.536621
vt 0.298340 0.788208
vt 0.109558 0.536621
vt 0.109558 0.788208
vt 0.298340 0.788208
vt 0.298340 0.788208
vt 0.109558 0.788208
vt 0.298340 1.032776
vt 0.109558 0.788208
vt 0.109558 1.032776
vt 0.298340 1.032776
vt 0.298340 1.032776
vt 0.109558 1.032776
vt 0.298340 1.277344
vt 0.109558 1.032776
vt 0.109558 1.277344
vt 0.298340 1.277344
vt 0.298340 1.277344
vt 0.109558 1.277344
vt 0.298340 1.521973
vt 0.109558 1.277344
vt 0.109558 1.521973
vt 0.298340 1.521973
vt 0.298340 1.521973
vt 0.109558 1.521973
vt 0.298340 1.766113
vt 0.109558 1.521973
vt 0.109558 1.766113
vt 0.298340 1.766113
vt 0.298340 1.766113
vt 0.109558 1.766113
vt 0.298340 2.010742
vt 0.109558 1.766113
vt 0.109558 2.010742
vt 0.298340 2.010742
vt 0.298340 2.010742
vt 0.109558 2.010742
vt 0.298340 2.254883
vt 0.109558 2.010742
vt 0.109558 2.254883
vt 0.298340 2.254883
vt 0.298340 2.254883
vt 0.109558 2.254883
vt 0.298340 2.500000
vt 0.109558 2.254883
vt 0.109558 2.500000
vt 0.298340 2.500000
vt 0.298340 2.500000
vt 0.109558 2.500000
vt 0.298340 2.744141
vt 0.109558 2.500000
vt 0.109558 2.744141
vt 0.298340 2.744141
vt 0.298340 2.744141
vt 0.109558 2.744141
vt 0.298340 2.989258
vt 0.109558 2.744141
vt 0.109558 2.989258
vt 0.298340 2.989258
vt 0.096008 0.536621
vt 0.002644 0.536621
vt 0.096008 0.788208
vt 0.002644 0.536621
vt 0.002644 0.781982
vt 0.096008 0.788208
vt 0.096008 1.032776
vt 0.096008 0.788208
vt 0.002644 0.781982
vt 0.002644 1.027191
vt 0.096008 1.032776
vt 0.002644 0.781982
vt 0.002644 1.027191
vt 0.002644 1.272461
vt 0.096008 1.032776
vt 0.002644 1.272461
vt 0.096008 1.277344
vt 0.096008 1.032776
vt 0.096008 1.277344
vt 0.002644 1.272461
vt 0.096008 1.521973
vt 0.002644 1.272461
vt 0.002644 1.517578
vt 0.096008 1.521973
vt 0.096008 1.521973
vt 0.002644 1.517578
vt 0.096008 1.766113
vt 0.002644 1.517578
vt 0.002644 1.762695
vt 0.096008 1.766113
vt 0.096008 1.766113
vt 0.002644 1.762695
vt 0.096008 2.010742
vt 0.002644 1.762695
vt 0.002644 2.007813
vt 0.096008 2.010742
vt 0.096008 2.010742
vt 0.002644 2.007813
vt 0.096008 2.254883
vt 0.002644 2.007813
vt 0.002644 2.252930
vt 0.096008 2.254883
vt 0.096008 2.254883
vt 0.002644 2.252930
vt 0.096008 2.500000
vt 0.002644 2.252930
vt 0.002644 2.498047
vt 0.096008 2.500000
vt 0.096008 2.500000
vt 0.002644 2.498047
vt 0.096008 2.744141
vt 0.002644 2.498047
vt 0.002644 2.744141
vt 0.096008 2.744141
vt 0.096008 2.744141
vt 0.002644 2.744141
vt 0.096008 2.989258
vt 0.002644 2.744141
vt 0.002644 2.989258
vt 0.096008 2.989258
vt 0.858887 2.926758
vt 0.986816 2.750977
vt 0.651855 2.642578
vt 0.986816 2.750977
vt 0.986816 2.533203
vt 0.651855 2.642578
vt 0.986816 2.533203
vt 0.858887 2.357422
vt 0.651855 2.642578
vt 0.858887 2.357422
vt 0.651855 2.290039
vt 0.651855 2.642578
vt 0.651855 2.290039
vt 0.445068 2.357422
vt 0.651855 2.642578
vt 0.445068 2.357422
vt 0.317139 2.533203
vt 0.651855 2.642578
vt 0.317139 2.533203
vt 0.317139 2.750977
vt 0.651855 2.642578
vt 0.317139 2.750977
vt 0.445068 2.926758
vt 0.651855 2.642578
vt 0.445068 2.926758
vt 0.651855 2.994141
vt 0.651855 2.642578
vt 0.651855 2.994141
vt 0.858887 2.926758
vt 0.651855 2.642578
vn -0.563601 0.287671 -0.774951
vn -0.381605 0.761252 -0.524462
vn -0.911937 0.287671 -0.295499
vn -0.381605 0.761252 -0.524462
vn -0.616438 0.761252 -0.199609
vn -0.911937 0.287671 -0.295499
vn -0.911937 0.287671 -0.295499
vn -0.616438 0.761252 -0.199609
vn -0.911937 0.287671 0.295499
vn -0.616438 0.761252 -0.199609
vn -0.616438 0.761252 0.199609
vn -0.911937 0.287671 0.295499
vn -0.911937 0.287671 0.295499
vn -0.616438 0.761252 0.199609
vn -0.563601 0.287671 0.774951
vn -0.616438 0.761252 0.199609
vn -0.381605 0.761252 0.524462
vn -0.563601 0.287671 0.774951
vn -0.563601 0.287671 0.774951
vn -0.381605 0.761252 0.524462
vn 0.000000 0.287671 0.958904
vn -0.381605 0.761252 0.524462
vn 0.000000 0.761252 0.647749
vn 0.000000 0.287671 0.958904
vn 0.000000 0.287671 0.958904
vn 0.000000 0.761252 0.647749
vn 0.563601 0.287671 0.774951
vn 0.000000 0.761252 0.647749
vn 0.381605 0.761252 0.524462
vn 0.563601 0.287671 0.774951
vn 0.563601 0.287671 0.774951
vn 0.381605 0.761252 0.524462
vn 0.911937 0.287671 0.295499
vn 0.381605 0.761252 0.524462
vn 0.616438 0.761252 0.199609
vn 0.911937 0.287671 0.295499
vn 0.911937 0.287671 0.295499
vn 0.616438 0.761252 0.199609
vn 0.911937 0.287671 -0.295499
vn 0.616438 0.761252 0.199609
vn 0.616438 0.761252 -0.199609
vn 0.911937 0.287671 -0.295499
vn 0.911937 0.287671 -0.295499
vn 0.616438 0.761252 -0.199609
vn 0.563601 0.287671 -0.774951
vn 0.616438 0.761252 -0.199609
vn 0.381605 0.761252 -0.524462
vn 0.563601 0.287671 -0.774951
vn 0.563601 0.287671 -0.774951
vn 0.381605 0.761252 -0.524462
vn 0.000000 0.287671 -0.958904
vn 0.381605 0.761252 -0.524462
vn 0.000000 0.761252 -0.647749
vn 0.000000 0.287671 -0.958904
vn 0.000000 0.287671 -0.958904
vn 0.000000 0.761252 -0.647749
vn -0.563601 0.287671 -0.774951
vn 0.000000 0.761252 -0.647749
vn -0.381605 0.761252 -0.524462
vn -0.563601 0.287671 -0.774951
vn 0.260274 0.898239 0.356164
vn 0.420744 0.698630 0.579256
vn 0.418787 0.898239 0.136986
vn 0.420744 0.698630 0.579256
vn 0.681018 0.698630 0.221135
vn 0.418787 0.898239 0.136986
vn 0.418787 0.898239 -0.136986
vn 0.418787 0.898239 0.136986
vn 0.681018 0.698630 0.221135
vn 0.681018 0.698630 -0.221135
vn 0.418787 0.898239 -0.136986
vn 0.681018 0.698630 0.221135
vn 0.681018 0.698630 -0.221135
vn 0.420744 0.698630 -0.579256
vn 0.418787 0.898239 -0.136986
vn 0.420744 0.698630 -0.579256
vn 0.260274 0.898239 -0.356164
vn 0.418787 0.898239 -0.136986
vn 0.260274 0.898239 -0.356164
vn 0.420744 0.698630 -0.579256
vn 0.000000 0.898239 -0.440313
vn 0.420744 0.698630 -0.579256
vn 0.000000 0.698630 -0.714286
vn 0.000000 0.898239 -0.440313
vn 0.000000 0.898239 -0.440313
vn 0.000000 0.698630 -0.714286
vn -0.260274 0.898239 -0.356164
vn 0.000000 0.698630 -0.714286
vn -0.420744 0.698630 -0.579256
vn -0.260274 0.898239 -0.356164
vn -0.260274 0.898239 -0.356164
vn -0.420744 0.698630 -0.579256
vn -0.418787 0.898239 -0.136986
vn -0.420744 0.698630 -0.579256
vn -0.681018 0.698630 -0.221135
vn -0.418787 0.898239 -0.136986
vn -0.418787 0.898239 -0.136986
vn -0.681018 0.698630 -0.221135
vn -0.418787 0.898239 0.136986
vn -0.681018 0.698630 -0.221135
vn -0.681018 0.698630 0.221135
vn -0.418787 0.898239 0.136986
vn -0.418787 0.898239 0.136986
vn -0.681018 0.698630 0.221135
vn -0.260274 0.898239 0.356164
vn -0.681018 0.698630 0.221135
vn -0.420744 0.698630 0.579256
vn -0.260274 0.898239 0.356164
vn -0.260274 0.898239 0.356164
vn -0.420744 0.698630 0.579256
vn 0.000000 0.898239 0.440313
vn -0.420744 0.698630 0.579256
vn 0.000000 0.698630 0.714286
vn 0.000000 0.898239 0.440313
vn 0.000000 0.898239 0.440313
vn 0.000000 0.698630 0.714286
vn 0.260274 0.898239 0.356164
vn 0.000000 0.698630 0.714286
vn 0.420744 0.698630 0.579256
vn 0.260274 0.898239 0.356164
vn 0.000000 1.000000 0.001957
vn -0.001957 1.000000 0.000000
vn 0.000000 1.000000 0.000000
vn -0.001957 1.000000 0.000000
vn -0.001957 1.000000 0.000000
vn 0.000000 1.000000 0.000000
vn -0.001957 1.000000 0.000000
vn 0.000000 1.000000 -0.001957
vn 0.000000 1.000000 0.000000
vn 0.000000 1.000000 -0.001957
vn 0.000000 1.000000 -0.001957
vn 0.000000 1.000000 0.000000
vn 0.000000 1.000000 -0.001957
vn 0.000000 1.000000 -0.001957
vn 0.000000 1.000000 0.000000
vn 0.000000 1.000000 -0.001957
vn 0.001957 1.000000 0.000000
vn 0.000000 1.000000 0.000000
vn 0.001957 1.000000 0.000000
vn 0.001957 1.000000 0.000000
vn 0.000000 1.000000 0.000000
vn 0.001957 1.000000 0.000000
vn 0.000000 1.000000 0.001957
vn 0.000000 1.000000 0.000000
vn 0.000000 1.000000 0.001957
vn 0.000000 1.000000 0.001957
vn 0.000000 1.000000 0.000000
vn 0.000000 1.000000 0.001957
vn 0.000000 1.000000 0.001957
vn 0.000000 1.000000 0.000000
mtllib mtl_nt_electrical_oulet.mtl
g mtl_nt_electrical_oulet
usemtl mtl_nt_electrical_oulet
f 3/3/3 2/2/2 1/1/1
f 6/6/6 5/5/5 4/4/4
f 9/9/9 8/8/8 7/7/7
f 12/12/12 11/11/11 10/10/10
f 15/15/15 14/14/14 13/13/13
f 18/18/18 17/17/17 16/16/16
f 21/21/21 20/20/20 19/19/19
f 24/24/24 23/23/23 22/22/22
f 27/27/27 26/26/26 25/25/25
f 30/30/30 29/29/29 28/28/28
f 33/33/33 32/32/32 31/31/31
f 36/36/36 35/35/35 34/34/34
f 39/39/39 38/38/38 37/37/37
f 42/42/42 41/41/41 40/40/40
f 45/45/45 44/44/44 43/43/43
f 48/48/48 47/47/47 46/46/46
f 51/51/51 50/50/50 49/49/49
f 54/54/54 53/53/53 52/52/52
f 57/57/57 56/56/56 55/55/55
f 60/60/60 59/59/59 58/58/58
f 63/63/63 62/62/62 61/61/61
f 66/66/66 65/65/65 64/64/64
f 69/69/69 68/68/68 67/67/67
f 72/72/72 71/71/71 70/70/70
f 75/75/75 74/74/74 73/73/73
f 78/78/78 77/77/77 76/76/76
f 81/81/81 80/80/80 79/79/79
f 84/84/84 83/83/83 82/82/82
f 87/87/87 86/86/86 85/85/85
f 90/90/90 89/89/89 88/88/88
f 93/93/93 92/92/92 91/91/91
f 96/96/96 95/95/95 94/94/94
f 99/99/99 98/98/98 97/97/97
f 102/102/102 101/101/101 100/100/100
f 105/105/105 104/104/104 103/103/103
f 108/108/108 107/107/107 106/106/106
f 111/111/111 110/110/110 109/109/109
f 114/114/114 113/113/113 112/112/112
f 117/117/117 116/116/116 115/115/115
f 120/120/120 119/119/119 118/118/118
f 123/123/123 122/122/122 121/121/121
f 126/126/126 125/125/125 124/124/124
f 129/129/129 128/128/128 127/127/127
f 132/132/132 131/131/131 130/130/130
f 135/135/135 134/134/134 133/133/133
f 138/138/138 137/137/137 136/136/136
f 141/141/141 140/140/140 139/139/139
f 144/144/144 143/143/143 142/142/142
f 147/147/147 146/146/146 145/145/145
f 150/150/150 149/149/149 148/148/148
