# Generated by Wraith - Game extraction tools
# Please credit DTZxPorter for using it!

v 71.119995 35.560013 1.603207
v 71.119995 -35.560005 1.603207
v -71.119995 35.560013 1.603207
v 71.119995 -35.560005 1.603207
v -71.119995 -35.560005 1.603207
v -71.119995 35.560013 1.603207
v 71.119995 35.560013 0.000000
v 71.119995 -35.560005 0.000000
v 71.119995 35.560013 1.603207
v 71.119995 -35.560005 0.000000
v 71.119995 -35.560005 1.603207
v 71.119995 35.560013 1.603207
v -71.119995 35.560013 1.603207
v -71.119995 35.560013 0.000000
v 71.119995 35.560013 1.603207
v -71.119995 35.560013 0.000000
v 71.119995 35.560013 0.000000
v 71.119995 35.560013 1.603207
v -71.119995 -35.560005 0.000000
v -71.119995 35.560013 0.000000
v -71.119995 -35.560005 1.603207
v -71.119995 35.560013 0.000000
v -71.119995 35.560013 1.603207
v -71.119995 -35.560005 1.603207
v 71.119995 -35.560005 1.603207
v 71.119995 -35.560005 0.000000
v -71.119995 -35.560005 1.603207
v 71.119995 -35.560005 0.000000
v -71.119995 -35.560005 0.000000
v -71.119995 -35.560005 1.603207
v 71.119995 35.560013 0.000000
v -71.119995 35.560013 0.000000
v 71.119995 -35.560005 0.000000
v -71.119995 35.560013 0.000000
v -71.119995 -35.560005 0.000000
v 71.119995 -35.560005 0.000000
vt 0.499512 0.000000
vt -0.000485 0.000000
vt 0.499512 1.000000
vt -0.000485 0.000000
vt -0.000485 1.000000
vt 0.499512 1.000000
vt 0.499023 0.464355
vt -0.000152 0.464355
vt 0.499023 0.486816
vt -0.000152 0.464355
vt -0.000152 0.486816
vt 0.499023 0.486816
vt -0.171753 0.998009
vt -0.160034 0.998009
vt -0.171753 0.002441
vt -0.160034 0.998009
vt -0.160034 0.002441
vt -0.171753 0.002441
vt -0.000152 0.464355
vt 0.499023 0.464355
vt -0.000152 0.486816
vt 0.499023 0.464355
vt 0.499023 0.486816
vt -0.000152 0.486816
vt -0.325684 0.002441
vt -0.338135 0.002441
vt -0.325684 0.998009
vt -0.338135 0.002441
vt -0.338135 0.998009
vt -0.325684 0.998009
vt -0.000996 0.998009
vt -0.000996 0.002441
vt -0.498779 0.998009
vt -0.000996 0.002441
vt -0.498779 0.002441
vt -0.498779 0.998009
vn 0.000000 0.000000 1.000000
vn 0.000000 0.000000 1.000000
vn 0.000000 0.000000 1.000000
vn 0.000000 0.000000 1.000000
vn 0.000000 0.000000 1.000000
vn 0.000000 0.000000 1.000000
vn 1.000000 0.000000 0.000000
vn 1.000000 0.000000 0.000000
vn 1.000000 0.000000 0.000000
vn 1.000000 0.000000 0.000000
vn 1.000000 0.000000 0.000000
vn 1.000000 0.000000 0.000000
vn 0.000000 1.000000 0.000000
vn 0.000000 1.000000 0.000000
vn 0.000000 1.000000 0.000000
vn 0.000000 1.000000 0.000000
vn 0.000000 1.000000 0.000000
vn 0.000000 1.000000 0.000000
vn -1.000000 0.000000 0.000000
vn -1.000000 0.000000 0.000000
vn -1.000000 0.000000 0.000000
vn -1.000000 0.000000 0.000000
vn -1.000000 0.000000 0.000000
vn -1.000000 0.000000 0.000000
vn 0.000000 -1.000000 0.000000
vn 0.000000 -1.000000 0.000000
vn 0.000000 -1.000000 0.000000
vn 0.000000 -1.000000 0.000000
vn 0.000000 -1.000000 0.000000
vn 0.000000 -1.000000 0.000000
vn 0.000000 0.000000 -1.000000
vn 0.000000 0.000000 -1.000000
vn 0.000000 0.000000 -1.000000
vn 0.000000 0.000000 -1.000000
vn 0.000000 0.000000 -1.000000
vn 0.000000 0.000000 -1.000000
mtllib nt_2020_hydroponic_floor_holes.mtl
g nt_2020_hydroponic_floor_holes
usemtl nt_2020_hydroponic_floor_holes
f 3/3/3 2/2/2 1/1/1
f 6/6/6 5/5/5 4/4/4
f 9/9/9 8/8/8 7/7/7
f 12/12/12 11/11/11 10/10/10
f 15/15/15 14/14/14 13/13/13
f 18/18/18 17/17/17 16/16/16
f 21/21/21 20/20/20 19/19/19
f 24/24/24 23/23/23 22/22/22
f 27/27/27 26/26/26 25/25/25
f 30/30/30 29/29/29 28/28/28
f 33/33/33 32/32/32 31/31/31
f 36/36/36 35/35/35 34/34/34
