# Generated by Wraith - Game extraction tools
# Please credit DTZxPorter for using it!

v 16.534790 -11.220323 3.437768
v 16.361416 12.454300 3.437768
v 12.335085 -7.990606 0.346906
v 16.361416 12.454300 3.437768
v 12.636530 9.477024 0.346906
v 12.335085 -7.990606 0.346906
v 12.335085 -7.990606 0.346906
v 12.636530 9.477024 0.346906
v 0.099362 9.708380 0.261899
v 0.099362 -8.249613 0.261899
v 12.335085 -7.990606 0.346906
v 0.099362 9.708380 0.261899
v 0.099362 -8.249613 0.261899
v 0.099362 9.708380 0.261899
v -12.718872 -7.858869 0.346906
v 0.099362 9.708380 0.261899
v -13.212673 9.477024 0.346906
v -12.718872 -7.858869 0.346906
v -13.212673 9.477024 0.346906
v -15.341541 9.734488 4.277421
v -12.718872 -7.858869 0.346906
v -15.341541 9.734488 4.277421
v -15.212245 -8.220319 4.277421
v -12.718872 -7.858869 0.346906
v -15.212245 -8.220319 4.277421
v -15.341541 9.734488 4.277421
v -12.380143 -7.858869 8.206786
v -15.341541 9.734488 4.277421
v -12.873941 9.477024 8.206786
v -12.380143 -7.858869 8.206786
v -12.380143 -7.858869 8.206786
v -12.873941 9.477024 8.206786
v 0.099362 9.708380 8.418865
v 0.099362 -8.249613 8.418865
v -12.380143 -7.858869 8.206786
v 0.099362 9.708380 8.418865
v -12.380143 -7.858869 8.206786
v 0.099362 -8.249613 8.418865
v 0.104341 -10.495595 4.277421
v -13.272488 -9.693023 4.277421
v -12.380143 -7.858869 8.206786
v 0.104341 -10.495595 4.277421
v -12.380143 -7.858869 8.206786
v -13.272488 -9.693023 4.277421
v -15.212245 -8.220319 4.277421
v -13.272488 -9.693023 4.277421
v -12.718872 -7.858869 0.346906
v -15.212245 -8.220319 4.277421
v 0.099362 9.708380 8.418865
v -12.873941 9.477024 8.206786
v 0.104341 11.954362 4.277421
v 12.263259 9.477024 7.378522
v 0.099362 9.708380 8.418865
v 0.104341 11.954362 4.277421
v 0.099362 -8.249613 8.418865
v 0.099362 9.708380 8.418865
v 12.263259 9.477024 7.378522
v 12.335085 -7.990606 7.378522
v 0.099362 -8.249613 8.418865
v 12.263259 9.477024 7.378522
v 0.104341 -10.495595 4.277421
v 0.099362 -8.249613 8.418865
v 12.335085 -7.990606 7.378522
v -12.873941 9.477024 8.206786
v -13.915819 11.291374 4.277421
v 0.104341 11.954362 4.277421
v 0.104341 11.954362 4.277421
v -13.915819 11.291374 4.277421
v -13.212673 9.477024 0.346906
v 0.099362 9.708380 0.261899
v 0.104341 11.954362 4.277421
v -13.212673 9.477024 0.346906
v 0.104341 11.954362 4.277421
v 0.099362 9.708380 0.261899
v 12.636530 9.477024 0.346906
v 12.990142 11.647043 4.277421
v 0.104341 11.954362 4.277421
v 12.636530 9.477024 0.346906
v 12.990142 11.647043 4.277421
v 12.263259 9.477024 7.378522
v 0.104341 11.954362 4.277421
v 16.361416 12.454300 3.437768
v 12.263259 9.477024 7.378522
v 12.990142 11.647043 4.277421
v 12.263259 9.477024 7.378522
v 16.361416 12.454300 3.437768
v 12.335085 -7.990606 7.378522
v -13.915819 11.291374 4.277421
v -12.873941 9.477024 8.206786
v -15.341541 9.734488 4.277421
v -15.341541 9.734488 4.277421
v -13.212673 9.477024 0.346906
v -13.915819 11.291374 4.277421
v 12.636530 9.477024 0.346906
v 16.361416 12.454300 3.437768
v 12.990142 11.647043 4.277421
v 16.361416 12.454300 3.437768
v 16.534790 -11.220323 3.437768
v 12.335085 -7.990606 7.378522
v 12.335085 -7.990606 7.378522
v 16.534790 -11.220323 3.437768
v 12.793198 -10.557759 4.277421
v 12.793198 -10.557759 4.277421
v 0.104341 -10.495595 4.277421
v 12.335085 -7.990606 7.378522
v 12.793198 -10.557759 4.277421
v 12.335085 -7.990606 0.346906
v 0.104341 -10.495595 4.277421
v 12.335085 -7.990606 0.346906
v 0.099362 -8.249613 0.261899
v 0.104341 -10.495595 4.277421
v 0.099362 -8.249613 0.261899
v -12.718872 -7.858869 0.346906
v 0.104341 -10.495595 4.277421
v -12.718872 -7.858869 0.346906
v -13.272488 -9.693023 4.277421
v 0.104341 -10.495595 4.277421
v 12.335085 -7.990606 0.346906
v 12.793198 -10.557759 4.277421
v 16.534790 -11.220323 3.437768
v 17.435272 0.006436 3.078820
v 17.516802 -11.101481 2.070085
v 16.534790 -11.220323 3.437768
v 16.150620 0.005779 4.277421
v 17.435272 0.006436 3.078820
v 16.534790 -11.220323 3.437768
v 16.150620 0.005779 4.277421
v 16.361416 12.454300 3.437768
v 17.435272 0.006436 3.078820
v 16.361416 12.454300 3.437768
v 17.343479 12.346991 2.070087
v 17.435272 0.006436 3.078820
vt 0.113953 0.141602
vt 0.625977 0.138672
vt 0.191528 0.013184
vt 0.625977 0.138672
vt 0.570801 0.025391
vt 0.191528 0.013184
vt 0.977539 0.043457
vt 0.735840 0.039551
vt 0.732910 0.202637
vt 0.993164 0.202637
vt 0.977539 0.043457
vt 0.732910 0.202637
vt 0.993164 0.202637
vt 0.732910 0.202637
vt 0.975586 0.379883
vt 0.732910 0.202637
vt 0.735840 0.386719
vt 0.975586 0.379883
vt 0.564453 0.998713
vt 0.570313 0.905884
vt 0.188110 0.998713
vt 0.570313 0.905884
vt 0.180664 0.903809
vt 0.188110 0.998713
vt 0.180664 0.903809
vt 0.570313 0.905884
vt 0.191406 0.795654
vt 0.570313 0.905884
vt 0.569336 0.806030
vt 0.191406 0.795654
vt 0.191406 0.795654
vt 0.569336 0.806030
vt 0.574219 0.524170
vt 0.184448 0.524902
vt 0.191406 0.795654
vt 0.574219 0.524170
vt 0.191406 0.795654
vt 0.184448 0.524902
vt 0.098511 0.522217
vt 0.088562 0.811279
vt 0.191406 0.795654
vt 0.098511 0.522217
vt 0.191406 0.795654
vt 0.088562 0.811279
vt 0.087097 0.863159
vt 0.088562 0.811279
vt 0.003679 0.796265
vt 0.087097 0.863159
vt 0.574219 0.524170
vt 0.569336 0.806030
vt 0.647461 0.521484
vt 0.569336 0.260254
vt 0.574219 0.524170
vt 0.647461 0.521484
vt 0.184448 0.524902
vt 0.574219 0.524170
vt 0.569336 0.260254
vt 0.190186 0.258789
vt 0.184448 0.524902
vt 0.569336 0.260254
vt 0.098511 0.522217
vt 0.184448 0.524902
vt 0.190186 0.258789
vt 0.569336 0.806030
vt 0.669922 0.824829
vt 0.647461 0.521484
vt 0.647461 0.521484
vt 0.669922 0.824829
vt 0.757813 0.802368
vt 0.734375 0.514648
vt 0.647461 0.521484
vt 0.757813 0.802368
vt 0.647461 0.521484
vt 0.734375 0.514648
vt 0.710938 0.243652
vt 0.621094 0.243652
vt 0.647461 0.521484
vt 0.710938 0.243652
vt 0.621094 0.243652
vt 0.569336 0.260254
vt 0.647461 0.521484
vt 0.625977 0.138672
vt 0.569336 0.260254
vt 0.621094 0.243652
vt 0.569336 0.260254
vt 0.625977 0.138672
vt 0.190186 0.258789
vt 0.669922 0.824829
vt 0.569336 0.806030
vt 0.671875 0.863159
vt 0.671875 0.863159
vt 0.757813 0.802368
vt 0.669922 0.824829
vt 0.710938 0.243652
vt 0.625977 0.138672
vt 0.621094 0.243652
vt 0.625977 0.138672
vt 0.113953 0.141602
vt 0.190186 0.258789
vt 0.190186 0.258789
vt 0.113953 0.141602
vt 0.107971 0.253418
vt 0.107971 0.253418
vt 0.098511 0.522217
vt 0.190186 0.258789
vt 0.107971 0.253418
vt 0.022308 0.222168
vt 0.098511 0.522217
vt 0.022308 0.222168
vt 0.011368 0.519287
vt 0.098511 0.522217
vt 0.011368 0.519287
vt 0.003679 0.796265
vt 0.098511 0.522217
vt 0.003679 0.796265
vt 0.088562 0.811279
vt 0.098511 0.522217
vt 0.022308 0.222168
vt 0.107971 0.253418
vt 0.113953 0.141602
vt 0.791504 0.712891
vt 0.771484 0.985962
vt 0.818359 0.991524
vt 0.827637 0.712891
vt 0.791504 0.712891
vt 0.818359 0.991524
vt 0.827637 0.712891
vt 0.818359 0.404297
vt 0.791504 0.712891
vt 0.818359 0.404297
vt 0.771484 0.415039
vt 0.791504 0.712891
vn 0.551859 -0.833659 0.035225
vn 0.489237 0.872798 0.033268
vn 0.391389 -0.401174 -0.827789
vn 0.489237 0.872798 0.033268
vn 0.387476 0.399217 -0.831703
vn 0.391389 -0.401174 -0.827789
vn 0.391389 -0.401174 -0.827789
vn 0.387476 0.399217 -0.831703
vn 0.000000 0.418787 -0.908023
vn 0.000000 -0.420744 -0.908023
vn 0.391389 -0.401174 -0.827789
vn 0.000000 0.418787 -0.908023
vn 0.000000 -0.420744 -0.908023
vn 0.000000 0.418787 -0.908023
vn -0.389432 -0.401174 -0.827789
vn 0.000000 0.418787 -0.908023
vn -0.387476 0.399217 -0.831703
vn -0.389432 -0.401174 -0.827789
vn -0.387476 0.399217 -0.831703
vn -0.929550 0.365949 0.031311
vn -0.389432 -0.401174 -0.827789
vn -0.929550 0.365949 0.031311
vn -0.884540 -0.465753 0.029354
vn -0.389432 -0.401174 -0.827789
vn -0.884540 -0.465753 0.029354
vn -0.929550 0.365949 0.031311
vn -0.389432 -0.401174 0.827789
vn -0.929550 0.365949 0.031311
vn -0.387476 0.399217 0.831703
vn -0.389432 -0.401174 0.827789
vn -0.389432 -0.401174 0.827789
vn -0.387476 0.399217 0.831703
vn 0.000000 0.418787 0.908023
vn 0.000000 -0.420744 0.908023
vn -0.389432 -0.401174 0.827789
vn 0.000000 0.418787 0.908023
vn -0.389432 -0.401174 0.827789
vn 0.000000 -0.420744 0.908023
vn -0.013699 -1.000000 0.009785
vn -0.344423 -0.939335 0.009785
vn -0.389432 -0.401174 0.827789
vn -0.013699 -1.000000 0.009785
vn -0.389432 -0.401174 0.827789
vn -0.344423 -0.939335 0.009785
vn -0.884540 -0.465753 0.029354
vn -0.344423 -0.939335 0.009785
vn -0.389432 -0.401174 -0.827789
vn -0.884540 -0.465753 0.029354
vn 0.000000 0.418787 0.908023
vn -0.387476 0.399217 0.831703
vn 0.000000 1.000000 0.009785
vn 0.387476 0.399217 0.831703
vn 0.000000 0.418787 0.908023
vn 0.000000 1.000000 0.009785
vn 0.000000 -0.420744 0.908023
vn 0.000000 0.418787 0.908023
vn 0.387476 0.399217 0.831703
vn 0.391389 -0.401174 0.827789
vn 0.000000 -0.420744 0.908023
vn 0.387476 0.399217 0.831703
vn -0.013699 -1.000000 0.009785
vn 0.000000 -0.420744 0.908023
vn 0.391389 -0.401174 0.827789
vn -0.387476 0.399217 0.831703
vn -0.422701 0.906067 0.013699
vn 0.000000 1.000000 0.009785
vn 0.000000 1.000000 0.009785
vn -0.422701 0.906067 0.013699
vn -0.387476 0.399217 -0.831703
vn 0.000000 0.418787 -0.908023
vn 0.000000 1.000000 0.009785
vn -0.387476 0.399217 -0.831703
vn 0.000000 1.000000 0.009785
vn 0.000000 0.418787 -0.908023
vn 0.387476 0.399217 -0.831703
vn -0.090020 0.994129 0.046967
vn 0.000000 1.000000 0.009785
vn 0.387476 0.399217 -0.831703
vn -0.090020 0.994129 0.046967
vn 0.387476 0.399217 0.831703
vn 0.000000 1.000000 0.009785
vn 0.489237 0.872798 0.033268
vn 0.387476 0.399217 0.831703
vn -0.090020 0.994129 0.046967
vn 0.387476 0.399217 0.831703
vn 0.489237 0.872798 0.033268
vn 0.391389 -0.401174 0.827789
vn -0.422701 0.906067 0.013699
vn -0.387476 0.399217 0.831703
vn -0.929550 0.365949 0.031311
vn -0.929550 0.365949 0.031311
vn -0.387476 0.399217 -0.831703
vn -0.422701 0.906067 0.013699
vn 0.387476 0.399217 -0.831703
vn 0.489237 0.872798 0.033268
vn -0.090020 0.994129 0.046967
vn 0.489237 0.872798 0.033268
vn 0.551859 -0.833659 0.035225
vn 0.391389 -0.401174 0.827789
vn 0.391389 -0.401174 0.827789
vn 0.551859 -0.833659 0.035225
vn -0.064579 -0.996086 0.050881
vn -0.064579 -0.996086 0.050881
vn -0.013699 -1.000000 0.009785
vn 0.391389 -0.401174 0.827789
vn -0.064579 -0.996086 0.050881
vn 0.391389 -0.401174 -0.827789
vn -0.013699 -1.000000 0.009785
vn 0.391389 -0.401174 -0.827789
vn 0.000000 -0.420744 -0.908023
vn -0.013699 -1.000000 0.009785
vn 0.000000 -0.420744 -0.908023
vn -0.389432 -0.401174 -0.827789
vn -0.013699 -1.000000 0.009785
vn -0.389432 -0.401174 -0.827789
vn -0.344423 -0.939335 0.009785
vn -0.013699 -1.000000 0.009785
vn 0.391389 -0.401174 -0.827789
vn -0.064579 -0.996086 0.050881
vn 0.551859 -0.833659 0.035225
vn 0.749511 0.003914 0.661448
vn 0.749511 -0.039139 0.661448
vn 0.749511 -0.039139 0.661448
vn 0.749511 0.003914 0.661448
vn 0.749511 0.003914 0.661448
vn 0.749511 -0.039139 0.661448
vn 0.749511 0.003914 0.661448
vn 0.749511 0.045010 0.659491
vn 0.749511 0.003914 0.661448
vn 0.749511 0.045010 0.659491
vn 0.749511 0.045010 0.659491
vn 0.749511 0.003914 0.661448
mtllib mtl_p6_bag_spice.mtl
g mtl_p6_bag_spice
usemtl mtl_p6_bag_spice
f 3/3/3 2/2/2 1/1/1
f 6/6/6 5/5/5 4/4/4
f 9/9/9 8/8/8 7/7/7
f 12/12/12 11/11/11 10/10/10
f 15/15/15 14/14/14 13/13/13
f 18/18/18 17/17/17 16/16/16
f 21/21/21 20/20/20 19/19/19
f 24/24/24 23/23/23 22/22/22
f 27/27/27 26/26/26 25/25/25
f 30/30/30 29/29/29 28/28/28
f 33/33/33 32/32/32 31/31/31
f 36/36/36 35/35/35 34/34/34
f 39/39/39 38/38/38 37/37/37
f 42/42/42 41/41/41 40/40/40
f 45/45/45 44/44/44 43/43/43
f 48/48/48 47/47/47 46/46/46
f 51/51/51 50/50/50 49/49/49
f 54/54/54 53/53/53 52/52/52
f 57/57/57 56/56/56 55/55/55
f 60/60/60 59/59/59 58/58/58
f 63/63/63 62/62/62 61/61/61
f 66/66/66 65/65/65 64/64/64
f 69/69/69 68/68/68 67/67/67
f 72/72/72 71/71/71 70/70/70
f 75/75/75 74/74/74 73/73/73
f 78/78/78 77/77/77 76/76/76
f 81/81/81 80/80/80 79/79/79
f 84/84/84 83/83/83 82/82/82
f 87/87/87 86/86/86 85/85/85
f 90/90/90 89/89/89 88/88/88
f 93/93/93 92/92/92 91/91/91
f 96/96/96 95/95/95 94/94/94
f 99/99/99 98/98/98 97/97/97
f 102/102/102 101/101/101 100/100/100
f 105/105/105 104/104/104 103/103/103
f 108/108/108 107/107/107 106/106/106
f 111/111/111 110/110/110 109/109/109
f 114/114/114 113/113/113 112/112/112
f 117/117/117 116/116/116 115/115/115
f 120/120/120 119/119/119 118/118/118
f 123/123/123 122/122/122 121/121/121
f 126/126/126 125/125/125 124/124/124
f 129/129/129 128/128/128 127/127/127
f 132/132/132 131/131/131 130/130/130
