# Generated by Wraith - Game extraction tools
# Please credit DTZxPorter for using it!

v 22.185303 -485.457520 15.239990
v -42.465698 -459.700409 15.239990
v 130.174927 -60.324951 15.239990
v 193.675049 -89.534912 15.239990
v 22.185303 -485.457520 15.239990
v 130.174927 -60.324951 15.239990
v 407.035034 344.804932 15.239990
v 193.675049 -89.534912 15.239990
v 130.174927 -60.324951 15.239990
v 344.804932 377.824951 15.239990
v 407.035034 344.804932 15.239990
v 130.174927 -60.324951 15.239990
v 407.035034 344.804932 15.239990
v 344.804932 377.824951 15.239990
v 367.188812 418.306122 15.239990
v 429.299683 385.048096 15.239990
v 407.035034 344.804932 15.239990
v 367.188812 418.306122 15.239990
v 351.948700 427.315186 7.619995
v 329.565002 386.715332 7.619995
v 130.294006 542.806152 7.619995
v 329.565002 386.715332 7.619995
v 107.314995 501.014862 7.619995
v 130.294006 542.806152 7.619995
v 107.314995 501.014862 7.619995
v 329.565002 386.715332 7.619995
v 113.664909 -52.705078 7.619995
v -113.664978 52.705078 7.619995
v 107.314995 501.014862 7.619995
v 113.664909 -52.705078 7.619995
v -113.664978 52.705078 7.619995
v 113.664909 -52.705078 7.619995
v -290.909424 -357.028809 7.619995
v 113.664909 -52.705078 7.619995
v -58.975708 -452.080292 7.619995
v -290.909424 -357.028809 7.619995
v -130.175049 60.324951 12.699982
v -308.570374 -350.559784 12.699982
v -342.741333 -336.351440 12.699997
v -163.195068 76.834961 12.699982
v -130.175049 60.324951 12.699982
v -342.741333 -336.351440 12.699997
v 92.074951 509.905029 12.699982
v -130.175049 60.324951 12.699982
v -163.195068 76.834961 12.699982
v 59.054932 527.685059 12.699982
v 92.074951 509.905029 12.699982
v -163.195068 76.834961 12.699982
v 92.074951 509.905029 12.699982
v 59.054932 527.685059 12.699982
v 82.153137 569.595215 12.699997
v 114.934929 551.696045 12.699982
v 92.074951 509.905029 12.699982
v 82.153137 569.595215 12.699997
v 130.294006 542.806152 21.589994
v 130.294006 542.806152 7.619995
v 107.314995 501.014862 7.619995
v 107.314995 501.014862 21.589994
v 130.294006 542.806152 21.589994
v 107.314995 501.014862 7.619995
v 107.314995 501.014862 21.589994
v 107.314995 501.014862 7.619995
v -113.664978 52.705078 7.619995
v -113.664978 52.705078 21.589994
v 107.314995 501.014862 21.589994
v -113.664978 52.705078 7.619995
v -113.664978 52.705078 21.589994
v -113.664978 52.705078 7.619995
v -290.909424 -357.028809 7.619995
v -290.909454 -357.028656 21.589994
v -113.664978 52.705078 21.589994
v -290.909424 -357.028809 7.619995
v -42.465698 -459.700409 15.239990
v -42.465698 -459.700409 21.589994
v 130.174927 -60.324951 21.589994
v 130.174927 -60.324951 15.239990
v -42.465698 -459.700409 15.239990
v 130.174927 -60.324951 21.589994
v 130.174927 -60.324951 15.239990
v 130.174927 -60.324951 21.589994
v 344.804932 377.824951 21.589994
v 344.804932 377.824951 15.239990
v 130.174927 -60.324951 15.239990
v 344.804932 377.824951 21.589994
v 344.804932 377.824951 15.239990
v 344.804932 377.824951 21.589994
v 367.188812 418.306122 21.589994
v 367.188812 418.306122 15.239990
v 344.804932 377.824951 15.239990
v 367.188812 418.306122 21.589994
v 351.948700 427.315186 7.619995
v 351.948700 427.315186 21.589994
v 329.565002 386.715057 21.589994
v 329.565002 386.715332 7.619995
v 351.948700 427.315186 7.619995
v 329.565002 386.715057 21.589994
v 329.565002 386.715332 7.619995
v 329.565002 386.715057 21.589994
v 113.664909 -52.705078 21.589994
v 113.664909 -52.705078 7.619995
v 329.565002 386.715332 7.619995
v 113.664909 -52.705078 21.589994
v 113.664909 -52.705078 7.619995
v 113.664909 -52.705078 21.589994
v -58.975708 -452.080292 21.589994
v -58.975708 -452.080292 7.619995
v 113.664909 -52.705078 7.619995
v -58.975708 -452.080292 21.589994
v 114.934929 551.696045 12.699982
v 114.934929 551.696045 21.589994
v 92.074951 509.905029 21.589994
v 92.074951 509.905029 12.699982
v 114.934929 551.696045 12.699982
v 92.074951 509.905029 21.589994
v 92.074951 509.905029 12.699982
v 92.074951 509.905029 21.589994
v -130.175049 60.324951 21.589994
v -130.175049 60.324951 12.699982
v 92.074951 509.905029 12.699982
v -130.175049 60.324951 21.589994
v -130.175049 60.324951 12.699982
v -130.175049 60.324951 21.589994
v -308.570343 -350.559784 21.589994
v -308.570374 -350.559784 12.699982
v -130.175049 60.324951 12.699982
v -308.570343 -350.559784 21.589994
v 329.565002 386.715057 21.589994
v 351.948700 427.315186 21.589994
v 367.188812 418.306122 21.589994
v 344.804932 377.824951 21.589994
v 329.565002 386.715057 21.589994
v 367.188812 418.306122 21.589994
v 113.664909 -52.705078 21.589994
v 329.565002 386.715057 21.589994
v 344.804932 377.824951 21.589994
v 130.174927 -60.324951 21.589994
v 113.664909 -52.705078 21.589994
v 344.804932 377.824951 21.589994
v -58.975708 -452.080292 21.589994
v 113.664909 -52.705078 21.589994
v 130.174927 -60.324951 21.589994
v -42.465698 -459.700409 21.589994
v -58.975708 -452.080292 21.589994
v 130.174927 -60.324951 21.589994
v -308.570343 -350.559784 21.589994
v -130.175049 60.324951 21.589994
v -290.909454 -357.028656 21.589994
v -130.175049 60.324951 21.589994
v -113.664978 52.705078 21.589994
v -290.909454 -357.028656 21.589994
v -113.664978 52.705078 21.589994
v -130.175049 60.324951 21.589994
v 107.314995 501.014862 21.589994
v -130.175049 60.324951 21.589994
v 92.074951 509.905029 21.589994
v 107.314995 501.014862 21.589994
v 107.314995 501.014862 21.589994
v 92.074951 509.905029 21.589994
v 130.294006 542.806152 21.589994
v 92.074951 509.905029 21.589994
v 114.934929 551.696045 21.589994
v 130.294006 542.806152 21.589994
v 42.417297 590.225098 23.018738
v 82.153137 569.595215 22.859985
v 59.054932 527.685059 22.860001
v 19.218628 548.143799 23.018751
v 42.417297 590.225098 23.018738
v 59.054932 527.685059 22.860001
v 19.218628 548.143799 23.018751
v 59.054932 527.685059 22.860001
v -163.195068 76.834961 22.860001
v -203.626633 95.339600 23.018751
v 19.218628 548.143799 23.018751
v -163.195068 76.834961 22.860001
v -203.626633 95.339600 23.018751
v -163.195068 76.834961 22.860001
v -342.741272 -336.351440 22.859985
v -383.694427 -319.384521 23.018738
v -203.626633 95.339600 23.018751
v -342.741272 -336.351440 22.859985
v 82.153137 569.595215 22.859985
v 82.153137 569.595215 12.699997
v 59.054932 527.685059 12.699982
v 59.054932 527.685059 22.860001
v 82.153137 569.595215 22.859985
v 59.054932 527.685059 12.699982
v 59.054932 527.685059 22.860001
v 59.054932 527.685059 12.699982
v -163.195068 76.834961 12.699982
v -163.195068 76.834961 22.860001
v 59.054932 527.685059 22.860001
v -163.195068 76.834961 12.699982
v -163.195068 76.834961 22.860001
v -163.195068 76.834961 12.699982
v -342.741333 -336.351440 12.699997
v -342.741272 -336.351440 22.859985
v -163.195068 76.834961 22.860001
v -342.741333 -336.351440 12.699997
v 42.417236 590.225098 12.858749
v 42.417297 590.225098 23.018738
v 19.218628 548.143799 23.018751
v 19.218628 548.144043 12.858749
v 42.417236 590.225098 12.858749
v 19.218628 548.143799 23.018751
v 19.218628 548.144043 12.858749
v 19.218628 548.143799 23.018751
v -203.626633 95.339600 23.018751
v -203.626633 95.339600 12.858749
v 19.218628 548.144043 12.858749
v -203.626633 95.339600 23.018751
v -203.626633 95.339600 12.858749
v -203.626633 95.339600 23.018751
v -383.694427 -319.384521 23.018738
v -383.694427 -319.384766 12.858734
v -203.626633 95.339600 12.858749
v -383.694427 -319.384521 23.018738
vt -0.071350 0.000000
vt -0.071350 0.164551
vt 0.447021 0.164063
vt 0.447021 0.000000
vt -0.071350 0.000000
vt 0.447021 0.164063
vt 1.027344 0.000000
vt 0.447021 0.000000
vt 0.447021 0.164063
vt 1.027344 0.164551
vt 1.027344 0.000000
vt 0.447021 0.164063
vt 1.027344 0.000000
vt 1.027344 0.164551
vt 1.082031 0.164551
vt 1.082031 0.000000
vt 1.027344 0.000000
vt 1.082031 0.164551
vt 1.082031 0.207031
vt 1.027344 0.207031
vt 1.082031 0.793091
vt 1.027344 0.207031
vt 1.027344 0.793091
vt 1.082031 0.793091
vt 1.027344 0.793091
vt 1.027344 0.207031
vt 0.447021 0.207031
vt 0.447021 0.793091
vt 1.027344 0.793091
vt 0.447021 0.207031
vt 0.447021 0.793091
vt 0.447021 0.207031
vt -0.071350 0.793091
vt 0.447021 0.207031
vt -0.071350 0.207031
vt -0.071350 0.793091
vt 0.447021 0.835938
vt -0.071350 0.836060
vt -0.071350 0.921875
vt 0.447021 0.921875
vt 0.447021 0.835938
vt -0.071350 0.921875
vt 1.027344 0.836060
vt 0.447021 0.835938
vt 0.447021 0.921875
vt 1.027344 0.921875
vt 1.027344 0.836060
vt 0.447021 0.921875
vt 1.027344 0.836060
vt 1.027344 0.921875
vt 1.082031 0.921875
vt 1.082031 0.836060
vt 1.027344 0.836060
vt 1.082031 0.921875
vt 0.364746 0.887024
vt 0.364746 0.226074
vt 0.559082 0.226074
vt 0.559082 0.887024
vt 0.364746 0.887024
vt 0.559082 0.226074
vt 0.559082 0.887024
vt 0.559082 0.226074
vt 2.605469 0.226074
vt 2.605469 0.887024
vt 0.559082 0.887024
vt 2.605469 0.226074
vt 2.605469 0.887024
vt 2.605469 0.226074
vt 4.429688 0.226074
vt 4.429688 0.887024
vt 2.605469 0.887024
vt 4.429688 0.226074
vt -17.718750 0.211426
vt -17.718750 0.954590
vt -15.476563 0.954590
vt -15.476563 0.211426
vt -17.718750 0.211426
vt -15.476563 0.954590
vt -15.476563 0.211426
vt -15.476563 0.954590
vt -12.960938 0.954590
vt -12.960938 0.211426
vt -15.476563 0.211426
vt -12.960938 0.954590
vt -12.960938 0.211426
vt -12.960938 0.954590
vt -12.726563 0.954590
vt -12.726563 0.211426
vt -12.960938 0.211426
vt -12.726563 0.954590
vt 1.038086 0.198242
vt 1.038086 0.943420
vt 1.237305 0.943420
vt 1.237305 0.198242
vt 1.038086 0.198242
vt 1.237305 0.943420
vt 1.237305 0.198242
vt 1.237305 0.943420
vt 3.333984 0.943420
vt 3.333984 0.198242
vt 1.237305 0.198242
vt 3.333984 0.943420
vt 3.333984 0.198242
vt 3.333984 0.943420
vt 5.199219 0.943420
vt 5.199219 0.198242
vt 3.333984 0.198242
vt 5.199219 0.943420
vt 0.364746 0.226074
vt 0.364746 0.887024
vt 0.559082 0.887024
vt 0.559082 0.226074
vt 0.364746 0.226074
vt 0.559082 0.887024
vt 0.559082 0.226074
vt 0.559082 0.887024
vt 2.605469 0.887024
vt 2.605469 0.226074
vt 0.559082 0.226074
vt 2.605469 0.887024
vt 2.605469 0.226074
vt 2.605469 0.887024
vt 4.429688 0.887024
vt 4.429688 0.226074
vt 2.605469 0.226074
vt 4.429688 0.887024
vt -0.021652 0.098633
vt -0.306641 0.098633
vt -0.306641 1.000000
vt -0.021652 1.000000
vt -0.021652 0.098633
vt -0.306641 1.000000
vt 2.988281 0.098633
vt -0.021652 0.098633
vt -0.021652 1.000000
vt 2.988281 1.000000
vt 2.988281 0.098633
vt -0.021652 1.000000
vt 5.664063 0.098633
vt 2.988281 0.098633
vt 2.988281 1.000000
vt 5.664063 1.000000
vt 5.664063 0.098633
vt 2.988281 1.000000
vt -29.062500 1.871582
vt -26.312500 1.871582
vt -29.062500 1.133911
vt -26.312500 1.871582
vt -26.312500 1.133911
vt -29.062500 1.133911
vt -26.312500 1.133911
vt -26.312500 1.871582
vt -23.218750 1.133911
vt -26.312500 1.871582
vt -23.218750 1.871582
vt -23.218750 1.133911
vt -23.218750 1.133911
vt -23.218750 1.871582
vt -22.921875 1.133911
vt -23.218750 1.871582
vt -22.921875 1.871582
vt -22.921875 1.133911
vt 0.381348 0.159668
vt 0.381348 0.861206
vt 0.569336 0.861206
vt 0.569336 0.159668
vt 0.381348 0.159668
vt 0.569336 0.861206
vt 0.569336 0.159668
vt 0.569336 0.861206
vt 2.541016 0.861206
vt 2.541016 0.159668
vt 0.569336 0.159668
vt 2.541016 0.861206
vt 2.541016 0.159668
vt 2.541016 0.861206
vt 4.308594 0.861206
vt 4.308594 0.159668
vt 2.541016 0.159668
vt 4.308594 0.861206
vt 0.381348 0.861206
vt 0.381348 1.020660
vt 0.569336 1.020660
vt 0.569336 0.861206
vt 0.381348 0.861206
vt 0.569336 1.020660
vt 0.569336 0.861206
vt 0.569336 1.020660
vt 2.541016 1.020660
vt 2.541016 0.861206
vt 0.569336 0.861206
vt 2.541016 1.020660
vt 2.541016 0.861206
vt 2.541016 1.020660
vt 4.308594 1.020660
vt 4.308594 0.861206
vt 2.541016 0.861206
vt 4.308594 1.020660
vt 0.381348 0.000000
vt 0.381348 0.159668
vt 0.569336 0.159668
vt 0.569336 0.000000
vt 0.381348 0.000000
vt 0.569336 0.159668
vt 0.569336 0.000000
vt 0.569336 0.159668
vt 2.541016 0.159668
vt 2.541016 0.000000
vt 0.569336 0.000000
vt 2.541016 0.159668
vt 2.541016 0.000000
vt 2.541016 0.159668
vt 4.273438 0.159668
vt 4.273438 0.000000
vt 2.541016 0.000000
vt 4.273438 0.159668
vn 0.000000 0.000000 1.000000
vn 0.000000 0.000000 1.000000
vn 0.000000 0.000000 1.000000
vn 0.000000 0.000000 1.000000
vn 0.000000 0.000000 1.000000
vn 0.000000 0.000000 1.000000
vn 0.000000 0.000000 1.000000
vn 0.000000 0.000000 1.000000
vn 0.000000 0.000000 1.000000
vn 0.000000 0.000000 1.000000
vn 0.000000 0.000000 1.000000
vn 0.000000 0.000000 1.000000
vn 0.000000 0.000000 1.000000
vn 0.000000 0.000000 1.000000
vn 0.000000 0.000000 1.000000
vn 0.000000 0.000000 1.000000
vn 0.000000 0.000000 1.000000
vn 0.000000 0.000000 1.000000
vn 0.000000 0.000000 1.000000
vn 0.000000 0.000000 1.000000
vn 0.000000 0.000000 1.000000
vn 0.000000 0.000000 1.000000
vn 0.000000 0.000000 1.000000
vn 0.000000 0.000000 1.000000
vn 0.000000 0.000000 1.000000
vn 0.000000 0.000000 1.000000
vn 0.000000 0.000000 1.000000
vn 0.000000 0.000000 1.000000
vn 0.000000 0.000000 1.000000
vn 0.000000 0.000000 1.000000
vn 0.000000 0.000000 1.000000
vn 0.000000 0.000000 1.000000
vn 0.000000 0.000000 1.000000
vn 0.000000 0.000000 1.000000
vn 0.000000 0.000000 1.000000
vn 0.000000 0.000000 1.000000
vn 0.000000 0.000000 1.000000
vn 0.000000 0.000000 1.000000
vn 0.000000 0.000000 1.000000
vn 0.000000 0.000000 1.000000
vn 0.000000 0.000000 1.000000
vn 0.000000 0.000000 1.000000
vn 0.000000 0.000000 1.000000
vn 0.000000 0.000000 1.000000
vn 0.000000 0.000000 1.000000
vn 0.000000 0.000000 1.000000
vn 0.000000 0.000000 1.000000
vn 0.000000 0.000000 1.000000
vn 0.000000 0.000000 1.000000
vn 0.000000 0.000000 1.000000
vn 0.000000 0.000000 1.000000
vn 0.000000 0.000000 1.000000
vn 0.000000 0.000000 1.000000
vn 0.000000 0.000000 1.000000
vn 0.876712 -0.481409 0.000000
vn 0.876712 -0.481409 0.000000
vn 0.886497 -0.461840 0.000000
vn 0.886497 -0.461840 0.000000
vn 0.876712 -0.481409 0.000000
vn 0.886497 -0.461840 0.000000
vn 0.886497 -0.461840 0.000000
vn 0.886497 -0.461840 0.000000
vn 0.908023 -0.418787 0.000000
vn 0.908023 -0.418787 0.000000
vn 0.886497 -0.461840 0.000000
vn 0.908023 -0.418787 0.000000
vn 0.908023 -0.418787 0.000000
vn 0.908023 -0.418787 0.000000
vn 0.917808 -0.397260 0.000000
vn 0.917808 -0.397260 0.000000
vn 0.908023 -0.418787 0.000000
vn 0.917808 -0.397260 0.000000
vn 0.917808 -0.397260 0.000000
vn 0.917808 -0.397260 0.000000
vn 0.908023 -0.418787 0.000000
vn 0.908023 -0.418787 0.000000
vn 0.917808 -0.397260 0.000000
vn 0.908023 -0.418787 0.000000
vn 0.908023 -0.418787 0.000000
vn 0.908023 -0.418787 0.000000
vn 0.886497 -0.461840 0.000000
vn 0.886497 -0.461840 0.000000
vn 0.908023 -0.418787 0.000000
vn 0.886497 -0.461840 0.000000
vn 0.886497 -0.461840 0.000000
vn 0.886497 -0.461840 0.000000
vn 0.874755 -0.483366 0.000000
vn 0.874755 -0.483366 0.000000
vn 0.886497 -0.461840 0.000000
vn 0.874755 -0.483366 0.000000
vn -0.874755 0.483366 0.000000
vn -0.874755 0.483366 0.000000
vn -0.886497 0.461840 0.000000
vn -0.886497 0.461840 0.000000
vn -0.874755 0.483366 0.000000
vn -0.886497 0.461840 0.000000
vn -0.886497 0.461840 0.000000
vn -0.886497 0.461840 0.000000
vn -0.908023 0.418787 0.000000
vn -0.908023 0.418787 0.000000
vn -0.886497 0.461840 0.000000
vn -0.908023 0.418787 0.000000
vn -0.908023 0.418787 0.000000
vn -0.908023 0.418787 0.000000
vn -0.917808 0.397260 0.000000
vn -0.917808 0.397260 0.000000
vn -0.908023 0.418787 0.000000
vn -0.917808 0.397260 0.000000
vn -0.876712 0.479452 0.000000
vn -0.876712 0.479452 0.000000
vn -0.886497 0.461840 0.000000
vn -0.886497 0.461840 0.000000
vn -0.876712 0.479452 0.000000
vn -0.886497 0.461840 0.000000
vn -0.886497 0.461840 0.000000
vn -0.886497 0.461840 0.000000
vn -0.908023 0.420744 0.000000
vn -0.908023 0.420744 0.000000
vn -0.886497 0.461840 0.000000
vn -0.908023 0.420744 0.000000
vn -0.908023 0.420744 0.000000
vn -0.908023 0.420744 0.000000
vn -0.917808 0.399217 0.000000
vn -0.917808 0.399217 0.000000
vn -0.908023 0.420744 0.000000
vn -0.917808 0.399217 0.000000
vn 0.000000 0.000000 1.000000
vn 0.000000 0.000000 1.000000
vn 0.000000 0.000000 1.000000
vn 0.000000 0.000000 1.000000
vn 0.000000 0.000000 1.000000
vn 0.000000 0.000000 1.000000
vn 0.000000 0.000000 1.000000
vn 0.000000 0.000000 1.000000
vn 0.000000 0.000000 1.000000
vn 0.000000 0.000000 1.000000
vn 0.000000 0.000000 1.000000
vn 0.000000 0.000000 1.000000
vn 0.000000 0.000000 1.000000
vn 0.000000 0.000000 1.000000
vn 0.000000 0.000000 1.000000
vn 0.000000 0.000000 1.000000
vn 0.000000 0.000000 1.000000
vn 0.000000 0.000000 1.000000
vn 0.000000 0.000000 1.000000
vn 0.000000 0.000000 1.000000
vn 0.000000 0.000000 1.000000
vn 0.000000 0.000000 1.000000
vn 0.000000 0.000000 1.000000
vn 0.000000 0.000000 1.000000
vn 0.000000 0.000000 1.000000
vn 0.000000 0.000000 1.000000
vn 0.000000 0.000000 1.000000
vn 0.000000 0.000000 1.000000
vn 0.000000 0.000000 1.000000
vn 0.000000 0.000000 1.000000
vn 0.000000 0.000000 1.000000
vn 0.000000 0.000000 1.000000
vn 0.000000 0.000000 1.000000
vn 0.000000 0.000000 1.000000
vn 0.000000 0.000000 1.000000
vn 0.000000 0.000000 1.000000
vn 0.003914 -0.001957 1.000000
vn 0.003914 -0.001957 1.000000
vn 0.003914 -0.001957 1.000000
vn 0.003914 -0.001957 1.000000
vn 0.003914 -0.001957 1.000000
vn 0.003914 -0.001957 1.000000
vn 0.003914 -0.001957 1.000000
vn 0.003914 -0.001957 1.000000
vn 0.003914 -0.001957 1.000000
vn 0.003914 -0.001957 1.000000
vn 0.003914 -0.001957 1.000000
vn 0.003914 -0.001957 1.000000
vn 0.003914 -0.001957 1.000000
vn 0.003914 -0.001957 1.000000
vn 0.003914 -0.001957 1.000000
vn 0.003914 -0.001957 1.000000
vn 0.003914 -0.001957 1.000000
vn 0.003914 -0.001957 1.000000
vn 0.876712 -0.483366 0.000000
vn 0.876712 -0.483366 0.000000
vn 0.886497 -0.461840 0.000000
vn 0.886497 -0.461840 0.000000
vn 0.876712 -0.483366 0.000000
vn 0.886497 -0.461840 0.000000
vn 0.886497 -0.461840 0.000000
vn 0.886497 -0.461840 0.000000
vn 0.908023 -0.420744 0.000000
vn 0.908023 -0.420744 0.000000
vn 0.886497 -0.461840 0.000000
vn 0.908023 -0.420744 0.000000
vn 0.908023 -0.420744 0.000000
vn 0.908023 -0.420744 0.000000
vn 0.917808 -0.399217 0.000000
vn 0.917808 -0.399217 0.000000
vn 0.908023 -0.420744 0.000000
vn 0.917808 -0.399217 0.000000
vn -0.876712 0.483366 0.000000
vn -0.876712 0.483366 0.000000
vn -0.886497 0.461840 0.000000
vn -0.886497 0.461840 0.000000
vn -0.876712 0.483366 0.000000
vn -0.886497 0.461840 0.000000
vn -0.886497 0.461840 0.000000
vn -0.886497 0.461840 0.000000
vn -0.908023 0.420744 0.000000
vn -0.908023 0.420744 0.000000
vn -0.886497 0.461840 0.000000
vn -0.908023 0.420744 0.000000
vn -0.908023 0.420744 0.000000
vn -0.908023 0.420744 0.000000
vn -0.917808 0.399217 0.000000
vn -0.917808 0.399217 0.000000
vn -0.908023 0.420744 0.000000
vn -0.917808 0.399217 0.000000
mtllib metal_aircraft_catapult_strip.mtl
g metal_aircraft_catapult_strip
usemtl metal_aircraft_catapult_strip
f 3/3/3 2/2/2 1/1/1
f 6/6/6 5/5/5 4/4/4
f 9/9/9 8/8/8 7/7/7
f 12/12/12 11/11/11 10/10/10
f 15/15/15 14/14/14 13/13/13
f 18/18/18 17/17/17 16/16/16
f 21/21/21 20/20/20 19/19/19
f 24/24/24 23/23/23 22/22/22
f 27/27/27 26/26/26 25/25/25
f 30/30/30 29/29/29 28/28/28
f 33/33/33 32/32/32 31/31/31
f 36/36/36 35/35/35 34/34/34
f 39/39/39 38/38/38 37/37/37
f 42/42/42 41/41/41 40/40/40
f 45/45/45 44/44/44 43/43/43
f 48/48/48 47/47/47 46/46/46
f 51/51/51 50/50/50 49/49/49
f 54/54/54 53/53/53 52/52/52
mtllib railroadtrack_side.mtl
g railroadtrack_side
usemtl railroadtrack_side
f 57/57/57 56/56/56 55/55/55
f 60/60/60 59/59/59 58/58/58
f 63/63/63 62/62/62 61/61/61
f 66/66/66 65/65/65 64/64/64
f 69/69/69 68/68/68 67/67/67
f 72/72/72 71/71/71 70/70/70
f 75/75/75 74/74/74 73/73/73
f 78/78/78 77/77/77 76/76/76
f 81/81/81 80/80/80 79/79/79
f 84/84/84 83/83/83 82/82/82
f 87/87/87 86/86/86 85/85/85
f 90/90/90 89/89/89 88/88/88
f 93/93/93 92/92/92 91/91/91
f 96/96/96 95/95/95 94/94/94
f 99/99/99 98/98/98 97/97/97
f 102/102/102 101/101/101 100/100/100
f 105/105/105 104/104/104 103/103/103
f 108/108/108 107/107/107 106/106/106
f 111/111/111 110/110/110 109/109/109
f 114/114/114 113/113/113 112/112/112
f 117/117/117 116/116/116 115/115/115
f 120/120/120 119/119/119 118/118/118
f 123/123/123 122/122/122 121/121/121
f 126/126/126 125/125/125 124/124/124
mtllib railroadtrack_top.mtl
g railroadtrack_top
usemtl railroadtrack_top
f 129/129/129 128/128/128 127/127/127
f 132/132/132 131/131/131 130/130/130
f 135/135/135 134/134/134 133/133/133
f 138/138/138 137/137/137 136/136/136
f 141/141/141 140/140/140 139/139/139
f 144/144/144 143/143/143 142/142/142
f 147/147/147 146/146/146 145/145/145
f 150/150/150 149/149/149 148/148/148
f 153/153/153 152/152/152 151/151/151
f 156/156/156 155/155/155 154/154/154
f 159/159/159 158/158/158 157/157/157
f 162/162/162 161/161/161 160/160/160
mtllib dub_concrete_wall_01_trim_clean.mtl
g dub_concrete_wall_01_trim_clean
usemtl dub_concrete_wall_01_trim_clean
f 165/165/165 164/164/164 163/163/163
f 168/168/168 167/167/167 166/166/166
f 171/171/171 170/170/170 169/169/169
f 174/174/174 173/173/173 172/172/172
f 177/177/177 176/176/176 175/175/175
f 180/180/180 179/179/179 178/178/178
f 183/183/183 182/182/182 181/181/181
f 186/186/186 185/185/185 184/184/184
f 189/189/189 188/188/188 187/187/187
f 192/192/192 191/191/191 190/190/190
f 195/195/195 194/194/194 193/193/193
f 198/198/198 197/197/197 196/196/196
f 201/201/201 200/200/200 199/199/199
f 204/204/204 203/203/203 202/202/202
f 207/207/207 206/206/206 205/205/205
f 210/210/210 209/209/209 208/208/208
f 213/213/213 212/212/212 211/211/211
f 216/216/216 215/215/215 214/214/214
