# Generated by Wraith - Game extraction tools
# Please credit DTZxPorter for using it!

v 37.584698 28.145012 48.217670
v 37.988125 27.870522 48.512497
v 36.922016 27.434858 48.158909
v -36.411209 -23.581467 48.045395
v -36.479294 -23.306976 48.832474
v -35.748520 -22.777863 48.169701
v -36.402740 28.216354 48.217670
v -36.128250 28.429108 48.935272
v -35.748520 27.434858 48.158909
v 37.988125 -23.309860 48.512505
v 37.564499 -23.552382 48.169800
v 36.922016 -22.777863 48.169693
v 37.509483 28.429108 48.935272
v 37.584698 28.145012 48.217670
v 36.922016 27.434858 48.158909
v -36.479294 28.177019 48.832474
v -36.402740 28.216354 48.217670
v -35.748520 27.434858 48.158909
v 37.584702 28.154625 0.070846
v 37.584698 28.145012 48.217670
v -36.411209 28.154625 0.070846
v 37.584698 28.145012 48.217670
v -36.402740 28.216354 48.217670
v -36.411209 28.154625 0.070846
v 37.564499 -23.552382 48.169800
v 37.584702 -23.570068 0.070846
v -36.411209 -23.581467 48.045395
v 37.584702 -23.570068 0.070846
v -36.411209 -23.570068 0.070846
v -36.411209 -23.581467 48.045395
v 37.584702 -23.570068 0.070846
v 37.564499 -23.552382 48.169800
v 37.584702 28.154625 0.070846
v 37.564499 -23.552382 48.169800
v 37.584698 28.145012 48.217670
v 37.584702 28.154625 0.070846
v -36.402740 28.216354 48.217670
v -36.411209 -23.581467 48.045395
v -36.411209 28.154625 0.070846
v -36.411209 -23.581467 48.045395
v -36.411209 -23.570068 0.070846
v -36.411209 28.154625 0.070846
v -36.411209 28.154625 0.070846
v -36.411209 -23.570068 0.070846
v 37.584702 28.154625 0.070846
v -36.411209 -23.570068 0.070846
v 37.584702 -23.570068 0.070846
v 37.584702 28.154625 0.070846
v -35.748520 -22.777863 48.169701
v -34.249023 -22.673943 0.757108
v 36.922016 -22.777863 48.169693
v -34.249023 -22.673943 0.757108
v 35.422516 -22.673943 0.757103
v 36.922016 -22.777863 48.169693
v -34.249023 -22.673943 0.757108
v -34.249023 27.491928 0.762300
v 35.422516 -22.673943 0.757103
v -34.249023 27.491928 0.762300
v 35.422516 27.491928 0.762295
v 35.422516 -22.673943 0.757103
v 35.422516 27.491928 0.762295
v 36.922016 27.434858 48.158909
v 35.422516 -22.673943 0.757103
v 36.922016 27.434858 48.158909
v 36.922016 -22.777863 48.169693
v 35.422516 -22.673943 0.757103
v -35.748520 -22.777863 48.169701
v -35.748520 27.434858 48.158909
v -34.249023 -22.673943 0.757108
v -35.748520 27.434858 48.158909
v -34.249023 27.491928 0.762300
v -34.249023 -22.673943 0.757108
v -35.748520 27.434858 48.158909
v 36.922016 27.434858 48.158909
v -34.249023 27.491928 0.762300
v 36.922016 27.434858 48.158909
v 35.422516 27.491928 0.762295
v -34.249023 27.491928 0.762300
v 37.509483 28.429108 48.935272
v 36.922016 27.434858 48.158909
v -36.128250 28.429108 48.935272
v 36.922016 27.434858 48.158909
v -35.748520 27.434858 48.158909
v -36.128250 28.429108 48.935272
v 37.988125 -23.309860 48.512505
v 36.922016 -22.777863 48.169693
v 37.988125 27.870522 48.512497
v 36.922016 -22.777863 48.169693
v 36.922016 27.434858 48.158909
v 37.988125 27.870522 48.512497
v -36.479294 28.177019 48.832474
v -35.748520 27.434858 48.158909
v -36.479294 -23.306976 48.832474
v -35.748520 27.434858 48.158909
v -35.748520 -22.777863 48.169701
v -36.479294 -23.306976 48.832474
v -36.479294 -23.306976 48.832474
v -53.261002 -23.444206 32.318645
v -36.479294 28.177019 48.832474
v -53.261002 -23.444206 32.318645
v -53.261002 28.314281 32.318645
v -36.479294 28.177019 48.832474
v -36.411209 -23.581467 48.045395
v -36.402740 28.216354 48.217670
v -53.261002 -23.444206 32.318645
v -36.402740 28.216354 48.217670
v -53.261002 28.314281 32.318645
v -53.261002 -23.444206 32.318645
v 37.988125 -23.309860 48.512505
v 37.988125 27.870522 48.512497
v 43.179466 -22.638678 26.839918
v 37.988125 27.870522 48.512497
v 43.179466 28.007767 26.839912
v 43.179466 -22.638678 26.839918
v 37.564499 -23.552382 48.169800
v 43.179466 -22.638678 26.839918
v 37.584698 28.145012 48.217670
v 43.179466 -22.638678 26.839918
v 43.179466 28.007767 26.839912
v 37.584698 28.145012 48.217670
v -36.411209 -23.581467 48.045395
v -35.497505 -4.488830 65.955795
v 17.595324 -4.333573 64.868973
v 37.564499 -23.552382 48.169800
v -36.411209 -23.581467 48.045395
v 17.595324 -4.333573 64.868973
v 17.595324 -4.333573 64.868973
v 36.670998 -5.963790 66.382751
v 37.564499 -23.552382 48.169800
v 17.595324 -4.333573 64.868973
v -35.497505 -4.488830 65.955795
v -35.748520 -22.777863 48.169701
v 36.922016 -22.777863 48.169693
v 17.595324 -4.333573 64.868973
v -35.748520 -22.777863 48.169701
v 36.922016 -22.777863 48.169693
v 36.670998 -5.963790 66.382751
v 17.595324 -4.333573 64.868973
v -36.128250 28.429108 48.935272
v -36.265495 45.120178 37.195526
v -19.245148 45.120178 32.643364
v -36.128250 28.429108 48.935272
v -19.245148 45.120178 32.643364
v 37.509483 28.429108 48.935272
v -19.245148 45.120178 32.643364
v 37.646729 45.120178 32.643364
v 37.509483 28.429108 48.935272
v -19.245148 45.120178 32.643364
v -36.265495 45.120178 37.195526
v -36.402740 28.216354 48.217670
v -36.402740 28.216354 48.217670
v 37.584698 28.145012 48.217670
v -19.245148 45.120178 32.643364
v 37.584698 28.145012 48.217670
v 37.646729 45.120178 32.643364
v -19.245148 45.120178 32.643364
v -36.674728 20.631180 7.707765
v -36.674728 20.631180 1.419893
v -36.674728 25.631180 7.707765
v -36.674728 20.631180 1.419893
v -36.674728 25.631180 1.419893
v -36.674728 25.631180 7.707765
v -36.674728 -21.463881 7.707765
v -36.674728 -21.463881 1.419893
v -36.674728 -16.463881 7.707765
v -36.674728 -21.463881 1.419893
v -36.674728 -16.463881 1.419893
v -36.674728 -16.463881 7.707765
v 37.802963 20.631180 7.707765
v 37.802963 25.631180 7.707765
v 37.802963 20.631180 1.419893
v 37.802963 25.631180 7.707765
v 37.802963 25.631180 1.419893
v 37.802963 20.631180 1.419893
v 37.802963 -21.463881 7.707765
v 37.802963 -16.463881 7.707765
v 37.802963 -21.463881 1.419893
v 37.802963 -16.463881 7.707765
v 37.802963 -16.463881 1.419893
v 37.802963 -21.463881 1.419893
v -31.961615 28.356882 24.994034
v -31.961615 28.356882 3.697491
v -14.993508 28.356882 24.994034
v -31.961615 28.356882 3.697491
v -14.993508 28.356882 3.697491
v -14.993508 28.356882 24.994034
vt 0.586914 0.821533
vt 0.590820 0.819336
vt 0.589355 0.821533
vt 0.900879 0.821899
vt 0.896484 0.817383
vt 0.898438 0.821533
vt 0.000085 0.827759
vt 0.001773 0.817993
vt 0.000000 0.827759
vt 0.896484 0.819336
vt 0.900879 0.821533
vt 0.898438 0.821533
vt 0.443848 0.817993
vt 0.445557 0.827759
vt 0.446289 0.827759
vt 0.590820 0.817383
vt 0.586914 0.821899
vt 0.589355 0.821533
vt 0.509277 0.002441
vt 0.509277 0.294434
vt 0.959473 0.002441
vt 0.509277 0.294434
vt 0.959473 0.293945
vt 0.959473 0.002441
vt 0.454346 0.615967
vt 0.454346 0.324219
vt 0.004074 0.615479
vt 0.454346 0.324219
vt 0.004074 0.324219
vt 0.004074 0.615479
vt 0.468018 0.304688
vt 0.468018 0.596680
vt 0.776855 0.304688
vt 0.468018 0.596680
vt 0.776855 0.596680
vt 0.776855 0.304688
vt 0.776855 0.595947
vt 0.468018 0.595947
vt 0.776855 0.304688
vt 0.468018 0.595947
vt 0.468018 0.304688
vt 0.776855 0.304688
vt 0.003510 0.005859
vt 0.003510 0.316895
vt 0.450928 0.005859
vt 0.003510 0.316895
vt 0.450928 0.316895
vt 0.450928 0.005859
vt 0.005760 0.615967
vt 0.014984 0.324219
vt 0.452637 0.615967
vt 0.014984 0.324219
vt 0.443359 0.324219
vt 0.452637 0.615967
vt 0.466553 0.297852
vt 0.466553 0.001953
vt 0.895020 0.297852
vt 0.466553 0.001953
vt 0.895020 0.001953
vt 0.895020 0.297852
vt 0.374512 0.323242
vt 0.380859 0.614746
vt 0.078552 0.323242
vt 0.380859 0.614746
vt 0.072144 0.614746
vt 0.078552 0.323242
vt 0.072144 0.614746
vt 0.380859 0.614746
vt 0.078552 0.323242
vt 0.380859 0.614746
vt 0.374512 0.323242
vt 0.078552 0.323242
vt 0.510742 0.294434
vt 0.958008 0.294434
vt 0.520020 0.002930
vt 0.958008 0.294434
vt 0.948730 0.002930
vt 0.520020 0.002930
vt 0.443848 0.817993
vt 0.446289 0.827759
vt 0.001773 0.817993
vt 0.446289 0.827759
vt 0.000000 0.827759
vt 0.001773 0.817993
vt 0.896484 0.819336
vt 0.898438 0.821533
vt 0.590820 0.819336
vt 0.898438 0.821533
vt 0.589355 0.821533
vt 0.590820 0.819336
vt 0.590820 0.817383
vt 0.589355 0.821533
vt 0.896484 0.817383
vt 0.589355 0.821533
vt 0.898438 0.821533
vt 0.896484 0.817383
vt 0.896484 0.817383
vt 0.896484 0.973480
vt 0.590820 0.817383
vt 0.896484 0.973480
vt 0.590820 0.973480
vt 0.590820 0.817383
vt 0.900879 0.821899
vt 0.586914 0.821899
vt 0.898438 0.976807
vt 0.586914 0.821899
vt 0.589355 0.976807
vt 0.898438 0.976807
vt 0.896484 0.819336
vt 0.590820 0.819336
vt 0.896484 0.971909
vt 0.590820 0.819336
vt 0.590820 0.971909
vt 0.896484 0.971909
vt 0.900879 0.821533
vt 0.898438 0.974884
vt 0.586914 0.821533
vt 0.898438 0.974884
vt 0.589355 0.974884
vt 0.586914 0.821533
vt 0.000000 0.821289
vt 0.000000 0.996134
vt 0.325684 0.996134
vt 0.444580 0.821289
vt 0.000000 0.821289
vt 0.325684 0.996134
vt 0.325684 0.996134
vt 0.444580 0.996134
vt 0.444580 0.821289
vt 0.327393 0.976944
vt 0.000859 0.976944
vt 0.000000 0.818237
vt 0.445313 0.818237
vt 0.327393 0.976944
vt 0.000000 0.818237
vt 0.445313 0.818237
vt 0.443115 0.976944
vt 0.327393 0.976944
vt 0.001773 0.817993
vt 0.001773 0.977890
vt 0.105713 0.977890
vt 0.001773 0.817993
vt 0.105713 0.977890
vt 0.443848 0.817993
vt 0.105713 0.977890
vt 0.443848 0.977890
vt 0.443848 0.817993
vt 0.096008 0.997171
vt 0.000085 0.997171
vt 0.000085 0.827759
vt 0.000085 0.827759
vt 0.445557 0.827759
vt 0.096008 0.997171
vt 0.445557 0.827759
vt 0.445557 0.997171
vt 0.096008 0.997171
vt 0.381592 0.549805
vt 0.381592 0.285156
vt 0.000671 0.549805
vt 0.381592 0.285156
vt 0.000671 0.285156
vt 0.000671 0.549805
vt 0.381592 0.549805
vt 0.381592 0.285156
vt 0.000671 0.549805
vt 0.381592 0.285156
vt 0.000671 0.285156
vt 0.000671 0.549805
vt 0.004253 0.549805
vt 0.378174 0.549805
vt 0.004253 0.285156
vt 0.378174 0.549805
vt 0.378174 0.285156
vt 0.004253 0.285156
vt 0.004253 0.549805
vt 0.378174 0.549805
vt 0.004253 0.285156
vt 0.378174 0.549805
vt 0.378174 0.285156
vt 0.004253 0.285156
vt 0.993652 1.000000
vt 0.993652 0.581787
vt 0.419189 1.000000
vt 0.993652 0.581787
vt 0.419189 0.581787
vt 0.419189 1.000000
vn -0.410959 0.313112 0.855186
vn -0.410959 0.313112 0.855186
vn -0.410959 0.313112 0.855186
vn 0.718200 -0.636008 0.283757
vn 0.718200 -0.636008 0.283757
vn 0.718200 -0.636008 0.283757
vn -0.673190 -0.596869 0.434442
vn -0.673190 -0.596869 0.434442
vn -0.673190 -0.596869 0.434442
vn -0.446184 -0.369863 0.814090
vn -0.446184 -0.369863 0.814090
vn -0.446184 -0.369863 0.814090
vn 0.675147 -0.657534 0.330724
vn 0.675147 -0.657534 0.330724
vn 0.675147 -0.657534 0.330724
vn 0.765166 0.630137 0.135029
vn 0.765166 0.630137 0.135029
vn 0.765166 0.630137 0.135029
vn 0.000000 1.000000 0.000000
vn 0.000000 1.000000 0.000000
vn 0.000000 1.000000 0.000000
vn 0.000000 1.000000 0.000000
vn 0.000000 1.000000 0.000000
vn 0.000000 1.000000 0.000000
vn 0.000000 -1.000000 0.000000
vn 0.000000 -1.000000 0.000000
vn 0.000000 -1.000000 0.000000
vn 0.000000 -1.000000 0.000000
vn 0.000000 -1.000000 0.000000
vn 0.000000 -1.000000 0.000000
vn 1.000000 0.000000 0.000000
vn 1.000000 0.000000 0.000000
vn 1.000000 0.000000 0.000000
vn 1.000000 0.000000 0.000000
vn 1.000000 0.000000 0.000000
vn 1.000000 0.000000 0.000000
vn -1.000000 0.000000 0.000000
vn -1.000000 0.000000 0.000000
vn -1.000000 0.000000 0.000000
vn -1.000000 0.000000 0.000000
vn -1.000000 0.000000 0.000000
vn -1.000000 0.000000 0.000000
vn 0.000000 0.000000 -1.000000
vn 0.000000 0.000000 -1.000000
vn 0.000000 0.000000 -1.000000
vn 0.000000 0.000000 -1.000000
vn 0.000000 0.000000 -1.000000
vn 0.000000 0.000000 -1.000000
vn 0.000000 1.000000 0.001957
vn 0.000000 1.000000 0.001957
vn 0.000000 1.000000 0.001957
vn 0.000000 1.000000 0.001957
vn 0.000000 1.000000 0.001957
vn 0.000000 1.000000 0.001957
vn 0.000000 0.000000 1.000000
vn 0.000000 0.000000 1.000000
vn 0.000000 0.000000 1.000000
vn 0.000000 0.000000 1.000000
vn 0.000000 0.000000 1.000000
vn 0.000000 0.000000 1.000000
vn -1.000000 0.000000 0.031311
vn -1.000000 0.000000 0.031311
vn -1.000000 0.000000 0.031311
vn -1.000000 0.000000 0.031311
vn -1.000000 0.000000 0.031311
vn -1.000000 0.000000 0.031311
vn 1.000000 0.000000 0.031311
vn 1.000000 0.000000 0.031311
vn 1.000000 0.000000 0.031311
vn 1.000000 0.000000 0.031311
vn 1.000000 0.000000 0.031311
vn 1.000000 0.000000 0.031311
vn 0.000000 -1.000000 -0.001957
vn 0.000000 -1.000000 -0.001957
vn 0.000000 -1.000000 -0.001957
vn 0.000000 -1.000000 -0.001957
vn 0.000000 -1.000000 -0.001957
vn 0.000000 -1.000000 -0.001957
vn 0.000000 -0.614481 0.788650
vn 0.000000 -0.614481 0.788650
vn 0.000000 -0.614481 0.788650
vn 0.000000 -0.614481 0.788650
vn 0.000000 -0.614481 0.788650
vn 0.000000 -0.614481 0.788650
vn -0.311155 0.000000 0.951076
vn -0.311155 0.000000 0.951076
vn -0.311155 0.000000 0.951076
vn -0.311155 0.000000 0.951076
vn -0.311155 0.000000 0.951076
vn -0.311155 0.000000 0.951076
vn 0.675147 0.000000 0.737769
vn 0.675147 0.000000 0.737769
vn 0.675147 0.000000 0.737769
vn 0.675147 0.000000 0.737769
vn 0.675147 0.000000 0.737769
vn 0.675147 0.000000 0.737769
vn -0.700587 0.000000 0.712329
vn -0.700587 0.000000 0.712329
vn -0.700587 0.000000 0.712329
vn -0.700587 0.000000 0.712329
vn -0.700587 0.000000 0.712329
vn -0.700587 0.000000 0.712329
vn 0.684932 0.001957 -0.729941
vn 0.684932 0.001957 -0.729941
vn 0.684932 0.001957 -0.729941
vn 0.684932 0.001957 -0.729941
vn 0.684932 0.001957 -0.729941
vn 0.684932 0.001957 -0.729941
vn 0.972603 0.000000 0.232877
vn 0.972603 0.000000 0.232877
vn 0.972603 0.000000 0.232877
vn 0.972603 0.000000 0.232877
vn 0.972603 0.000000 0.232877
vn 0.972603 0.000000 0.232877
vn -0.966732 0.000000 -0.254403
vn -0.966732 0.000000 -0.254403
vn -0.966732 0.000000 -0.254403
vn -0.966732 0.000000 -0.254403
vn -0.966732 0.000000 -0.254403
vn -0.966732 0.000000 -0.254403
vn 0.005871 -0.669276 0.743640
vn 0.005871 -0.669276 0.743640
vn -0.054795 -0.694716 0.716243
vn -0.054795 -0.694716 0.716243
vn 0.005871 -0.669276 0.743640
vn -0.054795 -0.694716 0.716243
vn -0.054795 -0.694716 0.716243
vn -0.115460 -0.718200 0.686888
vn -0.054795 -0.694716 0.716243
vn 0.054795 0.708415 -0.704501
vn -0.007828 0.682975 -0.729941
vn -0.007828 0.682975 -0.729941
vn 0.054795 0.708415 -0.704501
vn 0.054795 0.708415 -0.704501
vn -0.007828 0.682975 -0.729941
vn 0.054795 0.708415 -0.704501
vn 0.115460 0.729941 -0.673190
vn 0.054795 0.708415 -0.704501
vn 0.107632 0.636008 0.763209
vn 0.213307 0.563601 0.798434
vn 0.107632 0.636008 0.763209
vn 0.107632 0.636008 0.763209
vn 0.107632 0.636008 0.763209
vn 0.000000 0.698630 0.716243
vn 0.107632 0.636008 0.763209
vn 0.000000 0.698630 0.716243
vn 0.000000 0.698630 0.716243
vn -0.111546 -0.610568 -0.784736
vn -0.219178 -0.532290 -0.818004
vn -0.111546 -0.610568 -0.784736
vn -0.111546 -0.610568 -0.784736
vn 0.000000 -0.677104 -0.735812
vn -0.111546 -0.610568 -0.784736
vn 0.000000 -0.677104 -0.735812
vn 0.000000 -0.677104 -0.735812
vn -0.111546 -0.610568 -0.784736
vn -1.000000 0.000000 0.000000
vn -1.000000 0.000000 0.000000
vn -1.000000 0.000000 0.000000
vn -1.000000 0.000000 0.000000
vn -1.000000 0.000000 0.000000
vn -1.000000 0.000000 0.000000
vn -1.000000 0.000000 0.000000
vn -1.000000 0.000000 0.000000
vn -1.000000 0.000000 0.000000
vn -1.000000 0.000000 0.000000
vn -1.000000 0.000000 0.000000
vn -1.000000 0.000000 0.000000
vn 1.000000 0.000000 0.000000
vn 1.000000 0.000000 0.000000
vn 1.000000 0.000000 0.000000
vn 1.000000 0.000000 0.000000
vn 1.000000 0.000000 0.000000
vn 1.000000 0.000000 0.000000
vn 1.000000 0.000000 0.000000
vn 1.000000 0.000000 0.000000
vn 1.000000 0.000000 0.000000
vn 1.000000 0.000000 0.000000
vn 1.000000 0.000000 0.000000
vn 1.000000 0.000000 0.000000
vn 0.000000 1.000000 0.000000
vn 0.000000 1.000000 0.000000
vn 0.000000 1.000000 0.000000
vn 0.000000 1.000000 0.000000
vn 0.000000 1.000000 0.000000
vn 0.000000 1.000000 0.000000
mtllib mtl_p_glo_cardboardbox.mtl
g mtl_p_glo_cardboardbox
usemtl mtl_p_glo_cardboardbox
f 3/3/3 2/2/2 1/1/1
f 6/6/6 5/5/5 4/4/4
f 9/9/9 8/8/8 7/7/7
f 12/12/12 11/11/11 10/10/10
f 15/15/15 14/14/14 13/13/13
f 18/18/18 17/17/17 16/16/16
f 21/21/21 20/20/20 19/19/19
f 24/24/24 23/23/23 22/22/22
f 27/27/27 26/26/26 25/25/25
f 30/30/30 29/29/29 28/28/28
f 33/33/33 32/32/32 31/31/31
f 36/36/36 35/35/35 34/34/34
f 39/39/39 38/38/38 37/37/37
f 42/42/42 41/41/41 40/40/40
f 45/45/45 44/44/44 43/43/43
f 48/48/48 47/47/47 46/46/46
f 51/51/51 50/50/50 49/49/49
f 54/54/54 53/53/53 52/52/52
f 57/57/57 56/56/56 55/55/55
f 60/60/60 59/59/59 58/58/58
f 63/63/63 62/62/62 61/61/61
f 66/66/66 65/65/65 64/64/64
f 69/69/69 68/68/68 67/67/67
f 72/72/72 71/71/71 70/70/70
f 75/75/75 74/74/74 73/73/73
f 78/78/78 77/77/77 76/76/76
f 81/81/81 80/80/80 79/79/79
f 84/84/84 83/83/83 82/82/82
f 87/87/87 86/86/86 85/85/85
f 90/90/90 89/89/89 88/88/88
f 93/93/93 92/92/92 91/91/91
f 96/96/96 95/95/95 94/94/94
f 99/99/99 98/98/98 97/97/97
f 102/102/102 101/101/101 100/100/100
f 105/105/105 104/104/104 103/103/103
f 108/108/108 107/107/107 106/106/106
f 111/111/111 110/110/110 109/109/109
f 114/114/114 113/113/113 112/112/112
f 117/117/117 116/116/116 115/115/115
f 120/120/120 119/119/119 118/118/118
f 123/123/123 122/122/122 121/121/121
f 126/126/126 125/125/125 124/124/124
f 129/129/129 128/128/128 127/127/127
f 132/132/132 131/131/131 130/130/130
f 135/135/135 134/134/134 133/133/133
f 138/138/138 137/137/137 136/136/136
f 141/141/141 140/140/140 139/139/139
f 144/144/144 143/143/143 142/142/142
f 147/147/147 146/146/146 145/145/145
f 150/150/150 149/149/149 148/148/148
f 153/153/153 152/152/152 151/151/151
f 156/156/156 155/155/155 154/154/154
mtllib mtl_p_glo_cardboardbox_decal.mtl
g mtl_p_glo_cardboardbox_decal
usemtl mtl_p_glo_cardboardbox_decal
f 159/159/159 158/158/158 157/157/157
f 162/162/162 161/161/161 160/160/160
f 165/165/165 164/164/164 163/163/163
f 168/168/168 167/167/167 166/166/166
f 171/171/171 170/170/170 169/169/169
f 174/174/174 173/173/173 172/172/172
f 177/177/177 176/176/176 175/175/175
f 180/180/180 179/179/179 178/178/178
f 183/183/183 182/182/182 181/181/181
f 186/186/186 185/185/185 184/184/184
