# Generated by Wraith - Game extraction tools
# Please credit DTZxPorter for using it!

v -6.187569 -4.588563 0.347734
v -3.930642 -3.799352 3.628509
v -6.187569 -4.588563 3.628509
v -3.930642 -3.799352 3.628509
v -6.187569 -4.588563 0.347734
v -3.930642 -3.799352 0.347734
v -3.930642 -3.799352 0.347734
v -2.462670 -2.250110 3.628509
v -3.930642 -3.799352 3.628509
v -2.462670 -2.250110 3.628509
v -3.930642 -3.799352 0.347734
v -2.462670 -2.250110 0.347734
v -2.462670 -2.250110 0.347734
v -1.521082 0.000010 3.628509
v -2.462670 -2.250110 3.628509
v -1.521082 0.000010 3.628509
v -2.462670 -2.250110 0.347734
v -1.521082 0.000010 0.347734
v -3.930642 -3.799352 3.628509
v -6.187569 -7.909915 3.628509
v -6.187569 -4.588563 3.628509
v -6.187569 -7.909915 3.628509
v -3.930642 -3.799352 3.628509
v -2.258855 -6.894055 3.628509
v -2.258855 -6.894055 3.628509
v -6.187569 -7.909915 0.347731
v -6.187569 -7.909915 3.628509
v -6.187569 -7.909915 0.347731
v -2.258855 -6.894055 3.628509
v -2.258855 -6.894055 0.347731
v -2.258855 -6.894055 3.628509
v 0.577599 -4.136677 0.347731
v -2.258855 -6.894055 0.347731
v -2.462670 -2.250110 3.628509
v -2.258855 -6.894055 3.628509
v -3.930642 -3.799352 3.628509
v -2.258855 -6.894055 3.628509
v -2.462670 -2.250110 3.628509
v 0.577601 -4.136677 3.628509
v -1.521082 0.000010 3.628509
v 0.577601 -4.136677 3.628509
v -2.462670 -2.250110 3.628509
v 0.577599 -4.136677 0.347731
v -2.258855 -6.894055 3.628509
v 0.577601 -4.136677 3.628509
v 0.577601 -4.136677 3.628509
v 1.699578 0.000010 0.347731
v 0.577599 -4.136677 0.347731
v 0.577601 -4.136677 3.628509
v -1.521082 0.000010 3.628509
v 1.699578 0.000010 3.628509
v 1.699578 0.000010 0.347731
v 0.577601 -4.136677 3.628509
v 1.699578 0.000010 3.628509
v -2.258855 -6.894055 0.347731
v -6.187569 -4.588563 0.347734
v -6.187569 -7.909915 0.347731
v -6.187569 -4.588563 0.347734
v -2.258855 -6.894055 0.347731
v -3.930642 -3.799352 0.347734
v 0.577599 -4.136677 0.347731
v -3.930642 -3.799352 0.347734
v -2.258855 -6.894055 0.347731
v -3.930642 -3.799352 0.347734
v 0.577599 -4.136677 0.347731
v -2.462670 -2.250110 0.347734
v 1.699578 0.000010 0.347731
v -2.462670 -2.250110 0.347734
v 0.577599 -4.136677 0.347731
v -2.462670 -2.250110 0.347734
v 1.699578 0.000010 0.347731
v -1.521082 0.000010 0.347734
v 1.699578 0.000010 3.628509
v -1.521082 0.000010 0.347734
v 1.699578 0.000010 0.347731
v -1.521082 0.000010 0.347734
v 1.699578 0.000010 3.628509
v -1.521082 0.000010 3.628509
v -6.187569 -4.588563 0.347734
v -6.187569 -7.909915 3.628509
v -6.187569 -7.909915 0.347731
v -6.187569 -7.909915 3.628509
v -6.187569 -4.588563 0.347734
v -6.187569 -4.588563 3.628509
vt 0.001291 0.742920
vt 0.126953 0.646484
vt 0.011353 0.646484
vt 0.126953 0.646484
vt 0.001291 0.742920
vt 0.126953 0.742920
vt 0.113708 0.742920
vt 0.271240 0.646484
vt 0.121155 0.646484
vt 0.271240 0.646484
vt 0.113708 0.742920
vt 0.272461 0.742920
vt 0.269531 0.742920
vt 0.385254 0.646484
vt 0.269531 0.646484
vt 0.385254 0.646484
vt 0.269531 0.742920
vt 0.395264 0.742920
vt 0.123474 0.646484
vt 0.011353 0.534180
vt 0.011353 0.646484
vt 0.011353 0.534180
vt 0.123474 0.646484
vt 0.123474 0.534180
vt 0.123474 0.534180
vt 0.011353 0.421875
vt 0.011353 0.534180
vt 0.011353 0.421875
vt 0.123474 0.534180
vt 0.123474 0.421875
vt 0.123474 0.534180
vt 0.272949 0.421875
vt 0.123474 0.421875
vt 0.272949 0.646484
vt 0.123474 0.534180
vt 0.123474 0.646484
vt 0.123474 0.534180
vt 0.272949 0.646484
vt 0.272949 0.534180
vt 0.385254 0.646484
vt 0.272949 0.534180
vt 0.272949 0.646484
vt 0.272949 0.421875
vt 0.123474 0.534180
vt 0.272949 0.534180
vt 0.272949 0.534180
vt 0.385254 0.421875
vt 0.272949 0.421875
vt 0.272949 0.534180
vt 0.385254 0.646484
vt 0.385254 0.534180
vt 0.385254 0.421875
vt 0.272949 0.534180
vt 0.385254 0.534180
vt 0.123474 0.421875
vt 0.011353 0.309082
vt 0.011353 0.421875
vt 0.011353 0.309082
vt 0.123474 0.421875
vt 0.123474 0.309082
vt 0.272949 0.421875
vt 0.123474 0.309082
vt 0.123474 0.421875
vt 0.123474 0.309082
vt 0.272949 0.421875
vt 0.272949 0.309082
vt 0.385254 0.421875
vt 0.272949 0.309082
vt 0.272949 0.421875
vt 0.272949 0.309082
vt 0.385254 0.421875
vt 0.385254 0.309082
vt 0.583008 0.355469
vt 0.458496 0.479980
vt 0.583008 0.479980
vt 0.458496 0.479980
vt 0.583008 0.355469
vt 0.458496 0.355469
vt 0.583008 0.479980
vt 0.458496 0.355469
vt 0.583008 0.355469
vt 0.458496 0.355469
vt 0.583008 0.479980
vt 0.458496 0.479980
vn -0.209393 0.600783 -0.771037
vn -0.350294 0.542074 0.765166
vn -0.209393 0.600783 0.771037
vn -0.350294 0.542074 0.765166
vn -0.209393 0.600783 -0.771037
vn -0.350294 0.542074 -0.765166
vn -0.350294 0.542074 -0.765166
vn -0.553816 0.362035 0.749511
vn -0.350294 0.542074 0.765166
vn -0.553816 0.362035 0.749511
vn -0.350294 0.542074 -0.765166
vn -0.553816 0.362035 -0.749511
vn -0.553816 0.362035 -0.749511
vn -0.575342 0.240705 0.780822
vn -0.553816 0.362035 0.749511
vn -0.575342 0.240705 0.780822
vn -0.553816 0.362035 -0.749511
vn -0.575342 0.240705 -0.780822
vn -0.350294 0.542074 0.765166
vn 0.191781 -0.741683 0.641879
vn -0.209393 0.600783 0.771037
vn 0.191781 -0.741683 0.641879
vn -0.350294 0.542074 0.765166
vn 0.369863 -0.659491 0.653620
vn 0.369863 -0.659491 0.653620
vn 0.191781 -0.741683 -0.641879
vn 0.191781 -0.741683 0.641879
vn 0.191781 -0.741683 -0.641879
vn 0.369863 -0.659491 0.653620
vn 0.369863 -0.659491 -0.653620
vn 0.369863 -0.659491 0.653620
vn 0.653620 -0.385519 -0.651663
vn 0.369863 -0.659491 -0.653620
vn -0.553816 0.362035 0.749511
vn 0.369863 -0.659491 0.653620
vn -0.350294 0.542074 0.765166
vn 0.369863 -0.659491 0.653620
vn -0.553816 0.362035 0.749511
vn 0.653620 -0.385519 0.651663
vn -0.575342 0.240705 0.780822
vn 0.653620 -0.385519 0.651663
vn -0.553816 0.362035 0.749511
vn 0.653620 -0.385519 -0.651663
vn 0.369863 -0.659491 0.653620
vn 0.653620 -0.385519 0.651663
vn 0.653620 -0.385519 0.651663
vn 0.741683 -0.201566 -0.639922
vn 0.653620 -0.385519 -0.651663
vn 0.653620 -0.385519 0.651663
vn -0.575342 0.240705 0.780822
vn 0.741683 -0.201566 0.639922
vn 0.741683 -0.201566 -0.639922
vn 0.653620 -0.385519 0.651663
vn 0.741683 -0.201566 0.639922
vn 0.369863 -0.659491 -0.653620
vn -0.209393 0.600783 -0.771037
vn 0.191781 -0.741683 -0.641879
vn -0.209393 0.600783 -0.771037
vn 0.369863 -0.659491 -0.653620
vn -0.350294 0.542074 -0.765166
vn 0.653620 -0.385519 -0.651663
vn -0.350294 0.542074 -0.765166
vn 0.369863 -0.659491 -0.653620
vn -0.350294 0.542074 -0.765166
vn 0.653620 -0.385519 -0.651663
vn -0.553816 0.362035 -0.749511
vn 0.741683 -0.201566 -0.639922
vn -0.553816 0.362035 -0.749511
vn 0.653620 -0.385519 -0.651663
vn -0.553816 0.362035 -0.749511
vn 0.741683 -0.201566 -0.639922
vn -0.575342 0.240705 -0.780822
vn 0.000000 1.000000 0.000000
vn 0.000000 1.000000 0.000000
vn 0.000000 1.000000 0.000000
vn 0.000000 1.000000 0.000000
vn 0.000000 1.000000 0.000000
vn 0.000000 1.000000 0.000000
vn -1.000000 0.000000 0.000000
vn -1.000000 0.000000 0.000000
vn -1.000000 0.000000 0.000000
vn -1.000000 0.000000 0.000000
vn -1.000000 0.000000 0.000000
vn -1.000000 0.000000 0.000000
mtllib mtl_p_rus_pipes_modular.mtl
g mtl_p_rus_pipes_modular
usemtl mtl_p_rus_pipes_modular
f 3/3/3 2/2/2 1/1/1
f 6/6/6 5/5/5 4/4/4
f 9/9/9 8/8/8 7/7/7
f 12/12/12 11/11/11 10/10/10
f 15/15/15 14/14/14 13/13/13
f 18/18/18 17/17/17 16/16/16
f 21/21/21 20/20/20 19/19/19
f 24/24/24 23/23/23 22/22/22
f 27/27/27 26/26/26 25/25/25
f 30/30/30 29/29/29 28/28/28
f 33/33/33 32/32/32 31/31/31
f 36/36/36 35/35/35 34/34/34
f 39/39/39 38/38/38 37/37/37
f 42/42/42 41/41/41 40/40/40
f 45/45/45 44/44/44 43/43/43
f 48/48/48 47/47/47 46/46/46
f 51/51/51 50/50/50 49/49/49
f 54/54/54 53/53/53 52/52/52
f 57/57/57 56/56/56 55/55/55
f 60/60/60 59/59/59 58/58/58
f 63/63/63 62/62/62 61/61/61
f 66/66/66 65/65/65 64/64/64
f 69/69/69 68/68/68 67/67/67
f 72/72/72 71/71/71 70/70/70
f 75/75/75 74/74/74 73/73/73
f 78/78/78 77/77/77 76/76/76
f 81/81/81 80/80/80 79/79/79
f 84/84/84 83/83/83 82/82/82
