# Generated by Wraith - Game extraction tools
# Please credit DTZxPorter for using it!

v 2.133247 -12.249828 -0.042647
v 2.133247 -12.249828 32.325417
v 2.133247 10.465568 -0.042647
v 2.133247 -12.249828 32.325417
v 2.133247 10.465568 32.325417
v 2.133247 10.465568 -0.042647
v 2.133247 10.465568 -0.042647
v -2.179571 10.286024 -0.042647
v 2.133247 -12.249828 -0.042647
v -2.179571 10.286024 -0.042647
v -2.179571 -12.249828 -0.042647
v 2.133247 -12.249828 -0.042647
v -2.179571 -12.249828 32.325417
v -2.179571 10.286024 32.325417
v 2.133247 -12.249828 32.325417
v -2.179571 10.286024 32.325417
v 2.133247 10.465568 32.325417
v 2.133247 -12.249828 32.325417
v -2.179571 -12.249828 -0.042647
v -2.179571 10.286024 -0.042647
v -2.179571 -12.249828 32.325417
v -2.179571 10.286024 -0.042647
v -2.179571 10.286024 32.325417
v -2.179571 -12.249828 32.325417
v 2.133247 -12.249828 32.325417
v 2.133247 -12.249828 -0.042647
v -2.179571 -12.249828 32.325417
v 2.133247 -12.249828 -0.042647
v -2.179571 -12.249828 -0.042647
v -2.179571 -12.249828 32.325417
v 2.133247 10.465568 -0.042647
v 2.133247 10.465568 32.325417
v -2.179571 10.286024 -0.042647
v 2.133247 10.465568 32.325417
v -2.179571 10.286024 32.325417
v -2.179571 10.286024 -0.042647
vt 0.568848 0.894836
vt 0.568848 0.603760
vt 0.751465 0.894836
vt 0.568848 0.603760
vt 0.751465 0.603760
vt 0.751465 0.894836
vt 0.006626 1.000914
vt 0.006618 0.898132
vt 0.300781 1.000914
vt 0.006618 0.898132
vt 0.300781 0.898132
vt 0.300781 1.000914
vt 0.300781 0.898132
vt 0.006618 0.898132
vt 0.300781 1.000914
vt 0.006618 0.898132
vt 0.006626 1.000914
vt 0.300781 1.000914
vt 0.568848 0.894836
vt 0.751465 0.894836
vt 0.568848 0.603760
vt 0.751465 0.894836
vt 0.751465 0.603760
vt 0.568848 0.603760
vt 0.300781 1.000914
vt 0.049561 1.000914
vt 0.300781 0.898132
vt 0.049561 1.000914
vt 0.049561 0.898132
vt 0.300781 0.898132
vt -0.439941 0.894348
vt -0.439941 0.603271
vt -0.498047 0.894348
vt -0.439941 0.603271
vt -0.498047 0.603271
vt -0.498047 0.894348
vn 1.000000 0.000000 0.000000
vn 1.000000 0.000000 0.000000
vn 1.000000 0.000000 0.000000
vn 1.000000 0.000000 0.000000
vn 1.000000 0.000000 0.000000
vn 1.000000 0.000000 0.000000
vn 0.000000 0.000000 -1.000000
vn 0.000000 0.000000 -1.000000
vn 0.000000 0.000000 -1.000000
vn 0.000000 0.000000 -1.000000
vn 0.000000 0.000000 -1.000000
vn 0.000000 0.000000 -1.000000
vn 0.000000 0.000000 1.000000
vn 0.000000 0.000000 1.000000
vn 0.000000 0.000000 1.000000
vn 0.000000 0.000000 1.000000
vn 0.000000 0.000000 1.000000
vn 0.000000 0.000000 1.000000
vn -1.000000 0.000000 0.000000
vn -1.000000 0.000000 0.000000
vn -1.000000 0.000000 0.000000
vn -1.000000 0.000000 0.000000
vn -1.000000 0.000000 0.000000
vn -1.000000 0.000000 0.000000
vn 0.000000 -1.000000 0.000000
vn 0.000000 -1.000000 0.000000
vn 0.000000 -1.000000 0.000000
vn 0.000000 -1.000000 0.000000
vn 0.000000 -1.000000 0.000000
vn 0.000000 -1.000000 0.000000
vn -0.041096 1.000000 0.000000
vn -0.041096 1.000000 0.000000
vn -0.041096 1.000000 0.000000
vn -0.041096 1.000000 0.000000
vn -0.041096 1.000000 0.000000
vn -0.041096 1.000000 0.000000
mtllib mtl_p_glo_books.mtl
g mtl_p_glo_books
usemtl mtl_p_glo_books
f 3/3/3 2/2/2 1/1/1
f 6/6/6 5/5/5 4/4/4
f 9/9/9 8/8/8 7/7/7
f 12/12/12 11/11/11 10/10/10
f 15/15/15 14/14/14 13/13/13
f 18/18/18 17/17/17 16/16/16
f 21/21/21 20/20/20 19/19/19
f 24/24/24 23/23/23 22/22/22
f 27/27/27 26/26/26 25/25/25
f 30/30/30 29/29/29 28/28/28
f 33/33/33 32/32/32 31/31/31
f 36/36/36 35/35/35 34/34/34
