# Generated by Wraith - Game extraction tools
# Please credit DTZxPorter for using it!

v -87.042969 -4.993216 4.993216
v -134.593842 -17.775103 17.775103
v -134.593842 -4.993216 4.993216
v 105.949280 -4.993216 4.993216
v 64.733948 -14.672366 14.672366
v 68.131363 -4.993216 4.993216
v -87.042969 -4.993216 -4.993216
v -134.593842 -17.775103 -17.775103
v -134.593842 -4.993216 -4.993216
v 105.949280 -4.993216 -4.993216
v 64.733948 -14.672366 -14.672366
v 68.131363 -4.993216 -4.993216
v -87.042969 4.993216 -4.993216
v -134.593842 17.775103 -17.775103
v -134.593842 4.993216 -4.993216
v 105.949280 4.993216 -4.993216
v 64.733948 14.672366 -14.672366
v 68.131363 4.993216 -4.993216
v -87.042969 4.993216 4.993216
v -134.593842 17.775103 17.775103
v -134.593842 4.993216 4.993216
v 105.949280 4.993216 4.993216
v 64.733948 14.672366 14.672366
v 68.131363 4.993216 4.993216
v -87.042969 -4.993216 4.993216
v -134.593842 -4.993216 4.993216
v -134.593842 -17.775103 17.775103
v 105.949280 -4.993216 4.993216
v 68.131363 -4.993216 4.993216
v 64.733948 -14.672366 14.672366
v -87.042969 -4.993216 -4.993216
v -134.593842 -4.993216 -4.993216
v -134.593842 -17.775103 -17.775103
v 105.949280 -4.993216 -4.993216
v 68.131363 -4.993216 -4.993216
v 64.733948 -14.672366 -14.672366
v -87.042969 4.993216 -4.993216
v -134.593842 4.993216 -4.993216
v -134.593842 17.775103 -17.775103
v 105.949280 4.993216 -4.993216
v 68.131363 4.993216 -4.993216
v 64.733948 14.672366 -14.672366
v -87.042969 4.993216 4.993216
v -134.593842 4.993216 4.993216
v -134.593842 17.775103 17.775103
v 105.949280 4.993216 4.993216
v 68.131363 4.993216 4.993216
v 64.733948 14.672366 14.672366
v -134.593842 -5.671782 -5.671784
v 150.300339 -4.381754 -4.381754
v -134.593842 5.521520 -5.521520
v 150.300339 -4.381754 -4.381754
v 150.300339 4.265666 -4.265666
v -134.593842 5.521520 -5.521520
v 153.893524 -0.041806 -0.041806
v 150.300339 4.265666 -4.265666
v 150.300339 -4.381754 -4.381754
v -134.593842 5.521520 -5.521520
v 150.300339 4.265666 -4.265666
v -134.593842 5.671782 5.671784
v 150.300339 4.265666 -4.265666
v 150.300339 4.381754 4.381754
v -134.593842 5.671782 5.671784
v -134.593842 5.671782 5.671784
v 150.300339 4.381754 4.381754
v -134.593842 -5.521520 5.521520
v 150.300339 4.381754 4.381754
v 150.300339 -4.265666 4.265666
v -134.593842 -5.521520 5.521520
v -134.593842 -5.521520 5.521520
v 150.300339 -4.265666 4.265666
v -134.593842 -5.671782 -5.671784
v 150.300339 -4.265666 4.265666
v 150.300339 -4.381754 -4.381754
v -134.593842 -5.671782 -5.671784
v 153.893524 -0.041806 -0.041806
v 150.300339 -4.381754 -4.381754
v 150.300339 -4.265666 4.265666
v 153.893524 -0.041806 -0.041806
v 150.300339 -4.265666 4.265666
v 150.300339 4.381754 4.381754
v 153.893524 -0.041806 -0.041806
v 150.300339 4.381754 4.381754
v 150.300339 4.265666 -4.265666
v -134.593842 5.521520 -5.521520
v -134.593842 0.000000 0.000000
v -134.593842 -5.671782 -5.671784
v -134.593842 5.671782 5.671784
v -134.593842 0.000000 0.000000
v -134.593842 5.521520 -5.521520
v -134.593842 -5.521520 5.521520
v -134.593842 0.000000 0.000000
v -134.593842 5.671782 5.671784
v -134.593842 -5.671782 -5.671784
v -134.593842 0.000000 0.000000
v -134.593842 -5.521520 5.521520
vt 0.974121 0.000000
vt 1.000000 1.000000
vt 1.000000 0.000000
vt 0.974121 0.000000
vt 1.000000 1.000000
vt 1.000000 0.000000
vt 0.974121 0.000000
vt 1.000000 1.000000
vt 1.000000 0.000000
vt 0.974121 0.000000
vt 1.000000 1.000000
vt 1.000000 0.000000
vt 0.974121 0.000000
vt 1.000000 1.000000
vt 1.000000 0.000000
vt 0.974121 0.000000
vt 1.000000 1.000000
vt 1.000000 0.000000
vt 0.974121 0.000000
vt 1.000000 1.000000
vt 1.000000 0.000000
vt 0.974121 0.000000
vt 1.000000 1.000000
vt 1.000000 0.000000
vt 0.974121 0.000000
vt 1.000000 0.000000
vt 1.000000 1.000000
vt 0.974121 0.000000
vt 1.000000 0.000000
vt 1.000000 1.000000
vt 0.974121 0.000000
vt 1.000000 0.000000
vt 1.000000 1.000000
vt 0.974121 0.000000
vt 1.000000 0.000000
vt 1.000000 1.000000
vt 0.974121 0.000000
vt 1.000000 0.000000
vt 1.000000 1.000000
vt 0.974121 0.000000
vt 1.000000 0.000000
vt 1.000000 1.000000
vt 0.974121 0.000000
vt 1.000000 0.000000
vt 1.000000 1.000000
vt 0.974121 0.000000
vt 1.000000 0.000000
vt 1.000000 1.000000
vt 0.876953 0.625488
vt 0.015640 0.625488
vt 0.876953 0.875488
vt 0.015640 0.625488
vt 0.015640 0.875488
vt 0.876953 0.875488
vt 0.000000 0.496582
vt 0.015640 0.875488
vt 0.015640 0.625488
vt 0.876953 0.875488
vt 0.015640 0.875488
vt 0.876953 0.125488
vt 0.015640 0.875488
vt 0.015640 0.125488
vt 0.876953 0.125488
vt 0.876953 0.125488
vt 0.015640 0.125488
vt 0.876953 0.375488
vt 0.015640 0.125488
vt 0.015640 0.375488
vt 0.876953 0.375488
vt 0.876953 0.375488
vt 0.015640 0.375488
vt 0.876953 0.625488
vt 0.015640 0.375488
vt 0.015640 0.625488
vt 0.876953 0.625488
vt 0.000000 0.496582
vt 0.015640 0.625488
vt 0.015640 0.375488
vt 0.000000 0.496582
vt 0.015640 0.375488
vt 0.015640 0.125488
vt 0.000000 0.496582
vt 0.015640 0.125488
vt 0.015640 0.875488
vt 0.998047 0.173828
vt 0.986816 0.173828
vt 0.986816 0.200195
vt 0.986816 0.147461
vt 0.986816 0.173828
vt 0.998047 0.173828
vt 0.975586 0.173828
vt 0.986816 0.173828
vt 0.986816 0.147461
vt 0.986816 0.200195
vt 0.986816 0.173828
vt 0.975586 0.173828
vn 0.000000 0.706458 0.706458
vn 0.000000 0.706458 0.706458
vn 0.000000 0.706458 0.706458
vn 0.000000 0.706458 0.706458
vn 0.000000 0.706458 0.706458
vn 0.000000 0.706458 0.706458
vn 0.000000 -0.706458 0.706458
vn 0.000000 -0.706458 0.706458
vn 0.000000 -0.706458 0.706458
vn 0.000000 -0.706458 0.706458
vn 0.000000 -0.706458 0.706458
vn 0.000000 -0.706458 0.706458
vn 0.000000 -0.706458 -0.706458
vn 0.000000 -0.706458 -0.706458
vn 0.000000 -0.706458 -0.706458
vn 0.000000 -0.706458 -0.706458
vn 0.000000 -0.706458 -0.706458
vn 0.000000 -0.706458 -0.706458
vn 0.000000 0.706458 -0.706458
vn 0.000000 0.706458 -0.706458
vn 0.000000 0.706458 -0.706458
vn 0.000000 0.706458 -0.706458
vn 0.000000 0.706458 -0.706458
vn 0.000000 0.706458 -0.706458
vn 0.000000 -0.706458 -0.706458
vn 0.000000 -0.706458 -0.706458
vn 0.000000 -0.706458 -0.706458
vn 0.000000 -0.706458 -0.706458
vn 0.000000 -0.706458 -0.706458
vn 0.000000 -0.706458 -0.706458
vn 0.000000 0.706458 -0.706458
vn 0.000000 0.706458 -0.706458
vn 0.000000 0.706458 -0.706458
vn 0.000000 0.706458 -0.706458
vn 0.000000 0.706458 -0.706458
vn 0.000000 0.706458 -0.706458
vn 0.000000 0.706458 0.706458
vn 0.000000 0.706458 0.706458
vn 0.000000 0.706458 0.706458
vn 0.000000 0.706458 0.706458
vn 0.000000 0.706458 0.706458
vn 0.000000 0.706458 0.706458
vn 0.000000 -0.706458 0.706458
vn 0.000000 -0.706458 0.706458
vn 0.000000 -0.706458 0.706458
vn 0.000000 -0.706458 0.706458
vn 0.000000 -0.706458 0.706458
vn 0.000000 -0.706458 0.706458
vn 0.005871 -0.706458 -0.706458
vn 0.557730 -0.587084 -0.587084
vn 0.005871 0.706458 -0.706458
vn 0.557730 -0.587084 -0.587084
vn 0.549902 0.589041 -0.590998
vn 0.005871 0.706458 -0.706458
vn 1.000000 -0.001957 -0.001957
vn 0.549902 0.589041 -0.590998
vn 0.557730 -0.587084 -0.587084
vn 0.005871 0.706458 -0.706458
vn 0.549902 0.589041 -0.590998
vn 0.005871 0.706458 0.706458
vn 0.549902 0.589041 -0.590998
vn 0.561644 0.585127 0.585127
vn 0.005871 0.706458 0.706458
vn 0.005871 0.706458 0.706458
vn 0.561644 0.585127 0.585127
vn 0.005871 -0.706458 0.706458
vn 0.561644 0.585127 0.585127
vn 0.549902 -0.590998 0.589041
vn 0.005871 -0.706458 0.706458
vn 0.005871 -0.706458 0.706458
vn 0.549902 -0.590998 0.589041
vn 0.005871 -0.706458 -0.706458
vn 0.549902 -0.590998 0.589041
vn 0.557730 -0.587084 -0.587084
vn 0.005871 -0.706458 -0.706458
vn 1.000000 -0.001957 -0.001957
vn 0.557730 -0.587084 -0.587084
vn 0.549902 -0.590998 0.589041
vn 1.000000 -0.001957 -0.001957
vn 0.549902 -0.590998 0.589041
vn 0.561644 0.585127 0.585127
vn 1.000000 -0.001957 -0.001957
vn 0.561644 0.585127 0.585127
vn 0.549902 0.589041 -0.590998
vn -1.000000 0.000000 0.000000
vn -1.000000 0.000000 0.000000
vn -1.000000 0.000000 0.000000
vn -1.000000 0.000000 0.000000
vn -1.000000 0.000000 0.000000
vn -1.000000 0.000000 0.000000
vn -1.000000 0.000000 0.000000
vn -1.000000 0.000000 0.000000
vn -1.000000 0.000000 0.000000
vn -1.000000 0.000000 0.000000
vn -1.000000 0.000000 0.000000
vn -1.000000 0.000000 0.000000
mtllib mtl_sidewinder_missile.mtl
g mtl_sidewinder_missile
usemtl mtl_sidewinder_missile
f 3/3/3 2/2/2 1/1/1
f 6/6/6 5/5/5 4/4/4
f 9/9/9 8/8/8 7/7/7
f 12/12/12 11/11/11 10/10/10
f 15/15/15 14/14/14 13/13/13
f 18/18/18 17/17/17 16/16/16
f 21/21/21 20/20/20 19/19/19
f 24/24/24 23/23/23 22/22/22
f 27/27/27 26/26/26 25/25/25
f 30/30/30 29/29/29 28/28/28
f 33/33/33 32/32/32 31/31/31
f 36/36/36 35/35/35 34/34/34
f 39/39/39 38/38/38 37/37/37
f 42/42/42 41/41/41 40/40/40
f 45/45/45 44/44/44 43/43/43
f 48/48/48 47/47/47 46/46/46
f 51/51/51 50/50/50 49/49/49
f 54/54/54 53/53/53 52/52/52
f 57/57/57 56/56/56 55/55/55
f 60/60/60 59/59/59 58/58/58
f 63/63/63 62/62/62 61/61/61
f 66/66/66 65/65/65 64/64/64
f 69/69/69 68/68/68 67/67/67
f 72/72/72 71/71/71 70/70/70
f 75/75/75 74/74/74 73/73/73
f 78/78/78 77/77/77 76/76/76
f 81/81/81 80/80/80 79/79/79
f 84/84/84 83/83/83 82/82/82
f 87/87/87 86/86/86 85/85/85
f 90/90/90 89/89/89 88/88/88
f 93/93/93 92/92/92 91/91/91
f 96/96/96 95/95/95 94/94/94
