# Generated by Wraith - Game extraction tools
# Please credit DTZxPorter for using it!

v 2.022914 0.000648 -2.089640
v 18.813107 0.000648 -2.089640
v 2.022917 2.279307 0.043289
v 18.813107 0.000648 -2.089640
v 18.813107 2.279307 0.043289
v 2.022917 2.279307 0.043289
v 2.022917 2.279307 0.043289
v 18.813107 2.279307 0.043289
v 2.022917 -0.000719 2.319327
v 18.813107 2.279307 0.043289
v 18.813107 -0.000719 2.319327
v 2.022917 -0.000719 2.319327
v 2.022917 -0.000719 2.319327
v 18.813107 -0.000719 2.319327
v 2.022917 -2.279594 0.043289
v 18.813107 -0.000719 2.319327
v 18.813107 -2.279594 0.043289
v 2.022917 -2.279594 0.043289
v 2.022917 -2.279594 0.043289
v 18.813107 -2.279594 0.043289
v 2.022914 0.000648 -2.089640
v 18.813107 -2.279594 0.043289
v 18.813107 0.000648 -2.089640
v 2.022914 0.000648 -2.089640
v 0.000000 0.000036 0.043289
v 2.022914 0.000648 -2.089640
v 2.022917 2.279307 0.043289
v 0.000000 0.000036 0.043289
v 2.022917 2.279307 0.043289
v 2.022917 -0.000719 2.319327
v 0.000000 0.000036 0.043289
v 2.022917 -0.000719 2.319327
v 2.022917 -2.279594 0.043289
v 0.000000 0.000036 0.043289
v 2.022917 -2.279594 0.043289
v 2.022914 0.000648 -2.089640
v 18.813107 2.279307 0.043289
v 18.813107 0.000648 -2.089640
v 18.813107 -0.000719 2.319327
v 18.813107 0.000648 -2.089640
v 18.813107 -2.279594 0.043289
v 18.813107 -0.000719 2.319327
vt 0.677246 0.026855
vt 0.015610 0.026855
vt 0.677246 0.254883
vt 0.015610 0.026855
vt 0.015610 0.254883
vt 0.677246 0.254883
vt 0.677246 0.254883
vt 0.015610 0.254883
vt 0.677246 0.459961
vt 0.015610 0.254883
vt 0.015617 0.459961
vt 0.677246 0.459961
vt 0.677246 0.459961
vt 0.015617 0.459961
vt 0.677246 0.667480
vt 0.015617 0.459961
vt 0.015617 0.667480
vt 0.677246 0.667480
vt 0.677246 0.667480
vt 0.015617 0.667480
vt 0.677246 0.863037
vt 0.015617 0.667480
vt 0.015625 0.863037
vt 0.677246 0.863037
vt 0.924316 0.143555
vt 0.937988 0.022461
vt 0.864746 0.143555
vt 0.924316 0.143555
vt 0.864746 0.143555
vt 0.909668 0.278320
vt 0.924316 0.143555
vt 0.909668 0.278320
vt 0.978516 0.197754
vt 0.924316 0.143555
vt 0.978516 0.197754
vt 0.937988 0.022461
vt 0.877441 0.445313
vt 0.820313 0.210938
vt 0.780762 0.552979
vt 0.820313 0.210938
vt 0.717285 0.373047
vt 0.780762 0.552979
vn 0.000000 0.000000 -1.000000
vn 0.000000 0.000000 -1.000000
vn 0.000000 1.000000 -0.015656
vn 0.000000 0.000000 -1.000000
vn 0.000000 1.000000 -0.015656
vn 0.000000 1.000000 -0.015656
vn 0.000000 1.000000 -0.015656
vn 0.000000 1.000000 -0.015656
vn 0.000000 0.000000 1.000000
vn 0.000000 1.000000 -0.015656
vn 0.000000 0.000000 1.000000
vn 0.000000 0.000000 1.000000
vn 0.000000 0.000000 1.000000
vn 0.000000 0.000000 1.000000
vn 0.000000 -1.000000 -0.015656
vn 0.000000 0.000000 1.000000
vn 0.000000 -1.000000 -0.015656
vn 0.000000 -1.000000 -0.015656
vn 0.000000 -1.000000 -0.015656
vn 0.000000 -1.000000 -0.015656
vn 0.000000 0.000000 -1.000000
vn 0.000000 -1.000000 -0.015656
vn 0.000000 0.000000 -1.000000
vn 0.000000 0.000000 -1.000000
vn -1.000000 0.000000 -0.019569
vn 0.000000 -0.223092 -0.974560
vn 0.000000 0.622309 0.782779
vn -1.000000 0.000000 -0.019569
vn 0.000000 0.622309 0.782779
vn 0.000000 -0.223092 0.974560
vn -1.000000 0.000000 -0.019569
vn 0.000000 -0.223092 0.974560
vn 0.000000 -0.900196 -0.434442
vn -1.000000 0.000000 -0.019569
vn 0.000000 -0.900196 -0.434442
vn 0.000000 -0.223092 -0.974560
vn 1.000000 0.000000 0.000000
vn 1.000000 0.000000 0.000000
vn 1.000000 0.000000 0.000000
vn 1.000000 0.000000 0.000000
vn 1.000000 0.000000 0.000000
vn 1.000000 0.000000 0.000000
mtllib mtl_t6_attach_smg_silencer1.mtl
g mtl_t6_attach_smg_silencer1
usemtl mtl_t6_attach_smg_silencer1
f 3/3/3 2/2/2 1/1/1
f 6/6/6 5/5/5 4/4/4
f 9/9/9 8/8/8 7/7/7
f 12/12/12 11/11/11 10/10/10
f 15/15/15 14/14/14 13/13/13
f 18/18/18 17/17/17 16/16/16
f 21/21/21 20/20/20 19/19/19
f 24/24/24 23/23/23 22/22/22
f 27/27/27 26/26/26 25/25/25
f 30/30/30 29/29/29 28/28/28
f 33/33/33 32/32/32 31/31/31
f 36/36/36 35/35/35 34/34/34
f 39/39/39 38/38/38 37/37/37
f 42/42/42 41/41/41 40/40/40
