# Generated by Wraith - Game extraction tools
# Please credit DTZxPorter for using it!

v 5.437855 1.289294 8.955898
v 5.437855 -1.289294 8.955898
v -6.038949 1.289294 8.955898
v 5.437855 -1.289294 8.955898
v -6.038949 -1.289294 8.955898
v -6.038949 1.289294 8.955898
v 5.437855 -1.289294 8.955898
v 5.437855 -1.289294 -1.267171
v -6.038949 -1.289294 8.955898
v 5.437855 -1.289294 -1.267171
v -6.038949 -1.289294 -2.260345
v -6.038949 -1.289294 8.955898
v 5.437855 -1.289294 -1.267171
v 5.437855 1.289294 -1.267171
v -6.038949 -1.289294 -2.260345
v 5.437855 1.289294 -1.267171
v -6.038949 1.289294 -2.260345
v -6.038949 -1.289294 -2.260345
v -6.038949 1.289294 -2.260345
v 5.437855 1.289294 -1.267171
v -6.038949 1.289294 8.955898
v 5.437855 1.289294 -1.267171
v 5.437855 1.289294 8.955898
v -6.038949 1.289294 8.955898
v -6.038949 1.289294 8.955898
v -6.038949 -1.289294 8.955898
v -6.038949 1.289294 -2.260345
v -6.038949 -1.289294 8.955898
v -6.038949 -1.289294 -2.260345
v -6.038949 1.289294 -2.260345
v 5.437855 1.289294 -1.267171
v 5.437855 -1.289294 -1.267171
v 5.437855 1.289294 8.955898
v 5.437855 -1.289294 -1.267171
v 5.437855 -1.289294 8.955898
v 5.437855 1.289294 8.955898
vt 0.004562 0.221680
vt 0.004562 0.239258
vt 0.128418 0.221680
vt 0.004562 0.239258
vt 0.128418 0.239258
vt 0.128418 0.221680
vt 0.064331 0.204102
vt 0.064331 0.051758
vt 0.236816 0.204102
vt 0.064331 0.051758
vt 0.236816 0.036133
vt 0.236816 0.204102
vt 0.005665 0.190430
vt 0.027298 0.190430
vt 0.000141 0.052734
vt 0.027298 0.190430
vt 0.032806 0.052734
vt 0.000141 0.052734
vt 0.236816 0.036133
vt 0.064331 0.051758
vt 0.236816 0.204102
vt 0.064331 0.051758
vt 0.064331 0.204102
vt 0.236816 0.204102
vt 0.236816 0.204102
vt 0.274170 0.204102
vt 0.236816 0.036133
vt 0.274170 0.204102
vt 0.274170 0.036133
vt 0.236816 0.036133
vt 0.064331 0.051758
vt 0.040100 0.051758
vt 0.064331 0.204102
vt 0.040100 0.051758
vt 0.040100 0.204102
vt 0.064331 0.204102
vn 0.000000 0.000000 1.000000
vn 0.000000 0.000000 1.000000
vn 0.000000 0.000000 1.000000
vn 0.000000 0.000000 1.000000
vn 0.000000 0.000000 1.000000
vn 0.000000 0.000000 1.000000
vn 0.000000 -1.000000 0.000000
vn 0.000000 -1.000000 0.000000
vn 0.000000 -1.000000 0.000000
vn 0.000000 -1.000000 0.000000
vn 0.000000 -1.000000 0.000000
vn 0.000000 -1.000000 0.000000
vn 0.086106 0.000000 -0.996086
vn 0.086106 0.000000 -0.996086
vn 0.086106 0.000000 -0.996086
vn 0.086106 0.000000 -0.996086
vn 0.086106 0.000000 -0.996086
vn 0.086106 0.000000 -0.996086
vn 0.000000 1.000000 0.000000
vn 0.000000 1.000000 0.000000
vn 0.000000 1.000000 0.000000
vn 0.000000 1.000000 0.000000
vn 0.000000 1.000000 0.000000
vn 0.000000 1.000000 0.000000
vn -1.000000 0.000000 0.000000
vn -1.000000 0.000000 0.000000
vn -1.000000 0.000000 0.000000
vn -1.000000 0.000000 0.000000
vn -1.000000 0.000000 0.000000
vn -1.000000 0.000000 0.000000
vn 1.000000 0.000000 0.000000
vn 1.000000 0.000000 0.000000
vn 1.000000 0.000000 0.000000
vn 1.000000 0.000000 0.000000
vn 1.000000 0.000000 0.000000
vn 1.000000 0.000000 0.000000
mtllib mtl_t6_wpn_sniper_xpr50.mtl
g mtl_t6_wpn_sniper_xpr50
usemtl mtl_t6_wpn_sniper_xpr50
f 3/3/3 2/2/2 1/1/1
f 6/6/6 5/5/5 4/4/4
f 9/9/9 8/8/8 7/7/7
f 12/12/12 11/11/11 10/10/10
f 15/15/15 14/14/14 13/13/13
f 18/18/18 17/17/17 16/16/16
f 21/21/21 20/20/20 19/19/19
f 24/24/24 23/23/23 22/22/22
f 27/27/27 26/26/26 25/25/25
f 30/30/30 29/29/29 28/28/28
f 33/33/33 32/32/32 31/31/31
f 36/36/36 35/35/35 34/34/34
