# Generated by Wraith - Game extraction tools
# Please credit DTZxPorter for using it!

v 11.683819 0.000000 -2.357151
v 18.356773 0.000000 -2.357151
v 18.356773 1.835965 -1.472997
v 11.683819 1.835965 -1.472997
v 11.683819 0.000000 -2.357151
v 18.356773 1.835965 -1.472997
v 11.683819 1.835965 -1.472997
v 18.356773 1.835965 -1.472997
v 18.356773 2.289411 0.513679
v 11.683819 2.289411 0.513679
v 11.683819 1.835965 -1.472997
v 18.356773 2.289411 0.513679
v 11.683819 2.289411 0.513679
v 18.356773 2.289411 0.513679
v 18.356773 0.000000 2.362716
v 11.683819 0.000000 2.362716
v 11.683819 2.289411 0.513679
v 18.356773 0.000000 2.362716
v 11.683819 0.000000 2.362716
v 18.356773 0.000000 2.362716
v 18.356773 -2.289411 0.513679
v 11.683819 -2.289411 0.513679
v 11.683819 0.000000 2.362716
v 18.356773 -2.289411 0.513679
v 11.683819 -2.289411 0.513679
v 18.356773 -2.289411 0.513679
v 18.356773 -1.835965 -1.472997
v 11.683819 -1.835965 -1.472997
v 11.683819 -2.289411 0.513679
v 18.356773 -1.835965 -1.472997
v 11.683819 -1.835965 -1.472997
v 18.356773 -1.835965 -1.472997
v 18.356773 0.000000 -2.357151
v 11.683819 0.000000 -2.357151
v 11.683819 -1.835965 -1.472997
v 18.356773 0.000000 -2.357151
v 18.356773 0.000000 2.362716
v 18.356773 2.289411 0.513679
v 18.356773 -2.289411 0.513679
v 18.356773 -2.289411 0.513679
v 18.356773 2.289411 0.513679
v 18.356773 -1.835965 -1.472997
v 18.356773 -1.835965 -1.472997
v 18.356773 2.289411 0.513679
v 18.356773 0.000000 -2.357151
v 18.356773 0.000000 -2.357151
v 18.356773 2.289411 0.513679
v 18.356773 1.835965 -1.472997
v 0.003668 0.000000 2.362716
v 0.003668 -2.289411 0.513679
v 0.003668 2.289411 0.513679
v 0.003668 2.289411 0.513679
v 0.003668 -2.289411 0.513679
v 0.003668 1.835965 -1.472997
v 0.003668 1.835965 -1.472997
v 0.003668 -2.289411 0.513679
v 0.003668 0.000000 -2.357151
v 0.003668 0.000000 -2.357151
v 0.003668 -2.289411 0.513679
v 0.003668 -1.835965 -1.472997
v 0.003668 0.000000 -2.357151
v 0.003668 -1.835965 -1.472997
v 3.904300 0.000000 -2.357151
v 0.003668 -1.835965 -1.472997
v 3.904300 -1.835965 -1.472997
v 3.904300 0.000000 -2.357151
v 0.003668 -1.835965 -1.472997
v 0.003668 -2.289411 0.513679
v 3.904300 -1.835965 -1.472997
v 0.003668 -2.289411 0.513679
v 3.904300 -2.289411 0.513679
v 3.904300 -1.835965 -1.472997
v 0.003668 -2.289411 0.513679
v 0.003668 0.000000 2.362716
v 3.904300 -2.289411 0.513679
v 0.003668 0.000000 2.362716
v 3.904300 0.000000 2.362716
v 3.904300 -2.289411 0.513679
v 0.003668 0.000000 2.362716
v 0.003668 2.289411 0.513679
v 3.904300 0.000000 2.362716
v 0.003668 2.289411 0.513679
v 3.904300 2.289411 0.513679
v 3.904300 0.000000 2.362716
v 0.003668 2.289411 0.513679
v 0.003668 1.835965 -1.472997
v 3.904300 2.289411 0.513679
v 0.003668 1.835965 -1.472997
v 3.904300 1.835965 -1.472997
v 3.904300 2.289411 0.513679
v 0.003668 1.835965 -1.472997
v 0.003668 0.000000 -2.357151
v 3.904300 1.835965 -1.472997
v 0.003668 0.000000 -2.357151
v 3.904300 0.000000 -2.357151
v 3.904300 1.835965 -1.472997
v 11.683819 -1.835965 -1.472997
v 11.683819 0.000000 -2.357151
v 3.904300 0.000000 -2.357151
v 3.904300 -1.835965 -1.472997
v 11.683819 -1.835965 -1.472997
v 3.904300 0.000000 -2.357151
v 11.683819 -2.289411 0.513679
v 11.683819 -1.835965 -1.472997
v 3.904300 -1.835965 -1.472997
v 3.904300 -2.289411 0.513679
v 11.683819 -2.289411 0.513679
v 3.904300 -1.835965 -1.472997
v 11.683819 0.000000 2.362716
v 11.683819 -2.289411 0.513679
v 3.904300 -2.289411 0.513679
v 3.904300 0.000000 2.362716
v 11.683819 0.000000 2.362716
v 3.904300 -2.289411 0.513679
v 11.683819 2.289411 0.513679
v 11.683819 0.000000 2.362716
v 3.904300 0.000000 2.362716
v 3.904300 2.289411 0.513679
v 11.683819 2.289411 0.513679
v 3.904300 0.000000 2.362716
v 11.683819 1.835965 -1.472997
v 11.683819 2.289411 0.513679
v 3.904300 2.289411 0.513679
v 3.904300 1.835965 -1.472997
v 11.683819 1.835965 -1.472997
v 3.904300 2.289411 0.513679
v 11.683819 0.000000 -2.357151
v 11.683819 1.835965 -1.472997
v 3.904300 1.835965 -1.472997
v 3.904300 0.000000 -2.357151
v 11.683819 0.000000 -2.357151
v 3.904300 1.835965 -1.472997
vt 0.263672 0.727783
vt 0.034943 0.727783
vt 0.034943 0.758301
vt 0.263672 0.759033
vt 0.263672 0.727783
vt 0.034943 0.758301
vt 0.263672 0.759033
vt 0.034943 0.758301
vt 0.034973 0.802002
vt 0.263672 0.802002
vt 0.263672 0.759033
vt 0.034973 0.802002
vt 0.263672 0.802002
vt 0.034973 0.802002
vt 0.034973 0.858521
vt 0.263672 0.858643
vt 0.263672 0.802002
vt 0.034973 0.858521
vt 0.263672 0.858643
vt 0.034973 0.858521
vt 0.034973 0.916748
vt 0.263672 0.916687
vt 0.263672 0.858643
vt 0.034973 0.916748
vt 0.263672 0.916687
vt 0.034973 0.916748
vt 0.034973 0.960358
vt 0.263672 0.960327
vt 0.263672 0.916687
vt 0.034973 0.960358
vt 0.263672 0.960327
vt 0.034973 0.960358
vt 0.034973 0.987274
vt 0.263672 0.987251
vt 0.263672 0.960327
vt 0.034973 0.987274
vt 0.896973 0.861694
vt 0.950195 0.824585
vt 0.843750 0.824585
vt 0.843750 0.824585
vt 0.950195 0.824585
vt 0.854492 0.778442
vt 0.854492 0.778442
vt 0.950195 0.824585
vt 0.896973 0.757813
vt 0.896973 0.757813
vt 0.950195 0.824585
vt 0.939941 0.778442
vt 0.899414 0.890808
vt 0.986816 0.830078
vt 0.812012 0.830078
vt 0.812012 0.830078
vt 0.986816 0.830078
vt 0.829102 0.754272
vt 0.829102 0.754272
vt 0.986816 0.830078
vt 0.899414 0.720459
vt 0.899414 0.720459
vt 0.986816 0.830078
vt 0.969238 0.754272
vt 0.402100 0.988365
vt 0.402100 0.960419
vt 0.307373 0.988342
vt 0.402100 0.960419
vt 0.307373 0.960388
vt 0.307373 0.988342
vt 0.402100 0.960419
vt 0.402100 0.916748
vt 0.307373 0.960388
vt 0.402100 0.916748
vt 0.307373 0.916748
vt 0.307373 0.960388
vt 0.402100 0.916748
vt 0.402100 0.859375
vt 0.307373 0.916748
vt 0.402100 0.859375
vt 0.307373 0.859375
vt 0.307373 0.916748
vt 0.402100 0.859375
vt 0.402100 0.801880
vt 0.307373 0.859375
vt 0.402100 0.801880
vt 0.307373 0.801880
vt 0.307373 0.859375
vt 0.402100 0.801880
vt 0.402100 0.758179
vt 0.307373 0.801880
vt 0.402100 0.758179
vt 0.307373 0.758911
vt 0.307373 0.801880
vt 0.402100 0.758179
vt 0.402100 0.726563
vt 0.307373 0.758911
vt 0.402100 0.726563
vt 0.307373 0.726807
vt 0.307373 0.758911
vt 0.465820 0.725586
vt 0.423828 0.725586
vt 0.423584 0.985100
vt 0.465820 0.985306
vt 0.465820 0.725586
vt 0.423584 0.985100
vt 0.514160 0.725586
vt 0.465820 0.725586
vt 0.465820 0.985306
vt 0.514160 0.985291
vt 0.514160 0.725586
vt 0.465820 0.985306
vt 0.582031 0.725586
vt 0.514160 0.725586
vt 0.514160 0.985291
vt 0.581543 0.985275
vt 0.582031 0.725586
vt 0.514160 0.985291
vt 0.648926 0.725586
vt 0.582031 0.725586
vt 0.581543 0.985275
vt 0.648926 0.985260
vt 0.648926 0.725586
vt 0.581543 0.985275
vt 0.698730 0.725586
vt 0.648926 0.725586
vt 0.648926 0.985260
vt 0.698730 0.985245
vt 0.698730 0.725586
vt 0.648926 0.985260
vt 0.743652 0.725586
vt 0.698730 0.725586
vt 0.698730 0.985245
vt 0.743652 0.985237
vt 0.743652 0.725586
vt 0.698730 0.985245
vn 0.000000 0.000000 -1.000000
vn 0.000000 0.000000 -1.000000
vn 0.000000 0.782779 -0.624266
vn 0.000000 0.782779 -0.624266
vn 0.000000 0.000000 -1.000000
vn 0.000000 0.782779 -0.624266
vn 0.000000 0.782779 -0.624266
vn 0.000000 0.782779 -0.624266
vn 0.000000 0.945205 0.326810
vn 0.000000 0.945205 0.326810
vn 0.000000 0.782779 -0.624266
vn 0.000000 0.945205 0.326810
vn 0.000000 0.945205 0.326810
vn 0.000000 0.945205 0.326810
vn 0.000000 0.000000 1.000000
vn 0.000000 0.000000 1.000000
vn 0.000000 0.945205 0.326810
vn 0.000000 0.000000 1.000000
vn 0.000000 0.000000 1.000000
vn 0.000000 0.000000 1.000000
vn 0.000000 -0.945205 0.326810
vn 0.000000 -0.945205 0.326810
vn 0.000000 0.000000 1.000000
vn 0.000000 -0.945205 0.326810
vn 0.000000 -0.945205 0.326810
vn 0.000000 -0.945205 0.326810
vn 0.000000 -0.782779 -0.624266
vn 0.000000 -0.782779 -0.624266
vn 0.000000 -0.945205 0.326810
vn 0.000000 -0.782779 -0.624266
vn 0.000000 -0.782779 -0.624266
vn 0.000000 -0.782779 -0.624266
vn 0.000000 0.000000 -1.000000
vn 0.000000 0.000000 -1.000000
vn 0.000000 -0.782779 -0.624266
vn 0.000000 0.000000 -1.000000
vn 1.000000 0.000000 0.000000
vn 1.000000 0.000000 0.000000
vn 1.000000 0.000000 0.000000
vn 1.000000 0.000000 0.000000
vn 1.000000 0.000000 0.000000
vn 1.000000 0.000000 0.000000
vn 1.000000 0.000000 0.000000
vn 1.000000 0.000000 0.000000
vn 1.000000 0.000000 0.000000
vn 1.000000 0.000000 0.000000
vn 1.000000 0.000000 0.000000
vn 1.000000 0.000000 0.000000
vn -1.000000 0.000000 0.000000
vn -1.000000 0.000000 0.000000
vn -1.000000 0.000000 0.000000
vn -1.000000 0.000000 0.000000
vn -1.000000 0.000000 0.000000
vn -1.000000 0.000000 0.000000
vn -1.000000 0.000000 0.000000
vn -1.000000 0.000000 0.000000
vn -1.000000 0.000000 0.000000
vn -1.000000 0.000000 0.000000
vn -1.000000 0.000000 0.000000
vn -1.000000 0.000000 0.000000
vn 0.000000 0.000000 -1.000000
vn 0.000000 -0.782779 -0.624266
vn 0.000000 0.000000 -1.000000
vn 0.000000 -0.782779 -0.624266
vn 0.000000 -0.782779 -0.624266
vn 0.000000 0.000000 -1.000000
vn 0.000000 -0.782779 -0.624266
vn 0.000000 -0.945205 0.326810
vn 0.000000 -0.782779 -0.624266
vn 0.000000 -0.945205 0.326810
vn 0.000000 -0.945205 0.326810
vn 0.000000 -0.782779 -0.624266
vn 0.000000 -0.945205 0.326810
vn 0.000000 0.000000 1.000000
vn 0.000000 -0.945205 0.326810
vn 0.000000 0.000000 1.000000
vn 0.000000 0.000000 1.000000
vn 0.000000 -0.945205 0.326810
vn 0.000000 0.000000 1.000000
vn 0.000000 0.945205 0.326810
vn 0.000000 0.000000 1.000000
vn 0.000000 0.945205 0.326810
vn 0.000000 0.945205 0.326810
vn 0.000000 0.000000 1.000000
vn 0.000000 0.945205 0.326810
vn 0.000000 0.782779 -0.624266
vn 0.000000 0.945205 0.326810
vn 0.000000 0.782779 -0.624266
vn 0.000000 0.782779 -0.624266
vn 0.000000 0.945205 0.326810
vn 0.000000 0.782779 -0.624266
vn 0.000000 0.000000 -1.000000
vn 0.000000 0.782779 -0.624266
vn 0.000000 0.000000 -1.000000
vn 0.000000 0.000000 -1.000000
vn 0.000000 0.782779 -0.624266
vn 0.000000 -0.782779 -0.624266
vn 0.000000 0.000000 -1.000000
vn 0.000000 0.000000 -1.000000
vn 0.000000 -0.782779 -0.624266
vn 0.000000 -0.782779 -0.624266
vn 0.000000 0.000000 -1.000000
vn 0.000000 -0.945205 0.326810
vn 0.000000 -0.782779 -0.624266
vn 0.000000 -0.782779 -0.624266
vn 0.000000 -0.945205 0.326810
vn 0.000000 -0.945205 0.326810
vn 0.000000 -0.782779 -0.624266
vn 0.000000 0.000000 1.000000
vn 0.000000 -0.945205 0.326810
vn 0.000000 -0.945205 0.326810
vn 0.000000 0.000000 1.000000
vn 0.000000 0.000000 1.000000
vn 0.000000 -0.945205 0.326810
vn 0.000000 0.945205 0.326810
vn 0.000000 0.000000 1.000000
vn 0.000000 0.000000 1.000000
vn 0.000000 0.945205 0.326810
vn 0.000000 0.945205 0.326810
vn 0.000000 0.000000 1.000000
vn 0.000000 0.782779 -0.624266
vn 0.000000 0.945205 0.326810
vn 0.000000 0.945205 0.326810
vn 0.000000 0.782779 -0.624266
vn 0.000000 0.782779 -0.624266
vn 0.000000 0.945205 0.326810
vn 0.000000 0.000000 -1.000000
vn 0.000000 0.782779 -0.624266
vn 0.000000 0.782779 -0.624266
vn 0.000000 0.000000 -1.000000
vn 0.000000 0.000000 -1.000000
vn 0.000000 0.782779 -0.624266
mtllib mtl_t6_attach_ar_silencer1.mtl
g mtl_t6_attach_ar_silencer1
usemtl mtl_t6_attach_ar_silencer1
f 3/3/3 2/2/2 1/1/1
f 6/6/6 5/5/5 4/4/4
f 9/9/9 8/8/8 7/7/7
f 12/12/12 11/11/11 10/10/10
f 15/15/15 14/14/14 13/13/13
f 18/18/18 17/17/17 16/16/16
f 21/21/21 20/20/20 19/19/19
f 24/24/24 23/23/23 22/22/22
f 27/27/27 26/26/26 25/25/25
f 30/30/30 29/29/29 28/28/28
f 33/33/33 32/32/32 31/31/31
f 36/36/36 35/35/35 34/34/34
f 39/39/39 38/38/38 37/37/37
f 42/42/42 41/41/41 40/40/40
f 45/45/45 44/44/44 43/43/43
f 48/48/48 47/47/47 46/46/46
f 51/51/51 50/50/50 49/49/49
f 54/54/54 53/53/53 52/52/52
f 57/57/57 56/56/56 55/55/55
f 60/60/60 59/59/59 58/58/58
f 63/63/63 62/62/62 61/61/61
f 66/66/66 65/65/65 64/64/64
f 69/69/69 68/68/68 67/67/67
f 72/72/72 71/71/71 70/70/70
f 75/75/75 74/74/74 73/73/73
f 78/78/78 77/77/77 76/76/76
f 81/81/81 80/80/80 79/79/79
f 84/84/84 83/83/83 82/82/82
f 87/87/87 86/86/86 85/85/85
f 90/90/90 89/89/89 88/88/88
f 93/93/93 92/92/92 91/91/91
f 96/96/96 95/95/95 94/94/94
f 99/99/99 98/98/98 97/97/97
f 102/102/102 101/101/101 100/100/100
f 105/105/105 104/104/104 103/103/103
f 108/108/108 107/107/107 106/106/106
f 111/111/111 110/110/110 109/109/109
f 114/114/114 113/113/113 112/112/112
f 117/117/117 116/116/116 115/115/115
f 120/120/120 119/119/119 118/118/118
f 123/123/123 122/122/122 121/121/121
f 126/126/126 125/125/125 124/124/124
f 129/129/129 128/128/128 127/127/127
f 132/132/132 131/131/131 130/130/130
