# Generated by Wraith - Game extraction tools
# Please credit DTZxPorter for using it!

v 7.419878 -1.348120 -12.630935
v 1.839320 -1.274582 -16.953022
v 1.839320 -3.364296 -16.454657
v 2.105371 2.100915 1.831421
v -4.629433 1.040193 1.652841
v -4.629433 2.966875 1.193360
v 2.817644 -0.480182 -0.467327
v -4.139392 -1.626205 -0.806082
v -4.126444 0.460167 -1.318100
v 8.773890 -4.000163 -14.660016
v 3.481882 -4.003366 -18.962248
v 3.469947 -5.926966 -18.490181
v -2.510536 -0.898642 -6.477015
v -4.629433 1.040193 1.652841
v 2.105371 2.100915 1.831421
v 3.482555 0.573417 -4.573625
v -2.510536 -0.898642 -6.477015
v 2.105371 2.100915 1.831421
v -2.510536 -0.898642 -6.477015
v 3.482555 0.573417 -4.573625
v 7.419878 -1.348120 -12.630935
v 1.839320 -3.364296 -16.454657
v -2.510536 -0.898642 -6.477015
v 7.419878 -1.348120 -12.630935
v 2.105371 2.100915 1.831421
v -4.629433 2.966875 1.193360
v -2.510536 1.028039 -6.936493
v 3.482555 0.573417 -4.573625
v 2.105371 2.100915 1.831421
v -2.510536 1.028039 -6.936493
v 7.419878 -1.348120 -12.630935
v 3.482555 0.573417 -4.573625
v -2.510536 1.028039 -6.936493
v 1.839320 -1.274582 -16.953022
v 7.419878 -1.348120 -12.630935
v -2.510536 1.028039 -6.936493
v -2.510536 1.028039 -6.936493
v -4.629433 2.966875 1.193360
v -4.629433 1.040193 1.652841
v -2.510536 -0.898642 -6.477015
v -2.510536 1.028039 -6.936493
v -4.629433 1.040193 1.652841
v 1.839320 -1.274582 -16.953022
v -2.510536 1.028039 -6.936493
v -2.510536 -0.898642 -6.477015
v 1.839320 -3.364296 -16.454657
v 1.839320 -1.274582 -16.953022
v -2.510536 -0.898642 -6.477015
v -0.513541 -2.158937 -11.547531
v 3.481882 -4.003366 -18.962248
v 8.773890 -4.000163 -14.660016
v 5.408437 -2.592210 -9.007945
v -0.513541 -2.158937 -11.547531
v 8.773890 -4.000163 -14.660016
v -0.513541 -2.158937 -11.547531
v 5.408437 -2.592210 -9.007945
v 2.817644 -0.480182 -0.467327
v -4.126444 0.460167 -1.318100
v -0.513541 -2.158937 -11.547531
v 2.817644 -0.480182 -0.467327
v 8.773890 -4.000163 -14.660016
v 3.469947 -5.926966 -18.490181
v -0.525475 -4.082534 -11.075462
v 5.408437 -2.592210 -9.007945
v 8.773890 -4.000163 -14.660016
v -0.525475 -4.082534 -11.075462
v 2.817644 -0.480182 -0.467327
v 5.408437 -2.592210 -9.007945
v -0.525475 -4.082534 -11.075462
v -4.139392 -1.626205 -0.806082
v 2.817644 -0.480182 -0.467327
v -0.525475 -4.082534 -11.075462
v -0.525475 -4.082534 -11.075462
v 3.469947 -5.926966 -18.490181
v 3.481882 -4.003366 -18.962248
v -0.513541 -2.158937 -11.547531
v -0.525475 -4.082534 -11.075462
v 3.481882 -4.003366 -18.962248
v -4.139392 -1.626205 -0.806082
v -0.525475 -4.082534 -11.075462
v -0.513541 -2.158937 -11.547531
v -4.126444 0.460167 -1.318100
v -4.139392 -1.626205 -0.806082
v -0.513541 -2.158937 -11.547531
v -3.650884 -3.542048 -6.157006
v -3.571759 1.441546 -7.457623
v -4.277346 -2.911148 -3.777694
v 4.563353 -4.772967 -11.449941
v 3.308339 -4.123672 -9.339268
v 5.515313 -3.838537 -8.114702
v 6.770331 -4.487832 -10.225379
v 4.563353 -4.772967 -11.449941
v 5.515313 -3.838537 -8.114702
v 6.770331 -4.487832 -10.225379
v 5.515313 -3.838537 -8.114702
v 5.669630 1.107752 -9.544547
v 6.924646 0.458460 -11.655221
v 6.770331 -4.487832 -10.225379
v 5.669630 1.107752 -9.544547
v 5.669630 1.107752 -9.544547
v 3.462650 0.822617 -10.769114
v 6.924646 0.458460 -11.655221
v 3.462650 0.822617 -10.769114
v 4.717666 0.173322 -12.879787
v 6.924646 0.458460 -11.655221
v 3.462650 0.822617 -10.769114
v 3.308339 -4.123672 -9.339268
v 4.717666 0.173322 -12.879787
v 3.308339 -4.123672 -9.339268
v 4.563353 -4.772967 -11.449941
v 4.717666 0.173322 -12.879787
v 6.770331 -4.487832 -10.225379
v 6.924646 0.458460 -11.655221
v 4.563353 -4.772967 -11.449941
v 6.924646 0.458460 -11.655221
v 4.717666 0.173322 -12.879787
v 4.563353 -4.772967 -11.449941
v 5.669630 1.107752 -9.544547
v 5.515313 -3.838537 -8.114702
v 3.462650 0.822617 -10.769114
v 5.515313 -3.838537 -8.114702
v 3.308339 -4.123672 -9.339268
v 3.462650 0.822617 -10.769114
v -1.418870 -4.763910 -11.555084
v 0.855146 -4.612886 -10.433624
v -0.297059 -5.394810 -13.744856
v 0.855146 -4.612886 -10.433624
v 1.976958 -5.243787 -12.623399
v -0.297059 -5.394810 -13.744856
v 0.855146 -4.612886 -10.433624
v 1.156006 0.367396 -11.714376
v 1.976958 -5.243787 -12.623399
v 1.156006 0.367396 -11.714376
v 2.277821 -0.263502 -13.904146
v 1.976958 -5.243787 -12.623399
v 2.277821 -0.263502 -13.904146
v 1.156006 0.367396 -11.714376
v -1.118005 0.216375 -12.835830
v 0.003807 -0.414526 -15.025604
v 2.277821 -0.263502 -13.904146
v -1.118005 0.216375 -12.835830
v 0.003807 -0.414526 -15.025604
v -1.118005 0.216375 -12.835830
v -1.418870 -4.763910 -11.555084
v -0.297059 -5.394810 -13.744856
v 0.003807 -0.414526 -15.025604
v -1.418870 -4.763910 -11.555084
v 0.003807 -0.414526 -15.025604
v -0.297059 -5.394810 -13.744856
v 2.277821 -0.263502 -13.904146
v -0.297059 -5.394810 -13.744856
v 1.976958 -5.243787 -12.623399
v 2.277821 -0.263502 -13.904146
v -1.418870 -4.763910 -11.555084
v -1.118005 0.216375 -12.835830
v 0.855146 -4.612886 -10.433624
v -1.118005 0.216375 -12.835830
v 1.156006 0.367396 -11.714376
v 0.855146 -4.612886 -10.433624
v -4.277346 -2.911148 -3.777694
v -1.816116 -2.789519 -3.161919
v -3.650884 -3.542048 -6.157006
v -1.816116 -2.789519 -3.161919
v -1.189657 -3.420420 -5.541228
v -3.650884 -3.542048 -6.157006
v -1.816116 -2.789519 -3.161919
v -1.736992 2.194070 -4.462538
v -1.189657 -3.420420 -5.541228
v -1.736992 2.194070 -4.462538
v -1.110532 1.563172 -6.841848
v -1.189657 -3.420420 -5.541228
v -1.110532 1.563172 -6.841848
v -1.736992 2.194070 -4.462538
v -4.198214 2.072444 -5.078311
v -3.571759 1.441546 -7.457623
v -1.110532 1.563172 -6.841848
v -4.198214 2.072444 -5.078311
v -3.571759 1.441546 -7.457623
v -4.198214 2.072444 -5.078311
v -4.277346 -2.911148 -3.777694
v -3.571759 1.441546 -7.457623
v -3.650884 -3.542048 -6.157006
v -1.110532 1.563172 -6.841848
v -3.650884 -3.542048 -6.157006
v -1.189657 -3.420420 -5.541228
v -1.110532 1.563172 -6.841848
v -4.277346 -2.911148 -3.777694
v -4.198214 2.072444 -5.078311
v -1.816116 -2.789519 -3.161919
v -4.198214 2.072444 -5.078311
v -1.736992 2.194070 -4.462538
v -1.816116 -2.789519 -3.161919
v 3.653678 2.362444 -3.117040
v 1.192596 2.362444 -3.745286
v 4.261050 1.713148 -5.496350
v 1.192596 2.362444 -3.745286
v 1.799970 1.713148 -6.124595
v 4.261050 1.713148 -5.496350
v 1.192596 2.362444 -3.745286
v 0.866909 -2.617534 -2.469426
v 1.799970 1.713148 -6.124595
v 0.866909 -2.617534 -2.469426
v 1.474279 -3.266829 -4.848738
v 1.799970 1.713148 -6.124595
v 1.474279 -3.266829 -4.848738
v 0.866909 -2.617534 -2.469426
v 3.327984 -2.617534 -1.841182
v 3.935356 -3.266829 -4.220495
v 1.474279 -3.266829 -4.848738
v 3.327984 -2.617534 -1.841182
v 3.935356 -3.266829 -4.220495
v 3.327984 -2.617534 -1.841182
v 3.653678 2.362444 -3.117040
v 4.261050 1.713148 -5.496350
v 3.935356 -3.266829 -4.220495
v 3.653678 2.362444 -3.117040
v 3.935356 -3.266829 -4.220495
v 4.261050 1.713148 -5.496350
v 1.474279 -3.266829 -4.848738
v 4.261050 1.713148 -5.496350
v 1.799970 1.713148 -6.124595
v 1.474279 -3.266829 -4.848738
v 3.653678 2.362444 -3.117040
v 3.327984 -2.617534 -1.841182
v 1.192596 2.362444 -3.745286
v 3.327984 -2.617534 -1.841182
v 0.866909 -2.617534 -2.469426
v 1.192596 2.362444 -3.745286
vt 0.522461 0.191895
vt 0.624512 0.207031
vt 0.623535 0.176270
vt 0.786621 0.395996
vt 0.792969 0.299805
vt 0.778809 0.299805
vt 0.522461 0.191895
vt 0.624512 0.207031
vt 0.623535 0.176270
vt 0.786621 0.395996
vt 0.792969 0.299805
vt 0.778809 0.299805
vt -0.223999 0.445313
vt -0.235229 0.645752
vt -0.357178 0.615723
vt -0.341797 0.459473
vt -0.223999 0.445313
vt -0.357178 0.615723
vt -0.223999 0.445313
vt -0.341797 0.459473
vt -0.368652 0.317871
vt -0.246094 0.274902
vt -0.223999 0.445313
vt -0.368652 0.317871
vt 0.641602 0.614746
vt 0.765137 0.645508
vt 0.776367 0.445313
vt 0.656738 0.459473
vt 0.641602 0.614746
vt 0.776367 0.445313
vt 0.630371 0.318359
vt 0.656738 0.459473
vt 0.776367 0.445313
vt 0.754395 0.274414
vt 0.630371 0.318359
vt 0.776367 0.445313
vt 0.872070 0.229980
vt 0.722656 0.229980
vt 0.722656 0.255371
vt 0.872559 0.255371
vt 0.872070 0.229980
vt 0.722656 0.255371
vt 0.992676 0.228516
vt 0.872070 0.229980
vt 0.872559 0.255371
vt 0.992676 0.255859
vt 0.992676 0.228516
vt 0.872559 0.255371
vt -0.223999 0.445313
vt -0.235229 0.645752
vt -0.357178 0.615723
vt -0.341797 0.459473
vt -0.223999 0.445313
vt -0.357178 0.615723
vt -0.223999 0.445313
vt -0.341797 0.459473
vt -0.368652 0.317871
vt -0.246094 0.274902
vt -0.223999 0.445313
vt -0.368652 0.317871
vt 0.641602 0.614746
vt 0.765137 0.645508
vt 0.776367 0.445313
vt 0.656738 0.459473
vt 0.641602 0.614746
vt 0.776367 0.445313
vt 0.630371 0.318359
vt 0.656738 0.459473
vt 0.776367 0.445313
vt 0.754395 0.274414
vt 0.630371 0.318359
vt 0.776367 0.445313
vt 0.872070 0.229980
vt 0.722656 0.229980
vt 0.722656 0.255371
vt 0.872559 0.255371
vt 0.872070 0.229980
vt 0.722656 0.255371
vt 0.992676 0.228516
vt 0.872070 0.229980
vt 0.872559 0.255371
vt 0.992676 0.255859
vt 0.992676 0.228516
vt 0.872559 0.255371
vt 0.393799 0.642334
vt 0.325928 0.642334
vt 0.393799 0.602295
vt 0.295654 0.602295
vt 0.295654 0.642334
vt 0.325928 0.642334
vt 0.325928 0.602295
vt 0.295654 0.602295
vt 0.325928 0.642334
vt 0.325928 0.602295
vt 0.325928 0.642334
vt 0.393799 0.642334
vt 0.393799 0.602295
vt 0.325928 0.602295
vt 0.393799 0.642334
vt 0.393799 0.642334
vt 0.424072 0.642334
vt 0.393799 0.602295
vt 0.424072 0.642334
vt 0.424072 0.602295
vt 0.393799 0.602295
vt 0.424072 0.642334
vt 0.295654 0.642334
vt 0.424072 0.602295
vt 0.295654 0.642334
vt 0.295654 0.602295
vt 0.424072 0.602295
vt 0.505371 0.389160
vt 0.470703 0.389160
vt 0.508789 0.409668
vt 0.470703 0.389160
vt 0.467285 0.409668
vt 0.508789 0.409668
vt 0.505371 0.389160
vt 0.470703 0.389160
vt 0.508789 0.409668
vt 0.470703 0.389160
vt 0.467285 0.409668
vt 0.508789 0.409668
vt 0.325928 0.642334
vt 0.295654 0.642334
vt 0.325928 0.602295
vt 0.295654 0.642334
vt 0.295654 0.602295
vt 0.325928 0.602295
vt 0.295654 0.642334
vt 0.424072 0.642334
vt 0.295654 0.602295
vt 0.424072 0.642334
vt 0.424072 0.602295
vt 0.295654 0.602295
vt 0.424072 0.602295
vt 0.424072 0.642334
vt 0.393799 0.642334
vt 0.393799 0.602295
vt 0.424072 0.602295
vt 0.393799 0.642334
vt 0.393799 0.602295
vt 0.393799 0.642334
vt 0.325928 0.642334
vt 0.325928 0.602295
vt 0.393799 0.602295
vt 0.325928 0.642334
vt 0.505371 0.389160
vt 0.470703 0.389160
vt 0.508789 0.409668
vt 0.470703 0.389160
vt 0.467285 0.409668
vt 0.508789 0.409668
vt 0.505371 0.389160
vt 0.470703 0.389160
vt 0.508789 0.409668
vt 0.470703 0.389160
vt 0.467285 0.409668
vt 0.508789 0.409668
vt 0.393799 0.602295
vt 0.424072 0.602295
vt 0.393799 0.642334
vt 0.424072 0.602295
vt 0.424072 0.642334
vt 0.393799 0.642334
vt 0.295654 0.642334
vt 0.424072 0.642334
vt 0.295654 0.602295
vt 0.424072 0.642334
vt 0.424072 0.602295
vt 0.295654 0.602295
vt 0.295654 0.642334
vt 0.295654 0.602295
vt 0.325928 0.602295
vt 0.325928 0.642334
vt 0.295654 0.642334
vt 0.325928 0.602295
vt 0.325928 0.642334
vt 0.325928 0.602295
vt 0.393799 0.602295
vt 0.505371 0.389160
vt 0.470703 0.389160
vt 0.508789 0.409668
vt 0.470703 0.389160
vt 0.467285 0.409668
vt 0.508789 0.409668
vt 0.505371 0.389160
vt 0.470703 0.389160
vt 0.508789 0.409668
vt 0.470703 0.389160
vt 0.467285 0.409668
vt 0.508789 0.409668
vt 0.325928 0.602295
vt 0.295654 0.602295
vt 0.325928 0.642334
vt 0.295654 0.602295
vt 0.295654 0.642334
vt 0.325928 0.642334
vt 0.424072 0.642334
vt 0.295654 0.642334
vt 0.424072 0.602295
vt 0.295654 0.642334
vt 0.295654 0.602295
vt 0.424072 0.602295
vt 0.424072 0.642334
vt 0.424072 0.602295
vt 0.393799 0.602295
vt 0.393799 0.642334
vt 0.424072 0.642334
vt 0.393799 0.602295
vt 0.393799 0.642334
vt 0.393799 0.602295
vt 0.325928 0.602295
vt 0.325928 0.642334
vt 0.393799 0.642334
vt 0.325928 0.602295
vt 0.505371 0.389160
vt 0.470703 0.389160
vt 0.508789 0.409668
vt 0.470703 0.389160
vt 0.467285 0.409668
vt 0.508789 0.409668
vt 0.505371 0.389160
vt 0.470703 0.389160
vt 0.508789 0.409668
vt 0.470703 0.389160
vt 0.467285 0.409668
vt 0.508789 0.409668
vn 0.600783 -0.185910 -0.778865
vn 0.600783 -0.185910 -0.778865
vn 0.600783 -0.185910 -0.778865
vn -0.062622 0.230920 0.970646
vn -0.062622 0.230920 0.970646
vn -0.062622 0.230920 0.970646
vn -0.086106 0.238748 0.966732
vn -0.086106 0.238748 0.966732
vn -0.086106 0.238748 0.966732
vn 0.618395 -0.189824 -0.761252
vn 0.618395 -0.189824 -0.761252
vn 0.618395 -0.189824 -0.761252
vn 0.084149 -0.960861 0.264188
vn 0.090020 -0.964775 0.246575
vn 0.090020 -0.964775 0.246575
vn 0.084149 -0.960861 0.264188
vn 0.084149 -0.960861 0.264188
vn 0.090020 -0.964775 0.246575
vn 0.084149 -0.960861 0.264188
vn 0.084149 -0.960861 0.264188
vn 0.064579 -0.956947 0.283757
vn 0.064579 -0.956947 0.283757
vn 0.084149 -0.960861 0.264188
vn 0.064579 -0.956947 0.283757
vn 0.090020 0.972603 -0.215264
vn 0.090020 0.972603 -0.215264
vn 0.084149 0.976517 -0.197652
vn 0.084149 0.976517 -0.197652
vn 0.090020 0.972603 -0.215264
vn 0.084149 0.976517 -0.197652
vn 0.064579 0.982387 -0.178082
vn 0.084149 0.976517 -0.197652
vn 0.084149 0.976517 -0.197652
vn 0.064579 0.982387 -0.178082
vn 0.064579 0.982387 -0.178082
vn 0.084149 0.976517 -0.197652
vn -0.939335 -0.080235 -0.334638
vn -0.978474 -0.048924 -0.201566
vn -0.978474 -0.048924 -0.201566
vn -0.939335 -0.080235 -0.334638
vn -0.939335 -0.080235 -0.334638
vn -0.978474 -0.048924 -0.201566
vn -0.890411 -0.105675 -0.442270
vn -0.939335 -0.080235 -0.334638
vn -0.939335 -0.080235 -0.334638
vn -0.890411 -0.105675 -0.442270
vn -0.890411 -0.105675 -0.442270
vn -0.939335 -0.080235 -0.334638
vn 0.090020 0.974560 -0.207436
vn 0.084149 0.978474 -0.191781
vn 0.084149 0.978474 -0.191781
vn 0.090020 0.974560 -0.207436
vn 0.090020 0.974560 -0.207436
vn 0.084149 0.978474 -0.191781
vn 0.090020 0.974560 -0.207436
vn 0.090020 0.974560 -0.207436
vn 0.090020 0.968689 -0.234834
vn 0.090020 0.968689 -0.234834
vn 0.090020 0.974560 -0.207436
vn 0.090020 0.968689 -0.234834
vn 0.072407 -0.956947 0.283757
vn 0.072407 -0.956947 0.283757
vn 0.078278 -0.960861 0.268102
vn 0.078278 -0.960861 0.268102
vn 0.072407 -0.956947 0.283757
vn 0.078278 -0.960861 0.268102
vn 0.078278 -0.966732 0.240705
vn 0.078278 -0.960861 0.268102
vn 0.078278 -0.960861 0.268102
vn 0.078278 -0.966732 0.240705
vn 0.078278 -0.966732 0.240705
vn 0.078278 -0.960861 0.268102
vn -0.929550 -0.082192 -0.360078
vn -0.866928 -0.113503 -0.485323
vn -0.866928 -0.113503 -0.485323
vn -0.929550 -0.082192 -0.360078
vn -0.929550 -0.082192 -0.360078
vn -0.866928 -0.113503 -0.485323
vn -0.966732 -0.054795 -0.248532
vn -0.929550 -0.082192 -0.360078
vn -0.929550 -0.082192 -0.360078
vn -0.966732 -0.054795 -0.248532
vn -0.966732 -0.054795 -0.248532
vn -0.929550 -0.082192 -0.360078
vn -0.696673 -0.718200 0.007828
vn -0.675147 0.649706 -0.350294
vn -0.696673 -0.718200 0.007828
vn -0.029354 -0.960861 0.277887
vn -0.029354 -0.960861 0.277887
vn 0.592955 -0.598826 0.538160
vn 0.592955 -0.598826 0.538160
vn -0.029354 -0.960861 0.277887
vn 0.592955 -0.598826 0.538160
vn 0.592955 -0.598826 0.538160
vn 0.592955 -0.598826 0.538160
vn 0.636008 0.759295 0.144814
vn 0.636008 0.759295 0.144814
vn 0.592955 -0.598826 0.538160
vn 0.636008 0.759295 0.144814
vn 0.636008 0.759295 0.144814
vn 0.029354 0.960861 -0.277887
vn 0.636008 0.759295 0.144814
vn 0.029354 0.960861 -0.277887
vn 0.029354 0.960861 -0.277887
vn 0.636008 0.759295 0.144814
vn -0.868885 -0.111546 -0.481409
vn -0.868885 -0.111546 -0.481409
vn -0.868885 -0.111546 -0.481409
vn -0.868885 -0.111546 -0.481409
vn -0.868885 -0.111546 -0.481409
vn -0.868885 -0.111546 -0.481409
vn 0.493151 -0.256360 -0.831703
vn 0.493151 -0.256360 -0.831703
vn 0.493151 -0.256360 -0.831703
vn 0.493151 -0.256360 -0.831703
vn 0.493151 -0.256360 -0.831703
vn 0.493151 -0.256360 -0.831703
vn -0.493151 0.256360 0.831703
vn -0.493151 0.256360 0.831703
vn -0.493151 0.256360 0.831703
vn -0.493151 0.256360 0.831703
vn -0.493151 0.256360 0.831703
vn -0.493151 0.256360 0.831703
vn -0.675147 -0.726027 -0.136986
vn -0.058708 -0.966732 0.248532
vn -0.675147 -0.726027 -0.136986
vn -0.058708 -0.966732 0.248532
vn -0.058708 -0.966732 0.248532
vn -0.675147 -0.726027 -0.136986
vn 0.894325 0.058708 0.442270
vn 0.894325 0.058708 0.442270
vn 0.894325 0.058708 0.442270
vn 0.894325 0.058708 0.442270
vn 0.894325 0.058708 0.442270
vn 0.894325 0.058708 0.442270
vn 0.058708 0.966732 -0.248532
vn 0.058708 0.966732 -0.248532
vn -0.590998 0.641879 -0.487280
vn -0.590998 0.641879 -0.487280
vn 0.058708 0.966732 -0.248532
vn -0.590998 0.641879 -0.487280
vn -0.590998 0.641879 -0.487280
vn -0.590998 0.641879 -0.487280
vn -0.675147 -0.726027 -0.136986
vn -0.675147 -0.726027 -0.136986
vn -0.590998 0.641879 -0.487280
vn -0.675147 -0.726027 -0.136986
vn 0.442270 -0.248532 -0.863014
vn 0.442270 -0.248532 -0.863014
vn 0.442270 -0.248532 -0.863014
vn 0.442270 -0.248532 -0.863014
vn 0.442270 -0.248532 -0.863014
vn 0.442270 -0.248532 -0.863014
vn -0.442270 0.248532 0.863014
vn -0.442270 0.248532 0.863014
vn -0.442270 0.248532 0.863014
vn -0.442270 0.248532 0.863014
vn -0.442270 0.248532 0.863014
vn -0.442270 0.248532 0.863014
vn -0.696673 -0.718200 0.007828
vn -0.015656 -0.966732 0.252446
vn -0.696673 -0.718200 0.007828
vn -0.015656 -0.966732 0.252446
vn -0.015656 -0.966732 0.252446
vn -0.696673 -0.718200 0.007828
vn 0.968689 0.046967 0.242661
vn 0.968689 0.046967 0.242661
vn 0.968689 0.046967 0.242661
vn 0.968689 0.046967 0.242661
vn 0.968689 0.046967 0.242661
vn 0.968689 0.046967 0.242661
vn 0.015656 0.966732 -0.252446
vn 0.015656 0.966732 -0.252446
vn -0.675147 0.649706 -0.350294
vn -0.675147 0.649706 -0.350294
vn 0.015656 0.966732 -0.252446
vn -0.675147 0.649706 -0.350294
vn -0.675147 0.649706 -0.350294
vn -0.675147 0.649706 -0.350294
vn -0.696673 -0.718200 0.007828
vn 0.246575 -0.248532 -0.937378
vn 0.246575 -0.248532 -0.937378
vn 0.246575 -0.248532 -0.937378
vn 0.246575 -0.248532 -0.937378
vn 0.246575 -0.248532 -0.937378
vn 0.246575 -0.248532 -0.937378
vn -0.246575 0.248532 0.937378
vn -0.246575 0.248532 0.937378
vn -0.246575 0.248532 0.937378
vn -0.246575 0.248532 0.937378
vn -0.246575 0.248532 0.937378
vn -0.246575 0.248532 0.937378
vn 0.729941 0.682975 0.000000
vn 0.062622 0.966732 -0.248532
vn 0.729941 0.682975 0.000000
vn 0.062622 0.966732 -0.248532
vn 0.062622 0.966732 -0.248532
vn 0.729941 0.682975 0.000000
vn -0.968689 0.000000 -0.246575
vn -0.968689 0.000000 -0.246575
vn -0.968689 0.000000 -0.246575
vn -0.968689 0.000000 -0.246575
vn -0.968689 0.000000 -0.246575
vn -0.968689 0.000000 -0.246575
vn -0.062622 -0.966732 0.248532
vn -0.062622 -0.966732 0.248532
vn 0.639922 -0.682975 0.350294
vn 0.639922 -0.682975 0.350294
vn -0.062622 -0.966732 0.248532
vn 0.639922 -0.682975 0.350294
vn 0.639922 -0.682975 0.350294
vn 0.639922 -0.682975 0.350294
vn 0.729941 0.682975 0.000000
vn 0.729941 0.682975 0.000000
vn 0.639922 -0.682975 0.350294
vn 0.729941 0.682975 0.000000
vn 0.238748 -0.256360 -0.937378
vn 0.238748 -0.256360 -0.937378
vn 0.238748 -0.256360 -0.937378
vn 0.238748 -0.256360 -0.937378
vn 0.238748 -0.256360 -0.937378
vn 0.238748 -0.256360 -0.937378
vn -0.238748 0.256360 0.937378
vn -0.238748 0.256360 0.937378
vn -0.238748 0.256360 0.937378
vn -0.238748 0.256360 0.937378
vn -0.238748 0.256360 0.937378
vn -0.238748 0.256360 0.937378
mtllib mtl_t6_wpn_ar_an94_camo2.mtl
g mtl_t6_wpn_ar_an94_camo2
usemtl mtl_t6_wpn_ar_an94_camo2
f 3/3/3 2/2/2 1/1/1
f 6/6/6 5/5/5 4/4/4
f 9/9/9 8/8/8 7/7/7
f 12/12/12 11/11/11 10/10/10
f 15/15/15 14/14/14 13/13/13
f 18/18/18 17/17/17 16/16/16
f 21/21/21 20/20/20 19/19/19
f 24/24/24 23/23/23 22/22/22
f 27/27/27 26/26/26 25/25/25
f 30/30/30 29/29/29 28/28/28
f 33/33/33 32/32/32 31/31/31
f 36/36/36 35/35/35 34/34/34
f 39/39/39 38/38/38 37/37/37
f 42/42/42 41/41/41 40/40/40
f 45/45/45 44/44/44 43/43/43
f 48/48/48 47/47/47 46/46/46
f 51/51/51 50/50/50 49/49/49
f 54/54/54 53/53/53 52/52/52
f 57/57/57 56/56/56 55/55/55
f 60/60/60 59/59/59 58/58/58
f 63/63/63 62/62/62 61/61/61
f 66/66/66 65/65/65 64/64/64
f 69/69/69 68/68/68 67/67/67
f 72/72/72 71/71/71 70/70/70
f 75/75/75 74/74/74 73/73/73
f 78/78/78 77/77/77 76/76/76
f 81/81/81 80/80/80 79/79/79
f 84/84/84 83/83/83 82/82/82
mtllib mtl_t6_wpn_ar_an94_camo3.mtl
g mtl_t6_wpn_ar_an94_camo3
usemtl mtl_t6_wpn_ar_an94_camo3
f 87/87/87 86/86/86 85/85/85
f 90/90/90 89/89/89 88/88/88
f 93/93/93 92/92/92 91/91/91
f 96/96/96 95/95/95 94/94/94
f 99/99/99 98/98/98 97/97/97
f 102/102/102 101/101/101 100/100/100
f 105/105/105 104/104/104 103/103/103
f 108/108/108 107/107/107 106/106/106
f 111/111/111 110/110/110 109/109/109
f 114/114/114 113/113/113 112/112/112
f 117/117/117 116/116/116 115/115/115
f 120/120/120 119/119/119 118/118/118
f 123/123/123 122/122/122 121/121/121
f 126/126/126 125/125/125 124/124/124
f 129/129/129 128/128/128 127/127/127
f 132/132/132 131/131/131 130/130/130
f 135/135/135 134/134/134 133/133/133
f 138/138/138 137/137/137 136/136/136
f 141/141/141 140/140/140 139/139/139
f 144/144/144 143/143/143 142/142/142
f 147/147/147 146/146/146 145/145/145
f 150/150/150 149/149/149 148/148/148
f 153/153/153 152/152/152 151/151/151
f 156/156/156 155/155/155 154/154/154
f 159/159/159 158/158/158 157/157/157
f 162/162/162 161/161/161 160/160/160
f 165/165/165 164/164/164 163/163/163
f 168/168/168 167/167/167 166/166/166
f 171/171/171 170/170/170 169/169/169
f 174/174/174 173/173/173 172/172/172
f 177/177/177 176/176/176 175/175/175
f 180/180/180 179/179/179 178/178/178
f 183/183/183 182/182/182 181/181/181
f 186/186/186 185/185/185 184/184/184
f 189/189/189 188/188/188 187/187/187
f 192/192/192 191/191/191 190/190/190
f 195/195/195 194/194/194 193/193/193
f 198/198/198 197/197/197 196/196/196
f 201/201/201 200/200/200 199/199/199
f 204/204/204 203/203/203 202/202/202
f 207/207/207 206/206/206 205/205/205
f 210/210/210 209/209/209 208/208/208
f 213/213/213 212/212/212 211/211/211
f 216/216/216 215/215/215 214/214/214
f 219/219/219 218/218/218 217/217/217
f 222/222/222 221/221/221 220/220/220
f 225/225/225 224/224/224 223/223/223
f 228/228/228 227/227/227 226/226/226
