# Generated by Wraith - Game extraction tools
# Please credit DTZxPorter for using it!

v -2.003889 -1.193102 -21.330774
v 5.466614 -1.193102 -19.196272
v -2.003889 1.056991 -21.330774
v 5.466614 -1.193102 -19.196272
v 5.466614 1.056991 -19.196272
v -2.003889 1.056991 -21.330774
v -2.003889 1.056991 -21.330774
v -3.852691 1.056991 -11.770994
v -2.003889 -1.193102 -21.330774
v -3.852691 1.056991 -11.770994
v -3.852691 -1.193102 -11.770994
v -2.003889 -1.193102 -21.330774
v -3.852691 1.056991 -11.770994
v -4.365804 1.031133 -0.110353
v -3.852691 -1.193102 -11.770994
v -4.365804 1.031133 -0.110353
v -4.365804 -1.167244 -0.110353
v -3.852691 -1.193102 -11.770994
v -3.852691 1.056991 -11.770994
v -2.003889 1.056991 -21.330774
v 5.466614 1.056991 -19.196272
v 3.792947 1.056991 -10.798006
v -3.852691 1.056991 -11.770994
v 5.466614 1.056991 -19.196272
v -3.852691 1.056991 -11.770994
v 3.792947 1.056991 -10.798006
v -4.365804 1.031133 -0.110353
v 3.792947 1.056991 -10.798006
v 3.403654 1.056991 -0.422148
v -4.365804 1.031133 -0.110353
v 5.466614 -1.193102 -19.196272
v -2.003889 -1.193102 -21.330774
v -3.852691 -1.193102 -11.770994
v 3.792947 -1.193102 -10.798006
v 5.466614 -1.193102 -19.196272
v -3.852691 -1.193102 -11.770994
v -3.852691 -1.193102 -11.770994
v -4.365804 -1.167244 -0.110353
v 3.792947 -1.193102 -10.798006
v -4.365804 -1.167244 -0.110353
v 3.403654 -1.193102 -0.422148
v 3.792947 -1.193102 -10.798006
v 5.466614 1.056991 -19.196272
v 5.466614 -1.193102 -19.196272
v 3.792947 1.056991 -10.798006
v 5.466614 -1.193102 -19.196272
v 3.792947 -1.193102 -10.798006
v 3.792947 1.056991 -10.798006
v 3.403654 1.056991 -0.422148
v 3.792947 1.056991 -10.798006
v 3.792947 -1.193102 -10.798006
v 3.403654 -1.193102 -0.422148
v 3.403654 1.056991 -0.422148
v 3.792947 -1.193102 -10.798006
v 3.403654 1.056991 -0.422148
v 3.403654 -1.193102 -0.422148
v -4.365804 1.031133 -0.110353
v 3.403654 -1.193102 -0.422148
v -4.365804 -1.167244 -0.110353
v -4.365804 1.031133 -0.110353
v -4.784233 3.320603 -8.757650
v 2.940356 3.320603 -7.923850
v -4.784233 1.070511 -8.757650
v 2.940356 3.320603 -7.923850
v 2.940356 1.070511 -7.923850
v -4.784233 1.070511 -8.757650
v -4.784233 1.070511 -8.757650
v -2.899479 1.070511 -18.310408
v -4.784233 3.320603 -8.757650
v -2.899479 1.070511 -18.310408
v -2.899479 3.320603 -18.310408
v -4.784233 3.320603 -8.757650
v -2.899479 1.070511 -18.310408
v 1.013393 1.096368 -29.306919
v -2.899479 3.320603 -18.310408
v 1.013393 1.096368 -29.306919
v 1.013393 3.294746 -29.306919
v -2.899479 3.320603 -18.310408
v -2.899479 1.070511 -18.310408
v -4.784233 1.070511 -8.757650
v 2.940356 1.070511 -7.923850
v 4.550253 1.070511 -16.334578
v -2.899479 1.070511 -18.310408
v 2.940356 1.070511 -7.923850
v -2.899479 1.070511 -18.310408
v 4.550253 1.070511 -16.334578
v 1.013393 1.096368 -29.306919
v 4.550253 1.070511 -16.334578
v 8.094341 1.070511 -26.094156
v 1.013393 1.096368 -29.306919
v 2.940356 3.320603 -7.923850
v -4.784233 3.320603 -8.757650
v -2.899479 3.320603 -18.310408
v 4.550253 3.320603 -16.334578
v 2.940356 3.320603 -7.923850
v -2.899479 3.320603 -18.310408
v -2.899479 3.320603 -18.310408
v 1.013393 3.294746 -29.306919
v 4.550253 3.320603 -16.334578
v 1.013393 3.294746 -29.306919
v 8.094341 3.320603 -26.094156
v 4.550253 3.320603 -16.334578
v 2.940356 1.070511 -7.923850
v 2.940356 3.320603 -7.923850
v 4.550253 1.070511 -16.334578
v 2.940356 3.320603 -7.923850
v 4.550253 3.320603 -16.334578
v 4.550253 1.070511 -16.334578
v 8.094341 1.070511 -26.094156
v 4.550253 1.070511 -16.334578
v 4.550253 3.320603 -16.334578
v 8.094341 3.320603 -26.094156
v 8.094341 1.070511 -26.094156
v 4.550253 3.320603 -16.334578
v 8.094341 1.070511 -26.094156
v 8.094341 3.320603 -26.094156
v 1.013393 1.096368 -29.306919
v 8.094341 3.320603 -26.094156
v 1.013393 3.294746 -29.306919
v 1.013393 1.096368 -29.306919
v 3.973907 3.442007 -9.634136
v 4.420753 3.442007 -12.913647
v 3.973907 -1.276429 -9.634136
v 4.420753 3.442007 -12.913647
v 4.420753 -1.276429 -12.913647
v 3.973907 -1.276429 -9.634136
v -4.363270 3.375312 -15.461009
v -4.889396 3.375312 -12.022982
v -4.363270 -1.209733 -15.461009
v -4.889396 3.375312 -12.022982
v -4.889396 -1.209733 -12.022982
v -4.363270 -1.209733 -15.461009
v 3.973907 3.442007 -9.634136
v -4.889396 3.375312 -12.022982
v 4.420753 3.442007 -12.913647
v -4.889396 3.375312 -12.022982
v -4.363270 3.375312 -15.461009
v 4.420753 3.442007 -12.913647
v 4.420753 3.442007 -12.913647
v -4.363270 3.375312 -15.461009
v 4.420753 -1.276429 -12.913647
v -4.363270 3.375312 -15.461009
v -4.363270 -1.209733 -15.461009
v 4.420753 -1.276429 -12.913647
v 3.973907 -1.276429 -9.634136
v 4.420753 -1.276429 -12.913647
v -4.889396 -1.209733 -12.022982
v 4.420753 -1.276429 -12.913647
v -4.363270 -1.209733 -15.461009
v -4.889396 -1.209733 -12.022982
v 3.973907 -1.276429 -9.634136
v -4.889396 -1.209733 -12.022982
v 3.973907 3.442007 -9.634136
v -4.889396 -1.209733 -12.022982
v -4.889396 3.375312 -12.022982
v 3.973907 3.442007 -9.634136
vt 0.633789 0.711914
vt 0.630859 0.792969
vt 0.650879 0.711914
vt 0.630859 0.792969
vt 0.653809 0.792969
vt 0.650879 0.711914
vt 0.991211 0.079590
vt 0.894531 0.079590
vt 0.990234 0.097168
vt 0.894531 0.079590
vt 0.894043 0.097168
vt 0.990234 0.097168
vt 0.894531 0.079590
vt 0.782715 0.082031
vt 0.894043 0.097168
vt 0.782715 0.082031
vt 0.786621 0.097168
vt 0.894043 0.097168
vt 0.077209 0.282715
vt 0.096252 0.184570
vt 0.172974 0.206543
vt 0.155762 0.292969
vt 0.077209 0.282715
vt 0.172974 0.206543
vt 0.077209 0.282715
vt 0.155762 0.292969
vt 0.071960 0.410156
vt 0.155762 0.292969
vt 0.150024 0.410156
vt 0.071960 0.410156
vt 0.172974 0.206543
vt 0.096252 0.184570
vt 0.077209 0.282715
vt 0.155762 0.292969
vt 0.172974 0.206543
vt 0.077209 0.282715
vt 0.077209 0.282715
vt 0.071960 0.410156
vt 0.155762 0.292969
vt 0.071960 0.410156
vt 0.150024 0.410156
vt 0.155762 0.292969
vt 0.117371 0.418457
vt 0.094666 0.418457
vt 0.117371 0.504883
vt 0.094666 0.418457
vt 0.094666 0.504883
vt 0.117371 0.504883
vt 0.117371 0.609619
vt 0.117371 0.504883
vt 0.094666 0.504883
vt 0.094666 0.609619
vt 0.117371 0.609619
vt 0.094666 0.504883
vt 0.900391 0.604248
vt 0.900391 0.615967
vt 0.941895 0.605957
vt 0.900391 0.615967
vt 0.941895 0.614990
vt 0.941895 0.605957
vt 0.633789 0.711914
vt 0.630859 0.792969
vt 0.650879 0.711914
vt 0.630859 0.792969
vt 0.653809 0.792969
vt 0.650879 0.711914
vt 0.991211 0.079590
vt 0.894531 0.079590
vt 0.990234 0.097168
vt 0.894531 0.079590
vt 0.894043 0.097168
vt 0.990234 0.097168
vt 0.894531 0.079590
vt 0.782715 0.082031
vt 0.894043 0.097168
vt 0.782715 0.082031
vt 0.786621 0.097168
vt 0.894043 0.097168
vt 0.077209 0.282715
vt 0.096252 0.184570
vt 0.172974 0.206543
vt 0.155762 0.292969
vt 0.077209 0.282715
vt 0.172974 0.206543
vt 0.077209 0.282715
vt 0.155762 0.292969
vt 0.071960 0.410156
vt 0.155762 0.292969
vt 0.150024 0.410156
vt 0.071960 0.410156
vt 0.172974 0.206543
vt 0.096252 0.184570
vt 0.077209 0.282715
vt 0.155762 0.292969
vt 0.172974 0.206543
vt 0.077209 0.282715
vt 0.077209 0.282715
vt 0.071960 0.410156
vt 0.155762 0.292969
vt 0.071960 0.410156
vt 0.150024 0.410156
vt 0.155762 0.292969
vt 0.117371 0.418457
vt 0.094666 0.418457
vt 0.117371 0.504883
vt 0.094666 0.418457
vt 0.094666 0.504883
vt 0.117371 0.504883
vt 0.117371 0.609619
vt 0.117371 0.504883
vt 0.094666 0.504883
vt 0.094666 0.609619
vt 0.117371 0.609619
vt 0.094666 0.504883
vt 0.900391 0.604248
vt 0.900391 0.615967
vt 0.941895 0.605957
vt 0.900391 0.615967
vt 0.941895 0.614990
vt 0.941895 0.605957
vt 0.508789 0.541016
vt 0.527344 0.541016
vt 0.508789 0.507813
vt 0.527344 0.541016
vt 0.527344 0.507813
vt 0.508789 0.507813
vt 0.527344 0.541016
vt 0.508789 0.541016
vt 0.527344 0.507813
vt 0.508789 0.541016
vt 0.508789 0.507813
vt 0.527344 0.507813
vt 0.698730 0.613770
vt 0.608398 0.613525
vt 0.697754 0.587646
vt 0.608398 0.613525
vt 0.607910 0.586182
vt 0.697754 0.587646
vt 0.600098 0.591553
vt 0.599609 0.528076
vt 0.566895 0.591553
vt 0.599609 0.528076
vt 0.567383 0.528076
vt 0.566895 0.591553
vt 0.698730 0.613770
vt 0.697754 0.587646
vt 0.608398 0.613525
vt 0.697754 0.587646
vt 0.607910 0.586182
vt 0.608398 0.613525
vt 0.566895 0.591553
vt 0.567383 0.528076
vt 0.600098 0.591553
vt 0.567383 0.528076
vt 0.599609 0.528076
vt 0.600098 0.591553
vn 0.273973 0.000000 -0.960861
vn 0.273973 0.000000 -0.960861
vn 0.273973 0.000000 -0.960861
vn 0.273973 0.000000 -0.960861
vn 0.273973 0.000000 -0.960861
vn 0.273973 0.000000 -0.960861
vn -0.982387 0.000000 -0.189824
vn -0.992172 0.000000 -0.117417
vn -0.982387 0.000000 -0.189824
vn -0.992172 0.000000 -0.117417
vn -0.992172 0.000000 -0.117417
vn -0.982387 0.000000 -0.189824
vn -0.992172 0.000000 -0.117417
vn -1.000000 0.000000 -0.043053
vn -0.992172 0.000000 -0.117417
vn -1.000000 0.000000 -0.043053
vn -1.000000 0.000000 -0.043053
vn -0.992172 0.000000 -0.117417
vn 0.000000 1.000000 0.000000
vn 0.000000 1.000000 0.000000
vn 0.000000 1.000000 0.000000
vn 0.700587 0.708415 0.082192
vn 0.000000 1.000000 0.000000
vn 0.000000 1.000000 0.000000
vn 0.000000 1.000000 0.000000
vn 0.700587 0.708415 0.082192
vn -0.001957 1.000000 0.001957
vn 0.700587 0.708415 0.082192
vn 0.706458 0.708415 0.027397
vn -0.001957 1.000000 0.001957
vn 0.000000 -1.000000 0.000000
vn 0.000000 -1.000000 0.000000
vn 0.000000 -1.000000 0.000000
vn 0.000000 -1.000000 0.000000
vn 0.000000 -1.000000 0.000000
vn 0.000000 -1.000000 0.000000
vn 0.000000 -1.000000 0.000000
vn -0.001957 -1.000000 0.001957
vn 0.000000 -1.000000 0.000000
vn -0.001957 -1.000000 0.001957
vn -0.001957 -1.000000 0.001957
vn 0.000000 -1.000000 0.000000
vn 0.980431 0.000000 0.195695
vn 0.980431 0.000000 0.195695
vn 0.700587 0.708415 0.082192
vn 0.980431 0.000000 0.195695
vn 0.994129 0.000000 0.117417
vn 0.700587 0.708415 0.082192
vn 0.706458 0.708415 0.027397
vn 0.700587 0.708415 0.082192
vn 0.994129 0.000000 0.117417
vn 1.000000 0.000000 0.037182
vn 0.706458 0.708415 0.027397
vn 0.994129 0.000000 0.117417
vn 0.039139 0.000000 1.000000
vn 0.039139 0.000000 1.000000
vn 0.039139 0.000000 1.000000
vn 0.039139 0.000000 1.000000
vn 0.039139 0.000000 1.000000
vn 0.039139 0.000000 1.000000
vn -0.107632 0.000000 0.994129
vn -0.107632 0.000000 0.994129
vn -0.107632 0.000000 0.994129
vn -0.107632 0.000000 0.994129
vn -0.107632 0.000000 0.994129
vn -0.107632 0.000000 0.994129
vn -0.980431 0.000000 -0.193738
vn -0.964775 0.000000 -0.264188
vn -0.980431 0.000000 -0.193738
vn -0.964775 0.000000 -0.264188
vn -0.964775 0.000000 -0.264188
vn -0.980431 0.000000 -0.193738
vn -0.964775 0.000000 -0.264188
vn -0.941292 0.000000 -0.334638
vn -0.964775 0.000000 -0.264188
vn -0.941292 0.000000 -0.334638
vn -0.941292 0.000000 -0.334638
vn -0.964775 0.000000 -0.264188
vn 0.000000 -1.000000 0.000000
vn 0.000000 -1.000000 0.000000
vn 0.000000 -1.000000 0.000000
vn 0.681018 -0.708415 0.187867
vn 0.000000 -1.000000 0.000000
vn 0.000000 -1.000000 0.000000
vn 0.000000 -1.000000 0.000000
vn 0.681018 -0.708415 0.187867
vn -0.001957 -1.000000 -0.001957
vn 0.681018 -0.708415 0.187867
vn 0.663405 -0.708415 0.240705
vn -0.001957 -1.000000 -0.001957
vn 0.000000 1.000000 0.000000
vn 0.000000 1.000000 0.000000
vn 0.000000 1.000000 0.000000
vn 0.000000 1.000000 0.000000
vn 0.000000 1.000000 0.000000
vn 0.000000 1.000000 0.000000
vn 0.000000 1.000000 0.000000
vn -0.001957 1.000000 -0.001957
vn 0.000000 1.000000 0.000000
vn -0.001957 1.000000 -0.001957
vn -0.001957 1.000000 -0.001957
vn 0.000000 1.000000 0.000000
vn 0.982387 0.000000 0.187867
vn 0.982387 0.000000 0.187867
vn 0.681018 -0.708415 0.187867
vn 0.982387 0.000000 0.187867
vn 0.964775 0.000000 0.266145
vn 0.681018 -0.708415 0.187867
vn 0.663405 -0.708415 0.240705
vn 0.681018 -0.708415 0.187867
vn 0.964775 0.000000 0.266145
vn 0.939335 0.000000 0.340509
vn 0.663405 -0.708415 0.240705
vn 0.964775 0.000000 0.266145
vn 0.412916 0.000000 -0.909980
vn 0.412916 0.000000 -0.909980
vn 0.412916 0.000000 -0.909980
vn 0.412916 0.000000 -0.909980
vn 0.412916 0.000000 -0.909980
vn 0.412916 0.000000 -0.909980
vn 0.990215 0.000000 0.135029
vn 0.990215 0.000000 0.135029
vn 0.990215 0.000000 0.135029
vn 0.990215 0.000000 0.135029
vn 0.990215 0.000000 0.135029
vn 0.990215 0.000000 0.135029
vn -0.988258 0.000000 -0.150685
vn -0.988258 0.000000 -0.150685
vn -0.988258 0.000000 -0.150685
vn -0.988258 0.000000 -0.150685
vn -0.988258 0.000000 -0.150685
vn -0.988258 0.000000 -0.150685
vn -0.007828 1.000000 -0.001957
vn -0.007828 1.000000 -0.001957
vn -0.007828 1.000000 -0.001957
vn -0.007828 1.000000 -0.001957
vn -0.007828 1.000000 -0.001957
vn -0.007828 1.000000 -0.001957
vn 0.277887 0.000000 -0.960861
vn 0.277887 0.000000 -0.960861
vn 0.277887 0.000000 -0.960861
vn 0.277887 0.000000 -0.960861
vn 0.277887 0.000000 -0.960861
vn 0.277887 0.000000 -0.960861
vn -0.007828 -1.000000 -0.001957
vn -0.007828 -1.000000 -0.001957
vn -0.007828 -1.000000 -0.001957
vn -0.007828 -1.000000 -0.001957
vn -0.007828 -1.000000 -0.001957
vn -0.007828 -1.000000 -0.001957
vn -0.260274 0.000000 0.964775
vn -0.260274 0.000000 0.964775
vn -0.260274 0.000000 0.964775
vn -0.260274 0.000000 0.964775
vn -0.260274 0.000000 0.964775
vn -0.260274 0.000000 0.964775
mtllib mtl_t6_wpn_ar_x95l_camo1.mtl
g mtl_t6_wpn_ar_x95l_camo1
usemtl mtl_t6_wpn_ar_x95l_camo1
f 3/3/3 2/2/2 1/1/1
f 6/6/6 5/5/5 4/4/4
f 9/9/9 8/8/8 7/7/7
f 12/12/12 11/11/11 10/10/10
f 15/15/15 14/14/14 13/13/13
f 18/18/18 17/17/17 16/16/16
f 21/21/21 20/20/20 19/19/19
f 24/24/24 23/23/23 22/22/22
f 27/27/27 26/26/26 25/25/25
f 30/30/30 29/29/29 28/28/28
f 33/33/33 32/32/32 31/31/31
f 36/36/36 35/35/35 34/34/34
f 39/39/39 38/38/38 37/37/37
f 42/42/42 41/41/41 40/40/40
f 45/45/45 44/44/44 43/43/43
f 48/48/48 47/47/47 46/46/46
f 51/51/51 50/50/50 49/49/49
f 54/54/54 53/53/53 52/52/52
f 57/57/57 56/56/56 55/55/55
f 60/60/60 59/59/59 58/58/58
f 63/63/63 62/62/62 61/61/61
f 66/66/66 65/65/65 64/64/64
f 69/69/69 68/68/68 67/67/67
f 72/72/72 71/71/71 70/70/70
f 75/75/75 74/74/74 73/73/73
f 78/78/78 77/77/77 76/76/76
f 81/81/81 80/80/80 79/79/79
f 84/84/84 83/83/83 82/82/82
f 87/87/87 86/86/86 85/85/85
f 90/90/90 89/89/89 88/88/88
f 93/93/93 92/92/92 91/91/91
f 96/96/96 95/95/95 94/94/94
f 99/99/99 98/98/98 97/97/97
f 102/102/102 101/101/101 100/100/100
f 105/105/105 104/104/104 103/103/103
f 108/108/108 107/107/107 106/106/106
f 111/111/111 110/110/110 109/109/109
f 114/114/114 113/113/113 112/112/112
f 117/117/117 116/116/116 115/115/115
f 120/120/120 119/119/119 118/118/118
mtllib mtl_t6_wpn_ar_x95l_camo4.mtl
g mtl_t6_wpn_ar_x95l_camo4
usemtl mtl_t6_wpn_ar_x95l_camo4
f 123/123/123 122/122/122 121/121/121
f 126/126/126 125/125/125 124/124/124
f 129/129/129 128/128/128 127/127/127
f 132/132/132 131/131/131 130/130/130
f 135/135/135 134/134/134 133/133/133
f 138/138/138 137/137/137 136/136/136
f 141/141/141 140/140/140 139/139/139
f 144/144/144 143/143/143 142/142/142
f 147/147/147 146/146/146 145/145/145
f 150/150/150 149/149/149 148/148/148
f 153/153/153 152/152/152 151/151/151
f 156/156/156 155/155/155 154/154/154
