# Generated by Wraith - Game extraction tools
# Please credit DTZxPorter for using it!

v 4.009392 1.160478 -7.903802
v 2.440379 -0.000432 -7.903802
v 5.577657 -0.000432 -7.903802
v 4.009392 -1.161344 -7.903802
v 5.577657 -0.000432 -7.903802
v 2.440379 -0.000432 -7.903802
v -1.129574 1.282261 0.038651
v -1.129574 -1.282261 0.038651
v 7.546241 -1.282261 0.038651
v 7.546241 1.282261 0.038651
v -1.129574 1.282261 0.038651
v 7.546241 -1.282261 0.038651
v 7.546241 -1.282261 0.038651
v 8.462380 -1.282261 -2.501374
v 7.546241 1.282261 0.038651
v 8.462380 -1.282261 -2.501374
v 8.462380 1.282261 -2.501374
v 7.546241 1.282261 0.038651
v -1.129574 1.282258 1.076120
v -1.129574 1.282261 0.038651
v 7.546241 1.282261 0.038651
v 8.462380 1.282261 1.076120
v -1.129574 1.282258 1.076120
v 7.546241 1.282261 0.038651
v 8.462380 1.282261 1.076120
v 7.546241 1.282261 0.038651
v 8.462380 1.282261 -2.501374
v 7.546241 -1.282261 0.038651
v -1.129574 -1.282261 0.038651
v -1.129569 -1.282258 1.076120
v 8.462380 -1.282261 1.076120
v 7.546241 -1.282261 0.038651
v -1.129569 -1.282258 1.076120
v 8.462380 -1.282261 -2.501374
v 7.546241 -1.282261 0.038651
v 8.462380 -1.282261 1.076120
v -1.129569 -1.282258 1.076120
v -1.129574 -1.282261 0.038651
v -1.129574 1.282258 1.076120
v -1.129574 -1.282261 0.038651
v -1.129574 1.282261 0.038651
v -1.129574 1.282258 1.076120
v 8.462380 -1.282261 1.076120
v -1.129569 -1.282258 1.076120
v 8.462380 1.282261 1.076120
v -1.129569 -1.282258 1.076120
v -1.129574 1.282258 1.076120
v 8.462380 1.282261 1.076120
v 8.462380 -1.282261 1.076120
v 8.462380 1.282261 1.076120
v 8.462380 -1.282261 -2.501374
v 8.462380 1.282261 1.076120
v 8.462380 1.282261 -2.501374
v 8.462380 -1.282261 -2.501374
v 4.009240 -0.807212 0.038651
v 4.009375 -1.116736 -3.552071
v 3.077929 -0.000432 0.038651
v 4.009240 -0.807212 0.038651
v 4.940112 -0.000432 0.038651
v 4.009375 -1.116736 -3.552071
v 4.940112 -0.000432 0.038651
v 5.518775 -0.000432 -3.552071
v 4.009375 -1.116736 -3.552071
v 4.009375 -1.116736 -3.552071
v 5.518775 -0.000432 -3.552071
v 4.009392 -1.161344 -7.903802
v 5.518775 -0.000432 -3.552071
v 5.577657 -0.000432 -7.903802
v 4.009392 -1.161344 -7.903802
v 5.577657 -0.000432 -7.903802
v 5.518775 -0.000432 -3.552071
v 4.009392 1.160478 -7.903802
v 5.518775 -0.000432 -3.552071
v 4.009375 1.115870 -3.552071
v 4.009392 1.160478 -7.903802
v 4.009375 1.115870 -3.552071
v 2.499266 -0.000432 -3.552071
v 4.009392 1.160478 -7.903802
v 2.499266 -0.000432 -3.552071
v 2.440379 -0.000432 -7.903802
v 4.009392 1.160478 -7.903802
v 4.009375 1.115870 -3.552071
v 5.518775 -0.000432 -3.552071
v 4.940112 -0.000432 0.038651
v 4.009240 0.806348 0.038651
v 4.009375 1.115870 -3.552071
v 4.940112 -0.000432 0.038651
v 4.009240 0.806348 0.038651
v 3.077929 -0.000432 0.038651
v 4.009375 1.115870 -3.552071
v 3.077929 -0.000432 0.038651
v 2.499266 -0.000432 -3.552071
v 4.009375 1.115870 -3.552071
v 4.009375 -1.116736 -3.552071
v 2.499266 -0.000432 -3.552071
v 3.077929 -0.000432 0.038651
v 2.499266 -0.000432 -3.552071
v 4.009375 -1.116736 -3.552071
v 4.009392 -1.161344 -7.903802
v 2.440379 -0.000432 -7.903802
v 2.499266 -0.000432 -3.552071
v 4.009392 -1.161344 -7.903802
vt 0.889160 0.490723
vt 0.994629 0.700439
vt 0.994141 0.134766
vt 0.893555 0.427734
vt 0.993652 0.134766
vt 0.994629 0.718018
vt 0.288330 0.179688
vt 0.288330 0.020020
vt 0.101563 0.020020
vt 0.101563 0.179688
vt 0.288330 0.179688
vt 0.101563 0.020020
vt 0.101563 0.020020
vt 0.003862 0.020020
vt 0.101563 0.179688
vt 0.003862 0.020020
vt 0.003862 0.179688
vt 0.101563 0.179688
vt 0.811035 0.985893
vt 0.811035 0.825317
vt 0.266357 0.793335
vt 0.195435 0.985909
vt 0.811035 0.985893
vt 0.266357 0.793335
vt 0.195435 0.985909
vt 0.266357 0.793335
vt 0.203125 0.443848
vt 0.266357 0.793335
vt 0.811523 0.825317
vt 0.811523 0.986801
vt 0.195435 0.986801
vt 0.266357 0.793335
vt 0.811523 0.986801
vt 0.210449 0.466309
vt 0.266357 0.793335
vt 0.195435 0.986801
vt 0.997559 0.984940
vt 0.986816 0.825317
vt 0.811035 0.985893
vt 0.986816 0.825317
vt 0.821289 0.825317
vt 0.811035 0.985893
vt 0.256836 0.219238
vt 0.007496 0.219238
vt 0.256836 0.365234
vt 0.007496 0.219238
vt 0.007496 0.365234
vt 0.256836 0.365234
vt 0.010338 0.985909
vt 0.195435 0.985909
vt 0.012215 0.435059
vt 0.195435 0.985909
vt 0.203125 0.443848
vt 0.012215 0.435059
vt 0.266113 0.427246
vt 0.555176 0.427246
vt 0.266113 0.655518
vt 0.266113 0.427246
vt 0.266113 0.199219
vt 0.555176 0.427246
vt 0.266113 0.199219
vt 0.555176 0.057129
vt 0.555176 0.427246
vt 0.555176 0.427246
vt 0.555176 0.057129
vt 0.893555 0.427734
vt 0.555176 0.057129
vt 0.875000 0.040039
vt 0.893555 0.427734
vt 0.875000 0.040039
vt 0.555176 0.057129
vt 0.889160 0.490723
vt 0.555176 0.057129
vt 0.555176 0.427246
vt 0.889160 0.490723
vt 0.555176 0.427246
vt 0.555176 0.797241
vt 0.889160 0.490723
vt 0.555176 0.797241
vt 0.875000 0.814209
vt 0.889160 0.490723
vt 0.555176 0.427246
vt 0.555176 0.057129
vt 0.266113 0.199219
vt 0.266113 0.427246
vt 0.555176 0.427246
vt 0.266113 0.199219
vt 0.266113 0.427246
vt 0.266113 0.655518
vt 0.555176 0.427246
vt 0.266113 0.655518
vt 0.555176 0.797241
vt 0.555176 0.427246
vt 0.555176 0.427246
vt 0.555176 0.797241
vt 0.266113 0.655518
vt 0.555176 0.797241
vt 0.555176 0.427246
vt 0.875000 0.602051
vt 0.875000 0.814209
vt 0.555176 0.797241
vt 0.875000 0.602051
vn 0.000000 0.000000 -1.000000
vn 0.000000 0.000000 -1.000000
vn 0.000000 0.000000 -1.000000
vn 0.000000 0.000000 -1.000000
vn 0.000000 0.000000 -1.000000
vn 0.000000 0.000000 -1.000000
vn 0.000000 0.000000 -1.000000
vn 0.000000 0.000000 -1.000000
vn -0.575342 0.000000 -0.818004
vn -0.575342 0.000000 -0.818004
vn 0.000000 0.000000 -1.000000
vn -0.575342 0.000000 -0.818004
vn -0.575342 0.000000 -0.818004
vn -0.941292 0.000000 -0.338552
vn -0.575342 0.000000 -0.818004
vn -0.941292 0.000000 -0.338552
vn -0.941292 0.000000 -0.338552
vn -0.575342 0.000000 -0.818004
vn 0.000000 1.000000 0.000000
vn 0.000000 1.000000 0.000000
vn 0.000000 1.000000 0.000000
vn 0.000000 1.000000 0.000000
vn 0.000000 1.000000 0.000000
vn 0.000000 1.000000 0.000000
vn 0.000000 1.000000 0.000000
vn 0.000000 1.000000 0.000000
vn 0.000000 1.000000 0.000000
vn 0.000000 -1.000000 0.000000
vn 0.000000 -1.000000 0.000000
vn 0.000000 -1.000000 0.000000
vn 0.000000 -1.000000 0.000000
vn 0.000000 -1.000000 0.000000
vn 0.000000 -1.000000 0.000000
vn 0.000000 -1.000000 0.000000
vn 0.000000 -1.000000 0.000000
vn 0.000000 -1.000000 0.000000
vn -1.000000 0.000000 0.000000
vn -1.000000 0.000000 0.000000
vn -1.000000 0.000000 0.000000
vn -1.000000 0.000000 0.000000
vn -1.000000 0.000000 0.000000
vn -1.000000 0.000000 0.000000
vn 0.000000 0.000000 1.000000
vn 0.000000 0.000000 1.000000
vn 0.000000 0.000000 1.000000
vn 0.000000 0.000000 1.000000
vn 0.000000 0.000000 1.000000
vn 0.000000 0.000000 1.000000
vn 1.000000 0.000000 0.000000
vn 1.000000 0.000000 0.000000
vn 1.000000 0.000000 0.000000
vn 1.000000 0.000000 0.000000
vn 1.000000 0.000000 0.000000
vn 1.000000 0.000000 0.000000
vn 0.000000 -0.994129 0.105675
vn 0.000000 -0.998043 0.056751
vn -0.990215 0.000000 0.135029
vn 0.000000 -0.994129 0.105675
vn 0.990215 0.000000 0.135029
vn 0.000000 -0.998043 0.056751
vn 0.990215 0.000000 0.135029
vn 0.998043 0.000000 0.076321
vn 0.000000 -0.998043 0.056751
vn 0.000000 -0.998043 0.056751
vn 0.998043 0.000000 0.076321
vn 0.000000 -1.000000 0.009785
vn 0.998043 0.000000 0.076321
vn 1.000000 0.000000 0.013699
vn 0.000000 -1.000000 0.009785
vn 1.000000 0.000000 0.013699
vn 0.998043 0.000000 0.076321
vn 0.000000 1.000000 0.009785
vn 0.998043 0.000000 0.076321
vn 0.000000 0.998043 0.056751
vn 0.000000 1.000000 0.009785
vn 0.000000 0.998043 0.056751
vn -0.998043 0.000000 0.076321
vn 0.000000 1.000000 0.009785
vn -0.998043 0.000000 0.076321
vn -1.000000 0.000000 0.013699
vn 0.000000 1.000000 0.009785
vn 0.000000 0.998043 0.056751
vn 0.998043 0.000000 0.076321
vn 0.990215 0.000000 0.135029
vn 0.000000 0.994129 0.105675
vn 0.000000 0.998043 0.056751
vn 0.990215 0.000000 0.135029
vn 0.000000 0.994129 0.105675
vn -0.990215 0.000000 0.135029
vn 0.000000 0.998043 0.056751
vn -0.990215 0.000000 0.135029
vn -0.998043 0.000000 0.076321
vn 0.000000 0.998043 0.056751
vn 0.000000 -0.998043 0.056751
vn -0.998043 0.000000 0.076321
vn -0.990215 0.000000 0.135029
vn -0.998043 0.000000 0.076321
vn 0.000000 -0.998043 0.056751
vn 0.000000 -1.000000 0.009785
vn -1.000000 0.000000 0.013699
vn -0.998043 0.000000 0.076321
vn 0.000000 -1.000000 0.009785
mtllib mtl_t6_attach_grip_vector.mtl
g mtl_t6_attach_grip_vector
usemtl mtl_t6_attach_grip_vector
f 3/3/3 2/2/2 1/1/1
f 6/6/6 5/5/5 4/4/4
f 9/9/9 8/8/8 7/7/7
f 12/12/12 11/11/11 10/10/10
f 15/15/15 14/14/14 13/13/13
f 18/18/18 17/17/17 16/16/16
f 21/21/21 20/20/20 19/19/19
f 24/24/24 23/23/23 22/22/22
f 27/27/27 26/26/26 25/25/25
f 30/30/30 29/29/29 28/28/28
f 33/33/33 32/32/32 31/31/31
f 36/36/36 35/35/35 34/34/34
f 39/39/39 38/38/38 37/37/37
f 42/42/42 41/41/41 40/40/40
f 45/45/45 44/44/44 43/43/43
f 48/48/48 47/47/47 46/46/46
f 51/51/51 50/50/50 49/49/49
f 54/54/54 53/53/53 52/52/52
f 57/57/57 56/56/56 55/55/55
f 60/60/60 59/59/59 58/58/58
f 63/63/63 62/62/62 61/61/61
f 66/66/66 65/65/65 64/64/64
f 69/69/69 68/68/68 67/67/67
f 72/72/72 71/71/71 70/70/70
f 75/75/75 74/74/74 73/73/73
f 78/78/78 77/77/77 76/76/76
f 81/81/81 80/80/80 79/79/79
f 84/84/84 83/83/83 82/82/82
f 87/87/87 86/86/86 85/85/85
f 90/90/90 89/89/89 88/88/88
f 93/93/93 92/92/92 91/91/91
f 96/96/96 95/95/95 94/94/94
f 99/99/99 98/98/98 97/97/97
f 102/102/102 101/101/101 100/100/100
