# Generated by Wraith - Game extraction tools
# Please credit DTZxPorter for using it!

v -3.385055 2.052909 -0.727464
v -2.396381 2.052909 0.000000
v -3.385055 -2.044591 -0.727464
v -2.396381 2.052909 0.000000
v -2.396381 -2.053074 0.000000
v -3.385055 -2.044591 -0.727464
v 3.204149 2.052909 0.000000
v -2.396381 2.052909 0.000000
v 3.204149 2.061393 -0.727464
v -2.396381 2.052909 0.000000
v -3.385055 2.052909 -0.727464
v 3.204149 2.061393 -0.727464
v 3.204149 -2.053074 0.000000
v 3.204149 2.052909 0.000000
v 3.204149 -2.053074 -0.727464
v 3.204149 2.052909 0.000000
v 3.204149 2.061393 -0.727464
v 3.204149 -2.053074 -0.727464
v 3.204149 -2.053074 0.000000
v 3.204149 -2.053074 -0.727464
v -2.396381 -2.053074 0.000000
v 3.204149 -2.053074 -0.727464
v -3.385055 -2.044591 -0.727464
v -2.396381 -2.053074 0.000000
v -2.396381 -2.053074 0.000000
v -2.396381 2.052909 0.000000
v 3.204149 -2.053074 0.000000
v -2.396381 2.052909 0.000000
v 3.204149 2.052909 0.000000
v 3.204149 -2.053074 0.000000
v 2.934114 1.756948 -1.330137
v -3.100352 1.790962 -1.330137
v -3.100352 -1.782643 -1.330137
v 3.059603 -1.748630 -1.330137
v 2.934114 1.756948 -1.330137
v -3.100352 -1.782643 -1.330137
v 3.059603 -1.748630 -1.330137
v -3.100352 -1.782643 -1.330137
v 3.204149 -2.053074 -0.727464
v 3.204149 -2.053074 -0.727464
v 3.204149 2.061393 -0.727464
v 3.059603 -1.748630 -1.330137
v 3.204149 2.061393 -0.727464
v 2.934114 1.756948 -1.330137
v 3.059603 -1.748630 -1.330137
v -3.100352 1.790962 -1.330137
v 2.934114 1.756948 -1.330137
v 3.204149 2.061393 -0.727464
v -3.385055 2.052909 -0.727464
v -3.100352 1.790962 -1.330137
v 3.204149 2.061393 -0.727464
v -3.100352 1.790962 -1.330137
v -3.385055 2.052909 -0.727464
v -3.100352 -1.782643 -1.330137
v -3.385055 2.052909 -0.727464
v -3.385055 -2.044591 -0.727464
v -3.100352 -1.782643 -1.330137
v -3.100352 -1.782643 -1.330137
v -3.385055 -2.044591 -0.727464
v 3.204149 -2.053074 -0.727464
v 2.698216 -1.226663 -1.330137
v 2.698216 1.250043 -1.330137
v 2.521913 -0.897108 -3.374515
v 2.698216 1.250043 -1.330137
v 2.521913 0.920488 -3.374515
v 2.521913 -0.897108 -3.374515
v 2.521913 -0.897108 -3.374515
v 2.521913 0.920488 -3.374515
v 3.327941 1.251984 -3.619470
v 3.327941 -1.228603 -3.619470
v 2.521913 -0.897108 -3.374515
v 3.327941 1.251984 -3.619470
v 3.327941 -1.228603 -3.987835
v 3.327941 -1.228603 -3.619470
v 3.327941 1.251984 -3.987835
v 3.327941 -1.228603 -3.619470
v 3.327941 1.251984 -3.619470
v 3.327941 1.251984 -3.987835
v 2.698216 1.250043 -1.330137
v 1.465468 1.250043 -1.330137
v 2.521913 0.920488 -3.374515
v 1.465468 1.250043 -1.330137
v 1.282106 0.904372 -3.374515
v 2.521913 0.920488 -3.374515
v 1.282106 0.904372 -3.374515
v 3.327941 1.251984 -3.619470
v 2.521913 0.920488 -3.374515
v -0.460814 1.167056 -3.367100
v 3.327941 1.251984 -3.619470
v 1.282106 0.904372 -3.374515
v -0.526123 1.665214 -3.529513
v 3.327941 1.251984 -3.619470
v -0.460814 1.167056 -3.367100
v -0.460814 1.167056 -3.367100
v -1.809077 1.313424 -3.057342
v -0.526123 1.665214 -3.529513
v -1.809077 1.313424 -3.057342
v -0.460814 1.167056 -3.367100
v -1.697312 1.156467 -2.005846
v -2.550104 1.156467 -2.107679
v -1.809077 1.313424 -3.057342
v -1.697312 1.156467 -2.005846
v -2.550104 1.156467 -2.107679
v -1.937494 1.340863 -3.146857
v -1.809077 1.313424 -3.057342
v -1.809077 1.313424 -3.057342
v -1.937494 1.340863 -3.146857
v -0.630306 1.665214 -3.835382
v -0.526123 1.665214 -3.529513
v -1.809077 1.313424 -3.057342
v -0.630306 1.665214 -3.835382
v -0.526123 1.665214 -3.529513
v -0.630306 1.665214 -3.835382
v 3.327941 1.251984 -3.987835
v 3.327941 1.251984 -3.619470
v -0.526123 1.665214 -3.529513
v 3.327941 1.251984 -3.987835
v -2.748100 1.309647 -1.330137
v -2.550104 1.156467 -2.107679
v -1.697312 1.156467 -2.005846
v -1.484648 1.309647 -1.330137
v -2.748100 1.309647 -1.330137
v -1.697312 1.156467 -2.005846
v 3.327941 -1.228603 -3.987835
v 3.327941 1.251984 -3.987835
v -0.630306 -1.641833 -3.835382
v 3.327941 1.251984 -3.987835
v -0.630306 1.665214 -3.835382
v -0.630306 -1.641833 -3.835382
v -1.937494 -1.317483 -3.146857
v -0.630306 -1.641833 -3.835382
v -0.630306 1.665214 -3.835382
v -1.937494 1.340863 -3.146857
v -1.937494 -1.317483 -3.146857
v -0.630306 1.665214 -3.835382
v -2.550104 -1.133086 -2.107679
v -1.937494 -1.317483 -3.146857
v -1.937494 1.340863 -3.146857
v -2.550104 1.156467 -2.107679
v -2.550104 -1.133086 -2.107679
v -1.937494 1.340863 -3.146857
v -2.748100 -1.286264 -1.330137
v -2.550104 -1.133086 -2.107679
v -2.550104 1.156467 -2.107679
v -2.748100 1.309647 -1.330137
v -2.748100 -1.286264 -1.330137
v -2.550104 1.156467 -2.107679
v 1.465468 1.250043 -1.330137
v 1.465468 -1.226663 -1.330137
v 1.282106 0.904372 -3.374515
v 1.465468 -1.226663 -1.330137
v 1.282106 -0.880991 -3.374515
v 1.282106 0.904372 -3.374515
v 1.282106 -0.880991 -3.374515
v -0.460814 -1.143676 -3.367100
v 1.282106 0.904372 -3.374515
v -0.460814 -1.143676 -3.367100
v -0.460814 1.167056 -3.367100
v 1.282106 0.904372 -3.374515
v -1.697312 1.156467 -2.005846
v -0.460814 1.167056 -3.367100
v -0.460814 -1.143676 -3.367100
v -1.697312 -1.133086 -2.005846
v -1.697312 1.156467 -2.005846
v -0.460814 -1.143676 -3.367100
v -1.697312 1.156467 -2.005846
v -1.697312 -1.133086 -2.005846
v -1.484648 1.309647 -1.330137
v -1.697312 -1.133086 -2.005846
v -1.484648 -1.286264 -1.330137
v -1.484648 1.309647 -1.330137
v 1.465468 -1.226663 -1.330137
v 2.698216 -1.226663 -1.330137
v 2.521913 -0.897108 -3.374515
v 1.282106 -0.880991 -3.374515
v 1.465468 -1.226663 -1.330137
v 2.521913 -0.897108 -3.374515
v 3.327941 -1.228603 -3.619470
v 1.282106 -0.880991 -3.374515
v 2.521913 -0.897108 -3.374515
v -0.460814 -1.143676 -3.367100
v 1.282106 -0.880991 -3.374515
v 3.327941 -1.228603 -3.619470
v -0.526123 -1.641833 -3.529513
v -0.460814 -1.143676 -3.367100
v 3.327941 -1.228603 -3.619470
v -0.460814 -1.143676 -3.367100
v -0.526123 -1.641833 -3.529513
v -1.809077 -1.290040 -3.057342
v -0.460814 -1.143676 -3.367100
v -1.809077 -1.290040 -3.057342
v -1.697312 -1.133086 -2.005846
v -1.809077 -1.290040 -3.057342
v -2.550104 -1.133086 -2.107679
v -1.697312 -1.133086 -2.005846
v -2.550104 -1.133086 -2.107679
v -2.748100 -1.286264 -1.330137
v -1.697312 -1.133086 -2.005846
v -2.748100 -1.286264 -1.330137
v -1.484648 -1.286264 -1.330137
v -1.697312 -1.133086 -2.005846
v -1.809077 -1.290040 -3.057342
v -1.937494 -1.317483 -3.146857
v -2.550104 -1.133086 -2.107679
v -1.937494 -1.317483 -3.146857
v -1.809077 -1.290040 -3.057342
v -0.630306 -1.641833 -3.835382
v -1.809077 -1.290040 -3.057342
v -0.526123 -1.641833 -3.529513
v -0.630306 -1.641833 -3.835382
v 3.327941 -1.228603 -3.987835
v -0.630306 -1.641833 -3.835382
v -0.526123 -1.641833 -3.529513
v 3.327941 -1.228603 -3.619470
v 3.327941 -1.228603 -3.987835
v -0.526123 -1.641833 -3.529513
vt 0.341797 0.439941
vt 0.283936 0.437988
vt 0.341797 0.623535
vt 0.283936 0.437988
vt 0.283936 0.625244
vt 0.341797 0.623535
vt 0.673828 0.887512
vt 0.095703 0.889954
vt 0.677246 0.984688
vt 0.095703 0.889954
vt 0.005985 0.984947
vt 0.677246 0.984688
vt 0.983887 0.889465
vt 0.673828 0.887512
vt 1.006836 0.987373
vt 0.673828 0.887512
vt 0.677246 0.984688
vt 1.006836 0.987373
vt 1.666992 0.889893
vt 1.668945 0.985008
vt 1.099609 0.889954
vt 1.668945 0.985008
vt 1.009766 0.984947
vt 1.099609 0.889954
vt 0.283936 0.625244
vt 0.283936 0.437988
vt 0.027267 0.612793
vt 0.283936 0.437988
vt 0.027328 0.440430
vt 0.027267 0.612793
vt 0.053040 0.831909
vt 0.356201 0.840210
vt 0.355957 0.677002
vt 0.052643 0.687256
vt 0.053040 0.831909
vt 0.355957 0.677002
vt 0.052643 0.687256
vt 0.355957 0.677002
vt 0.041290 0.672607
vt 0.041290 0.672607
vt 0.033905 0.848145
vt 0.052643 0.687256
vt 0.033905 0.848145
vt 0.053040 0.831909
vt 0.052643 0.687256
vt 0.356201 0.840210
vt 0.053040 0.831909
vt 0.033905 0.848145
vt 0.378662 0.850220
vt 0.356201 0.840210
vt 0.033905 0.848145
vt 0.356201 0.840210
vt 0.378662 0.850220
vt 0.355957 0.677002
vt 0.378662 0.850220
vt 0.378174 0.666748
vt 0.355957 0.677002
vt 0.355957 0.677002
vt 0.378174 0.666748
vt 0.041290 0.672607
vt 0.397705 0.152832
vt 0.396973 0.409668
vt 0.619629 0.187988
vt 0.396973 0.409668
vt 0.619141 0.376953
vt 0.619629 0.187988
vt 0.619629 0.187988
vt 0.619141 0.376953
vt 0.647949 0.384277
vt 0.647949 0.179688
vt 0.619629 0.187988
vt 0.647949 0.384277
vt 0.002813 0.271484
vt 0.047424 0.276855
vt 0.034637 0.134766
vt 0.047424 0.276855
vt 0.077820 0.136719
vt 0.034637 0.134766
vt 0.150024 0.415039
vt 0.290771 0.421875
vt 0.183960 0.162598
vt 0.290771 0.421875
vt 0.325684 0.169922
vt 0.183960 0.162598
vt 0.325684 0.169922
vt 0.092957 0.087891
vt 0.183960 0.162598
vt 0.590332 0.127441
vt 0.092957 0.087891
vt 0.325684 0.169922
vt 0.591309 0.061035
vt 0.092957 0.087891
vt 0.590332 0.127441
vt 0.590332 0.127441
vt 0.777832 0.106934
vt 0.591309 0.061035
vt 0.777832 0.106934
vt 0.590332 0.127441
vt 0.829102 0.246094
vt 0.928711 0.182617
vt 0.777832 0.106934
vt 0.829102 0.246094
vt 0.928711 0.182617
vt 0.789551 0.089844
vt 0.777832 0.106934
vt 0.777832 0.106934
vt 0.789551 0.089844
vt 0.604980 0.019043
vt 0.591309 0.061035
vt 0.777832 0.106934
vt 0.604980 0.019043
vt 0.591309 0.061035
vt 0.604980 0.019043
vt 0.107300 0.046387
vt 0.092957 0.087891
vt 0.591309 0.061035
vt 0.107300 0.046387
vt 0.999512 0.270996
vt 0.928711 0.182617
vt 0.829102 0.246094
vt 0.843262 0.344727
vt 0.999512 0.270996
vt 0.829102 0.246094
vt 0.366943 0.434570
vt 0.366211 0.650391
vt 0.696289 0.407715
vt 0.366211 0.650391
vt 0.695313 0.679932
vt 0.696289 0.407715
vt 0.817871 0.434082
vt 0.696289 0.407715
vt 0.695313 0.679932
vt 0.817383 0.654297
vt 0.817871 0.434082
vt 0.695313 0.679932
vt 0.922363 0.446777
vt 0.817871 0.434082
vt 0.817383 0.654297
vt 0.921875 0.642090
vt 0.922363 0.446777
vt 0.817383 0.654297
vt 0.993164 0.432617
vt 0.922363 0.446777
vt 0.921875 0.642090
vt 0.993164 0.657227
vt 0.993164 0.432617
vt 0.921875 0.642090
vt 0.404297 0.685791
vt 0.403564 0.876648
vt 0.606934 0.713135
vt 0.403564 0.876648
vt 0.606445 0.850586
vt 0.606934 0.713135
vt 0.606445 0.850586
vt 0.768555 0.869507
vt 0.606934 0.713135
vt 0.768555 0.869507
vt 0.769043 0.695313
vt 0.606934 0.713135
vt 0.930664 0.699463
vt 0.769043 0.695313
vt 0.768555 0.869507
vt 0.930176 0.866455
vt 0.930664 0.699463
vt 0.768555 0.869507
vt 0.930664 0.699463
vt 0.930176 0.866455
vt 0.994629 0.688232
vt 0.930176 0.866455
vt 0.994141 0.878235
vt 0.994629 0.688232
vt 1.290039 0.421387
vt 1.149414 0.414551
vt 1.183594 0.162598
vt 1.325195 0.169922
vt 1.290039 0.421387
vt 1.183594 0.162598
vt 1.099609 0.087891
vt 1.325195 0.169922
vt 1.183594 0.162598
vt 1.589844 0.127441
vt 1.325195 0.169922
vt 1.099609 0.087891
vt 1.590820 0.061035
vt 1.589844 0.127441
vt 1.099609 0.087891
vt 1.589844 0.127441
vt 1.590820 0.061035
vt 1.777344 0.106934
vt 1.589844 0.127441
vt 1.777344 0.106934
vt 1.829102 0.246582
vt 1.777344 0.106934
vt 1.928711 0.183594
vt 1.829102 0.246582
vt 1.928711 0.183594
vt 2.000000 0.271484
vt 1.829102 0.246582
vt 2.000000 0.271484
vt 1.843750 0.343750
vt 1.829102 0.246582
vt 1.777344 0.106934
vt 1.789063 0.089355
vt 1.928711 0.183594
vt 1.789063 0.089355
vt 1.777344 0.106934
vt 1.604492 0.019043
vt 1.777344 0.106934
vt 1.590820 0.061035
vt 1.604492 0.019043
vt 1.115234 0.046875
vt 1.604492 0.019043
vt 1.590820 0.061035
vt 1.099609 0.087891
vt 1.115234 0.046875
vt 1.590820 0.061035
vn -0.592955 0.000000 0.806262
vn -0.592955 0.000000 0.806262
vn -0.592955 0.000000 0.806262
vn -0.592955 0.000000 0.806262
vn -0.592955 0.000000 0.806262
vn -0.592955 0.000000 0.806262
vn 0.706458 0.706458 0.003914
vn 0.000000 1.000000 0.005871
vn 0.706458 0.706458 0.003914
vn 0.000000 1.000000 0.005871
vn 0.000000 1.000000 0.005871
vn 0.706458 0.706458 0.003914
vn 0.706458 -0.706458 -0.003914
vn 0.706458 0.706458 0.003914
vn 0.706458 -0.706458 -0.003914
vn 0.706458 0.706458 0.003914
vn 0.706458 0.706458 0.003914
vn 0.706458 -0.706458 -0.003914
vn 0.706458 -0.706458 -0.003914
vn 0.706458 -0.706458 -0.003914
vn 0.000000 -1.000000 -0.005871
vn 0.706458 -0.706458 -0.003914
vn 0.000000 -1.000000 -0.005871
vn 0.000000 -1.000000 -0.005871
vn 0.000000 0.000000 1.000000
vn 0.000000 0.000000 1.000000
vn 0.000000 0.000000 1.000000
vn 0.000000 0.000000 1.000000
vn 0.000000 0.000000 1.000000
vn 0.000000 0.000000 1.000000
vn 0.000000 0.000000 -1.000000
vn 0.000000 0.000000 -1.000000
vn -0.401174 -0.403131 -0.823875
vn 0.434442 -0.409002 -0.802348
vn 0.000000 0.000000 -1.000000
vn -0.401174 -0.403131 -0.823875
vn 0.434442 -0.409002 -0.802348
vn -0.401174 -0.403131 -0.823875
vn 0.632094 -0.592955 -0.500978
vn 0.632094 -0.592955 -0.500978
vn 0.624266 0.606654 -0.493151
vn 0.434442 -0.409002 -0.802348
vn 0.624266 0.606654 -0.493151
vn 0.624266 0.606654 -0.493151
vn 0.434442 -0.409002 -0.802348
vn -0.587084 0.589041 -0.555773
vn 0.624266 0.606654 -0.493151
vn 0.624266 0.606654 -0.493151
vn -0.587084 0.589041 -0.555773
vn -0.587084 0.589041 -0.555773
vn 0.624266 0.606654 -0.493151
vn -0.587084 0.589041 -0.555773
vn -0.587084 0.589041 -0.555773
vn -0.401174 -0.403131 -0.823875
vn -0.587084 0.589041 -0.555773
vn -0.587084 -0.589041 -0.553816
vn -0.401174 -0.403131 -0.823875
vn -0.401174 -0.403131 -0.823875
vn -0.587084 -0.589041 -0.553816
vn 0.632094 -0.592955 -0.500978
vn 0.996086 0.000000 -0.086106
vn 0.996086 0.000000 -0.086106
vn 0.827789 0.000000 0.559687
vn 0.996086 0.000000 -0.086106
vn 0.827789 0.000000 0.559687
vn 0.827789 0.000000 0.559687
vn 0.827789 0.000000 0.559687
vn 0.827789 0.000000 0.559687
vn 0.291585 0.000000 0.956947
vn 0.291585 0.000000 0.956947
vn 0.827789 0.000000 0.559687
vn 0.291585 0.000000 0.956947
vn 0.743640 -0.669276 -0.011742
vn 0.743640 -0.669276 -0.011742
vn 0.743640 0.669276 -0.011742
vn 0.743640 -0.669276 -0.011742
vn 0.743640 0.669276 -0.011742
vn 0.743640 0.669276 -0.011742
vn -0.005871 0.986301 -0.162427
vn -0.005871 0.986301 -0.162427
vn 0.025440 0.868885 0.493151
vn -0.005871 0.986301 -0.162427
vn 0.025440 0.868885 0.493151
vn 0.025440 0.868885 0.493151
vn 0.025440 0.868885 0.493151
vn 0.046967 0.363992 0.929550
vn 0.025440 0.868885 0.493151
vn 0.140900 0.639922 0.755382
vn 0.046967 0.363992 0.929550
vn 0.025440 0.868885 0.493151
vn 0.146771 0.348337 0.925636
vn 0.046967 0.363992 0.929550
vn 0.140900 0.639922 0.755382
vn 0.140900 0.639922 0.755382
vn 0.058708 0.913894 0.401174
vn 0.146771 0.348337 0.925636
vn 0.058708 0.913894 0.401174
vn 0.140900 0.639922 0.755382
vn 0.045010 0.998043 -0.033268
vn 0.050881 0.998043 0.048924
vn 0.058708 0.913894 0.401174
vn 0.045010 0.998043 -0.033268
vn 0.050881 0.998043 0.048924
vn -0.056751 0.980431 0.191781
vn 0.058708 0.913894 0.401174
vn 0.058708 0.913894 0.401174
vn -0.056751 0.980431 0.191781
vn -0.037182 0.996086 0.078278
vn -0.037182 0.996086 0.078278
vn 0.058708 0.913894 0.401174
vn -0.037182 0.996086 0.078278
vn -0.037182 0.996086 0.078278
vn -0.037182 0.996086 0.078278
vn 0.743640 0.669276 -0.011742
vn 0.743640 0.669276 -0.011742
vn -0.037182 0.996086 0.078278
vn 0.743640 0.669276 -0.011742
vn 0.009785 0.978474 -0.205479
vn 0.050881 0.998043 0.048924
vn 0.045010 0.998043 -0.033268
vn 0.009785 0.978474 -0.205479
vn 0.009785 0.978474 -0.205479
vn 0.045010 0.998043 -0.033268
vn -0.039139 0.000000 -1.000000
vn -0.039139 0.000000 -1.000000
vn -0.258317 0.000000 -0.966732
vn -0.039139 0.000000 -1.000000
vn -0.258317 0.000000 -0.966732
vn -0.258317 0.000000 -0.966732
vn -0.690802 0.000000 -0.724070
vn -0.258317 0.000000 -0.966732
vn -0.258317 0.000000 -0.966732
vn -0.690802 0.000000 -0.724070
vn -0.690802 0.000000 -0.724070
vn -0.258317 0.000000 -0.966732
vn -0.923679 0.000000 -0.381605
vn -0.690802 0.000000 -0.724070
vn -0.690802 0.000000 -0.724070
vn -0.923679 0.000000 -0.381605
vn -0.923679 0.000000 -0.381605
vn -0.690802 0.000000 -0.724070
vn -0.968689 0.000000 -0.246575
vn -0.923679 0.000000 -0.381605
vn -0.923679 0.000000 -0.381605
vn -0.968689 0.000000 -0.246575
vn -0.968689 0.000000 -0.246575
vn -0.923679 0.000000 -0.381605
vn -0.996086 0.000000 0.090020
vn -0.996086 0.000000 0.090020
vn -0.673190 0.000000 0.739726
vn -0.996086 0.000000 0.090020
vn -0.673190 0.000000 0.739726
vn -0.673190 0.000000 0.739726
vn -0.673190 0.000000 0.739726
vn 0.407045 0.000000 0.913894
vn -0.673190 0.000000 0.739726
vn 0.407045 0.000000 0.913894
vn 0.407045 0.000000 0.913894
vn -0.673190 0.000000 0.739726
vn 0.976517 0.000000 0.215264
vn 0.407045 0.000000 0.913894
vn 0.407045 0.000000 0.913894
vn 0.976517 0.000000 0.215264
vn 0.976517 0.000000 0.215264
vn 0.407045 0.000000 0.913894
vn 0.976517 0.000000 0.215264
vn 0.976517 0.000000 0.215264
vn 0.953033 0.000000 -0.299413
vn 0.976517 0.000000 0.215264
vn 0.953033 0.000000 -0.299413
vn 0.953033 0.000000 -0.299413
vn -0.005871 -0.986301 -0.162427
vn -0.005871 -0.986301 -0.162427
vn 0.025440 -0.868885 0.493151
vn 0.025440 -0.868885 0.493151
vn -0.005871 -0.986301 -0.162427
vn 0.025440 -0.868885 0.493151
vn 0.046967 -0.363992 0.929550
vn 0.025440 -0.868885 0.493151
vn 0.025440 -0.868885 0.493151
vn 0.140900 -0.639922 0.755382
vn 0.025440 -0.868885 0.493151
vn 0.046967 -0.363992 0.929550
vn 0.146771 -0.348337 0.925636
vn 0.140900 -0.639922 0.755382
vn 0.046967 -0.363992 0.929550
vn 0.140900 -0.639922 0.755382
vn 0.146771 -0.348337 0.925636
vn 0.058708 -0.913894 0.401174
vn 0.140900 -0.639922 0.755382
vn 0.058708 -0.913894 0.401174
vn 0.045010 -0.998043 -0.033268
vn 0.058708 -0.913894 0.401174
vn 0.050881 -0.998043 0.048924
vn 0.045010 -0.998043 -0.033268
vn 0.050881 -0.998043 0.048924
vn 0.009785 -0.978474 -0.205479
vn 0.045010 -0.998043 -0.033268
vn 0.009785 -0.978474 -0.205479
vn 0.009785 -0.978474 -0.205479
vn 0.045010 -0.998043 -0.033268
vn 0.058708 -0.913894 0.401174
vn -0.056751 -0.980431 0.191781
vn 0.050881 -0.998043 0.048924
vn -0.056751 -0.980431 0.191781
vn 0.058708 -0.913894 0.401174
vn -0.037182 -0.996086 0.078278
vn 0.058708 -0.913894 0.401174
vn -0.037182 -0.996086 0.078278
vn -0.037182 -0.996086 0.078278
vn 0.743640 -0.669276 -0.011742
vn -0.037182 -0.996086 0.078278
vn -0.037182 -0.996086 0.078278
vn 0.743640 -0.669276 -0.011742
vn 0.743640 -0.669276 -0.011742
vn -0.037182 -0.996086 0.078278
mtllib mtl_t6_attach_fastmag.mtl
g mtl_t6_attach_fastmag
usemtl mtl_t6_attach_fastmag
f 3/3/3 2/2/2 1/1/1
f 6/6/6 5/5/5 4/4/4
f 9/9/9 8/8/8 7/7/7
f 12/12/12 11/11/11 10/10/10
f 15/15/15 14/14/14 13/13/13
f 18/18/18 17/17/17 16/16/16
f 21/21/21 20/20/20 19/19/19
f 24/24/24 23/23/23 22/22/22
f 27/27/27 26/26/26 25/25/25
f 30/30/30 29/29/29 28/28/28
f 33/33/33 32/32/32 31/31/31
f 36/36/36 35/35/35 34/34/34
f 39/39/39 38/38/38 37/37/37
f 42/42/42 41/41/41 40/40/40
f 45/45/45 44/44/44 43/43/43
f 48/48/48 47/47/47 46/46/46
f 51/51/51 50/50/50 49/49/49
f 54/54/54 53/53/53 52/52/52
f 57/57/57 56/56/56 55/55/55
f 60/60/60 59/59/59 58/58/58
f 63/63/63 62/62/62 61/61/61
f 66/66/66 65/65/65 64/64/64
f 69/69/69 68/68/68 67/67/67
f 72/72/72 71/71/71 70/70/70
f 75/75/75 74/74/74 73/73/73
f 78/78/78 77/77/77 76/76/76
f 81/81/81 80/80/80 79/79/79
f 84/84/84 83/83/83 82/82/82
f 87/87/87 86/86/86 85/85/85
f 90/90/90 89/89/89 88/88/88
f 93/93/93 92/92/92 91/91/91
f 96/96/96 95/95/95 94/94/94
f 99/99/99 98/98/98 97/97/97
f 102/102/102 101/101/101 100/100/100
f 105/105/105 104/104/104 103/103/103
f 108/108/108 107/107/107 106/106/106
f 111/111/111 110/110/110 109/109/109
f 114/114/114 113/113/113 112/112/112
f 117/117/117 116/116/116 115/115/115
f 120/120/120 119/119/119 118/118/118
f 123/123/123 122/122/122 121/121/121
f 126/126/126 125/125/125 124/124/124
f 129/129/129 128/128/128 127/127/127
f 132/132/132 131/131/131 130/130/130
f 135/135/135 134/134/134 133/133/133
f 138/138/138 137/137/137 136/136/136
f 141/141/141 140/140/140 139/139/139
f 144/144/144 143/143/143 142/142/142
f 147/147/147 146/146/146 145/145/145
f 150/150/150 149/149/149 148/148/148
f 153/153/153 152/152/152 151/151/151
f 156/156/156 155/155/155 154/154/154
f 159/159/159 158/158/158 157/157/157
f 162/162/162 161/161/161 160/160/160
f 165/165/165 164/164/164 163/163/163
f 168/168/168 167/167/167 166/166/166
f 171/171/171 170/170/170 169/169/169
f 174/174/174 173/173/173 172/172/172
f 177/177/177 176/176/176 175/175/175
f 180/180/180 179/179/179 178/178/178
f 183/183/183 182/182/182 181/181/181
f 186/186/186 185/185/185 184/184/184
f 189/189/189 188/188/188 187/187/187
f 192/192/192 191/191/191 190/190/190
f 195/195/195 194/194/194 193/193/193
f 198/198/198 197/197/197 196/196/196
f 201/201/201 200/200/200 199/199/199
f 204/204/204 203/203/203 202/202/202
f 207/207/207 206/206/206 205/205/205
f 210/210/210 209/209/209 208/208/208
f 213/213/213 212/212/212 211/211/211
f 216/216/216 215/215/215 214/214/214
