# Generated by Wraith - Game extraction tools
# Please credit DTZxPorter for using it!

v -0.013472 0.773598 1.297323
v 17.697399 0.773598 1.297323
v -0.013472 -0.773598 1.297323
v 17.697399 0.773598 1.297323
v 17.697399 -0.773598 1.297323
v -0.013472 -0.773598 1.297323
v -0.013472 -1.346215 -2.775029
v 17.697399 -1.346215 -2.775029
v -0.013472 1.346215 -2.775029
v 17.697399 -1.346215 -2.775029
v 17.697399 1.346215 -2.775029
v -0.013472 1.346215 -2.775029
v -0.013472 0.773598 1.297323
v -0.013472 1.346215 -2.775029
v 17.697399 0.773598 1.297323
v -0.013472 1.346215 -2.775029
v 17.697399 1.346215 -2.775029
v 17.697399 0.773598 1.297323
v -0.013472 -0.773598 1.297323
v 17.697399 -0.773598 1.297323
v -0.013472 -1.346215 -2.775029
v 17.697399 -0.773598 1.297323
v 17.697399 -1.346215 -2.775029
v -0.013472 -1.346215 -2.775029
v 17.697399 0.773598 1.297323
v 17.697399 1.346215 -2.775029
v 17.697399 -0.773598 1.297323
v 17.697399 1.346215 -2.775029
v 17.697399 -1.346215 -2.775029
v 17.697399 -0.773598 1.297323
v -0.013472 -0.773598 1.297323
v -0.013472 -1.346215 -2.775029
v -0.013472 0.773598 1.297323
v -0.013472 -1.346215 -2.775029
v -0.013472 1.346215 -2.775029
v -0.013472 0.773598 1.297323
vt 0.723633 0.515381
vt 0.012489 0.515381
vt 0.723633 0.656738
vt 0.012489 0.515381
vt 0.012489 0.656738
vt 0.723633 0.656738
vt 0.723633 0.020020
vt 0.012489 0.020020
vt 0.723633 0.173340
vt 0.012489 0.020020
vt 0.012489 0.173340
vt 0.723633 0.173340
vt 0.723633 0.515381
vt 0.723633 0.173340
vt 0.012489 0.515381
vt 0.723633 0.173340
vt 0.012489 0.173340
vt 0.012489 0.515381
vt 0.723633 0.656738
vt 0.012489 0.656738
vt 0.723633 0.991844
vt 0.012489 0.656738
vt 0.012489 0.991844
vt 0.723633 0.991844
vt 0.850586 0.455566
vt 0.880859 0.013184
vt 0.761719 0.455566
vt 0.880859 0.013184
vt 0.731445 0.013184
vt 0.761719 0.455566
vt 0.862793 0.987015
vt 0.895996 0.476563
vt 0.769531 0.987015
vt 0.895996 0.476563
vt 0.736328 0.476563
vt 0.769531 0.987015
vn 0.000000 0.000000 1.000000
vn 0.000000 0.000000 1.000000
vn 0.000000 0.000000 1.000000
vn 0.000000 0.000000 1.000000
vn 0.000000 0.000000 1.000000
vn 0.000000 0.000000 1.000000
vn 0.000000 0.000000 -1.000000
vn 0.000000 0.000000 -1.000000
vn 0.000000 0.000000 -1.000000
vn 0.000000 0.000000 -1.000000
vn 0.000000 0.000000 -1.000000
vn 0.000000 0.000000 -1.000000
vn 0.000000 1.000000 0.000000
vn 0.000000 1.000000 0.000000
vn 0.000000 1.000000 0.000000
vn 0.000000 1.000000 0.000000
vn 0.000000 1.000000 0.000000
vn 0.000000 1.000000 0.000000
vn 0.000000 -0.861057 0.508806
vn 0.000000 -0.861057 0.508806
vn 0.000000 -0.706458 -0.706458
vn 0.000000 -0.861057 0.508806
vn 0.000000 -0.706458 -0.706458
vn 0.000000 -0.706458 -0.706458
vn 1.000000 0.000000 0.000000
vn 1.000000 0.000000 0.000000
vn 1.000000 0.000000 0.000000
vn 1.000000 0.000000 0.000000
vn 1.000000 0.000000 0.000000
vn 1.000000 0.000000 0.000000
vn -1.000000 0.000000 0.000000
vn -1.000000 0.000000 0.000000
vn -1.000000 0.000000 0.000000
vn -1.000000 0.000000 0.000000
vn -1.000000 0.000000 0.000000
vn -1.000000 0.000000 0.000000
mtllib mtl_t6_attach_pistol_silencer.mtl
g mtl_t6_attach_pistol_silencer
usemtl mtl_t6_attach_pistol_silencer
f 3/3/3 2/2/2 1/1/1
f 6/6/6 5/5/5 4/4/4
f 9/9/9 8/8/8 7/7/7
f 12/12/12 11/11/11 10/10/10
f 15/15/15 14/14/14 13/13/13
f 18/18/18 17/17/17 16/16/16
f 21/21/21 20/20/20 19/19/19
f 24/24/24 23/23/23 22/22/22
f 27/27/27 26/26/26 25/25/25
f 30/30/30 29/29/29 28/28/28
f 33/33/33 32/32/32 31/31/31
f 36/36/36 35/35/35 34/34/34
