# Generated by Wraith - Game extraction tools
# Please credit DTZxPorter for using it!

v 0.770279 0.961707 -13.620663
v 0.770279 -0.797570 -13.620663
v 4.987011 0.961707 -12.061685
v 0.770279 -0.797570 -13.620663
v 4.987011 -0.797570 -12.061685
v 4.987011 0.961707 -12.061685
v 0.770279 0.961707 -13.620663
v -1.419258 0.961707 -6.854056
v 0.770279 -0.797570 -13.620663
v -1.419258 0.961707 -6.854056
v -1.419258 -0.797570 -6.854056
v 0.770279 -0.797570 -13.620663
v -2.908358 -0.797570 3.358774
v -1.419258 -0.797570 -6.854056
v -1.419258 0.961707 -6.854056
v -2.908358 0.961707 3.358774
v -2.908358 -0.797570 3.358774
v -1.419258 0.961707 -6.854056
v -2.908358 -0.797570 3.358774
v -2.908358 0.961707 3.358774
v 1.438890 -0.797570 3.358774
v -2.908358 0.961707 3.358774
v 1.438890 0.961707 3.358774
v 1.438890 -0.797570 3.358774
v 4.987011 0.961707 -12.061685
v 2.838164 0.961707 -6.055174
v 0.770279 0.961707 -13.620663
v 2.838164 0.961707 -6.055174
v -1.419258 0.961707 -6.854056
v 0.770279 0.961707 -13.620663
v 2.838164 0.961707 -6.055174
v 1.438890 0.961707 3.358774
v -1.419258 0.961707 -6.854056
v 1.438890 0.961707 3.358774
v -2.908358 0.961707 3.358774
v -1.419258 0.961707 -6.854056
v 4.987011 0.961707 -12.061685
v 4.987011 -0.797570 -12.061685
v 2.838164 0.961707 -6.055174
v 4.987011 -0.797570 -12.061685
v 2.838164 -0.797570 -6.055174
v 2.838164 0.961707 -6.055174
v 2.838164 -0.797570 -6.055174
v 1.438890 -0.797570 3.358774
v 2.838164 0.961707 -6.055174
v 1.438890 -0.797570 3.358774
v 1.438890 0.961707 3.358774
v 2.838164 0.961707 -6.055174
v 4.987011 -0.797570 -12.061685
v 0.770279 -0.797570 -13.620663
v 2.838164 -0.797570 -6.055174
v 0.770279 -0.797570 -13.620663
v -1.419258 -0.797570 -6.854056
v 2.838164 -0.797570 -6.055174
v 2.838164 -0.797570 -6.055174
v -1.419258 -0.797570 -6.854056
v 1.438890 -0.797570 3.358774
v -1.419258 -0.797570 -6.854056
v -2.908358 -0.797570 3.358774
v 1.438890 -0.797570 3.358774
vt 0.161987 0.064453
vt 0.161255 0.104004
vt 0.235107 0.065918
vt 0.161255 0.104004
vt 0.234375 0.105469
vt 0.235107 0.065918
vt 0.137695 0.139160
vt 0.137695 0.287598
vt 0.186768 0.139160
vt 0.137695 0.287598
vt 0.186768 0.287598
vt 0.186768 0.139160
vt 0.186768 0.510010
vt 0.186768 0.287598
vt 0.137695 0.287598
vt 0.137695 0.510010
vt 0.186768 0.510010
vt 0.137695 0.287598
vt 0.044708 0.305176
vt 0.094910 0.305176
vt 0.044708 0.210449
vt 0.094910 0.305176
vt 0.094910 0.210449
vt 0.044708 0.210449
vt 1.004883 0.149902
vt 1.025391 0.314453
vt 1.111328 0.139160
vt 1.025391 0.314453
vt 1.125977 0.317871
vt 1.111328 0.139160
vt 1.025391 0.314453
vt 1.008789 0.541748
vt 1.125977 0.317871
vt 1.008789 0.541748
vt 1.108398 0.563477
vt 1.125977 0.317871
vt 1.233398 0.173828
vt 1.191406 0.173828
vt 1.233398 0.289551
vt 1.191406 0.173828
vt 1.191406 0.290039
vt 1.233398 0.289551
vt 1.191406 0.290039
vt 1.191406 0.447754
vt 1.233398 0.289551
vt 1.191406 0.447754
vt 1.233398 0.447754
vt 1.233398 0.289551
vt 0.005421 0.149902
vt 0.111694 0.139160
vt 0.026321 0.314453
vt 0.111694 0.139160
vt 0.126221 0.317871
vt 0.026321 0.314453
vt 0.026321 0.314453
vt 0.126221 0.317871
vt 0.008949 0.541748
vt 0.126221 0.317871
vt 0.109253 0.563477
vt 0.008949 0.541748
vn 0.346380 0.000000 -0.937378
vn 0.346380 0.000000 -0.937378
vn 0.346380 0.000000 -0.937378
vn 0.346380 0.000000 -0.937378
vn 0.346380 0.000000 -0.937378
vn 0.346380 0.000000 -0.937378
vn -0.951076 0.000000 -0.307241
vn -0.974560 0.000000 -0.227006
vn -0.951076 0.000000 -0.307241
vn -0.974560 0.000000 -0.227006
vn -0.974560 0.000000 -0.227006
vn -0.951076 0.000000 -0.307241
vn -0.990215 0.000000 -0.144814
vn -0.974560 0.000000 -0.227006
vn -0.974560 0.000000 -0.227006
vn -0.990215 0.000000 -0.144814
vn -0.990215 0.000000 -0.144814
vn -0.974560 0.000000 -0.227006
vn 0.000000 0.000000 1.000000
vn 0.000000 0.000000 1.000000
vn 0.000000 0.000000 1.000000
vn 0.000000 0.000000 1.000000
vn 0.000000 0.000000 1.000000
vn 0.000000 0.000000 1.000000
vn 0.000000 1.000000 0.000000
vn 0.000000 1.000000 0.000000
vn 0.000000 1.000000 0.000000
vn 0.000000 1.000000 0.000000
vn 0.000000 1.000000 0.000000
vn 0.000000 1.000000 0.000000
vn 0.000000 1.000000 0.000000
vn 0.000000 1.000000 0.000000
vn 0.000000 1.000000 0.000000
vn 0.000000 1.000000 0.000000
vn 0.000000 1.000000 0.000000
vn 0.000000 1.000000 0.000000
vn 0.941292 0.000000 0.336595
vn 0.941292 0.000000 0.336595
vn 0.970646 0.000000 0.242661
vn 0.941292 0.000000 0.336595
vn 0.970646 0.000000 0.242661
vn 0.970646 0.000000 0.242661
vn 0.970646 0.000000 0.242661
vn 0.988258 0.000000 0.146771
vn 0.970646 0.000000 0.242661
vn 0.988258 0.000000 0.146771
vn 0.988258 0.000000 0.146771
vn 0.970646 0.000000 0.242661
vn 0.000000 -1.000000 0.000000
vn 0.000000 -1.000000 0.000000
vn 0.000000 -1.000000 0.000000
vn 0.000000 -1.000000 0.000000
vn 0.000000 -1.000000 0.000000
vn 0.000000 -1.000000 0.000000
vn 0.000000 -1.000000 0.000000
vn 0.000000 -1.000000 0.000000
vn 0.000000 -1.000000 0.000000
vn 0.000000 -1.000000 0.000000
vn 0.000000 -1.000000 0.000000
vn 0.000000 -1.000000 0.000000
mtllib mtl_t6_wpn_smg_scorpion_camo4.mtl
g mtl_t6_wpn_smg_scorpion_camo4
usemtl mtl_t6_wpn_smg_scorpion_camo4
f 3/3/3 2/2/2 1/1/1
f 6/6/6 5/5/5 4/4/4
f 9/9/9 8/8/8 7/7/7
f 12/12/12 11/11/11 10/10/10
f 15/15/15 14/14/14 13/13/13
f 18/18/18 17/17/17 16/16/16
mtllib mtl_t6_wpn_smg_scorpion_camo3.mtl
g mtl_t6_wpn_smg_scorpion_camo3
usemtl mtl_t6_wpn_smg_scorpion_camo3
f 21/21/21 20/20/20 19/19/19
f 24/24/24 23/23/23 22/22/22
f 27/27/27 26/26/26 25/25/25
f 30/30/30 29/29/29 28/28/28
f 33/33/33 32/32/32 31/31/31
f 36/36/36 35/35/35 34/34/34
f 39/39/39 38/38/38 37/37/37
f 42/42/42 41/41/41 40/40/40
f 45/45/45 44/44/44 43/43/43
f 48/48/48 47/47/47 46/46/46
f 51/51/51 50/50/50 49/49/49
f 54/54/54 53/53/53 52/52/52
f 57/57/57 56/56/56 55/55/55
f 60/60/60 59/59/59 58/58/58
