# Generated by Wraith - Game extraction tools
# Please credit DTZxPorter for using it!

v 0.004780 2.230745 -1.081319
v 0.004780 0.546905 -2.429286
v 19.670313 0.466997 -2.096133
v 19.670313 1.921680 -0.933028
v 0.004780 2.230745 -1.081319
v 19.670313 0.466997 -2.096133
v 0.004780 2.230951 1.080907
v 0.004780 2.230745 -1.081319
v 19.670313 1.921680 -0.933028
v 19.670313 1.921855 0.932665
v 0.004780 2.230951 1.080907
v 19.670313 1.921680 -0.933028
v 0.004780 0.547367 2.429190
v 0.004780 2.230951 1.080907
v 19.670313 1.921855 0.932665
v 19.670313 0.467390 2.096041
v 0.004780 0.547367 2.429190
v 19.670313 1.921855 0.932665
v 0.004780 -1.552232 1.948243
v 0.004780 0.547367 2.429190
v 19.670313 0.467390 2.096041
v 19.670313 -1.346472 1.681056
v 0.004780 -1.552232 1.948243
v 19.670313 0.467390 2.096041
v 0.004780 -2.486807 0.000231
v 0.004780 -1.552232 1.948243
v 19.670313 -1.346472 1.681056
v 19.670313 -2.153857 0.000201
v 0.004780 -2.486807 0.000231
v 19.670313 -1.346472 1.681056
v 0.004780 -1.552603 -1.947951
v 0.004780 -2.486807 0.000231
v 19.670313 -2.153857 0.000201
v 19.670313 -1.346787 -1.680804
v 0.004780 -1.552603 -1.947951
v 19.670313 -2.153857 0.000201
v 0.004780 0.546905 -2.429286
v 0.004780 -1.552603 -1.947951
v 19.670313 -1.346787 -1.680804
v 19.670313 0.466997 -2.096133
v 0.004780 0.546905 -2.429286
v 19.670313 -1.346787 -1.680804
v 0.004780 2.230745 -1.081319
v 0.004780 2.230951 1.080907
v 0.004780 0.546905 -2.429286
v 0.004780 0.546905 -2.429286
v 0.004780 2.230951 1.080907
v 0.004780 -1.552603 -1.947951
v 0.004780 -1.552603 -1.947951
v 0.004780 2.230951 1.080907
v 0.004780 -2.486807 0.000231
v 0.004780 -2.486807 0.000231
v 0.004780 2.230951 1.080907
v 0.004780 -1.552232 1.948243
v 0.004780 -1.552232 1.948243
v 0.004780 2.230951 1.080907
v 0.004780 0.547367 2.429190
v 19.670313 1.921855 0.932665
v 19.670313 1.921680 -0.933028
v 19.670313 0.467390 2.096041
v 19.670313 0.467390 2.096041
v 19.670313 1.921680 -0.933028
v 19.670313 -1.346472 1.681056
v 19.670313 -1.346472 1.681056
v 19.670313 1.921680 -0.933028
v 19.670313 -2.153857 0.000201
v 19.670313 -2.153857 0.000201
v 19.670313 1.921680 -0.933028
v 19.670313 -1.346787 -1.680804
v 19.670313 -1.346787 -1.680804
v 19.670313 1.921680 -0.933028
v 19.670313 0.466997 -2.096133
vt 0.714355 0.594727
vt 0.714355 0.531982
vt 0.018219 0.526611
vt 0.018219 0.594727
vt 0.714355 0.594727
vt 0.018219 0.526611
vt 0.714355 0.662598
vt 0.714355 0.594727
vt 0.018219 0.594727
vt 0.018219 0.666504
vt 0.714355 0.662598
vt 0.018219 0.594727
vt 0.714355 0.731201
vt 0.714355 0.662598
vt 0.018219 0.666504
vt 0.018219 0.731201
vt 0.714355 0.731201
vt 0.018219 0.666504
vt 0.714355 0.802002
vt 0.714355 0.731201
vt 0.018219 0.731201
vt 0.018219 0.804688
vt 0.714355 0.802002
vt 0.018219 0.731201
vt 0.714355 0.874146
vt 0.714355 0.802002
vt 0.018219 0.804688
vt 0.018219 0.874146
vt 0.714355 0.874146
vt 0.018219 0.804688
vt 0.714355 0.938477
vt 0.714355 0.874146
vt 0.018219 0.874146
vt 0.018219 0.943817
vt 0.714355 0.938477
vt 0.018219 0.874146
vt 0.714355 0.993633
vt 0.714355 0.938477
vt 0.018219 0.943817
vt 0.018219 0.990814
vt 0.714355 0.993633
vt 0.018219 0.943817
vt 0.823730 0.989189
vt 0.926758 0.965668
vt 0.741211 0.923279
vt 0.741211 0.923279
vt 0.926758 0.965668
vt 0.741211 0.817505
vt 0.741211 0.817505
vt 0.926758 0.965668
vt 0.823730 0.751587
vt 0.823730 0.751587
vt 0.926758 0.965668
vt 0.926758 0.775146
vt 0.926758 0.775146
vt 0.926758 0.965668
vt 0.972656 0.870483
vt 0.805664 0.710205
vt 0.899902 0.731689
vt 0.763672 0.623047
vt 0.763672 0.623047
vt 0.899902 0.731689
vt 0.805664 0.536133
vt 0.805664 0.536133
vt 0.899902 0.731689
vt 0.899902 0.514648
vt 0.899902 0.514648
vt 0.899902 0.731689
vt 0.975098 0.574951
vt 0.975098 0.574951
vt 0.899902 0.731689
vt 0.975098 0.671387
vn 0.017613 0.900196 -0.432485
vn 0.017613 0.223092 -0.974560
vn 0.017613 0.223092 -0.974560
vn 0.017613 0.900196 -0.432485
vn 0.017613 0.900196 -0.432485
vn 0.017613 0.223092 -0.974560
vn 0.017613 0.902153 0.432485
vn 0.017613 0.900196 -0.432485
vn 0.017613 0.900196 -0.432485
vn 0.017613 0.902153 0.432485
vn 0.017613 0.902153 0.432485
vn 0.017613 0.900196 -0.432485
vn 0.017613 0.223092 0.974560
vn 0.017613 0.902153 0.432485
vn 0.017613 0.902153 0.432485
vn 0.017613 0.223092 0.974560
vn 0.017613 0.223092 0.974560
vn 0.017613 0.902153 0.432485
vn 0.017613 -0.624266 0.780822
vn 0.017613 0.223092 0.974560
vn 0.017613 0.223092 0.974560
vn 0.017613 -0.624266 0.780822
vn 0.017613 -0.624266 0.780822
vn 0.017613 0.223092 0.974560
vn 0.017613 -1.000000 0.000000
vn 0.017613 -0.624266 0.780822
vn 0.017613 -0.624266 0.780822
vn 0.017613 -1.000000 0.000000
vn 0.017613 -1.000000 0.000000
vn 0.017613 -0.624266 0.780822
vn 0.017613 -0.624266 -0.780822
vn 0.017613 -1.000000 0.000000
vn 0.017613 -1.000000 0.000000
vn 0.017613 -0.624266 -0.780822
vn 0.017613 -0.624266 -0.780822
vn 0.017613 -1.000000 0.000000
vn 0.017613 0.223092 -0.974560
vn 0.017613 -0.624266 -0.780822
vn 0.017613 -0.624266 -0.780822
vn 0.017613 0.223092 -0.974560
vn 0.017613 0.223092 -0.974560
vn 0.017613 -0.624266 -0.780822
vn -1.000000 0.000000 0.000000
vn -1.000000 0.000000 0.000000
vn -1.000000 0.000000 0.000000
vn -1.000000 0.000000 0.000000
vn -1.000000 0.000000 0.000000
vn -1.000000 0.000000 0.000000
vn -1.000000 0.000000 0.000000
vn -1.000000 0.000000 0.000000
vn -1.000000 0.000000 0.000000
vn -1.000000 0.000000 0.000000
vn -1.000000 0.000000 0.000000
vn -1.000000 0.000000 0.000000
vn -1.000000 0.000000 0.000000
vn -1.000000 0.000000 0.000000
vn -1.000000 0.000000 0.000000
vn 1.000000 0.000000 0.000000
vn 1.000000 0.000000 0.000000
vn 1.000000 0.000000 0.000000
vn 1.000000 0.000000 0.000000
vn 1.000000 0.000000 0.000000
vn 1.000000 0.000000 0.000000
vn 1.000000 0.000000 0.000000
vn 1.000000 0.000000 0.000000
vn 1.000000 0.000000 0.000000
vn 1.000000 0.000000 0.000000
vn 1.000000 0.000000 0.000000
vn 1.000000 0.000000 0.000000
vn 1.000000 0.000000 0.000000
vn 1.000000 0.000000 0.000000
vn 1.000000 0.000000 0.000000
mtllib mtl_t6_attach_rus_silencer.mtl
g mtl_t6_attach_rus_silencer
usemtl mtl_t6_attach_rus_silencer
f 3/3/3 2/2/2 1/1/1
f 6/6/6 5/5/5 4/4/4
f 9/9/9 8/8/8 7/7/7
f 12/12/12 11/11/11 10/10/10
f 15/15/15 14/14/14 13/13/13
f 18/18/18 17/17/17 16/16/16
f 21/21/21 20/20/20 19/19/19
f 24/24/24 23/23/23 22/22/22
f 27/27/27 26/26/26 25/25/25
f 30/30/30 29/29/29 28/28/28
f 33/33/33 32/32/32 31/31/31
f 36/36/36 35/35/35 34/34/34
f 39/39/39 38/38/38 37/37/37
f 42/42/42 41/41/41 40/40/40
f 45/45/45 44/44/44 43/43/43
f 48/48/48 47/47/47 46/46/46
f 51/51/51 50/50/50 49/49/49
f 54/54/54 53/53/53 52/52/52
f 57/57/57 56/56/56 55/55/55
f 60/60/60 59/59/59 58/58/58
f 63/63/63 62/62/62 61/61/61
f 66/66/66 65/65/65 64/64/64
f 69/69/69 68/68/68 67/67/67
f 72/72/72 71/71/71 70/70/70
