# Generated by Wraith - Game extraction tools
# Please credit DTZxPorter for using it!

v -2.513867 -1.257981 -0.633110
v -2.513867 1.141346 -0.633110
v 5.383410 -1.257981 -0.534723
v -2.513867 1.141346 -0.633110
v 5.383410 1.214549 -0.534723
v 5.383410 -1.257981 -0.534723
v 5.383410 -1.257981 -0.534723
v 5.399156 -1.345021 -13.782154
v -2.513867 -1.257981 -0.633110
v 5.399156 -1.345021 -13.782154
v -2.497482 -1.345021 -13.782154
v -2.513867 -1.257981 -0.633110
v -2.513867 -1.257981 -0.633110
v -2.497482 -1.345021 -13.782154
v -2.513867 1.141346 -0.633110
v -2.497482 -1.345021 -13.782154
v -2.497482 1.258527 -13.782154
v -2.513867 1.141346 -0.633110
v -2.497482 1.258527 -13.782154
v 5.399156 1.193439 -13.782154
v -2.513867 1.141346 -0.633110
v 5.399156 1.193439 -13.782154
v 5.383410 1.214549 -0.534723
v -2.513867 1.141346 -0.633110
v 5.383410 1.214549 -0.534723
v 5.399156 1.193439 -13.782154
v 5.383410 -1.257981 -0.534723
v 5.399156 1.193439 -13.782154
v 5.399156 -1.345021 -13.782154
v 5.383410 -1.257981 -0.534723
v 5.399156 -1.345021 -13.782154
v 5.399156 1.193439 -13.782154
v -2.497482 -1.345021 -13.782154
v 5.399156 1.193439 -13.782154
v -2.497482 1.258527 -13.782154
v -2.497482 -1.345021 -13.782154
vt 0.004963 0.041504
vt 0.004963 0.078125
vt 0.119995 0.041504
vt 0.004963 0.078125
vt 0.119995 0.078125
vt 0.119995 0.041504
vt -0.995117 0.328125
vt -0.992188 0.076660
vt -0.880371 0.328125
vt -0.992188 0.076660
vt -0.873535 0.076660
vt -0.880371 0.328125
vt 0.161377 0.586426
vt 0.163818 0.338867
vt 0.124634 0.586426
vt 0.163818 0.338867
vt 0.123657 0.338867
vt 0.124634 0.586426
vt 0.126587 0.076660
vt 0.007698 0.076660
vt 0.119446 0.327637
vt 0.007698 0.076660
vt 0.004654 0.327637
vt 0.119446 0.327637
vt 0.119629 0.592285
vt 0.119385 0.335449
vt 0.080933 0.591309
vt 0.119385 0.335449
vt 0.080688 0.335449
vt 0.080933 0.591309
vt 0.124756 0.327148
vt 0.151855 0.327148
vt 0.123718 0.236328
vt 0.151855 0.327148
vt 0.151733 0.236328
vt 0.123718 0.236328
vn -0.011742 0.000000 1.000000
vn -0.011742 0.000000 1.000000
vn -0.011742 0.000000 1.000000
vn -0.011742 0.000000 1.000000
vn -0.011742 0.000000 1.000000
vn -0.011742 0.000000 1.000000
vn 0.000000 -1.000000 0.005871
vn 0.000000 -1.000000 0.005871
vn 0.000000 -1.000000 0.005871
vn 0.000000 -1.000000 0.005871
vn 0.000000 -1.000000 0.005871
vn 0.000000 -1.000000 0.005871
vn -1.000000 0.000000 -0.001957
vn -1.000000 0.000000 -0.001957
vn -1.000000 0.000000 -0.001957
vn -1.000000 0.000000 -0.001957
vn -1.000000 0.000000 -0.001957
vn -1.000000 0.000000 -0.001957
vn 0.000000 1.000000 0.003914
vn 0.000000 1.000000 0.003914
vn 0.000000 1.000000 0.003914
vn 0.000000 1.000000 0.003914
vn 0.000000 1.000000 0.003914
vn 0.000000 1.000000 0.003914
vn 1.000000 0.000000 0.001957
vn 1.000000 0.000000 0.001957
vn 1.000000 0.000000 0.001957
vn 1.000000 0.000000 0.001957
vn 1.000000 0.000000 0.001957
vn 1.000000 0.000000 0.001957
vn 0.000000 0.000000 -1.000000
vn 0.000000 0.000000 -1.000000
vn 0.000000 0.000000 -1.000000
vn 0.000000 0.000000 -1.000000
vn 0.000000 0.000000 -1.000000
vn 0.000000 0.000000 -1.000000
mtllib mtl_t6_wpn_ar_scarh_camo1.mtl
g mtl_t6_wpn_ar_scarh_camo1
usemtl mtl_t6_wpn_ar_scarh_camo1
f 3/3/3 2/2/2 1/1/1
f 6/6/6 5/5/5 4/4/4
f 9/9/9 8/8/8 7/7/7
f 12/12/12 11/11/11 10/10/10
f 15/15/15 14/14/14 13/13/13
f 18/18/18 17/17/17 16/16/16
f 21/21/21 20/20/20 19/19/19
f 24/24/24 23/23/23 22/22/22
f 27/27/27 26/26/26 25/25/25
f 30/30/30 29/29/29 28/28/28
f 33/33/33 32/32/32 31/31/31
f 36/36/36 35/35/35 34/34/34
