# Generated by Wraith - Game extraction tools
# Please credit DTZxPorter for using it!

v 25.200031 -9.668454 40.799988
v 34.800026 -9.668454 40.799988
v 34.800026 -9.668456 26.399996
v 25.200031 -9.668456 26.399996
v 25.200031 -9.668454 40.799988
v 34.800026 -9.668456 26.399996
v 25.200031 -9.668454 40.799988
v 25.200031 -9.668456 26.399996
v 8.400010 -9.668454 40.799988
v 8.400010 -9.668454 40.799988
v 8.400010 -9.668456 69.599998
v 25.200031 -9.668454 40.799988
v 8.400010 -9.668456 69.599998
v 25.200031 -9.668456 98.399979
v 25.200031 -9.668454 40.799988
v 15.599998 -9.668456 98.399979
v 25.200031 -9.668456 98.399979
v 8.400010 -9.668456 69.599998
v -34.799988 -9.668454 36.262497
v 15.599998 -9.668456 98.399979
v 8.400010 -9.668456 69.599998
v -15.599977 -9.668454 40.799988
v -34.799988 -9.668454 36.262497
v 8.400010 -9.668456 69.599998
v -34.799988 -9.668456 26.399996
v -34.799988 -9.668454 36.262497
v -15.599977 -9.668454 40.799988
v 25.200031 -9.668456 26.399996
v 8.400010 -9.668456 26.399996
v 8.400010 -9.668454 40.799988
v 8.400010 -9.668454 40.799988
v 8.400010 -9.668456 26.399996
v -15.599977 -9.668454 40.799988
v 8.400010 -9.668456 26.399996
v -34.799988 -9.668456 26.399996
v -15.599977 -9.668454 40.799988
v 8.400010 -9.668456 26.399996
v 25.200031 -9.668456 26.399996
v 8.400010 -9.668454 0.000000
v 25.200031 -9.668456 26.399996
v 25.200031 -9.668454 0.000000
v 8.400010 -9.668454 0.000000
v -15.599977 9.668454 40.800011
v -15.599977 -9.668454 40.799988
v 8.400010 9.668454 69.599998
v -15.599977 -9.668454 40.799988
v 8.400010 -9.668456 69.599998
v 8.400010 9.668454 69.599998
v 8.400010 9.668454 40.800011
v 8.400010 -9.668454 40.799988
v -15.599977 9.668454 40.800011
v 8.400010 -9.668454 40.799988
v -15.599977 -9.668454 40.799988
v -15.599977 9.668454 40.800011
v 8.400010 -9.668454 40.799988
v 8.400010 9.668454 40.800011
v 8.400010 -9.668456 69.599998
v 8.400010 9.668454 40.800011
v 8.400010 9.668454 69.599998
v 8.400010 -9.668456 69.599998
v 34.800026 9.668454 26.399996
v 25.200031 9.668454 26.399996
v 34.800026 -9.668456 26.399996
v 25.200031 9.668454 26.399996
v 25.200031 -9.668456 26.399996
v 34.800026 -9.668456 26.399996
v 25.200031 -9.668456 26.399996
v 25.200031 9.668454 26.399996
v 25.200031 -9.668454 0.000000
v 25.200031 9.668454 26.399996
v 25.200031 9.668454 0.000000
v 25.200031 -9.668454 0.000000
v 25.200031 -9.668454 0.000000
v 25.200031 9.668454 0.000000
v 8.400010 -9.668454 0.000000
v 25.200031 9.668454 0.000000
v 8.400010 9.668454 0.000000
v 8.400010 -9.668454 0.000000
v 8.400010 9.668454 26.399996
v 8.400010 -9.668456 26.399996
v 8.400010 9.668454 0.000000
v 8.400010 -9.668456 26.399996
v 8.400010 -9.668454 0.000000
v 8.400010 9.668454 0.000000
v 8.400010 -9.668456 26.399996
v 8.400010 9.668454 26.399996
v -34.799988 -9.668456 26.399996
v 8.400010 9.668454 26.399996
v -34.799988 9.668454 26.399996
v -34.799988 -9.668456 26.399996
v -34.799988 9.668454 26.399996
v -34.799988 9.668454 36.262497
v -34.799988 -9.668456 26.399996
v -34.799988 9.668454 36.262497
v -34.799988 -9.668454 36.262497
v -34.799988 -9.668456 26.399996
v -34.799988 -9.668454 36.262497
v -34.799988 9.668454 36.262497
v 15.599998 -9.668456 98.399979
v -34.799988 9.668454 36.262497
v 15.599998 9.668454 98.399979
v 15.599998 -9.668456 98.399979
v 15.599998 9.668454 98.399979
v 25.200031 9.668454 98.399979
v 15.599998 -9.668456 98.399979
v 25.200031 9.668454 98.399979
v 25.200031 -9.668456 98.399979
v 15.599998 -9.668456 98.399979
v 25.200031 -9.668456 98.399979
v 25.200031 9.668454 98.399979
v 25.200031 -9.668454 40.799988
v 25.200031 9.668454 98.399979
v 25.200031 9.668454 40.800011
v 25.200031 -9.668454 40.799988
v 34.800026 9.668454 40.800011
v 34.800026 -9.668454 40.799988
v 25.200031 9.668454 40.800011
v 34.800026 -9.668454 40.799988
v 25.200031 -9.668454 40.799988
v 25.200031 9.668454 40.800011
v 34.800026 9.668454 40.800011
v 34.800026 9.668454 26.399996
v 34.800026 -9.668454 40.799988
v 34.800026 9.668454 26.399996
v 34.800026 -9.668456 26.399996
v 34.800026 -9.668454 40.799988
v 34.800026 9.668454 26.399996
v 34.800026 9.668454 40.800011
v 25.200031 9.668454 26.399996
v 34.800026 9.668454 40.800011
v 25.200031 9.668454 40.800011
v 25.200031 9.668454 26.399996
v 25.200031 9.668454 40.800011
v 8.400010 9.668454 40.800011
v 25.200031 9.668454 26.399996
v 8.400010 9.668454 40.800011
v 8.400010 9.668454 26.399996
v 25.200031 9.668454 26.399996
v 25.200031 9.668454 26.399996
v 8.400010 9.668454 26.399996
v 25.200031 9.668454 0.000000
v 8.400010 9.668454 26.399996
v 8.400010 9.668454 0.000000
v 25.200031 9.668454 0.000000
v 8.400010 9.668454 40.800011
v 25.200031 9.668454 40.800011
v 8.400010 9.668454 69.599998
v 25.200031 9.668454 40.800011
v 25.200031 9.668454 98.399979
v 8.400010 9.668454 69.599998
v 25.200031 9.668454 98.399979
v 15.599998 9.668454 98.399979
v 8.400010 9.668454 69.599998
v 8.400010 9.668454 69.599998
v 15.599998 9.668454 98.399979
v -34.799988 9.668454 36.262497
v -15.599977 9.668454 40.800011
v 8.400010 9.668454 69.599998
v -34.799988 9.668454 36.262497
v -34.799988 9.668454 36.262497
v -34.799988 9.668454 26.399996
v -15.599977 9.668454 40.800011
v -15.599977 9.668454 40.800011
v -34.799988 9.668454 26.399996
v 8.400010 9.668454 26.399996
v 8.400010 9.668454 40.800011
v -15.599977 9.668454 40.800011
v 8.400010 9.668454 26.399996
vt 0.351074 0.239746
vt 0.406982 0.239746
vt 0.406982 0.155762
vt 0.351074 0.155762
vt 0.351074 0.239746
vt 0.406982 0.155762
vt 0.351074 0.239746
vt 0.351074 0.155762
vt 0.253174 0.239746
vt 0.253174 0.239746
vt 0.253174 0.407715
vt 0.351074 0.239746
vt 0.253174 0.407715
vt 0.351074 0.575195
vt 0.351074 0.239746
vt 0.295166 0.575195
vt 0.351074 0.575195
vt 0.253174 0.407715
vt 0.001826 0.213379
vt 0.295166 0.575195
vt 0.253174 0.407715
vt 0.113586 0.239746
vt 0.001826 0.213379
vt 0.253174 0.407715
vt 0.001826 0.155762
vt 0.001826 0.213379
vt 0.113586 0.239746
vt 0.351074 0.155762
vt 0.253174 0.155762
vt 0.253174 0.239746
vt 0.253174 0.239746
vt 0.253174 0.155762
vt 0.113586 0.239746
vt 0.253174 0.155762
vt 0.001826 0.155762
vt 0.113586 0.239746
vt 0.253174 0.155762
vt 0.351074 0.155762
vt 0.253174 0.002441
vt 0.351074 0.155762
vt 0.351074 0.002441
vt 0.253174 0.002441
vt 0.093018 0.718506
vt 0.205688 0.718506
vt 0.093018 0.578857
vt 0.205688 0.718506
vt 0.205688 0.578857
vt 0.093018 0.578857
vt 0.114380 0.722168
vt 0.001826 0.722168
vt 0.114380 0.861938
vt 0.001826 0.722168
vt 0.001826 0.861938
vt 0.114380 0.861938
vt 0.447754 0.746582
vt 0.560059 0.746582
vt 0.447754 0.578857
vt 0.560059 0.746582
vt 0.560059 0.578857
vt 0.447754 0.578857
vt 0.393799 0.736328
vt 0.337891 0.736328
vt 0.393799 0.848755
vt 0.337891 0.736328
vt 0.337891 0.848755
vt 0.393799 0.848755
vt 0.211304 0.732666
vt 0.323730 0.732666
vt 0.211304 0.578857
vt 0.323730 0.732666
vt 0.323730 0.578857
vt 0.211304 0.578857
vt 0.498291 0.862793
vt 0.498291 0.750122
vt 0.400391 0.862793
vt 0.498291 0.750122
vt 0.400391 0.750122
vt 0.400391 0.862793
vt 0.442139 0.578857
vt 0.329346 0.578857
vt 0.442139 0.732666
vt 0.329346 0.578857
vt 0.329346 0.732666
vt 0.442139 0.732666
vt 0.678223 0.578857
vt 0.565918 0.578857
vt 0.678223 0.830322
vt 0.565918 0.578857
vt 0.565918 0.830322
vt 0.678223 0.830322
vt 0.915039 0.998009
vt 0.915039 0.940582
vt 0.802246 0.998009
vt 0.915039 0.940582
vt 0.802246 0.940582
vt 0.802246 0.998009
vt 0.802246 0.940582
vt 0.915039 0.940582
vt 0.802246 0.578857
vt 0.915039 0.940582
vt 0.915039 0.578857
vt 0.802246 0.578857
vt 0.121704 0.834839
vt 0.177612 0.834839
vt 0.121704 0.722168
vt 0.177612 0.834839
vt 0.177612 0.722168
vt 0.121704 0.722168
vt 0.684082 0.914185
vt 0.796875 0.914185
vt 0.684082 0.578857
vt 0.796875 0.914185
vt 0.796875 0.578857
vt 0.684082 0.578857
vt 0.331299 0.848755
vt 0.331299 0.736328
vt 0.275391 0.848755
vt 0.331299 0.736328
vt 0.275391 0.736328
vt 0.275391 0.848755
vt 0.184204 0.848755
vt 0.268066 0.848755
vt 0.184204 0.736328
vt 0.268066 0.848755
vt 0.268066 0.736328
vt 0.184204 0.736328
vt 0.818359 0.421387
vt 0.818359 0.337891
vt 0.762207 0.421387
vt 0.818359 0.337891
vt 0.762207 0.337891
vt 0.762207 0.421387
vt 0.762207 0.337891
vt 0.664551 0.337891
vt 0.762207 0.421387
vt 0.664551 0.337891
vt 0.664551 0.421387
vt 0.762207 0.421387
vt 0.762207 0.421387
vt 0.664551 0.421387
vt 0.762207 0.575195
vt 0.664551 0.421387
vt 0.664551 0.575195
vt 0.762207 0.575195
vt 0.664551 0.337891
vt 0.762207 0.337891
vt 0.664551 0.169922
vt 0.762207 0.337891
vt 0.762207 0.002441
vt 0.664551 0.169922
vt 0.762207 0.002441
vt 0.706543 0.002441
vt 0.664551 0.169922
vt 0.664551 0.169922
vt 0.706543 0.002441
vt 0.412842 0.364258
vt 0.524414 0.337891
vt 0.664551 0.169922
vt 0.412842 0.364258
vt 0.412842 0.364258
vt 0.412842 0.421387
vt 0.524414 0.337891
vt 0.524414 0.337891
vt 0.412842 0.421387
vt 0.664551 0.421387
vt 0.664551 0.337891
vt 0.524414 0.337891
vt 0.664551 0.421387
vn 0.000000 -1.000000 0.000000
vn 0.000000 -1.000000 0.000000
vn 0.000000 -1.000000 0.000000
vn 0.000000 -1.000000 0.000000
vn 0.000000 -1.000000 0.000000
vn 0.000000 -1.000000 0.000000
vn 0.000000 -1.000000 0.000000
vn 0.000000 -1.000000 0.000000
vn 0.000000 -1.000000 0.000000
vn 0.000000 -1.000000 0.000000
vn 0.000000 -1.000000 0.000000
vn 0.000000 -1.000000 0.000000
vn 0.000000 -1.000000 0.000000
vn 0.000000 -1.000000 0.000000
vn 0.000000 -1.000000 0.000000
vn 0.000000 -1.000000 0.000000
vn 0.000000 -1.000000 0.000000
vn 0.000000 -1.000000 0.000000
vn 0.000000 -1.000000 0.000000
vn 0.000000 -1.000000 0.000000
vn 0.000000 -1.000000 0.000000
vn 0.000000 -1.000000 0.000000
vn 0.000000 -1.000000 0.000000
vn 0.000000 -1.000000 0.000000
vn 0.000000 -1.000000 0.000000
vn 0.000000 -1.000000 0.000000
vn 0.000000 -1.000000 0.000000
vn 0.000000 -1.000000 0.000000
vn 0.000000 -1.000000 0.000000
vn 0.000000 -1.000000 0.000000
vn 0.000000 -1.000000 0.000000
vn 0.000000 -1.000000 0.000000
vn 0.000000 -1.000000 0.000000
vn 0.000000 -1.000000 0.000000
vn 0.000000 -1.000000 0.000000
vn 0.000000 -1.000000 0.000000
vn 0.000000 -1.000000 0.000000
vn 0.000000 -1.000000 0.000000
vn 0.000000 -1.000000 0.000000
vn 0.000000 -1.000000 0.000000
vn 0.000000 -1.000000 0.000000
vn 0.000000 -1.000000 0.000000
vn 0.769080 0.000000 -0.639922
vn 0.769080 0.000000 -0.639922
vn 0.769080 0.000000 -0.639922
vn 0.769080 0.000000 -0.639922
vn 0.769080 0.000000 -0.639922
vn 0.769080 0.000000 -0.639922
vn 0.000000 0.000000 1.000000
vn 0.000000 0.000000 1.000000
vn 0.000000 0.000000 1.000000
vn 0.000000 0.000000 1.000000
vn 0.000000 0.000000 1.000000
vn 0.000000 0.000000 1.000000
vn -1.000000 0.000000 0.000000
vn -1.000000 0.000000 0.000000
vn -1.000000 0.000000 0.000000
vn -1.000000 0.000000 0.000000
vn -1.000000 0.000000 0.000000
vn -1.000000 0.000000 0.000000
vn 0.000000 0.000000 -1.000000
vn 0.000000 0.000000 -1.000000
vn 0.000000 0.000000 -1.000000
vn 0.000000 0.000000 -1.000000
vn 0.000000 0.000000 -1.000000
vn 0.000000 0.000000 -1.000000
vn 1.000000 0.000000 0.000000
vn 1.000000 0.000000 0.000000
vn 1.000000 0.000000 0.000000
vn 1.000000 0.000000 0.000000
vn 1.000000 0.000000 0.000000
vn 1.000000 0.000000 0.000000
vn 0.000000 0.000000 -1.000000
vn 0.000000 0.000000 -1.000000
vn 0.000000 0.000000 -1.000000
vn 0.000000 0.000000 -1.000000
vn 0.000000 0.000000 -1.000000
vn 0.000000 0.000000 -1.000000
vn -1.000000 0.000000 0.000000
vn -1.000000 0.000000 0.000000
vn -1.000000 0.000000 0.000000
vn -1.000000 0.000000 0.000000
vn -1.000000 0.000000 0.000000
vn -1.000000 0.000000 0.000000
vn 0.000000 0.000000 -1.000000
vn 0.000000 0.000000 -1.000000
vn 0.000000 0.000000 -1.000000
vn 0.000000 0.000000 -1.000000
vn 0.000000 0.000000 -1.000000
vn 0.000000 0.000000 -1.000000
vn -1.000000 0.000000 0.000000
vn -1.000000 0.000000 0.000000
vn -1.000000 0.000000 0.000000
vn -1.000000 0.000000 0.000000
vn -1.000000 0.000000 0.000000
vn -1.000000 0.000000 0.000000
vn -0.776908 0.000000 0.630137
vn -0.776908 0.000000 0.630137
vn -0.776908 0.000000 0.630137
vn -0.776908 0.000000 0.630137
vn -0.776908 0.000000 0.630137
vn -0.776908 0.000000 0.630137
vn 0.000000 0.000000 1.000000
vn 0.000000 0.000000 1.000000
vn 0.000000 0.000000 1.000000
vn 0.000000 0.000000 1.000000
vn 0.000000 0.000000 1.000000
vn 0.000000 0.000000 1.000000
vn 1.000000 0.000000 0.000000
vn 1.000000 0.000000 0.000000
vn 1.000000 0.000000 0.000000
vn 1.000000 0.000000 0.000000
vn 1.000000 0.000000 0.000000
vn 1.000000 0.000000 0.000000
vn 0.000000 0.000000 1.000000
vn 0.000000 0.000000 1.000000
vn 0.000000 0.000000 1.000000
vn 0.000000 0.000000 1.000000
vn 0.000000 0.000000 1.000000
vn 0.000000 0.000000 1.000000
vn 1.000000 0.000000 0.000000
vn 1.000000 0.000000 0.000000
vn 1.000000 0.000000 0.000000
vn 1.000000 0.000000 0.000000
vn 1.000000 0.000000 0.000000
vn 1.000000 0.000000 0.000000
vn 0.000000 1.000000 0.000000
vn 0.000000 1.000000 0.000000
vn 0.000000 1.000000 0.000000
vn 0.000000 1.000000 0.000000
vn 0.000000 1.000000 0.000000
vn 0.000000 1.000000 0.000000
vn 0.000000 1.000000 0.000000
vn 0.000000 1.000000 0.000000
vn 0.000000 1.000000 0.000000
vn 0.000000 1.000000 0.000000
vn 0.000000 1.000000 0.000000
vn 0.000000 1.000000 0.000000
vn 0.000000 1.000000 0.000000
vn 0.000000 1.000000 0.000000
vn 0.000000 1.000000 0.000000
vn 0.000000 1.000000 0.000000
vn 0.000000 1.000000 0.000000
vn 0.000000 1.000000 0.000000
vn 0.000000 1.000000 0.000000
vn 0.000000 1.000000 0.000000
vn 0.000000 1.000000 0.000000
vn 0.000000 1.000000 0.000000
vn 0.000000 1.000000 0.000000
vn 0.000000 1.000000 0.000000
vn 0.000000 1.000000 0.000000
vn 0.000000 1.000000 0.000000
vn 0.000000 1.000000 0.000000
vn 0.000000 1.000000 0.000000
vn 0.000000 1.000000 0.000000
vn 0.000000 1.000000 0.000000
vn 0.000000 1.000000 0.000000
vn 0.000000 1.000000 0.000000
vn 0.000000 1.000000 0.000000
vn 0.000000 1.000000 0.000000
vn 0.000000 1.000000 0.000000
vn 0.000000 1.000000 0.000000
vn 0.000000 1.000000 0.000000
vn 0.000000 1.000000 0.000000
vn 0.000000 1.000000 0.000000
vn 0.000000 1.000000 0.000000
vn 0.000000 1.000000 0.000000
vn 0.000000 1.000000 0.000000
mtllib dub_gold_shiny_01.mtl
g dub_gold_shiny_01
usemtl dub_gold_shiny_01
f 3/3/3 2/2/2 1/1/1
f 6/6/6 5/5/5 4/4/4
f 9/9/9 8/8/8 7/7/7
f 12/12/12 11/11/11 10/10/10
f 15/15/15 14/14/14 13/13/13
f 18/18/18 17/17/17 16/16/16
f 21/21/21 20/20/20 19/19/19
f 24/24/24 23/23/23 22/22/22
f 27/27/27 26/26/26 25/25/25
f 30/30/30 29/29/29 28/28/28
f 33/33/33 32/32/32 31/31/31
f 36/36/36 35/35/35 34/34/34
f 39/39/39 38/38/38 37/37/37
f 42/42/42 41/41/41 40/40/40
mtllib dub_gold_shiny_01.mtl
g dub_gold_shiny_01
usemtl dub_gold_shiny_01
f 45/45/45 44/44/44 43/43/43
f 48/48/48 47/47/47 46/46/46
f 51/51/51 50/50/50 49/49/49
f 54/54/54 53/53/53 52/52/52
f 57/57/57 56/56/56 55/55/55
f 60/60/60 59/59/59 58/58/58
f 63/63/63 62/62/62 61/61/61
f 66/66/66 65/65/65 64/64/64
f 69/69/69 68/68/68 67/67/67
f 72/72/72 71/71/71 70/70/70
f 75/75/75 74/74/74 73/73/73
f 78/78/78 77/77/77 76/76/76
f 81/81/81 80/80/80 79/79/79
f 84/84/84 83/83/83 82/82/82
f 87/87/87 86/86/86 85/85/85
f 90/90/90 89/89/89 88/88/88
f 93/93/93 92/92/92 91/91/91
f 96/96/96 95/95/95 94/94/94
f 99/99/99 98/98/98 97/97/97
f 102/102/102 101/101/101 100/100/100
f 105/105/105 104/104/104 103/103/103
f 108/108/108 107/107/107 106/106/106
f 111/111/111 110/110/110 109/109/109
f 114/114/114 113/113/113 112/112/112
f 117/117/117 116/116/116 115/115/115
f 120/120/120 119/119/119 118/118/118
f 123/123/123 122/122/122 121/121/121
f 126/126/126 125/125/125 124/124/124
f 129/129/129 128/128/128 127/127/127
f 132/132/132 131/131/131 130/130/130
f 135/135/135 134/134/134 133/133/133
f 138/138/138 137/137/137 136/136/136
f 141/141/141 140/140/140 139/139/139
f 144/144/144 143/143/143 142/142/142
f 147/147/147 146/146/146 145/145/145
f 150/150/150 149/149/149 148/148/148
f 153/153/153 152/152/152 151/151/151
f 156/156/156 155/155/155 154/154/154
f 159/159/159 158/158/158 157/157/157
f 162/162/162 161/161/161 160/160/160
f 165/165/165 164/164/164 163/163/163
f 168/168/168 167/167/167 166/166/166
