# Generated by Wraith - Game extraction tools
# Please credit DTZxPorter for using it!

v 0.558642 0.234907 -9.407986
v 3.315145 0.234907 -8.087292
v 0.480086 0.246009 1.152089
v 3.315145 0.234907 -8.087292
v 3.236585 0.246009 2.472783
v 0.480086 0.246009 1.152089
v 0.558642 -1.213084 -9.407986
v 0.480086 -1.224186 1.152089
v 3.315147 -1.213084 -8.087290
v 0.480086 -1.224186 1.152089
v 3.236585 -1.224186 2.472783
v 3.315147 -1.213084 -8.087290
v 0.480086 -1.224186 1.152089
v 0.480086 0.246009 1.152089
v 3.236585 -1.224186 2.472783
v 0.480086 0.246009 1.152089
v 3.236585 0.246009 2.472783
v 3.236585 -1.224186 2.472783
v 0.558642 -1.213084 -9.407986
v 0.558642 0.234907 -9.407986
v 0.480086 -1.224186 1.152089
v 0.558642 0.234907 -9.407986
v 0.480086 0.246009 1.152089
v 0.480086 -1.224186 1.152089
v 3.315147 -1.213084 -8.087290
v 3.236585 -1.224186 2.472783
v 3.315145 0.234907 -8.087292
v 3.236585 -1.224186 2.472783
v 3.236585 0.246009 2.472783
v 3.315145 0.234907 -8.087292
v 3.633536 0.599933 -7.654944
v 0.402633 0.599933 -9.202933
v 3.638587 0.599933 -18.588123
v 0.402633 0.599933 -9.202933
v 0.407685 0.599933 -20.136110
v 3.638587 0.599933 -18.588123
v 0.407685 0.599933 -20.136110
v 0.407685 -1.578112 -20.136110
v 3.638587 0.599933 -18.588123
v 3.638587 0.599933 -18.588123
v 0.407685 -1.578112 -20.136110
v 4.211683 0.055420 -18.313540
v 4.211683 0.055420 -18.313540
v 0.407685 -1.578112 -20.136110
v 4.211683 -1.033600 -18.313540
v 4.211683 -1.033600 -18.313540
v 0.407685 -1.578112 -20.136110
v 3.638589 -1.578112 -18.588121
v 0.402633 0.599933 -9.202933
v 3.633536 0.599933 -7.654944
v 0.402637 -1.578110 -9.202932
v 3.633536 0.599933 -7.654944
v 4.206630 0.055420 -7.380363
v 0.402637 -1.578110 -9.202932
v 4.206630 0.055420 -7.380363
v 4.206630 -1.033600 -7.380363
v 0.402637 -1.578110 -9.202932
v 4.206630 -1.033600 -7.380363
v 3.633538 -1.578112 -7.654943
v 0.402637 -1.578110 -9.202932
v 3.633538 -1.578112 -7.654943
v 3.638589 -1.578112 -18.588121
v 0.402637 -1.578110 -9.202932
v 3.638589 -1.578112 -18.588121
v 0.407685 -1.578112 -20.136110
v 0.402637 -1.578110 -9.202932
v 0.402633 0.599933 -9.202933
v 0.402637 -1.578110 -9.202932
v 0.407685 0.599933 -20.136110
v 0.402637 -1.578110 -9.202932
v 0.407685 -1.578112 -20.136110
v 0.407685 0.599933 -20.136110
v 3.638587 0.599933 -18.588123
v 4.211683 0.055420 -18.313540
v 3.633536 0.599933 -7.654944
v 4.211683 0.055420 -18.313540
v 4.206630 0.055420 -7.380363
v 3.633536 0.599933 -7.654944
v 4.211683 0.055420 -18.313540
v 4.211683 -1.033600 -18.313540
v 4.206630 0.055420 -7.380363
v 4.211683 -1.033600 -18.313540
v 4.206630 -1.033600 -7.380363
v 4.206630 0.055420 -7.380363
v 4.206630 -1.033600 -7.380363
v 4.211683 -1.033600 -18.313540
v 3.633538 -1.578112 -7.654943
v 4.211683 -1.033600 -18.313540
v 3.638589 -1.578112 -18.588121
v 3.633538 -1.578112 -7.654943
vt 0.750000 0.081543
vt 0.734375 0.050781
vt 0.625488 0.081055
vt 0.734375 0.050781
vt 0.610352 0.050293
vt 0.625488 0.081055
vt 0.750000 0.081543
vt 0.625488 0.081055
vt 0.734375 0.050781
vt 0.625488 0.081055
vt 0.610352 0.050293
vt 0.734375 0.050781
vt 0.003742 0.102051
vt 0.042603 0.106934
vt 0.003742 0.044434
vt 0.042603 0.106934
vt 0.042603 0.049316
vt 0.003742 0.044434
vt 0.996094 0.042969
vt 0.996094 0.003418
vt 0.719238 0.043457
vt 0.996094 0.003418
vt 0.719238 0.003418
vt 0.719238 0.043457
vt 0.004597 0.814697
vt 0.181641 0.814941
vt 0.004597 0.789429
vt 0.181641 0.814941
vt 0.181641 0.789307
vt 0.004597 0.789429
vt 0.623535 0.050781
vt 0.639160 0.081543
vt 0.734375 0.050781
vt 0.639160 0.081543
vt 0.750000 0.081543
vt 0.734375 0.050781
vt 0.617188 0.003418
vt 0.617188 0.047363
vt 0.689941 0.003418
vt 0.689941 0.003418
vt 0.617188 0.047363
vt 0.702637 0.014160
vt 0.702637 0.014160
vt 0.617188 0.047363
vt 0.702637 0.036621
vt 0.702637 0.036621
vt 0.617188 0.047363
vt 0.689941 0.047363
vt 0.617188 0.047363
vt 0.689941 0.047363
vt 0.617188 0.003418
vt 0.689941 0.047363
vt 0.702637 0.036621
vt 0.617188 0.003418
vt 0.702637 0.036621
vt 0.702637 0.014160
vt 0.617188 0.003418
vt 0.702637 0.014160
vt 0.689941 0.003418
vt 0.617188 0.003418
vt 0.623535 0.050781
vt 0.734375 0.050781
vt 0.639160 0.081543
vt 0.734375 0.050781
vt 0.750000 0.081543
vt 0.639160 0.081543
vt 0.769043 0.071777
vt 0.769043 0.117188
vt 0.996094 0.071777
vt 0.769043 0.117188
vt 0.996094 0.117188
vt 0.996094 0.071777
vt 0.764160 0.120605
vt 0.760742 0.110352
vt 0.625488 0.120605
vt 0.760742 0.110352
vt 0.622070 0.110352
vt 0.625488 0.120605
vt 0.760742 0.110352
vt 0.760742 0.096680
vt 0.622070 0.110352
vt 0.760742 0.096680
vt 0.622070 0.096680
vt 0.622070 0.110352
vt 0.622070 0.096680
vt 0.760742 0.096680
vt 0.625488 0.086426
vt 0.760742 0.096680
vt 0.764160 0.086426
vt 0.625488 0.086426
vn 0.000000 1.000000 -0.001957
vn 0.000000 1.000000 -0.001957
vn 0.000000 1.000000 -0.001957
vn 0.000000 1.000000 -0.001957
vn 0.000000 1.000000 -0.001957
vn 0.000000 1.000000 -0.001957
vn 0.000000 -1.000000 -0.001957
vn 0.000000 -1.000000 -0.001957
vn 0.000000 -1.000000 -0.001957
vn 0.000000 -1.000000 -0.001957
vn 0.000000 -1.000000 -0.001957
vn 0.000000 -1.000000 -0.001957
vn -0.432485 0.000000 0.902153
vn -0.432485 0.000000 0.902153
vn -0.432485 0.000000 0.902153
vn -0.432485 0.000000 0.902153
vn -0.432485 0.000000 0.902153
vn -0.432485 0.000000 0.902153
vn -1.000000 0.000000 -0.007828
vn -1.000000 0.000000 -0.007828
vn -1.000000 0.000000 -0.007828
vn -1.000000 0.000000 -0.007828
vn -1.000000 0.000000 -0.007828
vn -1.000000 0.000000 -0.007828
vn 1.000000 0.000000 0.007828
vn 1.000000 0.000000 0.007828
vn 1.000000 0.000000 0.007828
vn 1.000000 0.000000 0.007828
vn 1.000000 0.000000 0.007828
vn 1.000000 0.000000 0.007828
vn 0.000000 1.000000 0.000000
vn 0.000000 1.000000 0.000000
vn 0.000000 1.000000 0.000000
vn 0.000000 1.000000 0.000000
vn 0.000000 1.000000 0.000000
vn 0.000000 1.000000 0.000000
vn 0.432485 0.000000 -0.902153
vn 0.432485 0.000000 -0.902153
vn 0.432485 0.000000 -0.902153
vn 0.432485 0.000000 -0.902153
vn 0.432485 0.000000 -0.902153
vn 0.432485 0.000000 -0.902153
vn 0.432485 0.000000 -0.902153
vn 0.432485 0.000000 -0.902153
vn 0.432485 0.000000 -0.902153
vn 0.432485 0.000000 -0.902153
vn 0.432485 0.000000 -0.902153
vn 0.432485 0.000000 -0.902153
vn -0.432485 0.000000 0.902153
vn -0.432485 0.000000 0.902153
vn -0.432485 0.000000 0.902153
vn -0.432485 0.000000 0.902153
vn -0.432485 0.000000 0.902153
vn -0.432485 0.000000 0.902153
vn -0.432485 0.000000 0.902153
vn -0.432485 0.000000 0.902153
vn -0.432485 0.000000 0.902153
vn -0.432485 0.000000 0.902153
vn -0.432485 0.000000 0.902153
vn -0.432485 0.000000 0.902153
vn 0.000000 -1.000000 0.000000
vn 0.000000 -1.000000 0.000000
vn 0.000000 -1.000000 0.000000
vn 0.000000 -1.000000 0.000000
vn 0.000000 -1.000000 0.000000
vn 0.000000 -1.000000 0.000000
vn -1.000000 0.000000 0.000000
vn -1.000000 0.000000 0.000000
vn -1.000000 0.000000 0.000000
vn -1.000000 0.000000 0.000000
vn -1.000000 0.000000 0.000000
vn -1.000000 0.000000 0.000000
vn 0.688845 0.724070 0.000000
vn 0.919765 0.395303 0.000000
vn 0.688845 0.724070 0.000000
vn 0.919765 0.395303 0.000000
vn 0.919765 0.395303 0.000000
vn 0.688845 0.724070 0.000000
vn 0.919765 0.395303 0.000000
vn 0.919765 -0.395303 0.000000
vn 0.919765 0.395303 0.000000
vn 0.919765 -0.395303 0.000000
vn 0.919765 -0.395303 0.000000
vn 0.919765 0.395303 0.000000
vn 0.919765 -0.395303 0.000000
vn 0.919765 -0.395303 0.000000
vn 0.688845 -0.724070 0.000000
vn 0.919765 -0.395303 0.000000
vn 0.688845 -0.724070 0.000000
vn 0.688845 -0.724070 0.000000
mtllib mtl_t6_wpn_smg_vector_camo4.mtl
g mtl_t6_wpn_smg_vector_camo4
usemtl mtl_t6_wpn_smg_vector_camo4
f 3/3/3 2/2/2 1/1/1
f 6/6/6 5/5/5 4/4/4
f 9/9/9 8/8/8 7/7/7
f 12/12/12 11/11/11 10/10/10
f 15/15/15 14/14/14 13/13/13
f 18/18/18 17/17/17 16/16/16
f 21/21/21 20/20/20 19/19/19
f 24/24/24 23/23/23 22/22/22
f 27/27/27 26/26/26 25/25/25
f 30/30/30 29/29/29 28/28/28
f 33/33/33 32/32/32 31/31/31
f 36/36/36 35/35/35 34/34/34
f 39/39/39 38/38/38 37/37/37
f 42/42/42 41/41/41 40/40/40
f 45/45/45 44/44/44 43/43/43
f 48/48/48 47/47/47 46/46/46
f 51/51/51 50/50/50 49/49/49
f 54/54/54 53/53/53 52/52/52
f 57/57/57 56/56/56 55/55/55
f 60/60/60 59/59/59 58/58/58
f 63/63/63 62/62/62 61/61/61
f 66/66/66 65/65/65 64/64/64
f 69/69/69 68/68/68 67/67/67
f 72/72/72 71/71/71 70/70/70
f 75/75/75 74/74/74 73/73/73
f 78/78/78 77/77/77 76/76/76
f 81/81/81 80/80/80 79/79/79
f 84/84/84 83/83/83 82/82/82
f 87/87/87 86/86/86 85/85/85
f 90/90/90 89/89/89 88/88/88
