# Generated by Wraith - Game extraction tools
# Please credit DTZxPorter for using it!

v 11.048358 7.049749 18.304520
v 11.048360 -7.049747 18.304520
v 0.000000 8.588469 22.299774
v 11.048360 -7.049747 18.304520
v 0.000003 -8.588470 22.299774
v 0.000000 8.588469 22.299774
v 0.000000 8.588469 -22.299774
v 0.000003 -8.588470 -22.299774
v 11.048358 7.049749 -18.304522
v 0.000003 -8.588470 -22.299774
v 11.048360 -7.049747 -18.304522
v 11.048358 7.049749 -18.304522
v 11.048358 -14.444706 10.909564
v 11.048358 -14.444706 -10.909567
v 0.000000 -17.597492 13.290745
v 11.048358 -14.444706 -10.909567
v 0.000000 -17.597492 -13.290751
v 0.000000 -17.597492 13.290745
v 11.048358 14.444714 -10.909567
v 11.048358 14.444714 10.909564
v 0.000005 17.597494 -13.290751
v 11.048358 14.444714 10.909564
v 0.000005 17.597494 13.290745
v 0.000005 17.597494 -13.290751
v 0.000005 14.958809 19.661087
v 0.000005 17.597494 13.290745
v 11.048358 12.278774 16.138586
v 0.000005 17.597494 13.290745
v 11.048358 14.444714 10.909564
v 11.048358 12.278774 16.138586
v 0.000005 14.958809 19.661087
v 11.048358 12.278774 16.138586
v 0.000000 8.588469 22.299774
v 11.048358 12.278774 16.138586
v 11.048358 7.049749 18.304520
v 0.000000 8.588469 22.299774
v 0.000008 -14.958808 19.661087
v 0.000003 -8.588470 22.299774
v 11.048358 -12.278769 16.138586
v 0.000003 -8.588470 22.299774
v 11.048360 -7.049747 18.304520
v 11.048358 -12.278769 16.138586
v 0.000008 -14.958808 19.661087
v 11.048358 -12.278769 16.138586
v 0.000000 -17.597492 13.290745
v 11.048358 -12.278769 16.138586
v 11.048358 -14.444706 10.909564
v 0.000000 -17.597492 13.290745
v 11.048358 14.444714 -10.909567
v 0.000005 17.597494 -13.290751
v 11.048358 12.278774 -16.138590
v 0.000005 17.597494 -13.290751
v 0.000005 14.958809 -19.661091
v 11.048358 12.278774 -16.138590
v 11.048358 7.049749 -18.304522
v 11.048358 12.278774 -16.138590
v 0.000000 8.588469 -22.299774
v 11.048358 12.278774 -16.138590
v 0.000005 14.958809 -19.661091
v 0.000000 8.588469 -22.299774
v 11.048360 -7.049747 -18.304522
v 0.000003 -8.588470 -22.299774
v 11.048358 -12.278769 -16.138590
v 0.000003 -8.588470 -22.299774
v 0.000008 -14.958808 -19.661091
v 11.048358 -12.278769 -16.138590
v 11.048358 -14.444706 -10.909567
v 11.048358 -12.278769 -16.138590
v 0.000000 -17.597492 -13.290751
v 11.048358 -12.278769 -16.138590
v 0.000008 -14.958808 -19.661091
v 0.000000 -17.597492 -13.290751
v 11.048358 12.278774 -16.138590
v 11.048358 7.049749 -18.304522
v 11.048358 14.444714 -10.909567
v 11.048358 7.049749 -18.304522
v 11.048360 -7.049747 -18.304522
v 11.048358 14.444714 -10.909567
v 11.048358 14.444714 -10.909567
v 11.048360 -7.049747 -18.304522
v 11.048358 14.444714 10.909564
v 11.048360 -7.049747 -18.304522
v 11.048358 -12.278769 -16.138590
v 11.048358 14.444714 10.909564
v 11.048358 -12.278769 -16.138590
v 11.048358 -14.444706 -10.909567
v 11.048358 14.444714 10.909564
v 11.048358 -14.444706 -10.909567
v 11.048358 -14.444706 10.909564
v 11.048358 14.444714 10.909564
v 11.048358 14.444714 10.909564
v 11.048358 -14.444706 10.909564
v 11.048358 12.278774 16.138586
v 11.048358 12.278774 16.138586
v 11.048358 -14.444706 10.909564
v 11.048358 7.049749 18.304520
v 11.048358 7.049749 18.304520
v 11.048358 -14.444706 10.909564
v 11.048360 -7.049747 18.304520
v 11.048358 -12.278769 16.138586
v 11.048360 -7.049747 18.304520
v 11.048358 -14.444706 10.909564
v 11.386942 6.921297 -1.271567
v 11.386942 -2.466767 -4.321935
v 15.960512 5.422771 -0.297772
v 11.386942 -2.466767 -4.321935
v 15.960514 -2.113013 -2.746294
v 15.960512 5.422771 -0.297772
v 11.386942 6.921297 -1.271567
v 15.960512 5.422771 -0.297772
v 11.386942 6.921299 8.599625
v 15.960512 5.422771 -0.297772
v 15.960512 5.422778 7.625829
v 11.386942 6.921299 8.599625
v 11.386942 6.921299 8.599625
v 15.960512 5.422778 7.625829
v 11.386942 -2.466764 11.649991
v 15.960512 5.422778 7.625829
v 15.960514 -2.113013 10.074351
v 11.386942 -2.466764 11.649991
v 11.386942 -2.466764 11.649991
v 15.960514 -2.113013 10.074351
v 11.386944 -8.268904 3.664029
v 15.960514 -2.113013 10.074351
v 15.960514 -6.770385 3.664029
v 11.386944 -8.268904 3.664029
v 11.386942 -2.466767 -4.321935
v 11.386944 -8.268904 3.664029
v 15.960514 -2.113013 -2.746294
v 11.386944 -8.268904 3.664029
v 15.960514 -6.770385 3.664029
v 15.960514 -2.113013 -2.746294
v 15.960514 -2.113013 -2.746294
v 15.960514 -6.770385 3.664029
v 15.960512 5.422771 -0.297772
v 15.960512 5.422771 -0.297772
v 15.960514 -6.770385 3.664029
v 15.960512 5.422778 7.625829
v 15.960512 5.422778 7.625829
v 15.960514 -6.770385 3.664029
v 15.960514 -2.113013 10.074351
vt 0.284912 0.785400
vt 0.284912 0.819824
vt 0.306885 0.785400
vt 0.284912 0.819824
vt 0.306885 0.819824
vt 0.306885 0.785400
vt 0.262451 0.785400
vt 0.262451 0.819824
vt 0.284180 0.785400
vt 0.262451 0.819824
vt 0.284180 0.819824
vt 0.284180 0.785400
vt 0.250732 0.706299
vt 0.250732 0.759521
vt 0.272461 0.706299
vt 0.250732 0.759521
vt 0.272461 0.759521
vt 0.272461 0.706299
vt 0.273438 0.706299
vt 0.273438 0.759521
vt 0.295166 0.706299
vt 0.273438 0.759521
vt 0.295166 0.759521
vt 0.295166 0.706299
vt 0.295166 0.772217
vt 0.295166 0.759521
vt 0.273438 0.772217
vt 0.295166 0.759521
vt 0.273438 0.759521
vt 0.273438 0.772217
vt 0.306885 0.772705
vt 0.284912 0.772705
vt 0.306885 0.785400
vt 0.284912 0.772705
vt 0.284912 0.785400
vt 0.306885 0.785400
vt 0.306885 0.832520
vt 0.306885 0.819824
vt 0.284912 0.832520
vt 0.306885 0.819824
vt 0.284912 0.819824
vt 0.284912 0.832520
vt 0.272461 0.693604
vt 0.250732 0.693604
vt 0.272461 0.706299
vt 0.250732 0.693604
vt 0.250732 0.706299
vt 0.272461 0.706299
vt 0.273438 0.706299
vt 0.295166 0.706299
vt 0.273438 0.693604
vt 0.295166 0.706299
vt 0.295166 0.693604
vt 0.273438 0.693604
vt 0.284180 0.785400
vt 0.284180 0.772705
vt 0.262451 0.785400
vt 0.284180 0.772705
vt 0.262451 0.772705
vt 0.262451 0.785400
vt 0.284180 0.819824
vt 0.262451 0.819824
vt 0.284180 0.832520
vt 0.262451 0.819824
vt 0.262451 0.832520
vt 0.284180 0.832520
vt 0.250732 0.759521
vt 0.250732 0.772217
vt 0.272461 0.759521
vt 0.250732 0.772217
vt 0.272461 0.772217
vt 0.272461 0.759521
vt 0.244629 0.698975
vt 0.231934 0.693604
vt 0.250000 0.711670
vt 0.231934 0.693604
vt 0.197632 0.693604
vt 0.250000 0.711670
vt 0.250000 0.711670
vt 0.197632 0.693604
vt 0.250000 0.764771
vt 0.197632 0.693604
vt 0.184937 0.698975
vt 0.250000 0.764771
vt 0.184937 0.698975
vt 0.179565 0.711670
vt 0.250000 0.764771
vt 0.179565 0.711670
vt 0.179565 0.764771
vt 0.250000 0.764771
vt 0.250000 0.764771
vt 0.179565 0.764771
vt 0.244629 0.777466
vt 0.244629 0.777466
vt 0.179565 0.764771
vt 0.231934 0.782715
vt 0.231934 0.782715
vt 0.179565 0.764771
vt 0.197632 0.782715
vt 0.184937 0.777466
vt 0.197632 0.782715
vt 0.179565 0.764771
vt 0.179688 0.693604
vt 0.179688 0.750854
vt 0.207520 0.702881
vt 0.179688 0.750854
vt 0.207520 0.748779
vt 0.207520 0.702881
vt 0.318359 0.772339
vt 0.290283 0.778320
vt 0.318359 0.832520
vt 0.290283 0.778320
vt 0.290283 0.826538
vt 0.318359 0.832520
vt 0.236328 0.693604
vt 0.208496 0.702881
vt 0.236328 0.750854
vt 0.208496 0.702881
vt 0.208496 0.748779
vt 0.236328 0.750854
vt 0.236328 0.750854
vt 0.208496 0.748779
vt 0.236328 0.786255
vt 0.208496 0.748779
vt 0.208496 0.777100
vt 0.236328 0.786255
vt 0.179688 0.750854
vt 0.179688 0.786255
vt 0.207520 0.748779
vt 0.179688 0.786255
vt 0.207520 0.777100
vt 0.207520 0.748779
vt 0.265625 0.693604
vt 0.237183 0.732666
vt 0.311523 0.708496
vt 0.311523 0.708496
vt 0.237183 0.732666
vt 0.311523 0.756836
vt 0.311523 0.756836
vt 0.237183 0.732666
vt 0.265625 0.771729
vn 0.340509 0.000000 0.941292
vn 0.340509 0.000000 0.941292
vn 0.340509 0.000000 0.941292
vn 0.340509 0.000000 0.941292
vn 0.340509 0.000000 0.941292
vn 0.340509 0.000000 0.941292
vn 0.340509 0.000000 -0.941292
vn 0.340509 0.000000 -0.941292
vn 0.340509 0.000000 -0.941292
vn 0.340509 0.000000 -0.941292
vn 0.340509 0.000000 -0.941292
vn 0.340509 0.000000 -0.941292
vn 0.273973 -0.960861 0.000000
vn 0.273973 -0.960861 0.000000
vn 0.273973 -0.960861 0.000000
vn 0.273973 -0.960861 0.000000
vn 0.273973 -0.960861 0.000000
vn 0.273973 -0.960861 0.000000
vn 0.273973 0.960861 0.000000
vn 0.273973 0.960861 0.000000
vn 0.273973 0.960861 0.000000
vn 0.273973 0.960861 0.000000
vn 0.273973 0.960861 0.000000
vn 0.273973 0.960861 0.000000
vn 0.326810 0.872798 0.362035
vn 0.326810 0.872798 0.362035
vn 0.326810 0.872798 0.362035
vn 0.326810 0.872798 0.362035
vn 0.326810 0.872798 0.362035
vn 0.326810 0.872798 0.362035
vn 0.362035 0.356164 0.861057
vn 0.362035 0.356164 0.861057
vn 0.362035 0.356164 0.861057
vn 0.362035 0.356164 0.861057
vn 0.362035 0.356164 0.861057
vn 0.362035 0.356164 0.861057
vn 0.362035 -0.356164 0.861057
vn 0.362035 -0.356164 0.861057
vn 0.362035 -0.356164 0.861057
vn 0.362035 -0.356164 0.861057
vn 0.362035 -0.356164 0.861057
vn 0.362035 -0.356164 0.861057
vn 0.326810 -0.872798 0.362035
vn 0.326810 -0.872798 0.362035
vn 0.326810 -0.872798 0.362035
vn 0.326810 -0.872798 0.362035
vn 0.326810 -0.872798 0.362035
vn 0.326810 -0.872798 0.362035
vn 0.326810 0.872798 -0.362035
vn 0.326810 0.872798 -0.362035
vn 0.326810 0.872798 -0.362035
vn 0.326810 0.872798 -0.362035
vn 0.326810 0.872798 -0.362035
vn 0.326810 0.872798 -0.362035
vn 0.362035 0.356164 -0.861057
vn 0.362035 0.356164 -0.861057
vn 0.362035 0.356164 -0.861057
vn 0.362035 0.356164 -0.861057
vn 0.362035 0.356164 -0.861057
vn 0.362035 0.356164 -0.861057
vn 0.362035 -0.356164 -0.861057
vn 0.362035 -0.356164 -0.861057
vn 0.362035 -0.356164 -0.861057
vn 0.362035 -0.356164 -0.861057
vn 0.362035 -0.356164 -0.861057
vn 0.362035 -0.356164 -0.861057
vn 0.326810 -0.872798 -0.362035
vn 0.326810 -0.872798 -0.362035
vn 0.326810 -0.872798 -0.362035
vn 0.326810 -0.872798 -0.362035
vn 0.326810 -0.872798 -0.362035
vn 0.326810 -0.872798 -0.362035
vn 1.000000 0.000000 0.000000
vn 1.000000 0.000000 0.000000
vn 1.000000 0.000000 0.000000
vn 1.000000 0.000000 0.000000
vn 1.000000 0.000000 0.000000
vn 1.000000 0.000000 0.000000
vn 1.000000 0.000000 0.000000
vn 1.000000 0.000000 0.000000
vn 1.000000 0.000000 0.000000
vn 1.000000 0.000000 0.000000
vn 1.000000 0.000000 0.000000
vn 1.000000 0.000000 0.000000
vn 1.000000 0.000000 0.000000
vn 1.000000 0.000000 0.000000
vn 1.000000 0.000000 0.000000
vn 1.000000 0.000000 0.000000
vn 1.000000 0.000000 0.000000
vn 1.000000 0.000000 0.000000
vn 1.000000 0.000000 0.000000
vn 1.000000 0.000000 0.000000
vn 1.000000 0.000000 0.000000
vn 1.000000 0.000000 0.000000
vn 1.000000 0.000000 0.000000
vn 1.000000 0.000000 0.000000
vn 1.000000 0.000000 0.000000
vn 1.000000 0.000000 0.000000
vn 1.000000 0.000000 0.000000
vn 1.000000 0.000000 0.000000
vn 1.000000 0.000000 0.000000
vn 1.000000 0.000000 0.000000
vn 0.291585 0.295499 -0.909980
vn 0.291585 0.295499 -0.909980
vn 0.291585 0.295499 -0.909980
vn 0.291585 0.295499 -0.909980
vn 0.291585 0.295499 -0.909980
vn 0.291585 0.295499 -0.909980
vn 0.311155 0.951076 0.000000
vn 0.311155 0.951076 0.000000
vn 0.311155 0.951076 0.000000
vn 0.311155 0.951076 0.000000
vn 0.311155 0.951076 0.000000
vn 0.311155 0.951076 0.000000
vn 0.291585 0.295499 0.909980
vn 0.291585 0.295499 0.909980
vn 0.291585 0.295499 0.909980
vn 0.291585 0.295499 0.909980
vn 0.291585 0.295499 0.909980
vn 0.291585 0.295499 0.909980
vn 0.256360 -0.782779 0.567515
vn 0.256360 -0.782779 0.567515
vn 0.256360 -0.782779 0.567515
vn 0.256360 -0.782779 0.567515
vn 0.256360 -0.782779 0.567515
vn 0.256360 -0.782779 0.567515
vn 0.256360 -0.782779 -0.567515
vn 0.256360 -0.782779 -0.567515
vn 0.256360 -0.782779 -0.567515
vn 0.256360 -0.782779 -0.567515
vn 0.256360 -0.782779 -0.567515
vn 0.256360 -0.782779 -0.567515
vn 1.000000 0.000000 0.000000
vn 1.000000 0.000000 0.000000
vn 1.000000 0.000000 0.000000
vn 1.000000 0.000000 0.000000
vn 1.000000 0.000000 0.000000
vn 1.000000 0.000000 0.000000
vn 1.000000 0.000000 0.000000
vn 1.000000 0.000000 0.000000
vn 1.000000 0.000000 0.000000
mtllib mtl_nt_2020_wall_meter_01.mtl
g mtl_nt_2020_wall_meter_01
usemtl mtl_nt_2020_wall_meter_01
f 3/3/3 2/2/2 1/1/1
f 6/6/6 5/5/5 4/4/4
f 9/9/9 8/8/8 7/7/7
f 12/12/12 11/11/11 10/10/10
f 15/15/15 14/14/14 13/13/13
f 18/18/18 17/17/17 16/16/16
f 21/21/21 20/20/20 19/19/19
f 24/24/24 23/23/23 22/22/22
f 27/27/27 26/26/26 25/25/25
f 30/30/30 29/29/29 28/28/28
f 33/33/33 32/32/32 31/31/31
f 36/36/36 35/35/35 34/34/34
f 39/39/39 38/38/38 37/37/37
f 42/42/42 41/41/41 40/40/40
f 45/45/45 44/44/44 43/43/43
f 48/48/48 47/47/47 46/46/46
f 51/51/51 50/50/50 49/49/49
f 54/54/54 53/53/53 52/52/52
f 57/57/57 56/56/56 55/55/55
f 60/60/60 59/59/59 58/58/58
f 63/63/63 62/62/62 61/61/61
f 66/66/66 65/65/65 64/64/64
f 69/69/69 68/68/68 67/67/67
f 72/72/72 71/71/71 70/70/70
f 75/75/75 74/74/74 73/73/73
f 78/78/78 77/77/77 76/76/76
f 81/81/81 80/80/80 79/79/79
f 84/84/84 83/83/83 82/82/82
f 87/87/87 86/86/86 85/85/85
f 90/90/90 89/89/89 88/88/88
f 93/93/93 92/92/92 91/91/91
f 96/96/96 95/95/95 94/94/94
f 99/99/99 98/98/98 97/97/97
f 102/102/102 101/101/101 100/100/100
f 105/105/105 104/104/104 103/103/103
f 108/108/108 107/107/107 106/106/106
f 111/111/111 110/110/110 109/109/109
f 114/114/114 113/113/113 112/112/112
f 117/117/117 116/116/116 115/115/115
f 120/120/120 119/119/119 118/118/118
f 123/123/123 122/122/122 121/121/121
f 126/126/126 125/125/125 124/124/124
f 129/129/129 128/128/128 127/127/127
f 132/132/132 131/131/131 130/130/130
f 135/135/135 134/134/134 133/133/133
f 138/138/138 137/137/137 136/136/136
f 141/141/141 140/140/140 139/139/139
