# Generated by Wraith - Game extraction tools
# Please credit DTZxPorter for using it!

v 14.758736 -14.758736 0.013200
v 17.495649 -18.711222 44.936016
v 18.103436 -18.138853 44.936016
v 17.495649 -18.711222 44.936016
v 14.758736 -14.758736 0.013200
v 14.276014 -15.241458 0.013200
v -14.276014 -15.241458 0.013200
v 17.495649 -18.711222 44.936016
v 14.276014 -15.241458 0.013200
v 17.495649 -18.711222 44.936016
v -14.276014 -15.241458 0.013200
v -17.495649 -18.711222 44.936016
v -14.276014 -15.241458 0.013200
v -18.138857 -18.103436 44.936016
v -17.495649 -18.711222 44.936016
v -18.138857 -18.103436 44.936016
v -14.276014 -15.241458 0.013200
v -14.758736 -14.758736 0.013200
v -14.758736 -14.758736 0.013200
v -15.241458 14.276014 0.013195
v -15.241458 -14.276017 0.013200
v -14.758736 -14.758736 0.013200
v -14.758736 14.758736 0.013195
v -15.241458 14.276014 0.013195
v -14.758736 -14.758736 0.013200
v -14.276014 15.241458 0.013195
v -14.758736 14.758736 0.013195
v -14.758736 -14.758736 0.013200
v 14.276011 15.241458 0.013195
v -14.276014 15.241458 0.013195
v -14.758736 -14.758736 0.013200
v 14.758736 14.758736 0.013195
v 14.276011 15.241458 0.013195
v -14.758736 -14.758736 0.013200
v 15.241458 14.276014 0.013195
v 14.758736 14.758736 0.013195
v -14.758736 -14.758736 0.013200
v 15.241458 -14.276017 0.013200
v 15.241458 14.276014 0.013195
v -14.758736 -14.758736 0.013200
v 14.758736 -14.758736 0.013200
v 15.241458 -14.276017 0.013200
v -14.758736 -14.758736 0.013200
v 14.276014 -15.241458 0.013200
v 14.758736 -14.758736 0.013200
v -14.758736 -14.758736 0.013200
v -14.276014 -15.241458 0.013200
v 14.276014 -15.241458 0.013200
v 16.864689 16.854326 45.124405
v 13.857130 -13.857107 1.310897
v 13.857107 13.857130 1.310897
v 13.857130 -13.857107 1.310897
v 16.864689 16.854326 45.124405
v 16.854326 -16.864689 45.124405
v -16.854326 16.864689 45.124405
v 13.857107 13.857130 1.310897
v -13.857130 13.857107 1.310897
v 13.857107 13.857130 1.310897
v -16.854326 16.864689 45.124405
v 16.864689 16.854326 45.124405
v -16.864689 -16.854324 45.124401
v -13.857130 13.857107 1.310897
v -13.857107 -13.857130 1.310897
v -13.857130 13.857107 1.310897
v -16.864689 -16.854324 45.124401
v -16.854326 16.864689 45.124405
v 16.854326 -16.864689 45.124405
v -13.857107 -13.857130 1.310897
v 13.857130 -13.857107 1.310897
v -13.857107 -13.857130 1.310897
v 16.854326 -16.864689 45.124405
v -16.864689 -16.854324 45.124401
v -13.857107 -13.857130 1.310897
v 13.857107 13.857130 1.310897
v 13.857130 -13.857107 1.310897
v 13.857107 13.857130 1.310897
v -13.857107 -13.857130 1.310897
v -13.857130 13.857107 1.310897
v 17.495649 -18.711222 44.936016
v 16.854326 -16.864689 45.124405
v 18.103436 -18.138853 44.936016
v -17.495649 -18.711222 44.936016
v 16.854326 -16.864689 45.124405
v 17.495649 -18.711222 44.936016
v 16.854326 -16.864689 45.124405
v -17.495649 -18.711222 44.936016
v -16.864689 -16.854324 45.124401
v -18.138857 -18.103436 44.936016
v -16.864689 -16.854324 45.124401
v -17.495649 -18.711222 44.936016
v 14.758736 14.758736 0.013195
v 18.711222 17.495649 44.936016
v 18.138851 18.103436 44.936016
v 18.711222 17.495649 44.936016
v 14.758736 14.758736 0.013195
v 15.241458 14.276014 0.013195
v 15.241458 -14.276017 0.013200
v 18.711222 17.495649 44.936016
v 15.241458 14.276014 0.013195
v 18.711222 17.495649 44.936016
v 15.241458 -14.276017 0.013200
v 18.711222 -17.495649 44.936016
v 15.241458 -14.276017 0.013200
v 18.103436 -18.138853 44.936016
v 18.711222 -17.495649 44.936016
v 18.103436 -18.138853 44.936016
v 15.241458 -14.276017 0.013200
v 14.758736 -14.758736 0.013200
v 18.711222 17.495649 44.936016
v 16.864689 16.854326 45.124405
v 18.138851 18.103436 44.936016
v 18.711222 -17.495649 44.936016
v 16.864689 16.854326 45.124405
v 18.711222 17.495649 44.936016
v 16.864689 16.854326 45.124405
v 18.711222 -17.495649 44.936016
v 16.854326 -16.864689 45.124405
v 18.103436 -18.138853 44.936016
v 16.854326 -16.864689 45.124405
v 18.711222 -17.495649 44.936016
v -14.758736 14.758736 0.013195
v -17.495651 18.711220 44.936016
v -18.103436 18.138851 44.936016
v -17.495651 18.711220 44.936016
v -14.758736 14.758736 0.013195
v -14.276014 15.241458 0.013195
v 14.276011 15.241458 0.013195
v -17.495651 18.711220 44.936016
v -14.276014 15.241458 0.013195
v -17.495651 18.711220 44.936016
v 14.276011 15.241458 0.013195
v 17.495649 18.711222 44.936016
v 14.276011 15.241458 0.013195
v 18.138851 18.103436 44.936016
v 17.495649 18.711222 44.936016
v 18.138851 18.103436 44.936016
v 14.276011 15.241458 0.013195
v 14.758736 14.758736 0.013195
v -17.495651 18.711220 44.936016
v -16.854326 16.864689 45.124405
v -18.103436 18.138851 44.936016
v 17.495649 18.711222 44.936016
v -16.854326 16.864689 45.124405
v -17.495651 18.711220 44.936016
v -16.854326 16.864689 45.124405
v 17.495649 18.711222 44.936016
v 16.864689 16.854326 45.124405
v 18.138851 18.103436 44.936016
v 16.864689 16.854326 45.124405
v 17.495649 18.711222 44.936016
v -14.758736 -14.758736 0.013200
v -18.711222 -17.495649 44.936016
v -18.138857 -18.103436 44.936016
v -18.711222 -17.495649 44.936016
v -14.758736 -14.758736 0.013200
v -15.241458 -14.276017 0.013200
v -15.241458 14.276014 0.013195
v -18.711222 -17.495649 44.936016
v -15.241458 -14.276017 0.013200
v -18.711222 -17.495649 44.936016
v -15.241458 14.276014 0.013195
v -18.711222 17.495649 44.936016
v -15.241458 14.276014 0.013195
v -18.103436 18.138851 44.936016
v -18.711222 17.495649 44.936016
v -18.103436 18.138851 44.936016
v -15.241458 14.276014 0.013195
v -14.758736 14.758736 0.013195
v -18.711222 -17.495649 44.936016
v -16.864689 -16.854324 45.124401
v -18.138857 -18.103436 44.936016
v -18.711222 17.495649 44.936016
v -16.864689 -16.854324 45.124401
v -18.711222 -17.495649 44.936016
v -16.864689 -16.854324 45.124401
v -18.711222 17.495649 44.936016
v -16.854326 16.864689 45.124405
v -18.103436 18.138851 44.936016
v -16.854326 16.864689 45.124405
v -18.711222 17.495649 44.936016
vt 0.500488 0.000000
vt 0.492432 1.000000
vt 0.500488 1.000000
vt 0.492432 1.000000
vt 0.500488 0.000000
vt 0.492432 0.000000
vt 0.009369 0.000000
vt 0.492432 1.000000
vt 0.492432 0.000000
vt 0.492432 1.000000
vt 0.009369 0.000000
vt 0.009369 1.000000
vt 0.009369 0.000000
vt 0.000813 1.000000
vt 0.009369 1.000000
vt 0.000813 1.000000
vt 0.009369 0.000000
vt 0.000813 0.000000
vt 0.508789 0.016113
vt 0.500977 0.968353
vt 0.500977 0.031738
vt 0.508789 0.016113
vt 0.508789 0.984177
vt 0.500977 0.968353
vt 0.508789 0.016113
vt 0.516602 1.000000
vt 0.508789 0.984177
vt 0.508789 0.016113
vt 0.983887 1.000000
vt 0.516602 1.000000
vt 0.508789 0.016113
vt 0.991699 0.984177
vt 0.983887 1.000000
vt 0.508789 0.016113
vt 1.000000 0.968353
vt 0.991699 0.984177
vt 0.508789 0.016113
vt 1.000000 0.031738
vt 1.000000 0.968353
vt 0.508789 0.016113
vt 0.991699 0.016113
vt 1.000000 0.031738
vt 0.508789 0.016113
vt 0.983887 0.000000
vt 0.991699 0.016113
vt 0.508789 0.016113
vt 0.527832 0.000000
vt 0.983887 0.000000
vt 0.999512 1.000968
vt 0.508789 0.000977
vt 0.999023 0.000977
vt 0.508789 0.000977
vt 0.999512 1.000968
vt 0.508789 1.000968
vt 0.508789 1.000968
vt 0.998535 0.000977
vt 0.508789 0.000977
vt 0.998535 0.000977
vt 0.508789 1.000968
vt 0.998535 1.000968
vt 0.508789 1.000968
vt 0.999023 0.000977
vt 0.508789 0.000977
vt 0.999023 0.000977
vt 0.508789 1.000968
vt 0.999512 1.000968
vt 0.998535 1.002171
vt 0.508301 0.002441
vt 0.998535 0.002441
vt 0.508301 0.002441
vt 0.998535 1.002171
vt 0.508301 1.002171
vt 0.500977 0.000000
vt 0.999512 1.000000
vt 1.000000 0.000488
vt 0.999512 1.000000
vt 0.500977 0.000000
vt 0.500977 1.000000
vt 0.492432 1.000000
vt 0.496582 1.000000
vt 0.500488 1.000000
vt 0.009369 1.000000
vt 0.496582 1.000000
vt 0.492432 1.000000
vt 0.496582 1.000000
vt 0.009369 1.000000
vt 0.004181 1.000000
vt 0.000813 1.000000
vt 0.004181 1.000000
vt 0.009369 1.000000
vt 0.500488 0.000000
vt 0.492432 1.000000
vt 0.500488 1.000000
vt 0.492432 1.000000
vt 0.500488 0.000000
vt 0.492432 0.000000
vt 0.009369 0.000000
vt 0.492432 1.000000
vt 0.492432 0.000000
vt 0.492432 1.000000
vt 0.009369 0.000000
vt 0.009369 1.000000
vt 0.009369 0.000000
vt 0.000813 1.000000
vt 0.009369 1.000000
vt 0.000813 1.000000
vt 0.009369 0.000000
vt 0.000813 0.000000
vt 0.492432 1.000000
vt 0.496582 1.000000
vt 0.500488 1.000000
vt 0.009369 1.000000
vt 0.496582 1.000000
vt 0.492432 1.000000
vt 0.496582 1.000000
vt 0.009369 1.000000
vt 0.004181 1.000000
vt 0.000813 1.000000
vt 0.004181 1.000000
vt 0.009369 1.000000
vt 0.500488 0.000000
vt 0.492432 1.000000
vt 0.500488 1.000000
vt 0.492432 1.000000
vt 0.500488 0.000000
vt 0.492432 0.000000
vt 0.009369 0.000000
vt 0.492432 1.000000
vt 0.492432 0.000000
vt 0.492432 1.000000
vt 0.009369 0.000000
vt 0.009369 1.000000
vt 0.009369 0.000000
vt 0.000813 1.000000
vt 0.009369 1.000000
vt 0.000813 1.000000
vt 0.009369 0.000000
vt 0.000813 0.000000
vt 0.492432 1.000000
vt 0.496582 1.000000
vt 0.500488 1.000000
vt 0.009369 1.000000
vt 0.496582 1.000000
vt 0.492432 1.000000
vt 0.496582 1.000000
vt 0.009369 1.000000
vt 0.004181 1.000000
vt 0.000813 1.000000
vt 0.004181 1.000000
vt 0.009369 1.000000
vt 0.500488 0.000000
vt 0.492432 1.000000
vt 0.500488 1.000000
vt 0.492432 1.000000
vt 0.500488 0.000000
vt 0.492432 0.000000
vt 0.009369 0.000000
vt 0.492432 1.000000
vt 0.492432 0.000000
vt 0.492432 1.000000
vt 0.009369 0.000000
vt 0.009369 1.000000
vt 0.009369 0.000000
vt 0.000813 1.000000
vt 0.009369 1.000000
vt 0.000813 1.000000
vt 0.009369 0.000000
vt 0.000813 0.000000
vt 0.492432 1.000000
vt 0.496582 1.000000
vt 0.500488 1.000000
vt 0.009369 1.000000
vt 0.496582 1.000000
vt 0.492432 1.000000
vt 0.496582 1.000000
vt 0.009369 1.000000
vt 0.004181 1.000000
vt 0.000813 1.000000
vt 0.004181 1.000000
vt 0.009369 1.000000
vn 0.696673 -0.710372 -0.105675
vn 0.373777 -0.921722 -0.097847
vn 0.702544 -0.704501 -0.105675
vn 0.373777 -0.921722 -0.097847
vn 0.696673 -0.710372 -0.105675
vn 0.379648 -0.919765 -0.097847
vn -0.373777 -0.921722 -0.097847
vn 0.373777 -0.921722 -0.097847
vn 0.379648 -0.919765 -0.097847
vn 0.373777 -0.921722 -0.097847
vn -0.373777 -0.921722 -0.097847
vn -0.367906 -0.925636 -0.097847
vn -0.373777 -0.921722 -0.097847
vn -0.704501 -0.702544 -0.105675
vn -0.367906 -0.925636 -0.097847
vn -0.704501 -0.702544 -0.105675
vn -0.373777 -0.921722 -0.097847
vn -0.710372 -0.696673 -0.105675
vn 0.000000 0.000000 -1.000000
vn 0.000000 0.000000 -1.000000
vn 0.000000 0.000000 -1.000000
vn 0.000000 0.000000 -1.000000
vn 0.000000 0.000000 -1.000000
vn 0.000000 0.000000 -1.000000
vn 0.000000 0.000000 -1.000000
vn 0.000000 0.000000 -1.000000
vn 0.000000 0.000000 -1.000000
vn 0.000000 0.000000 -1.000000
vn 0.000000 0.000000 -1.000000
vn 0.000000 0.000000 -1.000000
vn 0.000000 0.000000 -1.000000
vn 0.000000 0.000000 -1.000000
vn 0.000000 0.000000 -1.000000
vn 0.000000 0.000000 -1.000000
vn 0.000000 0.000000 -1.000000
vn 0.000000 0.000000 -1.000000
vn 0.000000 0.000000 -1.000000
vn 0.000000 0.000000 -1.000000
vn 0.000000 0.000000 -1.000000
vn 0.000000 0.000000 -1.000000
vn 0.000000 0.000000 -1.000000
vn 0.000000 0.000000 -1.000000
vn 0.000000 0.000000 -1.000000
vn 0.000000 0.000000 -1.000000
vn 0.000000 0.000000 -1.000000
vn 0.000000 0.000000 -1.000000
vn 0.000000 0.000000 -1.000000
vn 0.000000 0.000000 -1.000000
vn -0.998043 0.000000 0.068493
vn -0.998043 0.000000 0.068493
vn -0.998043 0.000000 0.068493
vn -0.998043 0.000000 0.068493
vn -0.998043 0.000000 0.068493
vn -0.998043 0.000000 0.068493
vn 0.000000 -0.998043 0.068493
vn 0.000000 -0.998043 0.068493
vn 0.000000 -0.998043 0.068493
vn 0.000000 -0.998043 0.068493
vn 0.000000 -0.998043 0.068493
vn 0.000000 -0.998043 0.068493
vn 0.998043 0.000000 0.068493
vn 0.998043 0.000000 0.068493
vn 0.998043 0.000000 0.068493
vn 0.998043 0.000000 0.068493
vn 0.998043 0.000000 0.068493
vn 0.998043 0.000000 0.068493
vn 0.000000 0.998043 0.068493
vn 0.000000 0.998043 0.068493
vn 0.000000 0.998043 0.068493
vn 0.000000 0.998043 0.068493
vn 0.000000 0.998043 0.068493
vn 0.000000 0.998043 0.068493
vn 0.000000 0.000000 1.000000
vn 0.000000 0.000000 1.000000
vn 0.000000 0.000000 1.000000
vn 0.000000 0.000000 1.000000
vn 0.000000 0.000000 1.000000
vn 0.000000 0.000000 1.000000
vn 0.035225 -0.088063 0.996086
vn 0.050881 -0.070450 0.996086
vn 0.074364 -0.074364 0.994129
vn -0.023483 -0.093933 0.996086
vn 0.050881 -0.070450 0.996086
vn 0.035225 -0.088063 0.996086
vn 0.050881 -0.070450 0.996086
vn -0.023483 -0.093933 0.996086
vn -0.070450 -0.050881 0.996086
vn -0.074364 -0.074364 0.994129
vn -0.070450 -0.050881 0.996086
vn -0.023483 -0.093933 0.996086
vn 0.710372 0.696673 -0.105675
vn 0.921722 0.373777 -0.097847
vn 0.704501 0.702544 -0.105675
vn 0.921722 0.373777 -0.097847
vn 0.710372 0.696673 -0.105675
vn 0.919765 0.379648 -0.097847
vn 0.921722 -0.373777 -0.097847
vn 0.921722 0.373777 -0.097847
vn 0.919765 0.379648 -0.097847
vn 0.921722 0.373777 -0.097847
vn 0.921722 -0.373777 -0.097847
vn 0.925636 -0.367906 -0.097847
vn 0.921722 -0.373777 -0.097847
vn 0.702544 -0.704501 -0.105675
vn 0.925636 -0.367906 -0.097847
vn 0.702544 -0.704501 -0.105675
vn 0.921722 -0.373777 -0.097847
vn 0.696673 -0.710372 -0.105675
vn 0.088063 0.035225 0.996086
vn 0.070450 0.050881 0.996086
vn 0.074364 0.074364 0.994129
vn 0.093933 -0.023483 0.996086
vn 0.070450 0.050881 0.996086
vn 0.088063 0.035225 0.996086
vn 0.070450 0.050881 0.996086
vn 0.093933 -0.023483 0.996086
vn 0.050881 -0.070450 0.996086
vn 0.074364 -0.074364 0.994129
vn 0.050881 -0.070450 0.996086
vn 0.093933 -0.023483 0.996086
vn -0.696673 0.710372 -0.105675
vn -0.373777 0.921722 -0.097847
vn -0.702544 0.704501 -0.105675
vn -0.373777 0.921722 -0.097847
vn -0.696673 0.710372 -0.105675
vn -0.379648 0.919765 -0.097847
vn 0.373777 0.921722 -0.097847
vn -0.373777 0.921722 -0.097847
vn -0.379648 0.919765 -0.097847
vn -0.373777 0.921722 -0.097847
vn 0.373777 0.921722 -0.097847
vn 0.367906 0.925636 -0.097847
vn 0.373777 0.921722 -0.097847
vn 0.704501 0.702544 -0.105675
vn 0.367906 0.925636 -0.097847
vn 0.704501 0.702544 -0.105675
vn 0.373777 0.921722 -0.097847
vn 0.710372 0.696673 -0.105675
vn -0.035225 0.088063 0.996086
vn -0.050881 0.070450 0.996086
vn -0.074364 0.074364 0.994129
vn 0.023483 0.093933 0.996086
vn -0.050881 0.070450 0.996086
vn -0.035225 0.088063 0.996086
vn -0.050881 0.070450 0.996086
vn 0.023483 0.093933 0.996086
vn 0.070450 0.050881 0.996086
vn 0.074364 0.074364 0.994129
vn 0.070450 0.050881 0.996086
vn 0.023483 0.093933 0.996086
vn -0.710372 -0.696673 -0.105675
vn -0.921722 -0.373777 -0.097847
vn -0.704501 -0.702544 -0.105675
vn -0.921722 -0.373777 -0.097847
vn -0.710372 -0.696673 -0.105675
vn -0.919765 -0.379648 -0.097847
vn -0.921722 0.373777 -0.097847
vn -0.921722 -0.373777 -0.097847
vn -0.919765 -0.379648 -0.097847
vn -0.921722 -0.373777 -0.097847
vn -0.921722 0.373777 -0.097847
vn -0.925636 0.367906 -0.097847
vn -0.921722 0.373777 -0.097847
vn -0.702544 0.704501 -0.105675
vn -0.925636 0.367906 -0.097847
vn -0.702544 0.704501 -0.105675
vn -0.921722 0.373777 -0.097847
vn -0.696673 0.710372 -0.105675
vn -0.088063 -0.035225 0.996086
vn -0.070450 -0.050881 0.996086
vn -0.074364 -0.074364 0.994129
vn -0.093933 0.023483 0.996086
vn -0.070450 -0.050881 0.996086
vn -0.088063 -0.035225 0.996086
vn -0.070450 -0.050881 0.996086
vn -0.093933 0.023483 0.996086
vn -0.050881 0.070450 0.996086
vn -0.074364 0.074364 0.994129
vn -0.050881 0.070450 0.996086
vn -0.093933 0.023483 0.996086
mtllib mtl_nt_2020_planter01.mtl
g mtl_nt_2020_planter01
usemtl mtl_nt_2020_planter01
f 3/3/3 2/2/2 1/1/1
f 6/6/6 5/5/5 4/4/4
f 9/9/9 8/8/8 7/7/7
f 12/12/12 11/11/11 10/10/10
f 15/15/15 14/14/14 13/13/13
f 18/18/18 17/17/17 16/16/16
f 21/21/21 20/20/20 19/19/19
f 24/24/24 23/23/23 22/22/22
f 27/27/27 26/26/26 25/25/25
f 30/30/30 29/29/29 28/28/28
f 33/33/33 32/32/32 31/31/31
f 36/36/36 35/35/35 34/34/34
f 39/39/39 38/38/38 37/37/37
f 42/42/42 41/41/41 40/40/40
f 45/45/45 44/44/44 43/43/43
f 48/48/48 47/47/47 46/46/46
f 51/51/51 50/50/50 49/49/49
f 54/54/54 53/53/53 52/52/52
f 57/57/57 56/56/56 55/55/55
f 60/60/60 59/59/59 58/58/58
f 63/63/63 62/62/62 61/61/61
f 66/66/66 65/65/65 64/64/64
f 69/69/69 68/68/68 67/67/67
f 72/72/72 71/71/71 70/70/70
f 75/75/75 74/74/74 73/73/73
f 78/78/78 77/77/77 76/76/76
f 81/81/81 80/80/80 79/79/79
f 84/84/84 83/83/83 82/82/82
f 87/87/87 86/86/86 85/85/85
f 90/90/90 89/89/89 88/88/88
f 93/93/93 92/92/92 91/91/91
f 96/96/96 95/95/95 94/94/94
f 99/99/99 98/98/98 97/97/97
f 102/102/102 101/101/101 100/100/100
f 105/105/105 104/104/104 103/103/103
f 108/108/108 107/107/107 106/106/106
f 111/111/111 110/110/110 109/109/109
f 114/114/114 113/113/113 112/112/112
f 117/117/117 116/116/116 115/115/115
f 120/120/120 119/119/119 118/118/118
f 123/123/123 122/122/122 121/121/121
f 126/126/126 125/125/125 124/124/124
f 129/129/129 128/128/128 127/127/127
f 132/132/132 131/131/131 130/130/130
f 135/135/135 134/134/134 133/133/133
f 138/138/138 137/137/137 136/136/136
f 141/141/141 140/140/140 139/139/139
f 144/144/144 143/143/143 142/142/142
f 147/147/147 146/146/146 145/145/145
f 150/150/150 149/149/149 148/148/148
f 153/153/153 152/152/152 151/151/151
f 156/156/156 155/155/155 154/154/154
f 159/159/159 158/158/158 157/157/157
f 162/162/162 161/161/161 160/160/160
f 165/165/165 164/164/164 163/163/163
f 168/168/168 167/167/167 166/166/166
f 171/171/171 170/170/170 169/169/169
f 174/174/174 173/173/173 172/172/172
f 177/177/177 176/176/176 175/175/175
f 180/180/180 179/179/179 178/178/178
