# Generated by Wraith - Game extraction tools
# Please credit DTZxPorter for using it!

v -5.138504 1.282258 1.037478
v -5.138497 -1.282258 1.037478
v -5.138504 1.282261 0.186756
v -5.138497 -1.282258 1.037478
v -5.138504 -1.282261 0.186756
v -5.138504 1.282261 0.186756
v -5.138504 1.282261 0.186756
v -5.138504 -1.282261 0.186756
v -5.138504 1.139353 0.000013
v -5.138504 -1.282261 0.186756
v -5.138504 -1.139353 0.000013
v -5.138504 1.139353 0.000013
v 4.064730 -1.196452 -2.540013
v 4.268882 -1.282261 -2.614107
v 4.064730 1.196452 -2.540013
v 4.268882 -1.282261 -2.614107
v 4.268882 1.282261 -2.614107
v 4.064730 1.196452 -2.540013
v 4.453452 -1.282261 1.037481
v -5.138497 -1.282258 1.037478
v 4.453452 1.282261 1.037478
v -5.138497 -1.282258 1.037478
v -5.138504 1.282258 1.037478
v 4.453452 1.282261 1.037478
v 4.268882 -1.282261 -2.614107
v 4.064730 -1.196452 -2.540013
v 3.537311 -1.139353 -0.242517
v 3.702216 -1.282261 -0.055771
v 4.268882 -1.282261 -2.614107
v 3.537311 -1.139353 -0.242517
v 4.453452 -1.282261 -2.540013
v 4.268882 -1.282261 -2.614107
v 3.702216 -1.282261 -0.055771
v 4.453452 -1.282261 1.037481
v 4.453452 -1.282261 -2.540013
v 3.702216 -1.282261 -0.055771
v 4.453452 -1.282261 1.037481
v 3.702216 -1.282261 -0.055771
v 3.395401 -1.282261 0.186756
v 4.453452 -1.282261 1.037481
v 3.395401 -1.282261 0.186756
v -5.138497 -1.282258 1.037478
v 3.395401 -1.282261 0.186756
v -5.138504 -1.282261 0.186756
v -5.138497 -1.282258 1.037478
v 3.702216 -1.282261 -0.055771
v 3.537311 -1.139353 -0.242517
v 3.395401 -1.282261 0.186756
v 3.537311 -1.139353 -0.242517
v 3.237094 -1.139353 0.000013
v 3.395401 -1.282261 0.186756
v 3.395401 -1.282261 0.186756
v 3.237094 -1.139353 0.000013
v -5.138504 -1.282261 0.186756
v 3.237094 -1.139353 0.000013
v -5.138504 -1.139353 0.000013
v -5.138504 -1.282261 0.186756
v 4.064730 -1.196452 -2.540013
v 4.064730 1.196452 -2.540013
v 3.537311 1.139353 -0.242517
v 3.537311 -1.139353 -0.242517
v 4.064730 -1.196452 -2.540013
v 3.537311 1.139353 -0.242517
v 3.237094 -1.139353 0.000013
v 3.537311 -1.139353 -0.242517
v 3.537311 1.139353 -0.242517
v 3.237094 1.139350 0.000013
v 3.237094 -1.139353 0.000013
v 3.537311 1.139353 -0.242517
v -5.138504 -1.139353 0.000013
v 3.237094 -1.139353 0.000013
v 3.237094 1.139350 0.000013
v -5.138504 1.139353 0.000013
v -5.138504 -1.139353 0.000013
v 3.237094 1.139350 0.000013
v 3.537311 1.139353 -0.242517
v 4.064730 1.196452 -2.540013
v 4.268882 1.282261 -2.614107
v 3.702216 1.282261 -0.055771
v 3.537311 1.139353 -0.242517
v 4.268882 1.282261 -2.614107
v 3.537311 1.139353 -0.242517
v 3.702216 1.282261 -0.055771
v 3.395401 1.282261 0.186756
v 3.237094 1.139350 0.000013
v 3.537311 1.139353 -0.242517
v 3.395401 1.282261 0.186756
v 3.395401 1.282261 0.186756
v -5.138504 1.282261 0.186756
v 3.237094 1.139350 0.000013
v -5.138504 1.282261 0.186756
v -5.138504 1.139353 0.000013
v 3.237094 1.139350 0.000013
v 3.702216 1.282261 -0.055771
v 4.268882 1.282261 -2.614107
v 4.453452 1.282261 -2.540013
v 4.453452 1.282261 1.037478
v 3.702216 1.282261 -0.055771
v 4.453452 1.282261 -2.540013
v 4.453452 1.282261 1.037478
v 3.395401 1.282261 0.186756
v 3.702216 1.282261 -0.055771
v 4.453452 1.282261 1.037478
v -5.138504 1.282258 1.037478
v 3.395401 1.282261 0.186756
v -5.138504 1.282258 1.037478
v -5.138504 1.282261 0.186756
v 3.395401 1.282261 0.186756
v 0.555552 0.961481 -7.942440
v 0.498465 1.473858 -7.566350
v -0.554843 0.961786 -7.942440
v 0.498465 1.473858 -7.566350
v -0.497424 1.474074 -7.566350
v -0.554843 0.961786 -7.942440
v -0.554843 0.961786 -7.942440
v -0.497424 1.474074 -7.566350
v -1.334635 0.860788 -7.566350
v -0.554843 0.961786 -7.942440
v -1.334635 0.860788 -7.566350
v -1.110308 -0.000432 -7.942440
v -1.334635 0.860788 -7.566350
v -1.579189 -0.000432 -7.566350
v -1.110308 -0.000432 -7.942440
v 1.335451 0.860316 -7.566350
v 1.335451 0.860316 -4.672378
v 0.498465 1.473858 -7.566350
v 1.335451 0.860316 -4.672378
v 0.498465 1.473858 -4.672378
v 0.498465 1.473858 -7.566350
v 0.498465 1.473858 -7.566350
v 0.498465 1.473858 -4.672378
v -0.497424 1.474074 -7.566350
v 0.498465 1.473858 -4.672378
v -0.497424 1.474076 -4.672378
v -0.497424 1.474074 -7.566350
v -0.497424 1.474074 -7.566350
v -0.497424 1.474076 -4.672378
v -1.334635 0.860788 -7.566350
v -0.497424 1.474076 -4.672378
v -1.334635 0.860788 -4.672378
v -1.334635 0.860788 -7.566350
v -1.334635 0.860788 -4.672378
v -1.579191 -0.000432 -4.672378
v -1.334635 0.860788 -7.566350
v -1.579191 -0.000432 -4.672378
v -1.579189 -0.000432 -7.566350
v -1.334635 0.860788 -7.566350
v 1.335451 0.860316 -4.672378
v 1.217871 0.784558 -2.509040
v 0.498465 1.473858 -4.672378
v 1.217871 0.784558 -2.509040
v 0.454585 1.344087 -2.509040
v 0.498465 1.473858 -4.672378
v 0.498465 1.473858 -4.672378
v 0.454585 1.344087 -2.509040
v -0.497424 1.474076 -4.672378
v 0.454585 1.344087 -2.509040
v -0.453623 1.344282 -2.509040
v -0.497424 1.474076 -4.672378
v -0.497424 1.474076 -4.672378
v -0.453623 1.344282 -2.509040
v -1.217120 0.784987 -2.509040
v -1.334635 0.860788 -4.672378
v -0.497424 1.474076 -4.672378
v -1.217120 0.784987 -2.509040
v -1.217120 0.784987 -2.509040
v -1.440135 -0.000432 -2.509040
v -1.334635 0.860788 -4.672378
v -1.440135 -0.000432 -2.509040
v -1.579191 -0.000432 -4.672378
v -1.334635 0.860788 -4.672378
v 0.454585 1.344087 -2.509040
v 1.217871 0.784558 -2.509040
v 0.681884 0.681418 0.000013
v 0.249832 0.931022 0.000013
v 0.454585 1.344087 -2.509040
v 0.681884 0.681418 0.000013
v 0.454585 1.344087 -2.509040
v 0.249832 0.931022 0.000013
v -0.249137 0.931159 0.000013
v -0.453623 1.344282 -2.509040
v 0.454585 1.344087 -2.509040
v -0.249137 0.931159 0.000013
v -0.453623 1.344282 -2.509040
v -0.249137 0.931159 0.000013
v -0.681327 0.681792 0.000013
v -1.217120 0.784987 -2.509040
v -0.453623 1.344282 -2.509040
v -0.681327 0.681792 0.000013
v -0.681327 0.681792 0.000013
v -0.931002 -0.000432 0.000013
v -1.217120 0.784987 -2.509040
v -0.931002 -0.000432 0.000013
v -1.440135 -0.000432 -2.509040
v -1.217120 0.784987 -2.509040
v 0.498465 -1.474724 -7.566350
v -0.497424 -1.474940 -7.566350
v 0.498465 -1.474724 -4.672378
v -0.497424 -1.474940 -7.566350
v -0.497424 -1.474942 -4.672378
v 0.498465 -1.474724 -4.672378
v 0.498465 -1.474724 -4.672378
v -0.497424 -1.474942 -4.672378
v 0.454585 -1.344953 -2.509040
v -0.497424 -1.474942 -4.672378
v -0.453623 -1.345148 -2.509040
v 0.454585 -1.344953 -2.509040
v -0.453623 -1.345148 -2.509040
v -0.249137 -0.932023 0.000013
v 0.454585 -1.344953 -2.509040
v -0.249137 -0.932023 0.000013
v 0.249832 -0.931888 0.000013
v 0.454585 -1.344953 -2.509040
v -0.497424 -1.474940 -7.566350
v -1.334635 -0.861654 -7.566350
v -0.497424 -1.474942 -4.672378
v -1.334635 -0.861654 -7.566350
v -1.334635 -0.861654 -4.672378
v -0.497424 -1.474942 -4.672378
v -0.497424 -1.474942 -4.672378
v -1.334635 -0.861654 -4.672378
v -1.217120 -0.785853 -2.509040
v -0.453623 -1.345148 -2.509040
v -0.497424 -1.474942 -4.672378
v -1.217120 -0.785853 -2.509040
v -1.217120 -0.785853 -2.509040
v -0.681327 -0.682658 0.000013
v -0.453623 -1.345148 -2.509040
v -0.681327 -0.682658 0.000013
v -0.249137 -0.932023 0.000013
v -0.453623 -1.345148 -2.509040
v -1.334635 -0.861654 -4.672378
v -1.334635 -0.861654 -7.566350
v -1.579189 -0.000432 -7.566350
v -1.579191 -0.000432 -4.672378
v -1.334635 -0.861654 -4.672378
v -1.579189 -0.000432 -7.566350
v -1.217120 -0.785853 -2.509040
v -1.334635 -0.861654 -4.672378
v -1.579191 -0.000432 -4.672378
v -1.440135 -0.000432 -2.509040
v -1.217120 -0.785853 -2.509040
v -1.579191 -0.000432 -4.672378
v -1.217120 -0.785853 -2.509040
v -1.440135 -0.000432 -2.509040
v -0.931002 -0.000432 0.000013
v -0.681327 -0.682658 0.000013
v -1.217120 -0.785853 -2.509040
v -0.931002 -0.000432 0.000013
v -0.554843 -0.962652 -7.942440
v -1.334635 -0.861654 -7.566350
v -0.497424 -1.474940 -7.566350
v -1.334635 -0.861654 -7.566350
v -0.554843 -0.962652 -7.942440
v -1.110308 -0.000432 -7.942440
v -1.579189 -0.000432 -7.566350
v -1.334635 -0.861654 -7.566350
v -1.110308 -0.000432 -7.942440
vt 0.811035 0.985893
vt 0.997559 0.984940
vt 0.811035 0.859131
vt 0.997559 0.984940
vt 0.997559 0.859131
vt 0.811035 0.859131
vt 0.811035 0.859131
vt 0.997559 0.859131
vt 0.821289 0.825317
vt 0.997559 0.859131
vt 0.986816 0.825317
vt 0.821289 0.825317
vt 0.015335 0.404785
vt 0.009094 0.436523
vt 0.189209 0.404785
vt 0.009094 0.436523
vt 0.195435 0.436523
vt 0.189209 0.404785
vt 0.256836 0.219238
vt 0.007496 0.219238
vt 0.256836 0.365234
vt 0.007496 0.219238
vt 0.007496 0.365234
vt 0.256836 0.365234
vt 0.209229 0.455566
vt 0.225464 0.465820
vt 0.266357 0.793335
vt 0.252197 0.823486
vt 0.209229 0.455566
vt 0.266357 0.793335
vt 0.195435 0.466797
vt 0.209229 0.455566
vt 0.252197 0.823486
vt 0.195435 0.986801
vt 0.195435 0.466797
vt 0.252197 0.823486
vt 0.195435 0.986801
vt 0.252197 0.823486
vt 0.274902 0.859131
vt 0.195435 0.986801
vt 0.274902 0.859131
vt 0.811523 0.986801
vt 0.274902 0.859131
vt 0.811523 0.859131
vt 0.811523 0.986801
vt 0.252197 0.823486
vt 0.266357 0.793335
vt 0.274902 0.859131
vt 0.266357 0.793335
vt 0.287109 0.825317
vt 0.274902 0.859131
vt 0.274902 0.859131
vt 0.287109 0.825317
vt 0.811523 0.859131
vt 0.287109 0.825317
vt 0.811523 0.825317
vt 0.811523 0.859131
vt 0.003862 0.020020
vt 0.003862 0.179688
vt 0.101563 0.179688
vt 0.101563 0.020020
vt 0.003862 0.020020
vt 0.101563 0.179688
vt 0.117554 0.020020
vt 0.101563 0.020020
vt 0.101563 0.179688
vt 0.117554 0.179688
vt 0.117554 0.020020
vt 0.101563 0.179688
vt 0.288330 0.020020
vt 0.117554 0.020020
vt 0.117554 0.179688
vt 0.288330 0.179688
vt 0.288330 0.020020
vt 0.117554 0.179688
vt 0.266357 0.793335
vt 0.224854 0.462402
vt 0.208740 0.452637
vt 0.252197 0.823486
vt 0.266357 0.793335
vt 0.208740 0.452637
vt 0.266357 0.793335
vt 0.252197 0.823486
vt 0.274902 0.859131
vt 0.287109 0.825317
vt 0.266357 0.793335
vt 0.274902 0.859131
vt 0.274902 0.859131
vt 0.811035 0.859131
vt 0.287109 0.825317
vt 0.811035 0.859131
vt 0.811035 0.825317
vt 0.287109 0.825317
vt 0.252197 0.823486
vt 0.208740 0.452637
vt 0.195435 0.464355
vt 0.195435 0.985909
vt 0.252197 0.823486
vt 0.195435 0.464355
vt 0.195435 0.985909
vt 0.274902 0.859131
vt 0.252197 0.823486
vt 0.195435 0.985909
vt 0.811035 0.985893
vt 0.274902 0.859131
vt 0.811035 0.985893
vt 0.811035 0.859131
vt 0.274902 0.859131
vt 0.921875 0.329590
vt 0.875000 0.337891
vt 0.921875 0.525146
vt 0.875000 0.337891
vt 0.875000 0.516357
vt 0.921875 0.525146
vt 0.921875 0.525146
vt 0.875000 0.516357
vt 0.900879 0.648926
vt 0.921875 0.525146
vt 0.900879 0.648926
vt 0.992188 0.621826
vt 0.900879 0.648926
vt 0.992188 0.728271
vt 0.992188 0.621826
vt 0.875000 0.166992
vt 0.642090 0.166992
vt 0.875000 0.337891
vt 0.642090 0.166992
vt 0.642090 0.330078
vt 0.875000 0.337891
vt 0.875000 0.337891
vt 0.642090 0.330078
vt 0.875000 0.516357
vt 0.642090 0.330078
vt 0.642090 0.524414
vt 0.875000 0.516357
vt 0.875000 0.516357
vt 0.642090 0.524414
vt 0.875000 0.687744
vt 0.642090 0.524414
vt 0.642090 0.687744
vt 0.875000 0.687744
vt 0.642090 0.687744
vt 0.642090 0.814209
vt 0.875000 0.687744
vt 0.642090 0.814209
vt 0.875000 0.814209
vt 0.875000 0.687744
vt 0.642090 0.166992
vt 0.468018 0.189941
vt 0.642090 0.330078
vt 0.468018 0.189941
vt 0.468018 0.338867
vt 0.642090 0.330078
vt 0.642090 0.330078
vt 0.468018 0.338867
vt 0.642090 0.524414
vt 0.468018 0.338867
vt 0.468018 0.515869
vt 0.642090 0.524414
vt 0.642090 0.524414
vt 0.468018 0.515869
vt 0.468018 0.664795
vt 0.642090 0.687744
vt 0.642090 0.524414
vt 0.468018 0.664795
vt 0.468018 0.664795
vt 0.468018 0.780151
vt 0.642090 0.687744
vt 0.468018 0.780151
vt 0.642090 0.814209
vt 0.642090 0.687744
vt 0.468018 0.338867
vt 0.468018 0.189941
vt 0.266113 0.294434
vt 0.266113 0.378418
vt 0.468018 0.338867
vt 0.266113 0.294434
vt 0.468018 0.338867
vt 0.266113 0.378418
vt 0.266113 0.476074
vt 0.468018 0.515869
vt 0.468018 0.338867
vt 0.266113 0.476074
vt 0.468018 0.515869
vt 0.266113 0.476074
vt 0.266113 0.560303
vt 0.468018 0.664795
vt 0.468018 0.515869
vt 0.266113 0.560303
vt 0.266113 0.560303
vt 0.266113 0.655518
vt 0.468018 0.664795
vt 0.266113 0.655518
vt 0.468018 0.780151
vt 0.468018 0.664795
vt 0.875000 0.337891
vt 0.875000 0.516357
vt 0.642090 0.330078
vt 0.875000 0.516357
vt 0.642090 0.524414
vt 0.642090 0.330078
vt 0.642090 0.330078
vt 0.642090 0.524414
vt 0.468018 0.338867
vt 0.642090 0.524414
vt 0.468018 0.515869
vt 0.468018 0.338867
vt 0.468018 0.515869
vt 0.266113 0.476074
vt 0.468018 0.338867
vt 0.266113 0.476074
vt 0.266113 0.378418
vt 0.468018 0.338867
vt 0.875000 0.516357
vt 0.875000 0.687744
vt 0.642090 0.524414
vt 0.875000 0.687744
vt 0.642090 0.687744
vt 0.642090 0.524414
vt 0.642090 0.524414
vt 0.642090 0.687744
vt 0.468018 0.664795
vt 0.468018 0.515869
vt 0.642090 0.524414
vt 0.468018 0.664795
vt 0.468018 0.664795
vt 0.266113 0.560303
vt 0.468018 0.515869
vt 0.266113 0.560303
vt 0.266113 0.476074
vt 0.468018 0.515869
vt 0.642090 0.687744
vt 0.875000 0.687744
vt 0.875000 0.814209
vt 0.642090 0.814209
vt 0.642090 0.687744
vt 0.875000 0.814209
vt 0.468018 0.664795
vt 0.642090 0.687744
vt 0.642090 0.814209
vt 0.468018 0.780151
vt 0.468018 0.664795
vt 0.642090 0.814209
vt 0.468018 0.664795
vt 0.468018 0.780151
vt 0.266113 0.655518
vt 0.266113 0.560303
vt 0.468018 0.664795
vt 0.266113 0.655518
vt 0.921875 0.525146
vt 0.900879 0.648926
vt 0.875000 0.516357
vt 0.900879 0.648926
vt 0.921875 0.525146
vt 0.992188 0.621826
vt 0.992188 0.728271
vt 0.900879 0.648926
vt 0.992188 0.621826
vn -1.000000 0.000000 0.000000
vn -1.000000 0.000000 0.000000
vn -1.000000 0.000000 0.000000
vn -1.000000 0.000000 0.000000
vn -1.000000 0.000000 0.000000
vn -1.000000 0.000000 0.000000
vn -1.000000 0.000000 0.000000
vn -1.000000 0.000000 0.000000
vn -1.000000 0.000000 0.000000
vn -1.000000 0.000000 0.000000
vn -1.000000 0.000000 0.000000
vn -1.000000 0.000000 0.000000
vn -0.340509 0.000000 -0.939335
vn -0.340509 0.000000 -0.939335
vn -0.340509 0.000000 -0.939335
vn -0.340509 0.000000 -0.939335
vn -0.340509 0.000000 -0.939335
vn -0.340509 0.000000 -0.939335
vn 0.000000 0.000000 1.000000
vn 0.000000 0.000000 1.000000
vn 0.000000 0.000000 1.000000
vn 0.000000 0.000000 1.000000
vn 0.000000 0.000000 1.000000
vn 0.000000 0.000000 1.000000
vn -0.260274 -0.964775 -0.052838
vn -0.500978 -0.859100 -0.103718
vn -0.412916 -0.874755 -0.250489
vn -0.211350 -0.968689 -0.129159
vn -0.260274 -0.964775 -0.052838
vn -0.412916 -0.874755 -0.250489
vn 0.000000 -1.000000 0.000000
vn -0.260274 -0.964775 -0.052838
vn -0.211350 -0.968689 -0.129159
vn 0.000000 -1.000000 0.000000
vn 0.000000 -1.000000 0.000000
vn -0.211350 -0.968689 -0.129159
vn 0.000000 -1.000000 0.000000
vn -0.211350 -0.968689 -0.129159
vn -0.082192 -0.960861 -0.262231
vn 0.000000 -1.000000 0.000000
vn -0.082192 -0.960861 -0.262231
vn 0.000000 -1.000000 0.000000
vn -0.082192 -0.960861 -0.262231
vn 0.000000 -0.947162 -0.320939
vn 0.000000 -1.000000 0.000000
vn -0.211350 -0.968689 -0.129159
vn -0.412916 -0.874755 -0.250489
vn -0.082192 -0.960861 -0.262231
vn -0.412916 -0.874755 -0.250489
vn -0.158513 -0.845401 -0.508806
vn -0.082192 -0.960861 -0.262231
vn -0.082192 -0.960861 -0.262231
vn -0.158513 -0.845401 -0.508806
vn 0.000000 -0.947162 -0.320939
vn -0.158513 -0.845401 -0.508806
vn 0.000000 -0.794521 -0.608611
vn 0.000000 -0.947162 -0.320939
vn -0.974560 0.000000 -0.223092
vn -0.974560 0.000000 -0.223092
vn -0.847358 0.000000 -0.530333
vn -0.847358 0.000000 -0.530333
vn -0.974560 0.000000 -0.223092
vn -0.847358 0.000000 -0.530333
vn -0.332681 0.000000 -0.943249
vn -0.847358 0.000000 -0.530333
vn -0.847358 0.000000 -0.530333
vn -0.332681 0.000000 -0.943249
vn -0.332681 0.000000 -0.943249
vn -0.847358 0.000000 -0.530333
vn 0.000000 0.000000 -1.000000
vn -0.332681 0.000000 -0.943249
vn -0.332681 0.000000 -0.943249
vn 0.000000 0.000000 -1.000000
vn 0.000000 0.000000 -1.000000
vn -0.332681 0.000000 -0.943249
vn -0.412916 0.874755 -0.250489
vn -0.500978 0.859100 -0.103718
vn -0.260274 0.964775 -0.052838
vn -0.211350 0.968689 -0.129159
vn -0.412916 0.874755 -0.250489
vn -0.260274 0.964775 -0.052838
vn -0.412916 0.874755 -0.250489
vn -0.211350 0.968689 -0.129159
vn -0.082192 0.960861 -0.262231
vn -0.158513 0.845401 -0.508806
vn -0.412916 0.874755 -0.250489
vn -0.082192 0.960861 -0.262231
vn -0.082192 0.960861 -0.262231
vn 0.000000 0.947162 -0.320939
vn -0.158513 0.845401 -0.508806
vn 0.000000 0.947162 -0.320939
vn 0.000000 0.794521 -0.608611
vn -0.158513 0.845401 -0.508806
vn -0.211350 0.968689 -0.129159
vn -0.260274 0.964775 -0.052838
vn 0.000000 1.000000 0.000000
vn 0.000000 1.000000 0.000000
vn -0.211350 0.968689 -0.129159
vn 0.000000 1.000000 0.000000
vn 0.000000 1.000000 0.000000
vn -0.082192 0.960861 -0.262231
vn -0.211350 0.968689 -0.129159
vn 0.000000 1.000000 0.000000
vn 0.000000 1.000000 0.000000
vn -0.082192 0.960861 -0.262231
vn 0.000000 1.000000 0.000000
vn 0.000000 0.947162 -0.320939
vn -0.082192 0.960861 -0.262231
vn 0.000000 0.590998 -0.806262
vn 0.000000 0.590998 -0.806262
vn -0.324853 0.481409 -0.814090
vn 0.000000 0.590998 -0.806262
vn -0.213307 0.592955 -0.776908
vn -0.324853 0.481409 -0.814090
vn -0.324853 0.481409 -0.814090
vn -0.213307 0.592955 -0.776908
vn -0.473581 0.405088 -0.782779
vn -0.324853 0.481409 -0.814090
vn -0.473581 0.405088 -0.782779
vn -0.530333 0.000000 -0.847358
vn -0.473581 0.405088 -0.782779
vn -0.530333 0.000000 -0.847358
vn -0.530333 0.000000 -0.847358
vn 0.590998 0.806262 0.000000
vn 0.590998 0.806262 0.029354
vn 0.311155 0.951076 0.000000
vn 0.590998 0.806262 0.029354
vn 0.311155 0.949119 0.031311
vn 0.311155 0.951076 0.000000
vn 0.311155 0.951076 0.000000
vn 0.311155 0.949119 0.031311
vn -0.311155 0.951076 0.000000
vn 0.311155 0.949119 0.031311
vn -0.311155 0.949119 0.031311
vn -0.311155 0.951076 0.000000
vn -0.311155 0.951076 0.000000
vn -0.311155 0.949119 0.031311
vn -0.821918 0.571429 0.000000
vn -0.311155 0.949119 0.031311
vn -0.819961 0.571429 0.031311
vn -0.821918 0.571429 0.000000
vn -0.819961 0.571429 0.031311
vn -1.000000 0.000000 0.031311
vn -0.821918 0.571429 0.000000
vn -1.000000 0.000000 0.031311
vn -1.000000 0.000000 0.000000
vn -0.821918 0.571429 0.000000
vn 0.590998 0.806262 0.029354
vn 0.571429 0.812133 0.113503
vn 0.311155 0.949119 0.031311
vn 0.571429 0.812133 0.113503
vn 0.299413 0.947162 0.117417
vn 0.311155 0.949119 0.031311
vn 0.311155 0.949119 0.031311
vn 0.299413 0.947162 0.117417
vn -0.311155 0.949119 0.031311
vn 0.299413 0.947162 0.117417
vn -0.299413 0.947162 0.117417
vn -0.311155 0.949119 0.031311
vn -0.311155 0.949119 0.031311
vn -0.299413 0.947162 0.117417
vn -0.804305 0.581213 0.129159
vn -0.819961 0.571429 0.031311
vn -0.311155 0.949119 0.031311
vn -0.804305 0.581213 0.129159
vn -0.804305 0.581213 0.129159
vn -0.990215 0.000000 0.136986
vn -0.819961 0.571429 0.031311
vn -0.990215 0.000000 0.136986
vn -1.000000 0.000000 0.031311
vn -0.819961 0.571429 0.031311
vn 0.299413 0.947162 0.117417
vn 0.571429 0.812133 0.113503
vn 0.551859 0.816047 0.166341
vn 0.289628 0.941292 0.172211
vn 0.299413 0.947162 0.117417
vn 0.551859 0.816047 0.166341
vn 0.299413 0.947162 0.117417
vn 0.289628 0.941292 0.172211
vn -0.287671 0.941292 0.172211
vn -0.299413 0.947162 0.117417
vn 0.299413 0.947162 0.117417
vn -0.287671 0.941292 0.172211
vn -0.299413 0.947162 0.117417
vn -0.287671 0.941292 0.172211
vn -0.784736 0.589041 0.193738
vn -0.804305 0.581213 0.129159
vn -0.299413 0.947162 0.117417
vn -0.784736 0.589041 0.193738
vn -0.784736 0.589041 0.193738
vn -0.978474 0.000000 0.209393
vn -0.804305 0.581213 0.129159
vn -0.978474 0.000000 0.209393
vn -0.990215 0.000000 0.136986
vn -0.804305 0.581213 0.129159
vn 0.000000 -1.000000 0.000000
vn -0.311155 -0.951076 0.000000
vn 0.000000 -1.000000 0.029354
vn -0.311155 -0.951076 0.000000
vn -0.311155 -0.949119 0.031311
vn 0.000000 -1.000000 0.029354
vn 0.000000 -1.000000 0.029354
vn -0.311155 -0.949119 0.031311
vn 0.000000 -0.994129 0.111546
vn -0.311155 -0.949119 0.031311
vn -0.299413 -0.947162 0.117417
vn 0.000000 -0.994129 0.111546
vn -0.299413 -0.947162 0.117417
vn -0.287671 -0.941292 0.172211
vn 0.000000 -0.994129 0.111546
vn -0.287671 -0.941292 0.172211
vn 0.000000 -0.986301 0.162427
vn 0.000000 -0.994129 0.111546
vn -0.311155 -0.951076 0.000000
vn -0.821918 -0.571429 0.000000
vn -0.311155 -0.949119 0.031311
vn -0.821918 -0.571429 0.000000
vn -0.819961 -0.571429 0.031311
vn -0.311155 -0.949119 0.031311
vn -0.311155 -0.949119 0.031311
vn -0.819961 -0.571429 0.031311
vn -0.804305 -0.581213 0.129159
vn -0.299413 -0.947162 0.117417
vn -0.311155 -0.949119 0.031311
vn -0.804305 -0.581213 0.129159
vn -0.804305 -0.581213 0.129159
vn -0.784736 -0.589041 0.193738
vn -0.299413 -0.947162 0.117417
vn -0.784736 -0.589041 0.193738
vn -0.287671 -0.941292 0.172211
vn -0.299413 -0.947162 0.117417
vn -0.819961 -0.571429 0.031311
vn -0.821918 -0.571429 0.000000
vn -1.000000 0.000000 0.000000
vn -1.000000 0.000000 0.031311
vn -0.819961 -0.571429 0.031311
vn -1.000000 0.000000 0.000000
vn -0.804305 -0.581213 0.129159
vn -0.819961 -0.571429 0.031311
vn -1.000000 0.000000 0.031311
vn -0.990215 0.000000 0.136986
vn -0.804305 -0.581213 0.129159
vn -1.000000 0.000000 0.031311
vn -0.804305 -0.581213 0.129159
vn -0.990215 0.000000 0.136986
vn -0.978474 0.000000 0.209393
vn -0.784736 -0.589041 0.193738
vn -0.804305 -0.581213 0.129159
vn -0.978474 0.000000 0.209393
vn -0.473581 -0.405088 -0.782779
vn -0.473581 -0.405088 -0.782779
vn -0.416830 -0.567515 -0.710372
vn -0.473581 -0.405088 -0.782779
vn -0.473581 -0.405088 -0.782779
vn -0.530333 0.000000 -0.847358
vn -0.530333 0.000000 -0.847358
vn -0.473581 -0.405088 -0.782779
vn -0.530333 0.000000 -0.847358
mtllib mtl_t6_attach_grip_vector.mtl
g mtl_t6_attach_grip_vector
usemtl mtl_t6_attach_grip_vector
f 3/3/3 2/2/2 1/1/1
f 6/6/6 5/5/5 4/4/4
f 9/9/9 8/8/8 7/7/7
f 12/12/12 11/11/11 10/10/10
f 15/15/15 14/14/14 13/13/13
f 18/18/18 17/17/17 16/16/16
f 21/21/21 20/20/20 19/19/19
f 24/24/24 23/23/23 22/22/22
f 27/27/27 26/26/26 25/25/25
f 30/30/30 29/29/29 28/28/28
f 33/33/33 32/32/32 31/31/31
f 36/36/36 35/35/35 34/34/34
f 39/39/39 38/38/38 37/37/37
f 42/42/42 41/41/41 40/40/40
f 45/45/45 44/44/44 43/43/43
f 48/48/48 47/47/47 46/46/46
f 51/51/51 50/50/50 49/49/49
f 54/54/54 53/53/53 52/52/52
f 57/57/57 56/56/56 55/55/55
f 60/60/60 59/59/59 58/58/58
f 63/63/63 62/62/62 61/61/61
f 66/66/66 65/65/65 64/64/64
f 69/69/69 68/68/68 67/67/67
f 72/72/72 71/71/71 70/70/70
f 75/75/75 74/74/74 73/73/73
f 78/78/78 77/77/77 76/76/76
f 81/81/81 80/80/80 79/79/79
f 84/84/84 83/83/83 82/82/82
f 87/87/87 86/86/86 85/85/85
f 90/90/90 89/89/89 88/88/88
f 93/93/93 92/92/92 91/91/91
f 96/96/96 95/95/95 94/94/94
f 99/99/99 98/98/98 97/97/97
f 102/102/102 101/101/101 100/100/100
f 105/105/105 104/104/104 103/103/103
f 108/108/108 107/107/107 106/106/106
f 111/111/111 110/110/110 109/109/109
f 114/114/114 113/113/113 112/112/112
f 117/117/117 116/116/116 115/115/115
f 120/120/120 119/119/119 118/118/118
f 123/123/123 122/122/122 121/121/121
f 126/126/126 125/125/125 124/124/124
f 129/129/129 128/128/128 127/127/127
f 132/132/132 131/131/131 130/130/130
f 135/135/135 134/134/134 133/133/133
f 138/138/138 137/137/137 136/136/136
f 141/141/141 140/140/140 139/139/139
f 144/144/144 143/143/143 142/142/142
f 147/147/147 146/146/146 145/145/145
f 150/150/150 149/149/149 148/148/148
f 153/153/153 152/152/152 151/151/151
f 156/156/156 155/155/155 154/154/154
f 159/159/159 158/158/158 157/157/157
f 162/162/162 161/161/161 160/160/160
f 165/165/165 164/164/164 163/163/163
f 168/168/168 167/167/167 166/166/166
f 171/171/171 170/170/170 169/169/169
f 174/174/174 173/173/173 172/172/172
f 177/177/177 176/176/176 175/175/175
f 180/180/180 179/179/179 178/178/178
f 183/183/183 182/182/182 181/181/181
f 186/186/186 185/185/185 184/184/184
f 189/189/189 188/188/188 187/187/187
f 192/192/192 191/191/191 190/190/190
f 195/195/195 194/194/194 193/193/193
f 198/198/198 197/197/197 196/196/196
f 201/201/201 200/200/200 199/199/199
f 204/204/204 203/203/203 202/202/202
f 207/207/207 206/206/206 205/205/205
f 210/210/210 209/209/209 208/208/208
f 213/213/213 212/212/212 211/211/211
f 216/216/216 215/215/215 214/214/214
f 219/219/219 218/218/218 217/217/217
f 222/222/222 221/221/221 220/220/220
f 225/225/225 224/224/224 223/223/223
f 228/228/228 227/227/227 226/226/226
f 231/231/231 230/230/230 229/229/229
f 234/234/234 233/233/233 232/232/232
f 237/237/237 236/236/236 235/235/235
f 240/240/240 239/239/239 238/238/238
f 243/243/243 242/242/242 241/241/241
f 246/246/246 245/245/245 244/244/244
f 249/249/249 248/248/248 247/247/247
f 252/252/252 251/251/251 250/250/250
f 255/255/255 254/254/254 253/253/253
f 258/258/258 257/257/257 256/256/256
