# Generated by Wraith - Game extraction tools
# Please credit DTZxPorter for using it!

v 7.238453 -12.654325 25.624804
v 7.238453 -12.654325 -0.008019
v -6.628849 -12.654315 25.624804
v 7.238453 -12.654325 -0.008019
v -6.628849 -12.654325 -0.008019
v -6.628849 -12.654315 25.624804
v -6.628849 -12.654325 -0.008019
v -6.628849 12.885502 -0.008019
v -6.628849 -12.654315 25.624804
v -6.628849 12.885502 -0.008019
v -6.628849 12.885502 25.624804
v -6.628849 -12.654315 25.624804
v -6.628849 -12.654315 25.624804
v -6.628849 12.885502 25.624804
v 7.238453 -12.654325 25.624804
v -6.628849 12.885502 25.624804
v 7.238453 12.885502 25.624804
v 7.238453 -12.654325 25.624804
v 7.238453 -12.654325 25.624804
v 7.238453 12.885502 25.624804
v 7.238453 -12.654325 -0.008019
v 7.238453 12.885502 25.624804
v 7.238453 12.885502 -0.008019
v 7.238453 -12.654325 -0.008019
v 7.238453 -12.654325 -0.008019
v 7.238453 12.885502 -0.008019
v -6.628849 -12.654325 -0.008019
v 7.238453 12.885502 -0.008019
v -6.628849 12.885502 -0.008019
v -6.628849 -12.654325 -0.008019
v -6.628849 12.885502 -0.008019
v 7.238453 12.885502 -0.008019
v -6.628849 12.885502 25.624804
v 7.238453 12.885502 -0.008019
v 7.238453 12.885502 25.624804
v -6.628849 12.885502 25.624804
vt 0.498535 0.894409
vt 0.498535 0.606689
vt 0.318359 0.894409
vt 0.498535 0.606689
vt 0.318359 0.606689
vt 0.318359 0.894409
vt 0.000000 0.000000
vt 0.000000 1.000000
vt 1.000000 0.000000
vt 0.000000 1.000000
vt 1.000000 1.000000
vt 1.000000 0.000000
vt 0.000000 0.000000
vt 0.000000 1.000000
vt 1.000000 0.000000
vt 0.000000 1.000000
vt 1.000000 1.000000
vt 1.000000 0.000000
vt 0.000000 0.000000
vt 0.000000 1.000000
vt 1.000000 0.000000
vt 0.000000 1.000000
vt 1.000000 1.000000
vt 1.000000 0.000000
vt 0.000000 0.000000
vt 0.000000 1.000000
vt 1.000000 0.000000
vt 0.000000 1.000000
vt 1.000000 1.000000
vt 1.000000 0.000000
vt 0.000000 1.000000
vt 0.000000 1.000000
vt 0.000000 1.000000
vt 0.000000 1.000000
vt 0.000000 1.000000
vt 0.000000 1.000000
vn 0.000000 -1.000000 0.000000
vn 0.000000 -1.000000 0.000000
vn 0.000000 -1.000000 0.000000
vn 0.000000 -1.000000 0.000000
vn 0.000000 -1.000000 0.000000
vn 0.000000 -1.000000 0.000000
vn -1.000000 0.000000 0.000000
vn -1.000000 0.000000 0.000000
vn -1.000000 0.000000 0.000000
vn -1.000000 0.000000 0.000000
vn -1.000000 0.000000 0.000000
vn -1.000000 0.000000 0.000000
vn 0.000000 0.000000 1.000000
vn 0.000000 0.000000 1.000000
vn 0.000000 0.000000 1.000000
vn 0.000000 0.000000 1.000000
vn 0.000000 0.000000 1.000000
vn 0.000000 0.000000 1.000000
vn 1.000000 0.000000 0.000000
vn 1.000000 0.000000 0.000000
vn 1.000000 0.000000 0.000000
vn 1.000000 0.000000 0.000000
vn 1.000000 0.000000 0.000000
vn 1.000000 0.000000 0.000000
vn 0.000000 0.000000 -1.000000
vn 0.000000 0.000000 -1.000000
vn 0.000000 0.000000 -1.000000
vn 0.000000 0.000000 -1.000000
vn 0.000000 0.000000 -1.000000
vn 0.000000 0.000000 -1.000000
vn 0.000000 1.000000 0.000000
vn 0.000000 1.000000 0.000000
vn 0.000000 1.000000 0.000000
vn 0.000000 1.000000 0.000000
vn 0.000000 1.000000 0.000000
vn 0.000000 1.000000 0.000000
mtllib mtl_nt_2020_books.mtl
g mtl_nt_2020_books
usemtl mtl_nt_2020_books
f 3/3/3 2/2/2 1/1/1
f 6/6/6 5/5/5 4/4/4
f 9/9/9 8/8/8 7/7/7
f 12/12/12 11/11/11 10/10/10
f 15/15/15 14/14/14 13/13/13
f 18/18/18 17/17/17 16/16/16
f 21/21/21 20/20/20 19/19/19
f 24/24/24 23/23/23 22/22/22
f 27/27/27 26/26/26 25/25/25
f 30/30/30 29/29/29 28/28/28
f 33/33/33 32/32/32 31/31/31
f 36/36/36 35/35/35 34/34/34
