# Generated by Wraith - Game extraction tools
# Please credit DTZxPorter for using it!

v -6.947152 0.059088 10.363860
v -0.955949 -6.467295 12.283951
v -3.476048 -8.709800 3.339036
v -6.947152 0.059088 10.363860
v -3.476048 -8.709800 3.339036
v -9.606252 3.944282 -0.355559
v -6.947152 0.059088 10.363860
v -9.606252 3.944282 -0.355559
v -5.248950 6.546301 10.900526
v -3.339153 11.215093 5.942764
v -5.248950 6.546301 10.900526
v -9.606252 3.944282 -0.355559
v -3.339153 11.215093 5.942764
v -9.606252 3.944282 -0.355559
v -3.080753 7.663703 -6.847334
v -5.453253 0.622704 -11.591949
v -3.080753 7.663703 -6.847334
v -9.606252 3.944282 -0.355559
v -5.453253 0.622704 -11.591949
v -9.606252 3.944282 -0.355559
v -3.476048 -8.709800 3.339036
v -5.453253 0.622704 -11.591949
v -3.476048 -8.709800 3.339036
v 1.542847 -11.789408 -2.898635
v -5.453253 0.622704 -11.591949
v 1.542847 -11.789408 -2.898635
v -0.062451 -2.547798 -14.512343
v 5.515049 -0.010904 -11.426545
v -0.062451 -2.547798 -14.512343
v 1.542847 -11.789408 -2.898635
v 5.515049 -0.010904 -11.426545
v 1.542847 -11.789408 -2.898635
v 7.563549 -3.785804 -0.342026
v 5.515049 -0.010904 -11.426545
v 7.563549 -3.785804 -0.342026
v 9.453801 5.442854 -1.521224
v 8.011948 4.292595 9.960053
v 9.453801 5.442854 -1.521224
v 7.563549 -3.785804 -0.342026
v 8.011948 4.292595 9.960053
v 4.937648 10.805593 5.364366
v 9.453801 5.442854 -1.521224
v 5.224699 -4.591017 11.976455
v 7.563549 -3.785804 -0.342026
v 1.542847 -11.789408 -2.898635
v 8.011948 4.292595 9.960053
v 7.563549 -3.785804 -0.342026
v 5.224699 -4.591017 11.976455
v -3.476048 -8.709800 3.339036
v -0.955949 -6.467295 12.283951
v 1.542847 -11.789408 -2.898635
v 5.224699 -4.591017 11.976455
v 1.542847 -11.789408 -2.898635
v -0.955949 -6.467295 12.283951
v -6.947152 0.059088 10.363860
v -5.248950 6.546301 10.900526
v -0.955949 -6.467295 12.283951
v 5.224699 -4.591017 11.976455
v -0.955949 -6.467295 12.283951
v -5.248950 6.546301 10.900526
v 8.011948 4.292595 9.960053
v 5.224699 -4.591017 11.976455
v -5.248950 6.546301 10.900526
v 8.011948 4.292595 9.960053
v -5.248950 6.546301 10.900526
v 4.937648 10.805593 5.364366
v -3.339153 11.215093 5.942764
v 4.937648 10.805593 5.364366
v -5.248950 6.546301 10.900526
v -5.453253 0.622704 -11.591949
v -0.062451 -2.547798 -14.512343
v -3.080753 7.663703 -6.847334
v 5.515049 -0.010904 -11.426545
v -3.080753 7.663703 -6.847334
v -0.062451 -2.547798 -14.512343
v 5.515049 -0.010904 -11.426545
v 9.453801 5.442854 -1.521224
v -3.080753 7.663703 -6.847334
v 9.453801 5.442854 -1.521224
v 4.937648 10.805593 5.364366
v -3.080753 7.663703 -6.847334
v -3.339153 11.215093 5.942764
v -3.080753 7.663703 -6.847334
v 4.937648 10.805593 5.364366
vt 0.233643 0.039551
vt 0.106018 0.001953
vt 0.062195 0.176758
vt 0.233643 0.039551
vt 0.062195 0.176758
vt 0.309570 0.249023
vt 0.233643 0.039551
vt 0.309570 0.249023
vt 0.360352 0.029297
vt 0.451660 0.125977
vt 0.360352 0.029297
vt 0.309570 0.249023
vt 0.451660 0.125977
vt 0.309570 0.249023
vt 0.382324 0.375977
vt 0.244629 0.468750
vt 0.382324 0.375977
vt 0.309570 0.249023
vt 0.244629 0.468750
vt 0.309570 0.249023
vt 0.062195 0.176758
vt 0.244629 0.468750
vt 0.062195 0.176758
vt 0.001991 0.298828
vt 0.244629 0.468750
vt 0.001991 0.298828
vt 0.182617 0.525879
vt 0.688477 0.062500
vt 0.638672 0.001953
vt 0.458008 0.229004
vt 0.688477 0.062500
vt 0.458008 0.229004
vt 0.614746 0.279297
vt 0.688477 0.062500
vt 0.614746 0.279297
vt 0.794922 0.256348
vt 0.772461 0.480469
vt 0.794922 0.256348
vt 0.614746 0.279297
vt 0.772461 0.480469
vt 0.899902 0.390625
vt 0.794922 0.256348
vt 0.598633 0.520020
vt 0.614746 0.279297
vt 0.458008 0.229004
vt 0.772461 0.480469
vt 0.614746 0.279297
vt 0.598633 0.520020
vt 0.231567 0.651855
vt 0.280762 0.826782
vt 0.329590 0.530029
vt 0.401611 0.820801
vt 0.329590 0.530029
vt 0.280762 0.826782
vt 0.407715 0.657471
vt 0.440918 0.784302
vt 0.524902 0.530029
vt 0.645508 0.566650
vt 0.524902 0.530029
vt 0.440918 0.784302
vt 0.700195 0.740234
vt 0.645508 0.566650
vt 0.440918 0.784302
vt 0.700195 0.740234
vt 0.440918 0.784302
vt 0.640137 0.867676
vt 0.478271 0.875610
vt 0.640137 0.867676
vt 0.440918 0.784302
vt 0.706055 0.866699
vt 0.811523 0.923828
vt 0.752441 0.773926
vt 0.920898 0.863525
vt 0.752441 0.773926
vt 0.811523 0.923828
vt 0.920898 0.863525
vt 0.997559 0.669922
vt 0.752441 0.773926
vt 0.997559 0.669922
vt 0.909668 0.535156
vt 0.752441 0.773926
vt 0.747559 0.523926
vt 0.752441 0.773926
vt 0.909668 0.535156
vn -0.839530 -0.227006 0.493151
vn -0.246575 -0.592955 0.767123
vn -0.751468 -0.655577 0.054795
vn -0.839530 -0.227006 0.493151
vn -0.751468 -0.655577 0.054795
vn -0.972603 0.227006 -0.050881
vn -0.839530 -0.227006 0.493151
vn -0.972603 0.227006 -0.050881
vn -0.295499 0.418787 0.859100
vn -0.410959 0.902153 0.125245
vn -0.295499 0.418787 0.859100
vn -0.972603 0.227006 -0.050881
vn -0.410959 0.902153 0.125245
vn -0.972603 0.227006 -0.050881
vn -0.095890 0.818004 -0.567515
vn -0.806262 -0.166341 -0.567515
vn -0.095890 0.818004 -0.567515
vn -0.972603 0.227006 -0.050881
vn -0.806262 -0.166341 -0.567515
vn -0.972603 0.227006 -0.050881
vn -0.751468 -0.655577 0.054795
vn -0.806262 -0.166341 -0.567515
vn -0.751468 -0.655577 0.054795
vn 0.178082 -0.968689 -0.168297
vn -0.806262 -0.166341 -0.567515
vn 0.178082 -0.968689 -0.168297
vn 0.001957 -0.019569 -1.000000
vn 0.757339 0.011742 -0.653620
vn 0.001957 -0.019569 -1.000000
vn 0.178082 -0.968689 -0.168297
vn 0.757339 0.011742 -0.653620
vn 0.178082 -0.968689 -0.168297
vn 0.927593 -0.373777 -0.041096
vn 0.757339 0.011742 -0.653620
vn 0.927593 -0.373777 -0.041096
vn 0.872798 0.422701 -0.246575
vn 0.792564 0.227006 0.567515
vn 0.872798 0.422701 -0.246575
vn 0.927593 -0.373777 -0.041096
vn 0.792564 0.227006 0.567515
vn 0.360078 0.904110 0.230920
vn 0.872798 0.422701 -0.246575
vn 0.581213 -0.399217 0.708415
vn 0.927593 -0.373777 -0.041096
vn 0.178082 -0.968689 -0.168297
vn 0.792564 0.227006 0.567515
vn 0.927593 -0.373777 -0.041096
vn 0.581213 -0.399217 0.708415
vn -0.751468 -0.655577 0.054795
vn -0.246575 -0.592955 0.767123
vn 0.178082 -0.968689 -0.168297
vn 0.581213 -0.399217 0.708415
vn 0.178082 -0.968689 -0.168297
vn -0.246575 -0.592955 0.767123
vn -0.839530 -0.227006 0.493151
vn -0.295499 0.418787 0.859100
vn -0.246575 -0.592955 0.767123
vn 0.581213 -0.399217 0.708415
vn -0.246575 -0.592955 0.767123
vn -0.295499 0.418787 0.859100
vn 0.792564 0.227006 0.567515
vn 0.581213 -0.399217 0.708415
vn -0.295499 0.418787 0.859100
vn 0.792564 0.227006 0.567515
vn -0.295499 0.418787 0.859100
vn 0.360078 0.904110 0.230920
vn -0.410959 0.902153 0.125245
vn 0.360078 0.904110 0.230920
vn -0.295499 0.418787 0.859100
vn -0.806262 -0.166341 -0.567515
vn 0.001957 -0.019569 -1.000000
vn -0.095890 0.818004 -0.567515
vn 0.757339 0.011742 -0.653620
vn -0.095890 0.818004 -0.567515
vn 0.001957 -0.019569 -1.000000
vn 0.757339 0.011742 -0.653620
vn 0.872798 0.422701 -0.246575
vn -0.095890 0.818004 -0.567515
vn 0.872798 0.422701 -0.246575
vn 0.360078 0.904110 0.230920
vn -0.095890 0.818004 -0.567515
vn -0.410959 0.902153 0.125245
vn -0.095890 0.818004 -0.567515
vn 0.360078 0.904110 0.230920
mtllib mtl_nt_2020_manne_male01_pants1.mtl
g mtl_nt_2020_manne_male01_pants1
usemtl mtl_nt_2020_manne_male01_pants1
f 3/3/3 2/2/2 1/1/1
f 6/6/6 5/5/5 4/4/4
f 9/9/9 8/8/8 7/7/7
f 12/12/12 11/11/11 10/10/10
f 15/15/15 14/14/14 13/13/13
f 18/18/18 17/17/17 16/16/16
f 21/21/21 20/20/20 19/19/19
f 24/24/24 23/23/23 22/22/22
f 27/27/27 26/26/26 25/25/25
f 30/30/30 29/29/29 28/28/28
f 33/33/33 32/32/32 31/31/31
f 36/36/36 35/35/35 34/34/34
f 39/39/39 38/38/38 37/37/37
f 42/42/42 41/41/41 40/40/40
f 45/45/45 44/44/44 43/43/43
f 48/48/48 47/47/47 46/46/46
f 51/51/51 50/50/50 49/49/49
f 54/54/54 53/53/53 52/52/52
f 57/57/57 56/56/56 55/55/55
f 60/60/60 59/59/59 58/58/58
f 63/63/63 62/62/62 61/61/61
f 66/66/66 65/65/65 64/64/64
f 69/69/69 68/68/68 67/67/67
f 72/72/72 71/71/71 70/70/70
f 75/75/75 74/74/74 73/73/73
f 78/78/78 77/77/77 76/76/76
f 81/81/81 80/80/80 79/79/79
f 84/84/84 83/83/83 82/82/82
