# Generated by Wraith - Game extraction tools
# Please credit DTZxPorter for using it!

v -34.316566 5.024286 66.322426
v -34.316566 18.374546 132.644852
v -3.491017 18.374546 132.644852
v -5.375862 0.275787 66.322426
v -34.316566 5.024286 66.322426
v -3.491017 18.374546 132.644852
v -5.375862 0.275787 66.322426
v -34.316566 10.881865 0.000000
v -34.316566 5.024286 66.322426
v 32.005859 -9.894619 0.000000
v -34.316566 10.881865 0.000000
v -5.375862 0.275787 66.322426
v -5.375862 0.275787 66.322426
v 32.005859 -5.857685 66.322426
v 32.005859 -9.894619 0.000000
v 32.005859 -5.857685 66.322426
v -5.375862 0.275787 66.322426
v -3.491017 18.374546 132.644852
v 32.005859 -5.857685 66.322426
v -3.491017 18.374546 132.644852
v 32.005859 18.374546 132.644852
v -5.586849 -28.500130 55.122841
v -16.682709 -28.500130 110.245682
v -16.682709 -1.491992 110.245682
v -1.846164 -5.701745 55.122841
v -5.586849 -28.500130 55.122841
v -16.682709 -1.491992 110.245682
v -1.846164 -5.701745 55.122841
v -10.455277 -28.500130 0.000000
v -5.586849 -28.500130 55.122841
v 6.812768 26.622715 0.000000
v -10.455277 -28.500130 0.000000
v -1.846164 -5.701745 55.122841
v -1.846164 -5.701745 55.122841
v 3.457532 26.622715 55.122841
v 6.812768 26.622715 0.000000
v 3.457532 26.622715 55.122841
v -1.846164 -5.701745 55.122841
v -16.682709 -1.491992 110.245682
v 3.457532 26.622715 55.122841
v -16.682709 -1.491992 110.245682
v -16.682709 26.622715 110.245682
v -2.594653 18.214672 132.506027
v 10.370724 25.063663 146.656433
v 10.370724 6.727855 128.320633
v 10.370724 25.063663 146.656433
v -2.594653 18.214672 132.506027
v -15.560025 25.063663 146.656433
v -2.594653 18.214672 132.506027
v -15.560025 6.727855 128.320633
v -15.560025 25.063663 146.656433
v -15.560025 6.727855 128.320633
v -2.594653 18.214672 132.506027
v 10.370724 6.727855 128.320633
v -17.393190 -1.420049 110.627518
v -23.085613 9.355921 122.388420
v -7.846098 9.355921 107.148872
v -23.085613 9.355921 122.388420
v -17.393190 -1.420049 110.627518
v -23.085613 -12.196019 122.388420
v -17.393190 -1.420049 110.627518
v -7.846098 -12.196019 107.148872
v -23.085613 -12.196019 122.388420
v -7.846098 -12.196019 107.148872
v -17.393190 -1.420049 110.627518
v -7.846098 9.355921 107.148872
v 14.999597 4.682786 96.467049
v 18.700331 13.771708 105.937325
v 26.588228 4.371293 93.665939
v 18.700331 13.771708 105.937325
v 14.999597 4.682786 96.467049
v 5.406126 2.616546 105.937309
v 14.999597 4.682786 96.467049
v 13.294024 -6.783869 93.665939
v 5.406126 2.616546 105.937309
v 13.294024 -6.783869 93.665939
v 14.999597 4.682786 96.467049
v 26.588228 4.371293 93.665939
vt 0.005669 0.395508
vt 0.005669 0.759155
vt 0.174072 0.759155
vt 0.163818 0.395508
vt 0.005669 0.395508
vt 0.174072 0.759155
vt 0.163818 0.395508
vt 0.005669 0.005859
vt 0.005669 0.395508
vt 0.368164 0.005859
vt 0.005669 0.005859
vt 0.163818 0.395508
vt 0.163818 0.395508
vt 0.368164 0.395508
vt 0.368164 0.005859
vt 0.368164 0.395508
vt 0.163818 0.395508
vt 0.174072 0.759155
vt 0.368164 0.395508
vt 0.174072 0.759155
vt 0.368164 0.759155
vt 0.005669 0.395508
vt 0.005669 0.759155
vt 0.183228 0.759155
vt 0.155518 0.395508
vt 0.005669 0.395508
vt 0.183228 0.759155
vt 0.155518 0.395508
vt 0.005669 0.005859
vt 0.005669 0.395508
vt 0.368164 0.005859
vt 0.005669 0.005859
vt 0.155518 0.395508
vt 0.155518 0.395508
vt 0.368164 0.395508
vt 0.368164 0.005859
vt 0.368164 0.395508
vt 0.155518 0.395508
vt 0.183228 0.759155
vt 0.368164 0.395508
vt 0.183228 0.759155
vt 0.368164 0.759155
vt 0.458740 0.873413
vt 0.595215 0.999529
vt 0.595215 0.732910
vt 0.595215 0.999529
vt 0.458740 0.873413
vt 0.306152 0.999529
vt 0.458740 0.873413
vt 0.306152 0.732910
vt 0.306152 0.999529
vt 0.306152 0.732910
vt 0.458740 0.873413
vt 0.595215 0.732910
vt 0.458740 0.873413
vt 0.595215 0.999529
vt 0.595215 0.732910
vt 0.595215 0.999529
vt 0.458740 0.873413
vt 0.306152 0.999529
vt 0.458740 0.873413
vt 0.306152 0.732910
vt 0.306152 0.999529
vt 0.306152 0.732910
vt 0.458740 0.873413
vt 0.595215 0.732910
vt 0.457275 0.873413
vt 0.595215 0.999529
vt 0.595215 0.732910
vt 0.595215 0.999529
vt 0.457275 0.873413
vt 0.306152 0.999529
vt 0.457275 0.873413
vt 0.306152 0.732910
vt 0.306152 0.999529
vt 0.306152 0.732910
vt 0.457275 0.873413
vt 0.595215 0.732910
vn -0.107632 -0.986301 0.127202
vn 0.000000 -0.980431 0.197652
vn -0.078278 -0.960861 0.268102
vn -0.189824 -0.976517 0.097847
vn -0.107632 -0.986301 0.127202
vn -0.078278 -0.960861 0.268102
vn -0.189824 -0.976517 0.097847
vn -0.230920 -0.970646 -0.054795
vn -0.107632 -0.986301 0.127202
vn -0.230920 -0.972603 0.019569
vn -0.230920 -0.970646 -0.054795
vn -0.189824 -0.976517 0.097847
vn -0.189824 -0.976517 0.097847
vn -0.107632 -0.968689 0.225049
vn -0.230920 -0.972603 0.019569
vn -0.107632 -0.968689 0.225049
vn -0.189824 -0.976517 0.097847
vn -0.078278 -0.960861 0.268102
vn -0.107632 -0.968689 0.225049
vn -0.078278 -0.960861 0.268102
vn 0.000000 -0.939335 0.342466
vn 0.986301 -0.107632 0.127202
vn 0.980431 0.000000 0.197652
vn 0.958904 -0.078278 0.270059
vn 0.976517 -0.189824 0.097847
vn 0.986301 -0.107632 0.127202
vn 0.958904 -0.078278 0.270059
vn 0.976517 -0.189824 0.097847
vn 0.970646 -0.230920 -0.056751
vn 0.986301 -0.107632 0.127202
vn 0.972603 -0.230920 0.017613
vn 0.970646 -0.230920 -0.056751
vn 0.976517 -0.189824 0.097847
vn 0.976517 -0.189824 0.097847
vn 0.968689 -0.107632 0.225049
vn 0.972603 -0.230920 0.017613
vn 0.968689 -0.107632 0.225049
vn 0.976517 -0.189824 0.097847
vn 0.958904 -0.078278 0.270059
vn 0.968689 -0.107632 0.225049
vn 0.958904 -0.078278 0.270059
vn 0.939335 0.000000 0.342466
vn 0.000000 -0.688845 0.724070
vn -0.191781 -0.804305 0.563601
vn -0.191781 -0.520548 0.831703
vn -0.191781 -0.804305 0.563601
vn 0.000000 -0.688845 0.724070
vn 0.191781 -0.804305 0.563601
vn 0.000000 -0.688845 0.724070
vn 0.191781 -0.520548 0.831703
vn 0.191781 -0.804305 0.563601
vn 0.191781 -0.520548 0.831703
vn 0.000000 -0.688845 0.724070
vn -0.191781 -0.520548 0.831703
vn 0.688845 0.000000 0.724070
vn 0.804305 -0.191781 0.563601
vn 0.520548 -0.191781 0.831703
vn 0.804305 -0.191781 0.563601
vn 0.688845 0.000000 0.724070
vn 0.804305 0.191781 0.563601
vn 0.688845 0.000000 0.724070
vn 0.520548 0.191781 0.831703
vn 0.804305 0.191781 0.563601
vn 0.520548 0.191781 0.831703
vn 0.688845 0.000000 0.724070
vn 0.520548 -0.191781 0.831703
vn 0.442270 -0.528376 0.724070
vn 0.369863 -0.737769 0.563601
vn 0.187867 -0.522505 0.831703
vn 0.369863 -0.737769 0.563601
vn 0.442270 -0.528376 0.724070
vn 0.663405 -0.493151 0.563601
vn 0.442270 -0.528376 0.724070
vn 0.481409 -0.273973 0.831703
vn 0.663405 -0.493151 0.563601
vn 0.481409 -0.273973 0.831703
vn 0.442270 -0.528376 0.724070
vn 0.187867 -0.522505 0.831703
mtllib t5_foliage_flowers03.mtl
g t5_foliage_flowers03
usemtl t5_foliage_flowers03
f 3/3/3 2/2/2 1/1/1
f 6/6/6 5/5/5 4/4/4
f 9/9/9 8/8/8 7/7/7
f 12/12/12 11/11/11 10/10/10
f 15/15/15 14/14/14 13/13/13
f 18/18/18 17/17/17 16/16/16
f 21/21/21 20/20/20 19/19/19
f 24/24/24 23/23/23 22/22/22
f 27/27/27 26/26/26 25/25/25
f 30/30/30 29/29/29 28/28/28
f 33/33/33 32/32/32 31/31/31
f 36/36/36 35/35/35 34/34/34
f 39/39/39 38/38/38 37/37/37
f 42/42/42 41/41/41 40/40/40
f 45/45/45 44/44/44 43/43/43
f 48/48/48 47/47/47 46/46/46
f 51/51/51 50/50/50 49/49/49
f 54/54/54 53/53/53 52/52/52
f 57/57/57 56/56/56 55/55/55
f 60/60/60 59/59/59 58/58/58
f 63/63/63 62/62/62 61/61/61
f 66/66/66 65/65/65 64/64/64
f 69/69/69 68/68/68 67/67/67
f 72/72/72 71/71/71 70/70/70
f 75/75/75 74/74/74 73/73/73
f 78/78/78 77/77/77 76/76/76
