# Generated by Wraith - Game extraction tools
# Please credit DTZxPorter for using it!

v -34.316559 10.881865 0.000000
v 32.005856 -5.857685 66.322426
v 32.005856 -9.894619 0.000000
v 32.005856 -5.857685 66.322426
v -34.316559 10.881865 0.000000
v -34.316559 5.024286 66.322426
v -34.316559 18.374546 132.644852
v 32.005856 -5.857685 66.322426
v -34.316559 5.024286 66.322426
v 32.005856 -5.857685 66.322426
v -34.316559 18.374546 132.644852
v 32.005856 18.374546 132.644852
v -15.560019 25.063663 146.656433
v 10.370724 6.727855 128.320633
v -15.560019 6.727855 128.320633
v 10.370724 6.727855 128.320633
v -15.560019 25.063663 146.656433
v 10.370724 25.063663 146.656433
v -10.455273 -28.500130 0.000000
v 3.457541 26.622715 55.122841
v 6.812782 26.622715 0.000000
v 3.457541 26.622715 55.122841
v -10.455273 -28.500130 0.000000
v -5.586849 -28.500130 55.122841
v -16.682703 -28.500130 110.245682
v 3.457541 26.622715 55.122841
v -5.586849 -28.500130 55.122841
v 3.457541 26.622715 55.122841
v -16.682703 -28.500130 110.245682
v -16.682703 26.622715 110.245682
v -23.085606 -12.196019 122.388420
v -7.846091 9.355921 107.148872
v -7.846091 -12.196019 107.148872
v -7.846091 9.355921 107.148872
v -23.085606 -12.196019 122.388420
v -23.085606 9.355921 122.388420
v 18.700331 13.771708 105.937325
v 13.294033 -6.783869 93.665939
v 5.406124 2.616546 105.937309
v 13.294033 -6.783869 93.665939
v 18.700331 13.771708 105.937325
v 26.588242 4.371293 93.665939
vt 0.005669 0.005859
vt 0.368164 0.395508
vt 0.368164 0.005859
vt 0.368164 0.395508
vt 0.005669 0.005859
vt 0.005669 0.395508
vt 0.005669 0.759155
vt 0.368164 0.395508
vt 0.005669 0.395508
vt 0.368164 0.395508
vt 0.005669 0.759155
vt 0.368164 0.759155
vt 0.306152 0.999529
vt 0.595215 0.732910
vt 0.306152 0.732910
vt 0.595215 0.732910
vt 0.306152 0.999529
vt 0.595215 0.999529
vt 0.005669 0.005859
vt 0.368164 0.395508
vt 0.368164 0.005859
vt 0.368164 0.395508
vt 0.005669 0.005859
vt 0.005669 0.395508
vt 0.005669 0.759155
vt 0.368164 0.395508
vt 0.005669 0.395508
vt 0.368164 0.395508
vt 0.005669 0.759155
vt 0.368164 0.759155
vt 0.306152 0.999529
vt 0.595215 0.732910
vt 0.306152 0.732910
vt 0.595215 0.732910
vt 0.306152 0.999529
vt 0.595215 0.999529
vt 0.595215 0.999529
vt 0.306152 0.732910
vt 0.306152 0.999529
vt 0.306152 0.732910
vt 0.595215 0.999529
vt 0.595215 0.732910
vn -0.230920 -0.972603 -0.013699
vn -0.158513 -0.978474 0.129159
vn -0.299413 -0.953033 0.058708
vn -0.158513 -0.978474 0.129159
vn -0.230920 -0.972603 -0.013699
vn -0.162427 -0.986301 0.054795
vn -0.080235 -0.958904 0.270059
vn -0.158513 -0.978474 0.129159
vn -0.162427 -0.986301 0.054795
vn -0.158513 -0.978474 0.129159
vn -0.080235 -0.958904 0.270059
vn 0.000000 -0.939335 0.342466
vn 0.000000 -0.706458 0.706458
vn 0.000000 -0.706458 0.706458
vn 0.000000 -0.706458 0.706458
vn 0.000000 -0.706458 0.706458
vn 0.000000 -0.706458 0.706458
vn 0.000000 -0.706458 0.706458
vn 0.972603 -0.230920 -0.013699
vn 0.978474 -0.158513 0.129159
vn 0.953033 -0.299413 0.058708
vn 0.978474 -0.158513 0.129159
vn 0.972603 -0.230920 -0.013699
vn 0.986301 -0.162427 0.054795
vn 0.958904 -0.080235 0.270059
vn 0.978474 -0.158513 0.129159
vn 0.986301 -0.162427 0.054795
vn 0.978474 -0.158513 0.129159
vn 0.958904 -0.080235 0.270059
vn 0.939335 0.000000 0.342466
vn 0.706458 0.000000 0.706458
vn 0.706458 0.000000 0.706458
vn 0.706458 0.000000 0.706458
vn 0.706458 0.000000 0.706458
vn 0.706458 0.000000 0.706458
vn 0.706458 0.000000 0.706458
vn 0.454012 -0.542074 0.706458
vn 0.454012 -0.542074 0.706458
vn 0.454012 -0.542074 0.706458
vn 0.454012 -0.542074 0.706458
vn 0.454012 -0.542074 0.706458
vn 0.454012 -0.542074 0.706458
mtllib t5_foliage_flowers03.mtl
g t5_foliage_flowers03
usemtl t5_foliage_flowers03
f 3/3/3 2/2/2 1/1/1
f 6/6/6 5/5/5 4/4/4
f 9/9/9 8/8/8 7/7/7
f 12/12/12 11/11/11 10/10/10
f 15/15/15 14/14/14 13/13/13
f 18/18/18 17/17/17 16/16/16
f 21/21/21 20/20/20 19/19/19
f 24/24/24 23/23/23 22/22/22
f 27/27/27 26/26/26 25/25/25
f 30/30/30 29/29/29 28/28/28
f 33/33/33 32/32/32 31/31/31
f 36/36/36 35/35/35 34/34/34
f 39/39/39 38/38/38 37/37/37
f 42/42/42 41/41/41 40/40/40
