# Generated by Wraith - Game extraction tools
# Please credit DTZxPorter for using it!

v 10.522839 4.782190 76.081863
v 10.522841 1.791823 76.081833
v -0.040688 3.287004 72.945808
v -0.906600 3.287004 26.442398
v 15.247638 -0.992927 33.030090
v 15.247638 7.566935 33.030102
v 2.204118 3.162699 17.120787
v -16.178122 -0.032794 20.193691
v 2.204118 -3.228281 17.120787
v -18.143890 -0.032794 40.077072
v 2.284677 3.939062 47.453236
v 2.284677 -4.004635 47.453236
v -11.993929 11.993929 4.264886
v 11.993929 11.993929 4.264886
v -11.993929 -11.993929 4.264886
v 11.993929 11.993929 4.264886
v 11.993929 -11.993929 4.264886
v -11.993929 -11.993929 4.264886
v 11.993929 11.993929 4.264886
v 11.993929 11.993929 0.000000
v 11.993929 -11.993929 4.264886
v 11.993929 11.993929 0.000000
v 11.993929 -11.993929 0.000000
v 11.993929 -11.993929 4.264886
v 11.993929 11.993929 0.000000
v -11.993929 11.993929 0.000000
v 11.993929 -11.993929 0.000000
v -11.993929 11.993929 0.000000
v -11.993929 -11.993929 -0.000000
v 11.993929 -11.993929 0.000000
v -11.993929 11.993929 0.000000
v -11.993929 11.993929 4.264886
v -11.993929 -11.993929 -0.000000
v -11.993929 11.993929 4.264886
v -11.993929 -11.993929 4.264886
v -11.993929 -11.993929 -0.000000
v -11.993929 -11.993929 4.264886
v 11.993929 -11.993929 4.264886
v -11.993929 -11.993929 -0.000000
v 11.993929 -11.993929 4.264886
v 11.993929 -11.993929 0.000000
v -11.993929 -11.993929 -0.000000
v -11.993929 11.993929 0.000000
v 11.993929 11.993929 0.000000
v -11.993929 11.993929 4.264886
v 11.993929 11.993929 0.000000
v 11.993929 11.993929 4.264886
v -11.993929 11.993929 4.264886
v 14.456323 7.064641 55.163929
v 15.247638 7.566935 33.030102
v 15.247638 -0.992927 33.030090
v 14.456326 -0.490631 55.163918
v 14.456323 7.064641 55.163929
v 15.247638 -0.992927 33.030090
v 10.522839 4.782190 76.081863
v 14.456323 7.064641 55.163929
v 14.456326 -0.490631 55.163918
v 10.522841 1.791823 76.081833
v 10.522839 4.782190 76.081863
v 14.456326 -0.490631 55.163918
v 2.187395 1.846814 70.464363
v 2.187392 4.727199 70.464386
v 3.208495 0.753618 32.865273
v 2.187392 4.727199 70.464386
v 3.208492 5.820392 32.865280
v 3.208495 0.753618 32.865273
v 6.312103 1.573992 71.479446
v 6.312101 5.000018 71.479454
v 2.187395 1.846814 70.464363
v 6.312101 5.000018 71.479454
v 2.187392 4.727199 70.464386
v 2.187395 1.846814 70.464363
v 3.208495 0.753618 32.865273
v 3.208492 5.820392 32.865280
v 10.110534 -0.314394 35.595413
v 3.208492 5.820392 32.865280
v 10.110531 6.888401 35.595421
v 10.110534 -0.314394 35.595413
v -14.887554 -2.166610 22.803665
v -15.931970 -1.840560 36.848663
v -14.887554 2.101025 22.803665
v -15.931970 -1.840560 36.848663
v -15.931970 1.774975 36.848663
v -14.887554 2.101025 22.803665
v -3.721275 3.110413 23.142836
v -3.905761 3.117626 39.439499
v -3.721275 -3.151484 23.142836
v -3.905761 3.117626 39.439499
v -3.905761 -3.170951 39.439499
v -3.721275 -3.151484 23.142836
v -15.931970 1.774975 36.848663
v -15.931970 -1.840560 36.848663
v -3.905761 3.117626 39.439499
v -15.931970 -1.840560 36.848663
v -3.905761 -3.170951 39.439499
v -3.905761 3.117626 39.439499
v -3.721275 3.110413 23.142836
v -3.721275 -3.151484 23.142836
v -14.887554 2.101025 22.803665
v -3.721275 -3.151484 23.142836
v -14.887554 -2.166610 22.803665
v -14.887554 2.101025 22.803665
v 2.204118 3.162699 17.120787
v 2.204118 -3.228281 17.120787
v 3.764501 -4.264251 32.788406
v 3.764501 4.223184 32.788406
v 2.204118 3.162699 17.120787
v 3.764501 -4.264251 32.788406
v 2.284677 3.939062 47.453236
v 3.764501 4.223184 32.788406
v 3.764501 -4.264251 32.788406
v 2.284677 -4.004635 47.453236
v 2.284677 3.939062 47.453236
v 3.764501 -4.264251 32.788406
v 10.110531 6.888401 35.595421
v 6.312101 5.000018 71.479454
v 10.110534 -0.314394 35.595413
v 10.110534 -0.314394 35.595413
v 6.312101 5.000018 71.479454
v 6.312103 1.573992 71.479446
v -18.143890 -0.032794 40.077072
v 2.284677 -4.004635 47.453236
v -3.905761 -3.170951 39.439499
v 3.764501 -4.264251 32.788406
v -3.905761 -3.170951 39.439499
v 2.284677 -4.004635 47.453236
v 3.764501 -4.264251 32.788406
v -3.721275 -3.151484 23.142836
v -3.905761 -3.170951 39.439499
v 3.764501 -4.264251 32.788406
v 2.204118 -3.228281 17.120787
v -3.721275 -3.151484 23.142836
v -3.721275 -3.151484 23.142836
v 2.204118 -3.228281 17.120787
v -16.178122 -0.032794 20.193691
v -14.887554 -2.166610 22.803665
v -3.721275 -3.151484 23.142836
v -16.178122 -0.032794 20.193691
v -15.931970 -1.840560 36.848663
v -14.887554 -2.166610 22.803665
v -16.178122 -0.032794 20.193691
v -18.143890 -0.032794 40.077072
v -15.931970 -1.840560 36.848663
v -16.178122 -0.032794 20.193691
v -15.931970 -1.840560 36.848663
v -18.143890 -0.032794 40.077072
v -3.905761 -3.170951 39.439499
v -15.931970 1.774975 36.848663
v -3.905761 3.117626 39.439499
v -18.143890 -0.032794 40.077072
v -3.905761 3.117626 39.439499
v 2.284677 3.939062 47.453236
v -18.143890 -0.032794 40.077072
v -3.905761 3.117626 39.439499
v 3.764501 4.223184 32.788406
v 2.284677 3.939062 47.453236
v -3.721275 3.110413 23.142836
v 3.764501 4.223184 32.788406
v -3.905761 3.117626 39.439499
v -3.721275 3.110413 23.142836
v 2.204118 3.162699 17.120787
v 3.764501 4.223184 32.788406
v 2.204118 3.162699 17.120787
v -3.721275 3.110413 23.142836
v -16.178122 -0.032794 20.193691
v -3.721275 3.110413 23.142836
v -14.887554 2.101025 22.803665
v -16.178122 -0.032794 20.193691
v -14.887554 2.101025 22.803665
v -15.931970 1.774975 36.848663
v -16.178122 -0.032794 20.193691
v -15.931970 1.774975 36.848663
v -18.143890 -0.032794 40.077072
v -16.178122 -0.032794 20.193691
v -0.040688 3.287004 72.945808
v 10.522841 1.791823 76.081833
v 6.312103 1.573992 71.479446
v 14.456326 -0.490631 55.163918
v 6.312103 1.573992 71.479446
v 10.522841 1.791823 76.081833
v 14.456326 -0.490631 55.163918
v 10.110534 -0.314394 35.595413
v 6.312103 1.573992 71.479446
v 14.456326 -0.490631 55.163918
v 15.247638 -0.992927 33.030090
v 10.110534 -0.314394 35.595413
v 3.208495 0.753618 32.865273
v 10.110534 -0.314394 35.595413
v 15.247638 -0.992927 33.030090
v -0.906600 3.287004 26.442398
v 3.208495 0.753618 32.865273
v 15.247638 -0.992927 33.030090
v -0.906600 3.287004 26.442398
v -0.040688 3.287004 72.945808
v 3.208495 0.753618 32.865273
v -0.040688 3.287004 72.945808
v 2.187395 1.846814 70.464363
v 3.208495 0.753618 32.865273
v 2.187395 1.846814 70.464363
v -0.040688 3.287004 72.945808
v 6.312103 1.573992 71.479446
v 6.312101 5.000018 71.479454
v 14.456323 7.064641 55.163929
v 10.522839 4.782190 76.081863
v 10.110531 6.888401 35.595421
v 14.456323 7.064641 55.163929
v 6.312101 5.000018 71.479454
v 10.110531 6.888401 35.595421
v 15.247638 7.566935 33.030102
v 14.456323 7.064641 55.163929
v 10.110531 6.888401 35.595421
v 3.208492 5.820392 32.865280
v 15.247638 7.566935 33.030102
v 3.208492 5.820392 32.865280
v -0.906600 3.287004 26.442398
v 15.247638 7.566935 33.030102
v -0.040688 3.287004 72.945808
v -0.906600 3.287004 26.442398
v 3.208492 5.820392 32.865280
v 10.522839 4.782190 76.081863
v -0.040688 3.287004 72.945808
v 6.312101 5.000018 71.479454
v -0.040688 3.287004 72.945808
v 2.187392 4.727199 70.464386
v 6.312101 5.000018 71.479454
v 2.187392 4.727199 70.464386
v -0.040688 3.287004 72.945808
v 3.208492 5.820392 32.865280
vt 0.636230 0.084961
vt 0.606934 0.084961
vt 0.621582 0.209961
vt 0.216553 0.394043
vt 0.015076 0.359375
vt 0.015076 0.428223
vt 0.445068 0.359375
vt 0.237305 0.387695
vt 0.445068 0.416016
vt 0.404053 0.123047
vt 0.583496 0.162109
vt 0.583496 0.083984
vt 0.240234 0.613281
vt 0.240234 0.814575
vt 0.480957 0.613281
vt 0.240234 0.814575
vt 0.480957 0.814575
vt 0.480957 0.613281
vt 0.240234 0.613281
vt 0.240234 0.814575
vt 0.480957 0.613281
vt 0.240234 0.814575
vt 0.480957 0.814575
vt 0.480957 0.613281
vt 0.240234 0.613281
vt 0.240234 0.814575
vt 0.480957 0.613281
vt 0.240234 0.814575
vt 0.480957 0.814575
vt 0.480957 0.613281
vt 0.240234 0.613281
vt 0.240234 0.814575
vt 0.480957 0.613281
vt 0.240234 0.814575
vt 0.480957 0.814575
vt 0.480957 0.613281
vt 0.240234 0.613281
vt 0.240234 0.814575
vt 0.480957 0.613281
vt 0.240234 0.814575
vt 0.480957 0.814575
vt 0.480957 0.613281
vt 0.240234 0.613281
vt 0.240234 0.814575
vt 0.480957 0.613281
vt 0.240234 0.814575
vt 0.480957 0.814575
vt 0.480957 0.613281
vt 0.275879 0.005371
vt 0.006901 0.005371
vt 0.006901 0.074219
vt 0.275879 0.074219
vt 0.275879 0.005371
vt 0.006901 0.074219
vt 0.537598 0.005371
vt 0.275879 0.005371
vt 0.275879 0.074219
vt 0.537598 0.074219
vt 0.537598 0.005371
vt 0.275879 0.074219
vt 0.006901 0.256836
vt 0.006901 0.305176
vt 0.419434 0.256836
vt 0.006901 0.305176
vt 0.419434 0.305176
vt 0.419434 0.256836
vt 0.511719 0.395020
vt 0.511719 0.359375
vt 0.461182 0.395020
vt 0.511719 0.359375
vt 0.461182 0.359375
vt 0.461182 0.395020
vt 0.534180 0.305176
vt 0.534180 0.240234
vt 0.452393 0.305176
vt 0.534180 0.240234
vt 0.452393 0.240234
vt 0.452393 0.305176
vt 0.625000 0.405762
vt 0.470459 0.405762
vt 0.625000 0.449707
vt 0.470459 0.405762
vt 0.470459 0.449707
vt 0.625000 0.449707
vt 0.017197 0.509033
vt 0.200806 0.509033
vt 0.017197 0.435547
vt 0.200806 0.509033
vt 0.200806 0.435547
vt 0.017197 0.435547
vt 0.425537 0.171875
vt 0.425537 0.229004
vt 0.559570 0.171875
vt 0.425537 0.229004
vt 0.559570 0.229004
vt 0.559570 0.171875
vt 0.555664 0.389648
vt 0.613770 0.389648
vt 0.555664 0.267090
vt 0.613770 0.389648
vt 0.613770 0.267090
vt 0.555664 0.267090
vt 0.017334 0.083984
vt 0.017334 0.169922
vt 0.207642 0.169922
vt 0.207642 0.083984
vt 0.017334 0.083984
vt 0.207642 0.169922
vt 0.380615 0.083984
vt 0.207642 0.083984
vt 0.207642 0.169922
vt 0.380615 0.169922
vt 0.380615 0.083984
vt 0.207642 0.169922
vt 0.006901 0.247070
vt 0.415771 0.247070
vt 0.006901 0.179688
vt 0.006901 0.179688
vt 0.415771 0.247070
vt 0.415771 0.179688
vt 0.169800 0.548584
vt 0.036621 0.952911
vt 0.189331 0.827393
vt 0.322754 0.974731
vt 0.189331 0.827393
vt 0.036621 0.952911
vt 0.322754 0.974731
vt 0.506348 0.822510
vt 0.189331 0.827393
vt 0.322754 0.974731
vt 0.626953 0.934387
vt 0.506348 0.822510
vt 0.506348 0.822510
vt 0.626953 0.934387
vt 0.557617 0.577637
vt 0.507324 0.604248
vt 0.506348 0.822510
vt 0.557617 0.577637
vt 0.233765 0.590576
vt 0.507324 0.604248
vt 0.557617 0.577637
vt 0.169800 0.548584
vt 0.233765 0.590576
vt 0.557617 0.577637
vt 0.233765 0.590576
vt 0.169800 0.548584
vt 0.189331 0.827393
vt 1.233398 0.590576
vt 1.188477 0.827393
vt 1.168945 0.548584
vt 1.188477 0.827393
vt 1.036133 0.952911
vt 1.168945 0.548584
vt 1.188477 0.827393
vt 1.322266 0.974731
vt 1.036133 0.952911
vt 1.505859 0.822510
vt 1.322266 0.974731
vt 1.188477 0.827393
vt 1.505859 0.822510
vt 1.626953 0.934387
vt 1.322266 0.974731
vt 1.626953 0.934387
vt 1.505859 0.822510
vt 1.557617 0.577637
vt 1.505859 0.822510
vt 1.506836 0.604248
vt 1.557617 0.577637
vt 1.506836 0.604248
vt 1.233398 0.590576
vt 1.557617 0.577637
vt 1.233398 0.590576
vt 1.168945 0.548584
vt 1.557617 0.577637
vt 0.679688 0.913391
vt 0.883301 0.975555
vt 0.803223 0.885559
vt 0.964844 0.569824
vt 0.803223 0.885559
vt 0.883301 0.975555
vt 0.964844 0.569824
vt 0.881348 0.191406
vt 0.803223 0.885559
vt 0.964844 0.569824
vt 0.981934 0.141602
vt 0.881348 0.191406
vt 0.746582 0.138184
vt 0.881348 0.191406
vt 0.981934 0.141602
vt 0.666016 0.014160
vt 0.746582 0.138184
vt 0.981934 0.141602
vt 0.666016 0.014160
vt 0.679688 0.913391
vt 0.746582 0.138184
vt 0.679688 0.913391
vt 0.723145 0.865601
vt 0.746582 0.138184
vt 0.723145 0.865601
vt 0.679688 0.913391
vt 0.803223 0.885559
vt 1.802734 0.885559
vt 1.964844 0.569824
vt 1.882813 0.975555
vt 1.880859 0.191406
vt 1.964844 0.569824
vt 1.802734 0.885559
vt 1.880859 0.191406
vt 1.981445 0.141602
vt 1.964844 0.569824
vt 1.880859 0.191406
vt 1.746094 0.138184
vt 1.981445 0.141602
vt 1.746094 0.138184
vt 1.666016 0.014160
vt 1.981445 0.141602
vt 1.679688 0.913391
vt 1.666016 0.014160
vt 1.746094 0.138184
vt 1.882813 0.975555
vt 1.679688 0.913391
vt 1.802734 0.885559
vt 1.679688 0.913391
vt 1.722656 0.865601
vt 1.802734 0.885559
vt 1.722656 0.865601
vt 1.679688 0.913391
vt 1.746094 0.138184
vn -0.283757 0.000000 0.958904
vn -0.283757 0.000000 0.958904
vn -0.283757 0.000000 0.958904
vn 0.377691 0.000000 -0.925636
vn 0.866928 0.000000 -0.497065
vn 0.866928 0.000000 -0.497065
vn -0.164384 0.000000 -0.986301
vn -0.164384 0.000000 -0.986301
vn -0.164384 0.000000 -0.986301
vn -0.340509 0.000000 0.941292
vn -0.340509 0.000000 0.941292
vn -0.340509 0.000000 0.941292
vn 0.000000 0.000000 1.000000
vn 0.000000 0.000000 1.000000
vn 0.000000 0.000000 1.000000
vn 0.000000 0.000000 1.000000
vn 0.000000 0.000000 1.000000
vn 0.000000 0.000000 1.000000
vn 1.000000 0.000000 0.000000
vn 1.000000 0.000000 0.000000
vn 1.000000 0.000000 0.000000
vn 1.000000 0.000000 0.000000
vn 1.000000 0.000000 0.000000
vn 1.000000 0.000000 0.000000
vn 0.000000 0.000000 -1.000000
vn 0.000000 0.000000 -1.000000
vn 0.000000 0.000000 -1.000000
vn 0.000000 0.000000 -1.000000
vn 0.000000 0.000000 -1.000000
vn 0.000000 0.000000 -1.000000
vn -1.000000 0.000000 0.000000
vn -1.000000 0.000000 0.000000
vn -1.000000 0.000000 0.000000
vn -1.000000 0.000000 0.000000
vn -1.000000 0.000000 0.000000
vn -1.000000 0.000000 0.000000
vn 0.000000 -1.000000 0.000000
vn 0.000000 -1.000000 0.000000
vn 0.000000 -1.000000 0.000000
vn 0.000000 -1.000000 0.000000
vn 0.000000 -1.000000 0.000000
vn 0.000000 -1.000000 0.000000
vn 0.000000 1.000000 0.000000
vn 0.000000 1.000000 0.000000
vn 0.000000 1.000000 0.000000
vn 0.000000 1.000000 0.000000
vn 0.000000 1.000000 0.000000
vn 0.000000 1.000000 0.000000
vn 0.994129 0.000000 0.107632
vn 0.866928 0.000000 -0.497065
vn 0.866928 0.000000 -0.497065
vn 0.994129 0.000000 0.107632
vn 0.994129 0.000000 0.107632
vn 0.866928 0.000000 -0.497065
vn 0.982387 0.000000 0.183953
vn 0.994129 0.000000 0.107632
vn 0.994129 0.000000 0.107632
vn 0.982387 0.000000 0.183953
vn 0.982387 0.000000 0.183953
vn 0.994129 0.000000 0.107632
vn 0.790607 0.000000 -0.612524
vn 0.790607 0.000000 -0.612524
vn 1.000000 0.000000 0.027397
vn 0.790607 0.000000 -0.612524
vn 1.000000 0.000000 0.027397
vn 1.000000 0.000000 0.027397
vn 0.238748 0.000000 -0.970646
vn 0.238748 0.000000 -0.970646
vn 0.790607 0.000000 -0.612524
vn 0.238748 0.000000 -0.970646
vn 0.790607 0.000000 -0.612524
vn 0.790607 0.000000 -0.612524
vn -0.367906 0.000000 0.929550
vn -0.367906 0.000000 0.929550
vn -0.866928 0.000000 0.497065
vn -0.367906 0.000000 0.929550
vn -0.866928 0.000000 0.497065
vn -0.866928 0.000000 0.497065
vn 0.643836 0.000000 0.765166
vn 0.786693 0.000000 -0.616438
vn 0.643836 0.000000 0.765166
vn 0.786693 0.000000 -0.616438
vn 0.786693 0.000000 -0.616438
vn 0.643836 0.000000 0.765166
vn -0.741683 0.000000 0.671233
vn -0.657534 0.000000 -0.753425
vn -0.741683 0.000000 0.671233
vn -0.657534 0.000000 -0.753425
vn -0.657534 0.000000 -0.753425
vn -0.741683 0.000000 0.671233
vn 0.786693 0.000000 -0.616438
vn 0.786693 0.000000 -0.616438
vn -0.657534 0.000000 -0.753425
vn 0.786693 0.000000 -0.616438
vn -0.657534 0.000000 -0.753425
vn -0.657534 0.000000 -0.753425
vn -0.741683 0.000000 0.671233
vn -0.741683 0.000000 0.671233
vn 0.643836 0.000000 0.765166
vn -0.741683 0.000000 0.671233
vn 0.643836 0.000000 0.765166
vn 0.643836 0.000000 0.765166
vn 0.994129 0.000000 -0.099804
vn 0.994129 0.000000 -0.099804
vn 1.000000 0.000000 0.001957
vn 1.000000 0.000000 0.001957
vn 0.994129 0.000000 -0.099804
vn 1.000000 0.000000 0.001957
vn 0.994129 0.000000 0.099804
vn 1.000000 0.000000 0.001957
vn 1.000000 0.000000 0.001957
vn 0.994129 0.000000 0.099804
vn 0.994129 0.000000 0.099804
vn 1.000000 0.000000 0.001957
vn -0.866928 0.000000 0.497065
vn -0.994129 0.000000 -0.105675
vn -0.866928 0.000000 0.497065
vn -0.866928 0.000000 0.497065
vn -0.994129 0.000000 -0.105675
vn -0.994129 0.000000 -0.105675
vn -0.978474 0.000000 0.209393
vn -0.168297 -0.984344 0.068493
vn -0.174168 -0.982387 0.078278
vn -0.129159 -0.992172 -0.011742
vn -0.174168 -0.982387 0.078278
vn -0.168297 -0.984344 0.068493
vn -0.129159 -0.992172 -0.011742
vn -0.127202 -0.976517 -0.176125
vn -0.174168 -0.982387 0.078278
vn -0.129159 -0.992172 -0.011742
vn -0.111546 -0.980431 -0.166341
vn -0.127202 -0.976517 -0.176125
vn -0.127202 -0.976517 -0.176125
vn -0.111546 -0.980431 -0.166341
vn -0.882583 0.000000 -0.469667
vn -0.508806 -0.839530 -0.187867
vn -0.127202 -0.976517 -0.176125
vn -0.882583 0.000000 -0.469667
vn -0.540117 -0.841487 0.037182
vn -0.508806 -0.839530 -0.187867
vn -0.882583 0.000000 -0.469667
vn -0.978474 0.000000 0.209393
vn -0.540117 -0.841487 0.037182
vn -0.882583 0.000000 -0.469667
vn -0.540117 -0.841487 0.037182
vn -0.978474 0.000000 0.209393
vn -0.174168 -0.982387 0.078278
vn -0.540117 0.839530 0.037182
vn -0.174168 0.982387 0.080235
vn -0.978474 0.000000 0.209393
vn -0.174168 0.982387 0.080235
vn -0.168297 0.982387 0.070450
vn -0.978474 0.000000 0.209393
vn -0.174168 0.982387 0.080235
vn -0.129159 0.992172 -0.011742
vn -0.168297 0.982387 0.070450
vn -0.127202 0.976517 -0.178082
vn -0.129159 0.992172 -0.011742
vn -0.174168 0.982387 0.080235
vn -0.127202 0.976517 -0.178082
vn -0.109589 0.980431 -0.168297
vn -0.129159 0.992172 -0.011742
vn -0.109589 0.980431 -0.168297
vn -0.127202 0.976517 -0.178082
vn -0.882583 0.000000 -0.469667
vn -0.127202 0.976517 -0.178082
vn -0.508806 0.839530 -0.189824
vn -0.882583 0.000000 -0.469667
vn -0.508806 0.839530 -0.189824
vn -0.540117 0.839530 0.037182
vn -0.882583 0.000000 -0.469667
vn -0.540117 0.839530 0.037182
vn -0.978474 0.000000 0.209393
vn -0.882583 0.000000 -0.469667
vn -0.904110 0.000000 0.428571
vn -0.107632 -0.980431 0.166341
vn -0.136986 -0.972603 0.185910
vn -0.168297 -0.984344 0.037182
vn -0.136986 -0.972603 0.185910
vn -0.107632 -0.980431 0.166341
vn -0.168297 -0.984344 0.037182
vn -0.135029 -0.986301 -0.101761
vn -0.136986 -0.972603 0.185910
vn -0.168297 -0.984344 0.037182
vn -0.129159 -0.988258 -0.086106
vn -0.135029 -0.986301 -0.101761
vn -0.344423 -0.933464 -0.107632
vn -0.135029 -0.986301 -0.101761
vn -0.129159 -0.988258 -0.086106
vn -0.960861 0.000000 -0.279843
vn -0.344423 -0.933464 -0.107632
vn -0.129159 -0.988258 -0.086106
vn -0.960861 0.000000 -0.279843
vn -0.904110 0.000000 0.428571
vn -0.344423 -0.933464 -0.107632
vn -0.904110 0.000000 0.428571
vn -0.385519 -0.911937 0.135029
vn -0.344423 -0.933464 -0.107632
vn -0.385519 -0.911937 0.135029
vn -0.904110 0.000000 0.428571
vn -0.136986 -0.972603 0.185910
vn -0.136986 0.972603 0.185910
vn -0.168297 0.984344 0.037182
vn -0.107632 0.980431 0.166341
vn -0.135029 0.986301 -0.101761
vn -0.168297 0.984344 0.037182
vn -0.136986 0.972603 0.185910
vn -0.135029 0.986301 -0.101761
vn -0.129159 0.988258 -0.086106
vn -0.168297 0.984344 0.037182
vn -0.135029 0.986301 -0.101761
vn -0.344423 0.933464 -0.107632
vn -0.129159 0.988258 -0.086106
vn -0.344423 0.933464 -0.107632
vn -0.960861 0.000000 -0.279843
vn -0.129159 0.988258 -0.086106
vn -0.904110 0.000000 0.428571
vn -0.960861 0.000000 -0.279843
vn -0.344423 0.933464 -0.107632
vn -0.107632 0.980431 0.166341
vn -0.904110 0.000000 0.428571
vn -0.136986 0.972603 0.185910
vn -0.904110 0.000000 0.428571
vn -0.385519 0.911937 0.135029
vn -0.136986 0.972603 0.185910
vn -0.385519 0.911937 0.135029
vn -0.904110 0.000000 0.428571
vn -0.344423 0.933464 -0.107632
mtllib mtl_nt_2020_sculpture_01.mtl
g mtl_nt_2020_sculpture_01
usemtl mtl_nt_2020_sculpture_01
f 3/3/3 2/2/2 1/1/1
f 6/6/6 5/5/5 4/4/4
f 9/9/9 8/8/8 7/7/7
f 12/12/12 11/11/11 10/10/10
f 15/15/15 14/14/14 13/13/13
f 18/18/18 17/17/17 16/16/16
f 21/21/21 20/20/20 19/19/19
f 24/24/24 23/23/23 22/22/22
f 27/27/27 26/26/26 25/25/25
f 30/30/30 29/29/29 28/28/28
f 33/33/33 32/32/32 31/31/31
f 36/36/36 35/35/35 34/34/34
f 39/39/39 38/38/38 37/37/37
f 42/42/42 41/41/41 40/40/40
f 45/45/45 44/44/44 43/43/43
f 48/48/48 47/47/47 46/46/46
f 51/51/51 50/50/50 49/49/49
f 54/54/54 53/53/53 52/52/52
f 57/57/57 56/56/56 55/55/55
f 60/60/60 59/59/59 58/58/58
f 63/63/63 62/62/62 61/61/61
f 66/66/66 65/65/65 64/64/64
f 69/69/69 68/68/68 67/67/67
f 72/72/72 71/71/71 70/70/70
f 75/75/75 74/74/74 73/73/73
f 78/78/78 77/77/77 76/76/76
f 81/81/81 80/80/80 79/79/79
f 84/84/84 83/83/83 82/82/82
f 87/87/87 86/86/86 85/85/85
f 90/90/90 89/89/89 88/88/88
f 93/93/93 92/92/92 91/91/91
f 96/96/96 95/95/95 94/94/94
f 99/99/99 98/98/98 97/97/97
f 102/102/102 101/101/101 100/100/100
f 105/105/105 104/104/104 103/103/103
f 108/108/108 107/107/107 106/106/106
f 111/111/111 110/110/110 109/109/109
f 114/114/114 113/113/113 112/112/112
f 117/117/117 116/116/116 115/115/115
f 120/120/120 119/119/119 118/118/118
f 123/123/123 122/122/122 121/121/121
f 126/126/126 125/125/125 124/124/124
f 129/129/129 128/128/128 127/127/127
f 132/132/132 131/131/131 130/130/130
f 135/135/135 134/134/134 133/133/133
f 138/138/138 137/137/137 136/136/136
f 141/141/141 140/140/140 139/139/139
f 144/144/144 143/143/143 142/142/142
f 147/147/147 146/146/146 145/145/145
f 150/150/150 149/149/149 148/148/148
f 153/153/153 152/152/152 151/151/151
f 156/156/156 155/155/155 154/154/154
f 159/159/159 158/158/158 157/157/157
f 162/162/162 161/161/161 160/160/160
f 165/165/165 164/164/164 163/163/163
f 168/168/168 167/167/167 166/166/166
f 171/171/171 170/170/170 169/169/169
f 174/174/174 173/173/173 172/172/172
f 177/177/177 176/176/176 175/175/175
f 180/180/180 179/179/179 178/178/178
f 183/183/183 182/182/182 181/181/181
f 186/186/186 185/185/185 184/184/184
f 189/189/189 188/188/188 187/187/187
f 192/192/192 191/191/191 190/190/190
f 195/195/195 194/194/194 193/193/193
f 198/198/198 197/197/197 196/196/196
f 201/201/201 200/200/200 199/199/199
f 204/204/204 203/203/203 202/202/202
f 207/207/207 206/206/206 205/205/205
f 210/210/210 209/209/209 208/208/208
f 213/213/213 212/212/212 211/211/211
f 216/216/216 215/215/215 214/214/214
f 219/219/219 218/218/218 217/217/217
f 222/222/222 221/221/221 220/220/220
f 225/225/225 224/224/224 223/223/223
f 228/228/228 227/227/227 226/226/226
