# Generated by Wraith - Game extraction tools
# Please credit DTZxPorter for using it!

v -55.541504 61.289154 -0.275336
v -47.880638 61.289154 -16.427902
v -47.880638 61.289154 10.414488
v -55.541504 51.846035 -0.275336
v -47.880638 51.846035 10.414488
v -47.880638 51.846035 -16.427902
v -55.541504 -51.432873 -0.275336
v -47.880638 -51.432873 -16.427902
v -47.880638 -51.432873 10.414488
v -55.541504 -60.875992 -0.275336
v -47.880638 -60.875992 10.414488
v -47.880638 -60.875992 -16.427902
v 0.000000 64.379890 46.300362
v -40.354649 64.379890 37.992302
v 40.354649 64.379890 37.992302
v -40.354649 48.264969 37.992302
v 0.000000 48.264969 46.300362
v 40.354649 48.264969 37.992302
v 0.000000 -48.264969 46.300362
v -40.354649 -48.264969 37.992302
v 40.354649 -48.264969 37.992302
v -40.354649 -64.379890 37.992302
v 0.000000 -64.379890 46.300362
v 40.354649 -64.379890 37.992302
v -55.541504 51.846035 -0.275336
v -55.541504 61.289154 -0.275336
v -47.880638 51.846035 10.414488
v -55.541504 61.289154 -0.275336
v -47.880638 61.289154 10.414488
v -47.880638 51.846035 10.414488
v -55.541504 61.289154 -0.275336
v -55.541504 51.846035 -0.275336
v -47.880638 61.289154 -16.427902
v -55.541504 51.846035 -0.275336
v -47.880638 51.846035 -16.427902
v -47.880638 61.289154 -16.427902
v -55.541504 -60.875992 -0.275336
v -55.541504 -51.432873 -0.275336
v -47.880638 -60.875992 10.414488
v -55.541504 -51.432873 -0.275336
v -47.880638 -51.432873 10.414488
v -47.880638 -60.875992 10.414488
v -55.541504 -51.432873 -0.275336
v -55.541504 -60.875992 -0.275336
v -47.880638 -51.432873 -16.427902
v -55.541504 -60.875992 -0.275336
v -47.880638 -60.875992 -16.427902
v -47.880638 -51.432873 -16.427902
v -39.974457 -77.943161 -44.383362
v 39.974483 -77.943161 -44.383362
v -39.974457 77.943161 -44.383362
v 39.974483 -77.943161 -44.383362
v 39.974483 77.943161 -44.383362
v -39.974457 77.943161 -44.383362
v -47.896336 -77.943161 -35.362270
v -39.974457 -77.943161 -44.383362
v -39.974457 77.943161 -44.383362
v -47.896336 77.943161 -35.362270
v -47.896336 -77.943161 -35.362270
v -39.974457 77.943161 -44.383362
v -47.896336 -77.943161 -35.362270
v -47.896336 77.943161 -35.362270
v -47.896336 -77.943161 30.070381
v -47.896336 77.943161 -35.362270
v -47.896336 77.943161 30.070381
v -47.896336 -77.943161 30.070381
v -47.896336 -77.943161 30.070381
v -47.896336 77.943161 30.070381
v -39.974457 77.943161 39.091545
v -39.974457 -77.943161 39.091545
v -47.896336 -77.943161 30.070381
v -39.974457 77.943161 39.091545
v -39.974457 77.943161 39.091545
v 39.974491 77.943161 39.091545
v -39.974457 -77.943161 39.091545
v 39.974491 77.943161 39.091545
v 39.974491 -77.943161 39.091545
v -39.974457 -77.943161 39.091545
v 39.974491 -77.943161 39.091545
v 39.974491 77.943161 39.091545
v 47.896370 77.943161 30.070381
v 47.896370 -77.943161 30.070381
v 39.974491 -77.943161 39.091545
v 47.896370 77.943161 30.070381
v 47.896370 -77.943161 -35.362263
v 47.896370 -77.943161 30.070381
v 47.896370 77.943161 30.070381
v 47.896370 77.943161 -35.362263
v 47.896370 -77.943161 -35.362263
v 47.896370 77.943161 30.070381
v 47.896370 -77.943161 -35.362263
v 47.896370 77.943161 -35.362263
v 39.974483 77.943161 -44.383362
v 39.974483 -77.943161 -44.383362
v 47.896370 -77.943161 -35.362263
v 39.974483 77.943161 -44.383362
v 0.000000 64.379890 46.300362
v 40.354649 64.379890 37.992302
v 40.354649 48.264969 37.992302
v 0.000000 48.264969 46.300362
v 0.000000 64.379890 46.300362
v 40.354649 48.264969 37.992302
v -40.354649 64.379890 37.992302
v 0.000000 64.379890 46.300362
v 0.000000 48.264969 46.300362
v -40.354649 48.264969 37.992302
v -40.354649 64.379890 37.992302
v 0.000000 48.264969 46.300362
v 0.000000 -48.264969 46.300362
v 40.354649 -48.264969 37.992302
v 40.354649 -64.379890 37.992302
v 0.000000 -64.379890 46.300362
v 0.000000 -48.264969 46.300362
v 40.354649 -64.379890 37.992302
v -40.354649 -48.264969 37.992302
v 0.000000 -48.264969 46.300362
v 0.000000 -64.379890 46.300362
v -40.354649 -64.379890 37.992302
v -40.354649 -48.264969 37.992302
v 0.000000 -64.379890 46.300362
v 39.974491 90.584366 30.070381
v 39.974491 77.943161 39.091545
v -39.974457 77.943161 39.091545
v 47.896370 77.943161 30.070381
v 39.974491 77.943161 39.091545
v 39.974491 90.584366 30.070381
v 47.896370 77.943161 -35.362263
v 47.896370 77.943161 30.070381
v 39.974491 90.584366 30.070381
v 39.974483 90.584366 -35.362263
v 47.896370 77.943161 -35.362263
v 39.974491 90.584366 30.070381
v 39.974483 90.584366 -35.362263
v 39.974483 77.943161 -44.383362
v 47.896370 77.943161 -35.362263
v 39.974483 77.943161 -44.383362
v 39.974483 90.584366 -35.362263
v -39.974457 90.584366 -35.362270
v -39.974457 77.943161 -44.383362
v 39.974483 77.943161 -44.383362
v -39.974457 90.584366 -35.362270
v -39.974457 90.584366 30.070381
v 39.974491 90.584366 30.070381
v -39.974457 77.943161 39.091545
v 39.974483 90.584366 -35.362263
v 39.974491 90.584366 30.070381
v -39.974457 90.584366 30.070381
v -39.974457 90.584366 -35.362270
v 39.974483 90.584366 -35.362263
v -39.974457 90.584366 30.070381
v -39.974457 90.584366 30.070381
v -47.896336 77.943161 30.070381
v -39.974457 90.584366 -35.362270
v -47.896336 77.943161 30.070381
v -47.896336 77.943161 -35.362270
v -39.974457 90.584366 -35.362270
v -47.896336 77.943161 -35.362270
v -39.974457 77.943161 -44.383362
v -39.974457 90.584366 -35.362270
v -39.974457 90.584366 30.070381
v -39.974457 77.943161 39.091545
v -47.896336 77.943161 30.070381
v -47.896336 -77.943161 -35.362270
v -47.896336 -77.943161 30.070381
v -39.974457 -90.584366 -35.362270
v -47.896336 -77.943161 30.070381
v -39.974457 -90.584366 30.070381
v -39.974457 -90.584366 -35.362270
v -39.974457 -90.584366 30.070381
v 39.974491 -90.584366 30.070381
v -39.974457 -90.584366 -35.362270
v 39.974491 -90.584366 30.070381
v 39.974483 -90.584366 -35.362263
v -39.974457 -90.584366 -35.362270
v -39.974457 -90.584366 -35.362270
v 39.974483 -90.584366 -35.362263
v -39.974457 -77.943161 -44.383362
v -39.974457 -90.584366 -35.362270
v -39.974457 -77.943161 -44.383362
v -47.896336 -77.943161 -35.362270
v -39.974457 -77.943161 39.091545
v -39.974457 -90.584366 30.070381
v -47.896336 -77.943161 30.070381
v -39.974457 -77.943161 39.091545
v 39.974491 -77.943161 39.091545
v -39.974457 -90.584366 30.070381
v 39.974491 -77.943161 39.091545
v 39.974491 -90.584366 30.070381
v -39.974457 -90.584366 30.070381
v 39.974491 -90.584366 30.070381
v 39.974491 -77.943161 39.091545
v 47.896370 -77.943161 30.070381
v 47.896370 -77.943161 30.070381
v 47.896370 -77.943161 -35.362263
v 39.974491 -90.584366 30.070381
v 47.896370 -77.943161 -35.362263
v 39.974483 -90.584366 -35.362263
v 39.974491 -90.584366 30.070381
v 39.974483 -77.943161 -44.383362
v 39.974483 -90.584366 -35.362263
v 47.896370 -77.943161 -35.362263
v 39.974483 -90.584366 -35.362263
v 39.974483 -77.943161 -44.383362
v -39.974457 -77.943161 -44.383362
vt 0.115295 0.393066
vt 0.222534 0.352051
vt 0.048248 0.341309
vt 0.115295 0.393066
vt 0.048248 0.341309
vt 0.222534 0.352539
vt 0.115295 0.393066
vt 0.222534 0.352051
vt 0.048248 0.341309
vt 0.115295 0.393066
vt 0.048248 0.341309
vt 0.222534 0.352539
vt 0.043304 0.853149
vt -0.000280 0.609131
vt -0.000280 1.097107
vt -0.000411 1.096863
vt 0.043182 0.852905
vt -0.000412 0.608887
vt 0.043304 0.853149
vt -0.000280 0.609131
vt -0.000280 1.097107
vt -0.000411 1.096863
vt 0.043182 0.852905
vt -0.000412 0.608887
vt 0.117859 0.307129
vt 0.117859 0.247070
vt 0.028275 0.307129
vt 0.117859 0.247070
vt 0.028275 0.247070
vt 0.028275 0.307129
vt 0.117859 0.247070
vt 0.117859 0.307129
vt 0.217285 0.247070
vt 0.117859 0.307129
vt 0.217285 0.307129
vt 0.217285 0.247070
vt 0.117859 0.307129
vt 0.117859 0.247070
vt 0.028275 0.307129
vt 0.117859 0.247070
vt 0.028275 0.247070
vt 0.028275 0.307129
vt 0.117859 0.247070
vt 0.117859 0.307129
vt 0.217285 0.247070
vt 0.117859 0.307129
vt 0.217285 0.307129
vt 0.217285 0.247070
vt 0.965332 0.026367
vt 0.791016 0.026367
vt 0.965332 0.379883
vt 0.791016 0.026367
vt 0.791016 0.379883
vt 0.965332 0.379883
vt 0.722168 0.238281
vt 0.722168 0.205078
vt 0.279785 0.205078
vt 0.279785 0.238281
vt 0.722168 0.238281
vt 0.279785 0.205078
vt 0.722168 0.238281
vt 0.279785 0.238281
vt 0.722168 0.413574
vt 0.279785 0.238281
vt 0.279785 0.413574
vt 0.722168 0.413574
vt 0.722168 0.413574
vt 0.279785 0.413574
vt 0.279785 0.446777
vt 0.722168 0.446777
vt 0.722168 0.413574
vt 0.279785 0.446777
vt 0.279785 0.446777
vt 0.279541 0.704590
vt 0.722168 0.446777
vt 0.279541 0.704590
vt 0.722168 0.704590
vt 0.722168 0.446777
vt 0.722168 0.704590
vt 0.279541 0.704590
vt 0.279541 0.737549
vt 0.722168 0.737549
vt 0.722168 0.704590
vt 0.279541 0.737549
vt 0.722168 0.912842
vt 0.722168 0.737549
vt 0.279541 0.737549
vt 0.279541 0.912842
vt 0.722168 0.912842
vt 0.279541 0.737549
vt 0.722168 0.912842
vt 0.279541 0.912842
vt 0.279541 0.945923
vt 0.722168 0.945923
vt 0.722168 0.912842
vt 0.279541 0.945923
vt 0.053589 0.857178
vt 0.053589 1.059570
vt 0.134277 1.059570
vt 0.134277 0.857178
vt 0.053589 0.857178
vt 0.134277 1.059570
vt 0.053589 0.654785
vt 0.053589 0.857178
vt 0.134277 0.857178
vt 0.134277 0.654785
vt 0.053589 0.654785
vt 0.134277 0.857178
vt 0.053589 0.857178
vt 0.053589 1.059570
vt 0.134277 1.059570
vt 0.134277 0.857178
vt 0.053589 0.857178
vt 0.134277 1.059570
vt 0.053589 0.654785
vt 0.053589 0.857178
vt 0.134277 0.857178
vt 0.134277 0.654785
vt 0.053589 0.654785
vt 0.134277 0.857178
vt 0.216675 0.683350
vt 0.247925 0.687256
vt 0.247925 0.463867
vt 0.217285 0.715088
vt 0.247925 0.687256
vt 0.216675 0.683350
vt 0.039551 0.715088
vt 0.217285 0.715088
vt 0.216675 0.683350
vt 0.040161 0.683350
vt 0.039551 0.715088
vt 0.216675 0.683350
vt 0.040161 0.683350
vt 0.008934 0.687256
vt 0.039551 0.715088
vt 0.008934 0.687256
vt 0.040161 0.683350
vt 0.040161 0.467773
vt 0.008934 0.463867
vt 0.008934 0.687256
vt 0.040161 0.467773
vt 0.216675 0.467773
vt 0.216675 0.683350
vt 0.247925 0.463867
vt 0.040161 0.683350
vt 0.216675 0.683350
vt 0.216675 0.467773
vt 0.040161 0.467773
vt 0.040161 0.683350
vt 0.216675 0.467773
vt 0.216675 0.467773
vt 0.217285 0.436035
vt 0.040161 0.467773
vt 0.217285 0.436035
vt 0.039551 0.436035
vt 0.040161 0.467773
vt 0.039551 0.436035
vt 0.008934 0.463867
vt 0.040161 0.467773
vt 0.216675 0.467773
vt 0.247925 0.463867
vt 0.217285 0.436035
vt 0.960938 0.435547
vt 0.783691 0.435547
vt 0.959961 0.468262
vt 0.783691 0.435547
vt 0.784668 0.468262
vt 0.959961 0.468262
vt 0.784668 0.468262
vt 0.784668 0.682617
vt 0.959961 0.468262
vt 0.784668 0.682617
vt 0.959961 0.682617
vt 0.959961 0.468262
vt 0.959961 0.468262
vt 0.959961 0.682617
vt 0.990234 0.466797
vt 0.959961 0.468262
vt 0.990234 0.466797
vt 0.960938 0.435547
vt 0.754395 0.466797
vt 0.784668 0.468262
vt 0.783691 0.435547
vt 0.754395 0.466797
vt 0.754395 0.684326
vt 0.784668 0.468262
vt 0.754395 0.684326
vt 0.784668 0.682617
vt 0.784668 0.468262
vt 0.784668 0.682617
vt 0.754395 0.684326
vt 0.783691 0.715332
vt 0.783691 0.715332
vt 0.960938 0.715332
vt 0.784668 0.682617
vt 0.960938 0.715332
vt 0.959961 0.682617
vt 0.784668 0.682617
vt 0.990234 0.684326
vt 0.959961 0.682617
vt 0.960938 0.715332
vt 0.959961 0.682617
vt 0.990234 0.684326
vt 0.990234 0.466797
vn 0.000000 1.000000 0.000000
vn 0.000000 1.000000 0.000000
vn 0.000000 1.000000 0.000000
vn 0.000000 -1.000000 0.000000
vn 0.000000 -1.000000 0.000000
vn 0.000000 -1.000000 0.000000
vn 0.000000 1.000000 0.000000
vn 0.000000 1.000000 0.000000
vn 0.000000 1.000000 0.000000
vn 0.000000 -1.000000 0.000000
vn 0.000000 -1.000000 0.000000
vn 0.000000 -1.000000 0.000000
vn 0.000000 1.000000 0.000000
vn 0.000000 1.000000 0.000000
vn 0.000000 1.000000 0.000000
vn 0.000000 -1.000000 0.000000
vn 0.000000 -1.000000 0.000000
vn 0.000000 -1.000000 0.000000
vn 0.000000 1.000000 0.000000
vn 0.000000 1.000000 0.000000
vn 0.000000 1.000000 0.000000
vn 0.000000 -1.000000 0.000000
vn 0.000000 -1.000000 0.000000
vn 0.000000 -1.000000 0.000000
vn -0.812133 0.000000 0.583170
vn -0.812133 0.000000 0.583170
vn -0.812133 0.000000 0.583170
vn -0.812133 0.000000 0.583170
vn -0.812133 0.000000 0.583170
vn -0.812133 0.000000 0.583170
vn -0.904110 0.000000 -0.428571
vn -0.904110 0.000000 -0.428571
vn -0.904110 0.000000 -0.428571
vn -0.904110 0.000000 -0.428571
vn -0.904110 0.000000 -0.428571
vn -0.904110 0.000000 -0.428571
vn -0.812133 0.000000 0.583170
vn -0.812133 0.000000 0.583170
vn -0.812133 0.000000 0.583170
vn -0.812133 0.000000 0.583170
vn -0.812133 0.000000 0.583170
vn -0.812133 0.000000 0.583170
vn -0.904110 0.000000 -0.428571
vn -0.904110 0.000000 -0.428571
vn -0.904110 0.000000 -0.428571
vn -0.904110 0.000000 -0.428571
vn -0.904110 0.000000 -0.428571
vn -0.904110 0.000000 -0.428571
vn -0.097847 -0.097847 -0.990215
vn 0.097847 -0.097847 -0.990215
vn -0.097847 0.097847 -0.990215
vn 0.097847 -0.097847 -0.990215
vn 0.097847 0.097847 -0.990215
vn -0.097847 0.097847 -0.990215
vn -0.990215 -0.097847 -0.097847
vn -0.097847 -0.097847 -0.990215
vn -0.097847 0.097847 -0.990215
vn -0.990215 0.097847 -0.097847
vn -0.990215 -0.097847 -0.097847
vn -0.097847 0.097847 -0.990215
vn -0.990215 -0.097847 -0.097847
vn -0.990215 0.097847 -0.097847
vn -0.990215 -0.097847 0.097847
vn -0.990215 0.097847 -0.097847
vn -0.990215 0.097847 0.097847
vn -0.990215 -0.097847 0.097847
vn -0.990215 -0.097847 0.097847
vn -0.990215 0.097847 0.097847
vn -0.097847 0.097847 0.990215
vn -0.097847 -0.097847 0.990215
vn -0.990215 -0.097847 0.097847
vn -0.097847 0.097847 0.990215
vn -0.097847 0.097847 0.990215
vn 0.097847 0.097847 0.990215
vn -0.097847 -0.097847 0.990215
vn 0.097847 0.097847 0.990215
vn 0.097847 -0.097847 0.990215
vn -0.097847 -0.097847 0.990215
vn 0.097847 -0.097847 0.990215
vn 0.097847 0.097847 0.990215
vn 0.990215 0.097847 0.097847
vn 0.990215 -0.097847 0.097847
vn 0.097847 -0.097847 0.990215
vn 0.990215 0.097847 0.097847
vn 0.990215 -0.097847 -0.097847
vn 0.990215 -0.097847 0.097847
vn 0.990215 0.097847 0.097847
vn 0.990215 0.097847 -0.097847
vn 0.990215 -0.097847 -0.097847
vn 0.990215 0.097847 0.097847
vn 0.990215 -0.097847 -0.097847
vn 0.990215 0.097847 -0.097847
vn 0.097847 0.097847 -0.990215
vn 0.097847 -0.097847 -0.990215
vn 0.990215 -0.097847 -0.097847
vn 0.097847 0.097847 -0.990215
vn 0.000000 0.000000 1.000000
vn 0.201566 0.000000 0.980431
vn 0.201566 0.000000 0.980431
vn 0.000000 0.000000 1.000000
vn 0.000000 0.000000 1.000000
vn 0.201566 0.000000 0.980431
vn -0.201566 0.000000 0.980431
vn 0.000000 0.000000 1.000000
vn 0.000000 0.000000 1.000000
vn -0.201566 0.000000 0.980431
vn -0.201566 0.000000 0.980431
vn 0.000000 0.000000 1.000000
vn 0.000000 0.000000 1.000000
vn 0.201566 0.000000 0.980431
vn 0.201566 0.000000 0.980431
vn 0.000000 0.000000 1.000000
vn 0.000000 0.000000 1.000000
vn 0.201566 0.000000 0.980431
vn -0.201566 0.000000 0.980431
vn 0.000000 0.000000 1.000000
vn 0.000000 0.000000 1.000000
vn -0.201566 0.000000 0.980431
vn -0.201566 0.000000 0.980431
vn 0.000000 0.000000 1.000000
vn 0.097847 0.990215 0.097847
vn 0.097847 0.097847 0.990215
vn -0.097847 0.097847 0.990215
vn 0.990215 0.097847 0.097847
vn 0.097847 0.097847 0.990215
vn 0.097847 0.990215 0.097847
vn 0.990215 0.097847 -0.097847
vn 0.990215 0.097847 0.097847
vn 0.097847 0.990215 0.097847
vn 0.097847 0.990215 -0.097847
vn 0.990215 0.097847 -0.097847
vn 0.097847 0.990215 0.097847
vn 0.097847 0.990215 -0.097847
vn 0.097847 0.097847 -0.990215
vn 0.990215 0.097847 -0.097847
vn 0.097847 0.097847 -0.990215
vn 0.097847 0.990215 -0.097847
vn -0.097847 0.990215 -0.097847
vn -0.097847 0.097847 -0.990215
vn 0.097847 0.097847 -0.990215
vn -0.097847 0.990215 -0.097847
vn -0.097847 0.990215 0.097847
vn 0.097847 0.990215 0.097847
vn -0.097847 0.097847 0.990215
vn 0.097847 0.990215 -0.097847
vn 0.097847 0.990215 0.097847
vn -0.097847 0.990215 0.097847
vn -0.097847 0.990215 -0.097847
vn 0.097847 0.990215 -0.097847
vn -0.097847 0.990215 0.097847
vn -0.097847 0.990215 0.097847
vn -0.990215 0.097847 0.097847
vn -0.097847 0.990215 -0.097847
vn -0.990215 0.097847 0.097847
vn -0.990215 0.097847 -0.097847
vn -0.097847 0.990215 -0.097847
vn -0.990215 0.097847 -0.097847
vn -0.097847 0.097847 -0.990215
vn -0.097847 0.990215 -0.097847
vn -0.097847 0.990215 0.097847
vn -0.097847 0.097847 0.990215
vn -0.990215 0.097847 0.097847
vn -0.990215 -0.097847 -0.097847
vn -0.990215 -0.097847 0.097847
vn -0.097847 -0.990215 -0.097847
vn -0.990215 -0.097847 0.097847
vn -0.097847 -0.990215 0.097847
vn -0.097847 -0.990215 -0.097847
vn -0.097847 -0.990215 0.097847
vn 0.097847 -0.990215 0.097847
vn -0.097847 -0.990215 -0.097847
vn 0.097847 -0.990215 0.097847
vn 0.097847 -0.990215 -0.097847
vn -0.097847 -0.990215 -0.097847
vn -0.097847 -0.990215 -0.097847
vn 0.097847 -0.990215 -0.097847
vn -0.097847 -0.097847 -0.990215
vn -0.097847 -0.990215 -0.097847
vn -0.097847 -0.097847 -0.990215
vn -0.990215 -0.097847 -0.097847
vn -0.097847 -0.097847 0.990215
vn -0.097847 -0.990215 0.097847
vn -0.990215 -0.097847 0.097847
vn -0.097847 -0.097847 0.990215
vn 0.097847 -0.097847 0.990215
vn -0.097847 -0.990215 0.097847
vn 0.097847 -0.097847 0.990215
vn 0.097847 -0.990215 0.097847
vn -0.097847 -0.990215 0.097847
vn 0.097847 -0.990215 0.097847
vn 0.097847 -0.097847 0.990215
vn 0.990215 -0.097847 0.097847
vn 0.990215 -0.097847 0.097847
vn 0.990215 -0.097847 -0.097847
vn 0.097847 -0.990215 0.097847
vn 0.990215 -0.097847 -0.097847
vn 0.097847 -0.990215 -0.097847
vn 0.097847 -0.990215 0.097847
vn 0.097847 -0.097847 -0.990215
vn 0.097847 -0.990215 -0.097847
vn 0.990215 -0.097847 -0.097847
vn 0.097847 -0.990215 -0.097847
vn 0.097847 -0.097847 -0.990215
vn -0.097847 -0.097847 -0.990215
mtllib mtl_t6_wpn_supply_drop_trap.mtl
g mtl_t6_wpn_supply_drop_trap
usemtl mtl_t6_wpn_supply_drop_trap
f 3/3/3 2/2/2 1/1/1
f 6/6/6 5/5/5 4/4/4
f 9/9/9 8/8/8 7/7/7
f 12/12/12 11/11/11 10/10/10
f 15/15/15 14/14/14 13/13/13
f 18/18/18 17/17/17 16/16/16
f 21/21/21 20/20/20 19/19/19
f 24/24/24 23/23/23 22/22/22
f 27/27/27 26/26/26 25/25/25
f 30/30/30 29/29/29 28/28/28
f 33/33/33 32/32/32 31/31/31
f 36/36/36 35/35/35 34/34/34
f 39/39/39 38/38/38 37/37/37
f 42/42/42 41/41/41 40/40/40
f 45/45/45 44/44/44 43/43/43
f 48/48/48 47/47/47 46/46/46
f 51/51/51 50/50/50 49/49/49
f 54/54/54 53/53/53 52/52/52
f 57/57/57 56/56/56 55/55/55
f 60/60/60 59/59/59 58/58/58
f 63/63/63 62/62/62 61/61/61
f 66/66/66 65/65/65 64/64/64
f 69/69/69 68/68/68 67/67/67
f 72/72/72 71/71/71 70/70/70
f 75/75/75 74/74/74 73/73/73
f 78/78/78 77/77/77 76/76/76
f 81/81/81 80/80/80 79/79/79
f 84/84/84 83/83/83 82/82/82
f 87/87/87 86/86/86 85/85/85
f 90/90/90 89/89/89 88/88/88
f 93/93/93 92/92/92 91/91/91
f 96/96/96 95/95/95 94/94/94
f 99/99/99 98/98/98 97/97/97
f 102/102/102 101/101/101 100/100/100
f 105/105/105 104/104/104 103/103/103
f 108/108/108 107/107/107 106/106/106
f 111/111/111 110/110/110 109/109/109
f 114/114/114 113/113/113 112/112/112
f 117/117/117 116/116/116 115/115/115
f 120/120/120 119/119/119 118/118/118
f 123/123/123 122/122/122 121/121/121
f 126/126/126 125/125/125 124/124/124
f 129/129/129 128/128/128 127/127/127
f 132/132/132 131/131/131 130/130/130
f 135/135/135 134/134/134 133/133/133
f 138/138/138 137/137/137 136/136/136
f 141/141/141 140/140/140 139/139/139
f 144/144/144 143/143/143 142/142/142
f 147/147/147 146/146/146 145/145/145
f 150/150/150 149/149/149 148/148/148
f 153/153/153 152/152/152 151/151/151
f 156/156/156 155/155/155 154/154/154
f 159/159/159 158/158/158 157/157/157
f 162/162/162 161/161/161 160/160/160
f 165/165/165 164/164/164 163/163/163
f 168/168/168 167/167/167 166/166/166
f 171/171/171 170/170/170 169/169/169
f 174/174/174 173/173/173 172/172/172
f 177/177/177 176/176/176 175/175/175
f 180/180/180 179/179/179 178/178/178
f 183/183/183 182/182/182 181/181/181
f 186/186/186 185/185/185 184/184/184
f 189/189/189 188/188/188 187/187/187
f 192/192/192 191/191/191 190/190/190
f 195/195/195 194/194/194 193/193/193
f 198/198/198 197/197/197 196/196/196
f 201/201/201 200/200/200 199/199/199
f 204/204/204 203/203/203 202/202/202
