# Generated by Wraith - Game extraction tools
# Please credit DTZxPorter for using it!

v 16.675739 -14.217554 2.786471
v -11.865648 -14.156971 1.887982
v 14.704154 -12.958179 5.030097
v -11.865648 -14.156971 1.887982
v -10.292471 -12.815770 5.160442
v 14.704154 -12.958179 5.030097
v 15.503141 -10.600641 6.093978
v 14.704154 -12.958179 5.030097
v -10.292471 -12.815770 5.160442
v 14.704154 -12.958179 5.030097
v 15.503141 -10.600641 6.093978
v 17.972700 -11.968451 1.887982
v 16.675739 -14.217554 2.786471
v 14.704154 -12.958179 5.030097
v 17.972700 -11.968451 1.887982
v -10.292471 -12.815770 5.160442
v -11.865648 -14.156971 1.887982
v -14.210627 -10.002913 2.786471
v -11.545374 -10.014259 5.992340
v -10.292471 -12.815770 5.160442
v -14.210627 -10.002913 2.786471
v -11.545374 -10.014259 5.992340
v 15.503141 -10.600641 6.093978
v -10.292471 -12.815770 5.160442
v 15.507071 9.252966 6.122302
v 15.503141 -10.600641 6.093978
v -11.545374 -10.014259 5.992340
v 17.972700 -11.968451 1.887982
v 15.503141 -10.600641 6.093978
v 15.507071 9.252966 6.122302
v 18.173611 10.956874 1.887982
v 17.972700 -11.968451 1.887982
v 15.507071 9.252966 6.122302
v 18.173611 10.956874 1.887982
v 15.507071 9.252966 6.122302
v 14.400782 12.320816 5.117147
v 16.144304 13.863914 2.786471
v 18.173611 10.956874 1.887982
v 14.400782 12.320816 5.117147
v 16.144304 13.863914 2.786471
v 14.400782 12.320816 5.117147
v -10.397164 12.234251 5.241457
v -12.426468 13.716560 1.887982
v 16.144304 13.863914 2.786471
v -10.397164 12.234251 5.241457
v -11.586351 9.339242 6.013033
v -11.545374 -10.014259 5.992340
v -14.210627 -10.002913 2.786471
v -11.586351 9.339242 6.013033
v 15.507071 9.252966 6.122302
v -11.545374 -10.014259 5.992340
v 15.507071 9.252966 6.122302
v -11.586351 9.339242 6.013033
v -10.397164 12.234251 5.241457
v 14.400782 12.320816 5.117147
v 15.507071 9.252966 6.122302
v -10.397164 12.234251 5.241457
v -14.494514 9.675879 2.786471
v -11.586351 9.339242 6.013033
v -14.210627 -10.002913 2.786471
v -11.586351 9.339242 6.013033
v -14.494514 9.675879 2.786471
v -10.397164 12.234251 5.241457
v -14.494514 9.675879 2.786471
v -12.426468 13.716560 1.887982
v -10.397164 12.234251 5.241457
v 16.675739 -14.217554 2.786471
v 14.598284 -12.889010 -0.465844
v -11.865648 -14.156971 1.887982
v 14.598284 -12.889010 -0.465844
v 16.675739 -14.217554 2.786471
v 17.972700 -11.968451 1.887982
v 15.563535 -10.653161 -1.458410
v 14.598284 -12.889010 -0.465844
v 17.972700 -11.968451 1.887982
v -10.383928 -12.871596 -0.372786
v 14.598284 -12.889010 -0.465844
v 15.563535 -10.653161 -1.458410
v 14.598284 -12.889010 -0.465844
v -10.383928 -12.871596 -0.372786
v -11.865648 -14.156971 1.887982
v -11.865648 -14.156971 1.887982
v -10.383928 -12.871596 -0.372786
v -11.483047 -10.014259 -1.258461
v -14.210627 -10.002913 2.786471
v -11.865648 -14.156971 1.887982
v -11.483047 -10.014259 -1.258461
v -14.210627 -10.002913 2.786471
v -11.483047 -10.014259 -1.258461
v -11.520650 9.328165 -1.273670
v -14.494514 9.675879 2.786471
v -14.210627 -10.002913 2.786471
v -11.520650 9.328165 -1.273670
v -12.426468 13.716560 1.887982
v -14.494514 9.675879 2.786471
v -11.520650 9.328165 -1.273670
v 15.566512 9.311025 -1.496357
v 15.563535 -10.653161 -1.458410
v 17.972700 -11.968451 1.887982
v 15.563535 -10.653161 -1.458410
v 15.566512 9.311025 -1.496357
v -11.483047 -10.014259 -1.258461
v -11.483047 -10.014259 -1.258461
v -10.383928 -12.871596 -0.372786
v 15.563535 -10.653161 -1.458410
v 18.173611 10.956874 1.887982
v 15.566512 9.311025 -1.496357
v 17.972700 -11.968451 1.887982
v 15.566512 9.311025 -1.496357
v 18.173611 10.956874 1.887982
v 14.321293 12.245357 -0.546212
v 15.566512 9.311025 -1.496357
v 14.321293 12.245357 -0.546212
v -11.520650 9.328165 -1.273670
v 15.566512 9.311025 -1.496357
v -11.520650 9.328165 -1.273670
v -11.483047 -10.014259 -1.258461
v 18.173611 10.956874 1.887982
v 16.144304 13.863914 2.786471
v 14.321293 12.245357 -0.546212
v 16.144304 13.863914 2.786471
v -12.426468 13.716560 1.887982
v 14.321293 12.245357 -0.546212
v -12.426468 13.716560 1.887982
v -10.513136 12.268822 -0.512473
v 14.321293 12.245357 -0.546212
v 14.321293 12.245357 -0.546212
v -10.513136 12.268822 -0.512473
v -11.520650 9.328165 -1.273670
v -10.513136 12.268822 -0.512473
v -12.426468 13.716560 1.887982
v -11.520650 9.328165 -1.273670
vt 0.367432 0.118164
vt 0.369629 0.642822
vt 0.385254 0.110352
vt 0.369629 0.642822
vt 0.388428 0.640381
vt 0.385254 0.110352
vt 0.437744 0.093262
vt 0.385254 0.110352
vt 0.388428 0.640381
vt 0.385254 0.110352
vt 0.437744 0.093262
vt 0.407227 0.041016
vt 0.367432 0.118164
vt 0.385254 0.110352
vt 0.407227 0.041016
vt 0.388428 0.640381
vt 0.369629 0.642822
vt 0.428711 0.716797
vt 0.450684 0.666992
vt 0.388428 0.640381
vt 0.428711 0.716797
vt 0.450684 0.666992
vt 0.437744 0.093262
vt 0.388428 0.640381
vt 0.878906 0.093262
vt 0.437744 0.093262
vt 0.450684 0.666992
vt 0.407227 0.041016
vt 0.437744 0.093262
vt 0.878906 0.093262
vt 0.916504 0.036621
vt 0.407227 0.041016
vt 0.878906 0.093262
vt 0.916504 0.036621
vt 0.878906 0.093262
vt 0.947266 0.116699
vt 0.967773 0.134766
vt 0.916504 0.036621
vt 0.947266 0.116699
vt 0.967773 0.134766
vt 0.947266 0.116699
vt 0.945313 0.642578
vt 0.960938 0.649170
vt 0.967773 0.134766
vt 0.945313 0.642578
vt 0.880859 0.667969
vt 0.450684 0.666992
vt 0.428711 0.716797
vt 0.880859 0.667969
vt 0.878906 0.093262
vt 0.450684 0.666992
vt 0.878906 0.093262
vt 0.880859 0.667969
vt 0.945313 0.642578
vt 0.947266 0.116699
vt 0.878906 0.093262
vt 0.945313 0.642578
vt 0.898438 0.726074
vt 0.880859 0.667969
vt 0.428711 0.716797
vt 0.880859 0.667969
vt 0.898438 0.726074
vt 0.945313 0.642578
vt 0.898438 0.726074
vt 0.960938 0.649170
vt 0.945313 0.642578
vt -0.632324 0.117676
vt -0.612793 0.111816
vt -0.629883 0.644043
vt -0.612793 0.111816
vt -0.632324 0.117676
vt -0.592285 0.040039
vt -0.562988 0.091309
vt -0.612793 0.111816
vt -0.592285 0.040039
vt -0.612305 0.643555
vt -0.612793 0.111816
vt -0.562988 0.091309
vt -0.612793 0.111816
vt -0.612305 0.643555
vt -0.629883 0.644043
vt -0.629883 0.644043
vt -0.612305 0.643555
vt -0.548828 0.666992
vt -0.570801 0.718262
vt -0.629883 0.644043
vt -0.548828 0.666992
vt -0.570801 0.718262
vt -0.548828 0.666992
vt -0.119202 0.667725
vt -0.101379 0.727295
vt -0.570801 0.718262
vt -0.119202 0.667725
vt -0.038757 0.650391
vt -0.101379 0.727295
vt -0.119202 0.667725
vt -0.119568 0.091309
vt -0.562988 0.091309
vt -0.592285 0.040039
vt -0.562988 0.091309
vt -0.119568 0.091309
vt -0.548828 0.666992
vt -0.548828 0.666992
vt -0.612305 0.643555
vt -0.562988 0.091309
vt -0.083008 0.036133
vt -0.119568 0.091309
vt -0.592285 0.040039
vt -0.119568 0.091309
vt -0.083008 0.036133
vt -0.054382 0.117676
vt -0.119568 0.091309
vt -0.054382 0.117676
vt -0.119202 0.667725
vt -0.119568 0.091309
vt -0.119202 0.667725
vt -0.548828 0.666992
vt -0.083008 0.036133
vt -0.032043 0.133789
vt -0.054382 0.117676
vt -0.032043 0.133789
vt -0.038757 0.650391
vt -0.054382 0.117676
vt -0.038757 0.650391
vt -0.053864 0.646484
vt -0.054382 0.117676
vt -0.054382 0.117676
vt -0.053864 0.646484
vt -0.119202 0.667725
vt -0.053864 0.646484
vt -0.038757 0.650391
vt -0.119202 0.667725
vn 0.426614 -0.904110 0.003914
vn -0.471624 -0.880626 -0.007828
vn 0.260274 -0.602740 0.753425
vn -0.471624 -0.880626 -0.007828
vn -0.260274 -0.649706 0.714286
vn 0.260274 -0.602740 0.753425
vn 0.440313 -0.197652 0.876712
vn 0.260274 -0.602740 0.753425
vn -0.260274 -0.649706 0.714286
vn 0.260274 -0.602740 0.753425
vn 0.440313 -0.197652 0.876712
vn 0.956947 -0.291585 -0.021526
vn 0.426614 -0.904110 0.003914
vn 0.260274 -0.602740 0.753425
vn 0.956947 -0.291585 -0.021526
vn -0.260274 -0.649706 0.714286
vn -0.471624 -0.880626 -0.007828
vn -0.960861 -0.277887 0.019569
vn -0.407045 -0.236791 0.882583
vn -0.260274 -0.649706 0.714286
vn -0.960861 -0.277887 0.019569
vn -0.407045 -0.236791 0.882583
vn 0.440313 -0.197652 0.876712
vn -0.260274 -0.649706 0.714286
vn 0.432485 0.183953 0.882583
vn 0.440313 -0.197652 0.876712
vn -0.407045 -0.236791 0.882583
vn 0.956947 -0.291585 -0.021526
vn 0.440313 -0.197652 0.876712
vn 0.432485 0.183953 0.882583
vn 0.956947 0.289628 -0.023483
vn 0.956947 -0.291585 -0.021526
vn 0.432485 0.183953 0.882583
vn 0.956947 0.289628 -0.023483
vn 0.432485 0.183953 0.882583
vn 0.250489 0.577299 0.776908
vn 0.424658 0.904110 0.001957
vn 0.956947 0.289628 -0.023483
vn 0.250489 0.577299 0.776908
vn 0.424658 0.904110 0.001957
vn 0.250489 0.577299 0.776908
vn -0.244618 0.602740 0.759295
vn -0.477495 0.878669 -0.005871
vn 0.424658 0.904110 0.001957
vn -0.244618 0.602740 0.759295
vn -0.391389 0.203523 0.898239
vn -0.407045 -0.236791 0.882583
vn -0.960861 -0.277887 0.019569
vn -0.391389 0.203523 0.898239
vn 0.432485 0.183953 0.882583
vn -0.407045 -0.236791 0.882583
vn 0.432485 0.183953 0.882583
vn -0.391389 0.203523 0.898239
vn -0.244618 0.602740 0.759295
vn 0.250489 0.577299 0.776908
vn 0.432485 0.183953 0.882583
vn -0.244618 0.602740 0.759295
vn -0.968689 0.244618 0.021526
vn -0.391389 0.203523 0.898239
vn -0.960861 -0.277887 0.019569
vn -0.391389 0.203523 0.898239
vn -0.968689 0.244618 0.021526
vn -0.244618 0.602740 0.759295
vn -0.968689 0.244618 0.021526
vn -0.477495 0.878669 -0.005871
vn -0.244618 0.602740 0.759295
vn 0.426614 -0.904110 0.003914
vn 0.209393 -0.657534 -0.724070
vn -0.471624 -0.880626 -0.007828
vn 0.209393 -0.657534 -0.724070
vn 0.426614 -0.904110 0.003914
vn 0.956947 -0.291585 -0.021526
vn 0.383562 -0.254403 -0.888454
vn 0.209393 -0.657534 -0.724070
vn 0.956947 -0.291585 -0.021526
vn -0.283757 -0.614481 -0.735812
vn 0.209393 -0.657534 -0.724070
vn 0.383562 -0.254403 -0.888454
vn 0.209393 -0.657534 -0.724070
vn -0.283757 -0.614481 -0.735812
vn -0.471624 -0.880626 -0.007828
vn -0.471624 -0.880626 -0.007828
vn -0.283757 -0.614481 -0.735812
vn -0.446184 -0.203523 -0.870842
vn -0.960861 -0.277887 0.019569
vn -0.471624 -0.880626 -0.007828
vn -0.446184 -0.203523 -0.870842
vn -0.960861 -0.277887 0.019569
vn -0.446184 -0.203523 -0.870842
vn -0.434442 0.160470 -0.886497
vn -0.968689 0.244618 0.021526
vn -0.960861 -0.277887 0.019569
vn -0.434442 0.160470 -0.886497
vn -0.477495 0.878669 -0.005871
vn -0.968689 0.244618 0.021526
vn -0.434442 0.160470 -0.886497
vn 0.383562 0.223092 -0.896282
vn 0.383562 -0.254403 -0.888454
vn 0.956947 -0.291585 -0.021526
vn 0.383562 -0.254403 -0.888454
vn 0.383562 0.223092 -0.896282
vn -0.446184 -0.203523 -0.870842
vn -0.446184 -0.203523 -0.870842
vn -0.283757 -0.614481 -0.735812
vn 0.383562 -0.254403 -0.888454
vn 0.956947 0.289628 -0.023483
vn 0.383562 0.223092 -0.896282
vn 0.956947 -0.291585 -0.021526
vn 0.383562 0.223092 -0.896282
vn 0.956947 0.289628 -0.023483
vn 0.211350 0.618395 -0.757339
vn 0.383562 0.223092 -0.896282
vn 0.211350 0.618395 -0.757339
vn -0.434442 0.160470 -0.886497
vn 0.383562 0.223092 -0.896282
vn -0.434442 0.160470 -0.886497
vn -0.446184 -0.203523 -0.870842
vn 0.956947 0.289628 -0.023483
vn 0.424658 0.904110 0.001957
vn 0.211350 0.618395 -0.757339
vn 0.424658 0.904110 0.001957
vn -0.477495 0.878669 -0.005871
vn 0.211350 0.618395 -0.757339
vn -0.477495 0.878669 -0.005871
vn -0.272016 0.557730 -0.784736
vn 0.211350 0.618395 -0.757339
vn 0.211350 0.618395 -0.757339
vn -0.272016 0.557730 -0.784736
vn -0.434442 0.160470 -0.886497
vn -0.272016 0.557730 -0.784736
vn -0.477495 0.878669 -0.005871
vn -0.434442 0.160470 -0.886497
mtllib mtl_t6_wpn_c4.mtl
g mtl_t6_wpn_c4
usemtl mtl_t6_wpn_c4
f 3/3/3 2/2/2 1/1/1
f 6/6/6 5/5/5 4/4/4
f 9/9/9 8/8/8 7/7/7
f 12/12/12 11/11/11 10/10/10
f 15/15/15 14/14/14 13/13/13
f 18/18/18 17/17/17 16/16/16
f 21/21/21 20/20/20 19/19/19
f 24/24/24 23/23/23 22/22/22
f 27/27/27 26/26/26 25/25/25
f 30/30/30 29/29/29 28/28/28
f 33/33/33 32/32/32 31/31/31
f 36/36/36 35/35/35 34/34/34
f 39/39/39 38/38/38 37/37/37
f 42/42/42 41/41/41 40/40/40
f 45/45/45 44/44/44 43/43/43
f 48/48/48 47/47/47 46/46/46
f 51/51/51 50/50/50 49/49/49
f 54/54/54 53/53/53 52/52/52
f 57/57/57 56/56/56 55/55/55
f 60/60/60 59/59/59 58/58/58
f 63/63/63 62/62/62 61/61/61
f 66/66/66 65/65/65 64/64/64
f 69/69/69 68/68/68 67/67/67
f 72/72/72 71/71/71 70/70/70
f 75/75/75 74/74/74 73/73/73
f 78/78/78 77/77/77 76/76/76
f 81/81/81 80/80/80 79/79/79
f 84/84/84 83/83/83 82/82/82
f 87/87/87 86/86/86 85/85/85
f 90/90/90 89/89/89 88/88/88
f 93/93/93 92/92/92 91/91/91
f 96/96/96 95/95/95 94/94/94
f 99/99/99 98/98/98 97/97/97
f 102/102/102 101/101/101 100/100/100
f 105/105/105 104/104/104 103/103/103
f 108/108/108 107/107/107 106/106/106
f 111/111/111 110/110/110 109/109/109
f 114/114/114 113/113/113 112/112/112
f 117/117/117 116/116/116 115/115/115
f 120/120/120 119/119/119 118/118/118
f 123/123/123 122/122/122 121/121/121
f 126/126/126 125/125/125 124/124/124
f 129/129/129 128/128/128 127/127/127
f 132/132/132 131/131/131 130/130/130
