# Generated by Wraith - Game extraction tools
# Please credit DTZxPorter for using it!

v 3.800058 0.249649 1.939234
v 3.800058 -1.618513 3.286209
v 6.999955 0.249649 1.939234
v 3.800058 -1.618513 3.286209
v 6.999955 -1.792704 3.286209
v 6.999955 0.249649 1.939234
v 6.440795 -1.759753 5.178707
v 3.818014 -1.759753 5.178707
v 3.818014 1.759753 5.178707
v 6.440797 1.759753 5.178707
v 6.440795 -1.759753 5.178707
v 3.818014 1.759753 5.178707
v 5.856958 1.792704 3.401291
v 6.440797 1.759753 5.178707
v 3.818014 1.759753 5.178707
v 3.818014 1.792704 3.401291
v 5.856958 1.792704 3.401291
v 3.818014 1.759753 5.178707
v 3.818014 1.792704 3.401291
v 3.818014 1.792704 1.494772
v 5.856958 1.792704 3.401291
v 3.818014 1.792704 1.494772
v 7.543734 1.792704 1.494770
v 5.856958 1.792704 3.401291
v 3.818014 1.792704 1.494772
v 5.582481 1.792704 0.025494
v 7.543734 1.792704 1.494770
v 5.582481 1.792704 0.025494
v 7.543734 1.792704 0.025494
v 7.543734 1.792704 1.494770
v 5.582481 1.792704 0.025494
v 5.582481 -1.792704 0.025494
v 7.543734 1.792704 0.025494
v 5.582481 -1.792704 0.025494
v 7.543734 -1.792704 0.025494
v 7.543734 1.792704 0.025494
v 7.543734 1.792704 0.025494
v 7.543734 -1.792704 0.025494
v 7.543734 1.792704 1.494770
v 7.543734 -1.792704 0.025494
v 7.543734 -1.792704 1.494770
v 7.543734 1.792704 1.494770
v 5.582481 1.792704 0.025494
v 3.818014 1.792704 1.494772
v 5.582481 -1.792704 0.025494
v 3.818014 1.792704 1.494772
v 3.818014 -1.792704 1.494770
v 5.582481 -1.792704 0.025494
v 7.543734 -1.792704 0.025494
v 5.582481 -1.792704 0.025494
v 7.543734 -1.792704 1.494770
v 5.582481 -1.792704 0.025494
v 3.818014 -1.792704 1.494770
v 7.543734 -1.792704 1.494770
v 5.856955 -1.792704 3.401291
v 7.543734 -1.792704 1.494770
v 3.818014 -1.792704 1.494770
v 3.818014 -1.792704 3.401291
v 5.856955 -1.792704 3.401291
v 3.818014 -1.792704 1.494770
v 5.856955 -1.792704 3.401291
v 3.818014 -1.792704 3.401291
v 3.818014 -1.759753 5.178707
v 6.440795 -1.759753 5.178707
v 5.856955 -1.792704 3.401291
v 3.818014 -1.759753 5.178707
v 7.543734 1.792704 1.494770
v 7.543734 -1.792704 1.494770
v 5.856958 1.792704 3.401291
v 7.543734 -1.792704 1.494770
v 5.856955 -1.792704 3.401291
v 5.856958 1.792704 3.401291
v 5.856958 1.792704 3.401291
v 5.856955 -1.792704 3.401291
v 6.440797 1.759753 5.178707
v 5.856955 -1.792704 3.401291
v 6.440795 -1.759753 5.178707
v 6.440797 1.759753 5.178707
v 3.800058 0.249649 1.939234
v 6.999955 0.249649 1.939234
v 3.809035 1.342019 4.380362
v 6.999955 0.249649 1.939234
v 6.999955 1.342019 4.380362
v 3.809035 1.342019 4.380362
v 3.809035 1.342019 4.380362
v 6.999955 1.342019 4.380362
v 3.818014 -0.532762 4.927915
v 6.999955 1.342019 4.380362
v 6.999953 -0.532762 4.927915
v 3.818014 -0.532762 4.927915
v 3.818014 -0.532762 4.927915
v 6.999953 -0.532762 4.927915
v 3.800058 -1.618513 3.286209
v 6.999953 -0.532762 4.927915
v 6.999955 -1.792704 3.286209
v 3.800058 -1.618513 3.286209
v 6.999955 1.342019 4.380362
v 6.999955 0.249649 1.939234
v 6.999953 -0.532762 4.927915
v 6.999955 0.249649 1.939234
v 6.999955 -1.792704 3.286209
v 6.999953 -0.532762 4.927915
v -2.790744 -1.156104 2.232012
v -2.790744 -1.156104 0.786912
v -2.790744 1.147056 2.232012
v -2.790744 -1.156104 0.786912
v -2.790744 1.147056 0.786912
v -2.790744 1.147056 2.232012
v -2.790744 1.147056 0.786912
v 0.390131 1.147463 0.786912
v -2.790744 1.147056 2.232012
v 0.390131 1.147463 0.786912
v 0.390131 1.147463 2.232012
v -2.790744 1.147056 2.232012
v 0.390131 1.147463 2.232012
v 0.390131 1.147463 0.786912
v 0.390131 -1.156513 2.232012
v 0.390131 1.147463 0.786912
v 0.390131 -1.156513 0.786912
v 0.390131 -1.156513 2.232012
v -2.790744 -1.156104 0.786912
v 0.390131 -1.156513 0.786912
v -2.790744 1.147056 0.786912
v 0.390131 -1.156513 0.786912
v 0.390131 1.147463 0.786912
v -2.790744 1.147056 0.786912
v -2.790744 -1.156104 0.786912
v -2.790744 -1.156104 2.232012
v 0.390131 -1.156513 0.786912
v -2.790744 -1.156104 2.232012
v 0.390131 -1.156513 2.232012
v 0.390131 -1.156513 0.786912
v -3.353643 -1.306050 -0.101374
v -3.353643 2.698016 -0.101374
v -3.353643 -1.306050 0.789546
v -3.353643 -1.306050 0.789546
v -3.353643 2.698016 -0.101374
v -3.353643 -0.002096 0.789546
v -3.353643 -0.002096 0.789546
v -3.353643 2.698016 -0.101374
v -3.353643 2.698016 0.789546
v 5.147249 -1.306050 -0.101374
v -3.353643 -1.306050 -0.101374
v 5.147249 -1.306050 0.789546
v -3.353643 -1.306050 -0.101374
v -3.353643 -1.306050 0.789546
v 5.147249 -1.306050 0.789546
v -5.163279 0.356205 1.840636
v 3.800058 0.249649 1.939234
v -5.163279 1.442245 4.401132
v 3.800058 0.249649 1.939234
v 3.809035 1.342019 4.380362
v -5.163279 1.442245 4.401132
v 3.818014 -0.532762 4.927915
v -5.163279 -0.395359 5.133449
v 3.809035 1.342019 4.380362
v -5.163279 -0.395359 5.133449
v -5.163279 1.442245 4.401132
v 3.809035 1.342019 4.380362
v -5.163279 -0.395359 5.133449
v 3.818014 -0.532762 4.927915
v -5.163279 -1.600771 3.286201
v 3.818014 -0.532762 4.927915
v 3.800058 -1.618513 3.286209
v -5.163279 -1.600771 3.286201
v -5.163279 -1.600771 3.286201
v 3.800058 -1.618513 3.286209
v 3.800058 0.249649 1.939234
v -5.163279 0.356205 1.840636
v -5.163279 -1.600771 3.286201
v 3.800058 0.249649 1.939234
v -5.163279 -0.395359 5.133449
v -5.163279 -1.600771 3.286201
v -5.163279 1.442245 4.401132
v -5.163279 -1.600771 3.286201
v -5.163279 0.356205 1.840636
v -5.163279 1.442245 4.401132
v -3.353643 -1.306050 -0.101374
v 5.147249 -1.306050 -0.101374
v -3.353643 2.698016 -0.101374
v 5.147249 -1.306050 -0.101374
v 5.147531 1.520182 -0.101374
v -3.353643 2.698016 -0.101374
v 5.147531 1.520182 -0.101374
v 5.113551 2.698016 -0.093609
v -3.353643 2.698016 -0.101374
v -3.353643 2.698016 0.789546
v 5.113551 2.698016 0.789546
v -3.353643 -1.306050 0.789546
v 5.113551 2.698016 0.789546
v 5.147531 1.520182 0.789546
v -3.353643 -1.306050 0.789546
v -3.353643 -1.306050 0.789546
v 5.147531 1.520182 0.789546
v 5.147249 -1.306050 0.789546
v 5.147531 1.520182 -0.101374
v 5.147531 1.520182 0.789546
v 5.113551 2.698016 -0.093609
v 5.147531 1.520182 0.789546
v 5.113551 2.698016 0.789546
v 5.113551 2.698016 -0.093609
v 5.113551 2.698016 0.789546
v -3.353643 2.698016 0.789546
v 5.113551 2.698016 -0.093609
v -3.353643 2.698016 0.789546
v -3.353643 2.698016 -0.101374
v 5.113551 2.698016 -0.093609
v 0.480101 2.082787 4.404317
v 3.821699 2.082787 4.404317
v 0.483967 -2.105337 4.404317
v 3.821699 2.082787 4.404317
v 3.818681 -2.105335 4.404317
v 0.483967 -2.105337 4.404317
v 0.479306 2.097801 0.771174
v 0.480101 2.082787 4.404317
v 0.478183 -2.096277 0.771174
v 0.480101 2.082787 4.404317
v 0.483967 -2.105337 4.404317
v 0.478183 -2.096277 0.771174
v 3.818681 -2.105335 4.404317
v 3.821699 2.082787 4.404317
v 3.819462 -2.096277 0.771174
v 3.821699 2.082787 4.404317
v 3.818804 2.097801 0.771174
v 3.819462 -2.096277 0.771174
v 0.479306 2.097801 0.771174
v 3.818804 2.097801 0.771174
v 0.480101 2.082787 4.404317
v 3.818804 2.097801 0.771174
v 3.821699 2.082787 4.404317
v 0.480101 2.082787 4.404317
v 0.479306 2.097801 0.771174
v 0.478183 -2.096277 0.771174
v 3.818804 2.097801 0.771174
v 0.478183 -2.096277 0.771174
v 3.819462 -2.096277 0.771174
v 3.818804 2.097801 0.771174
v 3.818681 -2.105335 4.404317
v 3.819462 -2.096277 0.771174
v 0.483967 -2.105337 4.404317
v 3.819462 -2.096277 0.771174
v 0.478183 -2.096277 0.771174
v 0.483967 -2.105337 4.404317
v 5.147249 -1.306050 -0.101374
v 5.147249 -1.306050 0.789546
v 5.147531 1.520182 -0.101374
v 5.147249 -1.306050 0.789546
v 5.147531 1.520182 0.789546
v 5.147531 1.520182 -0.101374
vt 0.016937 0.799927
vt 0.128296 0.799683
vt 0.016937 0.888489
vt 0.128296 0.799683
vt 0.117126 0.888733
vt 0.016937 0.888489
vt -0.924805 0.338867
vt -0.804688 0.338867
vt -0.804688 0.270996
vt -0.923828 0.270996
vt -0.924805 0.338867
vt -0.804688 0.270996
vt -0.897461 0.199219
vt -0.923828 0.270996
vt -0.804688 0.270996
vt -0.804688 0.199219
vt -0.897461 0.199219
vt -0.804688 0.270996
vt -0.804688 0.199219
vt -0.819336 0.093750
vt -0.897461 0.199219
vt -0.819336 0.093750
vt -0.973145 0.094727
vt -0.897461 0.199219
vt -0.819336 0.093750
vt -0.884766 0.005859
vt -0.973145 0.094727
vt -0.884766 0.005859
vt -0.968750 0.005859
vt -0.973145 0.094727
vt -0.816406 0.103027
vt -0.882324 0.103027
vt -0.816406 0.139160
vt -0.882324 0.103027
vt -0.882324 0.139160
vt -0.816406 0.139160
vt -0.816406 0.139160
vt -0.882324 0.139160
vt -0.816406 0.166016
vt -0.882324 0.139160
vt -0.882324 0.166016
vt -0.816406 0.166016
vt -0.816406 0.117188
vt -0.869141 0.117676
vt -0.816406 0.204102
vt -0.869141 0.117676
vt -0.869141 0.204102
vt -0.816406 0.204102
vt 0.030991 0.005859
vt 0.114929 0.005859
vt 0.026550 0.094727
vt 0.114929 0.005859
vt 0.179688 0.093750
vt 0.026550 0.094727
vt 0.102478 0.199219
vt 0.026550 0.094727
vt 0.179688 0.093750
vt 0.193359 0.199219
vt 0.102478 0.199219
vt 0.179688 0.093750
vt 0.102478 0.199219
vt 0.193359 0.199219
vt 0.193359 0.305176
vt 0.075562 0.305176
vt 0.102478 0.199219
vt 0.193359 0.305176
vt -0.816406 0.166016
vt -0.882324 0.166016
vt -0.816406 0.216309
vt -0.882324 0.166016
vt -0.882324 0.216309
vt -0.816406 0.216309
vt -0.816406 0.216309
vt -0.882324 0.216309
vt -0.816895 0.251465
vt -0.882324 0.216309
vt -0.865723 0.251465
vt -0.816895 0.251465
vt -0.975586 0.799927
vt -0.975586 0.888489
vt -0.827148 0.799683
vt -0.975586 0.888489
vt -0.813477 0.888489
vt -0.827148 0.799683
vt -0.807129 0.800171
vt -0.813477 0.888489
vt -0.678711 0.799927
vt -0.813477 0.888489
vt -0.665039 0.888306
vt -0.678711 0.799927
vt 0.308838 0.799927
vt 0.259277 0.890198
vt 0.128296 0.799683
vt 0.259277 0.890198
vt 0.117126 0.888733
vt 0.128296 0.799683
vt -0.191650 0.174316
vt -0.238770 0.096680
vt -0.272949 0.213867
vt -0.238770 0.096680
vt -0.318359 0.143555
vt -0.272949 0.213867
vt -0.567871 0.465332
vt -0.570801 0.303711
vt -0.620605 0.465332
vt -0.570801 0.303711
vt -0.625488 0.303711
vt -0.620605 0.465332
vt -0.625488 0.303711
vt -0.809082 0.304199
vt -0.620605 0.465332
vt -0.809082 0.304199
vt -0.806152 0.465332
vt -0.620605 0.465332
vt 0.321533 0.441406
vt 0.321533 0.375000
vt 0.266846 0.441406
vt 0.321533 0.375000
vt 0.266846 0.375000
vt 0.266846 0.441406
vt 0.623535 0.485840
vt 0.598633 0.480469
vt 0.623535 0.544189
vt 0.598633 0.480469
vt 0.599121 0.539063
vt 0.623535 0.544189
vt 0.379150 0.302734
vt 0.379395 0.468262
vt 0.193359 0.302734
vt 0.379395 0.468262
vt 0.193481 0.468262
vt 0.193359 0.302734
vt -0.184814 0.965027
vt -0.393066 0.965027
vt -0.184814 0.998450
vt -0.184814 0.998450
vt -0.393066 0.965027
vt -0.280518 0.998470
vt -0.280518 0.998470
vt -0.393066 0.965027
vt -0.393555 0.998468
vt 0.379395 0.402344
vt 0.200928 0.402344
vt 0.379395 0.437988
vt 0.200928 0.402344
vt 0.200928 0.437988
vt 0.379395 0.437988
vt -0.003670 0.028320
vt -0.670898 0.028809
vt -0.006191 0.255371
vt -0.670898 0.028809
vt -0.670898 0.255371
vt -0.006191 0.255371
vt -0.708984 0.380859
vt -0.003742 0.380859
vt -0.708984 0.255371
vt -0.003742 0.380859
vt -0.006191 0.255371
vt -0.708984 0.255371
vt 0.996094 0.336914
vt 0.291504 0.333496
vt 0.997559 0.146484
vt 0.291504 0.333496
vt 0.309082 0.146973
vt 0.997559 0.146484
vt 0.997559 0.146484
vt 0.309082 0.146973
vt 0.317383 0.020996
vt 0.996094 0.028320
vt 0.997559 0.146484
vt 0.317383 0.020996
vt -0.238037 0.206543
vt -0.202637 0.152344
vt -0.291992 0.185059
vt -0.202637 0.152344
vt -0.260010 0.109863
vt -0.291992 0.185059
vt -0.002703 0.591797
vt -0.002241 0.718262
vt -0.068054 0.591797
vt -0.002241 0.718262
vt -0.063904 0.718262
vt -0.068054 0.591797
vt -0.063904 0.718262
vt -0.085327 0.699219
vt -0.068054 0.591797
vt -0.068054 0.591797
vt -0.085327 0.699219
vt -0.002703 0.591797
vt -0.085327 0.699219
vt -0.063904 0.718262
vt -0.002703 0.591797
vt -0.002703 0.591797
vt -0.063904 0.718262
vt -0.002001 0.718262
vt 0.045746 0.285645
vt 0.003067 0.286133
vt 0.030182 0.313965
vt 0.003067 0.286133
vt 0.003067 0.313965
vt 0.030182 0.313965
vt -0.956055 0.341797
vt -0.956055 0.145508
vt -0.997559 0.341797
vt -0.956055 0.145508
vt -0.997559 0.145508
vt -0.997559 0.341797
vt -0.501953 0.183594
vt -0.791016 0.183594
vt -0.501953 0.243164
vt -0.791016 0.183594
vt -0.791016 0.243164
vt -0.501953 0.243164
vt -0.502441 0.002930
vt -0.501953 0.183594
vt -0.382568 0.002930
vt -0.501953 0.183594
vt -0.501953 0.243164
vt -0.382568 0.002930
vt -0.500000 0.233887
vt -0.420410 0.233887
vt -0.496826 0.002930
vt -0.420410 0.233887
vt -0.401611 0.002930
vt -0.496826 0.002930
vt -0.502441 0.002930
vt -0.791016 0.002930
vt -0.501953 0.183594
vt -0.791016 0.002930
vt -0.791016 0.183594
vt -0.501953 0.183594
vt 0.354980 0.451172
vt 0.354980 0.404297
vt 0.245605 0.451172
vt 0.354980 0.404297
vt 0.245605 0.404297
vt 0.245605 0.451172
vt -0.501953 0.212402
vt -0.501953 0.002930
vt -0.791016 0.213867
vt -0.501953 0.002930
vt -0.791016 0.002930
vt -0.791016 0.213867
vt -0.063904 0.696777
vt -0.063904 0.718262
vt -0.001984 0.696777
vt -0.063904 0.718262
vt -0.001984 0.718262
vt -0.001984 0.696777
vn -0.015656 -0.567515 -0.823875
vn -0.027397 -0.984344 -0.172211
vn -0.015656 -0.567515 -0.823875
vn -0.027397 -0.984344 -0.172211
vn -0.027397 -0.984344 -0.172211
vn -0.015656 -0.567515 -0.823875
vn 0.000000 -0.700587 0.714286
vn 0.000000 -0.700587 0.714286
vn 0.000000 0.700587 0.714286
vn 0.000000 0.700587 0.714286
vn 0.000000 -0.700587 0.714286
vn 0.000000 0.700587 0.714286
vn 0.000000 1.000000 0.009785
vn 0.000000 0.700587 0.714286
vn 0.000000 0.700587 0.714286
vn 0.000000 1.000000 0.009785
vn 0.000000 1.000000 0.009785
vn 0.000000 0.700587 0.714286
vn 0.000000 1.000000 0.009785
vn 0.000000 1.000000 0.000000
vn 0.000000 1.000000 0.009785
vn 0.000000 1.000000 0.000000
vn 0.000000 1.000000 0.000000
vn 0.000000 1.000000 0.009785
vn 0.000000 1.000000 0.000000
vn 0.000000 1.000000 0.000000
vn 0.000000 1.000000 0.000000
vn 0.000000 1.000000 0.000000
vn 0.000000 1.000000 0.000000
vn 0.000000 1.000000 0.000000
vn 0.000000 0.000000 -1.000000
vn 0.000000 0.000000 -1.000000
vn 0.000000 0.000000 -1.000000
vn 0.000000 0.000000 -1.000000
vn 0.000000 0.000000 -1.000000
vn 0.000000 0.000000 -1.000000
vn 1.000000 0.000000 0.000000
vn 1.000000 0.000000 0.000000
vn 1.000000 0.000000 0.000000
vn 1.000000 0.000000 0.000000
vn 1.000000 0.000000 0.000000
vn 1.000000 0.000000 0.000000
vn -0.639922 0.000000 -0.769080
vn -0.639922 0.000000 -0.769080
vn -0.639922 0.000000 -0.769080
vn -0.639922 0.000000 -0.769080
vn -0.639922 0.000000 -0.769080
vn -0.639922 0.000000 -0.769080
vn 0.000000 -1.000000 0.000000
vn 0.000000 -1.000000 0.000000
vn 0.000000 -1.000000 0.000000
vn 0.000000 -1.000000 0.000000
vn 0.000000 -1.000000 0.000000
vn 0.000000 -1.000000 0.000000
vn 0.000000 -1.000000 0.009785
vn 0.000000 -1.000000 0.000000
vn 0.000000 -1.000000 0.000000
vn 0.000000 -1.000000 0.009785
vn 0.000000 -1.000000 0.009785
vn 0.000000 -1.000000 0.000000
vn 0.000000 -1.000000 0.009785
vn 0.000000 -1.000000 0.009785
vn 0.000000 -0.700587 0.714286
vn 0.000000 -0.700587 0.714286
vn 0.000000 -1.000000 0.009785
vn 0.000000 -0.700587 0.714286
vn 0.749511 0.000000 0.663405
vn 0.749511 0.000000 0.663405
vn 0.978474 0.000000 0.201566
vn 0.749511 0.000000 0.663405
vn 0.978474 0.000000 0.201566
vn 0.978474 0.000000 0.201566
vn 0.978474 0.000000 0.201566
vn 0.978474 0.000000 0.201566
vn 0.949119 0.000000 -0.311155
vn 0.978474 0.000000 0.201566
vn 0.949119 0.000000 -0.311155
vn 0.949119 0.000000 -0.311155
vn 0.000000 0.911937 -0.409002
vn 0.000000 0.911937 -0.409002
vn 0.000000 0.908023 0.418787
vn 0.000000 0.911937 -0.409002
vn 0.000000 0.908023 0.418787
vn 0.000000 0.908023 0.418787
vn 0.000000 0.908023 0.418787
vn 0.000000 0.908023 0.418787
vn 0.000000 0.279843 0.960861
vn 0.000000 0.908023 0.418787
vn 0.000000 0.279843 0.960861
vn 0.000000 0.279843 0.960861
vn -0.021526 -0.814090 0.581213
vn -0.021526 -0.814090 0.581213
vn -0.027397 -0.984344 -0.172211
vn -0.021526 -0.814090 0.581213
vn -0.027397 -0.984344 -0.172211
vn -0.027397 -0.984344 -0.172211
vn 1.000000 0.000000 0.000000
vn 1.000000 0.000000 0.000000
vn 1.000000 0.000000 0.000000
vn 1.000000 0.000000 0.000000
vn 1.000000 0.000000 0.000000
vn 1.000000 0.000000 0.000000
vn -1.000000 0.000000 0.000000
vn -1.000000 0.000000 0.000000
vn -1.000000 0.000000 0.000000
vn -1.000000 0.000000 0.000000
vn -1.000000 0.000000 0.000000
vn -1.000000 0.000000 0.000000
vn 0.000000 1.000000 0.000000
vn 0.000000 1.000000 0.000000
vn 0.000000 1.000000 0.000000
vn 0.000000 1.000000 0.000000
vn 0.000000 1.000000 0.000000
vn 0.000000 1.000000 0.000000
vn 1.000000 0.000000 0.000000
vn 1.000000 0.000000 0.000000
vn 1.000000 0.000000 0.000000
vn 1.000000 0.000000 0.000000
vn 1.000000 0.000000 0.000000
vn 1.000000 0.000000 0.000000
vn 0.000000 0.000000 -1.000000
vn 0.000000 0.000000 -1.000000
vn 0.000000 0.000000 -1.000000
vn 0.000000 0.000000 -1.000000
vn 0.000000 0.000000 -1.000000
vn 0.000000 0.000000 -1.000000
vn 0.000000 -1.000000 0.000000
vn 0.000000 -1.000000 0.000000
vn 0.000000 -1.000000 0.000000
vn 0.000000 -1.000000 0.000000
vn 0.000000 -1.000000 0.000000
vn 0.000000 -1.000000 0.000000
vn -1.000000 0.000000 0.000000
vn -1.000000 0.000000 0.000000
vn -1.000000 0.000000 0.000000
vn -1.000000 0.000000 0.000000
vn -1.000000 0.000000 0.000000
vn -1.000000 0.000000 0.000000
vn -1.000000 0.000000 0.000000
vn -1.000000 0.000000 0.000000
vn -1.000000 0.000000 0.000000
vn 0.000000 -1.000000 0.000000
vn 0.000000 -1.000000 0.000000
vn 0.000000 -1.000000 0.000000
vn 0.000000 -1.000000 0.000000
vn 0.000000 -1.000000 0.000000
vn 0.000000 -1.000000 0.000000
vn 0.011742 0.915851 -0.399217
vn 0.011742 0.915851 -0.399217
vn 0.021526 0.915851 0.401174
vn 0.011742 0.915851 -0.399217
vn 0.021526 0.915851 0.401174
vn 0.021526 0.915851 0.401174
vn 0.015656 0.326810 0.945205
vn 0.015656 0.326810 0.945205
vn 0.021526 0.915851 0.401174
vn 0.015656 0.326810 0.945205
vn 0.021526 0.915851 0.401174
vn 0.021526 0.915851 0.401174
vn 0.000000 -0.835616 0.547945
vn 0.000000 -0.835616 0.547945
vn 0.000000 -0.984344 -0.178082
vn 0.000000 -0.835616 0.547945
vn 0.000000 -0.984344 -0.178082
vn 0.000000 -0.984344 -0.178082
vn 0.000000 -0.984344 -0.178082
vn 0.000000 -0.984344 -0.178082
vn 0.000000 -0.589041 -0.808219
vn 0.000000 -0.589041 -0.808219
vn 0.000000 -0.984344 -0.178082
vn 0.000000 -0.589041 -0.808219
vn -1.000000 0.000000 0.000000
vn -1.000000 0.000000 0.000000
vn -1.000000 0.000000 0.000000
vn -1.000000 0.000000 0.000000
vn -1.000000 0.000000 0.000000
vn -1.000000 0.000000 0.000000
vn 0.000000 0.000000 -1.000000
vn 0.000000 0.000000 -1.000000
vn 0.000000 0.000000 -1.000000
vn 0.000000 0.000000 -1.000000
vn 0.000000 0.000000 -1.000000
vn 0.000000 0.000000 -1.000000
vn 0.000000 0.000000 -1.000000
vn 0.000000 0.000000 -1.000000
vn 0.000000 0.000000 -1.000000
vn 0.706458 0.000000 0.706458
vn 0.000000 0.000000 1.000000
vn 0.706458 0.000000 0.706458
vn 0.000000 0.000000 1.000000
vn 0.000000 0.000000 1.000000
vn 0.706458 0.000000 0.706458
vn 0.706458 0.000000 0.706458
vn 0.000000 0.000000 1.000000
vn 0.000000 0.000000 1.000000
vn 1.000000 0.029354 0.000000
vn 1.000000 0.029354 0.000000
vn 1.000000 0.029354 0.000000
vn 1.000000 0.029354 0.000000
vn 1.000000 0.029354 0.000000
vn 1.000000 0.029354 0.000000
vn 0.000000 1.000000 0.000000
vn 0.000000 1.000000 0.000000
vn 0.000000 1.000000 0.000000
vn 0.000000 1.000000 0.000000
vn 0.000000 1.000000 0.000000
vn 0.000000 1.000000 0.000000
vn 0.000000 0.000000 1.000000
vn 0.000000 0.000000 1.000000
vn 0.000000 0.000000 1.000000
vn 0.000000 0.000000 1.000000
vn 0.000000 0.000000 1.000000
vn 0.000000 0.000000 1.000000
vn -1.000000 0.000000 0.000000
vn -1.000000 0.000000 0.000000
vn -1.000000 0.000000 0.000000
vn -1.000000 0.000000 0.000000
vn -1.000000 0.000000 0.000000
vn -1.000000 0.000000 0.000000
vn 1.000000 0.000000 0.000000
vn 1.000000 0.000000 0.000000
vn 1.000000 0.000000 0.000000
vn 1.000000 0.000000 0.000000
vn 1.000000 0.000000 0.000000
vn 1.000000 0.000000 0.000000
vn 0.000000 1.000000 0.003914
vn 0.000000 1.000000 0.003914
vn 0.000000 1.000000 0.003914
vn 0.000000 1.000000 0.003914
vn 0.000000 1.000000 0.003914
vn 0.000000 1.000000 0.003914
vn 0.000000 0.000000 -1.000000
vn 0.000000 0.000000 -1.000000
vn 0.000000 0.000000 -1.000000
vn 0.000000 0.000000 -1.000000
vn 0.000000 0.000000 -1.000000
vn 0.000000 0.000000 -1.000000
vn 0.000000 -1.000000 -0.001957
vn 0.000000 -1.000000 -0.001957
vn 0.000000 -1.000000 -0.001957
vn 0.000000 -1.000000 -0.001957
vn 0.000000 -1.000000 -0.001957
vn 0.000000 -1.000000 -0.001957
vn 1.000000 0.000000 0.000000
vn 1.000000 0.000000 0.000000
vn 1.000000 0.000000 0.000000
vn 1.000000 0.000000 0.000000
vn 1.000000 0.000000 0.000000
vn 1.000000 0.000000 0.000000
mtllib mtl_t6_attach_optic_specter_camo1.mtl
g mtl_t6_attach_optic_specter_camo1
usemtl mtl_t6_attach_optic_specter_camo1
f 3/3/3 2/2/2 1/1/1
f 6/6/6 5/5/5 4/4/4
f 9/9/9 8/8/8 7/7/7
f 12/12/12 11/11/11 10/10/10
f 15/15/15 14/14/14 13/13/13
f 18/18/18 17/17/17 16/16/16
f 21/21/21 20/20/20 19/19/19
f 24/24/24 23/23/23 22/22/22
f 27/27/27 26/26/26 25/25/25
f 30/30/30 29/29/29 28/28/28
f 33/33/33 32/32/32 31/31/31
f 36/36/36 35/35/35 34/34/34
f 39/39/39 38/38/38 37/37/37
f 42/42/42 41/41/41 40/40/40
f 45/45/45 44/44/44 43/43/43
f 48/48/48 47/47/47 46/46/46
f 51/51/51 50/50/50 49/49/49
f 54/54/54 53/53/53 52/52/52
f 57/57/57 56/56/56 55/55/55
f 60/60/60 59/59/59 58/58/58
f 63/63/63 62/62/62 61/61/61
f 66/66/66 65/65/65 64/64/64
f 69/69/69 68/68/68 67/67/67
f 72/72/72 71/71/71 70/70/70
f 75/75/75 74/74/74 73/73/73
f 78/78/78 77/77/77 76/76/76
f 81/81/81 80/80/80 79/79/79
f 84/84/84 83/83/83 82/82/82
f 87/87/87 86/86/86 85/85/85
f 90/90/90 89/89/89 88/88/88
f 93/93/93 92/92/92 91/91/91
f 96/96/96 95/95/95 94/94/94
f 99/99/99 98/98/98 97/97/97
f 102/102/102 101/101/101 100/100/100
f 105/105/105 104/104/104 103/103/103
f 108/108/108 107/107/107 106/106/106
f 111/111/111 110/110/110 109/109/109
f 114/114/114 113/113/113 112/112/112
f 117/117/117 116/116/116 115/115/115
f 120/120/120 119/119/119 118/118/118
f 123/123/123 122/122/122 121/121/121
f 126/126/126 125/125/125 124/124/124
f 129/129/129 128/128/128 127/127/127
f 132/132/132 131/131/131 130/130/130
f 135/135/135 134/134/134 133/133/133
f 138/138/138 137/137/137 136/136/136
f 141/141/141 140/140/140 139/139/139
f 144/144/144 143/143/143 142/142/142
f 147/147/147 146/146/146 145/145/145
f 150/150/150 149/149/149 148/148/148
f 153/153/153 152/152/152 151/151/151
f 156/156/156 155/155/155 154/154/154
f 159/159/159 158/158/158 157/157/157
f 162/162/162 161/161/161 160/160/160
f 165/165/165 164/164/164 163/163/163
f 168/168/168 167/167/167 166/166/166
f 171/171/171 170/170/170 169/169/169
f 174/174/174 173/173/173 172/172/172
f 177/177/177 176/176/176 175/175/175
f 180/180/180 179/179/179 178/178/178
f 183/183/183 182/182/182 181/181/181
f 186/186/186 185/185/185 184/184/184
f 189/189/189 188/188/188 187/187/187
f 192/192/192 191/191/191 190/190/190
f 195/195/195 194/194/194 193/193/193
f 198/198/198 197/197/197 196/196/196
f 201/201/201 200/200/200 199/199/199
f 204/204/204 203/203/203 202/202/202
f 207/207/207 206/206/206 205/205/205
f 210/210/210 209/209/209 208/208/208
f 213/213/213 212/212/212 211/211/211
f 216/216/216 215/215/215 214/214/214
f 219/219/219 218/218/218 217/217/217
f 222/222/222 221/221/221 220/220/220
f 225/225/225 224/224/224 223/223/223
f 228/228/228 227/227/227 226/226/226
f 231/231/231 230/230/230 229/229/229
f 234/234/234 233/233/233 232/232/232
f 237/237/237 236/236/236 235/235/235
f 240/240/240 239/239/239 238/238/238
f 243/243/243 242/242/242 241/241/241
f 246/246/246 245/245/245 244/244/244
f 249/249/249 248/248/248 247/247/247
