# Generated by Wraith - Game extraction tools
# Please credit DTZxPorter for using it!

v -7.382728 3.687470 -6.484412
v -3.360801 3.623033 -19.709936
v 0.157963 3.737120 -5.109604
v -3.360801 3.623033 -19.709936
v 3.419322 3.674305 -17.045519
v 0.157963 3.737120 -5.109604
v 0.157963 3.737120 -5.109604
v 0.155212 1.299685 -5.109766
v -7.382728 3.687470 -6.484412
v 0.155212 1.299685 -5.109766
v -7.384513 1.250036 -6.486248
v -7.382728 3.687470 -6.484412
v -7.384513 1.250036 -6.486248
v 0.155212 1.299685 -5.109766
v -3.360890 1.185598 -19.710415
v 0.155212 1.299685 -5.109766
v 3.420049 1.236871 -17.041946
v -3.360890 1.185598 -19.710415
v -3.360801 3.623033 -19.709936
v -0.244653 3.607704 -24.392460
v 3.419322 3.674305 -17.045519
v -0.244653 3.607704 -24.392460
v 5.997799 3.659172 -20.693233
v 3.419322 3.674305 -17.045519
v -3.360890 1.185598 -19.710415
v 3.420049 1.236871 -17.041946
v -0.244554 1.170269 -24.392399
v 3.420049 1.236871 -17.041946
v 5.997799 1.221737 -20.693233
v -0.244554 1.170269 -24.392399
v 5.997799 3.659172 -20.693233
v -0.244653 3.607704 -24.392460
v 5.997799 1.221737 -20.693233
v -0.244653 3.607704 -24.392460
v -0.244554 1.170269 -24.392399
v 5.997799 1.221737 -20.693233
v -4.011287 -1.214554 -18.296938
v -7.293651 -1.150117 -4.868741
v 3.176785 -1.264204 -15.635417
v -7.293651 -1.150117 -4.868741
v -0.102443 -1.201390 -3.704394
v 3.176785 -1.264204 -15.635417
v 3.176785 -1.264204 -15.635417
v 3.174340 1.173231 -15.636679
v -4.011287 -1.214554 -18.296938
v 3.174340 1.173231 -15.636679
v -4.013758 1.222880 -18.296265
v -4.011287 -1.214554 -18.296938
v -4.013758 1.222880 -18.296265
v 3.174340 1.173231 -15.636679
v -7.293973 1.287318 -4.868375
v 3.174340 1.173231 -15.636679
v -0.099995 1.236045 -3.707099
v -7.293973 1.287318 -4.868375
v -7.293651 -1.150117 -4.868741
v -7.000016 -1.134788 0.748213
v -0.102443 -1.201390 -3.704394
v -7.000016 -1.134788 0.748213
v 0.256187 -1.186256 0.748213
v -0.102443 -1.201390 -3.704394
v -7.293973 1.287318 -4.868375
v -0.099995 1.236045 -3.707099
v -6.999900 1.302649 0.748213
v -0.099995 1.236045 -3.707099
v 0.256187 1.251179 0.748213
v -6.999900 1.302649 0.748213
v 0.256187 -1.186256 0.748213
v -7.000016 -1.134788 0.748213
v 0.256187 1.251179 0.748213
v -7.000016 -1.134788 0.748213
v -6.999900 1.302649 0.748213
v 0.256187 1.251179 0.748213
v -7.382728 3.687470 -6.484412
v -7.384513 1.250036 -6.486248
v -3.360801 3.623033 -19.709936
v -7.384513 1.250036 -6.486248
v -3.360890 1.185598 -19.710415
v -3.360801 3.623033 -19.709936
v -3.360801 3.623033 -19.709936
v -3.360890 1.185598 -19.710415
v -0.244653 3.607704 -24.392460
v -3.360890 1.185598 -19.710415
v -0.244554 1.170269 -24.392399
v -0.244653 3.607704 -24.392460
v 0.157963 3.737120 -5.109604
v 3.419322 3.674305 -17.045519
v 0.155212 1.299685 -5.109766
v 3.419322 3.674305 -17.045519
v 3.420049 1.236871 -17.041946
v 0.155212 1.299685 -5.109766
v 3.419322 3.674305 -17.045519
v 5.997799 3.659172 -20.693233
v 3.420049 1.236871 -17.041946
v 5.997799 3.659172 -20.693233
v 5.997799 1.221737 -20.693233
v 3.420049 1.236871 -17.041946
v -4.011287 -1.214554 -18.296938
v -4.013758 1.222880 -18.296265
v -7.293651 -1.150117 -4.868741
v -4.013758 1.222880 -18.296265
v -7.293973 1.287318 -4.868375
v -7.293651 -1.150117 -4.868741
v -7.293651 -1.150117 -4.868741
v -7.293973 1.287318 -4.868375
v -7.000016 -1.134788 0.748213
v -7.293973 1.287318 -4.868375
v -6.999900 1.302649 0.748213
v -7.000016 -1.134788 0.748213
v 3.176785 -1.264204 -15.635417
v -0.102443 -1.201390 -3.704394
v 3.174340 1.173231 -15.636679
v -0.102443 -1.201390 -3.704394
v -0.099995 1.236045 -3.707099
v 3.174340 1.173231 -15.636679
v -0.102443 -1.201390 -3.704394
v 0.256187 -1.186256 0.748213
v -0.099995 1.236045 -3.707099
v 0.256187 -1.186256 0.748213
v 0.256187 1.251179 0.748213
v -0.099995 1.236045 -3.707099
vt 0.944824 0.003418
vt 0.956055 0.154297
vt 0.827148 0.020996
vt 0.956055 0.154297
vt 0.842285 0.155762
vt 0.827148 0.020996
vt 0.783203 0.014648
vt 0.814453 0.011230
vt 0.795898 0.087402
vt 0.814453 0.011230
vt 0.827637 0.083496
vt 0.795898 0.087402
vt 0.944824 0.003418
vt 0.827148 0.020996
vt 0.956055 0.154297
vt 0.827148 0.020996
vt 0.842285 0.155762
vt 0.956055 0.154297
vt 0.949707 0.250977
vt 0.929199 0.302246
vt 0.837402 0.239258
vt 0.929199 0.302246
vt 0.819336 0.279297
vt 0.837402 0.239258
vt 0.949707 0.250977
vt 0.837891 0.239258
vt 0.929199 0.302246
vt 0.837891 0.239258
vt 0.819824 0.279297
vt 0.929199 0.302246
vt 0.783203 0.014648
vt 0.795898 0.087402
vt 0.814453 0.011230
vt 0.795898 0.087402
vt 0.827637 0.083496
vt 0.814453 0.011230
vt 0.944824 0.003418
vt 0.956055 0.154297
vt 0.827148 0.020996
vt 0.956055 0.154297
vt 0.842285 0.155762
vt 0.827148 0.020996
vt 0.783203 0.014648
vt 0.814453 0.011230
vt 0.795898 0.087402
vt 0.814453 0.011230
vt 0.827637 0.083496
vt 0.795898 0.087402
vt 0.944824 0.003418
vt 0.827148 0.020996
vt 0.956055 0.154297
vt 0.827148 0.020996
vt 0.842285 0.155762
vt 0.956055 0.154297
vt 0.949707 0.250977
vt 0.929199 0.302246
vt 0.837402 0.239258
vt 0.929199 0.302246
vt 0.819336 0.279297
vt 0.837402 0.239258
vt 0.949707 0.250977
vt 0.837891 0.239258
vt 0.929199 0.302246
vt 0.837891 0.239258
vt 0.819824 0.279297
vt 0.929199 0.302246
vt 0.783203 0.014648
vt 0.795898 0.087402
vt 0.814453 0.011230
vt 0.795898 0.087402
vt 0.827637 0.083496
vt 0.814453 0.011230
vt 0.903320 0.013184
vt 0.940918 0.008301
vt 0.907715 0.216797
vt 0.940918 0.008301
vt 0.944824 0.218262
vt 0.907715 0.216797
vt 0.907715 0.216797
vt 0.944824 0.218262
vt 0.887695 0.294922
vt 0.944824 0.218262
vt 0.924805 0.302246
vt 0.887695 0.294922
vt 0.830566 0.022461
vt 0.840332 0.211914
vt 0.870605 0.017578
vt 0.840332 0.211914
vt 0.879395 0.213379
vt 0.870605 0.017578
vt 0.840332 0.211914
vt 0.822266 0.279297
vt 0.879395 0.213379
vt 0.822266 0.279297
vt 0.860352 0.287598
vt 0.879395 0.213379
vt 0.903320 0.013184
vt 0.940918 0.008301
vt 0.907715 0.216797
vt 0.940918 0.008301
vt 0.944824 0.218262
vt 0.907715 0.216797
vt 0.907715 0.216797
vt 0.944824 0.218262
vt 0.887695 0.294922
vt 0.944824 0.218262
vt 0.924805 0.302246
vt 0.887695 0.294922
vt 0.830566 0.022461
vt 0.840332 0.211914
vt 0.870605 0.017578
vt 0.840332 0.211914
vt 0.879395 0.213379
vt 0.870605 0.017578
vt 0.840332 0.211914
vt 0.822266 0.279297
vt 0.879395 0.213379
vt 0.822266 0.279297
vt 0.860352 0.287598
vt 0.879395 0.213379
vn -0.005871 1.000000 -0.007828
vn -0.003914 1.000000 -0.005871
vn -0.005871 1.000000 -0.007828
vn -0.003914 1.000000 -0.005871
vn -0.003914 1.000000 -0.005871
vn -0.005871 1.000000 -0.007828
vn -0.150685 0.007828 0.988258
vn -0.150685 0.007828 0.988258
vn -0.150685 0.007828 0.988258
vn -0.150685 0.007828 0.988258
vn -0.150685 0.007828 0.988258
vn -0.150685 0.007828 0.988258
vn 0.005871 -1.000000 0.007828
vn 0.005871 -1.000000 0.007828
vn 0.003914 -1.000000 0.005871
vn 0.005871 -1.000000 0.007828
vn 0.003914 -1.000000 0.005871
vn 0.003914 -1.000000 0.005871
vn -0.003914 1.000000 -0.005871
vn -0.003914 1.000000 -0.005871
vn -0.003914 1.000000 -0.005871
vn -0.003914 1.000000 -0.005871
vn -0.003914 1.000000 -0.005871
vn -0.003914 1.000000 -0.005871
vn 0.003914 -1.000000 0.005871
vn 0.003914 -1.000000 0.005871
vn 0.003914 -1.000000 0.005871
vn 0.003914 -1.000000 0.005871
vn 0.003914 -1.000000 0.005871
vn 0.003914 -1.000000 0.005871
vn 0.510763 0.000000 -0.861057
vn 0.510763 0.000000 -0.861057
vn 0.510763 0.000000 -0.861057
vn 0.510763 0.000000 -0.861057
vn 0.510763 0.000000 -0.861057
vn 0.510763 0.000000 -0.861057
vn -0.007828 -1.000000 0.003914
vn -0.007828 -1.000000 0.003914
vn -0.007828 -1.000000 0.003914
vn -0.007828 -1.000000 0.003914
vn -0.007828 -1.000000 0.003914
vn -0.007828 -1.000000 0.003914
vn 0.318982 -0.007828 -0.947162
vn 0.318982 -0.007828 -0.947162
vn 0.318982 -0.007828 -0.947162
vn 0.318982 -0.007828 -0.947162
vn 0.318982 -0.007828 -0.947162
vn 0.318982 -0.007828 -0.947162
vn 0.007828 1.000000 -0.003914
vn 0.007828 1.000000 -0.003914
vn 0.007828 1.000000 -0.003914
vn 0.007828 1.000000 -0.003914
vn 0.007828 1.000000 -0.003914
vn 0.007828 1.000000 -0.003914
vn -0.007828 -1.000000 0.003914
vn -0.007828 -1.000000 0.003914
vn -0.007828 -1.000000 0.003914
vn -0.007828 -1.000000 0.003914
vn -0.007828 -1.000000 0.003914
vn -0.007828 -1.000000 0.003914
vn 0.007828 1.000000 -0.003914
vn 0.007828 1.000000 -0.003914
vn 0.007828 1.000000 -0.003914
vn 0.007828 1.000000 -0.003914
vn 0.007828 1.000000 -0.003914
vn 0.007828 1.000000 -0.003914
vn 0.000000 0.000000 1.000000
vn 0.000000 0.000000 1.000000
vn 0.000000 0.000000 1.000000
vn 0.000000 0.000000 1.000000
vn 0.000000 0.000000 1.000000
vn 0.000000 0.000000 1.000000
vn -0.005871 1.000000 -0.007828
vn 0.005871 -1.000000 0.007828
vn -0.904110 0.000000 -0.426614
vn 0.005871 -1.000000 0.007828
vn 0.005871 -1.000000 0.007828
vn -0.904110 0.000000 -0.426614
vn -0.904110 0.000000 -0.426614
vn 0.005871 -1.000000 0.007828
vn -0.831703 0.000000 -0.553816
vn 0.005871 -1.000000 0.007828
vn -0.831703 0.000000 -0.553816
vn -0.831703 0.000000 -0.553816
vn -0.005871 1.000000 -0.007828
vn 0.904110 0.000000 0.426614
vn 0.005871 -1.000000 0.007828
vn 0.904110 0.000000 0.426614
vn 0.904110 0.000000 0.426614
vn 0.005871 -1.000000 0.007828
vn 0.904110 0.000000 0.426614
vn 0.816047 0.000000 0.577299
vn 0.904110 0.000000 0.426614
vn 0.816047 0.000000 0.577299
vn 0.816047 0.000000 0.577299
vn 0.904110 0.000000 0.426614
vn -0.007828 -1.000000 0.003914
vn 0.007828 1.000000 -0.003914
vn -0.996086 0.000000 -0.093933
vn 0.007828 1.000000 -0.003914
vn 0.007828 1.000000 -0.003914
vn -0.996086 0.000000 -0.093933
vn -0.996086 0.000000 -0.093933
vn 0.007828 1.000000 -0.003914
vn -0.998043 0.000000 0.052838
vn 0.007828 1.000000 -0.003914
vn -0.998043 0.000000 0.052838
vn -0.998043 0.000000 0.052838
vn -0.007828 -1.000000 0.003914
vn 0.996086 0.000000 0.093933
vn 0.007828 1.000000 -0.003914
vn 0.996086 0.000000 0.093933
vn 0.996086 0.000000 0.093933
vn 0.007828 1.000000 -0.003914
vn 0.996086 0.000000 0.093933
vn 0.996086 0.000000 -0.080235
vn 0.996086 0.000000 0.093933
vn 0.996086 0.000000 -0.080235
vn 0.996086 0.000000 -0.080235
vn 0.996086 0.000000 0.093933
mtllib mtl_t6_wpn_ar_xm8.mtl
g mtl_t6_wpn_ar_xm8
usemtl mtl_t6_wpn_ar_xm8
f 3/3/3 2/2/2 1/1/1
f 6/6/6 5/5/5 4/4/4
f 9/9/9 8/8/8 7/7/7
f 12/12/12 11/11/11 10/10/10
f 15/15/15 14/14/14 13/13/13
f 18/18/18 17/17/17 16/16/16
f 21/21/21 20/20/20 19/19/19
f 24/24/24 23/23/23 22/22/22
f 27/27/27 26/26/26 25/25/25
f 30/30/30 29/29/29 28/28/28
f 33/33/33 32/32/32 31/31/31
f 36/36/36 35/35/35 34/34/34
f 39/39/39 38/38/38 37/37/37
f 42/42/42 41/41/41 40/40/40
f 45/45/45 44/44/44 43/43/43
f 48/48/48 47/47/47 46/46/46
f 51/51/51 50/50/50 49/49/49
f 54/54/54 53/53/53 52/52/52
f 57/57/57 56/56/56 55/55/55
f 60/60/60 59/59/59 58/58/58
f 63/63/63 62/62/62 61/61/61
f 66/66/66 65/65/65 64/64/64
f 69/69/69 68/68/68 67/67/67
f 72/72/72 71/71/71 70/70/70
mtllib mtl_t6_wpn_ar_xm8_camo3.mtl
g mtl_t6_wpn_ar_xm8_camo3
usemtl mtl_t6_wpn_ar_xm8_camo3
f 75/75/75 74/74/74 73/73/73
f 78/78/78 77/77/77 76/76/76
f 81/81/81 80/80/80 79/79/79
f 84/84/84 83/83/83 82/82/82
f 87/87/87 86/86/86 85/85/85
f 90/90/90 89/89/89 88/88/88
f 93/93/93 92/92/92 91/91/91
f 96/96/96 95/95/95 94/94/94
f 99/99/99 98/98/98 97/97/97
f 102/102/102 101/101/101 100/100/100
f 105/105/105 104/104/104 103/103/103
f 108/108/108 107/107/107 106/106/106
f 111/111/111 110/110/110 109/109/109
f 114/114/114 113/113/113 112/112/112
f 117/117/117 116/116/116 115/115/115
f 120/120/120 119/119/119 118/118/118
