# Generated by Wraith - Game extraction tools
# Please credit DTZxPorter for using it!

v 14.925530 0.925744 -1.887743
v 14.925530 0.000000 -2.093849
v 14.925530 1.668135 -1.310241
v 14.925530 1.668135 -1.310241
v 14.925530 0.000000 -2.093849
v 14.925530 2.080130 -0.475732
v 14.925530 2.080130 -0.475732
v 14.925530 0.000000 -2.093849
v 14.925530 2.080130 0.450507
v 14.925530 2.080130 0.450507
v 14.925530 0.000000 -2.093849
v 14.925535 1.668135 1.285019
v 14.925535 1.668135 1.285019
v 14.925530 0.000000 -2.093849
v 14.925535 0.925744 1.862521
v 14.925535 0.925744 1.862521
v 14.925530 0.000000 -2.093849
v 14.925530 0.000000 2.068629
v 14.925530 0.000000 2.068629
v 14.925530 0.000000 -2.093849
v 14.925535 -0.925744 1.862521
v 14.925535 -0.925744 1.862521
v 14.925530 0.000000 -2.093849
v 14.925530 -1.668132 1.285021
v 14.925530 -1.668132 1.285021
v 14.925530 0.000000 -2.093849
v 14.925530 -2.080128 0.450507
v 14.925530 -2.080128 0.450507
v 14.925530 0.000000 -2.093849
v 14.925530 -2.080130 -0.475729
v 14.925530 -2.080130 -0.475729
v 14.925530 0.000000 -2.093849
v 14.925530 -1.668132 -1.310241
v 14.925530 -1.668132 -1.310241
v 14.925530 0.000000 -2.093849
v 14.925530 -0.925744 -1.887743
v 0.014432 0.925126 -1.886186
v 0.014432 1.667022 -1.309164
v 0.014432 0.000000 -2.092122
v 0.014432 1.667022 -1.309164
v 0.014432 2.078744 -0.475348
v 0.014432 0.000000 -2.092122
v 0.014432 2.078744 -0.475348
v 0.014432 2.078744 0.450124
v 0.014432 0.000000 -2.092122
v 0.014432 2.078744 0.450124
v 0.014432 1.667022 1.283942
v 0.014432 0.000000 -2.092122
v 0.014432 1.667022 1.283942
v 0.014432 0.925126 1.860964
v 0.014432 0.000000 -2.092122
v 0.014432 0.925126 1.860964
v 0.014432 0.000000 2.066900
v 0.014432 0.000000 -2.092122
v 0.014432 0.000000 2.066900
v 0.014432 -0.925129 1.860964
v 0.014432 0.000000 -2.092122
v 0.014432 -0.925129 1.860964
v 0.014432 -1.667022 1.283945
v 0.014432 0.000000 -2.092122
v 0.014432 -1.667022 1.283945
v 0.014432 -2.078741 0.450124
v 0.014432 0.000000 -2.092122
v 0.014432 -2.078741 0.450124
v 0.014432 -2.078744 -0.475346
v 0.014432 0.000000 -2.092122
v 0.014432 -2.078744 -0.475346
v 0.014432 -1.667022 -1.309164
v 0.014432 0.000000 -2.092122
v 0.014432 -1.667022 -1.309164
v 0.014432 -0.925129 -1.886186
v 0.014432 0.000000 -2.092122
v 14.925530 0.000000 -2.093849
v 14.925530 0.925744 -1.887743
v 0.014432 0.000000 -2.092122
v 14.925530 0.925744 -1.887743
v 0.014432 0.925126 -1.886186
v 0.014432 0.000000 -2.092122
v 14.925530 0.925744 -1.887743
v 14.925530 1.668135 -1.310241
v 0.014432 0.925126 -1.886186
v 14.925530 1.668135 -1.310241
v 0.014432 1.667022 -1.309164
v 0.014432 0.925126 -1.886186
v 14.925530 1.668135 -1.310241
v 14.925530 2.080130 -0.475732
v 0.014432 1.667022 -1.309164
v 14.925530 2.080130 -0.475732
v 0.014432 2.078744 -0.475348
v 0.014432 1.667022 -1.309164
v 14.925530 2.080130 -0.475732
v 14.925530 2.080130 0.450507
v 0.014432 2.078744 -0.475348
v 14.925530 2.080130 0.450507
v 0.014432 2.078744 0.450124
v 0.014432 2.078744 -0.475348
v 14.925530 2.080130 0.450507
v 14.925535 1.668135 1.285019
v 0.014432 2.078744 0.450124
v 14.925535 1.668135 1.285019
v 0.014432 1.667022 1.283942
v 0.014432 2.078744 0.450124
v 14.925535 1.668135 1.285019
v 14.925535 0.925744 1.862521
v 0.014432 1.667022 1.283942
v 14.925535 0.925744 1.862521
v 0.014432 0.925126 1.860964
v 0.014432 1.667022 1.283942
v 14.925535 0.925744 1.862521
v 14.925530 0.000000 2.068629
v 0.014432 0.925126 1.860964
v 14.925530 0.000000 2.068629
v 0.014432 0.000000 2.066900
v 0.014432 0.925126 1.860964
v 14.925530 0.000000 2.068629
v 14.925535 -0.925744 1.862521
v 0.014432 0.000000 2.066900
v 14.925535 -0.925744 1.862521
v 0.014432 -0.925129 1.860964
v 0.014432 0.000000 2.066900
v 14.925535 -0.925744 1.862521
v 14.925530 -1.668132 1.285021
v 0.014432 -0.925129 1.860964
v 14.925530 -1.668132 1.285021
v 0.014432 -1.667022 1.283945
v 0.014432 -0.925129 1.860964
v 14.925530 -1.668132 1.285021
v 14.925530 -2.080128 0.450507
v 0.014432 -1.667022 1.283945
v 14.925530 -2.080128 0.450507
v 0.014432 -2.078741 0.450124
v 0.014432 -1.667022 1.283945
v 14.925530 -2.080128 0.450507
v 14.925530 -2.080130 -0.475729
v 0.014432 -2.078741 0.450124
v 14.925530 -2.080130 -0.475729
v 0.014432 -2.078744 -0.475346
v 0.014432 -2.078741 0.450124
v 14.925530 -2.080130 -0.475729
v 14.925530 -1.668132 -1.310241
v 0.014432 -2.078744 -0.475346
v 14.925530 -1.668132 -1.310241
v 0.014432 -1.667022 -1.309164
v 0.014432 -2.078744 -0.475346
v 14.925530 -1.668132 -1.310241
v 14.925530 -0.925744 -1.887743
v 0.014432 -1.667022 -1.309164
v 14.925530 -0.925744 -1.887743
v 0.014432 -0.925129 -1.886186
v 0.014432 -1.667022 -1.309164
v 14.925530 -0.925744 -1.887743
v 14.925530 0.000000 -2.093849
v 0.014432 -0.925129 -1.886186
v 14.925530 0.000000 -2.093849
v 0.014432 0.000000 -2.092122
v 0.014432 -0.925129 -1.886186
vt 0.935547 0.238281
vt 0.893555 0.228516
vt 0.969727 0.264648
vt 0.969727 0.264648
vt 0.893555 0.228516
vt 0.988770 0.302734
vt 0.988770 0.302734
vt 0.893555 0.228516
vt 0.988770 0.345215
vt 0.988770 0.345215
vt 0.893555 0.228516
vt 0.969727 0.383301
vt 0.969727 0.383301
vt 0.893555 0.228516
vt 0.935547 0.410156
vt 0.935547 0.410156
vt 0.893555 0.228516
vt 0.893555 0.419434
vt 0.893555 0.419434
vt 0.893555 0.228516
vt 0.851074 0.410156
vt 0.851074 0.410156
vt 0.893555 0.228516
vt 0.816895 0.383301
vt 0.816895 0.383301
vt 0.893555 0.228516
vt 0.797852 0.345215
vt 0.797852 0.345215
vt 0.893555 0.228516
vt 0.797852 0.302734
vt 0.797852 0.302734
vt 0.893555 0.228516
vt 0.816895 0.264648
vt 0.816895 0.264648
vt 0.893555 0.228516
vt 0.851074 0.238281
vt 0.846680 0.020020
vt 0.811035 0.047852
vt 0.891602 0.009766
vt 0.811035 0.047852
vt 0.791016 0.087891
vt 0.891602 0.009766
vt 0.791016 0.087891
vt 0.791016 0.132324
vt 0.891602 0.009766
vt 0.791016 0.132324
vt 0.811035 0.172852
vt 0.891602 0.009766
vt 0.811035 0.172852
vt 0.846680 0.200684
vt 0.891602 0.009766
vt 0.846680 0.200684
vt 0.891602 0.210449
vt 0.891602 0.009766
vt 0.891602 0.210449
vt 0.936035 0.200684
vt 0.891602 0.009766
vt 0.936035 0.200684
vt 0.972168 0.172852
vt 0.891602 0.009766
vt 0.972168 0.172852
vt 0.991699 0.132324
vt 0.891602 0.009766
vt 0.991699 0.132324
vt 0.991699 0.087891
vt 0.891602 0.009766
vt 0.991699 0.087891
vt 0.972168 0.047852
vt 0.891602 0.009766
vt 0.972168 0.047852
vt 0.936035 0.020020
vt 0.891602 0.009766
vt 0.014374 0.003418
vt 0.014374 0.024414
vt 0.736328 0.003418
vt 0.014374 0.024414
vt 0.736328 0.024414
vt 0.736328 0.003418
vt 0.014374 0.024414
vt 0.014374 0.046875
vt 0.736328 0.024414
vt 0.014374 0.046875
vt 0.736328 0.046875
vt 0.736328 0.024414
vt 0.014374 0.046875
vt 0.014374 0.071289
vt 0.736328 0.046875
vt 0.014374 0.071289
vt 0.736328 0.069336
vt 0.736328 0.046875
vt 0.014374 0.071289
vt 0.014374 0.093262
vt 0.736328 0.069336
vt 0.014374 0.093262
vt 0.736328 0.095215
vt 0.736328 0.069336
vt 0.014374 0.093262
vt 0.014374 0.115234
vt 0.736328 0.095215
vt 0.014374 0.115234
vt 0.736328 0.119629
vt 0.736328 0.095215
vt 0.014374 0.115234
vt 0.014374 0.139648
vt 0.736328 0.119629
vt 0.014374 0.139648
vt 0.736328 0.138672
vt 0.736328 0.119629
vt 0.014374 0.139648
vt 0.014374 0.163574
vt 0.736328 0.138672
vt 0.014374 0.163574
vt 0.736328 0.164551
vt 0.736328 0.138672
vt 0.014374 0.163574
vt 0.014374 0.187500
vt 0.736328 0.164551
vt 0.014374 0.187500
vt 0.736328 0.188477
vt 0.736328 0.164551
vt 0.014374 0.187500
vt 0.014374 0.211914
vt 0.736328 0.188477
vt 0.014374 0.211914
vt 0.736328 0.211914
vt 0.736328 0.188477
vt 0.014374 0.211914
vt 0.014374 0.233398
vt 0.736328 0.211914
vt 0.014374 0.233398
vt 0.736328 0.233398
vt 0.736328 0.211914
vt 0.014374 0.233398
vt 0.014374 0.255859
vt 0.736328 0.233398
vt 0.014374 0.255859
vt 0.736328 0.255859
vt 0.736328 0.233398
vt 0.014374 0.255859
vt 0.014374 0.279785
vt 0.736328 0.255859
vt 0.014374 0.279785
vt 0.736328 0.279785
vt 0.736328 0.255859
vt 0.014374 0.279785
vt 0.014374 0.302734
vt 0.736328 0.279785
vt 0.014374 0.302734
vt 0.736328 0.302734
vt 0.736328 0.279785
vt 0.014374 0.302734
vt 0.014374 0.323242
vt 0.736328 0.302734
vt 0.014374 0.323242
vt 0.736328 0.323242
vt 0.736328 0.302734
vn 1.000000 0.000000 0.000000
vn 1.000000 0.000000 0.000000
vn 1.000000 0.000000 0.000000
vn 1.000000 0.000000 0.000000
vn 1.000000 0.000000 0.000000
vn 1.000000 0.000000 0.000000
vn 1.000000 0.000000 0.000000
vn 1.000000 0.000000 0.000000
vn 1.000000 0.000000 0.000000
vn 1.000000 0.000000 0.000000
vn 1.000000 0.000000 0.000000
vn 1.000000 0.000000 0.000000
vn 1.000000 0.000000 0.000000
vn 1.000000 0.000000 0.000000
vn 1.000000 0.000000 0.000000
vn 1.000000 0.000000 0.000000
vn 1.000000 0.000000 0.000000
vn 1.000000 0.000000 0.000000
vn 1.000000 0.000000 0.000000
vn 1.000000 0.000000 0.000000
vn 1.000000 0.000000 0.000000
vn 1.000000 0.000000 0.000000
vn 1.000000 0.000000 0.000000
vn 1.000000 0.000000 0.000000
vn 1.000000 0.000000 0.000000
vn 1.000000 0.000000 0.000000
vn 1.000000 0.000000 0.000000
vn 1.000000 0.000000 0.000000
vn 1.000000 0.000000 0.000000
vn 1.000000 0.000000 0.000000
vn 1.000000 0.000000 0.000000
vn 1.000000 0.000000 0.000000
vn 1.000000 0.000000 0.000000
vn 1.000000 0.000000 0.000000
vn 1.000000 0.000000 0.000000
vn 1.000000 0.000000 0.000000
vn -1.000000 0.000000 0.000000
vn -1.000000 0.000000 0.000000
vn -1.000000 0.000000 0.000000
vn -1.000000 0.000000 0.000000
vn -1.000000 0.000000 0.000000
vn -1.000000 0.000000 0.000000
vn -1.000000 0.000000 0.000000
vn -1.000000 0.000000 0.000000
vn -1.000000 0.000000 0.000000
vn -1.000000 0.000000 0.000000
vn -1.000000 0.000000 0.000000
vn -1.000000 0.000000 0.000000
vn -1.000000 0.000000 0.000000
vn -1.000000 0.000000 0.000000
vn -1.000000 0.000000 0.000000
vn -1.000000 0.000000 0.000000
vn -1.000000 0.000000 0.000000
vn -1.000000 0.000000 0.000000
vn -1.000000 0.000000 0.000000
vn -1.000000 0.000000 0.000000
vn -1.000000 0.000000 0.000000
vn -1.000000 0.000000 0.000000
vn -1.000000 0.000000 0.000000
vn -1.000000 0.000000 0.000000
vn -1.000000 0.000000 0.000000
vn -1.000000 0.000000 0.000000
vn -1.000000 0.000000 0.000000
vn -1.000000 0.000000 0.000000
vn -1.000000 0.000000 0.000000
vn -1.000000 0.000000 0.000000
vn -1.000000 0.000000 0.000000
vn -1.000000 0.000000 0.000000
vn -1.000000 0.000000 0.000000
vn -1.000000 0.000000 0.000000
vn -1.000000 0.000000 0.000000
vn -1.000000 0.000000 0.000000
vn 0.000000 0.000000 -1.000000
vn 0.000000 0.426614 -0.904110
vn 0.000000 0.000000 -1.000000
vn 0.000000 0.426614 -0.904110
vn 0.000000 0.426614 -0.904110
vn 0.000000 0.000000 -1.000000
vn 0.000000 0.426614 -0.904110
vn 0.000000 0.774951 -0.632094
vn 0.000000 0.426614 -0.904110
vn 0.000000 0.774951 -0.632094
vn 0.000000 0.774951 -0.632094
vn 0.000000 0.426614 -0.904110
vn 0.000000 0.774951 -0.632094
vn 0.000000 0.974560 -0.227006
vn 0.000000 0.774951 -0.632094
vn 0.000000 0.974560 -0.227006
vn 0.000000 0.974560 -0.227006
vn 0.000000 0.774951 -0.632094
vn 0.000000 0.974560 -0.227006
vn 0.000000 0.974560 0.227006
vn 0.000000 0.974560 -0.227006
vn 0.000000 0.974560 0.227006
vn 0.000000 0.974560 0.227006
vn 0.000000 0.974560 -0.227006
vn 0.000000 0.974560 0.227006
vn 0.000000 0.774951 0.632094
vn 0.000000 0.974560 0.227006
vn 0.000000 0.774951 0.632094
vn 0.000000 0.774951 0.632094
vn 0.000000 0.974560 0.227006
vn 0.000000 0.774951 0.632094
vn 0.000000 0.426614 0.904110
vn 0.000000 0.774951 0.632094
vn 0.000000 0.426614 0.904110
vn 0.000000 0.426614 0.904110
vn 0.000000 0.774951 0.632094
vn 0.000000 0.426614 0.904110
vn 0.000000 0.000000 1.000000
vn 0.000000 0.426614 0.904110
vn 0.000000 0.000000 1.000000
vn 0.000000 0.000000 1.000000
vn 0.000000 0.426614 0.904110
vn 0.000000 0.000000 1.000000
vn 0.000000 -0.426614 0.904110
vn 0.000000 0.000000 1.000000
vn 0.000000 -0.426614 0.904110
vn 0.000000 -0.426614 0.904110
vn 0.000000 0.000000 1.000000
vn 0.000000 -0.426614 0.904110
vn 0.000000 -0.774951 0.632094
vn 0.000000 -0.426614 0.904110
vn 0.000000 -0.774951 0.632094
vn 0.000000 -0.774951 0.632094
vn 0.000000 -0.426614 0.904110
vn 0.000000 -0.774951 0.632094
vn 0.000000 -0.974560 0.227006
vn 0.000000 -0.774951 0.632094
vn 0.000000 -0.974560 0.227006
vn 0.000000 -0.974560 0.227006
vn 0.000000 -0.774951 0.632094
vn 0.000000 -0.974560 0.227006
vn 0.000000 -0.974560 -0.227006
vn 0.000000 -0.974560 0.227006
vn 0.000000 -0.974560 -0.227006
vn 0.000000 -0.974560 -0.227006
vn 0.000000 -0.974560 0.227006
vn 0.000000 -0.974560 -0.227006
vn 0.000000 -0.774951 -0.632094
vn 0.000000 -0.974560 -0.227006
vn 0.000000 -0.774951 -0.632094
vn 0.000000 -0.774951 -0.632094
vn 0.000000 -0.974560 -0.227006
vn 0.000000 -0.774951 -0.632094
vn 0.000000 -0.426614 -0.904110
vn 0.000000 -0.774951 -0.632094
vn 0.000000 -0.426614 -0.904110
vn 0.000000 -0.426614 -0.904110
vn 0.000000 -0.774951 -0.632094
vn 0.000000 -0.426614 -0.904110
vn 0.000000 0.000000 -1.000000
vn 0.000000 -0.426614 -0.904110
vn 0.000000 0.000000 -1.000000
vn 0.000000 0.000000 -1.000000
vn 0.000000 -0.426614 -0.904110
mtllib mtl_t6_attach_ar_silencer1.mtl
g mtl_t6_attach_ar_silencer1
usemtl mtl_t6_attach_ar_silencer1
f 3/3/3 2/2/2 1/1/1
f 6/6/6 5/5/5 4/4/4
f 9/9/9 8/8/8 7/7/7
f 12/12/12 11/11/11 10/10/10
f 15/15/15 14/14/14 13/13/13
f 18/18/18 17/17/17 16/16/16
f 21/21/21 20/20/20 19/19/19
f 24/24/24 23/23/23 22/22/22
f 27/27/27 26/26/26 25/25/25
f 30/30/30 29/29/29 28/28/28
f 33/33/33 32/32/32 31/31/31
f 36/36/36 35/35/35 34/34/34
f 39/39/39 38/38/38 37/37/37
f 42/42/42 41/41/41 40/40/40
f 45/45/45 44/44/44 43/43/43
f 48/48/48 47/47/47 46/46/46
f 51/51/51 50/50/50 49/49/49
f 54/54/54 53/53/53 52/52/52
f 57/57/57 56/56/56 55/55/55
f 60/60/60 59/59/59 58/58/58
f 63/63/63 62/62/62 61/61/61
f 66/66/66 65/65/65 64/64/64
f 69/69/69 68/68/68 67/67/67
f 72/72/72 71/71/71 70/70/70
f 75/75/75 74/74/74 73/73/73
f 78/78/78 77/77/77 76/76/76
f 81/81/81 80/80/80 79/79/79
f 84/84/84 83/83/83 82/82/82
f 87/87/87 86/86/86 85/85/85
f 90/90/90 89/89/89 88/88/88
f 93/93/93 92/92/92 91/91/91
f 96/96/96 95/95/95 94/94/94
f 99/99/99 98/98/98 97/97/97
f 102/102/102 101/101/101 100/100/100
f 105/105/105 104/104/104 103/103/103
f 108/108/108 107/107/107 106/106/106
f 111/111/111 110/110/110 109/109/109
f 114/114/114 113/113/113 112/112/112
f 117/117/117 116/116/116 115/115/115
f 120/120/120 119/119/119 118/118/118
f 123/123/123 122/122/122 121/121/121
f 126/126/126 125/125/125 124/124/124
f 129/129/129 128/128/128 127/127/127
f 132/132/132 131/131/131 130/130/130
f 135/135/135 134/134/134 133/133/133
f 138/138/138 137/137/137 136/136/136
f 141/141/141 140/140/140 139/139/139
f 144/144/144 143/143/143 142/142/142
f 147/147/147 146/146/146 145/145/145
f 150/150/150 149/149/149 148/148/148
f 153/153/153 152/152/152 151/151/151
f 156/156/156 155/155/155 154/154/154
