# Generated by Wraith - Game extraction tools
# Please credit DTZxPorter for using it!

v 14.925530 0.000000 -2.093849
v 14.925530 2.080130 0.450507
v 14.925530 1.668135 -1.310241
v 14.925530 0.000000 -2.093849
v 14.925535 0.925744 2.054715
v 14.925530 2.080130 0.450507
v 14.925530 0.000000 -2.093849
v 14.925535 -0.925744 2.054715
v 14.925535 0.925744 2.054715
v 14.925530 0.000000 -2.093849
v 14.925530 -2.080128 0.450507
v 14.925535 -0.925744 2.054715
v 14.925530 0.000000 -2.093849
v 14.925530 -1.668132 -1.310241
v 14.925530 -2.080128 0.450507
v 0.014432 0.000000 -2.092122
v 0.014432 1.667022 -1.309164
v 0.014432 2.078744 0.450124
v 0.014432 0.000000 -2.092122
v 0.014432 2.078744 0.450124
v 0.014432 0.925126 2.053158
v 0.014432 0.000000 -2.092122
v 0.014432 0.925126 2.053158
v 0.014432 -0.925129 2.053158
v 0.014432 0.000000 -2.092122
v 0.014432 -0.925129 2.053158
v 0.014432 -2.078741 0.450124
v 0.014432 0.000000 -2.092122
v 0.014432 -2.078741 0.450124
v 0.014432 -1.667022 -1.309164
v 0.014432 1.667022 -1.309164
v 0.014432 0.000000 -2.092122
v 14.925530 0.000000 -2.093849
v 14.925530 1.668135 -1.310241
v 0.014432 1.667022 -1.309164
v 14.925530 0.000000 -2.093849
v 0.014432 2.078744 0.450124
v 0.014432 1.667022 -1.309164
v 14.925530 1.668135 -1.310241
v 14.925530 2.080130 0.450507
v 0.014432 2.078744 0.450124
v 14.925530 1.668135 -1.310241
v 0.014432 0.925126 2.053158
v 0.014432 2.078744 0.450124
v 14.925530 2.080130 0.450507
v 14.925535 0.925744 2.054715
v 0.014432 0.925126 2.053158
v 14.925530 2.080130 0.450507
v 0.014432 -0.925129 2.053158
v 0.014432 0.925126 2.053158
v 14.925535 0.925744 2.054715
v 14.925535 -0.925744 2.054715
v 0.014432 -0.925129 2.053158
v 14.925535 0.925744 2.054715
v 0.014432 -2.078741 0.450124
v 0.014432 -0.925129 2.053158
v 14.925535 -0.925744 2.054715
v 14.925530 -2.080128 0.450507
v 0.014432 -2.078741 0.450124
v 14.925535 -0.925744 2.054715
v 0.014432 -1.667022 -1.309164
v 0.014432 -2.078741 0.450124
v 14.925530 -2.080128 0.450507
v 14.925530 -1.668132 -1.310241
v 0.014432 -1.667022 -1.309164
v 14.925530 -2.080128 0.450507
v 14.925530 -1.668132 -1.310241
v 14.925530 0.000000 -2.093849
v 0.014432 -1.667022 -1.309164
v 14.925530 0.000000 -2.093849
v 0.014432 0.000000 -2.092122
v 0.014432 -1.667022 -1.309164
vt 0.893555 0.228516
vt 0.988770 0.345215
vt 0.952637 0.251465
vt 0.893555 0.228516
vt 0.935547 0.410156
vt 0.988770 0.345215
vt 0.893555 0.228516
vt 0.851074 0.410156
vt 0.935547 0.410156
vt 0.893555 0.228516
vt 0.797852 0.345215
vt 0.851074 0.410156
vt 0.893555 0.228516
vt 0.833984 0.251465
vt 0.797852 0.345215
vt 0.891602 0.009766
vt 0.829102 0.033691
vt 0.791016 0.132324
vt 0.891602 0.009766
vt 0.791016 0.132324
vt 0.846680 0.200684
vt 0.891602 0.009766
vt 0.846680 0.200684
vt 0.936035 0.200684
vt 0.891602 0.009766
vt 0.936035 0.200684
vt 0.991699 0.132324
vt 0.891602 0.009766
vt 0.991699 0.132324
vt 0.954102 0.033691
vt 0.743652 0.035645
vt 0.743652 0.003418
vt 0.014702 0.003418
vt 0.014702 0.035645
vt 0.743652 0.035645
vt 0.014702 0.003418
vt 0.743652 0.095215
vt 0.743652 0.035645
vt 0.014702 0.035645
vt 0.014702 0.093262
vt 0.743652 0.095215
vt 0.014702 0.035645
vt 0.743652 0.138672
vt 0.743652 0.095215
vt 0.014702 0.093262
vt 0.014702 0.139648
vt 0.743652 0.138672
vt 0.014702 0.093262
vt 0.743652 0.188477
vt 0.743652 0.138672
vt 0.014702 0.139648
vt 0.014702 0.187500
vt 0.743652 0.188477
vt 0.014702 0.139648
vt 0.743652 0.233398
vt 0.743652 0.188477
vt 0.014702 0.187500
vt 0.014702 0.233398
vt 0.743652 0.233398
vt 0.014702 0.187500
vt 0.743652 0.291504
vt 0.743652 0.233398
vt 0.014702 0.233398
vt 0.014702 0.291504
vt 0.743652 0.291504
vt 0.014702 0.233398
vt 0.014702 0.291504
vt 0.014702 0.323242
vt 0.743652 0.291504
vt 0.014702 0.323242
vt 0.743652 0.323242
vt 0.743652 0.291504
vn 1.000000 0.000000 0.000000
vn 1.000000 0.000000 0.000000
vn 1.000000 0.000000 0.000000
vn 1.000000 0.000000 0.000000
vn 1.000000 0.000000 0.000000
vn 1.000000 0.000000 0.000000
vn 1.000000 0.000000 0.000000
vn 1.000000 0.000000 0.000000
vn 1.000000 0.000000 0.000000
vn 1.000000 0.000000 0.000000
vn 1.000000 0.000000 0.000000
vn 1.000000 0.000000 0.000000
vn 1.000000 0.000000 0.000000
vn 1.000000 0.000000 0.000000
vn 1.000000 0.000000 0.000000
vn -1.000000 0.000000 0.000000
vn -1.000000 0.000000 0.000000
vn -1.000000 0.000000 0.000000
vn -1.000000 0.000000 0.000000
vn -1.000000 0.000000 0.000000
vn -1.000000 0.000000 0.000000
vn -1.000000 0.000000 0.000000
vn -1.000000 0.000000 0.000000
vn -1.000000 0.000000 0.000000
vn -1.000000 0.000000 0.000000
vn -1.000000 0.000000 0.000000
vn -1.000000 0.000000 0.000000
vn -1.000000 0.000000 0.000000
vn -1.000000 0.000000 0.000000
vn -1.000000 0.000000 0.000000
vn 0.000000 0.776908 -0.630137
vn 0.000000 0.000000 -1.000000
vn 0.000000 0.000000 -1.000000
vn 0.000000 0.776908 -0.630137
vn 0.000000 0.776908 -0.630137
vn 0.000000 0.000000 -1.000000
vn 0.000000 0.980431 0.195695
vn 0.000000 0.776908 -0.630137
vn 0.000000 0.776908 -0.630137
vn 0.000000 0.980431 0.195695
vn 0.000000 0.980431 0.195695
vn 0.000000 0.776908 -0.630137
vn 0.000000 0.455969 0.890411
vn 0.000000 0.980431 0.195695
vn 0.000000 0.980431 0.195695
vn 0.000000 0.455969 0.890411
vn 0.000000 0.455969 0.890411
vn 0.000000 0.980431 0.195695
vn 0.000000 -0.455969 0.890411
vn 0.000000 0.455969 0.890411
vn 0.000000 0.455969 0.890411
vn 0.000000 -0.455969 0.890411
vn 0.000000 -0.455969 0.890411
vn 0.000000 0.455969 0.890411
vn 0.000000 -0.980431 0.195695
vn 0.000000 -0.455969 0.890411
vn 0.000000 -0.455969 0.890411
vn 0.000000 -0.980431 0.195695
vn 0.000000 -0.980431 0.195695
vn 0.000000 -0.455969 0.890411
vn 0.000000 -0.776908 -0.630137
vn 0.000000 -0.980431 0.195695
vn 0.000000 -0.980431 0.195695
vn 0.000000 -0.776908 -0.630137
vn 0.000000 -0.776908 -0.630137
vn 0.000000 -0.980431 0.195695
vn 0.000000 -0.776908 -0.630137
vn 0.000000 0.000000 -1.000000
vn 0.000000 -0.776908 -0.630137
vn 0.000000 0.000000 -1.000000
vn 0.000000 0.000000 -1.000000
vn 0.000000 -0.776908 -0.630137
mtllib mtl_t6_attach_ar_silencer1.mtl
g mtl_t6_attach_ar_silencer1
usemtl mtl_t6_attach_ar_silencer1
f 3/3/3 2/2/2 1/1/1
f 6/6/6 5/5/5 4/4/4
f 9/9/9 8/8/8 7/7/7
f 12/12/12 11/11/11 10/10/10
f 15/15/15 14/14/14 13/13/13
f 18/18/18 17/17/17 16/16/16
f 21/21/21 20/20/20 19/19/19
f 24/24/24 23/23/23 22/22/22
f 27/27/27 26/26/26 25/25/25
f 30/30/30 29/29/29 28/28/28
f 33/33/33 32/32/32 31/31/31
f 36/36/36 35/35/35 34/34/34
f 39/39/39 38/38/38 37/37/37
f 42/42/42 41/41/41 40/40/40
f 45/45/45 44/44/44 43/43/43
f 48/48/48 47/47/47 46/46/46
f 51/51/51 50/50/50 49/49/49
f 54/54/54 53/53/53 52/52/52
f 57/57/57 56/56/56 55/55/55
f 60/60/60 59/59/59 58/58/58
f 63/63/63 62/62/62 61/61/61
f 66/66/66 65/65/65 64/64/64
f 69/69/69 68/68/68 67/67/67
f 72/72/72 71/71/71 70/70/70
