# Generated by Wraith - Game extraction tools
# Please credit DTZxPorter for using it!

v 12.263259 9.477024 7.378522
v 12.636530 9.477024 0.346906
v 16.361416 12.454300 3.437768
v -12.873941 9.477024 8.206786
v -12.380143 -7.858869 8.206786
v -15.341541 9.734488 4.277421
v -12.380143 -7.858869 8.206786
v -15.212245 -8.220319 4.277421
v -15.341541 9.734488 4.277421
v -15.212245 -8.220319 4.277421
v -12.718872 -7.858869 0.346906
v -15.341541 9.734488 4.277421
v -13.212673 9.477024 0.346906
v -15.341541 9.734488 4.277421
v -12.718872 -7.858869 0.346906
v 16.534790 -11.220323 3.437768
v 16.361416 12.454300 3.437768
v 12.335085 -7.990606 0.346906
v 16.361416 12.454300 3.437768
v 12.636530 9.477024 0.346906
v 12.335085 -7.990606 0.346906
v -12.380143 -7.858869 8.206786
v -12.718872 -7.858869 0.346906
v -15.212245 -8.220319 4.277421
v -12.718872 -7.858869 0.346906
v -12.380143 -7.858869 8.206786
v 12.335085 -7.990606 0.346906
v -12.380143 -7.858869 8.206786
v 12.335085 -7.990606 7.378522
v 12.335085 -7.990606 0.346906
v 16.534790 -11.220323 3.437768
v 12.335085 -7.990606 0.346906
v 12.335085 -7.990606 7.378522
v -13.212673 9.477024 0.346906
v -12.718872 -7.858869 0.346906
v 12.636530 9.477024 0.346906
v -12.718872 -7.858869 0.346906
v 12.335085 -7.990606 0.346906
v 12.636530 9.477024 0.346906
v -15.341541 9.734488 4.277421
v -13.212673 9.477024 0.346906
v -12.873941 9.477024 8.206786
v -12.873941 9.477024 8.206786
v -13.212673 9.477024 0.346906
v 12.263259 9.477024 7.378522
v -12.380143 -7.858869 8.206786
v -12.873941 9.477024 8.206786
v 12.263259 9.477024 7.378522
v 12.335085 -7.990606 7.378522
v -12.380143 -7.858869 8.206786
v 12.263259 9.477024 7.378522
v 12.263259 9.477024 7.378522
v 16.361416 12.454300 3.437768
v 12.335085 -7.990606 7.378522
v 16.361416 12.454300 3.437768
v 16.534790 -11.220323 3.437768
v 12.335085 -7.990606 7.378522
v -13.212673 9.477024 0.346906
v 12.636530 9.477024 0.346906
v 12.263259 9.477024 7.378522
vt 0.569336 0.260254
vt 0.710938 0.243652
vt 0.625977 0.138672
vt 0.569336 0.806030
vt 0.191406 0.795654
vt 0.570313 0.905884
vt 0.191406 0.795654
vt 0.180664 0.903809
vt 0.570313 0.905884
vt 0.180664 0.903809
vt 0.188110 0.998713
vt 0.570313 0.905884
vt 0.564453 0.998713
vt 0.570313 0.905884
vt 0.188110 0.998713
vt 0.113953 0.141602
vt 0.625977 0.138672
vt 0.191528 0.013184
vt 0.625977 0.138672
vt 0.570801 0.025391
vt 0.191528 0.013184
vt 0.191406 0.795654
vt 0.003679 0.796265
vt 0.087097 0.863159
vt 0.003679 0.796265
vt 0.191406 0.795654
vt 0.022308 0.222168
vt 0.191406 0.795654
vt 0.190186 0.258789
vt 0.022308 0.222168
vt 0.113953 0.141602
vt 0.022308 0.222168
vt 0.190186 0.258789
vt 0.735840 0.386719
vt 0.975586 0.379883
vt 0.735840 0.039551
vt 0.975586 0.379883
vt 0.977539 0.043457
vt 0.735840 0.039551
vt 0.671875 0.863159
vt 0.757813 0.802368
vt 0.569336 0.806030
vt 0.569336 0.806030
vt 0.757813 0.802368
vt 0.569336 0.260254
vt 0.191406 0.795654
vt 0.569336 0.806030
vt 0.569336 0.260254
vt 0.190186 0.258789
vt 0.191406 0.795654
vt 0.569336 0.260254
vt 0.569336 0.260254
vt 0.625977 0.138672
vt 0.190186 0.258789
vt 0.625977 0.138672
vt 0.113953 0.141602
vt 0.190186 0.258789
vt 0.757813 0.802368
vt 0.710938 0.243652
vt 0.569336 0.260254
vn 0.387476 0.399217 0.831703
vn 0.387476 0.399217 -0.831703
vn 0.655577 0.749511 -0.090020
vn -0.387476 0.399217 0.831703
vn -0.389432 -0.401174 0.827789
vn -0.673190 0.739726 0.029354
vn -0.389432 -0.401174 0.827789
vn -0.649706 -0.759295 0.027397
vn -0.673190 0.739726 0.029354
vn -0.649706 -0.759295 0.027397
vn -0.389432 -0.401174 -0.827789
vn -0.673190 0.739726 0.029354
vn -0.387476 0.399217 -0.831703
vn -0.673190 0.739726 0.029354
vn -0.389432 -0.401174 -0.827789
vn 0.659491 -0.749511 -0.060665
vn 0.655577 0.749511 -0.090020
vn 0.391389 -0.401174 -0.827789
vn 0.655577 0.749511 -0.090020
vn 0.387476 0.399217 -0.831703
vn 0.391389 -0.401174 -0.827789
vn -0.389432 -0.401174 0.827789
vn -0.389432 -0.401174 -0.827789
vn -0.649706 -0.759295 0.027397
vn -0.389432 -0.401174 -0.827789
vn -0.389432 -0.401174 0.827789
vn 0.391389 -0.401174 -0.827789
vn -0.389432 -0.401174 0.827789
vn 0.391389 -0.401174 0.827789
vn 0.391389 -0.401174 -0.827789
vn 0.659491 -0.749511 -0.060665
vn 0.391389 -0.401174 -0.827789
vn 0.391389 -0.401174 0.827789
vn -0.387476 0.399217 -0.831703
vn -0.389432 -0.401174 -0.827789
vn 0.387476 0.399217 -0.831703
vn -0.389432 -0.401174 -0.827789
vn 0.391389 -0.401174 -0.827789
vn 0.387476 0.399217 -0.831703
vn -0.673190 0.739726 0.029354
vn -0.387476 0.399217 -0.831703
vn -0.387476 0.399217 0.831703
vn -0.387476 0.399217 0.831703
vn -0.387476 0.399217 -0.831703
vn 0.387476 0.399217 0.831703
vn -0.389432 -0.401174 0.827789
vn -0.387476 0.399217 0.831703
vn 0.387476 0.399217 0.831703
vn 0.391389 -0.401174 0.827789
vn -0.389432 -0.401174 0.827789
vn 0.387476 0.399217 0.831703
vn 0.387476 0.399217 0.831703
vn 0.655577 0.749511 -0.090020
vn 0.391389 -0.401174 0.827789
vn 0.655577 0.749511 -0.090020
vn 0.659491 -0.749511 -0.060665
vn 0.391389 -0.401174 0.827789
vn -0.387476 0.399217 -0.831703
vn 0.387476 0.399217 -0.831703
vn 0.387476 0.399217 0.831703
mtllib mtl_p6_bag_spice.mtl
g mtl_p6_bag_spice
usemtl mtl_p6_bag_spice
f 3/3/3 2/2/2 1/1/1
f 6/6/6 5/5/5 4/4/4
f 9/9/9 8/8/8 7/7/7
f 12/12/12 11/11/11 10/10/10
f 15/15/15 14/14/14 13/13/13
f 18/18/18 17/17/17 16/16/16
f 21/21/21 20/20/20 19/19/19
f 24/24/24 23/23/23 22/22/22
f 27/27/27 26/26/26 25/25/25
f 30/30/30 29/29/29 28/28/28
f 33/33/33 32/32/32 31/31/31
f 36/36/36 35/35/35 34/34/34
f 39/39/39 38/38/38 37/37/37
f 42/42/42 41/41/41 40/40/40
f 45/45/45 44/44/44 43/43/43
f 48/48/48 47/47/47 46/46/46
f 51/51/51 50/50/50 49/49/49
f 54/54/54 53/53/53 52/52/52
f 57/57/57 56/56/56 55/55/55
f 60/60/60 59/59/59 58/58/58
