# Generated by Wraith - Game extraction tools
# Please credit DTZxPorter for using it!

v 0.141539 0.778424 -0.435628
v 0.370548 0.778421 -0.269245
v -0.141531 0.778424 -0.435628
v -0.141531 0.778424 -0.435628
v 0.370548 0.778421 -0.269245
v -0.370543 0.778424 -0.269258
v -0.370543 0.778424 -0.269258
v 0.370548 0.778421 -0.269245
v -0.458015 0.778424 -0.000025
v -0.458015 0.778424 -0.000025
v 0.370548 0.778421 -0.269245
v -0.370543 0.778424 0.269212
v -0.370543 0.778424 0.269212
v 0.370548 0.778421 -0.269245
v -0.141531 0.778424 0.435579
v -0.141531 0.778424 0.435579
v 0.370548 0.778421 -0.269245
v 0.141539 0.778424 0.435579
v 0.141539 0.778424 0.435579
v 0.370548 0.778421 -0.269245
v 0.370548 0.778424 0.269192
v 0.370548 0.778424 0.269192
v 0.370548 0.778421 -0.269245
v 0.458020 0.778424 -0.000025
v 0.374919 -0.798360 0.274815
v 0.458020 0.778424 -0.000025
v 0.458020 -0.798360 -0.000025
v 0.370548 0.778424 0.269192
v 0.458020 0.778424 -0.000025
v 0.374919 -0.798360 0.274815
v 0.370548 0.778424 0.269192
v 0.374919 -0.798360 0.274815
v 0.141539 -0.798360 0.435579
v 0.370548 0.778424 0.269192
v 0.141539 -0.798360 0.435579
v 0.141539 0.778424 0.435579
v 0.141539 -0.798360 0.435579
v -0.141531 0.778424 0.435579
v 0.141539 0.778424 0.435579
v -0.141531 -0.798360 0.435579
v -0.141531 0.778424 0.435579
v 0.141539 -0.798360 0.435579
v -0.370543 0.778424 0.269212
v -0.141531 0.778424 0.435579
v -0.141531 -0.798360 0.435579
v -0.370543 0.778424 0.269212
v -0.141531 -0.798360 0.435579
v -0.373794 -0.798360 0.275333
v -0.370543 0.778424 0.269212
v -0.373794 -0.798360 0.275333
v -0.458015 0.778424 -0.000025
v -0.458015 0.778424 -0.000025
v -0.373794 -0.798360 0.275333
v -0.435747 -0.798360 -0.000025
v -0.373794 -0.798360 -0.275384
v -0.458015 0.778424 -0.000025
v -0.435747 -0.798360 -0.000025
v -0.370543 0.778424 -0.269258
v -0.458015 0.778424 -0.000025
v -0.373794 -0.798360 -0.275384
v -0.370543 0.778424 -0.269258
v -0.373794 -0.798360 -0.275384
v -0.141531 -0.798360 -0.435630
v -0.370543 0.778424 -0.269258
v -0.141531 -0.798360 -0.435630
v -0.141531 0.778424 -0.435628
v -0.141531 -0.798360 -0.435630
v 0.141539 -0.798360 -0.435630
v -0.141531 0.778424 -0.435628
v -0.141531 0.778424 -0.435628
v 0.141539 -0.798360 -0.435630
v 0.141539 0.778424 -0.435628
v 0.370548 0.778421 -0.269245
v 0.141539 0.778424 -0.435628
v 0.141539 -0.798360 -0.435630
v 0.370548 0.778421 -0.269245
v 0.141539 -0.798360 -0.435630
v 0.374919 -0.798360 -0.274866
v 0.370548 0.778421 -0.269245
v 0.374919 -0.798360 -0.274866
v 0.458020 0.778424 -0.000025
v 0.458020 0.778424 -0.000025
v 0.374919 -0.798360 -0.274866
v 0.458020 -0.798360 -0.000025
v -0.049177 0.778424 -0.000025
v 0.374919 -0.798360 0.274815
v 0.458020 -0.798360 -0.000025
v -0.049177 0.778424 -0.000025
v 0.141539 -0.798360 0.435579
v 0.374919 -0.798360 0.274815
v -0.141531 -0.798360 0.435579
v 0.141539 -0.798360 0.435579
v -0.049177 0.778424 -0.000025
v -0.049177 0.778424 -0.000025
v -0.373794 -0.798360 0.275333
v -0.141531 -0.798360 0.435579
v -0.049177 0.778424 -0.000025
v -0.435750 -0.798360 -0.000025
v -0.373794 -0.798360 0.275333
v -0.049177 0.778424 -0.000025
v 0.458020 -0.798360 -0.000025
v 0.374919 -0.798360 -0.274866
v -0.049177 0.778424 -0.000025
v 0.374919 -0.798360 -0.274866
v 0.141539 -0.798360 -0.435630
v -0.141531 -0.798360 -0.435630
v -0.049177 0.778424 -0.000025
v 0.141539 -0.798360 -0.435630
v -0.049177 0.778424 -0.000025
v -0.141531 -0.798360 -0.435630
v -0.373794 -0.798360 -0.275384
v -0.049177 0.778424 -0.000025
v -0.373794 -0.798360 -0.275384
v -0.435750 -0.798360 -0.000025
vt 0.939941 1.292480
vt 0.982910 1.427734
vt 0.886719 1.292480
vt 0.886719 1.292480
vt 0.982910 1.427734
vt 0.843750 1.427734
vt 0.843750 1.427734
vt 0.982910 1.427734
vt 0.827637 1.645996
vt 0.827637 1.645996
vt 0.982910 1.427734
vt 0.843750 1.864746
vt 0.843750 1.864746
vt 0.982910 1.427734
vt 0.886719 1.989746
vt 0.886719 1.989746
vt 0.982910 1.427734
vt 0.939941 1.989746
vt 0.939941 1.989746
vt 0.982910 1.427734
vt 0.981445 1.859863
vt 0.981445 1.859863
vt 0.982910 1.427734
vt 0.997070 1.645996
vt 0.219360 1.106262
vt 0.000078 1.429199
vt 0.219360 1.429199
vt 0.000078 1.108459
vt 0.000078 1.429199
vt 0.219360 1.106262
vt 0.000078 1.108459
vt 0.219360 1.106262
vt 0.219360 0.787720
vt 0.000078 1.108459
vt 0.219360 0.787720
vt 0.000078 0.787720
vt 0.219360 0.787720
vt 0.000079 0.467285
vt 0.000078 0.787720
vt 0.219360 0.467285
vt 0.000079 0.467285
vt 0.219360 0.787720
vt 0.000079 0.146484
vt 0.000079 0.467285
vt 0.219360 0.467285
vt 0.000079 0.146484
vt 0.219360 0.467285
vt 0.219360 0.149414
vt 0.000079 0.146484
vt 0.219360 0.149414
vt 0.000079 -0.172852
vt 0.000079 -0.172852
vt 0.219360 0.149414
vt 0.219360 -0.209961
vt 0.219360 -0.662109
vt 0.000079 -0.172852
vt 0.219360 -0.209961
vt 0.000079 -0.575195
vt 0.000079 -0.172852
vt 0.219360 -0.662109
vt 0.000079 -0.575195
vt 0.219360 -0.662109
vt 0.219360 -1.060547
vt 0.000079 -0.575195
vt 0.219360 -1.060547
vt 0.000079 -0.978516
vt 0.219360 -1.060547
vt 0.219360 -1.462891
vt 0.000079 -0.978516
vt 0.000079 -0.978516
vt 0.219360 -1.462891
vt 0.000078 -1.380859
vt 0.000078 -1.785156
vt 0.000078 -1.380859
vt 0.219360 -1.462891
vt 0.000078 -1.785156
vt 0.219360 -1.462891
vt 0.219360 -1.865234
vt 0.000078 -1.785156
vt 0.219360 -1.865234
vt 0.000078 -2.207031
vt 0.000078 -2.207031
vt 0.219360 -1.865234
vt 0.219360 -2.207031
vt 0.000078 -0.363281
vt 0.219360 -0.110352
vt 0.219360 -0.049805
vt 0.000078 -0.363281
vt 0.219360 -0.168945
vt 0.219360 -0.110352
vt 0.219360 -0.229492
vt 0.219360 -0.168945
vt 0.000078 -0.363281
vt 0.000078 -0.363281
vt 0.219360 -0.288086
vt 0.219360 -0.229492
vt 0.000078 -0.363281
vt 0.219360 -0.355469
vt 0.219360 -0.288086
vt 0.000078 -0.363281
vt 0.219360 -0.727539
vt 0.219360 -0.664063
vt 0.000078 -0.363281
vt 0.219360 -0.664063
vt 0.219360 -0.588867
vt 0.219360 -0.513672
vt 0.000078 -0.363281
vt 0.219360 -0.588867
vt 0.000078 -0.363281
vt 0.219360 -0.513672
vt 0.219360 -0.439453
vt 0.000078 -0.363281
vt 0.219360 -0.439453
vt 0.219360 -0.355469
vn 0.000000 1.000000 0.000000
vn 0.000000 1.000000 0.000000
vn 0.000000 1.000000 0.000000
vn 0.000000 1.000000 0.000000
vn 0.000000 1.000000 0.000000
vn 0.000000 1.000000 0.000000
vn 0.000000 1.000000 0.000000
vn 0.000000 1.000000 0.000000
vn 0.000000 1.000000 0.000000
vn 0.000000 1.000000 0.000000
vn 0.000000 1.000000 0.000000
vn 0.000000 1.000000 0.000000
vn 0.000000 1.000000 0.000000
vn 0.000000 1.000000 0.000000
vn 0.000000 1.000000 0.000000
vn 0.000000 1.000000 0.000000
vn 0.000000 1.000000 0.000000
vn 0.000000 1.000000 0.000000
vn 0.000000 1.000000 0.000000
vn 0.000000 1.000000 0.000000
vn 0.000000 1.000000 0.000000
vn 0.000000 1.000000 0.000000
vn 0.000000 1.000000 0.000000
vn 0.000000 1.000000 0.000000
vn 0.804305 0.003914 0.592955
vn 1.000000 0.001957 0.000000
vn 1.000000 0.001957 0.000000
vn 0.737769 0.001957 0.675147
vn 1.000000 0.001957 0.000000
vn 0.804305 0.003914 0.592955
vn 0.737769 0.001957 0.675147
vn 0.804305 0.003914 0.592955
vn 0.401174 0.001957 0.915851
vn 0.737769 0.001957 0.675147
vn 0.401174 0.001957 0.915851
vn 0.309198 0.000000 0.951076
vn 0.401174 0.001957 0.915851
vn -0.309198 0.000000 0.951076
vn 0.309198 0.000000 0.951076
vn -0.401174 0.001957 0.915851
vn -0.309198 0.000000 0.951076
vn 0.401174 0.001957 0.915851
vn -0.745597 0.000000 0.667319
vn -0.309198 0.000000 0.951076
vn -0.401174 0.001957 0.915851
vn -0.745597 0.000000 0.667319
vn -0.401174 0.001957 0.915851
vn -0.816047 0.000000 0.579256
vn -0.745597 0.000000 0.667319
vn -0.816047 0.000000 0.579256
vn -1.000000 -0.005871 0.000000
vn -1.000000 -0.005871 0.000000
vn -0.816047 0.000000 0.579256
vn -1.000000 -0.005871 0.000000
vn -0.816047 0.000000 -0.579256
vn -1.000000 -0.005871 0.000000
vn -1.000000 -0.005871 0.000000
vn -0.745597 0.000000 -0.667319
vn -1.000000 -0.005871 0.000000
vn -0.816047 0.000000 -0.579256
vn -0.745597 0.000000 -0.667319
vn -0.816047 0.000000 -0.579256
vn -0.401174 0.001957 -0.915851
vn -0.745597 0.000000 -0.667319
vn -0.401174 0.001957 -0.915851
vn -0.309198 0.000000 -0.951076
vn -0.401174 0.001957 -0.915851
vn 0.401174 0.001957 -0.915851
vn -0.309198 0.000000 -0.951076
vn -0.309198 0.000000 -0.951076
vn 0.401174 0.001957 -0.915851
vn 0.309198 0.000000 -0.951076
vn 0.737769 0.001957 -0.675147
vn 0.309198 0.000000 -0.951076
vn 0.401174 0.001957 -0.915851
vn 0.737769 0.001957 -0.675147
vn 0.401174 0.001957 -0.915851
vn 0.804305 0.003914 -0.592955
vn 0.737769 0.001957 -0.675147
vn 0.804305 0.003914 -0.592955
vn 1.000000 0.001957 0.000000
vn 1.000000 0.001957 0.000000
vn 0.804305 0.003914 -0.592955
vn 1.000000 0.001957 0.000000
vn 0.029354 -1.000000 0.000000
vn -0.769080 -0.305284 -0.561644
vn -0.951076 -0.305284 0.000000
vn 0.029354 -1.000000 0.000000
vn -0.283757 -0.287671 -0.915851
vn -0.769080 -0.305284 -0.561644
vn 0.287671 -0.270059 -0.919765
vn -0.283757 -0.287671 -0.915851
vn 0.029354 -1.000000 0.000000
vn 0.029354 -1.000000 0.000000
vn 0.800391 -0.258317 -0.540117
vn 0.287671 -0.270059 -0.919765
vn 0.029354 -1.000000 0.000000
vn 0.970646 -0.238748 0.000000
vn 0.800391 -0.258317 -0.540117
vn 0.029354 -1.000000 0.000000
vn -0.951076 -0.305284 0.000000
vn -0.769080 -0.305284 0.561644
vn 0.029354 -1.000000 0.000000
vn -0.769080 -0.305284 0.561644
vn -0.283757 -0.287671 0.915851
vn 0.287671 -0.270059 0.919765
vn 0.029354 -1.000000 0.000000
vn -0.283757 -0.287671 0.915851
vn 0.029354 -1.000000 0.000000
vn 0.287671 -0.270059 0.919765
vn 0.800391 -0.258317 0.540117
vn 0.029354 -1.000000 0.000000
vn 0.800391 -0.258317 0.540117
vn 0.970646 -0.238748 0.000000
mtllib mtl_fx_shell_alpha.mtl
g mtl_fx_shell_alpha
usemtl mtl_fx_shell_alpha
f 3/3/3 2/2/2 1/1/1
f 6/6/6 5/5/5 4/4/4
f 9/9/9 8/8/8 7/7/7
f 12/12/12 11/11/11 10/10/10
f 15/15/15 14/14/14 13/13/13
f 18/18/18 17/17/17 16/16/16
f 21/21/21 20/20/20 19/19/19
f 24/24/24 23/23/23 22/22/22
f 27/27/27 26/26/26 25/25/25
f 30/30/30 29/29/29 28/28/28
f 33/33/33 32/32/32 31/31/31
f 36/36/36 35/35/35 34/34/34
f 39/39/39 38/38/38 37/37/37
f 42/42/42 41/41/41 40/40/40
f 45/45/45 44/44/44 43/43/43
f 48/48/48 47/47/47 46/46/46
f 51/51/51 50/50/50 49/49/49
f 54/54/54 53/53/53 52/52/52
f 57/57/57 56/56/56 55/55/55
f 60/60/60 59/59/59 58/58/58
f 63/63/63 62/62/62 61/61/61
f 66/66/66 65/65/65 64/64/64
f 69/69/69 68/68/68 67/67/67
f 72/72/72 71/71/71 70/70/70
f 75/75/75 74/74/74 73/73/73
f 78/78/78 77/77/77 76/76/76
f 81/81/81 80/80/80 79/79/79
f 84/84/84 83/83/83 82/82/82
f 87/87/87 86/86/86 85/85/85
f 90/90/90 89/89/89 88/88/88
f 93/93/93 92/92/92 91/91/91
f 96/96/96 95/95/95 94/94/94
f 99/99/99 98/98/98 97/97/97
f 102/102/102 101/101/101 100/100/100
f 105/105/105 104/104/104 103/103/103
f 108/108/108 107/107/107 106/106/106
f 111/111/111 110/110/110 109/109/109
f 114/114/114 113/113/113 112/112/112
