# Generated by Wraith - Game extraction tools
# Please credit DTZxPorter for using it!

v -35.220463 -79.696503 95.968018
v -35.220463 0.208283 95.968018
v -19.644287 -79.696503 53.201271
v -35.220463 0.208283 95.968018
v -19.613523 0.208283 53.231487
v -19.644287 -79.696503 53.201271
v -35.220463 0.208283 95.968018
v -35.220463 80.113068 95.968018
v -19.613523 0.208283 53.231487
v -35.220463 80.113068 95.968018
v -19.644287 80.113068 53.201271
v -19.613523 0.208283 53.231487
v -5.570558 0.208283 45.584755
v 21.394287 0.208283 48.854256
v -5.571533 -79.696503 45.489853
v 21.394287 0.208283 48.854256
v 21.386475 -79.696503 48.774036
v -5.571533 -79.696503 45.489853
v 21.394287 0.208283 48.854256
v 30.096924 0.208283 43.688660
v 21.386475 -79.696503 48.774036
v 30.096924 0.208283 43.688660
v 30.096924 -79.696503 43.688660
v 21.386475 -79.696503 48.774036
v -5.570558 0.208283 45.584755
v -5.571533 -79.696503 45.489853
v -19.644287 -79.696503 53.201271
v -19.613523 0.208283 53.231487
v -5.570558 0.208283 45.584755
v -19.644287 -79.696503 53.201271
v -5.570558 0.208283 45.584755
v -19.613523 0.208283 53.231487
v -19.644287 80.113068 53.201271
v -5.571533 80.113068 45.489853
v -5.570558 0.208283 45.584755
v -19.644287 80.113068 53.201271
v 21.394287 0.208283 48.854256
v -5.570558 0.208283 45.584755
v -5.571533 80.113068 45.489853
v 21.386475 80.113068 48.774036
v 21.394287 0.208283 48.854256
v -5.571533 80.113068 45.489853
v 30.096924 0.208283 43.688660
v 21.394287 0.208283 48.854256
v 21.386475 80.113068 48.774036
v 30.096924 80.113068 43.688660
v 30.096924 0.208283 43.688660
v 21.386475 80.113068 48.774036
v -35.896240 -88.918182 95.396362
v -21.004150 -88.918182 54.451733
v -35.896240 -83.865936 95.396362
v -21.004150 -88.918182 54.451733
v -21.004150 -83.865936 54.451733
v -35.896240 -83.865936 95.396362
v -18.724367 -83.865936 45.223309
v -21.004150 -83.865936 54.451733
v -21.004150 -88.918182 54.451733
v -18.724367 -88.918182 45.223309
v -18.724367 -83.865936 45.223309
v -21.004150 -88.918182 54.451733
v -18.286865 -83.865936 34.031044
v -18.724367 -83.865936 45.223309
v -18.724367 -88.918182 45.223309
v -18.286865 -88.918182 34.031044
v -18.286865 -83.865936 34.031044
v -18.724367 -88.918182 45.223309
v -18.286865 -88.918182 34.031044
v -25.473875 -88.918182 0.000000
v -18.286865 -83.865936 34.031044
v -25.473875 -88.918182 0.000000
v -25.473875 -83.865936 0.000000
v -18.286865 -83.865936 34.031044
v -16.862062 -88.363487 44.384674
v -16.862062 -84.419159 44.384674
v 29.386475 -88.363487 44.384674
v -16.862062 -84.419159 44.384674
v 29.386475 -84.419159 44.384674
v 29.386475 -88.363487 44.384674
v -16.862062 -88.363487 41.165184
v -16.862062 -88.363487 44.384674
v 29.386475 -88.363487 41.165184
v -16.862062 -88.363487 44.384674
v 29.386475 -88.363487 44.384674
v 29.386475 -88.363487 41.165184
v 31.249756 -84.007538 42.587166
v 37.079834 -84.007538 -0.009682
v 37.079834 -88.713593 -0.009682
v 31.249756 -88.713593 42.587166
v 31.249756 -84.007538 42.587166
v 37.079834 -88.713593 -0.009682
v 31.455326 -84.007538 53.148300
v 31.249756 -84.007538 42.587166
v 31.249756 -88.713593 42.587166
v 31.455326 -88.713593 53.148300
v 31.455326 -84.007538 53.148300
v 31.249756 -88.713593 42.587166
v 27.365479 -84.007538 62.235676
v 31.455326 -84.007538 53.148300
v 31.455326 -88.713593 53.148300
v 27.365479 -88.713593 62.235676
v 27.365479 -84.007538 62.235676
v 31.455326 -88.713593 53.148300
v 17.856203 -84.007538 67.747162
v 27.365479 -84.007538 62.235676
v 27.365479 -88.713593 62.235676
v 17.856203 -88.713593 67.747162
v 17.856203 -84.007538 67.747162
v 27.365479 -88.713593 62.235676
v 17.856203 -88.713593 67.747162
v -22.711182 -88.713593 64.805641
v 17.856203 -84.007538 67.747162
v -22.711182 -88.713593 64.805641
v -22.711182 -84.007538 64.805641
v 17.856203 -84.007538 67.747162
v -35.896240 83.876740 95.396362
v -21.004150 83.876740 54.451733
v -35.896240 88.928978 95.396362
v -21.004150 83.876740 54.451733
v -21.004150 88.928978 54.451733
v -35.896240 88.928978 95.396362
v -18.724367 88.928978 45.223309
v -21.004150 88.928978 54.451733
v -21.004150 83.876740 54.451733
v -18.724367 83.876740 45.223309
v -18.724367 88.928978 45.223309
v -21.004150 83.876740 54.451733
v -18.286865 88.928978 34.031044
v -18.724367 88.928978 45.223309
v -18.724367 83.876740 45.223309
v -18.286865 83.876740 34.031044
v -18.286865 88.928978 34.031044
v -18.724367 83.876740 45.223309
v -18.286865 83.876740 34.031044
v -25.473875 83.876740 0.000000
v -18.286865 88.928978 34.031044
v -25.473875 83.876740 0.000000
v -25.473875 88.928978 0.000000
v -18.286865 88.928978 34.031044
v -16.862062 84.431427 44.384674
v -16.862062 88.375755 44.384674
v 29.386475 84.431427 44.384674
v -16.862062 88.375755 44.384674
v 29.386475 88.375755 44.384674
v 29.386475 84.431427 44.384674
v 29.386475 88.375755 44.384674
v -16.862062 88.375755 44.384674
v 29.386475 88.375755 41.165184
v -16.862062 88.375755 44.384674
v -16.862062 88.375755 41.165184
v 29.386475 88.375755 41.165184
v 31.249756 88.787376 42.587166
v 37.079834 88.787376 -0.009682
v 37.079834 84.081329 -0.009682
v 31.249756 84.081329 42.587166
v 31.249756 88.787376 42.587166
v 37.079834 84.081329 -0.009682
v 31.455326 88.787376 53.148300
v 31.249756 88.787376 42.587166
v 31.249756 84.081329 42.587166
v 31.455326 84.081329 53.148300
v 31.455326 88.787376 53.148300
v 31.249756 84.081329 42.587166
v 27.365479 88.787376 62.235676
v 31.455326 88.787376 53.148300
v 31.455326 84.081329 53.148300
v 27.365479 84.081329 62.235676
v 27.365479 88.787376 62.235676
v 31.455326 84.081329 53.148300
v 17.856203 88.787376 67.747162
v 27.365479 88.787376 62.235676
v 27.365479 84.081329 62.235676
v 17.856203 84.081329 67.747162
v 17.856203 88.787376 67.747162
v 27.365479 84.081329 62.235676
v 17.856203 84.081329 67.747162
v -22.711182 84.081329 64.805641
v 17.856203 88.787376 67.747162
v -22.711182 84.081329 64.805641
v -22.711182 88.787376 64.805641
v 17.856203 88.787376 67.747162
v -13.103758 -84.419159 41.297211
v -13.103758 84.431427 41.297211
v -13.103758 -84.419159 44.216064
v -13.103758 84.431427 41.297211
v -13.103758 84.431427 44.216064
v -13.103758 -84.419159 44.216064
v -9.974854 -84.419159 41.297211
v -9.974854 84.431427 41.297211
v -13.103758 -84.419159 41.297211
v -9.974854 84.431427 41.297211
v -13.103758 84.431427 41.297211
v -13.103758 -84.419159 41.297211
v 31.175535 -84.419159 44.216064
v 31.175535 84.431427 44.216064
v 31.175535 -84.419159 41.297211
v 31.175535 84.431427 44.216064
v 31.175535 84.431427 41.297211
v 31.175535 -84.419159 41.297211
v 31.175535 -84.419159 41.297211
v 31.175535 84.431427 41.297211
v 28.046141 -84.419159 41.297211
v 31.175535 84.431427 41.297211
v 28.046141 84.431427 41.297211
v 28.046141 -84.419159 41.297211
v -36.005493 -88.977814 95.320244
v -36.005493 88.977753 95.320244
v -37.079834 -88.977753 97.253181
v -36.005493 88.977753 95.320244
v -37.079834 88.977814 97.253181
v -37.079834 -88.977753 97.253181
vt 0.964844 0.997669
vt 0.007320 0.997669
vt 0.964844 0.382324
vt 0.007320 0.997669
vt 0.007320 0.382324
vt 0.964844 0.382324
vt 0.007320 0.997669
vt 0.964844 0.997669
vt 0.007320 0.382324
vt 0.964844 0.997669
vt 0.964844 0.382324
vt 0.007320 0.382324
vt 0.007320 0.382324
vt 0.007320 0.825195
vt 0.964844 0.382324
vt 0.007320 0.825195
vt 0.964844 0.825195
vt 0.964844 0.382324
vt 0.007320 0.825195
vt 0.007320 0.997669
vt 0.964844 0.825195
vt 0.007320 0.997669
vt 0.964844 0.997669
vt 0.964844 0.825195
vt 0.007320 0.382324
vt 0.964844 0.382324
vt 0.964844 0.382324
vt 0.007320 0.382324
vt 0.007320 0.382324
vt 0.964844 0.382324
vt 0.007320 0.382324
vt 0.007320 0.382324
vt 0.964844 0.382324
vt 0.964844 0.382324
vt 0.007320 0.382324
vt 0.964844 0.382324
vt 0.007320 0.825195
vt 0.007320 0.382324
vt 0.964844 0.382324
vt 0.964844 0.825195
vt 0.007320 0.825195
vt 0.964844 0.382324
vt 0.007320 0.997669
vt 0.007320 0.825195
vt 0.964844 0.825195
vt 0.964844 0.997669
vt 0.007320 0.997669
vt 0.964844 0.825195
vt 6.761719 1.102661
vt 5.906250 1.102661
vt 6.761719 1.201538
vt 5.906250 1.102661
vt 5.906250 1.201538
vt 6.761719 1.201538
vt 5.722656 1.201538
vt 5.906250 1.201538
vt 5.906250 1.102661
vt 5.722656 1.102600
vt 5.722656 1.201538
vt 5.906250 1.102661
vt 5.500000 1.201538
vt 5.722656 1.201538
vt 5.722656 1.102600
vt 5.500000 1.102661
vt 5.500000 1.201538
vt 5.722656 1.102600
vt 5.500000 1.102661
vt 4.820313 1.102661
vt 5.500000 1.201538
vt 4.820313 1.102661
vt 4.820313 1.201538
vt 5.500000 1.201538
vt 2.955078 1.201172
vt 2.955078 1.103271
vt 1.547852 1.201172
vt 2.955078 1.103271
vt 1.547852 1.103271
vt 1.547852 1.201172
vt 3.558594 1.102600
vt 3.558594 1.004612
vt 2.150391 1.102600
vt 3.558594 1.004612
vt 2.150391 1.004612
vt 2.150391 1.102600
vt 0.666992 1.002285
vt -0.257568 1.002295
vt -0.257568 1.103516
vt 0.666992 1.103516
vt 0.666992 1.002285
vt -0.257568 1.103516
vt 0.899902 1.002285
vt 0.666992 1.002285
vt 0.666992 1.103516
vt 0.899902 1.103516
vt 0.899902 1.002285
vt 0.666992 1.103516
vt 1.114258 1.002285
vt 0.899902 1.002285
vt 0.899902 1.103516
vt 1.114258 1.103516
vt 1.114258 1.002285
vt 0.899902 1.103516
vt 1.358398 1.002285
vt 1.114258 1.002285
vt 1.114258 1.103516
vt 1.358398 1.103516
vt 1.358398 1.002285
vt 1.114258 1.103516
vt 1.358398 1.103516
vt 2.224609 1.103516
vt 1.358398 1.002285
vt 2.224609 1.103516
vt 2.224609 1.002285
vt 1.358398 1.002285
vt 6.761719 1.102661
vt 5.906250 1.102661
vt 6.761719 1.201538
vt 5.906250 1.102661
vt 5.906250 1.201538
vt 6.761719 1.201538
vt 5.722656 1.201538
vt 5.906250 1.201538
vt 5.906250 1.102661
vt 5.722656 1.102600
vt 5.722656 1.201538
vt 5.906250 1.102661
vt 5.500000 1.201538
vt 5.722656 1.201538
vt 5.722656 1.102600
vt 5.500000 1.102661
vt 5.500000 1.201538
vt 5.722656 1.102600
vt 5.500000 1.102661
vt 4.820313 1.102661
vt 5.500000 1.201538
vt 4.820313 1.102661
vt 4.820313 1.201538
vt 5.500000 1.201538
vt 2.955078 1.201172
vt 2.955078 1.103271
vt 1.547852 1.201172
vt 2.955078 1.103271
vt 1.547852 1.103271
vt 1.547852 1.201172
vt 2.705078 1.201172
vt 4.109375 1.201172
vt 2.705078 1.103271
vt 4.109375 1.201172
vt 4.109375 1.103271
vt 2.705078 1.103271
vt 0.666992 1.002285
vt -0.257568 1.002295
vt -0.257568 1.103516
vt 0.666992 1.103516
vt 0.666992 1.002285
vt -0.257568 1.103516
vt 0.899902 1.002285
vt 0.666992 1.002285
vt 0.666992 1.103516
vt 0.899902 1.103516
vt 0.899902 1.002285
vt 0.666992 1.103516
vt 1.114258 1.002285
vt 0.899902 1.002285
vt 0.899902 1.103516
vt 1.114258 1.103516
vt 1.114258 1.002285
vt 0.899902 1.103516
vt 1.358398 1.002285
vt 1.114258 1.002285
vt 1.114258 1.103516
vt 1.358398 1.103516
vt 1.358398 1.002285
vt 1.114258 1.103516
vt 1.358398 1.103516
vt 2.224609 1.103516
vt 1.358398 1.002285
vt 2.224609 1.103516
vt 2.224609 1.002285
vt 1.358398 1.002285
vt -1.120117 1.003204
vt -6.574219 1.003204
vt -1.120117 1.104248
vt -6.574219 1.003204
vt -6.574219 1.104248
vt -1.120117 1.104248
vt -6.574219 1.104248
vt -1.120117 1.104248
vt -6.574219 1.003204
vt -1.120117 1.104248
vt -1.120117 1.003204
vt -6.574219 1.003204
vt -1.120117 1.003204
vt -6.574219 1.003204
vt -1.120117 1.104248
vt -6.574219 1.003204
vt -6.574219 1.104248
vt -1.120117 1.104248
vt -6.574219 1.104248
vt -1.120117 1.104248
vt -6.574219 1.003204
vt -1.120117 1.104248
vt -1.120117 1.003204
vt -6.574219 1.003204
vt -1.120117 1.003204
vt -6.574219 1.003204
vt -1.120117 1.104248
vt -6.574219 1.003204
vt -6.574219 1.104248
vt -1.120117 1.104248
vn 0.937378 0.000000 0.346380
vn 0.937378 0.000000 0.346380
vn 0.864971 0.000000 0.502935
vn 0.937378 0.000000 0.346380
vn 0.864971 0.000000 0.502935
vn 0.864971 0.000000 0.502935
vn 0.937378 0.000000 0.346380
vn 0.937378 0.000000 0.346380
vn 0.864971 0.000000 0.502935
vn 0.937378 0.000000 0.346380
vn 0.864971 0.000000 0.502935
vn 0.864971 0.000000 0.502935
vn 0.007828 0.000000 1.000000
vn 0.070450 0.000000 0.998043
vn 0.007828 0.000000 1.000000
vn 0.070450 0.000000 0.998043
vn 0.070450 0.000000 0.998043
vn 0.007828 0.000000 1.000000
vn 0.070450 0.000000 0.998043
vn 0.774951 0.000000 0.632094
vn 0.070450 0.000000 0.998043
vn 0.774951 0.000000 0.632094
vn 0.774951 0.000000 0.632094
vn 0.070450 0.000000 0.998043
vn 0.007828 0.000000 1.000000
vn 0.007828 0.000000 1.000000
vn 0.864971 0.000000 0.502935
vn 0.864971 0.000000 0.502935
vn 0.007828 0.000000 1.000000
vn 0.864971 0.000000 0.502935
vn 0.007828 0.000000 1.000000
vn 0.864971 0.000000 0.502935
vn 0.864971 0.000000 0.502935
vn 0.007828 0.000000 1.000000
vn 0.007828 0.000000 1.000000
vn 0.864971 0.000000 0.502935
vn 0.070450 0.000000 0.998043
vn 0.007828 0.000000 1.000000
vn 0.007828 0.000000 1.000000
vn 0.070450 0.000000 0.998043
vn 0.070450 0.000000 0.998043
vn 0.007828 0.000000 1.000000
vn 0.774951 0.000000 0.632094
vn 0.070450 0.000000 0.998043
vn 0.070450 0.000000 0.998043
vn 0.774951 0.000000 0.632094
vn 0.774951 0.000000 0.632094
vn 0.070450 0.000000 0.998043
vn -0.872798 0.000000 -0.487280
vn -0.960861 0.000000 -0.275930
vn -0.872798 0.000000 -0.487280
vn -0.960861 0.000000 -0.275930
vn -0.960861 0.000000 -0.275930
vn -0.872798 0.000000 -0.487280
vn -0.990215 0.000000 -0.140900
vn -0.960861 0.000000 -0.275930
vn -0.960861 0.000000 -0.275930
vn -0.990215 0.000000 -0.140900
vn -0.990215 0.000000 -0.140900
vn -0.960861 0.000000 -0.275930
vn -1.000000 0.000000 0.039139
vn -0.990215 0.000000 -0.140900
vn -0.990215 0.000000 -0.140900
vn -1.000000 0.000000 0.039139
vn -1.000000 0.000000 0.039139
vn -0.990215 0.000000 -0.140900
vn -1.000000 0.000000 0.039139
vn -0.966732 0.000000 0.258317
vn -1.000000 0.000000 0.039139
vn -0.966732 0.000000 0.258317
vn -0.966732 0.000000 0.258317
vn -1.000000 0.000000 0.039139
vn 0.000000 0.000000 1.000000
vn 0.000000 0.000000 1.000000
vn 0.000000 0.000000 1.000000
vn 0.000000 0.000000 1.000000
vn 0.000000 0.000000 1.000000
vn 0.000000 0.000000 1.000000
vn 0.000000 -1.000000 0.000000
vn 0.000000 -1.000000 0.000000
vn 0.000000 -1.000000 0.000000
vn 0.000000 -1.000000 0.000000
vn 0.000000 -1.000000 0.000000
vn 0.000000 -1.000000 0.000000
vn 0.998043 0.000000 0.054795
vn 0.990215 0.000000 0.133072
vn 0.990215 0.000000 0.133072
vn 0.998043 0.000000 0.054795
vn 0.998043 0.000000 0.054795
vn 0.990215 0.000000 0.133072
vn 0.980431 0.000000 0.197652
vn 0.998043 0.000000 0.054795
vn 0.998043 0.000000 0.054795
vn 0.980431 0.000000 0.197652
vn 0.980431 0.000000 0.197652
vn 0.998043 0.000000 0.054795
vn 0.741683 0.000000 0.671233
vn 0.980431 0.000000 0.197652
vn 0.980431 0.000000 0.197652
vn 0.741683 0.000000 0.671233
vn 0.741683 0.000000 0.671233
vn 0.980431 0.000000 0.197652
vn 0.227006 0.000000 0.974560
vn 0.741683 0.000000 0.671233
vn 0.741683 0.000000 0.671233
vn 0.227006 0.000000 0.974560
vn 0.227006 0.000000 0.974560
vn 0.741683 0.000000 0.671233
vn 0.227006 0.000000 0.974560
vn -0.070450 0.000000 0.998043
vn 0.227006 0.000000 0.974560
vn -0.070450 0.000000 0.998043
vn -0.070450 0.000000 0.998043
vn 0.227006 0.000000 0.974560
vn -0.872798 0.000000 -0.487280
vn -0.960861 0.000000 -0.275930
vn -0.872798 0.000000 -0.487280
vn -0.960861 0.000000 -0.275930
vn -0.960861 0.000000 -0.275930
vn -0.872798 0.000000 -0.487280
vn -0.990215 0.000000 -0.140900
vn -0.960861 0.000000 -0.275930
vn -0.960861 0.000000 -0.275930
vn -0.990215 0.000000 -0.140900
vn -0.990215 0.000000 -0.140900
vn -0.960861 0.000000 -0.275930
vn -1.000000 0.000000 0.039139
vn -0.990215 0.000000 -0.140900
vn -0.990215 0.000000 -0.140900
vn -1.000000 0.000000 0.039139
vn -1.000000 0.000000 0.039139
vn -0.990215 0.000000 -0.140900
vn -1.000000 0.000000 0.039139
vn -0.966732 0.000000 0.258317
vn -1.000000 0.000000 0.039139
vn -0.966732 0.000000 0.258317
vn -0.966732 0.000000 0.258317
vn -1.000000 0.000000 0.039139
vn 0.000000 0.000000 1.000000
vn 0.000000 0.000000 1.000000
vn 0.000000 0.000000 1.000000
vn 0.000000 0.000000 1.000000
vn 0.000000 0.000000 1.000000
vn 0.000000 0.000000 1.000000
vn 0.000000 1.000000 0.000000
vn 0.000000 1.000000 0.000000
vn 0.000000 1.000000 0.000000
vn 0.000000 1.000000 0.000000
vn 0.000000 1.000000 0.000000
vn 0.000000 1.000000 0.000000
vn 0.998043 0.000000 0.054795
vn 0.990215 0.000000 0.133072
vn 0.990215 0.000000 0.133072
vn 0.998043 0.000000 0.054795
vn 0.998043 0.000000 0.054795
vn 0.990215 0.000000 0.133072
vn 0.980431 0.000000 0.197652
vn 0.998043 0.000000 0.054795
vn 0.998043 0.000000 0.054795
vn 0.980431 0.000000 0.197652
vn 0.980431 0.000000 0.197652
vn 0.998043 0.000000 0.054795
vn 0.741683 0.000000 0.671233
vn 0.980431 0.000000 0.197652
vn 0.980431 0.000000 0.197652
vn 0.741683 0.000000 0.671233
vn 0.741683 0.000000 0.671233
vn 0.980431 0.000000 0.197652
vn 0.227006 0.000000 0.974560
vn 0.741683 0.000000 0.671233
vn 0.741683 0.000000 0.671233
vn 0.227006 0.000000 0.974560
vn 0.227006 0.000000 0.974560
vn 0.741683 0.000000 0.671233
vn 0.227006 0.000000 0.974560
vn -0.070450 0.000000 0.998043
vn 0.227006 0.000000 0.974560
vn -0.070450 0.000000 0.998043
vn -0.070450 0.000000 0.998043
vn 0.227006 0.000000 0.974560
vn -1.000000 0.000000 0.000000
vn -1.000000 0.000000 0.000000
vn -1.000000 0.000000 0.000000
vn -1.000000 0.000000 0.000000
vn -1.000000 0.000000 0.000000
vn -1.000000 0.000000 0.000000
vn 0.000000 0.000000 -1.000000
vn 0.000000 0.000000 -1.000000
vn 0.000000 0.000000 -1.000000
vn 0.000000 0.000000 -1.000000
vn 0.000000 0.000000 -1.000000
vn 0.000000 0.000000 -1.000000
vn 1.000000 0.000000 0.000000
vn 1.000000 0.000000 0.000000
vn 1.000000 0.000000 0.000000
vn 1.000000 0.000000 0.000000
vn 1.000000 0.000000 0.000000
vn 1.000000 0.000000 0.000000
vn 0.000000 0.000000 -1.000000
vn 0.000000 0.000000 -1.000000
vn 0.000000 0.000000 -1.000000
vn 0.000000 0.000000 -1.000000
vn 0.000000 0.000000 -1.000000
vn 0.000000 0.000000 -1.000000
vn -0.872798 0.000000 -0.487280
vn -0.872798 0.000000 -0.487280
vn -0.872798 0.000000 -0.487280
vn -0.872798 0.000000 -0.487280
vn -0.872798 0.000000 -0.487280
vn -0.872798 0.000000 -0.487280
mtllib berlin_patio_tablechair.mtl
g berlin_patio_tablechair
usemtl berlin_patio_tablechair
f 3/3/3 2/2/2 1/1/1
f 6/6/6 5/5/5 4/4/4
f 9/9/9 8/8/8 7/7/7
f 12/12/12 11/11/11 10/10/10
f 15/15/15 14/14/14 13/13/13
f 18/18/18 17/17/17 16/16/16
f 21/21/21 20/20/20 19/19/19
f 24/24/24 23/23/23 22/22/22
f 27/27/27 26/26/26 25/25/25
f 30/30/30 29/29/29 28/28/28
f 33/33/33 32/32/32 31/31/31
f 36/36/36 35/35/35 34/34/34
f 39/39/39 38/38/38 37/37/37
f 42/42/42 41/41/41 40/40/40
f 45/45/45 44/44/44 43/43/43
f 48/48/48 47/47/47 46/46/46
f 51/51/51 50/50/50 49/49/49
f 54/54/54 53/53/53 52/52/52
f 57/57/57 56/56/56 55/55/55
f 60/60/60 59/59/59 58/58/58
f 63/63/63 62/62/62 61/61/61
f 66/66/66 65/65/65 64/64/64
f 69/69/69 68/68/68 67/67/67
f 72/72/72 71/71/71 70/70/70
f 75/75/75 74/74/74 73/73/73
f 78/78/78 77/77/77 76/76/76
f 81/81/81 80/80/80 79/79/79
f 84/84/84 83/83/83 82/82/82
f 87/87/87 86/86/86 85/85/85
f 90/90/90 89/89/89 88/88/88
f 93/93/93 92/92/92 91/91/91
f 96/96/96 95/95/95 94/94/94
f 99/99/99 98/98/98 97/97/97
f 102/102/102 101/101/101 100/100/100
f 105/105/105 104/104/104 103/103/103
f 108/108/108 107/107/107 106/106/106
f 111/111/111 110/110/110 109/109/109
f 114/114/114 113/113/113 112/112/112
f 117/117/117 116/116/116 115/115/115
f 120/120/120 119/119/119 118/118/118
f 123/123/123 122/122/122 121/121/121
f 126/126/126 125/125/125 124/124/124
f 129/129/129 128/128/128 127/127/127
f 132/132/132 131/131/131 130/130/130
f 135/135/135 134/134/134 133/133/133
f 138/138/138 137/137/137 136/136/136
f 141/141/141 140/140/140 139/139/139
f 144/144/144 143/143/143 142/142/142
f 147/147/147 146/146/146 145/145/145
f 150/150/150 149/149/149 148/148/148
f 153/153/153 152/152/152 151/151/151
f 156/156/156 155/155/155 154/154/154
f 159/159/159 158/158/158 157/157/157
f 162/162/162 161/161/161 160/160/160
f 165/165/165 164/164/164 163/163/163
f 168/168/168 167/167/167 166/166/166
f 171/171/171 170/170/170 169/169/169
f 174/174/174 173/173/173 172/172/172
f 177/177/177 176/176/176 175/175/175
f 180/180/180 179/179/179 178/178/178
f 183/183/183 182/182/182 181/181/181
f 186/186/186 185/185/185 184/184/184
f 189/189/189 188/188/188 187/187/187
f 192/192/192 191/191/191 190/190/190
f 195/195/195 194/194/194 193/193/193
f 198/198/198 197/197/197 196/196/196
f 201/201/201 200/200/200 199/199/199
f 204/204/204 203/203/203 202/202/202
f 207/207/207 206/206/206 205/205/205
f 210/210/210 209/209/209 208/208/208
