# Generated by Wraith - Game extraction tools
# Please credit DTZxPorter for using it!

v -26.099512 -8.049847 -47.282364
v -26.099512 -9.551944 -46.953030
v 24.227148 -8.049847 -47.282364
v -26.099512 -9.551944 -46.953030
v 24.227148 -9.551944 -46.953030
v 24.227148 -8.049847 -47.282364
v -26.099512 -9.551944 -46.953030
v -26.099512 -6.251435 -31.899607
v 24.227148 -9.551944 -46.953030
v -26.099512 -6.251435 -31.899607
v 24.227148 -6.251435 -31.899607
v 24.227148 -9.551944 -46.953030
v -26.099512 -6.251435 -31.899607
v -26.099512 -4.749332 -32.228954
v 24.227148 -6.251435 -31.899607
v -26.099512 -4.749332 -32.228954
v 24.227148 -4.749332 -32.228954
v 24.227148 -6.251435 -31.899607
v -26.099512 -4.749332 -32.228954
v -26.099512 -8.049847 -47.282364
v 24.227148 -4.749332 -32.228954
v -26.099512 -8.049847 -47.282364
v 24.227148 -8.049847 -47.282364
v 24.227148 -4.749332 -32.228954
v 24.227148 -8.049847 -47.282364
v 24.227148 -9.551944 -46.953030
v 24.227148 -4.749332 -32.228954
v 24.227148 -9.551944 -46.953030
v 24.227148 -6.251435 -31.899607
v 24.227148 -4.749332 -32.228954
v -26.099512 -4.749332 -32.228954
v -26.099512 -6.251435 -31.899607
v -26.099512 -8.049847 -47.282364
v -26.099512 -6.251435 -31.899607
v -26.099512 -9.551944 -46.953030
v -26.099512 -8.049847 -47.282364
vt 0.131592 0.638672
vt 0.125122 0.638672
vt 0.131592 0.428223
vt 0.125122 0.638672
vt 0.125122 0.428223
vt 0.131592 0.428223
vt 0.003548 0.996670
vt 0.091492 0.996670
vt 0.003548 0.709473
vt 0.091492 0.996670
vt 0.091492 0.709473
vt 0.003548 0.709473
vt 0.141724 0.638672
vt 0.135254 0.638672
vt 0.141724 0.428223
vt 0.135254 0.638672
vt 0.135254 0.428223
vt 0.141724 0.428223
vt 0.091553 0.420410
vt 0.003595 0.420410
vt 0.091553 0.707520
vt 0.003595 0.420410
vt 0.003595 0.707520
vt 0.091553 0.707520
vt 0.163330 0.408691
vt 0.169800 0.408691
vt 0.163330 0.473145
vt 0.169800 0.408691
vt 0.169800 0.473145
vt 0.163330 0.473145
vt 0.161987 0.473145
vt 0.155518 0.473145
vt 0.161987 0.408691
vt 0.155518 0.473145
vt 0.155518 0.408691
vt 0.161987 0.408691
vn 0.000000 -0.213307 -0.976517
vn 0.000000 -0.213307 -0.976517
vn 0.000000 -0.213307 -0.976517
vn 0.000000 -0.213307 -0.976517
vn 0.000000 -0.213307 -0.976517
vn 0.000000 -0.213307 -0.976517
vn 0.000000 -0.976517 0.213307
vn 0.000000 -0.976517 0.213307
vn 0.000000 -0.976517 0.213307
vn 0.000000 -0.976517 0.213307
vn 0.000000 -0.976517 0.213307
vn 0.000000 -0.976517 0.213307
vn 0.000000 0.213307 0.976517
vn 0.000000 0.213307 0.976517
vn 0.000000 0.213307 0.976517
vn 0.000000 0.213307 0.976517
vn 0.000000 0.213307 0.976517
vn 0.000000 0.213307 0.976517
vn 0.000000 0.976517 -0.213307
vn 0.000000 0.976517 -0.213307
vn 0.000000 0.976517 -0.213307
vn 0.000000 0.976517 -0.213307
vn 0.000000 0.976517 -0.213307
vn 0.000000 0.976517 -0.213307
vn 1.000000 0.000000 0.000000
vn 1.000000 0.000000 0.000000
vn 1.000000 0.000000 0.000000
vn 1.000000 0.000000 0.000000
vn 1.000000 0.000000 0.000000
vn 1.000000 0.000000 0.000000
vn -1.000000 0.000000 0.000000
vn -1.000000 0.000000 0.000000
vn -1.000000 0.000000 0.000000
vn -1.000000 0.000000 0.000000
vn -1.000000 0.000000 0.000000
vn -1.000000 0.000000 0.000000
mtllib mtl_nt_2020_street_gate_01.mtl
g mtl_nt_2020_street_gate_01
usemtl mtl_nt_2020_street_gate_01
f 3/3/3 2/2/2 1/1/1
f 6/6/6 5/5/5 4/4/4
f 9/9/9 8/8/8 7/7/7
f 12/12/12 11/11/11 10/10/10
f 15/15/15 14/14/14 13/13/13
f 18/18/18 17/17/17 16/16/16
f 21/21/21 20/20/20 19/19/19
f 24/24/24 23/23/23 22/22/22
f 27/27/27 26/26/26 25/25/25
f 30/30/30 29/29/29 28/28/28
f 33/33/33 32/32/32 31/31/31
f 36/36/36 35/35/35 34/34/34
