# Generated by Wraith - Game extraction tools
# Please credit DTZxPorter for using it!

v 0.452798 -18.636671 9.224231
v 26.107338 -22.814171 1.711635
v 0.602087 -23.709154 4.143708
v -0.754189 -6.226330 9.859089
v 26.107338 -22.814171 1.711635
v 0.452798 -18.636671 9.224231
v -0.754189 -6.226330 9.859089
v 25.244934 24.185015 1.174897
v 26.107338 -22.814171 1.711635
v 1.085799 1.570563 -8.153453
v 26.107338 -22.814171 1.711635
v 25.244934 24.185015 1.174897
v 1.085799 1.570563 -8.153453
v 0.509847 -19.172722 -6.683517
v 26.107338 -22.814171 1.711635
v 26.107338 -22.814171 1.711635
v 0.509847 -19.172722 -6.683517
v 0.602087 -23.709154 4.143708
v 0.509847 -19.172722 -6.683517
v -23.897490 -24.185020 2.003273
v 0.602087 -23.709154 4.143708
v -23.897490 -24.185020 2.003273
v 0.452798 -18.636671 9.224231
v 0.602087 -23.709154 4.143708
v -0.754189 -6.226330 9.859089
v 0.452798 -18.636671 9.224231
v -23.897490 -24.185020 2.003273
v -0.754189 -6.226330 9.859089
v -23.897490 -24.185020 2.003273
v -26.107347 20.714556 1.963478
v -0.754189 -6.226330 9.859089
v -26.107347 20.714556 1.963478
v 0.825556 20.210327 2.091423
v 25.244934 24.185015 1.174897
v -0.754189 -6.226330 9.859089
v 0.825556 20.210327 2.091423
v 0.825556 20.210327 2.091423
v 1.085799 1.570563 -8.153453
v 25.244934 24.185015 1.174897
v -26.107347 20.714556 1.963478
v 1.085799 1.570563 -8.153453
v 0.825556 20.210327 2.091423
v 1.085799 1.570563 -8.153453
v -26.107347 20.714556 1.963478
v -23.897490 -24.185020 2.003273
v 1.085799 1.570563 -8.153453
v -23.897490 -24.185020 2.003273
v 0.509847 -19.172722 -6.683517
vt 0.707520 0.200195
vt 0.827148 0.246094
vt 0.708008 0.246094
vt 0.703613 0.146484
vt 0.827148 0.246094
vt 0.707520 0.200195
vt 0.703613 0.146484
vt 0.827148 0.008301
vt 0.827148 0.246094
vt 0.712891 0.110352
vt 0.827148 0.246094
vt 0.827148 0.008301
vt 0.712891 0.110352
vt 0.708496 0.191895
vt 0.827148 0.246094
vt 0.827148 0.246094
vt 0.708496 0.191895
vt 0.708008 0.246094
vt 0.708496 0.191895
vt 0.592285 0.246094
vt 0.708008 0.246094
vt 0.592285 0.246094
vt 0.707520 0.200195
vt 0.708008 0.246094
vt 0.703613 0.146484
vt 0.707520 0.200195
vt 0.592285 0.246094
vt 0.703613 0.146484
vt 0.592285 0.246094
vt 0.592285 0.008301
vt 0.703613 0.146484
vt 0.592285 0.008301
vt 0.713379 0.008301
vt 0.827148 0.008301
vt 0.703613 0.146484
vt 0.713379 0.008301
vt 0.713379 0.008301
vt 0.712891 0.110352
vt 0.827148 0.008301
vt 0.592285 0.008301
vt 0.712891 0.110352
vt 0.713379 0.008301
vt 0.712891 0.110352
vt 0.592285 0.008301
vt 0.592285 0.246094
vt 0.712891 0.110352
vt 0.592285 0.246094
vt 0.708496 0.191895
vn 0.015656 -0.412916 0.909980
vn 0.604697 -0.778865 0.160470
vn 0.027397 -0.980431 0.191781
vn -0.001957 0.082192 0.996086
vn 0.604697 -0.778865 0.160470
vn 0.015656 -0.412916 0.909980
vn -0.001957 0.082192 0.996086
vn 0.571429 0.812133 0.115460
vn 0.604697 -0.778865 0.160470
vn -0.021526 0.144814 -0.990215
vn 0.604697 -0.778865 0.160470
vn 0.571429 0.812133 0.115460
vn -0.021526 0.144814 -0.990215
vn 0.007828 -0.594912 -0.804305
vn 0.604697 -0.778865 0.160470
vn 0.604697 -0.778865 0.160470
vn 0.007828 -0.594912 -0.804305
vn 0.027397 -0.980431 0.191781
vn 0.007828 -0.594912 -0.804305
vn -0.567515 -0.808219 0.158513
vn 0.027397 -0.980431 0.191781
vn -0.567515 -0.808219 0.158513
vn 0.015656 -0.412916 0.909980
vn 0.027397 -0.980431 0.191781
vn -0.001957 0.082192 0.996086
vn 0.015656 -0.412916 0.909980
vn -0.567515 -0.808219 0.158513
vn -0.001957 0.082192 0.996086
vn -0.567515 -0.808219 0.158513
vn -0.665362 0.739726 0.101761
vn -0.001957 0.082192 0.996086
vn -0.665362 0.739726 0.101761
vn -0.068493 0.992172 0.111546
vn 0.571429 0.812133 0.115460
vn -0.001957 0.082192 0.996086
vn -0.068493 0.992172 0.111546
vn -0.068493 0.992172 0.111546
vn -0.021526 0.144814 -0.990215
vn 0.571429 0.812133 0.115460
vn -0.665362 0.739726 0.101761
vn -0.021526 0.144814 -0.990215
vn -0.068493 0.992172 0.111546
vn -0.021526 0.144814 -0.990215
vn -0.665362 0.739726 0.101761
vn -0.567515 -0.808219 0.158513
vn -0.021526 0.144814 -0.990215
vn -0.567515 -0.808219 0.158513
vn 0.007828 -0.594912 -0.804305
mtllib mtl_dub_lounge_sofa_06_pillow.mtl
g mtl_dub_lounge_sofa_06_pillow
usemtl mtl_dub_lounge_sofa_06_pillow
f 3/3/3 2/2/2 1/1/1
f 6/6/6 5/5/5 4/4/4
f 9/9/9 8/8/8 7/7/7
f 12/12/12 11/11/11 10/10/10
f 15/15/15 14/14/14 13/13/13
f 18/18/18 17/17/17 16/16/16
f 21/21/21 20/20/20 19/19/19
f 24/24/24 23/23/23 22/22/22
f 27/27/27 26/26/26 25/25/25
f 30/30/30 29/29/29 28/28/28
f 33/33/33 32/32/32 31/31/31
f 36/36/36 35/35/35 34/34/34
f 39/39/39 38/38/38 37/37/37
f 42/42/42 41/41/41 40/40/40
f 45/45/45 44/44/44 43/43/43
f 48/48/48 47/47/47 46/46/46
