# Generated by Wraith - Game extraction tools
# Please credit DTZxPorter for using it!

v -20.506447 -28.409632 12.453985
v -19.111357 -26.957724 12.420224
v 20.506447 -28.409632 12.453985
v -19.111357 -26.957724 12.420224
v 19.044569 -26.976444 12.420224
v 20.506447 -28.409632 12.453985
v 20.506447 -28.409632 12.453985
v 19.044569 -26.976444 12.420224
v 20.506447 28.409641 12.453985
v 19.044569 -26.976444 12.420224
v 19.006296 27.065266 12.420224
v 20.506447 28.409641 12.453985
v -20.506447 28.409641 12.453985
v 20.506447 28.409641 12.453985
v -18.986134 27.084005 12.420224
v 19.006296 27.065266 12.420224
v -18.986134 27.084005 12.420224
v 20.506447 28.409641 12.453985
v -20.506447 -28.409632 12.453985
v -20.506447 28.409641 12.453985
v -19.111357 -26.957724 12.420224
v -18.986134 27.084005 12.420224
v -19.111357 -26.957724 12.420224
v -20.506447 28.409641 12.453985
v 19.006296 27.065266 12.420224
v 19.044569 -26.976444 12.420224
v 15.068233 21.368637 0.804675
v 15.068233 21.368637 0.804675
v 19.044569 -26.976444 12.420224
v 14.340809 -22.064894 0.802594
v 14.340809 -22.064894 0.802594
v -15.068209 -21.368628 0.804675
v 15.068233 21.368637 0.804675
v 15.068233 21.368637 0.804675
v -15.068209 -21.368628 0.804675
v -14.340781 22.064894 0.802594
v -14.340781 22.064894 0.802594
v 19.006296 27.065266 12.420224
v 15.068233 21.368637 0.804675
v -18.986134 27.084005 12.420224
v 19.006296 27.065266 12.420224
v -14.340781 22.064894 0.802594
v 14.340809 -22.064894 0.802594
v -19.111357 -26.957724 12.420224
v -15.068209 -21.368628 0.804675
v 19.044569 -26.976444 12.420224
v -19.111357 -26.957724 12.420224
v 14.340809 -22.064894 0.802594
v -15.068209 -21.368628 0.804675
v -18.986134 27.084005 12.420224
v -14.340781 22.064894 0.802594
v -19.111357 -26.957724 12.420224
v -18.986134 27.084005 12.420224
v -15.068209 -21.368628 0.804675
v -20.506447 28.409641 12.453985
v -17.398651 24.499628 0.000000
v 20.506447 28.409641 12.453985
v 20.506447 28.409641 12.453985
v -17.398651 24.499628 0.000000
v 17.398651 24.499628 0.000000
v -20.506447 -28.409632 12.453985
v -17.398651 -24.499638 0.000000
v -20.506447 28.409641 12.453985
v -17.398651 -24.499638 0.000000
v -17.398651 24.499628 0.000000
v -20.506447 28.409641 12.453985
v 20.506447 -28.409632 12.453985
v 17.398651 -24.499638 0.000000
v -20.506447 -28.409632 12.453985
v -20.506447 -28.409632 12.453985
v 17.398651 -24.499638 0.000000
v -17.398651 -24.499638 0.000000
v 20.506447 28.409641 12.453985
v 17.398651 24.499628 0.000000
v 20.506447 -28.409632 12.453985
v 20.506447 -28.409632 12.453985
v 17.398651 24.499628 0.000000
v 17.398651 -24.499638 0.000000
v -17.398651 -24.499638 0.000000
v 17.398651 -24.499638 0.000000
v -17.398651 24.499628 0.000000
v -17.398651 24.499628 0.000000
v 17.398651 -24.499638 0.000000
v 17.398651 24.499628 0.000000
vt 0.145996 0.141602
vt 0.243042 0.123535
vt 0.666992 0.150879
vt 0.243042 0.123535
vt 0.580566 0.123535
vt 0.666992 0.150879
vt 0.666992 0.150879
vt 0.687500 0.231445
vt 0.666992 0.835938
vt 0.687500 0.231445
vt 0.687500 0.754639
vt 0.666992 0.835938
vt 0.155762 0.835938
vt 0.666992 0.835938
vt 0.243042 0.863525
vt 0.580566 0.863525
vt 0.243042 0.863525
vt 0.666992 0.835938
vt 0.145996 0.141602
vt 0.155762 0.835938
vt 0.134766 0.231445
vt 0.134766 0.754639
vt 0.134766 0.231445
vt 0.155762 0.835938
vt 0.687500 0.754639
vt 0.687500 0.231445
vt 0.560547 0.713379
vt 0.560547 0.713379
vt 0.687500 0.231445
vt 0.553223 0.265625
vt 0.553223 0.265625
vt 0.262939 0.272949
vt 0.560547 0.713379
vt 0.560547 0.713379
vt 0.262939 0.272949
vt 0.270264 0.720459
vt 0.270264 0.720459
vt 0.580566 0.863525
vt 0.560547 0.713379
vt 0.243042 0.863525
vt 0.580566 0.863525
vt 0.270264 0.720459
vt 0.553223 0.265625
vt 0.243042 0.123535
vt 0.262939 0.272949
vt 0.580566 0.123535
vt 0.243042 0.123535
vt 0.553223 0.265625
vt 0.262939 0.272949
vt 0.134766 0.754639
vt 0.270264 0.720459
vt 0.134766 0.231445
vt 0.134766 0.754639
vt 0.262939 0.272949
vt 0.032349 0.639893
vt 0.146484 0.639893
vt 0.032349 0.976547
vt 0.032349 0.976547
vt 0.146484 0.639893
vt 0.146484 0.976547
vt 0.032349 0.079590
vt 0.146484 0.079590
vt 0.032349 0.639893
vt 0.146484 0.079590
vt 0.146484 0.639893
vt 0.032349 0.639893
vt 0.032349 0.416504
vt 0.146484 0.416504
vt 0.032349 0.079590
vt 0.032349 0.079590
vt 0.146484 0.416504
vt 0.146484 0.079590
vt 0.032349 0.976547
vt 0.146484 0.976547
vt 0.032349 0.416504
vt 0.032349 0.416504
vt 0.146484 0.976547
vt 0.146484 0.416504
vt 0.637695 0.016113
vt 0.982910 0.016113
vt 0.637695 0.523438
vt 0.637695 0.523438
vt 0.982910 0.016113
vt 0.982910 0.523438
vn 0.011742 0.011742 1.000000
vn 0.011742 0.011742 1.000000
vn -0.011742 0.011742 1.000000
vn 0.011742 0.011742 1.000000
vn -0.011742 0.011742 1.000000
vn -0.011742 0.011742 1.000000
vn -0.011742 0.011742 1.000000
vn -0.011742 0.011742 1.000000
vn -0.011742 -0.011742 1.000000
vn -0.011742 0.011742 1.000000
vn -0.011742 -0.011742 1.000000
vn -0.011742 -0.011742 1.000000
vn 0.011742 -0.011742 1.000000
vn -0.011742 -0.011742 1.000000
vn 0.011742 -0.011742 1.000000
vn -0.011742 -0.011742 1.000000
vn 0.011742 -0.011742 1.000000
vn -0.011742 -0.011742 1.000000
vn 0.011742 0.011742 1.000000
vn 0.011742 -0.011742 1.000000
vn 0.011742 0.011742 1.000000
vn 0.011742 -0.011742 1.000000
vn 0.011742 0.011742 1.000000
vn 0.011742 -0.011742 1.000000
vn -0.624266 -0.594912 0.506849
vn -0.614481 0.608611 0.502935
vn -0.430528 -0.410959 0.804305
vn -0.430528 -0.410959 0.804305
vn -0.614481 0.608611 0.502935
vn -0.422701 0.418787 0.802348
vn -0.422701 0.418787 0.802348
vn 0.430528 0.410959 0.802348
vn -0.430528 -0.410959 0.804305
vn -0.430528 -0.410959 0.804305
vn 0.430528 0.410959 0.802348
vn 0.422701 -0.416830 0.804305
vn 0.422701 -0.416830 0.804305
vn -0.624266 -0.594912 0.506849
vn -0.430528 -0.410959 0.804305
vn 0.612524 -0.604697 0.508806
vn -0.624266 -0.594912 0.506849
vn 0.422701 -0.416830 0.804305
vn -0.422701 0.418787 0.802348
vn 0.624266 0.596869 0.502935
vn 0.430528 0.410959 0.802348
vn -0.614481 0.608611 0.502935
vn 0.624266 0.596869 0.502935
vn -0.422701 0.418787 0.802348
vn 0.430528 0.410959 0.802348
vn 0.612524 -0.604697 0.508806
vn 0.422701 -0.416830 0.804305
vn 0.624266 0.596869 0.502935
vn 0.612524 -0.604697 0.508806
vn 0.430528 0.410959 0.802348
vn 0.000000 0.954990 -0.299413
vn 0.000000 0.954990 -0.299413
vn 0.000000 0.954990 -0.299413
vn 0.000000 0.954990 -0.299413
vn 0.000000 0.954990 -0.299413
vn 0.000000 0.954990 -0.299413
vn -0.970646 0.000000 -0.242661
vn -0.970646 0.000000 -0.242661
vn -0.970646 0.000000 -0.242661
vn -0.970646 0.000000 -0.242661
vn -0.970646 0.000000 -0.242661
vn -0.970646 0.000000 -0.242661
vn 0.000000 -0.954990 -0.299413
vn 0.000000 -0.954990 -0.299413
vn 0.000000 -0.954990 -0.299413
vn 0.000000 -0.954990 -0.299413
vn 0.000000 -0.954990 -0.299413
vn 0.000000 -0.954990 -0.299413
vn 0.970646 0.000000 -0.242661
vn 0.970646 0.000000 -0.242661
vn 0.970646 0.000000 -0.242661
vn 0.970646 0.000000 -0.242661
vn 0.970646 0.000000 -0.242661
vn 0.970646 0.000000 -0.242661
vn 0.000000 0.000000 -1.000000
vn 0.000000 0.000000 -1.000000
vn 0.000000 0.000000 -1.000000
vn 0.000000 0.000000 -1.000000
vn 0.000000 0.000000 -1.000000
vn 0.000000 0.000000 -1.000000
mtllib mtl_nt_2020_storage_bin.mtl
g mtl_nt_2020_storage_bin
usemtl mtl_nt_2020_storage_bin
f 3/3/3 2/2/2 1/1/1
f 6/6/6 5/5/5 4/4/4
f 9/9/9 8/8/8 7/7/7
f 12/12/12 11/11/11 10/10/10
f 15/15/15 14/14/14 13/13/13
f 18/18/18 17/17/17 16/16/16
f 21/21/21 20/20/20 19/19/19
f 24/24/24 23/23/23 22/22/22
f 27/27/27 26/26/26 25/25/25
f 30/30/30 29/29/29 28/28/28
f 33/33/33 32/32/32 31/31/31
f 36/36/36 35/35/35 34/34/34
f 39/39/39 38/38/38 37/37/37
f 42/42/42 41/41/41 40/40/40
f 45/45/45 44/44/44 43/43/43
f 48/48/48 47/47/47 46/46/46
f 51/51/51 50/50/50 49/49/49
f 54/54/54 53/53/53 52/52/52
f 57/57/57 56/56/56 55/55/55
f 60/60/60 59/59/59 58/58/58
f 63/63/63 62/62/62 61/61/61
f 66/66/66 65/65/65 64/64/64
f 69/69/69 68/68/68 67/67/67
f 72/72/72 71/71/71 70/70/70
f 75/75/75 74/74/74 73/73/73
f 78/78/78 77/77/77 76/76/76
f 81/81/81 80/80/80 79/79/79
f 84/84/84 83/83/83 82/82/82
