# Generated by Wraith - Game extraction tools
# Please credit DTZxPorter for using it!

v 0.858390 5.012903 8.958890
v -3.744161 3.405126 8.958890
v 0.768406 4.534050 0.229207
v -3.744161 3.405126 8.958890
v -3.409229 3.070956 0.229207
v 0.768406 4.534050 0.229207
v 0.858390 5.012903 8.958890
v 0.768406 4.534050 0.229207
v 4.338622 2.030725 0.229207
v 4.741522 2.168154 8.958890
v 0.858390 5.012903 8.958890
v 4.338622 2.030725 0.229207
v 4.671431 -2.152503 8.958890
v 4.741522 2.168154 8.958890
v 4.338622 2.030725 0.229207
v 4.274787 -2.021004 0.229207
v 4.671431 -2.152503 8.958890
v 4.338622 2.030725 0.229207
v 0.863917 -4.718484 8.958890
v 4.671431 -2.152503 8.958890
v 4.274787 -2.021004 0.229207
v 0.788538 -4.436941 0.229207
v 0.863917 -4.718484 8.958890
v 4.274787 -2.021004 0.229207
v 0.863917 -4.718484 8.958890
v 0.788538 -4.436941 0.229207
v -3.378896 -3.037235 0.229207
v -3.744163 -3.405126 8.958890
v 0.863917 -4.718484 8.958890
v -3.378896 -3.037235 0.229207
v -3.744163 -3.405126 8.958890
v -3.378896 -3.037235 0.229207
v -5.063314 0.000000 8.958890
v -3.378896 -3.037235 0.229207
v -4.584781 0.002139 0.229207
v -5.063314 0.000000 8.958890
v -5.063314 0.000000 8.958890
v -4.584781 0.002139 0.229207
v -3.409229 3.070956 0.229207
v -3.744161 3.405126 8.958890
v -5.063314 0.000000 8.958890
v -3.409229 3.070956 0.229207
v -3.744161 3.405126 8.958890
v 0.858390 5.012903 8.958890
v 0.007015 -0.074508 1.242863
v -5.063314 0.000000 8.958890
v -3.744161 3.405126 8.958890
v 0.007015 -0.074508 1.242863
v -3.744163 -3.405126 8.958890
v -5.063314 0.000000 8.958890
v 0.007015 -0.074508 1.242863
v 0.863917 -4.718484 8.958890
v -3.744163 -3.405126 8.958890
v 0.007015 -0.074508 1.242863
v 4.671431 -2.152503 8.958890
v 0.863917 -4.718484 8.958890
v 0.007015 -0.074508 1.242863
v 0.858390 5.012903 8.958890
v 4.741522 2.168154 8.958890
v 0.007015 -0.074508 1.242863
v 4.741522 2.168154 8.958890
v 4.671431 -2.152503 8.958890
v 0.007015 -0.074508 1.242863
v 4.384167 -0.594530 2.806248
v 4.384167 0.540565 2.806248
v 6.304290 -0.595754 4.870221
v 4.384167 0.540565 2.806248
v 6.304247 0.541843 4.870221
v 6.304290 -0.595754 4.870221
v 6.304247 0.541843 4.870221
v 6.782468 0.535142 6.725437
v 6.304290 -0.595754 4.870221
v 6.782468 0.535142 6.725437
v 6.782534 -0.604959 6.725491
v 6.304290 -0.595754 4.870221
v 6.782468 0.535142 6.725437
v 6.037156 0.383967 6.914372
v 6.782534 -0.604959 6.725491
v 6.037156 0.383967 6.914372
v 6.035502 -0.614002 6.911807
v 6.782534 -0.604959 6.725491
v 6.037156 0.383967 6.914372
v 4.445683 0.259171 5.640591
v 6.035502 -0.614002 6.911807
v 4.445683 0.259171 5.640591
v 4.462104 -0.553288 5.626108
v 6.035502 -0.614002 6.911807
v 4.384167 0.540565 2.806248
v 4.206517 0.635749 1.804843
v 6.796179 0.636387 4.585685
v 6.304247 0.541843 4.870221
v 4.384167 0.540565 2.806248
v 6.796179 0.636387 4.585685
v 6.304247 0.541843 4.870221
v 6.796179 0.636387 4.585685
v 6.782468 0.535142 6.725437
v 6.796179 0.636387 4.585685
v 7.492184 0.629046 6.860959
v 6.782468 0.535142 6.725437
v 7.492184 0.629046 6.860959
v 6.950588 0.629046 7.421097
v 6.782468 0.535142 6.725437
v 6.782468 0.535142 6.725437
v 6.950588 0.629046 7.421097
v 6.037156 0.383967 6.914372
v 6.950588 0.629046 7.421097
v 5.885632 0.550479 7.394532
v 6.037156 0.383967 6.914372
v 5.885632 0.550479 7.394532
v 4.423707 0.425254 6.470221
v 6.037156 0.383967 6.914372
v 4.423707 0.425254 6.470221
v 4.445683 0.259171 5.640591
v 6.037156 0.383967 6.914372
v 4.206517 0.635749 1.804843
v 4.214317 -0.689712 1.799046
v 6.796179 0.636387 4.585685
v 4.214317 -0.689712 1.799046
v 6.804957 -0.690324 4.582645
v 6.796179 0.636387 4.585685
v 6.796179 0.636387 4.585685
v 6.804957 -0.690324 4.582645
v 7.492184 0.629046 6.860959
v 6.804957 -0.690324 4.582645
v 7.501364 -0.698917 6.864289
v 7.492184 0.629046 6.860959
v 7.501364 -0.698917 6.864289
v 6.951195 -0.698914 7.419017
v 7.492184 0.629046 6.860959
v 6.951195 -0.698914 7.419017
v 6.950588 0.629046 7.421097
v 7.492184 0.629046 6.860959
v 6.950588 0.629046 7.421097
v 6.951195 -0.698914 7.419017
v 5.885632 0.550479 7.394532
v 6.951195 -0.698914 7.419017
v 5.884837 -0.672988 7.394910
v 5.885632 0.550479 7.394532
v 5.885632 0.550479 7.394532
v 5.884837 -0.672988 7.394910
v 4.423707 0.425254 6.470221
v 5.884837 -0.672988 7.394910
v 4.421258 -0.602503 6.475016
v 4.423707 0.425254 6.470221
v 4.214317 -0.689712 1.799046
v 4.384167 -0.594530 2.806248
v 6.804957 -0.690324 4.582645
v 4.384167 -0.594530 2.806248
v 6.304290 -0.595754 4.870221
v 6.804957 -0.690324 4.582645
v 6.304290 -0.595754 4.870221
v 6.782534 -0.604959 6.725491
v 6.804957 -0.690324 4.582645
v 6.782534 -0.604959 6.725491
v 7.501364 -0.698917 6.864289
v 6.804957 -0.690324 4.582645
v 6.782534 -0.604959 6.725491
v 6.951195 -0.698914 7.419017
v 7.501364 -0.698917 6.864289
v 6.782534 -0.604959 6.725491
v 6.035502 -0.614002 6.911807
v 6.951195 -0.698914 7.419017
v 6.035502 -0.614002 6.911807
v 5.884837 -0.672988 7.394910
v 6.951195 -0.698914 7.419017
v 5.884837 -0.672988 7.394910
v 6.035502 -0.614002 6.911807
v 4.421258 -0.602503 6.475016
v 6.035502 -0.614002 6.911807
v 4.462104 -0.553288 5.626108
v 4.421258 -0.602503 6.475016
v 4.274787 -2.021004 0.229207
v 0.000018 0.000000 -0.023548
v 0.788538 -4.436941 0.229207
v 4.338622 2.030725 0.229207
v 0.000018 0.000000 -0.023548
v 4.274787 -2.021004 0.229207
v 0.768406 4.534050 0.229207
v 0.000018 0.000000 -0.023548
v 4.338622 2.030725 0.229207
v -3.409229 3.070956 0.229207
v 0.000018 0.000000 -0.023548
v 0.768406 4.534050 0.229207
v -4.584781 0.002139 0.229207
v 0.000018 0.000000 -0.023548
v -3.409229 3.070956 0.229207
v -3.378896 -3.037235 0.229207
v 0.000018 0.000000 -0.023548
v -4.584781 0.002139 0.229207
v 0.788538 -4.436941 0.229207
v 0.000018 0.000000 -0.023548
v -3.378896 -3.037235 0.229207
vt 0.632324 0.092773
vt 0.633301 0.863892
vt 0.370361 0.093262
vt 0.633301 0.863892
vt 0.371338 0.918884
vt 0.370361 0.093262
vt 0.632324 0.092773
vt 0.370361 0.093262
vt 0.370605 0.204102
vt 0.632324 0.231445
vt 0.632324 0.092773
vt 0.370605 0.204102
vt 0.632813 0.314453
vt 0.632324 0.231445
vt 0.370605 0.204102
vt 0.370605 0.342773
vt 0.632813 0.314453
vt 0.370605 0.204102
vt 0.632813 0.480469
vt 0.632813 0.314453
vt 0.370605 0.342773
vt 0.370850 0.480957
vt 0.632813 0.480469
vt 0.370605 0.342773
vt 0.632813 0.480469
vt 0.370850 0.480957
vt 0.370850 0.590820
vt 0.632813 0.645508
vt 0.632813 0.480469
vt 0.370850 0.590820
vt 0.632813 0.645508
vt 0.370850 0.590820
vt 0.633301 0.754639
vt 0.370850 0.590820
vt 0.371094 0.754883
vt 0.633301 0.754639
vt 0.633301 0.754639
vt 0.371094 0.754883
vt 0.371338 0.918884
vt 0.633301 0.863892
vt 0.633301 0.754639
vt 0.371338 0.918884
vt 0.738281 0.915405
vt 0.864746 0.943695
vt 0.835449 0.827759
vt 0.704590 0.829956
vt 0.738281 0.915405
vt 0.835449 0.827759
vt 0.738281 0.744385
vt 0.704590 0.829956
vt 0.835449 0.827759
vt 0.864746 0.716064
vt 0.738281 0.744385
vt 0.835449 0.827759
vt 0.957520 0.806641
vt 0.864746 0.716064
vt 0.835449 0.827759
vt 0.864746 0.943695
vt 0.953125 0.876526
vt 0.835938 0.830933
vt 0.953125 0.876526
vt 0.957520 0.806641
vt 0.835938 0.830933
vt 0.982910 0.111816
vt 0.955078 0.111328
vt 0.982422 0.169922
vt 0.955078 0.111328
vt 0.954590 0.169434
vt 0.982422 0.169922
vt 0.954590 0.169434
vt 0.954102 0.221680
vt 0.982422 0.169922
vt 0.954102 0.221680
vt 0.981934 0.222168
vt 0.982422 0.169922
vt 0.954102 0.221680
vt 0.954102 0.243652
vt 0.981934 0.222168
vt 0.954102 0.243652
vt 0.981934 0.243652
vt 0.981934 0.222168
vt 0.954102 0.243652
vt 0.953613 0.279297
vt 0.981934 0.243652
vt 0.953613 0.279297
vt 0.980957 0.279297
vt 0.981934 0.243652
vt 0.766602 0.281250
vt 0.785156 0.299316
vt 0.783203 0.197266
vt 0.763672 0.210938
vt 0.766602 0.281250
vt 0.783203 0.197266
vt 0.763672 0.210938
vt 0.783203 0.197266
vt 0.728516 0.159668
vt 0.783203 0.197266
vt 0.750977 0.151855
vt 0.728516 0.159668
vt 0.750977 0.151855
vt 0.719727 0.142578
vt 0.728516 0.159668
vt 0.728516 0.159668
vt 0.719727 0.142578
vt 0.704590 0.165039
vt 0.719727 0.142578
vt 0.691895 0.157715
vt 0.704590 0.165039
vt 0.691895 0.157715
vt 0.683105 0.193359
vt 0.704590 0.165039
vt 0.683105 0.193359
vt 0.700684 0.207031
vt 0.704590 0.165039
vt 0.785156 0.299316
vt 0.826172 0.298340
vt 0.783203 0.197266
vt 0.826172 0.298340
vt 0.824707 0.197266
vt 0.783203 0.197266
vt 0.783203 0.197266
vt 0.824707 0.197266
vt 0.791016 0.142090
vt 0.824707 0.197266
vt 0.818848 0.142578
vt 0.791016 0.142090
vt 0.818848 0.142578
vt 0.818848 0.120605
vt 0.791016 0.142090
vt 0.818848 0.120605
vt 0.791016 0.120605
vt 0.791016 0.142090
vt 0.791016 0.120605
vt 0.818848 0.120605
vt 0.792480 0.089355
vt 0.818848 0.120605
vt 0.819336 0.089844
vt 0.792480 0.089355
vt 0.792480 0.089355
vt 0.819336 0.089844
vt 0.795898 0.055664
vt 0.819336 0.089844
vt 0.817871 0.056152
vt 0.795898 0.055664
vt 0.826172 0.298340
vt 0.844238 0.279785
vt 0.824707 0.197266
vt 0.844238 0.279785
vt 0.843262 0.210449
vt 0.824707 0.197266
vt 0.843262 0.210449
vt 0.885254 0.164551
vt 0.824707 0.197266
vt 0.885254 0.164551
vt 0.873535 0.149414
vt 0.824707 0.197266
vt 0.885254 0.164551
vt 0.893066 0.146973
vt 0.873535 0.149414
vt 0.885254 0.164551
vt 0.902344 0.172852
vt 0.893066 0.146973
vt 0.902344 0.172852
vt 0.914551 0.165039
vt 0.893066 0.146973
vt 0.914551 0.165039
vt 0.902344 0.172852
vt 0.926758 0.201660
vt 0.902344 0.172852
vt 0.908691 0.217285
vt 0.926758 0.201660
vt 0.927734 0.802979
vt 0.833984 0.829346
vt 0.861328 0.733154
vt 0.919434 0.882019
vt 0.833984 0.829346
vt 0.927734 0.802979
vt 0.861328 0.925659
vt 0.833984 0.829346
vt 0.919434 0.882019
vt 0.789063 0.918945
vt 0.833984 0.829346
vt 0.861328 0.925659
vt 0.740234 0.829346
vt 0.833984 0.829346
vt 0.789063 0.918945
vt 0.789063 0.739746
vt 0.833984 0.829346
vt 0.740234 0.829346
vt 0.861328 0.733154
vt 0.833984 0.829346
vt 0.789063 0.739746
vn 0.031311 0.258317 0.964775
vn -0.189824 0.185910 0.964775
vn 0.093933 0.663405 -0.743640
vn -0.189824 0.185910 0.964775
vn -0.469667 0.485323 -0.735812
vn 0.093933 0.663405 -0.743640
vn 0.031311 0.258317 0.964775
vn 0.093933 0.663405 -0.743640
vn 0.596869 0.301370 -0.743640
vn 0.225049 0.119374 0.966732
vn 0.031311 0.258317 0.964775
vn 0.596869 0.301370 -0.743640
vn 0.230920 -0.107632 0.966732
vn 0.225049 0.119374 0.966732
vn 0.596869 0.301370 -0.743640
vn 0.590998 -0.318982 -0.741683
vn 0.230920 -0.107632 0.966732
vn 0.596869 0.301370 -0.743640
vn 0.023483 -0.232877 0.972603
vn 0.230920 -0.107632 0.966732
vn 0.590998 -0.318982 -0.741683
vn 0.099804 -0.671233 -0.733855
vn 0.023483 -0.232877 0.972603
vn 0.590998 -0.318982 -0.741683
vn 0.023483 -0.232877 0.972603
vn 0.099804 -0.671233 -0.733855
vn -0.459883 -0.495108 -0.737769
vn -0.199609 -0.178082 0.962818
vn 0.023483 -0.232877 0.972603
vn -0.459883 -0.495108 -0.737769
vn -0.199609 -0.178082 0.962818
vn -0.459883 -0.495108 -0.737769
vn -0.277887 -0.003914 0.960861
vn -0.459883 -0.495108 -0.737769
vn -0.684932 -0.001957 -0.727984
vn -0.277887 -0.003914 0.960861
vn -0.277887 -0.003914 0.960861
vn -0.684932 -0.001957 -0.727984
vn -0.469667 0.485323 -0.735812
vn -0.189824 0.185910 0.964775
vn -0.277887 -0.003914 0.960861
vn -0.469667 0.485323 -0.735812
vn -0.189824 0.185910 0.964775
vn 0.031311 0.258317 0.964775
vn 0.074364 0.021526 0.996086
vn -0.277887 -0.003914 0.960861
vn -0.189824 0.185910 0.964775
vn 0.074364 0.021526 0.996086
vn -0.199609 -0.178082 0.962818
vn -0.277887 -0.003914 0.960861
vn 0.074364 0.021526 0.996086
vn 0.023483 -0.232877 0.972603
vn -0.199609 -0.178082 0.962818
vn 0.074364 0.021526 0.996086
vn 0.230920 -0.107632 0.966732
vn 0.023483 -0.232877 0.972603
vn 0.074364 0.021526 0.996086
vn 0.031311 0.258317 0.964775
vn 0.225049 0.119374 0.966732
vn 0.074364 0.021526 0.996086
vn 0.225049 0.119374 0.966732
vn 0.230920 -0.107632 0.966732
vn 0.074364 0.021526 0.996086
vn -0.559687 -0.645793 0.520548
vn -0.559687 0.643836 0.520548
vn -0.659491 -0.659491 0.362035
vn -0.559687 0.643836 0.520548
vn -0.659491 0.657534 0.363992
vn -0.659491 -0.659491 0.362035
vn -0.659491 0.657534 0.363992
vn -0.461840 0.841487 -0.283757
vn -0.659491 -0.659491 0.362035
vn -0.461840 0.841487 -0.283757
vn -0.432485 -0.861057 -0.266145
vn -0.659491 -0.659491 0.362035
vn -0.461840 0.841487 -0.283757
vn 0.111546 0.659491 -0.743640
vn -0.432485 -0.861057 -0.266145
vn 0.111546 0.659491 -0.743640
vn 0.135029 -0.704501 -0.696673
vn -0.432485 -0.861057 -0.266145
vn 0.111546 0.659491 -0.743640
vn 0.454012 0.620352 -0.639922
vn 0.135029 -0.704501 -0.696673
vn 0.454012 0.620352 -0.639922
vn 0.442270 -0.677104 -0.589041
vn 0.135029 -0.704501 -0.696673
vn -0.559687 0.643836 0.520548
vn 0.469667 0.767123 -0.438356
vn 0.549902 0.772994 -0.317025
vn -0.659491 0.657534 0.363992
vn -0.559687 0.643836 0.520548
vn 0.549902 0.772994 -0.317025
vn -0.659491 0.657534 0.363992
vn 0.549902 0.772994 -0.317025
vn -0.461840 0.841487 -0.283757
vn 0.549902 0.772994 -0.317025
vn 0.573386 0.806262 0.140900
vn -0.461840 0.841487 -0.283757
vn 0.573386 0.806262 0.140900
vn 0.180039 0.804305 0.567515
vn -0.461840 0.841487 -0.283757
vn -0.461840 0.841487 -0.283757
vn 0.180039 0.804305 0.567515
vn 0.111546 0.659491 -0.743640
vn 0.180039 0.804305 0.567515
vn -0.246575 0.784736 0.567515
vn 0.111546 0.659491 -0.743640
vn -0.246575 0.784736 0.567515
vn -0.360078 0.788650 0.497065
vn 0.111546 0.659491 -0.743640
vn -0.360078 0.788650 0.497065
vn 0.454012 0.620352 -0.639922
vn 0.111546 0.659491 -0.743640
vn 0.469667 0.767123 -0.438356
vn 0.473581 -0.761252 -0.442270
vn 0.549902 0.772994 -0.317025
vn 0.473581 -0.761252 -0.442270
vn 0.553816 -0.767123 -0.320939
vn 0.549902 0.772994 -0.317025
vn 0.549902 0.772994 -0.317025
vn 0.553816 -0.767123 -0.320939
vn 0.573386 0.806262 0.140900
vn 0.553816 -0.767123 -0.320939
vn 0.577299 -0.804305 0.138943
vn 0.573386 0.806262 0.140900
vn 0.577299 -0.804305 0.138943
vn 0.223092 -0.782779 0.579256
vn 0.573386 0.806262 0.140900
vn 0.223092 -0.782779 0.579256
vn 0.180039 0.804305 0.567515
vn 0.573386 0.806262 0.140900
vn 0.180039 0.804305 0.567515
vn 0.223092 -0.782779 0.579256
vn -0.246575 0.784736 0.567515
vn 0.223092 -0.782779 0.579256
vn -0.213307 -0.753425 0.622309
vn -0.246575 0.784736 0.567515
vn -0.246575 0.784736 0.567515
vn -0.213307 -0.753425 0.622309
vn -0.360078 0.788650 0.497065
vn -0.213307 -0.753425 0.622309
vn -0.381605 -0.731898 0.563601
vn -0.360078 0.788650 0.497065
vn 0.473581 -0.761252 -0.442270
vn -0.559687 -0.645793 0.520548
vn 0.553816 -0.767123 -0.320939
vn -0.559687 -0.645793 0.520548
vn -0.659491 -0.659491 0.362035
vn 0.553816 -0.767123 -0.320939
vn -0.659491 -0.659491 0.362035
vn -0.432485 -0.861057 -0.266145
vn 0.553816 -0.767123 -0.320939
vn -0.432485 -0.861057 -0.266145
vn 0.577299 -0.804305 0.138943
vn 0.553816 -0.767123 -0.320939
vn -0.432485 -0.861057 -0.266145
vn 0.223092 -0.782779 0.579256
vn 0.577299 -0.804305 0.138943
vn -0.432485 -0.861057 -0.266145
vn 0.135029 -0.704501 -0.696673
vn 0.223092 -0.782779 0.579256
vn 0.135029 -0.704501 -0.696673
vn -0.213307 -0.753425 0.622309
vn 0.223092 -0.782779 0.579256
vn -0.213307 -0.753425 0.622309
vn 0.135029 -0.704501 -0.696673
vn -0.381605 -0.731898 0.563601
vn 0.135029 -0.704501 -0.696673
vn 0.442270 -0.677104 -0.589041
vn -0.381605 -0.731898 0.563601
vn 0.590998 -0.318982 -0.741683
vn -0.003914 0.000000 -1.000000
vn 0.099804 -0.671233 -0.733855
vn 0.596869 0.301370 -0.743640
vn -0.003914 0.000000 -1.000000
vn 0.590998 -0.318982 -0.741683
vn 0.093933 0.663405 -0.743640
vn -0.003914 0.000000 -1.000000
vn 0.596869 0.301370 -0.743640
vn -0.469667 0.485323 -0.735812
vn -0.003914 0.000000 -1.000000
vn 0.093933 0.663405 -0.743640
vn -0.684932 -0.001957 -0.727984
vn -0.003914 0.000000 -1.000000
vn -0.469667 0.485323 -0.735812
vn -0.459883 -0.495108 -0.737769
vn -0.003914 0.000000 -1.000000
vn -0.684932 -0.001957 -0.727984
vn 0.099804 -0.671233 -0.733855
vn -0.003914 0.000000 -1.000000
vn -0.459883 -0.495108 -0.737769
mtllib mtl_nt_2020_dish_mug_01.mtl
g mtl_nt_2020_dish_mug_01
usemtl mtl_nt_2020_dish_mug_01
f 3/3/3 2/2/2 1/1/1
f 6/6/6 5/5/5 4/4/4
f 9/9/9 8/8/8 7/7/7
f 12/12/12 11/11/11 10/10/10
f 15/15/15 14/14/14 13/13/13
f 18/18/18 17/17/17 16/16/16
f 21/21/21 20/20/20 19/19/19
f 24/24/24 23/23/23 22/22/22
f 27/27/27 26/26/26 25/25/25
f 30/30/30 29/29/29 28/28/28
f 33/33/33 32/32/32 31/31/31
f 36/36/36 35/35/35 34/34/34
f 39/39/39 38/38/38 37/37/37
f 42/42/42 41/41/41 40/40/40
f 45/45/45 44/44/44 43/43/43
f 48/48/48 47/47/47 46/46/46
f 51/51/51 50/50/50 49/49/49
f 54/54/54 53/53/53 52/52/52
f 57/57/57 56/56/56 55/55/55
f 60/60/60 59/59/59 58/58/58
f 63/63/63 62/62/62 61/61/61
f 66/66/66 65/65/65 64/64/64
f 69/69/69 68/68/68 67/67/67
f 72/72/72 71/71/71 70/70/70
f 75/75/75 74/74/74 73/73/73
f 78/78/78 77/77/77 76/76/76
f 81/81/81 80/80/80 79/79/79
f 84/84/84 83/83/83 82/82/82
f 87/87/87 86/86/86 85/85/85
f 90/90/90 89/89/89 88/88/88
f 93/93/93 92/92/92 91/91/91
f 96/96/96 95/95/95 94/94/94
f 99/99/99 98/98/98 97/97/97
f 102/102/102 101/101/101 100/100/100
f 105/105/105 104/104/104 103/103/103
f 108/108/108 107/107/107 106/106/106
f 111/111/111 110/110/110 109/109/109
f 114/114/114 113/113/113 112/112/112
f 117/117/117 116/116/116 115/115/115
f 120/120/120 119/119/119 118/118/118
f 123/123/123 122/122/122 121/121/121
f 126/126/126 125/125/125 124/124/124
f 129/129/129 128/128/128 127/127/127
f 132/132/132 131/131/131 130/130/130
f 135/135/135 134/134/134 133/133/133
f 138/138/138 137/137/137 136/136/136
f 141/141/141 140/140/140 139/139/139
f 144/144/144 143/143/143 142/142/142
f 147/147/147 146/146/146 145/145/145
f 150/150/150 149/149/149 148/148/148
f 153/153/153 152/152/152 151/151/151
f 156/156/156 155/155/155 154/154/154
f 159/159/159 158/158/158 157/157/157
f 162/162/162 161/161/161 160/160/160
f 165/165/165 164/164/164 163/163/163
f 168/168/168 167/167/167 166/166/166
f 171/171/171 170/170/170 169/169/169
f 174/174/174 173/173/173 172/172/172
f 177/177/177 176/176/176 175/175/175
f 180/180/180 179/179/179 178/178/178
f 183/183/183 182/182/182 181/181/181
f 186/186/186 185/185/185 184/184/184
f 189/189/189 188/188/188 187/187/187
f 192/192/192 191/191/191 190/190/190
