# Generated by Wraith - Game extraction tools
# Please credit DTZxPorter for using it!

v 32.005836 -9.894619 0.000000
v -34.316586 18.374546 132.644852
v 32.005836 18.374546 132.644852
v -34.316586 18.374546 132.644852
v 32.005836 -9.894619 0.000000
v -34.316586 10.881865 0.000000
v 10.370685 6.727855 128.320633
v -15.560058 25.063663 146.656433
v 10.370685 25.063663 146.656433
v -15.560058 25.063663 146.656433
v 10.370685 6.727855 128.320633
v -15.560058 6.727855 128.320633
v 6.812762 26.622715 0.000000
v -16.682741 -28.500130 110.245682
v -16.682741 26.622715 110.245682
v -16.682741 -28.500130 110.245682
v 6.812762 26.622715 0.000000
v -10.455292 -28.500130 0.000000
v -7.846110 9.355921 107.148872
v -23.085646 -12.196019 122.388420
v -23.085646 9.355921 122.388420
v -23.085646 -12.196019 122.388420
v -7.846110 9.355921 107.148872
v -7.846110 -12.196019 107.148872
v 13.293995 -6.783869 93.665939
v 18.700293 13.771708 105.937325
v 26.588223 4.371293 93.665939
v 18.700293 13.771708 105.937325
v 13.293995 -6.783869 93.665939
v 5.406104 2.616546 105.937309
vt 0.368164 0.005859
vt 0.005669 0.759155
vt 0.368164 0.759155
vt 0.005669 0.759155
vt 0.368164 0.005859
vt 0.005669 0.005859
vt 0.595215 0.732910
vt 0.306152 0.999529
vt 0.595215 0.999529
vt 0.306152 0.999529
vt 0.595215 0.732910
vt 0.306152 0.732910
vt 0.368164 0.005859
vt 0.005669 0.759155
vt 0.368164 0.759155
vt 0.005669 0.759155
vt 0.368164 0.005859
vt 0.005669 0.005859
vt 0.595215 0.732910
vt 0.306152 0.999529
vt 0.595215 0.999529
vt 0.306152 0.999529
vt 0.595215 0.732910
vt 0.306152 0.732910
vt 0.306152 0.732910
vt 0.595215 0.999529
vt 0.595215 0.732910
vt 0.595215 0.999529
vt 0.306152 0.732910
vt 0.306152 0.999529
vn -0.150685 -0.980431 0.133072
vn -0.150685 -0.980431 0.133072
vn 0.000000 -0.978474 0.209393
vn -0.150685 -0.980431 0.133072
vn -0.150685 -0.980431 0.133072
vn -0.299413 -0.953033 0.054795
vn 0.000000 -0.706458 0.706458
vn 0.000000 -0.706458 0.706458
vn 0.000000 -0.706458 0.706458
vn 0.000000 -0.706458 0.706458
vn 0.000000 -0.706458 0.706458
vn 0.000000 -0.706458 0.706458
vn 0.980431 -0.150685 0.133072
vn 0.980431 -0.150685 0.133072
vn 0.978474 0.000000 0.209393
vn 0.980431 -0.150685 0.133072
vn 0.980431 -0.150685 0.133072
vn 0.953033 -0.299413 0.054795
vn 0.706458 0.000000 0.706458
vn 0.706458 0.000000 0.706458
vn 0.706458 0.000000 0.706458
vn 0.706458 0.000000 0.706458
vn 0.706458 0.000000 0.706458
vn 0.706458 0.000000 0.706458
vn 0.454012 -0.542074 0.706458
vn 0.454012 -0.542074 0.706458
vn 0.454012 -0.542074 0.706458
vn 0.454012 -0.542074 0.706458
vn 0.454012 -0.542074 0.706458
vn 0.454012 -0.542074 0.706458
mtllib t5_foliage_flowers03.mtl
g t5_foliage_flowers03
usemtl t5_foliage_flowers03
f 3/3/3 2/2/2 1/1/1
f 6/6/6 5/5/5 4/4/4
f 9/9/9 8/8/8 7/7/7
f 12/12/12 11/11/11 10/10/10
f 15/15/15 14/14/14 13/13/13
f 18/18/18 17/17/17 16/16/16
f 21/21/21 20/20/20 19/19/19
f 24/24/24 23/23/23 22/22/22
f 27/27/27 26/26/26 25/25/25
f 30/30/30 29/29/29 28/28/28
