# Generated by Wraith - Game extraction tools
# Please credit DTZxPorter for using it!

v 32.999828 47.017128 -68.579117
v 32.999828 -47.017147 -68.579117
v 32.999828 46.990116 73.678253
v 32.999828 -47.017147 -68.579117
v 32.999828 -46.990097 73.678253
v 32.999828 46.990116 73.678253
v 35.913536 43.872070 -65.886536
v 32.098824 43.872070 -65.886536
v 35.913536 -43.872089 -65.886536
v 32.098824 43.872070 -65.886536
v 32.098824 -43.872089 -65.886536
v 35.913536 -43.872089 -65.886536
v -33.020020 46.990154 73.678253
v 32.999828 46.990116 73.678253
v -33.020020 -46.990135 73.678253
v 32.999828 46.990116 73.678253
v 32.999828 -46.990097 73.678253
v -33.020020 -46.990135 73.678253
v -33.020020 -47.017170 -68.579117
v -33.020020 -46.990135 73.678253
v 32.999828 -47.017147 -68.579117
v -33.020020 -46.990135 73.678253
v 32.999828 -46.990097 73.678253
v 32.999828 -47.017147 -68.579117
v -33.020020 47.017147 -68.579117
v 32.999828 47.017128 -68.579117
v -33.020020 46.990154 73.678253
v 32.999828 47.017128 -68.579117
v 32.999828 46.990116 73.678253
v -33.020020 46.990154 73.678253
v 32.098824 -43.800873 34.229584
v 35.913536 -43.800873 34.229584
v 32.098824 -43.872089 -65.886536
v 35.913536 -43.800873 34.229584
v 35.913536 -43.872089 -65.886536
v 32.098824 -43.872089 -65.886536
v 32.098824 43.872070 -65.886536
v 35.913536 43.872070 -65.886536
v 32.098824 43.769169 34.264183
v 35.913536 43.872070 -65.886536
v 35.913536 43.769169 34.264183
v 32.098824 43.769169 34.264183
v 32.098824 43.769169 34.264183
v 35.913536 43.769169 34.264183
v 32.098824 -43.800873 34.229584
v 35.913536 43.769169 34.264183
v 35.913536 -43.800873 34.229584
v 32.098824 -43.800873 34.229584
v 35.913536 -43.800873 34.229584
v 35.913536 43.769169 34.264183
v 35.913536 -43.872089 -65.886536
v 35.913536 43.769169 34.264183
v 35.913536 43.872070 -65.886536
v 35.913536 -43.872089 -65.886536
v 31.926178 -44.597336 65.226097
v 31.926178 -44.597336 69.066277
v 31.926178 -33.426895 65.226097
v 31.926178 -44.597336 69.066277
v 31.926178 -33.426895 69.066284
v 31.926178 -33.426895 65.226097
v 31.926178 -11.841234 69.066284
v 31.926178 44.523911 69.066284
v 31.926178 -11.841234 65.226097
v 31.926178 44.523911 69.066284
v 31.926178 44.523911 65.226097
v 31.926178 -11.841234 65.226097
v 31.926178 -33.426895 65.226097
v 31.926178 -33.426895 69.066284
v 31.926178 -11.841234 65.226097
v 31.926178 -33.426895 69.066284
v 31.926178 -11.841234 69.066284
v 31.926178 -11.841234 65.226097
vt 0.912109 0.962250
vt 0.053741 0.962250
vt 0.912109 1.785156
vt 0.053741 0.962250
vt 0.053864 1.785156
vt 0.912109 1.785156
vt 0.199219 0.182617
vt 0.239868 0.145996
vt -1.438477 0.183594
vt 0.239868 0.145996
vt -1.479492 0.145996
vt -1.438477 0.183594
vt -0.075562 1.417236
vt -0.087585 0.785400
vt -0.958008 1.417236
vt -0.087585 0.785400
vt -0.945801 0.785400
vt -0.958008 1.417236
vt -1.578125 -0.538086
vt -1.578125 0.797485
vt -0.945801 -0.037109
vt -1.578125 0.797485
vt -0.945801 0.785400
vt -0.945801 -0.037109
vt 0.544434 -0.538086
vt -0.087463 -0.037109
vt 0.544434 0.797485
vt -0.087463 -0.037109
vt -0.087585 0.785400
vt 0.544434 0.797485
vt -0.458740 1.129639
vt -0.416504 1.079834
vt -0.479736 0.145996
vt -0.416504 1.079834
vt -0.438965 0.183594
vt -0.479736 0.145996
vt 1.239258 0.145996
vt 1.199219 0.182617
vt 1.245117 1.096680
vt 1.199219 0.182617
vt 1.187500 1.069336
vt 1.245117 1.096680
vt 1.245117 1.096680
vt 1.187500 1.069336
vt -0.458740 1.129639
vt 1.187500 1.069336
vt -0.416504 1.079834
vt -0.458740 1.129639
vt -0.416504 1.079834
vt 1.187500 1.069336
vt -0.438965 0.183594
vt 1.187500 1.069336
vt 1.199219 0.182617
vt -0.438965 0.183594
vt 0.039551 0.362793
vt 0.039551 0.630371
vt 0.137329 0.362793
vt 0.039551 0.630371
vt 0.137329 0.630371
vt 0.137329 0.362793
vt 0.147949 0.363281
vt 0.014618 0.363281
vt 0.147949 0.630859
vt 0.014618 0.363281
vt 0.014618 0.630859
vt 0.147949 0.630859
vt 0.171143 0.362793
vt 0.171143 0.630371
vt 0.923828 0.362793
vt 0.171143 0.630371
vt 0.923828 0.630371
vt 0.923828 0.362793
vn 0.706458 0.706458 0.000000
vn 0.706458 -0.706458 0.000000
vn 0.577299 0.577299 0.577299
vn 0.706458 -0.706458 0.000000
vn 0.577299 -0.577299 0.577299
vn 0.577299 0.577299 0.577299
vn 0.000000 0.000000 -1.000000
vn 0.000000 0.000000 -1.000000
vn 0.000000 0.000000 -1.000000
vn 0.000000 0.000000 -1.000000
vn 0.000000 0.000000 -1.000000
vn 0.000000 0.000000 -1.000000
vn 0.000000 0.706458 0.706458
vn 0.577299 0.577299 0.577299
vn 0.000000 -0.706458 0.706458
vn 0.577299 0.577299 0.577299
vn 0.577299 -0.577299 0.577299
vn 0.000000 -0.706458 0.706458
vn 0.000000 -1.000000 0.000000
vn 0.000000 -0.706458 0.706458
vn 0.706458 -0.706458 0.000000
vn 0.000000 -0.706458 0.706458
vn 0.577299 -0.577299 0.577299
vn 0.706458 -0.706458 0.000000
vn 0.000000 1.000000 0.000000
vn 0.706458 0.706458 0.000000
vn 0.000000 0.706458 0.706458
vn 0.706458 0.706458 0.000000
vn 0.577299 0.577299 0.577299
vn 0.000000 0.706458 0.706458
vn 0.000000 -1.000000 0.000000
vn 0.000000 -1.000000 0.000000
vn 0.000000 -1.000000 0.000000
vn 0.000000 -1.000000 0.000000
vn 0.000000 -1.000000 0.000000
vn 0.000000 -1.000000 0.000000
vn 0.000000 1.000000 0.001957
vn 0.000000 1.000000 0.001957
vn 0.000000 1.000000 0.001957
vn 0.000000 1.000000 0.001957
vn 0.000000 1.000000 0.001957
vn 0.000000 1.000000 0.001957
vn 0.000000 0.000000 1.000000
vn 0.000000 0.000000 1.000000
vn 0.000000 0.000000 1.000000
vn 0.000000 0.000000 1.000000
vn 0.000000 0.000000 1.000000
vn 0.000000 0.000000 1.000000
vn 1.000000 0.000000 0.000000
vn 1.000000 0.000000 0.000000
vn 1.000000 0.000000 0.000000
vn 1.000000 0.000000 0.000000
vn 1.000000 0.000000 0.000000
vn 1.000000 0.000000 0.000000
vn 1.000000 0.000000 0.000000
vn 1.000000 0.000000 0.000000
vn 1.000000 0.000000 0.000000
vn 1.000000 0.000000 0.000000
vn 1.000000 0.000000 0.000000
vn 1.000000 0.000000 0.000000
vn 1.000000 0.000000 0.000000
vn 1.000000 0.000000 0.000000
vn 1.000000 0.000000 0.000000
vn 1.000000 0.000000 0.000000
vn 1.000000 0.000000 0.000000
vn 1.000000 0.000000 0.000000
vn 1.000000 0.000000 0.000000
vn 1.000000 0.000000 0.000000
vn 1.000000 0.000000 0.000000
vn 1.000000 0.000000 0.000000
vn 1.000000 0.000000 0.000000
vn 1.000000 0.000000 0.000000
mtllib pent_art_wall_creampaint02.mtl
g pent_art_wall_creampaint02
usemtl pent_art_wall_creampaint02
f 3/3/3 2/2/2 1/1/1
f 6/6/6 5/5/5 4/4/4
mtllib metal_stainless_steel_editor.mtl
g metal_stainless_steel_editor
usemtl metal_stainless_steel_editor
f 9/9/9 8/8/8 7/7/7
f 12/12/12 11/11/11 10/10/10
f 15/15/15 14/14/14 13/13/13
f 18/18/18 17/17/17 16/16/16
f 21/21/21 20/20/20 19/19/19
f 24/24/24 23/23/23 22/22/22
f 27/27/27 26/26/26 25/25/25
f 30/30/30 29/29/29 28/28/28
mtllib nt_2020_plastic_blue.mtl
g nt_2020_plastic_blue
usemtl nt_2020_plastic_blue
f 33/33/33 32/32/32 31/31/31
f 36/36/36 35/35/35 34/34/34
f 39/39/39 38/38/38 37/37/37
f 42/42/42 41/41/41 40/40/40
f 45/45/45 44/44/44 43/43/43
f 48/48/48 47/47/47 46/46/46
f 51/51/51 50/50/50 49/49/49
f 54/54/54 53/53/53 52/52/52
mtllib mtl_nt_2020_food_disp_decals.mtl
g mtl_nt_2020_food_disp_decals
usemtl mtl_nt_2020_food_disp_decals
f 57/57/57 56/56/56 55/55/55
f 60/60/60 59/59/59 58/58/58
f 63/63/63 62/62/62 61/61/61
f 66/66/66 65/65/65 64/64/64
f 69/69/69 68/68/68 67/67/67
f 72/72/72 71/71/71 70/70/70
