# Generated by Wraith - Game extraction tools
# Please credit DTZxPorter for using it!

v -40.042389 40.042389 13.174319
v -56.628479 -0.000018 13.174319
v -40.042389 40.042389 0.000000
v -56.628479 -0.000018 13.174319
v -56.628479 -0.000018 0.000000
v -40.042389 40.042389 0.000000
v -56.628479 -0.000018 13.174319
v -40.042358 -40.042412 13.174319
v -56.628479 -0.000018 0.000000
v -40.042358 -40.042412 13.174319
v -40.042358 -40.042412 0.000000
v -56.628479 -0.000018 0.000000
v -40.042358 -40.042412 13.174319
v 0.000053 -56.628487 13.174319
v -40.042358 -40.042412 0.000000
v 0.000053 -56.628487 13.174319
v 0.000053 -56.628487 0.000000
v -40.042358 -40.042412 0.000000
v 0.000053 -56.628487 13.174319
v 40.042439 -40.042336 13.174319
v 0.000053 -56.628487 0.000000
v 40.042439 -40.042336 13.174319
v 40.042439 -40.042336 0.000000
v 0.000053 -56.628487 0.000000
v 40.042439 -40.042336 13.174319
v 56.628494 0.000043 13.174319
v 40.042439 -40.042336 0.000000
v 56.628494 0.000043 13.174319
v 56.628494 0.000043 0.000000
v 40.042439 -40.042336 0.000000
v 56.628494 0.000043 13.174319
v 40.042385 40.042389 13.174319
v 56.628494 0.000043 0.000000
v 40.042385 40.042389 13.174319
v 40.042385 40.042389 0.000000
v 56.628494 0.000043 0.000000
v 40.042385 40.042389 13.174319
v 0.000005 56.628487 13.174319
v 40.042385 40.042389 0.000000
v 0.000005 56.628487 13.174319
v 0.000005 56.628487 0.000000
v 40.042385 40.042389 0.000000
v 0.000005 56.628487 13.174319
v -40.042389 40.042389 13.174319
v 0.000005 56.628487 0.000000
v -40.042389 40.042389 13.174319
v -40.042389 40.042389 0.000000
v 0.000005 56.628487 0.000000
v 0.000053 -54.481396 15.565737
v 0.000053 -56.628487 13.174319
v -40.042358 -40.042412 13.174319
v 0.000053 -54.481396 15.565737
v 38.524212 -38.524117 15.565737
v 0.000053 -56.628487 13.174319
v 38.524212 -38.524117 15.565737
v 40.042439 -40.042336 13.174319
v 0.000053 -56.628487 13.174319
v 38.524212 -38.524117 15.565737
v 54.481403 0.000043 15.565737
v 40.042439 -40.042336 13.174319
v 54.481403 0.000043 15.565737
v 56.628494 0.000043 13.174319
v 40.042439 -40.042336 13.174319
v 54.481403 0.000043 15.565737
v 38.524162 38.524166 15.565737
v 56.628494 0.000043 13.174319
v 38.524162 38.524166 15.565737
v 40.042385 40.042389 13.174319
v 56.628494 0.000043 13.174319
v -38.524139 -38.524193 15.565737
v 0.000053 -54.481396 15.565737
v -40.042358 -40.042412 13.174319
v 0.000013 0.000003 15.565735
v 0.000053 -54.481396 15.565737
v -38.524139 -38.524193 15.565737
v 0.000013 0.000003 15.565735
v 38.524212 -38.524117 15.565737
v 0.000053 -54.481396 15.565737
v 0.000013 0.000003 15.565735
v 54.481403 0.000043 15.565737
v 38.524212 -38.524117 15.565737
v 0.000013 0.000003 15.565735
v 38.524162 38.524166 15.565737
v 54.481403 0.000043 15.565737
v 0.000013 0.000003 15.565735
v 0.000005 54.481396 15.565737
v 38.524162 38.524166 15.565737
v 38.524162 38.524166 15.565737
v 0.000005 54.481396 15.565737
v 40.042385 40.042389 13.174319
v 0.000005 54.481396 15.565737
v 0.000005 56.628487 13.174319
v 40.042385 40.042389 13.174319
v 0.000005 54.481396 15.565737
v -38.524162 38.524162 15.565737
v 0.000005 56.628487 13.174319
v -38.524162 38.524162 15.565737
v -40.042389 40.042389 13.174319
v 0.000005 56.628487 13.174319
v -38.524139 -38.524193 15.565737
v -40.042358 -40.042412 13.174319
v -56.628479 -0.000018 13.174319
v -54.481392 -0.000018 15.565737
v -38.524139 -38.524193 15.565737
v -56.628479 -0.000018 13.174319
v 0.000013 0.000003 15.565735
v -38.524139 -38.524193 15.565737
v -54.481392 -0.000018 15.565737
v 0.000013 0.000003 15.565735
v -54.481392 -0.000018 15.565737
v -38.524162 38.524162 15.565737
v 0.000013 0.000003 15.565735
v -38.524162 38.524162 15.565737
v 0.000005 54.481396 15.565737
v -54.481392 -0.000018 15.565737
v -56.628479 -0.000018 13.174319
v -40.042389 40.042389 13.174319
v -38.524162 38.524162 15.565737
v -54.481392 -0.000018 15.565737
v -40.042389 40.042389 13.174319
vt 0.846680 0.667725
vt 0.624512 0.858398
vt 0.934082 0.712646
vt 0.624512 0.858398
vt 0.654785 0.948700
vt 0.934082 0.712646
vt 0.624512 0.858398
vt 0.335205 0.842041
vt 0.654785 0.948700
vt 0.335205 0.842041
vt 0.294922 0.928345
vt 0.654785 0.948700
vt 0.335205 0.842041
vt 0.136230 0.627441
vt 0.294922 0.928345
vt 0.136230 0.627441
vt 0.044250 0.662109
vt 0.294922 0.928345
vt 0.136230 0.627441
vt 0.152832 0.332520
vt 0.044250 0.662109
vt 0.152832 0.332520
vt 0.065430 0.287598
vt 0.044250 0.662109
vt 0.152832 0.332520
vt 0.375000 0.142090
vt 0.065430 0.287598
vt 0.375000 0.142090
vt 0.344727 0.051758
vt 0.065430 0.287598
vt 0.375000 0.142090
vt 0.664551 0.158203
vt 0.344727 0.051758
vt 0.664551 0.158203
vt 0.704590 0.071777
vt 0.344727 0.051758
vt 0.664551 0.158203
vt 0.863281 0.373047
vt 0.704590 0.071777
vt 0.863281 0.373047
vt 0.955566 0.338379
vt 0.704590 0.071777
vt 0.863281 0.373047
vt 0.846680 0.667725
vt 0.955566 0.338379
vt 0.846680 0.667725
vt 0.934082 0.712646
vt 0.955566 0.338379
vt 0.156494 0.620117
vt 0.136230 0.627441
vt 0.335205 0.842041
vt 0.156494 0.620117
vt 0.172119 0.342285
vt 0.136230 0.627441
vt 0.172119 0.342285
vt 0.152832 0.332520
vt 0.136230 0.627441
vt 0.172119 0.342285
vt 0.381592 0.161621
vt 0.152832 0.332520
vt 0.381592 0.161621
vt 0.375000 0.142090
vt 0.152832 0.332520
vt 0.381592 0.161621
vt 0.655273 0.177246
vt 0.375000 0.142090
vt 0.655273 0.177246
vt 0.664551 0.158203
vt 0.375000 0.142090
vt 0.344238 0.823120
vt 0.156494 0.620117
vt 0.335205 0.842041
vt 0.499756 0.500000
vt 0.156494 0.620117
vt 0.344238 0.823120
vt 0.499756 0.500000
vt 0.172119 0.342285
vt 0.156494 0.620117
vt 0.499756 0.500000
vt 0.381592 0.161621
vt 0.172119 0.342285
vt 0.499756 0.500000
vt 0.655273 0.177246
vt 0.381592 0.161621
vt 0.499756 0.500000
vt 0.843262 0.380371
vt 0.655273 0.177246
vt 0.655273 0.177246
vt 0.843262 0.380371
vt 0.664551 0.158203
vt 0.843262 0.380371
vt 0.863281 0.373047
vt 0.664551 0.158203
vt 0.843262 0.380371
vt 0.827637 0.657959
vt 0.863281 0.373047
vt 0.827637 0.657959
vt 0.846680 0.667725
vt 0.863281 0.373047
vt 0.344238 0.823120
vt 0.335205 0.842041
vt 0.624512 0.858398
vt 0.618164 0.838623
vt 0.344238 0.823120
vt 0.624512 0.858398
vt 0.499756 0.500000
vt 0.344238 0.823120
vt 0.618164 0.838623
vt 0.499756 0.500000
vt 0.618164 0.838623
vt 0.827637 0.657959
vt 0.499756 0.500000
vt 0.827637 0.657959
vt 0.843262 0.380371
vt 0.618164 0.838623
vt 0.624512 0.858398
vt 0.846680 0.667725
vt 0.827637 0.657959
vt 0.618164 0.838623
vt 0.846680 0.667725
vn -0.706458 0.706458 0.000000
vn -1.000000 0.000000 0.000000
vn -0.706458 0.706458 0.000000
vn -1.000000 0.000000 0.000000
vn -1.000000 0.000000 0.000000
vn -0.706458 0.706458 0.000000
vn -1.000000 0.000000 0.000000
vn -0.706458 -0.706458 0.000000
vn -1.000000 0.000000 0.000000
vn -0.706458 -0.706458 0.000000
vn -0.706458 -0.706458 0.000000
vn -1.000000 0.000000 0.000000
vn -0.706458 -0.706458 0.000000
vn 0.000000 -1.000000 0.000000
vn -0.706458 -0.706458 0.000000
vn 0.000000 -1.000000 0.000000
vn 0.000000 -1.000000 0.000000
vn -0.706458 -0.706458 0.000000
vn 0.000000 -1.000000 0.000000
vn 0.706458 -0.706458 0.000000
vn 0.000000 -1.000000 0.000000
vn 0.706458 -0.706458 0.000000
vn 0.706458 -0.706458 0.000000
vn 0.000000 -1.000000 0.000000
vn 0.706458 -0.706458 0.000000
vn 1.000000 0.000000 0.000000
vn 0.706458 -0.706458 0.000000
vn 1.000000 0.000000 0.000000
vn 1.000000 0.000000 0.000000
vn 0.706458 -0.706458 0.000000
vn 1.000000 0.000000 0.000000
vn 0.706458 0.706458 0.000000
vn 1.000000 0.000000 0.000000
vn 0.706458 0.706458 0.000000
vn 0.706458 0.706458 0.000000
vn 1.000000 0.000000 0.000000
vn 0.706458 0.706458 0.000000
vn 0.000000 1.000000 0.000000
vn 0.706458 0.706458 0.000000
vn 0.000000 1.000000 0.000000
vn 0.000000 1.000000 0.000000
vn 0.706458 0.706458 0.000000
vn 0.000000 1.000000 0.000000
vn -0.706458 0.706458 0.000000
vn 0.000000 1.000000 0.000000
vn -0.706458 0.706458 0.000000
vn -0.706458 0.706458 0.000000
vn 0.000000 1.000000 0.000000
vn 0.000000 -0.397260 0.917808
vn 0.000000 -0.743640 0.667319
vn -0.526419 -0.526419 0.667319
vn 0.000000 -0.397260 0.917808
vn 0.281800 -0.281800 0.917808
vn 0.000000 -0.743640 0.667319
vn 0.281800 -0.281800 0.917808
vn 0.526419 -0.526419 0.667319
vn 0.000000 -0.743640 0.667319
vn 0.281800 -0.281800 0.917808
vn 0.397260 0.000000 0.917808
vn 0.526419 -0.526419 0.667319
vn 0.397260 0.000000 0.917808
vn 0.743640 0.000000 0.667319
vn 0.526419 -0.526419 0.667319
vn 0.397260 0.000000 0.917808
vn 0.281800 0.281800 0.917808
vn 0.743640 0.000000 0.667319
vn 0.281800 0.281800 0.917808
vn 0.526419 0.526419 0.667319
vn 0.743640 0.000000 0.667319
vn -0.281800 -0.281800 0.917808
vn 0.000000 -0.397260 0.917808
vn -0.526419 -0.526419 0.667319
vn 0.000000 0.000000 1.000000
vn 0.000000 -0.397260 0.917808
vn -0.281800 -0.281800 0.917808
vn 0.000000 0.000000 1.000000
vn 0.281800 -0.281800 0.917808
vn 0.000000 -0.397260 0.917808
vn 0.000000 0.000000 1.000000
vn 0.397260 0.000000 0.917808
vn 0.281800 -0.281800 0.917808
vn 0.000000 0.000000 1.000000
vn 0.281800 0.281800 0.917808
vn 0.397260 0.000000 0.917808
vn 0.000000 0.000000 1.000000
vn 0.000000 0.397260 0.917808
vn 0.281800 0.281800 0.917808
vn 0.281800 0.281800 0.917808
vn 0.000000 0.397260 0.917808
vn 0.526419 0.526419 0.667319
vn 0.000000 0.397260 0.917808
vn 0.000000 0.743640 0.667319
vn 0.526419 0.526419 0.667319
vn 0.000000 0.397260 0.917808
vn -0.281800 0.281800 0.917808
vn 0.000000 0.743640 0.667319
vn -0.281800 0.281800 0.917808
vn -0.526419 0.526419 0.667319
vn 0.000000 0.743640 0.667319
vn -0.281800 -0.281800 0.917808
vn -0.526419 -0.526419 0.667319
vn -0.743640 0.000000 0.667319
vn -0.397260 0.000000 0.917808
vn -0.281800 -0.281800 0.917808
vn -0.743640 0.000000 0.667319
vn 0.000000 0.000000 1.000000
vn -0.281800 -0.281800 0.917808
vn -0.397260 0.000000 0.917808
vn 0.000000 0.000000 1.000000
vn -0.397260 0.000000 0.917808
vn -0.281800 0.281800 0.917808
vn 0.000000 0.000000 1.000000
vn -0.281800 0.281800 0.917808
vn 0.000000 0.397260 0.917808
vn -0.397260 0.000000 0.917808
vn -0.743640 0.000000 0.667319
vn -0.526419 0.526419 0.667319
vn -0.281800 0.281800 0.917808
vn -0.397260 0.000000 0.917808
vn -0.526419 0.526419 0.667319
mtllib jun_art_concrete_base02.mtl
g jun_art_concrete_base02
usemtl jun_art_concrete_base02
f 3/3/3 2/2/2 1/1/1
f 6/6/6 5/5/5 4/4/4
f 9/9/9 8/8/8 7/7/7
f 12/12/12 11/11/11 10/10/10
f 15/15/15 14/14/14 13/13/13
f 18/18/18 17/17/17 16/16/16
f 21/21/21 20/20/20 19/19/19
f 24/24/24 23/23/23 22/22/22
f 27/27/27 26/26/26 25/25/25
f 30/30/30 29/29/29 28/28/28
f 33/33/33 32/32/32 31/31/31
f 36/36/36 35/35/35 34/34/34
f 39/39/39 38/38/38 37/37/37
f 42/42/42 41/41/41 40/40/40
f 45/45/45 44/44/44 43/43/43
f 48/48/48 47/47/47 46/46/46
f 51/51/51 50/50/50 49/49/49
f 54/54/54 53/53/53 52/52/52
f 57/57/57 56/56/56 55/55/55
f 60/60/60 59/59/59 58/58/58
f 63/63/63 62/62/62 61/61/61
f 66/66/66 65/65/65 64/64/64
f 69/69/69 68/68/68 67/67/67
f 72/72/72 71/71/71 70/70/70
f 75/75/75 74/74/74 73/73/73
f 78/78/78 77/77/77 76/76/76
f 81/81/81 80/80/80 79/79/79
f 84/84/84 83/83/83 82/82/82
f 87/87/87 86/86/86 85/85/85
f 90/90/90 89/89/89 88/88/88
f 93/93/93 92/92/92 91/91/91
f 96/96/96 95/95/95 94/94/94
f 99/99/99 98/98/98 97/97/97
f 102/102/102 101/101/101 100/100/100
f 105/105/105 104/104/104 103/103/103
f 108/108/108 107/107/107 106/106/106
f 111/111/111 110/110/110 109/109/109
f 114/114/114 113/113/113 112/112/112
f 117/117/117 116/116/116 115/115/115
f 120/120/120 119/119/119 118/118/118
