# Generated by Wraith - Game extraction tools
# Please credit DTZxPorter for using it!

v -4.372564 0.370340 106.271797
v 20.363613 0.370340 0.000000
v 13.488895 -3.707082 -0.006688
v -12.907858 -3.707082 108.130722
v -4.372564 0.370340 106.271797
v 13.488895 -3.707082 -0.006688
v -4.372564 0.370340 106.271797
v -12.907858 -3.707082 108.130722
v 23.539860 -4.282394 150.685043
v 33.835228 0.235400 150.693192
v -4.372564 0.370340 106.271797
v 23.539860 -4.282394 150.685043
v 15.678102 4.219194 0.000000
v -10.803146 4.219194 107.805305
v 13.488895 -3.707082 -0.006688
v -10.803146 4.219194 107.805305
v -12.907858 -3.707082 108.130722
v 13.488895 -3.707082 -0.006688
v -12.907858 -3.707082 108.130722
v -10.803146 4.219194 107.805305
v 23.539860 -4.282394 150.685043
v -10.803146 4.219194 107.805305
v 26.199341 5.066581 150.693192
v 23.539860 -4.282394 150.685043
v 20.363613 0.370340 0.000000
v -4.372564 0.370340 106.271797
v 15.678102 4.219194 0.000000
v -4.372564 0.370340 106.271797
v -10.803146 4.219194 107.805305
v 15.678102 4.219194 0.000000
v -10.803146 4.219194 107.805305
v -4.372564 0.370340 106.271797
v 26.199341 5.066581 150.693192
v -4.372564 0.370340 106.271797
v 33.835228 0.235400 150.693192
v 26.199341 5.066581 150.693192
v -47.204205 -10.361924 173.501678
v -52.458218 0.184127 180.095703
v 38.986305 0.184127 180.095703
v 38.986301 -10.361924 173.501648
v -47.204205 -10.361924 173.501678
v 38.986305 0.184127 180.095703
v -28.131720 -10.087084 150.222336
v -47.204205 -10.361924 173.501678
v 38.986301 -10.361924 173.501648
v 38.986301 -10.087084 150.222336
v -28.131720 -10.087084 150.222336
v 38.986301 -10.361924 173.501648
v 38.986309 10.842632 173.501678
v 38.986301 -10.361924 173.501648
v 38.986305 0.184127 180.095703
v 38.986301 -10.087084 150.222336
v 38.986301 -10.361924 173.501648
v 38.986309 10.842632 173.501678
v 38.986309 10.802650 150.222336
v 38.986301 -10.087084 150.222336
v 38.986309 10.842632 173.501678
v -52.458218 0.184127 180.095703
v -47.204205 10.842632 173.501648
v 38.986305 0.184127 180.095703
v -47.204205 10.842632 173.501648
v 38.986309 10.842632 173.501678
v 38.986305 0.184127 180.095703
v -47.204205 10.842632 173.501648
v -28.131720 10.802650 150.222336
v 38.986309 10.842632 173.501678
v -28.131720 10.802650 150.222336
v 38.986309 10.802650 150.222336
v 38.986309 10.842632 173.501678
v -52.458218 0.184127 180.095703
v -47.204205 -10.361924 173.501678
v -47.204205 10.842632 173.501648
v -47.204205 -10.361924 173.501678
v -28.131720 -10.087084 150.222336
v -47.204205 10.842632 173.501648
v -28.131720 -10.087084 150.222336
v -28.131720 10.802650 150.222336
v -47.204205 10.842632 173.501648
vt 0.460449 0.056152
vt -1.000000 0.056152
vt -1.000000 0.075195
vt 0.460205 0.075195
vt 0.460449 0.056152
vt -1.000000 0.075195
vt 0.460449 0.056152
vt 0.460205 0.075195
vt 0.994629 0.075195
vt 0.994629 0.056152
vt 0.460449 0.056152
vt 0.994629 0.075195
vt -1.000000 0.113770
vt 0.460449 0.113770
vt -1.000000 0.075195
vt 0.460449 0.113770
vt 0.460205 0.075195
vt -1.000000 0.075195
vt 0.460205 0.075195
vt 0.460449 0.113770
vt 0.994629 0.075195
vt 0.460449 0.113770
vt 0.994629 0.113770
vt 0.994629 0.075195
vt -1.000000 0.017578
vt 0.460449 0.017578
vt -1.000000 0.000000
vt 0.460449 0.017578
vt 0.460449 0.000000
vt -1.000000 0.000000
vt 0.460449 0.000000
vt 0.460449 0.017578
vt 0.994629 0.000000
vt 0.460449 0.017578
vt 0.994629 0.017578
vt 0.994629 0.000000
vt 0.121521 0.786011
vt 0.313721 0.408203
vt 0.982910 0.688477
vt 0.982910 0.787720
vt 0.121521 0.786011
vt 0.982910 0.688477
vt 0.269531 0.998546
vt 0.121521 0.786011
vt 0.982910 0.787720
vt 0.982910 0.995304
vt 0.269531 0.998546
vt 0.982910 0.787720
vt 0.717285 0.133789
vt 0.717285 0.490723
vt 0.717285 0.438477
vt 0.995605 0.491211
vt 0.717285 0.490723
vt 0.717285 0.133789
vt 0.995605 0.127930
vt 0.995605 0.491211
vt 0.717285 0.133789
vt 0.050568 0.684082
vt 0.121521 0.785889
vt 0.717285 0.438477
vt 0.121521 0.785889
vt 0.982910 0.787476
vt 0.717285 0.438477
vt 0.121521 0.785889
vt 0.269531 0.998351
vt 0.982910 0.787476
vt 0.269531 0.998351
vt 0.982910 0.995110
vt 0.982910 0.787476
vt 0.000768 0.372559
vt 0.324707 0.739014
vt 0.323242 0.000000
vt 0.324707 0.739014
vt 1.000000 0.728027
vt 0.323242 0.000000
vt 1.000000 0.728027
vt 0.998047 0.000000
vt 0.323242 0.000000
vn 0.968689 -0.072407 -0.240705
vn 0.745597 0.667319 0.000000
vn -0.747554 -0.663405 0.000000
vn -0.544031 -0.829746 0.127202
vn 0.968689 -0.072407 -0.240705
vn -0.747554 -0.663405 0.000000
vn 0.968689 -0.072407 -0.240705
vn -0.544031 -0.829746 0.127202
vn -0.747554 -0.663405 0.000000
vn 0.745597 0.667319 0.000000
vn 0.968689 -0.072407 -0.240705
vn -0.747554 -0.663405 0.000000
vn -0.205479 0.978474 0.000000
vn -0.299413 0.951076 0.068493
vn -0.747554 -0.663405 0.000000
vn -0.299413 0.951076 0.068493
vn -0.544031 -0.829746 0.127202
vn -0.747554 -0.663405 0.000000
vn -0.544031 -0.829746 0.127202
vn -0.299413 0.951076 0.068493
vn -0.747554 -0.663405 0.000000
vn -0.299413 0.951076 0.068493
vn -0.205479 0.978474 0.000000
vn -0.747554 -0.663405 0.000000
vn 0.745597 0.667319 0.000000
vn 0.968689 -0.072407 -0.240705
vn -0.205479 0.978474 0.000000
vn 0.968689 -0.072407 -0.240705
vn -0.299413 0.951076 0.068493
vn -0.205479 0.978474 0.000000
vn -0.299413 0.951076 0.068493
vn 0.968689 -0.072407 -0.240705
vn -0.205479 0.978474 0.000000
vn 0.968689 -0.072407 -0.240705
vn 0.745597 0.667319 0.000000
vn -0.205479 0.978474 0.000000
vn 0.000000 -0.876712 0.479452
vn -0.266145 -0.958904 0.101761
vn 0.266145 -0.917808 0.297456
vn 0.000000 -0.876712 0.479452
vn 0.000000 -0.876712 0.479452
vn 0.266145 -0.917808 0.297456
vn 0.000000 -1.000000 -0.011742
vn 0.000000 -0.876712 0.479452
vn 0.000000 -0.876712 0.479452
vn 0.225049 -0.900196 -0.375734
vn 0.000000 -1.000000 -0.011742
vn 0.000000 -0.876712 0.479452
vn 1.000000 0.000000 0.000000
vn 1.000000 0.000000 0.000000
vn 0.870842 -0.467710 0.152642
vn 0.729941 -0.487280 -0.479452
vn 1.000000 0.000000 0.000000
vn 1.000000 0.000000 0.000000
vn 0.238748 0.933464 -0.268102
vn 0.729941 -0.487280 -0.479452
vn 1.000000 0.000000 0.000000
vn -0.266145 0.958904 0.101761
vn 0.000000 0.874755 0.485323
vn 0.266145 0.917808 0.297456
vn 0.000000 0.874755 0.485323
vn 0.000000 0.874755 0.485323
vn 0.266145 0.917808 0.297456
vn 0.000000 0.874755 0.485323
vn 0.000000 1.000000 -0.001957
vn 0.000000 0.874755 0.485323
vn 0.000000 1.000000 -0.001957
vn 0.238748 0.933464 -0.268102
vn 0.000000 0.874755 0.485323
vn -0.782779 0.000000 -0.622309
vn -0.776908 0.000000 -0.628180
vn -0.776908 0.000000 -0.628180
vn -0.776908 0.000000 -0.628180
vn -0.772994 0.000000 -0.634051
vn -0.776908 0.000000 -0.628180
vn -0.772994 0.000000 -0.634051
vn -0.772994 0.000000 -0.634051
vn -0.776908 0.000000 -0.628180
mtllib mtl_nt_2020_mailbox_masonfirth.mtl
g mtl_nt_2020_mailbox_masonfirth
usemtl mtl_nt_2020_mailbox_masonfirth
f 3/3/3 2/2/2 1/1/1
f 6/6/6 5/5/5 4/4/4
f 9/9/9 8/8/8 7/7/7
f 12/12/12 11/11/11 10/10/10
f 15/15/15 14/14/14 13/13/13
f 18/18/18 17/17/17 16/16/16
f 21/21/21 20/20/20 19/19/19
f 24/24/24 23/23/23 22/22/22
f 27/27/27 26/26/26 25/25/25
f 30/30/30 29/29/29 28/28/28
f 33/33/33 32/32/32 31/31/31
f 36/36/36 35/35/35 34/34/34
f 39/39/39 38/38/38 37/37/37
f 42/42/42 41/41/41 40/40/40
f 45/45/45 44/44/44 43/43/43
f 48/48/48 47/47/47 46/46/46
f 51/51/51 50/50/50 49/49/49
f 54/54/54 53/53/53 52/52/52
f 57/57/57 56/56/56 55/55/55
f 60/60/60 59/59/59 58/58/58
f 63/63/63 62/62/62 61/61/61
f 66/66/66 65/65/65 64/64/64
f 69/69/69 68/68/68 67/67/67
f 72/72/72 71/71/71 70/70/70
f 75/75/75 74/74/74 73/73/73
f 78/78/78 77/77/77 76/76/76
