# Generated by Wraith - Game extraction tools
# Please credit DTZxPorter for using it!

v 0.751799 -1.814812 1.901274
v 0.723870 -1.747607 1.901286
v 1.814970 0.751815 1.901274
v 0.723870 -1.747607 1.901286
v 1.747624 0.723871 1.901286
v 1.814970 0.751815 1.901274
v 1.814970 0.751815 1.901274
v 1.747624 0.723871 1.901286
v -0.751731 1.814928 1.901274
v 1.747624 0.723871 1.901286
v -0.723925 1.747607 1.901286
v -0.751731 1.814928 1.901274
v -5.080000 -2.540000 -0.000076
v 5.080000 -2.540000 -0.000076
v -5.080000 0.000000 -2.540025
v 5.080000 -2.540000 -0.000076
v 5.080000 0.000000 -2.540025
v -5.080000 0.000000 -2.540025
v 5.080000 2.540000 -0.000076
v 5.080000 0.000000 2.539992
v -5.080000 2.540000 -0.000076
v 5.080000 0.000000 2.539992
v -5.080000 0.000000 2.539992
v -5.080000 2.540000 -0.000076
v 5.080000 0.000000 2.539992
v 5.080000 -2.540000 -0.000076
v -5.080000 0.000000 2.539992
v 5.080000 -2.540000 -0.000076
v -5.080000 -2.540000 -0.000076
v -5.080000 0.000000 2.539992
v 5.080000 0.000000 -2.540025
v 5.080000 2.540000 -0.000076
v -5.080000 0.000000 -2.540025
v 5.080000 2.540000 -0.000076
v -5.080000 2.540000 -0.000076
v -5.080000 0.000000 -2.540025
v 3.029321 -5.565125 13.907063
v -5.065745 -2.930170 13.999677
v 5.237200 2.980903 13.974644
v -5.065745 -2.930170 13.999677
v -3.164738 5.110425 14.041135
v 5.237200 2.980903 13.974644
v -1.814850 -0.751698 1.901279
v -1.747672 -0.723871 1.901286
v 0.751799 -1.814812 1.901274
v -1.747672 -0.723871 1.901286
v 0.723870 -1.747607 1.901286
v 0.751799 -1.814812 1.901274
v -0.751731 1.814928 1.901274
v -0.723925 1.747607 1.901286
v -1.814850 -0.751698 1.901279
v -0.723925 1.747607 1.901286
v -1.747672 -0.723871 1.901286
v -1.814850 -0.751698 1.901279
v -0.751731 1.814928 1.901274
v -0.751731 1.814928 6.617998
v -1.814850 -0.751698 1.901279
v -0.751731 1.814928 6.617998
v -1.814850 -0.751698 6.617998
v -1.814850 -0.751698 1.901279
v -1.814850 -0.751698 1.901279
v -1.814850 -0.751698 6.617998
v 0.751799 -1.814812 1.901274
v -1.814850 -0.751698 6.617998
v 0.751799 -1.814812 6.617998
v 0.751799 -1.814812 1.901274
v 0.751799 -1.814812 1.901274
v 0.751799 -1.814812 6.617998
v 1.814970 0.751815 1.901274
v 0.751799 -1.814812 6.617998
v 1.814970 0.751815 6.617998
v 1.814970 0.751815 1.901274
v 1.814970 0.751815 1.901274
v 1.814970 0.751815 6.617998
v -0.751731 1.814928 1.901274
v 1.814970 0.751815 6.617998
v -0.751731 1.814928 6.617998
v -0.751731 1.814928 1.901274
vt 0.990234 0.711914
vt 1.000977 0.714600
vt 1.069336 0.695801
vt 1.000977 0.714600
vt 1.083008 0.695068
vt 1.069336 0.695801
vt 1.069336 0.695801
vt 1.083008 0.695068
vt 0.895508 0.689209
vt 1.083008 0.695068
vt 0.884766 0.687256
vt 0.895508 0.689209
vt 0.447266 1.008034
vt 0.447266 0.927795
vt 0.182739 1.008446
vt 0.447266 0.927795
vt 0.182739 0.928101
vt 0.182739 1.008446
vt 0.976074 0.928772
vt 0.711426 0.928650
vt 0.976074 1.008774
vt 0.711426 0.928650
vt 0.711426 1.008774
vt 0.976074 1.008774
vt 0.711426 0.928650
vt 0.447266 0.927795
vt 0.711426 1.008774
vt 0.447266 0.927795
vt 0.447266 1.008034
vt 0.711426 1.008774
vt 0.182739 0.928101
vt 0.976074 0.928772
vt 0.182739 1.008446
vt 0.976074 0.928772
vt 0.976074 1.008774
vt 0.182739 1.008446
vt 0.770996 0.001465
vt 0.046173 0.237793
vt 0.968750 0.767090
vt 0.046173 0.237793
vt 0.216431 0.957825
vt 0.968750 0.767090
vt 0.827637 0.705322
vt 0.802246 0.706543
vt 0.990234 0.711914
vt 0.802246 0.706543
vt 1.000977 0.714600
vt 0.990234 0.711914
vt 0.895508 0.689209
vt 0.884766 0.687256
vt 0.827637 0.705322
vt 0.884766 0.687256
vt 0.802246 0.706543
vt 0.827637 0.705322
vt 0.406006 0.212402
vt 0.406006 0.075195
vt 0.326660 0.212402
vt 0.406006 0.075195
vt 0.326660 0.075195
vt 0.326660 0.212402
vt 0.406006 0.273438
vt 0.406006 0.077148
vt 0.326660 0.273438
vt 0.406006 0.077148
vt 0.326660 0.077148
vt 0.326660 0.273438
vt 0.406006 -0.736328
vt 0.406006 -0.924805
vt 0.326660 -0.736328
vt 0.406006 -0.924805
vt 0.326660 -0.924805
vt 0.326660 -0.736328
vt 0.406006 -0.624023
vt 0.406006 -0.991211
vt 0.326660 -0.624023
vt 0.406006 -0.991211
vt 0.326660 -0.991211
vt 0.326660 -0.624023
vn 0.000000 0.000000 1.000000
vn 0.000000 0.000000 1.000000
vn 0.000000 0.000000 1.000000
vn 0.000000 0.000000 1.000000
vn 0.000000 0.000000 1.000000
vn 0.000000 0.000000 1.000000
vn 0.000000 0.000000 1.000000
vn 0.000000 0.000000 1.000000
vn 0.000000 0.000000 1.000000
vn 0.000000 0.000000 1.000000
vn 0.000000 0.000000 1.000000
vn 0.000000 0.000000 1.000000
vn 0.000000 -1.000000 0.000000
vn 0.000000 -1.000000 0.000000
vn 0.000000 -0.706458 -0.706458
vn 0.000000 -1.000000 0.000000
vn 0.000000 -0.706458 -0.706458
vn 0.000000 -0.706458 -0.706458
vn 0.000000 0.706458 0.706458
vn 0.000000 0.000000 1.000000
vn 0.000000 0.706458 0.706458
vn 0.000000 0.000000 1.000000
vn 0.000000 0.000000 1.000000
vn 0.000000 0.706458 0.706458
vn 0.000000 0.000000 1.000000
vn 0.000000 -1.000000 0.000000
vn 0.000000 0.000000 1.000000
vn 0.000000 -1.000000 0.000000
vn 0.000000 -1.000000 0.000000
vn 0.000000 0.000000 1.000000
vn 0.000000 0.706458 -0.706458
vn 0.000000 0.706458 -0.706458
vn 0.000000 0.706458 -0.706458
vn 0.000000 0.706458 -0.706458
vn 0.000000 0.706458 -0.706458
vn 0.000000 0.706458 -0.706458
vn 0.007828 -0.007828 1.000000
vn 0.007828 -0.007828 1.000000
vn 0.007828 -0.007828 1.000000
vn 0.007828 -0.007828 1.000000
vn 0.007828 -0.007828 1.000000
vn 0.007828 -0.007828 1.000000
vn 0.000000 0.000000 1.000000
vn 0.000000 0.000000 1.000000
vn 0.000000 0.000000 1.000000
vn 0.000000 0.000000 1.000000
vn 0.000000 0.000000 1.000000
vn 0.000000 0.000000 1.000000
vn 0.000000 0.000000 1.000000
vn 0.000000 0.000000 1.000000
vn 0.000000 0.000000 1.000000
vn 0.000000 0.000000 1.000000
vn 0.000000 0.000000 1.000000
vn 0.000000 0.000000 1.000000
vn -0.383562 0.923679 0.000000
vn -0.383562 0.923679 0.000000
vn -0.923679 -0.383562 0.000000
vn -0.383562 0.923679 0.000000
vn -0.923679 -0.383562 0.000000
vn -0.923679 -0.383562 0.000000
vn -0.923679 -0.383562 0.000000
vn -0.923679 -0.383562 0.000000
vn 0.383562 -0.923679 0.000000
vn -0.923679 -0.383562 0.000000
vn 0.383562 -0.923679 0.000000
vn 0.383562 -0.923679 0.000000
vn 0.383562 -0.923679 0.000000
vn 0.383562 -0.923679 0.000000
vn 0.923679 0.383562 0.000000
vn 0.383562 -0.923679 0.000000
vn 0.923679 0.383562 0.000000
vn 0.923679 0.383562 0.000000
vn 0.923679 0.383562 0.000000
vn 0.923679 0.383562 0.000000
vn -0.383562 0.923679 0.000000
vn 0.923679 0.383562 0.000000
vn -0.383562 0.923679 0.000000
vn -0.383562 0.923679 0.000000
mtllib mtl_p6_pipes_garage.mtl
g mtl_p6_pipes_garage
usemtl mtl_p6_pipes_garage
f 3/3/3 2/2/2 1/1/1
f 6/6/6 5/5/5 4/4/4
f 9/9/9 8/8/8 7/7/7
f 12/12/12 11/11/11 10/10/10
f 15/15/15 14/14/14 13/13/13
f 18/18/18 17/17/17 16/16/16
f 21/21/21 20/20/20 19/19/19
f 24/24/24 23/23/23 22/22/22
f 27/27/27 26/26/26 25/25/25
f 30/30/30 29/29/29 28/28/28
f 33/33/33 32/32/32 31/31/31
f 36/36/36 35/35/35 34/34/34
mtllib mtl_p6_pipes_garage_sprinkler_top.mtl
g mtl_p6_pipes_garage_sprinkler_top
usemtl mtl_p6_pipes_garage_sprinkler_top
f 39/39/39 38/38/38 37/37/37
f 42/42/42 41/41/41 40/40/40
mtllib mtl_p6_pipes_garage_details.mtl
g mtl_p6_pipes_garage_details
usemtl mtl_p6_pipes_garage_details
f 45/45/45 44/44/44 43/43/43
f 48/48/48 47/47/47 46/46/46
f 51/51/51 50/50/50 49/49/49
f 54/54/54 53/53/53 52/52/52
f 57/57/57 56/56/56 55/55/55
f 60/60/60 59/59/59 58/58/58
f 63/63/63 62/62/62 61/61/61
f 66/66/66 65/65/65 64/64/64
f 69/69/69 68/68/68 67/67/67
f 72/72/72 71/71/71 70/70/70
f 75/75/75 74/74/74 73/73/73
f 78/78/78 77/77/77 76/76/76
