# Generated by Wraith - Game extraction tools
# Please credit DTZxPorter for using it!

v 9.092258 -9.051013 1.909000
v 0.040559 -12.800352 1.909000
v -9.011137 -9.051013 1.909000
v 9.092258 -9.051013 1.909000
v -9.011137 -9.051013 1.909000
v 12.841593 0.000676 1.909000
v -9.011137 -9.051013 1.909000
v -12.760472 0.000678 1.909000
v 12.841593 0.000676 1.909000
v -12.760472 0.000678 1.909000
v -9.011135 9.052372 1.909000
v 12.841593 0.000676 1.909000
v -9.011135 9.052372 1.909000
v 9.092255 9.052372 1.909000
v 12.841593 0.000676 1.909000
v -9.011135 9.052372 1.909000
v 0.040559 12.801706 1.909000
v 9.092255 9.052372 1.909000
vt 0.853516 0.853638
vt 1.000000 0.500000
vt 0.853516 0.146484
vt 0.853516 0.853638
vt 0.853516 0.146484
vt 0.500000 1.000000
vt 0.853516 0.146484
vt 0.500000 0.000000
vt 0.500000 1.000000
vt 0.500000 0.000000
vt 0.146362 0.146484
vt 0.500000 1.000000
vt 0.146362 0.146484
vt 0.146362 0.853638
vt 0.500000 1.000000
vt 0.146362 0.146484
vt 0.000000 0.500000
vt 0.146362 0.853638
vn 0.240705 -0.240705 0.939335
vn 0.000000 -0.340509 0.939335
vn -0.240705 -0.240705 0.939335
vn 0.240705 -0.240705 0.939335
vn -0.240705 -0.240705 0.939335
vn 0.340509 0.000000 0.939335
vn -0.240705 -0.240705 0.939335
vn -0.340509 0.000000 0.939335
vn 0.340509 0.000000 0.939335
vn -0.340509 0.000000 0.939335
vn -0.240705 0.240705 0.939335
vn 0.340509 0.000000 0.939335
vn -0.240705 0.240705 0.939335
vn 0.240705 0.240705 0.939335
vn 0.340509 0.000000 0.939335
vn -0.240705 0.240705 0.939335
vn 0.000000 0.340509 0.939335
vn 0.240705 0.240705 0.939335
mtllib metal_wall_brushed.mtl
g metal_wall_brushed
usemtl metal_wall_brushed
f 3/3/3 2/2/2 1/1/1
f 6/6/6 5/5/5 4/4/4
f 9/9/9 8/8/8 7/7/7
f 12/12/12 11/11/11 10/10/10
f 15/15/15 14/14/14 13/13/13
f 18/18/18 17/17/17 16/16/16
