# Generated by Wraith - Game extraction tools
# Please credit DTZxPorter for using it!

v 33.086712 -31.580500 0.000000
v 39.349983 -18.964752 4.759167
v 39.294785 -16.450317 -10.214376
v -37.598724 29.059286 5.801561
v -36.960892 29.044298 0.000000
v 39.336201 31.268372 4.775398
v 39.336250 31.266603 -18.170015
v 35.968918 31.580500 0.000000
v 36.391315 31.266603 -18.170015
v -37.598976 -22.147312 5.801561
v 33.086712 -31.580500 0.000000
v -36.960892 -22.169542 0.000000
v 39.336250 -14.662958 -18.170015
v 36.391315 31.266603 -18.170015
v 36.391315 -14.662958 -18.170015
v 36.391315 31.266603 -18.170015
v 39.336250 -14.662958 -18.170015
v 39.336250 31.266603 -18.170015
v -36.960892 29.044298 0.000000
v -37.598976 -22.147312 5.801561
v -36.960892 -22.169542 0.000000
v -37.598976 -22.147312 5.801561
v -36.960892 29.044298 0.000000
v -37.598724 29.059286 5.801561
v 36.349846 -16.450317 -11.581348
v 39.336250 -14.662958 -18.170015
v 36.391315 -14.662958 -18.170015
v 39.336250 -14.662958 -18.170015
v 36.349846 -16.450317 -11.581348
v 39.294785 -16.450317 -10.214376
v 39.294785 -16.450317 -10.214376
v 39.336250 31.266603 -18.170015
v 39.336250 -14.662958 -18.170015
v 39.294785 -16.450317 -10.214376
v 39.336201 31.268372 4.775398
v 39.336250 31.266603 -18.170015
v 35.968918 31.580500 0.000000
v 39.336250 31.266603 -18.170015
v 39.336201 31.268372 4.775398
v 39.336201 31.268372 4.775398
v -36.960892 29.044298 0.000000
v 35.968918 31.580500 0.000000
v 36.349846 -16.450317 -11.581348
v 34.040916 -31.037586 -10.214376
v 39.294785 -16.450317 -10.214376
v 33.086712 -31.580500 0.000000
v 39.294785 -16.450317 -10.214376
v 34.040916 -31.037586 -10.214376
v 39.349983 -18.964752 4.759167
v 39.336201 31.268372 4.775398
v 39.294785 -16.450317 -10.214376
v 39.349983 -18.964752 4.759167
v -37.598724 29.059286 5.801561
v 39.336201 31.268372 4.775398
v -37.598724 29.059286 5.801561
v 39.349983 -18.964752 4.759167
v -37.598976 -22.147312 5.801561
v 39.349983 -18.964752 4.759167
v 33.086712 -31.580500 0.000000
v -37.598976 -22.147312 5.801561
vt 0.432617 0.456543
vt 0.429688 0.373047
vt 0.341064 0.360352
vt 0.939941 0.055176
vt 0.930176 0.013672
vt 0.434814 0.039063
vt 0.297607 0.036133
vt 0.428955 0.012695
vt 0.299805 0.015137
vt 0.934082 0.402832
vt 0.432617 0.456543
vt 0.924316 0.445313
vt 0.291016 0.342285
vt 0.277588 0.037109
vt 0.277832 0.350098
vt 0.277588 0.037109
vt 0.291016 0.342285
vt 0.297607 0.036133
vt 0.991211 0.059570
vt 0.934082 0.402832
vt 0.987305 0.403320
vt 0.934082 0.402832
vt 0.991211 0.059570
vt 0.939941 0.055176
vt 0.321533 0.372070
vt 0.291016 0.342285
vt 0.277832 0.350098
vt 0.291016 0.342285
vt 0.321533 0.372070
vt 0.341064 0.360352
vt 0.341064 0.360352
vt 0.297607 0.036133
vt 0.291016 0.342285
vt 0.341064 0.360352
vt 0.434814 0.039063
vt 0.297607 0.036133
vt 0.428955 0.012695
vt 0.297607 0.036133
vt 0.434814 0.039063
vt 0.434814 0.039063
vt 0.930176 0.013672
vt 0.428955 0.012695
vt 0.321533 0.372070
vt 0.347168 0.470215
vt 0.341064 0.360352
vt 0.432617 0.456543
vt 0.341064 0.360352
vt 0.347168 0.470215
vt 0.429688 0.373047
vt 0.434814 0.039063
vt 0.341064 0.360352
vt 0.429688 0.373047
vt 0.939941 0.055176
vt 0.434814 0.039063
vt 0.939941 0.055176
vt 0.429688 0.373047
vt 0.934082 0.402832
vt 0.429688 0.373047
vt 0.432617 0.456543
vt 0.934082 0.402832
vn 0.606654 -0.510763 0.608611
vn 0.706458 -0.258317 0.657534
vn 0.908023 -0.334638 -0.252446
vn -0.614481 0.563601 0.551859
vn -0.690802 0.720157 -0.074364
vn 0.581213 0.569472 0.583170
vn 0.579256 0.571429 -0.581213
vn 0.029354 0.998043 0.041096
vn 0.000000 0.706458 -0.708415
vn -0.636008 -0.530333 0.559687
vn 0.606654 -0.510763 0.608611
vn -0.727984 -0.681018 -0.078278
vn 0.594912 -0.493151 -0.634051
vn 0.000000 0.706458 -0.708415
vn 0.000000 -0.608611 -0.792564
vn 0.000000 0.706458 -0.708415
vn 0.594912 -0.493151 -0.634051
vn 0.579256 0.571429 -0.581213
vn -0.690802 0.720157 -0.074364
vn -0.636008 -0.530333 0.559687
vn -0.727984 -0.681018 -0.078278
vn -0.636008 -0.530333 0.559687
vn -0.690802 0.720157 -0.074364
vn -0.614481 0.563601 0.551859
vn 0.281800 -0.714286 -0.639922
vn 0.594912 -0.493151 -0.634051
vn 0.000000 -0.608611 -0.792564
vn 0.594912 -0.493151 -0.634051
vn 0.281800 -0.714286 -0.639922
vn 0.908023 -0.334638 -0.252446
vn 0.908023 -0.334638 -0.252446
vn 0.579256 0.571429 -0.581213
vn 0.594912 -0.493151 -0.634051
vn 0.908023 -0.334638 -0.252446
vn 0.581213 0.569472 0.583170
vn 0.579256 0.571429 -0.581213
vn 0.029354 0.998043 0.041096
vn 0.579256 0.571429 -0.581213
vn 0.581213 0.569472 0.583170
vn 0.581213 0.569472 0.583170
vn -0.690802 0.720157 -0.074364
vn 0.029354 0.998043 0.041096
vn 0.281800 -0.714286 -0.639922
vn 0.939335 -0.338552 -0.041096
vn 0.908023 -0.334638 -0.252446
vn 0.606654 -0.510763 0.608611
vn 0.908023 -0.334638 -0.252446
vn 0.939335 -0.338552 -0.041096
vn 0.706458 -0.258317 0.657534
vn 0.581213 0.569472 0.583170
vn 0.908023 -0.334638 -0.252446
vn 0.706458 -0.258317 0.657534
vn -0.614481 0.563601 0.551859
vn 0.581213 0.569472 0.583170
vn -0.614481 0.563601 0.551859
vn 0.706458 -0.258317 0.657534
vn -0.636008 -0.530333 0.559687
vn 0.706458 -0.258317 0.657534
vn 0.606654 -0.510763 0.608611
vn -0.636008 -0.530333 0.559687
mtllib mtl_p6_pool_lounge_chair_acc.mtl
g mtl_p6_pool_lounge_chair_acc
usemtl mtl_p6_pool_lounge_chair_acc
f 3/3/3 2/2/2 1/1/1
f 6/6/6 5/5/5 4/4/4
f 9/9/9 8/8/8 7/7/7
f 12/12/12 11/11/11 10/10/10
f 15/15/15 14/14/14 13/13/13
f 18/18/18 17/17/17 16/16/16
f 21/21/21 20/20/20 19/19/19
f 24/24/24 23/23/23 22/22/22
f 27/27/27 26/26/26 25/25/25
f 30/30/30 29/29/29 28/28/28
f 33/33/33 32/32/32 31/31/31
f 36/36/36 35/35/35 34/34/34
f 39/39/39 38/38/38 37/37/37
f 42/42/42 41/41/41 40/40/40
f 45/45/45 44/44/44 43/43/43
f 48/48/48 47/47/47 46/46/46
f 51/51/51 50/50/50 49/49/49
f 54/54/54 53/53/53 52/52/52
f 57/57/57 56/56/56 55/55/55
f 60/60/60 59/59/59 58/58/58
