# Generated by Wraith - Game extraction tools
# Please credit DTZxPorter for using it!

v 5.470540 3.975707 -10.343047
v 3.425840 2.287638 -8.959867
v 5.470540 2.130577 -12.968026
v 0.003322 5.226863 15.419250
v 1.273322 5.079998 15.239997
v 0.003322 -5.226863 15.419250
v 1.273322 5.079998 15.239997
v 1.273322 -5.079998 15.239997
v 0.003322 -5.226863 15.419250
v 1.273322 5.079998 15.239997
v 1.273322 5.079998 -15.239997
v 1.273322 -5.079998 15.239997
v 1.273322 5.079998 -15.239997
v 1.273322 -5.079998 -15.239997
v 1.273322 -5.079998 15.239997
v 1.273322 5.079998 -15.239997
v 0.003322 5.226863 -15.419250
v 1.273322 -5.079998 -15.239997
v 0.003322 5.226863 -15.419250
v 0.003322 -5.226863 -15.419250
v 1.273322 -5.079998 -15.239997
v 0.003322 -5.226863 15.419250
v 1.273322 -5.079998 15.239997
v 0.003322 -5.226863 -15.419250
v 1.273322 -5.079998 15.239997
v 1.273322 -5.079998 -15.239997
v 0.003322 -5.226863 -15.419250
v 0.003322 5.226863 -15.419250
v 1.273322 5.079998 -15.239997
v 0.003322 5.226863 15.419250
v 1.273322 5.079998 -15.239997
v 1.273322 5.079998 15.239997
v 0.003322 5.226863 15.419250
v 5.470540 -3.975707 -8.212470
v 3.425840 -1.822199 -7.858638
v 5.470540 -0.532648 -5.444779
v 5.470540 -0.532648 -5.444779
v 3.425840 -1.822199 -7.858638
v 3.425840 0.635798 -6.904952
v 5.470540 -0.532648 -5.444779
v 3.425840 0.635798 -6.904952
v 5.470540 3.690257 -7.147187
v 3.425840 0.635798 -6.904952
v 3.425840 2.287638 -8.959867
v 5.470540 3.690257 -7.147187
v 5.470540 3.690257 -7.147187
v 3.425840 2.287638 -8.959867
v 5.470540 3.975707 -10.343047
v 3.425840 2.287638 -8.959867
v 3.425840 -0.942282 -11.057371
v 5.470540 2.130577 -12.968026
v 5.470540 2.130577 -12.968026
v 3.425840 -0.942282 -11.057371
v 5.470540 -1.065289 -13.253469
v 5.470540 2.130577 -12.968026
v 5.470540 -1.065289 -13.253469
v 7.482347 -0.728185 -11.995388
v 7.482347 2.086999 -10.903108
v 5.470540 2.130577 -12.968026
v 7.482347 -0.728185 -11.995388
v 7.482347 2.086999 -10.903108
v 5.470540 3.975707 -10.343047
v 5.470540 2.130577 -12.968026
v 7.482347 2.086999 -10.903108
v 7.482347 2.522507 -7.821389
v 5.470540 3.975707 -10.343047
v 7.482347 2.522507 -7.821389
v 5.470540 3.690257 -7.147187
v 5.470540 3.975707 -10.343047
v 5.470540 -0.532648 -5.444779
v 5.470540 3.690257 -7.147187
v 7.482347 2.522507 -7.821389
v 7.482347 -0.728185 -11.995388
v 5.470540 -1.065289 -13.253469
v 5.470540 -3.690264 -11.408341
v 7.482347 -2.620068 -9.641852
v 7.482347 -0.728185 -11.995388
v 5.470540 -3.690264 -11.408341
v 7.482347 -0.728185 -11.995388
v 7.482347 -2.620068 -9.641852
v 7.482347 -0.364096 -6.657698
v 7.482347 2.522507 -7.821389
v 7.482347 -0.728185 -11.995388
v 7.482347 -0.364096 -6.657698
v 7.482347 2.086999 -10.903108
v 7.482347 -0.728185 -11.995388
v 7.482347 2.522507 -7.821389
v 7.482347 -2.620068 -9.641852
v 5.470540 -3.690264 -11.408341
v 5.470540 -3.975707 -8.212470
v 7.482347 -2.620068 -9.641852
v 5.470540 -3.975707 -8.212470
v 7.482347 -0.364096 -6.657698
v 5.470540 -3.975707 -8.212470
v 5.470540 -0.532648 -5.444779
v 7.482347 -0.364096 -6.657698
v 7.482347 -0.364096 -6.657698
v 5.470540 -0.532648 -5.444779
v 7.482347 2.522507 -7.821389
v 5.470540 -3.975707 -8.212470
v 5.470540 -3.690264 -11.408341
v 3.425840 -1.822199 -7.858638
v 5.470540 -3.690264 -11.408341
v 3.425840 -0.942282 -11.057371
v 3.425840 -1.822199 -7.858638
v 5.470540 -1.065289 -13.253469
v 3.425840 -0.942282 -11.057371
v 5.470540 -3.690264 -11.408341
v 3.425840 -0.942282 -11.057371
v 1.264839 -0.942282 -11.057371
v 3.425840 -1.822199 -7.858638
v 1.264839 -0.942282 -11.057371
v 1.264839 -1.822199 -7.858638
v 3.425840 -1.822199 -7.858638
v 3.425840 -1.822199 -7.858638
v 1.264839 -1.822199 -7.858638
v 3.425840 0.635798 -6.904952
v 1.264839 -1.822199 -7.858638
v 1.264839 0.635798 -6.904952
v 3.425840 0.635798 -6.904952
v 3.425840 0.635798 -6.904952
v 1.264839 0.635798 -6.904952
v 3.425840 2.287638 -8.959867
v 1.264839 0.635798 -6.904952
v 1.264839 2.287638 -8.959867
v 3.425840 2.287638 -8.959867
v 3.425840 2.287638 -8.959867
v 1.264839 2.287638 -8.959867
v 3.425840 -0.942282 -11.057371
v 1.264839 2.287638 -8.959867
v 1.264839 -0.942282 -11.057371
v 3.425840 -0.942282 -11.057371
v 1.269340 -3.224995 6.159896
v 2.331890 0.194953 6.933555
v 1.269340 -1.728267 4.030579
v 1.269340 -2.993451 8.752304
v 2.331890 0.194953 6.933555
v 1.269340 -3.224995 6.159896
v 1.269340 -0.864133 10.249026
v 2.331890 0.194953 6.933555
v 1.269340 -2.993451 8.752304
v 1.269340 1.728272 10.017486
v 2.331890 0.194953 6.933555
v 1.269340 -0.864133 10.249026
v 1.269340 3.224997 7.888168
v 2.331890 0.194953 6.933555
v 1.269340 1.728272 10.017486
v 1.269340 2.993453 5.295760
v 2.331890 0.194953 6.933555
v 1.269340 3.224997 7.888168
v 1.269340 0.864136 3.799037
v 2.331890 0.194953 6.933555
v 1.269340 2.993453 5.295760
v 1.269340 -1.728267 4.030579
v 2.331890 0.194953 6.933555
v 1.269340 0.864136 3.799037
vt 0.503906 0.133789
vt 0.485596 0.203613
vt 0.619141 0.144043
vt 0.003454 0.970535
vt 0.043793 0.970535
vt 0.003454 1.287354
vt 0.043793 0.970535
vt 0.043793 1.287354
vt 0.003454 1.287354
vt 0.046722 0.971054
vt 0.046722 0.002441
vt 0.369629 0.971054
vt 0.046722 0.002441
vt 0.369629 0.002441
vt 0.369629 0.971054
vt 0.043793 0.001953
vt 0.003454 0.001953
vt 0.043793 0.318848
vt 0.003454 0.001953
vt 0.003454 0.318848
vt 0.043793 0.318848
vt 0.003454 1.287354
vt 0.043793 1.287354
vt 0.003454 0.318848
vt 0.043793 1.287354
vt 0.043793 0.318848
vt 0.003454 0.318848
vt 0.003454 0.001953
vt 0.043793 0.001953
vt 0.003454 0.970535
vt 0.043793 0.001953
vt 0.043793 0.970535
vt 0.003454 0.970535
vt 0.580566 0.419434
vt 0.529785 0.368652
vt 0.433105 0.361816
vt 0.433105 0.361816
vt 0.529785 0.368652
vt 0.447266 0.302246
vt 0.433105 0.361816
vt 0.447266 0.302246
vt 0.409912 0.200195
vt 0.447266 0.302246
vt 0.485596 0.203613
vt 0.409912 0.200195
vt 0.409912 0.200195
vt 0.485596 0.203613
vt 0.503906 0.133789
vt 0.485596 0.203613
vt 0.623047 0.273438
vt 0.619141 0.144043
vt 0.619141 0.144043
vt 0.623047 0.273438
vt 0.685547 0.238281
vt 0.619141 0.144043
vt 0.685547 0.238281
vt 0.628906 0.253418
vt 0.554199 0.193359
vt 0.619141 0.144043
vt 0.628906 0.253418
vt 0.554199 0.193359
vt 0.503906 0.133789
vt 0.619141 0.144043
vt 0.554199 0.193359
vt 0.462402 0.230469
vt 0.503906 0.133789
vt 0.462402 0.230469
vt 0.409912 0.200195
vt 0.503906 0.133789
vt 0.433105 0.361816
vt 0.409912 0.200195
vt 0.462402 0.230469
vt 0.628906 0.253418
vt 0.685547 0.238281
vt 0.675293 0.353027
vt 0.594238 0.342773
vt 0.628906 0.253418
vt 0.675293 0.353027
vt 0.628906 0.253418
vt 0.594238 0.342773
vt 0.476318 0.328125
vt 0.462402 0.230469
vt 0.628906 0.253418
vt 0.476318 0.328125
vt 0.554199 0.193359
vt 0.628906 0.253418
vt 0.462402 0.230469
vt 0.594238 0.342773
vt 0.675293 0.353027
vt 0.580566 0.419434
vt 0.594238 0.342773
vt 0.580566 0.419434
vt 0.476318 0.328125
vt 0.580566 0.419434
vt 0.433105 0.361816
vt 0.476318 0.328125
vt 0.476318 0.328125
vt 0.433105 0.361816
vt 0.462402 0.230469
vt 0.580566 0.419434
vt 0.675293 0.353027
vt 0.529785 0.368652
vt 0.675293 0.353027
vt 0.623047 0.273438
vt 0.529785 0.368652
vt 0.685547 0.238281
vt 0.623047 0.273438
vt 0.675293 0.353027
vt 0.371582 0.097656
vt 0.371582 0.001953
vt 0.489014 0.097656
vt 0.371582 0.001953
vt 0.489014 0.001953
vt 0.489014 0.097656
vt 0.489014 0.097656
vt 0.489014 0.001953
vt 0.605957 0.097656
vt 0.489014 0.001953
vt 0.605957 0.001953
vt 0.605957 0.097656
vt 0.605957 0.097656
vt 0.605957 0.001953
vt 0.723633 0.097656
vt 0.605957 0.001953
vt 0.723633 0.001953
vt 0.723633 0.097656
vt 0.723633 0.097656
vt 0.723633 0.001953
vt 0.938965 0.097656
vt 0.723633 0.001953
vt 0.938965 0.001953
vt 0.938965 0.097656
vt 0.712402 0.195801
vt 0.834961 0.224121
vt 0.766602 0.118652
vt 0.720703 0.289551
vt 0.834961 0.224121
vt 0.712402 0.195801
vt 0.797852 0.343750
vt 0.834961 0.224121
vt 0.720703 0.289551
vt 0.891602 0.335449
vt 0.834961 0.224121
vt 0.797852 0.343750
vt 0.945801 0.258301
vt 0.834961 0.224121
vt 0.891602 0.335449
vt 0.937012 0.164551
vt 0.834961 0.224121
vt 0.945801 0.258301
vt 0.860352 0.110352
vt 0.834961 0.224121
vt 0.937012 0.164551
vt 0.766602 0.118652
vt 0.834961 0.224121
vt 0.860352 0.110352
vn -0.103718 0.947162 -0.305284
vn -0.767123 0.628180 0.127202
vn -0.144814 0.485323 -0.861057
vn 0.138943 0.000000 0.990215
vn 0.138943 0.000000 0.990215
vn 0.138943 0.000000 0.990215
vn 0.138943 0.000000 0.990215
vn 0.138943 0.000000 0.990215
vn 0.138943 0.000000 0.990215
vn 1.000000 0.000000 0.000000
vn 1.000000 0.000000 0.000000
vn 1.000000 0.000000 0.000000
vn 1.000000 0.000000 0.000000
vn 1.000000 0.000000 0.000000
vn 1.000000 0.000000 0.000000
vn 0.138943 0.000000 -0.990215
vn 0.138943 0.000000 -0.990215
vn 0.138943 0.000000 -0.990215
vn 0.138943 0.000000 -0.990215
vn 0.138943 0.000000 -0.990215
vn 0.138943 0.000000 -0.990215
vn 0.115460 -0.994129 0.000000
vn 0.115460 -0.994129 0.000000
vn 0.115460 -0.994129 0.000000
vn 0.115460 -0.994129 0.000000
vn 0.115460 -0.994129 0.000000
vn 0.115460 -0.994129 0.000000
vn 0.115460 0.994129 0.000000
vn 0.115460 0.994129 0.000000
vn 0.115460 0.994129 0.000000
vn 0.115460 0.994129 0.000000
vn 0.115460 0.994129 0.000000
vn 0.115460 0.994129 0.000000
vn -0.045010 -0.923679 0.379648
vn -0.698630 -0.536204 0.471624
vn -0.178082 -0.176125 0.968689
vn -0.178082 -0.176125 0.968689
vn -0.698630 -0.536204 0.471624
vn -0.661448 0.090020 0.745597
vn -0.178082 -0.176125 0.968689
vn -0.661448 0.090020 0.745597
vn -0.041096 0.833659 0.549902
vn -0.661448 0.090020 0.745597
vn -0.767123 0.628180 0.127202
vn -0.041096 0.833659 0.549902
vn -0.041096 0.833659 0.549902
vn -0.767123 0.628180 0.127202
vn -0.103718 0.947162 -0.305284
vn -0.767123 0.628180 0.127202
vn -0.841487 -0.166341 -0.514677
vn -0.144814 0.485323 -0.861057
vn -0.144814 0.485323 -0.861057
vn -0.841487 -0.166341 -0.514677
vn -0.060665 -0.264188 -0.962818
vn -0.144814 0.485323 -0.861057
vn -0.060665 -0.264188 -0.962818
vn 0.849315 -0.136986 -0.508806
vn 0.792564 0.485323 -0.369863
vn -0.144814 0.485323 -0.861057
vn 0.849315 -0.136986 -0.508806
vn 0.792564 0.485323 -0.369863
vn -0.103718 0.947162 -0.305284
vn -0.144814 0.485323 -0.861057
vn 0.792564 0.485323 -0.369863
vn 0.831703 0.454012 0.320939
vn -0.103718 0.947162 -0.305284
vn 0.831703 0.454012 0.320939
vn -0.041096 0.833659 0.549902
vn -0.103718 0.947162 -0.305284
vn -0.178082 -0.176125 0.968689
vn -0.041096 0.833659 0.549902
vn 0.831703 0.454012 0.320939
vn 0.849315 -0.136986 -0.508806
vn -0.060665 -0.264188 -0.962818
vn -0.109589 -0.866928 -0.487280
vn 0.812133 -0.583170 -0.025440
vn 0.849315 -0.136986 -0.508806
vn -0.109589 -0.866928 -0.487280
vn 0.849315 -0.136986 -0.508806
vn 0.812133 -0.583170 -0.025440
vn 0.825832 -0.097847 0.557730
vn 0.831703 0.454012 0.320939
vn 0.849315 -0.136986 -0.508806
vn 0.825832 -0.097847 0.557730
vn 0.792564 0.485323 -0.369863
vn 0.849315 -0.136986 -0.508806
vn 0.831703 0.454012 0.320939
vn 0.812133 -0.583170 -0.025440
vn -0.109589 -0.866928 -0.487280
vn -0.045010 -0.923679 0.379648
vn 0.812133 -0.583170 -0.025440
vn -0.045010 -0.923679 0.379648
vn 0.825832 -0.097847 0.557730
vn -0.045010 -0.923679 0.379648
vn -0.178082 -0.176125 0.968689
vn 0.825832 -0.097847 0.557730
vn 0.825832 -0.097847 0.557730
vn -0.178082 -0.176125 0.968689
vn 0.831703 0.454012 0.320939
vn -0.045010 -0.923679 0.379648
vn -0.109589 -0.866928 -0.487280
vn -0.698630 -0.536204 0.471624
vn -0.109589 -0.866928 -0.487280
vn -0.841487 -0.166341 -0.514677
vn -0.698630 -0.536204 0.471624
vn -0.060665 -0.264188 -0.962818
vn -0.841487 -0.166341 -0.514677
vn -0.109589 -0.866928 -0.487280
vn 0.000000 -0.356164 -0.935421
vn 0.000000 -0.356164 -0.935421
vn 0.000000 -0.892368 0.450098
vn 0.000000 -0.356164 -0.935421
vn 0.000000 -0.892368 0.450098
vn 0.000000 -0.892368 0.450098
vn 0.000000 -0.892368 0.450098
vn 0.000000 -0.892368 0.450098
vn 0.000000 0.258317 0.966732
vn 0.000000 -0.892368 0.450098
vn 0.000000 0.258317 0.966732
vn 0.000000 0.258317 0.966732
vn 0.000000 0.258317 0.966732
vn 0.000000 0.258317 0.966732
vn 0.000000 0.988258 -0.158513
vn 0.000000 0.258317 0.966732
vn 0.000000 0.988258 -0.158513
vn 0.000000 0.988258 -0.158513
vn 0.000000 0.988258 -0.158513
vn 0.000000 0.988258 -0.158513
vn 0.000000 -0.356164 -0.935421
vn 0.000000 0.988258 -0.158513
vn 0.000000 -0.356164 -0.935421
vn 0.000000 -0.356164 -0.935421
vn 0.956947 -0.279843 -0.076321
vn 1.000000 0.009785 -0.003914
vn 0.956947 -0.142857 -0.254403
vn 0.960861 -0.240705 0.138943
vn 1.000000 0.009785 -0.003914
vn 0.956947 -0.279843 -0.076321
vn 0.956947 -0.074364 0.283757
vn 1.000000 0.009785 -0.003914
vn 0.960861 -0.240705 0.138943
vn 0.954990 0.150685 0.254403
vn 1.000000 0.009785 -0.003914
vn 0.956947 -0.074364 0.283757
vn 0.949119 0.307241 0.080235
vn 1.000000 0.009785 -0.003914
vn 0.954990 0.150685 0.254403
vn 0.951076 0.270059 -0.154599
vn 1.000000 0.009785 -0.003914
vn 0.949119 0.307241 0.080235
vn 0.949119 0.084149 -0.303327
vn 1.000000 0.009785 -0.003914
vn 0.951076 0.270059 -0.154599
vn 0.956947 -0.142857 -0.254403
vn 1.000000 0.009785 -0.003914
vn 0.949119 0.084149 -0.303327
mtllib mtl_p_glo_doorknob.mtl
g mtl_p_glo_doorknob
usemtl mtl_p_glo_doorknob
f 3/3/3 2/2/2 1/1/1
f 6/6/6 5/5/5 4/4/4
f 9/9/9 8/8/8 7/7/7
f 12/12/12 11/11/11 10/10/10
f 15/15/15 14/14/14 13/13/13
f 18/18/18 17/17/17 16/16/16
f 21/21/21 20/20/20 19/19/19
f 24/24/24 23/23/23 22/22/22
f 27/27/27 26/26/26 25/25/25
f 30/30/30 29/29/29 28/28/28
f 33/33/33 32/32/32 31/31/31
f 36/36/36 35/35/35 34/34/34
f 39/39/39 38/38/38 37/37/37
f 42/42/42 41/41/41 40/40/40
f 45/45/45 44/44/44 43/43/43
f 48/48/48 47/47/47 46/46/46
f 51/51/51 50/50/50 49/49/49
f 54/54/54 53/53/53 52/52/52
f 57/57/57 56/56/56 55/55/55
f 60/60/60 59/59/59 58/58/58
f 63/63/63 62/62/62 61/61/61
f 66/66/66 65/65/65 64/64/64
f 69/69/69 68/68/68 67/67/67
f 72/72/72 71/71/71 70/70/70
f 75/75/75 74/74/74 73/73/73
f 78/78/78 77/77/77 76/76/76
f 81/81/81 80/80/80 79/79/79
f 84/84/84 83/83/83 82/82/82
f 87/87/87 86/86/86 85/85/85
f 90/90/90 89/89/89 88/88/88
f 93/93/93 92/92/92 91/91/91
f 96/96/96 95/95/95 94/94/94
f 99/99/99 98/98/98 97/97/97
f 102/102/102 101/101/101 100/100/100
f 105/105/105 104/104/104 103/103/103
f 108/108/108 107/107/107 106/106/106
f 111/111/111 110/110/110 109/109/109
f 114/114/114 113/113/113 112/112/112
f 117/117/117 116/116/116 115/115/115
f 120/120/120 119/119/119 118/118/118
f 123/123/123 122/122/122 121/121/121
f 126/126/126 125/125/125 124/124/124
f 129/129/129 128/128/128 127/127/127
f 132/132/132 131/131/131 130/130/130
f 135/135/135 134/134/134 133/133/133
f 138/138/138 137/137/137 136/136/136
f 141/141/141 140/140/140 139/139/139
f 144/144/144 143/143/143 142/142/142
f 147/147/147 146/146/146 145/145/145
f 150/150/150 149/149/149 148/148/148
f 153/153/153 152/152/152 151/151/151
f 156/156/156 155/155/155 154/154/154
