# Generated by Wraith - Game extraction tools
# Please credit DTZxPorter for using it!

v -9.543829 0.000000 0.000965
v 0.000000 0.000000 0.491899
v -8.129933 4.595177 0.000965
v -8.129933 -4.595177 0.000965
v 0.000000 0.000000 0.491899
v -9.543829 0.000000 0.000965
v 0.000000 0.000000 0.491899
v -8.129933 -4.595177 0.000965
v -4.595180 -8.129930 0.000965
v 0.000000 -9.543826 0.000965
v 0.000000 0.000000 0.491899
v -4.595180 -8.129930 0.000965
v 4.595177 -8.129930 0.000965
v 0.000000 0.000000 0.491899
v 0.000000 -9.543826 0.000965
v 0.000000 0.000000 0.491899
v 4.595177 -8.129930 0.000965
v 8.129925 -4.595177 0.000965
v 9.543832 0.000000 0.000965
v 0.000000 0.000000 0.491899
v 8.129925 -4.595177 0.000965
v 0.000000 0.000000 0.491899
v 9.543832 0.000000 0.000965
v 8.129925 4.595177 0.000965
v 0.000000 0.000000 0.491899
v 8.129925 4.595177 0.000965
v 4.595177 8.129928 0.000965
v 0.000000 9.543829 0.000965
v 0.000000 0.000000 0.491899
v 4.595177 8.129928 0.000965
v -4.595180 8.129928 0.000965
v 0.000000 0.000000 0.491899
v 0.000000 9.543829 0.000965
v 0.000000 0.000000 0.491899
v -4.595180 8.129928 0.000965
v -8.129933 4.595177 0.000965
v -11.743340 -11.743340 2.575191
v -14.432608 -8.157560 2.573393
v 0.000000 0.000000 0.961304
v -14.432608 -8.157560 2.573393
v -16.310194 -4.240649 2.575191
v 0.000000 0.000000 0.961304
v -16.310194 -4.240649 2.575191
v -16.942623 0.000000 2.573393
v 0.000000 0.000000 0.961304
v -16.942623 0.000000 2.573393
v -16.310194 4.240649 2.575191
v 0.000000 0.000000 0.961304
v -16.310194 4.240649 2.575191
v -14.432608 8.157560 2.573393
v 0.000000 0.000000 0.961304
v -14.432608 8.157560 2.573393
v -11.743340 11.743340 2.575191
v 0.000000 0.000000 0.961304
v -11.743340 11.743340 2.575191
v -8.157557 14.432608 2.573393
v 0.000000 0.000000 0.961304
v -8.157557 14.432608 2.573393
v -4.240649 16.310194 2.575191
v 0.000000 0.000000 0.961304
v -4.240649 16.310194 2.575191
v 0.000000 16.942623 2.573393
v 0.000000 0.000000 0.961304
v 0.000000 16.942623 2.573393
v 4.240652 16.310194 2.575191
v 0.000000 0.000000 0.961304
v 4.240652 16.310194 2.575191
v 8.157557 14.432608 2.573393
v 0.000000 0.000000 0.961304
v 8.157557 14.432608 2.573393
v 11.743340 11.743340 2.575191
v 0.000000 0.000000 0.961304
v 11.743340 11.743340 2.575191
v 14.432610 8.157560 2.573393
v 0.000000 0.000000 0.961304
v 14.432610 8.157560 2.573393
v 16.310196 4.240649 2.575191
v 0.000000 0.000000 0.961304
v 16.310196 4.240649 2.575191
v 16.942623 0.000000 2.573393
v 0.000000 0.000000 0.961304
v 16.942623 0.000000 2.573393
v 16.310196 -4.240649 2.575191
v 0.000000 0.000000 0.961304
v 16.310196 -4.240649 2.575191
v 14.432610 -8.157560 2.573393
v 0.000000 0.000000 0.961304
v 14.432610 -8.157560 2.573393
v 11.743340 -11.743340 2.575191
v 0.000000 0.000000 0.961304
v 11.743340 -11.743340 2.575191
v 8.157557 -14.432608 2.573393
v 0.000000 0.000000 0.961304
v 8.157557 -14.432608 2.573393
v 4.240652 -16.310194 2.575191
v 0.000000 0.000000 0.961304
v 4.240652 -16.310194 2.575191
v 0.000000 -16.942617 2.573393
v 0.000000 0.000000 0.961304
v -4.240649 -16.310194 2.575191
v 0.000000 0.000000 0.961304
v 0.000000 -16.942617 2.573393
v -8.157557 -14.432608 2.573393
v 0.000000 0.000000 0.961304
v -4.240649 -16.310194 2.575191
v -8.157557 -14.432608 2.573393
v -11.743340 -11.743340 2.575191
v 0.000000 0.000000 0.961304
v -4.240649 16.310194 2.575191
v -4.595180 8.129928 0.000965
v 0.000000 9.543829 0.000965
v -8.157557 14.432608 2.573393
v -4.595180 8.129928 0.000965
v -4.240649 16.310194 2.575191
v -8.157557 14.432608 2.573393
v -11.743340 11.743340 2.575191
v -4.595180 8.129928 0.000965
v -11.743340 11.743340 2.575191
v -8.129933 4.595177 0.000965
v -4.595180 8.129928 0.000965
v -14.432608 8.157560 2.573393
v -8.129933 4.595177 0.000965
v -11.743340 11.743340 2.575191
v -14.432608 8.157560 2.573393
v -16.310194 4.240649 2.575191
v -8.129933 4.595177 0.000965
v -16.310194 4.240649 2.575191
v -9.543829 0.000000 0.000965
v -8.129933 4.595177 0.000965
v 0.000000 16.942623 2.573393
v -4.240649 16.310194 2.575191
v 0.000000 9.543829 0.000965
v 4.240652 16.310194 2.575191
v 0.000000 16.942623 2.573393
v 0.000000 9.543829 0.000965
v 4.240652 16.310194 2.575191
v 0.000000 9.543829 0.000965
v 4.595177 8.129928 0.000965
v 8.157557 14.432608 2.573393
v 4.240652 16.310194 2.575191
v 4.595177 8.129928 0.000965
v 11.743340 11.743340 2.575191
v 8.157557 14.432608 2.573393
v 4.595177 8.129928 0.000965
v 11.743340 11.743340 2.575191
v 4.595177 8.129928 0.000965
v 8.129925 4.595177 0.000965
v 14.432610 8.157560 2.573393
v 11.743340 11.743340 2.575191
v 8.129925 4.595177 0.000965
v 8.129925 4.595177 0.000965
v 16.310196 4.240649 2.575191
v 14.432610 8.157560 2.573393
v 16.310196 4.240649 2.575191
v 8.129925 4.595177 0.000965
v 9.543832 0.000000 0.000965
v 16.942623 0.000000 2.573393
v 16.310196 4.240649 2.575191
v 9.543832 0.000000 0.000965
v 16.310196 -4.240649 2.575191
v 16.942623 0.000000 2.573393
v 9.543832 0.000000 0.000965
v 16.310196 -4.240649 2.575191
v 9.543832 0.000000 0.000965
v 8.129925 -4.595177 0.000965
v 14.432610 -8.157560 2.573393
v 16.310196 -4.240649 2.575191
v 8.129925 -4.595177 0.000965
v 14.432610 -8.157560 2.573393
v 8.129925 -4.595177 0.000965
v 11.743340 -11.743340 2.575191
v 11.743340 -11.743340 2.575191
v 8.129925 -4.595177 0.000965
v 4.595177 -8.129930 0.000965
v 8.157557 -14.432608 2.573393
v 11.743340 -11.743340 2.575191
v 4.595177 -8.129930 0.000965
v 8.157557 -14.432608 2.573393
v 4.595177 -8.129930 0.000965
v 4.240652 -16.310194 2.575191
v 4.240652 -16.310194 2.575191
v 4.595177 -8.129930 0.000965
v 0.000000 -9.543826 0.000965
v 0.000000 -16.942617 2.573393
v 4.240652 -16.310194 2.575191
v 0.000000 -9.543826 0.000965
v 0.000000 -16.942617 2.573393
v 0.000000 -9.543826 0.000965
v -4.240649 -16.310194 2.575191
v -4.240649 -16.310194 2.575191
v 0.000000 -9.543826 0.000965
v -4.595180 -8.129930 0.000965
v -8.157557 -14.432608 2.573393
v -4.240649 -16.310194 2.575191
v -4.595180 -8.129930 0.000965
v -8.157557 -14.432608 2.573393
v -4.595180 -8.129930 0.000965
v -11.743340 -11.743340 2.575191
v -11.743340 -11.743340 2.575191
v -4.595180 -8.129930 0.000965
v -8.129933 -4.595177 0.000965
v -14.432608 -8.157560 2.573393
v -11.743340 -11.743340 2.575191
v -8.129933 -4.595177 0.000965
v -14.432608 -8.157560 2.573393
v -8.129933 -4.595177 0.000965
v -16.310194 -4.240649 2.575191
v -16.310194 -4.240649 2.575191
v -8.129933 -4.595177 0.000965
v -9.543829 0.000000 0.000965
v -16.942623 0.000000 2.573393
v -16.310194 -4.240649 2.575191
v -9.543829 0.000000 0.000965
v -16.310194 4.240649 2.575191
v -16.942623 0.000000 2.573393
v -9.543829 0.000000 0.000965
vt 0.747559 0.594238
vt 0.747559 0.750977
vt 0.670410 0.617920
vt 0.825195 0.617920
vt 0.747559 0.750977
vt 0.747559 0.594238
vt 0.747559 0.750977
vt 0.825195 0.617920
vt 0.884277 0.677490
vt 0.908203 0.754517
vt 0.747559 0.750977
vt 0.884277 0.677490
vt 0.884277 0.831787
vt 0.747559 0.750977
vt 0.908203 0.754517
vt 0.747559 0.750977
vt 0.884277 0.831787
vt 0.825195 0.891174
vt 0.747559 0.914917
vt 0.747559 0.750977
vt 0.825195 0.891174
vt 0.747559 0.750977
vt 0.747559 0.914917
vt 0.670410 0.891174
vt 0.747559 0.750977
vt 0.670410 0.891174
vt 0.611328 0.831787
vt 0.587402 0.754517
vt 0.747559 0.750977
vt 0.611328 0.831787
vt 0.611328 0.677490
vt 0.747559 0.750977
vt 0.587402 0.754517
vt 0.747559 0.750977
vt 0.611328 0.677490
vt 0.670410 0.617920
vt 0.249512 0.501465
vt 0.182373 0.509033
vt 0.249390 0.748291
vt 0.182373 0.509033
vt 0.121521 0.532471
vt 0.249390 0.748291
vt 0.121521 0.532471
vt 0.070862 0.571533
vt 0.249390 0.748291
vt 0.070862 0.571533
vt 0.033325 0.622803
vt 0.249390 0.748291
vt 0.033325 0.622803
vt 0.007904 0.682373
vt 0.249390 0.748291
vt 0.007904 0.682373
vt 0.000399 0.749023
vt 0.249390 0.748291
vt 0.000399 0.749023
vt 0.007904 0.815552
vt 0.249390 0.748291
vt 0.007904 0.815552
vt 0.033325 0.874878
vt 0.249390 0.748291
vt 0.033325 0.874878
vt 0.071411 0.925659
vt 0.249390 0.748291
vt 0.071411 0.925659
vt 0.121521 0.965271
vt 0.249390 0.748291
vt 0.121521 0.965271
vt 0.182373 0.988716
vt 0.249390 0.748291
vt 0.182373 0.988716
vt 0.249512 0.996170
vt 0.249390 0.748291
vt 0.249512 0.996170
vt 0.316650 0.988716
vt 0.249390 0.748291
vt 0.316650 0.988716
vt 0.377686 0.965271
vt 0.249390 0.748291
vt 0.377686 0.965271
vt 0.428223 0.926208
vt 0.249390 0.748291
vt 0.428223 0.926208
vt 0.465820 0.874878
vt 0.249390 0.748291
vt 0.465820 0.874878
vt 0.491211 0.815552
vt 0.249390 0.748291
vt 0.491211 0.815552
vt 0.498779 0.749023
vt 0.249390 0.748291
vt 0.498779 0.749023
vt 0.491211 0.682373
vt 0.249390 0.748291
vt 0.491211 0.682373
vt 0.465820 0.622803
vt 0.249390 0.748291
vt 0.465820 0.622803
vt 0.427734 0.572021
vt 0.249390 0.748291
vt 0.377686 0.532471
vt 0.249390 0.748291
vt 0.427734 0.572021
vt 0.316650 0.509033
vt 0.249390 0.748291
vt 0.377686 0.532471
vt 0.316650 0.509033
vt 0.249512 0.501465
vt 0.249390 0.748291
vt 0.527344 0.692871
vt 0.582520 0.661133
vt 0.553711 0.754517
vt 0.551270 0.639404
vt 0.582520 0.661133
vt 0.527344 0.692871
vt 0.551270 0.639404
vt 0.588867 0.592041
vt 0.582520 0.661133
vt 0.588867 0.592041
vt 0.654297 0.589355
vt 0.582520 0.661133
vt 0.636230 0.554443
vt 0.654297 0.589355
vt 0.588867 0.592041
vt 0.636230 0.554443
vt 0.689453 0.530762
vt 0.654297 0.589355
vt 0.689453 0.530762
vt 0.747559 0.560547
vt 0.654297 0.589355
vt 0.517090 0.750000
vt 0.527344 0.692871
vt 0.553711 0.754517
vt 0.527344 0.806885
vt 0.517090 0.750000
vt 0.553711 0.754517
vt 0.527344 0.806885
vt 0.553711 0.754517
vt 0.582520 0.848022
vt 0.551270 0.860352
vt 0.527344 0.806885
vt 0.582520 0.848022
vt 0.588867 0.907715
vt 0.551270 0.860352
vt 0.582520 0.848022
vt 0.588867 0.907715
vt 0.582520 0.848022
vt 0.654297 0.919800
vt 0.636230 0.945404
vt 0.588867 0.907715
vt 0.654297 0.919800
vt 0.654297 0.919800
vt 0.689453 0.969116
vt 0.636230 0.945404
vt 0.689453 0.969116
vt 0.654297 0.919800
vt 0.747559 0.948486
vt 0.746582 0.979401
vt 0.689453 0.969116
vt 0.747559 0.948486
vt 0.803711 0.969116
vt 0.746582 0.979401
vt 0.747559 0.948486
vt 0.803711 0.969116
vt 0.747559 0.948486
vt 0.841309 0.919800
vt 0.856934 0.945404
vt 0.803711 0.969116
vt 0.841309 0.919800
vt 0.856934 0.945404
vt 0.841309 0.919800
vt 0.904297 0.907715
vt 0.904297 0.907715
vt 0.841309 0.919800
vt 0.913086 0.848022
vt 0.942383 0.860352
vt 0.904297 0.907715
vt 0.913086 0.848022
vt 0.942383 0.860352
vt 0.913086 0.848022
vt 0.965820 0.806885
vt 0.965820 0.806885
vt 0.913086 0.848022
vt 0.941895 0.754517
vt 0.976074 0.750000
vt 0.965820 0.806885
vt 0.941895 0.754517
vt 0.976074 0.750000
vt 0.941895 0.754517
vt 0.965820 0.692871
vt 0.965820 0.692871
vt 0.941895 0.754517
vt 0.913086 0.661133
vt 0.942383 0.639404
vt 0.965820 0.692871
vt 0.913086 0.661133
vt 0.942383 0.639404
vt 0.913086 0.661133
vt 0.904297 0.592041
vt 0.904297 0.592041
vt 0.913086 0.661133
vt 0.841309 0.589355
vt 0.856934 0.554443
vt 0.904297 0.592041
vt 0.841309 0.589355
vt 0.856934 0.554443
vt 0.841309 0.589355
vt 0.803711 0.530762
vt 0.803711 0.530762
vt 0.841309 0.589355
vt 0.747559 0.560547
vt 0.746582 0.520264
vt 0.803711 0.530762
vt 0.747559 0.560547
vt 0.689453 0.530762
vt 0.746582 0.520264
vt 0.747559 0.560547
vn 0.050881 0.000000 -0.998043
vn 0.000000 0.000000 -1.000000
vn 0.045010 -0.027397 -0.998043
vn 0.045010 0.027397 -0.998043
vn 0.000000 0.000000 -1.000000
vn 0.050881 0.000000 -0.998043
vn 0.000000 0.000000 -1.000000
vn 0.045010 0.027397 -0.998043
vn 0.027397 0.045010 -0.998043
vn 0.000000 0.050881 -0.998043
vn 0.000000 0.000000 -1.000000
vn 0.027397 0.045010 -0.998043
vn -0.027397 0.045010 -0.998043
vn 0.000000 0.000000 -1.000000
vn 0.000000 0.050881 -0.998043
vn 0.000000 0.000000 -1.000000
vn -0.027397 0.045010 -0.998043
vn -0.045010 0.027397 -0.998043
vn -0.050881 0.000000 -0.998043
vn 0.000000 0.000000 -1.000000
vn -0.045010 0.027397 -0.998043
vn 0.000000 0.000000 -1.000000
vn -0.050881 0.000000 -0.998043
vn -0.045010 -0.027397 -0.998043
vn 0.000000 0.000000 -1.000000
vn -0.045010 -0.027397 -0.998043
vn -0.027397 -0.045010 -0.998043
vn 0.000000 -0.050881 -0.998043
vn 0.000000 0.000000 -1.000000
vn -0.027397 -0.045010 -0.998043
vn 0.027397 -0.045010 -0.998043
vn 0.000000 0.000000 -1.000000
vn 0.000000 -0.050881 -0.998043
vn 0.000000 0.000000 -1.000000
vn 0.027397 -0.045010 -0.998043
vn 0.045010 -0.027397 -0.998043
vn 0.068493 0.068493 0.996086
vn 0.082192 0.050881 0.996086
vn 0.000000 0.000000 1.000000
vn 0.082192 0.050881 0.996086
vn 0.091977 0.027397 0.996086
vn 0.000000 0.000000 1.000000
vn 0.091977 0.027397 0.996086
vn 0.093933 0.000000 0.996086
vn 0.000000 0.000000 1.000000
vn 0.093933 0.000000 0.996086
vn 0.091977 -0.027397 0.996086
vn 0.000000 0.000000 1.000000
vn 0.091977 -0.027397 0.996086
vn 0.082192 -0.050881 0.996086
vn 0.000000 0.000000 1.000000
vn 0.082192 -0.050881 0.996086
vn 0.068493 -0.068493 0.996086
vn 0.000000 0.000000 1.000000
vn 0.068493 -0.068493 0.996086
vn 0.050881 -0.082192 0.996086
vn 0.000000 0.000000 1.000000
vn 0.050881 -0.082192 0.996086
vn 0.027397 -0.091977 0.996086
vn 0.000000 0.000000 1.000000
vn 0.027397 -0.091977 0.996086
vn 0.000000 -0.093933 0.996086
vn 0.000000 0.000000 1.000000
vn 0.000000 -0.093933 0.996086
vn -0.027397 -0.091977 0.996086
vn 0.000000 0.000000 1.000000
vn -0.027397 -0.091977 0.996086
vn -0.050881 -0.082192 0.996086
vn 0.000000 0.000000 1.000000
vn -0.050881 -0.082192 0.996086
vn -0.068493 -0.068493 0.996086
vn 0.000000 0.000000 1.000000
vn -0.068493 -0.068493 0.996086
vn -0.082192 -0.050881 0.996086
vn 0.000000 0.000000 1.000000
vn -0.082192 -0.050881 0.996086
vn -0.091977 -0.027397 0.996086
vn 0.000000 0.000000 1.000000
vn -0.091977 -0.027397 0.996086
vn -0.093933 0.000000 0.996086
vn 0.000000 0.000000 1.000000
vn -0.093933 0.000000 0.996086
vn -0.091977 0.027397 0.996086
vn 0.000000 0.000000 1.000000
vn -0.091977 0.027397 0.996086
vn -0.082192 0.050881 0.996086
vn 0.000000 0.000000 1.000000
vn -0.082192 0.050881 0.996086
vn -0.068493 0.068493 0.996086
vn 0.000000 0.000000 1.000000
vn -0.068493 0.068493 0.996086
vn -0.050881 0.082192 0.996086
vn 0.000000 0.000000 1.000000
vn -0.050881 0.082192 0.996086
vn -0.027397 0.091977 0.996086
vn 0.000000 0.000000 1.000000
vn -0.027397 0.091977 0.996086
vn 0.000000 0.093933 0.996086
vn 0.000000 0.000000 1.000000
vn 0.027397 0.091977 0.996086
vn 0.000000 0.000000 1.000000
vn 0.000000 0.093933 0.996086
vn 0.050881 0.082192 0.996086
vn 0.000000 0.000000 1.000000
vn 0.027397 0.091977 0.996086
vn 0.050881 0.082192 0.996086
vn 0.068493 0.068493 0.996086
vn 0.000000 0.000000 1.000000
vn -0.117417 0.385519 -0.915851
vn -0.123288 0.205479 -0.970646
vn 0.000000 0.234834 -0.972603
vn -0.244618 0.401174 -0.882583
vn -0.123288 0.205479 -0.970646
vn -0.117417 0.385519 -0.915851
vn -0.244618 0.401174 -0.882583
vn -0.287671 0.287671 -0.913894
vn -0.123288 0.205479 -0.970646
vn -0.287671 0.287671 -0.913894
vn -0.205479 0.123288 -0.970646
vn -0.123288 0.205479 -0.970646
vn -0.401174 0.244618 -0.882583
vn -0.205479 0.123288 -0.970646
vn -0.287671 0.287671 -0.913894
vn -0.401174 0.244618 -0.882583
vn -0.385519 0.117417 -0.915851
vn -0.205479 0.123288 -0.970646
vn -0.385519 0.117417 -0.915851
vn -0.234834 0.000000 -0.972603
vn -0.205479 0.123288 -0.970646
vn 0.000000 0.463796 -0.886497
vn -0.117417 0.385519 -0.915851
vn 0.000000 0.234834 -0.972603
vn 0.117417 0.385519 -0.915851
vn 0.000000 0.463796 -0.886497
vn 0.000000 0.234834 -0.972603
vn 0.117417 0.385519 -0.915851
vn 0.000000 0.234834 -0.972603
vn 0.123288 0.205479 -0.970646
vn 0.244618 0.401174 -0.882583
vn 0.117417 0.385519 -0.915851
vn 0.123288 0.205479 -0.970646
vn 0.287671 0.287671 -0.913894
vn 0.244618 0.401174 -0.882583
vn 0.123288 0.205479 -0.970646
vn 0.287671 0.287671 -0.913894
vn 0.123288 0.205479 -0.970646
vn 0.205479 0.123288 -0.970646
vn 0.401174 0.244618 -0.882583
vn 0.287671 0.287671 -0.913894
vn 0.205479 0.123288 -0.970646
vn 0.205479 0.123288 -0.970646
vn 0.385519 0.117417 -0.915851
vn 0.401174 0.244618 -0.882583
vn 0.385519 0.117417 -0.915851
vn 0.205479 0.123288 -0.970646
vn 0.234834 0.000000 -0.972603
vn 0.463796 0.000000 -0.886497
vn 0.385519 0.117417 -0.915851
vn 0.234834 0.000000 -0.972603
vn 0.385519 -0.117417 -0.915851
vn 0.463796 0.000000 -0.886497
vn 0.234834 0.000000 -0.972603
vn 0.385519 -0.117417 -0.915851
vn 0.234834 0.000000 -0.972603
vn 0.205479 -0.123288 -0.970646
vn 0.401174 -0.244618 -0.882583
vn 0.385519 -0.117417 -0.915851
vn 0.205479 -0.123288 -0.970646
vn 0.401174 -0.244618 -0.882583
vn 0.205479 -0.123288 -0.970646
vn 0.287671 -0.287671 -0.913894
vn 0.287671 -0.287671 -0.913894
vn 0.205479 -0.123288 -0.970646
vn 0.123288 -0.205479 -0.970646
vn 0.244618 -0.401174 -0.882583
vn 0.287671 -0.287671 -0.913894
vn 0.123288 -0.205479 -0.970646
vn 0.244618 -0.401174 -0.882583
vn 0.123288 -0.205479 -0.970646
vn 0.117417 -0.385519 -0.915851
vn 0.117417 -0.385519 -0.915851
vn 0.123288 -0.205479 -0.970646
vn 0.000000 -0.234834 -0.972603
vn 0.000000 -0.463796 -0.886497
vn 0.117417 -0.385519 -0.915851
vn 0.000000 -0.234834 -0.972603
vn 0.000000 -0.463796 -0.886497
vn 0.000000 -0.234834 -0.972603
vn -0.117417 -0.385519 -0.915851
vn -0.117417 -0.385519 -0.915851
vn 0.000000 -0.234834 -0.972603
vn -0.123288 -0.205479 -0.970646
vn -0.244618 -0.401174 -0.882583
vn -0.117417 -0.385519 -0.915851
vn -0.123288 -0.205479 -0.970646
vn -0.244618 -0.401174 -0.882583
vn -0.123288 -0.205479 -0.970646
vn -0.287671 -0.287671 -0.913894
vn -0.287671 -0.287671 -0.913894
vn -0.123288 -0.205479 -0.970646
vn -0.205479 -0.123288 -0.970646
vn -0.401174 -0.244618 -0.882583
vn -0.287671 -0.287671 -0.913894
vn -0.205479 -0.123288 -0.970646
vn -0.401174 -0.244618 -0.882583
vn -0.205479 -0.123288 -0.970646
vn -0.385519 -0.117417 -0.915851
vn -0.385519 -0.117417 -0.915851
vn -0.205479 -0.123288 -0.970646
vn -0.234834 0.000000 -0.972603
vn -0.463796 0.000000 -0.886497
vn -0.385519 -0.117417 -0.915851
vn -0.234834 0.000000 -0.972603
vn -0.385519 0.117417 -0.915851
vn -0.463796 0.000000 -0.886497
vn -0.234834 0.000000 -0.972603
mtllib mtl_p_us_restaurant_plate.mtl
g mtl_p_us_restaurant_plate
usemtl mtl_p_us_restaurant_plate
f 3/3/3 2/2/2 1/1/1
f 6/6/6 5/5/5 4/4/4
f 9/9/9 8/8/8 7/7/7
f 12/12/12 11/11/11 10/10/10
f 15/15/15 14/14/14 13/13/13
f 18/18/18 17/17/17 16/16/16
f 21/21/21 20/20/20 19/19/19
f 24/24/24 23/23/23 22/22/22
f 27/27/27 26/26/26 25/25/25
f 30/30/30 29/29/29 28/28/28
f 33/33/33 32/32/32 31/31/31
f 36/36/36 35/35/35 34/34/34
f 39/39/39 38/38/38 37/37/37
f 42/42/42 41/41/41 40/40/40
f 45/45/45 44/44/44 43/43/43
f 48/48/48 47/47/47 46/46/46
f 51/51/51 50/50/50 49/49/49
f 54/54/54 53/53/53 52/52/52
f 57/57/57 56/56/56 55/55/55
f 60/60/60 59/59/59 58/58/58
f 63/63/63 62/62/62 61/61/61
f 66/66/66 65/65/65 64/64/64
f 69/69/69 68/68/68 67/67/67
f 72/72/72 71/71/71 70/70/70
f 75/75/75 74/74/74 73/73/73
f 78/78/78 77/77/77 76/76/76
f 81/81/81 80/80/80 79/79/79
f 84/84/84 83/83/83 82/82/82
f 87/87/87 86/86/86 85/85/85
f 90/90/90 89/89/89 88/88/88
f 93/93/93 92/92/92 91/91/91
f 96/96/96 95/95/95 94/94/94
f 99/99/99 98/98/98 97/97/97
f 102/102/102 101/101/101 100/100/100
f 105/105/105 104/104/104 103/103/103
f 108/108/108 107/107/107 106/106/106
f 111/111/111 110/110/110 109/109/109
f 114/114/114 113/113/113 112/112/112
f 117/117/117 116/116/116 115/115/115
f 120/120/120 119/119/119 118/118/118
f 123/123/123 122/122/122 121/121/121
f 126/126/126 125/125/125 124/124/124
f 129/129/129 128/128/128 127/127/127
f 132/132/132 131/131/131 130/130/130
f 135/135/135 134/134/134 133/133/133
f 138/138/138 137/137/137 136/136/136
f 141/141/141 140/140/140 139/139/139
f 144/144/144 143/143/143 142/142/142
f 147/147/147 146/146/146 145/145/145
f 150/150/150 149/149/149 148/148/148
f 153/153/153 152/152/152 151/151/151
f 156/156/156 155/155/155 154/154/154
f 159/159/159 158/158/158 157/157/157
f 162/162/162 161/161/161 160/160/160
f 165/165/165 164/164/164 163/163/163
f 168/168/168 167/167/167 166/166/166
f 171/171/171 170/170/170 169/169/169
f 174/174/174 173/173/173 172/172/172
f 177/177/177 176/176/176 175/175/175
f 180/180/180 179/179/179 178/178/178
f 183/183/183 182/182/182 181/181/181
f 186/186/186 185/185/185 184/184/184
f 189/189/189 188/188/188 187/187/187
f 192/192/192 191/191/191 190/190/190
f 195/195/195 194/194/194 193/193/193
f 198/198/198 197/197/197 196/196/196
f 201/201/201 200/200/200 199/199/199
f 204/204/204 203/203/203 202/202/202
f 207/207/207 206/206/206 205/205/205
f 210/210/210 209/209/209 208/208/208
f 213/213/213 212/212/212 211/211/211
f 216/216/216 215/215/215 214/214/214
