# Generated by Wraith - Game extraction tools
# Please credit DTZxPorter for using it!

v -6.908617 2.857083 12.649467
v 5.113340 5.071217 12.511026
v 2.251090 -6.606111 12.898416
v 3.610709 2.291250 -12.651267
v -4.229905 1.895874 -12.651267
v 1.667071 -3.690691 -12.651267
v 2.251090 -6.606111 12.898416
v 5.113340 5.071217 12.511026
v 1.667071 -3.690691 -12.651267
v 3.610709 2.291250 -12.651267
v 1.667071 -3.690691 -12.651267
v 5.113340 5.071217 12.511026
v 2.251090 -6.606111 12.898416
v 1.667071 -3.690691 -12.651267
v -6.908617 2.857083 12.649467
v -4.229905 1.895874 -12.651267
v -6.908617 2.857083 12.649467
v 1.667071 -3.690691 -12.651267
v -6.908617 2.857083 12.649467
v -4.229905 1.895874 -12.651267
v 5.113340 5.071217 12.511026
v 3.610709 2.291250 -12.651267
v 5.113340 5.071217 12.511026
v -4.229905 1.895874 -12.651267
vt 0.417480 0.902588
vt 0.256592 0.850342
vt 0.256592 0.954865
vt 0.445313 0.913696
vt 0.677734 0.840820
vt 0.700195 0.886658
vt 0.409180 0.618164
vt 0.596680 0.618164
vt 0.424072 0.018555
vt 0.583496 0.018555
vt 0.424072 0.018555
vt 0.596680 0.618164
vt 0.409180 0.618164
vt 0.424072 0.018555
vt 0.035858 0.618164
vt 0.106323 0.018555
vt 0.035858 0.618164
vt 0.424072 0.018555
vt 0.971191 0.618164
vt 0.901367 0.018555
vt 0.596680 0.618164
vt 0.583496 0.018555
vt 0.596680 0.618164
vt 0.901367 0.018555
vn 0.005871 0.031311 1.000000
vn 0.005871 0.031311 1.000000
vn 0.005871 0.031311 1.000000
vn 0.000000 0.000000 -1.000000
vn 0.000000 0.000000 -1.000000
vn 0.000000 0.000000 -1.000000
vn 0.964775 -0.262231 -0.041096
vn 0.964775 -0.262231 -0.041096
vn 0.964775 -0.262231 -0.041096
vn 0.964775 -0.262231 -0.041096
vn 0.964775 -0.262231 -0.041096
vn 0.964775 -0.262231 -0.041096
vn -0.704501 -0.706458 -0.056751
vn -0.704501 -0.706458 -0.056751
vn -0.704501 -0.706458 -0.056751
vn -0.704501 -0.706458 -0.056751
vn -0.704501 -0.706458 -0.056751
vn -0.704501 -0.706458 -0.056751
vn -0.131115 0.988258 -0.076321
vn -0.131115 0.988258 -0.076321
vn -0.131115 0.988258 -0.076321
vn -0.131115 0.988258 -0.076321
vn -0.131115 0.988258 -0.076321
vn -0.131115 0.988258 -0.076321
mtllib mtl_pocorn_cup.mtl
g mtl_pocorn_cup
usemtl mtl_pocorn_cup
f 3/3/3 2/2/2 1/1/1
f 6/6/6 5/5/5 4/4/4
f 9/9/9 8/8/8 7/7/7
f 12/12/12 11/11/11 10/10/10
f 15/15/15 14/14/14 13/13/13
f 18/18/18 17/17/17 16/16/16
f 21/21/21 20/20/20 19/19/19
f 24/24/24 23/23/23 22/22/22
