# Generated by Wraith - Game extraction tools
# Please credit DTZxPorter for using it!

v -76.775261 -11.469756 9.395468
v -76.775261 -0.120508 -13.300339
v -76.775261 11.225154 9.393674
v 64.398178 11.595133 9.763659
v -76.775261 11.225154 9.393674
v -76.775261 -0.120508 -13.300339
v 64.398178 -0.120480 -13.670341
v 64.398178 11.595133 9.763659
v -76.775261 -0.120508 -13.300339
v 87.306786 2.159224 3.788227
v 64.398178 11.595133 9.763659
v 64.398178 -0.120480 -13.670341
v 64.398178 11.595133 9.763659
v -76.775261 -11.469756 9.395468
v -76.775261 11.225154 9.393674
v 64.398178 -11.839793 9.765505
v -76.775261 -11.469756 9.395468
v 64.398178 11.595133 9.763659
v 87.306786 2.159224 3.788227
v 64.398178 -11.839793 9.765505
v 64.398178 11.595133 9.763659
v 64.398178 -11.839793 9.765505
v -76.775261 -0.120508 -13.300339
v -76.775261 -11.469756 9.395468
v 64.398178 -0.120480 -13.670341
v -76.775261 -0.120508 -13.300339
v 64.398178 -11.839793 9.765505
v 87.306786 2.159224 3.788227
v 64.398178 -0.120480 -13.670341
v 64.398178 -11.839793 9.765505
vt 0.774902 0.357422
vt 0.937012 0.238770
vt 0.774902 0.120605
vt 0.174683 0.250488
vt 0.719238 0.250488
vt 0.719238 0.000488
vt 0.174683 0.000488
vt 0.174683 0.250488
vt 0.719238 0.000488
vt 0.038055 0.402344
vt 0.174683 0.250488
vt 0.174683 0.000488
vt 0.174683 0.250488
vt 0.719238 0.500488
vt 0.719238 0.250488
vt 0.174683 0.500488
vt 0.719238 0.500488
vt 0.174683 0.250488
vt 0.038055 0.402344
vt 0.174683 0.500488
vt 0.174683 0.250488
vt 0.174683 0.500488
vt 0.719238 0.875488
vt 0.719238 0.500488
vt 0.174683 0.875488
vt 0.719238 0.875488
vt 0.174683 0.500488
vt 0.038055 0.402344
vt 0.174683 0.875488
vt 0.174683 0.500488
vn -0.690802 -0.614481 0.379648
vn -0.745597 0.000000 -0.665362
vn -0.690802 0.614481 0.379648
vn 0.230920 0.827789 0.510763
vn -0.690802 0.614481 0.379648
vn -0.745597 0.000000 -0.665362
vn 0.344423 0.025440 -0.939335
vn 0.230920 0.827789 0.510763
vn -0.745597 0.000000 -0.665362
vn 0.990215 0.050881 0.136986
vn 0.230920 0.827789 0.510763
vn 0.344423 0.025440 -0.939335
vn 0.230920 0.827789 0.510763
vn -0.690802 -0.614481 0.379648
vn -0.690802 0.614481 0.379648
vn 0.301370 -0.800391 0.518591
vn -0.690802 -0.614481 0.379648
vn 0.230920 0.827789 0.510763
vn 0.990215 0.050881 0.136986
vn 0.301370 -0.800391 0.518591
vn 0.230920 0.827789 0.510763
vn 0.301370 -0.800391 0.518591
vn -0.745597 0.000000 -0.665362
vn -0.690802 -0.614481 0.379648
vn 0.344423 0.025440 -0.939335
vn -0.745597 0.000000 -0.665362
vn 0.301370 -0.800391 0.518591
vn 0.990215 0.050881 0.136986
vn 0.344423 0.025440 -0.939335
vn 0.301370 -0.800391 0.518591
mtllib mtl_hellfire_missile.mtl
g mtl_hellfire_missile
usemtl mtl_hellfire_missile
f 3/3/3 2/2/2 1/1/1
f 6/6/6 5/5/5 4/4/4
f 9/9/9 8/8/8 7/7/7
f 12/12/12 11/11/11 10/10/10
f 15/15/15 14/14/14 13/13/13
f 18/18/18 17/17/17 16/16/16
f 21/21/21 20/20/20 19/19/19
f 24/24/24 23/23/23 22/22/22
f 27/27/27 26/26/26 25/25/25
f 30/30/30 29/29/29 28/28/28
