# Generated by Wraith - Game extraction tools
# Please credit DTZxPorter for using it!

v -2.524341 -2.586812 1.972960
v 3.322386 -2.586812 1.972960
v 3.658743 -2.586812 1.434112
v 2.685618 -1.779872 2.657894
v 2.685618 1.779875 2.657894
v 5.657547 -1.779872 2.653983
v 2.685618 1.779875 2.657894
v 5.657547 1.779875 2.653983
v 5.657547 -1.779872 2.653983
v 5.657547 -1.779872 2.653983
v 5.657547 1.779875 2.653983
v 5.657547 -1.779872 0.700098
v 5.657547 1.779875 2.653983
v 5.657547 1.779875 0.700098
v 5.657547 -1.779872 0.700098
v 5.657547 1.779875 0.700098
v 2.685618 1.779875 0.701462
v 5.657547 -1.779872 0.700098
v 2.685618 1.779875 0.701462
v 2.685618 -1.779872 0.701462
v 5.657547 -1.779872 0.700098
v 5.657547 -1.779872 0.700098
v 2.685618 -1.779872 0.701462
v 5.657547 -1.779872 2.653983
v 2.685618 -1.779872 0.701462
v 2.685618 -1.779872 2.657894
v 5.657547 -1.779872 2.653983
v 5.657547 1.779875 0.700098
v 5.657547 1.779875 2.653983
v 2.685618 1.779875 0.701462
v 5.657547 1.779875 2.653983
v 2.685618 1.779875 2.657894
v 2.685618 1.779875 0.701462
v 3.693701 2.353488 0.805177
v 3.693701 -2.586812 1.061832
v 3.658743 2.353488 1.434112
v 3.693701 -2.586812 1.061832
v 3.658743 -2.586812 1.434112
v 3.658743 2.353488 1.434112
v -2.526665 -1.871622 0.455806
v -2.525994 -2.586812 1.061832
v 3.528378 -1.871622 0.455806
v -2.525994 -2.586812 1.061832
v 3.693701 -2.586812 1.061832
v 3.528378 -1.871622 0.455806
v 3.693701 -2.586812 1.061832
v -2.525994 -2.586812 1.061832
v 3.658743 -2.586812 1.434112
v -2.525994 -2.586812 1.061832
v -2.524341 -2.586812 1.972960
v 3.658743 -2.586812 1.434112
v 3.693701 2.353488 0.805177
v 3.528378 1.496001 0.455806
v 3.693701 -2.586812 1.061832
v 3.528378 1.496001 0.455806
v 3.528378 -1.871622 0.455806
v 3.693701 -2.586812 1.061832
v -2.526665 -1.871622 0.455806
v 3.528378 -1.871622 0.455806
v 3.528378 1.496001 0.455806
v -2.526665 1.496001 0.455806
v -2.526665 -1.871622 0.455806
v 3.528378 1.496001 0.455806
v -2.526665 1.496001 0.455806
v 3.528378 1.496001 0.455806
v -2.526665 2.353488 0.805177
v 3.528378 1.496001 0.455806
v 3.693701 2.353488 0.805177
v -2.526665 2.353488 0.805177
v 1.068161 -1.786578 5.601569
v -1.922595 -1.786578 5.601348
v 1.068161 1.481181 5.601569
v -1.922595 -1.786578 5.601348
v -1.922595 1.481181 5.601348
v 1.068161 1.481181 5.601569
v 3.658743 -2.586812 1.434112
v 3.322386 -2.586812 1.972960
v 3.658743 2.353488 1.434112
v 3.658743 2.353488 1.434112
v 3.322386 -2.586812 1.972960
v 2.896923 2.336216 2.654971
v 3.322386 -2.586812 1.972960
v 2.896931 -1.848696 2.654971
v 2.896923 2.336216 2.654971
v -2.525994 -2.586812 1.061832
v -2.526665 -1.871622 0.455806
v -2.524341 -2.586812 1.972960
v -2.526665 -1.871622 0.455806
v -2.525989 -1.848696 2.654749
v -2.524341 -2.586812 1.972960
v -2.526665 -1.871622 0.455806
v -2.526665 1.496001 0.455806
v -2.525989 -1.848696 2.654749
v -2.525989 -1.848696 2.654749
v -2.526665 1.496001 0.455806
v -2.526665 2.353488 0.805177
v -2.525672 2.336216 2.654749
v -2.525989 -1.848696 2.654749
v -2.526665 2.353488 0.805177
v -2.525989 -1.848696 2.654749
v -2.525672 2.336216 2.654749
v -1.592727 1.828759 4.408619
v -1.592727 -1.815871 4.408619
v -2.525989 -1.848696 2.654749
v -1.592727 1.828759 4.408619
v -1.592727 -1.815871 4.408619
v -1.592727 1.828759 4.408619
v -1.922595 1.481181 5.601348
v -1.922595 -1.786578 5.601348
v -1.592727 -1.815871 4.408619
v -1.922595 1.481181 5.601348
v 2.896923 2.336216 2.654971
v 2.896931 -1.848696 2.654971
v 1.068161 1.481181 5.601569
v 2.896931 -1.848696 2.654971
v 1.068161 -1.786578 5.601569
v 1.068161 1.481181 5.601569
v 2.896931 -1.848696 2.654971
v 3.322386 -2.586812 1.972960
v -2.524341 -2.586812 1.972960
v -2.525989 -1.848696 2.654749
v 2.896931 -1.848696 2.654971
v -2.524341 -2.586812 1.972960
v 2.896931 -1.848696 2.654971
v -2.525989 -1.848696 2.654749
v -1.592727 -1.815871 4.408619
v 1.068161 -1.786578 5.601569
v 2.896931 -1.848696 2.654971
v -1.592727 -1.815871 4.408619
v -1.592727 -1.815871 4.408619
v -1.922595 -1.786578 5.601348
v 1.068161 -1.786578 5.601569
v 3.693701 2.353488 0.805177
v 3.658743 2.353488 1.434112
v -2.526665 2.353488 0.805177
v -2.526665 2.353488 0.805177
v 3.658743 2.353488 1.434112
v -2.525672 2.336216 2.654749
v 3.658743 2.353488 1.434112
v 2.896923 2.336216 2.654971
v -2.525672 2.336216 2.654749
v -1.592727 1.828759 4.408619
v -2.525672 2.336216 2.654749
v 2.896923 2.336216 2.654971
v 2.896923 2.336216 2.654971
v 1.068161 1.481181 5.601569
v -1.592727 1.828759 4.408619
v 1.068161 1.481181 5.601569
v -1.922595 1.481181 5.601348
v -1.592727 1.828759 4.408619
vt 0.994629 0.886719
vt 0.662109 0.886719
vt 0.643066 0.918152
vt 0.678223 0.762085
vt 0.678223 0.587158
vt 0.534180 0.762085
vt 0.678223 0.587158
vt 0.534180 0.587158
vt 0.534180 0.762085
vt 0.534180 0.762085
vt 0.534180 0.587158
vt 0.490234 0.762085
vt 0.534180 0.587158
vt 0.490234 0.587158
vt 0.490234 0.762085
vt 0.273926 0.489258
vt 0.273926 0.606934
vt 0.398193 0.501465
vt 0.273926 0.606934
vt 0.398193 0.606934
vt 0.398193 0.501465
vt 0.673828 0.770264
vt 0.498047 0.770264
vt 0.672852 0.890747
vt 0.498047 0.770264
vt 0.498047 0.891541
vt 0.672852 0.890747
vt 0.656738 0.329590
vt 0.491699 0.330566
vt 0.656738 0.578125
vt 0.491699 0.330566
vt 0.491211 0.578125
vt 0.656738 0.578125
vt 0.148438 0.447754
vt 0.150635 0.679443
vt 0.177368 0.447754
vt 0.150635 0.679443
vt 0.174561 0.679443
vt 0.177368 0.447754
vt 0.994629 0.992752
vt 0.994629 0.940002
vt 0.645996 0.992752
vt 0.994629 0.940002
vt 0.639648 0.940002
vt 0.645996 0.992752
vt 0.641113 0.939972
vt 0.994629 0.940002
vt 0.643066 0.918213
vt 0.994629 0.940002
vt 0.994629 0.886719
vt 0.643066 0.918213
vt 0.141357 0.447754
vt 0.115540 0.461426
vt 0.155518 0.682129
vt 0.115540 0.461426
vt 0.125366 0.628174
vt 0.155518 0.682129
vt 0.728516 0.750854
vt 0.726563 0.685547
vt 0.691895 0.685547
vt 0.691895 0.750854
vt 0.728516 0.750854
vt 0.691895 0.685547
vt 0.691895 0.750854
vt 0.691895 0.685547
vt 0.684082 0.750854
vt 0.691895 0.685547
vt 0.683594 0.685547
vt 0.684082 0.750854
vt 0.700195 0.630127
vt 0.944824 0.630127
vt 0.697754 0.428711
vt 0.944824 0.630127
vt 0.943359 0.426270
vt 0.697754 0.428711
vt 0.169434 0.679443
vt 0.201904 0.679443
vt 0.169678 0.431641
vt 0.169678 0.431641
vt 0.201904 0.679443
vt 0.244141 0.416504
vt 0.201904 0.679443
vt 0.244141 0.639893
vt 0.244141 0.416504
vt 0.556641 0.191895
vt 0.476074 0.123047
vt 0.556152 0.290039
vt 0.476074 0.123047
vt 0.476074 0.367676
vt 0.556152 0.290039
vt 0.476074 0.123047
vt 0.105652 0.123047
vt 0.476074 0.367676
vt 0.476074 0.367676
vt 0.105652 0.123047
vt 0.013977 0.161621
vt 0.013977 0.366699
vt 0.476074 0.367676
vt 0.013977 0.161621
vt 0.476074 0.367676
vt 0.013977 0.366699
vt 0.069153 0.591797
vt 0.471680 0.592285
vt 0.476074 0.367676
vt 0.069153 0.591797
vt 0.471680 0.592285
vt 0.069153 0.591797
vt 0.106079 0.725830
vt 0.467773 0.726074
vt 0.471680 0.592285
vt 0.106079 0.725830
vt 0.265137 0.416504
vt 0.265137 0.639404
vt 0.428711 0.461426
vt 0.265137 0.639404
vt 0.428711 0.636230
vt 0.428711 0.461426
vt 0.686523 0.828857
vt 0.662109 0.886719
vt 0.994629 0.886719
vt 0.994629 0.828857
vt 0.686523 0.828857
vt 0.994629 0.886719
vt 0.686523 0.828857
vt 0.994629 0.828857
vt 0.944824 0.729736
vt 0.795410 0.661865
vt 0.686523 0.828857
vt 0.944824 0.729736
vt 0.944824 0.729736
vt 0.967285 0.663330
vt 0.795410 0.661865
vt 0.488525 0.004395
vt 0.490479 0.060547
vt 0.996582 0.004395
vt 0.996582 0.004395
vt 0.490479 0.060547
vt 0.992676 0.160645
vt 0.490479 0.060547
vt 0.552734 0.160156
vt 0.992676 0.160645
vt 0.916504 0.323730
vt 0.992676 0.160645
vt 0.552734 0.160156
vt 0.552734 0.160156
vt 0.697754 0.428711
vt 0.916504 0.323730
vt 0.697754 0.428711
vt 0.943359 0.426270
vt 0.916504 0.323730
vn 0.000000 -1.000000 0.000000
vn 0.000000 -1.000000 0.000000
vn 0.000000 -1.000000 0.000000
vn 0.001957 0.000000 1.000000
vn 0.001957 0.000000 1.000000
vn 0.708415 0.000000 0.706458
vn 0.001957 0.000000 1.000000
vn 0.708415 0.000000 0.706458
vn 0.708415 0.000000 0.706458
vn 0.708415 0.000000 0.706458
vn 0.708415 0.000000 0.706458
vn 0.706458 0.000000 -0.706458
vn 0.708415 0.000000 0.706458
vn 0.706458 0.000000 -0.706458
vn 0.706458 0.000000 -0.706458
vn 0.706458 0.000000 -0.706458
vn 0.000000 0.000000 -1.000000
vn 0.706458 0.000000 -0.706458
vn 0.000000 0.000000 -1.000000
vn 0.000000 0.000000 -1.000000
vn 0.706458 0.000000 -0.706458
vn 0.998043 0.000000 -0.066536
vn 0.000000 0.000000 -1.000000
vn 0.868885 0.000000 0.493151
vn 0.000000 0.000000 -1.000000
vn 0.000000 0.000000 1.000000
vn 0.868885 0.000000 0.493151
vn 0.757339 0.000000 -0.653620
vn 0.868885 0.000000 0.493151
vn 0.000000 0.000000 -1.000000
vn 0.868885 0.000000 0.493151
vn 0.000000 0.000000 1.000000
vn 0.000000 0.000000 -1.000000
vn 0.992172 -0.003914 -0.131115
vn 0.992172 -0.003914 -0.131115
vn 0.951076 0.000000 0.309198
vn 0.992172 -0.003914 -0.131115
vn 0.951076 0.000000 0.309198
vn 0.951076 0.000000 0.309198
vn 0.000000 -0.344423 -0.939335
vn 0.000000 -0.645793 -0.763209
vn 0.000000 -0.344423 -0.939335
vn 0.000000 -0.645793 -0.763209
vn 0.000000 -0.645793 -0.763209
vn 0.000000 -0.344423 -0.939335
vn 0.000000 -1.000000 0.000000
vn 0.000000 -1.000000 0.000000
vn 0.000000 -1.000000 0.000000
vn 0.000000 -1.000000 0.000000
vn 0.000000 -1.000000 0.000000
vn 0.000000 -1.000000 0.000000
vn 0.992172 -0.003914 -0.131115
vn 0.945205 -0.009785 -0.324853
vn 0.992172 -0.003914 -0.131115
vn 0.945205 -0.009785 -0.324853
vn 0.945205 -0.009785 -0.324853
vn 0.992172 -0.003914 -0.131115
vn 0.000000 -0.344423 -0.939335
vn 0.000000 -0.344423 -0.939335
vn 0.000000 0.191781 -0.980431
vn 0.000000 0.191781 -0.980431
vn 0.000000 -0.344423 -0.939335
vn 0.000000 0.191781 -0.980431
vn 0.000000 0.191781 -0.980431
vn 0.000000 0.191781 -0.980431
vn 0.000000 0.377691 -0.925636
vn 0.000000 0.191781 -0.980431
vn 0.000000 0.377691 -0.925636
vn 0.000000 0.377691 -0.925636
vn 0.000000 -0.886497 0.463796
vn 0.000000 -0.698630 0.716243
vn 0.000000 0.776908 0.630137
vn 0.000000 -0.698630 0.716243
vn 0.000000 0.600783 0.800391
vn 0.000000 0.776908 0.630137
vn 0.951076 0.000000 0.309198
vn 0.849315 0.000000 0.530333
vn 0.951076 0.000000 0.309198
vn 0.951076 0.000000 0.309198
vn 0.849315 0.000000 0.530333
vn 0.849315 0.000000 0.528376
vn 0.849315 0.000000 0.530333
vn 0.849315 0.000000 0.528376
vn 0.849315 0.000000 0.528376
vn -1.000000 -0.001957 0.000000
vn -1.000000 0.000000 0.000000
vn -1.000000 -0.001957 0.000000
vn -1.000000 0.000000 0.000000
vn -0.986301 0.000000 0.160470
vn -1.000000 -0.001957 0.000000
vn -1.000000 0.000000 0.000000
vn -1.000000 0.000000 0.000000
vn -0.986301 0.000000 0.160470
vn -0.986301 0.000000 0.160470
vn -1.000000 0.000000 0.000000
vn -1.000000 0.000000 0.000000
vn -0.970646 0.000000 0.242661
vn -0.986301 0.000000 0.160470
vn -1.000000 0.000000 0.000000
vn -0.986301 0.000000 0.160470
vn -0.970646 0.000000 0.242661
vn -0.994129 0.000000 0.109589
vn -0.994129 0.000000 0.109589
vn -0.986301 0.000000 0.160470
vn -0.994129 0.000000 0.109589
vn -0.994129 0.000000 0.109589
vn -0.994129 0.000000 0.109589
vn -0.964775 0.000000 -0.266145
vn -0.964775 0.000000 -0.266145
vn -0.994129 0.000000 0.109589
vn -0.964775 0.000000 -0.266145
vn 0.849315 0.000000 0.528376
vn 0.849315 0.000000 0.528376
vn 0.849315 0.000000 0.526419
vn 0.849315 0.000000 0.528376
vn 0.849315 0.000000 0.526419
vn 0.849315 0.000000 0.526419
vn 0.000000 -0.960861 0.277887
vn 0.000000 -0.679061 0.733855
vn 0.000000 -0.679061 0.733855
vn 0.000000 -0.911937 0.409002
vn 0.000000 -0.960861 0.277887
vn 0.000000 -0.679061 0.733855
vn 0.000000 -0.960861 0.277887
vn 0.000000 -0.911937 0.409002
vn 0.000000 -1.000000 0.021526
vn 0.000000 -0.886497 0.463796
vn 0.000000 -0.960861 0.277887
vn 0.000000 -1.000000 0.021526
vn 0.000000 -1.000000 0.021526
vn 0.000000 -0.698630 0.716243
vn 0.000000 -0.886497 0.463796
vn 0.000000 1.000000 0.009785
vn 0.000000 1.000000 0.009785
vn 0.000000 1.000000 0.009785
vn 0.000000 1.000000 0.009785
vn 0.000000 1.000000 0.009785
vn 0.000000 0.990215 0.144814
vn 0.000000 1.000000 0.009785
vn 0.000000 0.982387 0.189824
vn 0.000000 0.990215 0.144814
vn 0.000000 0.960861 0.279843
vn 0.000000 0.990215 0.144814
vn 0.000000 0.982387 0.189824
vn 0.000000 0.982387 0.189824
vn 0.000000 0.776908 0.630137
vn 0.000000 0.960861 0.279843
vn 0.000000 0.776908 0.630137
vn 0.000000 0.600783 0.800391
vn 0.000000 0.960861 0.279843
mtllib mtl_t6_attach_optic_holo.mtl
g mtl_t6_attach_optic_holo
usemtl mtl_t6_attach_optic_holo
f 3/3/3 2/2/2 1/1/1
f 6/6/6 5/5/5 4/4/4
f 9/9/9 8/8/8 7/7/7
f 12/12/12 11/11/11 10/10/10
f 15/15/15 14/14/14 13/13/13
f 18/18/18 17/17/17 16/16/16
f 21/21/21 20/20/20 19/19/19
f 24/24/24 23/23/23 22/22/22
f 27/27/27 26/26/26 25/25/25
f 30/30/30 29/29/29 28/28/28
f 33/33/33 32/32/32 31/31/31
f 36/36/36 35/35/35 34/34/34
f 39/39/39 38/38/38 37/37/37
f 42/42/42 41/41/41 40/40/40
f 45/45/45 44/44/44 43/43/43
f 48/48/48 47/47/47 46/46/46
f 51/51/51 50/50/50 49/49/49
f 54/54/54 53/53/53 52/52/52
f 57/57/57 56/56/56 55/55/55
f 60/60/60 59/59/59 58/58/58
f 63/63/63 62/62/62 61/61/61
f 66/66/66 65/65/65 64/64/64
f 69/69/69 68/68/68 67/67/67
f 72/72/72 71/71/71 70/70/70
f 75/75/75 74/74/74 73/73/73
f 78/78/78 77/77/77 76/76/76
f 81/81/81 80/80/80 79/79/79
f 84/84/84 83/83/83 82/82/82
f 87/87/87 86/86/86 85/85/85
f 90/90/90 89/89/89 88/88/88
f 93/93/93 92/92/92 91/91/91
f 96/96/96 95/95/95 94/94/94
f 99/99/99 98/98/98 97/97/97
f 102/102/102 101/101/101 100/100/100
f 105/105/105 104/104/104 103/103/103
f 108/108/108 107/107/107 106/106/106
f 111/111/111 110/110/110 109/109/109
f 114/114/114 113/113/113 112/112/112
f 117/117/117 116/116/116 115/115/115
f 120/120/120 119/119/119 118/118/118
f 123/123/123 122/122/122 121/121/121
f 126/126/126 125/125/125 124/124/124
f 129/129/129 128/128/128 127/127/127
f 132/132/132 131/131/131 130/130/130
f 135/135/135 134/134/134 133/133/133
f 138/138/138 137/137/137 136/136/136
f 141/141/141 140/140/140 139/139/139
f 144/144/144 143/143/143 142/142/142
f 147/147/147 146/146/146 145/145/145
f 150/150/150 149/149/149 148/148/148
