# Generated by Wraith - Game extraction tools
# Please credit DTZxPorter for using it!

v 5.853402 -0.600893 -0.251407
v 5.853402 0.836280 1.185763
v 5.853402 0.836280 -1.688577
v 5.853402 0.836280 1.185763
v 5.853402 2.273450 -0.251407
v 5.853402 0.836280 -1.688577
v 5.853402 0.836280 -1.688577
v 2.867612 0.836280 -1.376261
v 5.853402 -0.600893 -0.251407
v 2.867612 0.836280 -1.376261
v 2.867612 -0.288574 -0.251407
v 5.853402 -0.600893 -0.251407
v 5.853402 2.273450 -0.251407
v 2.867612 1.961134 -0.251407
v 5.853402 0.836280 -1.688577
v 2.867612 1.961134 -0.251407
v 2.867612 0.836280 -1.376261
v 5.853402 0.836280 -1.688577
v 5.853402 0.836280 1.185763
v 2.867612 0.836280 0.873448
v 5.853402 2.273450 -0.251407
v 2.867612 0.836280 0.873448
v 2.867612 1.961134 -0.251407
v 5.853402 2.273450 -0.251407
v 5.853402 -0.600893 -0.251407
v 2.867612 -0.288574 -0.251407
v 5.853402 0.836280 1.185763
v 2.867612 -0.288574 -0.251407
v 2.867612 0.836280 0.873448
v 5.853402 0.836280 1.185763
v -2.987744 -1.575270 3.473612
v -2.915653 1.616900 3.473612
v 1.033493 -1.575270 3.473612
v -2.915653 1.616900 3.473612
v 1.033493 1.616900 3.473612
v 1.033493 -1.575270 3.473612
v 4.363654 -2.250521 -1.698234
v 4.320464 2.269477 -1.698236
v -4.488990 -2.250521 -1.698234
v 4.320464 2.269477 -1.698236
v -4.488990 2.269477 -1.698236
v -4.488990 -2.250521 -1.698234
v 1.112185 -1.880537 2.725328
v 1.033493 -1.575270 3.473612
v 1.112185 1.794619 2.709126
v 1.033493 -1.575270 3.473612
v 1.033493 1.616900 3.473612
v 1.112185 1.794619 2.709126
v -3.009484 1.794619 2.709126
v 1.033493 1.616900 3.473612
v -2.915653 1.616900 3.473612
v -3.009484 1.794619 2.709126
v 1.112185 1.794619 2.709126
v 1.033493 1.616900 3.473612
v -2.989882 -1.880537 2.630236
v -4.488990 -1.880537 2.630236
v -3.009484 1.794619 2.709126
v -4.488990 -1.880537 2.630236
v -4.488990 1.794619 2.709126
v -3.009484 1.794619 2.709126
v -2.989882 -1.880537 2.630236
v -3.009484 1.794619 2.709126
v -2.987744 -1.575270 3.473612
v -3.009484 1.794619 2.709126
v -2.915653 1.616900 3.473612
v -2.987744 -1.575270 3.473612
v -2.987744 -1.575270 3.473612
v 1.033493 -1.575270 3.473612
v -2.989882 -1.880537 2.630236
v 1.033493 -1.575270 3.473612
v 1.112185 -1.880537 2.725328
v -2.989882 -1.880537 2.630236
v -4.488990 -1.880537 2.630236
v -2.989882 -1.880537 2.630236
v -4.488990 -2.250521 -1.698234
v -4.488990 -2.250521 -1.698234
v -2.989882 -1.880537 2.630236
v 4.363654 -2.250521 -1.698234
v -2.989882 -1.880537 2.630236
v 1.112185 -1.880537 2.725328
v 4.363654 -2.250521 -1.698234
v 4.363654 -2.250521 -1.698234
v 1.112185 -1.880537 2.725328
v 4.359496 -1.880537 2.709126
v 1.112185 1.794619 2.709126
v 4.359496 1.794619 2.709126
v 1.112185 -1.880537 2.725328
v 4.359496 1.794619 2.709126
v 4.359496 -1.880537 2.709126
v 1.112185 -1.880537 2.725328
v 4.359496 -1.880537 2.709126
v 4.359496 1.794619 2.709126
v 4.363654 -2.250521 -1.698234
v 4.359496 1.794619 2.709126
v 4.320464 2.269477 -1.698236
v 4.363654 -2.250521 -1.698234
v -4.488990 2.269477 -1.698236
v -4.488990 1.794619 2.709126
v -4.488990 -2.250521 -1.698234
v -4.488990 1.794619 2.709126
v -4.488990 -1.880537 2.630236
v -4.488990 -2.250521 -1.698234
v 4.359496 1.794619 2.709126
v 1.112185 1.794619 2.709126
v 4.320464 2.269477 -1.698236
v 4.320464 2.269477 -1.698236
v 1.112185 1.794619 2.709126
v -4.488990 2.269477 -1.698236
v 1.112185 1.794619 2.709126
v -3.009484 1.794619 2.709126
v -4.488990 2.269477 -1.698236
v -4.488990 2.269477 -1.698236
v -3.009484 1.794619 2.709126
v -4.488990 1.794619 2.709126
vt 0.487793 0.754761
vt 0.570801 0.837646
vt 0.570801 0.671875
vt 0.570801 0.837646
vt 0.653809 0.754761
vt 0.570801 0.671875
vt 0.541992 0.915466
vt 0.547852 0.998778
vt 0.598145 0.915466
vt 0.547852 0.998778
vt 0.592285 0.998778
vt 0.598145 0.915466
vt 0.909180 0.915466
vt 0.915527 0.998777
vt 0.965820 0.915466
vt 0.915527 0.998777
vt 0.959961 0.998777
vt 0.965820 0.915466
vt 0.788086 0.915466
vt 0.794434 0.998778
vt 0.844727 0.915466
vt 0.794434 0.998778
vt 0.838379 0.998777
vt 0.844727 0.915466
vt 0.664551 0.915466
vt 0.670410 0.998778
vt 0.720703 0.915466
vt 0.670410 0.998778
vt 0.714844 0.998778
vt 0.720703 0.915466
vt 0.281738 0.015625
vt 0.283203 0.080078
vt 0.363037 0.015625
vt 0.283203 0.080078
vt 0.363037 0.080078
vt 0.363037 0.015625
vt -0.003288 0.456543
vt -0.003288 0.709717
vt 0.476807 0.456543
vt -0.003288 0.709717
vt 0.476807 0.709717
vt 0.476807 0.456543
vt 0.377930 0.009277
vt 0.363037 0.015625
vt 0.378418 0.083496
vt 0.363037 0.015625
vt 0.363037 0.080078
vt 0.378418 0.083496
vt 0.281006 0.094727
vt 0.363037 0.080078
vt 0.283203 0.080078
vt 0.281006 0.094727
vt 0.363770 0.093750
vt 0.363037 0.080078
vt 0.297363 0.693359
vt 0.190918 0.692871
vt 0.296387 0.487305
vt 0.190918 0.692871
vt 0.185425 0.486816
vt 0.296387 0.487305
vt 0.264648 0.009766
vt 0.267822 0.083984
vt 0.281738 0.015625
vt 0.267822 0.083984
vt 0.283203 0.080078
vt 0.281738 0.015625
vt 0.281738 0.015625
vt 0.363037 0.015625
vt 0.281738 -0.000977
vt 0.363037 0.015625
vt 0.364502 0.000488
vt 0.281738 -0.000977
vt 0.476807 0.213867
vt 0.373779 0.213867
vt 0.476807 0.456543
vt 0.476807 0.456543
vt 0.373779 0.213867
vt -0.003288 0.456543
vt 0.373779 0.213867
vt 0.145630 0.213867
vt -0.003288 0.456543
vt -0.003288 0.456543
vt 0.145630 0.213867
vt -0.003288 0.213867
vt 0.399170 0.479492
vt 0.223999 0.479492
vt 0.402344 0.679932
vt 0.223999 0.479492
vt 0.223999 0.679932
vt 0.402344 0.679932
vt 0.200928 0.479492
vt 0.200928 0.685547
vt 0.447998 0.458984
vt 0.200928 0.685547
vt 0.447998 0.712158
vt 0.447998 0.458984
vt 0.432129 0.458496
vt 0.185425 0.486816
vt 0.433838 0.712158
vt 0.185425 0.486816
vt 0.190918 0.692871
vt 0.433838 0.712158
vt -0.003288 0.960541
vt 0.171753 0.960541
vt -0.003288 0.709717
vt -0.003288 0.709717
vt 0.171753 0.960541
vt 0.476807 0.709717
vt 0.171753 0.960541
vt 0.396240 0.960541
vt 0.476807 0.709717
vt 0.476807 0.709717
vt 0.396240 0.960541
vt 0.476807 0.960541
vn 1.000000 0.000000 0.000000
vn 1.000000 0.000000 0.000000
vn 1.000000 0.000000 0.000000
vn 1.000000 0.000000 0.000000
vn 1.000000 0.000000 0.000000
vn 1.000000 0.000000 0.000000
vn -0.103718 0.000000 -0.994129
vn -0.103718 0.000000 -0.994129
vn -0.103718 -0.994129 0.000000
vn -0.103718 0.000000 -0.994129
vn -0.103718 -0.994129 0.000000
vn -0.103718 -0.994129 0.000000
vn -0.103718 0.994129 0.000000
vn -0.103718 0.994129 0.000000
vn -0.103718 0.000000 -0.994129
vn -0.103718 0.994129 0.000000
vn -0.103718 0.000000 -0.994129
vn -0.103718 0.000000 -0.994129
vn -0.103718 0.000000 0.994129
vn -0.103718 0.000000 0.994129
vn -0.103718 0.994129 0.000000
vn -0.103718 0.000000 0.994129
vn -0.103718 0.994129 0.000000
vn -0.103718 0.994129 0.000000
vn -0.103718 -0.994129 0.000000
vn -0.103718 -0.994129 0.000000
vn -0.103718 0.000000 0.994129
vn -0.103718 -0.994129 0.000000
vn -0.103718 0.000000 0.994129
vn -0.103718 0.000000 0.994129
vn 0.000000 0.000000 1.000000
vn 0.000000 0.000000 1.000000
vn 0.000000 0.000000 1.000000
vn 0.000000 0.000000 1.000000
vn 0.000000 0.000000 1.000000
vn 0.000000 0.000000 1.000000
vn 0.000000 -0.735812 -0.677104
vn 0.000000 0.743640 -0.667319
vn 0.000000 -0.735812 -0.677104
vn 0.000000 0.743640 -0.667319
vn 0.000000 0.743640 -0.667319
vn 0.000000 -0.735812 -0.677104
vn 0.371820 -0.724070 0.581213
vn 0.688845 -0.649706 0.320939
vn 0.994129 0.000000 0.103718
vn 0.688845 -0.649706 0.320939
vn 0.994129 0.000000 0.103718
vn 0.994129 0.000000 0.103718
vn -0.442270 0.866928 0.227006
vn 0.000000 0.974560 0.227006
vn -0.698630 0.686888 0.199609
vn -0.442270 0.866928 0.227006
vn 0.000000 0.974560 0.227006
vn 0.000000 0.974560 0.227006
vn -0.001957 -0.804305 0.594912
vn -0.557730 -0.567515 0.604697
vn 0.000000 -0.021526 1.000000
vn -0.557730 -0.567515 0.604697
vn -0.706458 -0.015656 0.706458
vn 0.000000 -0.021526 1.000000
vn -0.998043 0.007828 0.058708
vn -0.442270 0.866928 0.227006
vn -0.998043 0.007828 0.058708
vn -0.442270 0.866928 0.227006
vn -0.698630 0.686888 0.199609
vn -0.998043 0.007828 0.058708
vn -0.003914 -0.933464 0.358121
vn 0.688845 -0.649706 0.320939
vn -0.001957 -0.804305 0.594912
vn 0.688845 -0.649706 0.320939
vn 0.371820 -0.724070 0.581213
vn -0.001957 -0.804305 0.594912
vn -0.557730 -0.567515 0.604697
vn -0.001957 -0.804305 0.594912
vn 0.000000 -0.735812 -0.677104
vn 0.000000 -0.735812 -0.677104
vn -0.001957 -0.804305 0.594912
vn 0.000000 -0.735812 -0.677104
vn -0.001957 -0.804305 0.594912
vn 0.371820 -0.724070 0.581213
vn 0.000000 -0.735812 -0.677104
vn 0.000000 -0.735812 -0.677104
vn 0.371820 -0.724070 0.581213
vn 0.001957 -0.675147 0.737769
vn 0.001957 0.001957 1.000000
vn 0.001957 0.001957 1.000000
vn 0.371820 -0.724070 0.581213
vn 0.001957 0.001957 1.000000
vn 0.001957 -0.675147 0.737769
vn 0.371820 -0.724070 0.581213
vn 1.000000 0.005871 -0.003914
vn 1.000000 0.005871 -0.003914
vn 1.000000 0.005871 -0.003914
vn 1.000000 0.005871 -0.003914
vn 1.000000 0.005871 -0.003914
vn 1.000000 0.005871 -0.003914
vn -1.000000 0.000000 0.000000
vn -0.706458 -0.015656 0.706458
vn -1.000000 0.000000 0.000000
vn -0.706458 -0.015656 0.706458
vn -0.557730 -0.567515 0.604697
vn -1.000000 0.000000 0.000000
vn 0.000000 0.994129 0.107632
vn 0.000000 0.994129 0.107632
vn 0.000000 0.743640 -0.667319
vn 0.000000 0.743640 -0.667319
vn 0.000000 0.994129 0.107632
vn 0.000000 0.743640 -0.667319
vn 0.000000 0.994129 0.107632
vn 0.000000 0.994129 0.107632
vn 0.000000 0.743640 -0.667319
vn 0.000000 0.743640 -0.667319
vn 0.000000 0.994129 0.107632
vn 0.000000 0.994129 0.107632
mtllib mtl_t6_attach_wlp.mtl
g mtl_t6_attach_wlp
usemtl mtl_t6_attach_wlp
f 3/3/3 2/2/2 1/1/1
f 6/6/6 5/5/5 4/4/4
f 9/9/9 8/8/8 7/7/7
f 12/12/12 11/11/11 10/10/10
f 15/15/15 14/14/14 13/13/13
f 18/18/18 17/17/17 16/16/16
f 21/21/21 20/20/20 19/19/19
f 24/24/24 23/23/23 22/22/22
f 27/27/27 26/26/26 25/25/25
f 30/30/30 29/29/29 28/28/28
f 33/33/33 32/32/32 31/31/31
f 36/36/36 35/35/35 34/34/34
f 39/39/39 38/38/38 37/37/37
f 42/42/42 41/41/41 40/40/40
f 45/45/45 44/44/44 43/43/43
f 48/48/48 47/47/47 46/46/46
f 51/51/51 50/50/50 49/49/49
f 54/54/54 53/53/53 52/52/52
f 57/57/57 56/56/56 55/55/55
f 60/60/60 59/59/59 58/58/58
f 63/63/63 62/62/62 61/61/61
f 66/66/66 65/65/65 64/64/64
f 69/69/69 68/68/68 67/67/67
f 72/72/72 71/71/71 70/70/70
f 75/75/75 74/74/74 73/73/73
f 78/78/78 77/77/77 76/76/76
f 81/81/81 80/80/80 79/79/79
f 84/84/84 83/83/83 82/82/82
f 87/87/87 86/86/86 85/85/85
f 90/90/90 89/89/89 88/88/88
f 93/93/93 92/92/92 91/91/91
f 96/96/96 95/95/95 94/94/94
f 99/99/99 98/98/98 97/97/97
f 102/102/102 101/101/101 100/100/100
f 105/105/105 104/104/104 103/103/103
f 108/108/108 107/107/107 106/106/106
f 111/111/111 110/110/110 109/109/109
f 114/114/114 113/113/113 112/112/112
