# Generated by Wraith - Game extraction tools
# Please credit DTZxPorter for using it!

v -2.196847 -0.500878 4.892271
v -2.196847 0.391168 4.892271
v 1.632161 -0.054856 4.892271
v 4.135489 -0.054856 -11.083241
v 0.599590 0.391168 -12.550949
v 0.599590 -0.500878 -12.550949
v -2.196847 0.391168 4.892271
v -2.196847 -0.500878 4.892271
v -1.718030 0.391168 -4.231681
v -2.196847 -0.500878 4.892271
v -1.718030 -0.500878 -4.231681
v -1.718030 0.391168 -4.231681
v 1.632161 -0.054856 4.892271
v 2.009553 -0.054856 -3.478408
v -2.196847 -0.500878 4.892271
v 2.009553 -0.054856 -3.478408
v -1.718030 -0.500878 -4.231681
v -2.196847 -0.500878 4.892271
v 2.009553 -0.054856 -3.478408
v 4.135489 -0.054856 -11.083241
v -1.718030 -0.500878 -4.231681
v 4.135489 -0.054856 -11.083241
v 0.599590 -0.500878 -12.550949
v -1.718030 -0.500878 -4.231681
v -1.718030 0.391168 -4.231681
v -1.718030 -0.500878 -4.231681
v 0.599590 0.391168 -12.550949
v -1.718030 -0.500878 -4.231681
v 0.599590 -0.500878 -12.550949
v 0.599590 0.391168 -12.550949
v 2.009553 -0.054856 -3.478408
v 1.632161 -0.054856 4.892271
v -2.196847 0.391168 4.892271
v -1.718030 0.391168 -4.231681
v 2.009553 -0.054856 -3.478408
v -2.196847 0.391168 4.892271
v 2.009553 -0.054856 -3.478408
v -1.718030 0.391168 -4.231681
v 4.135489 -0.054856 -11.083241
v -1.718030 0.391168 -4.231681
v 0.599590 0.391168 -12.550949
v 4.135489 -0.054856 -11.083241
vt -0.108337 0.335449
vt -0.108337 0.361816
vt -0.039490 0.348633
vt -1.879883 0.343750
vt -1.891602 0.404297
vt -1.868164 0.404297
vt -1.031250 0.411133
vt -1.003906 0.411133
vt -1.044922 0.208496
vt -1.003906 0.411133
vt -1.018555 0.208496
vt -1.044922 0.208496
vt -0.116211 0.411133
vt -0.126831 0.228027
vt -0.031891 0.411133
vt -0.126831 0.228027
vt -0.046112 0.208984
vt -0.031891 0.411133
vt -0.126831 0.228027
vt -0.171997 0.055664
vt -0.046112 0.208984
vt -0.171997 0.055664
vt -0.094055 0.023438
vt -0.046112 0.208984
vt -1.044922 0.208496
vt -1.018555 0.208496
vt -1.093750 0.023438
vt -1.018555 0.208496
vt -1.067383 0.020996
vt -1.093750 0.023438
vt -1.133789 0.228516
vt -1.124023 0.411133
vt -1.031250 0.411133
vt -1.044922 0.208496
vt -1.133789 0.228516
vt -1.031250 0.411133
vt -1.133789 0.228516
vt -1.044922 0.208496
vt -1.179688 0.059082
vt -1.044922 0.208496
vt -1.093750 0.023438
vt -1.179688 0.059082
vn 0.000000 0.000000 1.000000
vn 0.000000 0.000000 1.000000
vn 0.000000 0.000000 1.000000
vn 0.383562 0.000000 -0.923679
vn 0.383562 0.000000 -0.923679
vn 0.383562 0.000000 -0.923679
vn -1.000000 0.000000 -0.033268
vn -1.000000 0.000000 -0.033268
vn -1.000000 0.000000 -0.033268
vn -1.000000 0.000000 -0.033268
vn -1.000000 0.000000 -0.033268
vn -1.000000 0.000000 -0.033268
vn 0.000000 -1.000000 0.000000
vn 0.000000 -1.000000 0.000000
vn 0.000000 -1.000000 0.000000
vn 0.000000 -1.000000 0.000000
vn 0.000000 -1.000000 0.000000
vn 0.000000 -1.000000 0.000000
vn 0.000000 -1.000000 0.000000
vn 0.000000 -1.000000 0.000000
vn 0.000000 -1.000000 0.000000
vn 0.000000 -1.000000 0.000000
vn 0.000000 -1.000000 0.000000
vn 0.000000 -1.000000 0.000000
vn -0.945205 0.000000 -0.326810
vn -0.945205 0.000000 -0.326810
vn -0.945205 0.000000 -0.326810
vn -0.945205 0.000000 -0.326810
vn -0.945205 0.000000 -0.326810
vn -0.945205 0.000000 -0.326810
vn 0.000000 1.000000 0.000000
vn 0.000000 1.000000 0.000000
vn 0.000000 1.000000 0.000000
vn 0.000000 1.000000 0.000000
vn 0.000000 1.000000 0.000000
vn 0.000000 1.000000 0.000000
vn 0.000000 1.000000 0.000000
vn 0.000000 1.000000 0.000000
vn 0.000000 1.000000 0.000000
vn 0.000000 1.000000 0.000000
vn 0.000000 1.000000 0.000000
vn 0.000000 1.000000 0.000000
mtllib mtl_t6_wpn_smg_chicom_camo1.mtl
g mtl_t6_wpn_smg_chicom_camo1
usemtl mtl_t6_wpn_smg_chicom_camo1
f 3/3/3 2/2/2 1/1/1
f 6/6/6 5/5/5 4/4/4
f 9/9/9 8/8/8 7/7/7
f 12/12/12 11/11/11 10/10/10
f 15/15/15 14/14/14 13/13/13
f 18/18/18 17/17/17 16/16/16
f 21/21/21 20/20/20 19/19/19
f 24/24/24 23/23/23 22/22/22
f 27/27/27 26/26/26 25/25/25
f 30/30/30 29/29/29 28/28/28
f 33/33/33 32/32/32 31/31/31
f 36/36/36 35/35/35 34/34/34
f 39/39/39 38/38/38 37/37/37
f 42/42/42 41/41/41 40/40/40
