# Generated by Wraith - Game extraction tools
# Please credit DTZxPorter for using it!

v 24.319040 -0.001273 -2.736324
v 24.319040 2.797452 0.077518
v 4.215981 2.797452 0.077518
v 24.319040 -2.795689 0.080002
v 24.319040 -0.001273 -2.736324
v 4.215981 -0.001273 -2.736324
v 4.215981 -0.001273 -2.736324
v 24.319040 -0.001273 -2.736324
v 4.215981 2.797452 0.077518
v 4.215981 -0.001273 -2.736324
v 4.215981 2.797452 0.077518
v 0.000003 -0.000795 -1.705694
v 4.215981 2.797452 0.077518
v 0.000003 1.743740 0.136434
v 0.000003 -0.000795 -1.705694
v 0.000003 0.000881 1.893179
v 0.000003 1.743740 0.136434
v 4.215981 2.797452 0.077518
v 4.215981 0.001415 3.037093
v 0.000003 0.000881 1.893179
v 4.215981 2.797452 0.077518
v 4.215981 2.797452 0.077518
v 24.319040 2.797452 0.077518
v 4.215981 0.001415 3.037093
v 24.319040 2.797452 0.077518
v 24.319040 0.001415 3.037093
v 4.215981 0.001415 3.037093
v 24.319040 -0.001273 -2.736324
v 24.319040 -2.795689 0.080002
v 24.319040 2.797452 0.077518
v 24.319040 -2.795689 0.080002
v 24.319040 0.001415 3.037093
v 24.319040 2.797452 0.077518
v 0.000003 -0.000795 -1.705694
v 0.000003 1.743740 0.136434
v 0.000003 -1.742757 0.137983
v 0.000003 1.743740 0.136434
v 0.000003 0.000881 1.893179
v 0.000003 -1.742757 0.137983
v 4.215981 -0.001273 -2.736324
v 0.000003 -0.000795 -1.705694
v 4.215981 -2.795689 0.080002
v 0.000003 -0.000795 -1.705694
v 0.000003 -1.742757 0.137983
v 4.215981 -2.795689 0.080002
v 4.215981 -2.795689 0.080002
v 0.000003 -1.742757 0.137983
v 0.000003 0.000881 1.893179
v 4.215981 0.001415 3.037093
v 4.215981 -2.795689 0.080002
v 0.000003 0.000881 1.893179
v 4.215981 0.001415 3.037093
v 24.319040 0.001415 3.037093
v 4.215981 -2.795689 0.080002
v 24.319040 0.001415 3.037093
v 24.319040 -2.795689 0.080002
v 4.215981 -2.795689 0.080002
v 4.215981 -2.795689 0.080002
v 24.319040 -2.795689 0.080002
v 4.215981 -0.001273 -2.736324
vt 0.012085 0.251953
vt 0.012085 0.135254
vt 0.652344 0.135742
vt 0.012085 0.371582
vt 0.012085 0.251953
vt 0.652832 0.475586
vt 0.649902 0.028809
vt 0.012085 0.251953
vt 0.652344 0.135742
vt 0.649902 0.028809
vt 0.652344 0.135742
vt 0.779785 0.050293
vt 0.652344 0.135742
vt 0.779297 0.149414
vt 0.779785 0.050293
vt 0.778809 0.253418
vt 0.779297 0.149414
vt 0.652344 0.135742
vt 0.652344 0.252930
vt 0.778809 0.253418
vt 0.652344 0.135742
vt 0.652344 0.135742
vt 0.012085 0.135254
vt 0.652344 0.252930
vt 0.012085 0.135254
vt 0.012085 0.251465
vt 0.652344 0.252930
vt 0.907227 0.333008
vt 0.848145 0.403320
vt 0.966309 0.403320
vt 0.848145 0.403320
vt 0.907227 0.476563
vt 0.966309 0.403320
vt 0.905273 0.288574
vt 0.967285 0.211426
vt 0.844727 0.210449
vt 0.967285 0.211426
vt 0.907227 0.139648
vt 0.844727 0.210449
vt 0.652832 0.475586
vt 0.779785 0.455078
vt 0.652344 0.371582
vt 0.779785 0.455078
vt 0.779297 0.358398
vt 0.652344 0.371582
vt 0.652344 0.371582
vt 0.779297 0.358398
vt 0.778809 0.253418
vt 0.652344 0.252930
vt 0.652344 0.371582
vt 0.778809 0.253418
vt 0.652344 0.252930
vt 0.012085 0.251465
vt 0.652344 0.371582
vt 0.012085 0.251465
vt 0.012085 0.371582
vt 0.652344 0.371582
vt 0.652344 0.371582
vt 0.012085 0.371582
vt 0.652832 0.475586
vn 0.000000 0.000000 -1.000000
vn 0.000000 1.000000 -0.013699
vn -0.123288 0.992172 -0.007828
vn 0.000000 -1.000000 -0.011742
vn 0.000000 0.000000 -1.000000
vn -0.125245 0.000000 -0.992172
vn -0.125245 0.000000 -0.992172
vn 0.000000 0.000000 -1.000000
vn -0.123288 0.992172 -0.007828
vn -0.125245 0.000000 -0.992172
vn -0.123288 0.992172 -0.007828
vn -0.248532 0.000000 -0.968689
vn -0.123288 0.992172 -0.007828
vn -0.242661 0.970646 -0.003914
vn -0.248532 0.000000 -0.968689
vn -0.250489 0.000000 0.968689
vn -0.242661 0.970646 -0.003914
vn -0.123288 0.992172 -0.007828
vn -0.127202 0.000000 0.992172
vn -0.250489 0.000000 0.968689
vn -0.123288 0.992172 -0.007828
vn -0.123288 0.992172 -0.007828
vn 0.000000 1.000000 -0.013699
vn -0.127202 0.000000 0.992172
vn 0.000000 1.000000 -0.013699
vn 0.000000 0.000000 1.000000
vn -0.127202 0.000000 0.992172
vn 1.000000 0.000000 0.000000
vn 1.000000 0.000000 0.000000
vn 1.000000 0.000000 0.000000
vn 1.000000 0.000000 0.000000
vn 1.000000 0.000000 0.000000
vn 1.000000 0.000000 0.000000
vn -1.000000 0.000000 0.000000
vn -1.000000 0.000000 0.000000
vn -1.000000 0.000000 0.000000
vn -1.000000 0.000000 0.000000
vn -1.000000 0.000000 0.000000
vn -1.000000 0.000000 0.000000
vn -0.125245 0.000000 -0.992172
vn -0.248532 0.000000 -0.968689
vn -0.123288 -0.992172 -0.007828
vn -0.248532 0.000000 -0.968689
vn -0.242661 -0.970646 -0.001957
vn -0.123288 -0.992172 -0.007828
vn -0.123288 -0.992172 -0.007828
vn -0.242661 -0.970646 -0.001957
vn -0.250489 0.000000 0.968689
vn -0.127202 0.000000 0.992172
vn -0.123288 -0.992172 -0.007828
vn -0.250489 0.000000 0.968689
vn -0.127202 0.000000 0.992172
vn 0.000000 0.000000 1.000000
vn -0.123288 -0.992172 -0.007828
vn 0.000000 0.000000 1.000000
vn 0.000000 -1.000000 -0.011742
vn -0.123288 -0.992172 -0.007828
vn -0.123288 -0.992172 -0.007828
vn 0.000000 -1.000000 -0.011742
vn -0.125245 0.000000 -0.992172
mtllib mtl_t6_attach_sniper_silencer1.mtl
g mtl_t6_attach_sniper_silencer1
usemtl mtl_t6_attach_sniper_silencer1
f 3/3/3 2/2/2 1/1/1
f 6/6/6 5/5/5 4/4/4
f 9/9/9 8/8/8 7/7/7
f 12/12/12 11/11/11 10/10/10
f 15/15/15 14/14/14 13/13/13
f 18/18/18 17/17/17 16/16/16
f 21/21/21 20/20/20 19/19/19
f 24/24/24 23/23/23 22/22/22
f 27/27/27 26/26/26 25/25/25
f 30/30/30 29/29/29 28/28/28
f 33/33/33 32/32/32 31/31/31
f 36/36/36 35/35/35 34/34/34
f 39/39/39 38/38/38 37/37/37
f 42/42/42 41/41/41 40/40/40
f 45/45/45 44/44/44 43/43/43
f 48/48/48 47/47/47 46/46/46
f 51/51/51 50/50/50 49/49/49
f 54/54/54 53/53/53 52/52/52
f 57/57/57 56/56/56 55/55/55
f 60/60/60 59/59/59 58/58/58
