# Generated by Wraith - Game extraction tools
# Please credit DTZxPorter for using it!

v 14.925530 0.000000 -2.093849
v 14.925535 0.000000 2.072188
v 14.925530 2.080130 -0.016647
v 14.925530 0.000000 -2.093849
v 14.925530 -2.080128 -0.016647
v 14.925535 0.000000 2.072188
v 0.014432 0.000000 -2.092122
v 0.014432 2.078744 -0.016647
v 0.014432 0.000000 2.070628
v 0.014432 0.000000 -2.092122
v 0.014432 0.000000 2.070628
v 0.014432 -2.078741 -0.016647
v 14.925535 0.000000 2.072188
v 0.014432 0.000000 2.070628
v 14.925530 2.080130 -0.016647
v 0.014432 0.000000 2.070628
v 0.014432 2.078744 -0.016647
v 14.925530 2.080130 -0.016647
v 14.925530 2.080130 -0.016647
v 0.014432 2.078744 -0.016647
v 14.925530 0.000000 -2.093849
v 0.014432 2.078744 -0.016647
v 0.014432 0.000000 -2.092122
v 14.925530 0.000000 -2.093849
v 14.925530 0.000000 -2.093849
v 0.014432 0.000000 -2.092122
v 14.925530 -2.080128 -0.016647
v 0.014432 0.000000 -2.092122
v 0.014432 -2.078741 -0.016647
v 14.925530 -2.080128 -0.016647
v 14.925530 -2.080128 -0.016647
v 0.014432 -2.078741 -0.016647
v 14.925535 0.000000 2.072188
v 0.014432 -2.078741 -0.016647
v 0.014432 0.000000 2.070628
v 14.925535 0.000000 2.072188
vt 0.892578 0.233887
vt 0.892578 0.408203
vt 0.984375 0.318848
vt 0.892578 0.233887
vt 0.801270 0.318848
vt 0.892578 0.408203
vt 0.892090 0.014648
vt 0.793457 0.105957
vt 0.892090 0.202148
vt 0.892090 0.014648
vt 0.892090 0.202148
vt 0.990723 0.105957
vt 0.006252 0.163574
vt 0.743652 0.163574
vt 0.006252 0.093262
vt 0.743652 0.163574
vt 0.743652 0.095215
vt 0.006252 0.093262
vt 0.006252 0.093262
vt 0.743652 0.095215
vt 0.006252 0.019531
vt 0.743652 0.095215
vt 0.743652 0.019531
vt 0.006252 0.019531
vt 0.006252 0.307617
vt 0.743652 0.307617
vt 0.006252 0.233398
vt 0.743652 0.307617
vt 0.743652 0.233398
vt 0.006252 0.233398
vt 0.006252 0.233398
vt 0.743652 0.233398
vt 0.006252 0.163574
vt 0.743652 0.233398
vt 0.743652 0.163574
vt 0.006252 0.163574
vn 1.000000 0.000000 0.000000
vn 1.000000 0.000000 0.000000
vn 1.000000 0.000000 0.000000
vn 1.000000 0.000000 0.000000
vn 1.000000 0.000000 0.000000
vn 1.000000 0.000000 0.000000
vn -1.000000 0.000000 0.000000
vn -1.000000 0.000000 0.000000
vn -1.000000 0.000000 0.000000
vn -1.000000 0.000000 0.000000
vn -1.000000 0.000000 0.000000
vn -1.000000 0.000000 0.000000
vn 0.000000 0.000000 1.000000
vn 0.000000 0.000000 1.000000
vn 0.000000 1.000000 -0.001957
vn 0.000000 0.000000 1.000000
vn 0.000000 1.000000 -0.001957
vn 0.000000 1.000000 -0.001957
vn 0.000000 1.000000 -0.001957
vn 0.000000 1.000000 -0.001957
vn 0.000000 0.000000 -1.000000
vn 0.000000 1.000000 -0.001957
vn 0.000000 0.000000 -1.000000
vn 0.000000 0.000000 -1.000000
vn 0.000000 0.000000 -1.000000
vn 0.000000 0.000000 -1.000000
vn 0.000000 -1.000000 -0.001957
vn 0.000000 0.000000 -1.000000
vn 0.000000 -1.000000 -0.001957
vn 0.000000 -1.000000 -0.001957
vn 0.000000 -1.000000 -0.001957
vn 0.000000 -1.000000 -0.001957
vn 0.000000 0.000000 1.000000
vn 0.000000 -1.000000 -0.001957
vn 0.000000 0.000000 1.000000
vn 0.000000 0.000000 1.000000
mtllib mtl_t6_attach_ar_silencer1.mtl
g mtl_t6_attach_ar_silencer1
usemtl mtl_t6_attach_ar_silencer1
f 3/3/3 2/2/2 1/1/1
f 6/6/6 5/5/5 4/4/4
f 9/9/9 8/8/8 7/7/7
f 12/12/12 11/11/11 10/10/10
f 15/15/15 14/14/14 13/13/13
f 18/18/18 17/17/17 16/16/16
f 21/21/21 20/20/20 19/19/19
f 24/24/24 23/23/23 22/22/22
f 27/27/27 26/26/26 25/25/25
f 30/30/30 29/29/29 28/28/28
f 33/33/33 32/32/32 31/31/31
f 36/36/36 35/35/35 34/34/34
