# Generated by Wraith - Game extraction tools
# Please credit DTZxPorter for using it!

v -0.001110 -2.035345 2.572459
v -0.001110 2.035345 2.572459
v -0.001110 -2.034675 0.663372
v -0.001110 2.035345 2.572459
v -0.001110 2.034675 0.663372
v -0.001110 -2.034675 0.663372
v 1.193759 0.867316 3.491873
v -0.455976 1.403347 3.491873
v 1.191674 0.865802 0.000000
v -0.455976 1.403347 3.491873
v -0.455638 1.402334 0.000000
v 1.191674 0.865802 0.000000
v -0.455976 -1.403347 3.491873
v -0.455689 -1.402334 -0.000000
v -0.455976 1.403347 3.491873
v -0.455689 -1.402334 -0.000000
v -0.455638 1.402334 0.000000
v -0.455976 1.403347 3.491873
v 1.193759 0.867316 3.491873
v -0.455976 -1.403347 3.491873
v -0.455976 1.403347 3.491873
v 1.193759 0.867316 3.491873
v 1.193759 -0.867316 3.491873
v -0.455976 -1.403347 3.491873
v 1.193759 0.867316 3.491873
v 1.191674 0.865802 0.000000
v 1.191674 -0.865802 0.000000
v 1.193759 -0.867316 3.491873
v 1.193759 0.867316 3.491873
v 1.191674 -0.865802 0.000000
v 1.193759 -0.867316 3.491873
v 1.191674 -0.865802 0.000000
v -0.455976 -1.403347 3.491873
v 1.191674 -0.865802 0.000000
v -0.455689 -1.402334 -0.000000
v -0.455976 -1.403347 3.491873
v -0.001110 -2.034675 0.663372
v -7.848259 -2.035010 0.663372
v -0.001110 -2.035345 2.572459
v -7.848259 -2.035010 0.663372
v -7.848259 -2.035345 2.572459
v -0.001110 -2.035345 2.572459
v -7.848257 2.035345 2.572459
v -7.848257 2.035010 0.663372
v -0.001110 2.035345 2.572459
v -7.848257 2.035010 0.663372
v -0.001110 2.034675 0.663372
v -0.001110 2.035345 2.572459
v -7.848257 2.035345 2.572459
v -0.001110 2.035345 2.572459
v -7.848259 -2.035345 2.572459
v -0.001110 2.035345 2.572459
v -0.001110 -2.035345 2.572459
v -7.848259 -2.035345 2.572459
v -0.001110 2.034675 0.663372
v -7.848257 2.035010 0.663372
v -0.001110 -2.034675 0.663372
v -7.848257 2.035010 0.663372
v -7.848259 -2.035010 0.663372
v -0.001110 -2.034675 0.663372
v -7.848259 -2.035345 2.572459
v -7.848259 -2.035010 0.663372
v -7.848257 2.035345 2.572459
v -7.848259 -2.035010 0.663372
v -7.848257 2.035010 0.663372
v -7.848257 2.035345 2.572459
vt 0.485107 0.477051
vt 0.485107 0.059082
vt 0.659180 0.477051
vt 0.485107 0.059082
vt 0.659180 0.059082
vt 0.659180 0.477051
vt -0.997559 0.999367
vt -0.607910 0.993256
vt -0.998047 0.893005
vt -0.607910 0.993256
vt -0.607910 0.897156
vt -0.998047 0.893005
vt 0.173828 0.991867
vt 0.173950 0.896606
vt -0.607910 0.993256
vt 0.173950 0.896606
vt -0.607910 0.897156
vt -0.607910 0.993256
vt -0.139404 0.669678
vt -0.089050 0.768066
vt -0.122437 0.560547
vt -0.139404 0.669678
vt -0.217407 0.748047
vt -0.089050 0.768066
vt 0.974609 0.899048
vt 0.974609 0.985001
vt 0.569336 0.991280
vt 0.568848 0.895020
vt 0.974609 0.899048
vt 0.569336 0.991280
vt 0.568848 0.895020
vt 0.569336 0.991280
vt 0.173828 0.896606
vt 0.569336 0.991280
vt 0.173950 0.991867
vt 0.173828 0.896606
vt 0.482178 0.619873
vt 0.003000 0.619873
vt 0.482178 0.698730
vt 0.003000 0.619873
vt 0.003000 0.698730
vt 0.482178 0.698730
vt -0.996094 0.540527
vt -0.996094 0.620117
vt -0.518555 0.540527
vt -0.996094 0.620117
vt -0.518555 0.620117
vt -0.518555 0.540527
vt -0.987305 0.010254
vt -0.987305 0.528076
vt -0.611328 0.010254
vt -0.987305 0.528076
vt -0.611328 0.528076
vt -0.611328 0.010254
vt 0.013603 0.527832
vt 0.013603 0.010742
vt 0.388916 0.528076
vt 0.013603 0.010742
vt 0.388916 0.010254
vt 0.388916 0.528076
vt -0.378418 0.207031
vt -0.485840 0.207031
vt -0.378418 0.460449
vt -0.485840 0.207031
vt -0.485840 0.460449
vt -0.378418 0.460449
vn 0.000000 0.000000 1.000000
vn 0.000000 0.000000 1.000000
vn 0.000000 0.000000 -1.000000
vn 0.000000 0.000000 1.000000
vn 0.000000 0.000000 -1.000000
vn 0.000000 0.000000 -1.000000
vn 0.508806 0.369863 0.776908
vn -0.448141 0.616438 0.647749
vn 0.808219 0.587084 0.000000
vn -0.448141 0.616438 0.647749
vn -0.587084 0.808219 0.000000
vn 0.808219 0.587084 0.000000
vn -0.297456 -0.410959 0.863014
vn -0.587084 -0.808219 0.000000
vn -0.448141 0.616438 0.647749
vn -0.587084 -0.808219 0.000000
vn -0.587084 0.808219 0.000000
vn -0.448141 0.616438 0.647749
vn 0.508806 0.369863 0.776908
vn -0.297456 -0.410959 0.863014
vn -0.448141 0.616438 0.647749
vn 0.508806 0.369863 0.776908
vn 0.688845 -0.500978 0.524462
vn -0.297456 -0.410959 0.863014
vn 0.508806 0.369863 0.776908
vn 0.808219 0.587084 0.000000
vn 0.808219 -0.587084 0.000000
vn 0.688845 -0.500978 0.524462
vn 0.508806 0.369863 0.776908
vn 0.808219 -0.587084 0.000000
vn 0.688845 -0.500978 0.524462
vn 0.808219 -0.587084 0.000000
vn -0.297456 -0.410959 0.863014
vn 0.808219 -0.587084 0.000000
vn -0.587084 -0.808219 0.000000
vn -0.297456 -0.410959 0.863014
vn 0.000000 -1.000000 0.000000
vn 0.000000 -1.000000 0.000000
vn 0.000000 -1.000000 0.000000
vn 0.000000 -1.000000 0.000000
vn 0.000000 -1.000000 0.000000
vn 0.000000 -1.000000 0.000000
vn 0.000000 1.000000 0.000000
vn 0.000000 1.000000 0.000000
vn 0.000000 1.000000 0.000000
vn 0.000000 1.000000 0.000000
vn 0.000000 1.000000 0.000000
vn 0.000000 1.000000 0.000000
vn 0.000000 0.000000 1.000000
vn 0.000000 0.000000 1.000000
vn 0.000000 0.000000 1.000000
vn 0.000000 0.000000 1.000000
vn 0.000000 0.000000 1.000000
vn 0.000000 0.000000 1.000000
vn 0.000000 0.000000 -1.000000
vn 0.000000 0.000000 -1.000000
vn 0.000000 0.000000 -1.000000
vn 0.000000 0.000000 -1.000000
vn 0.000000 0.000000 -1.000000
vn 0.000000 0.000000 -1.000000
vn -1.000000 0.000000 0.000000
vn -1.000000 0.000000 0.000000
vn -1.000000 0.000000 0.000000
vn -1.000000 0.000000 0.000000
vn -1.000000 0.000000 0.000000
vn -1.000000 0.000000 0.000000
mtllib mtl_t6_attach_bcpu.mtl
g mtl_t6_attach_bcpu
usemtl mtl_t6_attach_bcpu
f 3/3/3 2/2/2 1/1/1
f 6/6/6 5/5/5 4/4/4
f 9/9/9 8/8/8 7/7/7
f 12/12/12 11/11/11 10/10/10
f 15/15/15 14/14/14 13/13/13
f 18/18/18 17/17/17 16/16/16
f 21/21/21 20/20/20 19/19/19
f 24/24/24 23/23/23 22/22/22
f 27/27/27 26/26/26 25/25/25
f 30/30/30 29/29/29 28/28/28
f 33/33/33 32/32/32 31/31/31
f 36/36/36 35/35/35 34/34/34
f 39/39/39 38/38/38 37/37/37
f 42/42/42 41/41/41 40/40/40
f 45/45/45 44/44/44 43/43/43
f 48/48/48 47/47/47 46/46/46
f 51/51/51 50/50/50 49/49/49
f 54/54/54 53/53/53 52/52/52
f 57/57/57 56/56/56 55/55/55
f 60/60/60 59/59/59 58/58/58
f 63/63/63 62/62/62 61/61/61
f 66/66/66 65/65/65 64/64/64
