# Generated by Wraith - Game extraction tools
# Please credit DTZxPorter for using it!

v 4.236522 -1.408374 -20.091356
v 10.422675 0.006396 -14.826283
v 4.236522 1.421165 -20.091356
v -5.159123 1.421165 0.467431
v 2.964238 0.006396 0.436829
v -5.159123 -1.408374 0.467431
v -3.458893 4.294149 -8.091244
v 3.933488 2.879379 -4.723425
v -3.458893 1.464610 -8.091244
v 11.171184 1.464610 -25.322111
v 14.590119 2.879379 -17.953209
v 11.171184 4.294149 -25.322111
v 10.422675 0.006396 -14.826283
v 4.236522 -1.408374 -20.091356
v 2.964238 0.006396 0.436829
v 4.236522 -1.408374 -20.091356
v -5.159123 -1.408374 0.467431
v 2.964238 0.006396 0.436829
v 4.236522 1.421165 -20.091356
v -5.159123 1.421165 0.467431
v 4.236522 -1.408374 -20.091356
v -5.159123 1.421165 0.467431
v -5.159123 -1.408374 0.467431
v 4.236522 -1.408374 -20.091356
v 10.422675 0.006396 -14.826283
v 2.964238 0.006396 0.436829
v 4.236522 1.421165 -20.091356
v 2.964238 0.006396 0.436829
v -5.159123 1.421165 0.467431
v 4.236522 1.421165 -20.091356
v 3.933488 2.879379 -4.723425
v -3.458893 4.294149 -8.091244
v 14.590119 2.879379 -17.953209
v -3.458893 4.294149 -8.091244
v 11.171184 4.294149 -25.322111
v 14.590119 2.879379 -17.953209
v -3.458893 1.464610 -8.091244
v 11.171184 1.464610 -25.322111
v -3.458893 4.294149 -8.091244
v 11.171184 1.464610 -25.322111
v 11.171184 4.294149 -25.322111
v -3.458893 4.294149 -8.091244
v 3.933488 2.879379 -4.723425
v 14.590119 2.879379 -17.953209
v -3.458893 1.464610 -8.091244
v 14.590119 2.879379 -17.953209
v 11.171184 1.464610 -25.322111
v -3.458893 1.464610 -8.091244
vt 0.323730 0.087402
vt 0.305664 0.005859
vt 0.287354 0.087402
vt 0.324219 0.177246
vt 0.306152 0.097656
vt 0.288086 0.177246
vt 0.323730 0.087402
vt 0.305664 0.005859
vt 0.287354 0.087402
vt 0.324219 0.177246
vt 0.306152 0.097656
vt 0.288086 0.177246
vt 1.028320 0.333008
vt 1.006836 0.242676
vt 1.227539 0.336914
vt 1.006836 0.242676
vt 1.270508 0.254395
vt 1.227539 0.336914
vt 0.007175 0.242188
vt 0.271484 0.254395
vt 0.003281 0.220215
vt 0.271484 0.254395
vt 0.278076 0.232910
vt 0.003281 0.220215
vt 0.030838 0.341309
vt 0.225220 0.345215
vt 0.007175 0.242188
vt 0.225220 0.345215
vt 0.271484 0.254395
vt 0.007175 0.242188
vt 1.028320 0.333008
vt 1.006836 0.242676
vt 1.227539 0.336914
vt 1.006836 0.242676
vt 1.270508 0.254395
vt 1.227539 0.336914
vt 0.007175 0.242188
vt 0.271484 0.254395
vt 0.003281 0.220215
vt 0.271484 0.254395
vt 0.278076 0.232910
vt 0.003281 0.220215
vt 0.030838 0.341309
vt 0.225220 0.345215
vt 0.007175 0.242188
vt 0.225220 0.345215
vt 0.271484 0.254395
vt 0.007175 0.242188
vn 0.647749 0.000000 -0.761252
vn 0.647749 0.000000 -0.761252
vn 0.647749 0.000000 -0.761252
vn 0.003914 0.000000 1.000000
vn 0.003914 0.000000 1.000000
vn 0.003914 0.000000 1.000000
vn -0.414873 0.000000 0.909980
vn -0.414873 0.000000 0.909980
vn -0.414873 0.000000 0.909980
vn 0.908023 0.000000 -0.420744
vn 0.908023 0.000000 -0.420744
vn 0.908023 0.000000 -0.420744
vn 0.166341 -0.982387 0.078278
vn 0.166341 -0.982387 0.078278
vn 0.166341 -0.982387 0.078278
vn 0.166341 -0.982387 0.078278
vn 0.166341 -0.982387 0.078278
vn 0.166341 -0.982387 0.078278
vn -0.909980 0.000000 -0.414873
vn -0.909980 0.000000 -0.414873
vn -0.909980 0.000000 -0.414873
vn -0.909980 0.000000 -0.414873
vn -0.909980 0.000000 -0.414873
vn -0.909980 0.000000 -0.414873
vn 0.166341 0.982387 0.078278
vn 0.166341 0.982387 0.078278
vn 0.166341 0.982387 0.078278
vn 0.166341 0.982387 0.078278
vn 0.166341 0.982387 0.078278
vn 0.166341 0.982387 0.078278
vn 0.140900 0.982387 0.117417
vn 0.140900 0.982387 0.117417
vn 0.140900 0.982387 0.117417
vn 0.140900 0.982387 0.117417
vn 0.140900 0.982387 0.117417
vn 0.140900 0.982387 0.117417
vn -0.763209 0.000000 -0.647749
vn -0.763209 0.000000 -0.647749
vn -0.763209 0.000000 -0.647749
vn -0.763209 0.000000 -0.647749
vn -0.763209 0.000000 -0.647749
vn -0.763209 0.000000 -0.647749
vn 0.140900 -0.982387 0.117417
vn 0.140900 -0.982387 0.117417
vn 0.140900 -0.982387 0.117417
vn 0.140900 -0.982387 0.117417
vn 0.140900 -0.982387 0.117417
vn 0.140900 -0.982387 0.117417
mtllib mtl_t6_wpn_ar_type95.mtl
g mtl_t6_wpn_ar_type95
usemtl mtl_t6_wpn_ar_type95
f 3/3/3 2/2/2 1/1/1
f 6/6/6 5/5/5 4/4/4
f 9/9/9 8/8/8 7/7/7
f 12/12/12 11/11/11 10/10/10
f 15/15/15 14/14/14 13/13/13
f 18/18/18 17/17/17 16/16/16
f 21/21/21 20/20/20 19/19/19
f 24/24/24 23/23/23 22/22/22
f 27/27/27 26/26/26 25/25/25
f 30/30/30 29/29/29 28/28/28
f 33/33/33 32/32/32 31/31/31
f 36/36/36 35/35/35 34/34/34
f 39/39/39 38/38/38 37/37/37
f 42/42/42 41/41/41 40/40/40
f 45/45/45 44/44/44 43/43/43
f 48/48/48 47/47/47 46/46/46
