# Generated by Wraith - Game extraction tools
# Please credit DTZxPorter for using it!

v -2.003889 -1.126030 -21.330774
v 5.466614 -0.000983 -19.196272
v -2.003889 1.124062 -21.330774
v 3.403654 -0.000983 -0.422148
v -4.365804 -1.100173 -0.110353
v -4.365804 1.098204 -0.110353
v -4.784233 3.387677 -8.757650
v 2.940356 2.262630 -7.923850
v -4.784233 1.137585 -8.757650
v 8.094341 2.262630 -26.094156
v 1.013393 3.361820 -29.306919
v 1.013393 1.163442 -29.306919
v -2.003889 1.124062 -21.330774
v 5.466614 -0.000983 -19.196272
v -4.365804 1.098204 -0.110353
v 5.466614 -0.000983 -19.196272
v 3.403654 -0.000983 -0.422148
v -4.365804 1.098204 -0.110353
v -4.365804 1.098204 -0.110353
v -4.365804 -1.100173 -0.110353
v -2.003889 1.124062 -21.330774
v -4.365804 -1.100173 -0.110353
v -2.003889 -1.126030 -21.330774
v -2.003889 1.124062 -21.330774
v 3.403654 -0.000983 -0.422148
v 5.466614 -0.000983 -19.196272
v -4.365804 -1.100173 -0.110353
v 5.466614 -0.000983 -19.196272
v -2.003889 -1.126030 -21.330774
v -4.365804 -1.100173 -0.110353
v -4.784233 1.137585 -8.757650
v 2.940356 2.262630 -7.923850
v 1.013393 1.163442 -29.306919
v 2.940356 2.262630 -7.923850
v 8.094341 2.262630 -26.094156
v 1.013393 1.163442 -29.306919
v 1.013393 1.163442 -29.306919
v 1.013393 3.361820 -29.306919
v -4.784233 1.137585 -8.757650
v 1.013393 3.361820 -29.306919
v -4.784233 3.387677 -8.757650
v -4.784233 1.137585 -8.757650
v 8.094341 2.262630 -26.094156
v 2.940356 2.262630 -7.923850
v 1.013393 3.361820 -29.306919
v 2.940356 2.262630 -7.923850
v -4.784233 3.387677 -8.757650
v 1.013393 3.361820 -29.306919
vt 0.633789 0.711914
vt 0.642578 0.792969
vt 0.650879 0.711914
vt 0.900391 0.610107
vt 0.941895 0.614990
vt 0.941895 0.605957
vt 0.633789 0.711914
vt 0.642578 0.792969
vt 0.650879 0.711914
vt 0.900391 0.610107
vt 0.941895 0.614990
vt 0.941895 0.605957
vt 0.096252 0.184570
vt 0.172974 0.206543
vt 0.071960 0.410156
vt 0.172974 0.206543
vt 0.150024 0.410156
vt 0.071960 0.410156
vt 0.782715 0.082031
vt 0.786621 0.097168
vt 0.991211 0.079590
vt 0.786621 0.097168
vt 0.990234 0.097168
vt 0.991211 0.079590
vt 0.150024 0.410156
vt 0.172974 0.206543
vt 0.071960 0.410156
vt 0.172974 0.206543
vt 0.096252 0.184570
vt 0.071960 0.410156
vt 0.096252 0.184570
vt 0.172974 0.206543
vt 0.071960 0.410156
vt 0.172974 0.206543
vt 0.150024 0.410156
vt 0.071960 0.410156
vt 0.782715 0.082031
vt 0.786621 0.097168
vt 0.991211 0.079590
vt 0.786621 0.097168
vt 0.990234 0.097168
vt 0.991211 0.079590
vt 0.150024 0.410156
vt 0.172974 0.206543
vt 0.071960 0.410156
vt 0.172974 0.206543
vt 0.096252 0.184570
vt 0.071960 0.410156
vn 0.273973 0.000000 -0.960861
vn 0.273973 0.000000 -0.960861
vn 0.273973 0.000000 -0.960861
vn 0.039139 0.000000 1.000000
vn 0.039139 0.000000 1.000000
vn 0.039139 0.000000 1.000000
vn -0.107632 0.000000 0.994129
vn -0.107632 0.000000 0.994129
vn -0.107632 0.000000 0.994129
vn 0.412916 0.000000 -0.909980
vn 0.412916 0.000000 -0.909980
vn 0.412916 0.000000 -0.909980
vn 0.142857 0.990215 0.015656
vn 0.142857 0.990215 0.015656
vn 0.142857 0.990215 0.015656
vn 0.142857 0.990215 0.015656
vn 0.142857 0.990215 0.015656
vn 0.142857 0.990215 0.015656
vn -0.994129 0.000000 -0.111546
vn -0.994129 0.000000 -0.111546
vn -0.994129 0.000000 -0.111546
vn -0.994129 0.000000 -0.111546
vn -0.994129 0.000000 -0.111546
vn -0.994129 0.000000 -0.111546
vn 0.142857 -0.990215 0.015656
vn 0.142857 -0.990215 0.015656
vn 0.142857 -0.990215 0.015656
vn 0.142857 -0.990215 0.015656
vn 0.142857 -0.990215 0.015656
vn 0.142857 -0.990215 0.015656
vn 0.138943 -0.990215 0.039139
vn 0.138943 -0.990215 0.039139
vn 0.138943 -0.990215 0.039139
vn 0.138943 -0.990215 0.039139
vn 0.138943 -0.990215 0.039139
vn 0.138943 -0.990215 0.039139
vn -0.962818 0.000000 -0.272016
vn -0.962818 0.000000 -0.272016
vn -0.962818 0.000000 -0.272016
vn -0.962818 0.000000 -0.272016
vn -0.962818 0.000000 -0.272016
vn -0.962818 0.000000 -0.272016
vn 0.138943 0.990215 0.039139
vn 0.138943 0.990215 0.039139
vn 0.138943 0.990215 0.039139
vn 0.138943 0.990215 0.039139
vn 0.138943 0.990215 0.039139
vn 0.138943 0.990215 0.039139
mtllib mtl_t6_wpn_ar_x95l_camo1.mtl
g mtl_t6_wpn_ar_x95l_camo1
usemtl mtl_t6_wpn_ar_x95l_camo1
f 3/3/3 2/2/2 1/1/1
f 6/6/6 5/5/5 4/4/4
f 9/9/9 8/8/8 7/7/7
f 12/12/12 11/11/11 10/10/10
f 15/15/15 14/14/14 13/13/13
f 18/18/18 17/17/17 16/16/16
f 21/21/21 20/20/20 19/19/19
f 24/24/24 23/23/23 22/22/22
f 27/27/27 26/26/26 25/25/25
f 30/30/30 29/29/29 28/28/28
f 33/33/33 32/32/32 31/31/31
f 36/36/36 35/35/35 34/34/34
f 39/39/39 38/38/38 37/37/37
f 42/42/42 41/41/41 40/40/40
f 45/45/45 44/44/44 43/43/43
f 48/48/48 47/47/47 46/46/46
