# Generated by Wraith - Game extraction tools
# Please credit DTZxPorter for using it!

v 3.891371 0.000000 -7.899908
v 3.891376 -1.491808 6.880352
v 3.891376 1.491808 6.880352
v -3.956007 -1.491808 6.846702
v -3.956010 0.000000 -9.595295
v -3.956007 1.491808 6.832613
v -3.956010 0.000000 -9.595295
v -3.956007 -1.491808 6.846702
v 3.891371 0.000000 -7.899908
v -3.956007 -1.491808 6.846702
v 3.891376 -1.491808 6.880352
v 3.891371 0.000000 -7.899908
v 3.891376 1.491808 6.880352
v 3.891376 -1.491808 6.880352
v -3.956007 1.491808 6.832613
v 3.891376 -1.491808 6.880352
v -3.956007 -1.491808 6.846702
v -3.956007 1.491808 6.832613
v -3.956010 0.000000 -9.595295
v 3.891371 0.000000 -7.899908
v -3.956007 1.491808 6.832613
v 3.891371 0.000000 -7.899908
v 3.891376 1.491808 6.880352
v -3.956007 1.491808 6.832613
vt 0.117371 0.838989
vt 0.104492 0.997141
vt 0.130005 0.997141
vt 0.241821 0.997227
vt 0.226440 0.822021
vt 0.210938 0.997141
vt 0.210938 0.822021
vt 0.210938 0.997141
vt 0.130005 0.838989
vt 0.210938 0.997141
vt 0.130005 0.997141
vt 0.130005 0.838989
vt 0.528809 0.171875
vt 0.528809 0.151855
vt 0.514648 0.172363
vt 0.528809 0.151855
vt 0.514648 0.151855
vt 0.514648 0.172363
vt 0.210938 0.822021
vt 0.130005 0.838989
vt 0.210938 0.997141
vt 0.130005 0.838989
vt 0.130005 0.997141
vt 0.210938 0.997141
vn 1.000000 0.000000 0.000000
vn 0.704501 0.001957 0.708415
vn 0.704501 0.001957 0.708415
vn -0.708415 0.001957 0.704501
vn -1.000000 0.000000 0.000000
vn -0.708415 0.001957 0.704501
vn 0.009785 -0.996086 -0.095890
vn 0.009785 -0.996086 -0.095890
vn 0.009785 -0.996086 -0.095890
vn 0.009785 -0.996086 -0.095890
vn 0.009785 -0.996086 -0.095890
vn 0.009785 -0.996086 -0.095890
vn 0.704501 0.001957 0.708415
vn 0.704501 0.001957 0.708415
vn -0.708415 0.001957 0.704501
vn 0.704501 0.001957 0.708415
vn -0.708415 0.001957 0.704501
vn -0.708415 0.001957 0.704501
vn 0.009785 0.996086 -0.095890
vn 0.009785 0.996086 -0.095890
vn 0.009785 0.996086 -0.095890
vn 0.009785 0.996086 -0.095890
vn 0.009785 0.996086 -0.095890
vn 0.009785 0.996086 -0.095890
mtllib mtl_t6_wpn_ar_sa58_camo2.mtl
g mtl_t6_wpn_ar_sa58_camo2
usemtl mtl_t6_wpn_ar_sa58_camo2
f 3/3/3 2/2/2 1/1/1
f 6/6/6 5/5/5 4/4/4
f 9/9/9 8/8/8 7/7/7
f 12/12/12 11/11/11 10/10/10
f 15/15/15 14/14/14 13/13/13
f 18/18/18 17/17/17 16/16/16
f 21/21/21 20/20/20 19/19/19
f 24/24/24 23/23/23 22/22/22
