# Generated by Wraith - Game extraction tools
# Please credit DTZxPorter for using it!

v 5.282323 -1.474422 -12.765299
v 5.282323 1.500096 -12.765299
v -1.732144 0.012837 -14.256273
v 3.662553 -1.476017 4.515826
v -3.403855 0.012837 4.446123
v 3.662553 1.501694 4.515826
v 2.806700 1.554688 -0.610692
v 2.799517 -1.419758 -0.591403
v -4.290616 0.077782 -1.652089
v 7.320191 1.436713 -17.370028
v 0.670242 -0.051623 -19.761408
v 7.313000 -1.540927 -17.350719
v -1.732144 0.012837 -14.256273
v 5.282323 1.500096 -12.765299
v -3.403855 0.012837 4.446123
v 5.282323 1.500096 -12.765299
v 3.662553 1.501694 4.515826
v -3.403855 0.012837 4.446123
v 5.282323 -1.474422 -12.765299
v 3.662553 -1.476017 4.515826
v 5.282323 1.500096 -12.765299
v 3.662553 -1.476017 4.515826
v 3.662553 1.501694 4.515826
v 5.282323 1.500096 -12.765299
v -1.732144 0.012837 -14.256273
v -3.403855 0.012837 4.446123
v 5.282323 -1.474422 -12.765299
v -3.403855 0.012837 4.446123
v 3.662553 -1.476017 4.515826
v 5.282323 -1.474422 -12.765299
v -4.290616 0.077782 -1.652089
v 2.799517 -1.419758 -0.591403
v 0.670242 -0.051623 -19.761408
v 2.799517 -1.419758 -0.591403
v 7.313000 -1.540927 -17.350719
v 0.670242 -0.051623 -19.761408
v 2.806700 1.554688 -0.610692
v 7.320191 1.436713 -17.370028
v 2.799517 -1.419758 -0.591403
v 7.320191 1.436713 -17.370028
v 7.313000 -1.540927 -17.350719
v 2.799517 -1.419758 -0.591403
v -4.290616 0.077782 -1.652089
v 0.670242 -0.051623 -19.761408
v 2.806700 1.554688 -0.610692
v 0.670242 -0.051623 -19.761408
v 7.320191 1.436713 -17.370028
v 2.806700 1.554688 -0.610692
vt 0.753418 0.332520
vt 0.753418 0.307617
vt 0.685547 0.320313
vt 0.553711 0.260742
vt 0.513672 0.270996
vt 0.550293 0.279785
vt 0.753418 0.332520
vt 0.753418 0.307617
vt 0.685547 0.320313
vt 0.553711 0.260742
vt 0.513672 0.270996
vt 0.550293 0.279785
vt 0.100769 0.109863
vt 0.013092 0.124512
vt 0.096191 0.373535
vt 0.013092 0.124512
vt 0.011696 0.354980
vt 0.096191 0.373535
vt 0.968750 0.834351
vt 0.968750 0.998516
vt 0.997559 0.834351
vt 0.968750 0.998516
vt 0.997559 0.998516
vt 0.997559 0.834351
vt 0.100769 0.109863
vt 0.096191 0.373535
vt 0.013092 0.124512
vt 0.096191 0.373535
vt 0.011696 0.354980
vt 0.013092 0.124512
vt 0.100769 0.109863
vt 0.013092 0.124512
vt 0.096191 0.373535
vt 0.013092 0.124512
vt 0.011696 0.354980
vt 0.096191 0.373535
vt 0.968750 0.834351
vt 0.968750 0.998516
vt 0.997559 0.834351
vt 0.968750 0.998516
vt 0.997559 0.998516
vt 0.997559 0.834351
vt 0.100769 0.109863
vt 0.096191 0.373535
vt 0.013092 0.124512
vt 0.096191 0.373535
vt 0.011696 0.354980
vt 0.013092 0.124512
vn 0.207436 0.000000 -0.978474
vn 0.207436 0.000000 -0.978474
vn 0.207436 0.000000 -0.978474
vn -0.152642 -0.698630 0.700587
vn -0.152642 -0.698630 0.700587
vn -0.009785 0.000000 1.000000
vn -0.146771 0.005871 0.988258
vn -0.146771 0.005871 0.988258
vn -0.146771 0.005871 0.988258
vn 0.101761 0.692759 -0.714286
vn 0.101761 0.692759 -0.714286
vn 0.340509 -0.007828 -0.941292
vn -0.205479 0.978474 -0.019569
vn -0.205479 0.978474 -0.019569
vn -0.205479 0.978474 -0.019569
vn -0.205479 0.978474 -0.019569
vn -0.205479 0.978474 -0.019569
vn -0.205479 0.978474 -0.019569
vn 0.996086 0.000000 0.093933
vn 0.996086 0.000000 0.093933
vn 0.996086 0.000000 0.093933
vn 0.996086 0.000000 0.093933
vn 0.996086 0.000000 0.093933
vn 0.996086 0.000000 0.093933
vn -0.205479 -0.978474 -0.019569
vn -0.152642 -0.698630 0.700587
vn -0.205479 -0.978474 -0.019569
vn -0.152642 -0.698630 0.700587
vn -0.152642 -0.698630 0.700587
vn -0.205479 -0.978474 -0.019569
vn -0.201566 -0.978474 -0.046967
vn -0.201566 -0.978474 -0.046967
vn -0.201566 -0.978474 -0.046967
vn -0.201566 -0.978474 -0.046967
vn -0.201566 -0.978474 -0.046967
vn -0.201566 -0.978474 -0.046967
vn 0.964775 0.000000 0.260274
vn 0.964775 0.000000 0.260274
vn 0.964775 0.000000 0.260274
vn 0.964775 0.000000 0.260274
vn 0.964775 0.000000 0.260274
vn 0.964775 0.000000 0.260274
vn -0.195695 0.978474 -0.060665
vn 0.101761 0.692759 -0.714286
vn -0.195695 0.978474 -0.060665
vn 0.101761 0.692759 -0.714286
vn 0.101761 0.692759 -0.714286
vn -0.195695 0.978474 -0.060665
mtllib mtl_t6_wpn_ar_sig556_camo1.mtl
g mtl_t6_wpn_ar_sig556_camo1
usemtl mtl_t6_wpn_ar_sig556_camo1
f 3/3/3 2/2/2 1/1/1
f 6/6/6 5/5/5 4/4/4
f 9/9/9 8/8/8 7/7/7
f 12/12/12 11/11/11 10/10/10
f 15/15/15 14/14/14 13/13/13
f 18/18/18 17/17/17 16/16/16
f 21/21/21 20/20/20 19/19/19
f 24/24/24 23/23/23 22/22/22
f 27/27/27 26/26/26 25/25/25
f 30/30/30 29/29/29 28/28/28
f 33/33/33 32/32/32 31/31/31
f 36/36/36 35/35/35 34/34/34
f 39/39/39 38/38/38 37/37/37
f 42/42/42 41/41/41 40/40/40
f 45/45/45 44/44/44 43/43/43
f 48/48/48 47/47/47 46/46/46
