# Generated by Wraith - Game extraction tools
# Please credit DTZxPorter for using it!

v 23.865849 2.281077 -2.040956
v 23.865849 -2.081802 -2.040956
v 23.865849 0.091455 2.040956
v -0.002873 0.041092 0.000000
v 1.339560 -2.486787 -2.615146
v 1.339560 2.730574 -2.615148
v -0.002873 0.041092 0.000000
v 1.339560 2.730574 -2.615148
v 1.339560 0.091455 2.615148
v 1.339560 0.091455 2.615148
v 1.339560 -2.486787 -2.615146
v -0.002873 0.041092 0.000000
v 1.339560 2.730574 -2.615148
v 18.426941 2.730574 -2.615148
v 1.339560 0.091455 2.615148
v 18.426941 2.730574 -2.615148
v 18.426941 0.091455 2.615148
v 1.339560 0.091455 2.615148
v 1.339560 0.091455 2.615148
v 18.426941 0.091455 2.615148
v 1.339560 -2.486787 -2.615146
v 18.426941 0.091455 2.615148
v 18.426941 -2.486787 -2.615148
v 1.339560 -2.486787 -2.615146
v 18.426941 -2.486787 -2.615148
v 18.426941 2.730574 -2.615148
v 1.339560 -2.486787 -2.615146
v 18.426941 2.730574 -2.615148
v 1.339560 2.730574 -2.615148
v 1.339560 -2.486787 -2.615146
v 23.865849 0.091455 2.040956
v 18.426941 0.091455 2.615148
v 23.865849 2.281077 -2.040956
v 18.426941 0.091455 2.615148
v 18.426941 2.730574 -2.615148
v 23.865849 2.281077 -2.040956
v 18.426941 -2.486787 -2.615148
v 18.426941 0.091455 2.615148
v 23.865849 -2.081802 -2.040956
v 18.426941 0.091455 2.615148
v 23.865849 0.091455 2.040956
v 23.865849 -2.081802 -2.040956
v 18.426941 2.730574 -2.615148
v 18.426941 -2.486787 -2.615148
v 23.865849 2.281077 -2.040956
v 18.426941 -2.486787 -2.615148
v 23.865849 -2.081802 -2.040956
v 23.865849 2.281077 -2.040956
vt 0.932617 0.626465
vt 0.744141 0.626465
vt 0.853027 0.713623
vt 0.833496 0.870605
vt 0.941895 0.874756
vt 0.720215 0.871704
vt 0.833496 0.870605
vt 0.720215 0.871704
vt 0.812988 0.975647
vt 0.812988 0.975647
vt 0.941895 0.874756
vt 0.833496 0.870605
vt 0.706543 0.634277
vt 0.179443 0.634277
vt 0.706543 0.736816
vt 0.179443 0.634277
vt 0.179443 0.736816
vt 0.706543 0.736816
vt 0.706543 0.736816
vt 0.179443 0.736816
vt 0.706543 0.871460
vt 0.179443 0.736816
vt 0.179443 0.871460
vt 0.706543 0.871460
vt 0.179443 0.871460
vt 0.179443 0.634277
vt 0.706543 0.871460
vt 0.179443 0.634277
vt 0.706543 0.634277
vt 0.706543 0.871460
vt 0.005829 0.736816
vt 0.179443 0.736816
vt 0.005829 0.634277
vt 0.179443 0.736816
vt 0.179443 0.634277
vt 0.005829 0.634277
vt 0.179443 0.871460
vt 0.179443 0.736816
vt 0.005829 0.871460
vt 0.179443 0.736816
vt 0.005829 0.736816
vt 0.005829 0.871460
vt 0.179443 0.634277
vt 0.179443 0.871460
vt 0.005829 0.634277
vt 0.179443 0.871460
vt 0.005829 0.871460
vt 0.005829 0.634277
vn 1.000000 0.000000 0.000000
vn 1.000000 0.000000 0.000000
vn 1.000000 0.000000 0.000000
vn 0.000000 -0.624266 0.782779
vn -0.356164 -0.841487 -0.405088
vn -0.356164 0.935421 0.000000
vn 0.000000 -0.624266 0.782779
vn -0.356164 0.935421 0.000000
vn -0.356164 -0.207436 0.911937
vn -0.356164 -0.207436 0.911937
vn -0.356164 -0.841487 -0.405088
vn 0.000000 -0.624266 0.782779
vn 0.000000 0.890411 0.454012
vn 0.000000 0.890411 0.454012
vn 0.000000 0.890411 0.454012
vn 0.000000 0.890411 0.454012
vn 0.000000 0.890411 0.454012
vn 0.000000 0.890411 0.454012
vn 0.000000 -0.894325 0.446184
vn 0.000000 -0.894325 0.446184
vn 0.000000 -0.894325 0.446184
vn 0.000000 -0.894325 0.446184
vn 0.000000 -0.894325 0.446184
vn 0.000000 -0.894325 0.446184
vn 0.000000 0.000000 -1.000000
vn 0.000000 0.000000 -1.000000
vn 0.000000 0.000000 -1.000000
vn 0.000000 0.000000 -1.000000
vn 0.000000 0.000000 -1.000000
vn 0.000000 0.000000 -1.000000
vn 0.029354 0.884540 0.463796
vn 0.029354 0.884540 0.463796
vn 0.029354 0.884540 0.463796
vn 0.029354 0.884540 0.463796
vn 0.029354 0.884540 0.463796
vn 0.029354 0.884540 0.463796
vn 0.027397 -0.888454 0.457926
vn 0.027397 -0.888454 0.457926
vn 0.027397 -0.888454 0.457926
vn 0.027397 -0.888454 0.457926
vn 0.027397 -0.888454 0.457926
vn 0.027397 -0.888454 0.457926
vn 0.086106 0.000000 -0.996086
vn 0.086106 0.000000 -0.996086
vn 0.086106 0.000000 -0.996086
vn 0.086106 0.000000 -0.996086
vn 0.086106 0.000000 -0.996086
vn 0.086106 0.000000 -0.996086
mtllib mtl_t6_attach_shotgun_silencer1.mtl
g mtl_t6_attach_shotgun_silencer1
usemtl mtl_t6_attach_shotgun_silencer1
f 3/3/3 2/2/2 1/1/1
f 6/6/6 5/5/5 4/4/4
f 9/9/9 8/8/8 7/7/7
f 12/12/12 11/11/11 10/10/10
f 15/15/15 14/14/14 13/13/13
f 18/18/18 17/17/17 16/16/16
f 21/21/21 20/20/20 19/19/19
f 24/24/24 23/23/23 22/22/22
f 27/27/27 26/26/26 25/25/25
f 30/30/30 29/29/29 28/28/28
f 33/33/33 32/32/32 31/31/31
f 36/36/36 35/35/35 34/34/34
f 39/39/39 38/38/38 37/37/37
f 42/42/42 41/41/41 40/40/40
f 45/45/45 44/44/44 43/43/43
f 48/48/48 47/47/47 46/46/46
