# Generated by Wraith - Game extraction tools
# Please credit DTZxPorter for using it!

v 1.839913 1.091154 1.335141
v 0.935259 1.035446 2.925849
v 1.839913 1.035446 2.925849
v -0.657118 1.035446 1.361191
v 0.935259 1.035446 2.925849
v 1.839913 1.091154 1.335141
v 1.839913 -1.099983 1.335141
v 1.839913 -1.044275 2.925849
v 0.935259 -1.044275 2.925849
v -0.657118 -1.044275 1.361191
v 1.839913 -1.099983 1.335141
v 0.935259 -1.044275 2.925849
v 1.839913 -1.256797 2.925849
v 0.935259 -1.251072 2.925849
v 1.839913 -0.004415 3.547677
v 0.935259 -1.251072 2.925849
v 0.935259 -0.004415 3.547677
v 1.839913 -0.004415 3.547677
v 1.839913 -0.004415 3.547677
v 0.935259 -0.004415 3.547677
v 0.935259 1.251057 2.925849
v 1.839913 1.256779 2.925849
v 1.839913 -0.004415 3.547677
v 0.935259 1.251057 2.925849
v 0.935259 -0.004415 3.320582
v 0.935259 -1.044275 2.925849
v 1.839913 -1.044275 2.925849
v 1.839913 -0.004415 3.320582
v 0.935259 -0.004415 3.320582
v 1.839913 -1.044275 2.925849
v 1.839913 -0.004415 3.320582
v 1.839913 1.035446 2.925849
v 0.935259 -0.004415 3.320582
v 1.839913 1.035446 2.925849
v 0.935259 1.035446 2.925849
v 0.935259 -0.004415 3.320582
v -0.657118 1.253917 1.361191
v 0.935259 1.251057 2.925849
v -0.657118 1.035446 1.361191
v 0.935259 1.251057 2.925849
v 0.935259 1.035446 2.925849
v -0.657118 1.035446 1.361191
v 0.935259 1.251057 2.925849
v 0.935259 -0.004415 3.547677
v 0.935259 1.035446 2.925849
v 0.935259 -0.004415 3.547677
v 0.935259 -0.004415 3.320582
v 0.935259 1.035446 2.925849
v 0.935259 -0.004415 3.320582
v 0.935259 -0.004415 3.547677
v 0.935259 -1.044275 2.925849
v 0.935259 -0.004415 3.547677
v 0.935259 -1.251072 2.925849
v 0.935259 -1.044275 2.925849
v -0.657118 -1.044275 1.361191
v 0.935259 -1.044275 2.925849
v 0.935259 -1.251072 2.925849
v -0.657118 -1.253935 1.361191
v -0.657118 -1.044275 1.361191
v 0.935259 -1.251072 2.925849
v 1.839913 1.253917 0.000000
v 1.839913 1.253917 0.579293
v -2.141926 1.253917 0.000000
v -2.141926 1.253917 0.000000
v 1.839913 1.253917 0.579293
v -2.141926 1.253917 1.109731
v -2.141926 1.253917 1.109731
v 1.839913 1.253917 0.579293
v -0.657118 1.253917 1.361191
v 1.839913 1.253917 0.579293
v 1.839913 1.253917 1.335141
v -0.657118 1.253917 1.361191
v 0.935259 1.251057 2.925849
v -0.657118 1.253917 1.361191
v 1.839913 1.253917 1.335141
v 1.839913 1.256779 2.925849
v 0.935259 1.251057 2.925849
v 1.839913 1.253917 1.335141
v 1.839913 1.256779 2.925849
v 1.839913 1.253917 1.335141
v 1.839913 1.091154 1.335141
v 1.839913 1.035446 2.925849
v 1.839913 1.256779 2.925849
v 1.839913 1.091154 1.335141
v 1.839913 -0.004415 3.547677
v 1.839913 1.256779 2.925849
v 1.839913 1.035446 2.925849
v 1.839913 -0.004415 3.320582
v 1.839913 -0.004415 3.547677
v 1.839913 1.035446 2.925849
v 1.839913 -0.004415 3.547677
v 1.839913 -0.004415 3.320582
v 1.839913 -1.044275 2.925849
v 1.839913 -1.256797 2.925849
v 1.839913 -0.004415 3.547677
v 1.839913 -1.044275 2.925849
v 1.839913 -1.256797 2.925849
v 1.839913 -1.044275 2.925849
v 1.839913 -1.099983 1.335141
v 1.839913 -1.253935 1.335141
v 1.839913 -1.256797 2.925849
v 1.839913 -1.099983 1.335141
v 1.839913 -1.253935 0.579293
v 1.839913 1.253917 0.579293
v 1.839913 -1.253935 0.000000
v 1.839913 1.253917 0.579293
v 1.839913 1.253917 0.000000
v 1.839913 -1.253935 0.000000
v 1.839913 1.253917 0.579293
v 1.839913 1.091154 1.335141
v 1.839913 1.253917 1.335141
v 1.839913 1.253917 0.579293
v 1.839913 -1.253935 0.579293
v 1.839913 1.091154 1.335141
v 1.839913 -1.253935 0.579293
v 1.839913 -1.099983 1.335141
v 1.839913 1.091154 1.335141
v 1.839913 -1.253935 0.579293
v 1.839913 -1.253935 1.335141
v 1.839913 -1.099983 1.335141
v -2.141926 1.253917 0.000000
v -2.141926 -1.253935 0.000000
v 1.839913 1.253917 0.000000
v -2.141926 -1.253935 0.000000
v 1.839913 -1.253935 0.000000
v 1.839913 1.253917 0.000000
v -2.141926 1.253917 0.000000
v -2.141926 1.253917 1.109731
v -2.141926 -1.253935 0.000000
v -2.141926 1.253917 1.109731
v -2.141926 -1.253935 1.109731
v -2.141926 -1.253935 0.000000
v -0.657118 1.253917 1.361191
v -0.657118 1.035446 1.361191
v -2.141926 1.253917 1.109731
v -2.141926 1.253917 1.109731
v -0.657118 1.035446 1.361191
v -2.141926 -1.253935 1.109731
v -0.657118 1.035446 1.361191
v -0.657118 -1.044275 1.361191
v -2.141926 -1.253935 1.109731
v -0.657118 -1.253935 1.361191
v -2.141926 -1.253935 1.109731
v -0.657118 -1.044275 1.361191
v -0.657118 1.035446 1.361191
v 1.839913 1.091154 1.335141
v -0.657118 -1.044275 1.361191
v 1.839913 1.091154 1.335141
v 1.839913 -1.099983 1.335141
v -0.657118 -1.044275 1.361191
v 1.839913 -1.256797 2.925849
v 1.839913 -1.253935 1.335141
v 0.935259 -1.251072 2.925849
v 1.839913 -1.253935 1.335141
v -0.657118 -1.253935 1.361191
v 0.935259 -1.251072 2.925849
v 1.839913 -1.253935 0.579293
v -0.657118 -1.253935 1.361191
v 1.839913 -1.253935 1.335141
v 1.839913 -1.253935 0.000000
v -0.657118 -1.253935 1.361191
v 1.839913 -1.253935 0.579293
v -2.141926 -1.253935 1.109731
v -0.657118 -1.253935 1.361191
v 1.839913 -1.253935 0.000000
v -2.141926 -1.253935 0.000000
v -2.141926 -1.253935 1.109731
v 1.839913 -1.253935 0.000000
vt 0.469482 0.301758
vt 0.434814 0.530762
vt 0.502441 0.548828
vt 0.269287 0.326172
vt 0.434814 0.530762
vt 0.469482 0.301758
vt -0.530273 0.301758
vt -0.497314 0.548828
vt -0.564941 0.530762
vt -0.730469 0.326172
vt -0.530273 0.301758
vt -0.564941 0.530762
vt 0.931641 0.716797
vt 0.930664 0.608887
vt 0.734375 0.716797
vt 0.930664 0.608887
vt 0.734375 0.608887
vt 0.734375 0.716797
vt 0.734375 0.716797
vt 0.734375 0.608887
vt 0.537109 0.608887
vt 0.536133 0.716797
vt 0.734375 0.716797
vt 0.537109 0.608887
vt -0.267578 0.716309
vt -0.113525 0.716309
vt -0.113647 0.608887
vt -0.267578 0.608887
vt -0.267578 0.716309
vt -0.113647 0.608887
vt -0.267578 0.608887
vt -0.418213 0.608887
vt -0.267578 0.716309
vt -0.418213 0.608887
vt -0.418213 0.716309
vt -0.267578 0.716309
vt 0.462158 0.615723
vt 0.420898 0.907715
vt 0.424561 0.615723
vt 0.420898 0.907715
vt 0.388428 0.886963
vt 0.424561 0.615723
vt 0.420898 0.907715
vt 0.238037 1.002623
vt 0.388428 0.886963
vt 0.238037 1.002623
vt 0.238037 0.956238
vt 0.388428 0.886963
vt 0.238037 0.956238
vt 0.238037 1.002623
vt 0.087341 0.886963
vt 0.238037 1.002623
vt 0.055878 0.907715
vt 0.087341 0.886963
vt 0.051666 0.615723
vt 0.087341 0.886963
vt 0.055878 0.907715
vt 0.015602 0.615723
vt 0.051666 0.615723
vt 0.055878 0.907715
vt 0.006554 0.003906
vt 0.006554 0.104492
vt 0.494141 0.003906
vt 0.494141 0.003906
vt 0.006554 0.104492
vt 0.494141 0.187988
vt 0.494141 0.187988
vt 0.006554 0.104492
vt 0.308350 0.235352
vt 0.006554 0.104492
vt 0.004265 0.222656
vt 0.308350 0.235352
vt 0.111877 0.473145
vt 0.308350 0.235352
vt 0.004265 0.222656
vt 0.006554 0.473145
vt 0.111877 0.473145
vt 0.004265 0.222656
vt -0.587891 0.921631
vt -0.538086 0.584473
vt -0.577148 0.584473
vt -0.611816 0.901611
vt -0.587891 0.921631
vt -0.577148 0.584473
vt -0.761719 1.002623
vt -0.587891 0.921631
vt -0.611816 0.901611
vt -0.761719 0.956238
vt -0.761719 1.002623
vt -0.611816 0.901611
vt -0.761719 1.002623
vt -0.761719 0.956238
vt -0.912598 0.901611
vt -0.936035 0.921631
vt -0.761719 1.002623
vt -0.912598 0.901611
vt -0.936035 0.921631
vt -0.912598 0.901611
vt -0.948730 0.584473
vt -0.986328 0.584473
vt -0.936035 0.921631
vt -0.948730 0.584473
vt -0.514648 0.847656
vt -0.015114 0.847656
vt -0.514648 0.773315
vt -0.015114 0.847656
vt -0.015114 0.773315
vt -0.514648 0.773315
vt -0.121582 0.606689
vt -0.140747 0.714111
vt -0.121582 0.714111
vt -0.121582 0.606689
vt -0.417969 0.606689
vt -0.140747 0.714111
vt -0.417969 0.606689
vt -0.399902 0.714111
vt -0.140747 0.714111
vt -0.417969 0.606689
vt -0.417969 0.714111
vt -0.399902 0.714111
vt 0.169678 0.390137
vt 0.169678 0.500977
vt 0.348877 0.382324
vt 0.169678 0.500977
vt 0.348877 0.508545
vt 0.348877 0.382324
vt 0.503418 0.729736
vt 0.503418 0.966187
vt 0.964844 0.729736
vt 0.503418 0.966187
vt 0.964844 0.966187
vt 0.964844 0.729736
vt 0.072144 0.759644
vt 0.093018 0.759644
vt 0.072144 0.547363
vt 0.072144 0.547363
vt 0.093018 0.759644
vt 0.405762 0.547363
vt 0.093018 0.759644
vt 0.386230 0.759644
vt 0.405762 0.547363
vt 0.405762 0.759644
vt 0.405762 0.547363
vt 0.386230 0.759644
vt 0.582520 0.298340
vt 0.577637 0.504883
vt 0.762207 0.298340
vt 0.577637 0.504883
vt 0.767090 0.504883
vt 0.762207 0.298340
vt 0.992188 0.465820
vt 0.991211 0.225586
vt 0.884766 0.465820
vt 0.991211 0.225586
vt 0.687988 0.229004
vt 0.884766 0.465820
vt 0.992188 0.096680
vt 0.687988 0.229004
vt 0.991211 0.225586
vt 0.992188 0.004395
vt 0.687988 0.229004
vt 0.992188 0.096680
vt 0.505371 0.188965
vt 0.687988 0.229004
vt 0.992188 0.004395
vt 0.505371 0.004395
vt 0.505371 0.188965
vt 0.992188 0.004395
vn 0.000000 -1.000000 -0.035225
vn 0.000000 -0.812133 -0.583170
vn 0.000000 -0.812133 -0.583170
vn 0.021526 -1.000000 -0.021526
vn 0.021526 -1.000000 -0.021526
vn 0.021526 -1.000000 -0.021526
vn 0.000000 1.000000 -0.035225
vn 0.000000 1.000000 -0.035225
vn 0.000000 1.000000 -0.035225
vn 0.021526 1.000000 -0.021526
vn 0.021526 1.000000 -0.021526
vn 0.021526 1.000000 -0.021526
vn 0.000000 -1.000000 0.000000
vn 0.000000 -1.000000 0.000000
vn -0.035225 -0.129159 0.990215
vn 0.000000 -1.000000 0.000000
vn -0.035225 -0.129159 0.990215
vn -0.035225 -0.129159 0.990215
vn -0.035225 -0.129159 0.990215
vn -0.035225 -0.129159 0.990215
vn -0.033268 0.377691 0.925636
vn -0.033268 0.377691 0.925636
vn -0.035225 -0.129159 0.990215
vn -0.033268 0.377691 0.925636
vn 0.000000 0.107632 -0.994129
vn 0.000000 0.383562 -0.923679
vn 0.000000 0.383562 -0.923679
vn 0.000000 0.107632 -0.994129
vn 0.000000 0.107632 -0.994129
vn 0.000000 0.383562 -0.923679
vn 0.000000 0.107632 -0.994129
vn 0.000000 -0.812133 -0.583170
vn 0.000000 0.107632 -0.994129
vn 0.000000 -0.812133 -0.583170
vn 0.000000 -0.812133 -0.583170
vn 0.000000 0.107632 -0.994129
vn -0.454012 0.000000 0.890411
vn -0.954990 0.000000 0.293542
vn -0.360078 0.000000 0.933464
vn -0.954990 0.000000 0.293542
vn -1.000000 0.000000 0.000000
vn -0.360078 0.000000 0.933464
vn -0.954990 0.000000 0.293542
vn -1.000000 0.000000 0.000000
vn -1.000000 0.000000 0.000000
vn -1.000000 0.000000 0.000000
vn -1.000000 0.000000 0.000000
vn -1.000000 0.000000 0.000000
vn -1.000000 0.000000 0.000000
vn -1.000000 0.000000 0.000000
vn -0.954990 0.000000 0.293542
vn -1.000000 0.000000 0.000000
vn -0.954990 0.000000 0.293542
vn -0.954990 0.000000 0.293542
vn -0.360078 0.000000 0.933464
vn -0.954990 0.000000 0.293542
vn -0.954990 0.000000 0.293542
vn -0.454012 0.000000 0.890411
vn -0.360078 0.000000 0.933464
vn -0.954990 0.000000 0.293542
vn 0.000000 1.000000 0.000000
vn 0.000000 1.000000 0.000000
vn 0.000000 1.000000 0.000000
vn 0.000000 1.000000 0.000000
vn 0.000000 1.000000 0.000000
vn 0.000000 1.000000 0.000000
vn 0.000000 1.000000 0.000000
vn 0.000000 1.000000 0.000000
vn 0.000000 1.000000 0.000000
vn 0.000000 1.000000 0.000000
vn 0.000000 1.000000 0.000000
vn 0.000000 1.000000 0.000000
vn 0.000000 1.000000 0.000000
vn 0.000000 1.000000 0.000000
vn 0.000000 1.000000 0.000000
vn 0.000000 1.000000 0.000000
vn 0.000000 1.000000 0.000000
vn 0.000000 1.000000 0.000000
vn 1.000000 0.000000 0.000000
vn 1.000000 0.000000 0.000000
vn 1.000000 0.000000 0.000000
vn 1.000000 0.000000 0.000000
vn 1.000000 0.000000 0.000000
vn 1.000000 0.000000 0.000000
vn 1.000000 0.000000 0.000000
vn 1.000000 0.000000 0.000000
vn 1.000000 0.000000 0.000000
vn 1.000000 0.000000 0.000000
vn 1.000000 0.000000 0.000000
vn 1.000000 0.000000 0.000000
vn 1.000000 0.000000 0.000000
vn 1.000000 0.000000 0.000000
vn 1.000000 0.000000 0.000000
vn 1.000000 0.000000 0.000000
vn 1.000000 0.000000 0.000000
vn 1.000000 0.000000 0.000000
vn 1.000000 0.000000 0.000000
vn 1.000000 0.000000 0.000000
vn 1.000000 0.000000 0.000000
vn 1.000000 0.000000 0.000000
vn 1.000000 0.000000 0.000000
vn 1.000000 0.000000 0.000000
vn 1.000000 0.000000 0.000000
vn 1.000000 0.000000 0.000000
vn 1.000000 0.000000 0.000000
vn 1.000000 0.000000 0.000000
vn 1.000000 0.000000 0.000000
vn 1.000000 0.000000 0.000000
vn 1.000000 0.000000 0.000000
vn 1.000000 0.000000 0.000000
vn 1.000000 0.000000 0.000000
vn 1.000000 0.000000 0.000000
vn 1.000000 0.000000 0.000000
vn 1.000000 0.000000 0.000000
vn 1.000000 0.000000 0.000000
vn 1.000000 0.000000 0.000000
vn 1.000000 0.000000 0.000000
vn 1.000000 0.000000 0.000000
vn 1.000000 0.000000 0.000000
vn 1.000000 0.000000 0.000000
vn 0.000000 0.000000 -1.000000
vn 0.000000 0.000000 -1.000000
vn 0.000000 0.000000 -1.000000
vn 0.000000 0.000000 -1.000000
vn 0.000000 0.000000 -1.000000
vn 0.000000 0.000000 -1.000000
vn -1.000000 0.000000 0.000000
vn -1.000000 0.000000 0.000000
vn -1.000000 0.000000 0.000000
vn -1.000000 0.000000 0.000000
vn -1.000000 0.000000 0.000000
vn -1.000000 0.000000 0.000000
vn -0.454012 0.000000 0.890411
vn -0.360078 0.000000 0.933464
vn -0.166341 0.000000 0.986301
vn -0.166341 0.000000 0.986301
vn -0.360078 0.000000 0.933464
vn -0.166341 0.000000 0.986301
vn -0.360078 0.000000 0.933464
vn -0.360078 0.000000 0.933464
vn -0.166341 0.000000 0.986301
vn -0.454012 0.000000 0.890411
vn -0.166341 0.000000 0.986301
vn -0.360078 0.000000 0.933464
vn 0.009785 0.000000 1.000000
vn 0.009785 0.000000 1.000000
vn 0.009785 0.000000 1.000000
vn 0.009785 0.000000 1.000000
vn 0.009785 0.000000 1.000000
vn 0.009785 0.000000 1.000000
vn 0.000000 -1.000000 0.000000
vn 0.000000 -1.000000 0.000000
vn 0.000000 -1.000000 0.000000
vn 0.000000 -1.000000 0.000000
vn 0.000000 -1.000000 0.000000
vn 0.000000 -1.000000 0.000000
vn 0.000000 -1.000000 0.000000
vn 0.000000 -1.000000 0.000000
vn 0.000000 -1.000000 0.000000
vn 0.000000 -1.000000 0.000000
vn 0.000000 -1.000000 0.000000
vn 0.000000 -1.000000 0.000000
vn 0.000000 -1.000000 0.000000
vn 0.000000 -1.000000 0.000000
vn 0.000000 -1.000000 0.000000
vn 0.000000 -1.000000 0.000000
vn 0.000000 -1.000000 0.000000
vn 0.000000 -1.000000 0.000000
mtllib mtl_t6_attach_optic_rmr.mtl
g mtl_t6_attach_optic_rmr
usemtl mtl_t6_attach_optic_rmr
f 3/3/3 2/2/2 1/1/1
f 6/6/6 5/5/5 4/4/4
f 9/9/9 8/8/8 7/7/7
f 12/12/12 11/11/11 10/10/10
f 15/15/15 14/14/14 13/13/13
f 18/18/18 17/17/17 16/16/16
f 21/21/21 20/20/20 19/19/19
f 24/24/24 23/23/23 22/22/22
f 27/27/27 26/26/26 25/25/25
f 30/30/30 29/29/29 28/28/28
f 33/33/33 32/32/32 31/31/31
f 36/36/36 35/35/35 34/34/34
f 39/39/39 38/38/38 37/37/37
f 42/42/42 41/41/41 40/40/40
f 45/45/45 44/44/44 43/43/43
f 48/48/48 47/47/47 46/46/46
f 51/51/51 50/50/50 49/49/49
f 54/54/54 53/53/53 52/52/52
f 57/57/57 56/56/56 55/55/55
f 60/60/60 59/59/59 58/58/58
f 63/63/63 62/62/62 61/61/61
f 66/66/66 65/65/65 64/64/64
f 69/69/69 68/68/68 67/67/67
f 72/72/72 71/71/71 70/70/70
f 75/75/75 74/74/74 73/73/73
f 78/78/78 77/77/77 76/76/76
f 81/81/81 80/80/80 79/79/79
f 84/84/84 83/83/83 82/82/82
f 87/87/87 86/86/86 85/85/85
f 90/90/90 89/89/89 88/88/88
f 93/93/93 92/92/92 91/91/91
f 96/96/96 95/95/95 94/94/94
f 99/99/99 98/98/98 97/97/97
f 102/102/102 101/101/101 100/100/100
f 105/105/105 104/104/104 103/103/103
f 108/108/108 107/107/107 106/106/106
f 111/111/111 110/110/110 109/109/109
f 114/114/114 113/113/113 112/112/112
f 117/117/117 116/116/116 115/115/115
f 120/120/120 119/119/119 118/118/118
f 123/123/123 122/122/122 121/121/121
f 126/126/126 125/125/125 124/124/124
f 129/129/129 128/128/128 127/127/127
f 132/132/132 131/131/131 130/130/130
f 135/135/135 134/134/134 133/133/133
f 138/138/138 137/137/137 136/136/136
f 141/141/141 140/140/140 139/139/139
f 144/144/144 143/143/143 142/142/142
f 147/147/147 146/146/146 145/145/145
f 150/150/150 149/149/149 148/148/148
f 153/153/153 152/152/152 151/151/151
f 156/156/156 155/155/155 154/154/154
f 159/159/159 158/158/158 157/157/157
f 162/162/162 161/161/161 160/160/160
f 165/165/165 164/164/164 163/163/163
f 168/168/168 167/167/167 166/166/166
