# Generated by Wraith - Game extraction tools
# Please credit DTZxPorter for using it!

v -0.279121 0.226919 -2.936186
v -0.650031 -1.060653 -8.212071
v -0.650031 1.264806 -8.212071
v 8.770582 0.226919 -2.936186
v 8.770582 -1.060630 -7.662342
v 8.770582 1.264806 -7.662342
v -2.024310 -1.060653 -8.212071
v -2.233197 0.102088 -8.559987
v -2.024310 1.264806 -8.212071
v 10.197648 -1.060630 -7.662342
v 10.197648 1.264806 -7.662342
v 9.920282 0.102095 -8.110271
v 10.197648 0.226919 -2.936186
v 10.197648 1.264806 -7.662342
v 10.197648 -1.060630 -7.662342
v 10.037214 2.202561 -7.073349
v 10.037214 0.162469 -3.146072
v 10.037214 -1.877624 -7.073349
v 20.551010 0.162469 -2.664493
v 17.146894 2.636639 -7.073349
v 17.146898 -2.311702 -7.073349
v 0.827234 -1.235253 -6.741185
v 0.827234 0.159809 -3.265914
v 0.827234 1.554871 -6.741185
v 8.816929 -1.235253 -6.741185
v 8.816929 1.554871 -6.741185
v 8.816929 0.159809 -3.265914
v -5.824908 -1.424564 -7.115421
v -5.824908 1.744182 -7.077496
v -5.824906 0.141254 -3.556633
v 0.205622 0.136700 -3.189920
v 0.205622 2.113079 -7.073349
v 0.205622 -1.793461 -7.119571
v 8.770582 -1.060630 -7.662342
v 8.770582 0.226919 -2.936186
v 10.197648 -1.060630 -7.662342
v 8.770582 0.226919 -2.936186
v 10.197648 0.226919 -2.936186
v 10.197648 -1.060630 -7.662342
v 8.770582 1.264806 -7.662342
v 8.770582 -1.060630 -7.662342
v 6.554183 -1.060613 -7.662342
v 6.554183 1.264806 -7.662342
v 8.770582 1.264806 -7.662342
v 6.554183 -1.060613 -7.662342
v 6.554183 1.264806 -7.662342
v 6.554183 -1.060613 -7.662342
v 5.304209 1.264806 -8.212071
v 6.554183 -1.060613 -7.662342
v 5.304209 -1.060613 -8.212071
v 5.304209 1.264806 -8.212071
v -0.650031 -1.060653 -8.212071
v -2.024310 -1.060653 -8.212071
v -0.650031 1.264806 -8.212071
v -2.024310 -1.060653 -8.212071
v -2.024310 1.264806 -8.212071
v -0.650031 1.264806 -8.212071
v 8.770582 -1.060630 -7.662342
v 10.197648 -1.060630 -7.662342
v 9.920282 0.102095 -8.110271
v 9.920282 0.102095 -8.110271
v 6.405717 0.102095 -8.110271
v 8.770582 -1.060630 -7.662342
v 6.405717 0.102095 -8.110271
v 6.554183 -1.060613 -7.662342
v 8.770582 -1.060630 -7.662342
v 6.554183 -1.060613 -7.662342
v 6.405717 0.102095 -8.110271
v 5.304209 -1.060613 -8.212071
v 6.405717 0.102095 -8.110271
v 5.636961 0.102095 -8.559987
v 5.304209 -1.060613 -8.212071
v 1.348471 -1.060613 -8.212071
v 5.304209 -1.060613 -8.212071
v 5.636961 0.102095 -8.559987
v 1.348471 -1.060613 -8.212071
v 5.636961 0.102095 -8.559987
v -2.233197 0.102088 -8.559987
v -0.650031 -1.060653 -8.212071
v 1.348471 -1.060613 -8.212071
v -2.233197 0.102088 -8.559987
v -2.233197 0.102088 -8.559987
v -2.024310 -1.060653 -8.212071
v -0.650031 -1.060653 -8.212071
v -0.650031 1.264806 -8.212071
v -2.024310 1.264806 -8.212071
v -2.233197 0.102088 -8.559987
v -0.650031 1.264806 -8.212071
v -2.233197 0.102088 -8.559987
v 1.348471 1.264806 -8.212071
v -2.233197 0.102088 -8.559987
v 5.636961 0.102095 -8.559987
v 1.348471 1.264806 -8.212071
v 5.636961 0.102095 -8.559987
v 5.304209 1.264806 -8.212071
v 1.348471 1.264806 -8.212071
v 5.636961 0.102095 -8.559987
v 6.405717 0.102095 -8.110271
v 5.304209 1.264806 -8.212071
v 6.405717 0.102095 -8.110271
v 6.554183 1.264806 -7.662342
v 5.304209 1.264806 -8.212071
v 8.770582 1.264806 -7.662342
v 6.554183 1.264806 -7.662342
v 6.405717 0.102095 -8.110271
v 9.920282 0.102095 -8.110271
v 8.770582 1.264806 -7.662342
v 6.405717 0.102095 -8.110271
v 9.920282 0.102095 -8.110271
v 10.197648 1.264806 -7.662342
v 8.770582 1.264806 -7.662342
v 5.304209 1.264806 -8.212071
v 5.304209 -1.060613 -8.212071
v 1.348471 1.264806 -8.212071
v 5.304209 -1.060613 -8.212071
v 1.348471 -1.060613 -8.212071
v 1.348471 1.264806 -8.212071
v 0.999292 0.226919 -2.936186
v 1.348471 1.264806 -8.212071
v 1.348471 -1.060613 -8.212071
v 10.037214 -1.877624 -7.073349
v 11.649113 -2.311702 -7.073349
v 10.037214 2.202561 -7.073349
v 11.649113 -2.311702 -7.073349
v 11.649113 2.636639 -7.073349
v 10.037214 2.202561 -7.073349
v 11.649113 0.162469 -2.664493
v 11.649113 -2.311702 -7.073349
v 10.037214 0.162469 -3.146072
v 11.649113 -2.311702 -7.073349
v 10.037214 -1.877624 -7.073349
v 10.037214 0.162469 -3.146072
v 11.649113 0.162469 -2.664493
v 10.037214 0.162469 -3.146072
v 11.649113 2.636639 -7.073349
v 10.037214 0.162469 -3.146072
v 10.037214 2.202561 -7.073349
v 11.649113 2.636639 -7.073349
v 11.649113 2.636639 -7.073349
v 11.649113 -2.311702 -7.073349
v 17.146898 -2.311702 -7.073349
v 17.146898 -2.311702 -7.073349
v 11.649113 -2.311702 -7.073349
v 11.649113 0.162469 -2.664493
v 20.551010 0.162469 -2.664493
v 17.146898 -2.311702 -7.073349
v 11.649113 0.162469 -2.664493
v 17.146894 2.636639 -7.073349
v 11.649113 2.636639 -7.073349
v 17.146898 -2.311702 -7.073349
v 11.649113 2.636639 -7.073349
v 17.146894 2.636639 -7.073349
v 11.649113 0.162469 -2.664493
v 17.146894 2.636639 -7.073349
v 20.551010 0.162469 -2.664493
v 11.649113 0.162469 -2.664493
v 0.827234 1.554871 -6.741185
v 0.827234 0.159809 -3.265914
v 8.816929 1.554871 -6.741185
v 0.827234 0.159809 -3.265914
v 8.816929 0.159809 -3.265914
v 8.816929 1.554871 -6.741185
v 0.827234 0.159809 -3.265914
v 0.827234 -1.235253 -6.741185
v 8.816929 0.159809 -3.265914
v 0.827234 -1.235253 -6.741185
v 8.816929 -1.235253 -6.741185
v 8.816929 0.159809 -3.265914
v 8.816929 -1.235253 -6.741185
v 0.827234 -1.235253 -6.741185
v 8.816929 1.554871 -6.741185
v 0.827234 -1.235253 -6.741185
v 0.827234 1.554871 -6.741185
v 8.816929 1.554871 -6.741185
v -5.824908 1.744182 -7.077496
v -3.470340 2.113079 -7.073349
v -5.824906 0.141254 -3.556633
v -3.470340 2.113079 -7.073349
v -3.470345 0.136700 -3.189920
v -5.824906 0.141254 -3.556633
v 10.197648 1.264806 -7.662342
v 10.197648 0.226919 -2.936186
v 8.770582 1.264806 -7.662342
v 10.197648 0.226919 -2.936186
v 8.770582 0.226919 -2.936186
v 8.770582 1.264806 -7.662342
v -0.650031 1.264806 -8.212071
v 1.348471 1.264806 -8.212071
v -0.279121 0.226919 -2.936186
v 1.348471 1.264806 -8.212071
v 0.999292 0.226919 -2.936186
v -0.279121 0.226919 -2.936186
v -0.279121 0.226919 -2.936186
v 0.999292 0.226919 -2.936186
v 1.348471 -1.060613 -8.212071
v -0.650031 -1.060653 -8.212071
v -0.279121 0.226919 -2.936186
v 1.348471 -1.060613 -8.212071
v -3.470340 -1.793461 -7.119571
v 0.205622 -1.793461 -7.119571
v -3.470340 2.113079 -7.073349
v 0.205622 -1.793461 -7.119571
v 0.205622 2.113079 -7.073349
v -3.470340 2.113079 -7.073349
v -3.470340 2.113079 -7.073349
v 0.205622 2.113079 -7.073349
v -3.470345 0.136700 -3.189920
v 0.205622 2.113079 -7.073349
v 0.205622 0.136700 -3.189920
v -3.470345 0.136700 -3.189920
v -3.470345 0.136700 -3.189920
v 0.205622 0.136700 -3.189920
v -3.470340 -1.793461 -7.119571
v 0.205622 0.136700 -3.189920
v 0.205622 -1.793461 -7.119571
v -3.470340 -1.793461 -7.119571
v -3.470340 -1.793461 -7.119571
v -3.470340 2.113079 -7.073349
v -5.824908 -1.424564 -7.115421
v -3.470340 2.113079 -7.073349
v -5.824908 1.744182 -7.077496
v -5.824908 -1.424564 -7.115421
v -3.470345 0.136700 -3.189920
v -3.470340 -1.793461 -7.119571
v -5.824906 0.141254 -3.556633
v -3.470340 -1.793461 -7.119571
v -5.824908 -1.424564 -7.115421
v -5.824906 0.141254 -3.556633
vt 0.601563 0.006836
vt 0.575684 0.178711
vt 0.637207 0.173340
vt 0.309082 0.391602
vt 0.271484 0.135254
vt 0.376709 0.135254
vt 0.958008 0.690430
vt 0.944824 0.720215
vt 0.958008 0.750000
vt 0.951660 0.377930
vt 0.871582 0.377441
vt 0.911621 0.405273
vt 0.309082 0.391602
vt 0.362549 0.160156
vt 0.279053 0.160156
vt 0.209961 0.172852
vt 0.224854 0.187500
vt 0.239624 0.172852
vt 0.307617 0.390137
vt 0.382324 0.216797
vt 0.204468 0.274902
vt 0.465088 0.741699
vt 0.573730 1.012375
vt 0.682617 0.741699
vt 0.508789 0.998009
vt 0.726563 0.998009
vt 0.617676 0.727295
vt 0.439209 0.271973
vt 0.207520 0.271973
vt 0.324219 0.386719
vt 1.039063 -0.282227
vt 1.326172 0.011230
vt 1.333008 -0.568359
vt 0.951172 0.915283
vt 0.641113 0.915283
vt 0.951172 0.978867
vt 0.641113 0.915283
vt 0.641113 0.978851
vt 0.951172 0.978867
vt 0.332031 0.499512
vt 0.332031 0.534424
vt 0.379883 0.534424
vt 0.379883 0.499512
vt 0.332031 0.499512
vt 0.379883 0.534424
vt 0.379883 0.499512
vt 0.379883 0.534424
vt 0.407227 0.499512
vt 0.379883 0.534424
vt 0.407227 0.534424
vt 0.407227 0.499512
vt 0.752441 0.149902
vt 0.752441 0.119629
vt 0.713867 0.149902
vt 0.752441 0.119629
vt 0.713867 0.119629
vt 0.713867 0.149902
vt 0.951172 0.915283
vt 0.951172 0.978867
vt 0.972656 0.964691
vt 0.972656 0.964691
vt 0.972656 0.784912
vt 0.951172 0.915283
vt 0.972656 0.784912
vt 0.951172 0.792603
vt 0.951172 0.915283
vt 0.951172 0.792603
vt 0.972656 0.784912
vt 0.977539 0.728760
vt 0.972656 0.784912
vt 0.994141 0.745605
vt 0.977539 0.728760
vt 0.977539 0.493164
vt 0.977539 0.728760
vt 0.994141 0.745605
vt 0.977539 0.493164
vt 0.994141 0.745605
vt 0.994141 0.310059
vt 0.977539 0.391113
vt 0.977539 0.493164
vt 0.994141 0.310059
vt 0.994141 0.310059
vt 0.977539 0.320801
vt 0.977539 0.391113
vt 0.972656 0.397949
vt 0.977539 0.320801
vt 0.994141 0.310059
vt 0.972656 0.397949
vt 0.994141 0.310059
vt 0.972656 0.485840
vt 0.994141 0.310059
vt 0.994141 0.745605
vt 0.972656 0.485840
vt 0.994141 0.745605
vt 0.977539 0.728760
vt 0.972656 0.485840
vt 0.994141 0.745605
vt 0.972656 0.784912
vt 0.977539 0.728760
vt 0.972656 0.784912
vt 0.951172 0.792603
vt 0.977539 0.728760
vt 0.951172 0.915283
vt 0.951172 0.792603
vt 0.972656 0.784912
vt 0.972656 0.964691
vt 0.951172 0.915283
vt 0.972656 0.784912
vt 0.972656 0.964691
vt 0.951172 0.978867
vt 0.951172 0.915283
vt 0.575684 0.332031
vt 0.637207 0.332031
vt 0.575684 0.173340
vt 0.637207 0.332031
vt 0.637207 0.179199
vt 0.575684 0.173340
vt 0.615234 0.006836
vt 0.575684 0.173340
vt 0.637207 0.179199
vt 0.180786 0.687988
vt 0.181030 0.647461
vt 0.180786 0.687988
vt 0.181030 0.647461
vt 0.181030 0.647461
vt 0.180786 0.687988
vt 0.097351 0.644775
vt 0.181030 0.647461
vt 0.102417 0.689941
vt 0.181030 0.647461
vt 0.180786 0.687988
vt 0.102417 0.689941
vt 0.109558 0.648193
vt 0.114014 0.688965
vt 0.181030 0.647461
vt 0.114014 0.688965
vt 0.180786 0.687988
vt 0.181030 0.647461
vt 0.181030 0.647461
vt 0.181030 0.647461
vt 0.181030 0.477051
vt 0.181030 0.477051
vt 0.181030 0.647461
vt 0.097351 0.644775
vt 0.101990 0.427734
vt 0.181030 0.477051
vt 0.097351 0.644775
vt 0.220459 0.501953
vt 0.181030 0.647461
vt 0.181030 0.477051
vt 0.181030 0.647461
vt 0.220459 0.501953
vt 0.109558 0.648193
vt 0.220459 0.501953
vt 0.101990 0.427734
vt 0.109558 0.648193
vt 0.940918 0.888062
vt 0.794434 0.888062
vt 0.940918 0.484863
vt 0.794434 0.888062
vt 0.794434 0.484863
vt 0.940918 0.484863
vt 1.179688 0.907410
vt 1.253906 0.907410
vt 1.179688 0.448242
vt 1.253906 0.907410
vt 1.253906 0.448242
vt 1.179688 0.448242
vt 1.253906 0.448242
vt 1.253906 0.907410
vt 1.312500 0.448242
vt 1.253906 0.907410
vt 1.312500 0.907410
vt 1.312500 0.448242
vt 0.637207 0.605469
vt 0.715332 0.605469
vt 0.637207 0.534424
vt 0.715332 0.605469
vt 0.715332 0.534424
vt 0.637207 0.534424
vt 0.951172 0.978867
vt 0.641113 0.978851
vt 0.951172 0.915283
vt 0.641113 0.978851
vt 0.641113 0.915283
vt 0.951172 0.915283
vt 0.972656 0.397949
vt 0.972656 0.485840
vt 0.641113 0.409668
vt 0.972656 0.485840
vt 0.641113 0.473633
vt 0.641113 0.409668
vt 0.641113 0.409668
vt 0.641113 0.473633
vt 0.977539 0.493164
vt 0.977539 0.391113
vt 0.641113 0.409668
vt 0.977539 0.493164
vt 0.715332 0.798340
vt 0.789551 0.739014
vt 0.715332 0.605469
vt 0.789551 0.739014
vt 0.790039 0.628662
vt 0.715332 0.605469
vt 0.715332 0.605469
vt 0.790039 0.628662
vt 0.715332 0.534424
vt 0.790039 0.628662
vt 0.790039 0.589844
vt 0.715332 0.534424
vt 0.715332 0.876648
vt 0.789063 0.794556
vt 0.715332 0.798340
vt 0.789063 0.794556
vt 0.789551 0.739014
vt 0.715332 0.798340
vt 0.715332 0.798340
vt 0.715332 0.605469
vt 0.637207 0.798340
vt 0.715332 0.605469
vt 0.637207 0.605469
vt 0.637207 0.798340
vt 0.715332 0.876648
vt 0.715332 0.798340
vt 0.637207 0.876648
vt 0.715332 0.798340
vt 0.637207 0.798340
vt 0.637207 0.876648
vn -0.998043 0.000000 0.070450
vn -0.681018 0.000000 0.731898
vn -0.681018 0.000000 0.731898
vn -1.000000 0.000000 0.000000
vn -1.000000 0.000000 0.000000
vn -1.000000 0.000000 0.000000
vn -0.857143 0.000000 0.514677
vn -0.857143 0.000000 0.514677
vn -0.857143 0.000000 0.514677
vn 0.849315 0.000000 -0.526419
vn 0.849315 0.000000 -0.526419
vn 0.849315 0.000000 -0.526419
vn 0.902153 0.009785 0.430528
vn 1.000000 0.000000 0.000000
vn 0.706458 -0.682975 0.185910
vn -1.000000 0.000000 0.000000
vn -1.000000 0.000000 0.000000
vn -1.000000 0.000000 0.000000
vn 0.790607 0.000000 -0.610568
vn 0.487280 0.536204 -0.688845
vn 0.487280 -0.536204 -0.688845
vn 1.000000 0.000000 0.000000
vn 1.000000 0.000000 0.000000
vn 1.000000 0.000000 0.000000
vn -1.000000 0.000000 0.000000
vn -1.000000 0.000000 0.000000
vn -1.000000 0.000000 0.000000
vn -1.000000 0.000000 0.000000
vn -1.000000 0.000000 0.000000
vn -1.000000 0.000000 0.000000
vn 1.000000 0.000000 0.000000
vn 1.000000 0.000000 0.000000
vn 1.000000 0.000000 0.000000
vn 0.000000 -0.964775 0.262231
vn 0.000000 0.025440 1.000000
vn 0.706458 -0.682975 0.185910
vn 0.000000 0.025440 1.000000
vn 0.902153 0.009785 0.430528
vn 0.706458 -0.682975 0.185910
vn 0.000000 0.000000 1.000000
vn 0.000000 0.000000 1.000000
vn -0.205479 0.000000 0.978474
vn -0.205479 0.000000 0.978474
vn 0.000000 0.000000 1.000000
vn -0.205479 0.000000 0.978474
vn -0.205479 0.000000 0.978474
vn -0.205479 0.000000 0.978474
vn -0.403131 0.000000 0.915851
vn -0.205479 0.000000 0.978474
vn -0.403131 0.000000 0.915851
vn -0.403131 0.000000 0.915851
vn -0.681018 0.000000 0.731898
vn 0.000000 0.000000 1.000000
vn -0.681018 0.000000 0.731898
vn 0.000000 0.000000 1.000000
vn 0.000000 0.000000 1.000000
vn -0.681018 0.000000 0.731898
vn 0.000000 -0.360078 -0.933464
vn 0.000000 -0.360078 -0.933464
vn 0.000000 -0.360078 -0.933464
vn 0.000000 -0.360078 -0.933464
vn 0.215264 -0.350294 -0.911937
vn 0.000000 -0.360078 -0.933464
vn 0.215264 -0.350294 -0.911937
vn 0.215264 -0.350294 -0.911937
vn 0.000000 -0.360078 -0.933464
vn 0.215264 -0.350294 -0.911937
vn 0.215264 -0.350294 -0.911937
vn 0.215264 -0.313112 -0.925636
vn 0.215264 -0.350294 -0.911937
vn 0.142857 -0.305284 -0.941292
vn 0.215264 -0.313112 -0.925636
vn 0.000000 -0.677104 -0.735812
vn 0.215264 -0.313112 -0.925636
vn 0.142857 -0.305284 -0.941292
vn 0.000000 -0.677104 -0.735812
vn 0.142857 -0.305284 -0.941292
vn 0.000000 -0.285714 -0.958904
vn 0.000000 -0.677104 -0.735812
vn 0.000000 -0.677104 -0.735812
vn 0.000000 -0.285714 -0.958904
vn 0.000000 -0.285714 -0.958904
vn 0.000000 -0.285714 -0.958904
vn 0.000000 -0.677104 -0.735812
vn 0.000000 0.669276 -0.741683
vn 0.000000 0.285714 -0.958904
vn 0.000000 0.285714 -0.958904
vn 0.000000 0.669276 -0.741683
vn 0.000000 0.285714 -0.958904
vn 0.000000 0.669276 -0.741683
vn 0.000000 0.285714 -0.958904
vn 0.142857 0.305284 -0.941292
vn 0.000000 0.669276 -0.741683
vn 0.142857 0.305284 -0.941292
vn 0.215264 0.313112 -0.925636
vn 0.000000 0.669276 -0.741683
vn 0.142857 0.305284 -0.941292
vn 0.215264 0.350294 -0.911937
vn 0.215264 0.313112 -0.925636
vn 0.215264 0.350294 -0.911937
vn 0.215264 0.350294 -0.911937
vn 0.215264 0.313112 -0.925636
vn 0.000000 0.360078 -0.933464
vn 0.215264 0.350294 -0.911937
vn 0.215264 0.350294 -0.911937
vn 0.000000 0.360078 -0.933464
vn 0.000000 0.360078 -0.933464
vn 0.215264 0.350294 -0.911937
vn 0.000000 0.360078 -0.933464
vn 0.000000 0.360078 -0.933464
vn 0.000000 0.360078 -0.933464
vn 0.000000 0.000000 1.000000
vn 0.000000 0.000000 1.000000
vn 0.682975 0.000000 0.729941
vn 0.000000 0.000000 1.000000
vn 0.682975 0.000000 0.729941
vn 0.682975 0.000000 0.729941
vn 0.998043 0.000000 0.066536
vn 0.682975 0.000000 0.729941
vn 0.682975 0.000000 0.729941
vn -0.180039 -0.837573 -0.516634
vn -0.180039 -0.837573 -0.516634
vn -0.180039 0.837573 -0.516634
vn -0.180039 -0.837573 -0.516634
vn -0.180039 0.837573 -0.516634
vn -0.180039 0.837573 -0.516634
vn -0.369863 0.000000 0.929550
vn -0.180039 -0.837573 -0.516634
vn -0.369863 0.000000 0.929550
vn -0.180039 -0.837573 -0.516634
vn -0.180039 -0.837573 -0.516634
vn -0.369863 0.000000 0.929550
vn -0.369863 0.000000 0.929550
vn -0.369863 0.000000 0.929550
vn -0.180039 0.837573 -0.516634
vn -0.369863 0.000000 0.929550
vn -0.180039 0.837573 -0.516634
vn -0.180039 0.837573 -0.516634
vn 0.000000 0.863014 -0.504892
vn 0.000000 -0.863014 -0.504892
vn 0.487280 -0.536204 -0.688845
vn 0.487280 -0.536204 -0.688845
vn 0.000000 -0.863014 -0.504892
vn 0.000000 0.000000 1.000000
vn 0.000000 0.000000 1.000000
vn 0.487280 -0.536204 -0.688845
vn 0.000000 0.000000 1.000000
vn 0.487280 0.536204 -0.688845
vn 0.000000 0.863014 -0.504892
vn 0.487280 -0.536204 -0.688845
vn 0.000000 0.863014 -0.504892
vn 0.487280 0.536204 -0.688845
vn 0.000000 0.000000 1.000000
vn 0.487280 0.536204 -0.688845
vn 0.000000 0.000000 1.000000
vn 0.000000 0.000000 1.000000
vn 0.000000 -0.927593 -0.371820
vn 0.000000 -0.927593 -0.371820
vn 0.000000 -0.927593 -0.371820
vn 0.000000 -0.927593 -0.371820
vn 0.000000 -0.927593 -0.371820
vn 0.000000 -0.927593 -0.371820
vn 0.000000 0.927593 -0.371820
vn 0.000000 0.927593 -0.371820
vn 0.000000 0.927593 -0.371820
vn 0.000000 0.927593 -0.371820
vn 0.000000 0.927593 -0.371820
vn 0.000000 0.927593 -0.371820
vn 0.000000 0.000000 1.000000
vn 0.000000 0.000000 1.000000
vn 0.000000 0.000000 1.000000
vn 0.000000 0.000000 1.000000
vn 0.000000 0.000000 1.000000
vn 0.000000 0.000000 1.000000
vn -0.095890 0.843444 -0.528376
vn -0.095890 0.843444 -0.528376
vn -0.236791 -0.005871 0.972603
vn -0.095890 0.843444 -0.528376
vn -0.236791 -0.005871 0.972603
vn -0.236791 -0.005871 0.972603
vn 0.000000 0.976517 0.215264
vn 0.902153 0.009785 0.430528
vn 0.000000 0.976517 0.215264
vn 0.902153 0.009785 0.430528
vn 0.000000 0.025440 1.000000
vn 0.000000 0.976517 0.215264
vn 0.000000 0.669276 -0.741683
vn 0.000000 0.669276 -0.741683
vn 0.000000 0.023483 1.000000
vn 0.000000 0.669276 -0.741683
vn 0.000000 0.023483 1.000000
vn 0.000000 0.023483 1.000000
vn 0.000000 0.023483 1.000000
vn 0.000000 0.023483 1.000000
vn 0.000000 -0.677104 -0.735812
vn 0.000000 -0.677104 -0.735812
vn 0.000000 0.023483 1.000000
vn 0.000000 -0.677104 -0.735812
vn 0.000000 -0.845401 -0.534247
vn 0.000000 -0.845401 -0.534247
vn 0.000000 0.855186 -0.518591
vn 0.000000 -0.845401 -0.534247
vn 0.000000 0.855186 -0.518591
vn 0.000000 0.855186 -0.518591
vn 0.000000 0.855186 -0.518591
vn 0.000000 0.855186 -0.518591
vn 0.000000 -0.007828 1.000000
vn 0.000000 0.855186 -0.518591
vn 0.000000 -0.007828 1.000000
vn 0.000000 -0.007828 1.000000
vn 0.000000 -0.007828 1.000000
vn 0.000000 -0.007828 1.000000
vn 0.000000 -0.845401 -0.534247
vn 0.000000 -0.007828 1.000000
vn 0.000000 -0.845401 -0.534247
vn 0.000000 -0.845401 -0.534247
vn -0.097847 -0.833659 -0.544031
vn -0.095890 0.843444 -0.528376
vn -0.097847 -0.833659 -0.544031
vn -0.095890 0.843444 -0.528376
vn -0.095890 0.843444 -0.528376
vn -0.097847 -0.833659 -0.544031
vn -0.236791 -0.005871 0.972603
vn -0.097847 -0.833659 -0.544031
vn -0.236791 -0.005871 0.972603
vn -0.097847 -0.833659 -0.544031
vn -0.097847 -0.833659 -0.544031
vn -0.236791 -0.005871 0.972603
mtllib mtl_t6_wpn_sniper_svu_scope.mtl
g mtl_t6_wpn_sniper_svu_scope
usemtl mtl_t6_wpn_sniper_svu_scope
f 3/3/3 2/2/2 1/1/1
f 6/6/6 5/5/5 4/4/4
f 9/9/9 8/8/8 7/7/7
f 12/12/12 11/11/11 10/10/10
f 15/15/15 14/14/14 13/13/13
f 18/18/18 17/17/17 16/16/16
f 21/21/21 20/20/20 19/19/19
f 24/24/24 23/23/23 22/22/22
f 27/27/27 26/26/26 25/25/25
f 30/30/30 29/29/29 28/28/28
f 33/33/33 32/32/32 31/31/31
f 36/36/36 35/35/35 34/34/34
f 39/39/39 38/38/38 37/37/37
f 42/42/42 41/41/41 40/40/40
f 45/45/45 44/44/44 43/43/43
f 48/48/48 47/47/47 46/46/46
f 51/51/51 50/50/50 49/49/49
f 54/54/54 53/53/53 52/52/52
f 57/57/57 56/56/56 55/55/55
f 60/60/60 59/59/59 58/58/58
f 63/63/63 62/62/62 61/61/61
f 66/66/66 65/65/65 64/64/64
f 69/69/69 68/68/68 67/67/67
f 72/72/72 71/71/71 70/70/70
f 75/75/75 74/74/74 73/73/73
f 78/78/78 77/77/77 76/76/76
f 81/81/81 80/80/80 79/79/79
f 84/84/84 83/83/83 82/82/82
f 87/87/87 86/86/86 85/85/85
f 90/90/90 89/89/89 88/88/88
f 93/93/93 92/92/92 91/91/91
f 96/96/96 95/95/95 94/94/94
f 99/99/99 98/98/98 97/97/97
f 102/102/102 101/101/101 100/100/100
f 105/105/105 104/104/104 103/103/103
f 108/108/108 107/107/107 106/106/106
f 111/111/111 110/110/110 109/109/109
f 114/114/114 113/113/113 112/112/112
f 117/117/117 116/116/116 115/115/115
f 120/120/120 119/119/119 118/118/118
f 123/123/123 122/122/122 121/121/121
f 126/126/126 125/125/125 124/124/124
f 129/129/129 128/128/128 127/127/127
f 132/132/132 131/131/131 130/130/130
f 135/135/135 134/134/134 133/133/133
f 138/138/138 137/137/137 136/136/136
f 141/141/141 140/140/140 139/139/139
f 144/144/144 143/143/143 142/142/142
f 147/147/147 146/146/146 145/145/145
f 150/150/150 149/149/149 148/148/148
f 153/153/153 152/152/152 151/151/151
f 156/156/156 155/155/155 154/154/154
f 159/159/159 158/158/158 157/157/157
f 162/162/162 161/161/161 160/160/160
f 165/165/165 164/164/164 163/163/163
f 168/168/168 167/167/167 166/166/166
f 171/171/171 170/170/170 169/169/169
f 174/174/174 173/173/173 172/172/172
f 177/177/177 176/176/176 175/175/175
f 180/180/180 179/179/179 178/178/178
mtllib mtl_t6_wpn_sniper_svu_scope_camo2.mtl
g mtl_t6_wpn_sniper_svu_scope_camo2
usemtl mtl_t6_wpn_sniper_svu_scope_camo2
f 183/183/183 182/182/182 181/181/181
f 186/186/186 185/185/185 184/184/184
f 189/189/189 188/188/188 187/187/187
f 192/192/192 191/191/191 190/190/190
f 195/195/195 194/194/194 193/193/193
f 198/198/198 197/197/197 196/196/196
f 201/201/201 200/200/200 199/199/199
f 204/204/204 203/203/203 202/202/202
f 207/207/207 206/206/206 205/205/205
f 210/210/210 209/209/209 208/208/208
f 213/213/213 212/212/212 211/211/211
f 216/216/216 215/215/215 214/214/214
f 219/219/219 218/218/218 217/217/217
f 222/222/222 221/221/221 220/220/220
f 225/225/225 224/224/224 223/223/223
f 228/228/228 227/227/227 226/226/226
