# Generated by Wraith - Game extraction tools
# Please credit DTZxPorter for using it!

v 15.731868 -2.140920 -0.743623
v 15.731868 -0.004486 -2.880055
v 9.960188 -2.184763 -0.743623
v 15.731868 -0.004486 -2.880055
v 9.960188 -0.004488 -2.923898
v 9.960188 -2.184763 -0.743623
v 15.731868 -0.004486 -2.880055
v 15.731868 2.131941 -0.743623
v 9.960188 -0.004488 -2.923898
v 15.731868 2.131941 -0.743623
v 9.960188 2.175787 -0.743623
v 9.960188 -0.004488 -2.923898
v 15.731868 2.131941 -0.743623
v 15.731868 -0.004488 1.392806
v 9.960188 2.175787 -0.743623
v 15.731868 -0.004488 1.392806
v 9.960188 -0.004488 1.436652
v 9.960188 2.175787 -0.743623
v 15.731868 -0.004488 1.392806
v 15.731868 -2.140920 -0.743623
v 9.960188 -0.004488 1.436652
v 15.731868 -2.140920 -0.743623
v 9.960188 -2.184763 -0.743623
v 9.960188 -0.004488 1.436652
v 5.556801 1.575935 0.836559
v 6.148466 -0.004491 -2.935145
v 9.970356 -0.004491 -2.935145
v 9.968722 1.575935 2.228832
v 5.556801 1.575935 0.836559
v 9.970356 -0.004491 -2.935145
v 5.556801 1.575935 0.836559
v 9.968722 1.575935 2.228832
v -3.174604 1.575935 2.228832
v -3.174604 1.575935 2.228832
v -2.884419 1.575935 0.836318
v 5.556801 1.575935 0.836559
v 6.148466 -0.004491 -2.935145
v 5.556801 -1.584917 0.836559
v 9.970356 -0.004491 -2.935145
v 5.556801 -1.584917 0.836559
v 9.968722 -1.584917 2.228832
v 9.970356 -0.004491 -2.935145
v -3.174604 -1.584917 2.228832
v 9.968722 -1.584917 2.228832
v 5.556801 -1.584917 0.836559
v 5.556801 -1.584917 0.836559
v -2.884419 -1.584917 0.836318
v -3.174604 -1.584917 2.228832
v 1.890631 0.855929 0.836318
v -2.231915 0.987610 0.836318
v -2.040672 -0.020000 -12.300913
v 1.817863 -0.020000 -12.300913
v 1.890631 0.855929 0.836318
v -2.040672 -0.020000 -12.300913
v 1.817863 -0.020000 -12.300913
v 1.890631 -0.895932 0.836318
v 1.890631 0.855929 0.836318
v 1.817863 -0.020000 -12.300913
v -2.040672 -0.020000 -12.300913
v 1.890631 -0.895932 0.836318
v -2.040672 -0.020000 -12.300913
v -2.231915 -1.027613 0.836318
v 1.890631 -0.895932 0.836318
v 9.970356 -0.004491 -2.935145
v 9.968722 -1.584917 2.228832
v 9.968722 1.575935 2.228832
v 6.148466 -0.004491 -2.935145
v 5.556801 1.575935 0.836559
v 5.556801 -1.584917 0.836559
v -2.040672 -0.020000 -12.300913
v -2.231915 0.987610 0.836318
v -2.231915 -1.027613 0.836318
v 15.731868 -2.140920 -0.743623
v 15.731868 -0.004488 1.392806
v 15.731868 -0.004486 -2.880055
v 15.731868 -0.004488 1.392806
v 15.731868 2.131941 -0.743623
v 15.731868 -0.004486 -2.880055
v -2.884419 1.575935 0.836318
v -3.174604 1.575935 2.228832
v -2.884419 -1.584917 0.836318
v -3.174604 1.575935 2.228832
v -3.174604 -1.584917 2.228832
v -2.884419 -1.584917 0.836318
v 5.556801 -1.584917 0.836559
v 5.556801 1.575935 0.836559
v -2.884419 -1.584917 0.836318
v 5.556801 1.575935 0.836559
v -2.884419 1.575935 0.836318
v -2.884419 -1.584917 0.836318
v -3.174604 -1.584917 2.228832
v -3.174604 1.575935 2.228832
v 9.968722 -1.584917 2.228832
v -3.174604 1.575935 2.228832
v 9.968722 1.575935 2.228832
v 9.968722 -1.584917 2.228832
vt 0.166382 0.964386
vt 0.057770 0.964386
vt 0.166382 0.769653
vt 0.057770 0.964386
vt 0.061432 0.769653
vt 0.166382 0.769653
vt 1.057617 0.964386
vt 1.166016 0.964386
vt 1.061523 0.769653
vt 1.166016 0.964386
vt 1.166016 0.769653
vt 1.061523 0.769653
vt 1.166016 0.964386
vt 1.274414 0.964386
vt 1.166016 0.769653
vt 1.274414 0.964386
vt 1.271484 0.769653
vt 1.166016 0.769653
vt 0.274902 0.964386
vt 0.166382 0.964386
vt 0.271240 0.769653
vt 0.166382 0.964386
vt 0.166382 0.769653
vt 0.271240 0.769653
vt 1.534180 0.912415
vt 1.512695 0.715088
vt 1.359375 0.712646
vt 1.357422 0.977722
vt 1.534180 0.912415
vt 1.359375 0.712646
vt 1.534180 0.912415
vt 1.357422 0.977722
vt 1.973633 0.977722
vt 1.973633 0.977722
vt 1.960938 0.912415
vt 1.534180 0.912415
vt 0.509277 0.742432
vt 0.525879 0.913025
vt 0.362793 0.742188
vt 0.525879 0.913025
vt 0.361084 0.974609
vt 0.362793 0.742188
vt 0.960938 0.974609
vt 0.361084 0.974609
vt 0.525879 0.913025
vt 0.525879 0.913025
vt 0.947754 0.913025
vt 0.960938 0.974609
vt 1.105469 0.757813
vt 1.217773 0.757813
vt 1.215820 0.258789
vt 1.105469 0.258789
vt 1.105469 0.757813
vt 1.215820 0.258789
vt 1.105469 0.258789
vt 1.008789 0.757813
vt 1.105469 0.757813
vt 1.105469 0.258789
vt 1.215820 0.258789
vt 1.105469 0.757813
vt 1.215820 0.258789
vt 1.216797 0.757813
vt 1.105469 0.757813
vt 0.735840 0.787354
vt 0.535645 0.726318
vt 0.535645 0.848633
vt -0.264893 0.787354
vt -0.418213 0.848633
vt -0.418213 0.726318
vt 0.278076 0.263672
vt 0.250000 0.688965
vt 0.329590 0.688965
vt 0.524902 0.505371
vt 0.436768 0.593506
vt 0.613281 0.593506
vt 0.436768 0.593506
vt 0.524902 0.681885
vt 0.613281 0.593506
vt -0.411133 0.848633
vt -0.465088 0.848633
vt -0.411133 0.726318
vt -0.465088 0.848633
vt -0.465088 0.726318
vt -0.411133 0.726318
vt 0.627441 0.337891
vt 0.627441 0.270020
vt 0.446289 0.337891
vt 0.627441 0.270020
vt 0.446289 0.270020
vt 0.446289 0.337891
vt 0.902344 0.900208
vt 0.990234 0.899414
vt 0.902344 0.519775
vt 0.990234 0.899414
vt 0.990234 0.520996
vt 0.902344 0.519775
vn 0.007828 -1.000000 0.000000
vn 0.007828 0.000000 -1.000000
vn 0.007828 -1.000000 0.000000
vn 0.007828 0.000000 -1.000000
vn 0.007828 0.000000 -1.000000
vn 0.007828 -1.000000 0.000000
vn 0.007828 0.000000 -1.000000
vn 0.007828 1.000000 0.000000
vn 0.007828 0.000000 -1.000000
vn 0.007828 1.000000 0.000000
vn 0.007828 1.000000 0.000000
vn 0.007828 0.000000 -1.000000
vn 0.007828 1.000000 0.000000
vn 0.007828 0.000000 1.000000
vn 0.007828 1.000000 0.000000
vn 0.007828 0.000000 1.000000
vn 0.007828 0.000000 1.000000
vn 0.007828 1.000000 0.000000
vn 0.007828 0.000000 1.000000
vn 0.007828 -1.000000 0.000000
vn 0.007828 0.000000 1.000000
vn 0.007828 -1.000000 0.000000
vn 0.007828 -1.000000 0.000000
vn 0.007828 0.000000 1.000000
vn 0.019569 0.994129 -0.111546
vn 0.166341 0.000000 -0.986301
vn 0.166341 0.000000 -0.986301
vn 0.027397 0.986301 -0.166341
vn 0.019569 0.994129 -0.111546
vn 0.166341 0.000000 -0.986301
vn 0.019569 0.994129 -0.111546
vn 0.027397 0.986301 -0.166341
vn 0.000000 1.000000 0.000000
vn 0.000000 1.000000 0.000000
vn 0.000000 1.000000 0.000000
vn 0.019569 0.994129 -0.111546
vn 0.166341 0.000000 -0.986301
vn 0.019569 -0.994129 -0.111546
vn 0.166341 0.000000 -0.986301
vn 0.019569 -0.994129 -0.111546
vn 0.027397 -0.986301 -0.166341
vn 0.166341 0.000000 -0.986301
vn 0.000000 -1.000000 0.000000
vn 0.027397 -0.986301 -0.166341
vn 0.019569 -0.994129 -0.111546
vn 0.019569 -0.994129 -0.111546
vn 0.000000 -1.000000 0.000000
vn 0.000000 -1.000000 0.000000
vn 0.712329 0.698630 -0.054795
vn -0.700587 0.710372 -0.060665
vn -0.986301 0.000000 -0.160470
vn 0.990215 0.000000 -0.142857
vn 0.712329 0.698630 -0.054795
vn -0.986301 0.000000 -0.160470
vn 0.990215 0.000000 -0.142857
vn 0.712329 -0.698630 -0.054795
vn 0.712329 0.698630 -0.054795
vn 0.990215 0.000000 -0.142857
vn -0.986301 0.000000 -0.160470
vn 0.712329 -0.698630 -0.054795
vn -0.986301 0.000000 -0.160470
vn -0.700587 -0.710372 -0.060665
vn 0.712329 -0.698630 -0.054795
vn 1.000000 0.000000 0.000000
vn 1.000000 0.000000 0.000000
vn 1.000000 0.000000 0.000000
vn -0.988258 0.000000 -0.154599
vn -0.988258 0.000000 -0.154599
vn -0.988258 0.000000 -0.154599
vn -0.986301 0.000000 -0.160470
vn -0.700587 0.710372 -0.060665
vn -0.700587 -0.710372 -0.060665
vn 1.000000 0.000000 0.000000
vn 1.000000 0.000000 0.000000
vn 1.000000 0.000000 0.000000
vn 1.000000 0.000000 0.000000
vn 1.000000 0.000000 0.000000
vn 1.000000 0.000000 0.000000
vn -0.978474 0.000000 -0.203523
vn -0.978474 0.000000 -0.203523
vn -0.978474 0.000000 -0.203523
vn -0.978474 0.000000 -0.203523
vn -0.978474 0.000000 -0.203523
vn -0.978474 0.000000 -0.203523
vn 0.000000 0.000000 -1.000000
vn 0.000000 0.000000 -1.000000
vn 0.000000 0.000000 -1.000000
vn 0.000000 0.000000 -1.000000
vn 0.000000 0.000000 -1.000000
vn 0.000000 0.000000 -1.000000
vn 0.000000 0.000000 1.000000
vn 0.000000 0.000000 1.000000
vn 0.000000 0.000000 1.000000
vn 0.000000 0.000000 1.000000
vn 0.000000 0.000000 1.000000
vn 0.000000 0.000000 1.000000
mtllib mtl_t6_wpn_ar_hk416_grip.mtl
g mtl_t6_wpn_ar_hk416_grip
usemtl mtl_t6_wpn_ar_hk416_grip
f 3/3/3 2/2/2 1/1/1
f 6/6/6 5/5/5 4/4/4
f 9/9/9 8/8/8 7/7/7
f 12/12/12 11/11/11 10/10/10
f 15/15/15 14/14/14 13/13/13
f 18/18/18 17/17/17 16/16/16
f 21/21/21 20/20/20 19/19/19
f 24/24/24 23/23/23 22/22/22
f 27/27/27 26/26/26 25/25/25
f 30/30/30 29/29/29 28/28/28
f 33/33/33 32/32/32 31/31/31
f 36/36/36 35/35/35 34/34/34
f 39/39/39 38/38/38 37/37/37
f 42/42/42 41/41/41 40/40/40
f 45/45/45 44/44/44 43/43/43
f 48/48/48 47/47/47 46/46/46
f 51/51/51 50/50/50 49/49/49
f 54/54/54 53/53/53 52/52/52
f 57/57/57 56/56/56 55/55/55
f 60/60/60 59/59/59 58/58/58
f 63/63/63 62/62/62 61/61/61
mtllib mtl_t6_wpn_ar_hk416_grip_camo2.mtl
g mtl_t6_wpn_ar_hk416_grip_camo2
usemtl mtl_t6_wpn_ar_hk416_grip_camo2
f 66/66/66 65/65/65 64/64/64
f 69/69/69 68/68/68 67/67/67
f 72/72/72 71/71/71 70/70/70
f 75/75/75 74/74/74 73/73/73
f 78/78/78 77/77/77 76/76/76
f 81/81/81 80/80/80 79/79/79
f 84/84/84 83/83/83 82/82/82
f 87/87/87 86/86/86 85/85/85
f 90/90/90 89/89/89 88/88/88
f 93/93/93 92/92/92 91/91/91
f 96/96/96 95/95/95 94/94/94
