# Generated by Wraith - Game extraction tools
# Please credit DTZxPorter for using it!

v -7.408286 -0.011895 2.514889
v -7.408268 3.204675 -3.912530
v -7.408268 -3.228462 -4.088432
v -98.096466 -0.011895 4.646437
v -86.356491 -0.011895 2.393930
v -98.096481 -5.530769 -3.664443
v -86.356491 -0.011895 2.393930
v -86.356468 -3.097817 -4.112494
v -98.096481 -5.530769 -3.664443
v -86.356491 -0.011895 2.393930
v -86.356468 3.074028 -3.888468
v -7.408286 -0.011895 2.514889
v -86.356468 3.074028 -3.888468
v -7.408268 3.204675 -3.912530
v -7.408286 -0.011895 2.514889
v -86.356468 3.074028 -3.888468
v -86.356468 -3.097817 -4.112494
v -7.408268 3.204675 -3.912530
v -86.356468 -3.097817 -4.112494
v -7.408268 -3.228462 -4.088432
v -7.408268 3.204675 -3.912530
v -86.356468 -3.097817 -4.112494
v -86.356491 -0.011895 2.393930
v -7.408268 -3.228462 -4.088432
v -86.356491 -0.011895 2.393930
v -7.408286 -0.011895 2.514889
v -7.408268 -3.228462 -4.088432
v -98.096466 -0.011895 4.646437
v -98.096481 5.506981 -4.336522
v -86.356491 -0.011895 2.393930
v -98.096481 5.506981 -4.336522
v -86.356468 3.074028 -3.888468
v -86.356491 -0.011895 2.393930
v -98.096481 -5.530769 -3.664443
v -86.356468 -3.097817 -4.112494
v -98.096481 5.506981 -4.336522
v -86.356468 -3.097817 -4.112494
v -86.356468 3.074028 -3.888468
v -98.096481 5.506981 -4.336522
v -98.096466 -0.011895 4.646437
v -98.096481 -5.530769 -3.664443
v -98.096481 5.506981 -4.336522
v -31.746685 1.225304 -19.933338
v -31.746685 -1.249093 -19.933338
v -27.078335 -0.011895 -19.914883
v -24.289776 -0.011895 -2.260435
v -28.923838 -1.249093 -2.347643
v -28.923838 1.225304 -2.347643
v -28.923838 1.225304 -2.347643
v -28.923838 -1.249093 -2.347643
v -31.746685 1.225304 -19.933338
v -28.923838 -1.249093 -2.347643
v -31.746685 -1.249093 -19.933338
v -31.746685 1.225304 -19.933338
v -24.289776 -0.011895 -2.260435
v -28.923838 1.225304 -2.347643
v -27.078335 -0.011895 -19.914883
v -28.923838 1.225304 -2.347643
v -31.746685 1.225304 -19.933338
v -27.078335 -0.011895 -19.914883
v -31.746685 -1.249093 -19.933338
v -28.923838 -1.249093 -2.347643
v -27.078335 -0.011895 -19.914883
v -28.923838 -1.249093 -2.347643
v -24.289776 -0.011895 -2.260435
v -27.078335 -0.011895 -19.914883
vt 0.770508 0.435059
vt 0.770508 0.416992
vt 0.752930 0.420410
vt 0.483887 0.119629
vt 0.380127 0.119629
vt 0.483887 0.067871
vt 0.380127 0.119629
vt 0.380127 0.067871
vt 0.483887 0.067871
vt 0.380127 0.112305
vt 0.380127 0.053223
vt 0.001457 0.111816
vt 0.380127 0.053223
vt 0.001457 0.053711
vt 0.001457 0.111816
vt 0.380127 0.053223
vt 0.380127 0.067871
vt 0.001457 0.053711
vt 0.380127 0.067871
vt 0.001457 0.067871
vt 0.001457 0.053711
vt 0.380127 0.067871
vt 0.380127 0.119629
vt 0.001457 0.067871
vt 0.380127 0.119629
vt 0.001457 0.119629
vt 0.001457 0.067871
vt 0.483887 0.111816
vt 0.483887 0.053223
vt 0.380127 0.112305
vt 0.483887 0.053223
vt 0.380127 0.053223
vt 0.380127 0.112305
vt 0.483887 0.067871
vt 0.380127 0.067871
vt 0.483887 0.053223
vt 0.380127 0.067871
vt 0.380127 0.053223
vt 0.483887 0.053223
vt 0.767090 0.433594
vt 0.770508 0.431641
vt 0.753418 0.413574
vt 0.865723 0.273438
vt 0.864746 0.265137
vt 0.902832 0.268066
vt 0.532227 0.047852
vt 0.506348 0.040527
vt 0.506836 0.055176
vt 0.748047 0.422363
vt 0.740234 0.426270
vt 0.772461 0.355957
vt 0.740234 0.426270
vt 0.759766 0.363281
vt 0.772461 0.355957
vt 0.716797 0.418945
vt 0.739746 0.426270
vt 0.728516 0.354004
vt 0.739746 0.426270
vt 0.759277 0.363281
vt 0.728516 0.354004
vt 0.759766 0.363281
vt 0.740234 0.426270
vt 0.728516 0.353516
vt 0.740234 0.426270
vt 0.716797 0.418945
vt 0.728516 0.353516
vn 1.000000 0.000000 0.000000
vn 1.000000 0.000000 0.000000
vn 1.000000 0.000000 0.000000
vn 0.144814 -0.855186 0.497065
vn 0.144814 -0.855186 0.497065
vn 0.144814 -0.855186 0.497065
vn 0.144814 -0.855186 0.497065
vn 0.144814 -0.855186 0.497065
vn 0.144814 -0.855186 0.497065
vn 0.000000 0.896282 0.444227
vn 0.000000 0.896282 0.444227
vn 0.000000 0.896282 0.444227
vn 0.000000 0.896282 0.444227
vn 0.000000 0.896282 0.444227
vn 0.000000 0.896282 0.444227
vn 0.000000 0.031311 -1.000000
vn 0.000000 0.031311 -1.000000
vn 0.000000 0.031311 -1.000000
vn 0.000000 0.031311 -1.000000
vn 0.000000 0.031311 -1.000000
vn 0.000000 0.031311 -1.000000
vn -0.001957 -0.902153 0.432485
vn -0.001957 -0.902153 0.432485
vn -0.001957 -0.902153 0.432485
vn -0.001957 -0.902153 0.432485
vn -0.001957 -0.902153 0.432485
vn -0.001957 -0.902153 0.432485
vn 0.127202 0.864971 0.487280
vn 0.127202 0.864971 0.487280
vn 0.127202 0.864971 0.487280
vn 0.127202 0.864971 0.487280
vn 0.127202 0.864971 0.487280
vn 0.127202 0.864971 0.487280
vn 0.000000 -0.025440 -1.000000
vn 0.000000 -0.025440 -1.000000
vn 0.000000 -0.025440 -1.000000
vn 0.000000 -0.025440 -1.000000
vn 0.000000 -0.025440 -1.000000
vn 0.000000 -0.025440 -1.000000
vn -1.000000 0.000000 0.000000
vn -1.000000 0.000000 0.000000
vn -1.000000 0.000000 0.000000
vn -0.050881 0.000000 -0.998043
vn -0.050881 0.000000 -0.998043
vn 0.015656 0.000000 -1.000000
vn -0.025440 0.000000 1.000000
vn -0.025440 0.000000 1.000000
vn -0.025440 0.000000 1.000000
vn -0.964775 0.000000 0.264188
vn -0.964775 0.000000 0.264188
vn -0.964775 0.000000 0.264188
vn -0.964775 0.000000 0.264188
vn -0.964775 0.000000 0.264188
vn -0.964775 0.000000 0.264188
vn 0.000000 1.000000 0.000000
vn 0.000000 1.000000 0.000000
vn 0.000000 1.000000 0.000000
vn 0.000000 1.000000 0.000000
vn 0.000000 1.000000 0.000000
vn 0.000000 1.000000 0.000000
vn 0.000000 -1.000000 0.000000
vn 0.000000 -1.000000 0.000000
vn 0.000000 -1.000000 0.000000
vn 0.000000 -1.000000 0.000000
vn 0.000000 -1.000000 0.000000
vn 0.000000 -1.000000 0.000000
mtllib mtl_t6_wpn_launch_usrpg.mtl
g mtl_t6_wpn_launch_usrpg
usemtl mtl_t6_wpn_launch_usrpg
f 3/3/3 2/2/2 1/1/1
f 6/6/6 5/5/5 4/4/4
f 9/9/9 8/8/8 7/7/7
f 12/12/12 11/11/11 10/10/10
f 15/15/15 14/14/14 13/13/13
f 18/18/18 17/17/17 16/16/16
f 21/21/21 20/20/20 19/19/19
f 24/24/24 23/23/23 22/22/22
f 27/27/27 26/26/26 25/25/25
f 30/30/30 29/29/29 28/28/28
f 33/33/33 32/32/32 31/31/31
f 36/36/36 35/35/35 34/34/34
f 39/39/39 38/38/38 37/37/37
mtllib mtl_t6_wpn_launch_usrpg_camo2.mtl
g mtl_t6_wpn_launch_usrpg_camo2
usemtl mtl_t6_wpn_launch_usrpg_camo2
f 42/42/42 41/41/41 40/40/40
mtllib mtl_t6_wpn_launch_usrpg_camo4.mtl
g mtl_t6_wpn_launch_usrpg_camo4
usemtl mtl_t6_wpn_launch_usrpg_camo4
f 45/45/45 44/44/44 43/43/43
f 48/48/48 47/47/47 46/46/46
f 51/51/51 50/50/50 49/49/49
f 54/54/54 53/53/53 52/52/52
f 57/57/57 56/56/56 55/55/55
f 60/60/60 59/59/59 58/58/58
f 63/63/63 62/62/62 61/61/61
f 66/66/66 65/65/65 64/64/64
