# Generated by Wraith - Game extraction tools
# Please credit DTZxPorter for using it!

v -15.045507 -4.700725 5.392336
v 11.400992 -6.875107 5.392336
v -15.045507 -4.700725 0.383863
v 11.400992 -6.875107 5.392336
v 11.400992 -6.875107 0.383863
v -15.045507 -4.700725 0.383863
v -15.045507 4.629079 5.392336
v 11.400992 6.794734 5.392336
v -15.045507 -4.700725 5.392336
v 11.400992 6.794734 5.392336
v 11.400992 -6.875107 5.392336
v -15.045507 -4.700725 5.392336
v -15.045507 4.629079 0.383863
v 11.400992 6.794734 0.383863
v -15.045507 4.629079 5.392336
v 11.400992 6.794734 0.383863
v 11.400992 6.794734 5.392336
v -15.045507 4.629079 5.392336
v -15.045507 -4.700725 0.383863
v 11.400992 -6.875107 0.383863
v -15.045507 4.629079 0.383863
v 11.400992 -6.875107 0.383863
v 11.400992 6.794734 0.383863
v -15.045507 4.629079 0.383863
v 11.400992 -6.875107 0.383863
v 11.400992 -6.875107 5.392336
v 11.400992 6.794734 0.383863
v 11.400992 -6.875107 5.392336
v 11.400992 6.794734 5.392336
v 11.400992 6.794734 0.383863
v -15.045507 4.629079 0.383863
v -15.045507 4.629079 5.392336
v -15.045507 -4.700725 0.383863
v -15.045507 4.629079 5.392336
v -15.045507 -4.700725 5.392336
v -15.045507 -4.700725 0.383863
vt 0.001288 0.999600
vt 0.001288 1.690430
vt 0.134888 0.999600
vt 0.001288 1.690430
vt 0.134888 1.690430
vt 0.134888 0.999600
vt 0.204468 1.021118
vt 0.028870 1.994141
vt 0.461914 1.021118
vt 0.028870 1.994141
vt 0.420898 1.994141
vt 0.461914 1.021118
vt 0.551270 0.994633
vt 0.551270 1.690430
vt 0.681641 0.994633
vt 0.551270 1.690430
vt 0.681641 1.690430
vt 0.681641 0.994633
vt 0.742188 1.017227
vt 0.440186 1.994141
vt 0.945313 1.017227
vt 0.440186 1.994141
vt 0.709961 1.994141
vt 0.945313 1.017227
vt 0.995117 1.988770
vt 0.995117 1.829102
vt 0.721680 1.988770
vt 0.995117 1.829102
vt 0.721680 1.829102
vt 0.721680 1.988770
vt 0.670410 1.810059
vt 0.670410 1.719727
vt 0.485840 1.810059
vt 0.670410 1.719727
vt 0.485840 1.719727
vt 0.485840 1.810059
vn -0.082192 -0.996086 0.000000
vn -0.082192 -0.996086 0.000000
vn -0.082192 -0.996086 0.000000
vn -0.082192 -0.996086 0.000000
vn -0.082192 -0.996086 0.000000
vn -0.082192 -0.996086 0.000000
vn 0.000000 0.000000 1.000000
vn 0.000000 0.000000 1.000000
vn 0.000000 0.000000 1.000000
vn 0.000000 0.000000 1.000000
vn 0.000000 0.000000 1.000000
vn 0.000000 0.000000 1.000000
vn -0.082192 0.996086 0.000000
vn -0.082192 0.996086 0.000000
vn -0.082192 0.996086 0.000000
vn -0.082192 0.996086 0.000000
vn -0.082192 0.996086 0.000000
vn -0.082192 0.996086 0.000000
vn 0.000000 0.000000 -1.000000
vn 0.000000 0.000000 -1.000000
vn 0.000000 0.000000 -1.000000
vn 0.000000 0.000000 -1.000000
vn 0.000000 0.000000 -1.000000
vn 0.000000 0.000000 -1.000000
vn 1.000000 0.000000 0.000000
vn 1.000000 0.000000 0.000000
vn 1.000000 0.000000 0.000000
vn 1.000000 0.000000 0.000000
vn 1.000000 0.000000 0.000000
vn 1.000000 0.000000 0.000000
vn -1.000000 0.000000 0.000000
vn -1.000000 0.000000 0.000000
vn -1.000000 0.000000 0.000000
vn -1.000000 0.000000 0.000000
vn -1.000000 0.000000 0.000000
vn -1.000000 0.000000 0.000000
mtllib mtl_t6_wpn_tac_insert.mtl
g mtl_t6_wpn_tac_insert
usemtl mtl_t6_wpn_tac_insert
f 3/3/3 2/2/2 1/1/1
f 6/6/6 5/5/5 4/4/4
f 9/9/9 8/8/8 7/7/7
f 12/12/12 11/11/11 10/10/10
f 15/15/15 14/14/14 13/13/13
f 18/18/18 17/17/17 16/16/16
f 21/21/21 20/20/20 19/19/19
f 24/24/24 23/23/23 22/22/22
f 27/27/27 26/26/26 25/25/25
f 30/30/30 29/29/29 28/28/28
f 33/33/33 32/32/32 31/31/31
f 36/36/36 35/35/35 34/34/34
