# Generated by Wraith - Game extraction tools
# Please credit DTZxPorter for using it!

v -0.996061 -2.020237 0.811550
v 1.050905 -2.020237 -1.230422
v -1.015936 -0.000000 -1.304269
v 3.080231 0.000000 -1.304269
v 1.050905 -2.020237 -1.230422
v 3.092882 -2.045879 0.816542
v -1.015936 0.000000 2.895194
v 1.045914 -2.033056 2.858519
v -0.996061 -2.020237 0.811550
v 3.092882 -2.045879 0.816542
v 1.045914 -2.033056 2.858519
v 3.080231 0.000000 2.895194
v -0.996061 1.833344 0.816547
v 1.050905 1.833344 2.858519
v -1.015936 0.000000 2.895194
v 3.080231 0.000000 2.895194
v 1.050905 1.833344 2.858519
v 3.092882 1.833344 0.811553
v -1.015936 -0.000000 -1.304269
v 1.045914 1.833344 -1.230424
v -0.996061 1.833344 0.816547
v 3.092882 1.833344 0.811553
v 1.045914 1.833344 -1.230424
v 3.080231 0.000000 -1.304269
v -2.344094 -0.410334 2.860022
v -2.344094 -2.050715 0.385122
v -13.361764 -0.413476 2.874155
v -2.344094 -2.050715 0.385122
v -13.361764 -2.078698 0.381981
v -13.361764 -0.413476 2.874155
v -2.344094 2.064568 1.206345
v -2.344094 -0.410334 2.860022
v -13.361764 2.078695 1.208938
v -2.344094 -0.410334 2.860022
v -13.361764 -0.413476 2.874155
v -13.361764 2.078695 1.208938
v 13.188734 -3.536645 3.183692
v 8.409857 0.000000 2.240067
v 13.188734 3.536645 3.183692
v 13.188734 3.536645 -1.592765
v 8.409857 0.000000 -0.649137
v 13.188734 -3.536645 -1.592765
v -0.996061 1.833344 0.816547
v -1.015936 0.000000 2.895194
v -1.015936 -0.000000 -1.304269
v -1.015936 -0.000000 -1.304269
v -1.015936 0.000000 2.895194
v -0.996061 -2.020237 0.811550
v 3.092882 1.833344 0.811553
v 3.080231 0.000000 -1.304269
v 3.080231 0.000000 2.895194
v 3.080231 0.000000 -1.304269
v 3.092882 -2.045879 0.816542
v 3.080231 0.000000 2.895194
v -1.015936 -0.000000 -1.304269
v 1.050905 -2.020237 -1.230422
v 1.045914 1.833344 -1.230424
v 1.050905 -2.020237 -1.230422
v 3.080231 0.000000 -1.304269
v 1.045914 1.833344 -1.230424
v -2.344094 0.410886 -1.255255
v -2.344094 2.064568 1.206345
v -13.361764 0.413474 -1.283236
v -2.344094 2.064568 1.206345
v -13.361764 2.078695 1.208938
v -13.361764 0.413474 -1.283236
v -2.344094 -2.050715 0.385122
v -2.344094 0.410886 -1.255255
v -13.361764 -2.078698 0.381981
v -2.344094 0.410886 -1.255255
v -13.361764 0.413474 -1.283236
v -13.361764 -2.078698 0.381981
v -13.361764 0.413474 -1.283236
v -13.361764 -0.413476 2.874155
v -13.361764 -2.078698 0.381981
v -13.361764 0.413474 -1.283236
v -13.361764 2.078695 1.208938
v -13.361764 -0.413476 2.874155
v 19.901937 3.536645 -1.592765
v 19.901937 -3.536645 -1.592765
v 19.901937 3.536645 3.183692
v 19.901937 -3.536645 -1.592765
v 19.901937 -3.536645 3.183692
v 19.901937 3.536645 3.183692
v 13.188734 3.536645 -1.592765
v 13.188734 -3.536645 -1.592765
v 19.901937 3.536645 -1.592765
v 13.188734 -3.536645 -1.592765
v 19.901937 -3.536645 -1.592765
v 19.901937 3.536645 -1.592765
v 8.409857 -1.334638 0.795465
v 8.409857 0.000000 -0.649137
v -2.344094 0.000000 -0.648360
v -2.344094 -1.333919 0.795465
v 8.409857 -1.334638 0.795465
v -2.344094 0.000000 -0.648360
v 8.409857 -1.334638 0.795465
v -2.344094 -1.333919 0.795465
v -2.344094 0.000000 2.239287
v 8.409857 0.000000 2.240067
v 8.409857 -1.334638 0.795465
v -2.344094 0.000000 2.239287
v 8.409857 0.000000 2.240067
v -2.344094 0.000000 2.239287
v -2.344094 1.333922 0.795462
v 8.409857 1.334640 0.795462
v 8.409857 0.000000 2.240067
v -2.344094 1.333922 0.795462
v 8.409857 1.334640 0.795462
v -2.344094 1.333922 0.795462
v -2.344094 0.000000 -0.648360
v 8.409857 0.000000 -0.649137
v 8.409857 1.334640 0.795462
v -2.344094 0.000000 -0.648360
v 19.901937 -3.536645 -1.592765
v 13.188734 -3.536645 -1.592765
v 19.901937 -3.536645 3.183692
v 13.188734 -3.536645 -1.592765
v 13.188734 -3.536645 3.183692
v 19.901937 -3.536645 3.183692
v 8.409857 -1.334638 0.795465
v 13.188734 -3.536645 3.183692
v 13.188734 -3.536645 -1.592765
v 13.188734 -3.536645 3.183692
v 8.409857 -1.334638 0.795465
v 8.409857 0.000000 2.240067
v 8.409857 0.000000 -0.649137
v 8.409857 -1.334638 0.795465
v 13.188734 -3.536645 -1.592765
v 13.188734 -3.536645 3.183692
v 13.188734 3.536645 3.183692
v 19.901937 -3.536645 3.183692
v 13.188734 3.536645 3.183692
v 19.901937 3.536645 3.183692
v 19.901937 -3.536645 3.183692
v 13.188734 3.536645 -1.592765
v 19.901937 3.536645 -1.592765
v 19.901937 3.536645 3.183692
v 13.188734 3.536645 3.183692
v 13.188734 3.536645 -1.592765
v 19.901937 3.536645 3.183692
v 8.409857 1.334640 0.795462
v 13.188734 3.536645 -1.592765
v 13.188734 3.536645 3.183692
v 13.188734 3.536645 -1.592765
v 8.409857 1.334640 0.795462
v 8.409857 0.000000 -0.649137
v 8.409857 0.000000 2.240067
v 8.409857 1.334640 0.795462
v 13.188734 3.536645 3.183692
v 3.080231 0.000000 2.895194
v 1.048411 -0.042799 2.895194
v 1.045914 -2.033056 2.858519
v 1.050905 1.833344 2.858519
v 1.048411 -0.042799 2.895194
v 3.080231 0.000000 2.895194
v -1.015936 0.000000 2.895194
v 1.048411 -0.042799 2.895194
v 1.050905 1.833344 2.858519
v 1.045914 -2.033056 2.858519
v 1.048411 -0.042799 2.895194
v -1.015936 0.000000 2.895194
v -2.344094 -0.410334 2.860022
v -2.344094 0.000000 0.795460
v -2.344094 -2.050715 0.385122
v -2.344094 2.064568 1.206345
v -2.344094 0.000000 0.795460
v -2.344094 -0.410334 2.860022
v -2.344094 0.410886 -1.255255
v -2.344094 0.000000 0.795460
v -2.344094 2.064568 1.206345
v -2.344094 -2.050715 0.385122
v -2.344094 0.000000 0.795460
v -2.344094 0.410886 -1.255255
v 1.050905 1.833344 2.858519
v -0.996061 1.833344 0.816547
v 3.092882 1.833344 0.811553
v -0.996061 1.833344 0.816547
v 1.045914 1.833344 -1.230424
v 3.092882 1.833344 0.811553
v 1.050905 -2.020237 -1.230422
v -0.996061 -2.020237 0.811550
v 3.092882 -2.045879 0.816542
v -0.996061 -2.020237 0.811550
v 1.045914 -2.033056 2.858519
v 3.092882 -2.045879 0.816542
v -1.015936 0.000000 2.895194
v -0.570243 -0.038133 5.710849
v 1.045914 -2.033056 2.858519
v -0.570243 -0.038133 5.710849
v 1.037715 -1.667485 5.710849
v 1.045914 -2.033056 2.858519
v 3.080231 0.000000 2.895194
v 1.045914 -2.033056 2.858519
v 2.667067 -0.059530 5.710849
v 1.045914 -2.033056 2.858519
v 1.037715 -1.667485 5.710849
v 2.667067 -0.059530 5.710849
v -1.015936 0.000000 2.895194
v 1.050905 1.833344 2.858519
v -0.570243 -0.038133 5.710849
v 1.050905 1.833344 2.858519
v 1.059107 1.569822 5.710849
v -0.570243 -0.038133 5.710849
v 3.080231 0.000000 2.895194
v 2.667067 -0.059530 5.710849
v 1.050905 1.833344 2.858519
v 2.667067 -0.059530 5.710849
v 1.059107 1.569822 5.710849
v 1.050905 1.833344 2.858519
v 1.037715 -1.667485 5.710849
v -0.570243 -0.038133 5.710849
v 2.667067 -0.059530 5.710849
v -0.570243 -0.038133 5.710849
v 1.059107 1.569822 5.710849
v 2.667067 -0.059530 5.710849
vt 0.851074 0.158691
vt 0.895020 0.162598
vt 0.890137 0.119629
vt 0.890137 0.119629
vt 0.895020 0.162598
vt 0.851074 0.158691
vt 0.891602 0.050781
vt 0.905273 0.013672
vt 0.852539 0.019043
vt 0.851074 0.158691
vt 0.895020 0.162598
vt 0.890137 0.119629
vt 0.851074 0.158691
vt 0.895020 0.162598
vt 0.890137 0.119629
vt 0.891602 0.050781
vt 0.905273 0.013672
vt 0.852539 0.019043
vt 0.891602 0.050781
vt 0.905273 0.013672
vt 0.852539 0.019043
vt 0.852539 0.019043
vt 0.905273 0.013672
vt 0.891602 0.050781
vt -0.536133 0.020508
vt -0.288574 0.020508
vt -0.501953 0.162598
vt -0.288574 0.020508
vt -0.287109 0.162598
vt -0.501953 0.162598
vt 0.651367 0.021484
vt 0.435303 0.021484
vt 0.648926 0.162109
vt 0.435303 0.021484
vt 0.413818 0.162109
vt 0.648926 0.162109
vt 0.239136 0.352051
vt 0.416016 0.224121
vt 0.239624 0.095703
vt 0.236206 0.355469
vt 0.416504 0.224121
vt 0.236206 0.093262
vt 0.891602 0.085938
vt 0.822266 0.020508
vt 0.822266 0.158691
vt 0.822266 0.158691
vt 0.822266 0.020508
vt 0.752930 0.089355
vt 0.891602 0.085938
vt 0.822266 0.020508
vt 0.822266 0.158691
vt 0.822266 0.020508
vt 0.752930 0.089355
vt 0.822266 0.158691
vt -0.469482 0.676758
vt -0.484375 0.689697
vt -0.482178 0.660889
vt -0.484375 0.689697
vt -0.497070 0.672363
vt -0.482178 0.660889
vt 0.895508 0.021484
vt 0.651367 0.021484
vt 0.938965 0.162109
vt 0.651367 0.021484
vt 0.648926 0.162109
vt 0.938965 0.162109
vt -0.288574 0.020508
vt -0.072693 0.020508
vt -0.287109 0.162598
vt -0.072693 0.020508
vt -0.051056 0.162598
vt -0.287109 0.162598
vt 0.924316 0.359863
vt 0.858887 0.373047
vt 0.897949 0.399414
vt 0.924316 0.359863
vt 0.884766 0.333496
vt 0.858887 0.373047
vt 0.423584 0.308105
vt 0.321289 0.308105
vt 0.423584 0.374512
vt 0.321289 0.308105
vt 0.321289 0.374512
vt 0.423584 0.374512
vt 0.243896 0.387207
vt 0.243896 0.169922
vt 0.003744 0.387207
vt 0.243896 0.169922
vt 0.003744 0.169922
vt 0.003744 0.387207
vt 1.037109 0.191895
vt 1.037109 0.002930
vt 1.240234 0.002930
vt 1.240234 0.191895
vt 1.037109 0.191895
vt 1.240234 0.002930
vt 1.037109 0.191895
vt 1.240234 0.191895
vt 1.240234 0.380859
vt 1.037109 0.380859
vt 1.037109 0.191895
vt 1.240234 0.380859
vt 0.037994 0.380859
vt 0.240601 0.380859
vt 0.240601 0.191895
vt 0.037994 0.191895
vt 0.037994 0.380859
vt 0.240601 0.191895
vt 0.037994 0.191895
vt 0.240601 0.191895
vt 0.240601 0.002930
vt 0.037994 0.002930
vt 0.037994 0.191895
vt 0.240601 0.002930
vt 1.014648 0.101563
vt 1.244141 0.110840
vt 1.014648 0.222656
vt 1.244141 0.110840
vt 1.244141 0.212402
vt 1.014648 0.222656
vt 1.431641 0.164063
vt 1.244141 0.212402
vt 1.244141 0.110840
vt 1.244141 0.212402
vt 1.431641 0.164063
vt 1.431641 0.258789
vt 1.431641 0.065918
vt 1.431641 0.164063
vt 1.244141 0.110840
vt 0.243896 0.169922
vt 0.243896 0.387207
vt 0.003744 0.169922
vt 0.243896 0.387207
vt 0.003744 0.387207
vt 0.003744 0.169922
vt 0.244995 0.110840
vt 0.015152 0.101563
vt 0.015182 0.222656
vt 0.244873 0.212402
vt 0.244995 0.110840
vt 0.015182 0.222656
vt 0.432373 0.164063
vt 0.244995 0.110840
vt 0.244873 0.212402
vt 0.244995 0.110840
vt 0.432373 0.164063
vt 0.432373 0.065918
vt 0.432373 0.258789
vt 0.432373 0.164063
vt 0.244873 0.212402
vt -0.481445 0.643066
vt -0.481934 0.668945
vt -0.454834 0.669189
vt -0.509277 0.668701
vt -0.481934 0.668945
vt -0.481445 0.643066
vt -0.482422 0.694580
vt -0.481934 0.668945
vt -0.509277 0.668701
vt -0.454834 0.669189
vt -0.481934 0.668945
vt -0.482422 0.694580
vt 0.329834 0.332031
vt 0.373291 0.340332
vt 0.382080 0.297363
vt 0.364746 0.384277
vt 0.373291 0.340332
vt 0.329834 0.332031
vt 0.416748 0.349121
vt 0.373291 0.340332
vt 0.364746 0.384277
vt 0.382080 0.297363
vt 0.373291 0.340332
vt 0.416748 0.349121
vt 0.783203 0.776978
vt 0.891602 0.659424
vt 0.665527 0.669189
vt 0.891602 0.659424
vt 0.773438 0.551025
vt 0.665527 0.669189
vt 0.783203 0.776978
vt 0.891602 0.659424
vt 0.665527 0.669189
vt 0.891602 0.659424
vt 0.773438 0.551025
vt 0.665527 0.669189
vt -0.737305 0.996908
vt -0.807617 0.996908
vt -0.737305 0.771973
vt -0.807617 0.996908
vt -0.807617 0.771973
vt -0.737305 0.771973
vt -0.737305 0.472168
vt -0.737305 0.771973
vt -0.807617 0.472168
vt -0.737305 0.771973
vt -0.807617 0.771973
vt -0.807617 0.472168
vt 0.262207 0.921936
vt 0.262207 0.622070
vt 0.192139 0.921936
vt 0.262207 0.622070
vt 0.192139 0.622070
vt 0.192139 0.921936
vt 0.262207 0.396973
vt 0.192139 0.396973
vt 0.262207 0.622070
vt 0.192139 0.396973
vt 0.192139 0.622070
vt 0.262207 0.622070
vt 0.673340 0.707275
vt 0.822266 0.769043
vt 0.735352 0.558350
vt 0.822266 0.769043
vt 0.884277 0.620117
vt 0.735352 0.558350
vn -0.698630 -0.716243 0.000000
vn -0.001957 -0.886497 -0.461840
vn -0.502935 0.704501 -0.500978
vn 0.506849 0.694716 -0.508806
vn -0.001957 -0.886497 -0.461840
vn 0.700587 -0.712329 0.000000
vn -0.508806 0.692759 0.510763
vn -0.001957 -0.884540 0.465753
vn -0.698630 -0.716243 0.000000
vn 0.700587 -0.712329 0.000000
vn -0.001957 -0.884540 0.465753
vn 0.516634 0.684932 0.514677
vn -0.677104 0.735812 0.001957
vn 0.001957 0.898239 0.440313
vn -0.508806 0.692759 0.510763
vn 0.516634 0.684932 0.514677
vn 0.001957 0.898239 0.440313
vn 0.682975 0.729941 0.000000
vn -0.502935 0.704501 -0.500978
vn 0.000000 0.900196 -0.434442
vn -0.677104 0.735812 0.001957
vn 0.682975 0.729941 0.000000
vn 0.000000 0.900196 -0.434442
vn 0.506849 0.694716 -0.508806
vn 0.818004 -0.113503 0.565558
vn 0.816047 -0.565558 -0.113503
vn -0.816047 -0.113503 0.565558
vn 0.816047 -0.565558 -0.113503
vn -0.575342 -0.802348 -0.160470
vn -0.816047 -0.113503 0.565558
vn 0.816047 0.565558 0.111546
vn 0.818004 -0.113503 0.565558
vn -0.577299 0.800391 0.158513
vn 0.818004 -0.113503 0.565558
vn -0.816047 -0.113503 0.565558
vn -0.577299 0.800391 0.158513
vn -0.311155 -0.669276 0.675147
vn -0.356164 0.000000 0.935421
vn -0.311155 0.669276 0.675147
vn -0.311155 0.669276 -0.675147
vn -0.356164 0.000000 -0.935421
vn -0.311155 -0.669276 -0.675147
vn -0.677104 0.735812 0.001957
vn -0.508806 0.692759 0.510763
vn -0.502935 0.704501 -0.500978
vn -0.502935 0.704501 -0.500978
vn -0.508806 0.692759 0.510763
vn -0.698630 -0.716243 0.000000
vn 0.682975 0.729941 0.000000
vn 0.506849 0.694716 -0.508806
vn 0.516634 0.684932 0.514677
vn 0.506849 0.694716 -0.508806
vn 0.700587 -0.712329 0.000000
vn 0.516634 0.684932 0.514677
vn 0.000000 0.000000 -1.000000
vn 0.000000 0.000000 -1.000000
vn 0.000000 0.000000 -1.000000
vn 0.000000 0.000000 -1.000000
vn 0.000000 0.000000 -1.000000
vn 0.000000 0.000000 -1.000000
vn 0.816047 0.111546 -0.565558
vn 0.816047 0.565558 0.111546
vn -0.816047 0.113503 -0.567515
vn 0.816047 0.565558 0.111546
vn -0.577299 0.800391 0.158513
vn -0.816047 0.113503 -0.567515
vn 0.816047 -0.565558 -0.113503
vn 0.816047 0.111546 -0.565558
vn -0.575342 -0.802348 -0.160470
vn 0.816047 0.111546 -0.565558
vn -0.816047 0.113503 -0.567515
vn -0.575342 -0.802348 -0.160470
vn -0.816047 0.113503 -0.567515
vn -0.816047 -0.113503 0.565558
vn -0.575342 -0.802348 -0.160470
vn -0.816047 0.113503 -0.567515
vn -0.577299 0.800391 0.158513
vn -0.816047 -0.113503 0.565558
vn 1.000000 0.000000 0.000000
vn 1.000000 0.000000 0.000000
vn 1.000000 0.000000 0.000000
vn 1.000000 0.000000 0.000000
vn 1.000000 0.000000 0.000000
vn 1.000000 0.000000 0.000000
vn -0.311155 0.669276 -0.675147
vn -0.311155 -0.669276 -0.675147
vn 0.000000 0.706458 -0.706458
vn -0.311155 -0.669276 -0.675147
vn 0.000000 -0.706458 -0.706458
vn 0.000000 0.706458 -0.706458
vn -0.393346 -0.919765 0.000000
vn -0.356164 0.000000 -0.935421
vn 0.000000 0.000000 -1.000000
vn 0.000000 -1.000000 0.000000
vn -0.393346 -0.919765 0.000000
vn 0.000000 0.000000 -1.000000
vn -0.393346 -0.919765 0.000000
vn 0.000000 -1.000000 0.000000
vn 0.000000 0.000000 1.000000
vn -0.356164 0.000000 0.935421
vn -0.393346 -0.919765 0.000000
vn 0.000000 0.000000 1.000000
vn -0.356164 0.000000 0.935421
vn 0.000000 0.000000 1.000000
vn 0.000000 1.000000 0.000000
vn -0.393346 0.919765 0.000000
vn -0.356164 0.000000 0.935421
vn 0.000000 1.000000 0.000000
vn -0.393346 0.919765 0.000000
vn 0.000000 1.000000 0.000000
vn 0.000000 0.000000 -1.000000
vn -0.356164 0.000000 -0.935421
vn -0.393346 0.919765 0.000000
vn 0.000000 0.000000 -1.000000
vn 0.000000 -0.706458 -0.706458
vn -0.311155 -0.669276 -0.675147
vn 0.000000 -0.706458 0.706458
vn -0.311155 -0.669276 -0.675147
vn -0.311155 -0.669276 0.675147
vn 0.000000 -0.706458 0.706458
vn -0.393346 -0.919765 0.000000
vn -0.311155 -0.669276 0.675147
vn -0.311155 -0.669276 -0.675147
vn -0.311155 -0.669276 0.675147
vn -0.393346 -0.919765 0.000000
vn -0.356164 0.000000 0.935421
vn -0.356164 0.000000 -0.935421
vn -0.393346 -0.919765 0.000000
vn -0.311155 -0.669276 -0.675147
vn -0.311155 -0.669276 0.675147
vn -0.311155 0.669276 0.675147
vn 0.000000 -0.706458 0.706458
vn -0.311155 0.669276 0.675147
vn 0.000000 0.706458 0.706458
vn 0.000000 -0.706458 0.706458
vn -0.311155 0.669276 -0.675147
vn 0.000000 0.706458 -0.706458
vn 0.000000 0.706458 0.706458
vn -0.311155 0.669276 0.675147
vn -0.311155 0.669276 -0.675147
vn 0.000000 0.706458 0.706458
vn -0.393346 0.919765 0.000000
vn -0.311155 0.669276 -0.675147
vn -0.311155 0.669276 0.675147
vn -0.311155 0.669276 -0.675147
vn -0.393346 0.919765 0.000000
vn -0.356164 0.000000 -0.935421
vn -0.356164 0.000000 0.935421
vn -0.393346 0.919765 0.000000
vn -0.311155 0.669276 0.675147
vn 0.000000 0.000000 -1.000000
vn 0.000000 0.000000 -1.000000
vn 0.000000 0.017613 -1.000000
vn 0.000000 -0.019569 -1.000000
vn 0.000000 0.000000 -1.000000
vn 0.000000 0.000000 -1.000000
vn 0.000000 0.000000 -1.000000
vn 0.000000 0.000000 -1.000000
vn 0.000000 -0.019569 -1.000000
vn 0.000000 0.017613 -1.000000
vn 0.000000 0.000000 -1.000000
vn 0.000000 0.000000 -1.000000
vn 0.818004 -0.113503 0.565558
vn 1.000000 0.000000 0.000000
vn 0.816047 -0.565558 -0.113503
vn 0.816047 0.565558 0.111546
vn 1.000000 0.000000 0.000000
vn 0.818004 -0.113503 0.565558
vn 0.816047 0.111546 -0.565558
vn 1.000000 0.000000 0.000000
vn 0.816047 0.565558 0.111546
vn 0.816047 -0.565558 -0.113503
vn 1.000000 0.000000 0.000000
vn 0.816047 0.111546 -0.565558
vn 0.001957 0.898239 0.440313
vn -0.677104 0.735812 0.001957
vn 0.682975 0.729941 0.000000
vn -0.677104 0.735812 0.001957
vn 0.000000 0.900196 -0.434442
vn 0.682975 0.729941 0.000000
vn -0.001957 -0.886497 -0.461840
vn -0.698630 -0.716243 0.000000
vn 0.700587 -0.712329 0.000000
vn -0.698630 -0.716243 0.000000
vn -0.001957 -0.884540 0.465753
vn 0.700587 -0.712329 0.000000
vn -0.990215 0.017613 0.135029
vn -0.990215 0.017613 0.135029
vn 0.000000 -0.992172 0.129159
vn -0.990215 0.017613 0.135029
vn 0.000000 -0.992172 0.129159
vn 0.000000 -0.992172 0.129159
vn 0.992172 0.009785 0.129159
vn 0.000000 -0.992172 0.129159
vn 0.992172 0.009785 0.129159
vn 0.000000 -0.992172 0.129159
vn 0.000000 -0.992172 0.129159
vn 0.992172 0.009785 0.129159
vn -0.990215 0.017613 0.135029
vn 0.005871 0.992172 0.125245
vn -0.990215 0.017613 0.135029
vn 0.005871 0.992172 0.125245
vn 0.005871 0.992172 0.125245
vn -0.990215 0.017613 0.135029
vn 0.992172 0.009785 0.129159
vn 0.992172 0.009785 0.129159
vn 0.005871 0.992172 0.125245
vn 0.992172 0.009785 0.129159
vn 0.005871 0.992172 0.125245
vn 0.005871 0.992172 0.125245
vn 0.000000 0.000000 1.000000
vn 0.000000 0.000000 1.000000
vn 0.000000 0.000000 1.000000
vn 0.000000 0.000000 1.000000
vn 0.000000 0.000000 1.000000
vn 0.000000 0.000000 1.000000
mtllib mtl_t6_wpn_sniper_xpr50_scope.mtl
g mtl_t6_wpn_sniper_xpr50_scope
usemtl mtl_t6_wpn_sniper_xpr50_scope
f 3/3/3 2/2/2 1/1/1
f 6/6/6 5/5/5 4/4/4
f 9/9/9 8/8/8 7/7/7
f 12/12/12 11/11/11 10/10/10
f 15/15/15 14/14/14 13/13/13
f 18/18/18 17/17/17 16/16/16
f 21/21/21 20/20/20 19/19/19
f 24/24/24 23/23/23 22/22/22
f 27/27/27 26/26/26 25/25/25
f 30/30/30 29/29/29 28/28/28
f 33/33/33 32/32/32 31/31/31
f 36/36/36 35/35/35 34/34/34
f 39/39/39 38/38/38 37/37/37
f 42/42/42 41/41/41 40/40/40
f 45/45/45 44/44/44 43/43/43
f 48/48/48 47/47/47 46/46/46
f 51/51/51 50/50/50 49/49/49
f 54/54/54 53/53/53 52/52/52
f 57/57/57 56/56/56 55/55/55
f 60/60/60 59/59/59 58/58/58
f 63/63/63 62/62/62 61/61/61
f 66/66/66 65/65/65 64/64/64
f 69/69/69 68/68/68 67/67/67
f 72/72/72 71/71/71 70/70/70
f 75/75/75 74/74/74 73/73/73
f 78/78/78 77/77/77 76/76/76
f 81/81/81 80/80/80 79/79/79
f 84/84/84 83/83/83 82/82/82
f 87/87/87 86/86/86 85/85/85
f 90/90/90 89/89/89 88/88/88
f 93/93/93 92/92/92 91/91/91
f 96/96/96 95/95/95 94/94/94
f 99/99/99 98/98/98 97/97/97
f 102/102/102 101/101/101 100/100/100
f 105/105/105 104/104/104 103/103/103
f 108/108/108 107/107/107 106/106/106
f 111/111/111 110/110/110 109/109/109
f 114/114/114 113/113/113 112/112/112
f 117/117/117 116/116/116 115/115/115
f 120/120/120 119/119/119 118/118/118
f 123/123/123 122/122/122 121/121/121
f 126/126/126 125/125/125 124/124/124
f 129/129/129 128/128/128 127/127/127
f 132/132/132 131/131/131 130/130/130
f 135/135/135 134/134/134 133/133/133
f 138/138/138 137/137/137 136/136/136
f 141/141/141 140/140/140 139/139/139
f 144/144/144 143/143/143 142/142/142
f 147/147/147 146/146/146 145/145/145
f 150/150/150 149/149/149 148/148/148
f 153/153/153 152/152/152 151/151/151
f 156/156/156 155/155/155 154/154/154
f 159/159/159 158/158/158 157/157/157
f 162/162/162 161/161/161 160/160/160
f 165/165/165 164/164/164 163/163/163
f 168/168/168 167/167/167 166/166/166
f 171/171/171 170/170/170 169/169/169
f 174/174/174 173/173/173 172/172/172
mtllib mtl_t6_wpn_sniper_xpr50_scope_camo2.mtl
g mtl_t6_wpn_sniper_xpr50_scope_camo2
usemtl mtl_t6_wpn_sniper_xpr50_scope_camo2
f 177/177/177 176/176/176 175/175/175
f 180/180/180 179/179/179 178/178/178
f 183/183/183 182/182/182 181/181/181
f 186/186/186 185/185/185 184/184/184
f 189/189/189 188/188/188 187/187/187
f 192/192/192 191/191/191 190/190/190
f 195/195/195 194/194/194 193/193/193
f 198/198/198 197/197/197 196/196/196
f 201/201/201 200/200/200 199/199/199
f 204/204/204 203/203/203 202/202/202
f 207/207/207 206/206/206 205/205/205
f 210/210/210 209/209/209 208/208/208
f 213/213/213 212/212/212 211/211/211
f 216/216/216 215/215/215 214/214/214
