# Generated by Wraith - Game extraction tools
# Please credit DTZxPorter for using it!

v -3.158221 0.755703 -19.072172
v -5.677851 0.755703 -18.272213
v -6.301917 0.755703 -24.705881
v -0.728679 0.755703 -2.683896
v -5.677851 0.755703 -18.272213
v -3.158221 0.755703 -19.072172
v 1.790952 0.755703 -3.483856
v -0.728679 0.755703 -2.683896
v -3.158221 0.755703 -19.072172
v -0.728679 0.755703 -2.683896
v 1.790952 0.755703 -3.483856
v 2.442029 0.755703 2.934901
v -6.301917 0.755703 -24.705881
v -6.301917 0.051841 -24.705881
v -3.158221 0.051841 -19.072172
v -3.158221 0.755703 -19.072172
v -6.301917 0.755703 -24.705881
v -3.158221 0.051841 -19.072172
v -3.158221 0.755703 -19.072172
v -3.158221 0.051841 -19.072172
v 1.790952 0.755703 -3.483856
v -3.158221 0.051841 -19.072172
v 1.790952 0.051841 -3.483856
v 1.790952 0.755703 -3.483856
v 1.790952 0.755703 -3.483856
v 1.790952 0.051841 -3.483856
v 2.442029 0.051841 2.934901
v 2.442029 0.755703 2.934901
v 1.790952 0.755703 -3.483856
v 2.442029 0.051841 2.934901
v -6.301917 0.755703 -24.705881
v -5.677851 0.755703 -18.272213
v -6.301917 0.051841 -24.705881
v -5.677851 0.755703 -18.272213
v -5.677851 0.051841 -18.272213
v -6.301917 0.051841 -24.705881
v -0.728679 0.051841 -2.683896
v -5.677851 0.051841 -18.272213
v -5.677851 0.755703 -18.272213
v -0.728679 0.755703 -2.683896
v -0.728679 0.051841 -2.683896
v -5.677851 0.755703 -18.272213
v -0.728679 0.755703 -2.683896
v 2.442029 0.755703 2.934901
v -0.728679 0.051841 -2.683896
v 2.442029 0.755703 2.934901
v 2.442029 0.051841 2.934901
v -0.728679 0.051841 -2.683896
v -6.301917 0.051841 -24.705881
v -5.677851 0.051841 -18.272213
v -3.158221 0.051841 -19.072172
v -3.158221 0.051841 -19.072172
v -5.677851 0.051841 -18.272213
v -0.728679 0.051841 -2.683896
v 1.790952 0.051841 -3.483856
v -3.158221 0.051841 -19.072172
v -0.728679 0.051841 -2.683896
v 2.442029 0.051841 2.934901
v 1.790952 0.051841 -3.483856
v -0.728679 0.051841 -2.683896
vt 0.186523 0.943970
vt 0.186523 0.754517
vt 0.018066 0.849121
vt 0.814453 0.754517
vt 0.186523 0.754517
vt 0.186523 0.943970
vt 0.814453 0.943970
vt 0.814453 0.754517
vt 0.186523 0.943970
vt 0.814453 0.754517
vt 0.814453 0.943970
vt 0.982910 0.849243
vt 0.975586 0.990028
vt 0.975586 0.965851
vt 0.770508 0.965851
vt 0.770508 0.990028
vt 0.975586 0.990028
vt 0.770508 0.965851
vt 0.770508 0.990028
vt 0.770508 0.965851
vt 0.240479 0.990028
vt 0.770508 0.965851
vt 0.240479 0.965851
vt 0.240479 0.990028
vt 0.240479 0.990028
vt 0.240479 0.965851
vt 0.035736 0.965851
vt 0.035736 0.990028
vt 0.240479 0.990028
vt 0.035736 0.965851
vt 0.975586 0.965363
vt 0.770508 0.965363
vt 0.975586 0.989525
vt 0.770508 0.965363
vt 0.770508 0.989525
vt 0.975586 0.989525
vt 0.240479 0.989525
vt 0.770508 0.989525
vt 0.770508 0.965363
vt 0.240479 0.965363
vt 0.240479 0.989525
vt 0.770508 0.965363
vt 0.240479 0.965363
vt 0.035736 0.965363
vt 0.240479 0.989525
vt 0.035736 0.965363
vt 0.035736 0.989525
vt 0.240479 0.989525
vt 0.982910 0.849243
vt 0.814453 0.754517
vt 0.814453 0.943970
vt 0.814453 0.943970
vt 0.814453 0.754517
vt 0.186523 0.754517
vt 0.186523 0.943970
vt 0.814453 0.943970
vt 0.186523 0.754517
vt 0.018066 0.849121
vt 0.186523 0.943970
vt 0.186523 0.754517
vn 0.000000 1.000000 0.000000
vn 0.000000 1.000000 0.000000
vn 0.000000 1.000000 0.000000
vn 0.000000 1.000000 0.000000
vn 0.000000 1.000000 0.000000
vn 0.000000 1.000000 0.000000
vn 0.000000 1.000000 0.000000
vn 0.000000 1.000000 0.000000
vn 0.000000 1.000000 0.000000
vn 0.000000 1.000000 0.000000
vn 0.000000 1.000000 0.000000
vn 0.000000 1.000000 0.000000
vn 0.872798 0.000000 -0.487280
vn 0.872798 0.000000 -0.487280
vn 0.917808 0.000000 -0.397260
vn 0.917808 0.000000 -0.397260
vn 0.872798 0.000000 -0.487280
vn 0.917808 0.000000 -0.397260
vn 0.917808 0.000000 -0.397260
vn 0.917808 0.000000 -0.397260
vn 0.978474 0.000000 -0.203523
vn 0.917808 0.000000 -0.397260
vn 0.978474 0.000000 -0.203523
vn 0.978474 0.000000 -0.203523
vn 0.978474 0.000000 -0.203523
vn 0.978474 0.000000 -0.203523
vn 0.994129 0.000000 -0.101761
vn 0.994129 0.000000 -0.101761
vn 0.978474 0.000000 -0.203523
vn 0.994129 0.000000 -0.101761
vn -0.996086 0.000000 0.095890
vn -0.980431 0.000000 0.201566
vn -0.996086 0.000000 0.095890
vn -0.980431 0.000000 0.201566
vn -0.980431 0.000000 0.201566
vn -0.996086 0.000000 0.095890
vn -0.917808 0.000000 0.399217
vn -0.980431 0.000000 0.201566
vn -0.980431 0.000000 0.201566
vn -0.917808 0.000000 0.399217
vn -0.917808 0.000000 0.399217
vn -0.980431 0.000000 0.201566
vn -0.917808 0.000000 0.399217
vn -0.870842 0.000000 0.491194
vn -0.917808 0.000000 0.399217
vn -0.870842 0.000000 0.491194
vn -0.870842 0.000000 0.491194
vn -0.917808 0.000000 0.399217
vn 0.000000 -1.000000 0.000000
vn 0.000000 -1.000000 0.000000
vn 0.000000 -1.000000 0.000000
vn 0.000000 -1.000000 0.000000
vn 0.000000 -1.000000 0.000000
vn 0.000000 -1.000000 0.000000
vn 0.000000 -1.000000 0.000000
vn 0.000000 -1.000000 0.000000
vn 0.000000 -1.000000 0.000000
vn 0.000000 -1.000000 0.000000
vn 0.000000 -1.000000 0.000000
vn 0.000000 -1.000000 0.000000
mtllib mtl_t6_wpn_ballistic_knife_camo1.mtl
g mtl_t6_wpn_ballistic_knife_camo1
usemtl mtl_t6_wpn_ballistic_knife_camo1
f 3/3/3 2/2/2 1/1/1
f 6/6/6 5/5/5 4/4/4
f 9/9/9 8/8/8 7/7/7
f 12/12/12 11/11/11 10/10/10
f 15/15/15 14/14/14 13/13/13
f 18/18/18 17/17/17 16/16/16
f 21/21/21 20/20/20 19/19/19
f 24/24/24 23/23/23 22/22/22
f 27/27/27 26/26/26 25/25/25
f 30/30/30 29/29/29 28/28/28
f 33/33/33 32/32/32 31/31/31
f 36/36/36 35/35/35 34/34/34
f 39/39/39 38/38/38 37/37/37
f 42/42/42 41/41/41 40/40/40
f 45/45/45 44/44/44 43/43/43
f 48/48/48 47/47/47 46/46/46
f 51/51/51 50/50/50 49/49/49
f 54/54/54 53/53/53 52/52/52
f 57/57/57 56/56/56 55/55/55
f 60/60/60 59/59/59 58/58/58
