# Generated by Wraith - Game extraction tools
# Please credit DTZxPorter for using it!

v 6.021613 11.818091 3.345924
v -4.149811 12.771803 3.345927
v 7.378957 14.482018 -5.139667
v -4.149811 12.771803 3.345927
v -5.085230 15.650730 -5.139667
v 7.378957 14.482018 -5.139667
v -5.085230 15.650730 -5.139667
v -4.149811 12.771803 3.345927
v -14.482016 7.378957 -5.139667
v -4.149811 12.771803 3.345927
v -11.818087 6.021608 3.345927
v -14.482016 7.378957 -5.139667
v -11.818087 6.021608 3.345927
v -12.771803 -4.149811 3.345927
v -14.482016 7.378957 -5.139667
v -12.771803 -4.149811 3.345927
v -15.650728 -5.085230 -5.139667
v -14.482016 7.378957 -5.139667
v -15.650728 -5.085230 -5.139667
v -12.771803 -4.149811 3.345927
v -7.378957 -14.482016 -5.139667
v -12.771803 -4.149811 3.345927
v -6.021611 -11.818087 3.345927
v -7.378957 -14.482016 -5.139667
v -6.021611 -11.818087 3.345927
v 4.149809 -12.771795 3.345927
v -7.378957 -14.482016 -5.139667
v 4.149809 -12.771795 3.345927
v 5.085227 -15.650725 -5.139667
v -7.378957 -14.482016 -5.139667
v 5.085227 -15.650725 -5.139667
v 4.149809 -12.771795 3.345927
v 14.482013 -7.378954 -5.139667
v 4.149809 -12.771795 3.345927
v 11.818076 -6.021611 3.345927
v 14.482013 -7.378954 -5.139667
v 12.771811 4.149814 3.345927
v 6.021613 11.818091 3.345924
v 7.378957 14.482018 -5.139667
v 15.650733 5.085232 -5.139667
v 12.771811 4.149814 3.345927
v 7.378957 14.482018 -5.139667
v 12.771811 4.149814 3.345927
v 15.650733 5.085232 -5.139667
v 14.482013 -7.378954 -5.139667
v 11.818076 -6.021611 3.345927
v 12.771811 4.149814 3.345927
v 14.482013 -7.378954 -5.139667
v 5.085227 -15.650725 -5.139667
v 14.482013 -7.378954 -5.139667
v -7.378957 -14.482016 -5.139667
v -7.378957 -14.482016 -5.139667
v 14.482013 -7.378954 -5.139667
v -15.650728 -5.085230 -5.139667
v -15.650728 -5.085230 -5.139667
v 14.482013 -7.378954 -5.139667
v -14.482016 7.378957 -5.139667
v -14.482016 7.378957 -5.139667
v 14.482013 -7.378954 -5.139667
v -5.085230 15.650730 -5.139667
v -5.085230 15.650730 -5.139667
v 14.482013 -7.378954 -5.139667
v 7.378957 14.482018 -5.139667
v 7.378957 14.482018 -5.139667
v 14.482013 -7.378954 -5.139667
v 15.650733 5.085232 -5.139667
v 12.771811 4.149814 3.345927
v 11.818076 -6.021611 3.345927
v 6.021613 11.818091 3.345924
v 11.818076 -6.021611 3.345927
v 4.149809 -12.771795 3.345927
v 6.021613 11.818091 3.345924
v 4.149809 -12.771795 3.345927
v -6.021611 -11.818087 3.345927
v 6.021613 11.818091 3.345924
v 6.021613 11.818091 3.345924
v -6.021611 -11.818087 3.345927
v -4.149811 12.771803 3.345927
v -4.149811 12.771803 3.345927
v -6.021611 -11.818087 3.345927
v -11.818087 6.021608 3.345927
v -11.818087 6.021608 3.345927
v -6.021611 -11.818087 3.345927
v -12.771803 -4.149811 3.345927
vt 0.272949 0.996149
vt 0.476563 0.996149
vt 0.262939 0.812866
vt 0.476563 0.996149
vt 0.490723 0.807251
vt 0.262939 0.812866
vt 0.490723 0.807251
vt 0.476563 0.996149
vt 0.711426 0.807251
vt 0.476563 0.996149
vt 0.685059 0.996149
vt 0.711426 0.807251
vt 0.497559 0.997852
vt 0.293945 0.997852
vt 0.507813 0.808960
vt 0.293945 0.997852
vt 0.279785 0.808960
vt 0.507813 0.808960
vt 0.279785 0.808960
vt 0.293945 0.997852
vt 0.059021 0.808960
vt 0.293945 0.997852
vt 0.085449 0.997852
vt 0.059021 0.808960
vt 0.600586 0.996405
vt 0.396973 0.996405
vt 0.610352 0.813110
vt 0.396973 0.996405
vt 0.382813 0.807495
vt 0.610352 0.813110
vt 0.382813 0.807495
vt 0.396973 0.996405
vt 0.240356 0.807495
vt 0.396973 0.996405
vt 0.262207 0.996405
vt 0.240356 0.807495
vt 0.388916 0.996986
vt 0.597168 0.996986
vt 0.624023 0.808105
vt 0.403076 0.808105
vt 0.388916 0.996986
vt 0.624023 0.808105
vt 0.388916 0.996986
vt 0.403076 0.808105
vt 0.130493 0.808105
vt 0.147949 0.996986
vt 0.388916 0.996986
vt 0.130493 0.808105
vt 0.844238 0.469727
vt 0.970215 0.543945
vt 0.812012 0.336426
vt 0.812012 0.336426
vt 0.970215 0.543945
vt 0.886230 0.210449
vt 0.886230 0.210449
vt 0.970215 0.543945
vt 0.968262 0.178223
vt 0.968262 0.178223
vt 0.970215 0.543945
vt 0.843750 0.252441
vt 0.843750 0.252441
vt 0.970215 0.543945
vt 0.811523 0.386230
vt 0.811523 0.386230
vt 0.970215 0.543945
vt 0.886230 0.511719
vt 0.778809 0.431641
vt 0.699707 0.172852
vt 0.627441 0.701416
vt 0.699707 0.172852
vt 0.429932 0.021484
vt 0.627441 0.701416
vt 0.429932 0.021484
vt 0.171021 0.100586
vt 0.627441 0.701416
vt 0.627441 0.701416
vt 0.171021 0.100586
vt 0.368652 0.780396
vt 0.368652 0.780396
vt 0.171021 0.100586
vt 0.098938 0.629395
vt 0.098938 0.629395
vt 0.171021 0.100586
vt 0.020020 0.370605
vn 0.428571 0.839530 0.332681
vn -0.291585 0.896282 0.336595
vn 0.428571 0.839530 0.332681
vn -0.291585 0.896282 0.336595
vn -0.291585 0.896282 0.336595
vn 0.428571 0.839530 0.332681
vn -0.291585 0.896282 0.336595
vn -0.291585 0.896282 0.336595
vn -0.839530 0.428571 0.332681
vn -0.291585 0.896282 0.336595
vn -0.839530 0.428571 0.332681
vn -0.839530 0.428571 0.332681
vn -0.839530 0.428571 0.332681
vn -0.896282 -0.291585 0.336595
vn -0.839530 0.428571 0.332681
vn -0.896282 -0.291585 0.336595
vn -0.896282 -0.291585 0.336595
vn -0.839530 0.428571 0.332681
vn -0.896282 -0.291585 0.336595
vn -0.896282 -0.291585 0.336595
vn -0.428571 -0.839530 0.332681
vn -0.896282 -0.291585 0.336595
vn -0.428571 -0.839530 0.332681
vn -0.428571 -0.839530 0.332681
vn -0.428571 -0.839530 0.332681
vn 0.291585 -0.896282 0.336595
vn -0.428571 -0.839530 0.332681
vn 0.291585 -0.896282 0.336595
vn 0.291585 -0.896282 0.336595
vn -0.428571 -0.839530 0.332681
vn 0.291585 -0.896282 0.336595
vn 0.291585 -0.896282 0.336595
vn 0.839530 -0.428571 0.332681
vn 0.291585 -0.896282 0.336595
vn 0.839530 -0.428571 0.332681
vn 0.839530 -0.428571 0.332681
vn 0.896282 0.291585 0.336595
vn 0.428571 0.839530 0.332681
vn 0.428571 0.839530 0.332681
vn 0.896282 0.291585 0.336595
vn 0.896282 0.291585 0.336595
vn 0.428571 0.839530 0.332681
vn 0.896282 0.291585 0.336595
vn 0.896282 0.291585 0.336595
vn 0.839530 -0.428571 0.332681
vn 0.839530 -0.428571 0.332681
vn 0.896282 0.291585 0.336595
vn 0.839530 -0.428571 0.332681
vn 0.000000 0.000000 -1.000000
vn 0.000000 0.000000 -1.000000
vn 0.000000 0.000000 -1.000000
vn 0.000000 0.000000 -1.000000
vn 0.000000 0.000000 -1.000000
vn 0.000000 0.000000 -1.000000
vn 0.000000 0.000000 -1.000000
vn 0.000000 0.000000 -1.000000
vn 0.000000 0.000000 -1.000000
vn 0.000000 0.000000 -1.000000
vn 0.000000 0.000000 -1.000000
vn 0.000000 0.000000 -1.000000
vn 0.000000 0.000000 -1.000000
vn 0.000000 0.000000 -1.000000
vn 0.000000 0.000000 -1.000000
vn 0.000000 0.000000 -1.000000
vn 0.000000 0.000000 -1.000000
vn 0.000000 0.000000 -1.000000
vn 0.000000 0.000000 1.000000
vn 0.000000 0.000000 1.000000
vn 0.000000 0.000000 1.000000
vn 0.000000 0.000000 1.000000
vn 0.000000 0.000000 1.000000
vn 0.000000 0.000000 1.000000
vn 0.000000 0.000000 1.000000
vn 0.000000 0.000000 1.000000
vn 0.000000 0.000000 1.000000
vn 0.000000 0.000000 1.000000
vn 0.000000 0.000000 1.000000
vn 0.000000 0.000000 1.000000
vn 0.000000 0.000000 1.000000
vn 0.000000 0.000000 1.000000
vn 0.000000 0.000000 1.000000
vn 0.000000 0.000000 1.000000
vn 0.000000 0.000000 1.000000
vn 0.000000 0.000000 1.000000
mtllib mtl_t6_wpn_bouncing_betty.mtl
g mtl_t6_wpn_bouncing_betty
usemtl mtl_t6_wpn_bouncing_betty
f 3/3/3 2/2/2 1/1/1
f 6/6/6 5/5/5 4/4/4
f 9/9/9 8/8/8 7/7/7
f 12/12/12 11/11/11 10/10/10
f 15/15/15 14/14/14 13/13/13
f 18/18/18 17/17/17 16/16/16
f 21/21/21 20/20/20 19/19/19
f 24/24/24 23/23/23 22/22/22
f 27/27/27 26/26/26 25/25/25
f 30/30/30 29/29/29 28/28/28
f 33/33/33 32/32/32 31/31/31
f 36/36/36 35/35/35 34/34/34
f 39/39/39 38/38/38 37/37/37
f 42/42/42 41/41/41 40/40/40
f 45/45/45 44/44/44 43/43/43
f 48/48/48 47/47/47 46/46/46
f 51/51/51 50/50/50 49/49/49
f 54/54/54 53/53/53 52/52/52
f 57/57/57 56/56/56 55/55/55
f 60/60/60 59/59/59 58/58/58
f 63/63/63 62/62/62 61/61/61
f 66/66/66 65/65/65 64/64/64
f 69/69/69 68/68/68 67/67/67
f 72/72/72 71/71/71 70/70/70
f 75/75/75 74/74/74 73/73/73
f 78/78/78 77/77/77 76/76/76
f 81/81/81 80/80/80 79/79/79
f 84/84/84 83/83/83 82/82/82
