# Generated by Wraith - Game extraction tools
# Please credit DTZxPorter for using it!

v 0.501907 40.832222 80.931274
v 0.502755 40.832222 -80.931274
v 0.503022 38.292221 -75.851288
v 0.511302 -40.832085 80.931252
v 0.511033 -38.292095 75.851257
v 0.512150 -40.832085 -80.931290
v 0.502755 40.832222 -80.931274
v 0.503425 35.752224 -78.391266
v 0.503022 38.292221 -75.851288
v 0.511302 -40.832085 80.931252
v -2.028693 -40.832447 80.931206
v 0.501907 40.832222 80.931274
v -2.028693 -40.832447 80.931206
v -2.038101 40.831848 80.931221
v 0.501907 40.832222 80.931274
v -2.029376 -35.752457 78.391205
v 0.510624 -35.752094 78.391258
v -2.037334 35.751854 78.391220
v 0.510624 -35.752094 78.391258
v 0.502666 35.752216 78.391273
v -2.037334 35.751854 78.391220
v -2.036971 38.291859 -75.851318
v -2.037652 38.291851 75.851227
v 0.503022 38.292221 -75.851288
v -2.037652 38.291851 75.851227
v 0.502351 38.292217 75.851273
v 0.503022 38.292221 -75.851288
v -2.038101 40.831848 80.931221
v -2.037255 40.831863 -80.931320
v 0.501907 40.832222 80.931274
v -2.037255 40.831863 -80.931320
v 0.502755 40.832222 -80.931274
v 0.501907 40.832222 80.931274
v -2.036567 35.751862 -78.391312
v 0.503425 35.752224 -78.391266
v -2.028617 -35.752441 -78.391327
v 0.503425 35.752224 -78.391266
v 0.511383 -35.752079 -78.391281
v -2.028617 -35.752441 -78.391327
v 0.502755 40.832222 -80.931274
v -2.037255 40.831863 -80.931320
v 0.512150 -40.832085 -80.931290
v -2.037255 40.831863 -80.931320
v -2.027847 -40.832443 -80.931320
v 0.512150 -40.832085 -80.931290
v 0.511383 -35.752079 -78.391281
v 0.503425 35.752224 -78.391266
v 0.512150 -40.832085 -80.931290
v 0.503425 35.752224 -78.391266
v 0.502755 40.832222 -80.931274
v 0.512150 -40.832085 -80.931290
v -2.027847 -40.832443 -80.931320
v -2.028693 -40.832447 80.931206
v 0.512150 -40.832085 -80.931290
v -2.028693 -40.832447 80.931206
v 0.511302 -40.832085 80.931252
v 0.512150 -40.832085 -80.931290
v -2.028970 -38.292458 75.851212
v -2.028302 -38.292446 -75.851318
v 0.511033 -38.292095 75.851257
v -2.028302 -38.292446 -75.851318
v 0.511701 -38.292084 -75.851273
v 0.511033 -38.292095 75.851257
v 0.511302 -40.832085 80.931252
v 0.501907 40.832222 80.931274
v 0.502666 35.752216 78.391273
v 0.510624 -35.752094 78.391258
v 0.511302 -40.832085 80.931252
v 0.502666 35.752216 78.391273
v 0.510624 -35.752094 78.391258
v 0.511033 -38.292095 75.851257
v 0.511302 -40.832085 80.931252
v 0.510624 -35.752094 78.391258
v -2.029376 -35.752457 78.391205
v 0.511033 -38.292095 75.851257
v -2.029376 -35.752457 78.391205
v -2.028970 -38.292458 75.851212
v 0.511033 -38.292095 75.851257
v 0.502351 38.292217 75.851273
v 0.501907 40.832222 80.931274
v 0.503022 38.292221 -75.851288
v 0.502666 35.752216 78.391273
v 0.501907 40.832222 80.931274
v 0.502351 38.292217 75.851273
v 0.511033 -38.292095 75.851257
v 0.511701 -38.292084 -75.851273
v 0.512150 -40.832085 -80.931290
v 0.511383 -35.752079 -78.391281
v 0.512150 -40.832085 -80.931290
v 0.511701 -38.292084 -75.851273
v -2.036971 38.291859 -75.851318
v 0.503022 38.292221 -75.851288
v -2.036567 35.751862 -78.391312
v 0.503022 38.292221 -75.851288
v 0.503425 35.752224 -78.391266
v -2.036567 35.751862 -78.391312
v 0.502351 38.292217 75.851273
v -2.037652 38.291851 75.851227
v 0.502666 35.752216 78.391273
v -2.037652 38.291851 75.851227
v -2.037334 35.751854 78.391220
v 0.502666 35.752216 78.391273
v -2.028617 -35.752441 -78.391327
v 0.511383 -35.752079 -78.391281
v -2.028302 -38.292446 -75.851318
v 0.511383 -35.752079 -78.391281
v 0.511701 -38.292084 -75.851273
v -2.028302 -38.292446 -75.851318
v -2.028617 -35.752441 -78.391327
v -2.027847 -40.832443 -80.931320
v -2.037255 40.831863 -80.931320
v -2.028617 -35.752441 -78.391327
v -2.028302 -38.292446 -75.851318
v -2.027847 -40.832443 -80.931320
v -2.027847 -40.832443 -80.931320
v -2.028302 -38.292446 -75.851318
v -2.028970 -38.292458 75.851212
v -2.028693 -40.832447 80.931206
v -2.027847 -40.832443 -80.931320
v -2.028970 -38.292458 75.851212
v -2.028693 -40.832447 80.931206
v -2.028970 -38.292458 75.851212
v -2.029376 -35.752457 78.391205
v -2.028693 -40.832447 80.931206
v -2.029376 -35.752457 78.391205
v -2.037334 35.751854 78.391220
v -2.038101 40.831848 80.931221
v -2.028693 -40.832447 80.931206
v -2.037334 35.751854 78.391220
v -2.036567 35.751862 -78.391312
v -2.028617 -35.752441 -78.391327
v -2.037255 40.831863 -80.931320
v -2.037255 40.831863 -80.931320
v -2.036971 38.291859 -75.851318
v -2.036567 35.751862 -78.391312
v -2.037255 40.831863 -80.931320
v -2.038101 40.831848 80.931221
v -2.036971 38.291859 -75.851318
v -2.038101 40.831848 80.931221
v -2.037652 38.291851 75.851227
v -2.036971 38.291859 -75.851318
v -2.038101 40.831848 80.931221
v -2.037334 35.751854 78.391220
v -2.037652 38.291851 75.851227
v -0.041123 -38.292278 75.851212
v -0.040963 -38.292263 75.646042
v -0.045438 -35.752453 78.391228
v -0.045438 -35.752453 78.391228
v -0.040963 -38.292263 75.646042
v -0.047859 35.752205 78.391251
v -0.040963 -38.292263 75.646042
v -0.038834 -38.292084 -75.851288
v -0.047859 35.752205 78.391251
v -0.047859 35.752205 78.391251
v -0.038834 -38.292084 -75.851288
v -0.048176 38.292202 75.851250
v -0.038834 -38.292084 -75.851288
v -0.039149 -35.752075 -78.391281
v -0.048176 38.292202 75.851250
v -0.048176 38.292202 75.851250
v -0.039149 -35.752075 -78.391281
v -0.047099 35.752216 -78.391312
v -0.047506 38.292217 -75.851303
v -0.048176 38.292202 75.851250
v -0.047099 35.752216 -78.391312
v 2.027573 38.292374 75.851280
v 2.028241 38.292385 -75.851288
v 2.027890 35.752369 78.391281
v 2.028241 38.292385 -75.851288
v 2.039043 -38.292179 75.646042
v 2.027890 35.752369 78.391281
v 2.039201 -38.292194 75.851204
v 2.027890 35.752369 78.391281
v 2.039043 -38.292179 75.646042
v 2.034626 -35.752457 78.391235
v 2.027890 35.752369 78.391281
v 2.039201 -38.292194 75.851204
v 2.028647 35.752384 -78.391281
v 2.039043 -38.292179 75.646042
v 2.028241 38.292385 -75.851288
v 2.036625 -35.751907 -78.391281
v 2.039043 -38.292179 75.646042
v 2.028647 35.752384 -78.391281
v 2.036945 -38.291908 -75.851273
v 2.039043 -38.292179 75.646042
v 2.036625 -35.751907 -78.391281
v -0.038834 -38.292084 -75.851288
v -0.040963 -38.292263 75.646042
v 2.036945 -38.291908 -75.851273
v -0.040963 -38.292263 75.646042
v 2.039043 -38.292179 75.646042
v 2.036945 -38.291908 -75.851273
v -0.047099 35.752216 -78.391312
v -0.039149 -35.752075 -78.391281
v 2.028647 35.752384 -78.391281
v -0.039149 -35.752075 -78.391281
v 2.036625 -35.751907 -78.391281
v 2.028647 35.752384 -78.391281
v -0.048176 38.292202 75.851250
v -0.047506 38.292217 -75.851303
v 2.027573 38.292374 75.851280
v -0.047506 38.292217 -75.851303
v 2.028241 38.292385 -75.851288
v 2.027573 38.292374 75.851280
v -0.045438 -35.752453 78.391228
v -0.047859 35.752205 78.391251
v 2.034626 -35.752457 78.391235
v -0.047859 35.752205 78.391251
v 2.027890 35.752369 78.391281
v 2.034626 -35.752457 78.391235
v -0.038834 -38.292084 -75.851288
v 2.036945 -38.291908 -75.851273
v -0.039149 -35.752075 -78.391281
v 2.036945 -38.291908 -75.851273
v 2.036625 -35.751907 -78.391281
v -0.039149 -35.752075 -78.391281
v -0.048176 38.292202 75.851250
v 2.027573 38.292374 75.851280
v -0.047859 35.752205 78.391251
v 2.027573 38.292374 75.851280
v 2.027890 35.752369 78.391281
v -0.047859 35.752205 78.391251
v 2.028241 38.292385 -75.851288
v -0.047506 38.292217 -75.851303
v 2.028647 35.752384 -78.391281
v -0.047506 38.292217 -75.851303
v -0.047099 35.752216 -78.391312
v 2.028647 35.752384 -78.391281
v 2.039201 -38.292194 75.851204
v -0.041123 -38.292278 75.851212
v 2.034626 -35.752457 78.391235
v -0.041123 -38.292278 75.851212
v -0.045438 -35.752453 78.391228
v 2.034626 -35.752457 78.391235
v -0.073810 30.210106 -2.623851
v -0.073810 30.210110 6.150196
v -0.073812 19.466379 -2.623853
v -0.073810 30.210110 6.150196
v -0.073812 19.466379 6.150193
v -0.073812 19.466379 -2.623853
vt -0.294434 0.577637
vt -0.002289 0.577637
vt -0.031250 0.551270
vt -0.294434 -0.221680
vt -0.265625 -0.194336
vt -0.002289 -0.221680
vt -0.002289 0.577637
vt -0.014740 0.536133
vt -0.031250 0.551270
vt -112.187500 -2141.000000
vt -112.187500 -2139.000000
vt -110.937500 -2141.000000
vt -112.187500 -2139.000000
vt -110.937500 -2139.000000
vt -110.937500 -2141.000000
vt -115.062500 -2139.000000
vt -115.062500 -2141.000000
vt -116.125000 -2139.000000
vt -115.062500 -2141.000000
vt -116.125000 -2141.000000
vt -116.125000 -2139.000000
vt -118.437500 -2139.000000
vt -116.187500 -2139.000000
vt -118.437500 -2141.000000
vt -116.187500 -2139.000000
vt -116.187500 -2141.000000
vt -118.437500 -2141.000000
vt -118.375000 -2139.000000
vt -115.937500 -2139.000000
vt -118.375000 -2141.000000
vt -115.937500 -2139.000000
vt -115.937500 -2141.000000
vt -118.375000 -2141.000000
vt -111.625000 -2139.000000
vt -111.625000 -2141.000000
vt -112.687500 -2139.000000
vt -111.625000 -2141.000000
vt -112.687500 -2141.000000
vt -112.687500 -2139.000000
vt -115.937500 -2141.000000
vt -115.937500 -2139.000000
vt -114.687500 -2141.000000
vt -115.937500 -2139.000000
vt -114.687500 -2139.000000
vt -114.687500 -2141.000000
vt -0.015625 -0.163086
vt -0.015625 0.520264
vt -0.002289 -0.221680
vt -0.015625 0.520264
vt -0.002289 0.577637
vt -0.002289 -0.221680
vt -114.687500 -2139.000000
vt -112.187500 -2139.000000
vt -114.687500 -2141.000000
vt -112.187500 -2139.000000
vt -112.187500 -2141.000000
vt -114.687500 -2141.000000
vt -115.000000 -2139.000000
vt -112.750000 -2139.000000
vt -115.000000 -2141.000000
vt -112.750000 -2139.000000
vt -112.750000 -2141.000000
vt -115.000000 -2141.000000
vt -0.294434 -0.221680
vt -0.294434 0.577637
vt -0.281250 0.520264
vt -0.281250 -0.163086
vt -0.294434 -0.221680
vt -0.281250 0.520264
vt -0.281250 -0.163086
vt -0.249268 -0.193359
vt -0.294434 -0.221680
vt -115.062500 -2141.000000
vt -115.062500 -2139.000000
vt -115.000000 -2141.000000
vt -115.062500 -2139.000000
vt -115.000000 -2139.000000
vt -115.000000 -2141.000000
vt -0.265625 0.551270
vt -0.294434 0.577637
vt -0.031250 0.551270
vt -0.281982 0.536133
vt -0.294434 0.577637
vt -0.265625 0.551270
vt -0.265625 -0.194336
vt -0.031250 -0.194336
vt -0.002289 -0.221680
vt -0.014671 -0.179688
vt -0.002289 -0.221680
vt -0.031250 -0.194336
vt -111.562500 -2139.000000
vt -111.562500 -2141.000000
vt -111.625000 -2139.000000
vt -111.562500 -2141.000000
vt -111.625000 -2141.000000
vt -111.625000 -2139.000000
vt -116.187500 -2141.000000
vt -116.187500 -2139.000000
vt -116.125000 -2141.000000
vt -116.187500 -2139.000000
vt -116.125000 -2139.000000
vt -116.125000 -2141.000000
vt -112.687500 -2139.000000
vt -112.687500 -2141.000000
vt -112.750000 -2139.000000
vt -112.687500 -2141.000000
vt -112.750000 -2141.000000
vt -112.750000 -2139.000000
vt -114.875000 -2139.000000
vt -114.937500 -2139.000000
vt -113.937500 -2139.000000
vt -114.875000 -2139.000000
vt -114.937500 -2139.000000
vt -114.937500 -2139.000000
vt -114.937500 -2139.000000
vt -114.937500 -2139.000000
vt -114.937500 -2141.000000
vt -114.937500 -2141.000000
vt -114.937500 -2139.000000
vt -114.937500 -2141.000000
vt -114.937500 -2141.000000
vt -114.937500 -2141.000000
vt -114.875000 -2141.000000
vt -114.937500 -2141.000000
vt -114.875000 -2141.000000
vt -114.000000 -2141.000000
vt -113.937500 -2141.000000
vt -114.937500 -2141.000000
vt -114.000000 -2141.000000
vt -114.000000 -2139.000000
vt -114.875000 -2139.000000
vt -113.937500 -2139.000000
vt -113.937500 -2139.000000
vt -114.000000 -2139.000000
vt -114.000000 -2139.000000
vt -113.937500 -2139.000000
vt -113.937500 -2141.000000
vt -114.000000 -2139.000000
vt -113.937500 -2141.000000
vt -114.000000 -2141.000000
vt -114.000000 -2139.000000
vt -113.937500 -2141.000000
vt -114.000000 -2141.000000
vt -114.000000 -2141.000000
vt -0.366211 0.969620
vt -0.366211 0.968384
vt -0.381592 0.985023
vt -0.381592 0.985023
vt -0.366211 0.968384
vt -0.815430 0.985023
vt -0.366211 0.968384
vt -0.366211 0.049805
vt -0.815430 0.985023
vt -0.815430 0.985023
vt -0.366211 0.049805
vt -0.830566 0.969620
vt -0.366211 0.049805
vt -0.381592 0.034668
vt -0.830566 0.969620
vt -0.830566 0.969620
vt -0.381592 0.034668
vt -0.815430 0.034668
vt -0.830566 0.049805
vt -0.830566 0.969620
vt -0.815430 0.034668
vt -0.366211 0.969650
vt -0.366211 0.049805
vt -0.381836 0.985046
vt -0.366211 0.049805
vt -0.830566 0.968414
vt -0.381836 0.985046
vt -0.830566 0.969650
vt -0.381836 0.985046
vt -0.830566 0.968414
vt -0.815430 0.985046
vt -0.381836 0.985046
vt -0.830566 0.969650
vt -0.381836 0.034668
vt -0.830566 0.968414
vt -0.366211 0.049805
vt -0.815430 0.034668
vt -0.830566 0.968414
vt -0.381836 0.034668
vt -0.830566 0.049805
vt -0.830566 0.968414
vt -0.815430 0.034668
vt -0.972168 0.934326
vt -0.972168 0.032715
vt -0.984375 0.934326
vt -0.972168 0.032715
vt -0.984375 0.032715
vt -0.984375 0.934326
vt -211.250000 100.812500
vt -211.375000 100.812500
vt -211.250000 100.812500
vt -211.375000 100.812500
vt -211.375000 100.812500
vt -211.250000 100.812500
vt -0.972168 0.935669
vt -0.972168 0.033203
vt -0.984375 0.935669
vt -0.972168 0.033203
vt -0.984375 0.033203
vt -0.984375 0.935669
vt -0.967285 0.937378
vt -0.967285 0.511963
vt -0.979492 0.937378
vt -0.967285 0.511963
vt -0.979492 0.511963
vt -0.979492 0.937378
vt -211.375000 100.812500
vt -211.375000 100.812500
vt -211.375000 100.812500
vt -211.375000 100.812500
vt -211.375000 100.812500
vt -211.375000 100.812500
vt -0.972168 0.935669
vt -0.984375 0.935669
vt -0.972168 0.957031
vt -0.984375 0.935669
vt -0.984375 0.957031
vt -0.972168 0.957031
vt -211.125000 100.812500
vt -211.125000 100.812500
vt -211.250000 100.812500
vt -211.125000 100.812500
vt -211.250000 100.812500
vt -211.250000 100.812500
vt -0.979492 0.959106
vt -0.967285 0.959106
vt -0.979492 0.937378
vt -0.967285 0.959106
vt -0.967285 0.937378
vt -0.979492 0.937378
vt 0.000000 1.000000
vt 1.000000 1.000000
vt 0.000000 0.000000
vt 1.000000 1.000000
vt 1.000000 0.000000
vt 0.000000 0.000000
vn 1.000000 0.000000 0.000000
vn 1.000000 0.000000 0.000000
vn 1.000000 0.000000 0.000000
vn 1.000000 0.000000 0.000000
vn 1.000000 0.000000 0.000000
vn 1.000000 0.000000 0.000000
vn 1.000000 0.000000 0.000000
vn 1.000000 0.000000 0.000000
vn 1.000000 0.000000 0.000000
vn 0.000000 0.000000 1.000000
vn 0.000000 0.000000 1.000000
vn 0.000000 0.000000 1.000000
vn 0.000000 0.000000 1.000000
vn 0.000000 0.000000 1.000000
vn 0.000000 0.000000 1.000000
vn 0.000000 0.000000 -1.000000
vn 0.000000 0.000000 -1.000000
vn 0.000000 0.000000 -1.000000
vn 0.000000 0.000000 -1.000000
vn 0.000000 0.000000 -1.000000
vn 0.000000 0.000000 -1.000000
vn 0.000000 -1.000000 0.000000
vn 0.000000 -1.000000 0.000000
vn 0.000000 -1.000000 0.000000
vn 0.000000 -1.000000 0.000000
vn 0.000000 -1.000000 0.000000
vn 0.000000 -1.000000 0.000000
vn 0.000000 1.000000 0.000000
vn 0.000000 1.000000 0.000000
vn 0.000000 1.000000 0.000000
vn 0.000000 1.000000 0.000000
vn 0.000000 1.000000 0.000000
vn 0.000000 1.000000 0.000000
vn 0.000000 0.000000 1.000000
vn 0.000000 0.000000 1.000000
vn 0.000000 0.000000 1.000000
vn 0.000000 0.000000 1.000000
vn 0.000000 0.000000 1.000000
vn 0.000000 0.000000 1.000000
vn 0.000000 0.000000 -1.000000
vn 0.000000 0.000000 -1.000000
vn 0.000000 0.000000 -1.000000
vn 0.000000 0.000000 -1.000000
vn 0.000000 0.000000 -1.000000
vn 0.000000 0.000000 -1.000000
vn 1.000000 0.000000 0.000000
vn 1.000000 0.000000 0.000000
vn 1.000000 0.000000 0.000000
vn 1.000000 0.000000 0.000000
vn 1.000000 0.000000 0.000000
vn 1.000000 0.000000 0.000000
vn 0.000000 -1.000000 0.000000
vn 0.000000 -1.000000 0.000000
vn 0.000000 -1.000000 0.000000
vn 0.000000 -1.000000 0.000000
vn 0.000000 -1.000000 0.000000
vn 0.000000 -1.000000 0.000000
vn 0.000000 1.000000 0.000000
vn 0.000000 1.000000 0.000000
vn 0.000000 1.000000 0.000000
vn 0.000000 1.000000 0.000000
vn 0.000000 1.000000 0.000000
vn 0.000000 1.000000 0.000000
vn 1.000000 0.000000 0.000000
vn 1.000000 0.000000 0.000000
vn 1.000000 0.000000 0.000000
vn 1.000000 0.000000 0.000000
vn 1.000000 0.000000 0.000000
vn 1.000000 0.000000 0.000000
vn 1.000000 0.000000 0.000000
vn 1.000000 0.000000 0.000000
vn 1.000000 0.000000 0.000000
vn 0.000000 0.706458 -0.706458
vn 0.000000 0.706458 -0.706458
vn 0.000000 0.706458 -0.706458
vn 0.000000 0.706458 -0.706458
vn 0.000000 0.706458 -0.706458
vn 0.000000 0.706458 -0.706458
vn 1.000000 0.000000 0.000000
vn 1.000000 0.000000 0.000000
vn 1.000000 0.000000 0.000000
vn 1.000000 0.000000 0.000000
vn 1.000000 0.000000 0.000000
vn 1.000000 0.000000 0.000000
vn 1.000000 0.000000 0.000000
vn 1.000000 0.000000 0.000000
vn 1.000000 0.000000 0.000000
vn 1.000000 0.000000 0.000000
vn 1.000000 0.000000 0.000000
vn 1.000000 0.000000 0.000000
vn 0.000000 -0.706458 0.706458
vn 0.000000 -0.706458 0.706458
vn 0.000000 -0.706458 0.706458
vn 0.000000 -0.706458 0.706458
vn 0.000000 -0.706458 0.706458
vn 0.000000 -0.706458 0.706458
vn 0.000000 -0.706458 -0.706458
vn 0.000000 -0.706458 -0.706458
vn 0.000000 -0.706458 -0.706458
vn 0.000000 -0.706458 -0.706458
vn 0.000000 -0.706458 -0.706458
vn 0.000000 -0.706458 -0.706458
vn 0.000000 0.706458 0.706458
vn 0.000000 0.706458 0.706458
vn 0.000000 0.706458 0.706458
vn 0.000000 0.706458 0.706458
vn 0.000000 0.706458 0.706458
vn 0.000000 0.706458 0.706458
vn -1.000000 0.000000 0.000000
vn -1.000000 0.000000 0.000000
vn -1.000000 0.000000 0.000000
vn -1.000000 0.000000 0.000000
vn -1.000000 0.000000 0.000000
vn -1.000000 0.000000 0.000000
vn -1.000000 0.000000 0.000000
vn -1.000000 0.000000 0.000000
vn -1.000000 0.000000 0.000000
vn -1.000000 0.000000 0.000000
vn -1.000000 0.000000 0.000000
vn -1.000000 0.000000 0.000000
vn -1.000000 0.000000 0.000000
vn -1.000000 0.000000 0.000000
vn -1.000000 0.000000 0.000000
vn -1.000000 0.000000 0.000000
vn -1.000000 0.000000 0.000000
vn -1.000000 0.000000 0.000000
vn -1.000000 0.000000 0.000000
vn -1.000000 0.000000 0.000000
vn -1.000000 0.000000 0.000000
vn -1.000000 0.000000 0.000000
vn -1.000000 0.000000 0.000000
vn -1.000000 0.000000 0.000000
vn -1.000000 0.000000 0.000000
vn -1.000000 0.000000 0.000000
vn -1.000000 0.000000 0.000000
vn -1.000000 0.000000 0.000000
vn -1.000000 0.000000 0.000000
vn -1.000000 0.000000 0.000000
vn -1.000000 0.000000 0.000000
vn -1.000000 0.000000 0.000000
vn -1.000000 0.000000 0.000000
vn -1.000000 0.000000 0.000000
vn -1.000000 0.000000 0.000000
vn -1.000000 0.000000 0.000000
vn -1.000000 0.000000 0.000000
vn -1.000000 0.000000 0.000000
vn -1.000000 0.000000 0.000000
vn -1.000000 0.000000 0.000000
vn -1.000000 0.000000 0.000000
vn -1.000000 0.000000 0.000000
vn -1.000000 0.000000 0.000000
vn -1.000000 0.000000 0.000000
vn -1.000000 0.000000 0.000000
vn -1.000000 0.000000 0.000000
vn -1.000000 0.000000 0.000000
vn -1.000000 0.000000 0.000000
vn -1.000000 0.000000 0.000000
vn -1.000000 0.000000 0.000000
vn -1.000000 0.000000 0.000000
vn -1.000000 0.000000 0.000000
vn -1.000000 0.000000 0.000000
vn -1.000000 0.000000 0.000000
vn -1.000000 0.000000 0.000000
vn -1.000000 0.000000 0.000000
vn -1.000000 0.000000 0.000000
vn 1.000000 0.000000 0.000000
vn 1.000000 0.000000 0.000000
vn 1.000000 0.000000 0.000000
vn 1.000000 0.000000 0.000000
vn 1.000000 0.000000 0.000000
vn 1.000000 0.000000 0.000000
vn 1.000000 0.000000 0.000000
vn 1.000000 0.000000 0.000000
vn 1.000000 0.000000 0.000000
vn 1.000000 0.000000 0.000000
vn 1.000000 0.000000 0.000000
vn 1.000000 0.000000 0.000000
vn 1.000000 0.000000 0.000000
vn 1.000000 0.000000 0.000000
vn 1.000000 0.000000 0.000000
vn 1.000000 0.000000 0.000000
vn 1.000000 0.000000 0.000000
vn 1.000000 0.000000 0.000000
vn 1.000000 0.000000 0.000000
vn 1.000000 0.000000 0.000000
vn 1.000000 0.000000 0.000000
vn 0.000000 -1.000000 0.000000
vn 0.000000 -1.000000 0.000000
vn 0.000000 -1.000000 0.000000
vn 0.000000 -1.000000 0.000000
vn 0.000000 -1.000000 0.000000
vn 0.000000 -1.000000 0.000000
vn 0.000000 0.000000 -1.000000
vn 0.000000 0.000000 -1.000000
vn 0.000000 0.000000 -1.000000
vn 0.000000 0.000000 -1.000000
vn 0.000000 0.000000 -1.000000
vn 0.000000 0.000000 -1.000000
vn 0.000000 1.000000 0.000000
vn 0.000000 1.000000 0.000000
vn 0.000000 1.000000 0.000000
vn 0.000000 1.000000 0.000000
vn 0.000000 1.000000 0.000000
vn 0.000000 1.000000 0.000000
vn 0.000000 0.000000 1.000000
vn 0.000000 0.000000 1.000000
vn 0.000000 0.000000 1.000000
vn 0.000000 0.000000 1.000000
vn 0.000000 0.000000 1.000000
vn 0.000000 0.000000 1.000000
vn 0.000000 -0.706458 -0.706458
vn 0.000000 -0.706458 -0.706458
vn 0.000000 -0.706458 -0.706458
vn 0.000000 -0.706458 -0.706458
vn 0.000000 -0.706458 -0.706458
vn 0.000000 -0.706458 -0.706458
vn 0.000000 0.706458 0.706458
vn 0.000000 0.706458 0.706458
vn 0.000000 0.706458 0.706458
vn 0.000000 0.706458 0.706458
vn 0.000000 0.706458 0.706458
vn 0.000000 0.706458 0.706458
vn 0.000000 0.706458 -0.706458
vn 0.000000 0.706458 -0.706458
vn 0.000000 0.706458 -0.706458
vn 0.000000 0.706458 -0.706458
vn 0.000000 0.706458 -0.706458
vn 0.000000 0.706458 -0.706458
vn 0.000000 -0.706458 0.706458
vn 0.000000 -0.706458 0.706458
vn 0.000000 -0.706458 0.706458
vn 0.000000 -0.706458 0.706458
vn 0.000000 -0.706458 0.706458
vn 0.000000 -0.706458 0.706458
vn -1.000000 0.000000 0.000000
vn -1.000000 0.000000 0.000000
vn -1.000000 0.000000 0.000000
vn -1.000000 0.000000 0.000000
vn -1.000000 0.000000 0.000000
vn -1.000000 0.000000 0.000000
mtllib hjk_metal_trim.mtl
g hjk_metal_trim
usemtl hjk_metal_trim
f 3/3/3 2/2/2 1/1/1
f 6/6/6 5/5/5 4/4/4
f 9/9/9 8/8/8 7/7/7
f 12/12/12 11/11/11 10/10/10
f 15/15/15 14/14/14 13/13/13
f 18/18/18 17/17/17 16/16/16
f 21/21/21 20/20/20 19/19/19
f 24/24/24 23/23/23 22/22/22
f 27/27/27 26/26/26 25/25/25
f 30/30/30 29/29/29 28/28/28
f 33/33/33 32/32/32 31/31/31
f 36/36/36 35/35/35 34/34/34
f 39/39/39 38/38/38 37/37/37
f 42/42/42 41/41/41 40/40/40
f 45/45/45 44/44/44 43/43/43
f 48/48/48 47/47/47 46/46/46
f 51/51/51 50/50/50 49/49/49
f 54/54/54 53/53/53 52/52/52
f 57/57/57 56/56/56 55/55/55
f 60/60/60 59/59/59 58/58/58
f 63/63/63 62/62/62 61/61/61
f 66/66/66 65/65/65 64/64/64
f 69/69/69 68/68/68 67/67/67
f 72/72/72 71/71/71 70/70/70
f 75/75/75 74/74/74 73/73/73
f 78/78/78 77/77/77 76/76/76
f 81/81/81 80/80/80 79/79/79
f 84/84/84 83/83/83 82/82/82
f 87/87/87 86/86/86 85/85/85
f 90/90/90 89/89/89 88/88/88
f 93/93/93 92/92/92 91/91/91
f 96/96/96 95/95/95 94/94/94
f 99/99/99 98/98/98 97/97/97
f 102/102/102 101/101/101 100/100/100
f 105/105/105 104/104/104 103/103/103
f 108/108/108 107/107/107 106/106/106
f 111/111/111 110/110/110 109/109/109
f 114/114/114 113/113/113 112/112/112
f 117/117/117 116/116/116 115/115/115
f 120/120/120 119/119/119 118/118/118
f 123/123/123 122/122/122 121/121/121
f 126/126/126 125/125/125 124/124/124
f 129/129/129 128/128/128 127/127/127
f 132/132/132 131/131/131 130/130/130
f 135/135/135 134/134/134 133/133/133
f 138/138/138 137/137/137 136/136/136
f 141/141/141 140/140/140 139/139/139
f 144/144/144 143/143/143 142/142/142
mtllib hjk_interior_plastic_tile_lwr_lvl.mtl
g hjk_interior_plastic_tile_lwr_lvl
usemtl hjk_interior_plastic_tile_lwr_lvl
f 147/147/147 146/146/146 145/145/145
f 150/150/150 149/149/149 148/148/148
f 153/153/153 152/152/152 151/151/151
f 156/156/156 155/155/155 154/154/154
f 159/159/159 158/158/158 157/157/157
f 162/162/162 161/161/161 160/160/160
f 165/165/165 164/164/164 163/163/163
f 168/168/168 167/167/167 166/166/166
f 171/171/171 170/170/170 169/169/169
f 174/174/174 173/173/173 172/172/172
f 177/177/177 176/176/176 175/175/175
f 180/180/180 179/179/179 178/178/178
f 183/183/183 182/182/182 181/181/181
f 186/186/186 185/185/185 184/184/184
f 189/189/189 188/188/188 187/187/187
f 192/192/192 191/191/191 190/190/190
f 195/195/195 194/194/194 193/193/193
f 198/198/198 197/197/197 196/196/196
f 201/201/201 200/200/200 199/199/199
f 204/204/204 203/203/203 202/202/202
f 207/207/207 206/206/206 205/205/205
f 210/210/210 209/209/209 208/208/208
f 213/213/213 212/212/212 211/211/211
f 216/216/216 215/215/215 214/214/214
f 219/219/219 218/218/218 217/217/217
f 222/222/222 221/221/221 220/220/220
f 225/225/225 224/224/224 223/223/223
f 228/228/228 227/227/227 226/226/226
f 231/231/231 230/230/230 229/229/229
f 234/234/234 233/233/233 232/232/232
mtllib hjk_cabinet_pull.mtl
g hjk_cabinet_pull
usemtl hjk_cabinet_pull
f 237/237/237 236/236/236 235/235/235
f 240/240/240 239/239/239 238/238/238
