# Generated by Wraith - Game extraction tools
# Please credit DTZxPorter for using it!

v -2.364463 0.774583 2.890779
v -2.364463 -2.116196 2.116196
v -2.364463 2.890779 0.774583
v -2.364463 2.890779 0.774583
v -2.364463 -2.116196 2.116196
v -2.364463 2.116196 -2.116199
v -2.364463 2.116196 -2.116199
v -2.364463 -2.116196 2.116196
v -2.364463 -0.774583 -2.890779
v -2.364463 -0.774583 -2.890779
v -2.364463 -2.116196 2.116196
v -2.364463 -2.890779 -0.774583
v 3.006656 -2.116199 2.116196
v 6.378349 0.000000 0.000000
v 3.006656 -2.890779 -0.774583
v 3.006656 -2.890779 -0.774583
v -2.364463 -2.890779 -0.774583
v 3.006656 -2.116199 2.116196
v 3.006656 -2.116199 2.116196
v -2.364463 -2.890779 -0.774583
v -2.364463 -2.116196 2.116196
v 3.006656 -2.890779 -0.774583
v -2.364463 -0.774583 -2.890779
v -2.364463 -2.890779 -0.774583
v 3.006656 -0.774583 -2.890779
v -2.364463 -0.774583 -2.890779
v 3.006656 -2.890779 -0.774583
v 3.006656 -0.774583 -2.890779
v -2.364463 2.116196 -2.116199
v -2.364463 -0.774583 -2.890779
v 3.006656 2.116196 -2.116199
v -2.364463 2.116196 -2.116199
v 3.006656 -0.774583 -2.890779
v 3.006656 -0.774583 -2.890779
v 6.378349 0.000000 0.000000
v 3.006656 2.116196 -2.116199
v 3.006656 -2.890779 -0.774583
v 6.378349 0.000000 0.000000
v 3.006656 -0.774583 -2.890779
v 3.006656 0.774583 2.890779
v 6.378349 0.000000 0.000000
v 3.006656 -2.116199 2.116196
v 3.006656 -2.116199 2.116196
v -2.364463 -2.116196 2.116196
v 3.006656 0.774583 2.890779
v 3.006656 0.774583 2.890779
v -2.364463 -2.116196 2.116196
v -2.364463 0.774583 2.890779
v 3.006656 0.774583 2.890779
v -2.364463 0.774583 2.890779
v 3.006656 2.890779 0.774583
v 3.006656 2.890779 0.774583
v 6.378349 0.000000 0.000000
v 3.006656 0.774583 2.890779
v 3.006656 2.116196 -2.116199
v 6.378349 0.000000 0.000000
v 3.006656 2.890779 0.774583
v 3.006656 2.890779 0.774583
v -2.364463 2.890779 0.774583
v 3.006656 2.116196 -2.116199
v 3.006656 2.116196 -2.116199
v -2.364463 2.890779 0.774583
v -2.364463 2.116196 -2.116199
v 3.006656 2.890779 0.774583
v -2.364463 0.774583 2.890779
v -2.364463 2.890779 0.774583
vt 0.862793 0.643066
vt 0.824219 0.720703
vt 0.848633 0.537109
vt 0.848633 0.537109
vt 0.824219 0.720703
vt 0.795898 0.508545
vt 0.795898 0.508545
vt 0.824219 0.720703
vt 0.756836 0.586182
vt 0.756836 0.586182
vt 0.824219 0.720703
vt 0.770996 0.692139
vt 0.201538 0.981506
vt 0.009232 0.494629
vt 0.201538 0.738037
vt 0.201538 0.738037
vt 0.343018 0.738037
vt 0.201538 0.981506
vt 0.201538 0.981506
vt 0.343018 0.738037
vt 0.343018 0.981506
vt 0.201538 0.738037
vt 0.343018 0.413574
vt 0.343018 0.738037
vt 0.201538 0.413574
vt 0.343018 0.413574
vt 0.201538 0.738037
vt 0.201538 0.413574
vt 0.343018 0.088867
vt 0.343018 0.413574
vt 0.201538 0.088867
vt 0.343018 0.088867
vt 0.201538 0.413574
vt 0.201538 0.413574
vt 0.009232 0.494629
vt 0.201538 0.088867
vt 0.201538 0.738037
vt 0.009232 0.494629
vt 0.201538 0.413574
vt 0.201538 0.575684
vt 0.009224 0.495117
vt 0.201538 0.900391
vt 0.201538 0.900391
vt 0.343018 0.900391
vt 0.201538 0.575684
vt 0.201538 0.575684
vt 0.343018 0.900391
vt 0.343018 0.575684
vt 0.201538 0.575684
vt 0.343018 0.575684
vt 0.201538 0.250977
vt 0.201538 0.250977
vt 0.009224 0.495117
vt 0.201538 0.575684
vt 0.201538 0.007813
vt 0.009224 0.495117
vt 0.201538 0.250977
vt 0.201538 0.250977
vt 0.343018 0.250977
vt 0.201538 0.007813
vt 0.201538 0.007813
vt 0.343018 0.250977
vt 0.343018 0.007813
vt 0.201538 0.250977
vt 0.343018 0.575684
vt 0.343018 0.250977
vn -1.000000 0.000000 0.000000
vn -1.000000 0.000000 0.000000
vn -1.000000 0.000000 0.000000
vn -1.000000 0.000000 0.000000
vn -1.000000 0.000000 0.000000
vn -1.000000 0.000000 0.000000
vn -1.000000 0.000000 0.000000
vn -1.000000 0.000000 0.000000
vn -1.000000 0.000000 0.000000
vn -1.000000 0.000000 0.000000
vn -1.000000 0.000000 0.000000
vn -1.000000 0.000000 0.000000
vn 0.365949 -0.657534 0.657534
vn 1.000000 0.000000 0.000000
vn 0.365949 -0.898239 -0.240705
vn 0.365949 -0.898239 -0.240705
vn 0.000000 -0.966732 -0.258317
vn 0.365949 -0.657534 0.657534
vn 0.365949 -0.657534 0.657534
vn 0.000000 -0.966732 -0.258317
vn 0.000000 -0.706458 0.706458
vn 0.365949 -0.898239 -0.240705
vn 0.000000 -0.258317 -0.966732
vn 0.000000 -0.966732 -0.258317
vn 0.365949 -0.240705 -0.898239
vn 0.000000 -0.258317 -0.966732
vn 0.365949 -0.898239 -0.240705
vn 0.365949 -0.240705 -0.898239
vn 0.000000 0.706458 -0.706458
vn 0.000000 -0.258317 -0.966732
vn 0.365949 0.657534 -0.657534
vn 0.000000 0.706458 -0.706458
vn 0.365949 -0.240705 -0.898239
vn 0.365949 -0.240705 -0.898239
vn 1.000000 0.000000 0.000000
vn 0.365949 0.657534 -0.657534
vn 0.365949 -0.898239 -0.240705
vn 1.000000 0.000000 0.000000
vn 0.365949 -0.240705 -0.898239
vn 0.365949 0.240705 0.898239
vn 1.000000 0.000000 0.000000
vn 0.365949 -0.657534 0.657534
vn 0.365949 -0.657534 0.657534
vn 0.000000 -0.706458 0.706458
vn 0.365949 0.240705 0.898239
vn 0.365949 0.240705 0.898239
vn 0.000000 -0.706458 0.706458
vn 0.000000 0.258317 0.966732
vn 0.365949 0.240705 0.898239
vn 0.000000 0.258317 0.966732
vn 0.365949 0.898239 0.240705
vn 0.365949 0.898239 0.240705
vn 1.000000 0.000000 0.000000
vn 0.365949 0.240705 0.898239
vn 0.365949 0.657534 -0.657534
vn 1.000000 0.000000 0.000000
vn 0.365949 0.898239 0.240705
vn 0.365949 0.898239 0.240705
vn 0.000000 0.966732 0.258317
vn 0.365949 0.657534 -0.657534
vn 0.365949 0.657534 -0.657534
vn 0.000000 0.966732 0.258317
vn 0.000000 0.706458 -0.706458
vn 0.365949 0.898239 0.240705
vn 0.000000 0.258317 0.966732
vn 0.000000 0.966732 0.258317
mtllib mtl_weapon_m203_grenade.mtl
g mtl_weapon_m203_grenade
usemtl mtl_weapon_m203_grenade
f 3/3/3 2/2/2 1/1/1
f 6/6/6 5/5/5 4/4/4
f 9/9/9 8/8/8 7/7/7
f 12/12/12 11/11/11 10/10/10
f 15/15/15 14/14/14 13/13/13
f 18/18/18 17/17/17 16/16/16
f 21/21/21 20/20/20 19/19/19
f 24/24/24 23/23/23 22/22/22
f 27/27/27 26/26/26 25/25/25
f 30/30/30 29/29/29 28/28/28
f 33/33/33 32/32/32 31/31/31
f 36/36/36 35/35/35 34/34/34
f 39/39/39 38/38/38 37/37/37
f 42/42/42 41/41/41 40/40/40
f 45/45/45 44/44/44 43/43/43
f 48/48/48 47/47/47 46/46/46
f 51/51/51 50/50/50 49/49/49
f 54/54/54 53/53/53 52/52/52
f 57/57/57 56/56/56 55/55/55
f 60/60/60 59/59/59 58/58/58
f 63/63/63 62/62/62 61/61/61
f 66/66/66 65/65/65 64/64/64
