# Generated by Wraith - Game extraction tools
# Please credit DTZxPorter for using it!

v -4.403604 -1.249975 0.644535
v -3.936045 1.249970 -2.906908
v -4.403604 1.249970 0.644535
v -4.403604 -1.249975 0.644535
v -3.936045 -1.249975 -2.906908
v -3.936045 1.249970 -2.906908
v -3.936045 -1.249975 -2.906908
v -3.812054 -0.000003 -3.707028
v -3.936045 1.249970 -2.906908
v -3.812054 -0.000003 -3.707028
v -3.838575 1.860258 -3.647244
v -3.936045 1.249970 -2.906908
v -3.838575 1.860258 -3.647244
v -3.812054 -0.000003 -3.707028
v -3.569373 5.247714 -5.692053
v -3.812054 -0.000003 -3.707028
v -3.260529 6.856471 -8.037919
v -3.569373 5.247714 -5.692053
v -2.896230 7.421392 -10.805063
v -3.260529 6.856471 -8.037919
v -3.812054 -0.000003 -3.707028
v -2.531935 6.856471 -13.572200
v -2.896230 7.421392 -10.805063
v -3.812054 -0.000003 -3.707028
v -2.223094 5.247714 -15.918074
v -2.531935 6.856471 -13.572200
v -3.812054 -0.000003 -3.707028
v -2.016737 2.840035 -17.485533
v -2.223094 5.247714 -15.918074
v -3.812054 -0.000003 -3.707028
v -1.944260 -0.000003 -18.035952
v -2.016737 2.840035 -17.485533
v -3.812054 -0.000003 -3.707028
v 3.272536 -1.249975 1.642219
v -4.403604 -1.249975 0.644535
v 3.272536 1.249970 1.642219
v -4.403604 -1.249975 0.644535
v -4.403604 1.249970 0.644535
v 3.272536 1.249970 1.642219
v -1.944260 -0.000003 -18.035952
v -3.812054 -0.000003 -3.707028
v -2.016737 -2.840043 -17.485533
v -2.016737 -2.840043 -17.485533
v -3.812054 -0.000003 -3.707028
v -2.223094 -5.247721 -15.918074
v -2.223094 -5.247721 -15.918074
v -3.812054 -0.000003 -3.707028
v -2.531935 -6.856478 -13.572200
v -2.531935 -6.856478 -13.572200
v -3.812054 -0.000003 -3.707028
v -2.896230 -7.421400 -10.805063
v -2.896230 -7.421400 -10.805063
v -3.812054 -0.000003 -3.707028
v -3.260529 -6.856478 -8.037919
v -3.260529 -6.856478 -8.037919
v -3.812054 -0.000003 -3.707028
v -3.569373 -5.247721 -5.692053
v -3.569373 -5.247721 -5.692053
v -3.812054 -0.000003 -3.707028
v -3.838575 -1.860265 -3.647244
v -3.936045 -1.249975 -2.906908
v -3.838575 -1.860265 -3.647244
v -3.812054 -0.000003 -3.707028
v -4.403604 -1.249975 0.644535
v 3.272536 -1.249975 1.642219
v -3.936045 -1.249975 -2.906908
v 3.272536 -1.249975 1.642219
v 3.739975 -1.249975 -1.908355
v -3.936045 -1.249975 -2.906908
v -3.936045 -1.249975 -2.906908
v 3.739975 -1.249975 -1.908355
v -3.838575 -1.860265 -3.647244
v 3.739975 -1.249975 -1.908355
v 3.844567 -1.860265 -2.622415
v -3.838575 -1.860265 -3.647244
v -3.838575 -1.860265 -3.647244
v 3.844567 -1.860265 -2.622415
v -3.569373 -5.247721 -5.692053
v 3.844567 -1.860265 -2.622415
v 4.141673 -5.247721 -4.704613
v -3.569373 -5.247721 -5.692053
v -3.569373 -5.247721 -5.692053
v 4.141673 -5.247721 -4.704613
v -3.260529 -6.856478 -8.037919
v 4.141673 -5.247721 -4.704613
v 4.450514 -6.856478 -7.050489
v -3.260529 -6.856478 -8.037919
v -3.260529 -6.856478 -8.037919
v 4.450514 -6.856478 -7.050489
v -2.896230 -7.421400 -10.805063
v 4.450514 -6.856478 -7.050489
v 4.814814 -7.421400 -9.817634
v -2.896230 -7.421400 -10.805063
v -2.896230 -7.421400 -10.805063
v 4.814814 -7.421400 -9.817634
v -2.531935 -6.856478 -13.572200
v 4.814814 -7.421400 -9.817634
v 5.179122 -6.856478 -12.584769
v -2.531935 -6.856478 -13.572200
v -2.531935 -6.856478 -13.572200
v 5.179122 -6.856478 -12.584769
v -2.223094 -5.247721 -15.918074
v 5.179122 -6.856478 -12.584769
v 5.487955 -5.247721 -14.930637
v -2.223094 -5.247721 -15.918074
v -2.223094 -5.247721 -15.918074
v 5.487955 -5.247721 -14.930637
v -2.016737 -2.840043 -17.485533
v 5.487955 -5.247721 -14.930637
v 5.694312 -2.840043 -16.498096
v -2.016737 -2.840043 -17.485533
v -1.944260 -0.000003 -18.035952
v -2.016737 -2.840043 -17.485533
v 5.694312 -2.840043 -16.498096
v 5.766778 -0.000003 -17.048523
v -1.944260 -0.000003 -18.035952
v 5.694312 -2.840043 -16.498096
v -4.403604 1.249970 0.644535
v -3.936045 1.249970 -2.906908
v 3.272536 1.249970 1.642219
v -3.936045 1.249970 -2.906908
v 3.739975 1.249970 -1.908355
v 3.272536 1.249970 1.642219
v 3.739975 1.249970 -1.908355
v -3.936045 1.249970 -2.906908
v -3.838575 1.860258 -3.647244
v 3.844567 1.860258 -2.622415
v 3.739975 1.249970 -1.908355
v -3.838575 1.860258 -3.647244
v -3.838575 1.860258 -3.647244
v -3.569373 5.247714 -5.692053
v 3.844567 1.860258 -2.622415
v -3.569373 5.247714 -5.692053
v 4.141673 5.247714 -4.704613
v 3.844567 1.860258 -2.622415
v 4.141673 5.247714 -4.704613
v -3.569373 5.247714 -5.692053
v -3.260529 6.856471 -8.037919
v 4.450514 6.856471 -7.050489
v 4.141673 5.247714 -4.704613
v -3.260529 6.856471 -8.037919
v 4.450514 6.856471 -7.050489
v -3.260529 6.856471 -8.037919
v -2.896230 7.421392 -10.805063
v 4.814814 7.421392 -9.817634
v 4.450514 6.856471 -7.050489
v -2.896230 7.421392 -10.805063
v 4.814814 7.421392 -9.817634
v -2.896230 7.421392 -10.805063
v -2.531935 6.856471 -13.572200
v 5.179122 6.856471 -12.584769
v 4.814814 7.421392 -9.817634
v -2.531935 6.856471 -13.572200
v 5.179122 6.856471 -12.584769
v -2.531935 6.856471 -13.572200
v -2.223094 5.247714 -15.918074
v 5.487955 5.247714 -14.930637
v 5.179122 6.856471 -12.584769
v -2.223094 5.247714 -15.918074
v 5.487955 5.247714 -14.930637
v -2.223094 5.247714 -15.918074
v -2.016737 2.840035 -17.485533
v 5.694312 2.840035 -16.498096
v 5.487955 5.247714 -14.930637
v -2.016737 2.840035 -17.485533
v 5.694312 2.840035 -16.498096
v -2.016737 2.840035 -17.485533
v 5.766778 -0.000003 -17.048523
v -2.016737 2.840035 -17.485533
v -1.944260 -0.000003 -18.035952
v 5.766778 -0.000003 -17.048523
v 3.272536 1.249970 1.642219
v 3.739975 1.249970 -1.908355
v 3.272536 -1.249975 1.642219
v 3.272536 -1.249975 1.642219
v 3.739975 1.249970 -1.908355
v 5.766778 -0.000003 -17.048523
v 3.739975 1.249970 -1.908355
v 3.844567 1.860258 -2.622415
v 5.766778 -0.000003 -17.048523
v 5.766778 -0.000003 -17.048523
v 3.844567 1.860258 -2.622415
v 4.141673 5.247714 -4.704613
v 5.766778 -0.000003 -17.048523
v 4.141673 5.247714 -4.704613
v 4.450514 6.856471 -7.050489
v 5.766778 -0.000003 -17.048523
v 4.450514 6.856471 -7.050489
v 4.814814 7.421392 -9.817634
v 5.766778 -0.000003 -17.048523
v 4.814814 7.421392 -9.817634
v 5.179122 6.856471 -12.584769
v 5.766778 -0.000003 -17.048523
v 5.179122 6.856471 -12.584769
v 5.694312 2.840035 -16.498096
v 5.179122 6.856471 -12.584769
v 5.487955 5.247714 -14.930637
v 5.694312 2.840035 -16.498096
v 3.272536 -1.249975 1.642219
v 5.766778 -0.000003 -17.048523
v 3.739975 -1.249975 -1.908355
v 5.766778 -0.000003 -17.048523
v 3.844567 -1.860265 -2.622415
v 3.739975 -1.249975 -1.908355
v 4.141673 -5.247721 -4.704613
v 3.844567 -1.860265 -2.622415
v 5.766778 -0.000003 -17.048523
v 4.450514 -6.856478 -7.050489
v 4.141673 -5.247721 -4.704613
v 5.766778 -0.000003 -17.048523
v 4.814814 -7.421400 -9.817634
v 4.450514 -6.856478 -7.050489
v 5.766778 -0.000003 -17.048523
v 5.179122 -6.856478 -12.584769
v 4.814814 -7.421400 -9.817634
v 5.766778 -0.000003 -17.048523
v 5.766778 -0.000003 -17.048523
v 5.487955 -5.247721 -14.930637
v 5.179122 -6.856478 -12.584769
v 5.766778 -0.000003 -17.048523
v 5.694312 -2.840043 -16.498096
v 5.487955 -5.247721 -14.930637
vt 0.520020 0.794189
vt 0.470703 0.666504
vt 0.481689 0.814087
vt 0.520020 0.794189
vt 0.520020 0.665527
vt 0.470703 0.666504
vt 0.520020 0.665527
vt 0.520020 0.633301
vt 0.470703 0.666504
vt 0.520020 0.633301
vt 0.449707 0.636963
vt 0.470703 0.666504
vt 0.449707 0.636963
vt 0.520020 0.633301
vt 0.299805 0.542969
vt 0.520020 0.633301
vt 0.232300 0.444336
vt 0.299805 0.542969
vt 0.208618 0.328125
vt 0.232300 0.444336
vt 0.520020 0.633301
vt 0.232300 0.211426
vt 0.208618 0.328125
vt 0.520020 0.633301
vt 0.299805 0.112793
vt 0.232300 0.211426
vt 0.520020 0.633301
vt 0.400879 0.046875
vt 0.299805 0.112793
vt 0.520020 0.633301
vt 0.520020 0.023926
vt 0.400879 0.046875
vt 0.520020 0.633301
vt 0.448730 0.834473
vt 0.448730 0.674805
vt 0.399170 0.834595
vt 0.448730 0.674805
vt 0.399170 0.674805
vt 0.399170 0.834595
vt -0.479492 0.023926
vt -0.479492 0.633301
vt -0.598633 0.046875
vt -0.598633 0.046875
vt -0.479492 0.633301
vt -0.699707 0.112793
vt -0.699707 0.112793
vt -0.479492 0.633301
vt -0.767090 0.211426
vt -0.767090 0.211426
vt -0.479492 0.633301
vt -0.791016 0.328125
vt -0.791016 0.328125
vt -0.479492 0.633301
vt -0.767090 0.444336
vt -0.767090 0.444336
vt -0.479492 0.633301
vt -0.699707 0.542969
vt -0.699707 0.542969
vt -0.479492 0.633301
vt -0.578613 0.620850
vt -0.503906 0.666016
vt -0.578613 0.620850
vt -0.479492 0.633301
vt -0.820313 0.571289
vt -0.993652 0.565186
vt -0.824707 0.482910
vt -0.993652 0.565186
vt -0.994141 0.482910
vt -0.824707 0.482910
vt -0.824707 0.482910
vt -0.994141 0.482910
vt -0.825195 0.444824
vt -0.994141 0.482910
vt -0.988770 0.455566
vt -0.825195 0.444824
vt -0.825195 0.444824
vt -0.988770 0.455566
vt -0.825195 0.375000
vt -0.988770 0.455566
vt -0.987305 0.377930
vt -0.825195 0.375000
vt -0.825195 0.375000
vt -0.987305 0.377930
vt -0.825195 0.314453
vt -0.987305 0.377930
vt -0.986328 0.316895
vt -0.825195 0.314453
vt -0.825195 0.314453
vt -0.986328 0.316895
vt -0.825195 0.254883
vt -0.986328 0.316895
vt -0.985840 0.257324
vt -0.825195 0.254883
vt -0.825195 0.254883
vt -0.985840 0.257324
vt -0.825195 0.195801
vt -0.985840 0.257324
vt -0.986328 0.198242
vt -0.825195 0.195801
vt -0.825195 0.195801
vt -0.986328 0.198242
vt -0.825195 0.135742
vt -0.986328 0.198242
vt -0.986816 0.139160
vt -0.825195 0.135742
vt -0.825195 0.135742
vt -0.986816 0.139160
vt -0.825195 0.074707
vt -0.986816 0.139160
vt -0.987305 0.079590
vt -0.825195 0.074707
vt -0.825195 0.011230
vt -0.825195 0.074707
vt -0.987305 0.079590
vt -0.987305 0.020020
vt -0.825195 0.011230
vt -0.987305 0.079590
vt 0.179077 0.571289
vt 0.174683 0.482910
vt 0.006084 0.564941
vt 0.174683 0.482910
vt 0.005199 0.482910
vt 0.006084 0.564941
vt 0.005199 0.482910
vt 0.174683 0.482910
vt 0.174561 0.461426
vt 0.010925 0.455078
vt 0.005199 0.482910
vt 0.174561 0.461426
vt 0.174561 0.461426
vt 0.174561 0.375000
vt 0.010925 0.455078
vt 0.174561 0.375000
vt 0.011963 0.374512
vt 0.010925 0.455078
vt 0.011963 0.374512
vt 0.174561 0.375000
vt 0.174561 0.314453
vt 0.013115 0.315430
vt 0.011963 0.374512
vt 0.174561 0.314453
vt 0.013115 0.315430
vt 0.174561 0.314453
vt 0.174561 0.254883
vt 0.013428 0.256348
vt 0.013115 0.315430
vt 0.174561 0.254883
vt 0.013428 0.256348
vt 0.174561 0.254883
vt 0.174561 0.195313
vt 0.013176 0.197754
vt 0.013428 0.256348
vt 0.174561 0.195313
vt 0.013176 0.197754
vt 0.174561 0.195313
vt 0.174561 0.135742
vt 0.012741 0.138672
vt 0.013176 0.197754
vt 0.174561 0.135742
vt 0.012741 0.138672
vt 0.174561 0.135742
vt 0.174561 0.074707
vt 0.012329 0.079102
vt 0.012741 0.138672
vt 0.174561 0.074707
vt 0.012329 0.079102
vt 0.174561 0.074707
vt 0.012032 0.020020
vt 0.174561 0.074707
vt 0.174561 0.010742
vt 0.012032 0.020020
vt 0.573730 0.785889
vt 0.585938 0.624268
vt 0.536133 0.777466
vt 0.536133 0.777466
vt 0.585938 0.624268
vt 0.536133 0.023926
vt 0.585938 0.624268
vt 0.609863 0.575684
vt 0.536133 0.023926
vt 0.536133 0.023926
vt 0.609863 0.575684
vt 0.728027 0.475098
vt 0.536133 0.023926
vt 0.728027 0.475098
vt 0.786621 0.389160
vt 0.536133 0.023926
vt 0.786621 0.389160
vt 0.807129 0.288086
vt 0.536133 0.023926
vt 0.807129 0.288086
vt 0.786621 0.187012
vt 0.536133 0.023926
vt 0.786621 0.187012
vt 0.639648 0.043945
vt 0.786621 0.187012
vt 0.728027 0.101563
vt 0.639648 0.043945
vt -0.450439 0.780273
vt -0.464111 0.023926
vt -0.414307 0.624268
vt -0.464111 0.023926
vt -0.384033 0.574951
vt -0.414307 0.624268
vt -0.272217 0.475098
vt -0.384033 0.574951
vt -0.464111 0.023926
vt -0.213623 0.389160
vt -0.272217 0.475098
vt -0.464111 0.023926
vt -0.192993 0.288086
vt -0.213623 0.389160
vt -0.464111 0.023926
vt -0.213623 0.187012
vt -0.192993 0.288086
vt -0.464111 0.023926
vt -0.464111 0.023926
vt -0.272217 0.101563
vt -0.213623 0.187012
vt -0.464111 0.023926
vt -0.360352 0.043945
vt -0.272217 0.101563
vn -0.992172 0.000000 -0.131115
vn -0.990215 -0.001957 -0.136986
vn -0.992172 0.000000 -0.131115
vn -0.992172 0.000000 -0.131115
vn -0.990215 0.001957 -0.138943
vn -0.990215 -0.001957 -0.136986
vn -0.990215 0.001957 -0.138943
vn -0.990215 0.000000 -0.133072
vn -0.990215 -0.001957 -0.136986
vn -0.990215 0.000000 -0.133072
vn -0.990215 -0.005871 -0.142857
vn -0.990215 -0.001957 -0.136986
vn -0.990215 -0.005871 -0.142857
vn -0.990215 0.000000 -0.133072
vn -0.990215 -0.005871 -0.136986
vn -0.990215 0.000000 -0.133072
vn -0.990215 -0.003914 -0.135029
vn -0.990215 -0.005871 -0.136986
vn -0.992172 -0.001957 -0.131115
vn -0.990215 -0.003914 -0.135029
vn -0.990215 0.000000 -0.133072
vn -0.992172 -0.001957 -0.129159
vn -0.992172 -0.001957 -0.131115
vn -0.990215 0.000000 -0.133072
vn -0.992172 -0.001957 -0.129159
vn -0.992172 -0.001957 -0.129159
vn -0.990215 0.000000 -0.133072
vn -0.992172 0.000000 -0.129159
vn -0.992172 -0.001957 -0.129159
vn -0.990215 0.000000 -0.133072
vn -0.992172 0.000000 -0.129159
vn -0.992172 0.000000 -0.129159
vn -0.990215 0.000000 -0.133072
vn -0.091977 -0.706458 0.700587
vn -0.091977 -0.706458 0.700587
vn -0.091977 0.706458 0.700587
vn -0.091977 -0.706458 0.700587
vn -0.091977 0.706458 0.700587
vn -0.091977 0.706458 0.700587
vn -0.992172 0.000000 -0.129159
vn -0.990215 0.000000 -0.133072
vn -0.992172 0.000000 -0.129159
vn -0.992172 0.000000 -0.129159
vn -0.990215 0.000000 -0.133072
vn -0.992172 0.001957 -0.129159
vn -0.992172 0.001957 -0.129159
vn -0.990215 0.000000 -0.133072
vn -0.992172 0.001957 -0.129159
vn -0.992172 0.001957 -0.129159
vn -0.990215 0.000000 -0.133072
vn -0.992172 0.001957 -0.131115
vn -0.992172 0.001957 -0.131115
vn -0.990215 0.000000 -0.133072
vn -0.990215 0.003914 -0.133072
vn -0.990215 0.003914 -0.133072
vn -0.990215 0.000000 -0.133072
vn -0.990215 0.007828 -0.138943
vn -0.990215 0.007828 -0.138943
vn -0.990215 0.000000 -0.133072
vn -0.990215 0.009785 -0.142857
vn -0.990215 0.001957 -0.138943
vn -0.990215 0.009785 -0.142857
vn -0.990215 0.000000 -0.133072
vn -0.091977 -0.706458 0.700587
vn -0.091977 -0.706458 0.700587
vn -0.045010 -0.941292 0.336595
vn -0.091977 -0.706458 0.700587
vn -0.045010 -0.941292 0.336595
vn -0.045010 -0.941292 0.336595
vn -0.045010 -0.941292 0.336595
vn -0.045010 -0.941292 0.336595
vn -0.097847 -0.655577 0.749511
vn -0.045010 -0.941292 0.336595
vn -0.097847 -0.655577 0.749511
vn -0.097847 -0.655577 0.749511
vn -0.097847 -0.655577 0.749511
vn -0.097847 -0.655577 0.749511
vn -0.093933 -0.690802 0.716243
vn -0.097847 -0.655577 0.749511
vn -0.093933 -0.690802 0.716243
vn -0.093933 -0.690802 0.716243
vn -0.093933 -0.690802 0.716243
vn -0.093933 -0.690802 0.716243
vn -0.048924 -0.921722 0.385519
vn -0.093933 -0.690802 0.716243
vn -0.048924 -0.921722 0.385519
vn -0.048924 -0.921722 0.385519
vn -0.048924 -0.921722 0.385519
vn -0.048924 -0.921722 0.385519
vn 0.000000 -1.000000 0.000000
vn -0.048924 -0.921722 0.385519
vn 0.000000 -1.000000 0.000000
vn 0.000000 -1.000000 0.000000
vn 0.000000 -1.000000 0.000000
vn 0.000000 -1.000000 0.000000
vn 0.048924 -0.921722 -0.385519
vn 0.000000 -1.000000 0.000000
vn 0.048924 -0.921722 -0.385519
vn 0.048924 -0.921722 -0.385519
vn 0.048924 -0.921722 -0.385519
vn 0.048924 -0.921722 -0.385519
vn 0.090020 -0.700587 -0.706458
vn 0.048924 -0.921722 -0.385519
vn 0.090020 -0.700587 -0.706458
vn 0.090020 -0.700587 -0.706458
vn 0.090020 -0.700587 -0.706458
vn 0.090020 -0.700587 -0.706458
vn 0.117417 -0.377691 -0.917808
vn 0.090020 -0.700587 -0.706458
vn 0.117417 -0.377691 -0.917808
vn 0.117417 -0.377691 -0.917808
vn 0.127202 0.000000 -0.992172
vn 0.117417 -0.377691 -0.917808
vn 0.117417 -0.377691 -0.917808
vn 0.127202 0.000000 -0.992172
vn 0.127202 0.000000 -0.992172
vn 0.117417 -0.377691 -0.917808
vn -0.091977 0.706458 0.700587
vn -0.045010 0.941292 0.336595
vn -0.091977 0.706458 0.700587
vn -0.045010 0.941292 0.336595
vn -0.045010 0.941292 0.336595
vn -0.091977 0.706458 0.700587
vn -0.045010 0.941292 0.336595
vn -0.045010 0.941292 0.336595
vn -0.097847 0.655577 0.749511
vn -0.097847 0.655577 0.749511
vn -0.045010 0.941292 0.336595
vn -0.097847 0.655577 0.749511
vn -0.097847 0.655577 0.749511
vn -0.093933 0.690802 0.716243
vn -0.097847 0.655577 0.749511
vn -0.093933 0.690802 0.716243
vn -0.093933 0.690802 0.716243
vn -0.097847 0.655577 0.749511
vn -0.093933 0.690802 0.716243
vn -0.093933 0.690802 0.716243
vn -0.048924 0.921722 0.385519
vn -0.048924 0.921722 0.385519
vn -0.093933 0.690802 0.716243
vn -0.048924 0.921722 0.385519
vn -0.048924 0.921722 0.385519
vn -0.048924 0.921722 0.385519
vn 0.000000 1.000000 0.000000
vn 0.000000 1.000000 0.000000
vn -0.048924 0.921722 0.385519
vn 0.000000 1.000000 0.000000
vn 0.000000 1.000000 0.000000
vn 0.000000 1.000000 0.000000
vn 0.048924 0.921722 -0.385519
vn 0.048924 0.921722 -0.385519
vn 0.000000 1.000000 0.000000
vn 0.048924 0.921722 -0.385519
vn 0.048924 0.921722 -0.385519
vn 0.048924 0.921722 -0.385519
vn 0.090020 0.700587 -0.706458
vn 0.090020 0.700587 -0.706458
vn 0.048924 0.921722 -0.385519
vn 0.090020 0.700587 -0.706458
vn 0.090020 0.700587 -0.706458
vn 0.090020 0.700587 -0.706458
vn 0.117417 0.377691 -0.917808
vn 0.117417 0.377691 -0.917808
vn 0.090020 0.700587 -0.706458
vn 0.117417 0.377691 -0.917808
vn 0.117417 0.377691 -0.917808
vn 0.117417 0.377691 -0.917808
vn 0.127202 0.000000 -0.992172
vn 0.117417 0.377691 -0.917808
vn 0.127202 0.000000 -0.992172
vn 0.127202 0.000000 -0.992172
vn 0.992172 0.000000 0.131115
vn 0.992172 0.000000 0.131115
vn 0.992172 0.000000 0.131115
vn 0.992172 0.000000 0.131115
vn 0.992172 0.000000 0.131115
vn 0.992172 0.000000 0.131115
vn 0.992172 0.000000 0.131115
vn 0.990215 -0.001957 0.133072
vn 0.992172 0.000000 0.131115
vn 0.992172 0.000000 0.131115
vn 0.990215 -0.001957 0.133072
vn 0.992172 -0.001957 0.131115
vn 0.992172 0.000000 0.131115
vn 0.992172 -0.001957 0.131115
vn 0.992172 0.000000 0.131115
vn 0.992172 0.000000 0.131115
vn 0.992172 0.000000 0.131115
vn 0.992172 0.000000 0.131115
vn 0.992172 0.000000 0.131115
vn 0.992172 0.000000 0.131115
vn 0.992172 0.000000 0.131115
vn 0.992172 0.000000 0.131115
vn 0.992172 0.000000 0.131115
vn 0.992172 0.000000 0.131115
vn 0.992172 0.000000 0.131115
vn 0.992172 0.000000 0.131115
vn 0.992172 0.000000 0.131115
vn 0.992172 0.000000 0.131115
vn 0.992172 0.000000 0.131115
vn 0.990215 0.001957 0.133072
vn 0.992172 0.000000 0.131115
vn 0.990215 0.003914 0.133072
vn 0.990215 0.001957 0.133072
vn 0.992172 0.001957 0.131115
vn 0.990215 0.003914 0.133072
vn 0.992172 0.000000 0.131115
vn 0.992172 0.000000 0.131115
vn 0.992172 0.001957 0.131115
vn 0.992172 0.000000 0.131115
vn 0.992172 0.000000 0.131115
vn 0.992172 0.000000 0.131115
vn 0.992172 0.000000 0.131115
vn 0.992172 0.000000 0.131115
vn 0.992172 0.000000 0.131115
vn 0.992172 0.000000 0.131115
vn 0.992172 0.000000 0.131115
vn 0.992172 0.000000 0.131115
vn 0.992172 0.000000 0.131115
vn 0.992172 0.000000 0.131115
vn 0.992172 0.000000 0.131115
vn 0.992172 0.000000 0.131115
mtllib mtl_t6_wpn_lmg_hamr_parts.mtl
g mtl_t6_wpn_lmg_hamr_parts
usemtl mtl_t6_wpn_lmg_hamr_parts
f 3/3/3 2/2/2 1/1/1
f 6/6/6 5/5/5 4/4/4
f 9/9/9 8/8/8 7/7/7
f 12/12/12 11/11/11 10/10/10
f 15/15/15 14/14/14 13/13/13
f 18/18/18 17/17/17 16/16/16
f 21/21/21 20/20/20 19/19/19
f 24/24/24 23/23/23 22/22/22
f 27/27/27 26/26/26 25/25/25
f 30/30/30 29/29/29 28/28/28
f 33/33/33 32/32/32 31/31/31
f 36/36/36 35/35/35 34/34/34
f 39/39/39 38/38/38 37/37/37
f 42/42/42 41/41/41 40/40/40
f 45/45/45 44/44/44 43/43/43
f 48/48/48 47/47/47 46/46/46
f 51/51/51 50/50/50 49/49/49
f 54/54/54 53/53/53 52/52/52
f 57/57/57 56/56/56 55/55/55
f 60/60/60 59/59/59 58/58/58
f 63/63/63 62/62/62 61/61/61
f 66/66/66 65/65/65 64/64/64
f 69/69/69 68/68/68 67/67/67
f 72/72/72 71/71/71 70/70/70
f 75/75/75 74/74/74 73/73/73
f 78/78/78 77/77/77 76/76/76
f 81/81/81 80/80/80 79/79/79
f 84/84/84 83/83/83 82/82/82
f 87/87/87 86/86/86 85/85/85
f 90/90/90 89/89/89 88/88/88
f 93/93/93 92/92/92 91/91/91
f 96/96/96 95/95/95 94/94/94
f 99/99/99 98/98/98 97/97/97
f 102/102/102 101/101/101 100/100/100
f 105/105/105 104/104/104 103/103/103
f 108/108/108 107/107/107 106/106/106
f 111/111/111 110/110/110 109/109/109
f 114/114/114 113/113/113 112/112/112
f 117/117/117 116/116/116 115/115/115
f 120/120/120 119/119/119 118/118/118
f 123/123/123 122/122/122 121/121/121
f 126/126/126 125/125/125 124/124/124
f 129/129/129 128/128/128 127/127/127
f 132/132/132 131/131/131 130/130/130
f 135/135/135 134/134/134 133/133/133
f 138/138/138 137/137/137 136/136/136
f 141/141/141 140/140/140 139/139/139
f 144/144/144 143/143/143 142/142/142
f 147/147/147 146/146/146 145/145/145
f 150/150/150 149/149/149 148/148/148
f 153/153/153 152/152/152 151/151/151
f 156/156/156 155/155/155 154/154/154
f 159/159/159 158/158/158 157/157/157
f 162/162/162 161/161/161 160/160/160
f 165/165/165 164/164/164 163/163/163
f 168/168/168 167/167/167 166/166/166
f 171/171/171 170/170/170 169/169/169
f 174/174/174 173/173/173 172/172/172
f 177/177/177 176/176/176 175/175/175
f 180/180/180 179/179/179 178/178/178
f 183/183/183 182/182/182 181/181/181
f 186/186/186 185/185/185 184/184/184
f 189/189/189 188/188/188 187/187/187
f 192/192/192 191/191/191 190/190/190
f 195/195/195 194/194/194 193/193/193
f 198/198/198 197/197/197 196/196/196
f 201/201/201 200/200/200 199/199/199
f 204/204/204 203/203/203 202/202/202
f 207/207/207 206/206/206 205/205/205
f 210/210/210 209/209/209 208/208/208
f 213/213/213 212/212/212 211/211/211
f 216/216/216 215/215/215 214/214/214
f 219/219/219 218/218/218 217/217/217
f 222/222/222 221/221/221 220/220/220
