# Generated by Wraith - Game extraction tools
# Please credit DTZxPorter for using it!

v -20.319893 20.320015 -0.010160
v -20.319893 -20.320000 -0.010160
v 20.320000 20.320015 -0.010160
v 20.320000 20.320015 -0.010160
v -20.319893 -20.320000 -0.010160
v 20.320000 -20.320000 -0.010160
vt 0.000000 0.000000
vt 0.000000 1.000000
vt 1.000000 0.000000
vt 1.000000 0.000000
vt 0.000000 1.000000
vt 1.000000 1.000000
vn 0.000000 0.000000 -1.000000
vn 0.000000 0.000000 -1.000000
vn 0.000000 0.000000 -1.000000
vn 0.000000 0.000000 -1.000000
vn 0.000000 0.000000 -1.000000
vn 0.000000 0.000000 -1.000000
mtllib mtl_com_office_ceiling_light_1_off.mtl
g mtl_com_office_ceiling_light_1_off
usemtl mtl_com_office_ceiling_light_1_off
f 3/3/3 2/2/2 1/1/1
f 6/6/6 5/5/5 4/4/4
