# Generated by Wraith - Game extraction tools
# Please credit DTZxPorter for using it!

v 6.665460 1.785183 15.161633
v 4.879155 -4.881405 0.001125
v 4.879155 -4.881405 15.161633
v -1.787431 -6.667711 0.001125
v 4.879155 -4.881405 15.161633
v 4.879155 -4.881405 0.001125
v 4.879155 -4.881405 15.161633
v -1.787431 -6.667711 0.001125
v -1.787431 -6.667711 15.161633
v -6.667711 -1.787431 0.001125
v -1.787431 -6.667711 15.161633
v -1.787431 -6.667711 0.001125
v -1.787431 -6.667711 15.161633
v -6.667711 -1.787431 0.001125
v -6.667711 -1.787431 15.161633
v -4.881405 4.879155 0.001125
v -6.667711 -1.787431 15.161633
v -6.667711 -1.787431 0.001125
v -6.667711 -1.787431 15.161633
v -4.881405 4.879155 0.001125
v -4.881405 4.879155 15.161633
v 1.785180 6.665460 0.001125
v -4.881405 4.879155 15.161633
v -4.881405 4.879155 0.001125
v -4.881405 4.879155 15.161633
v 1.785180 6.665460 0.001125
v 1.785180 6.665460 15.161633
v 6.665460 1.785183 0.001125
v 1.785180 6.665460 15.161633
v 1.785180 6.665460 0.001125
v 1.785180 6.665460 15.161633
v 6.665460 1.785183 0.001125
v 6.665460 1.785183 15.161633
v 4.879155 -4.881405 0.001125
v 6.665460 1.785183 15.161633
v 6.665460 1.785183 0.001125
v 6.665460 1.785183 15.161633
v -4.881405 4.879155 15.161633
v 1.785180 6.665460 15.161633
v -1.787431 -6.667711 15.161633
v -4.881405 4.879155 15.161633
v 6.665460 1.785183 15.161633
v -6.667711 -1.787431 15.161633
v -4.881405 4.879155 15.161633
v -1.787431 -6.667711 15.161633
v -1.787431 -6.667711 15.161633
v 6.665460 1.785183 15.161633
v 4.879155 -4.881405 15.161633
v -6.667711 -1.787431 0.001125
v -1.787431 -6.667711 0.001125
v -4.881405 4.879155 0.001125
v -4.881405 4.879155 0.001125
v -1.787431 -6.667711 0.001125
v 1.785180 6.665460 0.001125
v 1.785180 6.665460 0.001125
v -1.787431 -6.667711 0.001125
v 6.665460 1.785183 0.001125
v 6.665460 1.785183 0.001125
v -1.787431 -6.667711 0.001125
v 4.879155 -4.881405 0.001125
vt 0.009697 0.652588
vt -0.094910 0.326172
vt -0.094910 0.652588
vt 0.458496 0.326172
vt 0.542480 0.652588
vt 0.542480 0.326172
vt 0.542480 0.652588
vt 0.458496 0.326172
vt 0.458496 0.652588
vt 0.346191 0.326172
vt 0.458496 0.652588
vt 0.458496 0.326172
vt 0.458496 0.652588
vt 0.346191 0.326172
vt 0.346191 0.652588
vt 0.234131 0.326172
vt 0.346191 0.652588
vt 0.346191 0.326172
vt 0.346191 0.652588
vt 0.234131 0.326172
vt 0.234131 0.652588
vt 0.121887 0.326172
vt 0.234131 0.652588
vt 0.234131 0.326172
vt 0.234131 0.652588
vt 0.121887 0.326172
vt 0.121887 0.652588
vt 0.009697 0.326172
vt 0.121887 0.652588
vt 0.121887 0.326172
vt 0.121887 0.652588
vt 0.009697 0.326172
vt 0.009697 0.652588
vt -0.094910 0.326172
vt 0.009697 0.652588
vt 0.009697 0.326172
vt 0.884766 0.705566
vt 0.949707 0.947662
vt 0.987305 0.807861
vt 0.707520 0.882813
vt 0.949707 0.947662
vt 0.884766 0.705566
vt 0.810059 0.985107
vt 0.949707 0.947662
vt 0.707520 0.882813
vt 0.707520 0.882813
vt 0.884766 0.705566
vt 0.745117 0.743164
vt 0.704590 0.797241
vt 0.808594 0.693848
vt 0.742676 0.938721
vt 0.742676 0.938721
vt 0.808594 0.693848
vt 0.884277 0.976624
vt 0.884277 0.976624
vt 0.808594 0.693848
vt 0.987793 0.873047
vt 0.987793 0.873047
vt 0.808594 0.693848
vt 0.949707 0.731689
vn 0.966732 -0.258317 0.000000
vn 0.966732 -0.258317 0.000000
vn 0.966732 -0.258317 0.000000
vn -0.072407 -0.998043 0.000000
vn 0.258317 -0.966732 0.000000
vn 0.258317 -0.966732 0.000000
vn 0.258317 -0.966732 0.000000
vn -0.072407 -0.998043 0.000000
vn -0.436399 -0.900196 0.000000
vn -0.900196 -0.436399 0.000000
vn -0.436399 -0.900196 0.000000
vn -0.072407 -0.998043 0.000000
vn -0.436399 -0.900196 0.000000
vn -0.900196 -0.436399 0.000000
vn -0.998043 -0.072407 0.000000
vn -0.827789 0.561644 0.000000
vn -0.998043 -0.072407 0.000000
vn -0.900196 -0.436399 0.000000
vn -0.998043 -0.072407 0.000000
vn -0.827789 0.561644 0.000000
vn -0.561644 0.827789 0.000000
vn 0.072407 0.998043 0.000000
vn -0.561644 0.827789 0.000000
vn -0.827789 0.561644 0.000000
vn -0.561644 0.827789 0.000000
vn 0.072407 0.998043 0.000000
vn 0.436399 0.900196 0.000000
vn 0.900196 0.436399 0.000000
vn 0.436399 0.900196 0.000000
vn 0.072407 0.998043 0.000000
vn 0.436399 0.900196 0.000000
vn 0.900196 0.436399 0.000000
vn 0.966732 0.258317 0.000000
vn 0.966732 -0.258317 0.000000
vn 0.966732 0.258317 0.000000
vn 0.900196 0.436399 0.000000
vn 0.000000 0.000000 1.000000
vn 0.000000 0.000000 1.000000
vn 0.000000 0.000000 1.000000
vn 0.000000 0.000000 1.000000
vn 0.000000 0.000000 1.000000
vn 0.000000 0.000000 1.000000
vn 0.000000 0.000000 1.000000
vn 0.000000 0.000000 1.000000
vn 0.000000 0.000000 1.000000
vn 0.000000 0.000000 1.000000
vn 0.000000 0.000000 1.000000
vn 0.000000 0.000000 1.000000
vn 0.000000 0.000000 -1.000000
vn 0.000000 0.000000 -1.000000
vn 0.000000 0.000000 -1.000000
vn 0.000000 0.000000 -1.000000
vn 0.000000 0.000000 -1.000000
vn 0.000000 0.000000 -1.000000
vn 0.000000 0.000000 -1.000000
vn 0.000000 0.000000 -1.000000
vn 0.000000 0.000000 -1.000000
vn 0.000000 0.000000 -1.000000
vn 0.000000 0.000000 -1.000000
vn 0.000000 0.000000 -1.000000
mtllib mtl_nt_2020_cans_clean.mtl
g mtl_nt_2020_cans_clean
usemtl mtl_nt_2020_cans_clean
f 3/3/3 2/2/2 1/1/1
f 6/6/6 5/5/5 4/4/4
f 9/9/9 8/8/8 7/7/7
f 12/12/12 11/11/11 10/10/10
f 15/15/15 14/14/14 13/13/13
f 18/18/18 17/17/17 16/16/16
f 21/21/21 20/20/20 19/19/19
f 24/24/24 23/23/23 22/22/22
f 27/27/27 26/26/26 25/25/25
f 30/30/30 29/29/29 28/28/28
f 33/33/33 32/32/32 31/31/31
f 36/36/36 35/35/35 34/34/34
f 39/39/39 38/38/38 37/37/37
f 42/42/42 41/41/41 40/40/40
f 45/45/45 44/44/44 43/43/43
f 48/48/48 47/47/47 46/46/46
f 51/51/51 50/50/50 49/49/49
f 54/54/54 53/53/53 52/52/52
f 57/57/57 56/56/56 55/55/55
f 60/60/60 59/59/59 58/58/58
