# Generated by Wraith - Game extraction tools
# Please credit DTZxPorter for using it!

v 4.225320 4.225323 15.161633
v 1.545862 -5.774558 0.001125
v 1.545862 -5.774558 15.161633
v 1.545862 -5.774558 0.001125
v 4.225320 4.225323 15.161633
v 4.225320 4.225320 0.001125
v -6.667711 -1.787431 0.001125
v 1.545862 -5.774558 15.161633
v 1.545862 -5.774558 0.001125
v 1.545862 -5.774558 15.161633
v -6.667711 -1.787431 0.001125
v -6.667711 -1.787431 15.161633
v -4.881405 4.879155 0.001125
v -6.667711 -1.787431 15.161633
v -6.667711 -1.787431 0.001125
v -6.667711 -1.787431 15.161633
v -4.881405 4.879155 0.001125
v -4.881405 4.879155 15.161633
v 4.225320 4.225320 0.001125
v -4.881405 4.879155 15.161633
v -4.881405 4.879155 0.001125
v -4.881405 4.879155 15.161633
v 4.225320 4.225320 0.001125
v 4.225320 4.225323 15.161633
v 1.545862 -5.774558 15.161633
v -4.881405 4.879155 15.161633
v 4.225320 4.225323 15.161633
v -4.881405 4.879155 15.161633
v 1.545862 -5.774558 15.161633
v -6.667711 -1.787431 15.161633
v -6.667711 -1.787431 0.001125
v 1.545862 -5.774558 0.001125
v -4.881405 4.879155 0.001125
v 1.545862 -5.774558 0.001125
v 4.225320 4.225320 0.001125
v -4.881405 4.879155 0.001125
vt 0.060577 0.652100
vt -0.109558 0.345215
vt -0.109558 0.652100
vt -0.109558 0.345215
vt 0.060577 0.652100
vt 0.060577 0.345215
vt 0.343994 0.345215
vt 0.500000 0.652100
vt 0.500000 0.345215
vt 0.500000 0.652100
vt 0.343994 0.345215
vt 0.343994 0.652100
vt 0.230713 0.345215
vt 0.343994 0.652100
vt 0.343994 0.345215
vt 0.343994 0.652100
vt 0.230713 0.345215
vt 0.230713 0.652100
vt 0.060577 0.345215
vt 0.230713 0.652100
vt 0.230713 0.345215
vt 0.230713 0.652100
vt 0.060577 0.345215
vt 0.060577 0.652100
vt 0.726563 0.812866
vt 0.949707 0.947662
vt 0.936035 0.756714
vt 0.949707 0.947662
vt 0.726563 0.812866
vt 0.810059 0.985107
vt 0.704590 0.797241
vt 0.878906 0.712646
vt 0.742676 0.938721
vt 0.878906 0.712646
vt 0.936035 0.924866
vt 0.742676 0.938721
vn 0.966732 -0.258317 0.000000
vn 0.966732 -0.258317 0.000000
vn 0.966732 -0.258317 0.000000
vn 0.966732 -0.258317 0.000000
vn 0.814090 0.579256 0.000000
vn 0.538160 0.843444 0.000000
vn -0.767123 -0.641879 0.000000
vn -0.436399 -0.900196 0.000000
vn -0.436399 -0.900196 0.000000
vn -0.436399 -0.900196 0.000000
vn -0.767123 -0.641879 0.000000
vn -0.986301 -0.158513 0.000000
vn -0.774951 0.632094 0.000000
vn -0.986301 -0.158513 0.000000
vn -0.767123 -0.641879 0.000000
vn -0.986301 -0.158513 0.000000
vn -0.774951 0.632094 0.000000
vn -0.342466 0.939335 0.000000
vn 0.538160 0.843444 0.000000
vn -0.342466 0.939335 0.000000
vn -0.774951 0.632094 0.000000
vn -0.342466 0.939335 0.000000
vn 0.538160 0.843444 0.000000
vn 0.814090 0.579256 0.000000
vn 0.000000 0.000000 1.000000
vn 0.000000 0.000000 1.000000
vn 0.000000 0.000000 1.000000
vn 0.000000 0.000000 1.000000
vn 0.000000 0.000000 1.000000
vn 0.000000 0.000000 1.000000
vn 0.000000 0.000000 -1.000000
vn 0.000000 0.000000 -1.000000
vn 0.000000 0.000000 -1.000000
vn 0.000000 0.000000 -1.000000
vn 0.000000 0.000000 -1.000000
vn 0.000000 0.000000 -1.000000
mtllib mtl_nt_2020_cans_clean.mtl
g mtl_nt_2020_cans_clean
usemtl mtl_nt_2020_cans_clean
f 3/3/3 2/2/2 1/1/1
f 6/6/6 5/5/5 4/4/4
f 9/9/9 8/8/8 7/7/7
f 12/12/12 11/11/11 10/10/10
f 15/15/15 14/14/14 13/13/13
f 18/18/18 17/17/17 16/16/16
f 21/21/21 20/20/20 19/19/19
f 24/24/24 23/23/23 22/22/22
f 27/27/27 26/26/26 25/25/25
f 30/30/30 29/29/29 28/28/28
f 33/33/33 32/32/32 31/31/31
f 36/36/36 35/35/35 34/34/34
