# Generated by Wraith - Game extraction tools
# Please credit DTZxPorter for using it!

v -2.003889 -1.089967 -21.330774
v 5.466614 -1.089967 -19.196272
v -2.003889 1.160125 -21.330774
v 5.466614 -1.089967 -19.196272
v 5.466614 1.160125 -19.196272
v -2.003889 1.160125 -21.330774
v -2.003889 1.160125 -21.330774
v -3.339573 1.160125 -16.224783
v -2.003889 -1.089967 -21.330774
v -3.339573 1.160125 -16.224783
v -3.339573 -1.089967 -16.224783
v -2.003889 -1.089967 -21.330774
v -4.365804 -1.089967 -7.317204
v -3.339573 -1.089967 -16.224783
v -3.339573 1.160125 -16.224783
v -4.365804 1.160125 -7.317204
v -4.365804 -1.089967 -7.317204
v -3.339573 1.160125 -16.224783
v -4.365804 1.160125 -7.317204
v -4.365804 1.134270 -0.110353
v -4.365804 -1.089967 -7.317204
v -4.365804 1.134270 -0.110353
v -4.365804 -1.064113 -0.110353
v -4.365804 -1.089967 -7.317204
v -3.339573 1.160125 -16.224783
v -2.003889 1.160125 -21.330774
v 5.466614 1.160125 -19.196272
v 4.182238 1.160125 -14.278809
v -3.339573 1.160125 -16.224783
v 5.466614 1.160125 -19.196272
v -3.339573 1.160125 -16.224783
v 4.182238 1.160125 -14.278809
v -4.365804 1.160125 -7.317204
v 4.182238 1.160125 -14.278809
v 3.403654 1.160125 -7.317204
v -4.365804 1.160125 -7.317204
v -4.365804 1.160125 -7.317204
v 3.403654 1.160125 -7.317204
v 3.403654 1.160125 -0.422148
v -4.365804 1.134270 -0.110353
v -4.365804 1.160125 -7.317204
v 3.403654 1.160125 -0.422148
v 5.466614 -1.089967 -19.196272
v -2.003889 -1.089967 -21.330774
v -3.339573 -1.089967 -16.224783
v 4.182238 -1.089967 -14.278809
v 5.466614 -1.089967 -19.196272
v -3.339573 -1.089967 -16.224783
v 4.182238 -1.089967 -14.278809
v -3.339573 -1.089967 -16.224783
v -4.365804 -1.089967 -7.317204
v 3.403654 -1.089967 -7.317204
v 4.182238 -1.089967 -14.278809
v -4.365804 -1.089967 -7.317204
v 3.403654 -1.089967 -7.317204
v -4.365804 -1.089967 -7.317204
v 3.403654 -1.089967 -0.422148
v -4.365804 -1.089967 -7.317204
v -4.365804 -1.064113 -0.110353
v 3.403654 -1.089967 -0.422148
v 5.466614 1.160125 -19.196272
v 5.466614 -1.089967 -19.196272
v 4.182238 1.160125 -14.278809
v 5.466614 -1.089967 -19.196272
v 4.182238 -1.089967 -14.278809
v 4.182238 1.160125 -14.278809
v 4.182238 -1.089967 -14.278809
v 3.403654 -1.089967 -7.317204
v 4.182238 1.160125 -14.278809
v 3.403654 -1.089967 -7.317204
v 3.403654 1.160125 -7.317204
v 4.182238 1.160125 -14.278809
v 3.403654 1.160125 -0.422148
v 3.403654 1.160125 -7.317204
v 3.403654 -1.089967 -7.317204
v 3.403654 -1.089967 -0.422148
v 3.403654 1.160125 -0.422148
v 3.403654 -1.089967 -7.317204
v 3.403654 1.160125 -0.422148
v 3.403654 -1.089967 -0.422148
v -4.365804 1.134270 -0.110353
v 3.403654 -1.089967 -0.422148
v -4.365804 -1.064113 -0.110353
v -4.365804 1.134270 -0.110353
vt 0.633789 0.711914
vt 0.630859 0.792969
vt 0.650879 0.711914
vt 0.630859 0.792969
vt 0.653809 0.792969
vt 0.650879 0.711914
vt 0.991211 0.079590
vt 0.938965 0.079590
vt 0.990234 0.097168
vt 0.938965 0.079590
vt 0.938477 0.097168
vt 0.990234 0.097168
vt 0.849609 0.097168
vt 0.938477 0.097168
vt 0.938965 0.079590
vt 0.849609 0.079590
vt 0.849609 0.097168
vt 0.938965 0.079590
vt 0.849609 0.079590
vt 0.782715 0.082031
vt 0.849609 0.097168
vt 0.782715 0.082031
vt 0.786621 0.097168
vt 0.849609 0.097168
vt 0.082520 0.236816
vt 0.096252 0.184570
vt 0.172974 0.206543
vt 0.159790 0.256836
vt 0.082520 0.236816
vt 0.172974 0.206543
vt 0.082520 0.236816
vt 0.159790 0.256836
vt 0.071960 0.328613
vt 0.159790 0.256836
vt 0.151733 0.328613
vt 0.071960 0.328613
vt 0.071960 0.328613
vt 0.151733 0.328613
vt 0.151978 0.407715
vt 0.071960 0.408691
vt 0.071960 0.328613
vt 0.151978 0.407715
vt 0.172974 0.206543
vt 0.096252 0.184570
vt 0.082520 0.236816
vt 0.159790 0.256836
vt 0.172974 0.206543
vt 0.082520 0.236816
vt 0.159790 0.256836
vt 0.082520 0.236816
vt 0.071960 0.328613
vt 0.151733 0.328613
vt 0.159790 0.256836
vt 0.071960 0.328613
vt 0.151733 0.328613
vt 0.071960 0.328613
vt 0.151978 0.407715
vt 0.071960 0.328613
vt 0.071960 0.408691
vt 0.151978 0.407715
vt 0.117371 0.418457
vt 0.094666 0.418457
vt 0.117371 0.469727
vt 0.094666 0.418457
vt 0.094666 0.469727
vt 0.117371 0.469727
vt 0.094666 0.469727
vt 0.094666 0.540283
vt 0.117371 0.469727
vt 0.094666 0.540283
vt 0.117371 0.540283
vt 0.117371 0.469727
vt 0.117371 0.609619
vt 0.117371 0.540283
vt 0.094666 0.540283
vt 0.094666 0.609619
vt 0.117371 0.609619
vt 0.094666 0.540283
vt 0.900391 0.604248
vt 0.900391 0.615967
vt 0.941895 0.605957
vt 0.900391 0.615967
vt 0.941895 0.614990
vt 0.941895 0.605957
vn 0.273973 0.000000 -0.960861
vn 0.273973 0.000000 -0.960861
vn 0.273973 0.000000 -0.960861
vn 0.273973 0.000000 -0.960861
vn 0.273973 0.000000 -0.960861
vn 0.273973 0.000000 -0.960861
vn -0.966732 0.000000 -0.252446
vn -0.982387 0.000000 -0.183953
vn -0.966732 0.000000 -0.252446
vn -0.982387 0.000000 -0.183953
vn -0.982387 0.000000 -0.183953
vn -0.966732 0.000000 -0.252446
vn -0.998043 0.000000 -0.056751
vn -0.982387 0.000000 -0.183953
vn -0.982387 0.000000 -0.183953
vn -0.998043 0.000000 -0.056751
vn -0.998043 0.000000 -0.056751
vn -0.982387 0.000000 -0.183953
vn -0.998043 0.000000 -0.056751
vn -1.000000 0.000000 0.000000
vn -0.998043 0.000000 -0.056751
vn -1.000000 0.000000 0.000000
vn -1.000000 0.000000 0.000000
vn -0.998043 0.000000 -0.056751
vn 0.000000 1.000000 0.000000
vn 0.000000 1.000000 0.000000
vn 0.000000 1.000000 0.000000
vn 0.000000 1.000000 0.000000
vn 0.000000 1.000000 0.000000
vn 0.000000 1.000000 0.000000
vn 0.000000 1.000000 0.000000
vn 0.000000 1.000000 0.000000
vn 0.000000 1.000000 0.000000
vn 0.000000 1.000000 0.000000
vn 0.000000 1.000000 0.000000
vn 0.000000 1.000000 0.000000
vn 0.000000 1.000000 0.000000
vn 0.000000 1.000000 0.000000
vn -0.001957 1.000000 0.001957
vn -0.001957 1.000000 0.001957
vn 0.000000 1.000000 0.000000
vn -0.001957 1.000000 0.001957
vn 0.000000 -1.000000 0.000000
vn 0.000000 -1.000000 0.000000
vn 0.000000 -1.000000 0.000000
vn 0.000000 -1.000000 0.000000
vn 0.000000 -1.000000 0.000000
vn 0.000000 -1.000000 0.000000
vn 0.000000 -1.000000 0.000000
vn 0.000000 -1.000000 0.000000
vn 0.000000 -1.000000 0.000000
vn 0.000000 -1.000000 0.000000
vn 0.000000 -1.000000 0.000000
vn 0.000000 -1.000000 0.000000
vn 0.000000 -1.000000 0.000000
vn 0.000000 -1.000000 0.000000
vn -0.001957 -1.000000 0.001957
vn 0.000000 -1.000000 0.000000
vn -0.001957 -1.000000 0.001957
vn -0.001957 -1.000000 0.001957
vn 0.966732 0.000000 0.252446
vn 0.966732 0.000000 0.252446
vn 0.982387 0.000000 0.181996
vn 0.966732 0.000000 0.252446
vn 0.982387 0.000000 0.181996
vn 0.982387 0.000000 0.181996
vn 0.982387 0.000000 0.181996
vn 0.998043 0.000000 0.054795
vn 0.982387 0.000000 0.181996
vn 0.998043 0.000000 0.054795
vn 0.998043 0.000000 0.054795
vn 0.982387 0.000000 0.181996
vn 1.000000 0.000000 0.000000
vn 0.998043 0.000000 0.054795
vn 0.998043 0.000000 0.054795
vn 1.000000 0.000000 0.000000
vn 1.000000 0.000000 0.000000
vn 0.998043 0.000000 0.054795
vn 0.039139 0.000000 1.000000
vn 0.039139 0.000000 1.000000
vn 0.039139 0.000000 1.000000
vn 0.039139 0.000000 1.000000
vn 0.039139 0.000000 1.000000
vn 0.039139 0.000000 1.000000
mtllib mtl_t6_wpn_ar_x95l_camo1.mtl
g mtl_t6_wpn_ar_x95l_camo1
usemtl mtl_t6_wpn_ar_x95l_camo1
f 3/3/3 2/2/2 1/1/1
f 6/6/6 5/5/5 4/4/4
f 9/9/9 8/8/8 7/7/7
f 12/12/12 11/11/11 10/10/10
f 15/15/15 14/14/14 13/13/13
f 18/18/18 17/17/17 16/16/16
f 21/21/21 20/20/20 19/19/19
f 24/24/24 23/23/23 22/22/22
f 27/27/27 26/26/26 25/25/25
f 30/30/30 29/29/29 28/28/28
f 33/33/33 32/32/32 31/31/31
f 36/36/36 35/35/35 34/34/34
f 39/39/39 38/38/38 37/37/37
f 42/42/42 41/41/41 40/40/40
f 45/45/45 44/44/44 43/43/43
f 48/48/48 47/47/47 46/46/46
f 51/51/51 50/50/50 49/49/49
f 54/54/54 53/53/53 52/52/52
f 57/57/57 56/56/56 55/55/55
f 60/60/60 59/59/59 58/58/58
f 63/63/63 62/62/62 61/61/61
f 66/66/66 65/65/65 64/64/64
f 69/69/69 68/68/68 67/67/67
f 72/72/72 71/71/71 70/70/70
f 75/75/75 74/74/74 73/73/73
f 78/78/78 77/77/77 76/76/76
f 81/81/81 80/80/80 79/79/79
f 84/84/84 83/83/83 82/82/82
