# Generated by Wraith - Game extraction tools
# Please credit DTZxPorter for using it!

v -2.003889 -1.193102 -21.330774
v 5.466614 -1.193102 -19.196272
v -2.003889 1.056991 -21.330774
v 5.466614 -1.193102 -19.196272
v 5.466614 1.056991 -19.196272
v -2.003889 1.056991 -21.330774
v -2.003889 1.056991 -21.330774
v -3.852691 1.056991 -11.770994
v -2.003889 -1.193102 -21.330774
v -3.852691 1.056991 -11.770994
v -3.852691 -1.193102 -11.770994
v -2.003889 -1.193102 -21.330774
v -3.852691 1.056991 -11.770994
v -4.365804 1.031133 -0.110353
v -3.852691 -1.193102 -11.770994
v -4.365804 1.031133 -0.110353
v -4.365804 -1.167244 -0.110353
v -3.852691 -1.193102 -11.770994
v -3.852691 1.056991 -11.770994
v -2.003889 1.056991 -21.330774
v 5.466614 1.056991 -19.196272
v 3.792947 1.056991 -10.798006
v -3.852691 1.056991 -11.770994
v 5.466614 1.056991 -19.196272
v -3.852691 1.056991 -11.770994
v 3.792947 1.056991 -10.798006
v -4.365804 1.031133 -0.110353
v 3.792947 1.056991 -10.798006
v 3.403654 1.056991 -0.422148
v -4.365804 1.031133 -0.110353
v 5.466614 -1.193102 -19.196272
v -2.003889 -1.193102 -21.330774
v -3.852691 -1.193102 -11.770994
v 3.792947 -1.193102 -10.798006
v 5.466614 -1.193102 -19.196272
v -3.852691 -1.193102 -11.770994
v -3.852691 -1.193102 -11.770994
v -4.365804 -1.167244 -0.110353
v 3.792947 -1.193102 -10.798006
v -4.365804 -1.167244 -0.110353
v 3.403654 -1.193102 -0.422148
v 3.792947 -1.193102 -10.798006
v 5.466614 1.056991 -19.196272
v 5.466614 -1.193102 -19.196272
v 3.792947 1.056991 -10.798006
v 5.466614 -1.193102 -19.196272
v 3.792947 -1.193102 -10.798006
v 3.792947 1.056991 -10.798006
v 3.403654 1.056991 -0.422148
v 3.792947 1.056991 -10.798006
v 3.792947 -1.193102 -10.798006
v 3.403654 -1.193102 -0.422148
v 3.403654 1.056991 -0.422148
v 3.792947 -1.193102 -10.798006
v 3.403654 1.056991 -0.422148
v 3.403654 -1.193102 -0.422148
v -4.365804 1.031133 -0.110353
v 3.403654 -1.193102 -0.422148
v -4.365804 -1.167244 -0.110353
v -4.365804 1.031133 -0.110353
vt 0.633789 0.711914
vt 0.630859 0.792969
vt 0.650879 0.711914
vt 0.630859 0.792969
vt 0.653809 0.792969
vt 0.650879 0.711914
vt 0.991211 0.079590
vt 0.894531 0.079590
vt 0.990234 0.097168
vt 0.894531 0.079590
vt 0.894043 0.097168
vt 0.990234 0.097168
vt 0.894531 0.079590
vt 0.782715 0.082031
vt 0.894043 0.097168
vt 0.782715 0.082031
vt 0.786621 0.097168
vt 0.894043 0.097168
vt 0.077209 0.282715
vt 0.096252 0.184570
vt 0.172974 0.206543
vt 0.155762 0.292969
vt 0.077209 0.282715
vt 0.172974 0.206543
vt 0.077209 0.282715
vt 0.155762 0.292969
vt 0.071960 0.410156
vt 0.155762 0.292969
vt 0.150024 0.410156
vt 0.071960 0.410156
vt 0.172974 0.206543
vt 0.096252 0.184570
vt 0.077209 0.282715
vt 0.155762 0.292969
vt 0.172974 0.206543
vt 0.077209 0.282715
vt 0.077209 0.282715
vt 0.071960 0.410156
vt 0.155762 0.292969
vt 0.071960 0.410156
vt 0.150024 0.410156
vt 0.155762 0.292969
vt 0.117371 0.418457
vt 0.094666 0.418457
vt 0.117371 0.504883
vt 0.094666 0.418457
vt 0.094666 0.504883
vt 0.117371 0.504883
vt 0.117371 0.609619
vt 0.117371 0.504883
vt 0.094666 0.504883
vt 0.094666 0.609619
vt 0.117371 0.609619
vt 0.094666 0.504883
vt 0.900391 0.604248
vt 0.900391 0.615967
vt 0.941895 0.605957
vt 0.900391 0.615967
vt 0.941895 0.614990
vt 0.941895 0.605957
vn 0.273973 0.000000 -0.960861
vn 0.273973 0.000000 -0.960861
vn 0.273973 0.000000 -0.960861
vn 0.273973 0.000000 -0.960861
vn 0.273973 0.000000 -0.960861
vn 0.273973 0.000000 -0.960861
vn -0.982387 0.000000 -0.189824
vn -0.992172 0.000000 -0.117417
vn -0.982387 0.000000 -0.189824
vn -0.992172 0.000000 -0.117417
vn -0.992172 0.000000 -0.117417
vn -0.982387 0.000000 -0.189824
vn -0.992172 0.000000 -0.117417
vn -1.000000 0.000000 -0.043053
vn -0.992172 0.000000 -0.117417
vn -1.000000 0.000000 -0.043053
vn -1.000000 0.000000 -0.043053
vn -0.992172 0.000000 -0.117417
vn 0.000000 1.000000 0.000000
vn 0.000000 1.000000 0.000000
vn 0.000000 1.000000 0.000000
vn 0.700587 0.708415 0.082192
vn 0.000000 1.000000 0.000000
vn 0.000000 1.000000 0.000000
vn 0.000000 1.000000 0.000000
vn 0.700587 0.708415 0.082192
vn -0.001957 1.000000 0.001957
vn 0.700587 0.708415 0.082192
vn 0.706458 0.708415 0.027397
vn -0.001957 1.000000 0.001957
vn 0.000000 -1.000000 0.000000
vn 0.000000 -1.000000 0.000000
vn 0.000000 -1.000000 0.000000
vn 0.000000 -1.000000 0.000000
vn 0.000000 -1.000000 0.000000
vn 0.000000 -1.000000 0.000000
vn 0.000000 -1.000000 0.000000
vn -0.001957 -1.000000 0.001957
vn 0.000000 -1.000000 0.000000
vn -0.001957 -1.000000 0.001957
vn -0.001957 -1.000000 0.001957
vn 0.000000 -1.000000 0.000000
vn 0.980431 0.000000 0.195695
vn 0.980431 0.000000 0.195695
vn 0.700587 0.708415 0.082192
vn 0.980431 0.000000 0.195695
vn 0.994129 0.000000 0.117417
vn 0.700587 0.708415 0.082192
vn 0.706458 0.708415 0.027397
vn 0.700587 0.708415 0.082192
vn 0.994129 0.000000 0.117417
vn 1.000000 0.000000 0.037182
vn 0.706458 0.708415 0.027397
vn 0.994129 0.000000 0.117417
vn 0.039139 0.000000 1.000000
vn 0.039139 0.000000 1.000000
vn 0.039139 0.000000 1.000000
vn 0.039139 0.000000 1.000000
vn 0.039139 0.000000 1.000000
vn 0.039139 0.000000 1.000000
mtllib mtl_t6_wpn_ar_x95l_camo1.mtl
g mtl_t6_wpn_ar_x95l_camo1
usemtl mtl_t6_wpn_ar_x95l_camo1
f 3/3/3 2/2/2 1/1/1
f 6/6/6 5/5/5 4/4/4
f 9/9/9 8/8/8 7/7/7
f 12/12/12 11/11/11 10/10/10
f 15/15/15 14/14/14 13/13/13
f 18/18/18 17/17/17 16/16/16
f 21/21/21 20/20/20 19/19/19
f 24/24/24 23/23/23 22/22/22
f 27/27/27 26/26/26 25/25/25
f 30/30/30 29/29/29 28/28/28
f 33/33/33 32/32/32 31/31/31
f 36/36/36 35/35/35 34/34/34
f 39/39/39 38/38/38 37/37/37
f 42/42/42 41/41/41 40/40/40
f 45/45/45 44/44/44 43/43/43
f 48/48/48 47/47/47 46/46/46
f 51/51/51 50/50/50 49/49/49
f 54/54/54 53/53/53 52/52/52
f 57/57/57 56/56/56 55/55/55
f 60/60/60 59/59/59 58/58/58
