# Generated by Wraith - Game extraction tools
# Please credit DTZxPorter for using it!

v -11.682626 -32.002869 12.064995
v -11.682626 32.002842 12.064995
v -11.516147 -32.067177 15.846268
v -11.682626 32.002842 12.064995
v -11.516147 32.067154 15.846268
v -11.516147 -32.067177 15.846268
v -11.516147 -32.067177 15.846268
v -11.516147 32.067154 15.846268
v -7.320537 -32.067535 21.648315
v -11.516147 32.067154 15.846268
v -7.320537 32.067505 21.648315
v -7.320537 -32.067535 21.648315
v -7.320537 -32.067535 21.648315
v -7.320537 32.067505 21.648315
v 7.320537 -32.067535 21.648315
v -7.320537 32.067505 21.648315
v 7.320537 32.067505 21.648315
v 7.320537 -32.067535 21.648315
v 7.320537 -32.067535 21.648315
v 7.320537 32.067505 21.648315
v 11.516144 -32.067177 15.846268
v 7.320537 32.067505 21.648315
v 11.516144 32.067154 15.846268
v 11.516144 -32.067177 15.846268
v 11.516144 -32.067177 15.846268
v 11.516144 32.067154 15.846268
v 11.682620 -32.002869 12.064993
v 11.516144 32.067154 15.846268
v 11.682620 32.002842 12.064993
v 11.682620 -32.002869 12.064993
v 11.516144 -32.067177 15.846268
v 11.682620 -32.002869 12.064993
v -11.682626 -32.002869 12.064995
v -11.516147 -32.067177 15.846268
v 11.516144 -32.067177 15.846268
v -11.682626 -32.002869 12.064995
v 7.320537 -32.067535 21.648315
v 11.516144 -32.067177 15.846268
v -11.516147 -32.067177 15.846268
v -7.320537 -32.067535 21.648315
v 7.320537 -32.067535 21.648315
v -11.516147 -32.067177 15.846268
v -11.682626 32.002842 12.064995
v 11.682620 32.002842 12.064993
v -11.516147 32.067154 15.846268
v 11.682620 32.002842 12.064993
v 11.516144 32.067154 15.846268
v -11.516147 32.067154 15.846268
v -7.320537 32.067505 21.648315
v -11.516147 32.067154 15.846268
v 11.516144 32.067154 15.846268
v 7.320537 32.067505 21.648315
v -7.320537 32.067505 21.648315
v 11.516144 32.067154 15.846268
v 11.747507 -32.067513 0.022941
v 11.747507 32.067482 0.022941
v -11.747507 -32.067513 0.022941
v 11.747507 32.067482 0.022941
v -11.747507 32.067482 0.022941
v -11.747507 -32.067513 0.022941
v 11.682620 -32.002869 12.064993
v 11.682620 32.002842 12.064993
v 11.747507 -32.067513 0.022941
v 11.682620 32.002842 12.064993
v 11.747507 32.067482 0.022941
v 11.747507 -32.067513 0.022941
v -11.747507 -32.067513 0.022941
v -11.747507 32.067482 0.022941
v -11.682626 -32.002869 12.064995
v -11.747507 32.067482 0.022941
v -11.682626 32.002842 12.064995
v -11.682626 -32.002869 12.064995
v -11.747507 32.067482 0.022941
v 11.747507 32.067482 0.022941
v -11.682626 32.002842 12.064995
v 11.747507 32.067482 0.022941
v 11.682620 32.002842 12.064993
v -11.682626 32.002842 12.064995
v 11.747507 -32.067513 0.022941
v -11.747507 -32.067513 0.022941
v 11.682620 -32.002869 12.064993
v -11.747507 -32.067513 0.022941
v -11.682626 -32.002869 12.064995
v 11.682620 -32.002869 12.064993
vt 0.439941 0.848145
vt 0.439941 0.144531
vt 0.395508 0.848389
vt 0.439941 0.144531
vt 0.395752 0.144043
vt 0.395508 0.848389
vt 0.395508 0.848389
vt 0.395752 0.144043
vt 0.313477 0.848145
vt 0.395752 0.144043
vt 0.313721 0.144531
vt 0.313477 0.848145
vt 0.313477 0.848145
vt 0.313721 0.144531
vt 0.145142 0.848145
vt 0.313721 0.144531
vt 0.145630 0.144531
vt 0.145142 0.848145
vt 0.145142 0.848145
vt 0.145630 0.144531
vt 0.063293 0.846558
vt 0.145630 0.144531
vt 0.063782 0.145020
vt 0.063293 0.846558
vt 0.063293 0.846558
vt 0.063782 0.145020
vt 0.019562 0.847168
vt 0.063782 0.145020
vt 0.019913 0.144531
vt 0.019562 0.847168
vt 0.093689 0.923645
vt 0.090698 0.972153
vt 0.368652 0.971207
vt 0.365479 0.922485
vt 0.093689 0.923645
vt 0.368652 0.971207
vt 0.145142 0.848145
vt 0.093689 0.923645
vt 0.365479 0.922485
vt 0.313477 0.848145
vt 0.145142 0.848145
vt 0.365479 0.922485
vt 0.368652 0.021484
vt 0.091064 0.020508
vt 0.365479 0.070313
vt 0.091064 0.020508
vt 0.094116 0.069336
vt 0.365479 0.070313
vt 0.313721 0.144531
vt 0.365479 0.070313
vt 0.094116 0.069336
vt 0.145630 0.144531
vt 0.313721 0.144531
vt 0.094116 0.069336
vt 0.855957 0.844360
vt 0.855957 0.155273
vt 0.605469 0.844360
vt 0.855957 0.155273
vt 0.605469 0.155273
vt 0.605469 0.844360
vt 0.985352 0.845581
vt 0.985352 0.154297
vt 0.855957 0.844360
vt 0.985352 0.154297
vt 0.855957 0.155273
vt 0.855957 0.844360
vt 0.605469 0.844360
vt 0.605469 0.155273
vt 0.476318 0.845581
vt 0.605469 0.155273
vt 0.476318 0.154297
vt 0.476318 0.845581
vt 0.605469 0.155273
vt 0.855957 0.155273
vt 0.602539 0.025879
vt 0.855957 0.155273
vt 0.858887 0.025879
vt 0.602539 0.025879
vt 0.855957 0.844360
vt 0.605469 0.844360
vt 0.858887 0.974106
vt 0.605469 0.844360
vt 0.602539 0.974106
vt 0.858887 0.974106
vn -1.000000 0.000000 0.025440
vn -1.000000 0.000000 0.025440
vn -0.943249 0.000000 0.330724
vn -1.000000 0.000000 0.025440
vn -0.943249 0.000000 0.330724
vn -0.943249 0.000000 0.330724
vn -0.943249 0.000000 0.330724
vn -0.943249 0.000000 0.330724
vn -0.454012 0.000000 0.890411
vn -0.943249 0.000000 0.330724
vn -0.454012 0.000000 0.890411
vn -0.454012 0.000000 0.890411
vn -0.454012 0.000000 0.890411
vn -0.454012 0.000000 0.890411
vn 0.454012 0.000000 0.890411
vn -0.454012 0.000000 0.890411
vn 0.454012 0.000000 0.890411
vn 0.454012 0.000000 0.890411
vn 0.454012 0.000000 0.890411
vn 0.454012 0.000000 0.890411
vn 0.943249 0.000000 0.330724
vn 0.454012 0.000000 0.890411
vn 0.943249 0.000000 0.330724
vn 0.943249 0.000000 0.330724
vn 0.943249 0.000000 0.330724
vn 0.943249 0.000000 0.330724
vn 1.000000 0.000000 0.025440
vn 0.943249 0.000000 0.330724
vn 1.000000 0.000000 0.025440
vn 1.000000 0.000000 0.025440
vn 0.000000 -1.000000 -0.009785
vn 0.000000 -1.000000 -0.005871
vn 0.000000 -1.000000 -0.005871
vn 0.000000 -1.000000 -0.009785
vn 0.000000 -1.000000 -0.009785
vn 0.000000 -1.000000 -0.005871
vn 0.000000 -1.000000 0.000000
vn 0.000000 -1.000000 -0.009785
vn 0.000000 -1.000000 -0.009785
vn 0.000000 -1.000000 0.000000
vn 0.000000 -1.000000 0.000000
vn 0.000000 -1.000000 -0.009785
vn 0.000000 1.000000 -0.005871
vn 0.000000 1.000000 -0.005871
vn 0.000000 1.000000 -0.009785
vn 0.000000 1.000000 -0.005871
vn 0.000000 1.000000 -0.009785
vn 0.000000 1.000000 -0.009785
vn 0.000000 1.000000 0.000000
vn 0.000000 1.000000 -0.009785
vn 0.000000 1.000000 -0.009785
vn 0.000000 1.000000 0.000000
vn 0.000000 1.000000 0.000000
vn 0.000000 1.000000 -0.009785
vn 0.000000 0.000000 -1.000000
vn 0.000000 0.000000 -1.000000
vn 0.000000 0.000000 -1.000000
vn 0.000000 0.000000 -1.000000
vn 0.000000 0.000000 -1.000000
vn 0.000000 0.000000 -1.000000
vn 1.000000 0.000000 0.025440
vn 1.000000 0.000000 0.025440
vn 1.000000 0.000000 0.005871
vn 1.000000 0.000000 0.025440
vn 1.000000 0.000000 0.005871
vn 1.000000 0.000000 0.005871
vn -1.000000 0.000000 0.005871
vn -1.000000 0.000000 0.005871
vn -1.000000 0.000000 0.025440
vn -1.000000 0.000000 0.005871
vn -1.000000 0.000000 0.025440
vn -1.000000 0.000000 0.025440
vn 0.000000 1.000000 0.005871
vn 0.000000 1.000000 0.005871
vn 0.000000 1.000000 -0.005871
vn 0.000000 1.000000 0.005871
vn 0.000000 1.000000 -0.005871
vn 0.000000 1.000000 -0.005871
vn 0.000000 -1.000000 0.005871
vn 0.000000 -1.000000 0.005871
vn 0.000000 -1.000000 -0.005871
vn 0.000000 -1.000000 0.005871
vn 0.000000 -1.000000 -0.005871
vn 0.000000 -1.000000 -0.005871
mtllib mtl_p_test_karma_toolbox.mtl
g mtl_p_test_karma_toolbox
usemtl mtl_p_test_karma_toolbox
f 3/3/3 2/2/2 1/1/1
f 6/6/6 5/5/5 4/4/4
f 9/9/9 8/8/8 7/7/7
f 12/12/12 11/11/11 10/10/10
f 15/15/15 14/14/14 13/13/13
f 18/18/18 17/17/17 16/16/16
f 21/21/21 20/20/20 19/19/19
f 24/24/24 23/23/23 22/22/22
f 27/27/27 26/26/26 25/25/25
f 30/30/30 29/29/29 28/28/28
f 33/33/33 32/32/32 31/31/31
f 36/36/36 35/35/35 34/34/34
f 39/39/39 38/38/38 37/37/37
f 42/42/42 41/41/41 40/40/40
f 45/45/45 44/44/44 43/43/43
f 48/48/48 47/47/47 46/46/46
f 51/51/51 50/50/50 49/49/49
f 54/54/54 53/53/53 52/52/52
f 57/57/57 56/56/56 55/55/55
f 60/60/60 59/59/59 58/58/58
f 63/63/63 62/62/62 61/61/61
f 66/66/66 65/65/65 64/64/64
f 69/69/69 68/68/68 67/67/67
f 72/72/72 71/71/71 70/70/70
f 75/75/75 74/74/74 73/73/73
f 78/78/78 77/77/77 76/76/76
f 81/81/81 80/80/80 79/79/79
f 84/84/84 83/83/83 82/82/82
