# Generated by Wraith - Game extraction tools
# Please credit DTZxPorter for using it!

v -11.431311 -32.067535 21.648315
v -11.431311 32.067505 21.648315
v 11.431308 -32.067535 21.648315
v -11.431311 32.067505 21.648315
v 11.431308 32.067505 21.648315
v 11.431308 -32.067535 21.648315
v -11.747507 -32.067513 0.022941
v -11.747507 32.067482 0.022941
v -11.431311 -32.067535 21.648315
v -11.747507 32.067482 0.022941
v -11.431311 32.067505 21.648315
v -11.431311 -32.067535 21.648315
v -11.747507 32.067482 0.022941
v 11.747507 32.067482 0.022941
v -11.431311 32.067505 21.648315
v 11.747507 32.067482 0.022941
v 11.431308 32.067505 21.648315
v -11.431311 32.067505 21.648315
v 11.747507 32.067482 0.022941
v 11.747507 -32.067513 0.022941
v 11.431308 32.067505 21.648315
v 11.747507 -32.067513 0.022941
v 11.431308 -32.067535 21.648315
v 11.431308 32.067505 21.648315
v 11.747507 -32.067513 0.022941
v -11.747507 -32.067513 0.022941
v 11.431308 -32.067535 21.648315
v -11.747507 -32.067513 0.022941
v -11.431311 -32.067535 21.648315
v 11.431308 -32.067535 21.648315
v 11.747507 -32.067513 0.022941
v 11.747507 32.067482 0.022941
v -11.747507 -32.067513 0.022941
v 11.747507 32.067482 0.022941
v -11.747507 32.067482 0.022941
v -11.747507 -32.067513 0.022941
vt 0.354492 0.848267
vt 0.358398 0.119629
vt 0.100708 0.872803
vt 0.358398 0.119629
vt 0.104736 0.144531
vt 0.100708 0.872803
vt 0.605469 0.844360
vt 0.605469 0.155273
vt 0.435791 0.846924
vt 0.605469 0.155273
vt 0.435791 0.154297
vt 0.435791 0.846924
vt 0.605469 0.155273
vt 0.855957 0.155273
vt 0.603516 -0.014648
vt 0.855957 0.155273
vt 0.855957 -0.014648
vt 0.603516 -0.014648
vt 0.855957 0.155273
vt 0.855957 0.844360
vt 1.025391 0.152832
vt 0.855957 0.844360
vt 1.025391 0.845703
vt 1.025391 0.152832
vt 0.855957 0.844360
vt 0.605469 0.844360
vt 0.857910 1.014824
vt 0.605469 0.844360
vt 0.605469 1.014824
vt 0.857910 1.014824
vt 0.855957 0.844360
vt 0.855957 0.155273
vt 0.605469 0.844360
vt 0.855957 0.155273
vt 0.605469 0.155273
vt 0.605469 0.844360
vn 0.000000 0.000000 1.000000
vn 0.000000 0.000000 1.000000
vn 0.000000 0.000000 1.000000
vn 0.000000 0.000000 1.000000
vn 0.000000 0.000000 1.000000
vn 0.000000 0.000000 1.000000
vn -1.000000 0.000000 0.013699
vn -1.000000 0.000000 0.013699
vn -1.000000 0.000000 0.013699
vn -1.000000 0.000000 0.013699
vn -1.000000 0.000000 0.013699
vn -1.000000 0.000000 0.013699
vn 0.000000 1.000000 0.000000
vn 0.000000 1.000000 0.000000
vn 0.000000 1.000000 0.000000
vn 0.000000 1.000000 0.000000
vn 0.000000 1.000000 0.000000
vn 0.000000 1.000000 0.000000
vn 1.000000 0.000000 0.013699
vn 1.000000 0.000000 0.013699
vn 1.000000 0.000000 0.013699
vn 1.000000 0.000000 0.013699
vn 1.000000 0.000000 0.013699
vn 1.000000 0.000000 0.013699
vn 0.000000 -1.000000 0.000000
vn 0.000000 -1.000000 0.000000
vn 0.000000 -1.000000 0.000000
vn 0.000000 -1.000000 0.000000
vn 0.000000 -1.000000 0.000000
vn 0.000000 -1.000000 0.000000
vn 0.000000 0.000000 -1.000000
vn 0.000000 0.000000 -1.000000
vn 0.000000 0.000000 -1.000000
vn 0.000000 0.000000 -1.000000
vn 0.000000 0.000000 -1.000000
vn 0.000000 0.000000 -1.000000
mtllib mtl_p_test_karma_toolbox.mtl
g mtl_p_test_karma_toolbox
usemtl mtl_p_test_karma_toolbox
f 3/3/3 2/2/2 1/1/1
f 6/6/6 5/5/5 4/4/4
f 9/9/9 8/8/8 7/7/7
f 12/12/12 11/11/11 10/10/10
f 15/15/15 14/14/14 13/13/13
f 18/18/18 17/17/17 16/16/16
f 21/21/21 20/20/20 19/19/19
f 24/24/24 23/23/23 22/22/22
f 27/27/27 26/26/26 25/25/25
f 30/30/30 29/29/29 28/28/28
f 33/33/33 32/32/32 31/31/31
f 36/36/36 35/35/35 34/34/34
