# Generated by Wraith - Game extraction tools
# Please credit DTZxPorter for using it!

v -42.872822 23.439196 -22.940678
v -73.592400 35.124901 -33.232166
v -29.102894 32.375069 -39.547543
v -73.592400 35.124901 -33.232166
v -52.363583 48.901157 -58.834629
v -29.102894 32.375069 -39.547543
v -29.102894 32.375069 -39.547543
v -52.363583 48.901157 -58.834629
v -15.332964 23.439196 -56.154411
v -52.363583 48.901157 -58.834629
v -31.134768 35.124901 -84.437080
v -15.332964 23.439196 -56.154411
v -15.332964 23.439196 -56.154411
v -31.134768 35.124901 -84.437080
v -9.629277 1.866090 -63.033195
v -31.134768 35.124901 -84.437080
v -22.341501 1.866090 -95.041977
v -9.629277 1.866090 -63.033195
v -9.629277 1.866090 -63.033195
v -22.341501 1.866090 -95.041977
v -15.332964 -19.707016 -56.154411
v -22.341501 1.866090 -95.041977
v -31.134768 -31.392723 -84.437080
v -15.332964 -19.707016 -56.154411
v -15.332964 -19.707016 -56.154411
v -31.134768 -31.392723 -84.437080
v -29.102894 -28.642891 -39.547543
v -31.134768 -31.392723 -84.437080
v -52.363583 -45.168976 -58.834629
v -29.102894 -28.642891 -39.547543
v -29.102894 -28.642891 -39.547543
v -52.363583 -45.168976 -58.834629
v -42.872822 -19.707022 -22.940674
v -52.363583 -45.168976 -58.834629
v -73.592400 -31.392727 -33.232162
v -42.872822 -19.707022 -22.940674
v -42.872822 -19.707022 -22.940674
v -73.592400 -31.392727 -33.232162
v -48.576515 1.866090 -16.061886
v -73.592400 -31.392727 -33.232162
v -82.385666 1.866090 -22.627274
v -48.576515 1.866090 -16.061886
v -48.576515 1.866090 -16.061886
v -82.385666 1.866090 -22.627274
v -42.872822 23.439196 -22.940678
v -82.385666 1.866090 -22.627274
v -73.592400 35.124901 -33.232166
v -42.872822 23.439196 -22.940678
v -12.323122 12.746783 -40.424828
v -12.323122 -11.661973 -40.424828
v 0.044193 12.746783 -36.140362
v -12.323122 -11.661973 -40.424828
v 0.044193 -11.661973 -36.140362
v 0.044193 12.746783 -36.140362
v 13.751041 -11.661973 17.067150
v 13.751041 -11.661973 29.677742
v 13.751041 12.746783 17.067148
v 13.751041 -11.661973 29.677742
v 13.751041 12.746783 29.677742
v 13.751041 12.746783 17.067148
v -12.323122 12.746783 29.677742
v -12.323122 -11.661973 29.677742
v -12.323122 -11.661973 17.067150
v -12.323122 12.746783 17.067148
v -12.323122 12.746783 29.677742
v -12.323122 -11.661973 17.067150
v -12.323122 12.746783 17.067148
v -12.323122 -11.661973 17.067150
v -12.323122 -11.661973 -40.424828
v -12.323122 12.746783 -40.424828
v -12.323122 12.746783 17.067148
v -12.323122 -11.661973 -40.424828
v -12.323122 -11.661973 -40.424828
v -12.323122 -11.661973 17.067150
v 0.044193 -11.661973 -36.140362
v -12.323122 -11.661973 17.067150
v 0.044193 -11.661973 17.067150
v 0.044193 -11.661973 -36.140362
v -12.323122 -11.661973 17.067150
v -12.323122 -11.661973 29.677742
v 0.044193 -11.661973 17.067150
v -12.323122 -11.661973 29.677742
v 0.044193 -11.661973 33.829124
v 0.044193 -11.661973 17.067150
v 0.044193 -11.661973 33.829124
v 13.751041 -11.661973 29.677742
v 0.044193 -11.661973 17.067150
v 13.751041 -11.661973 29.677742
v 13.751041 -11.661973 17.067150
v 0.044193 -11.661973 17.067150
v -12.323122 -11.661973 29.677742
v -12.323122 12.746783 29.677742
v 0.044193 -11.661973 33.829124
v -12.323122 12.746783 29.677742
v 0.044193 12.746783 33.829124
v 0.044193 -11.661973 33.829124
v 0.044193 12.746783 33.829124
v 13.751041 12.746783 29.677742
v 0.044193 -11.661973 33.829124
v 13.751041 12.746783 29.677742
v 13.751041 -11.661973 29.677742
v 0.044193 -11.661973 33.829124
v -12.323122 12.746783 17.067148
v -12.323122 12.746783 -40.424828
v 0.044193 12.746783 -36.140362
v 0.044193 12.746783 17.067148
v -12.323122 12.746783 17.067148
v 0.044193 12.746783 -36.140362
v -12.323122 12.746783 29.677742
v -12.323122 12.746783 17.067148
v 0.044193 12.746783 17.067148
v 0.044193 12.746783 33.829124
v -12.323122 12.746783 29.677742
v 0.044193 12.746783 17.067148
v 0.044193 12.746783 33.829124
v 0.044193 12.746783 17.067148
v 13.751041 12.746783 29.677742
v 0.044193 12.746783 17.067148
v 13.751041 12.746783 17.067148
v 13.751041 12.746783 29.677742
v 0.044193 -11.661973 17.067150
v 0.044193 12.746783 17.067148
v 0.044193 -11.661973 -36.140362
v 0.044193 12.746783 17.067148
v 0.044193 12.746783 -36.140362
v 0.044193 -11.661973 -36.140362
v -48.576515 1.866090 -16.061886
v -29.102894 1.866090 -39.547543
v -42.872822 -19.707022 -22.940674
v -42.872822 23.439196 -22.940678
v -29.102894 1.866090 -39.547543
v -48.576515 1.866090 -16.061886
v -29.102894 32.375069 -39.547543
v -29.102894 1.866090 -39.547543
v -42.872822 23.439196 -22.940678
v -15.332964 23.439196 -56.154411
v -29.102894 1.866090 -39.547543
v -29.102894 32.375069 -39.547543
v -9.629277 1.866090 -63.033195
v -29.102894 1.866090 -39.547543
v -15.332964 23.439196 -56.154411
v -15.332964 -19.707016 -56.154411
v -29.102894 1.866090 -39.547543
v -9.629277 1.866090 -63.033195
v -29.102894 -28.642891 -39.547543
v -29.102894 1.866090 -39.547543
v -15.332964 -19.707016 -56.154411
v -42.872822 -19.707022 -22.940674
v -29.102894 1.866090 -39.547543
v -29.102894 -28.642891 -39.547543
v -73.592400 35.124901 -33.232166
v -52.363583 1.866090 -58.834629
v -52.363583 48.901157 -58.834629
v -82.385666 1.866090 -22.627274
v -52.363583 1.866090 -58.834629
v -73.592400 35.124901 -33.232166
v -73.592400 -31.392727 -33.232162
v -52.363583 1.866090 -58.834629
v -82.385666 1.866090 -22.627274
v -52.363583 -45.168976 -58.834629
v -52.363583 1.866090 -58.834629
v -73.592400 -31.392727 -33.232162
v -31.134768 -31.392723 -84.437080
v -52.363583 1.866090 -58.834629
v -52.363583 -45.168976 -58.834629
v -22.341501 1.866090 -95.041977
v -52.363583 1.866090 -58.834629
v -31.134768 -31.392723 -84.437080
v -31.134768 35.124901 -84.437080
v -52.363583 1.866090 -58.834629
v -22.341501 1.866090 -95.041977
v -52.363583 48.901157 -58.834629
v -52.363583 1.866090 -58.834629
v -31.134768 35.124901 -84.437080
vt 0.375000 0.312500
vt 0.375000 0.688477
vt 0.406250 0.312500
vt 0.375000 0.688477
vt 0.406250 0.688477
vt 0.406250 0.312500
vt 0.406250 0.312500
vt 0.406250 0.688477
vt 0.437500 0.312500
vt 0.406250 0.688477
vt 0.437500 0.688477
vt 0.437500 0.312500
vt 0.437500 0.312500
vt 0.437500 0.688477
vt 0.468750 0.312500
vt 0.437500 0.688477
vt 0.468750 0.688477
vt 0.468750 0.312500
vt 0.468750 0.312500
vt 0.468750 0.688477
vt 0.500000 0.312500
vt 0.468750 0.688477
vt 0.500000 0.688477
vt 0.500000 0.312500
vt 0.500000 0.312500
vt 0.500000 0.688477
vt 0.531250 0.312500
vt 0.500000 0.688477
vt 0.531250 0.688477
vt 0.531250 0.312500
vt 0.531250 0.312500
vt 0.531250 0.688477
vt 0.562500 0.312500
vt 0.531250 0.688477
vt 0.562500 0.688477
vt 0.562500 0.312500
vt 0.562500 0.312500
vt 0.562500 0.688477
vt 0.593750 0.312500
vt 0.562500 0.688477
vt 0.593750 0.688477
vt 0.593750 0.312500
vt 0.593750 0.312500
vt 0.593750 0.688477
vt 0.625000 0.312500
vt 0.593750 0.688477
vt 0.625000 0.688477
vt 0.625000 0.312500
vt 0.375000 0.750000
vt 0.375000 1.000000
vt 0.493408 0.750000
vt 0.375000 1.000000
vt 0.493408 1.000000
vt 0.493408 0.750000
vt 0.625000 0.144043
vt 0.625000 0.250000
vt 0.875000 0.144043
vt 0.625000 0.250000
vt 0.875000 0.250000
vt 0.875000 0.144043
vt 0.125000 0.250000
vt 0.375000 0.250000
vt 0.375000 0.144043
vt 0.125000 0.144043
vt 0.125000 0.250000
vt 0.375000 0.144043
vt 0.125000 0.144043
vt 0.375000 0.144043
vt 0.375000 0.000000
vt 0.125000 0.000000
vt 0.125000 0.144043
vt 0.375000 0.000000
vt 0.375000 0.000000
vt 0.375000 0.144043
vt 0.493408 0.000000
vt 0.375000 0.144043
vt 0.493408 0.144043
vt 0.493408 0.000000
vt 0.375000 0.144043
vt 0.375000 0.250000
vt 0.493408 0.144043
vt 0.375000 0.250000
vt 0.493408 0.250000
vt 0.493408 0.144043
vt 0.493408 0.250000
vt 0.625000 0.250000
vt 0.493408 0.144043
vt 0.625000 0.250000
vt 0.625000 0.144043
vt 0.493408 0.144043
vt 0.375000 0.250000
vt 0.375000 0.500000
vt 0.493408 0.250000
vt 0.375000 0.500000
vt 0.493408 0.500000
vt 0.493408 0.250000
vt 0.493408 0.500000
vt 0.625000 0.500000
vt 0.493408 0.250000
vt 0.625000 0.500000
vt 0.625000 0.250000
vt 0.493408 0.250000
vt 0.375000 0.606445
vt 0.375000 0.750000
vt 0.493408 0.750000
vt 0.493408 0.606445
vt 0.375000 0.606445
vt 0.493408 0.750000
vt 0.375000 0.500000
vt 0.375000 0.606445
vt 0.493408 0.606445
vt 0.493408 0.500000
vt 0.375000 0.500000
vt 0.493408 0.606445
vt 0.493408 0.500000
vt 0.493408 0.606445
vt 0.625000 0.500000
vt 0.493408 0.606445
vt 0.625000 0.606445
vt 0.625000 0.500000
vt 0.493408 0.144043
vt 0.493408 0.606445
vt 0.493408 0.000000
vt 0.493408 0.606445
vt 0.493408 0.750000
vt 0.493408 0.000000
vt 0.656250 0.156250
vt 0.500000 0.150391
vt 0.610352 0.267090
vt 0.610352 0.045898
vt 0.500000 0.150391
vt 0.656250 0.156250
vt 0.500000 0.000000
vt 0.500000 0.150391
vt 0.610352 0.045898
vt 0.389404 0.045898
vt 0.500000 0.150391
vt 0.500000 0.000000
vt 0.343750 0.156250
vt 0.500000 0.150391
vt 0.389404 0.045898
vt 0.389404 0.267090
vt 0.500000 0.150391
vt 0.343750 0.156250
vt 0.500000 0.312500
vt 0.500000 0.150391
vt 0.389404 0.267090
vt 0.610352 0.267090
vt 0.500000 0.150391
vt 0.500000 0.312500
vt 0.610352 0.954254
vt 0.500000 0.837524
vt 0.500000 1.000000
vt 0.656250 0.843750
vt 0.500000 0.837524
vt 0.610352 0.954254
vt 0.610352 0.733398
vt 0.500000 0.837524
vt 0.656250 0.843750
vt 0.500000 0.687500
vt 0.500000 0.837524
vt 0.610352 0.733398
vt 0.389404 0.733398
vt 0.500000 0.837524
vt 0.500000 0.687500
vt 0.343750 0.843750
vt 0.500000 0.837524
vt 0.389404 0.733398
vt 0.389404 0.954254
vt 0.500000 0.837524
vt 0.343750 0.843750
vt 0.500000 1.000000
vt 0.500000 0.837524
vt 0.389404 0.954254
vn 0.129159 0.823875 0.549902
vn 0.129159 0.823875 0.549902
vn 0.129159 0.823875 0.549902
vn 0.129159 0.823875 0.549902
vn 0.129159 0.823875 0.549902
vn 0.129159 0.823875 0.549902
vn 0.565558 0.823875 0.025440
vn 0.565558 0.823875 0.025440
vn 0.565558 0.823875 0.025440
vn 0.565558 0.823875 0.025440
vn 0.565558 0.823875 0.025440
vn 0.565558 0.823875 0.025440
vn 0.872798 0.342466 -0.346380
vn 0.872798 0.342466 -0.346380
vn 0.872798 0.342466 -0.346380
vn 0.872798 0.342466 -0.346380
vn 0.872798 0.342466 -0.346380
vn 0.872798 0.342466 -0.346380
vn 0.872798 -0.342466 -0.346380
vn 0.872798 -0.342466 -0.346380
vn 0.872798 -0.342466 -0.346380
vn 0.872798 -0.342466 -0.346380
vn 0.872798 -0.342466 -0.346380
vn 0.872798 -0.342466 -0.346380
vn 0.565558 -0.823875 0.025440
vn 0.565558 -0.823875 0.025440
vn 0.565558 -0.823875 0.025440
vn 0.565558 -0.823875 0.025440
vn 0.565558 -0.823875 0.025440
vn 0.565558 -0.823875 0.025440
vn 0.129159 -0.823875 0.549902
vn 0.129159 -0.823875 0.549902
vn 0.129159 -0.823875 0.549902
vn 0.129159 -0.823875 0.549902
vn 0.129159 -0.823875 0.549902
vn 0.129159 -0.823875 0.549902
vn -0.180039 -0.342466 0.921722
vn -0.180039 -0.342466 0.921722
vn -0.180039 -0.342466 0.921722
vn -0.180039 -0.342466 0.921722
vn -0.180039 -0.342466 0.921722
vn -0.180039 -0.342466 0.921722
vn -0.180039 0.342466 0.921722
vn -0.180039 0.342466 0.921722
vn -0.180039 0.342466 0.921722
vn -0.180039 0.342466 0.921722
vn -0.180039 0.342466 0.921722
vn -0.180039 0.342466 0.921722
vn 0.326810 0.000000 -0.945205
vn 0.326810 0.000000 -0.945205
vn 0.326810 0.000000 -0.945205
vn 0.326810 0.000000 -0.945205
vn 0.326810 0.000000 -0.945205
vn 0.326810 0.000000 -0.945205
vn 1.000000 0.000000 0.000000
vn 1.000000 0.000000 0.000000
vn 1.000000 0.000000 0.000000
vn 1.000000 0.000000 0.000000
vn 1.000000 0.000000 0.000000
vn 1.000000 0.000000 0.000000
vn -1.000000 0.000000 0.000000
vn -1.000000 0.000000 0.000000
vn -1.000000 0.000000 0.000000
vn -1.000000 0.000000 0.000000
vn -1.000000 0.000000 0.000000
vn -1.000000 0.000000 0.000000
vn -1.000000 0.000000 0.000000
vn -1.000000 0.000000 0.000000
vn -1.000000 0.000000 0.000000
vn -1.000000 0.000000 0.000000
vn -1.000000 0.000000 0.000000
vn -1.000000 0.000000 0.000000
vn 0.000000 -1.000000 0.000000
vn 0.000000 -1.000000 0.000000
vn 0.000000 -1.000000 0.000000
vn 0.000000 -1.000000 0.000000
vn 0.000000 -1.000000 0.000000
vn 0.000000 -1.000000 0.000000
vn 0.000000 -1.000000 0.000000
vn 0.000000 -1.000000 0.000000
vn 0.000000 -1.000000 0.000000
vn 0.000000 -1.000000 0.000000
vn 0.000000 -1.000000 0.000000
vn 0.000000 -1.000000 0.000000
vn 0.000000 -1.000000 0.000000
vn 0.000000 -1.000000 0.000000
vn 0.000000 -1.000000 0.000000
vn 0.000000 -1.000000 0.000000
vn 0.000000 -1.000000 0.000000
vn 0.000000 -1.000000 0.000000
vn -0.318982 0.000000 0.947162
vn -0.318982 0.000000 0.947162
vn -0.015656 0.000000 1.000000
vn -0.318982 0.000000 0.947162
vn -0.015656 0.000000 1.000000
vn -0.015656 0.000000 1.000000
vn -0.015656 0.000000 1.000000
vn 0.289628 0.000000 0.956947
vn -0.015656 0.000000 1.000000
vn 0.289628 0.000000 0.956947
vn 0.289628 0.000000 0.956947
vn -0.015656 0.000000 1.000000
vn 0.000000 1.000000 0.000000
vn 0.000000 1.000000 0.000000
vn 0.000000 1.000000 0.000000
vn 0.000000 1.000000 0.000000
vn 0.000000 1.000000 0.000000
vn 0.000000 1.000000 0.000000
vn 0.000000 1.000000 0.000000
vn 0.000000 1.000000 0.000000
vn 0.000000 1.000000 0.000000
vn 0.000000 1.000000 0.000000
vn 0.000000 1.000000 0.000000
vn 0.000000 1.000000 0.000000
vn 0.000000 1.000000 0.000000
vn 0.000000 1.000000 0.000000
vn 0.000000 1.000000 0.000000
vn 0.000000 1.000000 0.000000
vn 0.000000 1.000000 0.000000
vn 0.000000 1.000000 0.000000
vn 1.000000 0.000000 0.000000
vn 1.000000 0.000000 0.000000
vn 1.000000 0.000000 0.000000
vn 1.000000 0.000000 0.000000
vn 1.000000 0.000000 0.000000
vn 1.000000 0.000000 0.000000
vn 0.769080 0.000000 0.637965
vn 0.769080 0.000000 0.637965
vn 0.769080 0.000000 0.637965
vn 0.769080 0.000000 0.637965
vn 0.769080 0.000000 0.637965
vn 0.769080 0.000000 0.637965
vn 0.769080 0.000000 0.637965
vn 0.769080 0.000000 0.637965
vn 0.769080 0.000000 0.637965
vn 0.769080 0.000000 0.637965
vn 0.769080 0.000000 0.637965
vn 0.769080 0.000000 0.637965
vn 0.769080 0.000000 0.637965
vn 0.769080 0.000000 0.637965
vn 0.769080 0.000000 0.637965
vn 0.769080 0.000000 0.637965
vn 0.769080 0.000000 0.637965
vn 0.769080 0.000000 0.637965
vn 0.769080 0.000000 0.637965
vn 0.769080 0.000000 0.637965
vn 0.769080 0.000000 0.637965
vn 0.769080 0.000000 0.637965
vn 0.769080 0.000000 0.637965
vn 0.769080 0.000000 0.637965
vn -0.769080 0.000000 -0.637965
vn -0.769080 0.000000 -0.637965
vn -0.769080 0.000000 -0.637965
vn -0.769080 0.000000 -0.637965
vn -0.769080 0.000000 -0.637965
vn -0.769080 0.000000 -0.637965
vn -0.769080 0.000000 -0.637965
vn -0.769080 0.000000 -0.637965
vn -0.769080 0.000000 -0.637965
vn -0.769080 0.000000 -0.637965
vn -0.769080 0.000000 -0.637965
vn -0.769080 0.000000 -0.637965
vn -0.769080 0.000000 -0.637965
vn -0.769080 0.000000 -0.637965
vn -0.769080 0.000000 -0.637965
vn -0.769080 0.000000 -0.637965
vn -0.769080 0.000000 -0.637965
vn -0.769080 0.000000 -0.637965
vn -0.769080 0.000000 -0.637965
vn -0.769080 0.000000 -0.637965
vn -0.769080 0.000000 -0.637965
vn -0.769080 0.000000 -0.637965
vn -0.769080 0.000000 -0.637965
vn -0.769080 0.000000 -0.637965
mtllib mtl_nt_2020_car_wash_dish.mtl
g mtl_nt_2020_car_wash_dish
usemtl mtl_nt_2020_car_wash_dish
f 3/3/3 2/2/2 1/1/1
f 6/6/6 5/5/5 4/4/4
f 9/9/9 8/8/8 7/7/7
f 12/12/12 11/11/11 10/10/10
f 15/15/15 14/14/14 13/13/13
f 18/18/18 17/17/17 16/16/16
f 21/21/21 20/20/20 19/19/19
f 24/24/24 23/23/23 22/22/22
f 27/27/27 26/26/26 25/25/25
f 30/30/30 29/29/29 28/28/28
f 33/33/33 32/32/32 31/31/31
f 36/36/36 35/35/35 34/34/34
f 39/39/39 38/38/38 37/37/37
f 42/42/42 41/41/41 40/40/40
f 45/45/45 44/44/44 43/43/43
f 48/48/48 47/47/47 46/46/46
f 51/51/51 50/50/50 49/49/49
f 54/54/54 53/53/53 52/52/52
f 57/57/57 56/56/56 55/55/55
f 60/60/60 59/59/59 58/58/58
f 63/63/63 62/62/62 61/61/61
f 66/66/66 65/65/65 64/64/64
f 69/69/69 68/68/68 67/67/67
f 72/72/72 71/71/71 70/70/70
f 75/75/75 74/74/74 73/73/73
f 78/78/78 77/77/77 76/76/76
f 81/81/81 80/80/80 79/79/79
f 84/84/84 83/83/83 82/82/82
f 87/87/87 86/86/86 85/85/85
f 90/90/90 89/89/89 88/88/88
f 93/93/93 92/92/92 91/91/91
f 96/96/96 95/95/95 94/94/94
f 99/99/99 98/98/98 97/97/97
f 102/102/102 101/101/101 100/100/100
f 105/105/105 104/104/104 103/103/103
f 108/108/108 107/107/107 106/106/106
f 111/111/111 110/110/110 109/109/109
f 114/114/114 113/113/113 112/112/112
f 117/117/117 116/116/116 115/115/115
f 120/120/120 119/119/119 118/118/118
f 123/123/123 122/122/122 121/121/121
f 126/126/126 125/125/125 124/124/124
f 129/129/129 128/128/128 127/127/127
f 132/132/132 131/131/131 130/130/130
f 135/135/135 134/134/134 133/133/133
f 138/138/138 137/137/137 136/136/136
f 141/141/141 140/140/140 139/139/139
f 144/144/144 143/143/143 142/142/142
f 147/147/147 146/146/146 145/145/145
f 150/150/150 149/149/149 148/148/148
f 153/153/153 152/152/152 151/151/151
f 156/156/156 155/155/155 154/154/154
f 159/159/159 158/158/158 157/157/157
f 162/162/162 161/161/161 160/160/160
f 165/165/165 164/164/164 163/163/163
f 168/168/168 167/167/167 166/166/166
f 171/171/171 170/170/170 169/169/169
f 174/174/174 173/173/173 172/172/172
