# Generated by Wraith - Game extraction tools
# Please credit DTZxPorter for using it!

v 17.697399 0.000000 1.297323
v 17.697399 1.346215 -2.775029
v 17.697399 -1.346215 -2.775029
v -0.013472 0.000000 1.297323
v -0.013472 -1.346215 -2.775029
v -0.013472 1.346215 -2.775029
v -0.013472 -1.346215 -2.775029
v 17.697399 -1.346215 -2.775029
v -0.013472 1.346215 -2.775029
v 17.697399 -1.346215 -2.775029
v 17.697399 1.346215 -2.775029
v -0.013472 1.346215 -2.775029
v -0.013472 0.000000 1.297323
v -0.013472 1.346215 -2.775029
v 17.697399 0.000000 1.297323
v -0.013472 1.346215 -2.775029
v 17.697399 1.346215 -2.775029
v 17.697399 0.000000 1.297323
v -0.013472 0.000000 1.297323
v 17.697399 0.000000 1.297323
v -0.013472 -1.346215 -2.775029
v 17.697399 0.000000 1.297323
v 17.697399 -1.346215 -2.775029
v -0.013472 -1.346215 -2.775029
vt 0.806152 0.455566
vt 0.880859 0.013184
vt 0.731445 0.013184
vt 0.816406 0.987015
vt 0.895996 0.476563
vt 0.736328 0.476563
vt 0.723633 0.020020
vt 0.012489 0.020020
vt 0.723633 0.173340
vt 0.012489 0.020020
vt 0.012489 0.173340
vt 0.723633 0.173340
vt 0.723633 0.586182
vt 0.723633 0.173340
vt 0.012489 0.586182
vt 0.723633 0.173340
vt 0.012489 0.173340
vt 0.012489 0.586182
vt 0.723633 0.586182
vt 0.012489 0.586182
vt 0.723633 0.991844
vt 0.012489 0.586182
vt 0.012489 0.991844
vt 0.723633 0.991844
vn 1.000000 0.000000 0.000000
vn 1.000000 0.000000 0.000000
vn 1.000000 0.000000 0.000000
vn -1.000000 0.000000 0.000000
vn -1.000000 0.000000 0.000000
vn -1.000000 0.000000 0.000000
vn 0.000000 0.000000 -1.000000
vn 0.000000 0.000000 -1.000000
vn 0.000000 0.000000 -1.000000
vn 0.000000 0.000000 -1.000000
vn 0.000000 0.000000 -1.000000
vn 0.000000 0.000000 -1.000000
vn 0.000000 1.000000 0.000000
vn 0.000000 1.000000 0.000000
vn 0.000000 1.000000 0.000000
vn 0.000000 1.000000 0.000000
vn 0.000000 1.000000 0.000000
vn 0.000000 1.000000 0.000000
vn 0.000000 -0.861057 0.508806
vn 0.000000 -0.861057 0.508806
vn 0.000000 -0.706458 -0.706458
vn 0.000000 -0.861057 0.508806
vn 0.000000 -0.706458 -0.706458
vn 0.000000 -0.706458 -0.706458
mtllib mtl_t6_attach_pistol_silencer.mtl
g mtl_t6_attach_pistol_silencer
usemtl mtl_t6_attach_pistol_silencer
f 3/3/3 2/2/2 1/1/1
f 6/6/6 5/5/5 4/4/4
f 9/9/9 8/8/8 7/7/7
f 12/12/12 11/11/11 10/10/10
f 15/15/15 14/14/14 13/13/13
f 18/18/18 17/17/17 16/16/16
f 21/21/21 20/20/20 19/19/19
f 24/24/24 23/23/23 22/22/22
