# Generated by Wraith - Game extraction tools
# Please credit DTZxPorter for using it!

v 0.000000 -0.733913 -1.182743
v 0.000000 -0.635587 -0.591370
v 0.518955 -0.518955 -1.182743
v 0.000000 -0.635587 -0.591370
v 0.449428 -0.449428 -0.591373
v 0.518955 -0.518955 -1.182743
v 0.518955 -0.518955 -1.182743
v 0.449428 -0.449428 -0.591373
v 0.733910 0.000000 -1.182743
v 0.449428 -0.449428 -0.591373
v 0.635587 0.000000 -0.591373
v 0.733910 0.000000 -1.182743
v 0.449428 -0.449428 -0.591373
v 0.259479 -0.259476 -0.158458
v 0.635587 0.000000 -0.591373
v 0.259479 -0.259476 -0.158458
v 0.366954 0.000000 -0.158458
v 0.635587 0.000000 -0.591373
v 0.000000 -0.635587 -0.591370
v 0.000000 -0.366956 -0.158458
v 0.449428 -0.449428 -0.591373
v 0.000000 -0.366956 -0.158458
v 0.259479 -0.259476 -0.158458
v 0.449428 -0.449428 -0.591373
v 0.000000 -0.366956 -0.158458
v 0.000000 0.000000 0.000000
v 0.259479 -0.259476 -0.158458
v 0.259479 -0.259476 -0.158458
v 0.000000 0.000000 0.000000
v 0.366954 0.000000 -0.158458
v 0.366954 0.000000 -0.158458
v 0.000000 0.000000 0.000000
v 0.259479 0.259476 -0.158458
v 0.366954 0.000000 -0.158458
v 0.259479 0.259476 -0.158458
v 0.449428 0.449428 -0.591370
v 0.635587 0.000000 -0.591373
v 0.366954 0.000000 -0.158458
v 0.449428 0.449428 -0.591370
v 0.635587 0.000000 -0.591373
v 0.449428 0.449428 -0.591370
v 0.518955 0.518955 -1.182743
v 0.733910 0.000000 -1.182743
v 0.635587 0.000000 -0.591373
v 0.518955 0.518955 -1.182743
v -0.259476 -0.259476 -0.158458
v 0.000000 0.000000 0.000000
v 0.000000 -0.366956 -0.158458
v -0.366956 0.000000 -0.158458
v 0.000000 0.000000 0.000000
v -0.259476 -0.259476 -0.158458
v -0.259476 0.259476 -0.158458
v 0.000000 0.000000 0.000000
v -0.366956 0.000000 -0.158458
v 0.000000 0.366954 -0.158458
v 0.000000 0.000000 0.000000
v -0.259476 0.259476 -0.158458
v 0.259479 0.259476 -0.158458
v 0.000000 0.000000 0.000000
v 0.000000 0.366954 -0.158458
v 0.259479 0.259476 -0.158458
v 0.000000 0.366954 -0.158458
v 0.000000 0.635587 -0.591370
v 0.449428 0.449428 -0.591370
v 0.259479 0.259476 -0.158458
v 0.000000 0.635587 -0.591370
v 0.449428 0.449428 -0.591370
v 0.000000 0.635587 -0.591370
v 0.000000 0.733910 -1.182743
v 0.518955 0.518955 -1.182743
v 0.449428 0.449428 -0.591370
v 0.000000 0.733910 -1.182743
v -0.259476 -0.259476 -0.158458
v 0.000000 -0.366956 -0.158458
v 0.000000 -0.635587 -0.591370
v -0.449428 -0.449428 -0.591373
v -0.259476 -0.259476 -0.158458
v 0.000000 -0.635587 -0.591370
v -0.366956 0.000000 -0.158458
v -0.259476 -0.259476 -0.158458
v -0.449428 -0.449428 -0.591373
v -0.635587 0.000000 -0.591373
v -0.366956 0.000000 -0.158458
v -0.449428 -0.449428 -0.591373
v -0.635587 0.000000 -0.591373
v -0.449428 -0.449428 -0.591373
v -0.518952 -0.518955 -1.182743
v -0.733910 0.000000 -1.182743
v -0.635587 0.000000 -0.591373
v -0.518952 -0.518955 -1.182743
v -0.449428 -0.449428 -0.591373
v 0.000000 -0.635587 -0.591370
v 0.000000 -0.733913 -1.182743
v -0.518952 -0.518955 -1.182743
v -0.449428 -0.449428 -0.591373
v 0.000000 -0.733913 -1.182743
v -0.259476 0.259476 -0.158458
v -0.366956 0.000000 -0.158458
v -0.635587 0.000000 -0.591373
v -0.449428 0.449428 -0.591373
v -0.259476 0.259476 -0.158458
v -0.635587 0.000000 -0.591373
v 0.000000 0.366954 -0.158458
v -0.259476 0.259476 -0.158458
v -0.449428 0.449428 -0.591373
v 0.000000 0.635587 -0.591370
v 0.000000 0.366954 -0.158458
v -0.449428 0.449428 -0.591373
v 0.000000 0.635587 -0.591370
v -0.449428 0.449428 -0.591373
v -0.518952 0.518955 -1.182743
v 0.000000 0.733910 -1.182743
v 0.000000 0.635587 -0.591370
v -0.518952 0.518955 -1.182743
v -0.449428 0.449428 -0.591373
v -0.635587 0.000000 -0.591373
v -0.733910 0.000000 -1.182743
v -0.518952 0.518955 -1.182743
v -0.449428 0.449428 -0.591373
v -0.733910 0.000000 -1.182743
vt 0.500977 0.016602
vt 0.500977 0.130371
vt 0.159058 0.158203
vt 0.500977 0.130371
vt 0.239502 0.238770
vt 0.159058 0.158203
vt 0.159058 0.158203
vt 0.239502 0.238770
vt 0.017288 0.500488
vt 0.239502 0.238770
vt 0.130981 0.500488
vt 0.017288 0.500488
vt 0.239502 0.238770
vt 0.330078 0.329590
vt 0.130981 0.500488
vt 0.330078 0.329590
vt 0.259277 0.500488
vt 0.130981 0.500488
vt 0.500977 0.130371
vt 0.500977 0.258789
vt 0.239502 0.238770
vt 0.500977 0.258789
vt 0.330078 0.329590
vt 0.239502 0.238770
vt 0.500977 0.258789
vt 0.500977 0.500488
vt 0.330078 0.329590
vt 0.330078 0.329590
vt 0.500977 0.500488
vt 0.259277 0.500488
vt 0.259277 0.500488
vt 0.500977 0.500488
vt 0.330078 0.671631
vt 0.259277 0.500488
vt 0.330078 0.671631
vt 0.239502 0.762329
vt 0.130981 0.500488
vt 0.259277 0.500488
vt 0.239502 0.762329
vt 0.130981 0.500488
vt 0.239502 0.762329
vt 0.159058 0.842773
vt 0.017288 0.500488
vt 0.130981 0.500488
vt 0.159058 0.842773
vt 0.672363 0.329590
vt 0.500977 0.500488
vt 0.500977 0.258789
vt 0.743164 0.500488
vt 0.500977 0.500488
vt 0.672363 0.329590
vt 0.672363 0.671631
vt 0.500977 0.500488
vt 0.743164 0.500488
vt 0.500977 0.742676
vt 0.500977 0.500488
vt 0.672363 0.671631
vt 0.330078 0.671631
vt 0.500977 0.500488
vt 0.500977 0.742676
vt 0.330078 0.671631
vt 0.500977 0.742676
vt 0.500977 0.870728
vt 0.239502 0.762329
vt 0.330078 0.671631
vt 0.500977 0.870728
vt 0.239502 0.762329
vt 0.500977 0.870728
vt 0.500977 0.984482
vt 0.159058 0.842773
vt 0.239502 0.762329
vt 0.500977 0.984482
vt 0.672363 0.329590
vt 0.500977 0.258789
vt 0.500977 0.130371
vt 0.763184 0.238770
vt 0.672363 0.329590
vt 0.500977 0.130371
vt 0.743164 0.500488
vt 0.672363 0.329590
vt 0.763184 0.238770
vt 0.871582 0.500488
vt 0.743164 0.500488
vt 0.763184 0.238770
vt 0.871582 0.500488
vt 0.763184 0.238770
vt 0.843262 0.158203
vt 0.985352 0.500488
vt 0.871582 0.500488
vt 0.843262 0.158203
vt 0.763184 0.238770
vt 0.500977 0.130371
vt 0.500977 0.016602
vt 0.843262 0.158203
vt 0.763184 0.238770
vt 0.500977 0.016602
vt 0.672363 0.671631
vt 0.743164 0.500488
vt 0.871582 0.500488
vt 0.763184 0.762329
vt 0.672363 0.671631
vt 0.871582 0.500488
vt 0.500977 0.742676
vt 0.672363 0.671631
vt 0.763184 0.762329
vt 0.500977 0.870728
vt 0.500977 0.742676
vt 0.763184 0.762329
vt 0.500977 0.870728
vt 0.763184 0.762329
vt 0.843262 0.842773
vt 0.500977 0.984482
vt 0.500977 0.870728
vt 0.843262 0.842773
vt 0.763184 0.762329
vt 0.871582 0.500488
vt 0.985352 0.500488
vt 0.843262 0.842773
vt 0.763184 0.762329
vt 0.985352 0.500488
vn 0.000000 -0.986301 0.164384
vn 0.000000 -0.935421 0.354207
vn 0.696673 -0.696673 0.164384
vn 0.000000 -0.935421 0.354207
vn 0.661448 -0.661448 0.354207
vn 0.696673 -0.696673 0.164384
vn 0.696673 -0.696673 0.164384
vn 0.661448 -0.661448 0.354207
vn 0.986301 0.000000 0.164384
vn 0.661448 -0.661448 0.354207
vn 0.935421 0.000000 0.354207
vn 0.986301 0.000000 0.164384
vn 0.661448 -0.661448 0.354207
vn 0.457926 -0.457926 0.761252
vn 0.935421 0.000000 0.354207
vn 0.457926 -0.457926 0.761252
vn 0.647749 0.000000 0.761252
vn 0.935421 0.000000 0.354207
vn 0.000000 -0.935421 0.354207
vn 0.000000 -0.647749 0.761252
vn 0.661448 -0.661448 0.354207
vn 0.000000 -0.647749 0.761252
vn 0.457926 -0.457926 0.761252
vn 0.661448 -0.661448 0.354207
vn 0.000000 -0.647749 0.761252
vn 0.000000 0.000000 1.000000
vn 0.457926 -0.457926 0.761252
vn 0.457926 -0.457926 0.761252
vn 0.000000 0.000000 1.000000
vn 0.647749 0.000000 0.761252
vn 0.647749 0.000000 0.761252
vn 0.000000 0.000000 1.000000
vn 0.457926 0.457926 0.761252
vn 0.647749 0.000000 0.761252
vn 0.457926 0.457926 0.761252
vn 0.661448 0.661448 0.354207
vn 0.935421 0.000000 0.354207
vn 0.647749 0.000000 0.761252
vn 0.661448 0.661448 0.354207
vn 0.935421 0.000000 0.354207
vn 0.661448 0.661448 0.354207
vn 0.696673 0.696673 0.164384
vn 0.986301 0.000000 0.164384
vn 0.935421 0.000000 0.354207
vn 0.696673 0.696673 0.164384
vn -0.457926 -0.457926 0.761252
vn 0.000000 0.000000 1.000000
vn 0.000000 -0.647749 0.761252
vn -0.647749 0.000000 0.761252
vn 0.000000 0.000000 1.000000
vn -0.457926 -0.457926 0.761252
vn -0.457926 0.457926 0.761252
vn 0.000000 0.000000 1.000000
vn -0.647749 0.000000 0.761252
vn 0.000000 0.647749 0.761252
vn 0.000000 0.000000 1.000000
vn -0.457926 0.457926 0.761252
vn 0.457926 0.457926 0.761252
vn 0.000000 0.000000 1.000000
vn 0.000000 0.647749 0.761252
vn 0.457926 0.457926 0.761252
vn 0.000000 0.647749 0.761252
vn 0.000000 0.935421 0.354207
vn 0.661448 0.661448 0.354207
vn 0.457926 0.457926 0.761252
vn 0.000000 0.935421 0.354207
vn 0.661448 0.661448 0.354207
vn 0.000000 0.935421 0.354207
vn 0.000000 0.986301 0.164384
vn 0.696673 0.696673 0.164384
vn 0.661448 0.661448 0.354207
vn 0.000000 0.986301 0.164384
vn -0.457926 -0.457926 0.761252
vn 0.000000 -0.647749 0.761252
vn 0.000000 -0.935421 0.354207
vn -0.661448 -0.661448 0.354207
vn -0.457926 -0.457926 0.761252
vn 0.000000 -0.935421 0.354207
vn -0.647749 0.000000 0.761252
vn -0.457926 -0.457926 0.761252
vn -0.661448 -0.661448 0.354207
vn -0.935421 0.000000 0.354207
vn -0.647749 0.000000 0.761252
vn -0.661448 -0.661448 0.354207
vn -0.935421 0.000000 0.354207
vn -0.661448 -0.661448 0.354207
vn -0.696673 -0.696673 0.164384
vn -0.986301 0.000000 0.164384
vn -0.935421 0.000000 0.354207
vn -0.696673 -0.696673 0.164384
vn -0.661448 -0.661448 0.354207
vn 0.000000 -0.935421 0.354207
vn 0.000000 -0.986301 0.164384
vn -0.696673 -0.696673 0.164384
vn -0.661448 -0.661448 0.354207
vn 0.000000 -0.986301 0.164384
vn -0.457926 0.457926 0.761252
vn -0.647749 0.000000 0.761252
vn -0.935421 0.000000 0.354207
vn -0.661448 0.661448 0.354207
vn -0.457926 0.457926 0.761252
vn -0.935421 0.000000 0.354207
vn 0.000000 0.647749 0.761252
vn -0.457926 0.457926 0.761252
vn -0.661448 0.661448 0.354207
vn 0.000000 0.935421 0.354207
vn 0.000000 0.647749 0.761252
vn -0.661448 0.661448 0.354207
vn 0.000000 0.935421 0.354207
vn -0.661448 0.661448 0.354207
vn -0.696673 0.696673 0.164384
vn 0.000000 0.986301 0.164384
vn 0.000000 0.935421 0.354207
vn -0.696673 0.696673 0.164384
vn -0.661448 0.661448 0.354207
vn -0.935421 0.000000 0.354207
vn -0.986301 0.000000 0.164384
vn -0.696673 0.696673 0.164384
vn -0.661448 0.661448 0.354207
vn -0.986301 0.000000 0.164384
mtllib mtl_t5_weapon_equip_light_red.mtl
g mtl_t5_weapon_equip_light_red
usemtl mtl_t5_weapon_equip_light_red
f 3/3/3 2/2/2 1/1/1
f 6/6/6 5/5/5 4/4/4
f 9/9/9 8/8/8 7/7/7
f 12/12/12 11/11/11 10/10/10
f 15/15/15 14/14/14 13/13/13
f 18/18/18 17/17/17 16/16/16
f 21/21/21 20/20/20 19/19/19
f 24/24/24 23/23/23 22/22/22
f 27/27/27 26/26/26 25/25/25
f 30/30/30 29/29/29 28/28/28
f 33/33/33 32/32/32 31/31/31
f 36/36/36 35/35/35 34/34/34
f 39/39/39 38/38/38 37/37/37
f 42/42/42 41/41/41 40/40/40
f 45/45/45 44/44/44 43/43/43
f 48/48/48 47/47/47 46/46/46
f 51/51/51 50/50/50 49/49/49
f 54/54/54 53/53/53 52/52/52
f 57/57/57 56/56/56 55/55/55
f 60/60/60 59/59/59 58/58/58
f 63/63/63 62/62/62 61/61/61
f 66/66/66 65/65/65 64/64/64
f 69/69/69 68/68/68 67/67/67
f 72/72/72 71/71/71 70/70/70
f 75/75/75 74/74/74 73/73/73
f 78/78/78 77/77/77 76/76/76
f 81/81/81 80/80/80 79/79/79
f 84/84/84 83/83/83 82/82/82
f 87/87/87 86/86/86 85/85/85
f 90/90/90 89/89/89 88/88/88
f 93/93/93 92/92/92 91/91/91
f 96/96/96 95/95/95 94/94/94
f 99/99/99 98/98/98 97/97/97
f 102/102/102 101/101/101 100/100/100
f 105/105/105 104/104/104 103/103/103
f 108/108/108 107/107/107 106/106/106
f 111/111/111 110/110/110 109/109/109
f 114/114/114 113/113/113 112/112/112
f 117/117/117 116/116/116 115/115/115
f 120/120/120 119/119/119 118/118/118
