# Generated by Wraith - Game extraction tools
# Please credit DTZxPorter for using it!

v -9.346562 -10.160000 0.000000
v -9.346509 -10.160000 208.279999
v 9.425318 -10.160000 0.000000
v -9.346509 -10.160000 208.279999
v 9.425267 -10.160000 208.279999
v 9.425318 -10.160000 0.000000
v 9.425318 10.160000 0.000000
v 9.425267 10.160000 208.279999
v -9.346562 10.160000 0.000000
v 9.425267 10.160000 208.279999
v -9.346509 10.160000 208.279999
v -9.346562 10.160000 0.000000
v 10.199377 -9.385940 0.000000
v 10.199377 -9.385886 208.279999
v 10.199377 9.385940 0.000000
v 10.199377 -9.385886 208.279999
v 10.199377 9.385886 208.279999
v 10.199377 9.385940 0.000000
v -10.120623 9.385940 0.000000
v -10.120623 9.385886 208.279999
v -10.120623 -9.385940 0.000000
v -10.120623 9.385886 208.279999
v -10.120623 -9.385886 208.279999
v -10.120623 -9.385940 0.000000
v -11.835110 -12.609170 213.320618
v 11.835110 -12.609170 213.320618
v -11.762224 -12.609170 208.240616
v 11.835110 -12.609170 213.320618
v 11.766582 -12.609170 208.240616
v -11.762224 -12.609170 208.240616
v 12.609170 -11.835110 213.320618
v 12.609170 11.835110 213.320618
v 12.609170 -11.764002 208.240616
v 12.609170 11.835110 213.320618
v 12.609170 11.764002 208.240616
v 12.609170 -11.764002 208.240616
v 11.835110 12.609170 213.320618
v -11.835110 12.609170 213.320618
v 11.766582 12.609170 208.240616
v -11.835110 12.609170 213.320618
v -11.762224 12.609170 208.240616
v 11.766582 12.609170 208.240616
v -12.609170 11.835110 213.320618
v -12.609170 -11.835110 213.320618
v -12.609170 11.764835 208.240616
v -12.609170 -11.835110 213.320618
v -12.609170 -11.764835 208.240616
v -12.609170 11.764835 208.240616
v -11.835110 12.609170 213.320618
v 11.835110 12.609170 213.320618
v -12.609170 11.835110 213.320618
v -12.609170 11.835110 213.320618
v 11.835110 12.609170 213.320618
v -12.609170 -11.835110 213.320618
v -12.609170 -11.835110 213.320618
v 11.835110 12.609170 213.320618
v -11.835110 -12.609170 213.320618
v 11.835110 12.609170 213.320618
v 12.609170 11.835110 213.320618
v -11.835110 -12.609170 213.320618
v -11.835110 -12.609170 213.320618
v 12.609170 11.835110 213.320618
v 12.609170 -11.835110 213.320618
v 11.835110 -12.609170 213.320618
v -11.835110 -12.609170 213.320618
v 12.609170 -11.835110 213.320618
v -10.120623 -9.385940 0.000000
v -10.120623 -9.385886 208.279999
v -9.346562 -10.160000 0.000000
v -10.120623 -9.385886 208.279999
v -9.346509 -10.160000 208.279999
v -9.346562 -10.160000 0.000000
v 9.425318 -10.160000 0.000000
v 9.425267 -10.160000 208.279999
v 10.199377 -9.385940 0.000000
v 9.425267 -10.160000 208.279999
v 10.199377 -9.385886 208.279999
v 10.199377 -9.385940 0.000000
v -9.346562 10.160000 0.000000
v -9.346509 10.160000 208.279999
v -10.120623 9.385940 0.000000
v -9.346509 10.160000 208.279999
v -10.120623 9.385886 208.279999
v -10.120623 9.385940 0.000000
v 10.199377 9.385886 208.279999
v 9.425267 10.160000 208.279999
v 10.199377 9.385940 0.000000
v 9.425267 10.160000 208.279999
v 9.425318 10.160000 0.000000
v 10.199377 9.385940 0.000000
v -12.609170 -11.764835 208.240616
v -12.609170 -11.835110 213.320618
v -11.762224 -12.609170 208.240616
v -12.609170 -11.835110 213.320618
v -11.835110 -12.609170 213.320618
v -11.762224 -12.609170 208.240616
v 11.766582 -12.609170 208.240616
v 11.835110 -12.609170 213.320618
v 12.609170 -11.764002 208.240616
v 11.835110 -12.609170 213.320618
v 12.609170 -11.835110 213.320618
v 12.609170 -11.764002 208.240616
v 12.609170 11.764002 208.240616
v 12.609170 11.835110 213.320618
v 11.766582 12.609170 208.240616
v 12.609170 11.835110 213.320618
v 11.835110 12.609170 213.320618
v 11.766582 12.609170 208.240616
v -11.762224 12.609170 208.240616
v -11.835110 12.609170 213.320618
v -12.609170 11.764835 208.240616
v -11.835110 12.609170 213.320618
v -12.609170 11.835110 213.320618
v -12.609170 11.764835 208.240616
v 10.199377 9.385886 208.279999
v 12.609170 11.764002 208.240616
v 9.425267 10.160000 208.279999
v 12.609170 11.764002 208.240616
v 10.199377 9.385886 208.279999
v 10.199377 -9.385886 208.279999
v 12.609170 -11.764002 208.240616
v 12.609170 11.764002 208.240616
v 10.199377 -9.385886 208.279999
v 10.199377 -9.385886 208.279999
v 9.425267 -10.160000 208.279999
v 12.609170 -11.764002 208.240616
v 9.425267 -10.160000 208.279999
v 11.766582 -12.609170 208.240616
v 12.609170 -11.764002 208.240616
v 11.766582 -12.609170 208.240616
v 9.425267 -10.160000 208.279999
v -9.346509 -10.160000 208.279999
v -11.762224 -12.609170 208.240616
v 11.766582 -12.609170 208.240616
v -9.346509 -10.160000 208.279999
v -9.346509 -10.160000 208.279999
v -10.120623 -9.385886 208.279999
v -11.762224 -12.609170 208.240616
v -10.120623 -9.385886 208.279999
v -12.609170 -11.764835 208.240616
v -11.762224 -12.609170 208.240616
v -12.609170 -11.764835 208.240616
v -10.120623 -9.385886 208.279999
v -10.120623 9.385886 208.279999
v -12.609170 11.764835 208.240616
v -12.609170 -11.764835 208.240616
v -10.120623 9.385886 208.279999
v -11.762224 12.609170 208.240616
v -12.609170 11.764835 208.240616
v -10.120623 9.385886 208.279999
v -9.346509 10.160000 208.279999
v -11.762224 12.609170 208.240616
v -10.120623 9.385886 208.279999
v 11.766582 12.609170 208.240616
v -11.762224 12.609170 208.240616
v -9.346509 10.160000 208.279999
v 9.425267 10.160000 208.279999
v 11.766582 12.609170 208.240616
v -9.346509 10.160000 208.279999
v 12.609170 11.764002 208.240616
v 11.766582 12.609170 208.240616
v 9.425267 10.160000 208.279999
vt 0.626465 0.997602
vt 0.626465 2.271484
vt 0.741211 0.997602
vt 0.626465 2.271484
vt 0.741211 2.271484
vt 0.741211 0.997602
vt 0.223877 0.997602
vt 0.223877 2.271484
vt 0.338623 0.997602
vt 0.223877 2.271484
vt 0.338623 2.271484
vt 0.338623 0.997602
vt 0.060547 0.997602
vt 0.060547 2.271484
vt 0.175293 0.997602
vt 0.060547 2.271484
vt 0.175293 2.271484
vt 0.175293 0.997602
vt 0.431152 0.997602
vt 0.431152 2.271484
vt 0.545898 0.997602
vt 0.431152 2.271484
vt 0.545898 2.271484
vt 0.545898 0.997602
vt 0.728027 1.766602
vt 0.728027 1.534180
vt 0.679199 1.766602
vt 0.728027 1.534180
vt 0.679199 1.534180
vt 0.679199 1.766602
vt 0.728027 1.534180
vt 0.728027 1.335205
vt 0.679199 1.534180
vt 0.728027 1.335205
vt 0.679199 1.335205
vt 0.679199 1.534180
vt 0.728027 1.335205
vt 0.728027 1.136108
vt 0.679199 1.335205
vt 0.728027 1.136108
vt 0.679199 1.136108
vt 0.679199 1.335205
vt 0.728027 1.924805
vt 0.728027 1.766602
vt 0.679199 1.924805
vt 0.728027 1.766602
vt 0.679199 1.766602
vt 0.679199 1.924805
vt 0.410645 1.565430
vt 0.410645 1.785645
vt 0.416260 1.558594
vt 0.416260 1.558594
vt 0.410645 1.785645
vt 0.588867 1.558594
vt 0.588867 1.558594
vt 0.410645 1.785645
vt 0.594727 1.565430
vt 0.410645 1.785645
vt 0.416260 1.792969
vt 0.594727 1.565430
vt 0.594727 1.565430
vt 0.416260 1.792969
vt 0.588867 1.792969
vt 0.594727 1.785645
vt 0.594727 1.565430
vt 0.588867 1.792969
vt 0.545898 0.997602
vt 0.545898 2.271484
vt 0.550781 0.997602
vt 0.545898 2.271484
vt 0.550781 2.271484
vt 0.550781 0.997602
vt 0.055786 0.997602
vt 0.055786 2.271484
vt 0.060547 0.997602
vt 0.055786 2.271484
vt 0.060547 2.271484
vt 0.060547 0.997602
vt 0.426514 0.997602
vt 0.426514 2.271484
vt 0.431152 0.997602
vt 0.426514 2.271484
vt 0.431152 2.271484
vt 0.431152 0.997602
vt 0.175293 2.271484
vt 0.180054 2.271484
vt 0.175293 0.997602
vt 0.180054 2.271484
vt 0.180054 0.997602
vt 0.175293 0.997602
vt 0.679199 1.766602
vt 0.728027 1.766602
vt 0.679199 1.766602
vt 0.728027 1.766602
vt 0.728027 1.766602
vt 0.679199 1.766602
vt 0.679199 1.534180
vt 0.728027 1.534180
vt 0.679199 1.534180
vt 0.728027 1.534180
vt 0.728027 1.534180
vt 0.679199 1.534180
vt 0.679199 1.335205
vt 0.728027 1.335205
vt 0.679199 1.335205
vt 0.728027 1.335205
vt 0.728027 1.335205
vt 0.679199 1.335205
vt 0.679199 1.136108
vt 0.728027 1.136108
vt 0.679199 1.136108
vt 0.728027 1.136108
vt 0.728027 1.136108
vt 0.679199 1.136108
vt 0.570801 1.504883
vt 0.587891 1.527344
vt 0.574707 1.501953
vt 0.587891 1.527344
vt 0.570801 1.504883
vt 0.432129 1.503906
vt 0.417725 1.521973
vt 0.587891 1.527344
vt 0.432129 1.503906
vt 0.432129 1.503906
vt 0.430664 1.499023
vt 0.417725 1.521973
vt 0.430664 1.499023
vt 0.412598 1.520508
vt 0.417725 1.521973
vt 0.412598 1.520508
vt 0.430664 1.499023
vt 0.430664 1.324707
vt 0.412598 1.302246
vt 0.412598 1.520508
vt 0.430664 1.324707
vt 0.430664 1.324707
vt 0.431885 1.319336
vt 0.412598 1.302246
vt 0.431885 1.319336
vt 0.417236 1.300293
vt 0.412598 1.302246
vt 0.417236 1.300293
vt 0.431885 1.319336
vt 0.571777 1.318115
vt 0.585938 1.298828
vt 0.417236 1.300293
vt 0.571777 1.318115
vt 0.590820 1.302002
vt 0.585938 1.298828
vt 0.571777 1.318115
vt 0.572754 1.324463
vt 0.590820 1.302002
vt 0.571777 1.318115
vt 0.588867 1.519531
vt 0.590820 1.302002
vt 0.572754 1.324463
vt 0.574707 1.501953
vt 0.588867 1.519531
vt 0.572754 1.324463
vt 0.587891 1.527344
vt 0.588867 1.519531
vt 0.574707 1.501953
vn 0.000000 -1.000000 0.000000
vn 0.000000 -1.000000 0.000000
vn 0.000000 -1.000000 0.000000
vn 0.000000 -1.000000 0.000000
vn 0.000000 -1.000000 0.000000
vn 0.000000 -1.000000 0.000000
vn 0.000000 1.000000 0.000000
vn 0.000000 1.000000 0.000000
vn 0.000000 1.000000 0.000000
vn 0.000000 1.000000 0.000000
vn 0.000000 1.000000 0.000000
vn 0.000000 1.000000 0.000000
vn 1.000000 0.000000 0.000000
vn 1.000000 0.000000 0.000000
vn 1.000000 0.000000 0.000000
vn 1.000000 0.000000 0.000000
vn 1.000000 0.000000 0.000000
vn 1.000000 0.000000 0.000000
vn -1.000000 0.000000 0.000000
vn -1.000000 0.000000 0.000000
vn -1.000000 0.000000 0.000000
vn -1.000000 0.000000 0.000000
vn -1.000000 0.000000 0.000000
vn -1.000000 0.000000 0.000000
vn 0.000000 -1.000000 0.000000
vn 0.000000 -1.000000 0.000000
vn 0.000000 -1.000000 0.000000
vn 0.000000 -1.000000 0.000000
vn 0.000000 -1.000000 0.000000
vn 0.000000 -1.000000 0.000000
vn 1.000000 0.000000 0.000000
vn 1.000000 0.000000 0.000000
vn 1.000000 0.000000 0.000000
vn 1.000000 0.000000 0.000000
vn 1.000000 0.000000 0.000000
vn 1.000000 0.000000 0.000000
vn 0.000000 1.000000 0.000000
vn 0.000000 1.000000 0.000000
vn 0.000000 1.000000 0.000000
vn 0.000000 1.000000 0.000000
vn 0.000000 1.000000 0.000000
vn 0.000000 1.000000 0.000000
vn -1.000000 0.000000 0.000000
vn -1.000000 0.000000 0.000000
vn -1.000000 0.000000 0.000000
vn -1.000000 0.000000 0.000000
vn -1.000000 0.000000 0.000000
vn -1.000000 0.000000 0.000000
vn 0.000000 0.000000 1.000000
vn 0.000000 0.000000 1.000000
vn 0.000000 0.000000 1.000000
vn 0.000000 0.000000 1.000000
vn 0.000000 0.000000 1.000000
vn 0.000000 0.000000 1.000000
vn 0.000000 0.000000 1.000000
vn 0.000000 0.000000 1.000000
vn 0.000000 0.000000 1.000000
vn 0.000000 0.000000 1.000000
vn 0.000000 0.000000 1.000000
vn 0.000000 0.000000 1.000000
vn 0.000000 0.000000 1.000000
vn 0.000000 0.000000 1.000000
vn 0.000000 0.000000 1.000000
vn 0.000000 0.000000 1.000000
vn 0.000000 0.000000 1.000000
vn 0.000000 0.000000 1.000000
vn -0.706458 -0.706458 0.000000
vn -0.706458 -0.706458 0.000000
vn -0.706458 -0.706458 0.000000
vn -0.706458 -0.706458 0.000000
vn -0.706458 -0.706458 0.000000
vn -0.706458 -0.706458 0.000000
vn 0.706458 -0.706458 0.000000
vn 0.706458 -0.706458 0.000000
vn 0.706458 -0.706458 0.000000
vn 0.706458 -0.706458 0.000000
vn 0.706458 -0.706458 0.000000
vn 0.706458 -0.706458 0.000000
vn -0.706458 0.706458 0.000000
vn -0.706458 0.706458 0.000000
vn -0.706458 0.706458 0.000000
vn -0.706458 0.706458 0.000000
vn -0.706458 0.706458 0.000000
vn -0.706458 0.706458 0.000000
vn 0.706458 0.706458 0.000000
vn 0.706458 0.706458 0.000000
vn 0.706458 0.706458 0.000000
vn 0.706458 0.706458 0.000000
vn 0.706458 0.706458 0.000000
vn 0.706458 0.706458 0.000000
vn -0.706458 -0.708415 -0.009785
vn -0.706458 -0.708415 -0.009785
vn -0.706458 -0.708415 -0.009785
vn -0.706458 -0.708415 -0.009785
vn -0.706458 -0.708415 -0.009785
vn -0.706458 -0.708415 -0.009785
vn 0.708415 -0.706458 -0.009785
vn 0.708415 -0.706458 -0.009785
vn 0.708415 -0.706458 -0.009785
vn 0.708415 -0.706458 -0.009785
vn 0.708415 -0.706458 -0.009785
vn 0.708415 -0.706458 -0.009785
vn 0.708415 0.706458 -0.009785
vn 0.708415 0.706458 -0.009785
vn 0.708415 0.706458 -0.009785
vn 0.708415 0.706458 -0.009785
vn 0.708415 0.706458 -0.009785
vn 0.708415 0.706458 -0.009785
vn -0.706458 0.708415 -0.009785
vn -0.706458 0.708415 -0.009785
vn -0.706458 0.708415 -0.009785
vn -0.706458 0.708415 -0.009785
vn -0.706458 0.708415 -0.009785
vn -0.706458 0.708415 -0.009785
vn -0.011742 -0.003914 -1.000000
vn -0.011742 -0.003914 -1.000000
vn -0.003914 -0.011742 -1.000000
vn -0.011742 -0.003914 -1.000000
vn -0.011742 -0.003914 -1.000000
vn -0.011742 0.003914 -1.000000
vn -0.011742 0.003914 -1.000000
vn -0.011742 -0.003914 -1.000000
vn -0.011742 0.003914 -1.000000
vn -0.011742 0.003914 -1.000000
vn -0.003914 0.011742 -1.000000
vn -0.011742 0.003914 -1.000000
vn -0.003914 0.011742 -1.000000
vn -0.003914 0.011742 -1.000000
vn -0.011742 0.003914 -1.000000
vn -0.003914 0.011742 -1.000000
vn -0.003914 0.011742 -1.000000
vn 0.003914 0.011742 -1.000000
vn 0.003914 0.011742 -1.000000
vn -0.003914 0.011742 -1.000000
vn 0.003914 0.011742 -1.000000
vn 0.003914 0.011742 -1.000000
vn 0.011742 0.003914 -1.000000
vn 0.003914 0.011742 -1.000000
vn 0.011742 0.003914 -1.000000
vn 0.011742 0.003914 -1.000000
vn 0.003914 0.011742 -1.000000
vn 0.011742 0.003914 -1.000000
vn 0.011742 0.003914 -1.000000
vn 0.011742 -0.003914 -1.000000
vn 0.011742 -0.003914 -1.000000
vn 0.011742 0.003914 -1.000000
vn 0.011742 -0.003914 -1.000000
vn 0.003914 -0.011742 -1.000000
vn 0.011742 -0.003914 -1.000000
vn 0.011742 -0.003914 -1.000000
vn 0.003914 -0.011742 -1.000000
vn 0.003914 -0.011742 -1.000000
vn 0.011742 -0.003914 -1.000000
vn -0.003914 -0.011742 -1.000000
vn 0.003914 -0.011742 -1.000000
vn 0.003914 -0.011742 -1.000000
vn -0.003914 -0.011742 -1.000000
vn -0.003914 -0.011742 -1.000000
vn 0.003914 -0.011742 -1.000000
vn -0.011742 -0.003914 -1.000000
vn -0.003914 -0.011742 -1.000000
vn -0.003914 -0.011742 -1.000000
mtllib nt_wood_post.mtl
g nt_wood_post
usemtl nt_wood_post
f 3/3/3 2/2/2 1/1/1
f 6/6/6 5/5/5 4/4/4
f 9/9/9 8/8/8 7/7/7
f 12/12/12 11/11/11 10/10/10
f 15/15/15 14/14/14 13/13/13
f 18/18/18 17/17/17 16/16/16
f 21/21/21 20/20/20 19/19/19
f 24/24/24 23/23/23 22/22/22
f 27/27/27 26/26/26 25/25/25
f 30/30/30 29/29/29 28/28/28
f 33/33/33 32/32/32 31/31/31
f 36/36/36 35/35/35 34/34/34
f 39/39/39 38/38/38 37/37/37
f 42/42/42 41/41/41 40/40/40
f 45/45/45 44/44/44 43/43/43
f 48/48/48 47/47/47 46/46/46
f 51/51/51 50/50/50 49/49/49
f 54/54/54 53/53/53 52/52/52
f 57/57/57 56/56/56 55/55/55
f 60/60/60 59/59/59 58/58/58
f 63/63/63 62/62/62 61/61/61
f 66/66/66 65/65/65 64/64/64
f 69/69/69 68/68/68 67/67/67
f 72/72/72 71/71/71 70/70/70
f 75/75/75 74/74/74 73/73/73
f 78/78/78 77/77/77 76/76/76
f 81/81/81 80/80/80 79/79/79
f 84/84/84 83/83/83 82/82/82
f 87/87/87 86/86/86 85/85/85
f 90/90/90 89/89/89 88/88/88
f 93/93/93 92/92/92 91/91/91
f 96/96/96 95/95/95 94/94/94
f 99/99/99 98/98/98 97/97/97
f 102/102/102 101/101/101 100/100/100
f 105/105/105 104/104/104 103/103/103
f 108/108/108 107/107/107 106/106/106
f 111/111/111 110/110/110 109/109/109
f 114/114/114 113/113/113 112/112/112
f 117/117/117 116/116/116 115/115/115
f 120/120/120 119/119/119 118/118/118
f 123/123/123 122/122/122 121/121/121
f 126/126/126 125/125/125 124/124/124
f 129/129/129 128/128/128 127/127/127
f 132/132/132 131/131/131 130/130/130
f 135/135/135 134/134/134 133/133/133
f 138/138/138 137/137/137 136/136/136
f 141/141/141 140/140/140 139/139/139
f 144/144/144 143/143/143 142/142/142
f 147/147/147 146/146/146 145/145/145
f 150/150/150 149/149/149 148/148/148
f 153/153/153 152/152/152 151/151/151
f 156/156/156 155/155/155 154/154/154
f 159/159/159 158/158/158 157/157/157
f 162/162/162 161/161/161 160/160/160
