# Generated by Wraith - Game extraction tools
# Please credit DTZxPorter for using it!

v 0.000000 7.369851 3.529071
v 0.000000 5.846358 3.529071
v -3.056263 7.369851 1.764538
v -3.056263 7.369851 1.764538
v 0.000000 5.846358 3.529071
v -3.056263 5.846358 1.764538
v 0.000000 5.846358 3.529071
v 0.000000 7.369851 3.529071
v 3.056263 5.846358 1.764538
v 3.056263 5.846358 1.764538
v 0.000000 7.369851 3.529071
v 3.056263 7.369851 1.764538
v 3.056263 5.846358 1.764538
v 3.056263 7.369851 1.764538
v 3.056263 5.846358 -1.764530
v 3.056263 5.846358 -1.764530
v 3.056263 7.369851 1.764538
v 3.056263 7.369853 -1.764533
v -3.056263 7.369851 1.764538
v -3.056263 5.846358 1.764538
v -3.056263 7.369851 -1.764533
v -3.056263 7.369851 -1.764533
v -3.056263 5.846358 1.764538
v -3.056263 5.846358 -1.764533
v 0.000000 5.846358 -3.529068
v 0.000000 7.369851 -3.529068
v -3.056263 5.846358 -1.764533
v -3.056263 5.846358 -1.764533
v 0.000000 7.369851 -3.529068
v -3.056263 7.369851 -1.764533
v 3.056263 5.846358 -1.764530
v 3.056263 7.369853 -1.764533
v 0.000000 5.846358 -3.529068
v 0.000000 5.846358 -3.529068
v 3.056263 7.369853 -1.764533
v 0.000000 7.369851 -3.529068
v 3.056263 5.846358 -1.764530
v 2.215761 5.043155 -1.279268
v 3.056263 5.846358 1.764538
v 2.215761 5.043155 -1.279268
v 2.215421 5.043155 1.279860
v 3.056263 5.846358 1.764538
v 3.056263 5.846358 1.764538
v 2.215421 5.043155 1.279860
v 0.000000 5.846358 3.529071
v 2.215421 5.043155 1.279860
v 0.000678 5.043155 2.558542
v 0.000000 5.846358 3.529071
v 0.000000 5.846358 3.529071
v 0.000678 5.043155 2.558542
v -3.056263 5.846358 1.764538
v 0.000678 5.043155 2.558542
v -2.215761 5.043155 1.279271
v -3.056263 5.846358 1.764538
v -3.056263 5.846358 1.764538
v -2.215761 5.043155 1.279271
v -3.056263 5.846358 -1.764533
v -2.215761 5.043155 1.279271
v -2.215421 5.043155 -1.279855
v -3.056263 5.846358 -1.764533
v -0.000678 5.043155 -2.558539
v 2.215761 5.043155 -1.279268
v 3.056263 5.846358 -1.764530
v 0.000000 5.846358 -3.529068
v -0.000678 5.043155 -2.558539
v 3.056263 5.846358 -1.764530
v -2.215421 5.043155 -1.279855
v -0.000678 5.043155 -2.558539
v 0.000000 5.846358 -3.529068
v -3.056263 5.846358 -1.764533
v -2.215421 5.043155 -1.279855
v 0.000000 5.846358 -3.529068
v 2.360358 8.008051 0.633466
v 1.727444 8.008051 -1.728358
v 3.056263 7.369853 -1.764533
v 3.056263 7.369851 1.764538
v 2.360358 8.008051 0.633466
v 3.056263 7.369853 -1.764533
v 0.632836 8.008051 2.360528
v 2.360358 8.008051 0.633466
v 3.056263 7.369851 1.764538
v 0.000000 7.369851 3.529071
v 0.632836 8.008051 2.360528
v 3.056263 7.369851 1.764538
v -1.727444 8.008051 1.728364
v 0.632836 8.008051 2.360528
v 0.000000 7.369851 3.529071
v -3.056263 7.369851 1.764538
v -1.727444 8.008051 1.728364
v 0.000000 7.369851 3.529071
v -2.360358 8.008051 -0.633461
v -1.727444 8.008051 1.728364
v -3.056263 7.369851 1.764538
v -3.056263 7.369851 -1.764533
v -2.360358 8.008051 -0.633461
v -3.056263 7.369851 1.764538
v 3.056263 7.369853 -1.764533
v 1.727444 8.008051 -1.728358
v 0.000000 7.369851 -3.529068
v 1.727444 8.008051 -1.728358
v -0.632836 8.008051 -2.360524
v 0.000000 7.369851 -3.529068
v 0.000000 7.369851 -3.529068
v -0.632836 8.008051 -2.360524
v -3.056263 7.369851 -1.764533
v -0.632836 8.008051 -2.360524
v -2.360358 8.008051 -0.633461
v -3.056263 7.369851 -1.764533
v 0.000000 -7.369853 3.529071
v -3.056263 -7.369853 1.764538
v 0.000000 -5.846361 3.529071
v 0.000000 -5.846361 3.529071
v -3.056263 -7.369853 1.764538
v -3.056263 -5.846361 1.764538
v 3.056263 -5.846361 1.764538
v 3.056263 -7.369853 1.764538
v 0.000000 -5.846361 3.529071
v 0.000000 -5.846361 3.529071
v 3.056263 -7.369853 1.764538
v 0.000000 -7.369853 3.529071
v 3.056263 -5.846359 -1.764530
v 3.056263 -7.369856 -1.764533
v 3.056263 -5.846361 1.764538
v 3.056263 -5.846361 1.764538
v 3.056263 -7.369856 -1.764533
v 3.056263 -7.369853 1.764538
v 2.215421 -5.043157 1.279860
v 2.215761 -5.043157 -1.279268
v 3.056263 -5.846359 -1.764530
v 3.056263 -5.846361 1.764538
v 2.215421 -5.043157 1.279860
v 3.056263 -5.846359 -1.764530
v 0.000678 -5.043157 2.558542
v 2.215421 -5.043157 1.279860
v 3.056263 -5.846361 1.764538
v 0.000000 -5.846361 3.529071
v 0.000678 -5.043157 2.558542
v 3.056263 -5.846361 1.764538
v -2.215761 -5.043157 1.279271
v 0.000678 -5.043157 2.558542
v 0.000000 -5.846361 3.529071
v -3.056263 -5.846361 1.764538
v -2.215761 -5.043157 1.279271
v 0.000000 -5.846361 3.529071
v -2.215421 -5.043157 -1.279855
v -2.215761 -5.043157 1.279271
v -3.056263 -5.846361 1.764538
v -3.056263 -5.846359 -1.764533
v -2.215421 -5.043157 -1.279855
v -3.056263 -5.846361 1.764538
v 3.056263 -5.846359 -1.764530
v 2.215761 -5.043157 -1.279268
v 0.000000 -5.846361 -3.529068
v 2.215761 -5.043157 -1.279268
v -0.000678 -5.043157 -2.558539
v 0.000000 -5.846361 -3.529068
v 0.000000 -5.846361 -3.529068
v -0.000678 -5.043157 -2.558539
v -3.056263 -5.846359 -1.764533
v -0.000678 -5.043157 -2.558539
v -2.215421 -5.043157 -1.279855
v -3.056263 -5.846359 -1.764533
v -3.056263 -7.369853 1.764538
v -3.056263 -7.369851 -1.764530
v -3.056263 -5.846361 1.764538
v -3.056263 -5.846361 1.764538
v -3.056263 -7.369851 -1.764530
v -3.056263 -5.846359 -1.764533
v -3.056263 -5.846359 -1.764533
v -3.056263 -7.369851 -1.764530
v 0.000000 -5.846361 -3.529068
v 0.000000 -5.846361 -3.529068
v -3.056263 -7.369851 -1.764530
v 0.000000 -7.369851 -3.529068
v 0.000000 -5.846361 -3.529068
v 0.000000 -7.369851 -3.529068
v 3.056263 -5.846359 -1.764530
v 3.056263 -5.846359 -1.764530
v 0.000000 -7.369851 -3.529068
v 3.056263 -7.369856 -1.764533
v 3.056263 -7.369856 -1.764533
v 2.360526 -8.008054 -0.631827
v 3.056263 -7.369853 1.764538
v 2.360526 -8.008054 -0.631827
v 1.727858 -8.008054 1.728317
v 3.056263 -7.369853 1.764538
v 3.056263 -7.369853 1.764538
v 1.727858 -8.008054 1.728317
v 0.000000 -7.369853 3.529071
v 1.727858 -8.008054 1.728317
v -0.631584 -8.008054 2.360864
v 0.000000 -7.369853 3.529071
v 0.000000 -7.369853 3.529071
v -0.631584 -8.008054 2.360864
v -3.056263 -7.369853 1.764538
v -0.631584 -8.008054 2.360864
v -2.360526 -8.008054 0.631833
v -3.056263 -7.369853 1.764538
v -3.056263 -7.369853 1.764538
v -2.360526 -8.008054 0.631833
v -3.056263 -7.369851 -1.764530
v -2.360526 -8.008054 0.631833
v -1.727858 -8.008051 -1.728313
v -3.056263 -7.369851 -1.764530
v 0.631584 -8.008054 -2.360859
v 2.360526 -8.008054 -0.631827
v 3.056263 -7.369856 -1.764533
v 0.000000 -7.369851 -3.529068
v 0.631584 -8.008054 -2.360859
v 3.056263 -7.369856 -1.764533
v -1.727858 -8.008051 -1.728313
v 0.631584 -8.008054 -2.360859
v 0.000000 -7.369851 -3.529068
v -3.056263 -7.369851 -1.764530
v -1.727858 -8.008051 -1.728313
v 0.000000 -7.369851 -3.529068
v -0.000678 -5.043157 -2.558539
v -0.000678 5.043155 -2.558539
v -2.215421 -5.043157 -1.279855
v -2.215421 -5.043157 -1.279855
v -0.000678 5.043155 -2.558539
v -2.215421 5.043155 -1.279855
v -2.215421 -5.043157 -1.279855
v -2.215421 5.043155 -1.279855
v -2.215761 -5.043157 1.279271
v -2.215761 -5.043157 1.279271
v -2.215421 5.043155 -1.279855
v -2.215761 5.043155 1.279271
v -2.215761 -5.043157 1.279271
v -2.215761 5.043155 1.279271
v 0.000678 -5.043157 2.558542
v 0.000678 -5.043157 2.558542
v -2.215761 5.043155 1.279271
v 0.000678 5.043155 2.558542
v 0.000678 -5.043157 2.558542
v 0.000678 5.043155 2.558542
v 2.215421 -5.043157 1.279860
v 2.215421 -5.043157 1.279860
v 0.000678 5.043155 2.558542
v 2.215421 5.043155 1.279860
v 2.215421 -5.043157 1.279860
v 2.215421 5.043155 1.279860
v 2.215761 -5.043157 -1.279268
v 2.215761 -5.043157 -1.279268
v 2.215421 5.043155 1.279860
v 2.215761 5.043155 -1.279268
v 2.215761 -5.043157 -1.279268
v 2.215761 5.043155 -1.279268
v -0.000678 -5.043157 -2.558539
v -0.000678 -5.043157 -2.558539
v 2.215761 5.043155 -1.279268
v -0.000678 5.043155 -2.558539
vt 0.454834 0.663330
vt 0.454834 0.618408
vt 0.345459 0.663330
vt 0.345459 0.663330
vt 0.454834 0.618408
vt 0.345459 0.618408
vt 0.454834 0.618408
vt 0.454834 0.663330
vt 0.563965 0.618408
vt 0.563965 0.618408
vt 0.454834 0.663330
vt 0.563965 0.663330
vt 0.563965 0.618408
vt 0.563965 0.663330
vt 0.673340 0.618408
vt 0.673340 0.618408
vt 0.563965 0.663330
vt 0.673340 0.663330
vt 0.345459 0.663330
vt 0.345459 0.618408
vt 0.236328 0.663330
vt 0.236328 0.663330
vt 0.345459 0.618408
vt 0.236328 0.618408
vt 0.011246 0.612793
vt 0.011246 0.700928
vt 0.225708 0.612793
vt 0.225708 0.612793
vt 0.011246 0.700928
vt 0.225708 0.700928
vt 0.013992 0.481445
vt 0.013985 0.568359
vt 0.223633 0.481445
vt 0.223633 0.481445
vt 0.013985 0.568359
vt 0.223633 0.568359
vt 0.673340 0.618408
vt 0.673340 0.594727
vt 0.563965 0.618408
vt 0.673340 0.594727
vt 0.563965 0.594727
vt 0.563965 0.618408
vt 0.563965 0.618408
vt 0.563965 0.594727
vt 0.454834 0.618408
vt 0.563965 0.594727
vt 0.454834 0.594727
vt 0.454834 0.618408
vt 0.454834 0.618408
vt 0.454834 0.594727
vt 0.345459 0.618408
vt 0.454834 0.594727
vt 0.345459 0.594727
vt 0.345459 0.618408
vt 0.345459 0.618408
vt 0.345459 0.594727
vt 0.236328 0.618408
vt 0.345459 0.594727
vt 0.236328 0.594727
vt 0.236328 0.618408
vt 0.345703 0.594727
vt 0.455078 0.594727
vt 0.455078 0.618408
vt 0.345703 0.618408
vt 0.345703 0.594727
vt 0.455078 0.618408
vt 0.236328 0.594727
vt 0.345703 0.594727
vt 0.345703 0.618408
vt 0.236328 0.618408
vt 0.236328 0.594727
vt 0.345703 0.618408
vt 0.591309 0.682129
vt 0.673340 0.682129
vt 0.673340 0.663330
vt 0.563965 0.663330
vt 0.591309 0.682129
vt 0.673340 0.663330
vt 0.482178 0.682129
vt 0.591309 0.682129
vt 0.563965 0.663330
vt 0.454834 0.663330
vt 0.482178 0.682129
vt 0.563965 0.663330
vt 0.372803 0.682129
vt 0.482178 0.682129
vt 0.454834 0.663330
vt 0.345459 0.663330
vt 0.372803 0.682129
vt 0.454834 0.663330
vt 0.263428 0.682129
vt 0.372803 0.682129
vt 0.345459 0.663330
vt 0.236328 0.663330
vt 0.263428 0.682129
vt 0.345459 0.663330
vt 0.455078 0.663330
vt 0.427734 0.682129
vt 0.345703 0.663330
vt 0.427734 0.682129
vt 0.318359 0.682129
vt 0.345703 0.663330
vt 0.345703 0.663330
vt 0.318359 0.682129
vt 0.236328 0.663330
vt 0.318359 0.682129
vt 0.263428 0.682129
vt 0.236328 0.663330
vt 0.454834 0.526611
vt 0.345459 0.526611
vt 0.454834 0.571533
vt 0.454834 0.571533
vt 0.345459 0.526611
vt 0.345459 0.571533
vt 0.563965 0.571533
vt 0.563965 0.526611
vt 0.454834 0.571533
vt 0.454834 0.571533
vt 0.563965 0.526611
vt 0.454834 0.526611
vt 0.673340 0.571533
vt 0.673340 0.526611
vt 0.563965 0.571533
vt 0.563965 0.571533
vt 0.673340 0.526611
vt 0.563965 0.526611
vt 0.563965 0.595215
vt 0.673340 0.595215
vt 0.673340 0.571533
vt 0.563965 0.571533
vt 0.563965 0.595215
vt 0.673340 0.571533
vt 0.454834 0.595215
vt 0.563965 0.595215
vt 0.563965 0.571533
vt 0.454834 0.571533
vt 0.454834 0.595215
vt 0.563965 0.571533
vt 0.345459 0.595215
vt 0.454834 0.595215
vt 0.454834 0.571533
vt 0.345459 0.571533
vt 0.345459 0.595215
vt 0.454834 0.571533
vt 0.236206 0.595215
vt 0.345459 0.595215
vt 0.345459 0.571533
vt 0.236328 0.571533
vt 0.236206 0.595215
vt 0.345459 0.571533
vt 0.455078 0.571533
vt 0.455078 0.595215
vt 0.345703 0.571533
vt 0.455078 0.595215
vt 0.345703 0.595215
vt 0.345703 0.571533
vt 0.345703 0.571533
vt 0.345703 0.595215
vt 0.236328 0.571533
vt 0.345703 0.595215
vt 0.236206 0.595215
vt 0.236328 0.571533
vt 0.345459 0.526611
vt 0.236328 0.526611
vt 0.345459 0.571533
vt 0.345459 0.571533
vt 0.236328 0.526611
vt 0.236328 0.571533
vt 0.346191 0.571533
vt 0.346191 0.526367
vt 0.236328 0.571533
vt 0.236328 0.571533
vt 0.346191 0.526367
vt 0.236328 0.526367
vt 0.225708 0.700928
vt 0.225708 0.612793
vt 0.011246 0.700928
vt 0.011246 0.700928
vt 0.225708 0.612793
vt 0.011246 0.612793
vt 0.673340 0.526611
vt 0.645996 0.507813
vt 0.563965 0.526611
vt 0.645996 0.507813
vt 0.536621 0.507813
vt 0.563965 0.526611
vt 0.563965 0.526611
vt 0.536621 0.507813
vt 0.454834 0.526611
vt 0.536621 0.507813
vt 0.427490 0.507813
vt 0.454834 0.526611
vt 0.454834 0.526611
vt 0.427490 0.507813
vt 0.345459 0.526611
vt 0.427490 0.507813
vt 0.318115 0.507813
vt 0.345459 0.526611
vt 0.345459 0.526611
vt 0.318115 0.507813
vt 0.236328 0.526611
vt 0.318115 0.507813
vt 0.263672 0.507813
vt 0.236328 0.526611
vt 0.373047 0.507813
vt 0.455078 0.507813
vt 0.455078 0.526611
vt 0.345703 0.526611
vt 0.373047 0.507813
vt 0.455078 0.526611
vt 0.263672 0.507813
vt 0.373047 0.507813
vt 0.345703 0.526611
vt 0.236328 0.526611
vt 0.263672 0.507813
vt 0.345703 0.526611
vt 0.019104 0.024414
vt 0.019058 0.460938
vt 0.135132 0.024902
vt 0.135132 0.024902
vt 0.019058 0.460938
vt 0.135132 0.460938
vt 0.135132 0.024902
vt 0.135132 0.460938
vt 0.251221 0.024902
vt 0.251221 0.024902
vt 0.135132 0.460938
vt 0.251465 0.460938
vt 0.251221 0.024902
vt 0.251465 0.460938
vt 0.367432 0.024414
vt 0.367432 0.024414
vt 0.251465 0.460938
vt 0.367676 0.460938
vt 0.367432 0.024414
vt 0.367676 0.460938
vt 0.483643 0.024414
vt 0.483643 0.024414
vt 0.367676 0.460938
vt 0.483643 0.460938
vt 0.483643 0.024414
vt 0.483643 0.460938
vt 0.599609 0.024414
vt 0.599609 0.024414
vt 0.483643 0.460938
vt 0.599609 0.460938
vt 0.599609 0.024414
vt 0.599609 0.460938
vt 0.715820 0.024414
vt 0.715820 0.024414
vt 0.599609 0.460938
vt 0.715820 0.460938
vn -0.500978 0.000000 0.866928
vn -0.500978 0.000000 0.866928
vn -0.500978 0.000000 0.866928
vn -0.500978 0.000000 0.866928
vn -0.500978 0.000000 0.866928
vn -0.500978 0.000000 0.866928
vn 0.500978 0.000000 0.866928
vn 0.500978 0.000000 0.866928
vn 0.500978 0.000000 0.866928
vn 0.500978 0.000000 0.866928
vn 0.500978 0.000000 0.866928
vn 0.500978 0.000000 0.866928
vn 1.000000 0.000000 0.000000
vn 1.000000 0.000000 0.000000
vn 1.000000 0.000000 0.000000
vn 1.000000 0.000000 0.000000
vn 1.000000 0.000000 0.000000
vn 1.000000 0.000000 0.000000
vn -1.000000 0.000000 0.000000
vn -1.000000 0.000000 0.000000
vn -1.000000 0.000000 0.000000
vn -1.000000 0.000000 0.000000
vn -1.000000 0.000000 0.000000
vn -1.000000 0.000000 0.000000
vn -0.500978 0.000000 -0.866928
vn -0.500978 0.000000 -0.866928
vn -0.500978 0.000000 -0.866928
vn -0.500978 0.000000 -0.866928
vn -0.500978 0.000000 -0.866928
vn -0.500978 0.000000 -0.866928
vn 0.500978 0.000000 -0.866928
vn 0.500978 0.000000 -0.866928
vn 0.500978 0.000000 -0.866928
vn 0.500978 0.000000 -0.866928
vn 0.500978 0.000000 -0.866928
vn 0.500978 0.000000 -0.866928
vn 0.551859 -0.771037 -0.318982
vn 0.776908 -0.442270 -0.448141
vn 0.551859 -0.771037 0.318982
vn 0.776908 -0.442270 -0.448141
vn 0.776908 -0.442270 0.448141
vn 0.551859 -0.771037 0.318982
vn 0.551859 -0.771037 0.318982
vn 0.776908 -0.442270 0.448141
vn 0.000000 -0.771037 0.637965
vn 0.776908 -0.442270 0.448141
vn 0.000000 -0.442270 0.896282
vn 0.000000 -0.771037 0.637965
vn 0.000000 -0.771037 0.637965
vn 0.000000 -0.442270 0.896282
vn -0.551859 -0.771037 0.318982
vn 0.000000 -0.442270 0.896282
vn -0.776908 -0.442270 0.448141
vn -0.551859 -0.771037 0.318982
vn -0.551859 -0.771037 0.318982
vn -0.776908 -0.442270 0.448141
vn -0.551859 -0.771037 -0.318982
vn -0.776908 -0.442270 0.448141
vn -0.776908 -0.442270 -0.448141
vn -0.551859 -0.771037 -0.318982
vn 0.000000 -0.442270 -0.896282
vn 0.776908 -0.442270 -0.448141
vn 0.551859 -0.771037 -0.318982
vn 0.000000 -0.771037 -0.637965
vn 0.000000 -0.442270 -0.896282
vn 0.551859 -0.771037 -0.318982
vn -0.776908 -0.442270 -0.448141
vn 0.000000 -0.442270 -0.896282
vn 0.000000 -0.771037 -0.637965
vn -0.551859 -0.771037 -0.318982
vn -0.776908 -0.442270 -0.448141
vn 0.000000 -0.771037 -0.637965
vn 0.459883 0.863014 0.203523
vn 0.407045 0.863014 -0.297456
vn 0.407045 0.863014 -0.297456
vn 0.459883 0.863014 0.203523
vn 0.459883 0.863014 0.203523
vn 0.407045 0.863014 -0.297456
vn 0.054795 0.863014 0.500978
vn 0.459883 0.863014 0.203523
vn 0.459883 0.863014 0.203523
vn 0.054795 0.863014 0.500978
vn 0.054795 0.863014 0.500978
vn 0.459883 0.863014 0.203523
vn -0.407045 0.863014 0.297456
vn 0.054795 0.863014 0.500978
vn 0.054795 0.863014 0.500978
vn -0.407045 0.863014 0.297456
vn -0.407045 0.863014 0.297456
vn 0.054795 0.863014 0.500978
vn -0.459883 0.863014 -0.203523
vn -0.407045 0.863014 0.297456
vn -0.407045 0.863014 0.297456
vn -0.459883 0.863014 -0.203523
vn -0.459883 0.863014 -0.203523
vn -0.407045 0.863014 0.297456
vn 0.407045 0.863014 -0.297456
vn 0.407045 0.863014 -0.297456
vn -0.054795 0.863014 -0.500978
vn 0.407045 0.863014 -0.297456
vn -0.054795 0.863014 -0.500978
vn -0.054795 0.863014 -0.500978
vn -0.054795 0.863014 -0.500978
vn -0.054795 0.863014 -0.500978
vn -0.459883 0.863014 -0.203523
vn -0.054795 0.863014 -0.500978
vn -0.459883 0.863014 -0.203523
vn -0.459883 0.863014 -0.203523
vn -0.499022 0.000000 0.866928
vn -0.499022 0.000000 0.866928
vn -0.499022 0.000000 0.866928
vn -0.499022 0.000000 0.866928
vn -0.499022 0.000000 0.866928
vn -0.499022 0.000000 0.866928
vn 0.499022 0.000000 0.866928
vn 0.499022 0.000000 0.866928
vn 0.499022 0.000000 0.866928
vn 0.499022 0.000000 0.866928
vn 0.499022 0.000000 0.866928
vn 0.499022 0.000000 0.866928
vn 1.000000 0.000000 0.000000
vn 1.000000 0.000000 0.000000
vn 1.000000 0.000000 0.000000
vn 1.000000 0.000000 0.000000
vn 1.000000 0.000000 0.000000
vn 1.000000 0.000000 0.000000
vn 0.776908 0.442270 0.448141
vn 0.776908 0.442270 -0.448141
vn 0.551859 0.771037 -0.318982
vn 0.551859 0.771037 0.318982
vn 0.776908 0.442270 0.448141
vn 0.551859 0.771037 -0.318982
vn 0.000000 0.442270 0.896282
vn 0.776908 0.442270 0.448141
vn 0.551859 0.771037 0.318982
vn 0.000000 0.771037 0.637965
vn 0.000000 0.442270 0.896282
vn 0.551859 0.771037 0.318982
vn -0.776908 0.442270 0.448141
vn 0.000000 0.442270 0.896282
vn 0.000000 0.771037 0.637965
vn -0.551859 0.771037 0.318982
vn -0.776908 0.442270 0.448141
vn 0.000000 0.771037 0.637965
vn -0.776908 0.442270 -0.448141
vn -0.776908 0.442270 0.448141
vn -0.551859 0.771037 0.318982
vn -0.551859 0.771037 -0.318982
vn -0.776908 0.442270 -0.448141
vn -0.551859 0.771037 0.318982
vn 0.551859 0.771037 -0.318982
vn 0.776908 0.442270 -0.448141
vn 0.000000 0.771037 -0.637965
vn 0.776908 0.442270 -0.448141
vn 0.000000 0.442270 -0.896282
vn 0.000000 0.771037 -0.637965
vn 0.000000 0.771037 -0.637965
vn 0.000000 0.442270 -0.896282
vn -0.551859 0.771037 -0.318982
vn 0.000000 0.442270 -0.896282
vn -0.776908 0.442270 -0.448141
vn -0.551859 0.771037 -0.318982
vn -1.000000 0.000000 0.000000
vn -1.000000 0.000000 0.000000
vn -1.000000 0.000000 0.000000
vn -1.000000 0.000000 0.000000
vn -1.000000 0.000000 0.000000
vn -1.000000 0.000000 0.000000
vn -0.500978 0.000000 -0.866928
vn -0.500978 0.000000 -0.866928
vn -0.500978 0.000000 -0.866928
vn -0.500978 0.000000 -0.866928
vn -0.500978 0.000000 -0.866928
vn -0.500978 0.000000 -0.866928
vn 0.500978 0.000000 -0.866928
vn 0.500978 0.000000 -0.866928
vn 0.500978 0.000000 -0.866928
vn 0.500978 0.000000 -0.866928
vn 0.500978 0.000000 -0.866928
vn 0.500978 0.000000 -0.866928
vn 0.459883 -0.863014 -0.203523
vn 0.459883 -0.863014 -0.203523
vn 0.407045 -0.863014 0.297456
vn 0.459883 -0.863014 -0.203523
vn 0.407045 -0.863014 0.297456
vn 0.407045 -0.863014 0.297456
vn 0.407045 -0.863014 0.297456
vn 0.407045 -0.863014 0.297456
vn -0.052838 -0.863014 0.500978
vn 0.407045 -0.863014 0.297456
vn -0.052838 -0.863014 0.500978
vn -0.052838 -0.863014 0.500978
vn -0.052838 -0.863014 0.500978
vn -0.052838 -0.863014 0.500978
vn -0.459883 -0.863014 0.203523
vn -0.052838 -0.863014 0.500978
vn -0.459883 -0.863014 0.203523
vn -0.459883 -0.863014 0.203523
vn -0.459883 -0.863014 0.203523
vn -0.459883 -0.863014 0.203523
vn -0.407045 -0.863014 -0.297456
vn -0.459883 -0.863014 0.203523
vn -0.407045 -0.863014 -0.297456
vn -0.407045 -0.863014 -0.297456
vn 0.052838 -0.863014 -0.500978
vn 0.459883 -0.863014 -0.203523
vn 0.459883 -0.863014 -0.203523
vn 0.052838 -0.863014 -0.500978
vn 0.052838 -0.863014 -0.500978
vn 0.459883 -0.863014 -0.203523
vn -0.407045 -0.863014 -0.297456
vn 0.052838 -0.863014 -0.500978
vn 0.052838 -0.863014 -0.500978
vn -0.407045 -0.863014 -0.297456
vn -0.407045 -0.863014 -0.297456
vn 0.052838 -0.863014 -0.500978
vn 0.000000 0.442270 -0.896282
vn 0.000000 -0.442270 -0.896282
vn -0.776908 0.442270 -0.448141
vn -0.776908 0.442270 -0.448141
vn 0.000000 -0.442270 -0.896282
vn -0.776908 -0.442270 -0.448141
vn -0.776908 0.442270 -0.448141
vn -0.776908 -0.442270 -0.448141
vn -0.776908 0.442270 0.448141
vn -0.776908 0.442270 0.448141
vn -0.776908 -0.442270 -0.448141
vn -0.776908 -0.442270 0.448141
vn -0.776908 0.442270 0.448141
vn -0.776908 -0.442270 0.448141
vn 0.000000 0.442270 0.896282
vn 0.000000 0.442270 0.896282
vn -0.776908 -0.442270 0.448141
vn 0.000000 -0.442270 0.896282
vn 0.000000 0.442270 0.896282
vn 0.000000 -0.442270 0.896282
vn 0.776908 0.442270 0.448141
vn 0.776908 0.442270 0.448141
vn 0.000000 -0.442270 0.896282
vn 0.776908 -0.442270 0.448141
vn 0.776908 0.442270 0.448141
vn 0.776908 -0.442270 0.448141
vn 0.776908 0.442270 -0.448141
vn 0.776908 0.442270 -0.448141
vn 0.776908 -0.442270 0.448141
vn 0.776908 -0.442270 -0.448141
vn 0.776908 0.442270 -0.448141
vn 0.776908 -0.442270 -0.448141
vn 0.000000 0.442270 -0.896282
vn 0.000000 0.442270 -0.896282
vn 0.776908 -0.442270 -0.448141
vn 0.000000 -0.442270 -0.896282
mtllib mtl_weapon_m84_burnt.mtl
g mtl_weapon_m84_burnt
usemtl mtl_weapon_m84_burnt
f 3/3/3 2/2/2 1/1/1
f 6/6/6 5/5/5 4/4/4
f 9/9/9 8/8/8 7/7/7
f 12/12/12 11/11/11 10/10/10
f 15/15/15 14/14/14 13/13/13
f 18/18/18 17/17/17 16/16/16
f 21/21/21 20/20/20 19/19/19
f 24/24/24 23/23/23 22/22/22
f 27/27/27 26/26/26 25/25/25
f 30/30/30 29/29/29 28/28/28
f 33/33/33 32/32/32 31/31/31
f 36/36/36 35/35/35 34/34/34
f 39/39/39 38/38/38 37/37/37
f 42/42/42 41/41/41 40/40/40
f 45/45/45 44/44/44 43/43/43
f 48/48/48 47/47/47 46/46/46
f 51/51/51 50/50/50 49/49/49
f 54/54/54 53/53/53 52/52/52
f 57/57/57 56/56/56 55/55/55
f 60/60/60 59/59/59 58/58/58
f 63/63/63 62/62/62 61/61/61
f 66/66/66 65/65/65 64/64/64
f 69/69/69 68/68/68 67/67/67
f 72/72/72 71/71/71 70/70/70
f 75/75/75 74/74/74 73/73/73
f 78/78/78 77/77/77 76/76/76
f 81/81/81 80/80/80 79/79/79
f 84/84/84 83/83/83 82/82/82
f 87/87/87 86/86/86 85/85/85
f 90/90/90 89/89/89 88/88/88
f 93/93/93 92/92/92 91/91/91
f 96/96/96 95/95/95 94/94/94
f 99/99/99 98/98/98 97/97/97
f 102/102/102 101/101/101 100/100/100
f 105/105/105 104/104/104 103/103/103
f 108/108/108 107/107/107 106/106/106
f 111/111/111 110/110/110 109/109/109
f 114/114/114 113/113/113 112/112/112
f 117/117/117 116/116/116 115/115/115
f 120/120/120 119/119/119 118/118/118
f 123/123/123 122/122/122 121/121/121
f 126/126/126 125/125/125 124/124/124
f 129/129/129 128/128/128 127/127/127
f 132/132/132 131/131/131 130/130/130
f 135/135/135 134/134/134 133/133/133
f 138/138/138 137/137/137 136/136/136
f 141/141/141 140/140/140 139/139/139
f 144/144/144 143/143/143 142/142/142
f 147/147/147 146/146/146 145/145/145
f 150/150/150 149/149/149 148/148/148
f 153/153/153 152/152/152 151/151/151
f 156/156/156 155/155/155 154/154/154
f 159/159/159 158/158/158 157/157/157
f 162/162/162 161/161/161 160/160/160
f 165/165/165 164/164/164 163/163/163
f 168/168/168 167/167/167 166/166/166
f 171/171/171 170/170/170 169/169/169
f 174/174/174 173/173/173 172/172/172
f 177/177/177 176/176/176 175/175/175
f 180/180/180 179/179/179 178/178/178
f 183/183/183 182/182/182 181/181/181
f 186/186/186 185/185/185 184/184/184
f 189/189/189 188/188/188 187/187/187
f 192/192/192 191/191/191 190/190/190
f 195/195/195 194/194/194 193/193/193
f 198/198/198 197/197/197 196/196/196
f 201/201/201 200/200/200 199/199/199
f 204/204/204 203/203/203 202/202/202
f 207/207/207 206/206/206 205/205/205
f 210/210/210 209/209/209 208/208/208
f 213/213/213 212/212/212 211/211/211
f 216/216/216 215/215/215 214/214/214
f 219/219/219 218/218/218 217/217/217
f 222/222/222 221/221/221 220/220/220
f 225/225/225 224/224/224 223/223/223
f 228/228/228 227/227/227 226/226/226
f 231/231/231 230/230/230 229/229/229
f 234/234/234 233/233/233 232/232/232
f 237/237/237 236/236/236 235/235/235
f 240/240/240 239/239/239 238/238/238
f 243/243/243 242/242/242 241/241/241
f 246/246/246 245/245/245 244/244/244
f 249/249/249 248/248/248 247/247/247
f 252/252/252 251/251/251 250/250/250
