# Generated by Wraith - Game extraction tools
# Please credit DTZxPorter for using it!

v 2.556944 0.025344 -13.834739
v -1.364202 0.817763 -14.777705
v -1.364202 -0.767077 -14.777705
v -2.279926 0.599166 4.361053
v 1.377312 0.025344 4.232826
v -2.279926 -0.548480 4.361053
v 1.377312 0.025344 4.232826
v -2.279926 0.599166 4.361053
v 2.556944 0.025344 -13.834739
v -2.279926 0.599166 4.361053
v -1.364202 0.817763 -14.777705
v 2.556944 0.025344 -13.834739
v 1.377312 0.025344 4.232826
v 2.556944 0.025344 -13.834739
v -2.279926 -0.548480 4.361053
v 2.556944 0.025344 -13.834739
v -1.364202 -0.767077 -14.777705
v -2.279926 -0.548480 4.361053
v -2.279926 0.599166 4.361053
v -2.279926 -0.548480 4.361053
v -1.364202 0.817763 -14.777705
v -2.279926 -0.548480 4.361053
v -1.364202 -0.767077 -14.777705
v -1.364202 0.817763 -14.777705
v -1.583607 1.496238 -15.600864
v -1.062246 1.496238 -14.438733
v -1.583607 -1.501384 -15.600864
v -1.062246 1.496238 -14.438733
v -1.062246 -1.508074 -14.438733
v -1.583607 -1.501384 -15.600864
v 3.231380 1.496238 -13.400996
v -1.062246 1.496238 -14.438733
v 3.467981 1.502928 -14.379929
v -1.062246 1.496238 -14.438733
v -1.583607 1.496238 -15.600864
v 3.467981 1.502928 -14.379929
v 3.231380 -1.508074 -13.400996
v 3.231380 1.496238 -13.400996
v 3.467981 -1.508074 -14.379929
v 3.231380 1.496238 -13.400996
v 3.467981 1.502928 -14.379929
v 3.467981 -1.508074 -14.379929
v 3.231380 -1.508074 -13.400996
v 3.467981 -1.508074 -14.379929
v -1.062246 -1.508074 -14.438733
v 3.467981 -1.508074 -14.379929
v -1.583607 -1.501384 -15.600864
v -1.062246 -1.508074 -14.438733
v -1.062246 -1.508074 -14.438733
v -1.062246 1.496238 -14.438733
v 3.231380 -1.508074 -13.400996
v -1.062246 1.496238 -14.438733
v 3.231380 1.496238 -13.400996
v 3.231380 -1.508074 -13.400996
v 3.467981 -1.508074 -14.379929
v 3.467981 1.502928 -14.379929
v -1.583607 -1.501384 -15.600864
v 3.467981 1.502928 -14.379929
v -1.583607 1.496238 -15.600864
v -1.583607 -1.501384 -15.600864
v -1.095289 -1.287569 -15.482841
v 3.080110 -1.228021 -14.473676
v -0.127352 -1.329967 -16.766233
v -0.127352 -1.329967 -16.766233
v 3.080110 -1.228021 -14.473676
v 1.547948 -1.329080 -16.981867
v 1.547948 -1.329080 -16.981867
v 3.080110 -1.228021 -14.473676
v 4.065202 -1.229959 -16.435316
v 3.080110 -1.228021 -14.473676
v 3.080110 1.246462 -14.473676
v 4.065202 -1.229959 -16.435316
v 3.080110 1.246462 -14.473676
v 4.065202 1.248402 -16.435316
v 4.065202 -1.229959 -16.435316
v 3.080110 1.246462 -14.473676
v 3.080110 -1.228021 -14.473676
v -1.095289 1.306012 -15.482841
v 3.080110 -1.228021 -14.473676
v -1.095289 -1.287569 -15.482841
v -1.095289 1.306012 -15.482841
v -1.095289 1.306012 -15.482841
v -0.127352 1.348410 -16.766233
v 3.080110 1.246462 -14.473676
v -0.127352 1.348410 -16.766233
v 1.547948 1.347521 -16.981867
v 3.080110 1.246462 -14.473676
v 3.080110 1.246462 -14.473676
v 1.547948 1.347521 -16.981867
v 4.065202 1.248402 -16.435316
v 1.547948 -1.329080 -16.981867
v 4.065202 -1.229959 -16.435316
v 4.065202 1.248402 -16.435316
v 1.547948 1.347521 -16.981867
v 1.547948 -1.329080 -16.981867
v 4.065202 1.248402 -16.435316
v -0.127352 -1.329967 -16.766233
v 1.547948 -1.329080 -16.981867
v 1.547948 1.347521 -16.981867
v -0.127352 1.348410 -16.766233
v -0.127352 -1.329967 -16.766233
v 1.547948 1.347521 -16.981867
v -1.095289 -1.287569 -15.482841
v -0.127352 -1.329967 -16.766233
v -0.127352 1.348410 -16.766233
v -1.095289 1.306012 -15.482841
v -1.095289 -1.287569 -15.482841
v -0.127352 1.348410 -16.766233
vt 0.202271 0.183105
vt 0.208130 0.158203
vt 0.196289 0.158203
vt 0.322510 0.308105
vt 0.309326 0.224609
vt 0.296387 0.308105
vt 0.830078 0.280762
vt 0.884277 0.286133
vt 0.812988 0.020020
vt 0.884277 0.286133
vt 0.870117 0.005859
vt 0.812988 0.020020
vt 0.830078 0.280762
vt 0.812988 0.020020
vt 0.884277 0.285645
vt 0.812988 0.020020
vt 0.870117 0.006348
vt 0.884277 0.285645
vt 0.774414 0.290039
vt 0.789063 0.290039
vt 0.769531 0.005859
vt 0.789063 0.290039
vt 0.794922 0.005859
vt 0.769531 0.005859
vt 0.341797 0.439941
vt 0.283936 0.437988
vt 0.341797 0.623535
vt 0.283936 0.437988
vt 0.283936 0.625244
vt 0.341797 0.623535
vt 0.673828 0.887512
vt 0.095703 0.889954
vt 0.677246 0.984688
vt 0.095703 0.889954
vt 0.005985 0.984947
vt 0.677246 0.984688
vt 0.983887 0.889465
vt 0.673828 0.887512
vt 1.006836 0.987373
vt 0.673828 0.887512
vt 0.677246 0.984688
vt 1.006836 0.987373
vt 1.666992 0.889893
vt 1.668945 0.985008
vt 1.099609 0.889954
vt 1.668945 0.985008
vt 1.009766 0.984947
vt 1.099609 0.889954
vt 0.283936 0.625244
vt 0.283936 0.437988
vt 0.027267 0.612793
vt 0.283936 0.437988
vt 0.027328 0.440430
vt 0.027267 0.612793
vt 0.046967 0.679932
vt 0.043457 0.839966
vt 0.366943 0.671875
vt 0.043457 0.839966
vt 0.367432 0.845215
vt 0.366943 0.671875
vt 2.001953 0.271484
vt 1.151367 0.416016
vt 1.821289 0.094727
vt 1.821289 0.094727
vt 1.151367 0.416016
vt 1.538086 0.002441
vt 1.538086 0.002441
vt 1.151367 0.416016
vt 1.152344 0.047852
vt 0.397705 0.152832
vt 0.396973 0.409668
vt 0.647949 0.179688
vt 0.396973 0.409668
vt 0.647949 0.384277
vt 0.647949 0.179688
vt 0.602051 0.702881
vt 0.601563 0.860962
vt 0.841797 0.696289
vt 0.601563 0.860962
vt 0.841309 0.869019
vt 0.841797 0.696289
vt 1.000000 0.271484
vt 0.789551 0.082520
vt 0.150391 0.415039
vt 0.789551 0.082520
vt 0.516602 0.004395
vt 0.150391 0.415039
vt 0.150391 0.415039
vt 0.516602 0.004395
vt 0.145020 0.031738
vt 0.636719 0.432129
vt 0.366943 0.434570
vt 0.366211 0.650391
vt 0.636230 0.655029
vt 0.636719 0.432129
vt 0.366211 0.650391
vt 0.817871 0.434570
vt 0.636719 0.432129
vt 0.636230 0.655029
vt 0.817383 0.654053
vt 0.817871 0.434570
vt 0.636230 0.655029
vt 0.957520 0.439941
vt 0.817871 0.434570
vt 0.817383 0.654053
vt 0.957520 0.649658
vt 0.957520 0.439941
vt 0.817383 0.654053
vn 0.232877 0.000000 -0.972603
vn -0.600783 0.000000 -0.800391
vn -0.600783 0.000000 -0.800391
vn 0.035225 0.000000 1.000000
vn 0.035225 0.000000 1.000000
vn 0.035225 0.000000 1.000000
vn 0.176125 0.984344 0.015656
vn 0.176125 0.984344 0.015656
vn 0.176125 0.984344 0.015656
vn 0.176125 0.984344 0.015656
vn 0.176125 0.984344 0.015656
vn 0.176125 0.984344 0.015656
vn 0.176125 -0.984344 0.015656
vn 0.176125 -0.984344 0.015656
vn 0.176125 -0.984344 0.015656
vn 0.176125 -0.984344 0.015656
vn 0.176125 -0.984344 0.015656
vn 0.176125 -0.984344 0.015656
vn -0.998043 0.000000 -0.046967
vn -0.998043 0.000000 -0.046967
vn -0.600783 0.000000 -0.800391
vn -0.998043 0.000000 -0.046967
vn -0.600783 0.000000 -0.800391
vn -0.600783 0.000000 -0.800391
vn -0.911937 0.000000 0.409002
vn -0.911937 0.000000 0.409002
vn -0.911937 0.000000 0.409002
vn -0.911937 0.000000 0.409002
vn -0.911937 0.000000 0.409002
vn -0.911937 0.000000 0.409002
vn 0.686888 0.706458 0.168297
vn -0.001957 1.000000 0.003914
vn 0.686888 0.706458 0.168297
vn -0.001957 1.000000 0.003914
vn -0.001957 1.000000 0.003914
vn 0.686888 0.706458 0.168297
vn 0.686888 -0.706458 0.164384
vn 0.686888 0.706458 0.168297
vn 0.686888 -0.706458 0.164384
vn 0.686888 0.706458 0.168297
vn 0.686888 0.706458 0.168297
vn 0.686888 -0.706458 0.164384
vn 0.686888 -0.706458 0.164384
vn 0.686888 -0.706458 0.164384
vn 0.000000 -1.000000 -0.003914
vn 0.686888 -0.706458 0.164384
vn 0.000000 -1.000000 -0.003914
vn 0.000000 -1.000000 -0.003914
vn -0.234834 0.000000 0.972603
vn -0.234834 0.000000 0.972603
vn -0.234834 0.000000 0.972603
vn -0.234834 0.000000 0.972603
vn -0.234834 0.000000 0.972603
vn -0.234834 0.000000 0.972603
vn 0.234834 0.000000 -0.972603
vn 0.234834 0.000000 -0.972603
vn 0.234834 0.000000 -0.972603
vn 0.234834 0.000000 -0.972603
vn 0.234834 0.000000 -0.972603
vn 0.234834 0.000000 -0.972603
vn 0.015656 -1.000000 0.031311
vn 0.015656 -1.000000 0.031311
vn 0.015656 -1.000000 0.031311
vn 0.015656 -1.000000 0.031311
vn 0.015656 -1.000000 0.031311
vn 0.015656 -1.000000 0.031311
vn 0.015656 -1.000000 0.031311
vn 0.015656 -1.000000 0.031311
vn 0.015656 -1.000000 0.031311
vn 0.894325 0.000000 0.448141
vn 0.894325 0.000000 0.448141
vn 0.894325 0.000000 0.448141
vn 0.894325 0.000000 0.448141
vn 0.894325 0.000000 0.448141
vn 0.894325 0.000000 0.448141
vn -0.234834 0.000000 0.972603
vn -0.234834 0.000000 0.972603
vn -0.234834 0.000000 0.972603
vn -0.234834 0.000000 0.972603
vn -0.234834 0.000000 0.972603
vn -0.234834 0.000000 0.972603
vn 0.015656 1.000000 0.031311
vn 0.015656 1.000000 0.031311
vn 0.015656 1.000000 0.031311
vn 0.015656 1.000000 0.031311
vn 0.015656 1.000000 0.031311
vn 0.015656 1.000000 0.031311
vn 0.015656 1.000000 0.031311
vn 0.015656 1.000000 0.031311
vn 0.015656 1.000000 0.031311
vn 0.043053 0.000000 -1.000000
vn 0.211350 0.000000 -0.976517
vn 0.211350 0.000000 -0.976517
vn 0.043053 0.000000 -1.000000
vn 0.043053 0.000000 -1.000000
vn 0.211350 0.000000 -0.976517
vn -0.502935 0.000000 -0.864971
vn 0.043053 0.000000 -1.000000
vn 0.043053 0.000000 -1.000000
vn -0.502935 0.000000 -0.864971
vn -0.502935 0.000000 -0.864971
vn 0.043053 0.000000 -1.000000
vn -0.798434 0.000000 -0.602740
vn -0.502935 0.000000 -0.864971
vn -0.502935 0.000000 -0.864971
vn -0.798434 0.000000 -0.602740
vn -0.798434 0.000000 -0.602740
vn -0.502935 0.000000 -0.864971
mtllib mtl_t6_wpn_smg_msmc_camo1.mtl
g mtl_t6_wpn_smg_msmc_camo1
usemtl mtl_t6_wpn_smg_msmc_camo1
f 3/3/3 2/2/2 1/1/1
f 6/6/6 5/5/5 4/4/4
f 9/9/9 8/8/8 7/7/7
f 12/12/12 11/11/11 10/10/10
f 15/15/15 14/14/14 13/13/13
f 18/18/18 17/17/17 16/16/16
f 21/21/21 20/20/20 19/19/19
f 24/24/24 23/23/23 22/22/22
mtllib mtl_t6_attach_fastmag.mtl
g mtl_t6_attach_fastmag
usemtl mtl_t6_attach_fastmag
f 27/27/27 26/26/26 25/25/25
f 30/30/30 29/29/29 28/28/28
f 33/33/33 32/32/32 31/31/31
f 36/36/36 35/35/35 34/34/34
f 39/39/39 38/38/38 37/37/37
f 42/42/42 41/41/41 40/40/40
f 45/45/45 44/44/44 43/43/43
f 48/48/48 47/47/47 46/46/46
f 51/51/51 50/50/50 49/49/49
f 54/54/54 53/53/53 52/52/52
f 57/57/57 56/56/56 55/55/55
f 60/60/60 59/59/59 58/58/58
f 63/63/63 62/62/62 61/61/61
f 66/66/66 65/65/65 64/64/64
f 69/69/69 68/68/68 67/67/67
f 72/72/72 71/71/71 70/70/70
f 75/75/75 74/74/74 73/73/73
f 78/78/78 77/77/77 76/76/76
f 81/81/81 80/80/80 79/79/79
f 84/84/84 83/83/83 82/82/82
f 87/87/87 86/86/86 85/85/85
f 90/90/90 89/89/89 88/88/88
f 93/93/93 92/92/92 91/91/91
f 96/96/96 95/95/95 94/94/94
f 99/99/99 98/98/98 97/97/97
f 102/102/102 101/101/101 100/100/100
f 105/105/105 104/104/104 103/103/103
f 108/108/108 107/107/107 106/106/106
