# Generated by Wraith - Game extraction tools
# Please credit DTZxPorter for using it!

v -2.003889 -1.089967 -21.330774
v 5.466614 -1.089967 -19.196272
v -2.003889 1.160125 -21.330774
v 5.466614 -1.089967 -19.196272
v 5.466614 1.160125 -19.196272
v -2.003889 1.160125 -21.330774
v -2.003889 1.160125 -21.330774
v -3.339573 1.160125 -16.224783
v -2.003889 -1.089967 -21.330774
v -3.339573 1.160125 -16.224783
v -3.339573 -1.089967 -16.224783
v -2.003889 -1.089967 -21.330774
v -4.365804 -1.089967 -7.317204
v -3.339573 -1.089967 -16.224783
v -3.339573 1.160125 -16.224783
v -4.365804 1.160125 -7.317204
v -4.365804 -1.089967 -7.317204
v -3.339573 1.160125 -16.224783
v -4.365804 1.160125 -7.317204
v -4.365804 1.134270 -0.110353
v -4.365804 -1.089967 -7.317204
v -4.365804 1.134270 -0.110353
v -4.365804 -1.064113 -0.110353
v -4.365804 -1.089967 -7.317204
v -3.339573 1.160125 -16.224783
v -2.003889 1.160125 -21.330774
v 5.466614 1.160125 -19.196272
v 4.182238 1.160125 -14.278809
v -3.339573 1.160125 -16.224783
v 5.466614 1.160125 -19.196272
v -3.339573 1.160125 -16.224783
v 4.182238 1.160125 -14.278809
v -4.365804 1.160125 -7.317204
v 4.182238 1.160125 -14.278809
v 3.403654 1.160125 -7.317204
v -4.365804 1.160125 -7.317204
v -4.365804 1.160125 -7.317204
v 3.403654 1.160125 -7.317204
v 3.403654 1.160125 -0.422148
v -4.365804 1.134270 -0.110353
v -4.365804 1.160125 -7.317204
v 3.403654 1.160125 -0.422148
v 5.466614 -1.089967 -19.196272
v -2.003889 -1.089967 -21.330774
v -3.339573 -1.089967 -16.224783
v 4.182238 -1.089967 -14.278809
v 5.466614 -1.089967 -19.196272
v -3.339573 -1.089967 -16.224783
v 4.182238 -1.089967 -14.278809
v -3.339573 -1.089967 -16.224783
v -4.365804 -1.089967 -7.317204
v 3.403654 -1.089967 -7.317204
v 4.182238 -1.089967 -14.278809
v -4.365804 -1.089967 -7.317204
v 3.403654 -1.089967 -7.317204
v -4.365804 -1.089967 -7.317204
v 3.403654 -1.089967 -0.422148
v -4.365804 -1.089967 -7.317204
v -4.365804 -1.064113 -0.110353
v 3.403654 -1.089967 -0.422148
v 5.466614 1.160125 -19.196272
v 5.466614 -1.089967 -19.196272
v 4.182238 1.160125 -14.278809
v 5.466614 -1.089967 -19.196272
v 4.182238 -1.089967 -14.278809
v 4.182238 1.160125 -14.278809
v 4.182238 -1.089967 -14.278809
v 3.403654 -1.089967 -7.317204
v 4.182238 1.160125 -14.278809
v 3.403654 -1.089967 -7.317204
v 3.403654 1.160125 -7.317204
v 4.182238 1.160125 -14.278809
v 3.403654 1.160125 -0.422148
v 3.403654 1.160125 -7.317204
v 3.403654 -1.089967 -7.317204
v 3.403654 -1.089967 -0.422148
v 3.403654 1.160125 -0.422148
v 3.403654 -1.089967 -7.317204
v 3.403654 1.160125 -0.422148
v 3.403654 -1.089967 -0.422148
v -4.365804 1.134270 -0.110353
v 3.403654 -1.089967 -0.422148
v -4.365804 -1.064113 -0.110353
v -4.365804 1.134270 -0.110353
v -4.784233 3.423732 -8.757650
v 2.940356 3.423732 -7.923850
v -4.784233 1.173640 -8.757650
v 2.940356 3.423732 -7.923850
v 2.940356 1.173640 -7.923850
v -4.784233 1.173640 -8.757650
v -4.784233 1.173640 -8.757650
v -4.100186 1.173640 -13.990936
v -4.784233 3.423732 -8.757650
v -4.100186 1.173640 -13.990936
v -4.100186 3.423732 -13.990936
v -4.784233 3.423732 -8.757650
v -1.698772 3.423732 -22.629881
v -4.100186 3.423732 -13.990936
v -4.100186 1.173640 -13.990936
v -1.698772 1.173640 -22.629881
v -1.698772 3.423732 -22.629881
v -4.100186 1.173640 -13.990936
v -1.698772 1.173640 -22.629881
v 1.013393 1.199495 -29.306919
v -1.698772 3.423732 -22.629881
v 1.013393 1.199495 -29.306919
v 1.013393 3.397877 -29.306919
v -1.698772 3.423732 -22.629881
v -4.100186 1.173640 -13.990936
v -4.784233 1.173640 -8.757650
v 2.940356 1.173640 -7.923850
v 3.600999 1.173640 -12.963162
v -4.100186 1.173640 -13.990936
v 2.940356 1.173640 -7.923850
v -4.100186 1.173640 -13.990936
v 3.600999 1.173640 -12.963162
v -1.698772 1.173640 -22.629881
v 3.600999 1.173640 -12.963162
v 5.499516 1.173640 -19.705990
v -1.698772 1.173640 -22.629881
v -1.698772 1.173640 -22.629881
v 5.499516 1.173640 -19.705990
v 8.094341 1.173640 -26.094156
v 1.013393 1.199495 -29.306919
v -1.698772 1.173640 -22.629881
v 8.094341 1.173640 -26.094156
v 2.940356 3.423732 -7.923850
v -4.784233 3.423732 -8.757650
v -4.100186 3.423732 -13.990936
v 3.600999 3.423732 -12.963162
v 2.940356 3.423732 -7.923850
v -4.100186 3.423732 -13.990936
v 3.600999 3.423732 -12.963162
v -4.100186 3.423732 -13.990936
v -1.698772 3.423732 -22.629881
v 5.499516 3.423732 -19.705990
v 3.600999 3.423732 -12.963162
v -1.698772 3.423732 -22.629881
v 5.499516 3.423732 -19.705990
v -1.698772 3.423732 -22.629881
v 8.094341 3.423732 -26.094156
v -1.698772 3.423732 -22.629881
v 1.013393 3.397877 -29.306919
v 8.094341 3.423732 -26.094156
v 2.940356 1.173640 -7.923850
v 2.940356 3.423732 -7.923850
v 3.600999 1.173640 -12.963162
v 2.940356 3.423732 -7.923850
v 3.600999 3.423732 -12.963162
v 3.600999 1.173640 -12.963162
v 3.600999 3.423732 -12.963162
v 5.499516 3.423732 -19.705990
v 3.600999 1.173640 -12.963162
v 5.499516 3.423732 -19.705990
v 5.499516 1.173640 -19.705990
v 3.600999 1.173640 -12.963162
v 8.094341 1.173640 -26.094156
v 5.499516 1.173640 -19.705990
v 5.499516 3.423732 -19.705990
v 8.094341 3.423732 -26.094156
v 8.094341 1.173640 -26.094156
v 5.499516 3.423732 -19.705990
v 8.094341 1.173640 -26.094156
v 8.094341 3.423732 -26.094156
v 1.013393 1.199495 -29.306919
v 8.094341 3.423732 -26.094156
v 1.013393 3.397877 -29.306919
v 1.013393 1.199495 -29.306919
v 3.973907 3.545136 -9.634136
v 4.420753 3.545136 -12.913647
v 3.973907 -1.173302 -9.634136
v 4.420753 3.545136 -12.913647
v 4.420753 -1.173302 -12.913647
v 3.973907 -1.173302 -9.634136
v -4.363270 3.478443 -15.461009
v -4.889396 3.478441 -12.022982
v -4.363270 -1.106607 -15.461009
v -4.889396 3.478441 -12.022982
v -4.889396 -1.106607 -12.022982
v -4.363270 -1.106607 -15.461009
v 3.973907 3.545136 -9.634136
v -4.889396 3.478441 -12.022982
v 4.420753 3.545136 -12.913647
v -4.889396 3.478441 -12.022982
v -4.363270 3.478443 -15.461009
v 4.420753 3.545136 -12.913647
v 4.420753 3.545136 -12.913647
v -4.363270 3.478443 -15.461009
v 4.420753 -1.173302 -12.913647
v -4.363270 3.478443 -15.461009
v -4.363270 -1.106607 -15.461009
v 4.420753 -1.173302 -12.913647
v 3.973907 -1.173302 -9.634136
v 4.420753 -1.173302 -12.913647
v -4.889396 -1.106607 -12.022982
v 4.420753 -1.173302 -12.913647
v -4.363270 -1.106607 -15.461009
v -4.889396 -1.106607 -12.022982
v 3.973907 -1.173302 -9.634136
v -4.889396 -1.106607 -12.022982
v 3.973907 3.545136 -9.634136
v -4.889396 -1.106607 -12.022982
v -4.889396 3.478441 -12.022982
v 3.973907 3.545136 -9.634136
vt 0.633789 0.711914
vt 0.630859 0.792969
vt 0.650879 0.711914
vt 0.630859 0.792969
vt 0.653809 0.792969
vt 0.650879 0.711914
vt 0.991211 0.079590
vt 0.938965 0.079590
vt 0.990234 0.097168
vt 0.938965 0.079590
vt 0.938477 0.097168
vt 0.990234 0.097168
vt 0.849609 0.097168
vt 0.938477 0.097168
vt 0.938965 0.079590
vt 0.849609 0.079590
vt 0.849609 0.097168
vt 0.938965 0.079590
vt 0.849609 0.079590
vt 0.782715 0.082031
vt 0.849609 0.097168
vt 0.782715 0.082031
vt 0.786621 0.097168
vt 0.849609 0.097168
vt 0.082520 0.236816
vt 0.096252 0.184570
vt 0.172974 0.206543
vt 0.159790 0.256836
vt 0.082520 0.236816
vt 0.172974 0.206543
vt 0.082520 0.236816
vt 0.159790 0.256836
vt 0.071960 0.328613
vt 0.159790 0.256836
vt 0.151733 0.328613
vt 0.071960 0.328613
vt 0.071960 0.328613
vt 0.151733 0.328613
vt 0.151978 0.407715
vt 0.071960 0.408691
vt 0.071960 0.328613
vt 0.151978 0.407715
vt 0.172974 0.206543
vt 0.096252 0.184570
vt 0.082520 0.236816
vt 0.159790 0.256836
vt 0.172974 0.206543
vt 0.082520 0.236816
vt 0.159790 0.256836
vt 0.082520 0.236816
vt 0.071960 0.328613
vt 0.151733 0.328613
vt 0.159790 0.256836
vt 0.071960 0.328613
vt 0.151733 0.328613
vt 0.071960 0.328613
vt 0.151978 0.407715
vt 0.071960 0.328613
vt 0.071960 0.408691
vt 0.151978 0.407715
vt 0.117371 0.418457
vt 0.094666 0.418457
vt 0.117371 0.469727
vt 0.094666 0.418457
vt 0.094666 0.469727
vt 0.117371 0.469727
vt 0.094666 0.469727
vt 0.094666 0.540283
vt 0.117371 0.469727
vt 0.094666 0.540283
vt 0.117371 0.540283
vt 0.117371 0.469727
vt 0.117371 0.609619
vt 0.117371 0.540283
vt 0.094666 0.540283
vt 0.094666 0.609619
vt 0.117371 0.609619
vt 0.094666 0.540283
vt 0.900391 0.604248
vt 0.900391 0.615967
vt 0.941895 0.605957
vt 0.900391 0.615967
vt 0.941895 0.614990
vt 0.941895 0.605957
vt 0.633789 0.711914
vt 0.630859 0.792969
vt 0.650879 0.711914
vt 0.630859 0.792969
vt 0.653809 0.792969
vt 0.650879 0.711914
vt 0.991211 0.079590
vt 0.938965 0.079590
vt 0.990234 0.097168
vt 0.938965 0.079590
vt 0.938477 0.097168
vt 0.990234 0.097168
vt 0.849609 0.097168
vt 0.938477 0.097168
vt 0.938965 0.079590
vt 0.849609 0.079590
vt 0.849609 0.097168
vt 0.938965 0.079590
vt 0.849609 0.079590
vt 0.782715 0.082031
vt 0.849609 0.097168
vt 0.782715 0.082031
vt 0.786621 0.097168
vt 0.849609 0.097168
vt 0.082520 0.236816
vt 0.096252 0.184570
vt 0.172974 0.206543
vt 0.159790 0.256836
vt 0.082520 0.236816
vt 0.172974 0.206543
vt 0.082520 0.236816
vt 0.159790 0.256836
vt 0.071960 0.328613
vt 0.159790 0.256836
vt 0.151733 0.328613
vt 0.071960 0.328613
vt 0.071960 0.328613
vt 0.151733 0.328613
vt 0.151978 0.407715
vt 0.071960 0.408691
vt 0.071960 0.328613
vt 0.151978 0.407715
vt 0.172974 0.206543
vt 0.096252 0.184570
vt 0.082520 0.236816
vt 0.159790 0.256836
vt 0.172974 0.206543
vt 0.082520 0.236816
vt 0.159790 0.256836
vt 0.082520 0.236816
vt 0.071960 0.328613
vt 0.151733 0.328613
vt 0.159790 0.256836
vt 0.071960 0.328613
vt 0.151733 0.328613
vt 0.071960 0.328613
vt 0.151978 0.407715
vt 0.071960 0.328613
vt 0.071960 0.408691
vt 0.151978 0.407715
vt 0.117371 0.418457
vt 0.094666 0.418457
vt 0.117371 0.469727
vt 0.094666 0.418457
vt 0.094666 0.469727
vt 0.117371 0.469727
vt 0.094666 0.469727
vt 0.094666 0.540283
vt 0.117371 0.469727
vt 0.094666 0.540283
vt 0.117371 0.540283
vt 0.117371 0.469727
vt 0.117371 0.609619
vt 0.117371 0.540283
vt 0.094666 0.540283
vt 0.094666 0.609619
vt 0.117371 0.609619
vt 0.094666 0.540283
vt 0.900391 0.604248
vt 0.900391 0.615967
vt 0.941895 0.605957
vt 0.900391 0.615967
vt 0.941895 0.614990
vt 0.941895 0.605957
vt 0.508789 0.541016
vt 0.527344 0.541016
vt 0.508789 0.507813
vt 0.527344 0.541016
vt 0.527344 0.507813
vt 0.508789 0.507813
vt 0.527344 0.541016
vt 0.508789 0.541016
vt 0.527344 0.507813
vt 0.508789 0.541016
vt 0.508789 0.507813
vt 0.527344 0.507813
vt 0.698730 0.613770
vt 0.607422 0.613525
vt 0.698730 0.586182
vt 0.607422 0.613525
vt 0.606934 0.586182
vt 0.698730 0.586182
vt 0.601563 0.591553
vt 0.601074 0.528076
vt 0.564453 0.591553
vt 0.601074 0.528076
vt 0.564453 0.528076
vt 0.564453 0.591553
vt 0.698730 0.613770
vt 0.698730 0.586182
vt 0.607422 0.613525
vt 0.698730 0.586182
vt 0.606934 0.586182
vt 0.607422 0.613525
vt 0.564453 0.591553
vt 0.564453 0.528076
vt 0.601563 0.591553
vt 0.564453 0.528076
vt 0.601074 0.528076
vt 0.601563 0.591553
vn 0.193738 -0.706458 -0.679061
vn 0.193738 -0.706458 -0.679061
vn 0.273973 0.000000 -0.960861
vn 0.193738 -0.706458 -0.679061
vn 0.273973 0.000000 -0.960861
vn 0.273973 0.000000 -0.960861
vn -0.966732 0.000000 -0.252446
vn -0.982387 0.000000 -0.183953
vn -0.966732 0.000000 -0.252446
vn -0.982387 0.000000 -0.183953
vn -0.982387 0.000000 -0.183953
vn -0.966732 0.000000 -0.252446
vn -0.998043 0.000000 -0.056751
vn -0.982387 0.000000 -0.183953
vn -0.982387 0.000000 -0.183953
vn -0.998043 0.000000 -0.056751
vn -0.998043 0.000000 -0.056751
vn -0.982387 0.000000 -0.183953
vn -0.998043 0.000000 -0.056751
vn -1.000000 0.000000 0.000000
vn -0.998043 0.000000 -0.056751
vn -1.000000 0.000000 0.000000
vn -1.000000 0.000000 0.000000
vn -0.998043 0.000000 -0.056751
vn 0.000000 1.000000 0.000000
vn 0.000000 1.000000 0.000000
vn 0.000000 1.000000 0.000000
vn 0.000000 1.000000 0.000000
vn 0.000000 1.000000 0.000000
vn 0.000000 1.000000 0.000000
vn 0.000000 1.000000 0.000000
vn 0.000000 1.000000 0.000000
vn 0.000000 1.000000 0.000000
vn 0.000000 1.000000 0.000000
vn 0.704501 0.708415 0.039139
vn 0.000000 1.000000 0.000000
vn 0.000000 1.000000 0.000000
vn 0.704501 0.708415 0.039139
vn 0.590998 0.569472 0.569472
vn 0.027397 0.706458 0.706458
vn 0.000000 1.000000 0.000000
vn 0.590998 0.569472 0.569472
vn 0.193738 -0.706458 -0.679061
vn 0.193738 -0.706458 -0.679061
vn 0.000000 -1.000000 0.000000
vn 0.000000 -1.000000 0.000000
vn 0.193738 -0.706458 -0.679061
vn 0.000000 -1.000000 0.000000
vn 0.000000 -1.000000 0.000000
vn 0.000000 -1.000000 0.000000
vn 0.000000 -1.000000 0.000000
vn 0.000000 -1.000000 0.000000
vn 0.000000 -1.000000 0.000000
vn 0.000000 -1.000000 0.000000
vn 0.000000 -1.000000 0.000000
vn 0.000000 -1.000000 0.000000
vn -0.001957 -1.000000 0.001957
vn 0.000000 -1.000000 0.000000
vn -0.001957 -1.000000 0.001957
vn -0.001957 -1.000000 0.001957
vn 0.966732 0.000000 0.252446
vn 0.966732 0.000000 0.252446
vn 0.982387 0.000000 0.181996
vn 0.966732 0.000000 0.252446
vn 0.982387 0.000000 0.181996
vn 0.982387 0.000000 0.181996
vn 0.982387 0.000000 0.181996
vn 0.998043 0.000000 0.054795
vn 0.982387 0.000000 0.181996
vn 0.998043 0.000000 0.054795
vn 0.704501 0.708415 0.039139
vn 0.982387 0.000000 0.181996
vn 0.590998 0.569472 0.569472
vn 0.704501 0.708415 0.039139
vn 0.998043 0.000000 0.054795
vn 1.000000 0.000000 0.000000
vn 0.590998 0.569472 0.569472
vn 0.998043 0.000000 0.054795
vn 0.590998 0.569472 0.569472
vn 0.039139 0.000000 1.000000
vn 0.027397 0.706458 0.706458
vn 0.039139 0.000000 1.000000
vn 0.039139 0.000000 1.000000
vn 0.027397 0.706458 0.706458
vn -0.076321 0.706458 0.702544
vn -0.076321 0.706458 0.702544
vn -0.107632 0.000000 0.994129
vn -0.076321 0.706458 0.702544
vn -0.107632 0.000000 0.994129
vn -0.107632 0.000000 0.994129
vn -0.992172 0.000000 -0.129159
vn -0.980431 0.000000 -0.199609
vn -0.992172 0.000000 -0.129159
vn -0.980431 0.000000 -0.199609
vn -0.980431 0.000000 -0.199609
vn -0.992172 0.000000 -0.129159
vn -0.947162 0.000000 -0.322896
vn -0.980431 0.000000 -0.199609
vn -0.980431 0.000000 -0.199609
vn -0.947162 0.000000 -0.322896
vn -0.947162 0.000000 -0.322896
vn -0.980431 0.000000 -0.199609
vn -0.947162 0.000000 -0.322896
vn -0.925636 0.000000 -0.375734
vn -0.947162 0.000000 -0.322896
vn -0.925636 0.000000 -0.375734
vn -0.925636 0.000000 -0.375734
vn -0.947162 0.000000 -0.322896
vn 0.000000 -1.000000 0.000000
vn 0.000000 -1.000000 0.000000
vn 0.000000 -1.000000 0.000000
vn 0.000000 -1.000000 0.000000
vn 0.000000 -1.000000 0.000000
vn 0.000000 -1.000000 0.000000
vn 0.000000 -1.000000 0.000000
vn 0.000000 -1.000000 0.000000
vn 0.000000 -1.000000 -0.001957
vn 0.000000 -1.000000 0.000000
vn 0.669276 -0.708415 0.228963
vn 0.000000 -1.000000 -0.001957
vn 0.000000 -1.000000 -0.001957
vn 0.669276 -0.708415 0.228963
vn 0.763209 -0.569472 -0.305284
vn 0.291585 -0.706458 -0.645793
vn 0.000000 -1.000000 -0.001957
vn 0.763209 -0.569472 -0.305284
vn -0.076321 0.706458 0.702544
vn -0.076321 0.706458 0.702544
vn 0.000000 1.000000 0.000000
vn 0.000000 1.000000 0.000000
vn -0.076321 0.706458 0.702544
vn 0.000000 1.000000 0.000000
vn 0.000000 1.000000 0.000000
vn 0.000000 1.000000 0.000000
vn 0.000000 1.000000 -0.001957
vn 0.000000 1.000000 -0.001957
vn 0.000000 1.000000 0.000000
vn 0.000000 1.000000 -0.001957
vn 0.000000 1.000000 -0.001957
vn 0.000000 1.000000 -0.001957
vn 0.000000 1.000000 -0.001957
vn 0.000000 1.000000 -0.001957
vn 0.000000 1.000000 -0.001957
vn 0.000000 1.000000 -0.001957
vn 0.992172 0.000000 0.129159
vn 0.992172 0.000000 0.129159
vn 0.980431 0.000000 0.201566
vn 0.992172 0.000000 0.129159
vn 0.980431 0.000000 0.201566
vn 0.980431 0.000000 0.201566
vn 0.980431 0.000000 0.201566
vn 0.945205 0.000000 0.324853
vn 0.980431 0.000000 0.201566
vn 0.945205 0.000000 0.324853
vn 0.669276 -0.708415 0.228963
vn 0.980431 0.000000 0.201566
vn 0.763209 -0.569472 -0.305284
vn 0.669276 -0.708415 0.228963
vn 0.945205 0.000000 0.324853
vn 0.925636 0.000000 0.375734
vn 0.763209 -0.569472 -0.305284
vn 0.945205 0.000000 0.324853
vn 0.763209 -0.569472 -0.305284
vn 0.412916 0.000000 -0.909980
vn 0.291585 -0.706458 -0.645793
vn 0.412916 0.000000 -0.909980
vn 0.412916 0.000000 -0.909980
vn 0.291585 -0.706458 -0.645793
vn 0.990215 0.000000 0.135029
vn 0.990215 0.000000 0.135029
vn 0.990215 0.000000 0.135029
vn 0.990215 0.000000 0.135029
vn 0.990215 0.000000 0.135029
vn 0.990215 0.000000 0.135029
vn -0.988258 0.000000 -0.150685
vn -0.988258 0.000000 -0.150685
vn -0.988258 0.000000 -0.150685
vn -0.988258 0.000000 -0.150685
vn -0.988258 0.000000 -0.150685
vn -0.988258 0.000000 -0.150685
vn -0.007828 1.000000 -0.001957
vn -0.007828 1.000000 -0.001957
vn -0.007828 1.000000 -0.001957
vn -0.007828 1.000000 -0.001957
vn -0.007828 1.000000 -0.001957
vn -0.007828 1.000000 -0.001957
vn 0.277887 0.000000 -0.960861
vn 0.277887 0.000000 -0.960861
vn 0.277887 0.000000 -0.960861
vn 0.277887 0.000000 -0.960861
vn 0.277887 0.000000 -0.960861
vn 0.277887 0.000000 -0.960861
vn -0.007828 -1.000000 -0.001957
vn -0.007828 -1.000000 -0.001957
vn -0.007828 -1.000000 -0.001957
vn -0.007828 -1.000000 -0.001957
vn -0.007828 -1.000000 -0.001957
vn -0.007828 -1.000000 -0.001957
vn -0.260274 0.000000 0.964775
vn -0.260274 0.000000 0.964775
vn -0.260274 0.000000 0.964775
vn -0.260274 0.000000 0.964775
vn -0.260274 0.000000 0.964775
vn -0.260274 0.000000 0.964775
mtllib mtl_t6_wpn_ar_x95l_camo1.mtl
g mtl_t6_wpn_ar_x95l_camo1
usemtl mtl_t6_wpn_ar_x95l_camo1
f 3/3/3 2/2/2 1/1/1
f 6/6/6 5/5/5 4/4/4
f 9/9/9 8/8/8 7/7/7
f 12/12/12 11/11/11 10/10/10
f 15/15/15 14/14/14 13/13/13
f 18/18/18 17/17/17 16/16/16
f 21/21/21 20/20/20 19/19/19
f 24/24/24 23/23/23 22/22/22
f 27/27/27 26/26/26 25/25/25
f 30/30/30 29/29/29 28/28/28
f 33/33/33 32/32/32 31/31/31
f 36/36/36 35/35/35 34/34/34
f 39/39/39 38/38/38 37/37/37
f 42/42/42 41/41/41 40/40/40
f 45/45/45 44/44/44 43/43/43
f 48/48/48 47/47/47 46/46/46
f 51/51/51 50/50/50 49/49/49
f 54/54/54 53/53/53 52/52/52
f 57/57/57 56/56/56 55/55/55
f 60/60/60 59/59/59 58/58/58
f 63/63/63 62/62/62 61/61/61
f 66/66/66 65/65/65 64/64/64
f 69/69/69 68/68/68 67/67/67
f 72/72/72 71/71/71 70/70/70
f 75/75/75 74/74/74 73/73/73
f 78/78/78 77/77/77 76/76/76
f 81/81/81 80/80/80 79/79/79
f 84/84/84 83/83/83 82/82/82
f 87/87/87 86/86/86 85/85/85
f 90/90/90 89/89/89 88/88/88
f 93/93/93 92/92/92 91/91/91
f 96/96/96 95/95/95 94/94/94
f 99/99/99 98/98/98 97/97/97
f 102/102/102 101/101/101 100/100/100
f 105/105/105 104/104/104 103/103/103
f 108/108/108 107/107/107 106/106/106
f 111/111/111 110/110/110 109/109/109
f 114/114/114 113/113/113 112/112/112
f 117/117/117 116/116/116 115/115/115
f 120/120/120 119/119/119 118/118/118
f 123/123/123 122/122/122 121/121/121
f 126/126/126 125/125/125 124/124/124
f 129/129/129 128/128/128 127/127/127
f 132/132/132 131/131/131 130/130/130
f 135/135/135 134/134/134 133/133/133
f 138/138/138 137/137/137 136/136/136
f 141/141/141 140/140/140 139/139/139
f 144/144/144 143/143/143 142/142/142
f 147/147/147 146/146/146 145/145/145
f 150/150/150 149/149/149 148/148/148
f 153/153/153 152/152/152 151/151/151
f 156/156/156 155/155/155 154/154/154
f 159/159/159 158/158/158 157/157/157
f 162/162/162 161/161/161 160/160/160
f 165/165/165 164/164/164 163/163/163
f 168/168/168 167/167/167 166/166/166
mtllib mtl_t6_wpn_ar_x95l_camo4.mtl
g mtl_t6_wpn_ar_x95l_camo4
usemtl mtl_t6_wpn_ar_x95l_camo4
f 171/171/171 170/170/170 169/169/169
f 174/174/174 173/173/173 172/172/172
f 177/177/177 176/176/176 175/175/175
f 180/180/180 179/179/179 178/178/178
f 183/183/183 182/182/182 181/181/181
f 186/186/186 185/185/185 184/184/184
f 189/189/189 188/188/188 187/187/187
f 192/192/192 191/191/191 190/190/190
f 195/195/195 194/194/194 193/193/193
f 198/198/198 197/197/197 196/196/196
f 201/201/201 200/200/200 199/199/199
f 204/204/204 203/203/203 202/202/202
